<?xml version="1.0" encoding="UTF-8" standalone="no"?>
<!DOCTYPE svg PUBLIC "-//W3C//DTD SVG 1.1//EN"
 "http://www.w3.org/Graphics/SVG/1.1/DTD/svg11.dtd">
<!-- Generated by graphviz version 2.43.0 (0)
 -->
<!-- Title: ThreadSafeErrorCollector Pages: 1 -->
<svg width="141pt" height="162pt"
 viewBox="0.00 0.00 141.00 162.00" xmlns="http://www.w3.org/2000/svg" xmlns:xlink="http://www.w3.org/1999/xlink">
<g id="graph0" class="graph" transform="scale(1 1) rotate(0) translate(4 158)">
<title>ThreadSafeErrorCollector</title>
<!-- Node1 -->
<g id="Node000001" class="node">
<title>Node1</title>
<g id="a_Node000001"><a xlink:title="Thread&#45;safe collection and management of error and warning messages.">
<polygon fill="#999999" stroke="transparent" points="133,-154 0,-154 0,0 133,0 133,-154"/>
<text text-anchor="start" x="5.5" y="-142" font-family="Helvetica,sans-Serif" font-size="10.00">ThreadSafeErrorCollector</text>
<text text-anchor="start" x="16.5" y="-127" font-family="Helvetica,sans-Serif" font-size="10.00">&#45;</text>
<text text-anchor="start" x="36.5" y="-127" font-family="Helvetica,sans-Serif" font-size="10.00">error_mutex</text>
<text text-anchor="start" x="16.5" y="-112" font-family="Helvetica,sans-Serif" font-size="10.00">&#45;</text>
<text text-anchor="start" x="36.5" y="-112" font-family="Helvetica,sans-Serif" font-size="10.00">errors</text>
<text text-anchor="start" x="16.5" y="-97" font-family="Helvetica,sans-Serif" font-size="10.00">&#45;</text>
<text text-anchor="start" x="36.5" y="-97" font-family="Helvetica,sans-Serif" font-size="10.00">warnings</text>
<text text-anchor="start" x="14" y="-82" font-family="Helvetica,sans-Serif" font-size="10.00">+</text>
<text text-anchor="start" x="36.5" y="-82" font-family="Helvetica,sans-Serif" font-size="10.00">add_error()</text>
<text text-anchor="start" x="14" y="-67" font-family="Helvetica,sans-Serif" font-size="10.00">+</text>
<text text-anchor="start" x="36.5" y="-67" font-family="Helvetica,sans-Serif" font-size="10.00">add_warning()</text>
<text text-anchor="start" x="14" y="-52" font-family="Helvetica,sans-Serif" font-size="10.00">+</text>
<text text-anchor="start" x="36.5" y="-52" font-family="Helvetica,sans-Serif" font-size="10.00">get_errors()</text>
<text text-anchor="start" x="14" y="-37" font-family="Helvetica,sans-Serif" font-size="10.00">+</text>
<text text-anchor="start" x="36.5" y="-37" font-family="Helvetica,sans-Serif" font-size="10.00">get_warnings()</text>
<text text-anchor="start" x="14" y="-22" font-family="Helvetica,sans-Serif" font-size="10.00">+</text>
<text text-anchor="start" x="36.5" y="-22" font-family="Helvetica,sans-Serif" font-size="10.00">has_errors()</text>
<text text-anchor="start" x="14" y="-7" font-family="Helvetica,sans-Serif" font-size="10.00">+</text>
<text text-anchor="start" x="36.5" y="-7" font-family="Helvetica,sans-Serif" font-size="10.00">clear()</text>
<polygon fill="#666666" stroke="#666666" points="0.5,-137 0.5,-137 133.5,-137 133.5,-137 0.5,-137"/>
<polygon fill="#666666" stroke="#666666" points="0.5,-92 0.5,-92 34.5,-92 34.5,-92 0.5,-92"/>
<polygon fill="#666666" stroke="#666666" points="34.5,-92 34.5,-92 133.5,-92 133.5,-92 34.5,-92"/>
<polygon fill="none" stroke="#666666" points="0,0 0,-154 133,-154 133,0 0,0"/>
</a>
</g>
</g>
</g>
</svg>
