<?xml version="1.0" encoding="UTF-8" standalone="no"?>
<!DOCTYPE svg PUBLIC "-//W3C//DTD SVG 1.1//EN"
 "http://www.w3.org/Graphics/SVG/1.1/DTD/svg11.dtd">
<!-- Generated by graphviz version 2.43.0 (0)
 -->
<!-- Title: CreateInput::loadParameters Pages: 1 -->
<svg width="716pt" height="150pt"
 viewBox="0.00 0.00 716.00 149.50" xmlns="http://www.w3.org/2000/svg" xmlns:xlink="http://www.w3.org/1999/xlink">
<g id="graph0" class="graph" transform="scale(1 1) rotate(0) translate(4 145.5)">
<title>CreateInput::loadParameters</title>
<!-- Node1 -->
<g id="Node000001" class="node">
<title>Node1</title>
<g id="a_Node000001"><a xlink:title="Load parameters from a parameter file.">
<polygon fill="#999999" stroke="#666666" points="156,-85.5 0,-85.5 0,-66.5 156,-66.5 156,-85.5"/>
<text text-anchor="middle" x="78" y="-73.5" font-family="Helvetica,sans-Serif" font-size="10.00">CreateInput::loadParameters</text>
</a>
</g>
</g>
<!-- Node2 -->
<g id="Node000002" class="node">
<title>Node2</title>
<g id="a_Node000002"><a xlink:href="classParameterParser.html#a812dd34c065e32babf7d98cae0157ddc" target="_top" xlink:title="Get a parameter value as integer.">
<polygon fill="white" stroke="#666666" points="340.5,-141.5 209.5,-141.5 209.5,-122.5 340.5,-122.5 340.5,-141.5"/>
<text text-anchor="middle" x="275" y="-129.5" font-family="Helvetica,sans-Serif" font-size="10.00">ParameterParser::getInt</text>
</a>
</g>
</g>
<!-- Node1&#45;&gt;Node2 -->
<g id="edge1_Node000001_Node000002" class="edge">
<title>Node1&#45;&gt;Node2</title>
<g id="a_edge1_Node000001_Node000002"><a xlink:title=" ">
<path fill="none" stroke="#63b8ff" d="M104.78,-85.56C127.53,-93.78 161.68,-105.6 192,-114 199.89,-116.19 208.26,-118.28 216.53,-120.21"/>
<polygon fill="#63b8ff" stroke="#63b8ff" points="215.99,-123.68 226.52,-122.49 217.55,-116.86 215.99,-123.68"/>
</a>
</g>
</g>
<!-- Node3 -->
<g id="Node000003" class="node">
<title>Node3</title>
<g id="a_Node000003"><a xlink:href="classParameterParser.html#a7dcab5148f496bf123040027118a1cd8" target="_top" xlink:title="Get a parameter value as string.">
<polygon fill="white" stroke="#666666" points="348.5,-104.5 201.5,-104.5 201.5,-85.5 348.5,-85.5 348.5,-104.5"/>
<text text-anchor="middle" x="275" y="-92.5" font-family="Helvetica,sans-Serif" font-size="10.00">ParameterParser::getString</text>
</a>
</g>
</g>
<!-- Node1&#45;&gt;Node3 -->
<g id="edge2_Node000001_Node000003" class="edge">
<title>Node1&#45;&gt;Node3</title>
<g id="a_edge2_Node000001_Node000003"><a xlink:title=" ">
<path fill="none" stroke="#63b8ff" d="M156.07,-83.51C167.6,-84.63 179.52,-85.79 191.16,-86.93"/>
<polygon fill="#63b8ff" stroke="#63b8ff" points="191.01,-90.43 201.3,-87.92 191.69,-83.46 191.01,-90.43"/>
</a>
</g>
</g>
<!-- Node4 -->
<g id="Node000004" class="node">
<title>Node4</title>
<g id="a_Node000004"><a xlink:href="classParameterParser.html#aaea513c087ec06939e4f34b94895bbe8" target="_top" xlink:title="Load parameters from a file.">
<polygon fill="white" stroke="#666666" points="358,-67.5 192,-67.5 192,-48.5 358,-48.5 358,-67.5"/>
<text text-anchor="middle" x="275" y="-55.5" font-family="Helvetica,sans-Serif" font-size="10.00">ParameterParser::loadFromFile</text>
</a>
</g>
</g>
<!-- Node1&#45;&gt;Node4 -->
<g id="edge3_Node000001_Node000004" class="edge">
<title>Node1&#45;&gt;Node4</title>
<g id="a_edge3_Node000001_Node000004"><a xlink:title=" ">
<path fill="none" stroke="#63b8ff" d="M156.07,-68.89C164.49,-68.11 173.12,-67.31 181.69,-66.52"/>
<polygon fill="#63b8ff" stroke="#63b8ff" points="182.08,-70 191.72,-65.6 181.44,-63.03 182.08,-70"/>
</a>
</g>
</g>
<!-- Node8 -->
<g id="Node000008" class="node">
<title>Node8</title>
<g id="a_Node000008"><a xlink:href="classCreateInput.html#a21f7d35599d7f5b9b02f32e6a513bd7c" target="_top" xlink:title="Parse freeze atoms string into vector of atom indices.">
<polygon fill="white" stroke="#666666" points="344.5,-30 205.5,-30 205.5,0 344.5,0 344.5,-30"/>
<text text-anchor="start" x="213.5" y="-18" font-family="Helvetica,sans-Serif" font-size="10.00">CreateInput::parseFreeze</text>
<text text-anchor="middle" x="275" y="-7" font-family="Helvetica,sans-Serif" font-size="10.00">AtomsString</text>
</a>
</g>
</g>
<!-- Node1&#45;&gt;Node8 -->
<g id="edge9_Node000001_Node000008" class="edge">
<title>Node1&#45;&gt;Node8</title>
<g id="a_edge9_Node000001_Node000008"><a xlink:title=" ">
<path fill="none" stroke="#63b8ff" d="M107.25,-66.48C130.06,-58.85 163.02,-47.98 192,-39 198.38,-37.02 205.05,-35 211.71,-33.01"/>
<polygon fill="#63b8ff" stroke="#63b8ff" points="212.84,-36.32 221.43,-30.12 210.85,-29.61 212.84,-36.32"/>
</a>
</g>
</g>
<!-- Node5 -->
<g id="Node000005" class="node">
<title>Node5</title>
<g id="a_Node000005"><a xlink:href="classParameterParser.html#ac85db5fadcadc7b6edc915d15dfba8f8" target="_top" xlink:title="Parse a line from the parameter file.">
<polygon fill="white" stroke="#666666" points="546.5,-105.5 396.5,-105.5 396.5,-86.5 546.5,-86.5 546.5,-105.5"/>
<text text-anchor="middle" x="471.5" y="-93.5" font-family="Helvetica,sans-Serif" font-size="10.00">ParameterParser::parseLine</text>
</a>
</g>
</g>
<!-- Node4&#45;&gt;Node5 -->
<g id="edge4_Node000004_Node000005" class="edge">
<title>Node4&#45;&gt;Node5</title>
<g id="a_edge4_Node000004_Node000005"><a xlink:title=" ">
<path fill="none" stroke="#63b8ff" d="M324.83,-67.54C351.19,-72.69 383.92,-79.08 411.67,-84.51"/>
<polygon fill="#63b8ff" stroke="#63b8ff" points="411.16,-87.97 421.65,-86.46 412.51,-81.1 411.16,-87.97"/>
</a>
</g>
</g>
<!-- Node6 -->
<g id="Node000006" class="node">
<title>Node6</title>
<g id="a_Node000006"><a xlink:href="classParameterParser.html#a8c06b2d410e65e0dd2347fa92c99f640" target="_top" xlink:title="Trim whitespace from string.">
<polygon fill="white" stroke="#666666" points="708,-67.5 585,-67.5 585,-48.5 708,-48.5 708,-67.5"/>
<text text-anchor="middle" x="646.5" y="-55.5" font-family="Helvetica,sans-Serif" font-size="10.00">ParameterParser::trim</text>
</a>
</g>
</g>
<!-- Node4&#45;&gt;Node6 -->
<g id="edge8_Node000004_Node000006" class="edge">
<title>Node4&#45;&gt;Node6</title>
<g id="a_edge8_Node000004_Node000006"><a xlink:title=" ">
<path fill="none" stroke="#63b8ff" d="M358,-58C423.06,-58 513.03,-58 574.91,-58"/>
<polygon fill="#63b8ff" stroke="#63b8ff" points="574.97,-61.5 584.97,-58 574.97,-54.5 574.97,-61.5"/>
</a>
</g>
</g>
<!-- Node7 -->
<g id="Node000007" class="node">
<title>Node7</title>
<g id="a_Node000007"><a xlink:href="classParameterParser.html#aa9c4b23545a5a5e3990b88b9f38c71d3" target="_top" xlink:title="Handle multi&#45;line parameter values.">
<polygon fill="white" stroke="#666666" points="549,-30 394,-30 394,0 549,0 549,-30"/>
<text text-anchor="start" x="402" y="-18" font-family="Helvetica,sans-Serif" font-size="10.00">ParameterParser::parseMulti</text>
<text text-anchor="middle" x="471.5" y="-7" font-family="Helvetica,sans-Serif" font-size="10.00">LineValue</text>
</a>
</g>
</g>
<!-- Node4&#45;&gt;Node7 -->
<g id="edge6_Node000004_Node000007" class="edge">
<title>Node4&#45;&gt;Node7</title>
<g id="a_edge6_Node000004_Node000007"><a xlink:title=" ">
<path fill="none" stroke="#63b8ff" d="M319.17,-48.46C340.8,-43.67 367.68,-37.73 392.75,-32.19"/>
<polygon fill="#63b8ff" stroke="#63b8ff" points="393.61,-35.58 402.62,-30.01 392.1,-28.75 393.61,-35.58"/>
</a>
</g>
</g>
<!-- Node5&#45;&gt;Node6 -->
<g id="edge5_Node000005_Node000006" class="edge">
<title>Node5&#45;&gt;Node6</title>
<g id="a_edge5_Node000005_Node000006"><a xlink:title=" ">
<path fill="none" stroke="#63b8ff" d="M516.16,-86.41C539.29,-81.33 567.9,-75.04 592.33,-69.68"/>
<polygon fill="#63b8ff" stroke="#63b8ff" points="593.14,-73.08 602.16,-67.52 591.64,-66.25 593.14,-73.08"/>
</a>
</g>
</g>
<!-- Node7&#45;&gt;Node6 -->
<g id="edge7_Node000007_Node000006" class="edge">
<title>Node7&#45;&gt;Node6</title>
<g id="a_edge7_Node000007_Node000006"><a xlink:title=" ">
<path fill="none" stroke="#63b8ff" d="M533.01,-30.04C554.1,-35.28 577.46,-41.09 597.4,-46.04"/>
<polygon fill="#63b8ff" stroke="#63b8ff" points="596.64,-49.46 607.19,-48.48 598.33,-42.67 596.64,-49.46"/>
</a>
</g>
</g>
</g>
</svg>
