<?xml version="1.0" encoding="UTF-8" standalone="no"?>
<!DOCTYPE svg PUBLIC "-//W3C//DTD SVG 1.1//EN"
 "http://www.w3.org/Graphics/SVG/1.1/DTD/svg11.dtd">
<!-- Generated by graphviz version 2.43.0 (0)
 -->
<!-- Title: CreateInput::create_inputs Pages: 1 -->
<svg width="797pt" height="303pt"
 viewBox="0.00 0.00 797.00 303.01" xmlns="http://www.w3.org/2000/svg" xmlns:xlink="http://www.w3.org/1999/xlink">
<g id="graph0" class="graph" transform="scale(1 1) rotate(0) translate(4 299.01)">
<title>CreateInput::create_inputs</title>
<!-- Node1 -->
<g id="Node000001" class="node">
<title>Node1</title>
<g id="a_Node000001"><a xlink:title="Main method to create input files from XYZ files.">
<polygon fill="#999999" stroke="#666666" points="110,-177.01 0,-177.01 0,-147.01 110,-147.01 110,-177.01"/>
<text text-anchor="start" x="8" y="-165.01" font-family="Helvetica,sans-Serif" font-size="10.00">CreateInput::create</text>
<text text-anchor="middle" x="55" y="-154.01" font-family="Helvetica,sans-Serif" font-size="10.00">_inputs</text>
</a>
</g>
</g>
<!-- Node2 -->
<g id="Node000002" class="node">
<title>Node2</title>
<g id="a_Node000002"><a xlink:href="group__MemoryMonitorImpl.html#gaf6946ebbf530a167fc82bb7f20b36a42" target="_top" xlink:title="Calculate safe thread count considering job scheduler limits.">
<polygon fill="white" stroke="#666666" points="291,-231.51 146,-231.51 146,-212.51 291,-212.51 291,-231.51"/>
<text text-anchor="middle" x="218.5" y="-219.51" font-family="Helvetica,sans-Serif" font-size="10.00">calculateSafeThreadCount</text>
</a>
</g>
</g>
<!-- Node1&#45;&gt;Node2 -->
<g id="edge1_Node000001_Node000002" class="edge">
<title>Node1&#45;&gt;Node2</title>
<g id="a_edge1_Node000001_Node000002"><a xlink:title=" ">
<path fill="none" stroke="#63b8ff" d="M92.17,-177.02C108.52,-183.67 128.15,-191.45 146,-198.01 156.34,-201.81 167.6,-205.7 178.07,-209.22"/>
<polygon fill="#63b8ff" stroke="#63b8ff" points="177.21,-212.62 187.8,-212.46 179.42,-205.98 177.21,-212.62"/>
</a>
</g>
</g>
<!-- Node3 -->
<g id="Node000003" class="node">
<title>Node3</title>
<g id="a_Node000003"><a xlink:href="classCreateInput.html#a3663dd0959586c29b28748b3134acb77" target="_top" xlink:title="Create input file from single XYZ file.">
<polygon fill="white" stroke="#666666" points="273.5,-156.01 163.5,-156.01 163.5,-126.01 273.5,-126.01 273.5,-156.01"/>
<text text-anchor="start" x="171.5" y="-144.01" font-family="Helvetica,sans-Serif" font-size="10.00">CreateInput::create</text>
<text text-anchor="middle" x="218.5" y="-133.01" font-family="Helvetica,sans-Serif" font-size="10.00">_from_file</text>
</a>
</g>
</g>
<!-- Node1&#45;&gt;Node3 -->
<g id="edge2_Node000001_Node000003" class="edge">
<title>Node1&#45;&gt;Node3</title>
<g id="a_edge2_Node000001_Node000003"><a xlink:title=" ">
<path fill="none" stroke="#63b8ff" d="M110.23,-154.96C124.02,-153.17 138.97,-151.22 153.2,-149.37"/>
<polygon fill="#63b8ff" stroke="#63b8ff" points="153.95,-152.8 163.42,-148.04 153.05,-145.86 153.95,-152.8"/>
</a>
</g>
</g>
<!-- Node12 -->
<g id="Node000012" class="node">
<title>Node12</title>
<g id="a_Node000012"><a xlink:href="classCreateInput.html#af67178cacafef48a0129a1707c4d5089" target="_top" xlink:title="Generate output filename(s) from XYZ filename.">
<polygon fill="white" stroke="#666666" points="450.5,-204.01 327.5,-204.01 327.5,-174.01 450.5,-174.01 450.5,-204.01"/>
<text text-anchor="start" x="335.5" y="-192.01" font-family="Helvetica,sans-Serif" font-size="10.00">CreateInput::generate</text>
<text text-anchor="middle" x="389" y="-181.01" font-family="Helvetica,sans-Serif" font-size="10.00">_input_filename</text>
</a>
</g>
</g>
<!-- Node1&#45;&gt;Node12 -->
<g id="edge17_Node000001_Node000012" class="edge">
<title>Node1&#45;&gt;Node12</title>
<g id="a_edge17_Node000001_Node000012"><a xlink:title=" ">
<path fill="none" stroke="#63b8ff" d="M110.08,-166.41C166.56,-171 255.4,-178.23 317.38,-183.27"/>
<polygon fill="#63b8ff" stroke="#63b8ff" points="317.22,-186.77 327.47,-184.09 317.79,-179.79 317.22,-186.77"/>
</a>
</g>
</g>
<!-- Node15 -->
<g id="Node000015" class="node">
<title>Node15</title>
<g id="a_Node000015"><a xlink:href="classCreateInput.html#a1715a785d36a5b9102d36085dc675603" target="_top" xlink:title="Report progress during processing.">
<polygon fill="white" stroke="#666666" points="273,-108.01 164,-108.01 164,-78.01 273,-78.01 273,-108.01"/>
<text text-anchor="start" x="172" y="-96.01" font-family="Helvetica,sans-Serif" font-size="10.00">CreateInput::report</text>
<text text-anchor="middle" x="218.5" y="-85.01" font-family="Helvetica,sans-Serif" font-size="10.00">_progress</text>
</a>
</g>
</g>
<!-- Node1&#45;&gt;Node15 -->
<g id="edge18_Node000001_Node000015" class="edge">
<title>Node1&#45;&gt;Node15</title>
<g id="a_edge18_Node000001_Node000015"><a xlink:title=" ">
<path fill="none" stroke="#63b8ff" d="M83.51,-147C101.09,-137.72 124.54,-125.92 146,-117.01 150.45,-115.16 155.1,-113.35 159.8,-111.6"/>
<polygon fill="#63b8ff" stroke="#63b8ff" points="161.25,-114.79 169.47,-108.1 158.87,-108.21 161.25,-114.79"/>
</a>
</g>
</g>
<!-- Node4 -->
<g id="Node000004" class="node">
<title>Node4</title>
<g id="a_Node000004"><a xlink:href="classCreateInput.html#ac3c82149b54ad69fd871f6f51c667131" target="_top" xlink:title="Generate Gaussian input content.">
<polygon fill="white" stroke="#666666" points="450.5,-156.01 327.5,-156.01 327.5,-126.01 450.5,-126.01 450.5,-156.01"/>
<text text-anchor="start" x="335.5" y="-144.01" font-family="Helvetica,sans-Serif" font-size="10.00">CreateInput::generate</text>
<text text-anchor="middle" x="389" y="-133.01" font-family="Helvetica,sans-Serif" font-size="10.00">_input_content</text>
</a>
</g>
</g>
<!-- Node3&#45;&gt;Node4 -->
<g id="edge3_Node000003_Node000004" class="edge">
<title>Node3&#45;&gt;Node4</title>
<g id="a_edge3_Node000003_Node000004"><a xlink:title=" ">
<path fill="none" stroke="#63b8ff" d="M273.74,-141.01C287.52,-141.01 302.53,-141.01 317.01,-141.01"/>
<polygon fill="#63b8ff" stroke="#63b8ff" points="317.43,-144.51 327.43,-141.01 317.43,-137.51 317.43,-144.51"/>
</a>
</g>
</g>
<!-- Node3&#45;&gt;Node12 -->
<g id="edge14_Node000003_Node000012" class="edge">
<title>Node3&#45;&gt;Node12</title>
<g id="a_edge14_Node000003_Node000012"><a xlink:title=" ">
<path fill="none" stroke="#63b8ff" d="M272.35,-156.07C289.13,-160.85 307.85,-166.18 325.26,-171.14"/>
<polygon fill="#63b8ff" stroke="#63b8ff" points="324.76,-174.63 335.34,-174.01 326.68,-167.9 324.76,-174.63"/>
</a>
</g>
</g>
<!-- Node13 -->
<g id="Node000013" class="node">
<title>Node13</title>
<g id="a_Node000013"><a xlink:href="classCreateInput.html#ad8cb721c27a8c3432c61780cbca4cefc" target="_top" xlink:title="Read coordinates from XYZ file.">
<polygon fill="white" stroke="#666666" points="451,-108.01 327,-108.01 327,-78.01 451,-78.01 451,-108.01"/>
<text text-anchor="start" x="335" y="-96.01" font-family="Helvetica,sans-Serif" font-size="10.00">CreateInput::read_xyz</text>
<text text-anchor="middle" x="389" y="-85.01" font-family="Helvetica,sans-Serif" font-size="10.00">_coordinates</text>
</a>
</g>
</g>
<!-- Node3&#45;&gt;Node13 -->
<g id="edge15_Node000003_Node000013" class="edge">
<title>Node3&#45;&gt;Node13</title>
<g id="a_edge15_Node000003_Node000013"><a xlink:title=" ">
<path fill="none" stroke="#63b8ff" d="M272.35,-125.95C289.13,-121.17 307.85,-115.84 325.26,-110.88"/>
<polygon fill="#63b8ff" stroke="#63b8ff" points="326.68,-114.12 335.34,-108.01 324.76,-107.39 326.68,-114.12"/>
</a>
</g>
</g>
<!-- Node14 -->
<g id="Node000014" class="node">
<title>Node14</title>
<g id="a_Node000014"><a xlink:href="classCreateInput.html#a62eb07832c8632969688c1b2c647eb02" target="_top" xlink:title="Write input file to disk.">
<polygon fill="white" stroke="#666666" points="441,-60.01 337,-60.01 337,-30.01 441,-30.01 441,-60.01"/>
<text text-anchor="start" x="345" y="-48.01" font-family="Helvetica,sans-Serif" font-size="10.00">CreateInput::write</text>
<text text-anchor="middle" x="389" y="-37.01" font-family="Helvetica,sans-Serif" font-size="10.00">_input_file</text>
</a>
</g>
</g>
<!-- Node3&#45;&gt;Node14 -->
<g id="edge16_Node000003_Node000014" class="edge">
<title>Node3&#45;&gt;Node14</title>
<g id="a_edge16_Node000003_Node000014"><a xlink:title=" ">
<path fill="none" stroke="#63b8ff" d="M273.57,-126.85C279.73,-124.1 285.69,-120.84 291,-117.01 312.62,-101.4 305.79,-85.17 327,-69.01 328.8,-67.64 330.69,-66.33 332.65,-65.09"/>
<polygon fill="#63b8ff" stroke="#63b8ff" points="334.55,-68.04 341.55,-60.08 331.12,-61.94 334.55,-68.04"/>
</a>
</g>
</g>
<!-- Node5 -->
<g id="Node000005" class="node">
<title>Node5</title>
<g id="a_Node000005"><a xlink:href="classCreateInput.html#af97b8545c619c854283b22b791f453ab" target="_top" xlink:title="Generate checkpoint section for input file.">
<polygon fill="white" stroke="#666666" points="619,-295.01 496,-295.01 496,-265.01 619,-265.01 619,-295.01"/>
<text text-anchor="start" x="504" y="-283.01" font-family="Helvetica,sans-Serif" font-size="10.00">CreateInput::generate</text>
<text text-anchor="middle" x="557.5" y="-272.01" font-family="Helvetica,sans-Serif" font-size="10.00">_checkpoint_section</text>
</a>
</g>
</g>
<!-- Node4&#45;&gt;Node5 -->
<g id="edge4_Node000004_Node000005" class="edge">
<title>Node4&#45;&gt;Node5</title>
<g id="a_edge4_Node000004_Node000005"><a xlink:title=" ">
<path fill="none" stroke="#63b8ff" d="M439.22,-156.03C443.52,-158.58 447.54,-161.55 451,-165.01 481.78,-195.74 455.57,-225.94 487,-256.01 488.12,-257.09 489.3,-258.11 490.52,-259.09"/>
<polygon fill="#63b8ff" stroke="#63b8ff" points="488.86,-262.2 499.1,-264.93 492.8,-256.41 488.86,-262.2"/>
</a>
</g>
</g>
<!-- Node6 -->
<g id="Node000006" class="node">
<title>Node6</title>
<g id="a_Node000006"><a xlink:href="classCreateInput.html#acd3d8c7d766ba09d5c3700889d2c04cf" target="_top" xlink:title="Generate molecule section with coordinates.">
<polygon fill="white" stroke="#666666" points="619,-247.01 496,-247.01 496,-217.01 619,-217.01 619,-247.01"/>
<text text-anchor="start" x="504" y="-235.01" font-family="Helvetica,sans-Serif" font-size="10.00">CreateInput::generate</text>
<text text-anchor="middle" x="557.5" y="-224.01" font-family="Helvetica,sans-Serif" font-size="10.00">_molecule_section</text>
</a>
</g>
</g>
<!-- Node4&#45;&gt;Node6 -->
<g id="edge5_Node000004_Node000006" class="edge">
<title>Node4&#45;&gt;Node6</title>
<g id="a_edge5_Node000004_Node000006"><a xlink:title=" ">
<path fill="none" stroke="#63b8ff" d="M435.96,-156.16C441.24,-158.74 446.38,-161.68 451,-165.01 471.22,-179.58 466.47,-193.87 487,-208.01 489.24,-209.55 491.59,-211 494.01,-212.37"/>
<polygon fill="#63b8ff" stroke="#63b8ff" points="492.54,-215.55 503.05,-216.94 495.71,-209.31 492.54,-215.55"/>
</a>
</g>
</g>
<!-- Node7 -->
<g id="Node000007" class="node">
<title>Node7</title>
<g id="a_Node000007"><a xlink:href="classCreateInput.html#af324c20a23853c65cdaf487497bb84a9" target="_top" xlink:title="Generate route section for different calculation types.">
<polygon fill="white" stroke="#666666" points="619,-199.01 496,-199.01 496,-169.01 619,-169.01 619,-199.01"/>
<text text-anchor="start" x="504" y="-187.01" font-family="Helvetica,sans-Serif" font-size="10.00">CreateInput::generate</text>
<text text-anchor="middle" x="557.5" y="-176.01" font-family="Helvetica,sans-Serif" font-size="10.00">_route_section</text>
</a>
</g>
</g>
<!-- Node4&#45;&gt;Node7 -->
<g id="edge6_Node000004_Node000007" class="edge">
<title>Node4&#45;&gt;Node7</title>
<g id="a_edge6_Node000004_Node000007"><a xlink:title=" ">
<path fill="none" stroke="#63b8ff" d="M448.23,-156.05C461.16,-159.39 474.98,-162.96 488.26,-166.39"/>
<polygon fill="#63b8ff" stroke="#63b8ff" points="487.74,-169.87 498.3,-168.98 489.49,-163.09 487.74,-169.87"/>
</a>
</g>
</g>
<!-- Node8 -->
<g id="Node000008" class="node">
<title>Node8</title>
<g id="a_Node000008"><a xlink:href="classCreateInput.html#aaa26966f65695608137d998b5659e4fe" target="_top" xlink:title="Smartly select the appropriate basis set based on calculation type.">
<polygon fill="white" stroke="#666666" points="789,-156.01 664,-156.01 664,-126.01 789,-126.01 789,-156.01"/>
<text text-anchor="start" x="672" y="-144.01" font-family="Helvetica,sans-Serif" font-size="10.00">CreateInput::select</text>
<text text-anchor="middle" x="726.5" y="-133.01" font-family="Helvetica,sans-Serif" font-size="10.00">_basis_for_calculation</text>
</a>
</g>
</g>
<!-- Node4&#45;&gt;Node8 -->
<g id="edge10_Node000004_Node000008" class="edge">
<title>Node4&#45;&gt;Node8</title>
<g id="a_edge10_Node000004_Node000008"><a xlink:title=" ">
<path fill="none" stroke="#63b8ff" d="M450.76,-141.01C507.79,-141.01 593.14,-141.01 653.55,-141.01"/>
<polygon fill="#63b8ff" stroke="#63b8ff" points="653.78,-144.51 663.78,-141.01 653.78,-137.51 653.78,-144.51"/>
</a>
</g>
</g>
<!-- Node9 -->
<g id="Node000009" class="node">
<title>Node9</title>
<g id="a_Node000009"><a xlink:href="classCreateInput.html#aed0a3cb3385f77c8f2f61d44f1c4efa1" target="_top" xlink:title="Generate title for current calculation type.">
<polygon fill="white" stroke="#666666" points="619,-113.01 496,-113.01 496,-83.01 619,-83.01 619,-113.01"/>
<text text-anchor="start" x="504" y="-101.01" font-family="Helvetica,sans-Serif" font-size="10.00">CreateInput::generate</text>
<text text-anchor="middle" x="557.5" y="-90.01" font-family="Helvetica,sans-Serif" font-size="10.00">_title</text>
</a>
</g>
</g>
<!-- Node4&#45;&gt;Node9 -->
<g id="edge8_Node000004_Node000009" class="edge">
<title>Node4&#45;&gt;Node9</title>
<g id="a_edge8_Node000004_Node000009"><a xlink:title=" ">
<path fill="none" stroke="#63b8ff" d="M448.23,-125.97C461.16,-122.63 474.98,-119.06 488.26,-115.63"/>
<polygon fill="#63b8ff" stroke="#63b8ff" points="489.49,-118.93 498.3,-113.04 487.74,-112.15 489.49,-118.93"/>
</a>
</g>
</g>
<!-- Node10 -->
<g id="Node000010" class="node">
<title>Node10</title>
<g id="a_Node000010"><a xlink:href="classCreateInput.html#a781b25e4d5f838ad1a106649a487f5e0" target="_top" xlink:title="Check if the given basis string is GEN or GENECP (case insensitive)">
<polygon fill="white" stroke="#666666" points="782,-44.01 671,-44.01 671,-14.01 782,-14.01 782,-44.01"/>
<text text-anchor="start" x="679" y="-32.01" font-family="Helvetica,sans-Serif" font-size="10.00">CreateInput::is_gen</text>
<text text-anchor="middle" x="726.5" y="-21.01" font-family="Helvetica,sans-Serif" font-size="10.00">_basis</text>
</a>
</g>
</g>
<!-- Node4&#45;&gt;Node10 -->
<g id="edge9_Node000004_Node000010" class="edge">
<title>Node4&#45;&gt;Node10</title>
<g id="a_edge9_Node000004_Node000010"><a xlink:title=" ">
<path fill="none" stroke="#63b8ff" d="M439.22,-125.99C443.52,-123.44 447.54,-120.47 451,-117.01 481.78,-86.28 451.03,-50.46 487,-26.01 540.57,10.4 617.71,1.2 669.63,-11.47"/>
<polygon fill="#63b8ff" stroke="#63b8ff" points="668.78,-14.87 679.34,-13.95 670.52,-8.09 668.78,-14.87"/>
</a>
</g>
</g>
<!-- Node11 -->
<g id="Node000011" class="node">
<title>Node11</title>
<g id="a_Node000011"><a xlink:href="classCreateInput.html#af1835325332d8cda3bc6566040afc4cc" target="_top" xlink:title="Validates requirements for calculations with GEN/GENECP basis.">
<polygon fill="white" stroke="#666666" points="628,-65.01 487,-65.01 487,-35.01 628,-35.01 628,-65.01"/>
<text text-anchor="start" x="495" y="-53.01" font-family="Helvetica,sans-Serif" font-size="10.00">CreateInput::validate</text>
<text text-anchor="middle" x="557.5" y="-42.01" font-family="Helvetica,sans-Serif" font-size="10.00">_gen_basis_requirements</text>
</a>
</g>
</g>
<!-- Node4&#45;&gt;Node11 -->
<g id="edge11_Node000004_Node000011" class="edge">
<title>Node4&#45;&gt;Node11</title>
<g id="a_edge11_Node000004_Node000011"><a xlink:title=" ">
<path fill="none" stroke="#63b8ff" d="M435.96,-125.86C441.24,-123.28 446.38,-120.34 451,-117.01 471.22,-102.44 466.47,-88.15 487,-74.01 489.24,-72.47 491.59,-71.02 494.01,-69.65"/>
<polygon fill="#63b8ff" stroke="#63b8ff" points="495.71,-72.71 503.05,-65.08 492.54,-66.47 495.71,-72.71"/>
</a>
</g>
</g>
<!-- Node7&#45;&gt;Node8 -->
<g id="edge7_Node000007_Node000008" class="edge">
<title>Node7&#45;&gt;Node8</title>
<g id="a_edge7_Node000007_Node000008"><a xlink:title=" ">
<path fill="none" stroke="#63b8ff" d="M616.91,-168.97C629.88,-165.63 643.73,-162.06 657.06,-158.63"/>
<polygon fill="#63b8ff" stroke="#63b8ff" points="658.31,-161.92 667.12,-156.04 656.57,-155.15 658.31,-161.92"/>
</a>
</g>
</g>
<!-- Node11&#45;&gt;Node8 -->
<g id="edge13_Node000011_Node000008" class="edge">
<title>Node11&#45;&gt;Node8</title>
<g id="a_edge13_Node000011_Node000008"><a xlink:title=" ">
<path fill="none" stroke="#63b8ff" d="M607.42,-65.03C614.46,-67.72 621.5,-70.73 628,-74.01 653.28,-86.77 679.62,-105.22 698.53,-119.53"/>
<polygon fill="#63b8ff" stroke="#63b8ff" points="696.61,-122.46 706.67,-125.78 700.87,-116.91 696.61,-122.46"/>
</a>
</g>
</g>
<!-- Node11&#45;&gt;Node10 -->
<g id="edge12_Node000011_Node000010" class="edge">
<title>Node11&#45;&gt;Node10</title>
<g id="a_edge12_Node000011_Node000010"><a xlink:title=" ">
<path fill="none" stroke="#63b8ff" d="M628.36,-41.23C639.12,-39.87 650.21,-38.48 660.85,-37.14"/>
<polygon fill="#63b8ff" stroke="#63b8ff" points="661.42,-40.6 670.91,-35.87 660.55,-33.65 661.42,-40.6"/>
</a>
</g>
</g>
</g>
</svg>
