<?xml version="1.0" encoding="UTF-8" standalone="no"?>
<!DOCTYPE svg PUBLIC "-//W3C//DTD SVG 1.1//EN"
 "http://www.w3.org/Graphics/SVG/1.1/DTD/svg11.dtd">
<!-- Generated by graphviz version 2.43.0 (0)
 -->
<!-- Title: CreateInput::select_basis_for_calculation Pages: 1 -->
<!--zoomable 101 -->

<svg id="main" version="1.1" xmlns="http://www.w3.org/2000/svg" xmlns:xlink="http://www.w3.org/1999/xlink" xml:space="preserve" onload="init(evt)">
<style type="text/css"><![CDATA[
.node, .edge {opacity: 0.7;}
.node.selected, .edge.selected {opacity: 1;}
.edge:hover path { stroke: red; }
.edge:hover polygon { stroke: red; fill: red; }
]]></style>

<defs>
  <circle id="rim" cx="0" cy="0" r="7"/>
  <circle id="rim2" cx="0" cy="0" r="3.5"/>
  <g id="zoomPlus">
    <use xlink:href="#rim" fill="#404040"><set attributeName="fill" to="#808080" begin="zoomplus.mouseover" end="zoomplus.mouseout"/></use>
    <path d="M-4,0h8M0,-4v8" fill="none" stroke="white" stroke-width="1.5" pointer-events="none"/>
  </g>
  <g id="zoomMin">
    <use xlink:href="#rim" fill="#404040"><set attributeName="fill" to="#808080" begin="zoomminus.mouseover" end="zoomminus.mouseout"/></use>
    <path d="M-4,0h8" fill="none" stroke="white" stroke-width="1.5" pointer-events="none"/>
  </g>
  <g id="arrowUp" transform="translate(30 24)">
    <use xlink:href="#rim"/>
    <path pointer-events="none" fill="none" stroke="white" stroke-width="1.5" d="M0,-3.0v7 M-2.5,-0.5L0,-3.0L2.5,-0.5"/>
  </g>
  <g id="arrowRight" transform="rotate(90) translate(36 -43)">
    <use xlink:href="#rim"/>
    <path pointer-events="none" fill="none" stroke="white" stroke-width="1.5" d="M0,-3.0v7 M-2.5,-0.5L0,-3.0L2.5,-0.5"/>
  </g>
  <g id="arrowDown" transform="rotate(180) translate(-30 -48)">
    <use xlink:href="#rim"/>
    <path pointer-events="none" fill="none" stroke="white" stroke-width="1.5" d="M0,-3.0v7 M-2.5,-0.5L0,-3.0L2.5,-0.5"/>
  </g>
  <g id="arrowLeft" transform="rotate(270) translate(-36 17)">
    <use xlink:href="#rim"/>
    <path pointer-events="none" fill="none" stroke="white" stroke-width="1.5" d="M0,-3.0v7 M-2.5,-0.5L0,-3.0L2.5,-0.5"/>
  </g>
  <g id="resetDef">
    <use xlink:href="#rim2" fill="#404040"><set attributeName="fill" to="#808080" begin="reset.mouseover" end="reset.mouseout"/></use>
  </g>
</defs>
<script type="application/ecmascript">
var viewWidth = 1147;
var viewHeight = 101;
var sectionId = 'dynsection-19';
</script>
<script type="application/ecmascript" xlink:href="svg.min.js"/>
<svg id="graph" class="graph">
<g id="viewport">
<title>CreateInput::select_basis_for_calculation</title>
<!-- Node1 -->
<g id="Node000001" class="node">
<title>Node1</title>
<g id="a_Node000001"><a xlink:title="Smartly select the appropriate basis set based on calculation type.">
<polygon fill="#999999" stroke="#666666" points="1139,-78 1014,-78 1014,-48 1139,-48 1139,-78"/>
<text text-anchor="start" x="1022" y="-66" font-family="Helvetica,sans-Serif" font-size="10.00">CreateInput::select</text>
<text text-anchor="middle" x="1076.5" y="-55" font-family="Helvetica,sans-Serif" font-size="10.00">_basis_for_calculation</text>
</a>
</g>
</g>
<!-- Node2 -->
<g id="Node000002" class="node">
<title>Node2</title>
<g id="a_Node000002"><a xlink:href="classCreateInput.html#ac3c82149b54ad69fd871f6f51c667131" target="_top" xlink:title="Generate Gaussian input content.">
<polygon fill="white" stroke="#666666" points="801,-78 678,-78 678,-48 801,-48 801,-78"/>
<text text-anchor="start" x="686" y="-66" font-family="Helvetica,sans-Serif" font-size="10.00">CreateInput::generate</text>
<text text-anchor="middle" x="739.5" y="-55" font-family="Helvetica,sans-Serif" font-size="10.00">_input_content</text>
</a>
</g>
</g>
<!-- Node1&#45;&gt;Node2 -->
<g id="edge1_Node000001_Node000002" class="edge">
<title>Node1&#45;&gt;Node2</title>
<g id="a_edge1_Node000001_Node000002"><a xlink:title=" ">
<path fill="none" stroke="#63b8ff" d="M1014.41,-80.42C1002.44,-83.16 989.9,-85.56 978,-87 915.79,-94.54 899.2,-94.62 837,-87 821.92,-85.15 805.81,-81.74 791.15,-78.06"/>
<polygon fill="#63b8ff" stroke="#63b8ff" points="1015.4,-83.78 1024.32,-78.06 1013.78,-76.97 1015.4,-83.78"/>
</a>
</g>
</g>
<!-- Node8 -->
<g id="Node000008" class="node">
<title>Node8</title>
<g id="a_Node000008"><a xlink:href="classCreateInput.html#af324c20a23853c65cdaf487497bb84a9" target="_top" xlink:title="Generate route section for different calculation types.">
<polygon fill="white" stroke="#666666" points="969,-78 846,-78 846,-48 969,-48 969,-78"/>
<text text-anchor="start" x="854" y="-66" font-family="Helvetica,sans-Serif" font-size="10.00">CreateInput::generate</text>
<text text-anchor="middle" x="907.5" y="-55" font-family="Helvetica,sans-Serif" font-size="10.00">_route_section</text>
</a>
</g>
</g>
<!-- Node1&#45;&gt;Node8 -->
<g id="edge8_Node000001_Node000008" class="edge">
<title>Node1&#45;&gt;Node8</title>
<g id="a_edge8_Node000001_Node000008"><a xlink:title=" ">
<path fill="none" stroke="#63b8ff" d="M1003.75,-63C992.21,-63 980.37,-63 969.12,-63"/>
<polygon fill="#63b8ff" stroke="#63b8ff" points="1003.79,-66.5 1013.79,-63 1003.79,-59.5 1003.79,-66.5"/>
</a>
</g>
</g>
<!-- Node9 -->
<g id="Node000009" class="node">
<title>Node9</title>
<g id="a_Node000009"><a xlink:href="classCreateInput.html#af1835325332d8cda3bc6566040afc4cc" target="_top" xlink:title="Validates requirements for calculations with GEN/GENECP basis.">
<polygon fill="white" stroke="#666666" points="978,-30 837,-30 837,0 978,0 978,-30"/>
<text text-anchor="start" x="845" y="-18" font-family="Helvetica,sans-Serif" font-size="10.00">CreateInput::validate</text>
<text text-anchor="middle" x="907.5" y="-7" font-family="Helvetica,sans-Serif" font-size="10.00">_gen_basis_requirements</text>
</a>
</g>
</g>
<!-- Node1&#45;&gt;Node9 -->
<g id="edge10_Node000001_Node000009" class="edge">
<title>Node1&#45;&gt;Node9</title>
<g id="a_edge10_Node000001_Node000009"><a xlink:title=" ">
<path fill="none" stroke="#63b8ff" d="M1013.13,-45.07C995.87,-40.11 977.31,-34.78 960.7,-30"/>
<polygon fill="#63b8ff" stroke="#63b8ff" points="1012.54,-48.55 1023.12,-47.94 1014.47,-41.82 1012.54,-48.55"/>
</a>
</g>
</g>
<!-- Node3 -->
<g id="Node000003" class="node">
<title>Node3</title>
<g id="a_Node000003"><a xlink:href="classCreateInput.html#a3663dd0959586c29b28748b3134acb77" target="_top" xlink:title="Create input file from single XYZ file.">
<polygon fill="white" stroke="#666666" points="642,-78 532,-78 532,-48 642,-48 642,-78"/>
<text text-anchor="start" x="540" y="-66" font-family="Helvetica,sans-Serif" font-size="10.00">CreateInput::create</text>
<text text-anchor="middle" x="587" y="-55" font-family="Helvetica,sans-Serif" font-size="10.00">_from_file</text>
</a>
</g>
</g>
<!-- Node2&#45;&gt;Node3 -->
<g id="edge2_Node000002_Node000003" class="edge">
<title>Node2&#45;&gt;Node3</title>
<g id="a_edge2_Node000002_Node000003"><a xlink:title=" ">
<path fill="none" stroke="#63b8ff" d="M667.72,-63C659.15,-63 650.5,-63 642.21,-63"/>
<polygon fill="#63b8ff" stroke="#63b8ff" points="667.72,-66.5 677.72,-63 667.72,-59.5 667.72,-66.5"/>
</a>
</g>
</g>
<!-- Node4 -->
<g id="Node000004" class="node">
<title>Node4</title>
<g id="a_Node000004"><a xlink:href="classCreateInput.html#aa08199575835140a2122199e52cde238" target="_top" xlink:title="Main method to create input files from XYZ files.">
<polygon fill="white" stroke="#666666" points="496,-78 386,-78 386,-48 496,-48 496,-78"/>
<text text-anchor="start" x="394" y="-66" font-family="Helvetica,sans-Serif" font-size="10.00">CreateInput::create</text>
<text text-anchor="middle" x="441" y="-55" font-family="Helvetica,sans-Serif" font-size="10.00">_inputs</text>
</a>
</g>
</g>
<!-- Node3&#45;&gt;Node4 -->
<g id="edge3_Node000003_Node000004" class="edge">
<title>Node3&#45;&gt;Node4</title>
<g id="a_edge3_Node000003_Node000004"><a xlink:title=" ">
<path fill="none" stroke="#63b8ff" d="M521.73,-63C513.25,-63 504.62,-63 496.33,-63"/>
<polygon fill="#63b8ff" stroke="#63b8ff" points="521.97,-66.5 531.97,-63 521.97,-59.5 521.97,-66.5"/>
</a>
</g>
</g>
<!-- Node5 -->
<g id="Node000005" class="node">
<title>Node5</title>
<g id="a_Node000005"><a xlink:href="group__ModuleExecutors.html#ga6d8429398cd99549f485628a27b0623a" target="_top" xlink:title=" ">
<polygon fill="white" stroke="#666666" points="350,-78 229,-78 229,-48 350,-48 350,-78"/>
<text text-anchor="start" x="237" y="-66" font-family="Helvetica,sans-Serif" font-size="10.00">execute_create_input</text>
<text text-anchor="middle" x="289.5" y="-55" font-family="Helvetica,sans-Serif" font-size="10.00">_command</text>
</a>
</g>
</g>
<!-- Node4&#45;&gt;Node5 -->
<g id="edge4_Node000004_Node000005" class="edge">
<title>Node4&#45;&gt;Node5</title>
<g id="a_edge4_Node000004_Node000005"><a xlink:title=" ">
<path fill="none" stroke="#63b8ff" d="M375.47,-63C367.06,-63 358.48,-63 350.16,-63"/>
<polygon fill="#63b8ff" stroke="#63b8ff" points="375.6,-66.5 385.6,-63 375.6,-59.5 375.6,-66.5"/>
</a>
</g>
</g>
<!-- Node6 -->
<g id="Node000006" class="node">
<title>Node6</title>
<g id="a_Node000006"><a xlink:href="main_8cpp.html#a0ddf1224851353fc92bfbff6f499fa97" target="_top" xlink:title="Main entry point for the Gaussian Extractor application.">
<polygon fill="white" stroke="#666666" points="41,-72.5 0,-72.5 0,-53.5 41,-53.5 41,-72.5"/>
<text text-anchor="middle" x="20.5" y="-60.5" font-family="Helvetica,sans-Serif" font-size="10.00">main</text>
</a>
</g>
</g>
<!-- Node5&#45;&gt;Node6 -->
<g id="edge5_Node000005_Node000006" class="edge">
<title>Node5&#45;&gt;Node6</title>
<g id="a_edge5_Node000005_Node000006"><a xlink:title=" ">
<path fill="none" stroke="#63b8ff" d="M218.83,-63C159.39,-63 77.87,-63 41.01,-63"/>
<polygon fill="#63b8ff" stroke="#63b8ff" points="218.91,-66.5 228.91,-63 218.91,-59.5 218.91,-66.5"/>
</a>
</g>
</g>
<!-- Node7 -->
<g id="Node000007" class="node">
<title>Node7</title>
<g id="a_Node000007"><a xlink:href="interactive__mode_8cpp.html#a6b615c34054150d837dc45ed1c17b297" target="_top" xlink:title="Enhanced interactive command loop with TAB completion for Windows.">
<polygon fill="white" stroke="#666666" points="193,-53.5 77,-53.5 77,-34.5 193,-34.5 193,-53.5"/>
<text text-anchor="middle" x="135" y="-41.5" font-family="Helvetica,sans-Serif" font-size="10.00">run_interactive_loop</text>
</a>
</g>
</g>
<!-- Node5&#45;&gt;Node7 -->
<g id="edge6_Node000005_Node000007" class="edge">
<title>Node5&#45;&gt;Node7</title>
<g id="a_edge6_Node000005_Node000007"><a xlink:title=" ">
<path fill="none" stroke="#63b8ff" d="M218.71,-54.3C210.16,-53.24 201.5,-52.16 193.17,-51.12"/>
<polygon fill="#63b8ff" stroke="#63b8ff" points="218.31,-57.78 228.67,-55.55 219.18,-50.84 218.31,-57.78"/>
</a>
</g>
</g>
<!-- Node7&#45;&gt;Node6 -->
<g id="edge7_Node000007_Node000006" class="edge">
<title>Node7&#45;&gt;Node6</title>
<g id="a_edge7_Node000007_Node000006"><a xlink:title=" ">
<path fill="none" stroke="#63b8ff" d="M67.4,-55.25C57.88,-56.86 48.77,-58.39 41.22,-59.67"/>
<polygon fill="#63b8ff" stroke="#63b8ff" points="68.14,-58.67 77.42,-53.56 66.98,-51.77 68.14,-58.67"/>
</a>
</g>
</g>
<!-- Node8&#45;&gt;Node2 -->
<g id="edge9_Node000008_Node000002" class="edge">
<title>Node8&#45;&gt;Node2</title>
<g id="a_edge9_Node000008_Node000002"><a xlink:title=" ">
<path fill="none" stroke="#63b8ff" d="M835.63,-63C824.13,-63 812.31,-63 801.08,-63"/>
<polygon fill="#63b8ff" stroke="#63b8ff" points="835.63,-66.5 845.63,-63 835.63,-59.5 835.63,-66.5"/>
</a>
</g>
</g>
<!-- Node9&#45;&gt;Node2 -->
<g id="edge11_Node000009_Node000002" class="edge">
<title>Node9&#45;&gt;Node2</title>
<g id="a_edge11_Node000009_Node000002"><a xlink:title=" ">
<path fill="none" stroke="#63b8ff" d="M844.5,-32.93C827.34,-37.89 808.9,-43.22 792.38,-48"/>
<polygon fill="#63b8ff" stroke="#63b8ff" points="845.8,-36.2 854.43,-30.06 843.85,-29.47 845.8,-36.2"/>
</a>
</g>
</g>
</g>
</svg>

<g id="navigator" transform="translate(0 0)" fill="#404254">
  <rect fill="#f2f5e9" fill-opacity="0.5" stroke="#606060" stroke-width=".5" x="0" y="0" width="60" height="60"/>
  <use id="zoomplus" xlink:href="#zoomPlus" x="17" y="9" onmousedown="handleZoom(evt,'in')"/>
  <use id="zoomminus" xlink:href="#zoomMin" x="42" y="9" onmousedown="handleZoom(evt,'out')"/>
  <use id="reset" xlink:href="#resetDef" x="30" y="36" onmousedown="handleReset()"/>
   <use id="arrowup" xlink:href="#arrowUp" x="0" y="0" onmousedown="handlePan(0,-1)"/>
  <use id="arrowright" xlink:href="#arrowRight" x="0" y="0" onmousedown="handlePan(1,0)"/>
  <use id="arrowdown" xlink:href="#arrowDown" x="0" y="0" onmousedown="handlePan(0,1)"/>
  <use id="arrowleft" xlink:href="#arrowLeft" x="0" y="0" onmousedown="handlePan(-1,0)"/>
</g>
<svg viewBox="0 0 15 15" width="100%" height="30px" preserveAspectRatio="xMaxYMin meet">
 <g id="arrow_out" transform="scale(0.3 0.3)">
  <a xlink:href="classCreateInput_aaa26966f65695608137d998b5659e4fe_icgraph_org.svg" target="_base">
   <rect id="button" ry="5" rx="5" y="6" x="6" height="38" width="38"
        fill="#f2f5e9" fill-opacity="0.5" stroke="#606060" stroke-width="1.0"/>
   <path id="arrow"
     d="M 11.500037,31.436501 C 11.940474,20.09759 22.043105,11.32322 32.158766,21.979434 L 37.068811,17.246167 C 37.068811,17.246167 37.088388,32 37.088388,32 L 22.160133,31.978069 C 22.160133,31.978069 26.997745,27.140456 26.997745,27.140456 C 18.528582,18.264221 13.291696,25.230495 11.500037,31.436501 z"
     style="fill:#404040;"/>
  </a>
 </g>
</svg>

<style type='text/css'>
<![CDATA[
[data-mouse-over-selected='false'] { opacity: 0.7; }
[data-mouse-over-selected='true']  { opacity: 1.0; }
]]>
</style>
<script type="application/ecmascript"><![CDATA[
document.addEventListener('DOMContentLoaded', (event) => {
  highlightEdges();
  highlightAdjacentNodes();
});
]]></script>
</svg>
