<?xml version="1.0" encoding="UTF-8" standalone="no"?>
<!DOCTYPE svg PUBLIC "-//W3C//DTD SVG 1.1//EN"
 "http://www.w3.org/Graphics/SVG/1.1/DTD/svg11.dtd">
<!-- Generated by graphviz version 2.43.0 (0)
 -->
<!-- Title: ConfigManager::convert_value Pages: 1 -->
<svg width="315pt" height="76pt"
 viewBox="0.00 0.00 315.00 75.50" xmlns="http://www.w3.org/2000/svg" xmlns:xlink="http://www.w3.org/1999/xlink">
<g id="graph0" class="graph" transform="scale(1 1) rotate(0) translate(4 71.5)">
<title>ConfigManager::convert_value</title>
<!-- Node1 -->
<g id="Node000001" class="node">
<title>Node1</title>
<g id="a_Node000001"><a xlink:title=" ">
<polygon fill="#999999" stroke="#666666" points="133,-45.5 0,-45.5 0,-15.5 133,-15.5 133,-45.5"/>
<text text-anchor="start" x="8" y="-33.5" font-family="Helvetica,sans-Serif" font-size="10.00">ConfigManager::convert</text>
<text text-anchor="middle" x="66.5" y="-22.5" font-family="Helvetica,sans-Serif" font-size="10.00">_value</text>
</a>
</g>
</g>
<!-- Node2 -->
<g id="Node000002" class="node">
<title>Node2</title>
<g id="a_Node000002"><a xlink:href="group__ConfigInternals.html#ga5e387d61b1f34873cd3ab047242b2aad" target="_top" xlink:title="Template method for type&#45;safe value conversion.">
<polygon fill="white" stroke="#666666" points="304.5,-67.5 171.5,-67.5 171.5,-37.5 304.5,-37.5 304.5,-67.5"/>
<text text-anchor="start" x="179.5" y="-55.5" font-family="Helvetica,sans-Serif" font-size="10.00">ConfigManager::convert</text>
<text text-anchor="middle" x="238" y="-44.5" font-family="Helvetica,sans-Serif" font-size="10.00">_value</text>
</a>
</g>
</g>
<!-- Node1&#45;&gt;Node2 -->
<g id="edge1_Node000001_Node000002" class="edge">
<title>Node1&#45;&gt;Node2</title>
<g id="a_edge1_Node000001_Node000002"><a xlink:title=" ">
<path fill="none" stroke="#63b8ff" d="M133.03,-39.01C142.27,-40.2 151.83,-41.44 161.23,-42.67"/>
<polygon fill="#63b8ff" stroke="#63b8ff" points="160.99,-46.16 171.36,-43.98 161.9,-39.22 160.99,-46.16"/>
</a>
</g>
</g>
<!-- Node3 -->
<g id="Node000003" class="node">
<title>Node3</title>
<g id="a_Node000003"><a xlink:href="group__ConfigInternals.html#ga2b6660ab7484d23ffc26a010156de806" target="_top" xlink:title="Convert string to lowercase for case&#45;insensitive comparisons.">
<polygon fill="white" stroke="#666666" points="307,-19 169,-19 169,0 307,0 307,-19"/>
<text text-anchor="middle" x="238" y="-7" font-family="Helvetica,sans-Serif" font-size="10.00">ConfigManager::to_lower</text>
</a>
</g>
</g>
<!-- Node1&#45;&gt;Node3 -->
<g id="edge2_Node000001_Node000003" class="edge">
<title>Node1&#45;&gt;Node3</title>
<g id="a_edge2_Node000001_Node000003"><a xlink:title=" ">
<path fill="none" stroke="#63b8ff" d="M133.03,-22.38C141.47,-21.34 150.17,-20.26 158.79,-19.19"/>
<polygon fill="#63b8ff" stroke="#63b8ff" points="159.34,-22.65 168.84,-17.94 158.48,-15.7 159.34,-22.65"/>
</a>
</g>
</g>
</g>
</svg>
