<?xml version="1.0" encoding="UTF-8" standalone="no"?>
<!DOCTYPE svg PUBLIC "-//W3C//DTD SVG 1.1//EN"
 "http://www.w3.org/Graphics/SVG/1.1/DTD/svg11.dtd">
<!-- Generated by graphviz version 2.43.0 (0)
 -->
<!-- Title: CoordExtractor::extract_coordinates Pages: 1 -->
<!--zoomable 238 -->

<svg id="main" version="1.1" xmlns="http://www.w3.org/2000/svg" xmlns:xlink="http://www.w3.org/1999/xlink" xml:space="preserve" onload="init(evt)">
<style type="text/css"><![CDATA[
.node, .edge {opacity: 0.7;}
.node.selected, .edge.selected {opacity: 1;}
.edge:hover path { stroke: red; }
.edge:hover polygon { stroke: red; fill: red; }
]]></style>

<defs>
  <circle id="rim" cx="0" cy="0" r="7"/>
  <circle id="rim2" cx="0" cy="0" r="3.5"/>
  <g id="zoomPlus">
    <use xlink:href="#rim" fill="#404040"><set attributeName="fill" to="#808080" begin="zoomplus.mouseover" end="zoomplus.mouseout"/></use>
    <path d="M-4,0h8M0,-4v8" fill="none" stroke="white" stroke-width="1.5" pointer-events="none"/>
  </g>
  <g id="zoomMin">
    <use xlink:href="#rim" fill="#404040"><set attributeName="fill" to="#808080" begin="zoomminus.mouseover" end="zoomminus.mouseout"/></use>
    <path d="M-4,0h8" fill="none" stroke="white" stroke-width="1.5" pointer-events="none"/>
  </g>
  <g id="arrowUp" transform="translate(30 24)">
    <use xlink:href="#rim"/>
    <path pointer-events="none" fill="none" stroke="white" stroke-width="1.5" d="M0,-3.0v7 M-2.5,-0.5L0,-3.0L2.5,-0.5"/>
  </g>
  <g id="arrowRight" transform="rotate(90) translate(36 -43)">
    <use xlink:href="#rim"/>
    <path pointer-events="none" fill="none" stroke="white" stroke-width="1.5" d="M0,-3.0v7 M-2.5,-0.5L0,-3.0L2.5,-0.5"/>
  </g>
  <g id="arrowDown" transform="rotate(180) translate(-30 -48)">
    <use xlink:href="#rim"/>
    <path pointer-events="none" fill="none" stroke="white" stroke-width="1.5" d="M0,-3.0v7 M-2.5,-0.5L0,-3.0L2.5,-0.5"/>
  </g>
  <g id="arrowLeft" transform="rotate(270) translate(-36 17)">
    <use xlink:href="#rim"/>
    <path pointer-events="none" fill="none" stroke="white" stroke-width="1.5" d="M0,-3.0v7 M-2.5,-0.5L0,-3.0L2.5,-0.5"/>
  </g>
  <g id="resetDef">
    <use xlink:href="#rim2" fill="#404040"><set attributeName="fill" to="#808080" begin="reset.mouseover" end="reset.mouseout"/></use>
  </g>
</defs>
<script type="application/ecmascript">
var viewWidth = 640;
var viewHeight = 238;
var sectionId = 'dynsection-3';
</script>
<script type="application/ecmascript" xlink:href="svg.min.js"/>
<svg id="graph" class="graph">
<g id="viewport">
<title>CoordExtractor::extract_coordinates</title>
<!-- Node1 -->
<g id="Node000001" class="node">
<title>Node1</title>
<g id="a_Node000001"><a xlink:title="Extract coordinates from multiple log files.">
<polygon fill="#999999" stroke="#666666" points="130,-154 0,-154 0,-124 130,-124 130,-154"/>
<text text-anchor="start" x="8" y="-142" font-family="Helvetica,sans-Serif" font-size="10.00">CoordExtractor::extract</text>
<text text-anchor="middle" x="65" y="-131" font-family="Helvetica,sans-Serif" font-size="10.00">_coordinates</text>
</a>
</g>
</g>
<!-- Node2 -->
<g id="Node000002" class="node">
<title>Node2</title>
<g id="a_Node000002"><a xlink:href="group__MemoryMonitorImpl.html#gaf6946ebbf530a167fc82bb7f20b36a42" target="_top" xlink:title="Calculate safe thread count considering job scheduler limits.">
<polygon fill="white" stroke="#666666" points="311,-229.5 166,-229.5 166,-210.5 311,-210.5 311,-229.5"/>
<text text-anchor="middle" x="238.5" y="-217.5" font-family="Helvetica,sans-Serif" font-size="10.00">calculateSafeThreadCount</text>
</a>
</g>
</g>
<!-- Node1&#45;&gt;Node2 -->
<g id="edge1_Node000001_Node000002" class="edge">
<title>Node1&#45;&gt;Node2</title>
<g id="a_edge1_Node000001_Node000002"><a xlink:title=" ">
<path fill="none" stroke="#63b8ff" d="M89.56,-154.17C109.41,-166.52 138.82,-183.83 166,-196 175.23,-200.13 185.4,-203.96 195.11,-207.28"/>
<polygon fill="#63b8ff" stroke="#63b8ff" points="194.01,-210.61 204.6,-210.43 196.21,-203.96 194.01,-210.61"/>
</a>
</g>
</g>
<!-- Node3 -->
<g id="Node000003" class="node">
<title>Node3</title>
<g id="a_Node000003"><a xlink:href="classCoordExtractor.html#a24758c2d26fd73e7f861a33fd726b5a0" target="_top" xlink:title="Extract coordinates from a single log file.">
<polygon fill="white" stroke="#666666" points="303.5,-154 173.5,-154 173.5,-124 303.5,-124 303.5,-154"/>
<text text-anchor="start" x="181.5" y="-142" font-family="Helvetica,sans-Serif" font-size="10.00">CoordExtractor::extract</text>
<text text-anchor="middle" x="238.5" y="-131" font-family="Helvetica,sans-Serif" font-size="10.00">_from_file</text>
</a>
</g>
</g>
<!-- Node1&#45;&gt;Node3 -->
<g id="edge2_Node000001_Node000003" class="edge">
<title>Node1&#45;&gt;Node3</title>
<g id="a_edge2_Node000001_Node000003"><a xlink:title=" ">
<path fill="none" stroke="#63b8ff" d="M130.35,-139C141.12,-139 152.37,-139 163.36,-139"/>
<polygon fill="#63b8ff" stroke="#63b8ff" points="163.36,-142.5 173.36,-139 163.36,-135.5 163.36,-142.5"/>
</a>
</g>
</g>
<!-- Node4 -->
<g id="Node000004" class="node">
<title>Node4</title>
<g id="a_Node000004"><a xlink:href="classCoordExtractor.html#a7f6b5926c0427bb91796d70a7041f4cb" target="_top" xlink:title="Generate output XYZ filename from log file.">
<polygon fill="white" stroke="#666666" points="486,-212 347,-212 347,-182 486,-182 486,-212"/>
<text text-anchor="start" x="355" y="-200" font-family="Helvetica,sans-Serif" font-size="10.00">CoordExtractor::generate</text>
<text text-anchor="middle" x="416.5" y="-189" font-family="Helvetica,sans-Serif" font-size="10.00">_xyz_filename</text>
</a>
</g>
</g>
<!-- Node1&#45;&gt;Node4 -->
<g id="edge6_Node000001_Node000004" class="edge">
<title>Node1&#45;&gt;Node4</title>
<g id="a_edge6_Node000001_Node000004"><a xlink:title=" ">
<path fill="none" stroke="#63b8ff" d="M124.22,-154.01C137.87,-157.24 152.4,-160.45 166,-163 222.88,-173.67 287.65,-182.4 336.94,-188.34"/>
<polygon fill="#63b8ff" stroke="#63b8ff" points="336.56,-191.82 346.9,-189.53 337.38,-184.87 336.56,-191.82"/>
</a>
</g>
</g>
<!-- Node7 -->
<g id="Node000007" class="node">
<title>Node7</title>
<g id="a_Node000007"><a xlink:href="classCoordExtractor.html#aefc7d1a1fe3d6e5e2510abda5be3ac0f" target="_top" xlink:title="Move XYZ file to appropriate directory based on job status.">
<polygon fill="white" stroke="#666666" points="300,-87 177,-87 177,-57 300,-57 300,-87"/>
<text text-anchor="start" x="185" y="-75" font-family="Helvetica,sans-Serif" font-size="10.00">CoordExtractor::move</text>
<text text-anchor="middle" x="238.5" y="-64" font-family="Helvetica,sans-Serif" font-size="10.00">_xyz_file</text>
</a>
</g>
</g>
<!-- Node1&#45;&gt;Node7 -->
<g id="edge7_Node000001_Node000007" class="edge">
<title>Node1&#45;&gt;Node7</title>
<g id="a_edge7_Node000001_Node000007"><a xlink:title=" ">
<path fill="none" stroke="#63b8ff" d="M104.49,-123.96C129.56,-114.17 162.46,-101.32 189.27,-90.84"/>
<polygon fill="#63b8ff" stroke="#63b8ff" points="190.8,-94 198.84,-87.1 188.26,-87.48 190.8,-94"/>
</a>
</g>
</g>
<!-- Node11 -->
<g id="Node000011" class="node">
<title>Node11</title>
<g id="a_Node000011"><a xlink:href="classCoordExtractor.html#a4b817f57c98bda0307716960d491eacf" target="_top" xlink:title="Report progress of extraction.">
<polygon fill="white" stroke="#666666" points="301,-39 176,-39 176,-9 301,-9 301,-39"/>
<text text-anchor="start" x="184" y="-27" font-family="Helvetica,sans-Serif" font-size="10.00">CoordExtractor::report</text>
<text text-anchor="middle" x="238.5" y="-16" font-family="Helvetica,sans-Serif" font-size="10.00">_progress</text>
</a>
</g>
</g>
<!-- Node1&#45;&gt;Node11 -->
<g id="edge11_Node000001_Node000011" class="edge">
<title>Node1&#45;&gt;Node11</title>
<g id="a_edge11_Node000001_Node000011"><a xlink:title=" ">
<path fill="none" stroke="#63b8ff" d="M79.06,-123.68C96.86,-103.69 130.58,-68.8 166,-48 168.97,-46.26 172.08,-44.62 175.28,-43.08"/>
<polygon fill="#63b8ff" stroke="#63b8ff" points="176.73,-46.26 184.46,-39.02 173.9,-39.86 176.73,-46.26"/>
</a>
</g>
</g>
<!-- Node3&#45;&gt;Node4 -->
<g id="edge3_Node000003_Node000004" class="edge">
<title>Node3&#45;&gt;Node4</title>
<g id="a_edge3_Node000003_Node000004"><a xlink:title=" ">
<path fill="none" stroke="#63b8ff" d="M285.28,-154.09C308.2,-161.64 336.12,-170.84 360.22,-178.78"/>
<polygon fill="#63b8ff" stroke="#63b8ff" points="359.35,-182.18 369.95,-181.99 361.54,-175.53 359.35,-182.18"/>
</a>
</g>
</g>
<!-- Node5 -->
<g id="Node000005" class="node">
<title>Node5</title>
<g id="a_Node000005"><a xlink:href="classCoordExtractor.html#af4a72802846e9550e673b88a22c8c7a9" target="_top" xlink:title="Get element symbol from atomic number.">
<polygon fill="white" stroke="#666666" points="472,-164 361,-164 361,-134 472,-134 472,-164"/>
<text text-anchor="start" x="369" y="-152" font-family="Helvetica,sans-Serif" font-size="10.00">CoordExtractor::get</text>
<text text-anchor="middle" x="416.5" y="-141" font-family="Helvetica,sans-Serif" font-size="10.00">_atomic_symbol</text>
</a>
</g>
</g>
<!-- Node3&#45;&gt;Node5 -->
<g id="edge4_Node000003_Node000005" class="edge">
<title>Node3&#45;&gt;Node5</title>
<g id="a_edge4_Node000003_Node000005"><a xlink:title=" ">
<path fill="none" stroke="#63b8ff" d="M303.54,-142.64C318.79,-143.51 335.08,-144.43 350.38,-145.3"/>
<polygon fill="#63b8ff" stroke="#63b8ff" points="350.61,-148.82 360.79,-145.89 351.01,-141.83 350.61,-148.82"/>
</a>
</g>
</g>
<!-- Node6 -->
<g id="Node000006" class="node">
<title>Node6</title>
<g id="a_Node000006"><a xlink:href="namespaceUtils.html#a438037dac8d7b9a6f17c9cdbe4bfd27f" target="_top" xlink:title="Read file content with specified mode.">
<polygon fill="white" stroke="#666666" points="479,-115.5 354,-115.5 354,-96.5 479,-96.5 479,-115.5"/>
<text text-anchor="middle" x="416.5" y="-103.5" font-family="Helvetica,sans-Serif" font-size="10.00">Utils::read_file_unified</text>
</a>
</g>
</g>
<!-- Node3&#45;&gt;Node6 -->
<g id="edge5_Node000003_Node000006" class="edge">
<title>Node3&#45;&gt;Node6</title>
<g id="a_edge5_Node000003_Node000006"><a xlink:title=" ">
<path fill="none" stroke="#63b8ff" d="M303.54,-126.99C320.22,-123.86 338.15,-120.5 354.67,-117.41"/>
<polygon fill="#63b8ff" stroke="#63b8ff" points="355.56,-120.8 364.74,-115.52 354.27,-113.92 355.56,-120.8"/>
</a>
</g>
</g>
<!-- Node8 -->
<g id="Node000008" class="node">
<title>Node8</title>
<g id="a_Node000008"><a xlink:href="classCoordExtractor.html#ab4d64ab27004dddc29d0fde595ce447a" target="_top" xlink:title="Create target directory if it doesn&#39;t exist.">
<polygon fill="white" stroke="#666666" points="479.5,-78 353.5,-78 353.5,-48 479.5,-48 479.5,-78"/>
<text text-anchor="start" x="361.5" y="-66" font-family="Helvetica,sans-Serif" font-size="10.00">CoordExtractor::create</text>
<text text-anchor="middle" x="416.5" y="-55" font-family="Helvetica,sans-Serif" font-size="10.00">_target_directory</text>
</a>
</g>
</g>
<!-- Node7&#45;&gt;Node8 -->
<g id="edge8_Node000007_Node000008" class="edge">
<title>Node7&#45;&gt;Node8</title>
<g id="a_edge8_Node000007_Node000008"><a xlink:title=" ">
<path fill="none" stroke="#63b8ff" d="M300.07,-68.9C313.91,-68.19 328.76,-67.44 343.04,-66.71"/>
<polygon fill="#63b8ff" stroke="#63b8ff" points="343.52,-70.19 353.32,-66.18 343.16,-63.19 343.52,-70.19"/>
</a>
</g>
</g>
<!-- Node10 -->
<g id="Node000010" class="node">
<title>Node10</title>
<g id="a_Node000010"><a xlink:href="classCoordExtractor.html#a11e54ea7feb0e8f5dc04f7e788567498" target="_top" xlink:title="Get current directory name.">
<polygon fill="white" stroke="#666666" points="485.5,-30 347.5,-30 347.5,0 485.5,0 485.5,-30"/>
<text text-anchor="start" x="355.5" y="-18" font-family="Helvetica,sans-Serif" font-size="10.00">CoordExtractor::get</text>
<text text-anchor="middle" x="416.5" y="-7" font-family="Helvetica,sans-Serif" font-size="10.00">_current_directory_name</text>
</a>
</g>
</g>
<!-- Node7&#45;&gt;Node10 -->
<g id="edge10_Node000007_Node000010" class="edge">
<title>Node7&#45;&gt;Node10</title>
<g id="a_edge10_Node000007_Node000010"><a xlink:title=" ">
<path fill="none" stroke="#63b8ff" d="M286.2,-56.87C308.67,-49.6 335.78,-40.82 359.36,-33.18"/>
<polygon fill="#63b8ff" stroke="#63b8ff" points="360.45,-36.51 368.88,-30.1 358.29,-29.85 360.45,-36.51"/>
</a>
</g>
</g>
<!-- Node9 -->
<g id="Node000009" class="node">
<title>Node9</title>
<g id="a_Node000009"><a xlink:href="classCoordExtractor.html#a98cdffad3ade0a6d38eff7006df69edd" target="_top" xlink:title="Log error message.">
<polygon fill="white" stroke="#666666" points="632,-78 522,-78 522,-48 632,-48 632,-78"/>
<text text-anchor="start" x="530" y="-66" font-family="Helvetica,sans-Serif" font-size="10.00">CoordExtractor::log</text>
<text text-anchor="middle" x="577" y="-55" font-family="Helvetica,sans-Serif" font-size="10.00">_error</text>
</a>
</g>
</g>
<!-- Node8&#45;&gt;Node9 -->
<g id="edge9_Node000008_Node000009" class="edge">
<title>Node8&#45;&gt;Node9</title>
<g id="a_edge9_Node000008_Node000009"><a xlink:title=" ">
<path fill="none" stroke="#63b8ff" d="M479.69,-63C490.27,-63 501.28,-63 511.91,-63"/>
<polygon fill="#63b8ff" stroke="#63b8ff" points="511.96,-66.5 521.96,-63 511.96,-59.5 511.96,-66.5"/>
</a>
</g>
</g>
</g>
</svg>

<g id="navigator" transform="translate(0 0)" fill="#404254">
  <rect fill="#f2f5e9" fill-opacity="0.5" stroke="#606060" stroke-width=".5" x="0" y="0" width="60" height="60"/>
  <use id="zoomplus" xlink:href="#zoomPlus" x="17" y="9" onmousedown="handleZoom(evt,'in')"/>
  <use id="zoomminus" xlink:href="#zoomMin" x="42" y="9" onmousedown="handleZoom(evt,'out')"/>
  <use id="reset" xlink:href="#resetDef" x="30" y="36" onmousedown="handleReset()"/>
   <use id="arrowup" xlink:href="#arrowUp" x="0" y="0" onmousedown="handlePan(0,-1)"/>
  <use id="arrowright" xlink:href="#arrowRight" x="0" y="0" onmousedown="handlePan(1,0)"/>
  <use id="arrowdown" xlink:href="#arrowDown" x="0" y="0" onmousedown="handlePan(0,1)"/>
  <use id="arrowleft" xlink:href="#arrowLeft" x="0" y="0" onmousedown="handlePan(-1,0)"/>
</g>
<svg viewBox="0 0 15 15" width="100%" height="30px" preserveAspectRatio="xMaxYMin meet">
 <g id="arrow_out" transform="scale(0.3 0.3)">
  <a xlink:href="classCoordExtractor_a94f396e2c1c6511af85c9277bb2d0680_cgraph_org.svg" target="_base">
   <rect id="button" ry="5" rx="5" y="6" x="6" height="38" width="38"
        fill="#f2f5e9" fill-opacity="0.5" stroke="#606060" stroke-width="1.0"/>
   <path id="arrow"
     d="M 11.500037,31.436501 C 11.940474,20.09759 22.043105,11.32322 32.158766,21.979434 L 37.068811,17.246167 C 37.068811,17.246167 37.088388,32 37.088388,32 L 22.160133,31.978069 C 22.160133,31.978069 26.997745,27.140456 26.997745,27.140456 C 18.528582,18.264221 13.291696,25.230495 11.500037,31.436501 z"
     style="fill:#404040;"/>
  </a>
 </g>
</svg>

<style type='text/css'>
<![CDATA[
[data-mouse-over-selected='false'] { opacity: 0.7; }
[data-mouse-over-selected='true']  { opacity: 1.0; }
]]>
</style>
<script type="application/ecmascript"><![CDATA[
document.addEventListener('DOMContentLoaded', (event) => {
  highlightEdges();
  highlightAdjacentNodes();
});
]]></script>
</svg>
