<?xml version="1.0" encoding="UTF-8" standalone="no"?>
<!DOCTYPE svg PUBLIC "-//W3C//DTD SVG 1.1//EN"
 "http://www.w3.org/Graphics/SVG/1.1/DTD/svg11.dtd">
<!-- Generated by graphviz version 2.43.0 (0)
 -->
<!-- Title: ParameterParser::generateAllTemplates Pages: 1 -->
<svg width="715pt" height="84pt"
 viewBox="0.00 0.00 715.00 84.47" xmlns="http://www.w3.org/2000/svg" xmlns:xlink="http://www.w3.org/1999/xlink">
<g id="graph0" class="graph" transform="scale(1 1) rotate(0) translate(4 80.47)">
<title>ParameterParser::generateAllTemplates</title>
<!-- Node1 -->
<g id="Node000001" class="node">
<title>Node1</title>
<g id="a_Node000001"><a xlink:title="Generate template files for all supported calculation types.">
<polygon fill="#999999" stroke="#666666" points="707,-62.5 561,-62.5 561,-32.5 707,-32.5 707,-62.5"/>
<text text-anchor="start" x="569" y="-50.5" font-family="Helvetica,sans-Serif" font-size="10.00">ParameterParser::generate</text>
<text text-anchor="middle" x="634" y="-39.5" font-family="Helvetica,sans-Serif" font-size="10.00">AllTemplates</text>
</a>
</g>
</g>
<!-- Node2 -->
<g id="Node000002" class="node">
<title>Node2</title>
<g id="a_Node000002"><a xlink:href="group__CommandExecutors.html#ga2c1ceafe241a0b4e19790bb5d878ed1a" target="_top" xlink:title="Parse command&#45;line arguments and create execution context.">
<polygon fill="white" stroke="#666666" points="359,-57 229,-57 229,-38 359,-38 359,-57"/>
<text text-anchor="middle" x="294" y="-45" font-family="Helvetica,sans-Serif" font-size="10.00">CommandParser::parse</text>
</a>
</g>
</g>
<!-- Node1&#45;&gt;Node2 -->
<g id="edge1_Node000001_Node000002" class="edge">
<title>Node1&#45;&gt;Node2</title>
<g id="a_edge1_Node000001_Node000002"><a xlink:title=" ">
<path fill="none" stroke="#63b8ff" d="M566.44,-64.68C552.82,-67.52 538.52,-70.02 525,-71.5 467.57,-77.8 452.38,-78.29 395,-71.5 371.77,-68.75 346.13,-62.53 326.63,-57.11"/>
<polygon fill="#63b8ff" stroke="#63b8ff" points="567.19,-68.1 576.22,-62.56 565.7,-61.26 567.19,-68.1"/>
</a>
</g>
</g>
<!-- Node4 -->
<g id="Node000004" class="node">
<title>Node4</title>
<g id="a_Node000004"><a xlink:href="interactive__mode_8cpp.html#a6b615c34054150d837dc45ed1c17b297" target="_top" xlink:title="Enhanced interactive command loop with TAB completion for Windows.">
<polygon fill="white" stroke="#666666" points="193,-19 77,-19 77,0 193,0 193,-19"/>
<text text-anchor="middle" x="135" y="-7" font-family="Helvetica,sans-Serif" font-size="10.00">run_interactive_loop</text>
</a>
</g>
</g>
<!-- Node1&#45;&gt;Node4 -->
<g id="edge7_Node000001_Node000004" class="edge">
<title>Node1&#45;&gt;Node4</title>
<g id="a_edge7_Node000001_Node000004"><a xlink:title=" ">
<path fill="none" stroke="#63b8ff" d="M564.62,-30.33C551.54,-27.61 537.9,-25.15 525,-23.5 407.86,-8.5 269.38,-7.46 193.28,-8.3"/>
<polygon fill="#63b8ff" stroke="#63b8ff" points="563.98,-33.77 574.49,-32.46 565.45,-26.93 563.98,-33.77"/>
</a>
</g>
</g>
<!-- Node5 -->
<g id="Node000005" class="node">
<title>Node5</title>
<g id="a_Node000005"><a xlink:href="group__CommandExecutors.html#ga6dd4acb8cb239efc2daf9ad5c4b2afd4" target="_top" xlink:title="Parse options specific to create_input command.">
<polygon fill="white" stroke="#666666" points="525,-62.5 395,-62.5 395,-32.5 525,-32.5 525,-62.5"/>
<text text-anchor="start" x="403" y="-50.5" font-family="Helvetica,sans-Serif" font-size="10.00">CommandParser::parse</text>
<text text-anchor="middle" x="460" y="-39.5" font-family="Helvetica,sans-Serif" font-size="10.00">_create_input_options</text>
</a>
</g>
</g>
<!-- Node1&#45;&gt;Node5 -->
<g id="edge5_Node000001_Node000005" class="edge">
<title>Node1&#45;&gt;Node5</title>
<g id="a_edge5_Node000001_Node000005"><a xlink:title=" ">
<path fill="none" stroke="#63b8ff" d="M550.3,-47.5C541.86,-47.5 533.37,-47.5 525.17,-47.5"/>
<polygon fill="#63b8ff" stroke="#63b8ff" points="550.56,-51 560.56,-47.5 550.55,-44 550.56,-51"/>
</a>
</g>
</g>
<!-- Node3 -->
<g id="Node000003" class="node">
<title>Node3</title>
<g id="a_Node000003"><a xlink:href="main_8cpp.html#a0ddf1224851353fc92bfbff6f499fa97" target="_top" xlink:title="Main entry point for the Gaussian Extractor application.">
<polygon fill="white" stroke="#666666" points="41,-38 0,-38 0,-19 41,-19 41,-38"/>
<text text-anchor="middle" x="20.5" y="-26" font-family="Helvetica,sans-Serif" font-size="10.00">main</text>
</a>
</g>
</g>
<!-- Node2&#45;&gt;Node3 -->
<g id="edge2_Node000002_Node000003" class="edge">
<title>Node2&#45;&gt;Node3</title>
<g id="a_edge2_Node000002_Node000003"><a xlink:title=" ">
<path fill="none" stroke="#63b8ff" d="M218.42,-42.28C158.19,-38.07 77.65,-32.43 41.06,-29.87"/>
<polygon fill="#63b8ff" stroke="#63b8ff" points="218.44,-45.79 228.66,-43 218.93,-38.81 218.44,-45.79"/>
</a>
</g>
</g>
<!-- Node2&#45;&gt;Node4 -->
<g id="edge3_Node000002_Node000004" class="edge">
<title>Node2&#45;&gt;Node4</title>
<g id="a_edge3_Node000002_Node000004"><a xlink:title=" ">
<path fill="none" stroke="#63b8ff" d="M243.55,-35.53C221.55,-30.21 196.01,-24.02 175.33,-19.02"/>
<polygon fill="#63b8ff" stroke="#63b8ff" points="242.84,-38.96 253.38,-37.91 244.49,-32.16 242.84,-38.96"/>
</a>
</g>
</g>
<!-- Node4&#45;&gt;Node3 -->
<g id="edge4_Node000004_Node000003" class="edge">
<title>Node4&#45;&gt;Node3</title>
<g id="a_edge4_Node000004_Node000003"><a xlink:title=" ">
<path fill="none" stroke="#63b8ff" d="M67.4,-20.75C57.88,-22.36 48.77,-23.89 41.22,-25.17"/>
<polygon fill="#63b8ff" stroke="#63b8ff" points="68.14,-24.17 77.42,-19.06 66.98,-17.27 68.14,-24.17"/>
</a>
</g>
</g>
<!-- Node5&#45;&gt;Node2 -->
<g id="edge6_Node000005_Node000002" class="edge">
<title>Node5&#45;&gt;Node2</title>
<g id="a_edge6_Node000005_Node000002"><a xlink:title=" ">
<path fill="none" stroke="#63b8ff" d="M384.44,-47.5C376,-47.5 367.45,-47.5 359.16,-47.5"/>
<polygon fill="#63b8ff" stroke="#63b8ff" points="384.65,-51 394.65,-47.5 384.65,-44 384.65,-51"/>
</a>
</g>
</g>
</g>
</svg>
