<?xml version="1.0" encoding="UTF-8" standalone="no"?>
<!DOCTYPE svg PUBLIC "-//W3C//DTD SVG 1.1//EN"
 "http://www.w3.org/Graphics/SVG/1.1/DTD/svg11.dtd">
<!-- Generated by graphviz version 2.43.0 (0)
 -->
<!-- Title: ParameterParser::generateGeneralTemplate Pages: 1 -->
<svg width="897pt" height="144pt"
 viewBox="0.00 0.00 897.00 143.88" xmlns="http://www.w3.org/2000/svg" xmlns:xlink="http://www.w3.org/1999/xlink">
<g id="graph0" class="graph" transform="scale(1 1) rotate(0) translate(4 139.88)">
<title>ParameterParser::generateGeneralTemplate</title>
<!-- Node1 -->
<g id="Node000001" class="node">
<title>Node1</title>
<g id="a_Node000001"><a xlink:title="Generate a general parameter template with all possible parameters.">
<polygon fill="#999999" stroke="#666666" points="889,-88.35 743,-88.35 743,-58.35 889,-58.35 889,-88.35"/>
<text text-anchor="start" x="751" y="-76.35" font-family="Helvetica,sans-Serif" font-size="10.00">ParameterParser::generate</text>
<text text-anchor="middle" x="816" y="-65.35" font-family="Helvetica,sans-Serif" font-size="10.00">GeneralTemplate</text>
</a>
</g>
</g>
<!-- Node2 -->
<g id="Node000002" class="node">
<title>Node2</title>
<g id="a_Node000002"><a xlink:href="classParameterParser.html#aca59f8ca90258cef1ac78c0c671c7080" target="_top" xlink:title="Generate template files for all supported calculation types.">
<polygon fill="white" stroke="#666666" points="707,-67.35 561,-67.35 561,-37.35 707,-37.35 707,-67.35"/>
<text text-anchor="start" x="569" y="-55.35" font-family="Helvetica,sans-Serif" font-size="10.00">ParameterParser::generate</text>
<text text-anchor="middle" x="634" y="-44.35" font-family="Helvetica,sans-Serif" font-size="10.00">AllTemplates</text>
</a>
</g>
</g>
<!-- Node1&#45;&gt;Node2 -->
<g id="edge1_Node000001_Node000002" class="edge">
<title>Node1&#45;&gt;Node2</title>
<g id="a_edge1_Node000001_Node000002"><a xlink:title=" ">
<path fill="none" stroke="#63b8ff" d="M732.84,-63.77C724.28,-62.77 715.63,-61.76 707.19,-60.77"/>
<polygon fill="#63b8ff" stroke="#63b8ff" points="732.49,-67.25 742.82,-64.93 733.3,-60.29 732.49,-67.25"/>
</a>
</g>
</g>
<!-- Node3 -->
<g id="Node000003" class="node">
<title>Node3</title>
<g id="a_Node000003"><a xlink:href="group__CommandExecutors.html#ga2c1ceafe241a0b4e19790bb5d878ed1a" target="_top" xlink:title="Parse command&#45;line arguments and create execution context.">
<polygon fill="white" stroke="#666666" points="359,-61.85 229,-61.85 229,-42.85 359,-42.85 359,-61.85"/>
<text text-anchor="middle" x="294" y="-49.85" font-family="Helvetica,sans-Serif" font-size="10.00">CommandParser::parse</text>
</a>
</g>
</g>
<!-- Node1&#45;&gt;Node3 -->
<g id="edge9_Node000001_Node000003" class="edge">
<title>Node1&#45;&gt;Node3</title>
<g id="a_edge9_Node000001_Node000003"><a xlink:title=" ">
<path fill="none" stroke="#63b8ff" d="M764.2,-91.69C683.99,-117.83 523.88,-158.54 395,-119.35 357.61,-107.98 321.49,-77.47 304.73,-61.85"/>
<polygon fill="#63b8ff" stroke="#63b8ff" points="765.66,-94.89 774.04,-88.42 763.45,-88.25 765.66,-94.89"/>
</a>
</g>
</g>
<!-- Node5 -->
<g id="Node000005" class="node">
<title>Node5</title>
<g id="a_Node000005"><a xlink:href="interactive__mode_8cpp.html#a6b615c34054150d837dc45ed1c17b297" target="_top" xlink:title="Enhanced interactive command loop with TAB completion for Windows.">
<polygon fill="white" stroke="#666666" points="193,-23.85 77,-23.85 77,-4.85 193,-4.85 193,-23.85"/>
<text text-anchor="middle" x="135" y="-11.85" font-family="Helvetica,sans-Serif" font-size="10.00">run_interactive_loop</text>
</a>
</g>
</g>
<!-- Node1&#45;&gt;Node5 -->
<g id="edge11_Node000001_Node000005" class="edge">
<title>Node1&#45;&gt;Node5</title>
<g id="a_edge11_Node000001_Node000005"><a xlink:title=" ">
<path fill="none" stroke="#63b8ff" d="M777.41,-53.69C757.14,-44.12 731.34,-33.58 707,-28.35 522.56,11.3 296.9,-0.25 193.15,-8.8"/>
<polygon fill="#63b8ff" stroke="#63b8ff" points="776.07,-56.93 786.6,-58.13 779.12,-50.63 776.07,-56.93"/>
</a>
</g>
</g>
<!-- Node6 -->
<g id="Node000006" class="node">
<title>Node6</title>
<g id="a_Node000006"><a xlink:href="group__CommandExecutors.html#ga6dd4acb8cb239efc2daf9ad5c4b2afd4" target="_top" xlink:title="Parse options specific to create_input command.">
<polygon fill="white" stroke="#666666" points="525,-110.35 395,-110.35 395,-80.35 525,-80.35 525,-110.35"/>
<text text-anchor="start" x="403" y="-98.35" font-family="Helvetica,sans-Serif" font-size="10.00">CommandParser::parse</text>
<text text-anchor="middle" x="460" y="-87.35" font-family="Helvetica,sans-Serif" font-size="10.00">_create_input_options</text>
</a>
</g>
</g>
<!-- Node1&#45;&gt;Node6 -->
<g id="edge10_Node000001_Node000006" class="edge">
<title>Node1&#45;&gt;Node6</title>
<g id="a_edge10_Node000001_Node000006"><a xlink:title=" ">
<path fill="none" stroke="#63b8ff" d="M732.6,-78.47C669.39,-82.4 583.39,-87.74 525.23,-91.36"/>
<polygon fill="#63b8ff" stroke="#63b8ff" points="733.17,-81.94 742.94,-77.83 732.74,-74.96 733.17,-81.94"/>
</a>
</g>
</g>
<!-- Node2&#45;&gt;Node3 -->
<g id="edge2_Node000002_Node000003" class="edge">
<title>Node2&#45;&gt;Node3</title>
<g id="a_edge2_Node000002_Node000003"><a xlink:title=" ">
<path fill="none" stroke="#63b8ff" d="M550.86,-52.35C491.84,-52.35 413.4,-52.35 359,-52.35"/>
<polygon fill="#63b8ff" stroke="#63b8ff" points="550.91,-55.85 560.91,-52.35 550.91,-48.85 550.91,-55.85"/>
</a>
</g>
</g>
<!-- Node2&#45;&gt;Node5 -->
<g id="edge8_Node000002_Node000005" class="edge">
<title>Node2&#45;&gt;Node5</title>
<g id="a_edge8_Node000002_Node000005"><a xlink:title=" ">
<path fill="none" stroke="#63b8ff" d="M550.84,-46.07C449.92,-38.35 281.3,-25.46 193.34,-18.73"/>
<polygon fill="#63b8ff" stroke="#63b8ff" points="550.76,-49.57 561,-46.85 551.29,-42.59 550.76,-49.57"/>
</a>
</g>
</g>
<!-- Node2&#45;&gt;Node6 -->
<g id="edge6_Node000002_Node000006" class="edge">
<title>Node2&#45;&gt;Node6</title>
<g id="a_edge6_Node000002_Node000006"><a xlink:title=" ">
<path fill="none" stroke="#63b8ff" d="M562.88,-69.88C549.03,-73.34 534.61,-76.95 521.12,-80.32"/>
<polygon fill="#63b8ff" stroke="#63b8ff" points="563.99,-73.21 572.84,-67.39 562.29,-66.42 563.99,-73.21"/>
</a>
</g>
</g>
<!-- Node4 -->
<g id="Node000004" class="node">
<title>Node4</title>
<g id="a_Node000004"><a xlink:href="main_8cpp.html#a0ddf1224851353fc92bfbff6f499fa97" target="_top" xlink:title="Main entry point for the Gaussian Extractor application.">
<polygon fill="white" stroke="#666666" points="41,-42.85 0,-42.85 0,-23.85 41,-23.85 41,-42.85"/>
<text text-anchor="middle" x="20.5" y="-30.85" font-family="Helvetica,sans-Serif" font-size="10.00">main</text>
</a>
</g>
</g>
<!-- Node3&#45;&gt;Node4 -->
<g id="edge3_Node000003_Node000004" class="edge">
<title>Node3&#45;&gt;Node4</title>
<g id="a_edge3_Node000003_Node000004"><a xlink:title=" ">
<path fill="none" stroke="#63b8ff" d="M218.42,-47.13C158.19,-42.92 77.65,-37.28 41.06,-34.72"/>
<polygon fill="#63b8ff" stroke="#63b8ff" points="218.44,-50.64 228.66,-47.85 218.93,-43.66 218.44,-50.64"/>
</a>
</g>
</g>
<!-- Node3&#45;&gt;Node5 -->
<g id="edge4_Node000003_Node000005" class="edge">
<title>Node3&#45;&gt;Node5</title>
<g id="a_edge4_Node000003_Node000005"><a xlink:title=" ">
<path fill="none" stroke="#63b8ff" d="M243.55,-40.38C221.55,-35.06 196.01,-28.87 175.33,-23.87"/>
<polygon fill="#63b8ff" stroke="#63b8ff" points="242.84,-43.81 253.38,-42.76 244.49,-37.01 242.84,-43.81"/>
</a>
</g>
</g>
<!-- Node5&#45;&gt;Node4 -->
<g id="edge5_Node000005_Node000004" class="edge">
<title>Node5&#45;&gt;Node4</title>
<g id="a_edge5_Node000005_Node000004"><a xlink:title=" ">
<path fill="none" stroke="#63b8ff" d="M67.4,-25.6C57.88,-27.21 48.77,-28.74 41.22,-30.02"/>
<polygon fill="#63b8ff" stroke="#63b8ff" points="68.14,-29.02 77.42,-23.91 66.98,-22.12 68.14,-29.02"/>
</a>
</g>
</g>
<!-- Node6&#45;&gt;Node3 -->
<g id="edge7_Node000006_Node000003" class="edge">
<title>Node6&#45;&gt;Node3</title>
<g id="a_edge7_Node000006_Node000003"><a xlink:title=" ">
<path fill="none" stroke="#63b8ff" d="M391.95,-77.77C371.31,-72.36 349.35,-66.6 331.56,-61.94"/>
<polygon fill="#63b8ff" stroke="#63b8ff" points="391.08,-81.16 401.64,-80.31 392.86,-74.39 391.08,-81.16"/>
</a>
</g>
</g>
</g>
</svg>
