<?xml version="1.0" encoding="UTF-8" standalone="no"?>
<!DOCTYPE svg PUBLIC "-//W3C//DTD SVG 1.1//EN"
 "http://www.w3.org/Graphics/SVG/1.1/DTD/svg11.dtd">
<!-- Generated by graphviz version 2.43.0 (0)
 -->
<!-- Title: CoordExtractor::log_error Pages: 1 -->
<svg width="1002pt" height="52pt"
 viewBox="0.00 0.00 1002.00 51.50" xmlns="http://www.w3.org/2000/svg" xmlns:xlink="http://www.w3.org/1999/xlink">
<g id="graph0" class="graph" transform="scale(1 1) rotate(0) translate(4 47.5)">
<title>CoordExtractor::log_error</title>
<!-- Node1 -->
<g id="Node000001" class="node">
<title>Node1</title>
<g id="a_Node000001"><a xlink:title="Log error message.">
<polygon fill="#999999" stroke="#666666" points="994,-43.5 884,-43.5 884,-13.5 994,-13.5 994,-43.5"/>
<text text-anchor="start" x="892" y="-31.5" font-family="Helvetica,sans-Serif" font-size="10.00">CoordExtractor::log</text>
<text text-anchor="middle" x="939" y="-20.5" font-family="Helvetica,sans-Serif" font-size="10.00">_error</text>
</a>
</g>
</g>
<!-- Node2 -->
<g id="Node000002" class="node">
<title>Node2</title>
<g id="a_Node000002"><a xlink:href="classCoordExtractor.html#ab4d64ab27004dddc29d0fde595ce447a" target="_top" xlink:title="Create target directory if it doesn&#39;t exist.">
<polygon fill="white" stroke="#666666" points="848,-43.5 722,-43.5 722,-13.5 848,-13.5 848,-43.5"/>
<text text-anchor="start" x="730" y="-31.5" font-family="Helvetica,sans-Serif" font-size="10.00">CoordExtractor::create</text>
<text text-anchor="middle" x="785" y="-20.5" font-family="Helvetica,sans-Serif" font-size="10.00">_target_directory</text>
</a>
</g>
</g>
<!-- Node1&#45;&gt;Node2 -->
<g id="edge1_Node000001_Node000002" class="edge">
<title>Node1&#45;&gt;Node2</title>
<g id="a_edge1_Node000001_Node000002"><a xlink:title=" ">
<path fill="none" stroke="#63b8ff" d="M873.76,-28.5C865.28,-28.5 856.59,-28.5 848.14,-28.5"/>
<polygon fill="#63b8ff" stroke="#63b8ff" points="873.98,-32 883.98,-28.5 873.98,-25 873.98,-32"/>
</a>
</g>
</g>
<!-- Node3 -->
<g id="Node000003" class="node">
<title>Node3</title>
<g id="a_Node000003"><a xlink:href="classCoordExtractor.html#aefc7d1a1fe3d6e5e2510abda5be3ac0f" target="_top" xlink:title="Move XYZ file to appropriate directory based on job status.">
<polygon fill="white" stroke="#666666" points="686,-43.5 563,-43.5 563,-13.5 686,-13.5 686,-43.5"/>
<text text-anchor="start" x="571" y="-31.5" font-family="Helvetica,sans-Serif" font-size="10.00">CoordExtractor::move</text>
<text text-anchor="middle" x="624.5" y="-20.5" font-family="Helvetica,sans-Serif" font-size="10.00">_xyz_file</text>
</a>
</g>
</g>
<!-- Node2&#45;&gt;Node3 -->
<g id="edge2_Node000002_Node000003" class="edge">
<title>Node2&#45;&gt;Node3</title>
<g id="a_edge2_Node000002_Node000003"><a xlink:title=" ">
<path fill="none" stroke="#63b8ff" d="M711.55,-28.5C703.08,-28.5 694.5,-28.5 686.21,-28.5"/>
<polygon fill="#63b8ff" stroke="#63b8ff" points="711.81,-32 721.81,-28.5 711.81,-25 711.81,-32"/>
</a>
</g>
</g>
<!-- Node4 -->
<g id="Node000004" class="node">
<title>Node4</title>
<g id="a_Node000004"><a xlink:href="classCoordExtractor.html#a94f396e2c1c6511af85c9277bb2d0680" target="_top" xlink:title="Extract coordinates from multiple log files.">
<polygon fill="white" stroke="#666666" points="527,-43.5 397,-43.5 397,-13.5 527,-13.5 527,-43.5"/>
<text text-anchor="start" x="405" y="-31.5" font-family="Helvetica,sans-Serif" font-size="10.00">CoordExtractor::extract</text>
<text text-anchor="middle" x="462" y="-20.5" font-family="Helvetica,sans-Serif" font-size="10.00">_coordinates</text>
</a>
</g>
</g>
<!-- Node3&#45;&gt;Node4 -->
<g id="edge3_Node000003_Node000004" class="edge">
<title>Node3&#45;&gt;Node4</title>
<g id="a_edge3_Node000003_Node000004"><a xlink:title=" ">
<path fill="none" stroke="#63b8ff" d="M552.62,-28.5C544.17,-28.5 535.59,-28.5 527.24,-28.5"/>
<polygon fill="#63b8ff" stroke="#63b8ff" points="552.82,-32 562.82,-28.5 552.82,-25 552.82,-32"/>
</a>
</g>
</g>
<!-- Node5 -->
<g id="Node000005" class="node">
<title>Node5</title>
<g id="a_Node000005"><a xlink:href="group__ModuleExecutors.html#gab27343ef2ae55f92b21f39e17f788f4c" target="_top" xlink:title=" ">
<polygon fill="white" stroke="#666666" points="361,-43.5 229,-43.5 229,-13.5 361,-13.5 361,-43.5"/>
<text text-anchor="start" x="237" y="-31.5" font-family="Helvetica,sans-Serif" font-size="10.00">execute_extract_coords</text>
<text text-anchor="middle" x="295" y="-20.5" font-family="Helvetica,sans-Serif" font-size="10.00">_command</text>
</a>
</g>
</g>
<!-- Node4&#45;&gt;Node5 -->
<g id="edge4_Node000004_Node000005" class="edge">
<title>Node4&#45;&gt;Node5</title>
<g id="a_edge4_Node000004_Node000005"><a xlink:title=" ">
<path fill="none" stroke="#63b8ff" d="M386.51,-28.5C378.06,-28.5 369.49,-28.5 361.18,-28.5"/>
<polygon fill="#63b8ff" stroke="#63b8ff" points="386.73,-32 396.73,-28.5 386.73,-25 386.73,-32"/>
</a>
</g>
</g>
<!-- Node6 -->
<g id="Node000006" class="node">
<title>Node6</title>
<g id="a_Node000006"><a xlink:href="main_8cpp.html#a0ddf1224851353fc92bfbff6f499fa97" target="_top" xlink:title="Main entry point for the Gaussian Extractor application.">
<polygon fill="white" stroke="#666666" points="41,-38 0,-38 0,-19 41,-19 41,-38"/>
<text text-anchor="middle" x="20.5" y="-26" font-family="Helvetica,sans-Serif" font-size="10.00">main</text>
</a>
</g>
</g>
<!-- Node5&#45;&gt;Node6 -->
<g id="edge5_Node000005_Node000006" class="edge">
<title>Node5&#45;&gt;Node6</title>
<g id="a_edge5_Node000005_Node000006"><a xlink:title=" ">
<path fill="none" stroke="#63b8ff" d="M218.45,-28.5C158.02,-28.5 77.57,-28.5 41.03,-28.5"/>
<polygon fill="#63b8ff" stroke="#63b8ff" points="218.73,-32 228.73,-28.5 218.73,-25 218.73,-32"/>
</a>
</g>
</g>
<!-- Node7 -->
<g id="Node000007" class="node">
<title>Node7</title>
<g id="a_Node000007"><a xlink:href="interactive__mode_8cpp.html#a6b615c34054150d837dc45ed1c17b297" target="_top" xlink:title="Enhanced interactive command loop with TAB completion for Windows.">
<polygon fill="white" stroke="#666666" points="193,-19 77,-19 77,0 193,0 193,-19"/>
<text text-anchor="middle" x="135" y="-7" font-family="Helvetica,sans-Serif" font-size="10.00">run_interactive_loop</text>
</a>
</g>
</g>
<!-- Node5&#45;&gt;Node7 -->
<g id="edge6_Node000005_Node000007" class="edge">
<title>Node5&#45;&gt;Node7</title>
<g id="a_edge6_Node000005_Node000007"><a xlink:title=" ">
<path fill="none" stroke="#63b8ff" d="M218.85,-19.46C210.31,-18.44 201.71,-17.4 193.45,-16.41"/>
<polygon fill="#63b8ff" stroke="#63b8ff" points="218.48,-22.94 228.82,-20.66 219.31,-15.99 218.48,-22.94"/>
</a>
</g>
</g>
<!-- Node7&#45;&gt;Node6 -->
<g id="edge7_Node000007_Node000006" class="edge">
<title>Node7&#45;&gt;Node6</title>
<g id="a_edge7_Node000007_Node000006"><a xlink:title=" ">
<path fill="none" stroke="#63b8ff" d="M67.4,-20.75C57.88,-22.36 48.77,-23.89 41.22,-25.17"/>
<polygon fill="#63b8ff" stroke="#63b8ff" points="68.14,-24.17 77.42,-19.06 66.98,-17.27 68.14,-24.17"/>
</a>
</g>
</g>
</g>
</svg>
