<?xml version="1.0" encoding="UTF-8" standalone="no"?>
<!DOCTYPE svg PUBLIC "-//W3C//DTD SVG 1.1//EN"
 "http://www.w3.org/Graphics/SVG/1.1/DTD/svg11.dtd">
<!-- Generated by graphviz version 2.43.0 (0)
 -->
<!-- Title: CreateInput::create_from_file Pages: 1 -->
<!--zoomable 321 -->

<svg id="main" version="1.1" xmlns="http://www.w3.org/2000/svg" xmlns:xlink="http://www.w3.org/1999/xlink" xml:space="preserve" onload="init(evt)">
<style type="text/css"><![CDATA[
.node, .edge {opacity: 0.7;}
.node.selected, .edge.selected {opacity: 1;}
.edge:hover path { stroke: red; }
.edge:hover polygon { stroke: red; fill: red; }
]]></style>

<defs>
  <circle id="rim" cx="0" cy="0" r="7"/>
  <circle id="rim2" cx="0" cy="0" r="3.5"/>
  <g id="zoomPlus">
    <use xlink:href="#rim" fill="#404040"><set attributeName="fill" to="#808080" begin="zoomplus.mouseover" end="zoomplus.mouseout"/></use>
    <path d="M-4,0h8M0,-4v8" fill="none" stroke="white" stroke-width="1.5" pointer-events="none"/>
  </g>
  <g id="zoomMin">
    <use xlink:href="#rim" fill="#404040"><set attributeName="fill" to="#808080" begin="zoomminus.mouseover" end="zoomminus.mouseout"/></use>
    <path d="M-4,0h8" fill="none" stroke="white" stroke-width="1.5" pointer-events="none"/>
  </g>
  <g id="arrowUp" transform="translate(30 24)">
    <use xlink:href="#rim"/>
    <path pointer-events="none" fill="none" stroke="white" stroke-width="1.5" d="M0,-3.0v7 M-2.5,-0.5L0,-3.0L2.5,-0.5"/>
  </g>
  <g id="arrowRight" transform="rotate(90) translate(36 -43)">
    <use xlink:href="#rim"/>
    <path pointer-events="none" fill="none" stroke="white" stroke-width="1.5" d="M0,-3.0v7 M-2.5,-0.5L0,-3.0L2.5,-0.5"/>
  </g>
  <g id="arrowDown" transform="rotate(180) translate(-30 -48)">
    <use xlink:href="#rim"/>
    <path pointer-events="none" fill="none" stroke="white" stroke-width="1.5" d="M0,-3.0v7 M-2.5,-0.5L0,-3.0L2.5,-0.5"/>
  </g>
  <g id="arrowLeft" transform="rotate(270) translate(-36 17)">
    <use xlink:href="#rim"/>
    <path pointer-events="none" fill="none" stroke="white" stroke-width="1.5" d="M0,-3.0v7 M-2.5,-0.5L0,-3.0L2.5,-0.5"/>
  </g>
  <g id="resetDef">
    <use xlink:href="#rim2" fill="#404040"><set attributeName="fill" to="#808080" begin="reset.mouseover" end="reset.mouseout"/></use>
  </g>
</defs>
<script type="application/ecmascript">
var viewWidth = 616;
var viewHeight = 321;
var sectionId = 'dynsection-1';
</script>
<script type="application/ecmascript" xlink:href="svg.min.js"/>
<svg id="graph" class="graph">
<g id="viewport">
<title>CreateInput::create_from_file</title>
<!-- Node1 -->
<g id="Node000001" class="node">
<title>Node1</title>
<g id="a_Node000001"><a xlink:title="Create input file from single XYZ file.">
<polygon fill="#999999" stroke="#666666" points="110,-102 0,-102 0,-72 110,-72 110,-102"/>
<text text-anchor="start" x="8" y="-90" font-family="Helvetica,sans-Serif" font-size="10.00">CreateInput::create</text>
<text text-anchor="middle" x="55" y="-79" font-family="Helvetica,sans-Serif" font-size="10.00">_from_file</text>
</a>
</g>
</g>
<!-- Node2 -->
<g id="Node000002" class="node">
<title>Node2</title>
<g id="a_Node000002"><a xlink:href="classCreateInput.html#ac3c82149b54ad69fd871f6f51c667131" target="_top" xlink:title="Generate Gaussian input content.">
<polygon fill="white" stroke="#666666" points="269.5,-174 146.5,-174 146.5,-144 269.5,-144 269.5,-174"/>
<text text-anchor="start" x="154.5" y="-162" font-family="Helvetica,sans-Serif" font-size="10.00">CreateInput::generate</text>
<text text-anchor="middle" x="208" y="-151" font-family="Helvetica,sans-Serif" font-size="10.00">_input_content</text>
</a>
</g>
</g>
<!-- Node1&#45;&gt;Node2 -->
<g id="edge1_Node000001_Node000002" class="edge">
<title>Node1&#45;&gt;Node2</title>
<g id="a_edge1_Node000001_Node000002"><a xlink:title=" ">
<path fill="none" stroke="#63b8ff" d="M82.37,-102.1C100.1,-111.99 124.13,-124.91 146,-135 149.62,-136.67 153.38,-138.33 157.19,-139.95"/>
<polygon fill="#63b8ff" stroke="#63b8ff" points="156.11,-143.3 166.69,-143.9 158.8,-136.83 156.11,-143.3"/>
</a>
</g>
</g>
<!-- Node10 -->
<g id="Node000010" class="node">
<title>Node10</title>
<g id="a_Node000010"><a xlink:href="classCreateInput.html#af67178cacafef48a0129a1707c4d5089" target="_top" xlink:title="Generate output filename(s) from XYZ filename.">
<polygon fill="white" stroke="#666666" points="269.5,-126 146.5,-126 146.5,-96 269.5,-96 269.5,-126"/>
<text text-anchor="start" x="154.5" y="-114" font-family="Helvetica,sans-Serif" font-size="10.00">CreateInput::generate</text>
<text text-anchor="middle" x="208" y="-103" font-family="Helvetica,sans-Serif" font-size="10.00">_input_filename</text>
</a>
</g>
</g>
<!-- Node1&#45;&gt;Node10 -->
<g id="edge12_Node000001_Node000010" class="edge">
<title>Node1&#45;&gt;Node10</title>
<g id="a_edge12_Node000001_Node000010"><a xlink:title=" ">
<path fill="none" stroke="#63b8ff" d="M110.09,-95.6C118.63,-96.96 127.58,-98.38 136.43,-99.78"/>
<polygon fill="#63b8ff" stroke="#63b8ff" points="135.94,-103.25 146.37,-101.36 137.04,-96.34 135.94,-103.25"/>
</a>
</g>
</g>
<!-- Node11 -->
<g id="Node000011" class="node">
<title>Node11</title>
<g id="a_Node000011"><a xlink:href="classCreateInput.html#ad8cb721c27a8c3432c61780cbca4cefc" target="_top" xlink:title="Read coordinates from XYZ file.">
<polygon fill="white" stroke="#666666" points="270,-78 146,-78 146,-48 270,-48 270,-78"/>
<text text-anchor="start" x="154" y="-66" font-family="Helvetica,sans-Serif" font-size="10.00">CreateInput::read_xyz</text>
<text text-anchor="middle" x="208" y="-55" font-family="Helvetica,sans-Serif" font-size="10.00">_coordinates</text>
</a>
</g>
</g>
<!-- Node1&#45;&gt;Node11 -->
<g id="edge13_Node000001_Node000011" class="edge">
<title>Node1&#45;&gt;Node11</title>
<g id="a_edge13_Node000001_Node000011"><a xlink:title=" ">
<path fill="none" stroke="#63b8ff" d="M110.09,-78.4C118.42,-77.08 127.13,-75.69 135.77,-74.32"/>
<polygon fill="#63b8ff" stroke="#63b8ff" points="136.52,-77.75 145.85,-72.72 135.42,-70.83 136.52,-77.75"/>
</a>
</g>
</g>
<!-- Node12 -->
<g id="Node000012" class="node">
<title>Node12</title>
<g id="a_Node000012"><a xlink:href="classCreateInput.html#a62eb07832c8632969688c1b2c647eb02" target="_top" xlink:title="Write input file to disk.">
<polygon fill="white" stroke="#666666" points="260,-30 156,-30 156,0 260,0 260,-30"/>
<text text-anchor="start" x="164" y="-18" font-family="Helvetica,sans-Serif" font-size="10.00">CreateInput::write</text>
<text text-anchor="middle" x="208" y="-7" font-family="Helvetica,sans-Serif" font-size="10.00">_input_file</text>
</a>
</g>
</g>
<!-- Node1&#45;&gt;Node12 -->
<g id="edge14_Node000001_Node000012" class="edge">
<title>Node1&#45;&gt;Node12</title>
<g id="a_edge14_Node000001_Node000012"><a xlink:title=" ">
<path fill="none" stroke="#63b8ff" d="M82.37,-71.9C100.1,-62.01 124.13,-49.09 146,-39 149.62,-37.33 153.38,-35.67 157.19,-34.05"/>
<polygon fill="#63b8ff" stroke="#63b8ff" points="158.8,-37.17 166.69,-30.1 156.11,-30.7 158.8,-37.17"/>
</a>
</g>
</g>
<!-- Node3 -->
<g id="Node000003" class="node">
<title>Node3</title>
<g id="a_Node000003"><a xlink:href="classCreateInput.html#af97b8545c619c854283b22b791f453ab" target="_top" xlink:title="Generate checkpoint section for input file.">
<polygon fill="white" stroke="#666666" points="438,-313 315,-313 315,-283 438,-283 438,-313"/>
<text text-anchor="start" x="323" y="-301" font-family="Helvetica,sans-Serif" font-size="10.00">CreateInput::generate</text>
<text text-anchor="middle" x="376.5" y="-290" font-family="Helvetica,sans-Serif" font-size="10.00">_checkpoint_section</text>
</a>
</g>
</g>
<!-- Node2&#45;&gt;Node3 -->
<g id="edge2_Node000002_Node000003" class="edge">
<title>Node2&#45;&gt;Node3</title>
<g id="a_edge2_Node000002_Node000003"><a xlink:title=" ">
<path fill="none" stroke="#63b8ff" d="M218.05,-174.32C233.24,-198.78 266.16,-246.66 306,-274 308.24,-275.54 310.59,-276.99 313.02,-278.35"/>
<polygon fill="#63b8ff" stroke="#63b8ff" points="311.56,-281.53 322.06,-282.92 314.71,-275.28 311.56,-281.53"/>
</a>
</g>
</g>
<!-- Node4 -->
<g id="Node000004" class="node">
<title>Node4</title>
<g id="a_Node000004"><a xlink:href="classCreateInput.html#acd3d8c7d766ba09d5c3700889d2c04cf" target="_top" xlink:title="Generate molecule section with coordinates.">
<polygon fill="white" stroke="#666666" points="438,-265 315,-265 315,-235 438,-235 438,-265"/>
<text text-anchor="start" x="323" y="-253" font-family="Helvetica,sans-Serif" font-size="10.00">CreateInput::generate</text>
<text text-anchor="middle" x="376.5" y="-242" font-family="Helvetica,sans-Serif" font-size="10.00">_molecule_section</text>
</a>
</g>
</g>
<!-- Node2&#45;&gt;Node4 -->
<g id="edge3_Node000002_Node000004" class="edge">
<title>Node2&#45;&gt;Node4</title>
<g id="a_edge3_Node000002_Node000004"><a xlink:title=" ">
<path fill="none" stroke="#63b8ff" d="M227.72,-174.24C246.58,-189.02 276.96,-211.31 306,-226 309.55,-227.8 313.27,-229.51 317.06,-231.14"/>
<polygon fill="#63b8ff" stroke="#63b8ff" points="315.99,-234.48 326.57,-235 318.62,-228 315.99,-234.48"/>
</a>
</g>
</g>
<!-- Node5 -->
<g id="Node000005" class="node">
<title>Node5</title>
<g id="a_Node000005"><a xlink:href="classCreateInput.html#af324c20a23853c65cdaf487497bb84a9" target="_top" xlink:title="Generate route section for different calculation types.">
<polygon fill="white" stroke="#666666" points="438,-217 315,-217 315,-187 438,-187 438,-217"/>
<text text-anchor="start" x="323" y="-205" font-family="Helvetica,sans-Serif" font-size="10.00">CreateInput::generate</text>
<text text-anchor="middle" x="376.5" y="-194" font-family="Helvetica,sans-Serif" font-size="10.00">_route_section</text>
</a>
</g>
</g>
<!-- Node2&#45;&gt;Node5 -->
<g id="edge4_Node000002_Node000005" class="edge">
<title>Node2&#45;&gt;Node5</title>
<g id="a_edge4_Node000002_Node000005"><a xlink:title=" ">
<path fill="none" stroke="#63b8ff" d="M267.23,-174.04C280.16,-177.38 293.98,-180.95 307.26,-184.38"/>
<polygon fill="#63b8ff" stroke="#63b8ff" points="306.74,-187.86 317.3,-186.97 308.49,-181.08 306.74,-187.86"/>
</a>
</g>
</g>
<!-- Node6 -->
<g id="Node000006" class="node">
<title>Node6</title>
<g id="a_Node000006"><a xlink:href="classCreateInput.html#aaa26966f65695608137d998b5659e4fe" target="_top" xlink:title="Smartly select the appropriate basis set based on calculation type.">
<polygon fill="white" stroke="#666666" points="608,-174 483,-174 483,-144 608,-144 608,-174"/>
<text text-anchor="start" x="491" y="-162" font-family="Helvetica,sans-Serif" font-size="10.00">CreateInput::select</text>
<text text-anchor="middle" x="545.5" y="-151" font-family="Helvetica,sans-Serif" font-size="10.00">_basis_for_calculation</text>
</a>
</g>
</g>
<!-- Node2&#45;&gt;Node6 -->
<g id="edge8_Node000002_Node000006" class="edge">
<title>Node2&#45;&gt;Node6</title>
<g id="a_edge8_Node000002_Node000006"><a xlink:title=" ">
<path fill="none" stroke="#63b8ff" d="M269.76,-159C326.79,-159 412.14,-159 472.55,-159"/>
<polygon fill="#63b8ff" stroke="#63b8ff" points="472.78,-162.5 482.78,-159 472.78,-155.5 472.78,-162.5"/>
</a>
</g>
</g>
<!-- Node7 -->
<g id="Node000007" class="node">
<title>Node7</title>
<g id="a_Node000007"><a xlink:href="classCreateInput.html#aed0a3cb3385f77c8f2f61d44f1c4efa1" target="_top" xlink:title="Generate title for current calculation type.">
<polygon fill="white" stroke="#666666" points="438,-131 315,-131 315,-101 438,-101 438,-131"/>
<text text-anchor="start" x="323" y="-119" font-family="Helvetica,sans-Serif" font-size="10.00">CreateInput::generate</text>
<text text-anchor="middle" x="376.5" y="-108" font-family="Helvetica,sans-Serif" font-size="10.00">_title</text>
</a>
</g>
</g>
<!-- Node2&#45;&gt;Node7 -->
<g id="edge6_Node000002_Node000007" class="edge">
<title>Node2&#45;&gt;Node7</title>
<g id="a_edge6_Node000002_Node000007"><a xlink:title=" ">
<path fill="none" stroke="#63b8ff" d="M267.23,-143.96C280.16,-140.62 293.98,-137.05 307.26,-133.62"/>
<polygon fill="#63b8ff" stroke="#63b8ff" points="308.49,-136.92 317.3,-131.03 306.74,-130.14 308.49,-136.92"/>
</a>
</g>
</g>
<!-- Node8 -->
<g id="Node000008" class="node">
<title>Node8</title>
<g id="a_Node000008"><a xlink:href="classCreateInput.html#a781b25e4d5f838ad1a106649a487f5e0" target="_top" xlink:title="Check if the given basis string is GEN or GENECP (case insensitive)">
<polygon fill="white" stroke="#666666" points="601,-62 490,-62 490,-32 601,-32 601,-62"/>
<text text-anchor="start" x="498" y="-50" font-family="Helvetica,sans-Serif" font-size="10.00">CreateInput::is_gen</text>
<text text-anchor="middle" x="545.5" y="-39" font-family="Helvetica,sans-Serif" font-size="10.00">_basis</text>
</a>
</g>
</g>
<!-- Node2&#45;&gt;Node8 -->
<g id="edge7_Node000002_Node000008" class="edge">
<title>Node2&#45;&gt;Node8</title>
<g id="a_edge7_Node000002_Node000008"><a xlink:title=" ">
<path fill="none" stroke="#63b8ff" d="M258.22,-143.98C262.52,-141.43 266.54,-138.46 270,-135 300.78,-104.27 270.03,-68.45 306,-44 359.57,-7.59 436.71,-16.79 488.63,-29.46"/>
<polygon fill="#63b8ff" stroke="#63b8ff" points="487.78,-32.86 498.34,-31.94 489.52,-26.08 487.78,-32.86"/>
</a>
</g>
</g>
<!-- Node9 -->
<g id="Node000009" class="node">
<title>Node9</title>
<g id="a_Node000009"><a xlink:href="classCreateInput.html#af1835325332d8cda3bc6566040afc4cc" target="_top" xlink:title="Validates requirements for calculations with GEN/GENECP basis.">
<polygon fill="white" stroke="#666666" points="447,-83 306,-83 306,-53 447,-53 447,-83"/>
<text text-anchor="start" x="314" y="-71" font-family="Helvetica,sans-Serif" font-size="10.00">CreateInput::validate</text>
<text text-anchor="middle" x="376.5" y="-60" font-family="Helvetica,sans-Serif" font-size="10.00">_gen_basis_requirements</text>
</a>
</g>
</g>
<!-- Node2&#45;&gt;Node9 -->
<g id="edge9_Node000002_Node000009" class="edge">
<title>Node2&#45;&gt;Node9</title>
<g id="a_edge9_Node000002_Node000009"><a xlink:title=" ">
<path fill="none" stroke="#63b8ff" d="M254.96,-143.85C260.24,-141.27 265.38,-138.33 270,-135 290.22,-120.43 285.47,-106.14 306,-92 308.24,-90.46 310.59,-89.01 313.01,-87.64"/>
<polygon fill="#63b8ff" stroke="#63b8ff" points="314.71,-90.7 322.05,-83.07 311.54,-84.46 314.71,-90.7"/>
</a>
</g>
</g>
<!-- Node5&#45;&gt;Node6 -->
<g id="edge5_Node000005_Node000006" class="edge">
<title>Node5&#45;&gt;Node6</title>
<g id="a_edge5_Node000005_Node000006"><a xlink:title=" ">
<path fill="none" stroke="#63b8ff" d="M435.91,-186.96C448.88,-183.62 462.73,-180.05 476.06,-176.62"/>
<polygon fill="#63b8ff" stroke="#63b8ff" points="477.31,-179.91 486.12,-174.03 475.57,-173.13 477.31,-179.91"/>
</a>
</g>
</g>
<!-- Node9&#45;&gt;Node6 -->
<g id="edge11_Node000009_Node000006" class="edge">
<title>Node9&#45;&gt;Node6</title>
<g id="a_edge11_Node000009_Node000006"><a xlink:title=" ">
<path fill="none" stroke="#63b8ff" d="M426.42,-83.02C433.46,-85.71 440.5,-88.72 447,-92 472.28,-104.76 498.62,-123.21 517.53,-137.52"/>
<polygon fill="#63b8ff" stroke="#63b8ff" points="515.61,-140.45 525.67,-143.77 519.87,-134.9 515.61,-140.45"/>
</a>
</g>
</g>
<!-- Node9&#45;&gt;Node8 -->
<g id="edge10_Node000009_Node000008" class="edge">
<title>Node9&#45;&gt;Node8</title>
<g id="a_edge10_Node000009_Node000008"><a xlink:title=" ">
<path fill="none" stroke="#63b8ff" d="M447.36,-59.22C458.12,-57.86 469.21,-56.47 479.85,-55.13"/>
<polygon fill="#63b8ff" stroke="#63b8ff" points="480.42,-58.59 489.91,-53.86 479.55,-51.64 480.42,-58.59"/>
</a>
</g>
</g>
</g>
</svg>

<g id="navigator" transform="translate(0 0)" fill="#404254">
  <rect fill="#f2f5e9" fill-opacity="0.5" stroke="#606060" stroke-width=".5" x="0" y="0" width="60" height="60"/>
  <use id="zoomplus" xlink:href="#zoomPlus" x="17" y="9" onmousedown="handleZoom(evt,'in')"/>
  <use id="zoomminus" xlink:href="#zoomMin" x="42" y="9" onmousedown="handleZoom(evt,'out')"/>
  <use id="reset" xlink:href="#resetDef" x="30" y="36" onmousedown="handleReset()"/>
   <use id="arrowup" xlink:href="#arrowUp" x="0" y="0" onmousedown="handlePan(0,-1)"/>
  <use id="arrowright" xlink:href="#arrowRight" x="0" y="0" onmousedown="handlePan(1,0)"/>
  <use id="arrowdown" xlink:href="#arrowDown" x="0" y="0" onmousedown="handlePan(0,1)"/>
  <use id="arrowleft" xlink:href="#arrowLeft" x="0" y="0" onmousedown="handlePan(-1,0)"/>
</g>
<svg viewBox="0 0 15 15" width="100%" height="30px" preserveAspectRatio="xMaxYMin meet">
 <g id="arrow_out" transform="scale(0.3 0.3)">
  <a xlink:href="classCreateInput_a3663dd0959586c29b28748b3134acb77_cgraph_org.svg" target="_base">
   <rect id="button" ry="5" rx="5" y="6" x="6" height="38" width="38"
        fill="#f2f5e9" fill-opacity="0.5" stroke="#606060" stroke-width="1.0"/>
   <path id="arrow"
     d="M 11.500037,31.436501 C 11.940474,20.09759 22.043105,11.32322 32.158766,21.979434 L 37.068811,17.246167 C 37.068811,17.246167 37.088388,32 37.088388,32 L 22.160133,31.978069 C 22.160133,31.978069 26.997745,27.140456 26.997745,27.140456 C 18.528582,18.264221 13.291696,25.230495 11.500037,31.436501 z"
     style="fill:#404040;"/>
  </a>
 </g>
</svg>

<style type='text/css'>
<![CDATA[
[data-mouse-over-selected='false'] { opacity: 0.7; }
[data-mouse-over-selected='true']  { opacity: 1.0; }
]]>
</style>
<script type="application/ecmascript"><![CDATA[
document.addEventListener('DOMContentLoaded', (event) => {
  highlightEdges();
  highlightAdjacentNodes();
});
]]></script>
</svg>
