<?xml version="1.0" encoding="UTF-8" standalone="no"?>
<!DOCTYPE svg PUBLIC "-//W3C//DTD SVG 1.1//EN"
 "http://www.w3.org/Graphics/SVG/1.1/DTD/svg11.dtd">
<!-- Generated by graphviz version 2.43.0 (0)
 -->
<!-- Title: CoordExtractor::move_xyz_file Pages: 1 -->
<svg width="451pt" height="86pt"
 viewBox="0.00 0.00 451.00 86.00" xmlns="http://www.w3.org/2000/svg" xmlns:xlink="http://www.w3.org/1999/xlink">
<g id="graph0" class="graph" transform="scale(1 1) rotate(0) translate(4 82)">
<title>CoordExtractor::move_xyz_file</title>
<!-- Node1 -->
<g id="Node000001" class="node">
<title>Node1</title>
<g id="a_Node000001"><a xlink:title="Move XYZ file to appropriate directory based on job status.">
<polygon fill="#999999" stroke="#666666" points="123,-54 0,-54 0,-24 123,-24 123,-54"/>
<text text-anchor="start" x="8" y="-42" font-family="Helvetica,sans-Serif" font-size="10.00">CoordExtractor::move</text>
<text text-anchor="middle" x="61.5" y="-31" font-family="Helvetica,sans-Serif" font-size="10.00">_xyz_file</text>
</a>
</g>
</g>
<!-- Node2 -->
<g id="Node000002" class="node">
<title>Node2</title>
<g id="a_Node000002"><a xlink:href="classCoordExtractor.html#ab4d64ab27004dddc29d0fde595ce447a" target="_top" xlink:title="Create target directory if it doesn&#39;t exist.">
<polygon fill="white" stroke="#666666" points="291,-78 165,-78 165,-48 291,-48 291,-78"/>
<text text-anchor="start" x="173" y="-66" font-family="Helvetica,sans-Serif" font-size="10.00">CoordExtractor::create</text>
<text text-anchor="middle" x="228" y="-55" font-family="Helvetica,sans-Serif" font-size="10.00">_target_directory</text>
</a>
</g>
</g>
<!-- Node1&#45;&gt;Node2 -->
<g id="edge1_Node000001_Node000002" class="edge">
<title>Node1&#45;&gt;Node2</title>
<g id="a_edge1_Node000001_Node000002"><a xlink:title=" ">
<path fill="none" stroke="#63b8ff" d="M123.29,-47.87C133.55,-49.37 144.3,-50.93 154.82,-52.47"/>
<polygon fill="#63b8ff" stroke="#63b8ff" points="154.41,-55.95 164.81,-53.93 155.42,-49.02 154.41,-55.95"/>
</a>
</g>
</g>
<!-- Node4 -->
<g id="Node000004" class="node">
<title>Node4</title>
<g id="a_Node000004"><a xlink:href="classCoordExtractor.html#a11e54ea7feb0e8f5dc04f7e788567498" target="_top" xlink:title="Get current directory name.">
<polygon fill="white" stroke="#666666" points="297,-30 159,-30 159,0 297,0 297,-30"/>
<text text-anchor="start" x="167" y="-18" font-family="Helvetica,sans-Serif" font-size="10.00">CoordExtractor::get</text>
<text text-anchor="middle" x="228" y="-7" font-family="Helvetica,sans-Serif" font-size="10.00">_current_directory_name</text>
</a>
</g>
</g>
<!-- Node1&#45;&gt;Node4 -->
<g id="edge3_Node000001_Node000004" class="edge">
<title>Node1&#45;&gt;Node4</title>
<g id="a_edge3_Node000001_Node000004"><a xlink:title=" ">
<path fill="none" stroke="#63b8ff" d="M123.29,-30.13C131.64,-28.91 140.31,-27.65 148.92,-26.39"/>
<polygon fill="#63b8ff" stroke="#63b8ff" points="149.59,-29.83 158.98,-24.92 148.58,-22.9 149.59,-29.83"/>
</a>
</g>
</g>
<!-- Node3 -->
<g id="Node000003" class="node">
<title>Node3</title>
<g id="a_Node000003"><a xlink:href="classCoordExtractor.html#a98cdffad3ade0a6d38eff7006df69edd" target="_top" xlink:title="Log error message.">
<polygon fill="white" stroke="#666666" points="443,-78 333,-78 333,-48 443,-48 443,-78"/>
<text text-anchor="start" x="341" y="-66" font-family="Helvetica,sans-Serif" font-size="10.00">CoordExtractor::log</text>
<text text-anchor="middle" x="388" y="-55" font-family="Helvetica,sans-Serif" font-size="10.00">_error</text>
</a>
</g>
</g>
<!-- Node2&#45;&gt;Node3 -->
<g id="edge2_Node000002_Node000003" class="edge">
<title>Node2&#45;&gt;Node3</title>
<g id="a_edge2_Node000002_Node000003"><a xlink:title=" ">
<path fill="none" stroke="#63b8ff" d="M291.45,-63C301.73,-63 312.41,-63 322.74,-63"/>
<polygon fill="#63b8ff" stroke="#63b8ff" points="322.93,-66.5 332.93,-63 322.93,-59.5 322.93,-66.5"/>
</a>
</g>
</g>
</g>
</svg>
