<?xml version="1.0" encoding="UTF-8" standalone="no"?>
<!DOCTYPE svg PUBLIC "-//W3C//DTD SVG 1.1//EN"
 "http://www.w3.org/Graphics/SVG/1.1/DTD/svg11.dtd">
<!-- Generated by graphviz version 2.43.0 (0)
 -->
<!-- Title: FileContentCache::get_or_read Pages: 1 -->
<svg width="1571pt" height="471pt"
 viewBox="0.00 0.00 1571.00 471.00" xmlns="http://www.w3.org/2000/svg" xmlns:xlink="http://www.w3.org/1999/xlink">
<g id="graph0" class="graph" transform="scale(1 1) rotate(0) translate(4 467)">
<title>FileContentCache::get_or_read</title>
<!-- Node1 -->
<g id="Node000001" class="node">
<title>Node1</title>
<g id="a_Node000001"><a xlink:title=" ">
<polygon fill="#999999" stroke="#666666" points="1563,-207 1439,-207 1439,-177 1563,-177 1563,-207"/>
<text text-anchor="start" x="1447" y="-195" font-family="Helvetica,sans-Serif" font-size="10.00">FileContentCache::get</text>
<text text-anchor="middle" x="1501" y="-184" font-family="Helvetica,sans-Serif" font-size="10.00">_or_read</text>
</a>
</g>
</g>
<!-- Node2 -->
<g id="Node000002" class="node">
<title>Node2</title>
<g id="a_Node000002"><a xlink:href="group__EnergyExtraction.html#ga42389d55a3f27a4e7f077a16d956b957" target="_top" xlink:title="Extract specific energy value from log file using pattern matching.">
<polygon fill="white" stroke="#666666" points="1403,-207 1254,-207 1254,-177 1403,-177 1403,-207"/>
<text text-anchor="start" x="1262" y="-195" font-family="Helvetica,sans-Serif" font-size="10.00">HighLevelEnergyCalculator</text>
<text text-anchor="middle" x="1328.5" y="-184" font-family="Helvetica,sans-Serif" font-size="10.00">::extract_value_from_file</text>
</a>
</g>
</g>
<!-- Node1&#45;&gt;Node2 -->
<g id="edge1_Node000001_Node000002" class="edge">
<title>Node1&#45;&gt;Node2</title>
<g id="a_edge1_Node000001_Node000002"><a xlink:title=" ">
<path fill="none" stroke="#63b8ff" d="M1428.76,-192C1420.33,-192 1411.72,-192 1403.25,-192"/>
<polygon fill="#63b8ff" stroke="#63b8ff" points="1428.93,-195.5 1438.93,-192 1428.93,-188.5 1428.93,-195.5"/>
</a>
</g>
</g>
<!-- Node24 -->
<g id="Node000024" class="node">
<title>Node24</title>
<g id="a_Node000024"><a xlink:href="group__FileUtilities.html#ga6dd8fb2393bb29704be0e92003989e45" target="_top" xlink:title="Read complete file content.">
<polygon fill="white" stroke="#666666" points="1403,-100 1254,-100 1254,-70 1403,-70 1403,-100"/>
<text text-anchor="start" x="1262" y="-88" font-family="Helvetica,sans-Serif" font-size="10.00">HighLevelEnergyCalculator</text>
<text text-anchor="middle" x="1328.5" y="-77" font-family="Helvetica,sans-Serif" font-size="10.00">::read_file_content</text>
</a>
</g>
</g>
<!-- Node1&#45;&gt;Node24 -->
<g id="edge35_Node000001_Node000024" class="edge">
<title>Node1&#45;&gt;Node24</title>
<g id="a_edge35_Node000001_Node000024"><a xlink:title=" ">
<path fill="none" stroke="#63b8ff" d="M1467.46,-171.58C1434.16,-150.68 1383.22,-118.71 1353.44,-100.03"/>
<polygon fill="#63b8ff" stroke="#63b8ff" points="1465.6,-174.55 1475.93,-176.9 1469.32,-168.62 1465.6,-174.55"/>
</a>
</g>
</g>
<!-- Node27 -->
<g id="Node000027" class="node">
<title>Node27</title>
<g id="a_Node000027"><a xlink:href="group__FileUtilities.html#ga013cf7e36016b0531852c469c9bc98b7" target="_top" xlink:title="Read last N lines from file.">
<polygon fill="white" stroke="#666666" points="1403,-271 1254,-271 1254,-241 1403,-241 1403,-271"/>
<text text-anchor="start" x="1262" y="-259" font-family="Helvetica,sans-Serif" font-size="10.00">HighLevelEnergyCalculator</text>
<text text-anchor="middle" x="1328.5" y="-248" font-family="Helvetica,sans-Serif" font-size="10.00">::read_file_tail</text>
</a>
</g>
</g>
<!-- Node1&#45;&gt;Node27 -->
<g id="edge40_Node000001_Node000027" class="edge">
<title>Node1&#45;&gt;Node27</title>
<g id="a_edge40_Node000001_Node000027"><a xlink:title=" ">
<path fill="none" stroke="#63b8ff" d="M1450.45,-210.6C1424.72,-220.26 1393.7,-231.9 1369.52,-240.98"/>
<polygon fill="#63b8ff" stroke="#63b8ff" points="1451.89,-213.8 1460.03,-207.01 1449.43,-207.24 1451.89,-213.8"/>
</a>
</g>
</g>
<!-- Node3 -->
<g id="Node000003" class="node">
<title>Node3</title>
<g id="a_Node000003"><a xlink:href="group__MainCalculation.html#gacaba75cc61d8b3ec08efd5976ce4325f" target="_top" xlink:title="Calculate high&#45;level energy for a single file.">
<polygon fill="white" stroke="#666666" points="1003,-143 842,-143 842,-113 1003,-113 1003,-143"/>
<text text-anchor="start" x="850" y="-131" font-family="Helvetica,sans-Serif" font-size="10.00">HighLevelEnergyCalculator</text>
<text text-anchor="middle" x="922.5" y="-120" font-family="Helvetica,sans-Serif" font-size="10.00">::calculate_high_level_energy</text>
</a>
</g>
</g>
<!-- Node2&#45;&gt;Node3 -->
<g id="edge2_Node000002_Node000003" class="edge">
<title>Node2&#45;&gt;Node3</title>
<g id="a_edge2_Node000002_Node000003"><a xlink:title=" ">
<path fill="none" stroke="#63b8ff" d="M1243.48,-193.19C1185.4,-192.38 1106.72,-188.05 1039,-173 1009.38,-166.42 977.35,-153.44 954.55,-143.1"/>
<polygon fill="#63b8ff" stroke="#63b8ff" points="1243.67,-196.69 1253.71,-193.3 1243.74,-189.69 1243.67,-196.69"/>
</a>
</g>
</g>
<!-- Node14 -->
<g id="Node000014" class="node">
<title>Node14</title>
<g id="a_Node000014"><a xlink:href="group__EnergyExtraction.html#gaa64c4afe3577a5e147f0c3837d10a021" target="_top" xlink:title="Extract thermal correction data from low&#45;level calculation.">
<polygon fill="white" stroke="#666666" points="1218,-164 1039,-164 1039,-134 1218,-134 1218,-164"/>
<text text-anchor="start" x="1047" y="-152" font-family="Helvetica,sans-Serif" font-size="10.00">HighLevelEnergyCalculator</text>
<text text-anchor="middle" x="1128.5" y="-141" font-family="Helvetica,sans-Serif" font-size="10.00">::extract_low_level_thermal_data</text>
</a>
</g>
</g>
<!-- Node2&#45;&gt;Node14 -->
<g id="edge20_Node000002_Node000014" class="edge">
<title>Node2&#45;&gt;Node14</title>
<g id="a_edge20_Node000002_Node000014"><a xlink:title=" ">
<path fill="none" stroke="#63b8ff" d="M1248.17,-174.77C1231.8,-171.22 1214.69,-167.5 1198.71,-164.03"/>
<polygon fill="#63b8ff" stroke="#63b8ff" points="1247.73,-178.26 1258.25,-176.96 1249.22,-171.42 1247.73,-178.26"/>
</a>
</g>
</g>
<!-- Node15 -->
<g id="Node000015" class="node">
<title>Node15</title>
<g id="a_Node000015"><a xlink:href="group__OutputFormatting.html#ga127aea9652788ee774b4d8d1f2602959" target="_top" xlink:title="Print summary information about calculation.">
<polygon fill="white" stroke="#666666" points="793,-319 644,-319 644,-289 793,-289 793,-319"/>
<text text-anchor="start" x="652" y="-307" font-family="Helvetica,sans-Serif" font-size="10.00">HighLevelEnergyCalculator</text>
<text text-anchor="middle" x="718.5" y="-296" font-family="Helvetica,sans-Serif" font-size="10.00">::print_summary_info</text>
</a>
</g>
</g>
<!-- Node2&#45;&gt;Node15 -->
<g id="edge22_Node000002_Node000015" class="edge">
<title>Node2&#45;&gt;Node15</title>
<g id="a_edge22_Node000002_Node000015"><a xlink:title=" ">
<path fill="none" stroke="#63b8ff" d="M1244.02,-207.38C1124.55,-229.39 906.72,-269.51 793.02,-290.46"/>
<polygon fill="#63b8ff" stroke="#63b8ff" points="1244.66,-210.82 1253.86,-205.57 1243.39,-203.94 1244.66,-210.82"/>
</a>
</g>
</g>
<!-- Node4 -->
<g id="Node000004" class="node">
<title>Node4</title>
<g id="a_Node000004"><a xlink:href="group__MainCalculation.html#ga69523c18f35fc5a0d58d64495c230cea" target="_top" xlink:title="Process entire directory of high&#45;level calculations.">
<polygon fill="white" stroke="#666666" points="579,-223 430,-223 430,-193 579,-193 579,-223"/>
<text text-anchor="start" x="438" y="-211" font-family="Helvetica,sans-Serif" font-size="10.00">HighLevelEnergyCalculator</text>
<text text-anchor="middle" x="504.5" y="-200" font-family="Helvetica,sans-Serif" font-size="10.00">::process_directory</text>
</a>
</g>
</g>
<!-- Node3&#45;&gt;Node4 -->
<g id="edge3_Node000003_Node000004" class="edge">
<title>Node3&#45;&gt;Node4</title>
<g id="a_edge3_Node000003_Node000004"><a xlink:title=" ">
<path fill="none" stroke="#63b8ff" d="M882.61,-147.46C860.65,-157.6 832.39,-169.26 806,-176 730.13,-195.37 640.59,-203.03 579.1,-206.05"/>
<polygon fill="#63b8ff" stroke="#63b8ff" points="884.36,-150.51 891.92,-143.08 881.38,-144.17 884.36,-150.51"/>
</a>
</g>
</g>
<!-- Node9 -->
<g id="Node000009" class="node">
<title>Node9</title>
<g id="a_Node000009"><a xlink:href="group__MainCalculation.html#gab8dc66d665a45b29b6b0d1c1cc4e2208" target="_top" xlink:title="Process files with custom resource limits.">
<polygon fill="white" stroke="#666666" points="579,-67 430,-67 430,-37 579,-37 579,-67"/>
<text text-anchor="start" x="438" y="-55" font-family="Helvetica,sans-Serif" font-size="10.00">HighLevelEnergyCalculator</text>
<text text-anchor="middle" x="504.5" y="-44" font-family="Helvetica,sans-Serif" font-size="10.00">::process_files_with_limits</text>
</a>
</g>
</g>
<!-- Node3&#45;&gt;Node9 -->
<g id="edge11_Node000003_Node000009" class="edge">
<title>Node3&#45;&gt;Node9</title>
<g id="a_edge11_Node000003_Node000009"><a xlink:title=" ">
<path fill="none" stroke="#63b8ff" d="M882.64,-108.4C860.7,-98.22 832.44,-86.56 806,-80 730.1,-61.15 640.56,-54.77 579.09,-52.71"/>
<polygon fill="#63b8ff" stroke="#63b8ff" points="881.41,-111.69 891.95,-112.8 884.41,-105.36 881.41,-111.69"/>
</a>
</g>
</g>
<!-- Node10 -->
<g id="Node000010" class="node">
<title>Node10</title>
<g id="a_Node000010"><a xlink:href="group__ParallelProcessing.html#ga30ddb3084923fb944336f5c6cf7f43e8" target="_top" xlink:title="Enhanced parallel processing using thread pool.">
<polygon fill="white" stroke="#666666" points="806,-167 631,-167 631,-137 806,-137 806,-167"/>
<text text-anchor="start" x="639" y="-155" font-family="Helvetica,sans-Serif" font-size="10.00">HighLevelEnergyCalculator</text>
<text text-anchor="middle" x="718.5" y="-144" font-family="Helvetica,sans-Serif" font-size="10.00">::process_files_with_thread_pool</text>
</a>
</g>
</g>
<!-- Node3&#45;&gt;Node10 -->
<g id="edge12_Node000003_Node000010" class="edge">
<title>Node3&#45;&gt;Node10</title>
<g id="a_edge12_Node000003_Node000010"><a xlink:title=" ">
<path fill="none" stroke="#63b8ff" d="M832,-138.63C823.46,-139.65 814.82,-140.68 806.31,-141.69"/>
<polygon fill="#63b8ff" stroke="#63b8ff" points="832.44,-142.11 841.95,-137.45 831.61,-135.16 832.44,-142.11"/>
</a>
</g>
</g>
<!-- Node12 -->
<g id="Node000012" class="node">
<title>Node12</title>
<g id="a_Node000012"><a xlink:href="group__ParallelProcessing.html#ga2e962d5fa18800edaf087ac6b7f6caf0" target="_top" xlink:title="Worker function for parallel file processing.">
<polygon fill="white" stroke="#666666" points="793,-119 644,-119 644,-89 793,-89 793,-119"/>
<text text-anchor="start" x="652" y="-107" font-family="Helvetica,sans-Serif" font-size="10.00">HighLevelEnergyCalculator</text>
<text text-anchor="middle" x="718.5" y="-96" font-family="Helvetica,sans-Serif" font-size="10.00">::process_files_worker</text>
</a>
</g>
</g>
<!-- Node3&#45;&gt;Node12 -->
<g id="edge17_Node000003_Node000012" class="edge">
<title>Node3&#45;&gt;Node12</title>
<g id="a_edge17_Node000003_Node000012"><a xlink:title=" ">
<path fill="none" stroke="#63b8ff" d="M831.67,-117.33C818.76,-115.79 805.6,-114.23 793.05,-112.74"/>
<polygon fill="#63b8ff" stroke="#63b8ff" points="831.61,-120.84 841.95,-118.55 832.44,-113.89 831.61,-120.84"/>
</a>
</g>
</g>
<!-- Node13 -->
<g id="Node000013" class="node">
<title>Node13</title>
<g id="a_Node000013"><a xlink:href="group__ParallelProcessing.html#gac2f3665873e2399cfcf6dcc6557291d6" target="_top" xlink:title="Process single file with enhanced error handling.">
<polygon fill="white" stroke="#666666" points="802,-33 635,-33 635,-3 802,-3 802,-33"/>
<text text-anchor="start" x="643" y="-21" font-family="Helvetica,sans-Serif" font-size="10.00">HighLevelEnergyCalculator</text>
<text text-anchor="middle" x="718.5" y="-10" font-family="Helvetica,sans-Serif" font-size="10.00">::process_single_file_enhanced</text>
</a>
</g>
</g>
<!-- Node3&#45;&gt;Node13 -->
<g id="edge19_Node000003_Node000013" class="edge">
<title>Node3&#45;&gt;Node13</title>
<g id="a_edge19_Node000003_Node000013"><a xlink:title=" ">
<path fill="none" stroke="#63b8ff" d="M895.29,-106.3C872.75,-88.47 838.76,-63.54 806,-47 795.54,-41.72 783.9,-37.07 772.63,-33.12"/>
<polygon fill="#63b8ff" stroke="#63b8ff" points="893.36,-109.24 903.35,-112.76 897.73,-103.77 893.36,-109.24"/>
</a>
</g>
</g>
<!-- Node5 -->
<g id="Node000005" class="node">
<title>Node5</title>
<g id="a_Node000005"><a xlink:href="group__ModuleExecutors.html#gab1aa2594a8bb3d2789d37593f69cbc5e" target="_top" xlink:title=" ">
<polygon fill="white" stroke="#666666" points="358.5,-199 248.5,-199 248.5,-169 358.5,-169 358.5,-199"/>
<text text-anchor="start" x="256.5" y="-187" font-family="Helvetica,sans-Serif" font-size="10.00">execute_high_level</text>
<text text-anchor="middle" x="303.5" y="-176" font-family="Helvetica,sans-Serif" font-size="10.00">_au_command</text>
</a>
</g>
</g>
<!-- Node4&#45;&gt;Node5 -->
<g id="edge4_Node000004_Node000005" class="edge">
<title>Node4&#45;&gt;Node5</title>
<g id="a_edge4_Node000004_Node000005"><a xlink:title=" ">
<path fill="none" stroke="#63b8ff" d="M419.91,-197.92C399.23,-195.43 377.62,-192.82 358.76,-190.54"/>
<polygon fill="#63b8ff" stroke="#63b8ff" points="419.62,-201.41 429.97,-199.13 420.46,-194.46 419.62,-201.41"/>
</a>
</g>
</g>
<!-- Node8 -->
<g id="Node000008" class="node">
<title>Node8</title>
<g id="a_Node000008"><a xlink:href="group__ModuleExecutors.html#gaefd8d559f7f798aaf8cb5f6feb9dce47" target="_top" xlink:title=" ">
<polygon fill="white" stroke="#666666" points="358.5,-254 248.5,-254 248.5,-224 358.5,-224 358.5,-254"/>
<text text-anchor="start" x="256.5" y="-242" font-family="Helvetica,sans-Serif" font-size="10.00">execute_high_level</text>
<text text-anchor="middle" x="303.5" y="-231" font-family="Helvetica,sans-Serif" font-size="10.00">_kj_command</text>
</a>
</g>
</g>
<!-- Node4&#45;&gt;Node8 -->
<g id="edge8_Node000004_Node000008" class="edge">
<title>Node4&#45;&gt;Node8</title>
<g id="a_edge8_Node000004_Node000008"><a xlink:title=" ">
<path fill="none" stroke="#63b8ff" d="M419.91,-221.02C399.23,-224.24 377.62,-227.61 358.76,-230.55"/>
<polygon fill="#63b8ff" stroke="#63b8ff" points="420.62,-224.45 429.97,-219.46 419.55,-217.54 420.62,-224.45"/>
</a>
</g>
</g>
<!-- Node6 -->
<g id="Node000006" class="node">
<title>Node6</title>
<g id="a_Node000006"><a xlink:href="main_8cpp.html#a0ddf1224851353fc92bfbff6f499fa97" target="_top" xlink:title="Main entry point for the Gaussian Extractor application.">
<polygon fill="white" stroke="#666666" points="41,-217.5 0,-217.5 0,-198.5 41,-198.5 41,-217.5"/>
<text text-anchor="middle" x="20.5" y="-205.5" font-family="Helvetica,sans-Serif" font-size="10.00">main</text>
</a>
</g>
</g>
<!-- Node5&#45;&gt;Node6 -->
<g id="edge5_Node000005_Node000006" class="edge">
<title>Node5&#45;&gt;Node6</title>
<g id="a_edge5_Node000005_Node000006"><a xlink:title=" ">
<path fill="none" stroke="#63b8ff" d="M238.31,-180.85C192.92,-179.8 130.83,-180.75 77,-190 64.82,-192.09 51.64,-196.28 41.19,-200.09"/>
<polygon fill="#63b8ff" stroke="#63b8ff" points="238.22,-184.35 248.31,-181.12 238.41,-177.35 238.22,-184.35"/>
</a>
</g>
</g>
<!-- Node7 -->
<g id="Node000007" class="node">
<title>Node7</title>
<g id="a_Node000007"><a xlink:href="interactive__mode_8cpp.html#a6b615c34054150d837dc45ed1c17b297" target="_top" xlink:title="Enhanced interactive command loop with TAB completion for Windows.">
<polygon fill="white" stroke="#666666" points="193,-217.5 77,-217.5 77,-198.5 193,-198.5 193,-217.5"/>
<text text-anchor="middle" x="135" y="-205.5" font-family="Helvetica,sans-Serif" font-size="10.00">run_interactive_loop</text>
</a>
</g>
</g>
<!-- Node5&#45;&gt;Node7 -->
<g id="edge6_Node000005_Node000007" class="edge">
<title>Node5&#45;&gt;Node7</title>
<g id="a_edge6_Node000005_Node000007"><a xlink:title=" ">
<path fill="none" stroke="#63b8ff" d="M238.32,-193.25C223.47,-195.39 207.76,-197.66 193.23,-199.75"/>
<polygon fill="#63b8ff" stroke="#63b8ff" points="239.04,-196.68 248.44,-191.79 238.05,-189.75 239.04,-196.68"/>
</a>
</g>
</g>
<!-- Node7&#45;&gt;Node6 -->
<g id="edge7_Node000007_Node000006" class="edge">
<title>Node7&#45;&gt;Node6</title>
<g id="a_edge7_Node000007_Node000006"><a xlink:title=" ">
<path fill="none" stroke="#63b8ff" d="M66.62,-208C57.37,-208 48.55,-208 41.19,-208"/>
<polygon fill="#63b8ff" stroke="#63b8ff" points="66.76,-211.5 76.76,-208 66.76,-204.5 66.76,-211.5"/>
</a>
</g>
</g>
<!-- Node8&#45;&gt;Node6 -->
<g id="edge9_Node000008_Node000006" class="edge">
<title>Node8&#45;&gt;Node6</title>
<g id="a_edge9_Node000008_Node000006"><a xlink:title=" ">
<path fill="none" stroke="#63b8ff" d="M238.22,-240.27C192.79,-240.04 130.67,-237.41 77,-227 64.8,-224.64 51.63,-220.21 41.17,-216.22"/>
<polygon fill="#63b8ff" stroke="#63b8ff" points="238.22,-243.77 248.23,-240.29 238.23,-236.77 238.22,-243.77"/>
</a>
</g>
</g>
<!-- Node8&#45;&gt;Node7 -->
<g id="edge10_Node000008_Node000007" class="edge">
<title>Node8&#45;&gt;Node7</title>
<g id="a_edge10_Node000008_Node000007"><a xlink:title=" ">
<path fill="none" stroke="#63b8ff" d="M238.59,-227.1C221.6,-223.94 203.46,-220.56 187.24,-217.54"/>
<polygon fill="#63b8ff" stroke="#63b8ff" points="237.97,-230.55 248.44,-228.94 239.25,-223.66 237.97,-230.55"/>
</a>
</g>
</g>
<!-- Node10&#45;&gt;Node9 -->
<g id="edge16_Node000010_Node000009" class="edge">
<title>Node10&#45;&gt;Node9</title>
<g id="a_edge16_Node000010_Node000009"><a xlink:title=" ">
<path fill="none" stroke="#63b8ff" d="M637.59,-132.23C635.31,-130.91 633.11,-129.5 631,-128 608.09,-111.71 617.98,-92.19 595,-76 590.13,-72.57 584.8,-69.63 579.25,-67.12"/>
<polygon fill="#63b8ff" stroke="#63b8ff" points="636.16,-135.43 646.65,-136.89 639.36,-129.21 636.16,-135.43"/>
</a>
</g>
</g>
<!-- Node11 -->
<g id="Node000011" class="node">
<title>Node11</title>
<g id="a_Node000011"><a xlink:href="group__MainCalculation.html#gac76ff006f7aae2e96c804a8ca786d692" target="_top" xlink:title="Process entire directory with parallel processing.">
<polygon fill="white" stroke="#666666" points="580,-175 429,-175 429,-145 580,-145 580,-175"/>
<text text-anchor="start" x="437" y="-163" font-family="Helvetica,sans-Serif" font-size="10.00">HighLevelEnergyCalculator</text>
<text text-anchor="middle" x="504.5" y="-152" font-family="Helvetica,sans-Serif" font-size="10.00">::process_directory_parallel</text>
</a>
</g>
</g>
<!-- Node10&#45;&gt;Node11 -->
<g id="edge13_Node000010_Node000011" class="edge">
<title>Node10&#45;&gt;Node11</title>
<g id="a_edge13_Node000010_Node000011"><a xlink:title=" ">
<path fill="none" stroke="#63b8ff" d="M620.64,-155.66C607.07,-156.17 593.29,-156.69 580.22,-157.18"/>
<polygon fill="#63b8ff" stroke="#63b8ff" points="621.1,-159.14 630.97,-155.27 620.84,-152.15 621.1,-159.14"/>
</a>
</g>
</g>
<!-- Node11&#45;&gt;Node5 -->
<g id="edge14_Node000011_Node000005" class="edge">
<title>Node11&#45;&gt;Node5</title>
<g id="a_edge14_Node000011_Node000005"><a xlink:title=" ">
<path fill="none" stroke="#63b8ff" d="M418.64,-170.23C398.35,-172.68 377.24,-175.23 358.76,-177.46"/>
<polygon fill="#63b8ff" stroke="#63b8ff" points="419.32,-173.68 428.83,-169 418.49,-166.73 419.32,-173.68"/>
</a>
</g>
</g>
<!-- Node11&#45;&gt;Node8 -->
<g id="edge15_Node000011_Node000008" class="edge">
<title>Node11&#45;&gt;Node8</title>
<g id="a_edge15_Node000011_Node000008"><a xlink:title=" ">
<path fill="none" stroke="#63b8ff" d="M427.81,-178.39C423.08,-180.12 418.44,-181.99 414,-184 396.48,-191.93 394.93,-198.89 378,-208 367.27,-213.77 355.23,-219.24 344.05,-223.93"/>
<polygon fill="#63b8ff" stroke="#63b8ff" points="429.3,-181.58 437.62,-175.01 427.03,-174.96 429.3,-181.58"/>
</a>
</g>
</g>
<!-- Node12&#45;&gt;Node9 -->
<g id="edge18_Node000012_Node000009" class="edge">
<title>Node12&#45;&gt;Node9</title>
<g id="a_edge18_Node000012_Node000009"><a xlink:title=" ">
<path fill="none" stroke="#63b8ff" d="M646.44,-86.57C620.58,-80.23 591.61,-73.12 566.68,-67.01"/>
<polygon fill="#63b8ff" stroke="#63b8ff" points="645.63,-89.98 656.18,-88.96 647.3,-83.18 645.63,-89.98"/>
</a>
</g>
</g>
<!-- Node14&#45;&gt;Node3 -->
<g id="edge21_Node000014_Node000003" class="edge">
<title>Node14&#45;&gt;Node3</title>
<g id="a_edge21_Node000014_Node000003"><a xlink:title=" ">
<path fill="none" stroke="#63b8ff" d="M1028.8,-138.84C1020.16,-137.95 1011.48,-137.06 1003.03,-136.19"/>
<polygon fill="#63b8ff" stroke="#63b8ff" points="1028.61,-142.34 1038.91,-139.88 1029.32,-135.38 1028.61,-142.34"/>
</a>
</g>
</g>
<!-- Node16 -->
<g id="Node000016" class="node">
<title>Node16</title>
<g id="a_Node000016"><a xlink:href="group__OutputFunctions.html#ga3578194a0e7fcca0bb3b023afa33bdec" target="_top" xlink:title="Print results in CSV format with detailed energy components.">
<polygon fill="white" stroke="#666666" points="589.5,-271 419.5,-271 419.5,-241 589.5,-241 589.5,-271"/>
<text text-anchor="start" x="427.5" y="-259" font-family="Helvetica,sans-Serif" font-size="10.00">HighLevelEnergyCalculator</text>
<text text-anchor="middle" x="504.5" y="-248" font-family="Helvetica,sans-Serif" font-size="10.00">::print_components_csv_format</text>
</a>
</g>
</g>
<!-- Node15&#45;&gt;Node16 -->
<g id="edge23_Node000015_Node000016" class="edge">
<title>Node15&#45;&gt;Node16</title>
<g id="a_edge23_Node000015_Node000016"><a xlink:title=" ">
<path fill="none" stroke="#63b8ff" d="M641.08,-286.7C618.39,-281.56 593.74,-275.98 571.76,-271"/>
<polygon fill="#63b8ff" stroke="#63b8ff" points="640.48,-290.15 651,-288.94 642.02,-283.32 640.48,-290.15"/>
</a>
</g>
</g>
<!-- Node17 -->
<g id="Node000017" class="node">
<title>Node17</title>
<g id="a_Node000017"><a xlink:href="group__DynamicOutputFormatting.html#ga3a4bf6a916d8b341fff654d3f1da54c9" target="_top" xlink:title="Print results in components format with dynamic column widths.">
<polygon fill="white" stroke="#666666" points="579,-126.5 430,-126.5 430,-85.5 579,-85.5 579,-126.5"/>
<text text-anchor="start" x="438" y="-114.5" font-family="Helvetica,sans-Serif" font-size="10.00">HighLevelEnergyCalculator</text>
<text text-anchor="start" x="438" y="-103.5" font-family="Helvetica,sans-Serif" font-size="10.00">::print_components_format</text>
<text text-anchor="middle" x="504.5" y="-92.5" font-family="Helvetica,sans-Serif" font-size="10.00">_dynamic</text>
</a>
</g>
</g>
<!-- Node15&#45;&gt;Node17 -->
<g id="edge25_Node000015_Node000017" class="edge">
<title>Node15&#45;&gt;Node17</title>
<g id="a_edge25_Node000015_Node000017"><a xlink:title=" ">
<path fill="none" stroke="#63b8ff" d="M701.54,-280.48C671.67,-236.73 609.07,-146.3 595,-136 590.11,-132.42 584.76,-129.24 579.19,-126.44"/>
<polygon fill="#63b8ff" stroke="#63b8ff" points="698.69,-282.53 707.22,-288.82 704.48,-278.59 698.69,-282.53"/>
</a>
</g>
</g>
<!-- Node19 -->
<g id="Node000019" class="node">
<title>Node19</title>
<g id="a_Node000019"><a xlink:href="group__DynamicOutputFormatting.html#ga932472faa109e17046c43975dfb053fb" target="_top" xlink:title="Print results in components format with static column widths.">
<polygon fill="white" stroke="#666666" points="595,-319 414,-319 414,-289 595,-289 595,-319"/>
<text text-anchor="start" x="422" y="-307" font-family="Helvetica,sans-Serif" font-size="10.00">HighLevelEnergyCalculator</text>
<text text-anchor="middle" x="504.5" y="-296" font-family="Helvetica,sans-Serif" font-size="10.00">::print_components_format_static</text>
</a>
</g>
</g>
<!-- Node15&#45;&gt;Node19 -->
<g id="edge28_Node000015_Node000019" class="edge">
<title>Node15&#45;&gt;Node19</title>
<g id="a_edge28_Node000015_Node000019"><a xlink:title=" ">
<path fill="none" stroke="#63b8ff" d="M633.91,-304C621.25,-304 608.15,-304 595.37,-304"/>
<polygon fill="#63b8ff" stroke="#63b8ff" points="633.95,-307.5 643.95,-304 633.95,-300.5 633.95,-307.5"/>
</a>
</g>
</g>
<!-- Node20 -->
<g id="Node000020" class="node">
<title>Node20</title>
<g id="a_Node000020"><a xlink:href="group__OutputFunctions.html#gacb8b3c91ca4914d5c3bca035e3843ac2" target="_top" xlink:title="Print results in CSV format optimized for Gibbs energies.">
<polygon fill="white" stroke="#666666" points="579,-415 430,-415 430,-385 579,-385 579,-415"/>
<text text-anchor="start" x="438" y="-403" font-family="Helvetica,sans-Serif" font-size="10.00">HighLevelEnergyCalculator</text>
<text text-anchor="middle" x="504.5" y="-392" font-family="Helvetica,sans-Serif" font-size="10.00">::print_gibbs_csv_format</text>
</a>
</g>
</g>
<!-- Node15&#45;&gt;Node20 -->
<g id="edge29_Node000015_Node000020" class="edge">
<title>Node15&#45;&gt;Node20</title>
<g id="a_edge29_Node000015_Node000020"><a xlink:title=" ">
<path fill="none" stroke="#63b8ff" d="M687.52,-324.73C663.42,-340.6 628.23,-362.08 595,-376 587.14,-379.29 578.69,-382.25 570.25,-384.87"/>
<polygon fill="#63b8ff" stroke="#63b8ff" points="689.49,-327.62 695.87,-319.16 685.61,-321.8 689.49,-327.62"/>
</a>
</g>
</g>
<!-- Node21 -->
<g id="Node000021" class="node">
<title>Node21</title>
<g id="a_Node000021"><a xlink:href="group__DynamicOutputFormatting.html#ga1b6138e25512b7d0efdca762f53d8c00" target="_top" xlink:title="Print results in Gibbs format with dynamic column widths.">
<polygon fill="white" stroke="#666666" points="585.5,-463 423.5,-463 423.5,-433 585.5,-433 585.5,-463"/>
<text text-anchor="start" x="431.5" y="-451" font-family="Helvetica,sans-Serif" font-size="10.00">HighLevelEnergyCalculator</text>
<text text-anchor="middle" x="504.5" y="-440" font-family="Helvetica,sans-Serif" font-size="10.00">::print_gibbs_format_dynamic</text>
</a>
</g>
</g>
<!-- Node15&#45;&gt;Node21 -->
<g id="edge31_Node000015_Node000021" class="edge">
<title>Node15&#45;&gt;Node21</title>
<g id="a_edge31_Node000015_Node000021"><a xlink:title=" ">
<path fill="none" stroke="#63b8ff" d="M700.06,-327.21C678.39,-354.42 638.87,-398.97 595,-424 588.99,-427.43 582.48,-430.38 575.8,-432.92"/>
<polygon fill="#63b8ff" stroke="#63b8ff" points="703.05,-329.07 706.45,-319.03 697.54,-324.75 703.05,-329.07"/>
</a>
</g>
</g>
<!-- Node23 -->
<g id="Node000023" class="node">
<title>Node23</title>
<g id="a_Node000023"><a xlink:href="group__DynamicOutputFormatting.html#ga3a3430c4a259752ea6a75b60cbad38cf" target="_top" xlink:title="Print results in Gibbs format with static column widths.">
<polygon fill="white" stroke="#666666" points="579,-367 430,-367 430,-337 579,-337 579,-367"/>
<text text-anchor="start" x="438" y="-355" font-family="Helvetica,sans-Serif" font-size="10.00">HighLevelEnergyCalculator</text>
<text text-anchor="middle" x="504.5" y="-344" font-family="Helvetica,sans-Serif" font-size="10.00">::print_gibbs_format_static</text>
</a>
</g>
</g>
<!-- Node15&#45;&gt;Node23 -->
<g id="edge34_Node000015_Node000023" class="edge">
<title>Node15&#45;&gt;Node23</title>
<g id="a_edge34_Node000015_Node000023"><a xlink:title=" ">
<path fill="none" stroke="#63b8ff" d="M641.08,-321.3C618.39,-326.44 593.74,-332.02 571.76,-337"/>
<polygon fill="#63b8ff" stroke="#63b8ff" points="642.02,-324.68 651,-319.06 640.48,-317.85 642.02,-324.68"/>
</a>
</g>
</g>
<!-- Node16&#45;&gt;Node5 -->
<g id="edge24_Node000016_Node000005" class="edge">
<title>Node16&#45;&gt;Node5</title>
<g id="a_edge24_Node000016_Node000005"><a xlink:title=" ">
<path fill="none" stroke="#63b8ff" d="M431.85,-238.02C425.77,-236.12 419.75,-234.11 414,-232 397.39,-225.91 394.16,-222.22 378,-215 366.11,-209.69 353.05,-204.1 341.27,-199.15"/>
<polygon fill="#63b8ff" stroke="#63b8ff" points="430.84,-241.37 441.42,-240.9 432.86,-234.67 430.84,-241.37"/>
</a>
</g>
</g>
<!-- Node17&#45;&gt;Node5 -->
<g id="edge26_Node000017_Node000005" class="edge">
<title>Node17&#45;&gt;Node5</title>
<g id="a_edge26_Node000017_Node000005"><a xlink:title=" ">
<path fill="none" stroke="#63b8ff" d="M429.92,-130.07C424.52,-132.02 419.16,-134.01 414,-136 387.66,-146.16 358.41,-159.07 336.76,-168.95"/>
<polygon fill="#63b8ff" stroke="#63b8ff" points="431.43,-133.25 439.69,-126.61 429.09,-126.65 431.43,-133.25"/>
</a>
</g>
</g>
<!-- Node18 -->
<g id="Node000018" class="node">
<title>Node18</title>
<g id="a_Node000018"><a xlink:href="group__OutputFunctions.html#ga662bddcabe4e2beb2658451fb36e109b" target="_top" xlink:title="Print results with detailed energy component breakdown.">
<polygon fill="white" stroke="#666666" points="378,-121 229,-121 229,-91 378,-91 378,-121"/>
<text text-anchor="start" x="237" y="-109" font-family="Helvetica,sans-Serif" font-size="10.00">HighLevelEnergyCalculator</text>
<text text-anchor="middle" x="303.5" y="-98" font-family="Helvetica,sans-Serif" font-size="10.00">::print_components_format</text>
</a>
</g>
</g>
<!-- Node17&#45;&gt;Node18 -->
<g id="edge27_Node000017_Node000018" class="edge">
<title>Node17&#45;&gt;Node18</title>
<g id="a_edge27_Node000017_Node000018"><a xlink:title=" ">
<path fill="none" stroke="#63b8ff" d="M419.93,-106C406.03,-106 391.7,-106 378.06,-106"/>
<polygon fill="#63b8ff" stroke="#63b8ff" points="419.97,-109.5 429.97,-106 419.97,-102.5 419.97,-109.5"/>
</a>
</g>
</g>
<!-- Node20&#45;&gt;Node8 -->
<g id="edge30_Node000020_Node000008" class="edge">
<title>Node20&#45;&gt;Node8</title>
<g id="a_edge30_Node000020_Node000008"><a xlink:title=" ">
<path fill="none" stroke="#63b8ff" d="M421.67,-380.51C419.03,-379.11 416.46,-377.61 414,-376 365.08,-344 327.94,-282.94 312.44,-254.41"/>
<polygon fill="#63b8ff" stroke="#63b8ff" points="420.38,-383.78 430.92,-384.9 423.38,-377.45 420.38,-383.78"/>
</a>
</g>
</g>
<!-- Node21&#45;&gt;Node8 -->
<g id="edge32_Node000021_Node000008" class="edge">
<title>Node21&#45;&gt;Node8</title>
<g id="a_edge32_Node000021_Node000008"><a xlink:title=" ">
<path fill="none" stroke="#63b8ff" d="M419.67,-427.91C417.72,-426.69 415.82,-425.38 414,-424 353.94,-378.42 320.49,-289.59 309.04,-254.14"/>
<polygon fill="#63b8ff" stroke="#63b8ff" points="418.14,-431.07 428.59,-432.83 421.52,-424.94 418.14,-431.07"/>
</a>
</g>
</g>
<!-- Node22 -->
<g id="Node000022" class="node">
<title>Node22</title>
<g id="a_Node000022"><a xlink:href="group__OutputFunctions.html#ga8bd0bcb08333beae561c2b44df59c8a5" target="_top" xlink:title="Print results in Gibbs free energy focused format.">
<polygon fill="white" stroke="#666666" points="378,-463 229,-463 229,-433 378,-433 378,-463"/>
<text text-anchor="start" x="237" y="-451" font-family="Helvetica,sans-Serif" font-size="10.00">HighLevelEnergyCalculator</text>
<text text-anchor="middle" x="303.5" y="-440" font-family="Helvetica,sans-Serif" font-size="10.00">::print_gibbs_format</text>
</a>
</g>
</g>
<!-- Node21&#45;&gt;Node22 -->
<g id="edge33_Node000021_Node000022" class="edge">
<title>Node21&#45;&gt;Node22</title>
<g id="a_edge33_Node000021_Node000022"><a xlink:title=" ">
<path fill="none" stroke="#63b8ff" d="M413.21,-448C401.53,-448 389.67,-448 378.3,-448"/>
<polygon fill="#63b8ff" stroke="#63b8ff" points="413.42,-451.5 423.42,-448 413.42,-444.5 413.42,-451.5"/>
</a>
</g>
</g>
<!-- Node24&#45;&gt;Node3 -->
<g id="edge37_Node000024_Node000003" class="edge">
<title>Node24&#45;&gt;Node3</title>
<g id="a_edge37_Node000024_Node000003"><a xlink:title=" ">
<path fill="none" stroke="#63b8ff" d="M1243.67,-93.92C1173.03,-101.44 1072.64,-112.13 1003.19,-119.52"/>
<polygon fill="#63b8ff" stroke="#63b8ff" points="1244.3,-97.38 1253.87,-92.84 1243.56,-90.41 1244.3,-97.38"/>
</a>
</g>
</g>
<!-- Node25 -->
<g id="Node000025" class="node">
<title>Node25</title>
<g id="a_Node000025"><a xlink:href="group__ParallelProcessing.html#ga2001f31cb54e79526f06e491ce494d0f" target="_top" xlink:title="Optimized file reading with caching and batching.">
<polygon fill="white" stroke="#666666" points="1203,-78 1054,-78 1054,-48 1203,-48 1203,-78"/>
<text text-anchor="start" x="1062" y="-66" font-family="Helvetica,sans-Serif" font-size="10.00">HighLevelEnergyCalculator</text>
<text text-anchor="middle" x="1128.5" y="-55" font-family="Helvetica,sans-Serif" font-size="10.00">::batch_read_files</text>
</a>
</g>
</g>
<!-- Node24&#45;&gt;Node25 -->
<g id="edge36_Node000024_Node000025" class="edge">
<title>Node24&#45;&gt;Node25</title>
<g id="a_edge36_Node000024_Node000025"><a xlink:title=" ">
<path fill="none" stroke="#63b8ff" d="M1243.61,-75.68C1230.21,-74.19 1216.43,-72.66 1203.29,-71.2"/>
<polygon fill="#63b8ff" stroke="#63b8ff" points="1243.45,-79.18 1253.77,-76.81 1244.22,-72.23 1243.45,-79.18"/>
</a>
</g>
</g>
<!-- Node26 -->
<g id="Node000026" class="node">
<title>Node26</title>
<g id="a_Node000026"><a xlink:href="group__CalculationHelpers.html#ga32a761d03cac358dbe6d17dccf3c3ec3" target="_top" xlink:title="Extract lowest vibrational frequency from parent file.">
<polygon fill="white" stroke="#666666" points="1203,-30 1054,-30 1054,0 1203,0 1203,-30"/>
<text text-anchor="start" x="1062" y="-18" font-family="Helvetica,sans-Serif" font-size="10.00">HighLevelEnergyCalculator</text>
<text text-anchor="middle" x="1128.5" y="-7" font-family="Helvetica,sans-Serif" font-size="10.00">::extract_lowest_frequency</text>
</a>
</g>
</g>
<!-- Node24&#45;&gt;Node26 -->
<g id="edge38_Node000024_Node000026" class="edge">
<title>Node24&#45;&gt;Node26</title>
<g id="a_edge38_Node000024_Node000026"><a xlink:title=" ">
<path fill="none" stroke="#63b8ff" d="M1285.65,-65.88C1265.45,-57.05 1240.72,-46.82 1218,-39 1208.82,-35.84 1198.99,-32.83 1189.34,-30.06"/>
<polygon fill="#63b8ff" stroke="#63b8ff" points="1284.32,-69.12 1294.88,-69.95 1287.14,-62.71 1284.32,-69.12"/>
</a>
</g>
</g>
<!-- Node26&#45;&gt;Node3 -->
<g id="edge39_Node000026_Node000003" class="edge">
<title>Node26&#45;&gt;Node3</title>
<g id="a_edge39_Node000026_Node000003"><a xlink:title=" ">
<path fill="none" stroke="#63b8ff" d="M1051.33,-33.53C1047.1,-35.22 1042.96,-37.04 1039,-39 999.32,-58.69 959.92,-93.05 938.95,-112.82"/>
<polygon fill="#63b8ff" stroke="#63b8ff" points="1052.56,-36.81 1060.72,-30.06 1050.13,-30.24 1052.56,-36.81"/>
</a>
</g>
</g>
<!-- Node28 -->
<g id="Node000028" class="node">
<title>Node28</title>
<g id="a_Node000028"><a xlink:href="group__CalculationHelpers.html#ga94758e5fb907b423285c3b2c2ba8ee97" target="_top" xlink:title="Determine job completion status from log file.">
<polygon fill="white" stroke="#666666" points="1203,-288 1054,-288 1054,-258 1203,-258 1203,-288"/>
<text text-anchor="start" x="1062" y="-276" font-family="Helvetica,sans-Serif" font-size="10.00">HighLevelEnergyCalculator</text>
<text text-anchor="middle" x="1128.5" y="-265" font-family="Helvetica,sans-Serif" font-size="10.00">::determine_job_status</text>
</a>
</g>
</g>
<!-- Node27&#45;&gt;Node28 -->
<g id="edge41_Node000027_Node000028" class="edge">
<title>Node27&#45;&gt;Node28</title>
<g id="a_edge41_Node000027_Node000028"><a xlink:title=" ">
<path fill="none" stroke="#63b8ff" d="M1243.61,-263.2C1230.21,-264.35 1216.43,-265.54 1203.29,-266.66"/>
<polygon fill="#63b8ff" stroke="#63b8ff" points="1244.11,-266.67 1253.77,-262.33 1243.51,-259.7 1244.11,-266.67"/>
</a>
</g>
</g>
<!-- Node28&#45;&gt;Node3 -->
<g id="edge42_Node000028_Node000003" class="edge">
<title>Node28&#45;&gt;Node3</title>
<g id="a_edge42_Node000028_Node000003"><a xlink:title=" ">
<path fill="none" stroke="#63b8ff" d="M1097.67,-251.8C1055.94,-222.13 981.13,-168.96 944.66,-143.04"/>
<polygon fill="#63b8ff" stroke="#63b8ff" points="1095.88,-254.82 1106.05,-257.76 1099.93,-249.11 1095.88,-254.82"/>
</a>
</g>
</g>
</g>
</svg>
