<?xml version="1.0" encoding="UTF-8" standalone="no"?>
<!DOCTYPE svg PUBLIC "-//W3C//DTD SVG 1.1//EN"
 "http://www.w3.org/Graphics/SVG/1.1/DTD/svg11.dtd">
<!-- Generated by graphviz version 2.43.0 (0)
 -->
<!-- Title: FileContentCache::clear Pages: 1 -->
<svg width="913pt" height="110pt"
 viewBox="0.00 0.00 913.00 110.00" xmlns="http://www.w3.org/2000/svg" xmlns:xlink="http://www.w3.org/1999/xlink">
<g id="graph0" class="graph" transform="scale(1 1) rotate(0) translate(4 106)">
<title>FileContentCache::clear</title>
<!-- Node1 -->
<g id="Node000001" class="node">
<title>Node1</title>
<g id="a_Node000001"><a xlink:title=" ">
<polygon fill="#999999" stroke="#666666" points="905,-48.5 773,-48.5 773,-29.5 905,-29.5 905,-48.5"/>
<text text-anchor="middle" x="839" y="-36.5" font-family="Helvetica,sans-Serif" font-size="10.00">FileContentCache::clear</text>
</a>
</g>
</g>
<!-- Node2 -->
<g id="Node000002" class="node">
<title>Node2</title>
<g id="a_Node000002"><a xlink:href="group__ParallelProcessing.html#ga30ddb3084923fb944336f5c6cf7f43e8" target="_top" xlink:title="Enhanced parallel processing using thread pool.">
<polygon fill="white" stroke="#666666" points="737,-54 562,-54 562,-24 737,-24 737,-54"/>
<text text-anchor="start" x="570" y="-42" font-family="Helvetica,sans-Serif" font-size="10.00">HighLevelEnergyCalculator</text>
<text text-anchor="middle" x="649.5" y="-31" font-family="Helvetica,sans-Serif" font-size="10.00">::process_files_with_thread_pool</text>
</a>
</g>
</g>
<!-- Node1&#45;&gt;Node2 -->
<g id="edge1_Node000001_Node000002" class="edge">
<title>Node1&#45;&gt;Node2</title>
<g id="a_edge1_Node000001_Node000002"><a xlink:title=" ">
<path fill="none" stroke="#63b8ff" d="M762.81,-39C754.4,-39 745.78,-39 737.23,-39"/>
<polygon fill="#63b8ff" stroke="#63b8ff" points="762.95,-42.5 772.95,-39 762.95,-35.5 762.95,-42.5"/>
</a>
</g>
</g>
<!-- Node3 -->
<g id="Node000003" class="node">
<title>Node3</title>
<g id="a_Node000003"><a xlink:href="group__MainCalculation.html#gac76ff006f7aae2e96c804a8ca786d692" target="_top" xlink:title="Process entire directory with parallel processing.">
<polygon fill="white" stroke="#666666" points="526,-78 375,-78 375,-48 526,-48 526,-78"/>
<text text-anchor="start" x="383" y="-66" font-family="Helvetica,sans-Serif" font-size="10.00">HighLevelEnergyCalculator</text>
<text text-anchor="middle" x="450.5" y="-55" font-family="Helvetica,sans-Serif" font-size="10.00">::process_directory_parallel</text>
</a>
</g>
</g>
<!-- Node2&#45;&gt;Node3 -->
<g id="edge2_Node000002_Node000003" class="edge">
<title>Node2&#45;&gt;Node3</title>
<g id="a_edge2_Node000002_Node000003"><a xlink:title=" ">
<path fill="none" stroke="#63b8ff" d="M551.75,-50.79C543.16,-51.83 534.56,-52.88 526.2,-53.9"/>
<polygon fill="#63b8ff" stroke="#63b8ff" points="552.3,-54.25 561.81,-49.56 551.46,-47.3 552.3,-54.25"/>
</a>
</g>
</g>
<!-- Node8 -->
<g id="Node000008" class="node">
<title>Node8</title>
<g id="a_Node000008"><a xlink:href="group__MainCalculation.html#gab8dc66d665a45b29b6b0d1c1cc4e2208" target="_top" xlink:title="Process files with custom resource limits.">
<polygon fill="white" stroke="#666666" points="525,-30 376,-30 376,0 525,0 525,-30"/>
<text text-anchor="start" x="384" y="-18" font-family="Helvetica,sans-Serif" font-size="10.00">HighLevelEnergyCalculator</text>
<text text-anchor="middle" x="450.5" y="-7" font-family="Helvetica,sans-Serif" font-size="10.00">::process_files_with_limits</text>
</a>
</g>
</g>
<!-- Node2&#45;&gt;Node8 -->
<g id="edge10_Node000002_Node000008" class="edge">
<title>Node2&#45;&gt;Node8</title>
<g id="a_edge10_Node000002_Node000008"><a xlink:title=" ">
<path fill="none" stroke="#63b8ff" d="M551.77,-27.22C542.87,-26.13 533.94,-25.04 525.29,-23.99"/>
<polygon fill="#63b8ff" stroke="#63b8ff" points="551.46,-30.7 561.81,-28.44 552.3,-23.75 551.46,-30.7"/>
</a>
</g>
</g>
<!-- Node4 -->
<g id="Node000004" class="node">
<title>Node4</title>
<g id="a_Node000004"><a xlink:href="group__ModuleExecutors.html#gab1aa2594a8bb3d2789d37593f69cbc5e" target="_top" xlink:title=" ">
<polygon fill="white" stroke="#666666" points="339,-102 229,-102 229,-72 339,-72 339,-102"/>
<text text-anchor="start" x="237" y="-90" font-family="Helvetica,sans-Serif" font-size="10.00">execute_high_level</text>
<text text-anchor="middle" x="284" y="-79" font-family="Helvetica,sans-Serif" font-size="10.00">_au_command</text>
</a>
</g>
</g>
<!-- Node3&#45;&gt;Node4 -->
<g id="edge3_Node000003_Node000004" class="edge">
<title>Node3&#45;&gt;Node4</title>
<g id="a_edge3_Node000003_Node000004"><a xlink:title=" ">
<path fill="none" stroke="#63b8ff" d="M365.02,-75.33C356.22,-76.61 347.45,-77.89 339.12,-79.1"/>
<polygon fill="#63b8ff" stroke="#63b8ff" points="365.56,-78.78 374.95,-73.88 364.55,-71.86 365.56,-78.78"/>
</a>
</g>
</g>
<!-- Node7 -->
<g id="Node000007" class="node">
<title>Node7</title>
<g id="a_Node000007"><a xlink:href="group__ModuleExecutors.html#gaefd8d559f7f798aaf8cb5f6feb9dce47" target="_top" xlink:title=" ">
<polygon fill="white" stroke="#666666" points="339,-54 229,-54 229,-24 339,-24 339,-54"/>
<text text-anchor="start" x="237" y="-42" font-family="Helvetica,sans-Serif" font-size="10.00">execute_high_level</text>
<text text-anchor="middle" x="284" y="-31" font-family="Helvetica,sans-Serif" font-size="10.00">_kj_command</text>
</a>
</g>
</g>
<!-- Node3&#45;&gt;Node7 -->
<g id="edge7_Node000003_Node000007" class="edge">
<title>Node3&#45;&gt;Node7</title>
<g id="a_edge7_Node000003_Node000007"><a xlink:title=" ">
<path fill="none" stroke="#63b8ff" d="M365.02,-50.67C356.22,-49.39 347.45,-48.11 339.12,-46.9"/>
<polygon fill="#63b8ff" stroke="#63b8ff" points="364.55,-54.14 374.95,-52.12 365.56,-47.22 364.55,-54.14"/>
</a>
</g>
</g>
<!-- Node5 -->
<g id="Node000005" class="node">
<title>Node5</title>
<g id="a_Node000005"><a xlink:href="main_8cpp.html#a0ddf1224851353fc92bfbff6f499fa97" target="_top" xlink:title="Main entry point for the Gaussian Extractor application.">
<polygon fill="white" stroke="#666666" points="41,-72.5 0,-72.5 0,-53.5 41,-53.5 41,-72.5"/>
<text text-anchor="middle" x="20.5" y="-60.5" font-family="Helvetica,sans-Serif" font-size="10.00">main</text>
</a>
</g>
</g>
<!-- Node4&#45;&gt;Node5 -->
<g id="edge4_Node000004_Node000005" class="edge">
<title>Node4&#45;&gt;Node5</title>
<g id="a_edge4_Node000004_Node000005"><a xlink:title=" ">
<path fill="none" stroke="#63b8ff" d="M218.66,-90.45C177.78,-91.41 123.91,-90.39 77,-82 64.77,-79.81 51.59,-75.39 41.15,-71.37"/>
<polygon fill="#63b8ff" stroke="#63b8ff" points="218.87,-93.94 228.77,-90.16 218.67,-86.94 218.87,-93.94"/>
</a>
</g>
</g>
<!-- Node6 -->
<g id="Node000006" class="node">
<title>Node6</title>
<g id="a_Node000006"><a xlink:href="interactive__mode_8cpp.html#a6b615c34054150d837dc45ed1c17b297" target="_top" xlink:title="Enhanced interactive command loop with TAB completion for Windows.">
<polygon fill="white" stroke="#666666" points="193,-72.5 77,-72.5 77,-53.5 193,-53.5 193,-72.5"/>
<text text-anchor="middle" x="135" y="-60.5" font-family="Helvetica,sans-Serif" font-size="10.00">run_interactive_loop</text>
</a>
</g>
</g>
<!-- Node4&#45;&gt;Node6 -->
<g id="edge5_Node000004_Node000006" class="edge">
<title>Node4&#45;&gt;Node6</title>
<g id="a_edge5_Node000004_Node000006"><a xlink:title=" ">
<path fill="none" stroke="#63b8ff" d="M218.75,-76.51C210.19,-75.11 201.47,-73.69 193.05,-72.31"/>
<polygon fill="#63b8ff" stroke="#63b8ff" points="218.25,-79.97 228.68,-78.13 219.37,-73.07 218.25,-79.97"/>
</a>
</g>
</g>
<!-- Node6&#45;&gt;Node5 -->
<g id="edge6_Node000006_Node000005" class="edge">
<title>Node6&#45;&gt;Node5</title>
<g id="a_edge6_Node000006_Node000005"><a xlink:title=" ">
<path fill="none" stroke="#63b8ff" d="M66.62,-63C57.37,-63 48.55,-63 41.19,-63"/>
<polygon fill="#63b8ff" stroke="#63b8ff" points="66.76,-66.5 76.76,-63 66.76,-59.5 66.76,-66.5"/>
</a>
</g>
</g>
<!-- Node7&#45;&gt;Node5 -->
<g id="edge8_Node000007_Node000005" class="edge">
<title>Node7&#45;&gt;Node5</title>
<g id="a_edge8_Node000007_Node000005"><a xlink:title=" ">
<path fill="none" stroke="#63b8ff" d="M218.66,-35.55C177.78,-34.59 123.91,-35.61 77,-44 64.77,-46.19 51.59,-50.61 41.15,-54.63"/>
<polygon fill="#63b8ff" stroke="#63b8ff" points="218.67,-39.06 228.77,-35.84 218.87,-32.06 218.67,-39.06"/>
</a>
</g>
</g>
<!-- Node7&#45;&gt;Node6 -->
<g id="edge9_Node000007_Node000006" class="edge">
<title>Node7&#45;&gt;Node6</title>
<g id="a_edge9_Node000007_Node000006"><a xlink:title=" ">
<path fill="none" stroke="#63b8ff" d="M218.75,-49.49C210.19,-50.89 201.47,-52.31 193.05,-53.69"/>
<polygon fill="#63b8ff" stroke="#63b8ff" points="219.37,-52.93 228.68,-47.87 218.25,-46.03 219.37,-52.93"/>
</a>
</g>
</g>
</g>
</svg>
