<?xml version="1.0" encoding="UTF-8" standalone="no"?>
<!DOCTYPE svg PUBLIC "-//W3C//DTD SVG 1.1//EN"
 "http://www.w3.org/Graphics/SVG/1.1/DTD/svg11.dtd">
<!-- Generated by graphviz version 2.43.0 (0)
 -->
<!-- Title: ParameterParser::parseLine Pages: 1 -->
<svg width="947pt" height="89pt"
 viewBox="0.00 0.00 947.00 89.00" xmlns="http://www.w3.org/2000/svg" xmlns:xlink="http://www.w3.org/1999/xlink">
<g id="graph0" class="graph" transform="scale(1 1) rotate(0) translate(4 85)">
<title>ParameterParser::parseLine</title>
<!-- Node1 -->
<g id="Node000001" class="node">
<title>Node1</title>
<g id="a_Node000001"><a xlink:title="Parse a line from the parameter file.">
<polygon fill="#999999" stroke="#666666" points="939,-59 789,-59 789,-40 939,-40 939,-59"/>
<text text-anchor="middle" x="864" y="-47" font-family="Helvetica,sans-Serif" font-size="10.00">ParameterParser::parseLine</text>
</a>
</g>
</g>
<!-- Node2 -->
<g id="Node000002" class="node">
<title>Node2</title>
<g id="a_Node000002"><a xlink:href="classParameterParser.html#aaea513c087ec06939e4f34b94895bbe8" target="_top" xlink:title="Load parameters from a file.">
<polygon fill="white" stroke="#666666" points="753,-59 587,-59 587,-40 753,-40 753,-59"/>
<text text-anchor="middle" x="670" y="-47" font-family="Helvetica,sans-Serif" font-size="10.00">ParameterParser::loadFromFile</text>
</a>
</g>
</g>
<!-- Node1&#45;&gt;Node2 -->
<g id="edge1_Node000001_Node000002" class="edge">
<title>Node1&#45;&gt;Node2</title>
<g id="a_edge1_Node000001_Node000002"><a xlink:title=" ">
<path fill="none" stroke="#63b8ff" d="M778.51,-49.5C770.04,-49.5 761.45,-49.5 753.01,-49.5"/>
<polygon fill="#63b8ff" stroke="#63b8ff" points="778.77,-53 788.77,-49.5 778.77,-46 778.77,-53"/>
</a>
</g>
</g>
<!-- Node3 -->
<g id="Node000003" class="node">
<title>Node3</title>
<g id="a_Node000003"><a xlink:href="classCreateInput.html#a9aec2e755c1ba4029399926925221f73" target="_top" xlink:title="Load parameters from a parameter file.">
<polygon fill="white" stroke="#666666" points="551,-81 395,-81 395,-62 551,-62 551,-81"/>
<text text-anchor="middle" x="473" y="-69" font-family="Helvetica,sans-Serif" font-size="10.00">CreateInput::loadParameters</text>
</a>
</g>
</g>
<!-- Node2&#45;&gt;Node3 -->
<g id="edge2_Node000002_Node000003" class="edge">
<title>Node2&#45;&gt;Node3</title>
<g id="a_edge2_Node000002_Node000003"><a xlink:title=" ">
<path fill="none" stroke="#63b8ff" d="M576.8,-59.9C568.18,-60.87 559.52,-61.85 551.06,-62.81"/>
<polygon fill="#63b8ff" stroke="#63b8ff" points="577.32,-63.37 586.87,-58.77 576.54,-56.41 577.32,-63.37"/>
</a>
</g>
</g>
<!-- Node4 -->
<g id="Node000004" class="node">
<title>Node4</title>
<g id="a_Node000004"><a xlink:href="group__CommandExecutors.html#ga6dd4acb8cb239efc2daf9ad5c4b2afd4" target="_top" xlink:title="Parse options specific to create_input command.">
<polygon fill="white" stroke="#666666" points="538,-43.5 408,-43.5 408,-13.5 538,-13.5 538,-43.5"/>
<text text-anchor="start" x="416" y="-31.5" font-family="Helvetica,sans-Serif" font-size="10.00">CommandParser::parse</text>
<text text-anchor="middle" x="473" y="-20.5" font-family="Helvetica,sans-Serif" font-size="10.00">_create_input_options</text>
</a>
</g>
</g>
<!-- Node2&#45;&gt;Node4 -->
<g id="edge3_Node000002_Node000004" class="edge">
<title>Node2&#45;&gt;Node4</title>
<g id="a_edge3_Node000002_Node000004"><a xlink:title=" ">
<path fill="none" stroke="#63b8ff" d="M576.92,-39.58C563.85,-38.18 550.65,-36.75 538.27,-35.42"/>
<polygon fill="#63b8ff" stroke="#63b8ff" points="576.55,-43.06 586.87,-40.65 577.3,-36.1 576.55,-43.06"/>
</a>
</g>
</g>
<!-- Node5 -->
<g id="Node000005" class="node">
<title>Node5</title>
<g id="a_Node000005"><a xlink:href="group__CommandExecutors.html#ga2c1ceafe241a0b4e19790bb5d878ed1a" target="_top" xlink:title="Parse command&#45;line arguments and create execution context.">
<polygon fill="white" stroke="#666666" points="359,-38 229,-38 229,-19 359,-19 359,-38"/>
<text text-anchor="middle" x="294" y="-26" font-family="Helvetica,sans-Serif" font-size="10.00">CommandParser::parse</text>
</a>
</g>
</g>
<!-- Node4&#45;&gt;Node5 -->
<g id="edge4_Node000004_Node000005" class="edge">
<title>Node4&#45;&gt;Node5</title>
<g id="a_edge4_Node000004_Node000005"><a xlink:title=" ">
<path fill="none" stroke="#63b8ff" d="M397.7,-28.5C384.92,-28.5 371.72,-28.5 359.23,-28.5"/>
<polygon fill="#63b8ff" stroke="#63b8ff" points="397.85,-32 407.85,-28.5 397.85,-25 397.85,-32"/>
</a>
</g>
</g>
<!-- Node6 -->
<g id="Node000006" class="node">
<title>Node6</title>
<g id="a_Node000006"><a xlink:href="main_8cpp.html#a0ddf1224851353fc92bfbff6f499fa97" target="_top" xlink:title="Main entry point for the Gaussian Extractor application.">
<polygon fill="white" stroke="#666666" points="41,-38 0,-38 0,-19 41,-19 41,-38"/>
<text text-anchor="middle" x="20.5" y="-26" font-family="Helvetica,sans-Serif" font-size="10.00">main</text>
</a>
</g>
</g>
<!-- Node5&#45;&gt;Node6 -->
<g id="edge5_Node000005_Node000006" class="edge">
<title>Node5&#45;&gt;Node6</title>
<g id="a_edge5_Node000005_Node000006"><a xlink:title=" ">
<path fill="none" stroke="#63b8ff" d="M218.42,-28.5C158.19,-28.5 77.65,-28.5 41.06,-28.5"/>
<polygon fill="#63b8ff" stroke="#63b8ff" points="218.66,-32 228.66,-28.5 218.66,-25 218.66,-32"/>
</a>
</g>
</g>
<!-- Node7 -->
<g id="Node000007" class="node">
<title>Node7</title>
<g id="a_Node000007"><a xlink:href="interactive__mode_8cpp.html#a6b615c34054150d837dc45ed1c17b297" target="_top" xlink:title="Enhanced interactive command loop with TAB completion for Windows.">
<polygon fill="white" stroke="#666666" points="193,-19 77,-19 77,0 193,0 193,-19"/>
<text text-anchor="middle" x="135" y="-7" font-family="Helvetica,sans-Serif" font-size="10.00">run_interactive_loop</text>
</a>
</g>
</g>
<!-- Node5&#45;&gt;Node7 -->
<g id="edge6_Node000005_Node000007" class="edge">
<title>Node5&#45;&gt;Node7</title>
<g id="a_edge6_Node000005_Node000007"><a xlink:title=" ">
<path fill="none" stroke="#63b8ff" d="M218.75,-19.51C210.24,-18.48 201.66,-17.45 193.41,-16.45"/>
<polygon fill="#63b8ff" stroke="#63b8ff" points="218.34,-22.99 228.69,-20.72 219.18,-16.04 218.34,-22.99"/>
</a>
</g>
</g>
<!-- Node7&#45;&gt;Node6 -->
<g id="edge7_Node000007_Node000006" class="edge">
<title>Node7&#45;&gt;Node6</title>
<g id="a_edge7_Node000007_Node000006"><a xlink:title=" ">
<path fill="none" stroke="#63b8ff" d="M67.4,-20.75C57.88,-22.36 48.77,-23.89 41.22,-25.17"/>
<polygon fill="#63b8ff" stroke="#63b8ff" points="68.14,-24.17 77.42,-19.06 66.98,-17.27 68.14,-24.17"/>
</a>
</g>
</g>
</g>
</svg>
