<?xml version="1.0" encoding="UTF-8" standalone="no"?>
<!DOCTYPE svg PUBLIC "-//W3C//DTD SVG 1.1//EN"
 "http://www.w3.org/Graphics/SVG/1.1/DTD/svg11.dtd">
<!-- Generated by graphviz version 2.43.0 (0)
 -->
<!-- Title: ParameterParser::createTemplateContent Pages: 1 -->
<svg width="1130pt" height="186pt"
 viewBox="0.00 0.00 1130.00 185.55" xmlns="http://www.w3.org/2000/svg" xmlns:xlink="http://www.w3.org/1999/xlink">
<g id="graph0" class="graph" transform="scale(1 1) rotate(0) translate(4 181.55)">
<title>ParameterParser::createTemplateContent</title>
<!-- Node1 -->
<g id="Node000001" class="node">
<title>Node1</title>
<g id="a_Node000001"><a xlink:title="Create template content for a specific calculation type.">
<polygon fill="#999999" stroke="#666666" points="1122,-116.62 943,-116.62 943,-86.62 1122,-86.62 1122,-116.62"/>
<text text-anchor="start" x="951" y="-104.62" font-family="Helvetica,sans-Serif" font-size="10.00">ParameterParser::createTemplate</text>
<text text-anchor="middle" x="1032.5" y="-93.62" font-family="Helvetica,sans-Serif" font-size="10.00">Content</text>
</a>
</g>
</g>
<!-- Node2 -->
<g id="Node000002" class="node">
<title>Node2</title>
<g id="a_Node000002"><a xlink:href="classParameterParser.html#a48693f28a48ad94f4ab08d47ffe198e3" target="_top" xlink:title="Generate a template parameter file for a specific calculation type.">
<polygon fill="white" stroke="#666666" points="907,-116.62 761,-116.62 761,-86.62 907,-86.62 907,-116.62"/>
<text text-anchor="start" x="769" y="-104.62" font-family="Helvetica,sans-Serif" font-size="10.00">ParameterParser::generate</text>
<text text-anchor="middle" x="834" y="-93.62" font-family="Helvetica,sans-Serif" font-size="10.00">Template</text>
</a>
</g>
</g>
<!-- Node1&#45;&gt;Node2 -->
<g id="edge1_Node000001_Node000002" class="edge">
<title>Node1&#45;&gt;Node2</title>
<g id="a_edge1_Node000001_Node000002"><a xlink:title=" ">
<path fill="none" stroke="#63b8ff" d="M932.67,-101.62C924.08,-101.62 915.5,-101.62 907.18,-101.62"/>
<polygon fill="#63b8ff" stroke="#63b8ff" points="932.74,-105.12 942.74,-101.62 932.74,-98.12 932.74,-105.12"/>
</a>
</g>
</g>
<!-- Node3 -->
<g id="Node000003" class="node">
<title>Node3</title>
<g id="a_Node000003"><a xlink:href="group__CommandExecutors.html#gac2af8ce80af7cf8a9918558eba909c72" target="_top" xlink:title="Find or create a default parameter file for create_input.">
<polygon fill="white" stroke="#666666" points="725,-116.62 561,-116.62 561,-86.62 725,-86.62 725,-116.62"/>
<text text-anchor="start" x="569" y="-104.62" font-family="Helvetica,sans-Serif" font-size="10.00">CommandParser::find</text>
<text text-anchor="middle" x="643" y="-93.62" font-family="Helvetica,sans-Serif" font-size="10.00">_or_create_default_param_file</text>
</a>
</g>
</g>
<!-- Node2&#45;&gt;Node3 -->
<g id="edge2_Node000002_Node000003" class="edge">
<title>Node2&#45;&gt;Node3</title>
<g id="a_edge2_Node000002_Node000003"><a xlink:title=" ">
<path fill="none" stroke="#63b8ff" d="M750.52,-101.62C742.07,-101.62 733.49,-101.62 725.05,-101.62"/>
<polygon fill="#63b8ff" stroke="#63b8ff" points="750.74,-105.12 760.74,-101.62 750.74,-98.12 750.74,-105.12"/>
</a>
</g>
</g>
<!-- Node4 -->
<g id="Node000004" class="node">
<title>Node4</title>
<g id="a_Node000004"><a xlink:href="group__CommandExecutors.html#ga6dd4acb8cb239efc2daf9ad5c4b2afd4" target="_top" xlink:title="Parse options specific to create_input command.">
<polygon fill="white" stroke="#666666" points="525,-144.62 395,-144.62 395,-114.62 525,-114.62 525,-144.62"/>
<text text-anchor="start" x="403" y="-132.62" font-family="Helvetica,sans-Serif" font-size="10.00">CommandParser::parse</text>
<text text-anchor="middle" x="460" y="-121.62" font-family="Helvetica,sans-Serif" font-size="10.00">_create_input_options</text>
</a>
</g>
</g>
<!-- Node2&#45;&gt;Node4 -->
<g id="edge13_Node000002_Node000004" class="edge">
<title>Node2&#45;&gt;Node4</title>
<g id="a_edge13_Node000002_Node000004"><a xlink:title=" ">
<path fill="none" stroke="#63b8ff" d="M765.57,-118.82C752.21,-121.6 738.23,-124.07 725,-125.62 657.17,-133.59 578.86,-133.64 525.26,-132.28"/>
<polygon fill="#63b8ff" stroke="#63b8ff" points="766.6,-122.17 775.64,-116.64 765.13,-115.33 766.6,-122.17"/>
</a>
</g>
</g>
<!-- Node5 -->
<g id="Node000005" class="node">
<title>Node5</title>
<g id="a_Node000005"><a xlink:href="group__CommandExecutors.html#ga2c1ceafe241a0b4e19790bb5d878ed1a" target="_top" xlink:title="Parse command&#45;line arguments and create execution context.">
<polygon fill="white" stroke="#666666" points="359,-96.12 229,-96.12 229,-77.12 359,-77.12 359,-96.12"/>
<text text-anchor="middle" x="294" y="-84.12" font-family="Helvetica,sans-Serif" font-size="10.00">CommandParser::parse</text>
</a>
</g>
</g>
<!-- Node2&#45;&gt;Node5 -->
<g id="edge12_Node000002_Node000005" class="edge">
<title>Node2&#45;&gt;Node5</title>
<g id="a_edge12_Node000002_Node000005"><a xlink:title=" ">
<path fill="none" stroke="#63b8ff" d="M792.79,-120.81C772.86,-129.39 748.16,-138.67 725,-143.62 581.5,-174.27 535.39,-196.3 395,-153.62 357.61,-142.25 321.49,-111.74 304.73,-96.12"/>
<polygon fill="#63b8ff" stroke="#63b8ff" points="794.42,-123.92 802.16,-116.68 791.6,-117.51 794.42,-123.92"/>
</a>
</g>
</g>
<!-- Node7 -->
<g id="Node000007" class="node">
<title>Node7</title>
<g id="a_Node000007"><a xlink:href="interactive__mode_8cpp.html#a6b615c34054150d837dc45ed1c17b297" target="_top" xlink:title="Enhanced interactive command loop with TAB completion for Windows.">
<polygon fill="white" stroke="#666666" points="193,-58.12 77,-58.12 77,-39.12 193,-39.12 193,-58.12"/>
<text text-anchor="middle" x="135" y="-46.12" font-family="Helvetica,sans-Serif" font-size="10.00">run_interactive_loop</text>
</a>
</g>
</g>
<!-- Node2&#45;&gt;Node7 -->
<g id="edge14_Node000002_Node000007" class="edge">
<title>Node2&#45;&gt;Node7</title>
<g id="a_edge14_Node000002_Node000007"><a xlink:title=" ">
<path fill="none" stroke="#63b8ff" d="M809.46,-79.88C788.9,-62.48 757.37,-39.42 725,-29.62 525.24,30.86 269.83,-17.12 174.31,-39.1"/>
<polygon fill="#63b8ff" stroke="#63b8ff" points="807.19,-82.55 817.04,-86.46 811.78,-77.26 807.19,-82.55"/>
</a>
</g>
</g>
<!-- Node8 -->
<g id="Node000008" class="node">
<title>Node8</title>
<g id="a_Node000008"><a xlink:href="classParameterParser.html#aca59f8ca90258cef1ac78c0c671c7080" target="_top" xlink:title="Generate template files for all supported calculation types.">
<polygon fill="white" stroke="#666666" points="716,-68.62 570,-68.62 570,-38.62 716,-38.62 716,-68.62"/>
<text text-anchor="start" x="578" y="-56.62" font-family="Helvetica,sans-Serif" font-size="10.00">ParameterParser::generate</text>
<text text-anchor="middle" x="643" y="-45.62" font-family="Helvetica,sans-Serif" font-size="10.00">AllTemplates</text>
</a>
</g>
</g>
<!-- Node2&#45;&gt;Node8 -->
<g id="edge8_Node000002_Node000008" class="edge">
<title>Node2&#45;&gt;Node8</title>
<g id="a_edge8_Node000002_Node000008"><a xlink:title=" ">
<path fill="none" stroke="#63b8ff" d="M763.78,-84.04C743.86,-78.98 722.32,-73.51 703.07,-68.62"/>
<polygon fill="#63b8ff" stroke="#63b8ff" points="763.16,-87.5 773.72,-86.56 764.89,-80.71 763.16,-87.5"/>
</a>
</g>
</g>
<!-- Node3&#45;&gt;Node4 -->
<g id="edge3_Node000003_Node000004" class="edge">
<title>Node3&#45;&gt;Node4</title>
<g id="a_edge3_Node000003_Node000004"><a xlink:title=" ">
<path fill="none" stroke="#63b8ff" d="M550.66,-115.75C542.04,-117.08 533.44,-118.42 525.15,-119.7"/>
<polygon fill="#63b8ff" stroke="#63b8ff" points="551.42,-119.18 560.77,-114.19 550.35,-112.26 551.42,-119.18"/>
</a>
</g>
</g>
<!-- Node4&#45;&gt;Node5 -->
<g id="edge4_Node000004_Node000005" class="edge">
<title>Node4&#45;&gt;Node5</title>
<g id="a_edge4_Node000004_Node000005"><a xlink:title=" ">
<path fill="none" stroke="#63b8ff" d="M391.95,-112.04C371.31,-106.63 349.35,-100.87 331.56,-96.21"/>
<polygon fill="#63b8ff" stroke="#63b8ff" points="391.08,-115.43 401.64,-114.58 392.86,-108.66 391.08,-115.43"/>
</a>
</g>
</g>
<!-- Node6 -->
<g id="Node000006" class="node">
<title>Node6</title>
<g id="a_Node000006"><a xlink:href="main_8cpp.html#a0ddf1224851353fc92bfbff6f499fa97" target="_top" xlink:title="Main entry point for the Gaussian Extractor application.">
<polygon fill="white" stroke="#666666" points="41,-77.12 0,-77.12 0,-58.12 41,-58.12 41,-77.12"/>
<text text-anchor="middle" x="20.5" y="-65.12" font-family="Helvetica,sans-Serif" font-size="10.00">main</text>
</a>
</g>
</g>
<!-- Node5&#45;&gt;Node6 -->
<g id="edge5_Node000005_Node000006" class="edge">
<title>Node5&#45;&gt;Node6</title>
<g id="a_edge5_Node000005_Node000006"><a xlink:title=" ">
<path fill="none" stroke="#63b8ff" d="M218.42,-81.4C158.19,-77.19 77.65,-71.55 41.06,-68.99"/>
<polygon fill="#63b8ff" stroke="#63b8ff" points="218.44,-84.91 228.66,-82.12 218.93,-77.93 218.44,-84.91"/>
</a>
</g>
</g>
<!-- Node5&#45;&gt;Node7 -->
<g id="edge6_Node000005_Node000007" class="edge">
<title>Node5&#45;&gt;Node7</title>
<g id="a_edge6_Node000005_Node000007"><a xlink:title=" ">
<path fill="none" stroke="#63b8ff" d="M243.55,-74.65C221.55,-69.33 196.01,-63.14 175.33,-58.14"/>
<polygon fill="#63b8ff" stroke="#63b8ff" points="242.84,-78.08 253.38,-77.03 244.49,-71.28 242.84,-78.08"/>
</a>
</g>
</g>
<!-- Node7&#45;&gt;Node6 -->
<g id="edge7_Node000007_Node000006" class="edge">
<title>Node7&#45;&gt;Node6</title>
<g id="a_edge7_Node000007_Node000006"><a xlink:title=" ">
<path fill="none" stroke="#63b8ff" d="M67.4,-59.87C57.88,-61.48 48.77,-63.01 41.22,-64.29"/>
<polygon fill="#63b8ff" stroke="#63b8ff" points="68.14,-63.29 77.42,-58.18 66.98,-56.39 68.14,-63.29"/>
</a>
</g>
</g>
<!-- Node8&#45;&gt;Node4 -->
<g id="edge10_Node000008_Node000004" class="edge">
<title>Node8&#45;&gt;Node4</title>
<g id="a_edge10_Node000008_Node000004"><a xlink:title=" ">
<path fill="none" stroke="#63b8ff" d="M574.31,-72.1C569.75,-73.83 565.28,-75.67 561,-77.62 543.73,-85.51 541.69,-91.57 525,-100.62 515.99,-105.51 506.01,-110.31 496.65,-114.55"/>
<polygon fill="#63b8ff" stroke="#63b8ff" points="575.51,-75.39 583.75,-68.72 573.15,-68.8 575.51,-75.39"/>
</a>
</g>
</g>
<!-- Node8&#45;&gt;Node5 -->
<g id="edge9_Node000008_Node000005" class="edge">
<title>Node8&#45;&gt;Node5</title>
<g id="a_edge9_Node000008_Node000005"><a xlink:title=" ">
<path fill="none" stroke="#63b8ff" d="M559.63,-61.45C498.22,-67.29 415.55,-75.16 359.05,-80.53"/>
<polygon fill="#63b8ff" stroke="#63b8ff" points="560.06,-64.93 569.68,-60.5 559.39,-57.96 560.06,-64.93"/>
</a>
</g>
</g>
<!-- Node8&#45;&gt;Node7 -->
<g id="edge11_Node000008_Node000007" class="edge">
<title>Node8&#45;&gt;Node7</title>
<g id="a_edge11_Node000008_Node000007"><a xlink:title=" ">
<path fill="none" stroke="#63b8ff" d="M559.72,-52.81C456.65,-51.79 282.74,-50.07 193.15,-49.19"/>
<polygon fill="#63b8ff" stroke="#63b8ff" points="559.74,-56.31 569.77,-52.91 559.81,-49.31 559.74,-56.31"/>
</a>
</g>
</g>
</g>
</svg>
