<?xml version="1.0" encoding="UTF-8" standalone="no"?>
<!DOCTYPE svg PUBLIC "-//W3C//DTD SVG 1.1//EN"
 "http://www.w3.org/Graphics/SVG/1.1/DTD/svg11.dtd">
<!-- Generated by graphviz version 2.43.0 (0)
 -->
<!-- Title: CreateInput::loadParameters Pages: 1 -->
<!--zoomable 150 -->

<svg id="main" version="1.1" xmlns="http://www.w3.org/2000/svg" xmlns:xlink="http://www.w3.org/1999/xlink" xml:space="preserve" onload="init(evt)">
<style type="text/css"><![CDATA[
.node, .edge {opacity: 0.7;}
.node.selected, .edge.selected {opacity: 1;}
.edge:hover path { stroke: red; }
.edge:hover polygon { stroke: red; fill: red; }
]]></style>

<defs>
  <circle id="rim" cx="0" cy="0" r="7"/>
  <circle id="rim2" cx="0" cy="0" r="3.5"/>
  <g id="zoomPlus">
    <use xlink:href="#rim" fill="#404040"><set attributeName="fill" to="#808080" begin="zoomplus.mouseover" end="zoomplus.mouseout"/></use>
    <path d="M-4,0h8M0,-4v8" fill="none" stroke="white" stroke-width="1.5" pointer-events="none"/>
  </g>
  <g id="zoomMin">
    <use xlink:href="#rim" fill="#404040"><set attributeName="fill" to="#808080" begin="zoomminus.mouseover" end="zoomminus.mouseout"/></use>
    <path d="M-4,0h8" fill="none" stroke="white" stroke-width="1.5" pointer-events="none"/>
  </g>
  <g id="arrowUp" transform="translate(30 24)">
    <use xlink:href="#rim"/>
    <path pointer-events="none" fill="none" stroke="white" stroke-width="1.5" d="M0,-3.0v7 M-2.5,-0.5L0,-3.0L2.5,-0.5"/>
  </g>
  <g id="arrowRight" transform="rotate(90) translate(36 -43)">
    <use xlink:href="#rim"/>
    <path pointer-events="none" fill="none" stroke="white" stroke-width="1.5" d="M0,-3.0v7 M-2.5,-0.5L0,-3.0L2.5,-0.5"/>
  </g>
  <g id="arrowDown" transform="rotate(180) translate(-30 -48)">
    <use xlink:href="#rim"/>
    <path pointer-events="none" fill="none" stroke="white" stroke-width="1.5" d="M0,-3.0v7 M-2.5,-0.5L0,-3.0L2.5,-0.5"/>
  </g>
  <g id="arrowLeft" transform="rotate(270) translate(-36 17)">
    <use xlink:href="#rim"/>
    <path pointer-events="none" fill="none" stroke="white" stroke-width="1.5" d="M0,-3.0v7 M-2.5,-0.5L0,-3.0L2.5,-0.5"/>
  </g>
  <g id="resetDef">
    <use xlink:href="#rim2" fill="#404040"><set attributeName="fill" to="#808080" begin="reset.mouseover" end="reset.mouseout"/></use>
  </g>
</defs>
<script type="application/ecmascript">
var viewWidth = 716;
var viewHeight = 150;
var sectionId = 'dynsection-14';
</script>
<script type="application/ecmascript" xlink:href="svg.min.js"/>
<svg id="graph" class="graph">
<g id="viewport">
<title>CreateInput::loadParameters</title>
<!-- Node1 -->
<g id="Node000001" class="node">
<title>Node1</title>
<g id="a_Node000001"><a xlink:title="Load parameters from a parameter file.">
<polygon fill="#999999" stroke="#666666" points="156,-85.5 0,-85.5 0,-66.5 156,-66.5 156,-85.5"/>
<text text-anchor="middle" x="78" y="-73.5" font-family="Helvetica,sans-Serif" font-size="10.00">CreateInput::loadParameters</text>
</a>
</g>
</g>
<!-- Node2 -->
<g id="Node000002" class="node">
<title>Node2</title>
<g id="a_Node000002"><a xlink:href="classParameterParser.html#a812dd34c065e32babf7d98cae0157ddc" target="_top" xlink:title="Get a parameter value as integer.">
<polygon fill="white" stroke="#666666" points="340.5,-141.5 209.5,-141.5 209.5,-122.5 340.5,-122.5 340.5,-141.5"/>
<text text-anchor="middle" x="275" y="-129.5" font-family="Helvetica,sans-Serif" font-size="10.00">ParameterParser::getInt</text>
</a>
</g>
</g>
<!-- Node1&#45;&gt;Node2 -->
<g id="edge1_Node000001_Node000002" class="edge">
<title>Node1&#45;&gt;Node2</title>
<g id="a_edge1_Node000001_Node000002"><a xlink:title=" ">
<path fill="none" stroke="#63b8ff" d="M104.78,-85.56C127.53,-93.78 161.68,-105.6 192,-114 199.89,-116.19 208.26,-118.28 216.53,-120.21"/>
<polygon fill="#63b8ff" stroke="#63b8ff" points="215.99,-123.68 226.52,-122.49 217.55,-116.86 215.99,-123.68"/>
</a>
</g>
</g>
<!-- Node3 -->
<g id="Node000003" class="node">
<title>Node3</title>
<g id="a_Node000003"><a xlink:href="classParameterParser.html#a7dcab5148f496bf123040027118a1cd8" target="_top" xlink:title="Get a parameter value as string.">
<polygon fill="white" stroke="#666666" points="348.5,-104.5 201.5,-104.5 201.5,-85.5 348.5,-85.5 348.5,-104.5"/>
<text text-anchor="middle" x="275" y="-92.5" font-family="Helvetica,sans-Serif" font-size="10.00">ParameterParser::getString</text>
</a>
</g>
</g>
<!-- Node1&#45;&gt;Node3 -->
<g id="edge2_Node000001_Node000003" class="edge">
<title>Node1&#45;&gt;Node3</title>
<g id="a_edge2_Node000001_Node000003"><a xlink:title=" ">
<path fill="none" stroke="#63b8ff" d="M156.07,-83.51C167.6,-84.63 179.52,-85.79 191.16,-86.93"/>
<polygon fill="#63b8ff" stroke="#63b8ff" points="191.01,-90.43 201.3,-87.92 191.69,-83.46 191.01,-90.43"/>
</a>
</g>
</g>
<!-- Node4 -->
<g id="Node000004" class="node">
<title>Node4</title>
<g id="a_Node000004"><a xlink:href="classParameterParser.html#aaea513c087ec06939e4f34b94895bbe8" target="_top" xlink:title="Load parameters from a file.">
<polygon fill="white" stroke="#666666" points="358,-67.5 192,-67.5 192,-48.5 358,-48.5 358,-67.5"/>
<text text-anchor="middle" x="275" y="-55.5" font-family="Helvetica,sans-Serif" font-size="10.00">ParameterParser::loadFromFile</text>
</a>
</g>
</g>
<!-- Node1&#45;&gt;Node4 -->
<g id="edge3_Node000001_Node000004" class="edge">
<title>Node1&#45;&gt;Node4</title>
<g id="a_edge3_Node000001_Node000004"><a xlink:title=" ">
<path fill="none" stroke="#63b8ff" d="M156.07,-68.89C164.49,-68.11 173.12,-67.31 181.69,-66.52"/>
<polygon fill="#63b8ff" stroke="#63b8ff" points="182.08,-70 191.72,-65.6 181.44,-63.03 182.08,-70"/>
</a>
</g>
</g>
<!-- Node8 -->
<g id="Node000008" class="node">
<title>Node8</title>
<g id="a_Node000008"><a xlink:href="classCreateInput.html#a21f7d35599d7f5b9b02f32e6a513bd7c" target="_top" xlink:title="Parse freeze atoms string into vector of atom indices.">
<polygon fill="white" stroke="#666666" points="344.5,-30 205.5,-30 205.5,0 344.5,0 344.5,-30"/>
<text text-anchor="start" x="213.5" y="-18" font-family="Helvetica,sans-Serif" font-size="10.00">CreateInput::parseFreeze</text>
<text text-anchor="middle" x="275" y="-7" font-family="Helvetica,sans-Serif" font-size="10.00">AtomsString</text>
</a>
</g>
</g>
<!-- Node1&#45;&gt;Node8 -->
<g id="edge9_Node000001_Node000008" class="edge">
<title>Node1&#45;&gt;Node8</title>
<g id="a_edge9_Node000001_Node000008"><a xlink:title=" ">
<path fill="none" stroke="#63b8ff" d="M107.25,-66.48C130.06,-58.85 163.02,-47.98 192,-39 198.38,-37.02 205.05,-35 211.71,-33.01"/>
<polygon fill="#63b8ff" stroke="#63b8ff" points="212.84,-36.32 221.43,-30.12 210.85,-29.61 212.84,-36.32"/>
</a>
</g>
</g>
<!-- Node5 -->
<g id="Node000005" class="node">
<title>Node5</title>
<g id="a_Node000005"><a xlink:href="classParameterParser.html#ac85db5fadcadc7b6edc915d15dfba8f8" target="_top" xlink:title="Parse a line from the parameter file.">
<polygon fill="white" stroke="#666666" points="546.5,-105.5 396.5,-105.5 396.5,-86.5 546.5,-86.5 546.5,-105.5"/>
<text text-anchor="middle" x="471.5" y="-93.5" font-family="Helvetica,sans-Serif" font-size="10.00">ParameterParser::parseLine</text>
</a>
</g>
</g>
<!-- Node4&#45;&gt;Node5 -->
<g id="edge4_Node000004_Node000005" class="edge">
<title>Node4&#45;&gt;Node5</title>
<g id="a_edge4_Node000004_Node000005"><a xlink:title=" ">
<path fill="none" stroke="#63b8ff" d="M324.83,-67.54C351.19,-72.69 383.92,-79.08 411.67,-84.51"/>
<polygon fill="#63b8ff" stroke="#63b8ff" points="411.16,-87.97 421.65,-86.46 412.51,-81.1 411.16,-87.97"/>
</a>
</g>
</g>
<!-- Node6 -->
<g id="Node000006" class="node">
<title>Node6</title>
<g id="a_Node000006"><a xlink:href="classParameterParser.html#a8c06b2d410e65e0dd2347fa92c99f640" target="_top" xlink:title="Trim whitespace from string.">
<polygon fill="white" stroke="#666666" points="708,-67.5 585,-67.5 585,-48.5 708,-48.5 708,-67.5"/>
<text text-anchor="middle" x="646.5" y="-55.5" font-family="Helvetica,sans-Serif" font-size="10.00">ParameterParser::trim</text>
</a>
</g>
</g>
<!-- Node4&#45;&gt;Node6 -->
<g id="edge8_Node000004_Node000006" class="edge">
<title>Node4&#45;&gt;Node6</title>
<g id="a_edge8_Node000004_Node000006"><a xlink:title=" ">
<path fill="none" stroke="#63b8ff" d="M358,-58C423.06,-58 513.03,-58 574.91,-58"/>
<polygon fill="#63b8ff" stroke="#63b8ff" points="574.97,-61.5 584.97,-58 574.97,-54.5 574.97,-61.5"/>
</a>
</g>
</g>
<!-- Node7 -->
<g id="Node000007" class="node">
<title>Node7</title>
<g id="a_Node000007"><a xlink:href="classParameterParser.html#aa9c4b23545a5a5e3990b88b9f38c71d3" target="_top" xlink:title="Handle multi&#45;line parameter values.">
<polygon fill="white" stroke="#666666" points="549,-30 394,-30 394,0 549,0 549,-30"/>
<text text-anchor="start" x="402" y="-18" font-family="Helvetica,sans-Serif" font-size="10.00">ParameterParser::parseMulti</text>
<text text-anchor="middle" x="471.5" y="-7" font-family="Helvetica,sans-Serif" font-size="10.00">LineValue</text>
</a>
</g>
</g>
<!-- Node4&#45;&gt;Node7 -->
<g id="edge6_Node000004_Node000007" class="edge">
<title>Node4&#45;&gt;Node7</title>
<g id="a_edge6_Node000004_Node000007"><a xlink:title=" ">
<path fill="none" stroke="#63b8ff" d="M319.17,-48.46C340.8,-43.67 367.68,-37.73 392.75,-32.19"/>
<polygon fill="#63b8ff" stroke="#63b8ff" points="393.61,-35.58 402.62,-30.01 392.1,-28.75 393.61,-35.58"/>
</a>
</g>
</g>
<!-- Node5&#45;&gt;Node6 -->
<g id="edge5_Node000005_Node000006" class="edge">
<title>Node5&#45;&gt;Node6</title>
<g id="a_edge5_Node000005_Node000006"><a xlink:title=" ">
<path fill="none" stroke="#63b8ff" d="M516.16,-86.41C539.29,-81.33 567.9,-75.04 592.33,-69.68"/>
<polygon fill="#63b8ff" stroke="#63b8ff" points="593.14,-73.08 602.16,-67.52 591.64,-66.25 593.14,-73.08"/>
</a>
</g>
</g>
<!-- Node7&#45;&gt;Node6 -->
<g id="edge7_Node000007_Node000006" class="edge">
<title>Node7&#45;&gt;Node6</title>
<g id="a_edge7_Node000007_Node000006"><a xlink:title=" ">
<path fill="none" stroke="#63b8ff" d="M533.01,-30.04C554.1,-35.28 577.46,-41.09 597.4,-46.04"/>
<polygon fill="#63b8ff" stroke="#63b8ff" points="596.64,-49.46 607.19,-48.48 598.33,-42.67 596.64,-49.46"/>
</a>
</g>
</g>
</g>
</svg>

<g id="navigator" transform="translate(0 0)" fill="#404254">
  <rect fill="#f2f5e9" fill-opacity="0.5" stroke="#606060" stroke-width=".5" x="0" y="0" width="60" height="60"/>
  <use id="zoomplus" xlink:href="#zoomPlus" x="17" y="9" onmousedown="handleZoom(evt,'in')"/>
  <use id="zoomminus" xlink:href="#zoomMin" x="42" y="9" onmousedown="handleZoom(evt,'out')"/>
  <use id="reset" xlink:href="#resetDef" x="30" y="36" onmousedown="handleReset()"/>
   <use id="arrowup" xlink:href="#arrowUp" x="0" y="0" onmousedown="handlePan(0,-1)"/>
  <use id="arrowright" xlink:href="#arrowRight" x="0" y="0" onmousedown="handlePan(1,0)"/>
  <use id="arrowdown" xlink:href="#arrowDown" x="0" y="0" onmousedown="handlePan(0,1)"/>
  <use id="arrowleft" xlink:href="#arrowLeft" x="0" y="0" onmousedown="handlePan(-1,0)"/>
</g>
<svg viewBox="0 0 15 15" width="100%" height="30px" preserveAspectRatio="xMaxYMin meet">
 <g id="arrow_out" transform="scale(0.3 0.3)">
  <a xlink:href="classCreateInput_a9aec2e755c1ba4029399926925221f73_cgraph_org.svg" target="_base">
   <rect id="button" ry="5" rx="5" y="6" x="6" height="38" width="38"
        fill="#f2f5e9" fill-opacity="0.5" stroke="#606060" stroke-width="1.0"/>
   <path id="arrow"
     d="M 11.500037,31.436501 C 11.940474,20.09759 22.043105,11.32322 32.158766,21.979434 L 37.068811,17.246167 C 37.068811,17.246167 37.088388,32 37.088388,32 L 22.160133,31.978069 C 22.160133,31.978069 26.997745,27.140456 26.997745,27.140456 C 18.528582,18.264221 13.291696,25.230495 11.500037,31.436501 z"
     style="fill:#404040;"/>
  </a>
 </g>
</svg>

<style type='text/css'>
<![CDATA[
[data-mouse-over-selected='false'] { opacity: 0.7; }
[data-mouse-over-selected='true']  { opacity: 1.0; }
]]>
</style>
<script type="application/ecmascript"><![CDATA[
document.addEventListener('DOMContentLoaded', (event) => {
  highlightEdges();
  highlightAdjacentNodes();
});
]]></script>
</svg>
