<?xml version="1.0" encoding="UTF-8" standalone="no"?>
<!DOCTYPE svg PUBLIC "-//W3C//DTD SVG 1.1//EN"
 "http://www.w3.org/Graphics/SVG/1.1/DTD/svg11.dtd">
<!-- Generated by graphviz version 2.43.0 (0)
 -->
<!-- Title: CreateInput::validate_gen_basis_requirements Pages: 1 -->
<svg width="986pt" height="52pt"
 viewBox="0.00 0.00 986.00 51.50" xmlns="http://www.w3.org/2000/svg" xmlns:xlink="http://www.w3.org/1999/xlink">
<g id="graph0" class="graph" transform="scale(1 1) rotate(0) translate(4 47.5)">
<title>CreateInput::validate_gen_basis_requirements</title>
<!-- Node1 -->
<g id="Node000001" class="node">
<title>Node1</title>
<g id="a_Node000001"><a xlink:title="Validates requirements for calculations with GEN/GENECP basis.">
<polygon fill="#999999" stroke="#666666" points="978,-43.5 837,-43.5 837,-13.5 978,-13.5 978,-43.5"/>
<text text-anchor="start" x="845" y="-31.5" font-family="Helvetica,sans-Serif" font-size="10.00">CreateInput::validate</text>
<text text-anchor="middle" x="907.5" y="-20.5" font-family="Helvetica,sans-Serif" font-size="10.00">_gen_basis_requirements</text>
</a>
</g>
</g>
<!-- Node2 -->
<g id="Node000002" class="node">
<title>Node2</title>
<g id="a_Node000002"><a xlink:href="classCreateInput.html#ac3c82149b54ad69fd871f6f51c667131" target="_top" xlink:title="Generate Gaussian input content.">
<polygon fill="white" stroke="#666666" points="801,-43.5 678,-43.5 678,-13.5 801,-13.5 801,-43.5"/>
<text text-anchor="start" x="686" y="-31.5" font-family="Helvetica,sans-Serif" font-size="10.00">CreateInput::generate</text>
<text text-anchor="middle" x="739.5" y="-20.5" font-family="Helvetica,sans-Serif" font-size="10.00">_input_content</text>
</a>
</g>
</g>
<!-- Node1&#45;&gt;Node2 -->
<g id="edge1_Node000001_Node000002" class="edge">
<title>Node1&#45;&gt;Node2</title>
<g id="a_edge1_Node000001_Node000002"><a xlink:title=" ">
<path fill="none" stroke="#63b8ff" d="M826.58,-28.5C818.01,-28.5 809.41,-28.5 801.13,-28.5"/>
<polygon fill="#63b8ff" stroke="#63b8ff" points="826.58,-32 836.58,-28.5 826.58,-25 826.58,-32"/>
</a>
</g>
</g>
<!-- Node3 -->
<g id="Node000003" class="node">
<title>Node3</title>
<g id="a_Node000003"><a xlink:href="classCreateInput.html#a3663dd0959586c29b28748b3134acb77" target="_top" xlink:title="Create input file from single XYZ file.">
<polygon fill="white" stroke="#666666" points="642,-43.5 532,-43.5 532,-13.5 642,-13.5 642,-43.5"/>
<text text-anchor="start" x="540" y="-31.5" font-family="Helvetica,sans-Serif" font-size="10.00">CreateInput::create</text>
<text text-anchor="middle" x="587" y="-20.5" font-family="Helvetica,sans-Serif" font-size="10.00">_from_file</text>
</a>
</g>
</g>
<!-- Node2&#45;&gt;Node3 -->
<g id="edge2_Node000002_Node000003" class="edge">
<title>Node2&#45;&gt;Node3</title>
<g id="a_edge2_Node000002_Node000003"><a xlink:title=" ">
<path fill="none" stroke="#63b8ff" d="M667.72,-28.5C659.15,-28.5 650.5,-28.5 642.21,-28.5"/>
<polygon fill="#63b8ff" stroke="#63b8ff" points="667.72,-32 677.72,-28.5 667.72,-25 667.72,-32"/>
</a>
</g>
</g>
<!-- Node4 -->
<g id="Node000004" class="node">
<title>Node4</title>
<g id="a_Node000004"><a xlink:href="classCreateInput.html#aa08199575835140a2122199e52cde238" target="_top" xlink:title="Main method to create input files from XYZ files.">
<polygon fill="white" stroke="#666666" points="496,-43.5 386,-43.5 386,-13.5 496,-13.5 496,-43.5"/>
<text text-anchor="start" x="394" y="-31.5" font-family="Helvetica,sans-Serif" font-size="10.00">CreateInput::create</text>
<text text-anchor="middle" x="441" y="-20.5" font-family="Helvetica,sans-Serif" font-size="10.00">_inputs</text>
</a>
</g>
</g>
<!-- Node3&#45;&gt;Node4 -->
<g id="edge3_Node000003_Node000004" class="edge">
<title>Node3&#45;&gt;Node4</title>
<g id="a_edge3_Node000003_Node000004"><a xlink:title=" ">
<path fill="none" stroke="#63b8ff" d="M521.73,-28.5C513.25,-28.5 504.62,-28.5 496.33,-28.5"/>
<polygon fill="#63b8ff" stroke="#63b8ff" points="521.97,-32 531.97,-28.5 521.97,-25 521.97,-32"/>
</a>
</g>
</g>
<!-- Node5 -->
<g id="Node000005" class="node">
<title>Node5</title>
<g id="a_Node000005"><a xlink:href="group__ModuleExecutors.html#ga6d8429398cd99549f485628a27b0623a" target="_top" xlink:title=" ">
<polygon fill="white" stroke="#666666" points="350,-43.5 229,-43.5 229,-13.5 350,-13.5 350,-43.5"/>
<text text-anchor="start" x="237" y="-31.5" font-family="Helvetica,sans-Serif" font-size="10.00">execute_create_input</text>
<text text-anchor="middle" x="289.5" y="-20.5" font-family="Helvetica,sans-Serif" font-size="10.00">_command</text>
</a>
</g>
</g>
<!-- Node4&#45;&gt;Node5 -->
<g id="edge4_Node000004_Node000005" class="edge">
<title>Node4&#45;&gt;Node5</title>
<g id="a_edge4_Node000004_Node000005"><a xlink:title=" ">
<path fill="none" stroke="#63b8ff" d="M375.47,-28.5C367.06,-28.5 358.48,-28.5 350.16,-28.5"/>
<polygon fill="#63b8ff" stroke="#63b8ff" points="375.6,-32 385.6,-28.5 375.6,-25 375.6,-32"/>
</a>
</g>
</g>
<!-- Node6 -->
<g id="Node000006" class="node">
<title>Node6</title>
<g id="a_Node000006"><a xlink:href="main_8cpp.html#a0ddf1224851353fc92bfbff6f499fa97" target="_top" xlink:title="Main entry point for the Gaussian Extractor application.">
<polygon fill="white" stroke="#666666" points="41,-38 0,-38 0,-19 41,-19 41,-38"/>
<text text-anchor="middle" x="20.5" y="-26" font-family="Helvetica,sans-Serif" font-size="10.00">main</text>
</a>
</g>
</g>
<!-- Node5&#45;&gt;Node6 -->
<g id="edge5_Node000005_Node000006" class="edge">
<title>Node5&#45;&gt;Node6</title>
<g id="a_edge5_Node000005_Node000006"><a xlink:title=" ">
<path fill="none" stroke="#63b8ff" d="M218.83,-28.5C159.39,-28.5 77.87,-28.5 41.01,-28.5"/>
<polygon fill="#63b8ff" stroke="#63b8ff" points="218.91,-32 228.91,-28.5 218.91,-25 218.91,-32"/>
</a>
</g>
</g>
<!-- Node7 -->
<g id="Node000007" class="node">
<title>Node7</title>
<g id="a_Node000007"><a xlink:href="interactive__mode_8cpp.html#a6b615c34054150d837dc45ed1c17b297" target="_top" xlink:title="Enhanced interactive command loop with TAB completion for Windows.">
<polygon fill="white" stroke="#666666" points="193,-19 77,-19 77,0 193,0 193,-19"/>
<text text-anchor="middle" x="135" y="-7" font-family="Helvetica,sans-Serif" font-size="10.00">run_interactive_loop</text>
</a>
</g>
</g>
<!-- Node5&#45;&gt;Node7 -->
<g id="edge6_Node000005_Node000007" class="edge">
<title>Node5&#45;&gt;Node7</title>
<g id="a_edge6_Node000005_Node000007"><a xlink:title=" ">
<path fill="none" stroke="#63b8ff" d="M218.71,-19.8C210.16,-18.74 201.5,-17.66 193.17,-16.62"/>
<polygon fill="#63b8ff" stroke="#63b8ff" points="218.31,-23.28 228.67,-21.05 219.18,-16.34 218.31,-23.28"/>
</a>
</g>
</g>
<!-- Node7&#45;&gt;Node6 -->
<g id="edge7_Node000007_Node000006" class="edge">
<title>Node7&#45;&gt;Node6</title>
<g id="a_edge7_Node000007_Node000006"><a xlink:title=" ">
<path fill="none" stroke="#63b8ff" d="M67.4,-20.75C57.88,-22.36 48.77,-23.89 41.22,-25.17"/>
<polygon fill="#63b8ff" stroke="#63b8ff" points="68.14,-24.17 77.42,-19.06 66.98,-17.27 68.14,-24.17"/>
</a>
</g>
</g>
</g>
</svg>
