<?xml version="1.0" encoding="UTF-8" standalone="no"?>
<!DOCTYPE svg PUBLIC "-//W3C//DTD SVG 1.1//EN"
 "http://www.w3.org/Graphics/SVG/1.1/DTD/svg11.dtd">
<!-- Generated by graphviz version 2.43.0 (0)
 -->
<!-- Title: ParameterParser::generateAllTemplates Pages: 1 -->
<svg width="573pt" height="182pt"
 viewBox="0.00 0.00 573.00 182.00" xmlns="http://www.w3.org/2000/svg" xmlns:xlink="http://www.w3.org/1999/xlink">
<g id="graph0" class="graph" transform="scale(1 1) rotate(0) translate(4 178)">
<title>ParameterParser::generateAllTemplates</title>
<!-- Node1 -->
<g id="Node000001" class="node">
<title>Node1</title>
<g id="a_Node000001"><a xlink:title="Generate template files for all supported calculation types.">
<polygon fill="#999999" stroke="#666666" points="146,-102 0,-102 0,-72 146,-72 146,-102"/>
<text text-anchor="start" x="8" y="-90" font-family="Helvetica,sans-Serif" font-size="10.00">ParameterParser::generate</text>
<text text-anchor="middle" x="73" y="-79" font-family="Helvetica,sans-Serif" font-size="10.00">AllTemplates</text>
</a>
</g>
</g>
<!-- Node2 -->
<g id="Node000002" class="node">
<title>Node2</title>
<g id="a_Node000002"><a xlink:href="namespaceUtils.html#acba799749eeee8229550094df96d9f0d" target="_top" xlink:title="Generate a unique filename with timestamp suffix if file already exists.">
<polygon fill="white" stroke="#666666" points="329.5,-174 202.5,-174 202.5,-144 329.5,-144 329.5,-174"/>
<text text-anchor="start" x="210.5" y="-162" font-family="Helvetica,sans-Serif" font-size="10.00">Utils::generate_unique</text>
<text text-anchor="middle" x="266" y="-151" font-family="Helvetica,sans-Serif" font-size="10.00">_filename</text>
</a>
</g>
</g>
<!-- Node1&#45;&gt;Node2 -->
<g id="edge1_Node000001_Node000002" class="edge">
<title>Node1&#45;&gt;Node2</title>
<g id="a_edge1_Node000001_Node000002"><a xlink:title=" ">
<path fill="none" stroke="#63b8ff" d="M104.73,-102.01C126.09,-112.1 155.4,-125.29 182,-135 187.51,-137.01 193.27,-138.96 199.07,-140.83"/>
<polygon fill="#63b8ff" stroke="#63b8ff" points="198.27,-144.25 208.85,-143.9 200.36,-137.57 198.27,-144.25"/>
</a>
</g>
</g>
<!-- Node3 -->
<g id="Node000003" class="node">
<title>Node3</title>
<g id="a_Node000003"><a xlink:href="classParameterParser.html#a75a9a5704dd802cbc371e1cc2f3fda6d" target="_top" xlink:title="Generate a general parameter template with all possible parameters.">
<polygon fill="white" stroke="#666666" points="339,-126 193,-126 193,-96 339,-96 339,-126"/>
<text text-anchor="start" x="201" y="-114" font-family="Helvetica,sans-Serif" font-size="10.00">ParameterParser::generate</text>
<text text-anchor="middle" x="266" y="-103" font-family="Helvetica,sans-Serif" font-size="10.00">GeneralTemplate</text>
</a>
</g>
</g>
<!-- Node1&#45;&gt;Node3 -->
<g id="edge2_Node000001_Node000003" class="edge">
<title>Node1&#45;&gt;Node3</title>
<g id="a_edge2_Node000001_Node000003"><a xlink:title=" ">
<path fill="none" stroke="#63b8ff" d="M146.21,-96.07C158.09,-97.57 170.49,-99.12 182.6,-100.65"/>
<polygon fill="#63b8ff" stroke="#63b8ff" points="182.33,-104.14 192.69,-101.91 183.2,-97.19 182.33,-104.14"/>
</a>
</g>
</g>
<!-- Node5 -->
<g id="Node000005" class="node">
<title>Node5</title>
<g id="a_Node000005"><a xlink:href="classParameterParser.html#a48693f28a48ad94f4ab08d47ffe198e3" target="_top" xlink:title="Generate a template parameter file for a specific calculation type.">
<polygon fill="white" stroke="#666666" points="339,-78 193,-78 193,-48 339,-48 339,-78"/>
<text text-anchor="start" x="201" y="-66" font-family="Helvetica,sans-Serif" font-size="10.00">ParameterParser::generate</text>
<text text-anchor="middle" x="266" y="-55" font-family="Helvetica,sans-Serif" font-size="10.00">Template</text>
</a>
</g>
</g>
<!-- Node1&#45;&gt;Node5 -->
<g id="edge4_Node000001_Node000005" class="edge">
<title>Node1&#45;&gt;Node5</title>
<g id="a_edge4_Node000001_Node000005"><a xlink:title=" ">
<path fill="none" stroke="#63b8ff" d="M146.21,-77.93C158.09,-76.43 170.49,-74.88 182.6,-73.35"/>
<polygon fill="#63b8ff" stroke="#63b8ff" points="183.2,-76.81 192.69,-72.09 182.33,-69.86 183.2,-76.81"/>
</a>
</g>
</g>
<!-- Node7 -->
<g id="Node000007" class="node">
<title>Node7</title>
<g id="a_Node000007"><a xlink:href="classParameterParser.html#a33ab445425c60152a9e9d272b60cc8eb" target="_top" xlink:title="Get list of supported calculation types.">
<polygon fill="white" stroke="#666666" points="350,-30 182,-30 182,0 350,0 350,-30"/>
<text text-anchor="start" x="190" y="-18" font-family="Helvetica,sans-Serif" font-size="10.00">ParameterParser::getSupported</text>
<text text-anchor="middle" x="266" y="-7" font-family="Helvetica,sans-Serif" font-size="10.00">CalcTypes</text>
</a>
</g>
</g>
<!-- Node1&#45;&gt;Node7 -->
<g id="edge6_Node000001_Node000007" class="edge">
<title>Node1&#45;&gt;Node7</title>
<g id="a_edge6_Node000001_Node000007"><a xlink:title=" ">
<path fill="none" stroke="#63b8ff" d="M104.73,-71.99C126.09,-61.9 155.4,-48.71 182,-39 187.51,-36.99 193.27,-35.04 199.07,-33.17"/>
<polygon fill="#63b8ff" stroke="#63b8ff" points="200.36,-36.43 208.85,-30.1 198.27,-29.75 200.36,-36.43"/>
</a>
</g>
</g>
<!-- Node4 -->
<g id="Node000004" class="node">
<title>Node4</title>
<g id="a_Node000004"><a xlink:href="classParameterParser.html#ac140a584bc981c09de3281e5bc353f57" target="_top" xlink:title="Create general template content with all possible parameters.">
<polygon fill="white" stroke="#666666" points="561.5,-126 389.5,-126 389.5,-96 561.5,-96 561.5,-126"/>
<text text-anchor="start" x="397.5" y="-114" font-family="Helvetica,sans-Serif" font-size="10.00">ParameterParser::createGeneral</text>
<text text-anchor="middle" x="475.5" y="-103" font-family="Helvetica,sans-Serif" font-size="10.00">TemplateContent</text>
</a>
</g>
</g>
<!-- Node3&#45;&gt;Node4 -->
<g id="edge3_Node000003_Node000004" class="edge">
<title>Node3&#45;&gt;Node4</title>
<g id="a_edge3_Node000003_Node000004"><a xlink:title=" ">
<path fill="none" stroke="#63b8ff" d="M339.28,-111C352.14,-111 365.72,-111 379.11,-111"/>
<polygon fill="#63b8ff" stroke="#63b8ff" points="379.29,-114.5 389.29,-111 379.29,-107.5 379.29,-114.5"/>
</a>
</g>
</g>
<!-- Node6 -->
<g id="Node000006" class="node">
<title>Node6</title>
<g id="a_Node000006"><a xlink:href="classParameterParser.html#aa27eb54dd9e8db004620025757b8a759" target="_top" xlink:title="Create template content for a specific calculation type.">
<polygon fill="white" stroke="#666666" points="565,-78 386,-78 386,-48 565,-48 565,-78"/>
<text text-anchor="start" x="394" y="-66" font-family="Helvetica,sans-Serif" font-size="10.00">ParameterParser::createTemplate</text>
<text text-anchor="middle" x="475.5" y="-55" font-family="Helvetica,sans-Serif" font-size="10.00">Content</text>
</a>
</g>
</g>
<!-- Node5&#45;&gt;Node6 -->
<g id="edge5_Node000005_Node000006" class="edge">
<title>Node5&#45;&gt;Node6</title>
<g id="a_edge5_Node000005_Node000006"><a xlink:title=" ">
<path fill="none" stroke="#63b8ff" d="M339.28,-63C350.98,-63 363.26,-63 375.46,-63"/>
<polygon fill="#63b8ff" stroke="#63b8ff" points="375.67,-66.5 385.67,-63 375.67,-59.5 375.67,-66.5"/>
</a>
</g>
</g>
</g>
</svg>
