<?xml version="1.0" encoding="UTF-8" standalone="no"?>
<!DOCTYPE svg PUBLIC "-//W3C//DTD SVG 1.1//EN"
 "http://www.w3.org/Graphics/SVG/1.1/DTD/svg11.dtd">
<!-- Generated by graphviz version 2.43.0 (0)
 -->
<!-- Title: CoordExtractor::extract_from_file Pages: 1 -->
<svg width="313pt" height="124pt"
 viewBox="0.00 0.00 313.00 123.50" xmlns="http://www.w3.org/2000/svg" xmlns:xlink="http://www.w3.org/1999/xlink">
<g id="graph0" class="graph" transform="scale(1 1) rotate(0) translate(4 119.5)">
<title>CoordExtractor::extract_from_file</title>
<!-- Node1 -->
<g id="Node000001" class="node">
<title>Node1</title>
<g id="a_Node000001"><a xlink:title="Extract coordinates from a single log file.">
<polygon fill="#999999" stroke="#666666" points="130,-67.5 0,-67.5 0,-37.5 130,-37.5 130,-67.5"/>
<text text-anchor="start" x="8" y="-55.5" font-family="Helvetica,sans-Serif" font-size="10.00">CoordExtractor::extract</text>
<text text-anchor="middle" x="65" y="-44.5" font-family="Helvetica,sans-Serif" font-size="10.00">_from_file</text>
</a>
</g>
</g>
<!-- Node2 -->
<g id="Node000002" class="node">
<title>Node2</title>
<g id="a_Node000002"><a xlink:href="classCoordExtractor.html#a7f6b5926c0427bb91796d70a7041f4cb" target="_top" xlink:title="Generate output XYZ filename from log file.">
<polygon fill="white" stroke="#666666" points="305,-115.5 166,-115.5 166,-85.5 305,-85.5 305,-115.5"/>
<text text-anchor="start" x="174" y="-103.5" font-family="Helvetica,sans-Serif" font-size="10.00">CoordExtractor::generate</text>
<text text-anchor="middle" x="235.5" y="-92.5" font-family="Helvetica,sans-Serif" font-size="10.00">_xyz_filename</text>
</a>
</g>
</g>
<!-- Node1&#45;&gt;Node2 -->
<g id="edge1_Node000001_Node000002" class="edge">
<title>Node1&#45;&gt;Node2</title>
<g id="a_edge1_Node000001_Node000002"><a xlink:title=" ">
<path fill="none" stroke="#63b8ff" d="M118.85,-67.56C135.63,-72.34 154.35,-77.67 171.76,-82.63"/>
<polygon fill="#63b8ff" stroke="#63b8ff" points="171.26,-86.12 181.84,-85.5 173.18,-79.39 171.26,-86.12"/>
</a>
</g>
</g>
<!-- Node3 -->
<g id="Node000003" class="node">
<title>Node3</title>
<g id="a_Node000003"><a xlink:href="classCoordExtractor.html#af4a72802846e9550e673b88a22c8c7a9" target="_top" xlink:title="Get element symbol from atomic number.">
<polygon fill="white" stroke="#666666" points="291,-67.5 180,-67.5 180,-37.5 291,-37.5 291,-67.5"/>
<text text-anchor="start" x="188" y="-55.5" font-family="Helvetica,sans-Serif" font-size="10.00">CoordExtractor::get</text>
<text text-anchor="middle" x="235.5" y="-44.5" font-family="Helvetica,sans-Serif" font-size="10.00">_atomic_symbol</text>
</a>
</g>
</g>
<!-- Node1&#45;&gt;Node3 -->
<g id="edge2_Node000001_Node000003" class="edge">
<title>Node1&#45;&gt;Node3</title>
<g id="a_edge2_Node000001_Node000003"><a xlink:title=" ">
<path fill="none" stroke="#63b8ff" d="M130.18,-52.5C143.1,-52.5 156.68,-52.5 169.62,-52.5"/>
<polygon fill="#63b8ff" stroke="#63b8ff" points="169.84,-56 179.84,-52.5 169.84,-49 169.84,-56"/>
</a>
</g>
</g>
<!-- Node4 -->
<g id="Node000004" class="node">
<title>Node4</title>
<g id="a_Node000004"><a xlink:href="namespaceUtils.html#a438037dac8d7b9a6f17c9cdbe4bfd27f" target="_top" xlink:title="Read file content with specified mode.">
<polygon fill="white" stroke="#666666" points="298,-19 173,-19 173,0 298,0 298,-19"/>
<text text-anchor="middle" x="235.5" y="-7" font-family="Helvetica,sans-Serif" font-size="10.00">Utils::read_file_unified</text>
</a>
</g>
</g>
<!-- Node1&#45;&gt;Node4 -->
<g id="edge3_Node000001_Node000004" class="edge">
<title>Node1&#45;&gt;Node4</title>
<g id="a_edge3_Node000001_Node000004"><a xlink:title=" ">
<path fill="none" stroke="#63b8ff" d="M124.93,-37.46C145.38,-32.24 168.02,-26.47 187.39,-21.52"/>
<polygon fill="#63b8ff" stroke="#63b8ff" points="188.36,-24.89 197.19,-19.02 186.63,-18.1 188.36,-24.89"/>
</a>
</g>
</g>
</g>
</svg>
