<?xml version="1.0" encoding="UTF-8" standalone="no"?>
<!DOCTYPE svg PUBLIC "-//W3C//DTD SVG 1.1//EN"
 "http://www.w3.org/Graphics/SVG/1.1/DTD/svg11.dtd">
<!-- Generated by graphviz version 2.43.0 (0)
 -->
<!-- Title: CreateInput::generate_input_content Pages: 1 -->
<svg width="469pt" height="296pt"
 viewBox="0.00 0.00 469.00 296.48" xmlns="http://www.w3.org/2000/svg" xmlns:xlink="http://www.w3.org/1999/xlink">

<svg id="main" version="1.1" xmlns="http://www.w3.org/2000/svg" xmlns:xlink="http://www.w3.org/1999/xlink" xml:space="preserve" onload="init(evt)">
<style type="text/css"><![CDATA[
.node, .edge {opacity: 0.7;}
.node.selected, .edge.selected {opacity: 1;}
.edge:hover path { stroke: red; }
.edge:hover polygon { stroke: red; fill: red; }
]]></style>
<script type="application/ecmascript" xlink:href="svg.min.js"/>
<svg id="graph" class="graph">
<g id="graph0" class="graph" transform="scale(1 1) rotate(0) translate(4 292.48)">
<title>CreateInput::generate_input_content</title>
<!-- Node1 -->
<g id="Node000001" class="node">
<title>Node1</title>
<g id="a_Node000001"><a xlink:title="Generate Gaussian input content.">
<polygon fill="#999999" stroke="#666666" points="123,-149.48 0,-149.48 0,-119.48 123,-119.48 123,-149.48"/>
<text text-anchor="start" x="8" y="-137.48" font-family="Helvetica,sans-Serif" font-size="10.00">CreateInput::generate</text>
<text text-anchor="middle" x="61.5" y="-126.48" font-family="Helvetica,sans-Serif" font-size="10.00">_input_content</text>
</a>
</g>
</g>
<!-- Node2 -->
<g id="Node000002" class="node">
<title>Node2</title>
<g id="a_Node000002"><a xlink:href="classCreateInput.html#af97b8545c619c854283b22b791f453ab" target="_top" xlink:title="Generate checkpoint section for input file.">
<polygon fill="white" stroke="#666666" points="291,-288.48 168,-288.48 168,-258.48 291,-258.48 291,-288.48"/>
<text text-anchor="start" x="176" y="-276.48" font-family="Helvetica,sans-Serif" font-size="10.00">CreateInput::generate</text>
<text text-anchor="middle" x="229.5" y="-265.48" font-family="Helvetica,sans-Serif" font-size="10.00">_checkpoint_section</text>
</a>
</g>
</g>
<!-- Node1&#45;&gt;Node2 -->
<g id="edge1_Node000001_Node000002" class="edge">
<title>Node1&#45;&gt;Node2</title>
<g id="a_edge1_Node000001_Node000002"><a xlink:title=" ">
<path fill="none" stroke="#63b8ff" d="M71.48,-149.81C86.57,-174.27 119.28,-222.15 159,-249.48 161.24,-251.02 163.59,-252.47 166.01,-253.84"/>
<polygon fill="#63b8ff" stroke="#63b8ff" points="164.55,-257.02 175.05,-258.41 167.71,-250.77 164.55,-257.02"/>
</a>
</g>
</g>
<!-- Node3 -->
<g id="Node000003" class="node">
<title>Node3</title>
<g id="a_Node000003"><a xlink:href="classCreateInput.html#acd3d8c7d766ba09d5c3700889d2c04cf" target="_top" xlink:title="Generate molecule section with coordinates.">
<polygon fill="white" stroke="#666666" points="291,-240.48 168,-240.48 168,-210.48 291,-210.48 291,-240.48"/>
<text text-anchor="start" x="176" y="-228.48" font-family="Helvetica,sans-Serif" font-size="10.00">CreateInput::generate</text>
<text text-anchor="middle" x="229.5" y="-217.48" font-family="Helvetica,sans-Serif" font-size="10.00">_molecule_section</text>
</a>
</g>
</g>
<!-- Node1&#45;&gt;Node3 -->
<g id="edge2_Node000001_Node000003" class="edge">
<title>Node1&#45;&gt;Node3</title>
<g id="a_edge2_Node000001_Node000003"><a xlink:title=" ">
<path fill="none" stroke="#63b8ff" d="M81.11,-149.73C99.86,-164.51 130.08,-186.8 159,-201.48 162.49,-203.25 166.13,-204.94 169.85,-206.54"/>
<polygon fill="#63b8ff" stroke="#63b8ff" points="168.61,-209.82 179.19,-210.35 171.25,-203.34 168.61,-209.82"/>
</a>
</g>
</g>
<!-- Node4 -->
<g id="Node000004" class="node">
<title>Node4</title>
<g id="a_Node000004"><a xlink:href="classCreateInput.html#af324c20a23853c65cdaf487497bb84a9" target="_top" xlink:title="Generate route section for different calculation types.">
<polygon fill="white" stroke="#666666" points="291,-192.48 168,-192.48 168,-162.48 291,-162.48 291,-192.48"/>
<text text-anchor="start" x="176" y="-180.48" font-family="Helvetica,sans-Serif" font-size="10.00">CreateInput::generate</text>
<text text-anchor="middle" x="229.5" y="-169.48" font-family="Helvetica,sans-Serif" font-size="10.00">_route_section</text>
</a>
</g>
</g>
<!-- Node1&#45;&gt;Node4 -->
<g id="edge3_Node000001_Node000004" class="edge">
<title>Node1&#45;&gt;Node4</title>
<g id="a_edge3_Node000001_Node000004"><a xlink:title=" ">
<path fill="none" stroke="#63b8ff" d="M120.56,-149.52C133.45,-152.86 147.22,-156.43 160.47,-159.86"/>
<polygon fill="#63b8ff" stroke="#63b8ff" points="159.92,-163.33 170.47,-162.45 161.67,-156.56 159.92,-163.33"/>
</a>
</g>
</g>
<!-- Node5 -->
<g id="Node000005" class="node">
<title>Node5</title>
<g id="a_Node000005"><a xlink:href="classCreateInput.html#aaa26966f65695608137d998b5659e4fe" target="_top" xlink:title="Smartly select the appropriate basis set based on calculation type.">
<polygon fill="white" stroke="#666666" points="461,-149.48 336,-149.48 336,-119.48 461,-119.48 461,-149.48"/>
<text text-anchor="start" x="344" y="-137.48" font-family="Helvetica,sans-Serif" font-size="10.00">CreateInput::select</text>
<text text-anchor="middle" x="398.5" y="-126.48" font-family="Helvetica,sans-Serif" font-size="10.00">_basis_for_calculation</text>
</a>
</g>
</g>
<!-- Node1&#45;&gt;Node5 -->
<g id="edge7_Node000001_Node000005" class="edge">
<title>Node1&#45;&gt;Node5</title>
<g id="a_edge7_Node000001_Node000005"><a xlink:title=" ">
<path fill="none" stroke="#63b8ff" d="M123.17,-134.48C180.11,-134.48 265.34,-134.48 325.66,-134.48"/>
<polygon fill="#63b8ff" stroke="#63b8ff" points="325.87,-137.98 335.87,-134.48 325.87,-130.98 325.87,-137.98"/>
</a>
</g>
</g>
<!-- Node6 -->
<g id="Node000006" class="node">
<title>Node6</title>
<g id="a_Node000006"><a xlink:href="classCreateInput.html#aed0a3cb3385f77c8f2f61d44f1c4efa1" target="_top" xlink:title="Generate title for current calculation type.">
<polygon fill="white" stroke="#666666" points="291,-106.48 168,-106.48 168,-76.48 291,-76.48 291,-106.48"/>
<text text-anchor="start" x="176" y="-94.48" font-family="Helvetica,sans-Serif" font-size="10.00">CreateInput::generate</text>
<text text-anchor="middle" x="229.5" y="-83.48" font-family="Helvetica,sans-Serif" font-size="10.00">_title</text>
</a>
</g>
</g>
<!-- Node1&#45;&gt;Node6 -->
<g id="edge5_Node000001_Node000006" class="edge">
<title>Node1&#45;&gt;Node6</title>
<g id="a_edge5_Node000001_Node000006"><a xlink:title=" ">
<path fill="none" stroke="#63b8ff" d="M120.56,-119.44C133.45,-116.1 147.22,-112.54 160.47,-109.1"/>
<polygon fill="#63b8ff" stroke="#63b8ff" points="161.67,-112.41 170.47,-106.51 159.92,-105.63 161.67,-112.41"/>
</a>
</g>
</g>
<!-- Node7 -->
<g id="Node000007" class="node">
<title>Node7</title>
<g id="a_Node000007"><a xlink:href="classCreateInput.html#a781b25e4d5f838ad1a106649a487f5e0" target="_top" xlink:title="Check if the given basis string is GEN or GENECP (case insensitive)">
<polygon fill="white" stroke="#666666" points="454,-37.48 343,-37.48 343,-7.48 454,-7.48 454,-37.48"/>
<text text-anchor="start" x="351" y="-25.48" font-family="Helvetica,sans-Serif" font-size="10.00">CreateInput::is_gen</text>
<text text-anchor="middle" x="398.5" y="-14.48" font-family="Helvetica,sans-Serif" font-size="10.00">_basis</text>
</a>
</g>
</g>
<!-- Node1&#45;&gt;Node7 -->
<g id="edge6_Node000001_Node000007" class="edge">
<title>Node1&#45;&gt;Node7</title>
<g id="a_edge6_Node000001_Node000007"><a xlink:title=" ">
<path fill="none" stroke="#63b8ff" d="M69.7,-119.25C83.03,-93.06 114.36,-40.3 159,-19.48 213.42,5.89 282.71,1.56 332.57,-6.97"/>
<polygon fill="#63b8ff" stroke="#63b8ff" points="332.12,-10.45 342.59,-8.78 333.37,-3.56 332.12,-10.45"/>
</a>
</g>
</g>
<!-- Node8 -->
<g id="Node000008" class="node">
<title>Node8</title>
<g id="a_Node000008"><a xlink:href="classCreateInput.html#af1835325332d8cda3bc6566040afc4cc" target="_top" xlink:title="Validates requirements for calculations with GEN/GENECP basis.">
<polygon fill="white" stroke="#666666" points="300,-58.48 159,-58.48 159,-28.48 300,-28.48 300,-58.48"/>
<text text-anchor="start" x="167" y="-46.48" font-family="Helvetica,sans-Serif" font-size="10.00">CreateInput::validate</text>
<text text-anchor="middle" x="229.5" y="-35.48" font-family="Helvetica,sans-Serif" font-size="10.00">_gen_basis_requirements</text>
</a>
</g>
</g>
<!-- Node1&#45;&gt;Node8 -->
<g id="edge8_Node000001_Node000008" class="edge">
<title>Node1&#45;&gt;Node8</title>
<g id="a_edge8_Node000001_Node000008"><a xlink:title=" ">
<path fill="none" stroke="#63b8ff" d="M81.11,-119.24C99.86,-104.45 130.08,-82.16 159,-67.48 162.49,-65.71 166.13,-64.02 169.85,-62.42"/>
<polygon fill="#63b8ff" stroke="#63b8ff" points="171.25,-65.63 179.19,-58.62 168.61,-59.15 171.25,-65.63"/>
</a>
</g>
</g>
<!-- Node4&#45;&gt;Node5 -->
<g id="edge4_Node000004_Node000005" class="edge">
<title>Node4&#45;&gt;Node5</title>
<g id="a_edge4_Node000004_Node000005"><a xlink:title=" ">
<path fill="none" stroke="#63b8ff" d="M288.91,-162.44C301.88,-159.1 315.73,-155.54 329.06,-152.1"/>
<polygon fill="#63b8ff" stroke="#63b8ff" points="330.31,-155.4 339.12,-149.51 328.57,-148.62 330.31,-155.4"/>
</a>
</g>
</g>
<!-- Node8&#45;&gt;Node5 -->
<g id="edge10_Node000008_Node000005" class="edge">
<title>Node8&#45;&gt;Node5</title>
<g id="a_edge10_Node000008_Node000005"><a xlink:title=" ">
<path fill="none" stroke="#63b8ff" d="M279.42,-58.5C286.46,-61.2 293.5,-64.2 300,-67.48 325.28,-80.24 351.62,-98.69 370.53,-113"/>
<polygon fill="#63b8ff" stroke="#63b8ff" points="368.61,-115.94 378.67,-119.25 372.87,-110.38 368.61,-115.94"/>
</a>
</g>
</g>
<!-- Node8&#45;&gt;Node7 -->
<g id="edge9_Node000008_Node000007" class="edge">
<title>Node8&#45;&gt;Node7</title>
<g id="a_edge9_Node000008_Node000007"><a xlink:title=" ">
<path fill="none" stroke="#63b8ff" d="M300.36,-34.7C311.12,-33.34 322.21,-31.95 332.85,-30.61"/>
<polygon fill="#63b8ff" stroke="#63b8ff" points="333.42,-34.07 342.91,-29.35 332.55,-27.12 333.42,-34.07"/>
</a>
</g>
</g>
</g>
</svg>
</svg>

<style type='text/css'>
<![CDATA[
[data-mouse-over-selected='false'] { opacity: 0.7; }
[data-mouse-over-selected='true']  { opacity: 1.0; }
]]>
</style>
<script type="application/ecmascript"><![CDATA[
document.addEventListener('DOMContentLoaded', (event) => {
  highlightEdges();
  highlightAdjacentNodes();
});
]]></script>
</svg>
