<?xml version="1.0" encoding="UTF-8" standalone="no"?>
<!DOCTYPE svg PUBLIC "-//W3C//DTD SVG 1.1//EN"
 "http://www.w3.org/Graphics/SVG/1.1/DTD/svg11.dtd">
<!-- Generated by graphviz version 2.43.0 (0)
 -->
<!-- Title: ParameterParser::trim Pages: 1 -->
<svg width="1111pt" height="98pt"
 viewBox="0.00 0.00 1111.00 97.50" xmlns="http://www.w3.org/2000/svg" xmlns:xlink="http://www.w3.org/1999/xlink">
<g id="graph0" class="graph" transform="scale(1 1) rotate(0) translate(4 93.5)">
<title>ParameterParser::trim</title>
<!-- Node1 -->
<g id="Node000001" class="node">
<title>Node1</title>
<g id="a_Node000001"><a xlink:title="Trim whitespace from string.">
<polygon fill="#999999" stroke="#666666" points="1103,-67.5 980,-67.5 980,-48.5 1103,-48.5 1103,-67.5"/>
<text text-anchor="middle" x="1041.5" y="-55.5" font-family="Helvetica,sans-Serif" font-size="10.00">ParameterParser::trim</text>
</a>
</g>
</g>
<!-- Node2 -->
<g id="Node000002" class="node">
<title>Node2</title>
<g id="a_Node000002"><a xlink:href="classParameterParser.html#aaea513c087ec06939e4f34b94895bbe8" target="_top" xlink:title="Load parameters from a file.">
<polygon fill="white" stroke="#666666" points="753,-67.5 587,-67.5 587,-48.5 753,-48.5 753,-67.5"/>
<text text-anchor="middle" x="670" y="-55.5" font-family="Helvetica,sans-Serif" font-size="10.00">ParameterParser::loadFromFile</text>
</a>
</g>
</g>
<!-- Node1&#45;&gt;Node2 -->
<g id="edge1_Node000001_Node000002" class="edge">
<title>Node1&#45;&gt;Node2</title>
<g id="a_edge1_Node000001_Node000002"><a xlink:title=" ">
<path fill="none" stroke="#63b8ff" d="M991.19,-69.63C976.13,-72.66 959.47,-75.49 944,-77 875.44,-83.69 857.67,-82.49 789,-77 765.83,-75.15 740.35,-71.28 719.02,-67.51"/>
<polygon fill="#63b8ff" stroke="#63b8ff" points="992.24,-72.98 1001.32,-67.51 990.81,-66.13 992.24,-72.98"/>
</a>
</g>
</g>
<!-- Node8 -->
<g id="Node000008" class="node">
<title>Node8</title>
<g id="a_Node000008"><a xlink:href="classParameterParser.html#ac85db5fadcadc7b6edc915d15dfba8f8" target="_top" xlink:title="Parse a line from the parameter file.">
<polygon fill="white" stroke="#666666" points="941.5,-67.5 791.5,-67.5 791.5,-48.5 941.5,-48.5 941.5,-67.5"/>
<text text-anchor="middle" x="866.5" y="-55.5" font-family="Helvetica,sans-Serif" font-size="10.00">ParameterParser::parseLine</text>
</a>
</g>
</g>
<!-- Node1&#45;&gt;Node8 -->
<g id="edge8_Node000001_Node000008" class="edge">
<title>Node1&#45;&gt;Node8</title>
<g id="a_edge8_Node000001_Node000008"><a xlink:title=" ">
<path fill="none" stroke="#63b8ff" d="M969.99,-58C960.65,-58 951.06,-58 941.67,-58"/>
<polygon fill="#63b8ff" stroke="#63b8ff" points="969.99,-61.5 979.99,-58 969.99,-54.5 969.99,-61.5"/>
</a>
</g>
</g>
<!-- Node9 -->
<g id="Node000009" class="node">
<title>Node9</title>
<g id="a_Node000009"><a xlink:href="classParameterParser.html#aa9c4b23545a5a5e3990b88b9f38c71d3" target="_top" xlink:title="Handle multi&#45;line parameter values.">
<polygon fill="white" stroke="#666666" points="944,-30 789,-30 789,0 944,0 944,-30"/>
<text text-anchor="start" x="797" y="-18" font-family="Helvetica,sans-Serif" font-size="10.00">ParameterParser::parseMulti</text>
<text text-anchor="middle" x="866.5" y="-7" font-family="Helvetica,sans-Serif" font-size="10.00">LineValue</text>
</a>
</g>
</g>
<!-- Node1&#45;&gt;Node9 -->
<g id="edge10_Node000001_Node000009" class="edge">
<title>Node1&#45;&gt;Node9</title>
<g id="a_edge10_Node000001_Node000009"><a xlink:title=" ">
<path fill="none" stroke="#63b8ff" d="M992.31,-46.02C972.34,-41.06 948.96,-35.25 927.87,-30.01"/>
<polygon fill="#63b8ff" stroke="#63b8ff" points="991.56,-49.44 1002.11,-48.46 993.25,-42.65 991.56,-49.44"/>
</a>
</g>
</g>
<!-- Node3 -->
<g id="Node000003" class="node">
<title>Node3</title>
<g id="a_Node000003"><a xlink:href="classCreateInput.html#a9aec2e755c1ba4029399926925221f73" target="_top" xlink:title="Load parameters from a parameter file.">
<polygon fill="white" stroke="#666666" points="551,-89.5 395,-89.5 395,-70.5 551,-70.5 551,-89.5"/>
<text text-anchor="middle" x="473" y="-77.5" font-family="Helvetica,sans-Serif" font-size="10.00">CreateInput::loadParameters</text>
</a>
</g>
</g>
<!-- Node2&#45;&gt;Node3 -->
<g id="edge2_Node000002_Node000003" class="edge">
<title>Node2&#45;&gt;Node3</title>
<g id="a_edge2_Node000002_Node000003"><a xlink:title=" ">
<path fill="none" stroke="#63b8ff" d="M576.8,-68.4C568.18,-69.37 559.52,-70.35 551.06,-71.31"/>
<polygon fill="#63b8ff" stroke="#63b8ff" points="577.32,-71.87 586.87,-67.27 576.54,-64.91 577.32,-71.87"/>
</a>
</g>
</g>
<!-- Node4 -->
<g id="Node000004" class="node">
<title>Node4</title>
<g id="a_Node000004"><a xlink:href="group__CommandExecutors.html#ga6dd4acb8cb239efc2daf9ad5c4b2afd4" target="_top" xlink:title="Parse options specific to create_input command.">
<polygon fill="white" stroke="#666666" points="538,-52 408,-52 408,-22 538,-22 538,-52"/>
<text text-anchor="start" x="416" y="-40" font-family="Helvetica,sans-Serif" font-size="10.00">CommandParser::parse</text>
<text text-anchor="middle" x="473" y="-29" font-family="Helvetica,sans-Serif" font-size="10.00">_create_input_options</text>
</a>
</g>
</g>
<!-- Node2&#45;&gt;Node4 -->
<g id="edge3_Node000002_Node000004" class="edge">
<title>Node2&#45;&gt;Node4</title>
<g id="a_edge3_Node000002_Node000004"><a xlink:title=" ">
<path fill="none" stroke="#63b8ff" d="M576.92,-48.08C563.85,-46.68 550.65,-45.25 538.27,-43.92"/>
<polygon fill="#63b8ff" stroke="#63b8ff" points="576.55,-51.56 586.87,-49.15 577.3,-44.6 576.55,-51.56"/>
</a>
</g>
</g>
<!-- Node5 -->
<g id="Node000005" class="node">
<title>Node5</title>
<g id="a_Node000005"><a xlink:href="group__CommandExecutors.html#ga2c1ceafe241a0b4e19790bb5d878ed1a" target="_top" xlink:title="Parse command&#45;line arguments and create execution context.">
<polygon fill="white" stroke="#666666" points="359,-46.5 229,-46.5 229,-27.5 359,-27.5 359,-46.5"/>
<text text-anchor="middle" x="294" y="-34.5" font-family="Helvetica,sans-Serif" font-size="10.00">CommandParser::parse</text>
</a>
</g>
</g>
<!-- Node4&#45;&gt;Node5 -->
<g id="edge4_Node000004_Node000005" class="edge">
<title>Node4&#45;&gt;Node5</title>
<g id="a_edge4_Node000004_Node000005"><a xlink:title=" ">
<path fill="none" stroke="#63b8ff" d="M397.7,-37C384.92,-37 371.72,-37 359.23,-37"/>
<polygon fill="#63b8ff" stroke="#63b8ff" points="397.85,-40.5 407.85,-37 397.85,-33.5 397.85,-40.5"/>
</a>
</g>
</g>
<!-- Node6 -->
<g id="Node000006" class="node">
<title>Node6</title>
<g id="a_Node000006"><a xlink:href="main_8cpp.html#a0ddf1224851353fc92bfbff6f499fa97" target="_top" xlink:title="Main entry point for the Gaussian Extractor application.">
<polygon fill="white" stroke="#666666" points="41,-46.5 0,-46.5 0,-27.5 41,-27.5 41,-46.5"/>
<text text-anchor="middle" x="20.5" y="-34.5" font-family="Helvetica,sans-Serif" font-size="10.00">main</text>
</a>
</g>
</g>
<!-- Node5&#45;&gt;Node6 -->
<g id="edge5_Node000005_Node000006" class="edge">
<title>Node5&#45;&gt;Node6</title>
<g id="a_edge5_Node000005_Node000006"><a xlink:title=" ">
<path fill="none" stroke="#63b8ff" d="M218.42,-37C158.19,-37 77.65,-37 41.06,-37"/>
<polygon fill="#63b8ff" stroke="#63b8ff" points="218.66,-40.5 228.66,-37 218.66,-33.5 218.66,-40.5"/>
</a>
</g>
</g>
<!-- Node7 -->
<g id="Node000007" class="node">
<title>Node7</title>
<g id="a_Node000007"><a xlink:href="interactive__mode_8cpp.html#a6b615c34054150d837dc45ed1c17b297" target="_top" xlink:title="Enhanced interactive command loop with TAB completion for Windows.">
<polygon fill="white" stroke="#666666" points="193,-27.5 77,-27.5 77,-8.5 193,-8.5 193,-27.5"/>
<text text-anchor="middle" x="135" y="-15.5" font-family="Helvetica,sans-Serif" font-size="10.00">run_interactive_loop</text>
</a>
</g>
</g>
<!-- Node5&#45;&gt;Node7 -->
<g id="edge6_Node000005_Node000007" class="edge">
<title>Node5&#45;&gt;Node7</title>
<g id="a_edge6_Node000005_Node000007"><a xlink:title=" ">
<path fill="none" stroke="#63b8ff" d="M218.75,-28.01C210.24,-26.98 201.66,-25.95 193.41,-24.95"/>
<polygon fill="#63b8ff" stroke="#63b8ff" points="218.34,-31.49 228.69,-29.22 219.18,-24.54 218.34,-31.49"/>
</a>
</g>
</g>
<!-- Node7&#45;&gt;Node6 -->
<g id="edge7_Node000007_Node000006" class="edge">
<title>Node7&#45;&gt;Node6</title>
<g id="a_edge7_Node000007_Node000006"><a xlink:title=" ">
<path fill="none" stroke="#63b8ff" d="M67.4,-29.25C57.88,-30.86 48.77,-32.39 41.22,-33.67"/>
<polygon fill="#63b8ff" stroke="#63b8ff" points="68.14,-32.67 77.42,-27.56 66.98,-25.77 68.14,-32.67"/>
</a>
</g>
</g>
<!-- Node8&#45;&gt;Node2 -->
<g id="edge9_Node000008_Node000002" class="edge">
<title>Node8&#45;&gt;Node2</title>
<g id="a_edge9_Node000008_Node000002"><a xlink:title=" ">
<path fill="none" stroke="#63b8ff" d="M781.39,-58C772.08,-58 762.61,-58 753.32,-58"/>
<polygon fill="#63b8ff" stroke="#63b8ff" points="781.41,-61.5 791.41,-58 781.41,-54.5 781.41,-61.5"/>
</a>
</g>
</g>
<!-- Node9&#45;&gt;Node2 -->
<g id="edge11_Node000009_Node000002" class="edge">
<title>Node9&#45;&gt;Node2</title>
<g id="a_edge11_Node000009_Node000002"><a xlink:title=" ">
<path fill="none" stroke="#63b8ff" d="M787.6,-32.22C762.54,-37.76 735.68,-43.7 714.07,-48.48"/>
<polygon fill="#63b8ff" stroke="#63b8ff" points="788.46,-35.62 797.47,-30.04 786.95,-28.78 788.46,-35.62"/>
</a>
</g>
</g>
</g>
</svg>
