<?xml version="1.0" encoding="UTF-8" standalone="no"?>
<!DOCTYPE svg PUBLIC "-//W3C//DTD SVG 1.1//EN"
 "http://www.w3.org/Graphics/SVG/1.1/DTD/svg11.dtd">
<!-- Generated by graphviz version 2.43.0 (0)
 -->
<!-- Title: CoordExtractor::generate_xyz_filename Pages: 1 -->
<svg width="876pt" height="59pt"
 viewBox="0.00 0.00 876.00 59.00" xmlns="http://www.w3.org/2000/svg" xmlns:xlink="http://www.w3.org/1999/xlink">
<g id="graph0" class="graph" transform="scale(1 1) rotate(0) translate(4 55)">
<title>CoordExtractor::generate_xyz_filename</title>
<!-- Node1 -->
<g id="Node000001" class="node">
<title>Node1</title>
<g id="a_Node000001"><a xlink:title="Generate output XYZ filename from log file.">
<polygon fill="#999999" stroke="#666666" points="868,-51 729,-51 729,-21 868,-21 868,-51"/>
<text text-anchor="start" x="737" y="-39" font-family="Helvetica,sans-Serif" font-size="10.00">CoordExtractor::generate</text>
<text text-anchor="middle" x="798.5" y="-28" font-family="Helvetica,sans-Serif" font-size="10.00">_xyz_filename</text>
</a>
</g>
</g>
<!-- Node2 -->
<g id="Node000002" class="node">
<title>Node2</title>
<g id="a_Node000002"><a xlink:href="classCoordExtractor.html#a94f396e2c1c6511af85c9277bb2d0680" target="_top" xlink:title="Extract coordinates from multiple log files.">
<polygon fill="white" stroke="#666666" points="527,-51 397,-51 397,-21 527,-21 527,-51"/>
<text text-anchor="start" x="405" y="-39" font-family="Helvetica,sans-Serif" font-size="10.00">CoordExtractor::extract</text>
<text text-anchor="middle" x="462" y="-28" font-family="Helvetica,sans-Serif" font-size="10.00">_coordinates</text>
</a>
</g>
</g>
<!-- Node1&#45;&gt;Node2 -->
<g id="edge1_Node000001_Node000002" class="edge">
<title>Node1&#45;&gt;Node2</title>
<g id="a_edge1_Node000001_Node000002"><a xlink:title=" ">
<path fill="none" stroke="#63b8ff" d="M718.76,-38.5C710.07,-38.71 701.35,-38.88 693,-39 635.23,-39.83 620.77,-39.87 563,-39 551.36,-38.83 538.97,-38.54 527.01,-38.21"/>
<polygon fill="#63b8ff" stroke="#63b8ff" points="719.02,-42 728.93,-38.25 718.84,-35 719.02,-42"/>
</a>
</g>
</g>
<!-- Node6 -->
<g id="Node000006" class="node">
<title>Node6</title>
<g id="a_Node000006"><a xlink:href="classCoordExtractor.html#a24758c2d26fd73e7f861a33fd726b5a0" target="_top" xlink:title="Extract coordinates from a single log file.">
<polygon fill="white" stroke="#666666" points="693,-30 563,-30 563,0 693,0 693,-30"/>
<text text-anchor="start" x="571" y="-18" font-family="Helvetica,sans-Serif" font-size="10.00">CoordExtractor::extract</text>
<text text-anchor="middle" x="628" y="-7" font-family="Helvetica,sans-Serif" font-size="10.00">_from_file</text>
</a>
</g>
</g>
<!-- Node1&#45;&gt;Node6 -->
<g id="edge6_Node000001_Node000006" class="edge">
<title>Node1&#45;&gt;Node6</title>
<g id="a_edge6_Node000001_Node000006"><a xlink:title=" ">
<path fill="none" stroke="#63b8ff" d="M718.89,-26.2C710.26,-25.13 701.55,-24.04 693.12,-22.99"/>
<polygon fill="#63b8ff" stroke="#63b8ff" points="718.61,-29.69 728.96,-27.46 719.47,-22.75 718.61,-29.69"/>
</a>
</g>
</g>
<!-- Node3 -->
<g id="Node000003" class="node">
<title>Node3</title>
<g id="a_Node000003"><a xlink:href="group__ModuleExecutors.html#gab27343ef2ae55f92b21f39e17f788f4c" target="_top" xlink:title=" ">
<polygon fill="white" stroke="#666666" points="361,-51 229,-51 229,-21 361,-21 361,-51"/>
<text text-anchor="start" x="237" y="-39" font-family="Helvetica,sans-Serif" font-size="10.00">execute_extract_coords</text>
<text text-anchor="middle" x="295" y="-28" font-family="Helvetica,sans-Serif" font-size="10.00">_command</text>
</a>
</g>
</g>
<!-- Node2&#45;&gt;Node3 -->
<g id="edge2_Node000002_Node000003" class="edge">
<title>Node2&#45;&gt;Node3</title>
<g id="a_edge2_Node000002_Node000003"><a xlink:title=" ">
<path fill="none" stroke="#63b8ff" d="M386.51,-36C378.06,-36 369.49,-36 361.18,-36"/>
<polygon fill="#63b8ff" stroke="#63b8ff" points="386.73,-39.5 396.73,-36 386.73,-32.5 386.73,-39.5"/>
</a>
</g>
</g>
<!-- Node4 -->
<g id="Node000004" class="node">
<title>Node4</title>
<g id="a_Node000004"><a xlink:href="main_8cpp.html#a0ddf1224851353fc92bfbff6f499fa97" target="_top" xlink:title="Main entry point for the Gaussian Extractor application.">
<polygon fill="white" stroke="#666666" points="41,-45.5 0,-45.5 0,-26.5 41,-26.5 41,-45.5"/>
<text text-anchor="middle" x="20.5" y="-33.5" font-family="Helvetica,sans-Serif" font-size="10.00">main</text>
</a>
</g>
</g>
<!-- Node3&#45;&gt;Node4 -->
<g id="edge3_Node000003_Node000004" class="edge">
<title>Node3&#45;&gt;Node4</title>
<g id="a_edge3_Node000003_Node000004"><a xlink:title=" ">
<path fill="none" stroke="#63b8ff" d="M218.45,-36C158.02,-36 77.57,-36 41.03,-36"/>
<polygon fill="#63b8ff" stroke="#63b8ff" points="218.73,-39.5 228.73,-36 218.73,-32.5 218.73,-39.5"/>
</a>
</g>
</g>
<!-- Node5 -->
<g id="Node000005" class="node">
<title>Node5</title>
<g id="a_Node000005"><a xlink:href="interactive__mode_8cpp.html#a6b615c34054150d837dc45ed1c17b297" target="_top" xlink:title="Enhanced interactive command loop with TAB completion for Windows.">
<polygon fill="white" stroke="#666666" points="193,-26.5 77,-26.5 77,-7.5 193,-7.5 193,-26.5"/>
<text text-anchor="middle" x="135" y="-14.5" font-family="Helvetica,sans-Serif" font-size="10.00">run_interactive_loop</text>
</a>
</g>
</g>
<!-- Node3&#45;&gt;Node5 -->
<g id="edge4_Node000003_Node000005" class="edge">
<title>Node3&#45;&gt;Node5</title>
<g id="a_edge4_Node000003_Node000005"><a xlink:title=" ">
<path fill="none" stroke="#63b8ff" d="M218.85,-26.96C210.31,-25.94 201.71,-24.9 193.45,-23.91"/>
<polygon fill="#63b8ff" stroke="#63b8ff" points="218.48,-30.44 228.82,-28.16 219.31,-23.49 218.48,-30.44"/>
</a>
</g>
</g>
<!-- Node5&#45;&gt;Node4 -->
<g id="edge5_Node000005_Node000004" class="edge">
<title>Node5&#45;&gt;Node4</title>
<g id="a_edge5_Node000005_Node000004"><a xlink:title=" ">
<path fill="none" stroke="#63b8ff" d="M67.4,-28.25C57.88,-29.86 48.77,-31.39 41.22,-32.67"/>
<polygon fill="#63b8ff" stroke="#63b8ff" points="68.14,-31.67 77.42,-26.56 66.98,-24.77 68.14,-31.67"/>
</a>
</g>
</g>
<!-- Node6&#45;&gt;Node2 -->
<g id="edge7_Node000006_Node000002" class="edge">
<title>Node6&#45;&gt;Node2</title>
<g id="a_edge7_Node000006_Node000002"><a xlink:title=" ">
<path fill="none" stroke="#63b8ff" d="M552.71,-24.51C544.18,-25.6 535.54,-26.71 527.16,-27.78"/>
<polygon fill="#63b8ff" stroke="#63b8ff" points="553.18,-27.98 562.65,-23.24 552.29,-21.04 553.18,-27.98"/>
</a>
</g>
</g>
</g>
</svg>
