<?xml version="1.0" encoding="UTF-8" standalone="no"?>
<!DOCTYPE svg PUBLIC "-//W3C//DTD SVG 1.1//EN"
 "http://www.w3.org/Graphics/SVG/1.1/DTD/svg11.dtd">
<!-- Generated by graphviz version 2.43.0 (0)
 -->
<!-- Title: CreateInput::is_gen_basis Pages: 1 -->
<!--zoomable 59 -->

<svg id="main" version="1.1" xmlns="http://www.w3.org/2000/svg" xmlns:xlink="http://www.w3.org/1999/xlink" xml:space="preserve" onload="init(evt)">
<style type="text/css"><![CDATA[
.node, .edge {opacity: 0.7;}
.node.selected, .edge.selected {opacity: 1;}
.edge:hover path { stroke: red; }
.edge:hover polygon { stroke: red; fill: red; }
]]></style>

<defs>
  <circle id="rim" cx="0" cy="0" r="7"/>
  <circle id="rim2" cx="0" cy="0" r="3.5"/>
  <g id="zoomPlus">
    <use xlink:href="#rim" fill="#404040"><set attributeName="fill" to="#808080" begin="zoomplus.mouseover" end="zoomplus.mouseout"/></use>
    <path d="M-4,0h8M0,-4v8" fill="none" stroke="white" stroke-width="1.5" pointer-events="none"/>
  </g>
  <g id="zoomMin">
    <use xlink:href="#rim" fill="#404040"><set attributeName="fill" to="#808080" begin="zoomminus.mouseover" end="zoomminus.mouseout"/></use>
    <path d="M-4,0h8" fill="none" stroke="white" stroke-width="1.5" pointer-events="none"/>
  </g>
  <g id="arrowUp" transform="translate(30 24)">
    <use xlink:href="#rim"/>
    <path pointer-events="none" fill="none" stroke="white" stroke-width="1.5" d="M0,-3.0v7 M-2.5,-0.5L0,-3.0L2.5,-0.5"/>
  </g>
  <g id="arrowRight" transform="rotate(90) translate(36 -43)">
    <use xlink:href="#rim"/>
    <path pointer-events="none" fill="none" stroke="white" stroke-width="1.5" d="M0,-3.0v7 M-2.5,-0.5L0,-3.0L2.5,-0.5"/>
  </g>
  <g id="arrowDown" transform="rotate(180) translate(-30 -48)">
    <use xlink:href="#rim"/>
    <path pointer-events="none" fill="none" stroke="white" stroke-width="1.5" d="M0,-3.0v7 M-2.5,-0.5L0,-3.0L2.5,-0.5"/>
  </g>
  <g id="arrowLeft" transform="rotate(270) translate(-36 17)">
    <use xlink:href="#rim"/>
    <path pointer-events="none" fill="none" stroke="white" stroke-width="1.5" d="M0,-3.0v7 M-2.5,-0.5L0,-3.0L2.5,-0.5"/>
  </g>
  <g id="resetDef">
    <use xlink:href="#rim2" fill="#404040"><set attributeName="fill" to="#808080" begin="reset.mouseover" end="reset.mouseout"/></use>
  </g>
</defs>
<script type="application/ecmascript">
var viewWidth = 1133;
var viewHeight = 59;
var sectionId = 'dynsection-13';
</script>
<script type="application/ecmascript" xlink:href="svg.min.js"/>
<svg id="graph" class="graph">
<g id="viewport">
<title>CreateInput::is_gen_basis</title>
<!-- Node1 -->
<g id="Node000001" class="node">
<title>Node1</title>
<g id="a_Node000001"><a xlink:title="Check if the given basis string is GEN or GENECP (case insensitive)">
<polygon fill="#999999" stroke="#666666" points="1125,-51 1014,-51 1014,-21 1125,-21 1125,-51"/>
<text text-anchor="start" x="1022" y="-39" font-family="Helvetica,sans-Serif" font-size="10.00">CreateInput::is_gen</text>
<text text-anchor="middle" x="1069.5" y="-28" font-family="Helvetica,sans-Serif" font-size="10.00">_basis</text>
</a>
</g>
</g>
<!-- Node2 -->
<g id="Node000002" class="node">
<title>Node2</title>
<g id="a_Node000002"><a xlink:href="classCreateInput.html#ac3c82149b54ad69fd871f6f51c667131" target="_top" xlink:title="Generate Gaussian input content.">
<polygon fill="white" stroke="#666666" points="801,-51 678,-51 678,-21 801,-21 801,-51"/>
<text text-anchor="start" x="686" y="-39" font-family="Helvetica,sans-Serif" font-size="10.00">CreateInput::generate</text>
<text text-anchor="middle" x="739.5" y="-28" font-family="Helvetica,sans-Serif" font-size="10.00">_input_content</text>
</a>
</g>
</g>
<!-- Node1&#45;&gt;Node2 -->
<g id="edge1_Node000001_Node000002" class="edge">
<title>Node1&#45;&gt;Node2</title>
<g id="a_edge1_Node000001_Node000002"><a xlink:title=" ">
<path fill="none" stroke="#63b8ff" d="M1003.84,-38.4C995.15,-38.65 986.36,-38.86 978,-39 915.34,-40.04 899.66,-39.97 837,-39 825.44,-38.82 813.1,-38.52 801.24,-38.18"/>
<polygon fill="#63b8ff" stroke="#63b8ff" points="1004.06,-41.9 1013.95,-38.1 1003.85,-34.9 1004.06,-41.9"/>
</a>
</g>
</g>
<!-- Node8 -->
<g id="Node000008" class="node">
<title>Node8</title>
<g id="a_Node000008"><a xlink:href="classCreateInput.html#af1835325332d8cda3bc6566040afc4cc" target="_top" xlink:title="Validates requirements for calculations with GEN/GENECP basis.">
<polygon fill="white" stroke="#666666" points="978,-30 837,-30 837,0 978,0 978,-30"/>
<text text-anchor="start" x="845" y="-18" font-family="Helvetica,sans-Serif" font-size="10.00">CreateInput::validate</text>
<text text-anchor="middle" x="907.5" y="-7" font-family="Helvetica,sans-Serif" font-size="10.00">_gen_basis_requirements</text>
</a>
</g>
</g>
<!-- Node1&#45;&gt;Node8 -->
<g id="edge8_Node000001_Node000008" class="edge">
<title>Node1&#45;&gt;Node8</title>
<g id="a_edge8_Node000001_Node000008"><a xlink:title=" ">
<path fill="none" stroke="#63b8ff" d="M1003.75,-27.5C995.32,-26.39 986.65,-25.26 978.15,-24.14"/>
<polygon fill="#63b8ff" stroke="#63b8ff" points="1003.51,-31 1013.88,-28.83 1004.43,-24.06 1003.51,-31"/>
</a>
</g>
</g>
<!-- Node3 -->
<g id="Node000003" class="node">
<title>Node3</title>
<g id="a_Node000003"><a xlink:href="classCreateInput.html#a3663dd0959586c29b28748b3134acb77" target="_top" xlink:title="Create input file from single XYZ file.">
<polygon fill="white" stroke="#666666" points="642,-51 532,-51 532,-21 642,-21 642,-51"/>
<text text-anchor="start" x="540" y="-39" font-family="Helvetica,sans-Serif" font-size="10.00">CreateInput::create</text>
<text text-anchor="middle" x="587" y="-28" font-family="Helvetica,sans-Serif" font-size="10.00">_from_file</text>
</a>
</g>
</g>
<!-- Node2&#45;&gt;Node3 -->
<g id="edge2_Node000002_Node000003" class="edge">
<title>Node2&#45;&gt;Node3</title>
<g id="a_edge2_Node000002_Node000003"><a xlink:title=" ">
<path fill="none" stroke="#63b8ff" d="M667.72,-36C659.15,-36 650.5,-36 642.21,-36"/>
<polygon fill="#63b8ff" stroke="#63b8ff" points="667.72,-39.5 677.72,-36 667.72,-32.5 667.72,-39.5"/>
</a>
</g>
</g>
<!-- Node4 -->
<g id="Node000004" class="node">
<title>Node4</title>
<g id="a_Node000004"><a xlink:href="classCreateInput.html#aa08199575835140a2122199e52cde238" target="_top" xlink:title="Main method to create input files from XYZ files.">
<polygon fill="white" stroke="#666666" points="496,-51 386,-51 386,-21 496,-21 496,-51"/>
<text text-anchor="start" x="394" y="-39" font-family="Helvetica,sans-Serif" font-size="10.00">CreateInput::create</text>
<text text-anchor="middle" x="441" y="-28" font-family="Helvetica,sans-Serif" font-size="10.00">_inputs</text>
</a>
</g>
</g>
<!-- Node3&#45;&gt;Node4 -->
<g id="edge3_Node000003_Node000004" class="edge">
<title>Node3&#45;&gt;Node4</title>
<g id="a_edge3_Node000003_Node000004"><a xlink:title=" ">
<path fill="none" stroke="#63b8ff" d="M521.73,-36C513.25,-36 504.62,-36 496.33,-36"/>
<polygon fill="#63b8ff" stroke="#63b8ff" points="521.97,-39.5 531.97,-36 521.97,-32.5 521.97,-39.5"/>
</a>
</g>
</g>
<!-- Node5 -->
<g id="Node000005" class="node">
<title>Node5</title>
<g id="a_Node000005"><a xlink:href="group__ModuleExecutors.html#ga6d8429398cd99549f485628a27b0623a" target="_top" xlink:title=" ">
<polygon fill="white" stroke="#666666" points="350,-51 229,-51 229,-21 350,-21 350,-51"/>
<text text-anchor="start" x="237" y="-39" font-family="Helvetica,sans-Serif" font-size="10.00">execute_create_input</text>
<text text-anchor="middle" x="289.5" y="-28" font-family="Helvetica,sans-Serif" font-size="10.00">_command</text>
</a>
</g>
</g>
<!-- Node4&#45;&gt;Node5 -->
<g id="edge4_Node000004_Node000005" class="edge">
<title>Node4&#45;&gt;Node5</title>
<g id="a_edge4_Node000004_Node000005"><a xlink:title=" ">
<path fill="none" stroke="#63b8ff" d="M375.47,-36C367.06,-36 358.48,-36 350.16,-36"/>
<polygon fill="#63b8ff" stroke="#63b8ff" points="375.6,-39.5 385.6,-36 375.6,-32.5 375.6,-39.5"/>
</a>
</g>
</g>
<!-- Node6 -->
<g id="Node000006" class="node">
<title>Node6</title>
<g id="a_Node000006"><a xlink:href="main_8cpp.html#a0ddf1224851353fc92bfbff6f499fa97" target="_top" xlink:title="Main entry point for the Gaussian Extractor application.">
<polygon fill="white" stroke="#666666" points="41,-45.5 0,-45.5 0,-26.5 41,-26.5 41,-45.5"/>
<text text-anchor="middle" x="20.5" y="-33.5" font-family="Helvetica,sans-Serif" font-size="10.00">main</text>
</a>
</g>
</g>
<!-- Node5&#45;&gt;Node6 -->
<g id="edge5_Node000005_Node000006" class="edge">
<title>Node5&#45;&gt;Node6</title>
<g id="a_edge5_Node000005_Node000006"><a xlink:title=" ">
<path fill="none" stroke="#63b8ff" d="M218.83,-36C159.39,-36 77.87,-36 41.01,-36"/>
<polygon fill="#63b8ff" stroke="#63b8ff" points="218.91,-39.5 228.91,-36 218.91,-32.5 218.91,-39.5"/>
</a>
</g>
</g>
<!-- Node7 -->
<g id="Node000007" class="node">
<title>Node7</title>
<g id="a_Node000007"><a xlink:href="interactive__mode_8cpp.html#a6b615c34054150d837dc45ed1c17b297" target="_top" xlink:title="Enhanced interactive command loop with TAB completion for Windows.">
<polygon fill="white" stroke="#666666" points="193,-26.5 77,-26.5 77,-7.5 193,-7.5 193,-26.5"/>
<text text-anchor="middle" x="135" y="-14.5" font-family="Helvetica,sans-Serif" font-size="10.00">run_interactive_loop</text>
</a>
</g>
</g>
<!-- Node5&#45;&gt;Node7 -->
<g id="edge6_Node000005_Node000007" class="edge">
<title>Node5&#45;&gt;Node7</title>
<g id="a_edge6_Node000005_Node000007"><a xlink:title=" ">
<path fill="none" stroke="#63b8ff" d="M218.71,-27.3C210.16,-26.24 201.5,-25.16 193.17,-24.12"/>
<polygon fill="#63b8ff" stroke="#63b8ff" points="218.31,-30.78 228.67,-28.55 219.18,-23.84 218.31,-30.78"/>
</a>
</g>
</g>
<!-- Node7&#45;&gt;Node6 -->
<g id="edge7_Node000007_Node000006" class="edge">
<title>Node7&#45;&gt;Node6</title>
<g id="a_edge7_Node000007_Node000006"><a xlink:title=" ">
<path fill="none" stroke="#63b8ff" d="M67.4,-28.25C57.88,-29.86 48.77,-31.39 41.22,-32.67"/>
<polygon fill="#63b8ff" stroke="#63b8ff" points="68.14,-31.67 77.42,-26.56 66.98,-24.77 68.14,-31.67"/>
</a>
</g>
</g>
<!-- Node8&#45;&gt;Node2 -->
<g id="edge9_Node000008_Node000002" class="edge">
<title>Node8&#45;&gt;Node2</title>
<g id="a_edge9_Node000008_Node000002"><a xlink:title=" ">
<path fill="none" stroke="#63b8ff" d="M826.58,-25.11C818.01,-26.19 809.41,-27.28 801.13,-28.33"/>
<polygon fill="#63b8ff" stroke="#63b8ff" points="827.1,-28.57 836.58,-23.85 826.22,-21.63 827.1,-28.57"/>
</a>
</g>
</g>
</g>
</svg>

<g id="navigator" transform="translate(0 0)" fill="#404254">
  <rect fill="#f2f5e9" fill-opacity="0.5" stroke="#606060" stroke-width=".5" x="0" y="0" width="60" height="60"/>
  <use id="zoomplus" xlink:href="#zoomPlus" x="17" y="9" onmousedown="handleZoom(evt,'in')"/>
  <use id="zoomminus" xlink:href="#zoomMin" x="42" y="9" onmousedown="handleZoom(evt,'out')"/>
  <use id="reset" xlink:href="#resetDef" x="30" y="36" onmousedown="handleReset()"/>
   <use id="arrowup" xlink:href="#arrowUp" x="0" y="0" onmousedown="handlePan(0,-1)"/>
  <use id="arrowright" xlink:href="#arrowRight" x="0" y="0" onmousedown="handlePan(1,0)"/>
  <use id="arrowdown" xlink:href="#arrowDown" x="0" y="0" onmousedown="handlePan(0,1)"/>
  <use id="arrowleft" xlink:href="#arrowLeft" x="0" y="0" onmousedown="handlePan(-1,0)"/>
</g>
<svg viewBox="0 0 15 15" width="100%" height="30px" preserveAspectRatio="xMaxYMin meet">
 <g id="arrow_out" transform="scale(0.3 0.3)">
  <a xlink:href="classCreateInput_a781b25e4d5f838ad1a106649a487f5e0_icgraph_org.svg" target="_base">
   <rect id="button" ry="5" rx="5" y="6" x="6" height="38" width="38"
        fill="#f2f5e9" fill-opacity="0.5" stroke="#606060" stroke-width="1.0"/>
   <path id="arrow"
     d="M 11.500037,31.436501 C 11.940474,20.09759 22.043105,11.32322 32.158766,21.979434 L 37.068811,17.246167 C 37.068811,17.246167 37.088388,32 37.088388,32 L 22.160133,31.978069 C 22.160133,31.978069 26.997745,27.140456 26.997745,27.140456 C 18.528582,18.264221 13.291696,25.230495 11.500037,31.436501 z"
     style="fill:#404040;"/>
  </a>
 </g>
</svg>

<style type='text/css'>
<![CDATA[
[data-mouse-over-selected='false'] { opacity: 0.7; }
[data-mouse-over-selected='true']  { opacity: 1.0; }
]]>
</style>
<script type="application/ecmascript"><![CDATA[
document.addEventListener('DOMContentLoaded', (event) => {
  highlightEdges();
  highlightAdjacentNodes();
});
]]></script>
</svg>
