<?xml version="1.0" encoding="UTF-8" standalone="no"?>
<!DOCTYPE svg PUBLIC "-//W3C//DTD SVG 1.1//EN"
 "http://www.w3.org/Graphics/SVG/1.1/DTD/svg11.dtd">
<!-- Generated by graphviz version 2.43.0 (0)
 -->
<!-- Title: ParameterParser::loadFromFile Pages: 1 -->
<svg width="524pt" height="114pt"
 viewBox="0.00 0.00 524.00 113.50" xmlns="http://www.w3.org/2000/svg" xmlns:xlink="http://www.w3.org/1999/xlink">
<g id="graph0" class="graph" transform="scale(1 1) rotate(0) translate(4 109.5)">
<title>ParameterParser::loadFromFile</title>
<!-- Node1 -->
<g id="Node000001" class="node">
<title>Node1</title>
<g id="a_Node000001"><a xlink:title="Load parameters from a file.">
<polygon fill="#999999" stroke="#666666" points="166,-67.5 0,-67.5 0,-48.5 166,-48.5 166,-67.5"/>
<text text-anchor="middle" x="83" y="-55.5" font-family="Helvetica,sans-Serif" font-size="10.00">ParameterParser::loadFromFile</text>
</a>
</g>
</g>
<!-- Node2 -->
<g id="Node000002" class="node">
<title>Node2</title>
<g id="a_Node000002"><a xlink:href="classParameterParser.html#ac85db5fadcadc7b6edc915d15dfba8f8" target="_top" xlink:title="Parse a line from the parameter file.">
<polygon fill="white" stroke="#666666" points="354.5,-105.5 204.5,-105.5 204.5,-86.5 354.5,-86.5 354.5,-105.5"/>
<text text-anchor="middle" x="279.5" y="-93.5" font-family="Helvetica,sans-Serif" font-size="10.00">ParameterParser::parseLine</text>
</a>
</g>
</g>
<!-- Node1&#45;&gt;Node2 -->
<g id="edge1_Node000001_Node000002" class="edge">
<title>Node1&#45;&gt;Node2</title>
<g id="a_edge1_Node000001_Node000002"><a xlink:title=" ">
<path fill="none" stroke="#63b8ff" d="M132.83,-67.54C159.19,-72.69 191.92,-79.08 219.67,-84.51"/>
<polygon fill="#63b8ff" stroke="#63b8ff" points="219.16,-87.97 229.65,-86.46 220.51,-81.1 219.16,-87.97"/>
</a>
</g>
</g>
<!-- Node3 -->
<g id="Node000003" class="node">
<title>Node3</title>
<g id="a_Node000003"><a xlink:href="classParameterParser.html#a8c06b2d410e65e0dd2347fa92c99f640" target="_top" xlink:title="Trim whitespace from string.">
<polygon fill="white" stroke="#666666" points="516,-67.5 393,-67.5 393,-48.5 516,-48.5 516,-67.5"/>
<text text-anchor="middle" x="454.5" y="-55.5" font-family="Helvetica,sans-Serif" font-size="10.00">ParameterParser::trim</text>
</a>
</g>
</g>
<!-- Node1&#45;&gt;Node3 -->
<g id="edge5_Node000001_Node000003" class="edge">
<title>Node1&#45;&gt;Node3</title>
<g id="a_edge5_Node000001_Node000003"><a xlink:title=" ">
<path fill="none" stroke="#63b8ff" d="M166,-58C231.06,-58 321.03,-58 382.91,-58"/>
<polygon fill="#63b8ff" stroke="#63b8ff" points="382.97,-61.5 392.97,-58 382.97,-54.5 382.97,-61.5"/>
</a>
</g>
</g>
<!-- Node4 -->
<g id="Node000004" class="node">
<title>Node4</title>
<g id="a_Node000004"><a xlink:href="classParameterParser.html#aa9c4b23545a5a5e3990b88b9f38c71d3" target="_top" xlink:title="Handle multi&#45;line parameter values.">
<polygon fill="white" stroke="#666666" points="357,-30 202,-30 202,0 357,0 357,-30"/>
<text text-anchor="start" x="210" y="-18" font-family="Helvetica,sans-Serif" font-size="10.00">ParameterParser::parseMulti</text>
<text text-anchor="middle" x="279.5" y="-7" font-family="Helvetica,sans-Serif" font-size="10.00">LineValue</text>
</a>
</g>
</g>
<!-- Node1&#45;&gt;Node4 -->
<g id="edge3_Node000001_Node000004" class="edge">
<title>Node1&#45;&gt;Node4</title>
<g id="a_edge3_Node000001_Node000004"><a xlink:title=" ">
<path fill="none" stroke="#63b8ff" d="M127.17,-48.46C148.8,-43.67 175.68,-37.73 200.75,-32.19"/>
<polygon fill="#63b8ff" stroke="#63b8ff" points="201.61,-35.58 210.62,-30.01 200.1,-28.75 201.61,-35.58"/>
</a>
</g>
</g>
<!-- Node2&#45;&gt;Node3 -->
<g id="edge2_Node000002_Node000003" class="edge">
<title>Node2&#45;&gt;Node3</title>
<g id="a_edge2_Node000002_Node000003"><a xlink:title=" ">
<path fill="none" stroke="#63b8ff" d="M324.16,-86.41C347.29,-81.33 375.9,-75.04 400.33,-69.68"/>
<polygon fill="#63b8ff" stroke="#63b8ff" points="401.14,-73.08 410.16,-67.52 399.64,-66.25 401.14,-73.08"/>
</a>
</g>
</g>
<!-- Node4&#45;&gt;Node3 -->
<g id="edge4_Node000004_Node000003" class="edge">
<title>Node4&#45;&gt;Node3</title>
<g id="a_edge4_Node000004_Node000003"><a xlink:title=" ">
<path fill="none" stroke="#63b8ff" d="M341.01,-30.04C362.1,-35.28 385.46,-41.09 405.4,-46.04"/>
<polygon fill="#63b8ff" stroke="#63b8ff" points="404.64,-49.46 415.19,-48.48 406.33,-42.67 404.64,-49.46"/>
</a>
</g>
</g>
</g>
</svg>
