<?xml version="1.0" encoding="UTF-8" standalone="no"?>
<!DOCTYPE svg PUBLIC "-//W3C//DTD SVG 1.1//EN"
 "http://www.w3.org/Graphics/SVG/1.1/DTD/svg11.dtd">
<!-- Generated by graphviz version 2.43.0 (0)
 -->
<!-- Title: core/command_system.h Pages: 1 -->
<svg width="692pt" height="137pt"
 viewBox="0.00 0.00 691.50 137.00" xmlns="http://www.w3.org/2000/svg" xmlns:xlink="http://www.w3.org/1999/xlink">
<g id="graph0" class="graph" transform="scale(1 1) rotate(0) translate(4 133)">
<title>core/command_system.h</title>
<!-- Node1 -->
<g id="Node000001" class="node">
<title>Node1</title>
<g id="a_Node000001"><a xlink:title="Command parsing and execution system for Gaussian Extractor.">
<polygon fill="#999999" stroke="#666666" points="397.5,-129 257.5,-129 257.5,-110 397.5,-110 397.5,-129"/>
<text text-anchor="middle" x="327.5" y="-117" font-family="Helvetica,sans-Serif" font-size="10.00">core/command_system.h</text>
</a>
</g>
</g>
<!-- Node2 -->
<g id="Node000002" class="node">
<title>Node2</title>
<g id="a_Node000002"><a xlink:href="command__system_8cpp.html" target="_top" xlink:title=" ">
<polygon fill="white" stroke="#666666" points="151,-19 0,-19 0,0 151,0 151,-19"/>
<text text-anchor="middle" x="75.5" y="-7" font-family="Helvetica,sans-Serif" font-size="10.00">core/command_system.cpp</text>
</a>
</g>
</g>
<!-- Node1&#45;&gt;Node2 -->
<g id="edge1_Node000001_Node000002" class="edge">
<title>Node1&#45;&gt;Node2</title>
<g id="a_edge1_Node000001_Node000002"><a xlink:title=" ">
<path fill="none" stroke="#63b8ff" d="M273.08,-107.71C241.89,-100.42 202.51,-89.31 169.5,-74 136.63,-58.75 102.45,-32.62 85.82,-19.12"/>
<polygon fill="#63b8ff" stroke="#63b8ff" points="272.38,-111.14 282.91,-109.94 273.93,-104.31 272.38,-111.14"/>
</a>
</g>
</g>
<!-- Node3 -->
<g id="Node000003" class="node">
<title>Node3</title>
<g id="a_Node000003"><a xlink:href="help__utils_8cpp.html" target="_top" xlink:title="Implementation of help utility functions.">
<polygon fill="white" stroke="#666666" points="277.5,-19 169.5,-19 169.5,0 277.5,0 277.5,-19"/>
<text text-anchor="middle" x="223.5" y="-7" font-family="Helvetica,sans-Serif" font-size="10.00">core/help_utils.cpp</text>
</a>
</g>
</g>
<!-- Node1&#45;&gt;Node3 -->
<g id="edge2_Node000001_Node000003" class="edge">
<title>Node1&#45;&gt;Node3</title>
<g id="a_edge2_Node000001_Node000003"><a xlink:title=" ">
<path fill="none" stroke="#63b8ff" d="M317.8,-100.83C309.9,-87.38 297.9,-68.87 284.5,-55 270.48,-40.48 251.25,-27.32 238.16,-19.15"/>
<polygon fill="#63b8ff" stroke="#63b8ff" points="314.79,-102.63 322.78,-109.59 320.88,-99.17 314.79,-102.63"/>
</a>
</g>
</g>
<!-- Node4 -->
<g id="Node000004" class="node">
<title>Node4</title>
<g id="a_Node000004"><a xlink:href="help__utils_8h.html" target="_top" xlink:title="Help utility functions for all commands.">
<polygon fill="white" stroke="#666666" points="276,-74 179,-74 179,-55 276,-55 276,-74"/>
<text text-anchor="middle" x="227.5" y="-62" font-family="Helvetica,sans-Serif" font-size="10.00">core/help_utils.h</text>
</a>
</g>
</g>
<!-- Node1&#45;&gt;Node4 -->
<g id="edge3_Node000001_Node000004" class="edge">
<title>Node1&#45;&gt;Node4</title>
<g id="a_edge3_Node000001_Node000004"><a xlink:title=" ">
<path fill="none" stroke="#63b8ff" d="M302.47,-105.23C284.13,-95.51 259.76,-82.6 243.86,-74.17"/>
<polygon fill="#63b8ff" stroke="#63b8ff" points="300.96,-108.39 311.43,-109.98 304.24,-102.21 300.96,-108.39"/>
</a>
</g>
</g>
<!-- Node5 -->
<g id="Node000005" class="node">
<title>Node5</title>
<g id="a_Node000005"><a xlink:href="interactive__mode_8cpp.html" target="_top" xlink:title="Implementation of interactive mode functionality.">
<polygon fill="white" stroke="#666666" points="441.5,-19 295.5,-19 295.5,0 441.5,0 441.5,-19"/>
<text text-anchor="middle" x="368.5" y="-7" font-family="Helvetica,sans-Serif" font-size="10.00">core/interactive_mode.cpp</text>
</a>
</g>
</g>
<!-- Node1&#45;&gt;Node5 -->
<g id="edge7_Node000001_Node000005" class="edge">
<title>Node1&#45;&gt;Node5</title>
<g id="a_edge7_Node000001_Node000005"><a xlink:title=" ">
<path fill="none" stroke="#63b8ff" d="M334.48,-100.12C343.42,-76.56 358.57,-36.66 365.21,-19.16"/>
<polygon fill="#63b8ff" stroke="#63b8ff" points="331.13,-99.07 330.86,-109.66 337.68,-101.56 331.13,-99.07"/>
</a>
</g>
</g>
<!-- Node6 -->
<g id="Node000006" class="node">
<title>Node6</title>
<g id="a_Node000006"><a xlink:href="module__executor_8h.html" target="_top" xlink:title="Command execution functions for Gaussian Extractor.">
<polygon fill="white" stroke="#666666" points="598,-74 465,-74 465,-55 598,-55 598,-74"/>
<text text-anchor="middle" x="531.5" y="-62" font-family="Helvetica,sans-Serif" font-size="10.00">core/module_executor.h</text>
</a>
</g>
</g>
<!-- Node1&#45;&gt;Node6 -->
<g id="edge8_Node000001_Node000006" class="edge">
<title>Node1&#45;&gt;Node6</title>
<g id="a_edge8_Node000001_Node000006"><a xlink:title=" ">
<path fill="none" stroke="#63b8ff" d="M370.08,-107.44C408.27,-97.52 463.52,-83.16 498.47,-74.08"/>
<polygon fill="#63b8ff" stroke="#63b8ff" points="369.07,-104.08 360.28,-109.98 370.83,-110.86 369.07,-104.08"/>
</a>
</g>
</g>
<!-- Node8 -->
<g id="Node000008" class="node">
<title>Node8</title>
<g id="a_Node000008"><a xlink:href="main_8cpp.html" target="_top" xlink:title="Main entry point for the Gaussian Extractor application.">
<polygon fill="white" stroke="#666666" points="683.5,-19 621.5,-19 621.5,0 683.5,0 683.5,-19"/>
<text text-anchor="middle" x="652.5" y="-7" font-family="Helvetica,sans-Serif" font-size="10.00">main.cpp</text>
</a>
</g>
</g>
<!-- Node1&#45;&gt;Node8 -->
<g id="edge11_Node000001_Node000008" class="edge">
<title>Node1&#45;&gt;Node8</title>
<g id="a_edge11_Node000001_Node000008"><a xlink:title=" ">
<path fill="none" stroke="#63b8ff" d="M407.91,-112.66C478.55,-106.29 574.97,-94.21 607.5,-74 628.85,-60.74 642.93,-33.23 649.03,-19.17"/>
<polygon fill="#63b8ff" stroke="#63b8ff" points="407.35,-109.2 397.69,-113.56 407.96,-116.17 407.35,-109.2"/>
</a>
</g>
</g>
<!-- Node4&#45;&gt;Node2 -->
<g id="edge4_Node000004_Node000002" class="edge">
<title>Node4&#45;&gt;Node2</title>
<g id="a_edge4_Node000004_Node000002"><a xlink:title=" ">
<path fill="none" stroke="#63b8ff" d="M193.57,-51.67C165.23,-41.79 125.48,-27.93 100.11,-19.08"/>
<polygon fill="#63b8ff" stroke="#63b8ff" points="192.48,-55 203.08,-54.98 194.79,-48.39 192.48,-55"/>
</a>
</g>
</g>
<!-- Node4&#45;&gt;Node3 -->
<g id="edge5_Node000004_Node000003" class="edge">
<title>Node4&#45;&gt;Node3</title>
<g id="a_edge5_Node000004_Node000003"><a xlink:title=" ">
<path fill="none" stroke="#63b8ff" d="M226.08,-44.66C225.42,-35.93 224.67,-25.99 224.15,-19.09"/>
<polygon fill="#63b8ff" stroke="#63b8ff" points="222.6,-45.04 226.84,-54.75 229.58,-44.51 222.6,-45.04"/>
</a>
</g>
</g>
<!-- Node4&#45;&gt;Node5 -->
<g id="edge6_Node000004_Node000005" class="edge">
<title>Node4&#45;&gt;Node5</title>
<g id="a_edge6_Node000004_Node000005"><a xlink:title=" ">
<path fill="none" stroke="#63b8ff" d="M259.64,-51.42C285.79,-41.59 322.09,-27.95 345.43,-19.17"/>
<polygon fill="#63b8ff" stroke="#63b8ff" points="258.28,-48.19 250.15,-54.98 260.75,-54.74 258.28,-48.19"/>
</a>
</g>
</g>
<!-- Node7 -->
<g id="Node000007" class="node">
<title>Node7</title>
<g id="a_Node000007"><a xlink:href="module__executor_8cpp.html" target="_top" xlink:title=" ">
<polygon fill="white" stroke="#666666" points="603.5,-19 459.5,-19 459.5,0 603.5,0 603.5,-19"/>
<text text-anchor="middle" x="531.5" y="-7" font-family="Helvetica,sans-Serif" font-size="10.00">core/module_executor.cpp</text>
</a>
</g>
</g>
<!-- Node6&#45;&gt;Node7 -->
<g id="edge9_Node000006_Node000007" class="edge">
<title>Node6&#45;&gt;Node7</title>
<g id="a_edge9_Node000006_Node000007"><a xlink:title=" ">
<path fill="none" stroke="#63b8ff" d="M531.5,-44.66C531.5,-35.93 531.5,-25.99 531.5,-19.09"/>
<polygon fill="#63b8ff" stroke="#63b8ff" points="528,-44.75 531.5,-54.75 535,-44.75 528,-44.75"/>
</a>
</g>
</g>
<!-- Node6&#45;&gt;Node8 -->
<g id="edge10_Node000006_Node000008" class="edge">
<title>Node6&#45;&gt;Node8</title>
<g id="a_edge10_Node000006_Node000008"><a xlink:title=" ">
<path fill="none" stroke="#63b8ff" d="M560.27,-50.9C582.62,-41.11 613.02,-27.79 632.71,-19.17"/>
<polygon fill="#63b8ff" stroke="#63b8ff" points="558.7,-47.77 550.94,-54.98 561.5,-54.18 558.7,-47.77"/>
</a>
</g>
</g>
</g>
</svg>
