<?xml version="1.0" encoding="UTF-8" standalone="no"?>
<!DOCTYPE svg PUBLIC "-//W3C//DTD SVG 1.1//EN"
 "http://www.w3.org/Graphics/SVG/1.1/DTD/svg11.dtd">
<!-- Generated by graphviz version 2.43.0 (0)
 -->
<!-- Title: core/command_system.cpp Pages: 1 -->
<svg width="1032pt" height="247pt"
 viewBox="0.00 0.00 1032.00 247.00" xmlns="http://www.w3.org/2000/svg" xmlns:xlink="http://www.w3.org/1999/xlink">
<g id="graph0" class="graph" transform="scale(1 1) rotate(0) translate(4 243)">
<title>core/command_system.cpp</title>
<!-- Node1 -->
<g id="Node000001" class="node">
<title>Node1</title>
<g id="a_Node000001"><a xlink:title=" ">
<polygon fill="#999999" stroke="#666666" points="687.5,-239 536.5,-239 536.5,-220 687.5,-220 687.5,-239"/>
<text text-anchor="middle" x="612" y="-227" font-family="Helvetica,sans-Serif" font-size="10.00">core/command_system.cpp</text>
</a>
</g>
</g>
<!-- Node2 -->
<g id="Node000002" class="node">
<title>Node2</title>
<g id="a_Node000002"><a xlink:href="command__system_8h.html" target="_top" xlink:title="Command parsing and execution system for Gaussian Extractor.">
<polygon fill="white" stroke="#666666" points="469,-129 353,-129 353,-110 469,-110 469,-129"/>
<text text-anchor="middle" x="411" y="-117" font-family="Helvetica,sans-Serif" font-size="10.00">command_system.h</text>
</a>
</g>
</g>
<!-- Node1&#45;&gt;Node2 -->
<g id="edge1_Node000001_Node000002" class="edge">
<title>Node1&#45;&gt;Node2</title>
<g id="a_edge1_Node000001_Node000002"><a xlink:title=" ">
<path fill="none" stroke="#63b8ff" d="M586.36,-219.98C563.59,-211.98 529.71,-199.02 502,-184 475.51,-169.64 447.42,-149.12 429.58,-135.33"/>
<polygon fill="#63b8ff" stroke="#63b8ff" points="431.72,-132.57 421.69,-129.16 427.41,-138.08 431.72,-132.57"/>
</a>
</g>
</g>
<!-- Node3 -->
<g id="Node000003" class="node">
<title>Node3</title>
<g id="a_Node000003"><a xlink:href="config__manager_8h.html" target="_top" xlink:title="Configuration management system for Gaussian Extractor.">
<polygon fill="white" stroke="#666666" points="198.5,-74 95.5,-74 95.5,-55 198.5,-55 198.5,-74"/>
<text text-anchor="middle" x="147" y="-62" font-family="Helvetica,sans-Serif" font-size="10.00">config_manager.h</text>
</a>
</g>
</g>
<!-- Node1&#45;&gt;Node3 -->
<g id="edge19_Node000001_Node000003" class="edge">
<title>Node1&#45;&gt;Node3</title>
<g id="a_edge19_Node000001_Node000003"><a xlink:title=" ">
<path fill="none" stroke="#63b8ff" d="M561.21,-219.94C520.77,-212.44 463.01,-200.21 414,-184 322.07,-153.6 218.76,-102.63 172.17,-78.69"/>
<polygon fill="#63b8ff" stroke="#63b8ff" points="173.6,-75.49 163.11,-74 170.39,-81.71 173.6,-75.49"/>
</a>
</g>
</g>
<!-- Node4 -->
<g id="Node000004" class="node">
<title>Node4</title>
<g id="a_Node000004"><a xlink:title=" ">
<polygon fill="#e0e0e0" stroke="#999999" points="222,-19 154,-19 154,0 222,0 222,-19"/>
<text text-anchor="middle" x="188" y="-7" font-family="Helvetica,sans-Serif" font-size="10.00">filesystem</text>
</a>
</g>
</g>
<!-- Node1&#45;&gt;Node4 -->
<g id="edge36_Node000001_Node000004" class="edge">
<title>Node1&#45;&gt;Node4</title>
<g id="a_edge36_Node000001_Node000004"><a xlink:title=" ">
<path fill="none" stroke="#63b8ff" d="M548.95,-219.96C420.99,-201.15 138.49,-151.53 86,-74 67.93,-47.32 108.81,-29.71 144.07,-19.95"/>
<polygon fill="#63b8ff" stroke="#63b8ff" points="145.03,-23.32 153.82,-17.4 143.26,-16.55 145.03,-23.32"/>
</a>
</g>
</g>
<!-- Node6 -->
<g id="Node000006" class="node">
<title>Node6</title>
<g id="a_Node000006"><a xlink:title=" ">
<polygon fill="#e0e0e0" stroke="#999999" points="60,-19 0,-19 0,0 60,0 60,-19"/>
<text text-anchor="middle" x="30" y="-7" font-family="Helvetica,sans-Serif" font-size="10.00">iostream</text>
</a>
</g>
</g>
<!-- Node1&#45;&gt;Node6 -->
<g id="edge37_Node000001_Node000006" class="edge">
<title>Node1&#45;&gt;Node6</title>
<g id="a_edge37_Node000001_Node000006"><a xlink:title=" ">
<path fill="none" stroke="#63b8ff" d="M536.42,-223.76C466.87,-218.19 361.29,-206.67 272,-184 206,-167.24 185.39,-167.18 129,-129 88.65,-101.68 55.69,-53.41 39.96,-27.72"/>
<polygon fill="#63b8ff" stroke="#63b8ff" points="42.93,-25.86 34.8,-19.07 36.92,-29.45 42.93,-25.86"/>
</a>
</g>
</g>
<!-- Node7 -->
<g id="Node000007" class="node">
<title>Node7</title>
<g id="a_Node000007"><a xlink:title=" ">
<polygon fill="#e0e0e0" stroke="#999999" points="597,-19 553,-19 553,0 597,0 597,-19"/>
<text text-anchor="middle" x="575" y="-7" font-family="Helvetica,sans-Serif" font-size="10.00">string</text>
</a>
</g>
</g>
<!-- Node1&#45;&gt;Node7 -->
<g id="edge39_Node000001_Node000007" class="edge">
<title>Node1&#45;&gt;Node7</title>
<g id="a_edge39_Node000001_Node000007"><a xlink:title=" ">
<path fill="none" stroke="#63b8ff" d="M612.38,-219.84C612.81,-207.59 613.17,-184.51 611,-165 605.47,-115.36 600.12,-103.45 588,-55 585.85,-46.41 583.15,-36.99 580.77,-29.03"/>
<polygon fill="#63b8ff" stroke="#63b8ff" points="584.06,-27.85 577.79,-19.31 577.37,-29.9 584.06,-27.85"/>
</a>
</g>
</g>
<!-- Node11 -->
<g id="Node000011" class="node">
<title>Node11</title>
<g id="a_Node000011"><a xlink:title=" ">
<polygon fill="#e0e0e0" stroke="#999999" points="849,-19 785,-19 785,0 849,0 849,-19"/>
<text text-anchor="middle" x="817" y="-7" font-family="Helvetica,sans-Serif" font-size="10.00">algorithm</text>
</a>
</g>
</g>
<!-- Node1&#45;&gt;Node11 -->
<g id="edge34_Node000001_Node000011" class="edge">
<title>Node1&#45;&gt;Node11</title>
<g id="a_edge34_Node000001_Node000011"><a xlink:title=" ">
<path fill="none" stroke="#63b8ff" d="M666.59,-219.94C693.55,-213.56 725.3,-202.61 749,-184 794.21,-148.51 801.29,-129.29 817,-74 821.15,-59.4 820.83,-42.14 819.66,-29.3"/>
<polygon fill="#63b8ff" stroke="#63b8ff" points="823.13,-28.86 818.49,-19.34 816.18,-29.67 823.13,-28.86"/>
</a>
</g>
</g>
<!-- Node13 -->
<g id="Node000013" class="node">
<title>Node13</title>
<g id="a_Node000013"><a xlink:title=" ">
<polygon fill="#e0e0e0" stroke="#999999" points="916.5,-19 867.5,-19 867.5,0 916.5,0 916.5,-19"/>
<text text-anchor="middle" x="892" y="-7" font-family="Helvetica,sans-Serif" font-size="10.00">cstdlib</text>
</a>
</g>
</g>
<!-- Node1&#45;&gt;Node13 -->
<g id="edge35_Node000001_Node000013" class="edge">
<title>Node1&#45;&gt;Node13</title>
<g id="a_edge35_Node000001_Node000013"><a xlink:title=" ">
<path fill="none" stroke="#63b8ff" d="M678.29,-219.96C709.03,-213.65 744.9,-202.75 773,-184 832.2,-144.5 870.22,-64.62 885.01,-28.71"/>
<polygon fill="#63b8ff" stroke="#63b8ff" points="888.4,-29.66 888.85,-19.07 881.89,-27.07 888.4,-29.66"/>
</a>
</g>
</g>
<!-- Node16 -->
<g id="Node000016" class="node">
<title>Node16</title>
<g id="a_Node000016"><a xlink:href="help__utils_8h.html" target="_top" xlink:title="Help utility functions for all commands.">
<polygon fill="white" stroke="#666666" points="583.5,-184 510.5,-184 510.5,-165 583.5,-165 583.5,-184"/>
<text text-anchor="middle" x="547" y="-172" font-family="Helvetica,sans-Serif" font-size="10.00">help_utils.h</text>
</a>
</g>
</g>
<!-- Node1&#45;&gt;Node16 -->
<g id="edge20_Node000001_Node000016" class="edge">
<title>Node1&#45;&gt;Node16</title>
<g id="a_edge20_Node000001_Node000016"><a xlink:title=" ">
<path fill="none" stroke="#63b8ff" d="M601.56,-219.98C591.85,-212.07 577.18,-200.11 565.5,-190.58"/>
<polygon fill="#63b8ff" stroke="#63b8ff" points="567.6,-187.78 557.63,-184.17 563.17,-193.2 567.6,-187.78"/>
</a>
</g>
</g>
<!-- Node17 -->
<g id="Node000017" class="node">
<title>Node17</title>
<g id="a_Node000017"><a xlink:href="parameter__parser_8h.html" target="_top" xlink:title="Header file for parameter file parsing functionality.">
<polygon fill="white" stroke="#666666" points="546,-74 434,-74 434,-55 546,-55 546,-74"/>
<text text-anchor="middle" x="490" y="-62" font-family="Helvetica,sans-Serif" font-size="10.00">parameter_parser.h</text>
</a>
</g>
</g>
<!-- Node1&#45;&gt;Node17 -->
<g id="edge23_Node000001_Node000017" class="edge">
<title>Node1&#45;&gt;Node17</title>
<g id="a_edge23_Node000001_Node000017"><a xlink:title=" ">
<path fill="none" stroke="#63b8ff" d="M610.82,-219.71C608.79,-206.9 603.77,-182.69 593,-165 571.34,-129.41 533.9,-97.77 510.62,-80.17"/>
<polygon fill="#63b8ff" stroke="#63b8ff" points="512.57,-77.26 502.45,-74.13 508.41,-82.89 512.57,-77.26"/>
</a>
</g>
</g>
<!-- Node19 -->
<g id="Node000019" class="node">
<title>Node19</title>
<g id="a_Node000019"><a xlink:href="utils_8h.html" target="_top" xlink:title="Universial functions and classes for all modules.">
<polygon fill="white" stroke="#666666" points="263.5,-74 216.5,-74 216.5,-55 263.5,-55 263.5,-74"/>
<text text-anchor="middle" x="240" y="-62" font-family="Helvetica,sans-Serif" font-size="10.00">utils.h</text>
</a>
</g>
</g>
<!-- Node1&#45;&gt;Node19 -->
<g id="edge28_Node000001_Node000019" class="edge">
<title>Node1&#45;&gt;Node19</title>
<g id="a_edge28_Node000001_Node000019"><a xlink:title=" ">
<path fill="none" stroke="#63b8ff" d="M579.71,-219.94C549.86,-211.72 504.44,-198.46 466,-184 410.33,-163.06 396.59,-156.77 344,-129 314.64,-113.49 282.18,-93.13 261.47,-79.7"/>
<polygon fill="#63b8ff" stroke="#63b8ff" points="263.12,-76.59 252.83,-74.05 259.29,-82.45 263.12,-76.59"/>
</a>
</g>
</g>
<!-- Node20 -->
<g id="Node000020" class="node">
<title>Node20</title>
<g id="a_Node000020"><a xlink:href="version_8h.html" target="_top" xlink:title="Version information and build metadata for Gaussian Extractor.">
<polygon fill="white" stroke="#666666" points="740,-184 678,-184 678,-165 740,-165 740,-184"/>
<text text-anchor="middle" x="709" y="-172" font-family="Helvetica,sans-Serif" font-size="10.00">version.h</text>
</a>
</g>
</g>
<!-- Node1&#45;&gt;Node20 -->
<g id="edge31_Node000001_Node000020" class="edge">
<title>Node1&#45;&gt;Node20</title>
<g id="a_edge31_Node000001_Node000020"><a xlink:title=" ">
<path fill="none" stroke="#63b8ff" d="M627.58,-219.98C642.77,-211.69 666.1,-198.94 683.9,-189.22"/>
<polygon fill="#63b8ff" stroke="#63b8ff" points="686.03,-192.04 693.13,-184.17 682.68,-185.89 686.03,-192.04"/>
</a>
</g>
</g>
<!-- Node22 -->
<g id="Node000022" class="node">
<title>Node22</title>
<g id="a_Node000022"><a xlink:title=" ">
<polygon fill="#e0e0e0" stroke="#999999" points="958,-184 902,-184 902,-165 958,-165 958,-184"/>
<text text-anchor="middle" x="930" y="-172" font-family="Helvetica,sans-Serif" font-size="10.00">sstream</text>
</a>
</g>
</g>
<!-- Node1&#45;&gt;Node22 -->
<g id="edge38_Node000001_Node000022" class="edge">
<title>Node1&#45;&gt;Node22</title>
<g id="a_edge38_Node000001_Node000022"><a xlink:title=" ">
<path fill="none" stroke="#63b8ff" d="M668.94,-220C724.82,-211.49 812.43,-197.73 888,-184 889.1,-183.8 890.21,-183.6 891.33,-183.39"/>
<polygon fill="#63b8ff" stroke="#63b8ff" points="892.41,-186.74 901.56,-181.41 891.08,-179.87 892.41,-186.74"/>
</a>
</g>
</g>
<!-- Node23 -->
<g id="Node000023" class="node">
<title>Node23</title>
<g id="a_Node000023"><a xlink:title=" ">
<polygon fill="#e0e0e0" stroke="#999999" points="1024,-184 976,-184 976,-165 1024,-165 1024,-184"/>
<text text-anchor="middle" x="1000" y="-172" font-family="Helvetica,sans-Serif" font-size="10.00">thread</text>
</a>
</g>
</g>
<!-- Node1&#45;&gt;Node23 -->
<g id="edge40_Node000001_Node000023" class="edge">
<title>Node1&#45;&gt;Node23</title>
<g id="a_edge40_Node000001_Node000023"><a xlink:title=" ">
<path fill="none" stroke="#63b8ff" d="M687.58,-221.84C757.42,-215.05 864.21,-203.04 965.8,-184"/>
<polygon fill="#63b8ff" stroke="#63b8ff" points="966.76,-187.38 975.93,-182.08 965.45,-180.51 966.76,-187.38"/>
</a>
</g>
</g>
<!-- Node2&#45;&gt;Node3 -->
<g id="edge2_Node000002_Node000003" class="edge">
<title>Node2&#45;&gt;Node3</title>
<g id="a_edge2_Node000002_Node000003"><a xlink:title=" ">
<path fill="none" stroke="#63b8ff" d="M368.58,-109.98C322.63,-100.76 249.25,-86.03 199.65,-76.07"/>
<polygon fill="#63b8ff" stroke="#63b8ff" points="200.24,-72.62 189.75,-74.08 198.86,-79.48 200.24,-72.62"/>
</a>
</g>
</g>
<!-- Node2&#45;&gt;Node7 -->
<g id="edge16_Node000002_Node000007" class="edge">
<title>Node2&#45;&gt;Node7</title>
<g id="a_edge16_Node000002_Node000007"><a xlink:title=" ">
<path fill="none" stroke="#63b8ff" d="M469.1,-113.26C498.32,-107.76 532.27,-96.6 555,-74 566.9,-62.17 571.73,-43.33 573.69,-29.24"/>
<polygon fill="#63b8ff" stroke="#63b8ff" points="577.18,-29.49 574.72,-19.18 570.22,-28.77 577.18,-29.49"/>
</a>
</g>
</g>
<!-- Node8 -->
<g id="Node000008" class="node">
<title>Node8</title>
<g id="a_Node000008"><a xlink:title=" ">
<polygon fill="#e0e0e0" stroke="#999999" points="334.5,-19 241.5,-19 241.5,0 334.5,0 334.5,-19"/>
<text text-anchor="middle" x="288" y="-7" font-family="Helvetica,sans-Serif" font-size="10.00">unordered_map</text>
</a>
</g>
</g>
<!-- Node2&#45;&gt;Node8 -->
<g id="edge17_Node000002_Node000008" class="edge">
<title>Node2&#45;&gt;Node8</title>
<g id="a_edge17_Node000002_Node000008"><a xlink:title=" ">
<path fill="none" stroke="#63b8ff" d="M395.01,-109.98C380.41,-101.8 358.62,-88.56 342,-74 326.08,-60.05 310.73,-41.32 300.49,-27.82"/>
<polygon fill="#63b8ff" stroke="#63b8ff" points="303.04,-25.38 294.27,-19.43 297.41,-29.55 303.04,-25.38"/>
</a>
</g>
</g>
<!-- Node9 -->
<g id="Node000009" class="node">
<title>Node9</title>
<g id="a_Node000009"><a xlink:title=" ">
<polygon fill="#e0e0e0" stroke="#999999" points="399.5,-19 352.5,-19 352.5,0 399.5,0 399.5,-19"/>
<text text-anchor="middle" x="376" y="-7" font-family="Helvetica,sans-Serif" font-size="10.00">vector</text>
</a>
</g>
</g>
<!-- Node2&#45;&gt;Node9 -->
<g id="edge18_Node000002_Node000009" class="edge">
<title>Node2&#45;&gt;Node9</title>
<g id="a_edge18_Node000002_Node000009"><a xlink:title=" ">
<path fill="none" stroke="#63b8ff" d="M390.48,-110C375.98,-102.77 357.65,-90.86 349,-74 341.09,-58.59 350.73,-40.32 360.62,-27.35"/>
<polygon fill="#63b8ff" stroke="#63b8ff" points="363.6,-29.24 367.3,-19.31 358.22,-24.77 363.6,-29.24"/>
</a>
</g>
</g>
<!-- Node10 -->
<g id="Node000010" class="node">
<title>Node10</title>
<g id="a_Node000010"><a xlink:href="job__scheduler_8h.html" target="_top" xlink:title="Job scheduler detection and resource management for HPC environments.">
<polygon fill="white" stroke="#666666" points="808,-74 716,-74 716,-55 808,-55 808,-74"/>
<text text-anchor="middle" x="762" y="-62" font-family="Helvetica,sans-Serif" font-size="10.00">job_scheduler.h</text>
</a>
</g>
</g>
<!-- Node2&#45;&gt;Node10 -->
<g id="edge9_Node000002_Node000010" class="edge">
<title>Node2&#45;&gt;Node10</title>
<g id="a_edge9_Node000002_Node000010"><a xlink:title=" ">
<path fill="none" stroke="#63b8ff" d="M467.39,-109.98C532.88,-100.1 640.26,-83.88 705.7,-74"/>
<polygon fill="#63b8ff" stroke="#63b8ff" points="706.47,-77.43 715.83,-72.47 705.42,-70.5 706.47,-77.43"/>
</a>
</g>
</g>
<!-- Node15 -->
<g id="Node000015" class="node">
<title>Node15</title>
<g id="a_Node000015"><a xlink:title=" ">
<polygon fill="#e0e0e0" stroke="#999999" points="416,-74 358,-74 358,-55 416,-55 416,-74"/>
<text text-anchor="middle" x="387" y="-62" font-family="Helvetica,sans-Serif" font-size="10.00">memory</text>
</a>
</g>
</g>
<!-- Node2&#45;&gt;Node15 -->
<g id="edge15_Node000002_Node000015" class="edge">
<title>Node2&#45;&gt;Node15</title>
<g id="a_edge15_Node000002_Node000015"><a xlink:title=" ">
<path fill="none" stroke="#63b8ff" d="M407.04,-109.75C403.79,-102.57 399.08,-92.18 395.05,-83.27"/>
<polygon fill="#63b8ff" stroke="#63b8ff" points="398.2,-81.75 390.89,-74.09 391.83,-84.64 398.2,-81.75"/>
</a>
</g>
</g>
<!-- Node3&#45;&gt;Node4 -->
<g id="edge3_Node000003_Node000004" class="edge">
<title>Node3&#45;&gt;Node4</title>
<g id="a_edge3_Node000003_Node000004"><a xlink:title=" ">
<path fill="none" stroke="#63b8ff" d="M153.77,-54.75C159.56,-47.26 168.06,-36.28 175.14,-27.13"/>
<polygon fill="#63b8ff" stroke="#63b8ff" points="178.01,-29.14 181.36,-19.09 172.47,-24.86 178.01,-29.14"/>
</a>
</g>
</g>
<!-- Node5 -->
<g id="Node000005" class="node">
<title>Node5</title>
<g id="a_Node000005"><a xlink:title=" ">
<polygon fill="#e0e0e0" stroke="#999999" points="135.5,-19 80.5,-19 80.5,0 135.5,0 135.5,-19"/>
<text text-anchor="middle" x="108" y="-7" font-family="Helvetica,sans-Serif" font-size="10.00">fstream</text>
</a>
</g>
</g>
<!-- Node3&#45;&gt;Node5 -->
<g id="edge4_Node000003_Node000005" class="edge">
<title>Node3&#45;&gt;Node5</title>
<g id="a_edge4_Node000003_Node000005"><a xlink:title=" ">
<path fill="none" stroke="#63b8ff" d="M140.56,-54.75C135.11,-47.34 127.14,-36.5 120.44,-27.41"/>
<polygon fill="#63b8ff" stroke="#63b8ff" points="123.07,-25.07 114.32,-19.09 117.43,-29.22 123.07,-25.07"/>
</a>
</g>
</g>
<!-- Node3&#45;&gt;Node6 -->
<g id="edge5_Node000003_Node000006" class="edge">
<title>Node3&#45;&gt;Node6</title>
<g id="a_edge5_Node000003_Node000006"><a xlink:title=" ">
<path fill="none" stroke="#63b8ff" d="M128.2,-54.98C109.38,-46.46 80.18,-33.23 58.5,-23.41"/>
<polygon fill="#63b8ff" stroke="#63b8ff" points="59.69,-20.11 49.14,-19.17 56.8,-26.48 59.69,-20.11"/>
</a>
</g>
</g>
<!-- Node3&#45;&gt;Node7 -->
<g id="edge6_Node000003_Node000007" class="edge">
<title>Node3&#45;&gt;Node7</title>
<g id="a_edge6_Node000003_Node000007"><a xlink:title=" ">
<path fill="none" stroke="#63b8ff" d="M198.57,-56.2C201.76,-55.78 204.92,-55.38 208,-55 356.18,-36.69 395.1,-45.69 542,-19 542.22,-18.96 542.44,-18.92 542.66,-18.88"/>
<polygon fill="#63b8ff" stroke="#63b8ff" points="543.7,-22.24 552.73,-16.7 542.22,-15.39 543.7,-22.24"/>
</a>
</g>
</g>
<!-- Node3&#45;&gt;Node8 -->
<g id="edge7_Node000003_Node000008" class="edge">
<title>Node3&#45;&gt;Node8</title>
<g id="a_edge7_Node000003_Node000008"><a xlink:title=" ">
<path fill="none" stroke="#63b8ff" d="M169.65,-54.98C192.85,-46.27 229.12,-32.63 255.4,-22.75"/>
<polygon fill="#63b8ff" stroke="#63b8ff" points="256.8,-25.97 264.93,-19.17 254.34,-19.41 256.8,-25.97"/>
</a>
</g>
</g>
<!-- Node3&#45;&gt;Node9 -->
<g id="edge8_Node000003_Node000009" class="edge">
<title>Node3&#45;&gt;Node9</title>
<g id="a_edge8_Node000003_Node000009"><a xlink:title=" ">
<path fill="none" stroke="#63b8ff" d="M186.72,-54.99C224.48,-46.79 283.1,-33.8 342.36,-19.34"/>
<polygon fill="#63b8ff" stroke="#63b8ff" points="343.38,-22.69 352.26,-16.91 341.71,-15.9 343.38,-22.69"/>
</a>
</g>
</g>
<!-- Node10&#45;&gt;Node7 -->
<g id="edge14_Node000010_Node000007" class="edge">
<title>Node10&#45;&gt;Node7</title>
<g id="a_edge14_Node000010_Node000007"><a xlink:title=" ">
<path fill="none" stroke="#63b8ff" d="M731.96,-54.98C697.66,-45.26 641.79,-29.43 606.78,-19.51"/>
<polygon fill="#63b8ff" stroke="#63b8ff" points="607.64,-16.11 597.07,-16.75 605.73,-22.85 607.64,-16.11"/>
</a>
</g>
</g>
<!-- Node10&#45;&gt;Node11 -->
<g id="edge10_Node000010_Node000011" class="edge">
<title>Node10&#45;&gt;Node11</title>
<g id="a_edge10_Node000010_Node000011"><a xlink:title=" ">
<path fill="none" stroke="#63b8ff" d="M771.08,-54.75C779.09,-47.03 790.96,-35.6 800.62,-26.28"/>
<polygon fill="#63b8ff" stroke="#63b8ff" points="803.31,-28.55 808.09,-19.09 798.46,-23.51 803.31,-28.55"/>
</a>
</g>
</g>
<!-- Node12 -->
<g id="Node000012" class="node">
<title>Node12</title>
<g id="a_Node000012"><a xlink:title=" ">
<polygon fill="#e0e0e0" stroke="#999999" points="766.5,-19 717.5,-19 717.5,0 766.5,0 766.5,-19"/>
<text text-anchor="middle" x="742" y="-7" font-family="Helvetica,sans-Serif" font-size="10.00">cctype</text>
</a>
</g>
</g>
<!-- Node10&#45;&gt;Node12 -->
<g id="edge11_Node000010_Node000012" class="edge">
<title>Node10&#45;&gt;Node12</title>
<g id="a_edge11_Node000010_Node000012"><a xlink:title=" ">
<path fill="none" stroke="#63b8ff" d="M758.7,-54.75C756.02,-47.65 752.15,-37.4 748.81,-28.56"/>
<polygon fill="#63b8ff" stroke="#63b8ff" points="752.05,-27.21 745.24,-19.09 745.5,-29.68 752.05,-27.21"/>
</a>
</g>
</g>
<!-- Node10&#45;&gt;Node13 -->
<g id="edge12_Node000010_Node000013" class="edge">
<title>Node10&#45;&gt;Node13</title>
<g id="a_edge12_Node000010_Node000013"><a xlink:title=" ">
<path fill="none" stroke="#63b8ff" d="M782.89,-54.98C804.08,-46.34 837.13,-32.87 861.3,-23.02"/>
<polygon fill="#63b8ff" stroke="#63b8ff" points="862.79,-26.19 870.73,-19.17 860.15,-19.7 862.79,-26.19"/>
</a>
</g>
</g>
<!-- Node14 -->
<g id="Node000014" class="node">
<title>Node14</title>
<g id="a_Node000014"><a xlink:title=" ">
<polygon fill="#e0e0e0" stroke="#999999" points="699.5,-19 634.5,-19 634.5,0 699.5,0 699.5,-19"/>
<text text-anchor="middle" x="667" y="-7" font-family="Helvetica,sans-Serif" font-size="10.00">functional</text>
</a>
</g>
</g>
<!-- Node10&#45;&gt;Node14 -->
<g id="edge13_Node000010_Node000014" class="edge">
<title>Node10&#45;&gt;Node14</title>
<g id="a_edge13_Node000010_Node000014"><a xlink:title=" ">
<path fill="none" stroke="#63b8ff" d="M746.74,-54.98C731.87,-46.69 709.02,-33.94 691.58,-24.22"/>
<polygon fill="#63b8ff" stroke="#63b8ff" points="692.98,-20.99 682.54,-19.17 689.57,-27.1 692.98,-20.99"/>
</a>
</g>
</g>
<!-- Node16&#45;&gt;Node2 -->
<g id="edge21_Node000016_Node000002" class="edge">
<title>Node16&#45;&gt;Node2</title>
<g id="a_edge21_Node000016_Node000002"><a xlink:title=" ">
<path fill="none" stroke="#63b8ff" d="M525.15,-164.98C502.88,-156.3 468.1,-142.75 442.78,-132.88"/>
<polygon fill="#63b8ff" stroke="#63b8ff" points="443.84,-129.54 433.25,-129.17 441.29,-136.06 443.84,-129.54"/>
</a>
</g>
</g>
<!-- Node16&#45;&gt;Node7 -->
<g id="edge22_Node000016_Node000007" class="edge">
<title>Node16&#45;&gt;Node7</title>
<g id="a_edge22_Node000016_Node000007"><a xlink:title=" ">
<path fill="none" stroke="#63b8ff" d="M550.13,-164.87C556.14,-147.79 569.14,-108.38 574,-74 576.1,-59.12 576.25,-42.09 575.93,-29.41"/>
<polygon fill="#63b8ff" stroke="#63b8ff" points="579.42,-29.04 575.54,-19.18 572.42,-29.31 579.42,-29.04"/>
</a>
</g>
</g>
<!-- Node17&#45;&gt;Node7 -->
<g id="edge24_Node000017_Node000007" class="edge">
<title>Node17&#45;&gt;Node7</title>
<g id="a_edge24_Node000017_Node000007"><a xlink:title=" ">
<path fill="none" stroke="#63b8ff" d="M503.66,-54.98C516.84,-46.77 537.03,-34.18 552.57,-24.49"/>
<polygon fill="#63b8ff" stroke="#63b8ff" points="554.46,-27.43 561.09,-19.17 550.76,-21.49 554.46,-27.43"/>
</a>
</g>
</g>
<!-- Node17&#45;&gt;Node8 -->
<g id="edge25_Node000017_Node000008" class="edge">
<title>Node17&#45;&gt;Node8</title>
<g id="a_edge25_Node000017_Node000008"><a xlink:title=" ">
<path fill="none" stroke="#63b8ff" d="M457.55,-54.98C423.04,-45.93 368.34,-31.58 330.44,-21.64"/>
<polygon fill="#63b8ff" stroke="#63b8ff" points="331.27,-18.23 320.71,-19.08 329.49,-25.01 331.27,-18.23"/>
</a>
</g>
</g>
<!-- Node17&#45;&gt;Node9 -->
<g id="edge27_Node000017_Node000009" class="edge">
<title>Node17&#45;&gt;Node9</title>
<g id="a_edge27_Node000017_Node000009"><a xlink:title=" ">
<path fill="none" stroke="#63b8ff" d="M471.68,-54.98C453.34,-46.46 424.89,-33.23 403.77,-23.41"/>
<polygon fill="#63b8ff" stroke="#63b8ff" points="405.19,-20.21 394.65,-19.17 402.24,-26.56 405.19,-20.21"/>
</a>
</g>
</g>
<!-- Node18 -->
<g id="Node000018" class="node">
<title>Node18</title>
<g id="a_Node000018"><a xlink:title=" ">
<polygon fill="#e0e0e0" stroke="#999999" points="533,-19 447,-19 447,0 533,0 533,-19"/>
<text text-anchor="middle" x="490" y="-7" font-family="Helvetica,sans-Serif" font-size="10.00">unordered_set</text>
</a>
</g>
</g>
<!-- Node17&#45;&gt;Node18 -->
<g id="edge26_Node000017_Node000018" class="edge">
<title>Node17&#45;&gt;Node18</title>
<g id="a_edge26_Node000017_Node000018"><a xlink:title=" ">
<path fill="none" stroke="#63b8ff" d="M490,-54.75C490,-47.8 490,-37.85 490,-29.13"/>
<polygon fill="#63b8ff" stroke="#63b8ff" points="493.5,-29.09 490,-19.09 486.5,-29.09 493.5,-29.09"/>
</a>
</g>
</g>
<!-- Node19&#45;&gt;Node4 -->
<g id="edge29_Node000019_Node000004" class="edge">
<title>Node19&#45;&gt;Node4</title>
<g id="a_edge29_Node000019_Node000004"><a xlink:title=" ">
<path fill="none" stroke="#63b8ff" d="M231.41,-54.75C223.84,-47.03 212.62,-35.6 203.49,-26.28"/>
<polygon fill="#63b8ff" stroke="#63b8ff" points="205.93,-23.78 196.43,-19.09 200.93,-28.68 205.93,-23.78"/>
</a>
</g>
</g>
<!-- Node19&#45;&gt;Node7 -->
<g id="edge30_Node000019_Node000007" class="edge">
<title>Node19&#45;&gt;Node7</title>
<g id="a_edge30_Node000019_Node000007"><a xlink:title=" ">
<path fill="none" stroke="#63b8ff" d="M263.64,-60.88C314.73,-55.03 439.14,-39.76 542,-19 542.22,-18.96 542.44,-18.91 542.65,-18.87"/>
<polygon fill="#63b8ff" stroke="#63b8ff" points="543.73,-22.21 552.71,-16.58 542.18,-15.39 543.73,-22.21"/>
</a>
</g>
</g>
<!-- Node20&#45;&gt;Node7 -->
<g id="edge32_Node000020_Node000007" class="edge">
<title>Node20&#45;&gt;Node7</title>
<g id="a_edge32_Node000020_Node000007"><a xlink:title=" ">
<path fill="none" stroke="#63b8ff" d="M707.91,-164.94C704.81,-143.78 694.11,-88.3 664,-55 648.78,-38.16 625.74,-26.89 606.91,-19.9"/>
<polygon fill="#63b8ff" stroke="#63b8ff" points="607.84,-16.51 597.24,-16.54 605.54,-23.13 607.84,-16.51"/>
</a>
</g>
</g>
<!-- Node21 -->
<g id="Node000021" class="node">
<title>Node21</title>
<g id="a_Node000021"><a xlink:title=" ">
<polygon fill="#e0e0e0" stroke="#999999" points="766,-129 716,-129 716,-110 766,-110 766,-129"/>
<text text-anchor="middle" x="741" y="-117" font-family="Helvetica,sans-Serif" font-size="10.00">cstring</text>
</a>
</g>
</g>
<!-- Node20&#45;&gt;Node21 -->
<g id="edge33_Node000020_Node000021" class="edge">
<title>Node20&#45;&gt;Node21</title>
<g id="a_edge33_Node000020_Node000021"><a xlink:title=" ">
<path fill="none" stroke="#63b8ff" d="M714.28,-164.75C718.71,-157.42 725.16,-146.73 730.62,-137.7"/>
<polygon fill="#63b8ff" stroke="#63b8ff" points="733.64,-139.46 735.81,-129.09 727.65,-135.84 733.64,-139.46"/>
</a>
</g>
</g>
</g>
</svg>
