<?xml version="1.0" encoding="UTF-8" standalone="no"?>
<!DOCTYPE svg PUBLIC "-//W3C//DTD SVG 1.1//EN"
 "http://www.w3.org/Graphics/SVG/1.1/DTD/svg11.dtd">
<!-- Generated by graphviz version 2.43.0 (0)
 -->
<!-- Title: core/config_manager.h Pages: 1 -->
<!--zoomable 192 -->

<svg id="main" version="1.1" xmlns="http://www.w3.org/2000/svg" xmlns:xlink="http://www.w3.org/1999/xlink" xml:space="preserve" onload="init(evt)">
<style type="text/css"><![CDATA[
.node, .edge {opacity: 0.7;}
.node.selected, .edge.selected {opacity: 1;}
.edge:hover path { stroke: red; }
.edge:hover polygon { stroke: red; fill: red; }
]]></style>

<defs>
  <circle id="rim" cx="0" cy="0" r="7"/>
  <circle id="rim2" cx="0" cy="0" r="3.5"/>
  <g id="zoomPlus">
    <use xlink:href="#rim" fill="#404040"><set attributeName="fill" to="#808080" begin="zoomplus.mouseover" end="zoomplus.mouseout"/></use>
    <path d="M-4,0h8M0,-4v8" fill="none" stroke="white" stroke-width="1.5" pointer-events="none"/>
  </g>
  <g id="zoomMin">
    <use xlink:href="#rim" fill="#404040"><set attributeName="fill" to="#808080" begin="zoomminus.mouseover" end="zoomminus.mouseout"/></use>
    <path d="M-4,0h8" fill="none" stroke="white" stroke-width="1.5" pointer-events="none"/>
  </g>
  <g id="arrowUp" transform="translate(30 24)">
    <use xlink:href="#rim"/>
    <path pointer-events="none" fill="none" stroke="white" stroke-width="1.5" d="M0,-3.0v7 M-2.5,-0.5L0,-3.0L2.5,-0.5"/>
  </g>
  <g id="arrowRight" transform="rotate(90) translate(36 -43)">
    <use xlink:href="#rim"/>
    <path pointer-events="none" fill="none" stroke="white" stroke-width="1.5" d="M0,-3.0v7 M-2.5,-0.5L0,-3.0L2.5,-0.5"/>
  </g>
  <g id="arrowDown" transform="rotate(180) translate(-30 -48)">
    <use xlink:href="#rim"/>
    <path pointer-events="none" fill="none" stroke="white" stroke-width="1.5" d="M0,-3.0v7 M-2.5,-0.5L0,-3.0L2.5,-0.5"/>
  </g>
  <g id="arrowLeft" transform="rotate(270) translate(-36 17)">
    <use xlink:href="#rim"/>
    <path pointer-events="none" fill="none" stroke="white" stroke-width="1.5" d="M0,-3.0v7 M-2.5,-0.5L0,-3.0L2.5,-0.5"/>
  </g>
  <g id="resetDef">
    <use xlink:href="#rim2" fill="#404040"><set attributeName="fill" to="#808080" begin="reset.mouseover" end="reset.mouseout"/></use>
  </g>
</defs>
<script type="application/ecmascript">
var viewWidth = 954;
var viewHeight = 192;
var sectionId = 'dynsection-1';
</script>
<script type="application/ecmascript" xlink:href="svg.min.js"/>
<svg id="graph" class="graph">
<g id="viewport">
<title>core/config_manager.h</title>
<!-- Node1 -->
<g id="Node000001" class="node">
<title>Node1</title>
<g id="a_Node000001"><a xlink:title="Configuration management system for Gaussian Extractor.">
<polygon fill="#999999" stroke="#666666" points="479,-184 352,-184 352,-165 479,-165 479,-184"/>
<text text-anchor="middle" x="415.5" y="-172" font-family="Helvetica,sans-Serif" font-size="10.00">core/config_manager.h</text>
</a>
</g>
</g>
<!-- Node2 -->
<g id="Node000002" class="node">
<title>Node2</title>
<g id="a_Node000002"><a xlink:href="command__system_8cpp.html" target="_top" xlink:title=" ">
<polygon fill="white" stroke="#666666" points="151,-19 0,-19 0,0 151,0 151,-19"/>
<text text-anchor="middle" x="75.5" y="-7" font-family="Helvetica,sans-Serif" font-size="10.00">core/command_system.cpp</text>
</a>
</g>
</g>
<!-- Node1&#45;&gt;Node2 -->
<g id="edge1_Node000001_Node000002" class="edge">
<title>Node1&#45;&gt;Node2</title>
<g id="a_edge1_Node000001_Node000002"><a xlink:title=" ">
<path fill="none" stroke="#63b8ff" d="M341.57,-164.48C304.48,-157.98 259.67,-147.07 222.5,-129 162.06,-99.62 104.16,-41.3 83.48,-19.24"/>
<polygon fill="#63b8ff" stroke="#63b8ff" points="341.37,-167.99 351.81,-166.19 342.53,-161.09 341.37,-167.99"/>
</a>
</g>
</g>
<!-- Node3 -->
<g id="Node000003" class="node">
<title>Node3</title>
<g id="a_Node000003"><a xlink:href="command__system_8h.html" target="_top" xlink:title="Command parsing and execution system for Gaussian Extractor.">
<polygon fill="white" stroke="#666666" points="387.5,-129 247.5,-129 247.5,-110 387.5,-110 387.5,-129"/>
<text text-anchor="middle" x="317.5" y="-117" font-family="Helvetica,sans-Serif" font-size="10.00">core/command_system.h</text>
</a>
</g>
</g>
<!-- Node1&#45;&gt;Node3 -->
<g id="edge2_Node000001_Node000003" class="edge">
<title>Node1&#45;&gt;Node3</title>
<g id="a_edge2_Node000001_Node000003"><a xlink:title=" ">
<path fill="none" stroke="#63b8ff" d="M390.47,-159.97C372.56,-150.28 348.97,-137.52 333.53,-129.17"/>
<polygon fill="#63b8ff" stroke="#63b8ff" points="389.29,-163.31 399.75,-164.98 392.62,-157.15 389.29,-163.31"/>
</a>
</g>
</g>
<!-- Node4 -->
<g id="Node000004" class="node">
<title>Node4</title>
<g id="a_Node000004"><a xlink:href="help__utils_8cpp.html" target="_top" xlink:title="Implementation of help utility functions.">
<polygon fill="white" stroke="#666666" points="277.5,-19 169.5,-19 169.5,0 277.5,0 277.5,-19"/>
<text text-anchor="middle" x="223.5" y="-7" font-family="Helvetica,sans-Serif" font-size="10.00">core/help_utils.cpp</text>
</a>
</g>
</g>
<!-- Node1&#45;&gt;Node4 -->
<g id="edge15_Node000001_Node000004" class="edge">
<title>Node1&#45;&gt;Node4</title>
<g id="a_edge15_Node000001_Node000004"><a xlink:title=" ">
<path fill="none" stroke="#63b8ff" d="M342.45,-163.26C300.33,-155.85 252.93,-144.42 238.5,-129 209.46,-97.96 217.31,-40.64 221.59,-19.04"/>
<polygon fill="#63b8ff" stroke="#63b8ff" points="342.01,-166.74 352.46,-164.97 343.19,-159.84 342.01,-166.74"/>
</a>
</g>
</g>
<!-- Node6 -->
<g id="Node000006" class="node">
<title>Node6</title>
<g id="a_Node000006"><a xlink:href="interactive__mode_8cpp.html" target="_top" xlink:title="Implementation of interactive mode functionality.">
<polygon fill="white" stroke="#666666" points="441.5,-19 295.5,-19 295.5,0 441.5,0 441.5,-19"/>
<text text-anchor="middle" x="368.5" y="-7" font-family="Helvetica,sans-Serif" font-size="10.00">core/interactive_mode.cpp</text>
</a>
</g>
</g>
<!-- Node1&#45;&gt;Node6 -->
<g id="edge16_Node000001_Node000006" class="edge">
<title>Node1&#45;&gt;Node6</title>
<g id="a_edge16_Node000001_Node000006"><a xlink:title=" ">
<path fill="none" stroke="#63b8ff" d="M410.12,-154.83C399.98,-119.67 378.42,-44.9 371.04,-19.31"/>
<polygon fill="#63b8ff" stroke="#63b8ff" points="406.84,-156.1 412.97,-164.74 413.57,-154.16 406.84,-156.1"/>
</a>
</g>
</g>
<!-- Node9 -->
<g id="Node000009" class="node">
<title>Node9</title>
<g id="a_Node000009"><a xlink:href="main_8cpp.html" target="_top" xlink:title="Main entry point for the Gaussian Extractor application.">
<polygon fill="white" stroke="#666666" points="683.5,-19 621.5,-19 621.5,0 683.5,0 683.5,-19"/>
<text text-anchor="middle" x="652.5" y="-7" font-family="Helvetica,sans-Serif" font-size="10.00">main.cpp</text>
</a>
</g>
</g>
<!-- Node1&#45;&gt;Node9 -->
<g id="edge18_Node000001_Node000009" class="edge">
<title>Node1&#45;&gt;Node9</title>
<g id="a_edge18_Node000001_Node000009"><a xlink:title=" ">
<path fill="none" stroke="#63b8ff" d="M453.15,-161.66C495.96,-146.72 566.05,-117.57 613.5,-74 630.84,-58.07 643.24,-32.7 648.96,-19.36"/>
<polygon fill="#63b8ff" stroke="#63b8ff" points="452,-158.36 443.66,-164.9 454.26,-164.98 452,-158.36"/>
</a>
</g>
</g>
<!-- Node10 -->
<g id="Node000010" class="node">
<title>Node10</title>
<g id="a_Node000010"><a xlink:href="config__manager_8cpp.html" target="_top" xlink:title=" ">
<polygon fill="white" stroke="#666666" points="809.5,-129 671.5,-129 671.5,-110 809.5,-110 809.5,-129"/>
<text text-anchor="middle" x="740.5" y="-117" font-family="Helvetica,sans-Serif" font-size="10.00">core/config_manager.cpp</text>
</a>
</g>
</g>
<!-- Node1&#45;&gt;Node10 -->
<g id="edge14_Node000001_Node000010" class="edge">
<title>Node1&#45;&gt;Node10</title>
<g id="a_edge14_Node000001_Node000010"><a xlink:title=" ">
<path fill="none" stroke="#63b8ff" d="M477.61,-163.37C538.64,-153.42 630.72,-138.4 688.14,-129.04"/>
<polygon fill="#63b8ff" stroke="#63b8ff" points="477.02,-159.92 467.72,-164.98 478.15,-166.83 477.02,-159.92"/>
</a>
</g>
</g>
<!-- Node11 -->
<g id="Node000011" class="node">
<title>Node11</title>
<g id="a_Node000011"><a xlink:href="job__checker_8cpp.html" target="_top" xlink:title=" ">
<polygon fill="white" stroke="#666666" points="945.5,-129 827.5,-129 827.5,-110 945.5,-110 945.5,-129"/>
<text text-anchor="middle" x="886.5" y="-117" font-family="Helvetica,sans-Serif" font-size="10.00">core/job_checker.cpp</text>
</a>
</g>
</g>
<!-- Node1&#45;&gt;Node11 -->
<g id="edge17_Node000001_Node000011" class="edge">
<title>Node1&#45;&gt;Node11</title>
<g id="a_edge17_Node000001_Node000011"><a xlink:title=" ">
<path fill="none" stroke="#63b8ff" d="M489.12,-165.69C569.95,-157.04 703.53,-142.53 818.5,-129 821.34,-128.67 824.24,-128.32 827.17,-127.97"/>
<polygon fill="#63b8ff" stroke="#63b8ff" points="488.62,-162.23 479.05,-166.77 489.36,-169.19 488.62,-162.23"/>
</a>
</g>
</g>
<!-- Node3&#45;&gt;Node2 -->
<g id="edge3_Node000003_Node000002" class="edge">
<title>Node3&#45;&gt;Node2</title>
<g id="a_edge3_Node000003_Node000002"><a xlink:title=" ">
<path fill="none" stroke="#63b8ff" d="M288.83,-105.71C238.84,-83.4 137.01,-37.95 94.65,-19.05"/>
<polygon fill="#63b8ff" stroke="#63b8ff" points="287.55,-108.97 298.11,-109.84 290.4,-102.57 287.55,-108.97"/>
</a>
</g>
</g>
<!-- Node3&#45;&gt;Node4 -->
<g id="edge4_Node000003_Node000004" class="edge">
<title>Node3&#45;&gt;Node4</title>
<g id="a_edge4_Node000003_Node000004"><a xlink:title=" ">
<path fill="none" stroke="#63b8ff" d="M284.63,-105.64C269.86,-98.36 253.35,-87.9 242.5,-74 229.61,-57.49 225.44,-32.36 224.11,-19.21"/>
<polygon fill="#63b8ff" stroke="#63b8ff" points="283.45,-108.95 294,-109.97 286.39,-102.6 283.45,-108.95"/>
</a>
</g>
</g>
<!-- Node5 -->
<g id="Node000005" class="node">
<title>Node5</title>
<g id="a_Node000005"><a xlink:href="help__utils_8h.html" target="_top" xlink:title="Help utility functions for all commands.">
<polygon fill="white" stroke="#666666" points="349,-74 252,-74 252,-55 349,-55 349,-74"/>
<text text-anchor="middle" x="300.5" y="-62" font-family="Helvetica,sans-Serif" font-size="10.00">core/help_utils.h</text>
</a>
</g>
</g>
<!-- Node3&#45;&gt;Node5 -->
<g id="edge5_Node000003_Node000005" class="edge">
<title>Node3&#45;&gt;Node5</title>
<g id="a_edge5_Node000003_Node000005"><a xlink:title=" ">
<path fill="none" stroke="#63b8ff" d="M311.55,-99.95C308.73,-91.15 305.49,-81.06 303.25,-74.09"/>
<polygon fill="#63b8ff" stroke="#63b8ff" points="308.31,-101.29 314.69,-109.75 314.97,-99.16 308.31,-101.29"/>
</a>
</g>
</g>
<!-- Node3&#45;&gt;Node6 -->
<g id="edge9_Node000003_Node000006" class="edge">
<title>Node3&#45;&gt;Node6</title>
<g id="a_edge9_Node000003_Node000006"><a xlink:title=" ">
<path fill="none" stroke="#63b8ff" d="M335.69,-102.75C343.61,-94.91 352.26,-84.79 357.5,-74 366.29,-55.88 368.16,-31.85 368.49,-19.18"/>
<polygon fill="#63b8ff" stroke="#63b8ff" points="333.08,-100.4 328.16,-109.79 337.86,-105.52 333.08,-100.4"/>
</a>
</g>
</g>
<!-- Node7 -->
<g id="Node000007" class="node">
<title>Node7</title>
<g id="a_Node000007"><a xlink:href="module__executor_8h.html" target="_top" xlink:title="Command execution functions for Gaussian Extractor.">
<polygon fill="white" stroke="#666666" points="577,-74 444,-74 444,-55 577,-55 577,-74"/>
<text text-anchor="middle" x="510.5" y="-62" font-family="Helvetica,sans-Serif" font-size="10.00">core/module_executor.h</text>
</a>
</g>
</g>
<!-- Node3&#45;&gt;Node7 -->
<g id="edge10_Node000003_Node000007" class="edge">
<title>Node3&#45;&gt;Node7</title>
<g id="a_edge10_Node000003_Node000007"><a xlink:title=" ">
<path fill="none" stroke="#63b8ff" d="M358.25,-107.31C394.36,-97.39 446.33,-83.12 479.25,-74.08"/>
<polygon fill="#63b8ff" stroke="#63b8ff" points="357.22,-103.96 348.51,-109.98 359.08,-110.71 357.22,-103.96"/>
</a>
</g>
</g>
<!-- Node3&#45;&gt;Node9 -->
<g id="edge13_Node000003_Node000009" class="edge">
<title>Node3&#45;&gt;Node9</title>
<g id="a_edge13_Node000003_Node000009"><a xlink:title=" ">
<path fill="none" stroke="#63b8ff" d="M397.74,-117.61C453.34,-114.1 527.65,-103.53 586.5,-74 612.93,-60.74 635.8,-33.23 646.32,-19.17"/>
<polygon fill="#63b8ff" stroke="#63b8ff" points="397.37,-114.12 387.59,-118.18 397.77,-121.11 397.37,-114.12"/>
</a>
</g>
</g>
<!-- Node5&#45;&gt;Node2 -->
<g id="edge6_Node000005_Node000002" class="edge">
<title>Node5&#45;&gt;Node2</title>
<g id="a_edge6_Node000005_Node000002"><a xlink:title=" ">
<path fill="none" stroke="#63b8ff" d="M254.61,-52.69C212.45,-42.76 150.8,-28.24 111.93,-19.08"/>
<polygon fill="#63b8ff" stroke="#63b8ff" points="253.81,-56.1 264.35,-54.98 255.42,-49.28 253.81,-56.1"/>
</a>
</g>
</g>
<!-- Node5&#45;&gt;Node4 -->
<g id="edge7_Node000005_Node000004" class="edge">
<title>Node5&#45;&gt;Node4</title>
<g id="a_edge7_Node000005_Node000004"><a xlink:title=" ">
<path fill="none" stroke="#63b8ff" d="M279.65,-49.15C265.74,-39.57 247.89,-27.29 236.1,-19.17"/>
<polygon fill="#63b8ff" stroke="#63b8ff" points="277.91,-52.2 288.13,-54.98 281.88,-46.43 277.91,-52.2"/>
</a>
</g>
</g>
<!-- Node5&#45;&gt;Node6 -->
<g id="edge8_Node000005_Node000006" class="edge">
<title>Node5&#45;&gt;Node6</title>
<g id="a_edge8_Node000005_Node000006"><a xlink:title=" ">
<path fill="none" stroke="#63b8ff" d="M319.62,-48.6C331.8,-39.11 347.16,-27.13 357.38,-19.17"/>
<polygon fill="#63b8ff" stroke="#63b8ff" points="317.16,-46.08 311.43,-54.98 321.46,-51.6 317.16,-46.08"/>
</a>
</g>
</g>
<!-- Node8 -->
<g id="Node000008" class="node">
<title>Node8</title>
<g id="a_Node000008"><a xlink:href="module__executor_8cpp.html" target="_top" xlink:title=" ">
<polygon fill="white" stroke="#666666" points="603.5,-19 459.5,-19 459.5,0 603.5,0 603.5,-19"/>
<text text-anchor="middle" x="531.5" y="-7" font-family="Helvetica,sans-Serif" font-size="10.00">core/module_executor.cpp</text>
</a>
</g>
</g>
<!-- Node7&#45;&gt;Node8 -->
<g id="edge11_Node000007_Node000008" class="edge">
<title>Node7&#45;&gt;Node8</title>
<g id="a_edge11_Node000007_Node000008"><a xlink:title=" ">
<path fill="none" stroke="#63b8ff" d="M517.74,-45.24C521.25,-36.37 525.3,-26.14 528.1,-19.09"/>
<polygon fill="#63b8ff" stroke="#63b8ff" points="514.4,-44.16 513.97,-54.75 520.91,-46.74 514.4,-44.16"/>
</a>
</g>
</g>
<!-- Node7&#45;&gt;Node9 -->
<g id="edge12_Node000007_Node000009" class="edge">
<title>Node7&#45;&gt;Node9</title>
<g id="a_edge12_Node000007_Node000009"><a xlink:title=" ">
<path fill="none" stroke="#63b8ff" d="M542.86,-51.42C569.21,-41.59 605.76,-27.95 629.27,-19.17"/>
<polygon fill="#63b8ff" stroke="#63b8ff" points="541.46,-48.21 533.31,-54.98 543.91,-54.77 541.46,-48.21"/>
</a>
</g>
</g>
</g>
</svg>

<g id="navigator" transform="translate(0 0)" fill="#404254">
  <rect fill="#f2f5e9" fill-opacity="0.5" stroke="#606060" stroke-width=".5" x="0" y="0" width="60" height="60"/>
  <use id="zoomplus" xlink:href="#zoomPlus" x="17" y="9" onmousedown="handleZoom(evt,'in')"/>
  <use id="zoomminus" xlink:href="#zoomMin" x="42" y="9" onmousedown="handleZoom(evt,'out')"/>
  <use id="reset" xlink:href="#resetDef" x="30" y="36" onmousedown="handleReset()"/>
   <use id="arrowup" xlink:href="#arrowUp" x="0" y="0" onmousedown="handlePan(0,-1)"/>
  <use id="arrowright" xlink:href="#arrowRight" x="0" y="0" onmousedown="handlePan(1,0)"/>
  <use id="arrowdown" xlink:href="#arrowDown" x="0" y="0" onmousedown="handlePan(0,1)"/>
  <use id="arrowleft" xlink:href="#arrowLeft" x="0" y="0" onmousedown="handlePan(-1,0)"/>
</g>
<svg viewBox="0 0 15 15" width="100%" height="30px" preserveAspectRatio="xMaxYMin meet">
 <g id="arrow_out" transform="scale(0.3 0.3)">
  <a xlink:href="config__manager_8h__dep__incl_org.svg" target="_base">
   <rect id="button" ry="5" rx="5" y="6" x="6" height="38" width="38"
        fill="#f2f5e9" fill-opacity="0.5" stroke="#606060" stroke-width="1.0"/>
   <path id="arrow"
     d="M 11.500037,31.436501 C 11.940474,20.09759 22.043105,11.32322 32.158766,21.979434 L 37.068811,17.246167 C 37.068811,17.246167 37.088388,32 37.088388,32 L 22.160133,31.978069 C 22.160133,31.978069 26.997745,27.140456 26.997745,27.140456 C 18.528582,18.264221 13.291696,25.230495 11.500037,31.436501 z"
     style="fill:#404040;"/>
  </a>
 </g>
</svg>

<style type='text/css'>
<![CDATA[
[data-mouse-over-selected='false'] { opacity: 0.7; }
[data-mouse-over-selected='true']  { opacity: 1.0; }
]]>
</style>
<script type="application/ecmascript"><![CDATA[
document.addEventListener('DOMContentLoaded', (event) => {
  highlightEdges();
  highlightAdjacentNodes();
});
]]></script>
</svg>
