<?xml version="1.0" encoding="UTF-8" standalone="no"?>
<!DOCTYPE svg PUBLIC "-//W3C//DTD SVG 1.1//EN"
 "http://www.w3.org/Graphics/SVG/1.1/DTD/svg11.dtd">
<!-- Generated by graphviz version 2.43.0 (0)
 -->
<!-- Title: core/coord_extractor.h Pages: 1 -->
<svg width="944pt" height="247pt"
 viewBox="0.00 0.00 944.00 247.00" xmlns="http://www.w3.org/2000/svg" xmlns:xlink="http://www.w3.org/1999/xlink">
<g id="graph0" class="graph" transform="scale(1 1) rotate(0) translate(4 243)">
<title>core/coord_extractor.h</title>
<!-- Node1 -->
<g id="Node000001" class="node">
<title>Node1</title>
<g id="a_Node000001"><a xlink:title="Header file for coordinate extraction command xyz to extract coordinates from Gaussian outputs.">
<polygon fill="#999999" stroke="#666666" points="768.5,-239 643.5,-239 643.5,-220 768.5,-220 768.5,-239"/>
<text text-anchor="middle" x="706" y="-227" font-family="Helvetica,sans-Serif" font-size="10.00">core/coord_extractor.h</text>
</a>
</g>
</g>
<!-- Node2 -->
<g id="Node000002" class="node">
<title>Node2</title>
<g id="a_Node000002"><a xlink:href="gaussian__extractor_8h.html" target="_top" xlink:title="Core extraction engine and data structures for Gaussian log file processing.">
<polygon fill="white" stroke="#666666" points="478,-129 360,-129 360,-110 478,-110 478,-129"/>
<text text-anchor="middle" x="419" y="-117" font-family="Helvetica,sans-Serif" font-size="10.00">gaussian_extractor.h</text>
</a>
</g>
</g>
<!-- Node1&#45;&gt;Node2 -->
<g id="edge1_Node000001_Node000002" class="edge">
<title>Node1&#45;&gt;Node2</title>
<g id="a_edge1_Node000001_Node000002"><a xlink:title=" ">
<path fill="none" stroke="#63b8ff" d="M667.51,-220C634.68,-212.23 586.5,-199.59 546,-184 508.67,-169.63 467.64,-147.96 442.59,-134.02"/>
<polygon fill="#63b8ff" stroke="#63b8ff" points="444.25,-130.94 433.82,-129.09 440.82,-137.04 444.25,-130.94"/>
</a>
</g>
</g>
<!-- Node8 -->
<g id="Node000008" class="node">
<title>Node8</title>
<g id="a_Node000008"><a xlink:title=" ">
<polygon fill="#e0e0e0" stroke="#999999" points="58,-74 0,-74 0,-55 58,-55 58,-74"/>
<text text-anchor="middle" x="29" y="-62" font-family="Helvetica,sans-Serif" font-size="10.00">memory</text>
</a>
</g>
</g>
<!-- Node1&#45;&gt;Node8 -->
<g id="edge27_Node000001_Node000008" class="edge">
<title>Node1&#45;&gt;Node8</title>
<g id="a_edge27_Node000001_Node000008"><a xlink:title=" ">
<path fill="none" stroke="#63b8ff" d="M666.11,-219.93C624.61,-211 557.73,-196.59 500,-184 388.84,-159.77 360.28,-156.95 250,-129 185.02,-112.53 110.2,-90.35 66.41,-77.03"/>
<polygon fill="#63b8ff" stroke="#63b8ff" points="67.34,-73.66 56.76,-74.09 65.3,-80.35 67.34,-73.66"/>
</a>
</g>
</g>
<!-- Node10 -->
<g id="Node000010" class="node">
<title>Node10</title>
<g id="a_Node000010"><a xlink:title=" ">
<polygon fill="#e0e0e0" stroke="#999999" points="664,-19 620,-19 620,0 664,0 664,-19"/>
<text text-anchor="middle" x="642" y="-7" font-family="Helvetica,sans-Serif" font-size="10.00">string</text>
</a>
</g>
</g>
<!-- Node1&#45;&gt;Node10 -->
<g id="edge28_Node000001_Node000010" class="edge">
<title>Node1&#45;&gt;Node10</title>
<g id="a_edge28_Node000001_Node000010"><a xlink:title=" ">
<path fill="none" stroke="#63b8ff" d="M733.29,-219.88C750,-213.03 770.04,-201.62 780,-184 784.16,-176.65 781.3,-173.34 780,-165 772.13,-114.3 779.42,-93.04 745,-55 726.41,-34.46 696.69,-23.01 673.94,-16.88"/>
<polygon fill="#63b8ff" stroke="#63b8ff" points="674.59,-13.44 664.04,-14.43 672.91,-20.23 674.59,-13.44"/>
</a>
</g>
</g>
<!-- Node11 -->
<g id="Node000011" class="node">
<title>Node11</title>
<g id="a_Node000011"><a xlink:title=" ">
<polygon fill="#e0e0e0" stroke="#999999" points="717.5,-74 670.5,-74 670.5,-55 717.5,-55 717.5,-74"/>
<text text-anchor="middle" x="694" y="-62" font-family="Helvetica,sans-Serif" font-size="10.00">vector</text>
</a>
</g>
</g>
<!-- Node1&#45;&gt;Node11 -->
<g id="edge30_Node000001_Node000011" class="edge">
<title>Node1&#45;&gt;Node11</title>
<g id="a_edge30_Node000001_Node000011"><a xlink:title=" ">
<path fill="none" stroke="#63b8ff" d="M725.27,-219.9C739.12,-212.55 756.76,-200.54 765,-184 768.77,-176.44 767.51,-173.06 765,-165 754.54,-131.44 727.89,-99.66 710.38,-81.4"/>
<polygon fill="#63b8ff" stroke="#63b8ff" points="712.59,-78.65 703.07,-74 707.61,-83.58 712.59,-78.65"/>
</a>
</g>
</g>
<!-- Node15 -->
<g id="Node000015" class="node">
<title>Node15</title>
<g id="a_Node000015"><a xlink:href="job__checker_8h.html" target="_top" xlink:title="Job status checking and file organization system for Gaussian calculations.">
<polygon fill="white" stroke="#666666" points="638.5,-184 555.5,-184 555.5,-165 638.5,-165 638.5,-184"/>
<text text-anchor="middle" x="597" y="-172" font-family="Helvetica,sans-Serif" font-size="10.00">job_checker.h</text>
</a>
</g>
</g>
<!-- Node1&#45;&gt;Node15 -->
<g id="edge17_Node000001_Node000015" class="edge">
<title>Node1&#45;&gt;Node15</title>
<g id="a_edge17_Node000001_Node000015"><a xlink:title=" ">
<path fill="none" stroke="#63b8ff" d="M688.49,-219.98C671.03,-211.5 643.99,-198.35 623.83,-188.54"/>
<polygon fill="#63b8ff" stroke="#63b8ff" points="625.36,-185.4 614.83,-184.17 622.29,-191.69 625.36,-185.4"/>
</a>
</g>
</g>
<!-- Node16 -->
<g id="Node000016" class="node">
<title>Node16</title>
<g id="a_Node000016"><a xlink:title=" ">
<polygon fill="#e0e0e0" stroke="#999999" points="718,-129 650,-129 650,-110 718,-110 718,-129"/>
<text text-anchor="middle" x="684" y="-117" font-family="Helvetica,sans-Serif" font-size="10.00">filesystem</text>
</a>
</g>
</g>
<!-- Node1&#45;&gt;Node16 -->
<g id="edge26_Node000001_Node000016" class="edge">
<title>Node1&#45;&gt;Node16</title>
<g id="a_edge26_Node000001_Node000016"><a xlink:title=" ">
<path fill="none" stroke="#63b8ff" d="M704.2,-219.66C700.64,-202.17 692.62,-162.8 687.82,-139.27"/>
<polygon fill="#63b8ff" stroke="#63b8ff" points="691.19,-138.26 685.76,-129.16 684.33,-139.66 691.19,-138.26"/>
</a>
</g>
</g>
<!-- Node17 -->
<g id="Node000017" class="node">
<title>Node17</title>
<g id="a_Node000017"><a xlink:href="utils_8h.html" target="_top" xlink:title="Universial functions and classes for all modules.">
<polygon fill="white" stroke="#666666" points="755.5,-184 708.5,-184 708.5,-165 755.5,-165 755.5,-184"/>
<text text-anchor="middle" x="732" y="-172" font-family="Helvetica,sans-Serif" font-size="10.00">utils.h</text>
</a>
</g>
</g>
<!-- Node1&#45;&gt;Node17 -->
<g id="edge23_Node000001_Node000017" class="edge">
<title>Node1&#45;&gt;Node17</title>
<g id="a_edge23_Node000001_Node000017"><a xlink:title=" ">
<path fill="none" stroke="#63b8ff" d="M710.29,-219.75C713.81,-212.57 718.91,-202.18 723.28,-193.27"/>
<polygon fill="#63b8ff" stroke="#63b8ff" points="726.52,-194.61 727.79,-184.09 720.24,-191.53 726.52,-194.61"/>
</a>
</g>
</g>
<!-- Node18 -->
<g id="Node000018" class="node">
<title>Node18</title>
<g id="a_Node000018"><a xlink:title=" ">
<polygon fill="#e0e0e0" stroke="#999999" points="936,-184 850,-184 850,-165 936,-165 936,-184"/>
<text text-anchor="middle" x="893" y="-172" font-family="Helvetica,sans-Serif" font-size="10.00">unordered_set</text>
</a>
</g>
</g>
<!-- Node1&#45;&gt;Node18 -->
<g id="edge29_Node000001_Node000018" class="edge">
<title>Node1&#45;&gt;Node18</title>
<g id="a_edge29_Node000001_Node000018"><a xlink:title=" ">
<path fill="none" stroke="#63b8ff" d="M736.04,-219.98C767.71,-211.01 817.77,-196.82 852.81,-186.89"/>
<polygon fill="#63b8ff" stroke="#63b8ff" points="854.05,-190.18 862.72,-184.08 852.14,-183.44 854.05,-190.18"/>
</a>
</g>
</g>
<!-- Node3 -->
<g id="Node000003" class="node">
<title>Node3</title>
<g id="a_Node000003"><a xlink:title=" ">
<polygon fill="#e0e0e0" stroke="#999999" points="352,-19 288,-19 288,0 352,0 352,-19"/>
<text text-anchor="middle" x="320" y="-7" font-family="Helvetica,sans-Serif" font-size="10.00">algorithm</text>
</a>
</g>
</g>
<!-- Node2&#45;&gt;Node3 -->
<g id="edge2_Node000002_Node000003" class="edge">
<title>Node2&#45;&gt;Node3</title>
<g id="a_edge2_Node000002_Node000003"><a xlink:title=" ">
<path fill="none" stroke="#63b8ff" d="M391.22,-109.89C373.26,-102.95 350.74,-91.43 337,-74 326.95,-61.26 322.82,-43.08 321.14,-29.44"/>
<polygon fill="#63b8ff" stroke="#63b8ff" points="324.6,-28.91 320.22,-19.26 317.63,-29.54 324.6,-28.91"/>
</a>
</g>
</g>
<!-- Node4 -->
<g id="Node000004" class="node">
<title>Node4</title>
<g id="a_Node000004"><a xlink:title=" ">
<polygon fill="#e0e0e0" stroke="#999999" points="164,-74 114,-74 114,-55 164,-55 164,-74"/>
<text text-anchor="middle" x="139" y="-62" font-family="Helvetica,sans-Serif" font-size="10.00">atomic</text>
</a>
</g>
</g>
<!-- Node2&#45;&gt;Node4 -->
<g id="edge3_Node000002_Node000004" class="edge">
<title>Node2&#45;&gt;Node4</title>
<g id="a_edge3_Node000002_Node000004"><a xlink:title=" ">
<path fill="none" stroke="#63b8ff" d="M366.02,-109.95C318.3,-102.03 246.04,-89.44 174.32,-74.17"/>
<polygon fill="#63b8ff" stroke="#63b8ff" points="174.72,-70.68 164.21,-72 173.25,-77.52 174.72,-70.68"/>
</a>
</g>
</g>
<!-- Node5 -->
<g id="Node000005" class="node">
<title>Node5</title>
<g id="a_Node000005"><a xlink:title=" ">
<polygon fill="#e0e0e0" stroke="#999999" points="289.5,-74 182.5,-74 182.5,-55 289.5,-55 289.5,-74"/>
<text text-anchor="middle" x="236" y="-62" font-family="Helvetica,sans-Serif" font-size="10.00">condition_variable</text>
</a>
</g>
</g>
<!-- Node2&#45;&gt;Node5 -->
<g id="edge4_Node000002_Node000005" class="edge">
<title>Node2&#45;&gt;Node5</title>
<g id="a_edge4_Node000002_Node000005"><a xlink:title=" ">
<path fill="none" stroke="#63b8ff" d="M389.6,-109.98C358.61,-101.01 309.62,-86.82 275.33,-76.89"/>
<polygon fill="#63b8ff" stroke="#63b8ff" points="276.21,-73.5 265.63,-74.08 274.26,-80.23 276.21,-73.5"/>
</a>
</g>
</g>
<!-- Node6 -->
<g id="Node000006" class="node">
<title>Node6</title>
<g id="a_Node000006"><a xlink:title=" ">
<polygon fill="#e0e0e0" stroke="#999999" points="399.5,-74 346.5,-74 346.5,-55 399.5,-55 399.5,-74"/>
<text text-anchor="middle" x="373" y="-62" font-family="Helvetica,sans-Serif" font-size="10.00">cstddef</text>
</a>
</g>
</g>
<!-- Node2&#45;&gt;Node6 -->
<g id="edge5_Node000002_Node000006" class="edge">
<title>Node2&#45;&gt;Node6</title>
<g id="a_edge5_Node000002_Node000006"><a xlink:title=" ">
<path fill="none" stroke="#63b8ff" d="M411.4,-109.75C404.84,-102.18 395.18,-91.05 387.19,-81.84"/>
<polygon fill="#63b8ff" stroke="#63b8ff" points="389.65,-79.35 380.45,-74.09 384.37,-83.94 389.65,-79.35"/>
</a>
</g>
</g>
<!-- Node7 -->
<g id="Node000007" class="node">
<title>Node7</title>
<g id="a_Node000007"><a xlink:title=" ">
<polygon fill="#e0e0e0" stroke="#999999" points="195.5,-19 130.5,-19 130.5,0 195.5,0 195.5,-19"/>
<text text-anchor="middle" x="163" y="-7" font-family="Helvetica,sans-Serif" font-size="10.00">functional</text>
</a>
</g>
</g>
<!-- Node2&#45;&gt;Node7 -->
<g id="edge6_Node000002_Node000007" class="edge">
<title>Node2&#45;&gt;Node7</title>
<g id="a_edge6_Node000002_Node000007"><a xlink:title=" ">
<path fill="none" stroke="#63b8ff" d="M359.93,-114.26C273.62,-107.47 121.45,-92.94 105,-74 89.75,-56.44 114.53,-36.74 136.27,-24.01"/>
<polygon fill="#63b8ff" stroke="#63b8ff" points="138.23,-26.92 145.28,-19 134.83,-20.8 138.23,-26.92"/>
</a>
</g>
</g>
<!-- Node2&#45;&gt;Node8 -->
<g id="edge7_Node000002_Node000008" class="edge">
<title>Node2&#45;&gt;Node8</title>
<g id="a_edge7_Node000002_Node000008"><a xlink:title=" ">
<path fill="none" stroke="#63b8ff" d="M359.88,-112.15C290.68,-104.43 172.71,-90.39 72,-74 70.73,-73.79 69.45,-73.58 68.15,-73.35"/>
<polygon fill="#63b8ff" stroke="#63b8ff" points="68.56,-69.87 58.1,-71.53 67.31,-76.76 68.56,-69.87"/>
</a>
</g>
</g>
<!-- Node9 -->
<g id="Node000009" class="node">
<title>Node9</title>
<g id="a_Node000009"><a xlink:title=" ">
<polygon fill="#e0e0e0" stroke="#999999" points="576,-74 528,-74 528,-55 576,-55 576,-74"/>
<text text-anchor="middle" x="552" y="-62" font-family="Helvetica,sans-Serif" font-size="10.00">mutex</text>
</a>
</g>
</g>
<!-- Node2&#45;&gt;Node9 -->
<g id="edge8_Node000002_Node000009" class="edge">
<title>Node2&#45;&gt;Node9</title>
<g id="a_edge8_Node000002_Node000009"><a xlink:title=" ">
<path fill="none" stroke="#63b8ff" d="M440.37,-109.98C462.15,-101.3 496.16,-87.75 520.92,-77.88"/>
<polygon fill="#63b8ff" stroke="#63b8ff" points="522.25,-81.12 530.24,-74.17 519.66,-74.62 522.25,-81.12"/>
</a>
</g>
</g>
<!-- Node2&#45;&gt;Node10 -->
<g id="edge9_Node000002_Node000010" class="edge">
<title>Node2&#45;&gt;Node10</title>
<g id="a_edge9_Node000002_Node000010"><a xlink:title=" ">
<path fill="none" stroke="#63b8ff" d="M478.37,-111.09C511.6,-104.93 552.71,-93.83 585,-74 604.06,-62.3 620.46,-42.32 630.71,-27.9"/>
<polygon fill="#63b8ff" stroke="#63b8ff" points="633.79,-29.59 636.52,-19.36 628,-25.65 633.79,-29.59"/>
</a>
</g>
</g>
<!-- Node2&#45;&gt;Node11 -->
<g id="edge10_Node000002_Node000011" class="edge">
<title>Node2&#45;&gt;Node11</title>
<g id="a_edge10_Node000002_Node000011"><a xlink:title=" ">
<path fill="none" stroke="#63b8ff" d="M463.18,-109.98C518.18,-99.39 610.89,-81.52 660.42,-71.97"/>
<polygon fill="#63b8ff" stroke="#63b8ff" points="661.15,-75.4 670.31,-70.07 659.83,-68.52 661.15,-75.4"/>
</a>
</g>
</g>
<!-- Node12 -->
<g id="Node000012" class="node">
<title>Node12</title>
<g id="a_Node000012"><a xlink:href="job__scheduler_8h.html" target="_top" xlink:title="Job scheduler detection and resource management for HPC environments.">
<polygon fill="white" stroke="#666666" points="510,-74 418,-74 418,-55 510,-55 510,-74"/>
<text text-anchor="middle" x="464" y="-62" font-family="Helvetica,sans-Serif" font-size="10.00">job_scheduler.h</text>
</a>
</g>
</g>
<!-- Node2&#45;&gt;Node12 -->
<g id="edge11_Node000002_Node000012" class="edge">
<title>Node2&#45;&gt;Node12</title>
<g id="a_edge11_Node000002_Node000012"><a xlink:title=" ">
<path fill="none" stroke="#63b8ff" d="M426.43,-109.75C432.85,-102.18 442.31,-91.05 450.12,-81.84"/>
<polygon fill="#63b8ff" stroke="#63b8ff" points="452.9,-83.98 456.71,-74.09 447.57,-79.45 452.9,-83.98"/>
</a>
</g>
</g>
<!-- Node12&#45;&gt;Node3 -->
<g id="edge12_Node000012_Node000003" class="edge">
<title>Node12&#45;&gt;Node3</title>
<g id="a_edge12_Node000012_Node000003"><a xlink:title=" ">
<path fill="none" stroke="#63b8ff" d="M440.86,-54.98C417.18,-46.27 380.13,-32.63 353.29,-22.75"/>
<polygon fill="#63b8ff" stroke="#63b8ff" points="354.15,-19.34 343.56,-19.17 351.73,-25.91 354.15,-19.34"/>
</a>
</g>
</g>
<!-- Node12&#45;&gt;Node7 -->
<g id="edge15_Node000012_Node000007" class="edge">
<title>Node12&#45;&gt;Node7</title>
<g id="a_edge15_Node000012_Node000007"><a xlink:title=" ">
<path fill="none" stroke="#63b8ff" d="M417.96,-55.39C360.13,-45.21 261.7,-27.88 205.56,-17.99"/>
<polygon fill="#63b8ff" stroke="#63b8ff" points="206.04,-14.53 195.59,-16.24 204.83,-21.42 206.04,-14.53"/>
</a>
</g>
</g>
<!-- Node12&#45;&gt;Node10 -->
<g id="edge16_Node000012_Node000010" class="edge">
<title>Node12&#45;&gt;Node10</title>
<g id="a_edge16_Node000012_Node000010"><a xlink:title=" ">
<path fill="none" stroke="#63b8ff" d="M492.6,-54.98C524.75,-45.41 576.81,-29.91 610.21,-19.96"/>
<polygon fill="#63b8ff" stroke="#63b8ff" points="611.35,-23.28 619.94,-17.07 609.35,-16.57 611.35,-23.28"/>
</a>
</g>
</g>
<!-- Node13 -->
<g id="Node000013" class="node">
<title>Node13</title>
<g id="a_Node000013"><a xlink:title=" ">
<polygon fill="#e0e0e0" stroke="#999999" points="454.5,-19 405.5,-19 405.5,0 454.5,0 454.5,-19"/>
<text text-anchor="middle" x="430" y="-7" font-family="Helvetica,sans-Serif" font-size="10.00">cctype</text>
</a>
</g>
</g>
<!-- Node12&#45;&gt;Node13 -->
<g id="edge13_Node000012_Node000013" class="edge">
<title>Node12&#45;&gt;Node13</title>
<g id="a_edge13_Node000012_Node000013"><a xlink:title=" ">
<path fill="none" stroke="#63b8ff" d="M458.39,-54.75C453.68,-47.42 446.83,-36.73 441.03,-27.7"/>
<polygon fill="#63b8ff" stroke="#63b8ff" points="443.86,-25.62 435.51,-19.09 437.96,-29.4 443.86,-25.62"/>
</a>
</g>
</g>
<!-- Node14 -->
<g id="Node000014" class="node">
<title>Node14</title>
<g id="a_Node000014"><a xlink:title=" ">
<polygon fill="#e0e0e0" stroke="#999999" points="521.5,-19 472.5,-19 472.5,0 521.5,0 521.5,-19"/>
<text text-anchor="middle" x="497" y="-7" font-family="Helvetica,sans-Serif" font-size="10.00">cstdlib</text>
</a>
</g>
</g>
<!-- Node12&#45;&gt;Node14 -->
<g id="edge14_Node000012_Node000014" class="edge">
<title>Node12&#45;&gt;Node14</title>
<g id="a_edge14_Node000012_Node000014"><a xlink:title=" ">
<path fill="none" stroke="#63b8ff" d="M469.45,-54.75C474.01,-47.42 480.67,-36.73 486.29,-27.7"/>
<polygon fill="#63b8ff" stroke="#63b8ff" points="489.34,-29.43 491.65,-19.09 483.4,-25.73 489.34,-29.43"/>
</a>
</g>
</g>
<!-- Node15&#45;&gt;Node2 -->
<g id="edge18_Node000015_Node000002" class="edge">
<title>Node15&#45;&gt;Node2</title>
<g id="a_edge18_Node000015_Node000002"><a xlink:title=" ">
<path fill="none" stroke="#63b8ff" d="M568.4,-164.98C538.39,-156.05 491.02,-141.94 457.68,-132.02"/>
<polygon fill="#63b8ff" stroke="#63b8ff" points="458.41,-128.58 447.82,-129.08 456.41,-135.29 458.41,-128.58"/>
</a>
</g>
</g>
<!-- Node15&#45;&gt;Node8 -->
<g id="edge20_Node000015_Node000008" class="edge">
<title>Node15&#45;&gt;Node8</title>
<g id="a_edge20_Node000015_Node000008"><a xlink:title=" ">
<path fill="none" stroke="#63b8ff" d="M555.18,-166.14C506.2,-157.48 422.65,-142.54 351,-129 248.85,-109.69 128.75,-85.65 68.17,-73.43"/>
<polygon fill="#63b8ff" stroke="#63b8ff" points="68.77,-69.98 58.27,-71.43 67.38,-76.84 68.77,-69.98"/>
</a>
</g>
</g>
<!-- Node15&#45;&gt;Node10 -->
<g id="edge21_Node000015_Node000010" class="edge">
<title>Node15&#45;&gt;Node10</title>
<g id="a_edge21_Node000015_Node000010"><a xlink:title=" ">
<path fill="none" stroke="#63b8ff" d="M599.42,-164.74C606.47,-139.2 627.11,-64.43 636.83,-29.23"/>
<polygon fill="#63b8ff" stroke="#63b8ff" points="640.28,-29.88 639.57,-19.31 633.53,-28.01 640.28,-29.88"/>
</a>
</g>
</g>
<!-- Node15&#45;&gt;Node11 -->
<g id="edge22_Node000015_Node000011" class="edge">
<title>Node15&#45;&gt;Node11</title>
<g id="a_edge22_Node000015_Node000011"><a xlink:title=" ">
<path fill="none" stroke="#63b8ff" d="M602.03,-164.75C609.59,-151.99 624.74,-127.84 641,-110 650.86,-99.18 663.35,-88.57 673.72,-80.43"/>
<polygon fill="#63b8ff" stroke="#63b8ff" points="676.02,-83.08 681.84,-74.22 671.77,-77.52 676.02,-83.08"/>
</a>
</g>
</g>
<!-- Node15&#45;&gt;Node16 -->
<g id="edge19_Node000015_Node000016" class="edge">
<title>Node15&#45;&gt;Node16</title>
<g id="a_edge19_Node000015_Node000016"><a xlink:title=" ">
<path fill="none" stroke="#63b8ff" d="M610.98,-164.98C624.47,-156.77 645.13,-144.18 661.04,-134.49"/>
<polygon fill="#63b8ff" stroke="#63b8ff" points="663.05,-137.36 669.77,-129.17 659.41,-131.38 663.05,-137.36"/>
</a>
</g>
</g>
<!-- Node17&#45;&gt;Node10 -->
<g id="edge25_Node000017_Node000010" class="edge">
<title>Node17&#45;&gt;Node10</title>
<g id="a_edge25_Node000017_Node000010"><a xlink:title=" ">
<path fill="none" stroke="#63b8ff" d="M734.33,-164.9C739.42,-144.13 749.39,-90.3 727,-55 715.12,-36.28 692.63,-25 673.76,-18.48"/>
<polygon fill="#63b8ff" stroke="#63b8ff" points="674.61,-15.08 664.02,-15.41 672.5,-21.75 674.61,-15.08"/>
</a>
</g>
</g>
<!-- Node17&#45;&gt;Node16 -->
<g id="edge24_Node000017_Node000016" class="edge">
<title>Node17&#45;&gt;Node16</title>
<g id="a_edge24_Node000017_Node000016"><a xlink:title=" ">
<path fill="none" stroke="#63b8ff" d="M724.07,-164.75C717.15,-157.11 706.93,-145.82 698.55,-136.56"/>
<polygon fill="#63b8ff" stroke="#63b8ff" points="701.09,-134.15 691.78,-129.09 695.9,-138.85 701.09,-134.15"/>
</a>
</g>
</g>
</g>
</svg>
