<?xml version="1.0" encoding="UTF-8" standalone="no"?>
<!DOCTYPE svg PUBLIC "-//W3C//DTD SVG 1.1//EN"
 "http://www.w3.org/Graphics/SVG/1.1/DTD/svg11.dtd">
<!-- Generated by graphviz version 2.43.0 (0)
 -->
<!-- Title: core/coord_extractor.cpp Pages: 1 -->
<svg width="1383pt" height="302pt"
 viewBox="0.00 0.00 1383.00 302.00" xmlns="http://www.w3.org/2000/svg" xmlns:xlink="http://www.w3.org/1999/xlink">
<g id="graph0" class="graph" transform="scale(1 1) rotate(0) translate(4 298)">
<title>core/coord_extractor.cpp</title>
<!-- Node1 -->
<g id="Node000001" class="node">
<title>Node1</title>
<g id="a_Node000001"><a xlink:title=" ">
<polygon fill="#999999" stroke="#666666" points="873.5,-294 736.5,-294 736.5,-275 873.5,-275 873.5,-294"/>
<text text-anchor="middle" x="805" y="-282" font-family="Helvetica,sans-Serif" font-size="10.00">core/coord_extractor.cpp</text>
</a>
</g>
</g>
<!-- Node2 -->
<g id="Node000002" class="node">
<title>Node2</title>
<g id="a_Node000002"><a xlink:href="coord__extractor_8h.html" target="_top" xlink:title="Header file for coordinate extraction command xyz to extract coordinates from Gaussian outputs.">
<polygon fill="white" stroke="#666666" points="372.5,-239 271.5,-239 271.5,-220 372.5,-220 372.5,-239"/>
<text text-anchor="middle" x="322" y="-227" font-family="Helvetica,sans-Serif" font-size="10.00">coord_extractor.h</text>
</a>
</g>
</g>
<!-- Node1&#45;&gt;Node2 -->
<g id="edge1_Node000001_Node000002" class="edge">
<title>Node1&#45;&gt;Node2</title>
<g id="a_edge1_Node000001_Node000002"><a xlink:title=" ">
<path fill="none" stroke="#63b8ff" d="M736.31,-275.96C641.77,-265.59 473.02,-247.07 382.81,-237.17"/>
<polygon fill="#63b8ff" stroke="#63b8ff" points="383.07,-233.68 372.74,-236.07 382.3,-240.64 383.07,-233.68"/>
</a>
</g>
</g>
<!-- Node4 -->
<g id="Node000004" class="node">
<title>Node4</title>
<g id="a_Node000004"><a xlink:title=" ">
<polygon fill="#e0e0e0" stroke="#999999" points="711,-19 647,-19 647,0 711,0 711,-19"/>
<text text-anchor="middle" x="679" y="-7" font-family="Helvetica,sans-Serif" font-size="10.00">algorithm</text>
</a>
</g>
</g>
<!-- Node1&#45;&gt;Node4 -->
<g id="edge34_Node000001_Node000004" class="edge">
<title>Node1&#45;&gt;Node4</title>
<g id="a_edge34_Node000001_Node000004"><a xlink:title=" ">
<path fill="none" stroke="#63b8ff" d="M807.47,-274.86C817.9,-237.57 856.65,-90.63 830,-55 805.12,-21.73 756.56,-12.28 721.2,-10.09"/>
<polygon fill="#63b8ff" stroke="#63b8ff" points="721.3,-6.6 711.15,-9.64 720.98,-13.59 721.3,-6.6"/>
</a>
</g>
</g>
<!-- Node5 -->
<g id="Node000005" class="node">
<title>Node5</title>
<g id="a_Node000005"><a xlink:title=" ">
<polygon fill="#e0e0e0" stroke="#999999" points="755,-74 705,-74 705,-55 755,-55 755,-74"/>
<text text-anchor="middle" x="730" y="-62" font-family="Helvetica,sans-Serif" font-size="10.00">atomic</text>
</a>
</g>
</g>
<!-- Node1&#45;&gt;Node5 -->
<g id="edge35_Node000001_Node000005" class="edge">
<title>Node1&#45;&gt;Node5</title>
<g id="a_edge35_Node000001_Node000005"><a xlink:title=" ">
<path fill="none" stroke="#63b8ff" d="M800.45,-274.79C795.92,-265.94 788.96,-251.74 784,-239 762.5,-183.78 743.47,-116.18 734.87,-84.1"/>
<polygon fill="#63b8ff" stroke="#63b8ff" points="738.22,-83.08 732.28,-74.31 731.46,-84.88 738.22,-83.08"/>
</a>
</g>
</g>
<!-- Node10 -->
<g id="Node000010" class="node">
<title>Node10</title>
<g id="a_Node000010"><a xlink:title=" ">
<polygon fill="#e0e0e0" stroke="#999999" points="821,-74 773,-74 773,-55 821,-55 821,-74"/>
<text text-anchor="middle" x="797" y="-62" font-family="Helvetica,sans-Serif" font-size="10.00">mutex</text>
</a>
</g>
</g>
<!-- Node1&#45;&gt;Node10 -->
<g id="edge41_Node000001_Node000010" class="edge">
<title>Node1&#45;&gt;Node10</title>
<g id="a_edge41_Node000001_Node000010"><a xlink:title=" ">
<path fill="none" stroke="#63b8ff" d="M801.4,-274.82C797.94,-265.99 792.97,-251.81 791,-239 782.44,-183.28 789.59,-116.37 794.06,-84.36"/>
<polygon fill="#63b8ff" stroke="#63b8ff" points="797.56,-84.64 795.56,-74.23 790.64,-83.62 797.56,-84.64"/>
</a>
</g>
</g>
<!-- Node11 -->
<g id="Node000011" class="node">
<title>Node11</title>
<g id="a_Node000011"><a xlink:title=" ">
<polygon fill="#e0e0e0" stroke="#999999" points="117,-19 73,-19 73,0 117,0 117,-19"/>
<text text-anchor="middle" x="95" y="-7" font-family="Helvetica,sans-Serif" font-size="10.00">string</text>
</a>
</g>
</g>
<!-- Node1&#45;&gt;Node11 -->
<g id="edge44_Node000001_Node000011" class="edge">
<title>Node1&#45;&gt;Node11</title>
<g id="a_edge44_Node000001_Node000011"><a xlink:title=" ">
<path fill="none" stroke="#63b8ff" d="M736.37,-281.46C541.69,-274.78 0,-249.53 0,-175.5 0,-175.5 0,-175.5 0,-118.5 0,-75.91 42.16,-42.14 70.31,-24.33"/>
<polygon fill="#63b8ff" stroke="#63b8ff" points="72.16,-27.31 78.88,-19.12 68.52,-21.32 72.16,-27.31"/>
</a>
</g>
</g>
<!-- Node12 -->
<g id="Node000012" class="node">
<title>Node12</title>
<g id="a_Node000012"><a xlink:title=" ">
<polygon fill="#e0e0e0" stroke="#999999" points="686.5,-74 639.5,-74 639.5,-55 686.5,-55 686.5,-74"/>
<text text-anchor="middle" x="663" y="-62" font-family="Helvetica,sans-Serif" font-size="10.00">vector</text>
</a>
</g>
</g>
<!-- Node1&#45;&gt;Node12 -->
<g id="edge47_Node000001_Node000012" class="edge">
<title>Node1&#45;&gt;Node12</title>
<g id="a_edge47_Node000001_Node000012"><a xlink:title=" ">
<path fill="none" stroke="#63b8ff" d="M798.47,-274.74C791.89,-265.84 781.52,-251.62 773,-239 735.16,-183 693.07,-114.84 673.75,-83.21"/>
<polygon fill="#63b8ff" stroke="#63b8ff" points="676.51,-81 668.32,-74.28 670.53,-84.64 676.51,-81"/>
</a>
</g>
</g>
<!-- Node16 -->
<g id="Node000016" class="node">
<title>Node16</title>
<g id="a_Node000016"><a xlink:href="job__checker_8h.html" target="_top" xlink:title="Job status checking and file organization system for Gaussian calculations.">
<polygon fill="white" stroke="#666666" points="284.5,-184 201.5,-184 201.5,-165 284.5,-165 284.5,-184"/>
<text text-anchor="middle" x="243" y="-172" font-family="Helvetica,sans-Serif" font-size="10.00">job_checker.h</text>
</a>
</g>
</g>
<!-- Node1&#45;&gt;Node16 -->
<g id="edge32_Node000001_Node000016" class="edge">
<title>Node1&#45;&gt;Node16</title>
<g id="a_edge32_Node000001_Node000016"><a xlink:title=" ">
<path fill="none" stroke="#63b8ff" d="M736.49,-282.15C598.71,-278.82 298.1,-268.25 262,-239 248.88,-228.37 244.56,-209.06 243.26,-194.51"/>
<polygon fill="#63b8ff" stroke="#63b8ff" points="246.73,-193.94 242.75,-184.12 239.74,-194.28 246.73,-193.94"/>
</a>
</g>
</g>
<!-- Node18 -->
<g id="Node000018" class="node">
<title>Node18</title>
<g id="a_Node000018"><a xlink:href="utils_8h.html" target="_top" xlink:title="Universial functions and classes for all modules.">
<polygon fill="white" stroke="#666666" points="95.5,-184 48.5,-184 48.5,-165 95.5,-165 95.5,-184"/>
<text text-anchor="middle" x="72" y="-172" font-family="Helvetica,sans-Serif" font-size="10.00">utils.h</text>
</a>
</g>
</g>
<!-- Node1&#45;&gt;Node18 -->
<g id="edge33_Node000001_Node000018" class="edge">
<title>Node1&#45;&gt;Node18</title>
<g id="a_edge33_Node000001_Node000018"><a xlink:title=" ">
<path fill="none" stroke="#63b8ff" d="M736.15,-283.96C629.77,-283.35 419.6,-276.85 246,-239 192.53,-227.34 133.24,-203.12 99.51,-188.19"/>
<polygon fill="#63b8ff" stroke="#63b8ff" points="100.86,-184.96 90.3,-184.06 98,-191.34 100.86,-184.96"/>
</a>
</g>
</g>
<!-- Node19 -->
<g id="Node000019" class="node">
<title>Node19</title>
<g id="a_Node000019"><a xlink:title=" ">
<polygon fill="#e0e0e0" stroke="#999999" points="658,-184 572,-184 572,-165 658,-165 658,-184"/>
<text text-anchor="middle" x="615" y="-172" font-family="Helvetica,sans-Serif" font-size="10.00">unordered_set</text>
</a>
</g>
</g>
<!-- Node1&#45;&gt;Node19 -->
<g id="edge46_Node000001_Node000019" class="edge">
<title>Node1&#45;&gt;Node19</title>
<g id="a_edge46_Node000001_Node000019"><a xlink:title=" ">
<path fill="none" stroke="#63b8ff" d="M765.02,-274.93C738.37,-268 703.35,-256.48 676,-239 656.37,-226.45 638.5,-206.35 627.25,-192.12"/>
<polygon fill="#63b8ff" stroke="#63b8ff" points="630,-189.96 621.14,-184.15 624.44,-194.22 630,-189.96"/>
</a>
</g>
</g>
<!-- Node20 -->
<g id="Node000020" class="node">
<title>Node20</title>
<g id="a_Node000020"><a xlink:title=" ">
<polygon fill="#e0e0e0" stroke="#999999" points="883,-239 833,-239 833,-220 883,-220 883,-239"/>
<text text-anchor="middle" x="858" y="-227" font-family="Helvetica,sans-Serif" font-size="10.00">chrono</text>
</a>
</g>
</g>
<!-- Node1&#45;&gt;Node20 -->
<g id="edge36_Node000001_Node000020" class="edge">
<title>Node1&#45;&gt;Node20</title>
<g id="a_edge36_Node000001_Node000020"><a xlink:title=" ">
<path fill="none" stroke="#63b8ff" d="M813.75,-274.75C821.47,-267.03 832.9,-255.6 842.22,-246.28"/>
<polygon fill="#63b8ff" stroke="#63b8ff" points="844.81,-248.64 849.41,-239.09 839.86,-243.69 844.81,-248.64"/>
</a>
</g>
</g>
<!-- Node21 -->
<g id="Node000021" class="node">
<title>Node21</title>
<g id="a_Node000021"><a xlink:title=" ">
<polygon fill="#e0e0e0" stroke="#999999" points="956.5,-239 901.5,-239 901.5,-220 956.5,-220 956.5,-239"/>
<text text-anchor="middle" x="929" y="-227" font-family="Helvetica,sans-Serif" font-size="10.00">fstream</text>
</a>
</g>
</g>
<!-- Node1&#45;&gt;Node21 -->
<g id="edge37_Node000001_Node000021" class="edge">
<title>Node1&#45;&gt;Node21</title>
<g id="a_edge37_Node000001_Node000021"><a xlink:title=" ">
<path fill="none" stroke="#63b8ff" d="M824.92,-274.98C845.05,-266.38 876.38,-252.99 899.41,-243.15"/>
<polygon fill="#63b8ff" stroke="#63b8ff" points="900.9,-246.32 908.71,-239.17 898.14,-239.88 900.9,-246.32"/>
</a>
</g>
</g>
<!-- Node22 -->
<g id="Node000022" class="node">
<title>Node22</title>
<g id="a_Node000022"><a xlink:title=" ">
<polygon fill="#e0e0e0" stroke="#999999" points="1021,-239 975,-239 975,-220 1021,-220 1021,-239"/>
<text text-anchor="middle" x="998" y="-227" font-family="Helvetica,sans-Serif" font-size="10.00">future</text>
</a>
</g>
</g>
<!-- Node1&#45;&gt;Node22 -->
<g id="edge38_Node000001_Node000022" class="edge">
<title>Node1&#45;&gt;Node22</title>
<g id="a_edge38_Node000001_Node000022"><a xlink:title=" ">
<path fill="none" stroke="#63b8ff" d="M836.01,-274.98C871.31,-265.29 928.75,-249.52 964.9,-239.59"/>
<polygon fill="#63b8ff" stroke="#63b8ff" points="966.23,-242.86 974.94,-236.83 964.37,-236.11 966.23,-242.86"/>
</a>
</g>
</g>
<!-- Node23 -->
<g id="Node000023" class="node">
<title>Node23</title>
<g id="a_Node000023"><a xlink:title=" ">
<polygon fill="#e0e0e0" stroke="#999999" points="1095,-239 1039,-239 1039,-220 1095,-220 1095,-239"/>
<text text-anchor="middle" x="1067" y="-227" font-family="Helvetica,sans-Serif" font-size="10.00">iomanip</text>
</a>
</g>
</g>
<!-- Node1&#45;&gt;Node23 -->
<g id="edge39_Node000001_Node000023" class="edge">
<title>Node1&#45;&gt;Node23</title>
<g id="a_edge39_Node000001_Node000023"><a xlink:title=" ">
<path fill="none" stroke="#63b8ff" d="M850.33,-274.96C893.7,-266.69 961.19,-253.57 1028.77,-239.21"/>
<polygon fill="#63b8ff" stroke="#63b8ff" points="1029.69,-242.6 1038.74,-237.09 1028.23,-235.75 1029.69,-242.6"/>
</a>
</g>
</g>
<!-- Node24 -->
<g id="Node000024" class="node">
<title>Node24</title>
<g id="a_Node000024"><a xlink:title=" ">
<polygon fill="#e0e0e0" stroke="#999999" points="1173,-239 1113,-239 1113,-220 1173,-220 1173,-239"/>
<text text-anchor="middle" x="1143" y="-227" font-family="Helvetica,sans-Serif" font-size="10.00">iostream</text>
</a>
</g>
</g>
<!-- Node1&#45;&gt;Node24 -->
<g id="edge40_Node000001_Node000024" class="edge">
<title>Node1&#45;&gt;Node24</title>
<g id="a_edge40_Node000001_Node000024"><a xlink:title=" ">
<path fill="none" stroke="#63b8ff" d="M870.83,-274.99C929.3,-267.14 1017.29,-254.61 1102.92,-239.1"/>
<polygon fill="#63b8ff" stroke="#63b8ff" points="1103.6,-242.53 1112.81,-237.29 1102.34,-235.64 1103.6,-242.53"/>
</a>
</g>
</g>
<!-- Node25 -->
<g id="Node000025" class="node">
<title>Node25</title>
<g id="a_Node000025"><a xlink:title=" ">
<polygon fill="#e0e0e0" stroke="#999999" points="1235,-239 1191,-239 1191,-220 1235,-220 1235,-239"/>
<text text-anchor="middle" x="1213" y="-227" font-family="Helvetica,sans-Serif" font-size="10.00">regex</text>
</a>
</g>
</g>
<!-- Node1&#45;&gt;Node25 -->
<g id="edge42_Node000001_Node000025" class="edge">
<title>Node1&#45;&gt;Node25</title>
<g id="a_edge42_Node000001_Node000025"><a xlink:title=" ">
<path fill="none" stroke="#63b8ff" d="M873.58,-278.52C947.35,-272.46 1068.18,-260.51 1180.91,-238.94"/>
<polygon fill="#63b8ff" stroke="#63b8ff" points="1181.59,-242.38 1190.74,-237.03 1180.26,-235.5 1181.59,-242.38"/>
</a>
</g>
</g>
<!-- Node26 -->
<g id="Node000026" class="node">
<title>Node26</title>
<g id="a_Node000026"><a xlink:title=" ">
<polygon fill="#e0e0e0" stroke="#999999" points="1309,-239 1253,-239 1253,-220 1309,-220 1309,-239"/>
<text text-anchor="middle" x="1281" y="-227" font-family="Helvetica,sans-Serif" font-size="10.00">sstream</text>
</a>
</g>
</g>
<!-- Node1&#45;&gt;Node26 -->
<g id="edge43_Node000001_Node000026" class="edge">
<title>Node1&#45;&gt;Node26</title>
<g id="a_edge43_Node000001_Node000026"><a xlink:title=" ">
<path fill="none" stroke="#63b8ff" d="M873.79,-279.19C958.39,-273.3 1106.54,-261.05 1242.6,-239.03"/>
<polygon fill="#63b8ff" stroke="#63b8ff" points="1243.49,-242.43 1252.79,-237.36 1242.36,-235.53 1243.49,-242.43"/>
</a>
</g>
</g>
<!-- Node27 -->
<g id="Node000027" class="node">
<title>Node27</title>
<g id="a_Node000027"><a xlink:title=" ">
<polygon fill="#e0e0e0" stroke="#999999" points="1375,-239 1327,-239 1327,-220 1375,-220 1375,-239"/>
<text text-anchor="middle" x="1351" y="-227" font-family="Helvetica,sans-Serif" font-size="10.00">thread</text>
</a>
</g>
</g>
<!-- Node1&#45;&gt;Node27 -->
<g id="edge45_Node000001_Node000027" class="edge">
<title>Node1&#45;&gt;Node27</title>
<g id="a_edge45_Node000001_Node000027"><a xlink:title=" ">
<path fill="none" stroke="#63b8ff" d="M873.5,-281.16C970.28,-277.06 1152.6,-266.41 1316.67,-238.93"/>
<polygon fill="#63b8ff" stroke="#63b8ff" points="1317.68,-242.31 1326.95,-237.19 1316.5,-235.41 1317.68,-242.31"/>
</a>
</g>
</g>
<!-- Node3 -->
<g id="Node000003" class="node">
<title>Node3</title>
<g id="a_Node000003"><a xlink:href="gaussian__extractor_8h.html" target="_top" xlink:title="Core extraction engine and data structures for Gaussian log file processing.">
<polygon fill="white" stroke="#666666" points="467,-129 349,-129 349,-110 467,-110 467,-129"/>
<text text-anchor="middle" x="408" y="-117" font-family="Helvetica,sans-Serif" font-size="10.00">gaussian_extractor.h</text>
</a>
</g>
</g>
<!-- Node2&#45;&gt;Node3 -->
<g id="edge2_Node000002_Node000003" class="edge">
<title>Node2&#45;&gt;Node3</title>
<g id="a_edge2_Node000002_Node000003"><a xlink:title=" ">
<path fill="none" stroke="#63b8ff" d="M329.04,-219.66C343.41,-201.61 376.33,-160.28 394.8,-137.08"/>
<polygon fill="#63b8ff" stroke="#63b8ff" points="397.61,-139.16 401.11,-129.16 392.14,-134.8 397.61,-139.16"/>
</a>
</g>
</g>
<!-- Node9 -->
<g id="Node000009" class="node">
<title>Node9</title>
<g id="a_Node000009"><a xlink:title=" ">
<polygon fill="#e0e0e0" stroke="#999999" points="200,-74 142,-74 142,-55 200,-55 200,-74"/>
<text text-anchor="middle" x="171" y="-62" font-family="Helvetica,sans-Serif" font-size="10.00">memory</text>
</a>
</g>
</g>
<!-- Node2&#45;&gt;Node9 -->
<g id="edge28_Node000002_Node000009" class="edge">
<title>Node2&#45;&gt;Node9</title>
<g id="a_edge28_Node000002_Node000009"><a xlink:title=" ">
<path fill="none" stroke="#63b8ff" d="M319.22,-219.71C314.91,-206.9 305.75,-182.7 293,-165 266.13,-127.71 221.91,-96.47 194.74,-79.43"/>
<polygon fill="#63b8ff" stroke="#63b8ff" points="196.25,-76.25 185.89,-74.01 192.59,-82.22 196.25,-76.25"/>
</a>
</g>
</g>
<!-- Node2&#45;&gt;Node11 -->
<g id="edge29_Node000002_Node000011" class="edge">
<title>Node2&#45;&gt;Node11</title>
<g id="a_edge29_Node000002_Node000011"><a xlink:title=" ">
<path fill="none" stroke="#63b8ff" d="M273.88,-219.95C247.65,-213.45 215.78,-202.38 192,-184 160.79,-159.88 165.73,-142.24 143,-110 131.47,-93.66 125.26,-91.73 116,-74 108.51,-59.67 102.96,-42.15 99.45,-29.14"/>
<polygon fill="#63b8ff" stroke="#63b8ff" points="102.75,-27.9 96.89,-19.07 95.96,-29.62 102.75,-27.9"/>
</a>
</g>
</g>
<!-- Node2&#45;&gt;Node12 -->
<g id="edge31_Node000002_Node000012" class="edge">
<title>Node2&#45;&gt;Node12</title>
<g id="a_edge31_Node000002_Node000012"><a xlink:title=" ">
<path fill="none" stroke="#63b8ff" d="M339.85,-219.97C395.89,-193.18 568.52,-110.66 635.78,-78.51"/>
<polygon fill="#63b8ff" stroke="#63b8ff" points="637.4,-81.62 644.91,-74.15 634.38,-75.3 637.4,-81.62"/>
</a>
</g>
</g>
<!-- Node2&#45;&gt;Node16 -->
<g id="edge18_Node000002_Node000016" class="edge">
<title>Node2&#45;&gt;Node16</title>
<g id="a_edge18_Node000002_Node000016"><a xlink:title=" ">
<path fill="none" stroke="#63b8ff" d="M309.31,-219.98C297.17,-211.84 278.64,-199.41 264.25,-189.76"/>
<polygon fill="#63b8ff" stroke="#63b8ff" points="266.18,-186.84 255.92,-184.17 262.28,-192.65 266.18,-186.84"/>
</a>
</g>
</g>
<!-- Node17 -->
<g id="Node000017" class="node">
<title>Node17</title>
<g id="a_Node000017"><a xlink:title=" ">
<polygon fill="#e0e0e0" stroke="#999999" points="134,-129 66,-129 66,-110 134,-110 134,-129"/>
<text text-anchor="middle" x="100" y="-117" font-family="Helvetica,sans-Serif" font-size="10.00">filesystem</text>
</a>
</g>
</g>
<!-- Node2&#45;&gt;Node17 -->
<g id="edge27_Node000002_Node000017" class="edge">
<title>Node2&#45;&gt;Node17</title>
<g id="a_edge27_Node000002_Node000017"><a xlink:title=" ">
<path fill="none" stroke="#63b8ff" d="M271.15,-224.47C234.37,-219.53 184.87,-208.52 148,-184 130.8,-172.56 117.32,-152.82 109.08,-138.38"/>
<polygon fill="#63b8ff" stroke="#63b8ff" points="112.06,-136.54 104.23,-129.4 105.9,-139.86 112.06,-136.54"/>
</a>
</g>
</g>
<!-- Node2&#45;&gt;Node18 -->
<g id="edge24_Node000002_Node000018" class="edge">
<title>Node2&#45;&gt;Node18</title>
<g id="a_edge24_Node000002_Node000018"><a xlink:title=" ">
<path fill="none" stroke="#63b8ff" d="M280.53,-219.96C237.77,-211.12 169.17,-196.83 110,-184 108.55,-183.69 107.08,-183.36 105.59,-183.04"/>
<polygon fill="#63b8ff" stroke="#63b8ff" points="106.23,-179.59 95.71,-180.85 104.71,-186.43 106.23,-179.59"/>
</a>
</g>
</g>
<!-- Node2&#45;&gt;Node19 -->
<g id="edge30_Node000002_Node000019" class="edge">
<title>Node2&#45;&gt;Node19</title>
<g id="a_edge30_Node000002_Node000019"><a xlink:title=" ">
<path fill="none" stroke="#63b8ff" d="M369.08,-219.98C421.77,-210.45 506.95,-195.05 561.96,-185.1"/>
<polygon fill="#63b8ff" stroke="#63b8ff" points="562.64,-188.53 571.86,-183.3 561.4,-181.64 562.64,-188.53"/>
</a>
</g>
</g>
<!-- Node3&#45;&gt;Node4 -->
<g id="edge3_Node000003_Node000004" class="edge">
<title>Node3&#45;&gt;Node4</title>
<g id="a_edge3_Node000003_Node000004"><a xlink:title=" ">
<path fill="none" stroke="#63b8ff" d="M467.15,-110.28C504.22,-103.67 552.34,-92.38 592,-74 618.58,-61.68 645.22,-40.65 661.88,-26.19"/>
<polygon fill="#63b8ff" stroke="#63b8ff" points="664.48,-28.57 669.63,-19.31 659.83,-23.33 664.48,-28.57"/>
</a>
</g>
</g>
<!-- Node3&#45;&gt;Node5 -->
<g id="edge4_Node000003_Node000005" class="edge">
<title>Node3&#45;&gt;Node5</title>
<g id="a_edge4_Node000003_Node000005"><a xlink:title=" ">
<path fill="none" stroke="#63b8ff" d="M467.07,-110.83C525.27,-102.92 616.61,-89.57 695,-74 695.1,-73.98 695.2,-73.96 695.3,-73.94"/>
<polygon fill="#63b8ff" stroke="#63b8ff" points="695.79,-77.42 704.82,-71.88 694.31,-70.57 695.79,-77.42"/>
</a>
</g>
</g>
<!-- Node6 -->
<g id="Node000006" class="node">
<title>Node6</title>
<g id="a_Node000006"><a xlink:title=" ">
<polygon fill="#e0e0e0" stroke="#999999" points="363.5,-74 256.5,-74 256.5,-55 363.5,-55 363.5,-74"/>
<text text-anchor="middle" x="310" y="-62" font-family="Helvetica,sans-Serif" font-size="10.00">condition_variable</text>
</a>
</g>
</g>
<!-- Node3&#45;&gt;Node6 -->
<g id="edge5_Node000003_Node000006" class="edge">
<title>Node3&#45;&gt;Node6</title>
<g id="a_edge5_Node000003_Node000006"><a xlink:title=" ">
<path fill="none" stroke="#63b8ff" d="M392.25,-109.98C376.77,-101.61 352.91,-88.7 334.86,-78.95"/>
<polygon fill="#63b8ff" stroke="#63b8ff" points="336.49,-75.85 326.03,-74.17 333.16,-82.01 336.49,-75.85"/>
</a>
</g>
</g>
<!-- Node7 -->
<g id="Node000007" class="node">
<title>Node7</title>
<g id="a_Node000007"><a xlink:title=" ">
<polygon fill="#e0e0e0" stroke="#999999" points="434.5,-74 381.5,-74 381.5,-55 434.5,-55 434.5,-74"/>
<text text-anchor="middle" x="408" y="-62" font-family="Helvetica,sans-Serif" font-size="10.00">cstddef</text>
</a>
</g>
</g>
<!-- Node3&#45;&gt;Node7 -->
<g id="edge6_Node000003_Node000007" class="edge">
<title>Node3&#45;&gt;Node7</title>
<g id="a_edge6_Node000003_Node000007"><a xlink:title=" ">
<path fill="none" stroke="#63b8ff" d="M408,-109.75C408,-102.8 408,-92.85 408,-84.13"/>
<polygon fill="#63b8ff" stroke="#63b8ff" points="411.5,-84.09 408,-74.09 404.5,-84.09 411.5,-84.09"/>
</a>
</g>
</g>
<!-- Node8 -->
<g id="Node000008" class="node">
<title>Node8</title>
<g id="a_Node000008"><a xlink:title=" ">
<polygon fill="#e0e0e0" stroke="#999999" points="494.5,-19 429.5,-19 429.5,0 494.5,0 494.5,-19"/>
<text text-anchor="middle" x="462" y="-7" font-family="Helvetica,sans-Serif" font-size="10.00">functional</text>
</a>
</g>
</g>
<!-- Node3&#45;&gt;Node8 -->
<g id="edge7_Node000003_Node000008" class="edge">
<title>Node3&#45;&gt;Node8</title>
<g id="a_edge7_Node000003_Node000008"><a xlink:title=" ">
<path fill="none" stroke="#63b8ff" d="M416.32,-109.99C424.19,-101.51 435.85,-87.78 443,-74 450.38,-59.78 455.35,-42.25 458.35,-29.21"/>
<polygon fill="#63b8ff" stroke="#63b8ff" points="461.84,-29.61 460.49,-19.11 455,-28.16 461.84,-29.61"/>
</a>
</g>
</g>
<!-- Node3&#45;&gt;Node9 -->
<g id="edge8_Node000003_Node000009" class="edge">
<title>Node3&#45;&gt;Node9</title>
<g id="a_edge8_Node000003_Node000009"><a xlink:title=" ">
<path fill="none" stroke="#63b8ff" d="M369.92,-109.98C325.98,-100.16 254.1,-84.08 209.83,-74.18"/>
<polygon fill="#63b8ff" stroke="#63b8ff" points="210.54,-70.76 200.02,-71.99 209.02,-77.59 210.54,-70.76"/>
</a>
</g>
</g>
<!-- Node3&#45;&gt;Node10 -->
<g id="edge9_Node000003_Node000010" class="edge">
<title>Node3&#45;&gt;Node10</title>
<g id="a_edge9_Node000003_Node000010"><a xlink:title=" ">
<path fill="none" stroke="#63b8ff" d="M467.26,-113.43C536.13,-107.01 653.32,-94.49 763.02,-73.96"/>
<polygon fill="#63b8ff" stroke="#63b8ff" points="763.76,-77.38 772.93,-72.08 762.45,-70.5 763.76,-77.38"/>
</a>
</g>
</g>
<!-- Node3&#45;&gt;Node11 -->
<g id="edge10_Node000003_Node000011" class="edge">
<title>Node3&#45;&gt;Node11</title>
<g id="a_edge10_Node000003_Node000011"><a xlink:title=" ">
<path fill="none" stroke="#63b8ff" d="M368.94,-109.95C335.9,-102.19 287.61,-89.59 247,-74 229.37,-67.23 226.26,-62.66 209,-55 181.6,-42.83 149.77,-30.56 126.71,-21.99"/>
<polygon fill="#63b8ff" stroke="#63b8ff" points="127.69,-18.62 117.1,-18.44 125.27,-25.19 127.69,-18.62"/>
</a>
</g>
</g>
<!-- Node3&#45;&gt;Node12 -->
<g id="edge11_Node000003_Node000012" class="edge">
<title>Node3&#45;&gt;Node12</title>
<g id="a_edge11_Node000003_Node000012"><a xlink:title=" ">
<path fill="none" stroke="#63b8ff" d="M450.87,-109.94C494.67,-101.14 564.65,-86.94 625,-74 626.45,-73.69 627.92,-73.37 629.41,-73.05"/>
<polygon fill="#63b8ff" stroke="#63b8ff" points="630.28,-76.44 639.3,-70.87 628.78,-69.6 630.28,-76.44"/>
</a>
</g>
</g>
<!-- Node13 -->
<g id="Node000013" class="node">
<title>Node13</title>
<g id="a_Node000013"><a xlink:href="job__scheduler_8h.html" target="_top" xlink:title="Job scheduler detection and resource management for HPC environments.">
<polygon fill="white" stroke="#666666" points="583,-74 491,-74 491,-55 583,-55 583,-74"/>
<text text-anchor="middle" x="537" y="-62" font-family="Helvetica,sans-Serif" font-size="10.00">job_scheduler.h</text>
</a>
</g>
</g>
<!-- Node3&#45;&gt;Node13 -->
<g id="edge12_Node000003_Node000013" class="edge">
<title>Node3&#45;&gt;Node13</title>
<g id="a_edge12_Node000003_Node000013"><a xlink:title=" ">
<path fill="none" stroke="#63b8ff" d="M428.73,-109.98C449.76,-101.34 482.55,-87.87 506.54,-78.02"/>
<polygon fill="#63b8ff" stroke="#63b8ff" points="507.98,-81.21 515.9,-74.17 505.32,-74.73 507.98,-81.21"/>
</a>
</g>
</g>
<!-- Node13&#45;&gt;Node4 -->
<g id="edge13_Node000013_Node000004" class="edge">
<title>Node13&#45;&gt;Node4</title>
<g id="a_edge13_Node000013_Node000004"><a xlink:title=" ">
<path fill="none" stroke="#63b8ff" d="M559.81,-54.98C583.17,-46.27 619.7,-32.63 646.17,-22.75"/>
<polygon fill="#63b8ff" stroke="#63b8ff" points="647.63,-25.95 655.77,-19.17 645.18,-19.39 647.63,-25.95"/>
</a>
</g>
</g>
<!-- Node13&#45;&gt;Node8 -->
<g id="edge16_Node000013_Node000008" class="edge">
<title>Node13&#45;&gt;Node8</title>
<g id="a_edge16_Node000013_Node000008"><a xlink:title=" ">
<path fill="none" stroke="#63b8ff" d="M524.95,-54.98C513.54,-46.92 496.17,-34.65 482.57,-25.03"/>
<polygon fill="#63b8ff" stroke="#63b8ff" points="484.46,-22.08 474.27,-19.17 480.42,-27.8 484.46,-22.08"/>
</a>
</g>
</g>
<!-- Node13&#45;&gt;Node11 -->
<g id="edge17_Node000013_Node000011" class="edge">
<title>Node13&#45;&gt;Node11</title>
<g id="a_edge17_Node000013_Node000011"><a xlink:title=" ">
<path fill="none" stroke="#63b8ff" d="M490.95,-57.98C401.2,-47.22 204.9,-23.68 127.4,-14.38"/>
<polygon fill="#63b8ff" stroke="#63b8ff" points="127.62,-10.89 117.27,-13.17 126.78,-17.84 127.62,-10.89"/>
</a>
</g>
</g>
<!-- Node14 -->
<g id="Node000014" class="node">
<title>Node14</title>
<g id="a_Node000014"><a xlink:title=" ">
<polygon fill="#e0e0e0" stroke="#999999" points="628.5,-19 579.5,-19 579.5,0 628.5,0 628.5,-19"/>
<text text-anchor="middle" x="604" y="-7" font-family="Helvetica,sans-Serif" font-size="10.00">cctype</text>
</a>
</g>
</g>
<!-- Node13&#45;&gt;Node14 -->
<g id="edge14_Node000013_Node000014" class="edge">
<title>Node13&#45;&gt;Node14</title>
<g id="a_edge14_Node000013_Node000014"><a xlink:title=" ">
<path fill="none" stroke="#63b8ff" d="M547.76,-54.98C557.77,-47.07 572.89,-35.11 584.93,-25.58"/>
<polygon fill="#63b8ff" stroke="#63b8ff" points="587.37,-28.12 593.04,-19.17 583.03,-22.63 587.37,-28.12"/>
</a>
</g>
</g>
<!-- Node15 -->
<g id="Node000015" class="node">
<title>Node15</title>
<g id="a_Node000015"><a xlink:title=" ">
<polygon fill="#e0e0e0" stroke="#999999" points="561.5,-19 512.5,-19 512.5,0 561.5,0 561.5,-19"/>
<text text-anchor="middle" x="537" y="-7" font-family="Helvetica,sans-Serif" font-size="10.00">cstdlib</text>
</a>
</g>
</g>
<!-- Node13&#45;&gt;Node15 -->
<g id="edge15_Node000013_Node000015" class="edge">
<title>Node13&#45;&gt;Node15</title>
<g id="a_edge15_Node000013_Node000015"><a xlink:title=" ">
<path fill="none" stroke="#63b8ff" d="M537,-54.75C537,-47.8 537,-37.85 537,-29.13"/>
<polygon fill="#63b8ff" stroke="#63b8ff" points="540.5,-29.09 537,-19.09 533.5,-29.09 540.5,-29.09"/>
</a>
</g>
</g>
<!-- Node16&#45;&gt;Node3 -->
<g id="edge19_Node000016_Node000003" class="edge">
<title>Node16&#45;&gt;Node3</title>
<g id="a_edge19_Node000016_Node000003"><a xlink:title=" ">
<path fill="none" stroke="#63b8ff" d="M269.51,-164.98C297.21,-156.09 340.86,-142.07 371.74,-132.15"/>
<polygon fill="#63b8ff" stroke="#63b8ff" points="372.83,-135.47 381.28,-129.08 370.69,-128.81 372.83,-135.47"/>
</a>
</g>
</g>
<!-- Node16&#45;&gt;Node9 -->
<g id="edge21_Node000016_Node000009" class="edge">
<title>Node16&#45;&gt;Node9</title>
<g id="a_edge21_Node000016_Node000009"><a xlink:title=" ">
<path fill="none" stroke="#63b8ff" d="M240.1,-164.8C235.63,-152.1 226.29,-128.03 214,-110 206.85,-99.51 197.13,-89.21 188.74,-81.18"/>
<polygon fill="#63b8ff" stroke="#63b8ff" points="190.95,-78.45 181.24,-74.23 186.2,-83.59 190.95,-78.45"/>
</a>
</g>
</g>
<!-- Node16&#45;&gt;Node11 -->
<g id="edge22_Node000016_Node000011" class="edge">
<title>Node16&#45;&gt;Node11</title>
<g id="a_edge22_Node000016_Node000011"><a xlink:title=" ">
<path fill="none" stroke="#63b8ff" d="M234.06,-164.69C221.37,-152.26 197.3,-128.98 176,-110 157.39,-93.42 149.18,-92.96 133,-74 121.04,-59.98 110.55,-41.74 103.64,-28.4"/>
<polygon fill="#63b8ff" stroke="#63b8ff" points="106.7,-26.69 99.09,-19.32 100.44,-29.82 106.7,-26.69"/>
</a>
</g>
</g>
<!-- Node16&#45;&gt;Node12 -->
<g id="edge23_Node000016_Node000012" class="edge">
<title>Node16&#45;&gt;Node12</title>
<g id="a_edge23_Node000016_Node000012"><a xlink:title=" ">
<path fill="none" stroke="#63b8ff" d="M284.86,-168.12C331.97,-161.47 410.5,-148.56 476,-129 497.19,-122.67 501.21,-117.56 522,-110 558.31,-96.8 600.67,-83.74 629.41,-75.22"/>
<polygon fill="#63b8ff" stroke="#63b8ff" points="630.74,-78.47 639.34,-72.29 628.76,-71.76 630.74,-78.47"/>
</a>
</g>
</g>
<!-- Node16&#45;&gt;Node17 -->
<g id="edge20_Node000016_Node000017" class="edge">
<title>Node16&#45;&gt;Node17</title>
<g id="a_edge20_Node000016_Node000017"><a xlink:title=" ">
<path fill="none" stroke="#63b8ff" d="M220.02,-164.98C196.5,-156.27 159.71,-142.63 133.06,-132.75"/>
<polygon fill="#63b8ff" stroke="#63b8ff" points="133.99,-129.36 123.39,-129.17 131.55,-135.93 133.99,-129.36"/>
</a>
</g>
</g>
<!-- Node18&#45;&gt;Node11 -->
<g id="edge26_Node000018_Node000011" class="edge">
<title>Node18&#45;&gt;Node11</title>
<g id="a_edge26_Node000018_Node000011"><a xlink:title=" ">
<path fill="none" stroke="#63b8ff" d="M68.14,-164.85C64.44,-156.04 59.11,-141.87 57,-129 53.74,-109.1 59.94,-60.39 62,-55 65.93,-44.7 72.95,-34.71 79.51,-26.81"/>
<polygon fill="#63b8ff" stroke="#63b8ff" points="82.28,-28.96 86.28,-19.15 77.03,-24.33 82.28,-28.96"/>
</a>
</g>
</g>
<!-- Node18&#45;&gt;Node17 -->
<g id="edge25_Node000018_Node000017" class="edge">
<title>Node18&#45;&gt;Node17</title>
<g id="a_edge25_Node000018_Node000017"><a xlink:title=" ">
<path fill="none" stroke="#63b8ff" d="M76.62,-164.75C80.46,-157.49 86.02,-146.95 90.76,-137.98"/>
<polygon fill="#63b8ff" stroke="#63b8ff" points="93.89,-139.57 95.46,-129.09 87.7,-136.3 93.89,-139.57"/>
</a>
</g>
</g>
</g>
</svg>
