<?xml version="1.0" encoding="UTF-8" standalone="no"?>
<!DOCTYPE svg PUBLIC "-//W3C//DTD SVG 1.1//EN"
 "http://www.w3.org/Graphics/SVG/1.1/DTD/svg11.dtd">
<!-- Generated by graphviz version 2.43.0 (0)
 -->
<!-- Title: core/create_input.h Pages: 1 -->
<svg width="851pt" height="192pt"
 viewBox="0.00 0.00 850.50 192.00" xmlns="http://www.w3.org/2000/svg" xmlns:xlink="http://www.w3.org/1999/xlink">
<g id="graph0" class="graph" transform="scale(1 1) rotate(0) translate(4 188)">
<title>core/create_input.h</title>
<!-- Node1 -->
<g id="Node000001" class="node">
<title>Node1</title>
<g id="a_Node000001"><a xlink:title="Header file for Gaussian input file creation from XYZ files.">
<polygon fill="#999999" stroke="#666666" points="478,-184 368,-184 368,-165 478,-165 478,-184"/>
<text text-anchor="middle" x="423" y="-172" font-family="Helvetica,sans-Serif" font-size="10.00">core/create_input.h</text>
</a>
</g>
</g>
<!-- Node2 -->
<g id="Node000002" class="node">
<title>Node2</title>
<g id="a_Node000002"><a xlink:href="gaussian__extractor_8h.html" target="_top" xlink:title="Core extraction engine and data structures for Gaussian log file processing.">
<polygon fill="white" stroke="#666666" points="482,-129 364,-129 364,-110 482,-110 482,-129"/>
<text text-anchor="middle" x="423" y="-117" font-family="Helvetica,sans-Serif" font-size="10.00">gaussian_extractor.h</text>
</a>
</g>
</g>
<!-- Node1&#45;&gt;Node2 -->
<g id="edge1_Node000001_Node000002" class="edge">
<title>Node1&#45;&gt;Node2</title>
<g id="a_edge1_Node000001_Node000002"><a xlink:title=" ">
<path fill="none" stroke="#63b8ff" d="M423,-164.75C423,-157.8 423,-147.85 423,-139.13"/>
<polygon fill="#63b8ff" stroke="#63b8ff" points="426.5,-139.09 423,-129.09 419.5,-139.09 426.5,-139.09"/>
</a>
</g>
</g>
<!-- Node8 -->
<g id="Node000008" class="node">
<title>Node8</title>
<g id="a_Node000008"><a xlink:title=" ">
<polygon fill="#e0e0e0" stroke="#999999" points="777,-74 719,-74 719,-55 777,-55 777,-74"/>
<text text-anchor="middle" x="748" y="-62" font-family="Helvetica,sans-Serif" font-size="10.00">memory</text>
</a>
</g>
</g>
<!-- Node1&#45;&gt;Node8 -->
<g id="edge21_Node000001_Node000008" class="edge">
<title>Node1&#45;&gt;Node8</title>
<g id="a_edge21_Node000001_Node000008"><a xlink:title=" ">
<path fill="none" stroke="#63b8ff" d="M435.01,-164.9C454.72,-151.2 495.57,-124.5 534,-110 605.79,-82.92 630.03,-90.08 709.05,-74.12"/>
<polygon fill="#63b8ff" stroke="#63b8ff" points="709.89,-77.52 718.97,-72.05 708.46,-70.66 709.89,-77.52"/>
</a>
</g>
</g>
<!-- Node10 -->
<g id="Node000010" class="node">
<title>Node10</title>
<g id="a_Node000010"><a xlink:title=" ">
<polygon fill="#e0e0e0" stroke="#999999" points="176,-19 132,-19 132,0 176,0 176,-19"/>
<text text-anchor="middle" x="154" y="-7" font-family="Helvetica,sans-Serif" font-size="10.00">string</text>
</a>
</g>
</g>
<!-- Node1&#45;&gt;Node10 -->
<g id="edge22_Node000001_Node000010" class="edge">
<title>Node1&#45;&gt;Node10</title>
<g id="a_edge22_Node000001_Node000010"><a xlink:title=" ">
<path fill="none" stroke="#63b8ff" d="M367.86,-166.35C310.51,-155.99 222.1,-131.31 171,-74 160.08,-61.75 156.07,-43.24 154.64,-29.36"/>
<polygon fill="#63b8ff" stroke="#63b8ff" points="158.11,-28.77 153.96,-19.02 151.13,-29.23 158.11,-28.77"/>
</a>
</g>
</g>
<!-- Node11 -->
<g id="Node000011" class="node">
<title>Node11</title>
<g id="a_Node000011"><a xlink:title=" ">
<polygon fill="#e0e0e0" stroke="#999999" points="842.5,-74 795.5,-74 795.5,-55 842.5,-55 842.5,-74"/>
<text text-anchor="middle" x="819" y="-62" font-family="Helvetica,sans-Serif" font-size="10.00">vector</text>
</a>
</g>
</g>
<!-- Node1&#45;&gt;Node11 -->
<g id="edge24_Node000001_Node000011" class="edge">
<title>Node1&#45;&gt;Node11</title>
<g id="a_edge24_Node000001_Node000011"><a xlink:title=" ">
<path fill="none" stroke="#63b8ff" d="M444.06,-164.96C465.36,-156.22 499.17,-142.12 528,-129 545.55,-121.01 548.63,-115.85 567,-110 657.96,-81.05 687.57,-93.45 785.27,-73.94"/>
<polygon fill="#63b8ff" stroke="#63b8ff" points="786.18,-77.33 795.27,-71.88 784.77,-70.47 786.18,-77.33"/>
</a>
</g>
</g>
<!-- Node15 -->
<g id="Node000015" class="node">
<title>Node15</title>
<g id="a_Node000015"><a xlink:href="utils_8h.html" target="_top" xlink:title="Universial functions and classes for all modules.">
<polygon fill="white" stroke="#666666" points="107.5,-129 60.5,-129 60.5,-110 107.5,-110 107.5,-129"/>
<text text-anchor="middle" x="84" y="-117" font-family="Helvetica,sans-Serif" font-size="10.00">utils.h</text>
</a>
</g>
</g>
<!-- Node1&#45;&gt;Node15 -->
<g id="edge17_Node000001_Node000015" class="edge">
<title>Node1&#45;&gt;Node15</title>
<g id="a_edge17_Node000001_Node000015"><a xlink:title=" ">
<path fill="none" stroke="#63b8ff" d="M367.87,-166.58C307.36,-158.7 207.44,-144.85 122,-129 120.55,-128.73 119.06,-128.44 117.57,-128.15"/>
<polygon fill="#63b8ff" stroke="#63b8ff" points="118.17,-124.7 107.66,-126.07 116.73,-131.55 118.17,-124.7"/>
</a>
</g>
</g>
<!-- Node16 -->
<g id="Node000016" class="node">
<title>Node16</title>
<g id="a_Node000016"><a xlink:title=" ">
<polygon fill="#e0e0e0" stroke="#999999" points="68,-74 0,-74 0,-55 68,-55 68,-74"/>
<text text-anchor="middle" x="34" y="-62" font-family="Helvetica,sans-Serif" font-size="10.00">filesystem</text>
</a>
</g>
</g>
<!-- Node1&#45;&gt;Node16 -->
<g id="edge20_Node000001_Node000016" class="edge">
<title>Node1&#45;&gt;Node16</title>
<g id="a_edge20_Node000001_Node000016"><a xlink:title=" ">
<path fill="none" stroke="#63b8ff" d="M367.98,-174.23C276.17,-174.27 97.2,-169.05 51,-129 38.34,-118.03 34.61,-98.77 33.73,-84.33"/>
<polygon fill="#63b8ff" stroke="#63b8ff" points="37.22,-83.95 33.52,-74.03 30.23,-84.1 37.22,-83.95"/>
</a>
</g>
</g>
<!-- Node17 -->
<g id="Node000017" class="node">
<title>Node17</title>
<g id="a_Node000017"><a xlink:title=" ">
<polygon fill="#e0e0e0" stroke="#999999" points="662,-129 576,-129 576,-110 662,-110 662,-129"/>
<text text-anchor="middle" x="619" y="-117" font-family="Helvetica,sans-Serif" font-size="10.00">unordered_set</text>
</a>
</g>
</g>
<!-- Node1&#45;&gt;Node17 -->
<g id="edge23_Node000001_Node000017" class="edge">
<title>Node1&#45;&gt;Node17</title>
<g id="a_edge23_Node000001_Node000017"><a xlink:title=" ">
<path fill="none" stroke="#63b8ff" d="M454.49,-164.98C487.82,-155.97 540.6,-141.7 577.35,-131.76"/>
<polygon fill="#63b8ff" stroke="#63b8ff" points="578.52,-135.07 587.26,-129.08 576.7,-128.31 578.52,-135.07"/>
</a>
</g>
</g>
<!-- Node3 -->
<g id="Node000003" class="node">
<title>Node3</title>
<g id="a_Node000003"><a xlink:title=" ">
<polygon fill="#e0e0e0" stroke="#999999" points="380,-19 316,-19 316,0 380,0 380,-19"/>
<text text-anchor="middle" x="348" y="-7" font-family="Helvetica,sans-Serif" font-size="10.00">algorithm</text>
</a>
</g>
</g>
<!-- Node2&#45;&gt;Node3 -->
<g id="edge2_Node000002_Node000003" class="edge">
<title>Node2&#45;&gt;Node3</title>
<g id="a_edge2_Node000002_Node000003"><a xlink:title=" ">
<path fill="none" stroke="#63b8ff" d="M407.85,-109.76C395.47,-101.89 378.37,-89.23 368,-74 358.85,-60.57 353.72,-42.73 350.95,-29.38"/>
<polygon fill="#63b8ff" stroke="#63b8ff" points="354.37,-28.64 349.15,-19.42 347.48,-29.88 354.37,-28.64"/>
</a>
</g>
</g>
<!-- Node4 -->
<g id="Node000004" class="node">
<title>Node4</title>
<g id="a_Node000004"><a xlink:title=" ">
<polygon fill="#e0e0e0" stroke="#999999" points="537,-74 487,-74 487,-55 537,-55 537,-74"/>
<text text-anchor="middle" x="512" y="-62" font-family="Helvetica,sans-Serif" font-size="10.00">atomic</text>
</a>
</g>
</g>
<!-- Node2&#45;&gt;Node4 -->
<g id="edge3_Node000002_Node000004" class="edge">
<title>Node2&#45;&gt;Node4</title>
<g id="a_edge3_Node000002_Node000004"><a xlink:title=" ">
<path fill="none" stroke="#63b8ff" d="M437.3,-109.98C451.1,-101.77 472.24,-89.18 488.51,-79.49"/>
<polygon fill="#63b8ff" stroke="#63b8ff" points="490.64,-82.29 497.44,-74.17 487.06,-76.28 490.64,-82.29"/>
</a>
</g>
</g>
<!-- Node5 -->
<g id="Node000005" class="node">
<title>Node5</title>
<g id="a_Node000005"><a xlink:title=" ">
<polygon fill="#e0e0e0" stroke="#999999" points="700.5,-74 593.5,-74 593.5,-55 700.5,-55 700.5,-74"/>
<text text-anchor="middle" x="647" y="-62" font-family="Helvetica,sans-Serif" font-size="10.00">condition_variable</text>
</a>
</g>
</g>
<!-- Node2&#45;&gt;Node5 -->
<g id="edge4_Node000002_Node000005" class="edge">
<title>Node2&#45;&gt;Node5</title>
<g id="a_edge4_Node000002_Node000005"><a xlink:title=" ">
<path fill="none" stroke="#63b8ff" d="M458.99,-109.98C497.49,-100.87 558.69,-86.4 600.74,-76.45"/>
<polygon fill="#63b8ff" stroke="#63b8ff" points="601.8,-79.79 610.73,-74.08 600.19,-72.98 601.8,-79.79"/>
</a>
</g>
</g>
<!-- Node6 -->
<g id="Node000006" class="node">
<title>Node6</title>
<g id="a_Node000006"><a xlink:title=" ">
<polygon fill="#e0e0e0" stroke="#999999" points="254.5,-74 201.5,-74 201.5,-55 254.5,-55 254.5,-74"/>
<text text-anchor="middle" x="228" y="-62" font-family="Helvetica,sans-Serif" font-size="10.00">cstddef</text>
</a>
</g>
</g>
<!-- Node2&#45;&gt;Node6 -->
<g id="edge5_Node000002_Node000006" class="edge">
<title>Node2&#45;&gt;Node6</title>
<g id="a_edge5_Node000002_Node000006"><a xlink:title=" ">
<path fill="none" stroke="#63b8ff" d="M391.67,-109.98C356.93,-100.54 300.98,-85.33 264.34,-75.38"/>
<polygon fill="#63b8ff" stroke="#63b8ff" points="265.12,-71.96 254.55,-72.72 263.29,-78.72 265.12,-71.96"/>
</a>
</g>
</g>
<!-- Node7 -->
<g id="Node000007" class="node">
<title>Node7</title>
<g id="a_Node000007"><a xlink:title=" ">
<polygon fill="#e0e0e0" stroke="#999999" points="597.5,-19 532.5,-19 532.5,0 597.5,0 597.5,-19"/>
<text text-anchor="middle" x="565" y="-7" font-family="Helvetica,sans-Serif" font-size="10.00">functional</text>
</a>
</g>
</g>
<!-- Node2&#45;&gt;Node7 -->
<g id="edge6_Node000002_Node000007" class="edge">
<title>Node2&#45;&gt;Node7</title>
<g id="a_edge6_Node000002_Node000007"><a xlink:title=" ">
<path fill="none" stroke="#63b8ff" d="M478.14,-109.98C501.88,-103.7 528.22,-92.81 546,-74 557.48,-61.86 562.05,-43.06 563.85,-29.07"/>
<polygon fill="#63b8ff" stroke="#63b8ff" points="567.34,-29.37 564.79,-19.09 560.37,-28.72 567.34,-29.37"/>
</a>
</g>
</g>
<!-- Node2&#45;&gt;Node8 -->
<g id="edge7_Node000002_Node000008" class="edge">
<title>Node2&#45;&gt;Node8</title>
<g id="a_edge7_Node000002_Node000008"><a xlink:title=" ">
<path fill="none" stroke="#63b8ff" d="M482.01,-110.52C537.95,-102.68 624.57,-89.88 708.98,-74.09"/>
<polygon fill="#63b8ff" stroke="#63b8ff" points="709.82,-77.49 718.99,-72.2 708.52,-70.61 709.82,-77.49"/>
</a>
</g>
</g>
<!-- Node9 -->
<g id="Node000009" class="node">
<title>Node9</title>
<g id="a_Node000009"><a xlink:title=" ">
<polygon fill="#e0e0e0" stroke="#999999" points="321,-74 273,-74 273,-55 321,-55 321,-74"/>
<text text-anchor="middle" x="297" y="-62" font-family="Helvetica,sans-Serif" font-size="10.00">mutex</text>
</a>
</g>
</g>
<!-- Node2&#45;&gt;Node9 -->
<g id="edge8_Node000002_Node000009" class="edge">
<title>Node2&#45;&gt;Node9</title>
<g id="a_edge8_Node000002_Node000009"><a xlink:title=" ">
<path fill="none" stroke="#63b8ff" d="M402.76,-109.98C382.3,-101.38 350.47,-87.99 327.07,-78.15"/>
<polygon fill="#63b8ff" stroke="#63b8ff" points="328.19,-74.82 317.61,-74.17 325.47,-81.27 328.19,-74.82"/>
</a>
</g>
</g>
<!-- Node2&#45;&gt;Node10 -->
<g id="edge9_Node000002_Node000010" class="edge">
<title>Node2&#45;&gt;Node10</title>
<g id="a_edge9_Node000002_Node000010"><a xlink:title=" ">
<path fill="none" stroke="#63b8ff" d="M363.94,-112.65C304.93,-105.83 219.18,-93.03 192,-74 176.25,-62.97 165.93,-43.13 160.07,-28.56"/>
<polygon fill="#63b8ff" stroke="#63b8ff" points="163.32,-27.25 156.58,-19.07 156.75,-29.67 163.32,-27.25"/>
</a>
</g>
</g>
<!-- Node2&#45;&gt;Node11 -->
<g id="edge10_Node000002_Node000011" class="edge">
<title>Node2&#45;&gt;Node11</title>
<g id="a_edge10_Node000002_Node000011"><a xlink:title=" ">
<path fill="none" stroke="#63b8ff" d="M482.15,-113.63C552.26,-107.33 672.72,-94.83 785.45,-73.86"/>
<polygon fill="#63b8ff" stroke="#63b8ff" points="786.11,-77.29 795.29,-72 784.81,-70.42 786.11,-77.29"/>
</a>
</g>
</g>
<!-- Node12 -->
<g id="Node000012" class="node">
<title>Node12</title>
<g id="a_Node000012"><a xlink:href="job__scheduler_8h.html" target="_top" xlink:title="Job scheduler detection and resource management for HPC environments.">
<polygon fill="white" stroke="#666666" points="469,-74 377,-74 377,-55 469,-55 469,-74"/>
<text text-anchor="middle" x="423" y="-62" font-family="Helvetica,sans-Serif" font-size="10.00">job_scheduler.h</text>
</a>
</g>
</g>
<!-- Node2&#45;&gt;Node12 -->
<g id="edge11_Node000002_Node000012" class="edge">
<title>Node2&#45;&gt;Node12</title>
<g id="a_edge11_Node000002_Node000012"><a xlink:title=" ">
<path fill="none" stroke="#63b8ff" d="M423,-109.75C423,-102.8 423,-92.85 423,-84.13"/>
<polygon fill="#63b8ff" stroke="#63b8ff" points="426.5,-84.09 423,-74.09 419.5,-84.09 426.5,-84.09"/>
</a>
</g>
</g>
<!-- Node12&#45;&gt;Node3 -->
<g id="edge12_Node000012_Node000003" class="edge">
<title>Node12&#45;&gt;Node3</title>
<g id="a_edge12_Node000012_Node000003"><a xlink:title=" ">
<path fill="none" stroke="#63b8ff" d="M410.95,-54.98C399.54,-46.92 382.17,-34.65 368.57,-25.03"/>
<polygon fill="#63b8ff" stroke="#63b8ff" points="370.46,-22.08 360.27,-19.17 366.42,-27.8 370.46,-22.08"/>
</a>
</g>
</g>
<!-- Node12&#45;&gt;Node7 -->
<g id="edge15_Node000012_Node000007" class="edge">
<title>Node12&#45;&gt;Node7</title>
<g id="a_edge15_Node000012_Node000007"><a xlink:title=" ">
<path fill="none" stroke="#63b8ff" d="M445.81,-54.98C469.17,-46.27 505.7,-32.63 532.17,-22.75"/>
<polygon fill="#63b8ff" stroke="#63b8ff" points="533.63,-25.95 541.77,-19.17 531.18,-19.39 533.63,-25.95"/>
</a>
</g>
</g>
<!-- Node12&#45;&gt;Node10 -->
<g id="edge16_Node000012_Node000010" class="edge">
<title>Node12&#45;&gt;Node10</title>
<g id="a_edge16_Node000012_Node000010"><a xlink:title=" ">
<path fill="none" stroke="#63b8ff" d="M379.78,-54.98C325.68,-44.33 234.27,-26.32 186.03,-16.81"/>
<polygon fill="#63b8ff" stroke="#63b8ff" points="186.63,-13.36 176.14,-14.86 185.27,-20.23 186.63,-13.36"/>
</a>
</g>
</g>
<!-- Node13 -->
<g id="Node000013" class="node">
<title>Node13</title>
<g id="a_Node000013"><a xlink:title=" ">
<polygon fill="#e0e0e0" stroke="#999999" points="447.5,-19 398.5,-19 398.5,0 447.5,0 447.5,-19"/>
<text text-anchor="middle" x="423" y="-7" font-family="Helvetica,sans-Serif" font-size="10.00">cctype</text>
</a>
</g>
</g>
<!-- Node12&#45;&gt;Node13 -->
<g id="edge13_Node000012_Node000013" class="edge">
<title>Node12&#45;&gt;Node13</title>
<g id="a_edge13_Node000012_Node000013"><a xlink:title=" ">
<path fill="none" stroke="#63b8ff" d="M423,-54.75C423,-47.8 423,-37.85 423,-29.13"/>
<polygon fill="#63b8ff" stroke="#63b8ff" points="426.5,-29.09 423,-19.09 419.5,-29.09 426.5,-29.09"/>
</a>
</g>
</g>
<!-- Node14 -->
<g id="Node000014" class="node">
<title>Node14</title>
<g id="a_Node000014"><a xlink:title=" ">
<polygon fill="#e0e0e0" stroke="#999999" points="514.5,-19 465.5,-19 465.5,0 514.5,0 514.5,-19"/>
<text text-anchor="middle" x="490" y="-7" font-family="Helvetica,sans-Serif" font-size="10.00">cstdlib</text>
</a>
</g>
</g>
<!-- Node12&#45;&gt;Node14 -->
<g id="edge14_Node000012_Node000014" class="edge">
<title>Node12&#45;&gt;Node14</title>
<g id="a_edge14_Node000012_Node000014"><a xlink:title=" ">
<path fill="none" stroke="#63b8ff" d="M433.76,-54.98C443.77,-47.07 458.89,-35.11 470.93,-25.58"/>
<polygon fill="#63b8ff" stroke="#63b8ff" points="473.37,-28.12 479.04,-19.17 469.03,-22.63 473.37,-28.12"/>
</a>
</g>
</g>
<!-- Node15&#45;&gt;Node10 -->
<g id="edge19_Node000015_Node000010" class="edge">
<title>Node15&#45;&gt;Node10</title>
<g id="a_edge19_Node000015_Node000010"><a xlink:title=" ">
<path fill="none" stroke="#63b8ff" d="M88.73,-109.69C95.49,-97.25 108.5,-73.96 121,-55 127.22,-45.56 134.68,-35.42 140.94,-27.2"/>
<polygon fill="#63b8ff" stroke="#63b8ff" points="143.8,-29.22 147.13,-19.16 138.25,-24.94 143.8,-29.22"/>
</a>
</g>
</g>
<!-- Node15&#45;&gt;Node16 -->
<g id="edge18_Node000015_Node000016" class="edge">
<title>Node15&#45;&gt;Node16</title>
<g id="a_edge18_Node000015_Node000016"><a xlink:title=" ">
<path fill="none" stroke="#63b8ff" d="M75.74,-109.75C68.54,-102.11 57.89,-90.82 49.15,-81.56"/>
<polygon fill="#63b8ff" stroke="#63b8ff" points="51.51,-78.96 42.1,-74.09 46.42,-83.76 51.51,-78.96"/>
</a>
</g>
</g>
</g>
</svg>
