<?xml version="1.0" encoding="UTF-8" standalone="no"?>
<!DOCTYPE svg PUBLIC "-//W3C//DTD SVG 1.1//EN"
 "http://www.w3.org/Graphics/SVG/1.1/DTD/svg11.dtd">
<!-- Generated by graphviz version 2.43.0 (0)
 -->
<!-- Title: core/create_input.cpp Pages: 1 -->
<!--zoomable 247 -->

<svg id="main" version="1.1" xmlns="http://www.w3.org/2000/svg" xmlns:xlink="http://www.w3.org/1999/xlink" xml:space="preserve" onload="init(evt)">
<style type="text/css"><![CDATA[
.node, .edge {opacity: 0.7;}
.node.selected, .edge.selected {opacity: 1;}
.edge:hover path { stroke: red; }
.edge:hover polygon { stroke: red; fill: red; }
]]></style>

<defs>
  <circle id="rim" cx="0" cy="0" r="7"/>
  <circle id="rim2" cx="0" cy="0" r="3.5"/>
  <g id="zoomPlus">
    <use xlink:href="#rim" fill="#404040"><set attributeName="fill" to="#808080" begin="zoomplus.mouseover" end="zoomplus.mouseout"/></use>
    <path d="M-4,0h8M0,-4v8" fill="none" stroke="white" stroke-width="1.5" pointer-events="none"/>
  </g>
  <g id="zoomMin">
    <use xlink:href="#rim" fill="#404040"><set attributeName="fill" to="#808080" begin="zoomminus.mouseover" end="zoomminus.mouseout"/></use>
    <path d="M-4,0h8" fill="none" stroke="white" stroke-width="1.5" pointer-events="none"/>
  </g>
  <g id="arrowUp" transform="translate(30 24)">
    <use xlink:href="#rim"/>
    <path pointer-events="none" fill="none" stroke="white" stroke-width="1.5" d="M0,-3.0v7 M-2.5,-0.5L0,-3.0L2.5,-0.5"/>
  </g>
  <g id="arrowRight" transform="rotate(90) translate(36 -43)">
    <use xlink:href="#rim"/>
    <path pointer-events="none" fill="none" stroke="white" stroke-width="1.5" d="M0,-3.0v7 M-2.5,-0.5L0,-3.0L2.5,-0.5"/>
  </g>
  <g id="arrowDown" transform="rotate(180) translate(-30 -48)">
    <use xlink:href="#rim"/>
    <path pointer-events="none" fill="none" stroke="white" stroke-width="1.5" d="M0,-3.0v7 M-2.5,-0.5L0,-3.0L2.5,-0.5"/>
  </g>
  <g id="arrowLeft" transform="rotate(270) translate(-36 17)">
    <use xlink:href="#rim"/>
    <path pointer-events="none" fill="none" stroke="white" stroke-width="1.5" d="M0,-3.0v7 M-2.5,-0.5L0,-3.0L2.5,-0.5"/>
  </g>
  <g id="resetDef">
    <use xlink:href="#rim2" fill="#404040"><set attributeName="fill" to="#808080" begin="reset.mouseover" end="reset.mouseout"/></use>
  </g>
</defs>
<script type="application/ecmascript">
var viewWidth = 1410;
var viewHeight = 247;
var sectionId = 'dynsection-0';
</script>
<script type="application/ecmascript" xlink:href="svg.min.js"/>
<svg id="graph" class="graph">
<g id="viewport">
<title>core/create_input.cpp</title>
<!-- Node1 -->
<g id="Node000001" class="node">
<title>Node1</title>
<g id="a_Node000001"><a xlink:title="Implementation of Gaussian input file creation from XYZ files.">
<polygon fill="#999999" stroke="#666666" points="1022.49,-239 900.49,-239 900.49,-220 1022.49,-220 1022.49,-239"/>
<text text-anchor="middle" x="961.49" y="-227" font-family="Helvetica,sans-Serif" font-size="10.00">core/create_input.cpp</text>
</a>
</g>
</g>
<!-- Node2 -->
<g id="Node000002" class="node">
<title>Node2</title>
<g id="a_Node000002"><a xlink:href="create__input_8h.html" target="_top" xlink:title="Header file for Gaussian input file creation from XYZ files.">
<polygon fill="white" stroke="#666666" points="769.49,-184 683.49,-184 683.49,-165 769.49,-165 769.49,-184"/>
<text text-anchor="middle" x="726.49" y="-172" font-family="Helvetica,sans-Serif" font-size="10.00">create_input.h</text>
</a>
</g>
</g>
<!-- Node1&#45;&gt;Node2 -->
<g id="edge1_Node000001_Node000002" class="edge">
<title>Node1&#45;&gt;Node2</title>
<g id="a_edge1_Node000001_Node000002"><a xlink:title=" ">
<path fill="none" stroke="#63b8ff" d="M923.73,-219.98C883.17,-210.84 818.6,-196.27 774.46,-186.32"/>
<polygon fill="#63b8ff" stroke="#63b8ff" points="775.07,-182.87 764.54,-184.08 773.53,-189.7 775.07,-182.87"/>
</a>
</g>
</g>
<!-- Node4 -->
<g id="Node000004" class="node">
<title>Node4</title>
<g id="a_Node000004"><a xlink:title=" ">
<polygon fill="#e0e0e0" stroke="#999999" points="191.49,-19 127.49,-19 127.49,0 191.49,0 191.49,-19"/>
<text text-anchor="middle" x="159.49" y="-7" font-family="Helvetica,sans-Serif" font-size="10.00">algorithm</text>
</a>
</g>
</g>
<!-- Node1&#45;&gt;Node4 -->
<g id="edge31_Node000001_Node000004" class="edge">
<title>Node1&#45;&gt;Node4</title>
<g id="a_edge31_Node000001_Node000004"><a xlink:title=" ">
<path fill="none" stroke="#63b8ff" d="M900.27,-229.17C706.18,-229.8 111.25,-219.63 6.49,-74 -23.41,-32.44 62.27,-17.97 117.23,-13.02"/>
<polygon fill="#63b8ff" stroke="#63b8ff" points="117.76,-16.49 127.44,-12.17 117.19,-9.51 117.76,-16.49"/>
</a>
</g>
</g>
<!-- Node5 -->
<g id="Node000005" class="node">
<title>Node5</title>
<g id="a_Node000005"><a xlink:title=" ">
<polygon fill="#e0e0e0" stroke="#999999" points="65.49,-74 15.49,-74 15.49,-55 65.49,-55 65.49,-74"/>
<text text-anchor="middle" x="40.49" y="-62" font-family="Helvetica,sans-Serif" font-size="10.00">atomic</text>
</a>
</g>
</g>
<!-- Node1&#45;&gt;Node5 -->
<g id="edge32_Node000001_Node000005" class="edge">
<title>Node1&#45;&gt;Node5</title>
<g id="a_edge32_Node000001_Node000005"><a xlink:title=" ">
<path fill="none" stroke="#63b8ff" d="M900.15,-224.88C810.78,-219.1 639.69,-206.12 495.49,-184 379.17,-166.16 350.18,-159.4 236.49,-129 178.6,-113.52 112.54,-91.11 73.8,-77.46"/>
<polygon fill="#63b8ff" stroke="#63b8ff" points="74.68,-74.07 64.09,-74.03 72.35,-80.66 74.68,-74.07"/>
</a>
</g>
</g>
<!-- Node10 -->
<g id="Node000010" class="node">
<title>Node10</title>
<g id="a_Node000010"><a xlink:title=" ">
<polygon fill="#e0e0e0" stroke="#999999" points="131.49,-74 83.49,-74 83.49,-55 131.49,-55 131.49,-74"/>
<text text-anchor="middle" x="107.49" y="-62" font-family="Helvetica,sans-Serif" font-size="10.00">mutex</text>
</a>
</g>
</g>
<!-- Node1&#45;&gt;Node10 -->
<g id="edge37_Node000001_Node000010" class="edge">
<title>Node1&#45;&gt;Node10</title>
<g id="a_edge37_Node000001_Node000010"><a xlink:title=" ">
<path fill="none" stroke="#63b8ff" d="M900.23,-222.32C784,-209.9 523.93,-178.76 309.49,-129 248.71,-114.9 179.74,-91.58 140.15,-77.47"/>
<polygon fill="#63b8ff" stroke="#63b8ff" points="141.09,-74.09 130.5,-74.01 138.73,-80.68 141.09,-74.09"/>
</a>
</g>
</g>
<!-- Node12 -->
<g id="Node000012" class="node">
<title>Node12</title>
<g id="a_Node000012"><a xlink:title=" ">
<polygon fill="#e0e0e0" stroke="#999999" points="855.99,-74 808.99,-74 808.99,-55 855.99,-55 855.99,-74"/>
<text text-anchor="middle" x="832.49" y="-62" font-family="Helvetica,sans-Serif" font-size="10.00">vector</text>
</a>
</g>
</g>
<!-- Node1&#45;&gt;Node12 -->
<g id="edge40_Node000001_Node000012" class="edge">
<title>Node1&#45;&gt;Node12</title>
<g id="a_edge40_Node000001_Node000012"><a xlink:title=" ">
<path fill="none" stroke="#63b8ff" d="M908.04,-220C885.98,-213.73 862.19,-202.85 847.49,-184 824.93,-155.07 826.39,-109.54 829.44,-84.16"/>
<polygon fill="#63b8ff" stroke="#63b8ff" points="832.94,-84.44 830.88,-74.05 826.01,-83.46 832.94,-84.44"/>
</a>
</g>
</g>
<!-- Node19 -->
<g id="Node000019" class="node">
<title>Node19</title>
<g id="a_Node000019"><a xlink:href="parameter__parser_8h.html" target="_top" xlink:title="Header file for parameter file parsing functionality.">
<polygon fill="white" stroke="#666666" points="968.49,-184 856.49,-184 856.49,-165 968.49,-165 968.49,-184"/>
<text text-anchor="middle" x="912.49" y="-172" font-family="Helvetica,sans-Serif" font-size="10.00">parameter_parser.h</text>
</a>
</g>
</g>
<!-- Node1&#45;&gt;Node19 -->
<g id="edge26_Node000001_Node000019" class="edge">
<title>Node1&#45;&gt;Node19</title>
<g id="a_edge26_Node000001_Node000019"><a xlink:title=" ">
<path fill="none" stroke="#63b8ff" d="M953.4,-219.75C946.34,-212.11 935.9,-200.82 927.34,-191.56"/>
<polygon fill="#63b8ff" stroke="#63b8ff" points="929.79,-189.06 920.43,-184.09 924.65,-193.81 929.79,-189.06"/>
</a>
</g>
</g>
<!-- Node21 -->
<g id="Node000021" class="node">
<title>Node21</title>
<g id="a_Node000021"><a xlink:title=" ">
<polygon fill="#e0e0e0" stroke="#999999" points="1036.49,-184 986.49,-184 986.49,-165 1036.49,-165 1036.49,-184"/>
<text text-anchor="middle" x="1011.49" y="-172" font-family="Helvetica,sans-Serif" font-size="10.00">chrono</text>
</a>
</g>
</g>
<!-- Node1&#45;&gt;Node21 -->
<g id="edge33_Node000001_Node000021" class="edge">
<title>Node1&#45;&gt;Node21</title>
<g id="a_edge33_Node000001_Node000021"><a xlink:title=" ">
<path fill="none" stroke="#63b8ff" d="M969.75,-219.75C976.96,-212.11 987.6,-200.82 996.34,-191.56"/>
<polygon fill="#63b8ff" stroke="#63b8ff" points="999.07,-193.76 1003.39,-184.09 993.98,-188.96 999.07,-193.76"/>
</a>
</g>
</g>
<!-- Node22 -->
<g id="Node000022" class="node">
<title>Node22</title>
<g id="a_Node000022"><a xlink:title=" ">
<polygon fill="#e0e0e0" stroke="#999999" points="1109.99,-184 1054.99,-184 1054.99,-165 1109.99,-165 1109.99,-184"/>
<text text-anchor="middle" x="1082.49" y="-172" font-family="Helvetica,sans-Serif" font-size="10.00">fstream</text>
</a>
</g>
</g>
<!-- Node1&#45;&gt;Node22 -->
<g id="edge34_Node000001_Node000022" class="edge">
<title>Node1&#45;&gt;Node22</title>
<g id="a_edge34_Node000001_Node000022"><a xlink:title=" ">
<path fill="none" stroke="#63b8ff" d="M980.93,-219.98C1000.49,-211.42 1030.87,-198.11 1053.32,-188.28"/>
<polygon fill="#63b8ff" stroke="#63b8ff" points="1054.94,-191.39 1062.7,-184.17 1052.13,-184.98 1054.94,-191.39"/>
</a>
</g>
</g>
<!-- Node23 -->
<g id="Node000023" class="node">
<title>Node23</title>
<g id="a_Node000023"><a xlink:title=" ">
<polygon fill="#e0e0e0" stroke="#999999" points="1184.49,-184 1128.49,-184 1128.49,-165 1184.49,-165 1184.49,-184"/>
<text text-anchor="middle" x="1156.49" y="-172" font-family="Helvetica,sans-Serif" font-size="10.00">iomanip</text>
</a>
</g>
</g>
<!-- Node1&#45;&gt;Node23 -->
<g id="edge35_Node000001_Node000023" class="edge">
<title>Node1&#45;&gt;Node23</title>
<g id="a_edge35_Node000001_Node000023"><a xlink:title=" ">
<path fill="none" stroke="#63b8ff" d="M992.82,-219.98C1027.07,-210.68 1081.94,-195.76 1118.58,-185.8"/>
<polygon fill="#63b8ff" stroke="#63b8ff" points="1119.67,-189.13 1128.4,-183.13 1117.84,-182.38 1119.67,-189.13"/>
</a>
</g>
</g>
<!-- Node24 -->
<g id="Node000024" class="node">
<title>Node24</title>
<g id="a_Node000024"><a xlink:title=" ">
<polygon fill="#e0e0e0" stroke="#999999" points="1262.49,-184 1202.49,-184 1202.49,-165 1262.49,-165 1262.49,-184"/>
<text text-anchor="middle" x="1232.49" y="-172" font-family="Helvetica,sans-Serif" font-size="10.00">iostream</text>
</a>
</g>
</g>
<!-- Node1&#45;&gt;Node24 -->
<g id="edge36_Node000001_Node000024" class="edge">
<title>Node1&#45;&gt;Node24</title>
<g id="a_edge36_Node000001_Node000024"><a xlink:title=" ">
<path fill="none" stroke="#63b8ff" d="M1007.78,-219.98C1052.55,-211.65 1122.56,-198.42 1192.42,-184.18"/>
<polygon fill="#63b8ff" stroke="#63b8ff" points="1193.18,-187.6 1202.27,-182.16 1191.78,-180.74 1193.18,-187.6"/>
</a>
</g>
</g>
<!-- Node25 -->
<g id="Node000025" class="node">
<title>Node25</title>
<g id="a_Node000025"><a xlink:title=" ">
<polygon fill="#e0e0e0" stroke="#999999" points="1336.49,-184 1280.49,-184 1280.49,-165 1336.49,-165 1336.49,-184"/>
<text text-anchor="middle" x="1308.49" y="-172" font-family="Helvetica,sans-Serif" font-size="10.00">sstream</text>
</a>
</g>
</g>
<!-- Node1&#45;&gt;Node25 -->
<g id="edge38_Node000001_Node000025" class="edge">
<title>Node1&#45;&gt;Node25</title>
<g id="a_edge38_Node000001_Node000025"><a xlink:title=" ">
<path fill="none" stroke="#63b8ff" d="M1022.62,-221.25C1083.12,-213.73 1178.57,-200.95 1270.25,-184.1"/>
<polygon fill="#63b8ff" stroke="#63b8ff" points="1271.07,-187.51 1280.26,-182.24 1269.79,-180.62 1271.07,-187.51"/>
</a>
</g>
</g>
<!-- Node26 -->
<g id="Node000026" class="node">
<title>Node26</title>
<g id="a_Node000026"><a xlink:title=" ">
<polygon fill="#e0e0e0" stroke="#999999" points="1402.49,-184 1354.49,-184 1354.49,-165 1402.49,-165 1402.49,-184"/>
<text text-anchor="middle" x="1378.49" y="-172" font-family="Helvetica,sans-Serif" font-size="10.00">thread</text>
</a>
</g>
</g>
<!-- Node1&#45;&gt;Node26 -->
<g id="edge39_Node000001_Node000026" class="edge">
<title>Node1&#45;&gt;Node26</title>
<g id="a_edge39_Node000001_Node000026"><a xlink:title=" ">
<path fill="none" stroke="#63b8ff" d="M1022.73,-224C1096.76,-217.99 1225.23,-205.69 1344.4,-183.96"/>
<polygon fill="#63b8ff" stroke="#63b8ff" points="1345.23,-187.37 1354.43,-182.1 1343.96,-180.48 1345.23,-187.37"/>
</a>
</g>
</g>
<!-- Node3 -->
<g id="Node000003" class="node">
<title>Node3</title>
<g id="a_Node000003"><a xlink:href="gaussian__extractor_8h.html" target="_top" xlink:title="Core extraction engine and data structures for Gaussian log file processing.">
<polygon fill="white" stroke="#666666" points="436.49,-129 318.49,-129 318.49,-110 436.49,-110 436.49,-129"/>
<text text-anchor="middle" x="377.49" y="-117" font-family="Helvetica,sans-Serif" font-size="10.00">gaussian_extractor.h</text>
</a>
</g>
</g>
<!-- Node2&#45;&gt;Node3 -->
<g id="edge2_Node000002_Node000003" class="edge">
<title>Node2&#45;&gt;Node3</title>
<g id="a_edge2_Node000002_Node000003"><a xlink:title=" ">
<path fill="none" stroke="#63b8ff" d="M683.35,-166.95C623.29,-157.83 513.96,-141.23 443.59,-130.54"/>
<polygon fill="#63b8ff" stroke="#63b8ff" points="443.91,-127.05 433.5,-129.01 442.86,-133.97 443.91,-127.05"/>
</a>
</g>
</g>
<!-- Node9 -->
<g id="Node000009" class="node">
<title>Node9</title>
<g id="a_Node000009"><a xlink:title=" ">
<polygon fill="#e0e0e0" stroke="#999999" points="628.49,-74 570.49,-74 570.49,-55 628.49,-55 628.49,-74"/>
<text text-anchor="middle" x="599.49" y="-62" font-family="Helvetica,sans-Serif" font-size="10.00">memory</text>
</a>
</g>
</g>
<!-- Node2&#45;&gt;Node9 -->
<g id="edge22_Node000002_Node000009" class="edge">
<title>Node2&#45;&gt;Node9</title>
<g id="a_edge22_Node000002_Node000009"><a xlink:title=" ">
<path fill="none" stroke="#63b8ff" d="M711.96,-164.95C698.16,-156.54 677.1,-142.97 660.49,-129 643.22,-114.47 625.58,-95.58 613.74,-82.19"/>
<polygon fill="#63b8ff" stroke="#63b8ff" points="616.07,-79.53 606.86,-74.28 610.79,-84.12 616.07,-79.53"/>
</a>
</g>
</g>
<!-- Node11 -->
<g id="Node000011" class="node">
<title>Node11</title>
<g id="a_Node000011"><a xlink:title=" ">
<polygon fill="#e0e0e0" stroke="#999999" points="764.49,-19 720.49,-19 720.49,0 764.49,0 764.49,-19"/>
<text text-anchor="middle" x="742.49" y="-7" font-family="Helvetica,sans-Serif" font-size="10.00">string</text>
</a>
</g>
</g>
<!-- Node2&#45;&gt;Node11 -->
<g id="edge23_Node000002_Node000011" class="edge">
<title>Node2&#45;&gt;Node11</title>
<g id="a_edge23_Node000002_Node000011"><a xlink:title=" ">
<path fill="none" stroke="#63b8ff" d="M727.91,-164.98C729.38,-156.03 731.71,-141.54 733.49,-129 736.96,-104.6 738.55,-98.56 740.49,-74 741.68,-59.02 742.17,-41.99 742.37,-29.34"/>
<polygon fill="#63b8ff" stroke="#63b8ff" points="745.87,-29.18 742.48,-19.14 738.87,-29.1 745.87,-29.18"/>
</a>
</g>
</g>
<!-- Node2&#45;&gt;Node12 -->
<g id="edge25_Node000002_Node000012" class="edge">
<title>Node2&#45;&gt;Node12</title>
<g id="a_edge25_Node000002_Node000012"><a xlink:title=" ">
<path fill="none" stroke="#63b8ff" d="M735.17,-164.66C753.03,-146.46 794.17,-104.55 816.82,-81.47"/>
<polygon fill="#63b8ff" stroke="#63b8ff" points="819.49,-83.75 823.99,-74.16 814.49,-78.84 819.49,-83.75"/>
</a>
</g>
</g>
<!-- Node16 -->
<g id="Node000016" class="node">
<title>Node16</title>
<g id="a_Node000016"><a xlink:href="utils_8h.html" target="_top" xlink:title="Universial functions and classes for all modules.">
<polygon fill="white" stroke="#666666" points="723.99,-129 676.99,-129 676.99,-110 723.99,-110 723.99,-129"/>
<text text-anchor="middle" x="700.49" y="-117" font-family="Helvetica,sans-Serif" font-size="10.00">utils.h</text>
</a>
</g>
</g>
<!-- Node2&#45;&gt;Node16 -->
<g id="edge18_Node000002_Node000016" class="edge">
<title>Node2&#45;&gt;Node16</title>
<g id="a_edge18_Node000002_Node000016"><a xlink:title=" ">
<path fill="none" stroke="#63b8ff" d="M722.2,-164.75C718.68,-157.57 713.58,-147.18 709.21,-138.27"/>
<polygon fill="#63b8ff" stroke="#63b8ff" points="712.25,-136.53 704.7,-129.09 705.97,-139.61 712.25,-136.53"/>
</a>
</g>
</g>
<!-- Node17 -->
<g id="Node000017" class="node">
<title>Node17</title>
<g id="a_Node000017"><a xlink:title=" ">
<polygon fill="#e0e0e0" stroke="#999999" points="714.49,-74 646.49,-74 646.49,-55 714.49,-55 714.49,-74"/>
<text text-anchor="middle" x="680.49" y="-62" font-family="Helvetica,sans-Serif" font-size="10.00">filesystem</text>
</a>
</g>
</g>
<!-- Node2&#45;&gt;Node17 -->
<g id="edge21_Node000002_Node000017" class="edge">
<title>Node2&#45;&gt;Node17</title>
<g id="a_edge21_Node000002_Node000017"><a xlink:title=" ">
<path fill="none" stroke="#63b8ff" d="M707.83,-164.97C694.16,-157.59 676.63,-145.5 668.49,-129 661.44,-114.71 665.91,-96.73 671.28,-83.55"/>
<polygon fill="#63b8ff" stroke="#63b8ff" points="674.6,-84.73 675.58,-74.18 668.23,-81.81 674.6,-84.73"/>
</a>
</g>
</g>
<!-- Node18 -->
<g id="Node000018" class="node">
<title>Node18</title>
<g id="a_Node000018"><a xlink:title=" ">
<polygon fill="#e0e0e0" stroke="#999999" points="942.49,-129 856.49,-129 856.49,-110 942.49,-110 942.49,-129"/>
<text text-anchor="middle" x="899.49" y="-117" font-family="Helvetica,sans-Serif" font-size="10.00">unordered_set</text>
</a>
</g>
</g>
<!-- Node2&#45;&gt;Node18 -->
<g id="edge24_Node000002_Node000018" class="edge">
<title>Node2&#45;&gt;Node18</title>
<g id="a_edge24_Node000002_Node000018"><a xlink:title=" ">
<path fill="none" stroke="#63b8ff" d="M754.29,-164.98C783.46,-156.05 829.49,-141.94 861.89,-132.02"/>
<polygon fill="#63b8ff" stroke="#63b8ff" points="862.94,-135.36 871.48,-129.08 860.89,-128.66 862.94,-135.36"/>
</a>
</g>
</g>
<!-- Node3&#45;&gt;Node4 -->
<g id="edge3_Node000003_Node000004" class="edge">
<title>Node3&#45;&gt;Node4</title>
<g id="a_edge3_Node000003_Node000004"><a xlink:title=" ">
<path fill="none" stroke="#63b8ff" d="M318.1,-112.22C284.1,-106.42 241.89,-95.29 209.49,-74 191.96,-62.48 177.85,-42.76 169.15,-28.34"/>
<polygon fill="#63b8ff" stroke="#63b8ff" points="172.02,-26.31 164.01,-19.38 165.95,-29.8 172.02,-26.31"/>
</a>
</g>
</g>
<!-- Node3&#45;&gt;Node5 -->
<g id="edge4_Node000003_Node000005" class="edge">
<title>Node3&#45;&gt;Node5</title>
<g id="a_edge4_Node000003_Node000005"><a xlink:title=" ">
<path fill="none" stroke="#63b8ff" d="M318.26,-111.57C259.12,-104.24 165.46,-91.58 75.5,-74.03"/>
<polygon fill="#63b8ff" stroke="#63b8ff" points="76.17,-70.59 65.68,-72.09 74.81,-77.46 76.17,-70.59"/>
</a>
</g>
</g>
<!-- Node6 -->
<g id="Node000006" class="node">
<title>Node6</title>
<g id="a_Node000006"><a xlink:title=" ">
<polygon fill="#e0e0e0" stroke="#999999" points="332.99,-74 225.99,-74 225.99,-55 332.99,-55 332.99,-74"/>
<text text-anchor="middle" x="279.49" y="-62" font-family="Helvetica,sans-Serif" font-size="10.00">condition_variable</text>
</a>
</g>
</g>
<!-- Node3&#45;&gt;Node6 -->
<g id="edge5_Node000003_Node000006" class="edge">
<title>Node3&#45;&gt;Node6</title>
<g id="a_edge5_Node000003_Node000006"><a xlink:title=" ">
<path fill="none" stroke="#63b8ff" d="M361.75,-109.98C346.26,-101.61 322.4,-88.7 304.35,-78.95"/>
<polygon fill="#63b8ff" stroke="#63b8ff" points="305.98,-75.85 295.52,-74.17 302.65,-82.01 305.98,-75.85"/>
</a>
</g>
</g>
<!-- Node7 -->
<g id="Node000007" class="node">
<title>Node7</title>
<g id="a_Node000007"><a xlink:title=" ">
<polygon fill="#e0e0e0" stroke="#999999" points="403.99,-74 350.99,-74 350.99,-55 403.99,-55 403.99,-74"/>
<text text-anchor="middle" x="377.49" y="-62" font-family="Helvetica,sans-Serif" font-size="10.00">cstddef</text>
</a>
</g>
</g>
<!-- Node3&#45;&gt;Node7 -->
<g id="edge6_Node000003_Node000007" class="edge">
<title>Node3&#45;&gt;Node7</title>
<g id="a_edge6_Node000003_Node000007"><a xlink:title=" ">
<path fill="none" stroke="#63b8ff" d="M377.49,-109.75C377.49,-102.8 377.49,-92.85 377.49,-84.13"/>
<polygon fill="#63b8ff" stroke="#63b8ff" points="380.99,-84.09 377.49,-74.09 373.99,-84.09 380.99,-84.09"/>
</a>
</g>
</g>
<!-- Node8 -->
<g id="Node000008" class="node">
<title>Node8</title>
<g id="a_Node000008"><a xlink:title=" ">
<polygon fill="#e0e0e0" stroke="#999999" points="349.99,-19 284.99,-19 284.99,0 349.99,0 349.99,-19"/>
<text text-anchor="middle" x="317.49" y="-7" font-family="Helvetica,sans-Serif" font-size="10.00">functional</text>
</a>
</g>
</g>
<!-- Node3&#45;&gt;Node8 -->
<g id="edge7_Node000003_Node000008" class="edge">
<title>Node3&#45;&gt;Node8</title>
<g id="a_edge7_Node000003_Node000008"><a xlink:title=" ">
<path fill="none" stroke="#63b8ff" d="M320.05,-109.97C279.45,-102.63 230.09,-90.59 217.49,-74 198.04,-48.41 239.62,-30.39 274.96,-20.25"/>
<polygon fill="#63b8ff" stroke="#63b8ff" points="275.97,-23.6 284.7,-17.59 274.13,-16.84 275.97,-23.6"/>
</a>
</g>
</g>
<!-- Node3&#45;&gt;Node9 -->
<g id="edge8_Node000003_Node000009" class="edge">
<title>Node3&#45;&gt;Node9</title>
<g id="a_edge8_Node000003_Node000009"><a xlink:title=" ">
<path fill="none" stroke="#63b8ff" d="M413.16,-109.98C453.47,-100.36 518.88,-84.75 560.51,-74.81"/>
<polygon fill="#63b8ff" stroke="#63b8ff" points="561.38,-78.2 570.29,-72.47 559.75,-71.39 561.38,-78.2"/>
</a>
</g>
</g>
<!-- Node3&#45;&gt;Node10 -->
<g id="edge9_Node000003_Node000010" class="edge">
<title>Node3&#45;&gt;Node10</title>
<g id="a_edge9_Node000003_Node000010"><a xlink:title=" ">
<path fill="none" stroke="#63b8ff" d="M330.75,-109.97C283.84,-101.3 209.54,-87.3 145.49,-74 144.23,-73.74 142.94,-73.47 141.64,-73.19"/>
<polygon fill="#63b8ff" stroke="#63b8ff" points="142.11,-69.71 131.59,-71.01 140.62,-76.55 142.11,-69.71"/>
</a>
</g>
</g>
<!-- Node3&#45;&gt;Node11 -->
<g id="edge10_Node000003_Node000011" class="edge">
<title>Node3&#45;&gt;Node11</title>
<g id="a_edge10_Node000003_Node000011"><a xlink:title=" ">
<path fill="none" stroke="#63b8ff" d="M411.09,-109.98C441.04,-101.99 485.84,-89.03 523.49,-74 541.03,-67 543.77,-61.52 561.49,-55 612.08,-36.4 673.46,-23.17 710.17,-16.19"/>
<polygon fill="#63b8ff" stroke="#63b8ff" points="711.1,-19.58 720.29,-14.31 709.82,-12.69 711.1,-19.58"/>
</a>
</g>
</g>
<!-- Node3&#45;&gt;Node12 -->
<g id="edge11_Node000003_Node000012" class="edge">
<title>Node3&#45;&gt;Node12</title>
<g id="a_edge11_Node000003_Node000012"><a xlink:title=" ">
<path fill="none" stroke="#63b8ff" d="M436.51,-111.63C532.96,-100.39 721.34,-78.45 798.4,-69.47"/>
<polygon fill="#63b8ff" stroke="#63b8ff" points="798.98,-72.93 808.51,-68.29 798.17,-65.97 798.98,-72.93"/>
</a>
</g>
</g>
<!-- Node13 -->
<g id="Node000013" class="node">
<title>Node13</title>
<g id="a_Node000013"><a xlink:href="job__scheduler_8h.html" target="_top" xlink:title="Job scheduler detection and resource management for HPC environments.">
<polygon fill="white" stroke="#666666" points="514.49,-74 422.49,-74 422.49,-55 514.49,-55 514.49,-74"/>
<text text-anchor="middle" x="468.49" y="-62" font-family="Helvetica,sans-Serif" font-size="10.00">job_scheduler.h</text>
</a>
</g>
</g>
<!-- Node3&#45;&gt;Node13 -->
<g id="edge12_Node000003_Node000013" class="edge">
<title>Node3&#45;&gt;Node13</title>
<g id="a_edge12_Node000003_Node000013"><a xlink:title=" ">
<path fill="none" stroke="#63b8ff" d="M392.11,-109.98C406.36,-101.69 428.24,-88.94 444.94,-79.22"/>
<polygon fill="#63b8ff" stroke="#63b8ff" points="446.72,-82.23 453.6,-74.17 443.2,-76.18 446.72,-82.23"/>
</a>
</g>
</g>
<!-- Node13&#45;&gt;Node4 -->
<g id="edge13_Node000013_Node000004" class="edge">
<title>Node13&#45;&gt;Node4</title>
<g id="a_edge13_Node000013_Node000004"><a xlink:title=" ">
<path fill="none" stroke="#63b8ff" d="M422.23,-55.57C362.51,-45.32 259.44,-27.64 201.74,-17.75"/>
<polygon fill="#63b8ff" stroke="#63b8ff" points="202.31,-14.29 191.86,-16.05 201.12,-21.19 202.31,-14.29"/>
</a>
</g>
</g>
<!-- Node13&#45;&gt;Node8 -->
<g id="edge16_Node000013_Node000008" class="edge">
<title>Node13&#45;&gt;Node8</title>
<g id="a_edge16_Node000013_Node000008"><a xlink:title=" ">
<path fill="none" stroke="#63b8ff" d="M444.23,-54.98C419.17,-46.19 379.86,-32.39 351.66,-22.49"/>
<polygon fill="#63b8ff" stroke="#63b8ff" points="352.79,-19.18 342.19,-19.17 350.47,-25.78 352.79,-19.18"/>
</a>
</g>
</g>
<!-- Node13&#45;&gt;Node11 -->
<g id="edge17_Node000013_Node000011" class="edge">
<title>Node13&#45;&gt;Node11</title>
<g id="a_edge17_Node000013_Node000011"><a xlink:title=" ">
<path fill="none" stroke="#63b8ff" d="M512.51,-54.98C567.76,-44.3 661.2,-26.22 710.24,-16.74"/>
<polygon fill="#63b8ff" stroke="#63b8ff" points="711.13,-20.13 720.29,-14.8 709.8,-13.26 711.13,-20.13"/>
</a>
</g>
</g>
<!-- Node14 -->
<g id="Node000014" class="node">
<title>Node14</title>
<g id="a_Node000014"><a xlink:title=" ">
<polygon fill="#e0e0e0" stroke="#999999" points="525.99,-19 476.99,-19 476.99,0 525.99,0 525.99,-19"/>
<text text-anchor="middle" x="501.49" y="-7" font-family="Helvetica,sans-Serif" font-size="10.00">cctype</text>
</a>
</g>
</g>
<!-- Node13&#45;&gt;Node14 -->
<g id="edge14_Node000013_Node000014" class="edge">
<title>Node13&#45;&gt;Node14</title>
<g id="a_edge14_Node000013_Node000014"><a xlink:title=" ">
<path fill="none" stroke="#63b8ff" d="M473.94,-54.75C478.51,-47.42 485.16,-36.73 490.78,-27.7"/>
<polygon fill="#63b8ff" stroke="#63b8ff" points="493.83,-29.43 496.14,-19.09 487.89,-25.73 493.83,-29.43"/>
</a>
</g>
</g>
<!-- Node15 -->
<g id="Node000015" class="node">
<title>Node15</title>
<g id="a_Node000015"><a xlink:title=" ">
<polygon fill="#e0e0e0" stroke="#999999" points="458.99,-19 409.99,-19 409.99,0 458.99,0 458.99,-19"/>
<text text-anchor="middle" x="434.49" y="-7" font-family="Helvetica,sans-Serif" font-size="10.00">cstdlib</text>
</a>
</g>
</g>
<!-- Node13&#45;&gt;Node15 -->
<g id="edge15_Node000013_Node000015" class="edge">
<title>Node13&#45;&gt;Node15</title>
<g id="a_edge15_Node000013_Node000015"><a xlink:title=" ">
<path fill="none" stroke="#63b8ff" d="M462.88,-54.75C458.17,-47.42 451.32,-36.73 445.52,-27.7"/>
<polygon fill="#63b8ff" stroke="#63b8ff" points="448.35,-25.62 440,-19.09 442.46,-29.4 448.35,-25.62"/>
</a>
</g>
</g>
<!-- Node16&#45;&gt;Node11 -->
<g id="edge20_Node000016_Node000011" class="edge">
<title>Node16&#45;&gt;Node11</title>
<g id="a_edge20_Node000016_Node000011"><a xlink:title=" ">
<path fill="none" stroke="#63b8ff" d="M705.57,-109.86C710.6,-101.06 718.28,-86.9 723.49,-74 729.42,-59.31 734.47,-42.06 737.87,-29.24"/>
<polygon fill="#63b8ff" stroke="#63b8ff" points="741.32,-29.86 740.41,-19.3 734.54,-28.12 741.32,-29.86"/>
</a>
</g>
</g>
<!-- Node16&#45;&gt;Node17 -->
<g id="edge19_Node000016_Node000017" class="edge">
<title>Node16&#45;&gt;Node17</title>
<g id="a_edge19_Node000016_Node000017"><a xlink:title=" ">
<path fill="none" stroke="#63b8ff" d="M697.19,-109.75C694.51,-102.65 690.64,-92.4 687.31,-83.56"/>
<polygon fill="#63b8ff" stroke="#63b8ff" points="690.54,-82.21 683.73,-74.09 683.99,-84.68 690.54,-82.21"/>
</a>
</g>
</g>
<!-- Node19&#45;&gt;Node11 -->
<g id="edge27_Node000019_Node000011" class="edge">
<title>Node19&#45;&gt;Node11</title>
<g id="a_edge27_Node000019_Node000011"><a xlink:title=" ">
<path fill="none" stroke="#63b8ff" d="M929.17,-164.99C949.44,-153.45 979.43,-131.77 966.49,-110 926.13,-42.06 826.45,-20.33 774.75,-13.52"/>
<polygon fill="#63b8ff" stroke="#63b8ff" points="775.14,-10.04 764.79,-12.31 774.29,-16.99 775.14,-10.04"/>
</a>
</g>
</g>
<!-- Node19&#45;&gt;Node12 -->
<g id="edge30_Node000019_Node000012" class="edge">
<title>Node19&#45;&gt;Node12</title>
<g id="a_edge30_Node000019_Node000012"><a xlink:title=" ">
<path fill="none" stroke="#63b8ff" d="M924.54,-164.89C940.36,-152.49 964.69,-129.03 951.49,-110 932.43,-82.52 894.2,-71.98 866.2,-67.96"/>
<polygon fill="#63b8ff" stroke="#63b8ff" points="866.38,-64.45 856.03,-66.71 865.53,-71.4 866.38,-64.45"/>
</a>
</g>
</g>
<!-- Node19&#45;&gt;Node18 -->
<g id="edge29_Node000019_Node000018" class="edge">
<title>Node19&#45;&gt;Node18</title>
<g id="a_edge29_Node000019_Node000018"><a xlink:title=" ">
<path fill="none" stroke="#63b8ff" d="M910.34,-164.75C908.62,-157.72 906.14,-147.62 903.99,-138.84"/>
<polygon fill="#63b8ff" stroke="#63b8ff" points="907.38,-137.97 901.6,-129.09 900.58,-139.63 907.38,-137.97"/>
</a>
</g>
</g>
<!-- Node20 -->
<g id="Node000020" class="node">
<title>Node20</title>
<g id="a_Node000020"><a xlink:title=" ">
<polygon fill="#e0e0e0" stroke="#999999" points="1129.99,-129 1036.99,-129 1036.99,-110 1129.99,-110 1129.99,-129"/>
<text text-anchor="middle" x="1083.49" y="-117" font-family="Helvetica,sans-Serif" font-size="10.00">unordered_map</text>
</a>
</g>
</g>
<!-- Node19&#45;&gt;Node20 -->
<g id="edge28_Node000019_Node000020" class="edge">
<title>Node19&#45;&gt;Node20</title>
<g id="a_edge28_Node000019_Node000020"><a xlink:title=" ">
<path fill="none" stroke="#63b8ff" d="M939.97,-164.98C968.67,-156.09 1013.91,-142.07 1045.91,-132.15"/>
<polygon fill="#63b8ff" stroke="#63b8ff" points="1047.29,-135.39 1055.8,-129.08 1045.21,-128.7 1047.29,-135.39"/>
</a>
</g>
</g>
</g>
</svg>

<g id="navigator" transform="translate(0 0)" fill="#404254">
  <rect fill="#f2f5e9" fill-opacity="0.5" stroke="#606060" stroke-width=".5" x="0" y="0" width="60" height="60"/>
  <use id="zoomplus" xlink:href="#zoomPlus" x="17" y="9" onmousedown="handleZoom(evt,'in')"/>
  <use id="zoomminus" xlink:href="#zoomMin" x="42" y="9" onmousedown="handleZoom(evt,'out')"/>
  <use id="reset" xlink:href="#resetDef" x="30" y="36" onmousedown="handleReset()"/>
   <use id="arrowup" xlink:href="#arrowUp" x="0" y="0" onmousedown="handlePan(0,-1)"/>
  <use id="arrowright" xlink:href="#arrowRight" x="0" y="0" onmousedown="handlePan(1,0)"/>
  <use id="arrowdown" xlink:href="#arrowDown" x="0" y="0" onmousedown="handlePan(0,1)"/>
  <use id="arrowleft" xlink:href="#arrowLeft" x="0" y="0" onmousedown="handlePan(-1,0)"/>
</g>
<svg viewBox="0 0 15 15" width="100%" height="30px" preserveAspectRatio="xMaxYMin meet">
 <g id="arrow_out" transform="scale(0.3 0.3)">
  <a xlink:href="create__input_8cpp__incl_org.svg" target="_base">
   <rect id="button" ry="5" rx="5" y="6" x="6" height="38" width="38"
        fill="#f2f5e9" fill-opacity="0.5" stroke="#606060" stroke-width="1.0"/>
   <path id="arrow"
     d="M 11.500037,31.436501 C 11.940474,20.09759 22.043105,11.32322 32.158766,21.979434 L 37.068811,17.246167 C 37.068811,17.246167 37.088388,32 37.088388,32 L 22.160133,31.978069 C 22.160133,31.978069 26.997745,27.140456 26.997745,27.140456 C 18.528582,18.264221 13.291696,25.230495 11.500037,31.436501 z"
     style="fill:#404040;"/>
  </a>
 </g>
</svg>

<style type='text/css'>
<![CDATA[
[data-mouse-over-selected='false'] { opacity: 0.7; }
[data-mouse-over-selected='true']  { opacity: 1.0; }
]]>
</style>
<script type="application/ecmascript"><![CDATA[
document.addEventListener('DOMContentLoaded', (event) => {
  highlightEdges();
  highlightAdjacentNodes();
});
]]></script>
</svg>
