<?xml version="1.0" encoding="UTF-8" standalone="no"?>
<!DOCTYPE svg PUBLIC "-//W3C//DTD SVG 1.1//EN"
 "http://www.w3.org/Graphics/SVG/1.1/DTD/svg11.dtd">
<!-- Generated by graphviz version 2.43.0 (0)
 -->
<!-- Title: core/gaussian_extractor.cpp Pages: 1 -->
<!--zoomable 192 -->

<svg id="main" version="1.1" xmlns="http://www.w3.org/2000/svg" xmlns:xlink="http://www.w3.org/1999/xlink" xml:space="preserve" onload="init(evt)">
<style type="text/css"><![CDATA[
.node, .edge {opacity: 0.7;}
.node.selected, .edge.selected {opacity: 1;}
.edge:hover path { stroke: red; }
.edge:hover polygon { stroke: red; fill: red; }
]]></style>

<defs>
  <circle id="rim" cx="0" cy="0" r="7"/>
  <circle id="rim2" cx="0" cy="0" r="3.5"/>
  <g id="zoomPlus">
    <use xlink:href="#rim" fill="#404040"><set attributeName="fill" to="#808080" begin="zoomplus.mouseover" end="zoomplus.mouseout"/></use>
    <path d="M-4,0h8M0,-4v8" fill="none" stroke="white" stroke-width="1.5" pointer-events="none"/>
  </g>
  <g id="zoomMin">
    <use xlink:href="#rim" fill="#404040"><set attributeName="fill" to="#808080" begin="zoomminus.mouseover" end="zoomminus.mouseout"/></use>
    <path d="M-4,0h8" fill="none" stroke="white" stroke-width="1.5" pointer-events="none"/>
  </g>
  <g id="arrowUp" transform="translate(30 24)">
    <use xlink:href="#rim"/>
    <path pointer-events="none" fill="none" stroke="white" stroke-width="1.5" d="M0,-3.0v7 M-2.5,-0.5L0,-3.0L2.5,-0.5"/>
  </g>
  <g id="arrowRight" transform="rotate(90) translate(36 -43)">
    <use xlink:href="#rim"/>
    <path pointer-events="none" fill="none" stroke="white" stroke-width="1.5" d="M0,-3.0v7 M-2.5,-0.5L0,-3.0L2.5,-0.5"/>
  </g>
  <g id="arrowDown" transform="rotate(180) translate(-30 -48)">
    <use xlink:href="#rim"/>
    <path pointer-events="none" fill="none" stroke="white" stroke-width="1.5" d="M0,-3.0v7 M-2.5,-0.5L0,-3.0L2.5,-0.5"/>
  </g>
  <g id="arrowLeft" transform="rotate(270) translate(-36 17)">
    <use xlink:href="#rim"/>
    <path pointer-events="none" fill="none" stroke="white" stroke-width="1.5" d="M0,-3.0v7 M-2.5,-0.5L0,-3.0L2.5,-0.5"/>
  </g>
  <g id="resetDef">
    <use xlink:href="#rim2" fill="#404040"><set attributeName="fill" to="#808080" begin="reset.mouseover" end="reset.mouseout"/></use>
  </g>
</defs>
<script type="application/ecmascript">
var viewWidth = 1982;
var viewHeight = 192;
var sectionId = 'dynsection-0';
</script>
<script type="application/ecmascript" xlink:href="svg.min.js"/>
<svg id="graph" class="graph">
<g id="viewport">
<title>core/gaussian_extractor.cpp</title>
<!-- Node1 -->
<g id="Node000001" class="node">
<title>Node1</title>
<g id="a_Node000001"><a xlink:title="Implementation of core Gaussian log file processing and data extraction.">
<polygon fill="#999999" stroke="#666666" points="1139,-184 986,-184 986,-165 1139,-165 1139,-184"/>
<text text-anchor="middle" x="1062.5" y="-172" font-family="Helvetica,sans-Serif" font-size="10.00">core/gaussian_extractor.cpp</text>
</a>
</g>
</g>
<!-- Node2 -->
<g id="Node000002" class="node">
<title>Node2</title>
<g id="a_Node000002"><a xlink:href="gaussian__extractor_8h.html" target="_top" xlink:title="Core extraction engine and data structures for Gaussian log file processing.">
<polygon fill="white" stroke="#666666" points="469.5,-129 351.5,-129 351.5,-110 469.5,-110 469.5,-129"/>
<text text-anchor="middle" x="410.5" y="-117" font-family="Helvetica,sans-Serif" font-size="10.00">gaussian_extractor.h</text>
</a>
</g>
</g>
<!-- Node1&#45;&gt;Node2 -->
<g id="edge1_Node000001_Node000002" class="edge">
<title>Node1&#45;&gt;Node2</title>
<g id="a_edge1_Node000001_Node000002"><a xlink:title=" ">
<path fill="none" stroke="#63b8ff" d="M985.79,-167.26C857.77,-156.86 602.52,-136.11 479.69,-126.12"/>
<polygon fill="#63b8ff" stroke="#63b8ff" points="479.9,-122.63 469.65,-125.31 479.34,-129.61 479.9,-122.63"/>
</a>
</g>
</g>
<!-- Node3 -->
<g id="Node000003" class="node">
<title>Node3</title>
<g id="a_Node000003"><a xlink:title=" ">
<polygon fill="#e0e0e0" stroke="#999999" points="428.5,-19 364.5,-19 364.5,0 428.5,0 428.5,-19"/>
<text text-anchor="middle" x="396.5" y="-7" font-family="Helvetica,sans-Serif" font-size="10.00">algorithm</text>
</a>
</g>
</g>
<!-- Node1&#45;&gt;Node3 -->
<g id="edge20_Node000001_Node000003" class="edge">
<title>Node1&#45;&gt;Node3</title>
<g id="a_edge20_Node000001_Node000003"><a xlink:title=" ">
<path fill="none" stroke="#63b8ff" d="M985.77,-171.94C939.5,-167.85 881.09,-156.88 836.5,-129 801.53,-107.14 816.31,-75.46 780.5,-55 723.04,-22.16 526.18,-13.51 438.83,-11.27"/>
<polygon fill="#63b8ff" stroke="#63b8ff" points="438.82,-7.77 428.74,-11.02 438.65,-14.76 438.82,-7.77"/>
</a>
</g>
</g>
<!-- Node4 -->
<g id="Node000004" class="node">
<title>Node4</title>
<g id="a_Node000004"><a xlink:title=" ">
<polygon fill="#e0e0e0" stroke="#999999" points="141.5,-74 91.5,-74 91.5,-55 141.5,-55 141.5,-74"/>
<text text-anchor="middle" x="116.5" y="-62" font-family="Helvetica,sans-Serif" font-size="10.00">atomic</text>
</a>
</g>
</g>
<!-- Node1&#45;&gt;Node4 -->
<g id="edge21_Node000001_Node000004" class="edge">
<title>Node1&#45;&gt;Node4</title>
<g id="a_edge21_Node000001_Node000004"><a xlink:title=" ">
<path fill="none" stroke="#63b8ff" d="M985.96,-171.67C819.85,-167.26 430.86,-154.49 301.5,-129 244.4,-117.75 180.84,-93.1 145.06,-78.04"/>
<polygon fill="#63b8ff" stroke="#63b8ff" points="146.3,-74.76 135.73,-74.06 143.56,-81.2 146.3,-74.76"/>
</a>
</g>
</g>
<!-- Node5 -->
<g id="Node000005" class="node">
<title>Node5</title>
<g id="a_Node000005"><a xlink:title=" ">
<polygon fill="#e0e0e0" stroke="#999999" points="639,-74 532,-74 532,-55 639,-55 639,-74"/>
<text text-anchor="middle" x="585.5" y="-62" font-family="Helvetica,sans-Serif" font-size="10.00">condition_variable</text>
</a>
</g>
</g>
<!-- Node1&#45;&gt;Node5 -->
<g id="edge24_Node000001_Node000005" class="edge">
<title>Node1&#45;&gt;Node5</title>
<g id="a_edge24_Node000001_Node000005"><a xlink:title=" ">
<path fill="none" stroke="#63b8ff" d="M985.82,-169.71C916.87,-164.81 813.37,-153.74 726.5,-129 683.54,-116.77 636.86,-93.61 609.45,-78.9"/>
<polygon fill="#63b8ff" stroke="#63b8ff" points="611.05,-75.79 600.59,-74.08 607.7,-81.93 611.05,-75.79"/>
</a>
</g>
</g>
<!-- Node9 -->
<g id="Node000009" class="node">
<title>Node9</title>
<g id="a_Node000009"><a xlink:title=" ">
<polygon fill="#e0e0e0" stroke="#999999" points="705.5,-74 657.5,-74 657.5,-55 705.5,-55 705.5,-74"/>
<text text-anchor="middle" x="681.5" y="-62" font-family="Helvetica,sans-Serif" font-size="10.00">mutex</text>
</a>
</g>
</g>
<!-- Node1&#45;&gt;Node9 -->
<g id="edge33_Node000001_Node000009" class="edge">
<title>Node1&#45;&gt;Node9</title>
<g id="a_edge33_Node000001_Node000009"><a xlink:title=" ">
<path fill="none" stroke="#63b8ff" d="M985.91,-172.87C923.47,-169.88 834.21,-159.83 762.5,-129 736.74,-117.92 712.12,-96.56 696.93,-81.69"/>
<polygon fill="#63b8ff" stroke="#63b8ff" points="699.03,-78.84 689.51,-74.2 694.06,-83.77 699.03,-78.84"/>
</a>
</g>
</g>
<!-- Node11 -->
<g id="Node000011" class="node">
<title>Node11</title>
<g id="a_Node000011"><a xlink:title=" ">
<polygon fill="#e0e0e0" stroke="#999999" points="771,-74 724,-74 724,-55 771,-55 771,-74"/>
<text text-anchor="middle" x="747.5" y="-62" font-family="Helvetica,sans-Serif" font-size="10.00">vector</text>
</a>
</g>
</g>
<!-- Node1&#45;&gt;Node11 -->
<g id="edge37_Node000001_Node000011" class="edge">
<title>Node1&#45;&gt;Node11</title>
<g id="a_edge37_Node000001_Node000011"><a xlink:title=" ">
<path fill="none" stroke="#63b8ff" d="M985.81,-168.42C915.41,-162.47 817.36,-150.58 785.5,-129 769.58,-118.22 759.29,-98.34 753.48,-83.68"/>
<polygon fill="#63b8ff" stroke="#63b8ff" points="756.72,-82.36 750.03,-74.14 750.14,-84.73 756.72,-82.36"/>
</a>
</g>
</g>
<!-- Node12 -->
<g id="Node000012" class="node">
<title>Node12</title>
<g id="a_Node000012"><a xlink:href="job__scheduler_8h.html" target="_top" xlink:title="Job scheduler detection and resource management for HPC environments.">
<polygon fill="white" stroke="#666666" points="289.5,-74 197.5,-74 197.5,-55 289.5,-55 289.5,-74"/>
<text text-anchor="middle" x="243.5" y="-62" font-family="Helvetica,sans-Serif" font-size="10.00">job_scheduler.h</text>
</a>
</g>
</g>
<!-- Node1&#45;&gt;Node12 -->
<g id="edge17_Node000001_Node000012" class="edge">
<title>Node1&#45;&gt;Node12</title>
<g id="a_edge17_Node000001_Node000012"><a xlink:title=" ">
<path fill="none" stroke="#63b8ff" d="M985.91,-173.61C825.68,-173.07 460.2,-167.48 342.5,-129 311,-118.7 279.65,-95.94 260.92,-80.65"/>
<polygon fill="#63b8ff" stroke="#63b8ff" points="262.93,-77.78 253.02,-74.04 258.44,-83.14 262.93,-77.78"/>
</a>
</g>
</g>
<!-- Node14 -->
<g id="Node000014" class="node">
<title>Node14</title>
<g id="a_Node000014"><a xlink:title=" ">
<polygon fill="#e0e0e0" stroke="#999999" points="679,-19 630,-19 630,0 679,0 679,-19"/>
<text text-anchor="middle" x="654.5" y="-7" font-family="Helvetica,sans-Serif" font-size="10.00">cstdlib</text>
</a>
</g>
</g>
<!-- Node1&#45;&gt;Node14 -->
<g id="edge26_Node000001_Node000014" class="edge">
<title>Node1&#45;&gt;Node14</title>
<g id="a_edge26_Node000001_Node000014"><a xlink:title=" ">
<path fill="none" stroke="#63b8ff" d="M985.93,-171.7C944.28,-167.31 893.79,-156.11 856.5,-129 825.73,-106.63 843.58,-78.28 813.5,-55 777.14,-26.86 723.92,-16.51 689.24,-12.71"/>
<polygon fill="#63b8ff" stroke="#63b8ff" points="689.41,-9.21 679.12,-11.73 688.73,-16.18 689.41,-9.21"/>
</a>
</g>
</g>
<!-- Node15 -->
<g id="Node000015" class="node">
<title>Node15</title>
<g id="a_Node000015"><a xlink:href="metadata_8h.html" target="_top" xlink:title="Metadata utilities for standardized header and (future) summary blocks.">
<polygon fill="white" stroke="#666666" points="73,-74 0,-74 0,-55 73,-55 73,-74"/>
<text text-anchor="middle" x="36.5" y="-62" font-family="Helvetica,sans-Serif" font-size="10.00">metadata.h</text>
</a>
</g>
</g>
<!-- Node1&#45;&gt;Node15 -->
<g id="edge18_Node000001_Node000015" class="edge">
<title>Node1&#45;&gt;Node15</title>
<g id="a_edge18_Node000001_Node000015"><a xlink:title=" ">
<path fill="none" stroke="#63b8ff" d="M985.9,-171.97C808.57,-168.02 374.02,-155.84 230.5,-129 170.54,-117.79 103.51,-92.95 66.02,-77.87"/>
<polygon fill="#63b8ff" stroke="#63b8ff" points="67.29,-74.61 56.71,-74.08 64.65,-81.09 67.29,-74.61"/>
</a>
</g>
</g>
<!-- Node16 -->
<g id="Node000016" class="node">
<title>Node16</title>
<g id="a_Node000016"><a xlink:title=" ">
<polygon fill="#e0e0e0" stroke="#999999" points="915.5,-129 865.5,-129 865.5,-110 915.5,-110 915.5,-129"/>
<text text-anchor="middle" x="890.5" y="-117" font-family="Helvetica,sans-Serif" font-size="10.00">chrono</text>
</a>
</g>
</g>
<!-- Node1&#45;&gt;Node16 -->
<g id="edge22_Node000001_Node000016" class="edge">
<title>Node1&#45;&gt;Node16</title>
<g id="a_edge22_Node000001_Node000016"><a xlink:title=" ">
<path fill="none" stroke="#63b8ff" d="M1034.87,-164.98C1005.13,-155.82 957.77,-141.23 925.47,-131.27"/>
<polygon fill="#63b8ff" stroke="#63b8ff" points="926.14,-127.82 915.55,-128.22 924.07,-134.51 926.14,-127.82"/>
</a>
</g>
</g>
<!-- Node17 -->
<g id="Node000017" class="node">
<title>Node17</title>
<g id="a_Node000017"><a xlink:title=" ">
<polygon fill="#e0e0e0" stroke="#999999" points="981,-129 934,-129 934,-110 981,-110 981,-129"/>
<text text-anchor="middle" x="957.5" y="-117" font-family="Helvetica,sans-Serif" font-size="10.00">cmath</text>
</a>
</g>
</g>
<!-- Node1&#45;&gt;Node17 -->
<g id="edge23_Node000001_Node000017" class="edge">
<title>Node1&#45;&gt;Node17</title>
<g id="a_edge23_Node000001_Node000017"><a xlink:title=" ">
<path fill="none" stroke="#63b8ff" d="M1045.63,-164.98C1028.89,-156.54 1003,-143.47 983.61,-133.68"/>
<polygon fill="#63b8ff" stroke="#63b8ff" points="985.18,-130.55 974.68,-129.17 982.03,-136.8 985.18,-130.55"/>
</a>
</g>
</g>
<!-- Node18 -->
<g id="Node000018" class="node">
<title>Node18</title>
<g id="a_Node000018"><a xlink:title=" ">
<polygon fill="#e0e0e0" stroke="#999999" points="1050,-129 999,-129 999,-110 1050,-110 1050,-129"/>
<text text-anchor="middle" x="1024.5" y="-117" font-family="Helvetica,sans-Serif" font-size="10.00">csignal</text>
</a>
</g>
</g>
<!-- Node1&#45;&gt;Node18 -->
<g id="edge25_Node000001_Node000018" class="edge">
<title>Node1&#45;&gt;Node18</title>
<g id="a_edge25_Node000001_Node000018"><a xlink:title=" ">
<path fill="none" stroke="#63b8ff" d="M1056.23,-164.75C1050.91,-157.34 1043.14,-146.5 1036.62,-137.41"/>
<polygon fill="#63b8ff" stroke="#63b8ff" points="1039.33,-135.18 1030.66,-129.09 1033.64,-139.26 1039.33,-135.18"/>
</a>
</g>
</g>
<!-- Node19 -->
<g id="Node000019" class="node">
<title>Node19</title>
<g id="a_Node000019"><a xlink:title=" ">
<polygon fill="#e0e0e0" stroke="#999999" points="1133,-129 1068,-129 1068,-110 1133,-110 1133,-129"/>
<text text-anchor="middle" x="1100.5" y="-117" font-family="Helvetica,sans-Serif" font-size="10.00">exception</text>
</a>
</g>
</g>
<!-- Node1&#45;&gt;Node19 -->
<g id="edge27_Node000001_Node000019" class="edge">
<title>Node1&#45;&gt;Node19</title>
<g id="a_edge27_Node000001_Node000019"><a xlink:title=" ">
<path fill="none" stroke="#63b8ff" d="M1068.77,-164.75C1074.09,-157.34 1081.86,-146.5 1088.38,-137.41"/>
<polygon fill="#63b8ff" stroke="#63b8ff" points="1091.36,-139.26 1094.34,-129.09 1085.67,-135.18 1091.36,-139.26"/>
</a>
</g>
</g>
<!-- Node20 -->
<g id="Node000020" class="node">
<title>Node20</title>
<g id="a_Node000020"><a xlink:title=" ">
<polygon fill="#e0e0e0" stroke="#999999" points="1219.5,-129 1151.5,-129 1151.5,-110 1219.5,-110 1219.5,-129"/>
<text text-anchor="middle" x="1185.5" y="-117" font-family="Helvetica,sans-Serif" font-size="10.00">filesystem</text>
</a>
</g>
</g>
<!-- Node1&#45;&gt;Node20 -->
<g id="edge28_Node000001_Node000020" class="edge">
<title>Node1&#45;&gt;Node20</title>
<g id="a_edge28_Node000001_Node000020"><a xlink:title=" ">
<path fill="none" stroke="#63b8ff" d="M1082.26,-164.98C1102.23,-156.38 1133.3,-142.99 1156.15,-133.15"/>
<polygon fill="#63b8ff" stroke="#63b8ff" points="1157.58,-136.34 1165.38,-129.17 1154.81,-129.91 1157.58,-136.34"/>
</a>
</g>
</g>
<!-- Node21 -->
<g id="Node000021" class="node">
<title>Node21</title>
<g id="a_Node000021"><a xlink:title=" ">
<polygon fill="#e0e0e0" stroke="#999999" points="1293,-129 1238,-129 1238,-110 1293,-110 1293,-129"/>
<text text-anchor="middle" x="1265.5" y="-117" font-family="Helvetica,sans-Serif" font-size="10.00">fstream</text>
</a>
</g>
</g>
<!-- Node1&#45;&gt;Node21 -->
<g id="edge29_Node000001_Node000021" class="edge">
<title>Node1&#45;&gt;Node21</title>
<g id="a_edge29_Node000001_Node000021"><a xlink:title=" ">
<path fill="none" stroke="#63b8ff" d="M1095.12,-164.98C1131.43,-155.5 1190.03,-140.2 1228.16,-130.25"/>
<polygon fill="#63b8ff" stroke="#63b8ff" points="1229.07,-133.63 1237.86,-127.72 1227.3,-126.86 1229.07,-133.63"/>
</a>
</g>
</g>
<!-- Node22 -->
<g id="Node000022" class="node">
<title>Node22</title>
<g id="a_Node000022"><a xlink:title=" ">
<polygon fill="#e0e0e0" stroke="#999999" points="1357.5,-129 1311.5,-129 1311.5,-110 1357.5,-110 1357.5,-129"/>
<text text-anchor="middle" x="1334.5" y="-117" font-family="Helvetica,sans-Serif" font-size="10.00">future</text>
</a>
</g>
</g>
<!-- Node1&#45;&gt;Node22 -->
<g id="edge30_Node000001_Node000022" class="edge">
<title>Node1&#45;&gt;Node22</title>
<g id="a_edge30_Node000001_Node000022"><a xlink:title=" ">
<path fill="none" stroke="#63b8ff" d="M1115.17,-164.92C1161.76,-157.07 1231.78,-144.61 1301.63,-129.05"/>
<polygon fill="#63b8ff" stroke="#63b8ff" points="1302.49,-132.45 1311.48,-126.84 1300.96,-125.62 1302.49,-132.45"/>
</a>
</g>
</g>
<!-- Node23 -->
<g id="Node000023" class="node">
<title>Node23</title>
<g id="a_Node000023"><a xlink:title=" ">
<polygon fill="#e0e0e0" stroke="#999999" points="1431.5,-129 1375.5,-129 1375.5,-110 1431.5,-110 1431.5,-129"/>
<text text-anchor="middle" x="1403.5" y="-117" font-family="Helvetica,sans-Serif" font-size="10.00">iomanip</text>
</a>
</g>
</g>
<!-- Node1&#45;&gt;Node23 -->
<g id="edge31_Node000001_Node000023" class="edge">
<title>Node1&#45;&gt;Node23</title>
<g id="a_edge31_Node000001_Node000023"><a xlink:title=" ">
<path fill="none" stroke="#63b8ff" d="M1131.58,-165C1191.08,-157.31 1279.44,-145.01 1365.35,-129.09"/>
<polygon fill="#63b8ff" stroke="#63b8ff" points="1366.08,-132.51 1375.27,-127.23 1364.79,-125.63 1366.08,-132.51"/>
</a>
</g>
</g>
<!-- Node24 -->
<g id="Node000024" class="node">
<title>Node24</title>
<g id="a_Node000024"><a xlink:title=" ">
<polygon fill="#e0e0e0" stroke="#999999" points="1509.5,-129 1449.5,-129 1449.5,-110 1509.5,-110 1509.5,-129"/>
<text text-anchor="middle" x="1479.5" y="-117" font-family="Helvetica,sans-Serif" font-size="10.00">iostream</text>
</a>
</g>
</g>
<!-- Node1&#45;&gt;Node24 -->
<g id="edge32_Node000001_Node000024" class="edge">
<title>Node1&#45;&gt;Node24</title>
<g id="a_edge32_Node000001_Node000024"><a xlink:title=" ">
<path fill="none" stroke="#63b8ff" d="M1139.19,-166.68C1213.53,-159.57 1329.67,-147.13 1439.41,-129.04"/>
<polygon fill="#63b8ff" stroke="#63b8ff" points="1440.03,-132.48 1449.32,-127.38 1438.88,-125.57 1440.03,-132.48"/>
</a>
</g>
</g>
<!-- Node25 -->
<g id="Node000025" class="node">
<title>Node25</title>
<g id="a_Node000025"><a xlink:title=" ">
<polygon fill="#e0e0e0" stroke="#999999" points="1571.5,-129 1527.5,-129 1527.5,-110 1571.5,-110 1571.5,-129"/>
<text text-anchor="middle" x="1549.5" y="-117" font-family="Helvetica,sans-Serif" font-size="10.00">regex</text>
</a>
</g>
</g>
<!-- Node1&#45;&gt;Node25 -->
<g id="edge34_Node000001_Node000025" class="edge">
<title>Node1&#45;&gt;Node25</title>
<g id="a_edge34_Node000001_Node000025"><a xlink:title=" ">
<path fill="none" stroke="#63b8ff" d="M1139.3,-170C1228.25,-165.06 1379.22,-153.89 1517.33,-128.91"/>
<polygon fill="#63b8ff" stroke="#63b8ff" points="1518.05,-132.34 1527.25,-127.09 1516.79,-125.45 1518.05,-132.34"/>
</a>
</g>
</g>
<!-- Node26 -->
<g id="Node000026" class="node">
<title>Node26</title>
<g id="a_Node000026"><a xlink:title=" ">
<polygon fill="#e0e0e0" stroke="#999999" points="1645.5,-129 1589.5,-129 1589.5,-110 1645.5,-110 1645.5,-129"/>
<text text-anchor="middle" x="1617.5" y="-117" font-family="Helvetica,sans-Serif" font-size="10.00">sstream</text>
</a>
</g>
</g>
<!-- Node1&#45;&gt;Node26 -->
<g id="edge35_Node000001_Node000026" class="edge">
<title>Node1&#45;&gt;Node26</title>
<g id="a_edge35_Node000001_Node000026"><a xlink:title=" ">
<path fill="none" stroke="#63b8ff" d="M1139.26,-170.27C1238.66,-165.34 1417.38,-153.91 1579.16,-128.99"/>
<polygon fill="#63b8ff" stroke="#63b8ff" points="1579.96,-132.41 1589.3,-127.41 1578.88,-125.49 1579.96,-132.41"/>
</a>
</g>
</g>
<!-- Node27 -->
<g id="Node000027" class="node">
<title>Node27</title>
<g id="a_Node000027"><a xlink:title=" ">
<polygon fill="#e0e0e0" stroke="#999999" points="1711.5,-129 1663.5,-129 1663.5,-110 1711.5,-110 1711.5,-129"/>
<text text-anchor="middle" x="1687.5" y="-117" font-family="Helvetica,sans-Serif" font-size="10.00">thread</text>
</a>
</g>
</g>
<!-- Node1&#45;&gt;Node27 -->
<g id="edge36_Node000001_Node000027" class="edge">
<title>Node1&#45;&gt;Node27</title>
<g id="a_edge36_Node000001_Node000027"><a xlink:title=" ">
<path fill="none" stroke="#63b8ff" d="M1139.18,-172.06C1250.6,-169.02 1463.76,-159.58 1653.58,-128.84"/>
<polygon fill="#63b8ff" stroke="#63b8ff" points="1654.15,-132.29 1663.45,-127.22 1653.02,-125.39 1654.15,-132.29"/>
</a>
</g>
</g>
<!-- Node28 -->
<g id="Node000028" class="node">
<title>Node28</title>
<g id="a_Node000028"><a xlink:title=" ">
<polygon fill="#e0e0e0" stroke="#999999" points="1817,-129 1730,-129 1730,-110 1817,-110 1817,-129"/>
<text text-anchor="middle" x="1773.5" y="-117" font-family="Helvetica,sans-Serif" font-size="10.00">sys/resource.h</text>
</a>
</g>
</g>
<!-- Node1&#45;&gt;Node28 -->
<g id="edge38_Node000001_Node000028" class="edge">
<title>Node1&#45;&gt;Node28</title>
<g id="a_edge38_Node000001_Node000028"><a xlink:title=" ">
<path fill="none" stroke="#63b8ff" d="M1139.19,-170.59C1260.3,-165.5 1503.39,-153.22 1719.91,-128.95"/>
<polygon fill="#63b8ff" stroke="#63b8ff" points="1720.33,-132.42 1729.87,-127.82 1719.54,-125.47 1720.33,-132.42"/>
</a>
</g>
</g>
<!-- Node29 -->
<g id="Node000029" class="node">
<title>Node29</title>
<g id="a_Node000029"><a xlink:title=" ">
<polygon fill="#e0e0e0" stroke="#999999" points="1899.5,-129 1835.5,-129 1835.5,-110 1899.5,-110 1899.5,-129"/>
<text text-anchor="middle" x="1867.5" y="-117" font-family="Helvetica,sans-Serif" font-size="10.00">sys/stat.h</text>
</a>
</g>
</g>
<!-- Node1&#45;&gt;Node29 -->
<g id="edge39_Node000001_Node000029" class="edge">
<title>Node1&#45;&gt;Node29</title>
<g id="a_edge39_Node000001_Node000029"><a xlink:title=" ">
<path fill="none" stroke="#63b8ff" d="M1139.03,-172.74C1275.19,-170.57 1568.53,-162.25 1825.08,-128.98"/>
<polygon fill="#63b8ff" stroke="#63b8ff" points="1825.89,-132.4 1835.35,-127.63 1824.98,-125.46 1825.89,-132.4"/>
</a>
</g>
</g>
<!-- Node30 -->
<g id="Node000030" class="node">
<title>Node30</title>
<g id="a_Node000030"><a xlink:title=" ">
<polygon fill="#e0e0e0" stroke="#999999" points="1973.5,-129 1917.5,-129 1917.5,-110 1973.5,-110 1973.5,-129"/>
<text text-anchor="middle" x="1945.5" y="-117" font-family="Helvetica,sans-Serif" font-size="10.00">unistd.h</text>
</a>
</g>
</g>
<!-- Node1&#45;&gt;Node30 -->
<g id="edge40_Node000001_Node000030" class="edge">
<title>Node1&#45;&gt;Node30</title>
<g id="a_edge40_Node000001_Node000030"><a xlink:title=" ">
<path fill="none" stroke="#63b8ff" d="M1139.05,-173.9C1286.23,-173.7 1618.92,-168.58 1907.08,-128.93"/>
<polygon fill="#63b8ff" stroke="#63b8ff" points="1907.89,-132.35 1917.31,-127.51 1906.92,-125.42 1907.89,-132.35"/>
</a>
</g>
</g>
<!-- Node2&#45;&gt;Node3 -->
<g id="edge2_Node000002_Node000003" class="edge">
<title>Node2&#45;&gt;Node3</title>
<g id="a_edge2_Node000002_Node000003"><a xlink:title=" ">
<path fill="none" stroke="#63b8ff" d="M400.34,-109.81C391.6,-101.6 379.6,-88.43 374.5,-74 368.98,-58.4 376.33,-40.59 383.98,-27.81"/>
<polygon fill="#63b8ff" stroke="#63b8ff" points="387.12,-29.42 389.69,-19.14 381.27,-25.57 387.12,-29.42"/>
</a>
</g>
</g>
<!-- Node2&#45;&gt;Node4 -->
<g id="edge3_Node000002_Node000004" class="edge">
<title>Node2&#45;&gt;Node4</title>
<g id="a_edge3_Node000002_Node000004"><a xlink:title=" ">
<path fill="none" stroke="#63b8ff" d="M357.64,-109.94C305.98,-101.41 225.18,-87.67 155.5,-74 154.24,-73.75 152.95,-73.5 151.66,-73.23"/>
<polygon fill="#63b8ff" stroke="#63b8ff" points="152.15,-69.76 141.64,-71.14 150.72,-76.61 152.15,-69.76"/>
</a>
</g>
</g>
<!-- Node2&#45;&gt;Node5 -->
<g id="edge4_Node000002_Node000005" class="edge">
<title>Node2&#45;&gt;Node5</title>
<g id="a_edge4_Node000002_Node000005"><a xlink:title=" ">
<path fill="none" stroke="#63b8ff" d="M438.62,-109.98C468.12,-101.05 514.69,-86.94 547.47,-77.02"/>
<polygon fill="#63b8ff" stroke="#63b8ff" points="548.61,-80.33 557.16,-74.08 546.58,-73.63 548.61,-80.33"/>
</a>
</g>
</g>
<!-- Node6 -->
<g id="Node000006" class="node">
<title>Node6</title>
<g id="a_Node000006"><a xlink:title=" ">
<polygon fill="#e0e0e0" stroke="#999999" points="437,-74 384,-74 384,-55 437,-55 437,-74"/>
<text text-anchor="middle" x="410.5" y="-62" font-family="Helvetica,sans-Serif" font-size="10.00">cstddef</text>
</a>
</g>
</g>
<!-- Node2&#45;&gt;Node6 -->
<g id="edge5_Node000002_Node000006" class="edge">
<title>Node2&#45;&gt;Node6</title>
<g id="a_edge5_Node000002_Node000006"><a xlink:title=" ">
<path fill="none" stroke="#63b8ff" d="M410.5,-109.75C410.5,-102.8 410.5,-92.85 410.5,-84.13"/>
<polygon fill="#63b8ff" stroke="#63b8ff" points="414,-84.09 410.5,-74.09 407,-84.09 414,-84.09"/>
</a>
</g>
</g>
<!-- Node7 -->
<g id="Node000007" class="node">
<title>Node7</title>
<g id="a_Node000007"><a xlink:title=" ">
<polygon fill="#e0e0e0" stroke="#999999" points="346,-19 281,-19 281,0 346,0 346,-19"/>
<text text-anchor="middle" x="313.5" y="-7" font-family="Helvetica,sans-Serif" font-size="10.00">functional</text>
</a>
</g>
</g>
<!-- Node2&#45;&gt;Node7 -->
<g id="edge6_Node000002_Node000007" class="edge">
<title>Node2&#45;&gt;Node7</title>
<g id="a_edge6_Node000002_Node000007"><a xlink:title=" ">
<path fill="none" stroke="#63b8ff" d="M402.27,-109.69C393.96,-100.75 380.75,-86.48 369.5,-74 355.13,-58.06 338.93,-39.64 327.67,-26.76"/>
<polygon fill="#63b8ff" stroke="#63b8ff" points="330.26,-24.41 321.05,-19.18 324.99,-29.02 330.26,-24.41"/>
</a>
</g>
</g>
<!-- Node8 -->
<g id="Node000008" class="node">
<title>Node8</title>
<g id="a_Node000008"><a xlink:title=" ">
<polygon fill="#e0e0e0" stroke="#999999" points="513.5,-74 455.5,-74 455.5,-55 513.5,-55 513.5,-74"/>
<text text-anchor="middle" x="484.5" y="-62" font-family="Helvetica,sans-Serif" font-size="10.00">memory</text>
</a>
</g>
</g>
<!-- Node2&#45;&gt;Node8 -->
<g id="edge7_Node000002_Node000008" class="edge">
<title>Node2&#45;&gt;Node8</title>
<g id="a_edge7_Node000002_Node000008"><a xlink:title=" ">
<path fill="none" stroke="#63b8ff" d="M422.39,-109.98C433.65,-101.92 450.79,-89.65 464.21,-80.03"/>
<polygon fill="#63b8ff" stroke="#63b8ff" points="466.3,-82.84 472.39,-74.17 462.23,-77.15 466.3,-82.84"/>
</a>
</g>
</g>
<!-- Node2&#45;&gt;Node9 -->
<g id="edge8_Node000002_Node000009" class="edge">
<title>Node2&#45;&gt;Node9</title>
<g id="a_edge8_Node000002_Node000009"><a xlink:title=" ">
<path fill="none" stroke="#63b8ff" d="M460.61,-109.98C508.7,-101.6 583.29,-88.04 647.5,-74 647.6,-73.98 647.7,-73.96 647.8,-73.93"/>
<polygon fill="#63b8ff" stroke="#63b8ff" points="648.44,-77.38 657.4,-71.71 646.86,-70.56 648.44,-77.38"/>
</a>
</g>
</g>
<!-- Node10 -->
<g id="Node000010" class="node">
<title>Node10</title>
<g id="a_Node000010"><a xlink:title=" ">
<polygon fill="#e0e0e0" stroke="#999999" points="191.5,-19 147.5,-19 147.5,0 191.5,0 191.5,-19"/>
<text text-anchor="middle" x="169.5" y="-7" font-family="Helvetica,sans-Serif" font-size="10.00">string</text>
</a>
</g>
</g>
<!-- Node2&#45;&gt;Node10 -->
<g id="edge9_Node000002_Node000010" class="edge">
<title>Node2&#45;&gt;Node10</title>
<g id="a_edge9_Node000002_Node000010"><a xlink:title=" ">
<path fill="none" stroke="#63b8ff" d="M351.41,-113.5C293.92,-107.46 211.93,-95.35 188.5,-74 176.15,-62.75 171.7,-43.83 170.16,-29.57"/>
<polygon fill="#63b8ff" stroke="#63b8ff" points="173.63,-29.09 169.45,-19.36 166.65,-29.58 173.63,-29.09"/>
</a>
</g>
</g>
<!-- Node2&#45;&gt;Node11 -->
<g id="edge10_Node000002_Node000011" class="edge">
<title>Node2&#45;&gt;Node11</title>
<g id="a_edge10_Node000002_Node000011"><a xlink:title=" ">
<path fill="none" stroke="#63b8ff" d="M469.67,-111.74C529,-104.53 623.14,-91.93 713.87,-73.92"/>
<polygon fill="#63b8ff" stroke="#63b8ff" points="714.66,-77.34 723.78,-71.93 713.28,-70.47 714.66,-77.34"/>
</a>
</g>
</g>
<!-- Node2&#45;&gt;Node12 -->
<g id="edge11_Node000002_Node000012" class="edge">
<title>Node2&#45;&gt;Node12</title>
<g id="a_edge11_Node000002_Node000012"><a xlink:title=" ">
<path fill="none" stroke="#63b8ff" d="M383.67,-109.98C355.63,-101.09 311.45,-87.07 280.2,-77.15"/>
<polygon fill="#63b8ff" stroke="#63b8ff" points="281.13,-73.77 270.54,-74.08 279.01,-80.44 281.13,-73.77"/>
</a>
</g>
</g>
<!-- Node12&#45;&gt;Node3 -->
<g id="edge12_Node000012_Node000003" class="edge">
<title>Node12&#45;&gt;Node3</title>
<g id="a_edge12_Node000012_Node000003"><a xlink:title=" ">
<path fill="none" stroke="#63b8ff" d="M268.08,-54.98C293.55,-46.16 333.54,-32.31 362.13,-22.41"/>
<polygon fill="#63b8ff" stroke="#63b8ff" points="363.42,-25.66 371.73,-19.08 361.13,-19.05 363.42,-25.66"/>
</a>
</g>
</g>
<!-- Node12&#45;&gt;Node7 -->
<g id="edge15_Node000012_Node000007" class="edge">
<title>Node12&#45;&gt;Node7</title>
<g id="a_edge15_Node000012_Node000007"><a xlink:title=" ">
<path fill="none" stroke="#63b8ff" d="M254.75,-54.98C265.3,-47 281.3,-34.88 293.94,-25.31"/>
<polygon fill="#63b8ff" stroke="#63b8ff" points="296.19,-28 302.05,-19.17 291.96,-22.42 296.19,-28"/>
</a>
</g>
</g>
<!-- Node12&#45;&gt;Node10 -->
<g id="edge16_Node000012_Node000010" class="edge">
<title>Node12&#45;&gt;Node10</title>
<g id="a_edge16_Node000012_Node000010"><a xlink:title=" ">
<path fill="none" stroke="#63b8ff" d="M231.61,-54.98C220.35,-46.92 203.21,-34.65 189.79,-25.03"/>
<polygon fill="#63b8ff" stroke="#63b8ff" points="191.77,-22.15 181.61,-19.17 187.7,-27.84 191.77,-22.15"/>
</a>
</g>
</g>
<!-- Node13 -->
<g id="Node000013" class="node">
<title>Node13</title>
<g id="a_Node000013"><a xlink:title=" ">
<polygon fill="#e0e0e0" stroke="#999999" points="263,-19 214,-19 214,0 263,0 263,-19"/>
<text text-anchor="middle" x="238.5" y="-7" font-family="Helvetica,sans-Serif" font-size="10.00">cctype</text>
</a>
</g>
</g>
<!-- Node12&#45;&gt;Node13 -->
<g id="edge13_Node000012_Node000013" class="edge">
<title>Node12&#45;&gt;Node13</title>
<g id="a_edge13_Node000012_Node000013"><a xlink:title=" ">
<path fill="none" stroke="#63b8ff" d="M242.67,-54.75C242.02,-47.8 241.08,-37.85 240.26,-29.13"/>
<polygon fill="#63b8ff" stroke="#63b8ff" points="243.73,-28.72 239.31,-19.09 236.77,-29.37 243.73,-28.72"/>
</a>
</g>
</g>
<!-- Node12&#45;&gt;Node14 -->
<g id="edge14_Node000012_Node000014" class="edge">
<title>Node12&#45;&gt;Node14</title>
<g id="a_edge14_Node000012_Node000014"><a xlink:title=" ">
<path fill="none" stroke="#63b8ff" d="M289.85,-57.52C372.89,-46.82 545.26,-24.59 619.38,-15.03"/>
<polygon fill="#63b8ff" stroke="#63b8ff" points="620.11,-18.46 629.58,-13.71 619.21,-11.52 620.11,-18.46"/>
</a>
</g>
</g>
<!-- Node15&#45;&gt;Node10 -->
<g id="edge19_Node000015_Node000010" class="edge">
<title>Node15&#45;&gt;Node10</title>
<g id="a_edge19_Node000015_Node000010"><a xlink:title=" ">
<path fill="none" stroke="#63b8ff" d="M57.87,-54.98C79.65,-46.3 113.66,-32.75 138.42,-22.88"/>
<polygon fill="#63b8ff" stroke="#63b8ff" points="139.75,-26.12 147.74,-19.17 137.16,-19.62 139.75,-26.12"/>
</a>
</g>
</g>
</g>
</svg>

<g id="navigator" transform="translate(0 0)" fill="#404254">
  <rect fill="#f2f5e9" fill-opacity="0.5" stroke="#606060" stroke-width=".5" x="0" y="0" width="60" height="60"/>
  <use id="zoomplus" xlink:href="#zoomPlus" x="17" y="9" onmousedown="handleZoom(evt,'in')"/>
  <use id="zoomminus" xlink:href="#zoomMin" x="42" y="9" onmousedown="handleZoom(evt,'out')"/>
  <use id="reset" xlink:href="#resetDef" x="30" y="36" onmousedown="handleReset()"/>
   <use id="arrowup" xlink:href="#arrowUp" x="0" y="0" onmousedown="handlePan(0,-1)"/>
  <use id="arrowright" xlink:href="#arrowRight" x="0" y="0" onmousedown="handlePan(1,0)"/>
  <use id="arrowdown" xlink:href="#arrowDown" x="0" y="0" onmousedown="handlePan(0,1)"/>
  <use id="arrowleft" xlink:href="#arrowLeft" x="0" y="0" onmousedown="handlePan(-1,0)"/>
</g>
<svg viewBox="0 0 15 15" width="100%" height="30px" preserveAspectRatio="xMaxYMin meet">
 <g id="arrow_out" transform="scale(0.3 0.3)">
  <a xlink:href="gaussian__extractor_8cpp__incl_org.svg" target="_base">
   <rect id="button" ry="5" rx="5" y="6" x="6" height="38" width="38"
        fill="#f2f5e9" fill-opacity="0.5" stroke="#606060" stroke-width="1.0"/>
   <path id="arrow"
     d="M 11.500037,31.436501 C 11.940474,20.09759 22.043105,11.32322 32.158766,21.979434 L 37.068811,17.246167 C 37.068811,17.246167 37.088388,32 37.088388,32 L 22.160133,31.978069 C 22.160133,31.978069 26.997745,27.140456 26.997745,27.140456 C 18.528582,18.264221 13.291696,25.230495 11.500037,31.436501 z"
     style="fill:#404040;"/>
  </a>
 </g>
</svg>

<style type='text/css'>
<![CDATA[
[data-mouse-over-selected='false'] { opacity: 0.7; }
[data-mouse-over-selected='true']  { opacity: 1.0; }
]]>
</style>
<script type="application/ecmascript"><![CDATA[
document.addEventListener('DOMContentLoaded', (event) => {
  highlightEdges();
  highlightAdjacentNodes();
});
]]></script>
</svg>
