<?xml version="1.0" encoding="UTF-8" standalone="no"?>
<!DOCTYPE svg PUBLIC "-//W3C//DTD SVG 1.1//EN"
 "http://www.w3.org/Graphics/SVG/1.1/DTD/svg11.dtd">
<!-- Generated by graphviz version 2.43.0 (0)
 -->
<!-- Title: core/gaussian_extractor.h Pages: 1 -->
<svg width="1248pt" height="192pt"
 viewBox="0.00 0.00 1247.50 192.00" xmlns="http://www.w3.org/2000/svg" xmlns:xlink="http://www.w3.org/1999/xlink">
<g id="graph0" class="graph" transform="scale(1 1) rotate(0) translate(4 188)">
<title>core/gaussian_extractor.h</title>
<!-- Node1 -->
<g id="Node000001" class="node">
<title>Node1</title>
<g id="a_Node000001"><a xlink:title="Core extraction engine and data structures for Gaussian log file processing.">
<polygon fill="#999999" stroke="#666666" points="709.5,-184 567.5,-184 567.5,-165 709.5,-165 709.5,-184"/>
<text text-anchor="middle" x="638.5" y="-172" font-family="Helvetica,sans-Serif" font-size="10.00">core/gaussian_extractor.h</text>
</a>
</g>
</g>
<!-- Node2 -->
<g id="Node000002" class="node">
<title>Node2</title>
<g id="a_Node000002"><a xlink:href="coord__extractor_8h.html" target="_top" xlink:title="Header file for coordinate extraction command xyz to extract coordinates from Gaussian outputs.">
<polygon fill="white" stroke="#666666" points="125,-74 0,-74 0,-55 125,-55 125,-74"/>
<text text-anchor="middle" x="62.5" y="-62" font-family="Helvetica,sans-Serif" font-size="10.00">core/coord_extractor.h</text>
</a>
</g>
</g>
<!-- Node1&#45;&gt;Node2 -->
<g id="edge1_Node000001_Node000002" class="edge">
<title>Node1&#45;&gt;Node2</title>
<g id="a_edge1_Node000001_Node000002"><a xlink:title=" ">
<path fill="none" stroke="#63b8ff" d="M556.97,-169.61C444.05,-163.55 246.21,-150.28 177.5,-129 136.76,-116.38 94.18,-88.32 74.18,-74.1"/>
<polygon fill="#63b8ff" stroke="#63b8ff" points="557.11,-173.13 567.29,-170.16 557.48,-166.14 557.11,-173.13"/>
</a>
</g>
</g>
<!-- Node4 -->
<g id="Node000004" class="node">
<title>Node4</title>
<g id="a_Node000004"><a xlink:href="module__executor_8cpp.html" target="_top" xlink:title=" ">
<polygon fill="white" stroke="#666666" points="437.5,-19 293.5,-19 293.5,0 437.5,0 437.5,-19"/>
<text text-anchor="middle" x="365.5" y="-7" font-family="Helvetica,sans-Serif" font-size="10.00">core/module_executor.cpp</text>
</a>
</g>
</g>
<!-- Node1&#45;&gt;Node4 -->
<g id="edge19_Node000001_Node000004" class="edge">
<title>Node1&#45;&gt;Node4</title>
<g id="a_edge19_Node000001_Node000004"><a xlink:title=" ">
<path fill="none" stroke="#63b8ff" d="M557.24,-169.32C492.25,-164.22 408.22,-153.06 384.5,-129 354.52,-98.58 360.37,-40.89 363.89,-19.11"/>
<polygon fill="#63b8ff" stroke="#63b8ff" points="557.26,-172.84 567.5,-170.09 557.79,-165.85 557.26,-172.84"/>
</a>
</g>
</g>
<!-- Node5 -->
<g id="Node000005" class="node">
<title>Node5</title>
<g id="a_Node000005"><a xlink:href="create__input_8h.html" target="_top" xlink:title="Header file for Gaussian input file creation from XYZ files.">
<polygon fill="white" stroke="#666666" points="503.5,-129 393.5,-129 393.5,-110 503.5,-110 503.5,-129"/>
<text text-anchor="middle" x="448.5" y="-117" font-family="Helvetica,sans-Serif" font-size="10.00">core/create_input.h</text>
</a>
</g>
</g>
<!-- Node1&#45;&gt;Node5 -->
<g id="edge4_Node000001_Node000005" class="edge">
<title>Node1&#45;&gt;Node5</title>
<g id="a_edge4_Node000001_Node000005"><a xlink:title=" ">
<path fill="none" stroke="#63b8ff" d="M597.93,-162.18C562.4,-152.27 511.53,-138.08 479.27,-129.08"/>
<polygon fill="#63b8ff" stroke="#63b8ff" points="597.4,-165.67 607.97,-164.98 599.28,-158.93 597.4,-165.67"/>
</a>
</g>
</g>
<!-- Node7 -->
<g id="Node000007" class="node">
<title>Node7</title>
<g id="a_Node000007"><a xlink:href="gaussian__extractor_8cpp.html" target="_top" xlink:title="Implementation of core Gaussian log file processing and data extraction.">
<polygon fill="white" stroke="#666666" points="869,-129 716,-129 716,-110 869,-110 869,-129"/>
<text text-anchor="middle" x="792.5" y="-117" font-family="Helvetica,sans-Serif" font-size="10.00">core/gaussian_extractor.cpp</text>
</a>
</g>
</g>
<!-- Node1&#45;&gt;Node7 -->
<g id="edge7_Node000001_Node000007" class="edge">
<title>Node1&#45;&gt;Node7</title>
<g id="a_edge7_Node000001_Node000007"><a xlink:title=" ">
<path fill="none" stroke="#63b8ff" d="M672.88,-161.67C701.59,-151.79 741.86,-137.93 767.56,-129.08"/>
<polygon fill="#63b8ff" stroke="#63b8ff" points="671.56,-158.42 663.24,-164.98 673.84,-165.04 671.56,-158.42"/>
</a>
</g>
</g>
<!-- Node8 -->
<g id="Node000008" class="node">
<title>Node8</title>
<g id="a_Node000008"><a xlink:href="help__utils_8cpp.html" target="_top" xlink:title="Implementation of help utility functions.">
<polygon fill="white" stroke="#666666" points="995.5,-129 887.5,-129 887.5,-110 995.5,-110 995.5,-129"/>
<text text-anchor="middle" x="941.5" y="-117" font-family="Helvetica,sans-Serif" font-size="10.00">core/help_utils.cpp</text>
</a>
</g>
</g>
<!-- Node1&#45;&gt;Node8 -->
<g id="edge8_Node000001_Node000008" class="edge">
<title>Node1&#45;&gt;Node8</title>
<g id="a_edge8_Node000001_Node000008"><a xlink:title=" ">
<path fill="none" stroke="#63b8ff" d="M697.11,-163.25C754.01,-153.3 839.37,-138.36 892.69,-129.04"/>
<polygon fill="#63b8ff" stroke="#63b8ff" points="696.43,-159.81 687.18,-164.98 697.64,-166.71 696.43,-159.81"/>
</a>
</g>
</g>
<!-- Node9 -->
<g id="Node000009" class="node">
<title>Node9</title>
<g id="a_Node000009"><a xlink:href="high__level__energy_8cpp.html" target="_top" xlink:title=" ">
<polygon fill="white" stroke="#666666" points="761,-74 612,-74 612,-55 761,-55 761,-74"/>
<text text-anchor="middle" x="686.5" y="-62" font-family="Helvetica,sans-Serif" font-size="10.00">core/high_level_energy.cpp</text>
</a>
</g>
</g>
<!-- Node1&#45;&gt;Node9 -->
<g id="edge9_Node000001_Node000009" class="edge">
<title>Node1&#45;&gt;Node9</title>
<g id="a_edge9_Node000001_Node000009"><a xlink:title=" ">
<path fill="none" stroke="#63b8ff" d="M651.7,-156.67C657.5,-148.65 664,-138.7 668.5,-129 677.19,-110.29 682.56,-86.5 684.98,-74.02"/>
<polygon fill="#63b8ff" stroke="#63b8ff" points="648.81,-154.7 645.6,-164.8 654.4,-158.91 648.81,-154.7"/>
</a>
</g>
</g>
<!-- Node10 -->
<g id="Node000010" class="node">
<title>Node10</title>
<g id="a_Node000010"><a xlink:href="high__level__energy_8h.html" target="_top" xlink:title="High&#45;level energy calculations with thermal corrections for Gaussian calculations.">
<polygon fill="white" stroke="#666666" points="659,-129 522,-129 522,-110 659,-110 659,-129"/>
<text text-anchor="middle" x="590.5" y="-117" font-family="Helvetica,sans-Serif" font-size="10.00">core/high_level_energy.h</text>
</a>
</g>
</g>
<!-- Node1&#45;&gt;Node10 -->
<g id="edge10_Node000001_Node000010" class="edge">
<title>Node1&#45;&gt;Node10</title>
<g id="a_edge10_Node000001_Node000010"><a xlink:title=" ">
<path fill="none" stroke="#63b8ff" d="M623.77,-157.24C615.36,-147.95 605.15,-136.68 598.28,-129.09"/>
<polygon fill="#63b8ff" stroke="#63b8ff" points="621.27,-159.69 630.57,-164.75 626.46,-154.99 621.27,-159.69"/>
</a>
</g>
</g>
<!-- Node11 -->
<g id="Node000011" class="node">
<title>Node11</title>
<g id="a_Node000011"><a xlink:href="interactive__mode_8cpp.html" target="_top" xlink:title="Implementation of interactive mode functionality.">
<polygon fill="white" stroke="#666666" points="1159.5,-129 1013.5,-129 1013.5,-110 1159.5,-110 1159.5,-129"/>
<text text-anchor="middle" x="1086.5" y="-117" font-family="Helvetica,sans-Serif" font-size="10.00">core/interactive_mode.cpp</text>
</a>
</g>
</g>
<!-- Node1&#45;&gt;Node11 -->
<g id="edge13_Node000001_Node000011" class="edge">
<title>Node1&#45;&gt;Node11</title>
<g id="a_edge13_Node000001_Node000011"><a xlink:title=" ">
<path fill="none" stroke="#63b8ff" d="M720.01,-163.86C804.13,-153.91 934.09,-138.53 1014.53,-129.01"/>
<polygon fill="#63b8ff" stroke="#63b8ff" points="719.5,-160.39 709.98,-165.04 720.32,-167.34 719.5,-160.39"/>
</a>
</g>
</g>
<!-- Node12 -->
<g id="Node000012" class="node">
<title>Node12</title>
<g id="a_Node000012"><a xlink:href="job__checker_8h.html" target="_top" xlink:title="Job status checking and file organization system for Gaussian calculations.">
<polygon fill="white" stroke="#666666" points="294,-129 187,-129 187,-110 294,-110 294,-129"/>
<text text-anchor="middle" x="240.5" y="-117" font-family="Helvetica,sans-Serif" font-size="10.00">core/job_checker.h</text>
</a>
</g>
</g>
<!-- Node1&#45;&gt;Node12 -->
<g id="edge14_Node000001_Node000012" class="edge">
<title>Node1&#45;&gt;Node12</title>
<g id="a_edge14_Node000001_Node000012"><a xlink:title=" ">
<path fill="none" stroke="#63b8ff" d="M564.25,-163.61C485.71,-153.15 363.73,-136.91 294.08,-127.63"/>
<polygon fill="#63b8ff" stroke="#63b8ff" points="564.18,-167.13 574.55,-164.98 565.1,-160.2 564.18,-167.13"/>
</a>
</g>
</g>
<!-- Node14 -->
<g id="Node000014" class="node">
<title>Node14</title>
<g id="a_Node000014"><a xlink:href="main_8cpp.html" target="_top" xlink:title="Main entry point for the Gaussian Extractor application.">
<polygon fill="white" stroke="#666666" points="1239.5,-129 1177.5,-129 1177.5,-110 1239.5,-110 1239.5,-129"/>
<text text-anchor="middle" x="1208.5" y="-117" font-family="Helvetica,sans-Serif" font-size="10.00">main.cpp</text>
</a>
</g>
</g>
<!-- Node1&#45;&gt;Node14 -->
<g id="edge20_Node000001_Node000014" class="edge">
<title>Node1&#45;&gt;Node14</title>
<g id="a_edge20_Node000001_Node000014"><a xlink:title=" ">
<path fill="none" stroke="#63b8ff" d="M719.69,-169.86C824.01,-164.45 1010.48,-152.33 1168.5,-129 1171.31,-128.59 1174.22,-128.09 1177.12,-127.56"/>
<polygon fill="#63b8ff" stroke="#63b8ff" points="719.36,-166.37 709.55,-170.37 719.72,-173.36 719.36,-166.37"/>
</a>
</g>
</g>
<!-- Node3 -->
<g id="Node000003" class="node">
<title>Node3</title>
<g id="a_Node000003"><a xlink:href="coord__extractor_8cpp.html" target="_top" xlink:title=" ">
<polygon fill="white" stroke="#666666" points="177,-19 40,-19 40,0 177,0 177,-19"/>
<text text-anchor="middle" x="108.5" y="-7" font-family="Helvetica,sans-Serif" font-size="10.00">core/coord_extractor.cpp</text>
</a>
</g>
</g>
<!-- Node2&#45;&gt;Node3 -->
<g id="edge2_Node000002_Node000003" class="edge">
<title>Node2&#45;&gt;Node3</title>
<g id="a_edge2_Node000002_Node000003"><a xlink:title=" ">
<path fill="none" stroke="#63b8ff" d="M76.86,-46.96C84.87,-37.72 94.53,-26.6 101.05,-19.09"/>
<polygon fill="#63b8ff" stroke="#63b8ff" points="74.01,-44.9 70.1,-54.75 79.29,-49.49 74.01,-44.9"/>
</a>
</g>
</g>
<!-- Node2&#45;&gt;Node4 -->
<g id="edge3_Node000002_Node000004" class="edge">
<title>Node2&#45;&gt;Node4</title>
<g id="a_edge3_Node000002_Node000004"><a xlink:title=" ">
<path fill="none" stroke="#63b8ff" d="M121.11,-53.25C178.01,-43.3 263.37,-28.36 316.69,-19.04"/>
<polygon fill="#63b8ff" stroke="#63b8ff" points="120.43,-49.81 111.18,-54.98 121.64,-56.71 120.43,-49.81"/>
</a>
</g>
</g>
<!-- Node5&#45;&gt;Node4 -->
<g id="edge6_Node000005_Node000004" class="edge">
<title>Node5&#45;&gt;Node4</title>
<g id="a_edge6_Node000005_Node000004"><a xlink:title=" ">
<path fill="none" stroke="#63b8ff" d="M435.58,-101.69C417.66,-78.37 385.9,-37.05 372.15,-19.16"/>
<polygon fill="#63b8ff" stroke="#63b8ff" points="432.84,-103.87 441.71,-109.66 438.39,-99.6 432.84,-103.87"/>
</a>
</g>
</g>
<!-- Node6 -->
<g id="Node000006" class="node">
<title>Node6</title>
<g id="a_Node000006"><a xlink:href="create__input_8cpp.html" target="_top" xlink:title="Implementation of Gaussian input file creation from XYZ files.">
<polygon fill="white" stroke="#666666" points="553.5,-74 431.5,-74 431.5,-55 553.5,-55 553.5,-74"/>
<text text-anchor="middle" x="492.5" y="-62" font-family="Helvetica,sans-Serif" font-size="10.00">core/create_input.cpp</text>
</a>
</g>
</g>
<!-- Node5&#45;&gt;Node6 -->
<g id="edge5_Node000005_Node000006" class="edge">
<title>Node5&#45;&gt;Node6</title>
<g id="a_edge5_Node000005_Node000006"><a xlink:title=" ">
<path fill="none" stroke="#63b8ff" d="M462.23,-101.96C469.9,-92.72 479.13,-81.6 485.37,-74.09"/>
<polygon fill="#63b8ff" stroke="#63b8ff" points="459.46,-99.82 455.77,-109.75 464.85,-104.29 459.46,-99.82"/>
</a>
</g>
</g>
<!-- Node10&#45;&gt;Node4 -->
<g id="edge12_Node000010_Node000004" class="edge">
<title>Node10&#45;&gt;Node4</title>
<g id="a_edge12_Node000010_Node000004"><a xlink:title=" ">
<path fill="none" stroke="#63b8ff" d="M587,-99.78C583.34,-85.43 576.14,-66.23 562.5,-55 542.71,-38.7 481.23,-26.5 432.16,-19.04"/>
<polygon fill="#63b8ff" stroke="#63b8ff" points="583.6,-100.59 589.16,-109.6 590.43,-99.08 583.6,-100.59"/>
</a>
</g>
</g>
<!-- Node10&#45;&gt;Node9 -->
<g id="edge11_Node000010_Node000009" class="edge">
<title>Node10&#45;&gt;Node9</title>
<g id="a_edge11_Node000010_Node000009"><a xlink:title=" ">
<path fill="none" stroke="#63b8ff" d="M615.02,-104.97C632.56,-95.28 655.67,-82.52 670.8,-74.17"/>
<polygon fill="#63b8ff" stroke="#63b8ff" points="612.99,-102.09 605.92,-109.98 616.37,-108.22 612.99,-102.09"/>
</a>
</g>
</g>
<!-- Node12&#45;&gt;Node2 -->
<g id="edge16_Node000012_Node000002" class="edge">
<title>Node12&#45;&gt;Node2</title>
<g id="a_edge16_Node000012_Node000002"><a xlink:title=" ">
<path fill="none" stroke="#63b8ff" d="M202.06,-107.06C168.8,-97.15 121.42,-83.04 91.32,-74.08"/>
<polygon fill="#63b8ff" stroke="#63b8ff" points="201.32,-110.49 211.9,-109.98 203.32,-103.78 201.32,-110.49"/>
</a>
</g>
</g>
<!-- Node12&#45;&gt;Node3 -->
<g id="edge15_Node000012_Node000003" class="edge">
<title>Node12&#45;&gt;Node3</title>
<g id="a_edge15_Node000012_Node000003"><a xlink:title=" ">
<path fill="none" stroke="#63b8ff" d="M216.89,-104.69C203.42,-96.41 186.49,-85.32 172.5,-74 150.6,-56.27 127.86,-32.08 116.28,-19.28"/>
<polygon fill="#63b8ff" stroke="#63b8ff" points="215.21,-107.76 225.58,-109.93 218.83,-101.77 215.21,-107.76"/>
</a>
</g>
</g>
<!-- Node12&#45;&gt;Node4 -->
<g id="edge18_Node000012_Node000004" class="edge">
<title>Node12&#45;&gt;Node4</title>
<g id="a_edge18_Node000012_Node000004"><a xlink:title=" ">
<path fill="none" stroke="#63b8ff" d="M264.62,-104.83C278.13,-96.67 294.93,-85.65 308.5,-74 328.73,-56.63 348.69,-32.29 358.76,-19.37"/>
<polygon fill="#63b8ff" stroke="#63b8ff" points="262.71,-101.9 255.88,-110 266.27,-107.92 262.71,-101.9"/>
</a>
</g>
</g>
<!-- Node13 -->
<g id="Node000013" class="node">
<title>Node13</title>
<g id="a_Node000013"><a xlink:href="job__checker_8cpp.html" target="_top" xlink:title=" ">
<polygon fill="white" stroke="#666666" points="299.5,-74 181.5,-74 181.5,-55 299.5,-55 299.5,-74"/>
<text text-anchor="middle" x="240.5" y="-62" font-family="Helvetica,sans-Serif" font-size="10.00">core/job_checker.cpp</text>
</a>
</g>
</g>
<!-- Node12&#45;&gt;Node13 -->
<g id="edge17_Node000012_Node000013" class="edge">
<title>Node12&#45;&gt;Node13</title>
<g id="a_edge17_Node000012_Node000013"><a xlink:title=" ">
<path fill="none" stroke="#63b8ff" d="M240.5,-99.66C240.5,-90.93 240.5,-80.99 240.5,-74.09"/>
<polygon fill="#63b8ff" stroke="#63b8ff" points="237,-99.75 240.5,-109.75 244,-99.75 237,-99.75"/>
</a>
</g>
</g>
</g>
</svg>
