<?xml version="1.0" encoding="UTF-8" standalone="no"?>
<!DOCTYPE svg PUBLIC "-//W3C//DTD SVG 1.1//EN"
 "http://www.w3.org/Graphics/SVG/1.1/DTD/svg11.dtd">
<!-- Generated by graphviz version 2.43.0 (0)
 -->
<!-- Title: JobCheckerUtils::is_valid_log_file Pages: 1 -->
<svg width="266pt" height="86pt"
 viewBox="0.00 0.00 266.00 86.00" xmlns="http://www.w3.org/2000/svg" xmlns:xlink="http://www.w3.org/1999/xlink">
<g id="graph0" class="graph" transform="scale(1 1) rotate(0) translate(4 82)">
<title>JobCheckerUtils::is_valid_log_file</title>
<!-- Node1 -->
<g id="Node000001" class="node">
<title>Node1</title>
<g id="a_Node000001"><a xlink:title="Validate that a log file is suitable for processing.">
<polygon fill="#999999" stroke="#666666" points="107,-54 0,-54 0,-24 107,-24 107,-54"/>
<text text-anchor="start" x="8" y="-42" font-family="Helvetica,sans-Serif" font-size="10.00">JobCheckerUtils::is</text>
<text text-anchor="middle" x="53.5" y="-31" font-family="Helvetica,sans-Serif" font-size="10.00">_valid_log_file</text>
</a>
</g>
</g>
<!-- Node2 -->
<g id="Node000002" class="node">
<title>Node2</title>
<g id="a_Node000002"><a xlink:href="group__JobFileUtils.html#ga93b2603d1ed51dcb6ad00bb6c48a434b" target="_top" xlink:title="Check if a file exists and is accessible.">
<polygon fill="white" stroke="#666666" points="257.5,-78 143.5,-78 143.5,-48 257.5,-48 257.5,-78"/>
<text text-anchor="start" x="151.5" y="-66" font-family="Helvetica,sans-Serif" font-size="10.00">JobCheckerUtils::file</text>
<text text-anchor="middle" x="200.5" y="-55" font-family="Helvetica,sans-Serif" font-size="10.00">_exists</text>
</a>
</g>
</g>
<!-- Node1&#45;&gt;Node2 -->
<g id="edge1_Node000001_Node000002" class="edge">
<title>Node1&#45;&gt;Node2</title>
<g id="a_edge1_Node000001_Node000002"><a xlink:title=" ">
<path fill="none" stroke="#63b8ff" d="M107.26,-47.73C115.64,-49.12 124.4,-50.57 133.05,-52"/>
<polygon fill="#63b8ff" stroke="#63b8ff" points="132.68,-55.49 143.11,-53.67 133.82,-48.58 132.68,-55.49"/>
</a>
</g>
</g>
<!-- Node3 -->
<g id="Node000003" class="node">
<title>Node3</title>
<g id="a_Node000003"><a xlink:href="group__JobFileUtils.html#ga0022919f724153d514357c39b4658063" target="_top" xlink:title="Extract file extension from path.">
<polygon fill="white" stroke="#666666" points="258,-30 143,-30 143,0 258,0 258,-30"/>
<text text-anchor="start" x="151" y="-18" font-family="Helvetica,sans-Serif" font-size="10.00">JobCheckerUtils::get</text>
<text text-anchor="middle" x="200.5" y="-7" font-family="Helvetica,sans-Serif" font-size="10.00">_file_extension</text>
</a>
</g>
</g>
<!-- Node1&#45;&gt;Node3 -->
<g id="edge2_Node000001_Node000003" class="edge">
<title>Node1&#45;&gt;Node3</title>
<g id="a_edge2_Node000001_Node000003"><a xlink:title=" ">
<path fill="none" stroke="#63b8ff" d="M107.26,-30.27C115.52,-28.9 124.16,-27.47 132.69,-26.06"/>
<polygon fill="#63b8ff" stroke="#63b8ff" points="133.33,-29.5 142.62,-24.41 132.19,-22.59 133.33,-29.5"/>
</a>
</g>
</g>
</g>
</svg>
