<?xml version="1.0" encoding="UTF-8" standalone="no"?>
<!DOCTYPE svg PUBLIC "-//W3C//DTD SVG 1.1//EN"
 "http://www.w3.org/Graphics/SVG/1.1/DTD/svg11.dtd">
<!-- Generated by graphviz version 2.43.0 (0)
 -->
<!-- Title: formatMemorySize Pages: 1 -->
<!--zoomable 343 -->

<svg id="main" version="1.1" xmlns="http://www.w3.org/2000/svg" xmlns:xlink="http://www.w3.org/1999/xlink" xml:space="preserve" onload="init(evt)">
<style type="text/css"><![CDATA[
.node, .edge {opacity: 0.7;}
.node.selected, .edge.selected {opacity: 1;}
.edge:hover path { stroke: red; }
.edge:hover polygon { stroke: red; fill: red; }
]]></style>

<defs>
  <circle id="rim" cx="0" cy="0" r="7"/>
  <circle id="rim2" cx="0" cy="0" r="3.5"/>
  <g id="zoomPlus">
    <use xlink:href="#rim" fill="#404040"><set attributeName="fill" to="#808080" begin="zoomplus.mouseover" end="zoomplus.mouseout"/></use>
    <path d="M-4,0h8M0,-4v8" fill="none" stroke="white" stroke-width="1.5" pointer-events="none"/>
  </g>
  <g id="zoomMin">
    <use xlink:href="#rim" fill="#404040"><set attributeName="fill" to="#808080" begin="zoomminus.mouseover" end="zoomminus.mouseout"/></use>
    <path d="M-4,0h8" fill="none" stroke="white" stroke-width="1.5" pointer-events="none"/>
  </g>
  <g id="arrowUp" transform="translate(30 24)">
    <use xlink:href="#rim"/>
    <path pointer-events="none" fill="none" stroke="white" stroke-width="1.5" d="M0,-3.0v7 M-2.5,-0.5L0,-3.0L2.5,-0.5"/>
  </g>
  <g id="arrowRight" transform="rotate(90) translate(36 -43)">
    <use xlink:href="#rim"/>
    <path pointer-events="none" fill="none" stroke="white" stroke-width="1.5" d="M0,-3.0v7 M-2.5,-0.5L0,-3.0L2.5,-0.5"/>
  </g>
  <g id="arrowDown" transform="rotate(180) translate(-30 -48)">
    <use xlink:href="#rim"/>
    <path pointer-events="none" fill="none" stroke="white" stroke-width="1.5" d="M0,-3.0v7 M-2.5,-0.5L0,-3.0L2.5,-0.5"/>
  </g>
  <g id="arrowLeft" transform="rotate(270) translate(-36 17)">
    <use xlink:href="#rim"/>
    <path pointer-events="none" fill="none" stroke="white" stroke-width="1.5" d="M0,-3.0v7 M-2.5,-0.5L0,-3.0L2.5,-0.5"/>
  </g>
  <g id="resetDef">
    <use xlink:href="#rim2" fill="#404040"><set attributeName="fill" to="#808080" begin="reset.mouseover" end="reset.mouseout"/></use>
  </g>
</defs>
<script type="application/ecmascript">
var viewWidth = 884;
var viewHeight = 343;
var sectionId = 'dynsection-5';
</script>
<script type="application/ecmascript" xlink:href="svg.min.js"/>
<svg id="graph" class="graph">
<g id="viewport">
<title>formatMemorySize</title>
<!-- Node1 -->
<g id="Node000001" class="node">
<title>Node1</title>
<g id="a_Node000001"><a xlink:title=" ">
<polygon fill="#999999" stroke="#666666" points="876,-243 766,-243 766,-224 876,-224 876,-243"/>
<text text-anchor="middle" x="821" y="-231" font-family="Helvetica,sans-Serif" font-size="10.00">formatMemorySize</text>
</a>
</g>
</g>
<!-- Node2 -->
<g id="Node000002" class="node">
<title>Node2</title>
<g id="a_Node000002"><a xlink:href="group__ModuleExecutors.html#gab1aa2594a8bb3d2789d37593f69cbc5e" target="_top" xlink:title=" ">
<polygon fill="white" stroke="#666666" points="368.5,-334.5 258.5,-334.5 258.5,-304.5 368.5,-304.5 368.5,-334.5"/>
<text text-anchor="start" x="266.5" y="-322.5" font-family="Helvetica,sans-Serif" font-size="10.00">execute_high_level</text>
<text text-anchor="middle" x="313.5" y="-311.5" font-family="Helvetica,sans-Serif" font-size="10.00">_au_command</text>
</a>
</g>
</g>
<!-- Node1&#45;&gt;Node2 -->
<g id="edge1_Node000001_Node000002" class="edge">
<title>Node1&#45;&gt;Node2</title>
<g id="a_edge1_Node000001_Node000002"><a xlink:title=" ">
<path fill="none" stroke="#63b8ff" d="M792.53,-247.51C775.07,-255.81 751.73,-265.78 730,-271.5 603.24,-304.85 448.67,-315.03 368.53,-318.14"/>
<polygon fill="#63b8ff" stroke="#63b8ff" points="794.12,-250.63 801.58,-243.11 791.06,-244.34 794.12,-250.63"/>
</a>
</g>
</g>
<!-- Node5 -->
<g id="Node000005" class="node">
<title>Node5</title>
<g id="a_Node000005"><a xlink:href="group__ModuleExecutors.html#gaefd8d559f7f798aaf8cb5f6feb9dce47" target="_top" xlink:title=" ">
<polygon fill="white" stroke="#666666" points="368.5,-286.5 258.5,-286.5 258.5,-256.5 368.5,-256.5 368.5,-286.5"/>
<text text-anchor="start" x="266.5" y="-274.5" font-family="Helvetica,sans-Serif" font-size="10.00">execute_high_level</text>
<text text-anchor="middle" x="313.5" y="-263.5" font-family="Helvetica,sans-Serif" font-size="10.00">_kj_command</text>
</a>
</g>
</g>
<!-- Node1&#45;&gt;Node5 -->
<g id="edge5_Node000001_Node000005" class="edge">
<title>Node1&#45;&gt;Node5</title>
<g id="a_edge5_Node000001_Node000005"><a xlink:title=" ">
<path fill="none" stroke="#63b8ff" d="M771.7,-245.2C758.27,-248.04 743.63,-250.76 730,-252.5 601.07,-268.95 448.03,-271.66 368.53,-271.82"/>
<polygon fill="#63b8ff" stroke="#63b8ff" points="772.67,-248.57 781.69,-243.02 771.18,-241.73 772.67,-248.57"/>
</a>
</g>
</g>
<!-- Node6 -->
<g id="Node000006" class="node">
<title>Node6</title>
<g id="a_Node000006"><a xlink:href="group__MemoryMonitorImpl.html#gaebeb52f9def6bfd4c1ddad8a1d572ae8" target="_top" xlink:title="Print job scheduler resource information.">
<polygon fill="white" stroke="#666666" points="730,-243 612,-243 612,-224 730,-224 730,-243"/>
<text text-anchor="middle" x="671" y="-231" font-family="Helvetica,sans-Serif" font-size="10.00">printJobResourceInfo</text>
</a>
</g>
</g>
<!-- Node1&#45;&gt;Node6 -->
<g id="edge8_Node000001_Node000006" class="edge">
<title>Node1&#45;&gt;Node6</title>
<g id="a_edge8_Node000001_Node000006"><a xlink:title=" ">
<path fill="none" stroke="#63b8ff" d="M755.57,-233.5C747.15,-233.5 738.56,-233.5 730.25,-233.5"/>
<polygon fill="#63b8ff" stroke="#63b8ff" points="755.73,-237 765.73,-233.5 755.73,-230 755.73,-237"/>
</a>
</g>
</g>
<!-- Node7 -->
<g id="Node000007" class="node">
<title>Node7</title>
<g id="a_Node000007"><a xlink:href="group__MemoryMonitorImpl.html#ga2f3e6563006e068b95ebf65b9942ccee" target="_top" xlink:title="Process multiple files and output formatted results.">
<polygon fill="white" stroke="#666666" points="576,-233 434,-233 434,-214 576,-214 576,-233"/>
<text text-anchor="middle" x="505" y="-221" font-family="Helvetica,sans-Serif" font-size="10.00">processAndOutputResults</text>
</a>
</g>
</g>
<!-- Node1&#45;&gt;Node7 -->
<g id="edge30_Node000001_Node000007" class="edge">
<title>Node1&#45;&gt;Node7</title>
<g id="a_edge30_Node000001_Node000007"><a xlink:title=" ">
<path fill="none" stroke="#63b8ff" d="M770.97,-221.87C757.75,-219.24 743.39,-216.83 730,-215.5 678.69,-210.42 620.49,-212.74 576.27,-216.16"/>
<polygon fill="#63b8ff" stroke="#63b8ff" points="770.32,-225.31 780.82,-223.92 771.74,-218.46 770.32,-225.31"/>
</a>
</g>
</g>
<!-- Node9 -->
<g id="Node000009" class="node">
<title>Node9</title>
<g id="a_Node000009"><a xlink:href="group__MemoryMonitorImpl.html#ga9c5d14b4926584b6a71df4a0262ecb5d" target="_top" xlink:title="Print resource usage statistics from processing context.">
<polygon fill="white" stroke="#666666" points="728.5,-147 613.5,-147 613.5,-128 728.5,-128 728.5,-147"/>
<text text-anchor="middle" x="671" y="-135" font-family="Helvetica,sans-Serif" font-size="10.00">printResourceUsage</text>
</a>
</g>
</g>
<!-- Node1&#45;&gt;Node9 -->
<g id="edge13_Node000001_Node000009" class="edge">
<title>Node1&#45;&gt;Node9</title>
<g id="a_edge13_Node000001_Node000009"><a xlink:title=" ">
<path fill="none" stroke="#63b8ff" d="M796.86,-218.49C766.05,-198.5 712.45,-163.74 686.67,-147.02"/>
<polygon fill="#63b8ff" stroke="#63b8ff" points="794.97,-221.44 805.27,-223.94 798.78,-215.57 794.97,-221.44"/>
</a>
</g>
</g>
<!-- Node3 -->
<g id="Node000003" class="node">
<title>Node3</title>
<g id="a_Node000003"><a xlink:href="main_8cpp.html#a0ddf1224851353fc92bfbff6f499fa97" target="_top" xlink:title="Main entry point for the Gaussian Extractor application.">
<polygon fill="white" stroke="#666666" points="41,-171 0,-171 0,-152 41,-152 41,-171"/>
<text text-anchor="middle" x="20.5" y="-159" font-family="Helvetica,sans-Serif" font-size="10.00">main</text>
</a>
</g>
</g>
<!-- Node2&#45;&gt;Node3 -->
<g id="edge2_Node000002_Node000003" class="edge">
<title>Node2&#45;&gt;Node3</title>
<g id="a_edge2_Node000002_Node000003"><a xlink:title=" ">
<path fill="none" stroke="#63b8ff" d="M248.04,-315.53C197.11,-309.48 126.58,-294.33 77,-256.5 47.39,-233.91 30.69,-190.61 24.41,-171.26"/>
<polygon fill="#63b8ff" stroke="#63b8ff" points="247.95,-319.04 258.27,-316.65 248.72,-312.08 247.95,-319.04"/>
</a>
</g>
</g>
<!-- Node4 -->
<g id="Node000004" class="node">
<title>Node4</title>
<g id="a_Node000004"><a xlink:href="interactive__mode_8cpp.html#a6b615c34054150d837dc45ed1c17b297" target="_top" xlink:title="Enhanced interactive command loop with TAB completion for Windows.">
<polygon fill="white" stroke="#666666" points="193,-171 77,-171 77,-152 193,-152 193,-171"/>
<text text-anchor="middle" x="135" y="-159" font-family="Helvetica,sans-Serif" font-size="10.00">run_interactive_loop</text>
</a>
</g>
</g>
<!-- Node2&#45;&gt;Node4 -->
<g id="edge3_Node000002_Node000004" class="edge">
<title>Node2&#45;&gt;Node4</title>
<g id="a_edge3_Node000002_Node000004"><a xlink:title=" ">
<path fill="none" stroke="#63b8ff" d="M248.71,-306.21C241.72,-303.32 234.98,-299.79 229,-295.5 181.82,-261.68 150.57,-196.1 139.98,-171.31"/>
<polygon fill="#63b8ff" stroke="#63b8ff" points="247.75,-309.59 258.34,-309.79 250.18,-303.03 247.75,-309.59"/>
</a>
</g>
</g>
<!-- Node4&#45;&gt;Node3 -->
<g id="edge4_Node000004_Node000003" class="edge">
<title>Node4&#45;&gt;Node3</title>
<g id="a_edge4_Node000004_Node000003"><a xlink:title=" ">
<path fill="none" stroke="#63b8ff" d="M66.62,-161.5C57.37,-161.5 48.55,-161.5 41.19,-161.5"/>
<polygon fill="#63b8ff" stroke="#63b8ff" points="66.76,-165 76.76,-161.5 66.76,-158 66.76,-165"/>
</a>
</g>
</g>
<!-- Node5&#45;&gt;Node3 -->
<g id="edge6_Node000005_Node000003" class="edge">
<title>Node5&#45;&gt;Node3</title>
<g id="a_edge6_Node000005_Node000003"><a xlink:title=" ">
<path fill="none" stroke="#63b8ff" d="M248.1,-269.72C198.43,-265.83 129.55,-254.78 77,-224.5 54.27,-211.4 36.06,-185.58 27.26,-171.4"/>
<polygon fill="#63b8ff" stroke="#63b8ff" points="247.86,-273.21 258.08,-270.42 248.36,-266.23 247.86,-273.21"/>
</a>
</g>
</g>
<!-- Node5&#45;&gt;Node4 -->
<g id="edge7_Node000005_Node000004" class="edge">
<title>Node5&#45;&gt;Node4</title>
<g id="a_edge7_Node000005_Node000004"><a xlink:title=" ">
<path fill="none" stroke="#63b8ff" d="M248.95,-256.66C242.02,-254.05 235.23,-251.01 229,-247.5 192.21,-226.77 158.29,-188.76 143.63,-171.05"/>
<polygon fill="#63b8ff" stroke="#63b8ff" points="247.85,-259.98 258.44,-259.97 250.15,-253.37 247.85,-259.98"/>
</a>
</g>
</g>
<!-- Node6&#45;&gt;Node7 -->
<g id="edge9_Node000006_Node000007" class="edge">
<title>Node6&#45;&gt;Node7</title>
<g id="a_edge9_Node000006_Node000007"><a xlink:title=" ">
<path fill="none" stroke="#63b8ff" d="M601.59,-229.33C593.19,-228.82 584.59,-228.29 576.17,-227.78"/>
<polygon fill="#63b8ff" stroke="#63b8ff" points="601.52,-232.83 611.72,-229.95 601.95,-225.84 601.52,-232.83"/>
</a>
</g>
</g>
<!-- Node8 -->
<g id="Node000008" class="node">
<title>Node8</title>
<g id="a_Node000008"><a xlink:href="group__ModuleExecutors.html#gaa356f7897fc875da426df1cf3c9c5b99" target="_top" xlink:title=" ">
<polygon fill="white" stroke="#666666" points="388,-238 239,-238 239,-219 388,-219 388,-238"/>
<text text-anchor="middle" x="313.5" y="-226" font-family="Helvetica,sans-Serif" font-size="10.00">execute_extract_command</text>
</a>
</g>
</g>
<!-- Node7&#45;&gt;Node8 -->
<g id="edge10_Node000007_Node000008" class="edge">
<title>Node7&#45;&gt;Node8</title>
<g id="a_edge10_Node000007_Node000008"><a xlink:title=" ">
<path fill="none" stroke="#63b8ff" d="M423.68,-225.62C411.86,-225.93 399.73,-226.25 388.05,-226.56"/>
<polygon fill="#63b8ff" stroke="#63b8ff" points="424.07,-229.11 433.98,-225.35 423.89,-222.11 424.07,-229.11"/>
</a>
</g>
</g>
<!-- Node8&#45;&gt;Node3 -->
<g id="edge11_Node000008_Node000003" class="edge">
<title>Node8&#45;&gt;Node3</title>
<g id="a_edge11_Node000008_Node000003"><a xlink:title=" ">
<path fill="none" stroke="#63b8ff" d="M228.57,-227.13C182.58,-224.1 125.28,-216.53 77,-198.5 60.08,-192.18 43.17,-179.82 32.54,-171.13"/>
<polygon fill="#63b8ff" stroke="#63b8ff" points="228.61,-230.64 238.81,-227.75 229.03,-223.65 228.61,-230.64"/>
</a>
</g>
</g>
<!-- Node8&#45;&gt;Node4 -->
<g id="edge12_Node000008_Node000004" class="edge">
<title>Node8&#45;&gt;Node4</title>
<g id="a_edge12_Node000008_Node000004"><a xlink:title=" ">
<path fill="none" stroke="#63b8ff" d="M251.21,-216.44C243.65,-214.4 236.09,-212.09 229,-209.5 200.5,-199.09 169.61,-181.84 151.57,-171.1"/>
<polygon fill="#63b8ff" stroke="#63b8ff" points="250.57,-219.88 261.13,-218.96 252.3,-213.1 250.57,-219.88"/>
</a>
</g>
</g>
<!-- Node9&#45;&gt;Node7 -->
<g id="edge29_Node000009_Node000007" class="edge">
<title>Node9&#45;&gt;Node7</title>
<g id="a_edge29_Node000009_Node000007"><a xlink:title=" ">
<path fill="none" stroke="#63b8ff" d="M647.31,-152.6C628.61,-164.72 601.17,-181.75 576,-194.5 561.68,-201.75 545.12,-208.68 531.69,-213.94"/>
<polygon fill="#63b8ff" stroke="#63b8ff" points="649.28,-155.49 655.74,-147.09 645.45,-149.64 649.28,-155.49"/>
</a>
</g>
</g>
<!-- Node10 -->
<g id="Node000010" class="node">
<title>Node10</title>
<g id="a_Node000010"><a xlink:href="group__ModuleExecutors.html#ga5f1a9bdbc166546e200c5bbb2aa5db30" target="_top" xlink:title=" ">
<polygon fill="white" stroke="#666666" points="393.5,-19 233.5,-19 233.5,0 393.5,0 393.5,-19"/>
<text text-anchor="middle" x="313.5" y="-7" font-family="Helvetica,sans-Serif" font-size="10.00">execute_check_all_command</text>
</a>
</g>
</g>
<!-- Node9&#45;&gt;Node10 -->
<g id="edge14_Node000009_Node000010" class="edge">
<title>Node9&#45;&gt;Node10</title>
<g id="a_edge14_Node000009_Node000010"><a xlink:title=" ">
<path fill="none" stroke="#63b8ff" d="M653.62,-120.94C636.01,-104.12 606.4,-78.58 576,-64.5 518.12,-37.69 446.98,-23.81 393.51,-16.71"/>
<polygon fill="#63b8ff" stroke="#63b8ff" points="651.24,-123.5 660.84,-127.99 656.13,-118.5 651.24,-123.5"/>
</a>
</g>
</g>
<!-- Node11 -->
<g id="Node000011" class="node">
<title>Node11</title>
<g id="a_Node000011"><a xlink:href="group__ModuleExecutors.html#ga97d4d0bad6dab32f1d5b92d4ea09c80b" target="_top" xlink:title=" ">
<polygon fill="white" stroke="#666666" points="372.5,-200.5 254.5,-200.5 254.5,-170.5 372.5,-170.5 372.5,-200.5"/>
<text text-anchor="start" x="262.5" y="-188.5" font-family="Helvetica,sans-Serif" font-size="10.00">execute_check_done</text>
<text text-anchor="middle" x="313.5" y="-177.5" font-family="Helvetica,sans-Serif" font-size="10.00">_command</text>
</a>
</g>
</g>
<!-- Node9&#45;&gt;Node11 -->
<g id="edge17_Node000009_Node000011" class="edge">
<title>Node9&#45;&gt;Node11</title>
<g id="a_edge17_Node000009_Node000011"><a xlink:title=" ">
<path fill="none" stroke="#63b8ff" d="M603.44,-147.57C594.23,-148.92 584.88,-150.26 576,-151.5 506.17,-161.24 425.73,-171.56 372.7,-178.25"/>
<polygon fill="#63b8ff" stroke="#63b8ff" points="603.97,-151.03 613.36,-146.11 602.96,-144.1 603.97,-151.03"/>
</a>
</g>
</g>
<!-- Node12 -->
<g id="Node000012" class="node">
<title>Node12</title>
<g id="a_Node000012"><a xlink:href="group__ModuleExecutors.html#ga530afea0ae66ae1aef943507742b3125" target="_top" xlink:title=" ">
<polygon fill="white" stroke="#666666" points="374.5,-152.5 252.5,-152.5 252.5,-122.5 374.5,-122.5 374.5,-152.5"/>
<text text-anchor="start" x="260.5" y="-140.5" font-family="Helvetica,sans-Serif" font-size="10.00">execute_check_errors</text>
<text text-anchor="middle" x="313.5" y="-129.5" font-family="Helvetica,sans-Serif" font-size="10.00">_command</text>
</a>
</g>
</g>
<!-- Node9&#45;&gt;Node12 -->
<g id="edge20_Node000009_Node000012" class="edge">
<title>Node9&#45;&gt;Node12</title>
<g id="a_edge20_Node000009_Node000012"><a xlink:title=" ">
<path fill="none" stroke="#63b8ff" d="M603.02,-137.5C537.26,-137.5 437.86,-137.5 374.58,-137.5"/>
<polygon fill="#63b8ff" stroke="#63b8ff" points="603.28,-141 613.28,-137.5 603.28,-134 603.28,-141"/>
</a>
</g>
</g>
<!-- Node13 -->
<g id="Node000013" class="node">
<title>Node13</title>
<g id="a_Node000013"><a xlink:href="group__ModuleExecutors.html#ga4f5c061099b04712ebc615b32108fdd5" target="_top" xlink:title=" ">
<polygon fill="white" stroke="#666666" points="385,-104.5 242,-104.5 242,-74.5 385,-74.5 385,-104.5"/>
<text text-anchor="start" x="250" y="-92.5" font-family="Helvetica,sans-Serif" font-size="10.00">execute_check_imaginary</text>
<text text-anchor="middle" x="313.5" y="-81.5" font-family="Helvetica,sans-Serif" font-size="10.00">_command</text>
</a>
</g>
</g>
<!-- Node9&#45;&gt;Node13 -->
<g id="edge23_Node000009_Node000013" class="edge">
<title>Node9&#45;&gt;Node13</title>
<g id="a_edge23_Node000009_Node000013"><a xlink:title=" ">
<path fill="none" stroke="#63b8ff" d="M603.18,-128.48C540.95,-120.08 448.51,-107.59 385.1,-99.03"/>
<polygon fill="#63b8ff" stroke="#63b8ff" points="602.9,-131.97 613.28,-129.84 603.84,-125.03 602.9,-131.97"/>
</a>
</g>
</g>
<!-- Node14 -->
<g id="Node000014" class="node">
<title>Node14</title>
<g id="a_Node000014"><a xlink:href="group__ModuleExecutors.html#ga02765a7766f40fab78024f30a1b3f9ff" target="_top" xlink:title=" ">
<polygon fill="white" stroke="#666666" points="398,-56 229,-56 229,-37 398,-37 398,-56"/>
<text text-anchor="middle" x="313.5" y="-44" font-family="Helvetica,sans-Serif" font-size="10.00">execute_check_pcm_command</text>
</a>
</g>
</g>
<!-- Node9&#45;&gt;Node14 -->
<g id="edge26_Node000009_Node000014" class="edge">
<title>Node9&#45;&gt;Node14</title>
<g id="a_edge26_Node000009_Node000014"><a xlink:title=" ">
<path fill="none" stroke="#63b8ff" d="M638.48,-123.99C620.43,-116.62 597.22,-107.75 576,-101.5 507.25,-81.24 426.23,-65.4 372.8,-56.03"/>
<polygon fill="#63b8ff" stroke="#63b8ff" points="637.35,-127.31 647.93,-127.91 640.03,-120.85 637.35,-127.31"/>
</a>
</g>
</g>
<!-- Node10&#45;&gt;Node3 -->
<g id="edge15_Node000010_Node000003" class="edge">
<title>Node10&#45;&gt;Node3</title>
<g id="a_edge15_Node000010_Node000003"><a xlink:title=" ">
<path fill="none" stroke="#63b8ff" d="M223.5,-8.35C175.94,-11.93 118.75,-23.38 77,-54.5 43.44,-79.51 28.44,-130.75 23.49,-151.97"/>
<polygon fill="#63b8ff" stroke="#63b8ff" points="223.74,-11.85 233.49,-7.71 223.29,-4.86 223.74,-11.85"/>
</a>
</g>
</g>
<!-- Node10&#45;&gt;Node4 -->
<g id="edge16_Node000010_Node000004" class="edge">
<title>Node10&#45;&gt;Node4</title>
<g id="a_edge16_Node000010_Node000004"><a xlink:title=" ">
<path fill="none" stroke="#63b8ff" d="M236.17,-23.28C233.69,-24.57 231.29,-25.97 229,-27.5 180.47,-59.87 149.82,-126.91 139.7,-151.87"/>
<polygon fill="#63b8ff" stroke="#63b8ff" points="237.75,-26.41 245.44,-19.12 234.89,-20.02 237.75,-26.41"/>
</a>
</g>
</g>
<!-- Node11&#45;&gt;Node3 -->
<g id="edge18_Node000011_Node000003" class="edge">
<title>Node11&#45;&gt;Node3</title>
<g id="a_edge18_Node000011_Node000003"><a xlink:title=" ">
<path fill="none" stroke="#63b8ff" d="M244.3,-189.56C196.98,-191.04 132.71,-190.38 77,-180.5 64.77,-178.33 51.59,-173.91 41.14,-169.88"/>
<polygon fill="#63b8ff" stroke="#63b8ff" points="244.56,-193.06 254.43,-189.21 244.31,-186.06 244.56,-193.06"/>
</a>
</g>
</g>
<!-- Node11&#45;&gt;Node4 -->
<g id="edge19_Node000011_Node000004" class="edge">
<title>Node11&#45;&gt;Node4</title>
<g id="a_edge19_Node000011_Node000004"><a xlink:title=" ">
<path fill="none" stroke="#63b8ff" d="M243.89,-176.17C227.07,-173.88 209.23,-171.46 193.02,-169.25"/>
<polygon fill="#63b8ff" stroke="#63b8ff" points="243.84,-179.7 254.22,-177.57 244.78,-172.76 243.84,-179.7"/>
</a>
</g>
</g>
<!-- Node12&#45;&gt;Node3 -->
<g id="edge21_Node000012_Node000003" class="edge">
<title>Node12&#45;&gt;Node3</title>
<g id="a_edge21_Node000012_Node000003"><a xlink:title=" ">
<path fill="none" stroke="#63b8ff" d="M241.93,-134.03C194.88,-133.01 131.83,-134.11 77,-143.5 64.82,-145.59 51.64,-149.77 41.19,-153.58"/>
<polygon fill="#63b8ff" stroke="#63b8ff" points="241.94,-137.53 252.02,-134.29 242.12,-130.54 241.94,-137.53"/>
</a>
</g>
</g>
<!-- Node12&#45;&gt;Node4 -->
<g id="edge22_Node000012_Node000004" class="edge">
<title>Node12&#45;&gt;Node4</title>
<g id="a_edge22_Node000012_Node000004"><a xlink:title=" ">
<path fill="none" stroke="#63b8ff" d="M242.27,-147.05C226.02,-149.26 208.92,-151.59 193.3,-153.71"/>
<polygon fill="#63b8ff" stroke="#63b8ff" points="242.82,-150.51 252.25,-145.69 241.87,-143.57 242.82,-150.51"/>
</a>
</g>
</g>
<!-- Node13&#45;&gt;Node3 -->
<g id="edge24_Node000013_Node000003" class="edge">
<title>Node13&#45;&gt;Node3</title>
<g id="a_edge24_Node000013_Node000003"><a xlink:title=" ">
<path fill="none" stroke="#63b8ff" d="M231.81,-96.06C185.48,-101.57 126.8,-111.57 77,-129.5 61.72,-135 45.82,-144.64 34.97,-151.9"/>
<polygon fill="#63b8ff" stroke="#63b8ff" points="232.26,-99.53 241.8,-94.92 231.47,-92.58 232.26,-99.53"/>
</a>
</g>
</g>
<!-- Node13&#45;&gt;Node4 -->
<g id="edge25_Node000013_Node000004" class="edge">
<title>Node13&#45;&gt;Node4</title>
<g id="a_edge25_Node000013_Node000004"><a xlink:title=" ">
<path fill="none" stroke="#63b8ff" d="M244.78,-107.73C239.4,-109.55 234.08,-111.48 229,-113.5 201.14,-124.57 170.56,-141.31 152.34,-151.81"/>
<polygon fill="#63b8ff" stroke="#63b8ff" points="246.08,-110.99 254.51,-104.57 243.91,-104.33 246.08,-110.99"/>
</a>
</g>
</g>
<!-- Node14&#45;&gt;Node3 -->
<g id="edge27_Node000014_Node000003" class="edge">
<title>Node14&#45;&gt;Node3</title>
<g id="a_edge27_Node000014_Node000003"><a xlink:title=" ">
<path fill="none" stroke="#63b8ff" d="M218.62,-52.96C173.31,-59.42 119.66,-72.23 77,-97.5 53.97,-111.14 35.63,-137.74 26.96,-151.97"/>
<polygon fill="#63b8ff" stroke="#63b8ff" points="219.3,-56.4 228.75,-51.6 218.37,-49.46 219.3,-56.4"/>
</a>
</g>
</g>
<!-- Node14&#45;&gt;Node4 -->
<g id="edge28_Node000014_Node000004" class="edge">
<title>Node14&#45;&gt;Node4</title>
<g id="a_edge28_Node000014_Node000004"><a xlink:title=" ">
<path fill="none" stroke="#63b8ff" d="M241.53,-59.56C237.19,-61.29 232.97,-63.27 229,-65.5 189.36,-87.8 155.9,-132.23 142.4,-151.83"/>
<polygon fill="#63b8ff" stroke="#63b8ff" points="242.97,-62.76 251.21,-56.11 240.61,-56.17 242.97,-62.76"/>
</a>
</g>
</g>
</g>
</svg>

<g id="navigator" transform="translate(0 0)" fill="#404254">
  <rect fill="#f2f5e9" fill-opacity="0.5" stroke="#606060" stroke-width=".5" x="0" y="0" width="60" height="60"/>
  <use id="zoomplus" xlink:href="#zoomPlus" x="17" y="9" onmousedown="handleZoom(evt,'in')"/>
  <use id="zoomminus" xlink:href="#zoomMin" x="42" y="9" onmousedown="handleZoom(evt,'out')"/>
  <use id="reset" xlink:href="#resetDef" x="30" y="36" onmousedown="handleReset()"/>
   <use id="arrowup" xlink:href="#arrowUp" x="0" y="0" onmousedown="handlePan(0,-1)"/>
  <use id="arrowright" xlink:href="#arrowRight" x="0" y="0" onmousedown="handlePan(1,0)"/>
  <use id="arrowdown" xlink:href="#arrowDown" x="0" y="0" onmousedown="handlePan(0,1)"/>
  <use id="arrowleft" xlink:href="#arrowLeft" x="0" y="0" onmousedown="handlePan(-1,0)"/>
</g>
<svg viewBox="0 0 15 15" width="100%" height="30px" preserveAspectRatio="xMaxYMin meet">
 <g id="arrow_out" transform="scale(0.3 0.3)">
  <a xlink:href="group__UtilityFunctions_gad9472b23817cf18d4ae5c857afb94c5f_icgraph_org.svg" target="_base">
   <rect id="button" ry="5" rx="5" y="6" x="6" height="38" width="38"
        fill="#f2f5e9" fill-opacity="0.5" stroke="#606060" stroke-width="1.0"/>
   <path id="arrow"
     d="M 11.500037,31.436501 C 11.940474,20.09759 22.043105,11.32322 32.158766,21.979434 L 37.068811,17.246167 C 37.068811,17.246167 37.088388,32 37.088388,32 L 22.160133,31.978069 C 22.160133,31.978069 26.997745,27.140456 26.997745,27.140456 C 18.528582,18.264221 13.291696,25.230495 11.500037,31.436501 z"
     style="fill:#404040;"/>
  </a>
 </g>
</svg>

<style type='text/css'>
<![CDATA[
[data-mouse-over-selected='false'] { opacity: 0.7; }
[data-mouse-over-selected='true']  { opacity: 1.0; }
]]>
</style>
<script type="application/ecmascript"><![CDATA[
document.addEventListener('DOMContentLoaded', (event) => {
  highlightEdges();
  highlightAdjacentNodes();
});
]]></script>
</svg>
