<?xml version="1.0" encoding="UTF-8" standalone="no"?>
<!DOCTYPE svg PUBLIC "-//W3C//DTD SVG 1.1//EN"
 "http://www.w3.org/Graphics/SVG/1.1/DTD/svg11.dtd">
<!-- Generated by graphviz version 2.43.0 (0)
 -->
<!-- Title: JobChecker::check_pcm_directly Pages: 1 -->
<svg width="780pt" height="196pt"
 viewBox="0.00 0.00 780.00 195.50" xmlns="http://www.w3.org/2000/svg" xmlns:xlink="http://www.w3.org/1999/xlink">
<g id="graph0" class="graph" transform="scale(1 1) rotate(0) translate(4 191.5)">
<title>JobChecker::check_pcm_directly</title>
<!-- Node1 -->
<g id="Node000001" class="node">
<title>Node1</title>
<g id="a_Node000001"><a xlink:title="Direct PCM failure checking without other status considerations.">
<polygon fill="#999999" stroke="#666666" points="131,-139.5 0,-139.5 0,-109.5 131,-109.5 131,-139.5"/>
<text text-anchor="start" x="8" y="-127.5" font-family="Helvetica,sans-Serif" font-size="10.00">JobChecker::check_pcm</text>
<text text-anchor="middle" x="65.5" y="-116.5" font-family="Helvetica,sans-Serif" font-size="10.00">_directly</text>
</a>
</g>
</g>
<!-- Node2 -->
<g id="Node000002" class="node">
<title>Node2</title>
<g id="a_Node000002"><a xlink:href="group__ContentAnalysis.html#gae0492ada0f2903cf25356808548e8696" target="_top" xlink:title="Check if log file shows PCM convergence failure.">
<polygon fill="white" stroke="#666666" points="299.5,-187.5 168.5,-187.5 168.5,-157.5 299.5,-157.5 299.5,-187.5"/>
<text text-anchor="start" x="176.5" y="-175.5" font-family="Helvetica,sans-Serif" font-size="10.00">JobChecker::check_pcm</text>
<text text-anchor="middle" x="234" y="-164.5" font-family="Helvetica,sans-Serif" font-size="10.00">_failure</text>
</a>
</g>
</g>
<!-- Node1&#45;&gt;Node2 -->
<g id="edge1_Node000001_Node000002" class="edge">
<title>Node1&#45;&gt;Node2</title>
<g id="a_edge1_Node000001_Node000002"><a xlink:title=" ">
<path fill="none" stroke="#63b8ff" d="M118.72,-139.56C135.31,-144.34 153.81,-149.67 171.01,-154.63"/>
<polygon fill="#63b8ff" stroke="#63b8ff" points="170.38,-158.09 180.96,-157.5 172.32,-151.36 170.38,-158.09"/>
</a>
</g>
</g>
<!-- Node3 -->
<g id="Node000003" class="node">
<title>Node3</title>
<g id="a_Node000003"><a xlink:href="group__FileOperations.html#ga087bdeb612f939d045ab914d35a6b0de" target="_top" xlink:title="Find all files related to a Gaussian calculation.">
<polygon fill="white" stroke="#666666" points="301,-139.5 167,-139.5 167,-109.5 301,-109.5 301,-139.5"/>
<text text-anchor="start" x="175" y="-127.5" font-family="Helvetica,sans-Serif" font-size="10.00">JobChecker::find_related</text>
<text text-anchor="middle" x="234" y="-116.5" font-family="Helvetica,sans-Serif" font-size="10.00">_files</text>
</a>
</g>
</g>
<!-- Node1&#45;&gt;Node3 -->
<g id="edge2_Node000001_Node000003" class="edge">
<title>Node1&#45;&gt;Node3</title>
<g id="a_edge2_Node000001_Node000003"><a xlink:title=" ">
<path fill="none" stroke="#63b8ff" d="M131.35,-124.5C139.66,-124.5 148.23,-124.5 156.7,-124.5"/>
<polygon fill="#63b8ff" stroke="#63b8ff" points="156.96,-128 166.96,-124.5 156.96,-121 156.96,-128"/>
</a>
</g>
</g>
<!-- Node11 -->
<g id="Node000011" class="node">
<title>Node11</title>
<g id="a_Node000011"><a xlink:href="group__FileReading.html#ga4698c518536430228f3ef47f9c89b552" target="_top" xlink:title=" ">
<polygon fill="white" stroke="#666666" points="293.5,-91.5 174.5,-91.5 174.5,-61.5 293.5,-61.5 293.5,-91.5"/>
<text text-anchor="start" x="182.5" y="-79.5" font-family="Helvetica,sans-Serif" font-size="10.00">JobChecker::read_file</text>
<text text-anchor="middle" x="234" y="-68.5" font-family="Helvetica,sans-Serif" font-size="10.00">_unified</text>
</a>
</g>
</g>
<!-- Node1&#45;&gt;Node11 -->
<g id="edge11_Node000001_Node000011" class="edge">
<title>Node1&#45;&gt;Node11</title>
<g id="a_edge11_Node000001_Node000011"><a xlink:title=" ">
<path fill="none" stroke="#63b8ff" d="M118.72,-109.44C135.31,-104.66 153.81,-99.33 171.01,-94.37"/>
<polygon fill="#63b8ff" stroke="#63b8ff" points="172.32,-97.64 180.96,-91.5 170.38,-90.91 172.32,-97.64"/>
</a>
</g>
</g>
<!-- Node4 -->
<g id="Node000004" class="node">
<title>Node4</title>
<g id="a_Node000004"><a xlink:href="group__UtilityFunctions.html#ga5aea3864b0d315c8680f9611a9f8f689" target="_top" xlink:title="Extract base filename without extension from log file path.">
<polygon fill="white" stroke="#666666" points="449.5,-187.5 338.5,-187.5 338.5,-157.5 449.5,-157.5 449.5,-187.5"/>
<text text-anchor="start" x="346.5" y="-175.5" font-family="Helvetica,sans-Serif" font-size="10.00">JobChecker::extract</text>
<text text-anchor="middle" x="394" y="-164.5" font-family="Helvetica,sans-Serif" font-size="10.00">_base_name</text>
</a>
</g>
</g>
<!-- Node3&#45;&gt;Node4 -->
<g id="edge3_Node000003_Node000004" class="edge">
<title>Node3&#45;&gt;Node4</title>
<g id="a_edge3_Node000003_Node000004"><a xlink:title=" ">
<path fill="none" stroke="#63b8ff" d="M284.56,-139.56C300.15,-144.29 317.52,-149.57 333.71,-154.49"/>
<polygon fill="#63b8ff" stroke="#63b8ff" points="333.03,-157.94 343.62,-157.5 335.07,-151.24 333.03,-157.94"/>
</a>
</g>
</g>
<!-- Node5 -->
<g id="Node000005" class="node">
<title>Node5</title>
<g id="a_Node000005"><a xlink:href="group__JobFileUtils.html#ga93b2603d1ed51dcb6ad00bb6c48a434b" target="_top" xlink:title="Check if a file exists and is accessible.">
<polygon fill="white" stroke="#666666" points="451,-139.5 337,-139.5 337,-109.5 451,-109.5 451,-139.5"/>
<text text-anchor="start" x="345" y="-127.5" font-family="Helvetica,sans-Serif" font-size="10.00">JobCheckerUtils::file</text>
<text text-anchor="middle" x="394" y="-116.5" font-family="Helvetica,sans-Serif" font-size="10.00">_exists</text>
</a>
</g>
</g>
<!-- Node3&#45;&gt;Node5 -->
<g id="edge4_Node000003_Node000005" class="edge">
<title>Node3&#45;&gt;Node5</title>
<g id="a_edge4_Node000003_Node000005"><a xlink:title=" ">
<path fill="none" stroke="#63b8ff" d="M301.09,-124.5C309.51,-124.5 318.12,-124.5 326.55,-124.5"/>
<polygon fill="#63b8ff" stroke="#63b8ff" points="326.7,-128 336.7,-124.5 326.7,-121 326.7,-128"/>
</a>
</g>
</g>
<!-- Node6 -->
<g id="Node000006" class="node">
<title>Node6</title>
<g id="a_Node000006"><a xlink:href="group__ConfigExtensions.html#ga3fd3f42f724661c7ea72845729e0141f" target="_top" xlink:title="Get list of supported input file extensions.">
<polygon fill="white" stroke="#666666" points="450,-91.5 338,-91.5 338,-61.5 450,-61.5 450,-91.5"/>
<text text-anchor="start" x="346" y="-79.5" font-family="Helvetica,sans-Serif" font-size="10.00">ConfigManager::get</text>
<text text-anchor="middle" x="394" y="-68.5" font-family="Helvetica,sans-Serif" font-size="10.00">_input_extensions</text>
</a>
</g>
</g>
<!-- Node3&#45;&gt;Node6 -->
<g id="edge5_Node000003_Node000006" class="edge">
<title>Node3&#45;&gt;Node6</title>
<g id="a_edge5_Node000003_Node000006"><a xlink:title=" ">
<path fill="none" stroke="#63b8ff" d="M284.56,-109.44C300.15,-104.71 317.52,-99.43 333.71,-94.51"/>
<polygon fill="#63b8ff" stroke="#63b8ff" points="335.07,-97.76 343.62,-91.5 333.03,-91.06 335.07,-97.76"/>
</a>
</g>
</g>
<!-- Node7 -->
<g id="Node000007" class="node">
<title>Node7</title>
<g id="a_Node000007"><a xlink:href="group__ConfigInternals.html#ga5e387d61b1f34873cd3ab047242b2aad" target="_top" xlink:title="Template method for type&#45;safe value conversion.">
<polygon fill="white" stroke="#666666" points="772,-136.5 639,-136.5 639,-106.5 772,-106.5 772,-136.5"/>
<text text-anchor="start" x="647" y="-124.5" font-family="Helvetica,sans-Serif" font-size="10.00">ConfigManager::convert</text>
<text text-anchor="middle" x="705.5" y="-113.5" font-family="Helvetica,sans-Serif" font-size="10.00">_value</text>
</a>
</g>
</g>
<!-- Node6&#45;&gt;Node7 -->
<g id="edge6_Node000006_Node000007" class="edge">
<title>Node6&#45;&gt;Node7</title>
<g id="a_edge6_Node000006_Node000007"><a xlink:title=" ">
<path fill="none" stroke="#63b8ff" d="M432.8,-91.58C438.98,-94.36 445.23,-97.38 451,-100.5 467.91,-109.66 468.6,-118.93 487,-124.5 532.67,-138.33 586.25,-137.77 628.81,-133.67"/>
<polygon fill="#63b8ff" stroke="#63b8ff" points="629.24,-137.14 638.82,-132.62 628.51,-130.18 629.24,-137.14"/>
</a>
</g>
</g>
<!-- Node8 -->
<g id="Node000008" class="node">
<title>Node8</title>
<g id="a_Node000008"><a xlink:href="group__ConfigValueGetters.html#gaa25cec73939b4d9bd7419f553faae0cb" target="_top" xlink:title="Get string configuration value.">
<polygon fill="white" stroke="#666666" points="601,-115.5 489,-115.5 489,-85.5 601,-85.5 601,-115.5"/>
<text text-anchor="start" x="497" y="-103.5" font-family="Helvetica,sans-Serif" font-size="10.00">ConfigManager::get</text>
<text text-anchor="middle" x="545" y="-92.5" font-family="Helvetica,sans-Serif" font-size="10.00">_string</text>
</a>
</g>
</g>
<!-- Node6&#45;&gt;Node8 -->
<g id="edge7_Node000006_Node000008" class="edge">
<title>Node6&#45;&gt;Node8</title>
<g id="a_edge7_Node000006_Node000008"><a xlink:title=" ">
<path fill="none" stroke="#63b8ff" d="M450.06,-85.37C459.41,-86.87 469.2,-88.45 478.79,-90"/>
<polygon fill="#63b8ff" stroke="#63b8ff" points="478.24,-93.45 488.67,-91.59 479.35,-86.54 478.24,-93.45"/>
</a>
</g>
</g>
<!-- Node9 -->
<g id="Node000009" class="node">
<title>Node9</title>
<g id="a_Node000009"><a xlink:href="group__ConfigStringUtils.html#ga2f21572e2bdf739cbd8c75720728196c" target="_top" xlink:title="Split string into vector using delimiter.">
<polygon fill="white" stroke="#666666" points="593.5,-67.5 496.5,-67.5 496.5,-37.5 593.5,-37.5 593.5,-67.5"/>
<text text-anchor="start" x="504.5" y="-55.5" font-family="Helvetica,sans-Serif" font-size="10.00">ConfigUtils::split</text>
<text text-anchor="middle" x="545" y="-44.5" font-family="Helvetica,sans-Serif" font-size="10.00">_string</text>
</a>
</g>
</g>
<!-- Node6&#45;&gt;Node9 -->
<g id="edge9_Node000006_Node000009" class="edge">
<title>Node6&#45;&gt;Node9</title>
<g id="a_edge9_Node000006_Node000009"><a xlink:title=" ">
<path fill="none" stroke="#63b8ff" d="M450.06,-67.63C461.73,-65.75 474.08,-63.76 485.86,-61.86"/>
<polygon fill="#63b8ff" stroke="#63b8ff" points="486.72,-65.27 496.03,-60.23 485.6,-58.36 486.72,-65.27"/>
</a>
</g>
</g>
<!-- Node10 -->
<g id="Node000010" class="node">
<title>Node10</title>
<g id="a_Node000010"><a xlink:href="group__ConfigInternals.html#ga24e6150f47d12f03a5864631c6d846c5" target="_top" xlink:title="Remove leading and trailing whitespace from string.">
<polygon fill="white" stroke="#666666" points="603,-19 487,-19 487,0 603,0 603,-19"/>
<text text-anchor="middle" x="545" y="-7" font-family="Helvetica,sans-Serif" font-size="10.00">ConfigManager::trim</text>
</a>
</g>
</g>
<!-- Node6&#45;&gt;Node10 -->
<g id="edge10_Node000006_Node000010" class="edge">
<title>Node6&#45;&gt;Node10</title>
<g id="a_edge10_Node000006_Node000010"><a xlink:title=" ">
<path fill="none" stroke="#63b8ff" d="M421.03,-61.5C439.17,-51.4 464.11,-38.21 487,-28.5 492.04,-26.36 497.41,-24.3 502.77,-22.38"/>
<polygon fill="#63b8ff" stroke="#63b8ff" points="504,-25.65 512.31,-19.07 501.71,-19.04 504,-25.65"/>
</a>
</g>
</g>
<!-- Node8&#45;&gt;Node7 -->
<g id="edge8_Node000008_Node000007" class="edge">
<title>Node8&#45;&gt;Node7</title>
<g id="a_edge8_Node000008_Node000007"><a xlink:title=" ">
<path fill="none" stroke="#63b8ff" d="M601.44,-107.84C610.29,-109.02 619.57,-110.25 628.8,-111.47"/>
<polygon fill="#63b8ff" stroke="#63b8ff" points="628.38,-114.95 638.76,-112.79 629.3,-108.01 628.38,-114.95"/>
</a>
</g>
</g>
</g>
</svg>
