<?xml version="1.0" encoding="UTF-8" standalone="no"?>
<!DOCTYPE svg PUBLIC "-//W3C//DTD SVG 1.1//EN"
 "http://www.w3.org/Graphics/SVG/1.1/DTD/svg11.dtd">
<!-- Generated by graphviz version 2.43.0 (0)
 -->
<!-- Title: JobChecker::check_normal_termination Pages: 1 -->
<svg width="323pt" height="86pt"
 viewBox="0.00 0.00 323.00 86.00" xmlns="http://www.w3.org/2000/svg" xmlns:xlink="http://www.w3.org/1999/xlink">
<g id="graph0" class="graph" transform="scale(1 1) rotate(0) translate(4 82)">
<title>JobChecker::check_normal_termination</title>
<!-- Node1 -->
<g id="Node000001" class="node">
<title>Node1</title>
<g id="a_Node000001"><a xlink:title="Check if log file shows normal termination.">
<polygon fill="#999999" stroke="#666666" points="315,-54 170,-54 170,-24 315,-24 315,-54"/>
<text text-anchor="start" x="178" y="-42" font-family="Helvetica,sans-Serif" font-size="10.00">JobChecker::check_normal</text>
<text text-anchor="middle" x="242.5" y="-31" font-family="Helvetica,sans-Serif" font-size="10.00">_termination</text>
</a>
</g>
</g>
<!-- Node2 -->
<g id="Node000002" class="node">
<title>Node2</title>
<g id="a_Node000002"><a xlink:href="group__IndependentChecking.html#gaa8965610d902e28ebf4946e0ba1f659d" target="_top" xlink:title="Direct error checking without other status considerations.">
<polygon fill="white" stroke="#666666" points="134,-78 0,-78 0,-48 134,-48 134,-78"/>
<text text-anchor="start" x="8" y="-66" font-family="Helvetica,sans-Serif" font-size="10.00">JobChecker::check_error</text>
<text text-anchor="middle" x="67" y="-55" font-family="Helvetica,sans-Serif" font-size="10.00">_directly</text>
</a>
</g>
</g>
<!-- Node1&#45;&gt;Node2 -->
<g id="edge1_Node000001_Node000002" class="edge">
<title>Node1&#45;&gt;Node2</title>
<g id="a_edge1_Node000001_Node000002"><a xlink:title=" ">
<path fill="none" stroke="#63b8ff" d="M159.85,-50.29C151.23,-51.49 142.54,-52.69 134.12,-53.85"/>
<polygon fill="#63b8ff" stroke="#63b8ff" points="160.5,-53.74 169.93,-48.9 159.54,-46.8 160.5,-53.74"/>
</a>
</g>
</g>
<!-- Node3 -->
<g id="Node000003" class="node">
<title>Node3</title>
<g id="a_Node000003"><a xlink:href="group__IndividualChecking.html#gacaf7b75f3c058b5648c894ee21eadf5d" target="_top" xlink:title="Determine the status of a single Gaussian job.">
<polygon fill="white" stroke="#666666" points="129.5,-30 4.5,-30 4.5,0 129.5,0 129.5,-30"/>
<text text-anchor="start" x="12.5" y="-18" font-family="Helvetica,sans-Serif" font-size="10.00">JobChecker::check_job</text>
<text text-anchor="middle" x="67" y="-7" font-family="Helvetica,sans-Serif" font-size="10.00">_status</text>
</a>
</g>
</g>
<!-- Node1&#45;&gt;Node3 -->
<g id="edge2_Node000001_Node000003" class="edge">
<title>Node1&#45;&gt;Node3</title>
<g id="a_edge2_Node000001_Node000003"><a xlink:title=" ">
<path fill="none" stroke="#63b8ff" d="M159.85,-27.7C149.71,-26.3 139.48,-24.89 129.72,-23.54"/>
<polygon fill="#63b8ff" stroke="#63b8ff" points="159.54,-31.2 169.93,-29.1 160.5,-24.26 159.54,-31.2"/>
</a>
</g>
</g>
</g>
</svg>
