<?xml version="1.0" encoding="UTF-8" standalone="no"?>
<!DOCTYPE svg PUBLIC "-//W3C//DTD SVG 1.1//EN"
 "http://www.w3.org/Graphics/SVG/1.1/DTD/svg11.dtd">
<!-- Generated by graphviz version 2.43.0 (0)
 -->
<!-- Title: findLogFiles Pages: 1 -->
<!--zoomable 513 -->

<svg id="main" version="1.1" xmlns="http://www.w3.org/2000/svg" xmlns:xlink="http://www.w3.org/1999/xlink" xml:space="preserve" onload="init(evt)">
<style type="text/css"><![CDATA[
.node, .edge {opacity: 0.7;}
.node.selected, .edge.selected {opacity: 1;}
.edge:hover path { stroke: red; }
.edge:hover polygon { stroke: red; fill: red; }
]]></style>

<defs>
  <circle id="rim" cx="0" cy="0" r="7"/>
  <circle id="rim2" cx="0" cy="0" r="3.5"/>
  <g id="zoomPlus">
    <use xlink:href="#rim" fill="#404040"><set attributeName="fill" to="#808080" begin="zoomplus.mouseover" end="zoomplus.mouseout"/></use>
    <path d="M-4,0h8M0,-4v8" fill="none" stroke="white" stroke-width="1.5" pointer-events="none"/>
  </g>
  <g id="zoomMin">
    <use xlink:href="#rim" fill="#404040"><set attributeName="fill" to="#808080" begin="zoomminus.mouseover" end="zoomminus.mouseout"/></use>
    <path d="M-4,0h8" fill="none" stroke="white" stroke-width="1.5" pointer-events="none"/>
  </g>
  <g id="arrowUp" transform="translate(30 24)">
    <use xlink:href="#rim"/>
    <path pointer-events="none" fill="none" stroke="white" stroke-width="1.5" d="M0,-3.0v7 M-2.5,-0.5L0,-3.0L2.5,-0.5"/>
  </g>
  <g id="arrowRight" transform="rotate(90) translate(36 -43)">
    <use xlink:href="#rim"/>
    <path pointer-events="none" fill="none" stroke="white" stroke-width="1.5" d="M0,-3.0v7 M-2.5,-0.5L0,-3.0L2.5,-0.5"/>
  </g>
  <g id="arrowDown" transform="rotate(180) translate(-30 -48)">
    <use xlink:href="#rim"/>
    <path pointer-events="none" fill="none" stroke="white" stroke-width="1.5" d="M0,-3.0v7 M-2.5,-0.5L0,-3.0L2.5,-0.5"/>
  </g>
  <g id="arrowLeft" transform="rotate(270) translate(-36 17)">
    <use xlink:href="#rim"/>
    <path pointer-events="none" fill="none" stroke="white" stroke-width="1.5" d="M0,-3.0v7 M-2.5,-0.5L0,-3.0L2.5,-0.5"/>
  </g>
  <g id="resetDef">
    <use xlink:href="#rim2" fill="#404040"><set attributeName="fill" to="#808080" begin="reset.mouseover" end="reset.mouseout"/></use>
  </g>
</defs>
<script type="application/ecmascript">
var viewWidth = 703;
var viewHeight = 513;
var sectionId = 'dynsection-11';
</script>
<script type="application/ecmascript" xlink:href="svg.min.js"/>
<svg id="graph" class="graph">
<g id="viewport">
<title>findLogFiles</title>
<!-- Node1 -->
<g id="Node000001" class="node">
<title>Node1</title>
<g id="a_Node000001"><a xlink:title=" ">
<polygon fill="#999999" stroke="#666666" points="695,-292 621,-292 621,-273 695,-273 695,-292"/>
<text text-anchor="middle" x="658" y="-280" font-family="Helvetica,sans-Serif" font-size="10.00">findLogFiles</text>
</a>
</g>
</g>
<!-- Node2 -->
<g id="Node000002" class="node">
<title>Node2</title>
<g id="a_Node000002"><a xlink:href="group__ModuleExecutors.html#ga5f1a9bdbc166546e200c5bbb2aa5db30" target="_top" xlink:title=" ">
<polygon fill="white" stroke="#666666" points="393.5,-505 233.5,-505 233.5,-486 393.5,-486 393.5,-505"/>
<text text-anchor="middle" x="313.5" y="-493" font-family="Helvetica,sans-Serif" font-size="10.00">execute_check_all_command</text>
</a>
</g>
</g>
<!-- Node1&#45;&gt;Node2 -->
<g id="edge1_Node000001_Node000002" class="edge">
<title>Node1&#45;&gt;Node2</title>
<g id="a_edge1_Node000001_Node000002"><a xlink:title=" ">
<path fill="none" stroke="#63b8ff" d="M652.14,-301.85C643.64,-331.73 623.22,-388.92 585,-420.5 530.99,-465.12 452.35,-483.27 393.76,-490.62"/>
<polygon fill="#63b8ff" stroke="#63b8ff" points="655.53,-302.75 654.74,-292.18 648.77,-300.93 655.53,-302.75"/>
</a>
</g>
</g>
<!-- Node5 -->
<g id="Node000005" class="node">
<title>Node5</title>
<g id="a_Node000005"><a xlink:href="group__ModuleExecutors.html#ga97d4d0bad6dab32f1d5b92d4ea09c80b" target="_top" xlink:title=" ">
<polygon fill="white" stroke="#666666" points="372.5,-467.5 254.5,-467.5 254.5,-437.5 372.5,-437.5 372.5,-467.5"/>
<text text-anchor="start" x="262.5" y="-455.5" font-family="Helvetica,sans-Serif" font-size="10.00">execute_check_done</text>
<text text-anchor="middle" x="313.5" y="-444.5" font-family="Helvetica,sans-Serif" font-size="10.00">_command</text>
</a>
</g>
</g>
<!-- Node1&#45;&gt;Node5 -->
<g id="edge5_Node000001_Node000005" class="edge">
<title>Node1&#45;&gt;Node5</title>
<g id="a_edge5_Node000001_Node000005"><a xlink:title=" ">
<path fill="none" stroke="#63b8ff" d="M647.99,-300.99C636.42,-322.8 614.28,-358.59 585,-378.5 520.48,-422.37 430.74,-440.31 372.64,-447.6"/>
<polygon fill="#63b8ff" stroke="#63b8ff" points="651.12,-302.56 652.55,-292.06 644.89,-299.38 651.12,-302.56"/>
</a>
</g>
</g>
<!-- Node6 -->
<g id="Node000006" class="node">
<title>Node6</title>
<g id="a_Node000006"><a xlink:href="group__ModuleExecutors.html#ga530afea0ae66ae1aef943507742b3125" target="_top" xlink:title=" ">
<polygon fill="white" stroke="#666666" points="374.5,-419.5 252.5,-419.5 252.5,-389.5 374.5,-389.5 374.5,-419.5"/>
<text text-anchor="start" x="260.5" y="-407.5" font-family="Helvetica,sans-Serif" font-size="10.00">execute_check_errors</text>
<text text-anchor="middle" x="313.5" y="-396.5" font-family="Helvetica,sans-Serif" font-size="10.00">_command</text>
</a>
</g>
</g>
<!-- Node1&#45;&gt;Node6 -->
<g id="edge8_Node000001_Node000006" class="edge">
<title>Node1&#45;&gt;Node6</title>
<g id="a_edge8_Node000001_Node000006"><a xlink:title=" ">
<path fill="none" stroke="#63b8ff" d="M641.05,-299.28C627.39,-312.67 606.57,-330.88 585,-341.5 517.3,-374.84 431.28,-390.96 374.65,-398.46"/>
<polygon fill="#63b8ff" stroke="#63b8ff" points="643.66,-301.62 648.21,-292.05 638.68,-296.69 643.66,-301.62"/>
</a>
</g>
</g>
<!-- Node7 -->
<g id="Node000007" class="node">
<title>Node7</title>
<g id="a_Node000007"><a xlink:href="group__ModuleExecutors.html#ga4f5c061099b04712ebc615b32108fdd5" target="_top" xlink:title=" ">
<polygon fill="white" stroke="#666666" points="385,-371.5 242,-371.5 242,-341.5 385,-341.5 385,-371.5"/>
<text text-anchor="start" x="250" y="-359.5" font-family="Helvetica,sans-Serif" font-size="10.00">execute_check_imaginary</text>
<text text-anchor="middle" x="313.5" y="-348.5" font-family="Helvetica,sans-Serif" font-size="10.00">_command</text>
</a>
</g>
</g>
<!-- Node1&#45;&gt;Node7 -->
<g id="edge11_Node000001_Node000007" class="edge">
<title>Node1&#45;&gt;Node7</title>
<g id="a_edge11_Node000001_Node000007"><a xlink:title=" ">
<path fill="none" stroke="#63b8ff" d="M628.86,-296.55C615.8,-302.57 599.9,-309.18 585,-313.5 518.55,-332.76 440.25,-344.02 385.04,-350.15"/>
<polygon fill="#63b8ff" stroke="#63b8ff" points="630.68,-299.56 638.23,-292.12 627.69,-293.23 630.68,-299.56"/>
</a>
</g>
</g>
<!-- Node8 -->
<g id="Node000008" class="node">
<title>Node8</title>
<g id="a_Node000008"><a xlink:href="group__ModuleExecutors.html#ga02765a7766f40fab78024f30a1b3f9ff" target="_top" xlink:title=" ">
<polygon fill="white" stroke="#666666" points="398,-323 229,-323 229,-304 398,-304 398,-323"/>
<text text-anchor="middle" x="313.5" y="-311" font-family="Helvetica,sans-Serif" font-size="10.00">execute_check_pcm_command</text>
</a>
</g>
</g>
<!-- Node1&#45;&gt;Node8 -->
<g id="edge14_Node000001_Node000008" class="edge">
<title>Node1&#45;&gt;Node8</title>
<g id="a_edge14_Node000001_Node000008"><a xlink:title=" ">
<path fill="none" stroke="#63b8ff" d="M610.92,-290.08C602.32,-291.35 593.4,-292.55 585,-293.5 522.53,-300.57 451.66,-305.71 398.13,-309"/>
<polygon fill="#63b8ff" stroke="#63b8ff" points="611.45,-293.54 620.81,-288.59 610.4,-286.62 611.45,-293.54"/>
</a>
</g>
</g>
<!-- Node9 -->
<g id="Node000009" class="node">
<title>Node9</title>
<g id="a_Node000009"><a xlink:href="group__ModuleExecutors.html#gab27343ef2ae55f92b21f39e17f788f4c" target="_top" xlink:title=" ">
<polygon fill="white" stroke="#666666" points="379.5,-285.5 247.5,-285.5 247.5,-255.5 379.5,-255.5 379.5,-285.5"/>
<text text-anchor="start" x="255.5" y="-273.5" font-family="Helvetica,sans-Serif" font-size="10.00">execute_extract_coords</text>
<text text-anchor="middle" x="313.5" y="-262.5" font-family="Helvetica,sans-Serif" font-size="10.00">_command</text>
</a>
</g>
</g>
<!-- Node1&#45;&gt;Node9 -->
<g id="edge17_Node000001_Node000009" class="edge">
<title>Node1&#45;&gt;Node9</title>
<g id="a_edge17_Node000001_Node000009"><a xlink:title=" ">
<path fill="none" stroke="#63b8ff" d="M610.61,-281.95C565.5,-281.29 495.03,-279.97 434,-277.5 416.35,-276.79 397.25,-275.77 379.6,-274.74"/>
<polygon fill="#63b8ff" stroke="#63b8ff" points="610.63,-285.45 620.68,-282.09 610.73,-278.45 610.63,-285.45"/>
</a>
</g>
</g>
<!-- Node10 -->
<g id="Node000010" class="node">
<title>Node10</title>
<g id="a_Node000010"><a xlink:href="group__ModuleExecutors.html#gab1aa2594a8bb3d2789d37593f69cbc5e" target="_top" xlink:title=" ">
<polygon fill="white" stroke="#666666" points="368.5,-230.5 258.5,-230.5 258.5,-200.5 368.5,-200.5 368.5,-230.5"/>
<text text-anchor="start" x="266.5" y="-218.5" font-family="Helvetica,sans-Serif" font-size="10.00">execute_high_level</text>
<text text-anchor="middle" x="313.5" y="-207.5" font-family="Helvetica,sans-Serif" font-size="10.00">_au_command</text>
</a>
</g>
</g>
<!-- Node1&#45;&gt;Node10 -->
<g id="edge20_Node000001_Node000010" class="edge">
<title>Node1&#45;&gt;Node10</title>
<g id="a_edge20_Node000001_Node000010"><a xlink:title=" ">
<path fill="none" stroke="#63b8ff" d="M610.85,-275.59C565.63,-268.6 494.84,-257.05 434,-244.5 412.57,-240.08 389.14,-234.55 368.75,-229.51"/>
<polygon fill="#63b8ff" stroke="#63b8ff" points="610.52,-279.08 620.94,-277.14 611.58,-272.16 610.52,-279.08"/>
</a>
</g>
</g>
<!-- Node11 -->
<g id="Node000011" class="node">
<title>Node11</title>
<g id="a_Node000011"><a xlink:href="group__ModuleExecutors.html#gaefd8d559f7f798aaf8cb5f6feb9dce47" target="_top" xlink:title=" ">
<polygon fill="white" stroke="#666666" points="368.5,-179.5 258.5,-179.5 258.5,-149.5 368.5,-149.5 368.5,-179.5"/>
<text text-anchor="start" x="266.5" y="-167.5" font-family="Helvetica,sans-Serif" font-size="10.00">execute_high_level</text>
<text text-anchor="middle" x="313.5" y="-156.5" font-family="Helvetica,sans-Serif" font-size="10.00">_kj_command</text>
</a>
</g>
</g>
<!-- Node1&#45;&gt;Node11 -->
<g id="edge23_Node000001_Node000011" class="edge">
<title>Node1&#45;&gt;Node11</title>
<g id="a_edge23_Node000001_Node000011"><a xlink:title=" ">
<path fill="none" stroke="#63b8ff" d="M656.53,-262.48C654.36,-221.56 642.96,-128.81 585,-88.5 529.9,-50.18 498.44,-69.75 434,-88.5 393.16,-100.39 352.94,-130.92 331.16,-149.46"/>
<polygon fill="#63b8ff" stroke="#63b8ff" points="653.04,-262.71 656.93,-272.56 660.03,-262.43 653.04,-262.71"/>
</a>
</g>
</g>
<!-- Node12 -->
<g id="Node000012" class="node">
<title>Node12</title>
<g id="a_Node000012"><a xlink:href="group__FileDirectoryUtils.html#ga9851a9bb4e49d1d90f71249aeebc61e6" target="_top" xlink:title="Validate that current directory is suitable for high&#45;level calculations.">
<polygon fill="white" stroke="#666666" points="570.5,-235 448.5,-235 448.5,-194 570.5,-194 570.5,-235"/>
<text text-anchor="start" x="456.5" y="-223" font-family="Helvetica,sans-Serif" font-size="10.00">HighLevelEnergyUtils</text>
<text text-anchor="start" x="456.5" y="-212" font-family="Helvetica,sans-Serif" font-size="10.00">::is_valid_high_level</text>
<text text-anchor="middle" x="509.5" y="-201" font-family="Helvetica,sans-Serif" font-size="10.00">_directory</text>
</a>
</g>
</g>
<!-- Node1&#45;&gt;Node12 -->
<g id="edge26_Node000001_Node000012" class="edge">
<title>Node1&#45;&gt;Node12</title>
<g id="a_edge26_Node000001_Node000012"><a xlink:title=" ">
<path fill="none" stroke="#63b8ff" d="M627.04,-268.6C606.27,-258.95 578.25,-245.95 554.89,-235.11"/>
<polygon fill="#63b8ff" stroke="#63b8ff" points="625.78,-271.87 636.32,-272.9 628.72,-265.52 625.78,-271.87"/>
</a>
</g>
</g>
<!-- Node13 -->
<g id="Node000013" class="node">
<title>Node13</title>
<g id="a_Node000013"><a xlink:href="group__FileDirectoryUtils.html#gac1ff563cdfa290008403d17b0d2a91cd" target="_top" xlink:title="Validate directory using a specific extension and file size limit.">
<polygon fill="white" stroke="#666666" points="570.5,-41 448.5,-41 448.5,0 570.5,0 570.5,-41"/>
<text text-anchor="start" x="456.5" y="-29" font-family="Helvetica,sans-Serif" font-size="10.00">HighLevelEnergyUtils</text>
<text text-anchor="start" x="456.5" y="-18" font-family="Helvetica,sans-Serif" font-size="10.00">::is_valid_high_level</text>
<text text-anchor="middle" x="509.5" y="-7" font-family="Helvetica,sans-Serif" font-size="10.00">_directory</text>
</a>
</g>
</g>
<!-- Node1&#45;&gt;Node13 -->
<g id="edge29_Node000001_Node000013" class="edge">
<title>Node1&#45;&gt;Node13</title>
<g id="a_edge29_Node000001_Node000013"><a xlink:title=" ">
<path fill="none" stroke="#63b8ff" d="M655.93,-262.81C652.62,-220 639.15,-117.32 585,-55.5 580.1,-49.91 574.12,-45.15 567.7,-41.11"/>
<polygon fill="#63b8ff" stroke="#63b8ff" points="652.45,-263.25 656.61,-273 659.44,-262.79 652.45,-263.25"/>
</a>
</g>
</g>
<!-- Node14 -->
<g id="Node000014" class="node">
<title>Node14</title>
<g id="a_Node000014"><a xlink:href="group__MainCalculation.html#ga69523c18f35fc5a0d58d64495c230cea" target="_top" xlink:title="Process entire directory of high&#45;level calculations.">
<polygon fill="white" stroke="#666666" points="584,-175.5 435,-175.5 435,-145.5 584,-145.5 584,-175.5"/>
<text text-anchor="start" x="443" y="-163.5" font-family="Helvetica,sans-Serif" font-size="10.00">HighLevelEnergyCalculator</text>
<text text-anchor="middle" x="509.5" y="-152.5" font-family="Helvetica,sans-Serif" font-size="10.00">::process_directory</text>
</a>
</g>
</g>
<!-- Node1&#45;&gt;Node14 -->
<g id="edge30_Node000001_Node000014" class="edge">
<title>Node1&#45;&gt;Node14</title>
<g id="a_edge30_Node000001_Node000014"><a xlink:title=" ">
<path fill="none" stroke="#63b8ff" d="M647.84,-264.09C636.13,-242.34 613.85,-206.44 585,-185.5 579.7,-181.65 573.77,-178.37 567.63,-175.57"/>
<polygon fill="#63b8ff" stroke="#63b8ff" points="644.75,-265.73 652.47,-272.99 650.96,-262.51 644.75,-265.73"/>
</a>
</g>
</g>
<!-- Node15 -->
<g id="Node000015" class="node">
<title>Node15</title>
<g id="a_Node000015"><a xlink:href="group__MainCalculation.html#gac76ff006f7aae2e96c804a8ca786d692" target="_top" xlink:title="Process entire directory with parallel processing.">
<polygon fill="white" stroke="#666666" points="585,-127.5 434,-127.5 434,-97.5 585,-97.5 585,-127.5"/>
<text text-anchor="start" x="442" y="-115.5" font-family="Helvetica,sans-Serif" font-size="10.00">HighLevelEnergyCalculator</text>
<text text-anchor="middle" x="509.5" y="-104.5" font-family="Helvetica,sans-Serif" font-size="10.00">::process_directory_parallel</text>
</a>
</g>
</g>
<!-- Node1&#45;&gt;Node15 -->
<g id="edge33_Node000001_Node000015" class="edge">
<title>Node1&#45;&gt;Node15</title>
<g id="a_edge33_Node000001_Node000015"><a xlink:title=" ">
<path fill="none" stroke="#63b8ff" d="M652.51,-262.6C644.42,-231.27 624.44,-170.55 585,-136.5 580.99,-133.04 576.47,-130.07 571.69,-127.53"/>
<polygon fill="#63b8ff" stroke="#63b8ff" points="649.2,-263.81 654.96,-272.7 656,-262.16 649.2,-263.81"/>
</a>
</g>
</g>
<!-- Node3 -->
<g id="Node000003" class="node">
<title>Node3</title>
<g id="a_Node000003"><a xlink:href="main_8cpp.html#a0ddf1224851353fc92bfbff6f499fa97" target="_top" xlink:title="Main entry point for the Gaussian Extractor application.">
<polygon fill="white" stroke="#666666" points="41,-339 0,-339 0,-320 41,-320 41,-339"/>
<text text-anchor="middle" x="20.5" y="-327" font-family="Helvetica,sans-Serif" font-size="10.00">main</text>
</a>
</g>
</g>
<!-- Node2&#45;&gt;Node3 -->
<g id="edge2_Node000002_Node000003" class="edge">
<title>Node2&#45;&gt;Node3</title>
<g id="a_edge2_Node000002_Node000003"><a xlink:title=" ">
<path fill="none" stroke="#63b8ff" d="M223.36,-487.69C175.62,-479.56 118.31,-463.05 77,-429.5 46.63,-404.84 30.14,-358.92 24.15,-339.06"/>
<polygon fill="#63b8ff" stroke="#63b8ff" points="222.97,-491.17 233.39,-489.3 224.08,-484.26 222.97,-491.17"/>
</a>
</g>
</g>
<!-- Node4 -->
<g id="Node000004" class="node">
<title>Node4</title>
<g id="a_Node000004"><a xlink:href="interactive__mode_8cpp.html#a6b615c34054150d837dc45ed1c17b297" target="_top" xlink:title="Enhanced interactive command loop with TAB completion for Windows.">
<polygon fill="white" stroke="#666666" points="193,-339 77,-339 77,-320 193,-320 193,-339"/>
<text text-anchor="middle" x="135" y="-327" font-family="Helvetica,sans-Serif" font-size="10.00">run_interactive_loop</text>
</a>
</g>
</g>
<!-- Node2&#45;&gt;Node4 -->
<g id="edge3_Node000002_Node000004" class="edge">
<title>Node2&#45;&gt;Node4</title>
<g id="a_edge3_Node000002_Node000004"><a xlink:title=" ">
<path fill="none" stroke="#63b8ff" d="M237.64,-481.73C234.63,-480.17 231.73,-478.43 229,-476.5 177.7,-440.25 148.37,-365.86 139.17,-339.24"/>
<polygon fill="#63b8ff" stroke="#63b8ff" points="236.41,-485.02 246.97,-485.92 239.28,-478.63 236.41,-485.02"/>
</a>
</g>
</g>
<!-- Node4&#45;&gt;Node3 -->
<g id="edge4_Node000004_Node000003" class="edge">
<title>Node4&#45;&gt;Node3</title>
<g id="a_edge4_Node000004_Node000003"><a xlink:title=" ">
<path fill="none" stroke="#63b8ff" d="M66.62,-329.5C57.37,-329.5 48.55,-329.5 41.19,-329.5"/>
<polygon fill="#63b8ff" stroke="#63b8ff" points="66.76,-333 76.76,-329.5 66.76,-326 66.76,-333"/>
</a>
</g>
</g>
<!-- Node5&#45;&gt;Node3 -->
<g id="edge6_Node000005_Node000003" class="edge">
<title>Node5&#45;&gt;Node3</title>
<g id="a_edge6_Node000005_Node000003"><a xlink:title=" ">
<path fill="none" stroke="#63b8ff" d="M244.41,-447.4C194.88,-441.09 127.85,-427 77,-395.5 53.84,-381.15 35.56,-353.85 26.92,-339.26"/>
<polygon fill="#63b8ff" stroke="#63b8ff" points="244.05,-450.88 254.39,-448.59 244.88,-443.93 244.05,-450.88"/>
</a>
</g>
</g>
<!-- Node5&#45;&gt;Node4 -->
<g id="edge7_Node000005_Node000004" class="edge">
<title>Node5&#45;&gt;Node4</title>
<g id="a_edge7_Node000005_Node000004"><a xlink:title=" ">
<path fill="none" stroke="#63b8ff" d="M244.8,-436.51C239.29,-434.18 233.95,-431.52 229,-428.5 189.55,-404.41 155.99,-359.18 142.43,-339.3"/>
<polygon fill="#63b8ff" stroke="#63b8ff" points="243.6,-439.8 254.19,-440.13 246.12,-433.27 243.6,-439.8"/>
</a>
</g>
</g>
<!-- Node6&#45;&gt;Node3 -->
<g id="edge9_Node000006_Node000003" class="edge">
<title>Node6&#45;&gt;Node3</title>
<g id="a_edge9_Node000006_Node000003"><a xlink:title=" ">
<path fill="none" stroke="#63b8ff" d="M242.05,-401.58C194.09,-397.65 129.97,-388.54 77,-367.5 60.07,-360.78 43.16,-348.14 32.54,-339.29"/>
<polygon fill="#63b8ff" stroke="#63b8ff" points="241.79,-405.07 252.02,-402.34 242.32,-398.09 241.79,-405.07"/>
</a>
</g>
</g>
<!-- Node6&#45;&gt;Node4 -->
<g id="edge10_Node000006_Node000004" class="edge">
<title>Node6&#45;&gt;Node4</title>
<g id="a_edge10_Node000006_Node000004"><a xlink:title=" ">
<path fill="none" stroke="#63b8ff" d="M244.45,-386.31C239.17,-384.49 233.97,-382.55 229,-380.5 200.23,-368.65 168.91,-350.22 150.95,-339.06"/>
<polygon fill="#63b8ff" stroke="#63b8ff" points="243.39,-389.65 253.99,-389.48 245.59,-383.01 243.39,-389.65"/>
</a>
</g>
</g>
<!-- Node7&#45;&gt;Node3 -->
<g id="edge12_Node000007_Node000003" class="edge">
<title>Node7&#45;&gt;Node3</title>
<g id="a_edge12_Node000007_Node000003"><a xlink:title=" ">
<path fill="none" stroke="#63b8ff" d="M231.68,-359.62C185.94,-359.92 127.87,-357.86 77,-348.5 64.78,-346.25 51.6,-341.83 41.16,-337.82"/>
<polygon fill="#63b8ff" stroke="#63b8ff" points="231.88,-363.11 241.84,-359.51 231.81,-356.12 231.88,-363.11"/>
</a>
</g>
</g>
<!-- Node7&#45;&gt;Node4 -->
<g id="edge13_Node000007_Node000004" class="edge">
<title>Node7&#45;&gt;Node4</title>
<g id="a_edge13_Node000007_Node000004"><a xlink:title=" ">
<path fill="none" stroke="#63b8ff" d="M232.01,-344.19C218.88,-342.18 205.53,-340.14 193.12,-338.24"/>
<polygon fill="#63b8ff" stroke="#63b8ff" points="231.57,-347.66 241.98,-345.71 232.63,-340.74 231.57,-347.66"/>
</a>
</g>
</g>
<!-- Node8&#45;&gt;Node3 -->
<g id="edge15_Node000008_Node000003" class="edge">
<title>Node8&#45;&gt;Node3</title>
<g id="a_edge15_Node000008_Node000003"><a xlink:title=" ">
<path fill="none" stroke="#63b8ff" d="M218.65,-305.64C175.29,-303.82 123.27,-304.18 77,-311.5 64.79,-313.43 51.62,-317.61 41.17,-321.45"/>
<polygon fill="#63b8ff" stroke="#63b8ff" points="218.75,-309.15 228.9,-306.12 219.07,-302.16 218.75,-309.15"/>
</a>
</g>
</g>
<!-- Node8&#45;&gt;Node4 -->
<g id="edge16_Node000008_Node000004" class="edge">
<title>Node8&#45;&gt;Node4</title>
<g id="a_edge16_Node000008_Node000004"><a xlink:title=" ">
<path fill="none" stroke="#63b8ff" d="M218.67,-322.01C209.97,-322.79 201.33,-323.58 193.11,-324.32"/>
<polygon fill="#63b8ff" stroke="#63b8ff" points="219.26,-325.47 228.9,-321.08 218.63,-318.5 219.26,-325.47"/>
</a>
</g>
</g>
<!-- Node9&#45;&gt;Node3 -->
<g id="edge18_Node000009_Node000003" class="edge">
<title>Node9&#45;&gt;Node3</title>
<g id="a_edge18_Node000009_Node000003"><a xlink:title=" ">
<path fill="none" stroke="#63b8ff" d="M237.36,-273.29C190.38,-276.68 129.12,-284.14 77,-300.5 62.48,-305.06 47.24,-313.3 36.41,-319.84"/>
<polygon fill="#63b8ff" stroke="#63b8ff" points="237.72,-276.77 247.47,-272.61 237.25,-269.79 237.72,-276.77"/>
</a>
</g>
</g>
<!-- Node9&#45;&gt;Node4 -->
<g id="edge19_Node000009_Node000004" class="edge">
<title>Node9&#45;&gt;Node4</title>
<g id="a_edge19_Node000009_Node000004"><a xlink:title=" ">
<path fill="none" stroke="#63b8ff" d="M250.41,-288.64C243.17,-290.89 235.91,-293.2 229,-295.5 205.83,-303.2 179.75,-312.81 161.12,-319.86"/>
<polygon fill="#63b8ff" stroke="#63b8ff" points="251.7,-291.91 260.24,-285.63 249.65,-285.21 251.7,-291.91"/>
</a>
</g>
</g>
<!-- Node10&#45;&gt;Node3 -->
<g id="edge21_Node000010_Node000003" class="edge">
<title>Node10&#45;&gt;Node3</title>
<g id="a_edge21_Node000010_Node000003"><a xlink:title=" ">
<path fill="none" stroke="#63b8ff" d="M248.52,-221.71C199.06,-228.69 130.29,-243.29 77,-273.5 56.04,-285.38 37.67,-307.39 28.23,-319.99"/>
<polygon fill="#63b8ff" stroke="#63b8ff" points="249.01,-225.17 258.45,-220.37 248.07,-218.23 249.01,-225.17"/>
</a>
</g>
</g>
<!-- Node10&#45;&gt;Node4 -->
<g id="edge22_Node000010_Node000004" class="edge">
<title>Node10&#45;&gt;Node4</title>
<g id="a_edge22_Node000010_Node000004"><a xlink:title=" ">
<path fill="none" stroke="#63b8ff" d="M253.12,-234.39C244.78,-237.94 236.51,-241.98 229,-246.5 193.96,-267.6 159.97,-302.79 144.58,-319.76"/>
<polygon fill="#63b8ff" stroke="#63b8ff" points="254.56,-237.59 262.52,-230.6 251.93,-231.1 254.56,-237.59"/>
</a>
</g>
</g>
<!-- Node11&#45;&gt;Node3 -->
<g id="edge24_Node000011_Node000003" class="edge">
<title>Node11&#45;&gt;Node3</title>
<g id="a_edge24_Node000011_Node000003"><a xlink:title=" ">
<path fill="none" stroke="#63b8ff" d="M248.07,-168.4C196.95,-174.46 126.16,-189.81 77,-228.5 46.03,-252.88 29.86,-299.55 24.05,-319.76"/>
<polygon fill="#63b8ff" stroke="#63b8ff" points="248.47,-171.87 258.02,-167.3 247.7,-164.92 248.47,-171.87"/>
</a>
</g>
</g>
<!-- Node11&#45;&gt;Node4 -->
<g id="edge25_Node000011_Node000004" class="edge">
<title>Node11&#45;&gt;Node4</title>
<g id="a_edge25_Node000011_Node000004"><a xlink:title=" ">
<path fill="none" stroke="#63b8ff" d="M248.63,-180.14C241.65,-183.28 234.94,-187.03 229,-191.5 181.45,-227.29 150.21,-294.84 139.82,-319.86"/>
<polygon fill="#63b8ff" stroke="#63b8ff" points="250.3,-183.24 258.25,-176.23 247.66,-176.75 250.3,-183.24"/>
</a>
</g>
</g>
<!-- Node12&#45;&gt;Node10 -->
<g id="edge27_Node000012_Node000010" class="edge">
<title>Node12&#45;&gt;Node10</title>
<g id="a_edge27_Node000012_Node000010"><a xlink:title=" ">
<path fill="none" stroke="#63b8ff" d="M438.41,-214.86C415.44,-214.98 390.28,-215.11 368.67,-215.22"/>
<polygon fill="#63b8ff" stroke="#63b8ff" points="438.46,-218.36 448.45,-214.81 438.43,-211.36 438.46,-218.36"/>
</a>
</g>
</g>
<!-- Node12&#45;&gt;Node11 -->
<g id="edge28_Node000012_Node000011" class="edge">
<title>Node12&#45;&gt;Node11</title>
<g id="a_edge28_Node000012_Node000011"><a xlink:title=" ">
<path fill="none" stroke="#63b8ff" d="M438.72,-196.52C415.66,-190.57 390.38,-184.06 368.67,-178.46"/>
<polygon fill="#63b8ff" stroke="#63b8ff" points="437.89,-199.92 448.45,-199.02 439.64,-193.14 437.89,-199.92"/>
</a>
</g>
</g>
<!-- Node14&#45;&gt;Node10 -->
<g id="edge31_Node000014_Node000010" class="edge">
<title>Node14&#45;&gt;Node10</title>
<g id="a_edge31_Node000014_Node000010"><a xlink:title=" ">
<path fill="none" stroke="#63b8ff" d="M445.64,-178.32C420.39,-185.48 391.6,-193.64 367.45,-200.49"/>
<polygon fill="#63b8ff" stroke="#63b8ff" points="446.82,-181.62 455.49,-175.53 444.91,-174.89 446.82,-181.62"/>
</a>
</g>
</g>
<!-- Node14&#45;&gt;Node11 -->
<g id="edge32_Node000014_Node000011" class="edge">
<title>Node14&#45;&gt;Node11</title>
<g id="a_edge32_Node000014_Node000011"><a xlink:title=" ">
<path fill="none" stroke="#63b8ff" d="M424.74,-162.23C405.77,-162.62 386.11,-163.02 368.74,-163.38"/>
<polygon fill="#63b8ff" stroke="#63b8ff" points="424.95,-165.72 434.88,-162.02 424.81,-158.72 424.95,-165.72"/>
</a>
</g>
</g>
<!-- Node15&#45;&gt;Node10 -->
<g id="edge34_Node000015_Node000010" class="edge">
<title>Node15&#45;&gt;Node10</title>
<g id="a_edge34_Node000015_Node000010"><a xlink:title=" ">
<path fill="none" stroke="#63b8ff" d="M439.81,-132.58C437.81,-133.81 435.86,-135.12 434,-136.5 411.43,-153.25 420.56,-171.74 398,-188.5 389.32,-194.95 379.03,-199.9 368.69,-203.69"/>
<polygon fill="#63b8ff" stroke="#63b8ff" points="441.83,-135.47 448.97,-127.64 438.5,-129.31 441.83,-135.47"/>
</a>
</g>
</g>
<!-- Node15&#45;&gt;Node11 -->
<g id="edge35_Node000015_Node000011" class="edge">
<title>Node15&#45;&gt;Node11</title>
<g id="a_edge35_Node000015_Node000011"><a xlink:title=" ">
<path fill="none" stroke="#63b8ff" d="M442.64,-130.15C418.61,-136.59 391.73,-143.8 368.82,-149.94"/>
<polygon fill="#63b8ff" stroke="#63b8ff" points="443.63,-133.51 452.39,-127.54 441.82,-126.75 443.63,-133.51"/>
</a>
</g>
</g>
</g>
</svg>

<g id="navigator" transform="translate(0 0)" fill="#404254">
  <rect fill="#f2f5e9" fill-opacity="0.5" stroke="#606060" stroke-width=".5" x="0" y="0" width="60" height="60"/>
  <use id="zoomplus" xlink:href="#zoomPlus" x="17" y="9" onmousedown="handleZoom(evt,'in')"/>
  <use id="zoomminus" xlink:href="#zoomMin" x="42" y="9" onmousedown="handleZoom(evt,'out')"/>
  <use id="reset" xlink:href="#resetDef" x="30" y="36" onmousedown="handleReset()"/>
   <use id="arrowup" xlink:href="#arrowUp" x="0" y="0" onmousedown="handlePan(0,-1)"/>
  <use id="arrowright" xlink:href="#arrowRight" x="0" y="0" onmousedown="handlePan(1,0)"/>
  <use id="arrowdown" xlink:href="#arrowDown" x="0" y="0" onmousedown="handlePan(0,1)"/>
  <use id="arrowleft" xlink:href="#arrowLeft" x="0" y="0" onmousedown="handlePan(-1,0)"/>
</g>
<svg viewBox="0 0 15 15" width="100%" height="30px" preserveAspectRatio="xMaxYMin meet">
 <g id="arrow_out" transform="scale(0.3 0.3)">
  <a xlink:href="group__MemoryMonitorImpl_ga9a325bd1793b5dc5e9490383802ad169_icgraph_org.svg" target="_base">
   <rect id="button" ry="5" rx="5" y="6" x="6" height="38" width="38"
        fill="#f2f5e9" fill-opacity="0.5" stroke="#606060" stroke-width="1.0"/>
   <path id="arrow"
     d="M 11.500037,31.436501 C 11.940474,20.09759 22.043105,11.32322 32.158766,21.979434 L 37.068811,17.246167 C 37.068811,17.246167 37.088388,32 37.088388,32 L 22.160133,31.978069 C 22.160133,31.978069 26.997745,27.140456 26.997745,27.140456 C 18.528582,18.264221 13.291696,25.230495 11.500037,31.436501 z"
     style="fill:#404040;"/>
  </a>
 </g>
</svg>

<style type='text/css'>
<![CDATA[
[data-mouse-over-selected='false'] { opacity: 0.7; }
[data-mouse-over-selected='true']  { opacity: 1.0; }
]]>
</style>
<script type="application/ecmascript"><![CDATA[
document.addEventListener('DOMContentLoaded', (event) => {
  highlightEdges();
  highlightAdjacentNodes();
});
]]></script>
</svg>
