<?xml version="1.0" encoding="UTF-8" standalone="no"?>
<!DOCTYPE svg PUBLIC "-//W3C//DTD SVG 1.1//EN"
 "http://www.w3.org/Graphics/SVG/1.1/DTD/svg11.dtd">
<!-- Generated by graphviz version 2.43.0 (0)
 -->
<!-- Title: JobSchedulerDetector::parse_memory_string Pages: 1 -->
<svg width="311pt" height="134pt"
 viewBox="0.00 0.00 311.00 134.00" xmlns="http://www.w3.org/2000/svg" xmlns:xlink="http://www.w3.org/1999/xlink">
<g id="graph0" class="graph" transform="scale(1 1) rotate(0) translate(4 130)">
<title>JobSchedulerDetector::parse_memory_string</title>
<!-- Node1 -->
<g id="Node000001" class="node">
<title>Node1</title>
<g id="a_Node000001"><a xlink:title="Parse memory specification string to megabytes.">
<polygon fill="#999999" stroke="#666666" points="129,-78 0,-78 0,-48 129,-48 129,-78"/>
<text text-anchor="start" x="8" y="-66" font-family="Helvetica,sans-Serif" font-size="10.00">JobSchedulerDetector</text>
<text text-anchor="middle" x="64.5" y="-55" font-family="Helvetica,sans-Serif" font-size="10.00">::parse_memory_string</text>
</a>
</g>
</g>
<!-- Node2 -->
<g id="Node000002" class="node">
<title>Node2</title>
<g id="a_Node000002"><a xlink:href="group__PrivateParsers.html#gaef6c0a64fcb73d01deb070200fd84a52" target="_top" xlink:title="Parse general memory format strings.">
<polygon fill="white" stroke="#666666" points="303,-126 165,-126 165,-96 303,-96 303,-126"/>
<text text-anchor="start" x="173" y="-114" font-family="Helvetica,sans-Serif" font-size="10.00">JobSchedulerDetector</text>
<text text-anchor="middle" x="234" y="-103" font-family="Helvetica,sans-Serif" font-size="10.00">::parse_general_memory</text>
</a>
</g>
</g>
<!-- Node1&#45;&gt;Node2 -->
<g id="edge1_Node000001_Node000002" class="edge">
<title>Node1&#45;&gt;Node2</title>
<g id="a_edge1_Node000001_Node000002"><a xlink:title=" ">
<path fill="none" stroke="#63b8ff" d="M118.04,-78.06C134.72,-82.84 153.33,-88.17 170.63,-93.13"/>
<polygon fill="#63b8ff" stroke="#63b8ff" points="170.07,-96.61 180.65,-96 172,-89.88 170.07,-96.61"/>
</a>
</g>
</g>
<!-- Node3 -->
<g id="Node000003" class="node">
<title>Node3</title>
<g id="a_Node000003"><a xlink:href="group__PrivateParsers.html#ga9bed72466ae8b04e8fe80827e482bd59" target="_top" xlink:title="Parse PBS/Torque&#45;specific memory format strings.">
<polygon fill="white" stroke="#666666" points="295,-78 173,-78 173,-48 295,-48 295,-78"/>
<text text-anchor="start" x="181" y="-66" font-family="Helvetica,sans-Serif" font-size="10.00">JobSchedulerDetector</text>
<text text-anchor="middle" x="234" y="-55" font-family="Helvetica,sans-Serif" font-size="10.00">::parse_pbs_memory</text>
</a>
</g>
</g>
<!-- Node1&#45;&gt;Node3 -->
<g id="edge2_Node000001_Node000003" class="edge">
<title>Node1&#45;&gt;Node3</title>
<g id="a_edge2_Node000001_Node000003"><a xlink:title=" ">
<path fill="none" stroke="#63b8ff" d="M129.3,-63C140.27,-63 151.73,-63 162.86,-63"/>
<polygon fill="#63b8ff" stroke="#63b8ff" points="162.96,-66.5 172.96,-63 162.96,-59.5 162.96,-66.5"/>
</a>
</g>
</g>
<!-- Node4 -->
<g id="Node000004" class="node">
<title>Node4</title>
<g id="a_Node000004"><a xlink:href="group__PrivateParsers.html#ga5d5c5c72d1fadf00e71c24290a7780df" target="_top" xlink:title="Parse SLURM&#45;specific memory format strings.">
<polygon fill="white" stroke="#666666" points="298.5,-30 169.5,-30 169.5,0 298.5,0 298.5,-30"/>
<text text-anchor="start" x="177.5" y="-18" font-family="Helvetica,sans-Serif" font-size="10.00">JobSchedulerDetector</text>
<text text-anchor="middle" x="234" y="-7" font-family="Helvetica,sans-Serif" font-size="10.00">::parse_slurm_memory</text>
</a>
</g>
</g>
<!-- Node1&#45;&gt;Node4 -->
<g id="edge3_Node000001_Node000004" class="edge">
<title>Node1&#45;&gt;Node4</title>
<g id="a_edge3_Node000001_Node000004"><a xlink:title=" ">
<path fill="none" stroke="#63b8ff" d="M118.04,-47.94C134.72,-43.16 153.33,-37.83 170.63,-32.87"/>
<polygon fill="#63b8ff" stroke="#63b8ff" points="172,-36.12 180.65,-30 170.07,-29.39 172,-36.12"/>
</a>
</g>
</g>
</g>
</svg>
