<?xml version="1.0" encoding="UTF-8" standalone="no"?>
<!DOCTYPE svg PUBLIC "-//W3C//DTD SVG 1.1//EN"
 "http://www.w3.org/Graphics/SVG/1.1/DTD/svg11.dtd">
<!-- Generated by graphviz version 2.43.0 (0)
 -->
<!-- Title: JobChecker::get_current_directory_name Pages: 1 -->
<!--zoomable 129 -->

<svg id="main" version="1.1" xmlns="http://www.w3.org/2000/svg" xmlns:xlink="http://www.w3.org/1999/xlink" xml:space="preserve" onload="init(evt)">
<style type="text/css"><![CDATA[
.node, .edge {opacity: 0.7;}
.node.selected, .edge.selected {opacity: 1;}
.edge:hover path { stroke: red; }
.edge:hover polygon { stroke: red; fill: red; }
]]></style>

<defs>
  <circle id="rim" cx="0" cy="0" r="7"/>
  <circle id="rim2" cx="0" cy="0" r="3.5"/>
  <g id="zoomPlus">
    <use xlink:href="#rim" fill="#404040"><set attributeName="fill" to="#808080" begin="zoomplus.mouseover" end="zoomplus.mouseout"/></use>
    <path d="M-4,0h8M0,-4v8" fill="none" stroke="white" stroke-width="1.5" pointer-events="none"/>
  </g>
  <g id="zoomMin">
    <use xlink:href="#rim" fill="#404040"><set attributeName="fill" to="#808080" begin="zoomminus.mouseover" end="zoomminus.mouseout"/></use>
    <path d="M-4,0h8" fill="none" stroke="white" stroke-width="1.5" pointer-events="none"/>
  </g>
  <g id="arrowUp" transform="translate(30 24)">
    <use xlink:href="#rim"/>
    <path pointer-events="none" fill="none" stroke="white" stroke-width="1.5" d="M0,-3.0v7 M-2.5,-0.5L0,-3.0L2.5,-0.5"/>
  </g>
  <g id="arrowRight" transform="rotate(90) translate(36 -43)">
    <use xlink:href="#rim"/>
    <path pointer-events="none" fill="none" stroke="white" stroke-width="1.5" d="M0,-3.0v7 M-2.5,-0.5L0,-3.0L2.5,-0.5"/>
  </g>
  <g id="arrowDown" transform="rotate(180) translate(-30 -48)">
    <use xlink:href="#rim"/>
    <path pointer-events="none" fill="none" stroke="white" stroke-width="1.5" d="M0,-3.0v7 M-2.5,-0.5L0,-3.0L2.5,-0.5"/>
  </g>
  <g id="arrowLeft" transform="rotate(270) translate(-36 17)">
    <use xlink:href="#rim"/>
    <path pointer-events="none" fill="none" stroke="white" stroke-width="1.5" d="M0,-3.0v7 M-2.5,-0.5L0,-3.0L2.5,-0.5"/>
  </g>
  <g id="resetDef">
    <use xlink:href="#rim2" fill="#404040"><set attributeName="fill" to="#808080" begin="reset.mouseover" end="reset.mouseout"/></use>
  </g>
</defs>
<script type="application/ecmascript">
var viewWidth = 947;
var viewHeight = 129;
var sectionId = 'dynsection-4';
</script>
<script type="application/ecmascript" xlink:href="svg.min.js"/>
<svg id="graph" class="graph">
<g id="viewport">
<title>JobChecker::get_current_directory_name</title>
<!-- Node1 -->
<g id="Node000001" class="node">
<title>Node1</title>
<g id="a_Node000001"><a xlink:title="Get the name of the current working directory.">
<polygon fill="#999999" stroke="#666666" points="939,-78 807,-78 807,-48 939,-48 939,-78"/>
<text text-anchor="start" x="815" y="-66" font-family="Helvetica,sans-Serif" font-size="10.00">JobChecker::get_current</text>
<text text-anchor="middle" x="873" y="-55" font-family="Helvetica,sans-Serif" font-size="10.00">_directory_name</text>
</a>
</g>
</g>
<!-- Node2 -->
<g id="Node000002" class="node">
<title>Node2</title>
<g id="a_Node000002"><a xlink:href="group__MainChecking.html#ga0ee48f6630ee3b5bd0f33fcf567f6fb1" target="_top" xlink:title="Optimized comprehensive job checking with single&#45;pass processing.">
<polygon fill="white" stroke="#666666" points="738.5,-121 615.5,-121 615.5,-91 738.5,-91 738.5,-121"/>
<text text-anchor="start" x="623.5" y="-109" font-family="Helvetica,sans-Serif" font-size="10.00">JobChecker::check_all</text>
<text text-anchor="middle" x="677" y="-98" font-family="Helvetica,sans-Serif" font-size="10.00">_job_types_optimized</text>
</a>
</g>
</g>
<!-- Node1&#45;&gt;Node2 -->
<g id="edge1_Node000001_Node000002" class="edge">
<title>Node1&#45;&gt;Node2</title>
<g id="a_edge1_Node000001_Node000002"><a xlink:title=" ">
<path fill="none" stroke="#63b8ff" d="M796.91,-79.64C777.64,-83.91 757.15,-88.46 738.71,-92.54"/>
<polygon fill="#63b8ff" stroke="#63b8ff" points="797.86,-83.02 806.86,-77.44 796.34,-76.18 797.86,-83.02"/>
</a>
</g>
</g>
<!-- Node7 -->
<g id="Node000007" class="node">
<title>Node7</title>
<g id="a_Node000007"><a xlink:href="group__MainChecking.html#ga45e3257791a2470c3f071101d0c9cc78" target="_top" xlink:title="Check and organize completed job calculations.">
<polygon fill="white" stroke="#666666" points="771,-72.5 583,-72.5 583,-53.5 771,-53.5 771,-72.5"/>
<text text-anchor="middle" x="677" y="-60.5" font-family="Helvetica,sans-Serif" font-size="10.00">JobChecker::check_completed_jobs</text>
</a>
</g>
</g>
<!-- Node1&#45;&gt;Node7 -->
<g id="edge7_Node000001_Node000007" class="edge">
<title>Node1&#45;&gt;Node7</title>
<g id="a_edge7_Node000001_Node000007"><a xlink:title=" ">
<path fill="none" stroke="#63b8ff" d="M796.78,-63C788.42,-63 779.82,-63 771.26,-63"/>
<polygon fill="#63b8ff" stroke="#63b8ff" points="796.86,-66.5 806.86,-63 796.86,-59.5 796.86,-66.5"/>
</a>
</g>
</g>
<!-- Node9 -->
<g id="Node000009" class="node">
<title>Node9</title>
<g id="a_Node000009"><a xlink:href="group__MainChecking.html#gaf46bb6ecb38c0c2c1f35506d6a67b8e0" target="_top" xlink:title="Check and organize jobs with imaginary frequencies.">
<polygon fill="white" stroke="#666666" points="757,-33 597,-33 597,-3 757,-3 757,-33"/>
<text text-anchor="start" x="605" y="-21" font-family="Helvetica,sans-Serif" font-size="10.00">JobChecker::check_imaginary</text>
<text text-anchor="middle" x="677" y="-10" font-family="Helvetica,sans-Serif" font-size="10.00">_frequencies</text>
</a>
</g>
</g>
<!-- Node1&#45;&gt;Node9 -->
<g id="edge11_Node000001_Node000009" class="edge">
<title>Node1&#45;&gt;Node9</title>
<g id="a_edge11_Node000001_Node000009"><a xlink:title=" ">
<path fill="none" stroke="#63b8ff" d="M797.28,-45.67C779.32,-41.5 760.28,-37.08 742.81,-33.03"/>
<polygon fill="#63b8ff" stroke="#63b8ff" points="796.6,-49.1 807.13,-47.95 798.18,-42.28 796.6,-49.1"/>
</a>
</g>
</g>
<!-- Node3 -->
<g id="Node000003" class="node">
<title>Node3</title>
<g id="a_Node000003"><a xlink:href="group__MainChecking.html#gabfbdc3f5ed66c5ad702fd8878e95f203" target="_top" xlink:title="Run comprehensive checking of all job types.">
<polygon fill="white" stroke="#666666" points="547,-121 425,-121 425,-91 547,-91 547,-121"/>
<text text-anchor="start" x="433" y="-109" font-family="Helvetica,sans-Serif" font-size="10.00">JobChecker::check_all</text>
<text text-anchor="middle" x="486" y="-98" font-family="Helvetica,sans-Serif" font-size="10.00">_job_types</text>
</a>
</g>
</g>
<!-- Node2&#45;&gt;Node3 -->
<g id="edge2_Node000002_Node000003" class="edge">
<title>Node2&#45;&gt;Node3</title>
<g id="a_edge2_Node000002_Node000003"><a xlink:title=" ">
<path fill="none" stroke="#63b8ff" d="M605.28,-106C586.18,-106 565.7,-106 547.24,-106"/>
<polygon fill="#63b8ff" stroke="#63b8ff" points="605.42,-109.5 615.42,-106 605.42,-102.5 605.42,-109.5"/>
</a>
</g>
</g>
<!-- Node4 -->
<g id="Node000004" class="node">
<title>Node4</title>
<g id="a_Node000004"><a xlink:href="group__ModuleExecutors.html#ga5f1a9bdbc166546e200c5bbb2aa5db30" target="_top" xlink:title=" ">
<polygon fill="white" stroke="#666666" points="389,-115.5 229,-115.5 229,-96.5 389,-96.5 389,-115.5"/>
<text text-anchor="middle" x="309" y="-103.5" font-family="Helvetica,sans-Serif" font-size="10.00">execute_check_all_command</text>
</a>
</g>
</g>
<!-- Node3&#45;&gt;Node4 -->
<g id="edge3_Node000003_Node000004" class="edge">
<title>Node3&#45;&gt;Node4</title>
<g id="a_edge3_Node000003_Node000004"><a xlink:title=" ">
<path fill="none" stroke="#63b8ff" d="M414.68,-106C406.29,-106 397.69,-106 389.19,-106"/>
<polygon fill="#63b8ff" stroke="#63b8ff" points="414.77,-109.5 424.77,-106 414.77,-102.5 414.77,-109.5"/>
</a>
</g>
</g>
<!-- Node5 -->
<g id="Node000005" class="node">
<title>Node5</title>
<g id="a_Node000005"><a xlink:href="main_8cpp.html#a0ddf1224851353fc92bfbff6f499fa97" target="_top" xlink:title="Main entry point for the Gaussian Extractor application.">
<polygon fill="white" stroke="#666666" points="41,-70.5 0,-70.5 0,-51.5 41,-51.5 41,-70.5"/>
<text text-anchor="middle" x="20.5" y="-58.5" font-family="Helvetica,sans-Serif" font-size="10.00">main</text>
</a>
</g>
</g>
<!-- Node4&#45;&gt;Node5 -->
<g id="edge4_Node000004_Node000005" class="edge">
<title>Node4&#45;&gt;Node5</title>
<g id="a_edge4_Node000004_Node000005"><a xlink:title=" ">
<path fill="none" stroke="#63b8ff" d="M218.8,-114.87C175.07,-116.34 122.21,-113.75 77,-99 59.24,-93.21 42,-79.81 31.57,-70.58"/>
<polygon fill="#63b8ff" stroke="#63b8ff" points="219,-118.37 228.85,-114.46 218.72,-111.37 219,-118.37"/>
</a>
</g>
</g>
<!-- Node6 -->
<g id="Node000006" class="node">
<title>Node6</title>
<g id="a_Node000006"><a xlink:href="interactive__mode_8cpp.html#a6b615c34054150d837dc45ed1c17b297" target="_top" xlink:title="Enhanced interactive command loop with TAB completion for Windows.">
<polygon fill="white" stroke="#666666" points="193,-89.5 77,-89.5 77,-70.5 193,-70.5 193,-89.5"/>
<text text-anchor="middle" x="135" y="-77.5" font-family="Helvetica,sans-Serif" font-size="10.00">run_interactive_loop</text>
</a>
</g>
</g>
<!-- Node4&#45;&gt;Node6 -->
<g id="edge5_Node000004_Node000006" class="edge">
<title>Node4&#45;&gt;Node6</title>
<g id="a_edge5_Node000004_Node000006"><a xlink:title=" ">
<path fill="none" stroke="#63b8ff" d="M234.86,-94.94C220.89,-92.83 206.46,-90.65 193.08,-88.63"/>
<polygon fill="#63b8ff" stroke="#63b8ff" points="234.52,-98.43 244.93,-96.47 235.57,-91.51 234.52,-98.43"/>
</a>
</g>
</g>
<!-- Node6&#45;&gt;Node5 -->
<g id="edge6_Node000006_Node000005" class="edge">
<title>Node6&#45;&gt;Node5</title>
<g id="a_edge6_Node000006_Node000005"><a xlink:title=" ">
<path fill="none" stroke="#63b8ff" d="M67.4,-68.75C57.88,-67.14 48.77,-65.61 41.22,-64.33"/>
<polygon fill="#63b8ff" stroke="#63b8ff" points="66.98,-72.23 77.42,-70.44 68.14,-65.33 66.98,-72.23"/>
</a>
</g>
</g>
<!-- Node8 -->
<g id="Node000008" class="node">
<title>Node8</title>
<g id="a_Node000008"><a xlink:href="group__ModuleExecutors.html#ga97d4d0bad6dab32f1d5b92d4ea09c80b" target="_top" xlink:title=" ">
<polygon fill="white" stroke="#666666" points="368,-78 250,-78 250,-48 368,-48 368,-78"/>
<text text-anchor="start" x="258" y="-66" font-family="Helvetica,sans-Serif" font-size="10.00">execute_check_done</text>
<text text-anchor="middle" x="309" y="-55" font-family="Helvetica,sans-Serif" font-size="10.00">_command</text>
</a>
</g>
</g>
<!-- Node7&#45;&gt;Node8 -->
<g id="edge8_Node000007_Node000008" class="edge">
<title>Node7&#45;&gt;Node8</title>
<g id="a_edge8_Node000007_Node000008"><a xlink:title=" ">
<path fill="none" stroke="#63b8ff" d="M572.65,-63C506.5,-63 423.09,-63 368.23,-63"/>
<polygon fill="#63b8ff" stroke="#63b8ff" points="572.7,-66.5 582.7,-63 572.7,-59.5 572.7,-66.5"/>
</a>
</g>
</g>
<!-- Node8&#45;&gt;Node5 -->
<g id="edge9_Node000008_Node000005" class="edge">
<title>Node8&#45;&gt;Node5</title>
<g id="a_edge9_Node000008_Node000005"><a xlink:title=" ">
<path fill="none" stroke="#63b8ff" d="M239.38,-62.37C224.11,-62.24 208.01,-62.11 193,-62 137.92,-61.6 72.88,-61.26 41.05,-61.1"/>
<polygon fill="#63b8ff" stroke="#63b8ff" points="239.76,-65.87 249.79,-62.46 239.82,-58.87 239.76,-65.87"/>
</a>
</g>
</g>
<!-- Node8&#45;&gt;Node6 -->
<g id="edge10_Node000008_Node000006" class="edge">
<title>Node8&#45;&gt;Node6</title>
<g id="a_edge10_Node000008_Node000006"><a xlink:title=" ">
<path fill="none" stroke="#63b8ff" d="M239.73,-69.75C224.25,-71.28 207.96,-72.89 193,-74.37"/>
<polygon fill="#63b8ff" stroke="#63b8ff" points="240.16,-73.22 249.77,-68.76 239.47,-66.26 240.16,-73.22"/>
</a>
</g>
</g>
<!-- Node10 -->
<g id="Node000010" class="node">
<title>Node10</title>
<g id="a_Node000010"><a xlink:href="group__ModuleExecutors.html#ga4f5c061099b04712ebc615b32108fdd5" target="_top" xlink:title=" ">
<polygon fill="white" stroke="#666666" points="380.5,-30 237.5,-30 237.5,0 380.5,0 380.5,-30"/>
<text text-anchor="start" x="245.5" y="-18" font-family="Helvetica,sans-Serif" font-size="10.00">execute_check_imaginary</text>
<text text-anchor="middle" x="309" y="-7" font-family="Helvetica,sans-Serif" font-size="10.00">_command</text>
</a>
</g>
</g>
<!-- Node9&#45;&gt;Node10 -->
<g id="edge12_Node000009_Node000010" class="edge">
<title>Node9&#45;&gt;Node10</title>
<g id="a_edge12_Node000009_Node000010"><a xlink:title=" ">
<path fill="none" stroke="#63b8ff" d="M586.2,-17.26C522.86,-16.74 439.19,-16.06 380.6,-15.58"/>
<polygon fill="#63b8ff" stroke="#63b8ff" points="586.56,-20.77 596.58,-17.35 586.61,-13.77 586.56,-20.77"/>
</a>
</g>
</g>
<!-- Node10&#45;&gt;Node5 -->
<g id="edge13_Node000010_Node000005" class="edge">
<title>Node10&#45;&gt;Node5</title>
<g id="a_edge13_Node000010_Node000005"><a xlink:title=" ">
<path fill="none" stroke="#63b8ff" d="M227.11,-27.99C163.22,-38.25 78.76,-51.81 41.09,-57.85"/>
<polygon fill="#63b8ff" stroke="#63b8ff" points="227.86,-31.41 237.18,-26.37 226.75,-24.5 227.86,-31.41"/>
</a>
</g>
</g>
<!-- Node10&#45;&gt;Node6 -->
<g id="edge14_Node000010_Node000006" class="edge">
<title>Node10&#45;&gt;Node6</title>
<g id="a_edge14_Node000010_Node000006"><a xlink:title=" ">
<path fill="none" stroke="#63b8ff" d="M245.82,-33.12C240.1,-35.02 234.42,-36.99 229,-39 203.36,-48.51 174.67,-61.53 156.03,-70.33"/>
<polygon fill="#63b8ff" stroke="#63b8ff" points="247,-36.41 255.44,-30 244.84,-29.75 247,-36.41"/>
</a>
</g>
</g>
</g>
</svg>

<g id="navigator" transform="translate(0 0)" fill="#404254">
  <rect fill="#f2f5e9" fill-opacity="0.5" stroke="#606060" stroke-width=".5" x="0" y="0" width="60" height="60"/>
  <use id="zoomplus" xlink:href="#zoomPlus" x="17" y="9" onmousedown="handleZoom(evt,'in')"/>
  <use id="zoomminus" xlink:href="#zoomMin" x="42" y="9" onmousedown="handleZoom(evt,'out')"/>
  <use id="reset" xlink:href="#resetDef" x="30" y="36" onmousedown="handleReset()"/>
   <use id="arrowup" xlink:href="#arrowUp" x="0" y="0" onmousedown="handlePan(0,-1)"/>
  <use id="arrowright" xlink:href="#arrowRight" x="0" y="0" onmousedown="handlePan(1,0)"/>
  <use id="arrowdown" xlink:href="#arrowDown" x="0" y="0" onmousedown="handlePan(0,1)"/>
  <use id="arrowleft" xlink:href="#arrowLeft" x="0" y="0" onmousedown="handlePan(-1,0)"/>
</g>
<svg viewBox="0 0 15 15" width="100%" height="30px" preserveAspectRatio="xMaxYMin meet">
 <g id="arrow_out" transform="scale(0.3 0.3)">
  <a xlink:href="group__FileOperations_ga0b60dfe238c3c9d5fa3144ec4fc22930_icgraph_org.svg" target="_base">
   <rect id="button" ry="5" rx="5" y="6" x="6" height="38" width="38"
        fill="#f2f5e9" fill-opacity="0.5" stroke="#606060" stroke-width="1.0"/>
   <path id="arrow"
     d="M 11.500037,31.436501 C 11.940474,20.09759 22.043105,11.32322 32.158766,21.979434 L 37.068811,17.246167 C 37.068811,17.246167 37.088388,32 37.088388,32 L 22.160133,31.978069 C 22.160133,31.978069 26.997745,27.140456 26.997745,27.140456 C 18.528582,18.264221 13.291696,25.230495 11.500037,31.436501 z"
     style="fill:#404040;"/>
  </a>
 </g>
</svg>

<style type='text/css'>
<![CDATA[
[data-mouse-over-selected='false'] { opacity: 0.7; }
[data-mouse-over-selected='true']  { opacity: 1.0; }
]]>
</style>
<script type="application/ecmascript"><![CDATA[
document.addEventListener('DOMContentLoaded', (event) => {
  highlightEdges();
  highlightAdjacentNodes();
});
]]></script>
</svg>
