<?xml version="1.0" encoding="UTF-8" standalone="no"?>
<!DOCTYPE svg PUBLIC "-//W3C//DTD SVG 1.1//EN"
 "http://www.w3.org/Graphics/SVG/1.1/DTD/svg11.dtd">
<!-- Generated by graphviz version 2.43.0 (0)
 -->
<!-- Title: ConfigManager::create_default_config_file Pages: 1 -->
<svg width="613pt" height="100pt"
 viewBox="0.00 0.00 613.00 99.94" xmlns="http://www.w3.org/2000/svg" xmlns:xlink="http://www.w3.org/1999/xlink">
<g id="graph0" class="graph" transform="scale(1 1) rotate(0) translate(4 95.94)">
<title>ConfigManager::create_default_config_file</title>
<!-- Node1 -->
<g id="Node000001" class="node">
<title>Node1</title>
<g id="a_Node000001"><a xlink:title="Create a default configuration file with all options.">
<polygon fill="#999999" stroke="#666666" points="127,-78 0,-78 0,-48 127,-48 127,-78"/>
<text text-anchor="start" x="8" y="-66" font-family="Helvetica,sans-Serif" font-size="10.00">ConfigManager::create</text>
<text text-anchor="middle" x="63.5" y="-55" font-family="Helvetica,sans-Serif" font-size="10.00">_default_config_file</text>
</a>
</g>
</g>
<!-- Node2 -->
<g id="Node000002" class="node">
<title>Node2</title>
<g id="a_Node000002"><a xlink:href="group__ConfigInternals.html#ga5e387d61b1f34873cd3ab047242b2aad" target="_top" xlink:title="Template method for type&#45;safe value conversion.">
<polygon fill="white" stroke="#666666" points="605,-73 472,-73 472,-43 605,-43 605,-73"/>
<text text-anchor="start" x="480" y="-61" font-family="Helvetica,sans-Serif" font-size="10.00">ConfigManager::convert</text>
<text text-anchor="middle" x="538.5" y="-50" font-family="Helvetica,sans-Serif" font-size="10.00">_value</text>
</a>
</g>
</g>
<!-- Node1&#45;&gt;Node2 -->
<g id="edge1_Node000001_Node000002" class="edge">
<title>Node1&#45;&gt;Node2</title>
<g id="a_edge1_Node000001_Node000002"><a xlink:title=" ">
<path fill="none" stroke="#63b8ff" d="M116.22,-78.06C131.18,-81.74 147.62,-85.15 163,-87 266.17,-99.39 386,-85.12 461.78,-72.58"/>
<polygon fill="#63b8ff" stroke="#63b8ff" points="462.44,-76.02 471.71,-70.9 461.27,-69.11 462.44,-76.02"/>
</a>
</g>
</g>
<!-- Node3 -->
<g id="Node000003" class="node">
<title>Node3</title>
<g id="a_Node000003"><a xlink:href="group__ConfigUtilities.html#gac3e49e311008abed27ce54b805f5f925" target="_top" xlink:title="Get user&#39;s home directory path.">
<polygon fill="white" stroke="#666666" points="288,-78 163,-78 163,-48 288,-48 288,-78"/>
<text text-anchor="start" x="171" y="-66" font-family="Helvetica,sans-Serif" font-size="10.00">ConfigManager::get</text>
<text text-anchor="middle" x="225.5" y="-55" font-family="Helvetica,sans-Serif" font-size="10.00">_user_home_directory</text>
</a>
</g>
</g>
<!-- Node1&#45;&gt;Node3 -->
<g id="edge2_Node000001_Node000003" class="edge">
<title>Node1&#45;&gt;Node3</title>
<g id="a_edge2_Node000001_Node000003"><a xlink:title=" ">
<path fill="none" stroke="#63b8ff" d="M127.28,-63C135.62,-63 144.22,-63 152.7,-63"/>
<polygon fill="#63b8ff" stroke="#63b8ff" points="152.95,-66.5 162.95,-63 152.95,-59.5 152.95,-66.5"/>
</a>
</g>
</g>
<!-- Node4 -->
<g id="Node000004" class="node">
<title>Node4</title>
<g id="a_Node000004"><a xlink:href="group__ConfigStatus.html#ga7c7cdb2c9c181a160a58bfe1b87284f8" target="_top" xlink:title="Print complete configuration file template.">
<polygon fill="white" stroke="#666666" points="286,-30 165,-30 165,0 286,0 286,-30"/>
<text text-anchor="start" x="173" y="-18" font-family="Helvetica,sans-Serif" font-size="10.00">ConfigManager::print</text>
<text text-anchor="middle" x="225.5" y="-7" font-family="Helvetica,sans-Serif" font-size="10.00">_config_file_template</text>
</a>
</g>
</g>
<!-- Node1&#45;&gt;Node4 -->
<g id="edge3_Node000001_Node000004" class="edge">
<title>Node1&#45;&gt;Node4</title>
<g id="a_edge3_Node000001_Node000004"><a xlink:title=" ">
<path fill="none" stroke="#63b8ff" d="M114.69,-47.94C130.47,-43.21 148.07,-37.93 164.46,-33.01"/>
<polygon fill="#63b8ff" stroke="#63b8ff" points="165.92,-36.23 174.49,-30 163.91,-29.52 165.92,-36.23"/>
</a>
</g>
</g>
<!-- Node4&#45;&gt;Node2 -->
<g id="edge4_Node000004_Node000002" class="edge">
<title>Node4&#45;&gt;Node2</title>
<g id="a_edge4_Node000004_Node000002"><a xlink:title=" ">
<path fill="none" stroke="#63b8ff" d="M281.37,-30.06C295.2,-33.43 310.07,-36.68 324,-39 369.34,-46.55 420.64,-51.24 461.59,-54.07"/>
<polygon fill="#63b8ff" stroke="#63b8ff" points="461.55,-57.58 471.76,-54.75 462.02,-50.59 461.55,-57.58"/>
</a>
</g>
</g>
<!-- Node5 -->
<g id="Node000005" class="node">
<title>Node5</title>
<g id="a_Node000005"><a xlink:href="group__ConfigQueries.html#ga3a9a6a1e548b293dd0672222a18594eb" target="_top" xlink:title="Get all configuration keys belonging to a specific category.">
<polygon fill="white" stroke="#666666" points="436,-30 324,-30 324,0 436,0 436,-30"/>
<text text-anchor="start" x="332" y="-18" font-family="Helvetica,sans-Serif" font-size="10.00">ConfigManager::get</text>
<text text-anchor="middle" x="380" y="-7" font-family="Helvetica,sans-Serif" font-size="10.00">_keys_by_category</text>
</a>
</g>
</g>
<!-- Node4&#45;&gt;Node5 -->
<g id="edge5_Node000004_Node000005" class="edge">
<title>Node4&#45;&gt;Node5</title>
<g id="a_edge5_Node000004_Node000005"><a xlink:title=" ">
<path fill="none" stroke="#63b8ff" d="M286.33,-15C295.31,-15 304.6,-15 313.68,-15"/>
<polygon fill="#63b8ff" stroke="#63b8ff" points="313.81,-18.5 323.81,-15 313.81,-11.5 313.81,-18.5"/>
</a>
</g>
</g>
<!-- Node5&#45;&gt;Node2 -->
<g id="edge6_Node000005_Node000002" class="edge">
<title>Node5&#45;&gt;Node2</title>
<g id="a_edge6_Node000005_Node000002"><a xlink:title=" ">
<path fill="none" stroke="#63b8ff" d="M435.74,-30.04C447.77,-33.35 460.62,-36.88 473,-40.28"/>
<polygon fill="#63b8ff" stroke="#63b8ff" points="472.22,-43.69 482.79,-42.97 474.08,-36.94 472.22,-43.69"/>
</a>
</g>
</g>
</g>
</svg>
