<?xml version="1.0" encoding="UTF-8" standalone="no"?>
<!DOCTYPE svg PUBLIC "-//W3C//DTD SVG 1.1//EN"
 "http://www.w3.org/Graphics/SVG/1.1/DTD/svg11.dtd">
<!-- Generated by graphviz version 2.43.0 (0)
 -->
<!-- Title: printResourceUsage Pages: 1 -->
<svg width="735pt" height="246pt"
 viewBox="0.00 0.00 735.00 246.00" xmlns="http://www.w3.org/2000/svg" xmlns:xlink="http://www.w3.org/1999/xlink">
<g id="graph0" class="graph" transform="scale(1 1) rotate(0) translate(4 242)">
<title>printResourceUsage</title>
<!-- Node1 -->
<g id="Node000001" class="node">
<title>Node1</title>
<g id="a_Node000001"><a xlink:title="Print resource usage statistics from processing context.">
<polygon fill="#999999" stroke="#666666" points="727,-120 612,-120 612,-101 727,-101 727,-120"/>
<text text-anchor="middle" x="669.5" y="-108" font-family="Helvetica,sans-Serif" font-size="10.00">printResourceUsage</text>
</a>
</g>
</g>
<!-- Node2 -->
<g id="Node000002" class="node">
<title>Node2</title>
<g id="a_Node000002"><a xlink:href="group__ModuleExecutors.html#ga5f1a9bdbc166546e200c5bbb2aa5db30" target="_top" xlink:title=" ">
<polygon fill="white" stroke="#666666" points="393.5,-238 233.5,-238 233.5,-219 393.5,-219 393.5,-238"/>
<text text-anchor="middle" x="313.5" y="-226" font-family="Helvetica,sans-Serif" font-size="10.00">execute_check_all_command</text>
</a>
</g>
</g>
<!-- Node1&#45;&gt;Node2 -->
<g id="edge1_Node000001_Node000002" class="edge">
<title>Node1&#45;&gt;Node2</title>
<g id="a_edge1_Node000001_Node000002"><a xlink:title=" ">
<path fill="none" stroke="#63b8ff" d="M646.35,-125.83C628.16,-137.82 601.36,-154.14 576,-164.5 509.59,-191.64 428.8,-209.25 374.76,-218.99"/>
<polygon fill="#63b8ff" stroke="#63b8ff" points="648.67,-128.49 655.03,-120.01 644.77,-122.68 648.67,-128.49"/>
</a>
</g>
</g>
<!-- Node5 -->
<g id="Node000005" class="node">
<title>Node5</title>
<g id="a_Node000005"><a xlink:href="group__ModuleExecutors.html#ga97d4d0bad6dab32f1d5b92d4ea09c80b" target="_top" xlink:title=" ">
<polygon fill="white" stroke="#666666" points="372.5,-200.5 254.5,-200.5 254.5,-170.5 372.5,-170.5 372.5,-200.5"/>
<text text-anchor="start" x="262.5" y="-188.5" font-family="Helvetica,sans-Serif" font-size="10.00">execute_check_done</text>
<text text-anchor="middle" x="313.5" y="-177.5" font-family="Helvetica,sans-Serif" font-size="10.00">_command</text>
</a>
</g>
</g>
<!-- Node1&#45;&gt;Node5 -->
<g id="edge5_Node000001_Node000005" class="edge">
<title>Node1&#45;&gt;Node5</title>
<g id="a_edge5_Node000001_Node000005"><a xlink:title=" ">
<path fill="none" stroke="#63b8ff" d="M626.97,-123.02C611.1,-127.58 592.79,-132.58 576,-136.5 506.62,-152.72 425.91,-167.18 372.71,-176.12"/>
<polygon fill="#63b8ff" stroke="#63b8ff" points="628.38,-126.26 637,-120.1 626.42,-119.54 628.38,-126.26"/>
</a>
</g>
</g>
<!-- Node6 -->
<g id="Node000006" class="node">
<title>Node6</title>
<g id="a_Node000006"><a xlink:href="group__ModuleExecutors.html#ga530afea0ae66ae1aef943507742b3125" target="_top" xlink:title=" ">
<polygon fill="white" stroke="#666666" points="374.5,-152.5 252.5,-152.5 252.5,-122.5 374.5,-122.5 374.5,-152.5"/>
<text text-anchor="start" x="260.5" y="-140.5" font-family="Helvetica,sans-Serif" font-size="10.00">execute_check_errors</text>
<text text-anchor="middle" x="313.5" y="-129.5" font-family="Helvetica,sans-Serif" font-size="10.00">_command</text>
</a>
</g>
</g>
<!-- Node1&#45;&gt;Node6 -->
<g id="edge8_Node000001_Node000006" class="edge">
<title>Node1&#45;&gt;Node6</title>
<g id="a_edge8_Node000001_Node000006"><a xlink:title=" ">
<path fill="none" stroke="#63b8ff" d="M601.43,-115.62C536.11,-120.6 437.7,-128.1 374.79,-132.9"/>
<polygon fill="#63b8ff" stroke="#63b8ff" points="601.92,-119.09 611.62,-114.84 601.39,-112.11 601.92,-119.09"/>
</a>
</g>
</g>
<!-- Node7 -->
<g id="Node000007" class="node">
<title>Node7</title>
<g id="a_Node000007"><a xlink:href="group__ModuleExecutors.html#ga4f5c061099b04712ebc615b32108fdd5" target="_top" xlink:title=" ">
<polygon fill="white" stroke="#666666" points="385,-104.5 242,-104.5 242,-74.5 385,-74.5 385,-104.5"/>
<text text-anchor="start" x="250" y="-92.5" font-family="Helvetica,sans-Serif" font-size="10.00">execute_check_imaginary</text>
<text text-anchor="middle" x="313.5" y="-81.5" font-family="Helvetica,sans-Serif" font-size="10.00">_command</text>
</a>
</g>
</g>
<!-- Node1&#45;&gt;Node7 -->
<g id="edge11_Node000001_Node000007" class="edge">
<title>Node1&#45;&gt;Node7</title>
<g id="a_edge11_Node000001_Node000007"><a xlink:title=" ">
<path fill="none" stroke="#63b8ff" d="M601.59,-106.53C539.78,-102.86 448.27,-97.44 385.27,-93.7"/>
<polygon fill="#63b8ff" stroke="#63b8ff" points="601.43,-110.03 611.62,-107.13 601.85,-103.04 601.43,-110.03"/>
</a>
</g>
</g>
<!-- Node8 -->
<g id="Node000008" class="node">
<title>Node8</title>
<g id="a_Node000008"><a xlink:href="group__ModuleExecutors.html#ga02765a7766f40fab78024f30a1b3f9ff" target="_top" xlink:title=" ">
<polygon fill="white" stroke="#666666" points="398,-56 229,-56 229,-37 398,-37 398,-56"/>
<text text-anchor="middle" x="313.5" y="-44" font-family="Helvetica,sans-Serif" font-size="10.00">execute_check_pcm_command</text>
</a>
</g>
</g>
<!-- Node1&#45;&gt;Node8 -->
<g id="edge14_Node000001_Node000008" class="edge">
<title>Node1&#45;&gt;Node8</title>
<g id="a_edge14_Node000001_Node000008"><a xlink:title=" ">
<path fill="none" stroke="#63b8ff" d="M610.61,-99.07C599.15,-96.85 587.2,-94.57 576,-92.5 505.18,-79.38 423.39,-65.14 370.41,-56.03"/>
<polygon fill="#63b8ff" stroke="#63b8ff" points="610.04,-102.52 620.52,-100.99 611.37,-95.65 610.04,-102.52"/>
</a>
</g>
</g>
<!-- Node9 -->
<g id="Node000009" class="node">
<title>Node9</title>
<g id="a_Node000009"><a xlink:href="group__MemoryMonitorImpl.html#ga2f3e6563006e068b95ebf65b9942ccee" target="_top" xlink:title="Process multiple files and output formatted results.">
<polygon fill="white" stroke="#666666" points="576,-22 434,-22 434,-3 576,-3 576,-22"/>
<text text-anchor="middle" x="505" y="-10" font-family="Helvetica,sans-Serif" font-size="10.00">processAndOutputResults</text>
</a>
</g>
</g>
<!-- Node1&#45;&gt;Node9 -->
<g id="edge17_Node000001_Node000009" class="edge">
<title>Node1&#45;&gt;Node9</title>
<g id="a_edge17_Node000001_Node000009"><a xlink:title=" ">
<path fill="none" stroke="#63b8ff" d="M650.6,-93.84C632.78,-77.95 604.11,-54.17 576,-38.5 564.11,-31.87 550.2,-26.31 537.92,-22.05"/>
<polygon fill="#63b8ff" stroke="#63b8ff" points="648.67,-96.82 658.43,-100.94 653.37,-91.63 648.67,-96.82"/>
</a>
</g>
</g>
<!-- Node3 -->
<g id="Node000003" class="node">
<title>Node3</title>
<g id="a_Node000003"><a xlink:href="main_8cpp.html#a0ddf1224851353fc92bfbff6f499fa97" target="_top" xlink:title="Main entry point for the Gaussian Extractor application.">
<polygon fill="white" stroke="#666666" points="41,-128 0,-128 0,-109 41,-109 41,-128"/>
<text text-anchor="middle" x="20.5" y="-116" font-family="Helvetica,sans-Serif" font-size="10.00">main</text>
</a>
</g>
</g>
<!-- Node2&#45;&gt;Node3 -->
<g id="edge2_Node000002_Node000003" class="edge">
<title>Node2&#45;&gt;Node3</title>
<g id="a_edge2_Node000002_Node000003"><a xlink:title=" ">
<path fill="none" stroke="#63b8ff" d="M223.35,-223.71C177.18,-218.02 121.34,-205.94 77,-180.5 54.44,-167.56 36.17,-142.16 27.31,-128.23"/>
<polygon fill="#63b8ff" stroke="#63b8ff" points="223.01,-227.19 233.35,-224.86 223.81,-220.24 223.01,-227.19"/>
</a>
</g>
</g>
<!-- Node4 -->
<g id="Node000004" class="node">
<title>Node4</title>
<g id="a_Node000004"><a xlink:href="interactive__mode_8cpp.html#a6b615c34054150d837dc45ed1c17b297" target="_top" xlink:title="Enhanced interactive command loop with TAB completion for Windows.">
<polygon fill="white" stroke="#666666" points="193,-128 77,-128 77,-109 193,-109 193,-128"/>
<text text-anchor="middle" x="135" y="-116" font-family="Helvetica,sans-Serif" font-size="10.00">run_interactive_loop</text>
</a>
</g>
</g>
<!-- Node2&#45;&gt;Node4 -->
<g id="edge3_Node000002_Node000004" class="edge">
<title>Node2&#45;&gt;Node4</title>
<g id="a_edge3_Node000002_Node000004"><a xlink:title=" ">
<path fill="none" stroke="#63b8ff" d="M242.46,-215.66C237.8,-213.86 233.26,-211.82 229,-209.5 190.52,-188.52 156.95,-147.08 142.95,-128.24"/>
<polygon fill="#63b8ff" stroke="#63b8ff" points="241.59,-219.06 252.18,-218.99 243.86,-212.43 241.59,-219.06"/>
</a>
</g>
</g>
<!-- Node4&#45;&gt;Node3 -->
<g id="edge4_Node000004_Node000003" class="edge">
<title>Node4&#45;&gt;Node3</title>
<g id="a_edge4_Node000004_Node000003"><a xlink:title=" ">
<path fill="none" stroke="#63b8ff" d="M66.62,-118.5C57.37,-118.5 48.55,-118.5 41.19,-118.5"/>
<polygon fill="#63b8ff" stroke="#63b8ff" points="66.76,-122 76.76,-118.5 66.76,-115 66.76,-122"/>
</a>
</g>
</g>
<!-- Node5&#45;&gt;Node3 -->
<g id="edge6_Node000005_Node000003" class="edge">
<title>Node5&#45;&gt;Node3</title>
<g id="a_edge6_Node000005_Node000003"><a xlink:title=" ">
<path fill="none" stroke="#63b8ff" d="M243.88,-184.43C195.85,-181.79 130.89,-174.36 77,-154.5 60.4,-148.38 43.69,-136.6 33.01,-128.18"/>
<polygon fill="#63b8ff" stroke="#63b8ff" points="244.01,-187.94 254.17,-184.94 244.36,-180.95 244.01,-187.94"/>
</a>
</g>
</g>
<!-- Node5&#45;&gt;Node4 -->
<g id="edge7_Node000005_Node000004" class="edge">
<title>Node5&#45;&gt;Node4</title>
<g id="a_edge7_Node000005_Node000004"><a xlink:title=" ">
<path fill="none" stroke="#63b8ff" d="M245.85,-167.34C240.12,-165.48 234.43,-163.52 229,-161.5 202.5,-151.63 173.04,-137.43 154.52,-128.09"/>
<polygon fill="#63b8ff" stroke="#63b8ff" points="244.94,-170.72 255.52,-170.39 247.04,-164.05 244.94,-170.72"/>
</a>
</g>
</g>
<!-- Node6&#45;&gt;Node3 -->
<g id="edge9_Node000006_Node000003" class="edge">
<title>Node6&#45;&gt;Node3</title>
<g id="a_edge9_Node000006_Node000003"><a xlink:title=" ">
<path fill="none" stroke="#63b8ff" d="M241.95,-143.52C194.9,-146.06 131.86,-146.63 77,-137.5 64.74,-135.46 51.56,-131.05 41.13,-126.99"/>
<polygon fill="#63b8ff" stroke="#63b8ff" points="242.26,-147 252.04,-142.93 241.85,-140.02 242.26,-147"/>
</a>
</g>
</g>
<!-- Node6&#45;&gt;Node4 -->
<g id="edge10_Node000006_Node000004" class="edge">
<title>Node6&#45;&gt;Node4</title>
<g id="a_edge10_Node000006_Node000004"><a xlink:title=" ">
<path fill="none" stroke="#63b8ff" d="M242.27,-129.94C226.02,-128.19 208.92,-126.35 193.3,-124.67"/>
<polygon fill="#63b8ff" stroke="#63b8ff" points="241.94,-133.42 252.25,-131.01 242.68,-126.46 241.94,-133.42"/>
</a>
</g>
</g>
<!-- Node7&#45;&gt;Node3 -->
<g id="edge12_Node000007_Node000003" class="edge">
<title>Node7&#45;&gt;Node3</title>
<g id="a_edge12_Node000007_Node000003"><a xlink:title=" ">
<path fill="none" stroke="#63b8ff" d="M231.72,-87.98C185.98,-88.43 127.91,-91.23 77,-100.5 64.84,-102.71 51.67,-106.91 41.21,-110.69"/>
<polygon fill="#63b8ff" stroke="#63b8ff" points="231.9,-91.47 241.87,-87.91 231.85,-84.47 231.9,-91.47"/>
</a>
</g>
</g>
<!-- Node7&#45;&gt;Node4 -->
<g id="edge13_Node000007_Node000004" class="edge">
<title>Node7&#45;&gt;Node4</title>
<g id="a_edge13_Node000007_Node000004"><a xlink:title=" ">
<path fill="none" stroke="#63b8ff" d="M232.01,-102.73C218.88,-104.88 205.53,-107.08 193.12,-109.12"/>
<polygon fill="#63b8ff" stroke="#63b8ff" points="232.68,-106.16 241.98,-101.09 231.55,-99.25 232.68,-106.16"/>
</a>
</g>
</g>
<!-- Node8&#45;&gt;Node3 -->
<g id="edge15_Node000008_Node000003" class="edge">
<title>Node8&#45;&gt;Node3</title>
<g id="a_edge15_Node000008_Node000003"><a xlink:title=" ">
<path fill="none" stroke="#63b8ff" d="M218.62,-53.19C174.59,-58.45 122.04,-67.81 77,-84.5 61.11,-90.39 44.78,-101.05 33.99,-108.87"/>
<polygon fill="#63b8ff" stroke="#63b8ff" points="219.21,-56.65 228.75,-52.04 218.41,-49.7 219.21,-56.65"/>
</a>
</g>
</g>
<!-- Node8&#45;&gt;Node4 -->
<g id="edge16_Node000008_Node000004" class="edge">
<title>Node8&#45;&gt;Node4</title>
<g id="a_edge16_Node000008_Node000004"><a xlink:title=" ">
<path fill="none" stroke="#63b8ff" d="M249.93,-58.61C242.78,-60.62 235.67,-62.91 229,-65.5 199.21,-77.08 167.47,-97.03 149.85,-108.87"/>
<polygon fill="#63b8ff" stroke="#63b8ff" points="250.9,-61.97 259.68,-56.04 249.11,-55.21 250.9,-61.97"/>
</a>
</g>
</g>
<!-- Node10 -->
<g id="Node000010" class="node">
<title>Node10</title>
<g id="a_Node000010"><a xlink:href="group__ModuleExecutors.html#gaa356f7897fc875da426df1cf3c9c5b99" target="_top" xlink:title=" ">
<polygon fill="white" stroke="#666666" points="388,-19 239,-19 239,0 388,0 388,-19"/>
<text text-anchor="middle" x="313.5" y="-7" font-family="Helvetica,sans-Serif" font-size="10.00">execute_extract_command</text>
</a>
</g>
</g>
<!-- Node9&#45;&gt;Node10 -->
<g id="edge18_Node000009_Node000010" class="edge">
<title>Node9&#45;&gt;Node10</title>
<g id="a_edge18_Node000009_Node000010"><a xlink:title=" ">
<path fill="none" stroke="#63b8ff" d="M423.68,-11.23C411.86,-11.04 399.73,-10.85 388.05,-10.66"/>
<polygon fill="#63b8ff" stroke="#63b8ff" points="423.92,-14.73 433.98,-11.39 424.03,-7.73 423.92,-14.73"/>
</a>
</g>
</g>
<!-- Node10&#45;&gt;Node3 -->
<g id="edge19_Node000010_Node000003" class="edge">
<title>Node10&#45;&gt;Node3</title>
<g id="a_edge19_Node000010_Node000003"><a xlink:title=" ">
<path fill="none" stroke="#63b8ff" d="M228.59,-11.02C181.33,-15.14 122.79,-25.91 77,-52.5 53.44,-66.18 35.33,-93.77 26.82,-108.57"/>
<polygon fill="#63b8ff" stroke="#63b8ff" points="229.1,-14.49 238.8,-10.22 228.56,-7.51 229.1,-14.49"/>
</a>
</g>
</g>
<!-- Node10&#45;&gt;Node4 -->
<g id="edge20_Node000010_Node000004" class="edge">
<title>Node10&#45;&gt;Node4</title>
<g id="a_edge20_Node000010_Node000004"><a xlink:title=" ">
<path fill="none" stroke="#63b8ff" d="M239.97,-22.42C236.18,-23.93 232.5,-25.62 229,-27.5 190.4,-48.26 156.9,-89.81 142.93,-108.73"/>
<polygon fill="#63b8ff" stroke="#63b8ff" points="241.3,-25.66 249.56,-19.02 238.96,-19.07 241.3,-25.66"/>
</a>
</g>
</g>
</g>
</svg>
