<?xml version="1.0" encoding="UTF-8" standalone="no"?>
<!DOCTYPE svg PUBLIC "-//W3C//DTD SVG 1.1//EN"
 "http://www.w3.org/Graphics/SVG/1.1/DTD/svg11.dtd">
<!-- Generated by graphviz version 2.43.0 (0)
 -->
<!-- Title: HighLevelEnergyCalculator::print_components_csv_format Pages: 1 -->
<svg width="553pt" height="52pt"
 viewBox="0.00 0.00 553.00 51.50" xmlns="http://www.w3.org/2000/svg" xmlns:xlink="http://www.w3.org/1999/xlink">
<g id="graph0" class="graph" transform="scale(1 1) rotate(0) translate(4 47.5)">
<title>HighLevelEnergyCalculator::print_components_csv_format</title>
<!-- Node1 -->
<g id="Node000001" class="node">
<title>Node1</title>
<g id="a_Node000001"><a xlink:title="Print results in CSV format with detailed energy components.">
<polygon fill="#999999" stroke="#666666" points="545,-43.5 375,-43.5 375,-13.5 545,-13.5 545,-43.5"/>
<text text-anchor="start" x="383" y="-31.5" font-family="Helvetica,sans-Serif" font-size="10.00">HighLevelEnergyCalculator</text>
<text text-anchor="middle" x="460" y="-20.5" font-family="Helvetica,sans-Serif" font-size="10.00">::print_components_csv_format</text>
</a>
</g>
</g>
<!-- Node2 -->
<g id="Node000002" class="node">
<title>Node2</title>
<g id="a_Node000002"><a xlink:href="group__ModuleExecutors.html#gab1aa2594a8bb3d2789d37593f69cbc5e" target="_top" xlink:title=" ">
<polygon fill="white" stroke="#666666" points="339,-43.5 229,-43.5 229,-13.5 339,-13.5 339,-43.5"/>
<text text-anchor="start" x="237" y="-31.5" font-family="Helvetica,sans-Serif" font-size="10.00">execute_high_level</text>
<text text-anchor="middle" x="284" y="-20.5" font-family="Helvetica,sans-Serif" font-size="10.00">_au_command</text>
</a>
</g>
</g>
<!-- Node1&#45;&gt;Node2 -->
<g id="edge1_Node000001_Node000002" class="edge">
<title>Node1&#45;&gt;Node2</title>
<g id="a_edge1_Node000001_Node000002"><a xlink:title=" ">
<path fill="none" stroke="#63b8ff" d="M364.56,-28.5C355.86,-28.5 347.25,-28.5 339.1,-28.5"/>
<polygon fill="#63b8ff" stroke="#63b8ff" points="364.8,-32 374.8,-28.5 364.8,-25 364.8,-32"/>
</a>
</g>
</g>
<!-- Node3 -->
<g id="Node000003" class="node">
<title>Node3</title>
<g id="a_Node000003"><a xlink:href="main_8cpp.html#a0ddf1224851353fc92bfbff6f499fa97" target="_top" xlink:title="Main entry point for the Gaussian Extractor application.">
<polygon fill="white" stroke="#666666" points="41,-38 0,-38 0,-19 41,-19 41,-38"/>
<text text-anchor="middle" x="20.5" y="-26" font-family="Helvetica,sans-Serif" font-size="10.00">main</text>
</a>
</g>
</g>
<!-- Node2&#45;&gt;Node3 -->
<g id="edge2_Node000002_Node000003" class="edge">
<title>Node2&#45;&gt;Node3</title>
<g id="a_edge2_Node000002_Node000003"><a xlink:title=" ">
<path fill="none" stroke="#63b8ff" d="M218.62,-28.5C160.47,-28.5 78.49,-28.5 41.27,-28.5"/>
<polygon fill="#63b8ff" stroke="#63b8ff" points="218.82,-32 228.82,-28.5 218.82,-25 218.82,-32"/>
</a>
</g>
</g>
<!-- Node4 -->
<g id="Node000004" class="node">
<title>Node4</title>
<g id="a_Node000004"><a xlink:href="interactive__mode_8cpp.html#a6b615c34054150d837dc45ed1c17b297" target="_top" xlink:title="Enhanced interactive command loop with TAB completion for Windows.">
<polygon fill="white" stroke="#666666" points="193,-19 77,-19 77,0 193,0 193,-19"/>
<text text-anchor="middle" x="135" y="-7" font-family="Helvetica,sans-Serif" font-size="10.00">run_interactive_loop</text>
</a>
</g>
</g>
<!-- Node2&#45;&gt;Node4 -->
<g id="edge3_Node000002_Node000004" class="edge">
<title>Node2&#45;&gt;Node4</title>
<g id="a_edge3_Node000002_Node000004"><a xlink:title=" ">
<path fill="none" stroke="#63b8ff" d="M218.75,-20.2C210.19,-19.09 201.47,-17.96 193.05,-16.87"/>
<polygon fill="#63b8ff" stroke="#63b8ff" points="218.31,-23.67 228.68,-21.48 219.21,-16.73 218.31,-23.67"/>
</a>
</g>
</g>
<!-- Node4&#45;&gt;Node3 -->
<g id="edge4_Node000004_Node000003" class="edge">
<title>Node4&#45;&gt;Node3</title>
<g id="a_edge4_Node000004_Node000003"><a xlink:title=" ">
<path fill="none" stroke="#63b8ff" d="M67.4,-20.75C57.88,-22.36 48.77,-23.89 41.22,-25.17"/>
<polygon fill="#63b8ff" stroke="#63b8ff" points="68.14,-24.17 77.42,-19.06 66.98,-17.27 68.14,-24.17"/>
</a>
</g>
</g>
</g>
</svg>
