<?xml version="1.0" encoding="UTF-8" standalone="no"?>
<!DOCTYPE svg PUBLIC "-//W3C//DTD SVG 1.1//EN"
 "http://www.w3.org/Graphics/SVG/1.1/DTD/svg11.dtd">
<!-- Generated by graphviz version 2.43.0 (0)
 -->
<!-- Title: HighLevelEnergyCalculator::process_files_with_thread_pool Pages: 1 -->
<svg width="965pt" height="450pt"
 viewBox="0.00 0.00 965.00 450.00" xmlns="http://www.w3.org/2000/svg" xmlns:xlink="http://www.w3.org/1999/xlink">
<g id="graph0" class="graph" transform="scale(1 1) rotate(0) translate(4 446)">
<title>HighLevelEnergyCalculator::process_files_with_thread_pool</title>
<!-- Node1 -->
<g id="Node000001" class="node">
<title>Node1</title>
<g id="a_Node000001"><a xlink:title="Enhanced parallel processing using thread pool.">
<polygon fill="#999999" stroke="#666666" points="175,-214 0,-214 0,-184 175,-184 175,-214"/>
<text text-anchor="start" x="8" y="-202" font-family="Helvetica,sans-Serif" font-size="10.00">HighLevelEnergyCalculator</text>
<text text-anchor="middle" x="87.5" y="-191" font-family="Helvetica,sans-Serif" font-size="10.00">::process_files_with_thread_pool</text>
</a>
</g>
</g>
<!-- Node2 -->
<g id="Node000002" class="node">
<title>Node2</title>
<g id="a_Node000002"><a xlink:href="group__MainCalculation.html#gacaba75cc61d8b3ec08efd5976ce4325f" target="_top" xlink:title="Calculate high&#45;level energy for a single file.">
<polygon fill="white" stroke="#666666" points="372,-236 211,-236 211,-206 372,-206 372,-236"/>
<text text-anchor="start" x="219" y="-224" font-family="Helvetica,sans-Serif" font-size="10.00">HighLevelEnergyCalculator</text>
<text text-anchor="middle" x="291.5" y="-213" font-family="Helvetica,sans-Serif" font-size="10.00">::calculate_high_level_energy</text>
</a>
</g>
</g>
<!-- Node1&#45;&gt;Node2 -->
<g id="edge1_Node000001_Node000002" class="edge">
<title>Node1&#45;&gt;Node2</title>
<g id="a_edge1_Node000001_Node000002"><a xlink:title=" ">
<path fill="none" stroke="#63b8ff" d="M175.05,-208.43C183.59,-209.36 192.27,-210.3 200.85,-211.24"/>
<polygon fill="#63b8ff" stroke="#63b8ff" points="200.52,-214.72 210.84,-212.32 201.28,-207.76 200.52,-214.72"/>
</a>
</g>
</g>
<!-- Node21 -->
<g id="Node000021" class="node">
<title>Node21</title>
<g id="a_Node000021"><a xlink:href="classFileContentCache.html#a3d01efe01d3c3c5c2d9b04bdc0064df0" target="_top" xlink:title=" ">
<polygon fill="white" stroke="#666666" points="357.5,-187.5 225.5,-187.5 225.5,-168.5 357.5,-168.5 357.5,-187.5"/>
<text text-anchor="middle" x="291.5" y="-175.5" font-family="Helvetica,sans-Serif" font-size="10.00">FileContentCache::clear</text>
</a>
</g>
</g>
<!-- Node1&#45;&gt;Node21 -->
<g id="edge24_Node000001_Node000021" class="edge">
<title>Node1&#45;&gt;Node21</title>
<g id="a_edge24_Node000001_Node000021"><a xlink:title=" ">
<path fill="none" stroke="#63b8ff" d="M175.05,-190C188.31,-188.62 201.92,-187.21 214.92,-185.86"/>
<polygon fill="#63b8ff" stroke="#63b8ff" points="215.62,-189.3 225.2,-184.79 214.89,-182.34 215.62,-189.3"/>
</a>
</g>
</g>
<!-- Node3 -->
<g id="Node000003" class="node">
<title>Node3</title>
<g id="a_Node000003"><a xlink:href="group__CalculationHelpers.html#ga77837f5437ca34aa38ba7c9518d85480" target="_top" xlink:title="Calculate phase correction for concentration effects.">
<polygon fill="white" stroke="#666666" points="575,-442 420,-442 420,-412 575,-412 575,-442"/>
<text text-anchor="start" x="428" y="-430" font-family="Helvetica,sans-Serif" font-size="10.00">HighLevelEnergyCalculator</text>
<text text-anchor="middle" x="497.5" y="-419" font-family="Helvetica,sans-Serif" font-size="10.00">::calculate_phase_correction</text>
</a>
</g>
</g>
<!-- Node2&#45;&gt;Node3 -->
<g id="edge2_Node000002_Node000003" class="edge">
<title>Node2&#45;&gt;Node3</title>
<g id="a_edge2_Node000002_Node000003"><a xlink:title=" ">
<path fill="none" stroke="#63b8ff" d="M297.72,-236.15C310.6,-271.2 347.29,-358.27 408,-403 409.87,-404.38 411.82,-405.68 413.83,-406.91"/>
<polygon fill="#63b8ff" stroke="#63b8ff" points="412.51,-410.17 422.98,-411.82 415.83,-404.01 412.51,-410.17"/>
</a>
</g>
</g>
<!-- Node4 -->
<g id="Node000004" class="node">
<title>Node4</title>
<g id="a_Node000004"><a xlink:href="group__CalculationHelpers.html#ga375d0ec0aea5fde065c700c0d4ef8a62" target="_top" xlink:title="Calculate thermal correction excluding zero&#45;point energy.">
<polygon fill="white" stroke="#666666" points="572,-394 423,-394 423,-364 572,-364 572,-394"/>
<text text-anchor="start" x="431" y="-382" font-family="Helvetica,sans-Serif" font-size="10.00">HighLevelEnergyCalculator</text>
<text text-anchor="middle" x="497.5" y="-371" font-family="Helvetica,sans-Serif" font-size="10.00">::calculate_thermal_only</text>
</a>
</g>
</g>
<!-- Node2&#45;&gt;Node4 -->
<g id="edge3_Node000002_Node000004" class="edge">
<title>Node2&#45;&gt;Node4</title>
<g id="a_edge3_Node000002_Node000004"><a xlink:title=" ">
<path fill="none" stroke="#63b8ff" d="M301.19,-236.04C318.08,-263.91 358.1,-323.57 408,-355 410.61,-356.64 413.33,-358.18 416.13,-359.61"/>
<polygon fill="#63b8ff" stroke="#63b8ff" points="414.77,-362.83 425.31,-363.82 417.69,-356.47 414.77,-362.83"/>
</a>
</g>
</g>
<!-- Node5 -->
<g id="Node000005" class="node">
<title>Node5</title>
<g id="a_Node000005"><a xlink:href="group__CalculationHelpers.html#ga94758e5fb907b423285c3b2c2ba8ee97" target="_top" xlink:title="Determine job completion status from log file.">
<polygon fill="white" stroke="#666666" points="572,-346 423,-346 423,-316 572,-316 572,-346"/>
<text text-anchor="start" x="431" y="-334" font-family="Helvetica,sans-Serif" font-size="10.00">HighLevelEnergyCalculator</text>
<text text-anchor="middle" x="497.5" y="-323" font-family="Helvetica,sans-Serif" font-size="10.00">::determine_job_status</text>
</a>
</g>
</g>
<!-- Node2&#45;&gt;Node5 -->
<g id="edge4_Node000002_Node000005" class="edge">
<title>Node2&#45;&gt;Node5</title>
<g id="a_edge4_Node000002_Node000005"><a xlink:title=" ">
<path fill="none" stroke="#63b8ff" d="M310.63,-236.29C332.51,-254.11 370.99,-283.47 408,-302 415.77,-305.89 424.19,-309.43 432.62,-312.59"/>
<polygon fill="#63b8ff" stroke="#63b8ff" points="431.54,-315.91 442.13,-315.99 433.9,-309.32 431.54,-315.91"/>
</a>
</g>
</g>
<!-- Node8 -->
<g id="Node000008" class="node">
<title>Node8</title>
<g id="a_Node000008"><a xlink:href="group__EnergyExtraction.html#gaa64c4afe3577a5e147f0c3837d10a021" target="_top" xlink:title="Extract thermal correction data from low&#45;level calculation.">
<polygon fill="white" stroke="#666666" points="587,-212 408,-212 408,-182 587,-182 587,-212"/>
<text text-anchor="start" x="416" y="-200" font-family="Helvetica,sans-Serif" font-size="10.00">HighLevelEnergyCalculator</text>
<text text-anchor="middle" x="497.5" y="-189" font-family="Helvetica,sans-Serif" font-size="10.00">::extract_low_level_thermal_data</text>
</a>
</g>
</g>
<!-- Node2&#45;&gt;Node8 -->
<g id="edge7_Node000002_Node000008" class="edge">
<title>Node2&#45;&gt;Node8</title>
<g id="a_edge7_Node000002_Node000008"><a xlink:title=" ">
<path fill="none" stroke="#63b8ff" d="M372.25,-211.62C380.6,-210.64 389.16,-209.63 397.7,-208.62"/>
<polygon fill="#63b8ff" stroke="#63b8ff" points="398.16,-212.09 407.69,-207.45 397.35,-205.14 398.16,-212.09"/>
</a>
</g>
</g>
<!-- Node9 -->
<g id="Node000009" class="node">
<title>Node9</title>
<g id="a_Node000009"><a xlink:href="group__EnergyExtraction.html#ga42389d55a3f27a4e7f077a16d956b957" target="_top" xlink:title="Extract specific energy value from log file using pattern matching.">
<polygon fill="white" stroke="#666666" points="772,-116 623,-116 623,-86 772,-86 772,-116"/>
<text text-anchor="start" x="631" y="-104" font-family="Helvetica,sans-Serif" font-size="10.00">HighLevelEnergyCalculator</text>
<text text-anchor="middle" x="697.5" y="-93" font-family="Helvetica,sans-Serif" font-size="10.00">::extract_value_from_file</text>
</a>
</g>
</g>
<!-- Node2&#45;&gt;Node9 -->
<g id="edge19_Node000002_Node000009" class="edge">
<title>Node2&#45;&gt;Node9</title>
<g id="a_edge19_Node000002_Node000009"><a xlink:title=" ">
<path fill="none" stroke="#63b8ff" d="M349.73,-205.95C357.35,-203.31 364.96,-200.32 372,-197 389.39,-188.8 390.28,-180.46 408,-173 482.95,-141.43 508.3,-155.52 587,-135 604.87,-130.34 624.17,-124.59 641.52,-119.15"/>
<polygon fill="#63b8ff" stroke="#63b8ff" points="643.01,-122.36 651.48,-116 640.89,-115.68 643.01,-122.36"/>
</a>
</g>
</g>
<!-- Node14 -->
<g id="Node000014" class="node">
<title>Node14</title>
<g id="a_Node000014"><a xlink:href="group__CalculationHelpers.html#ga32a761d03cac358dbe6d17dccf3c3ec3" target="_top" xlink:title="Extract lowest vibrational frequency from parent file.">
<polygon fill="white" stroke="#666666" points="572,-260 423,-260 423,-230 572,-230 572,-260"/>
<text text-anchor="start" x="431" y="-248" font-family="Helvetica,sans-Serif" font-size="10.00">HighLevelEnergyCalculator</text>
<text text-anchor="middle" x="497.5" y="-237" font-family="Helvetica,sans-Serif" font-size="10.00">::extract_lowest_frequency</text>
</a>
</g>
</g>
<!-- Node2&#45;&gt;Node14 -->
<g id="edge14_Node000002_Node000014" class="edge">
<title>Node2&#45;&gt;Node14</title>
<g id="a_edge14_Node000002_Node000014"><a xlink:title=" ">
<path fill="none" stroke="#63b8ff" d="M372.25,-230.38C385.52,-231.94 399.31,-233.57 412.68,-235.14"/>
<polygon fill="#63b8ff" stroke="#63b8ff" points="412.46,-238.64 422.8,-236.33 413.28,-231.69 412.46,-238.64"/>
</a>
</g>
</g>
<!-- Node17 -->
<g id="Node000017" class="node">
<title>Node17</title>
<g id="a_Node000017"><a xlink:href="group__FileUtilities.html#ga6dd8fb2393bb29704be0e92003989e45" target="_top" xlink:title="Read complete file content.">
<polygon fill="white" stroke="#666666" points="772,-356 623,-356 623,-326 772,-326 772,-356"/>
<text text-anchor="start" x="631" y="-344" font-family="Helvetica,sans-Serif" font-size="10.00">HighLevelEnergyCalculator</text>
<text text-anchor="middle" x="697.5" y="-333" font-family="Helvetica,sans-Serif" font-size="10.00">::read_file_content</text>
</a>
</g>
</g>
<!-- Node2&#45;&gt;Node17 -->
<g id="edge21_Node000002_Node000017" class="edge">
<title>Node2&#45;&gt;Node17</title>
<g id="a_edge21_Node000002_Node000017"><a xlink:title=" ">
<path fill="none" stroke="#63b8ff" d="M324.27,-236.07C347.15,-246.46 378.97,-259.97 408,-269 485.66,-293.15 508.3,-286.48 587,-307 604.87,-311.66 624.17,-317.41 641.52,-322.85"/>
<polygon fill="#63b8ff" stroke="#63b8ff" points="640.89,-326.32 651.48,-326 643.01,-319.64 640.89,-326.32"/>
</a>
</g>
</g>
<!-- Node18 -->
<g id="Node000018" class="node">
<title>Node18</title>
<g id="a_Node000018"><a xlink:href="group__FileUtilities.html#ga181c65f6b55859249f23a68e2f64f4bf" target="_top" xlink:title="Get corresponding parent directory file path.">
<polygon fill="white" stroke="#666666" points="572,-126 423,-126 423,-96 572,-96 572,-126"/>
<text text-anchor="start" x="431" y="-114" font-family="Helvetica,sans-Serif" font-size="10.00">HighLevelEnergyCalculator</text>
<text text-anchor="middle" x="497.5" y="-103" font-family="Helvetica,sans-Serif" font-size="10.00">::get_parent_file</text>
</a>
</g>
</g>
<!-- Node2&#45;&gt;Node18 -->
<g id="edge20_Node000002_Node000018" class="edge">
<title>Node2&#45;&gt;Node18</title>
<g id="a_edge20_Node000002_Node000018"><a xlink:title=" ">
<path fill="none" stroke="#63b8ff" d="M357.38,-205.84C362.57,-203.33 367.52,-200.4 372,-197 395.85,-178.86 384.37,-158.42 408,-140 412.66,-136.37 417.79,-133.19 423.16,-130.39"/>
<polygon fill="#63b8ff" stroke="#63b8ff" points="424.82,-133.48 432.39,-126.06 421.85,-127.14 424.82,-133.48"/>
</a>
</g>
</g>
<!-- Node19 -->
<g id="Node000019" class="node">
<title>Node19</title>
<g id="a_Node000019"><a xlink:href="group__SafetyHelpers.html#ga1ecdc84dce43277ebe3c068b66d2836a" target="_top" xlink:title="Safe file reading with memory and handle management.">
<polygon fill="white" stroke="#666666" points="572,-78 423,-78 423,-48 572,-48 572,-78"/>
<text text-anchor="start" x="431" y="-66" font-family="Helvetica,sans-Serif" font-size="10.00">HighLevelEnergyCalculator</text>
<text text-anchor="middle" x="497.5" y="-55" font-family="Helvetica,sans-Serif" font-size="10.00">::safe_read_file</text>
</a>
</g>
</g>
<!-- Node2&#45;&gt;Node19 -->
<g id="edge22_Node000002_Node000019" class="edge">
<title>Node2&#45;&gt;Node19</title>
<g id="a_edge22_Node000002_Node000019"><a xlink:title=" ">
<path fill="none" stroke="#63b8ff" d="M360.26,-205.89C364.52,-203.37 368.49,-200.43 372,-197 408.79,-161.05 370.7,-122.43 408,-87 409.92,-85.18 411.96,-83.49 414.1,-81.93"/>
<polygon fill="#63b8ff" stroke="#63b8ff" points="416.17,-84.76 422.81,-76.51 412.47,-78.82 416.17,-84.76"/>
</a>
</g>
</g>
<!-- Node20 -->
<g id="Node000020" class="node">
<title>Node20</title>
<g id="a_Node000020"><a xlink:href="group__ValidationUtils.html#gabe3d651ced16adc942b77bd92be3116a" target="_top" xlink:title="Validate complete energy data structure for consistency.">
<polygon fill="white" stroke="#666666" points="561.5,-30 433.5,-30 433.5,0 561.5,0 561.5,-30"/>
<text text-anchor="start" x="441.5" y="-18" font-family="Helvetica,sans-Serif" font-size="10.00">HighLevelEnergyUtils</text>
<text text-anchor="middle" x="497.5" y="-7" font-family="Helvetica,sans-Serif" font-size="10.00">::validate_energy_data</text>
</a>
</g>
</g>
<!-- Node2&#45;&gt;Node20 -->
<g id="edge23_Node000002_Node000020" class="edge">
<title>Node2&#45;&gt;Node20</title>
<g id="a_edge23_Node000002_Node000020"><a xlink:title=" ">
<path fill="none" stroke="#63b8ff" d="M361.35,-205.78C365.25,-203.28 368.85,-200.37 372,-197 421.14,-144.34 358.12,-90.96 408,-39 412.56,-34.25 417.95,-30.41 423.79,-27.31"/>
<polygon fill="#63b8ff" stroke="#63b8ff" points="425.61,-30.33 433.28,-23.02 422.73,-23.95 425.61,-30.33"/>
</a>
</g>
</g>
<!-- Node6 -->
<g id="Node000006" class="node">
<title>Node6</title>
<g id="a_Node000006"><a xlink:href="group__FileUtilities.html#ga013cf7e36016b0531852c469c9bc98b7" target="_top" xlink:title="Read last N lines from file.">
<polygon fill="white" stroke="#666666" points="772,-404 623,-404 623,-374 772,-374 772,-404"/>
<text text-anchor="start" x="631" y="-392" font-family="Helvetica,sans-Serif" font-size="10.00">HighLevelEnergyCalculator</text>
<text text-anchor="middle" x="697.5" y="-381" font-family="Helvetica,sans-Serif" font-size="10.00">::read_file_tail</text>
</a>
</g>
</g>
<!-- Node5&#45;&gt;Node6 -->
<g id="edge5_Node000005_Node000006" class="edge">
<title>Node5&#45;&gt;Node6</title>
<g id="a_edge5_Node000005_Node000006"><a xlink:title=" ">
<path fill="none" stroke="#63b8ff" d="M555.24,-346.06C565.82,-348.96 576.76,-352.02 587,-355 604.18,-359.99 622.79,-365.67 639.71,-370.94"/>
<polygon fill="#63b8ff" stroke="#63b8ff" points="638.86,-374.34 649.45,-373.98 640.95,-367.66 638.86,-374.34"/>
</a>
</g>
</g>
<!-- Node7 -->
<g id="Node000007" class="node">
<title>Node7</title>
<g id="a_Node000007"><a xlink:href="classFileContentCache.html#affecb88aac28ec372fe984ab6ec0279c" target="_top" xlink:title=" ">
<polygon fill="white" stroke="#666666" points="944.5,-356 820.5,-356 820.5,-326 944.5,-326 944.5,-356"/>
<text text-anchor="start" x="828.5" y="-344" font-family="Helvetica,sans-Serif" font-size="10.00">FileContentCache::get</text>
<text text-anchor="middle" x="882.5" y="-333" font-family="Helvetica,sans-Serif" font-size="10.00">_or_read</text>
</a>
</g>
</g>
<!-- Node6&#45;&gt;Node7 -->
<g id="edge6_Node000006_Node000007" class="edge">
<title>Node6&#45;&gt;Node7</title>
<g id="a_edge6_Node000006_Node000007"><a xlink:title=" ">
<path fill="none" stroke="#63b8ff" d="M755.9,-373.94C774.47,-369.07 795.22,-363.63 814.42,-358.59"/>
<polygon fill="#63b8ff" stroke="#63b8ff" points="815.52,-361.93 824.3,-356 813.74,-355.15 815.52,-361.93"/>
</a>
</g>
</g>
<!-- Node8&#45;&gt;Node9 -->
<g id="edge8_Node000008_Node000009" class="edge">
<title>Node8&#45;&gt;Node9</title>
<g id="a_edge8_Node000008_Node000009"><a xlink:title=" ">
<path fill="none" stroke="#63b8ff" d="M559.64,-181.96C569.23,-178.22 578.7,-173.62 587,-168 607.64,-154.03 602.35,-138.96 623,-125 625.27,-123.47 627.64,-122.03 630.09,-120.67"/>
<polygon fill="#63b8ff" stroke="#63b8ff" points="631.81,-123.72 639.21,-116.14 628.7,-117.45 631.81,-123.72"/>
</a>
</g>
</g>
<!-- Node12 -->
<g id="Node000012" class="node">
<title>Node12</title>
<g id="a_Node000012"><a xlink:href="group__FileUtilities.html#gaa54ff385e8b08bff4fc34ec915a3ff8d" target="_top" xlink:title="Check if file exists and is accessible.">
<polygon fill="white" stroke="#666666" points="772,-164 623,-164 623,-134 772,-134 772,-164"/>
<text text-anchor="start" x="631" y="-152" font-family="Helvetica,sans-Serif" font-size="10.00">HighLevelEnergyCalculator</text>
<text text-anchor="middle" x="697.5" y="-141" font-family="Helvetica,sans-Serif" font-size="10.00">::file_exists</text>
</a>
</g>
</g>
<!-- Node8&#45;&gt;Node12 -->
<g id="edge12_Node000008_Node000012" class="edge">
<title>Node8&#45;&gt;Node12</title>
<g id="a_edge12_Node000008_Node000012"><a xlink:title=" ">
<path fill="none" stroke="#63b8ff" d="M560.61,-181.94C580.97,-177.01 603.76,-171.48 624.78,-166.39"/>
<polygon fill="#63b8ff" stroke="#63b8ff" points="625.72,-169.76 634.62,-164 624.07,-162.96 625.72,-169.76"/>
</a>
</g>
</g>
<!-- Node13 -->
<g id="Node000013" class="node">
<title>Node13</title>
<g id="a_Node000013"><a xlink:href="group__ValidationUtils.html#gad41dd357e75a3c0219b5ed3a6b964aa6" target="_top" xlink:title="Validate temperature value for physical reasonableness.">
<polygon fill="white" stroke="#666666" points="761.5,-212 633.5,-212 633.5,-182 761.5,-182 761.5,-212"/>
<text text-anchor="start" x="641.5" y="-200" font-family="Helvetica,sans-Serif" font-size="10.00">HighLevelEnergyUtils</text>
<text text-anchor="middle" x="697.5" y="-189" font-family="Helvetica,sans-Serif" font-size="10.00">::validate_temperature</text>
</a>
</g>
</g>
<!-- Node8&#45;&gt;Node13 -->
<g id="edge13_Node000008_Node000013" class="edge">
<title>Node8&#45;&gt;Node13</title>
<g id="a_edge13_Node000008_Node000013"><a xlink:title=" ">
<path fill="none" stroke="#63b8ff" d="M587.08,-197C599.18,-197 611.5,-197 623.29,-197"/>
<polygon fill="#63b8ff" stroke="#63b8ff" points="623.49,-200.5 633.49,-197 623.49,-193.5 623.49,-200.5"/>
</a>
</g>
</g>
<!-- Node9&#45;&gt;Node7 -->
<g id="edge10_Node000009_Node000007" class="edge">
<title>Node9&#45;&gt;Node7</title>
<g id="a_edge10_Node000009_Node000007"><a xlink:title=" ">
<path fill="none" stroke="#63b8ff" d="M758.83,-116.15C763.56,-118.67 768.03,-121.59 772,-125 832.88,-177.18 863.82,-271.49 875.65,-316.2"/>
<polygon fill="#63b8ff" stroke="#63b8ff" points="872.27,-317.12 878.13,-325.95 879.05,-315.4 872.27,-317.12"/>
</a>
</g>
</g>
<!-- Node10 -->
<g id="Node000010" class="node">
<title>Node10</title>
<g id="a_Node000010"><a xlink:href="structRegexPatterns.html#aeb75344b6b563c17108dbfaf60f486cc" target="_top" xlink:title=" ">
<polygon fill="white" stroke="#666666" points="937,-140 828,-140 828,-110 937,-110 937,-140"/>
<text text-anchor="start" x="836" y="-128" font-family="Helvetica,sans-Serif" font-size="10.00">RegexPatterns::get</text>
<text text-anchor="middle" x="882.5" y="-117" font-family="Helvetica,sans-Serif" font-size="10.00">_instance</text>
</a>
</g>
</g>
<!-- Node9&#45;&gt;Node10 -->
<g id="edge9_Node000009_Node000010" class="edge">
<title>Node9&#45;&gt;Node10</title>
<g id="a_edge9_Node000009_Node000010"><a xlink:title=" ">
<path fill="none" stroke="#63b8ff" d="M772.14,-110.66C787.31,-112.65 803.17,-114.73 817.94,-116.66"/>
<polygon fill="#63b8ff" stroke="#63b8ff" points="817.61,-120.15 827.98,-117.98 818.52,-113.21 817.61,-120.15"/>
</a>
</g>
</g>
<!-- Node11 -->
<g id="Node000011" class="node">
<title>Node11</title>
<g id="a_Node000011"><a xlink:href="group__SafetyHelpers.html#gaf25036f89725288871b9d856ca5f76ba" target="_top" xlink:title="Safe energy value parsing with validation.">
<polygon fill="white" stroke="#666666" points="957,-92 808,-92 808,-62 957,-62 957,-92"/>
<text text-anchor="start" x="816" y="-80" font-family="Helvetica,sans-Serif" font-size="10.00">HighLevelEnergyCalculator</text>
<text text-anchor="middle" x="882.5" y="-69" font-family="Helvetica,sans-Serif" font-size="10.00">::safe_parse_energy</text>
</a>
</g>
</g>
<!-- Node9&#45;&gt;Node11 -->
<g id="edge11_Node000009_Node000011" class="edge">
<title>Node9&#45;&gt;Node11</title>
<g id="a_edge11_Node000009_Node000011"><a xlink:title=" ">
<path fill="none" stroke="#63b8ff" d="M772.14,-91.34C780.57,-90.24 789.2,-89.11 797.74,-87.98"/>
<polygon fill="#63b8ff" stroke="#63b8ff" points="798.25,-91.45 807.71,-86.68 797.34,-84.51 798.25,-91.45"/>
</a>
</g>
</g>
<!-- Node15 -->
<g id="Node000015" class="node">
<title>Node15</title>
<g id="a_Node000015"><a xlink:href="group__EnergyParsingUtils.html#ga95f6c769f275d3b7659d6f379b106b51" target="_top" xlink:title="Extract all vibrational frequencies from log file content.">
<polygon fill="white" stroke="#666666" points="758.5,-260 636.5,-260 636.5,-230 758.5,-230 758.5,-260"/>
<text text-anchor="start" x="644.5" y="-248" font-family="Helvetica,sans-Serif" font-size="10.00">HighLevelEnergyUtils</text>
<text text-anchor="middle" x="697.5" y="-237" font-family="Helvetica,sans-Serif" font-size="10.00">::extract_frequencies</text>
</a>
</g>
</g>
<!-- Node14&#45;&gt;Node15 -->
<g id="edge15_Node000014_Node000015" class="edge">
<title>Node14&#45;&gt;Node15</title>
<g id="a_edge15_Node000014_Node000015"><a xlink:title=" ">
<path fill="none" stroke="#63b8ff" d="M572.23,-245C589.87,-245 608.67,-245 626.16,-245"/>
<polygon fill="#63b8ff" stroke="#63b8ff" points="626.29,-248.5 636.29,-245 626.29,-241.5 626.29,-248.5"/>
</a>
</g>
</g>
<!-- Node16 -->
<g id="Node000016" class="node">
<title>Node16</title>
<g id="a_Node000016"><a xlink:href="group__EnergyParsingUtils.html#gaf1573e500ba7a88a65e5ccf978c00621" target="_top" xlink:title="Find lowest frequency from frequency list.">
<polygon fill="white" stroke="#666666" points="763.5,-308 631.5,-308 631.5,-278 763.5,-278 763.5,-308"/>
<text text-anchor="start" x="639.5" y="-296" font-family="Helvetica,sans-Serif" font-size="10.00">HighLevelEnergyUtils</text>
<text text-anchor="middle" x="697.5" y="-285" font-family="Helvetica,sans-Serif" font-size="10.00">::find_lowest_frequency</text>
</a>
</g>
</g>
<!-- Node14&#45;&gt;Node16 -->
<g id="edge16_Node000014_Node000016" class="edge">
<title>Node14&#45;&gt;Node16</title>
<g id="a_edge16_Node000014_Node000016"><a xlink:title=" ">
<path fill="none" stroke="#63b8ff" d="M560.61,-260.06C580.97,-264.99 603.76,-270.52 624.78,-275.61"/>
<polygon fill="#63b8ff" stroke="#63b8ff" points="624.07,-279.04 634.62,-278 625.72,-272.24 624.07,-279.04"/>
</a>
</g>
</g>
<!-- Node14&#45;&gt;Node17 -->
<g id="edge17_Node000014_Node000017" class="edge">
<title>Node14&#45;&gt;Node17</title>
<g id="a_edge17_Node000014_Node000017"><a xlink:title=" ">
<path fill="none" stroke="#63b8ff" d="M559.64,-260.04C569.23,-263.78 578.7,-268.38 587,-274 607.64,-287.97 602.35,-303.04 623,-317 625.27,-318.53 627.64,-319.97 630.09,-321.33"/>
<polygon fill="#63b8ff" stroke="#63b8ff" points="628.7,-324.55 639.21,-325.86 631.81,-318.28 628.7,-324.55"/>
</a>
</g>
</g>
<!-- Node17&#45;&gt;Node7 -->
<g id="edge18_Node000017_Node000007" class="edge">
<title>Node17&#45;&gt;Node7</title>
<g id="a_edge18_Node000017_Node000007"><a xlink:title=" ">
<path fill="none" stroke="#63b8ff" d="M772.14,-341C784.63,-341 797.59,-341 810.02,-341"/>
<polygon fill="#63b8ff" stroke="#63b8ff" points="810.33,-344.5 820.33,-341 810.33,-337.5 810.33,-344.5"/>
</a>
</g>
</g>
</g>
</svg>
