<?xml version="1.0" encoding="UTF-8" standalone="no"?>
<!DOCTYPE svg PUBLIC "-//W3C//DTD SVG 1.1//EN"
 "http://www.w3.org/Graphics/SVG/1.1/DTD/svg11.dtd">
<!-- Generated by graphviz version 2.43.0 (0)
 -->
<!-- Title: CommandParser::apply_config_to_context Pages: 1 -->
<svg width="663pt" height="529pt"
 viewBox="0.00 0.00 663.00 528.50" xmlns="http://www.w3.org/2000/svg" xmlns:xlink="http://www.w3.org/1999/xlink">
<g id="graph0" class="graph" transform="scale(1 1) rotate(0) translate(4 524.5)">
<title>CommandParser::apply_config_to_context</title>
<!-- Node1 -->
<g id="Node000001" class="node">
<title>Node1</title>
<g id="a_Node000001"><a xlink:title="Apply configuration values to command context.">
<polygon fill="#999999" stroke="#666666" points="130,-276 0,-276 0,-246 130,-246 130,-276"/>
<text text-anchor="start" x="8" y="-264" font-family="Helvetica,sans-Serif" font-size="10.00">CommandParser::apply</text>
<text text-anchor="middle" x="65" y="-253" font-family="Helvetica,sans-Serif" font-size="10.00">_config_to_context</text>
</a>
</g>
</g>
<!-- Node2 -->
<g id="Node000002" class="node">
<title>Node2</title>
<g id="a_Node000002"><a xlink:href="group__ConfigValueGetters.html#gaf85ef36eb952ab7d6d927d2bcdeca4c1" target="_top" xlink:title="Get boolean configuration value.">
<polygon fill="white" stroke="#666666" points="486,-502.5 348,-502.5 348,-483.5 486,-483.5 486,-502.5"/>
<text text-anchor="middle" x="417" y="-490.5" font-family="Helvetica,sans-Serif" font-size="10.00">ConfigManager::get_bool</text>
</a>
</g>
</g>
<!-- Node1&#45;&gt;Node2 -->
<g id="edge1_Node000001_Node000002" class="edge">
<title>Node1&#45;&gt;Node2</title>
<g id="a_edge1_Node000001_Node000002"><a xlink:title=" ">
<path fill="none" stroke="#63b8ff" d="M67.27,-276.18C71.73,-318.67 90.77,-438.99 166,-489 228.83,-530.77 321.57,-517.67 374.66,-504.95"/>
<polygon fill="#63b8ff" stroke="#63b8ff" points="375.56,-508.33 384.41,-502.51 373.86,-501.54 375.56,-508.33"/>
</a>
</g>
</g>
<!-- Node4 -->
<g id="Node000004" class="node">
<title>Node4</title>
<g id="a_Node000004"><a xlink:href="group__ConfigConvenience.html#ga2c7220a086fa36ee3e3c2c6042f9da05" target="_top" xlink:title="Get default concentration for phase corrections.">
<polygon fill="white" stroke="#666666" points="303,-480 175,-480 175,-450 303,-450 303,-480"/>
<text text-anchor="start" x="183" y="-468" font-family="Helvetica,sans-Serif" font-size="10.00">ConfigManager::get</text>
<text text-anchor="middle" x="239" y="-457" font-family="Helvetica,sans-Serif" font-size="10.00">_default_concentration</text>
</a>
</g>
</g>
<!-- Node1&#45;&gt;Node4 -->
<g id="edge4_Node000001_Node000004" class="edge">
<title>Node1&#45;&gt;Node4</title>
<g id="a_edge4_Node000001_Node000004"><a xlink:title=" ">
<path fill="none" stroke="#63b8ff" d="M70.21,-276C80.59,-310.32 110.71,-395.11 166,-441 167.56,-442.29 169.19,-443.52 170.88,-444.68"/>
<polygon fill="#63b8ff" stroke="#63b8ff" points="169.36,-447.85 179.75,-449.95 172.94,-441.83 169.36,-447.85"/>
</a>
</g>
</g>
<!-- Node6 -->
<g id="Node000006" class="node">
<title>Node6</title>
<g id="a_Node000006"><a xlink:href="group__ConfigConvenience.html#ga57026ab5b8fe240a9a7269d6ba70c172" target="_top" xlink:title="Get default maximum file size limit.">
<polygon fill="white" stroke="#666666" points="303,-384 175,-384 175,-354 303,-354 303,-384"/>
<text text-anchor="start" x="183" y="-372" font-family="Helvetica,sans-Serif" font-size="10.00">ConfigManager::get</text>
<text text-anchor="middle" x="239" y="-361" font-family="Helvetica,sans-Serif" font-size="10.00">_default_max_file_size</text>
</a>
</g>
</g>
<!-- Node1&#45;&gt;Node6 -->
<g id="edge8_Node000001_Node000006" class="edge">
<title>Node1&#45;&gt;Node6</title>
<g id="a_edge8_Node000001_Node000006"><a xlink:title=" ">
<path fill="none" stroke="#63b8ff" d="M82.27,-276.28C101.22,-293.49 134.04,-321.46 166,-340 172.03,-343.5 178.56,-346.77 185.15,-349.76"/>
<polygon fill="#63b8ff" stroke="#63b8ff" points="184.22,-353.17 194.79,-353.93 187,-346.74 184.22,-353.17"/>
</a>
</g>
</g>
<!-- Node7 -->
<g id="Node000007" class="node">
<title>Node7</title>
<g id="a_Node000007"><a xlink:href="group__ConfigValueGetters.html#gaa29924b452368659c06cf8a0e65e5972" target="_top" xlink:title="Get size_t configuration value.">
<polygon fill="white" stroke="#666666" points="473,-341 361,-341 361,-311 473,-311 473,-341"/>
<text text-anchor="start" x="369" y="-329" font-family="Helvetica,sans-Serif" font-size="10.00">ConfigManager::get</text>
<text text-anchor="middle" x="417" y="-318" font-family="Helvetica,sans-Serif" font-size="10.00">_size_t</text>
</a>
</g>
</g>
<!-- Node1&#45;&gt;Node7 -->
<g id="edge28_Node000001_Node000007" class="edge">
<title>Node1&#45;&gt;Node7</title>
<g id="a_edge28_Node000001_Node000007"><a xlink:title=" ">
<path fill="none" stroke="#63b8ff" d="M92.2,-276.19C111.84,-286.79 139.73,-300.19 166,-307 227.3,-322.88 299.66,-326.85 350.72,-327.31"/>
<polygon fill="#63b8ff" stroke="#63b8ff" points="350.94,-330.81 360.96,-327.36 350.97,-323.81 350.94,-330.81"/>
</a>
</g>
</g>
<!-- Node8 -->
<g id="Node000008" class="node">
<title>Node8</title>
<g id="a_Node000008"><a xlink:href="group__ConfigConvenience.html#gae28d853524e420d325492f3997fbf259" target="_top" xlink:title="Get default output file extension.">
<polygon fill="white" stroke="#666666" points="312,-298 166,-298 166,-268 312,-268 312,-298"/>
<text text-anchor="start" x="174" y="-286" font-family="Helvetica,sans-Serif" font-size="10.00">ConfigManager::get</text>
<text text-anchor="middle" x="239" y="-275" font-family="Helvetica,sans-Serif" font-size="10.00">_default_output_extension</text>
</a>
</g>
</g>
<!-- Node1&#45;&gt;Node8 -->
<g id="edge12_Node000001_Node000008" class="edge">
<title>Node1&#45;&gt;Node8</title>
<g id="a_edge12_Node000001_Node000008"><a xlink:title=" ">
<path fill="none" stroke="#63b8ff" d="M130.05,-269.19C138.42,-270.26 147.09,-271.37 155.72,-272.48"/>
<polygon fill="#63b8ff" stroke="#63b8ff" points="155.43,-275.97 165.8,-273.76 156.32,-269.02 155.43,-275.97"/>
</a>
</g>
</g>
<!-- Node9 -->
<g id="Node000009" class="node">
<title>Node9</title>
<g id="a_Node000009"><a xlink:href="group__ConfigValueGetters.html#gaa25cec73939b4d9bd7419f553faae0cb" target="_top" xlink:title="Get string configuration value.">
<polygon fill="white" stroke="#666666" points="473,-269 361,-269 361,-239 473,-239 473,-269"/>
<text text-anchor="start" x="369" y="-257" font-family="Helvetica,sans-Serif" font-size="10.00">ConfigManager::get</text>
<text text-anchor="middle" x="417" y="-246" font-family="Helvetica,sans-Serif" font-size="10.00">_string</text>
</a>
</g>
</g>
<!-- Node1&#45;&gt;Node9 -->
<g id="edge29_Node000001_Node000009" class="edge">
<title>Node1&#45;&gt;Node9</title>
<g id="a_edge29_Node000001_Node000009"><a xlink:title=" ">
<path fill="none" stroke="#63b8ff" d="M130.2,-259.72C192.82,-258.46 287.61,-256.57 350.63,-255.31"/>
<polygon fill="#63b8ff" stroke="#63b8ff" points="350.92,-258.8 360.85,-255.1 350.78,-251.8 350.92,-258.8"/>
</a>
</g>
</g>
<!-- Node10 -->
<g id="Node000010" class="node">
<title>Node10</title>
<g id="a_Node000010"><a xlink:href="group__ConfigConvenience.html#gaa74e0721316147bd09fd46f319dc92ab" target="_top" xlink:title="Get default output format.">
<polygon fill="white" stroke="#666666" points="304.5,-212 173.5,-212 173.5,-182 304.5,-182 304.5,-212"/>
<text text-anchor="start" x="181.5" y="-200" font-family="Helvetica,sans-Serif" font-size="10.00">ConfigManager::get</text>
<text text-anchor="middle" x="239" y="-189" font-family="Helvetica,sans-Serif" font-size="10.00">_default_output_format</text>
</a>
</g>
</g>
<!-- Node1&#45;&gt;Node10 -->
<g id="edge15_Node000001_Node000010" class="edge">
<title>Node1&#45;&gt;Node10</title>
<g id="a_edge15_Node000001_Node000010"><a xlink:title=" ">
<path fill="none" stroke="#63b8ff" d="M106.33,-245.99C130.71,-236.92 162.01,-225.28 187.97,-215.62"/>
<polygon fill="#63b8ff" stroke="#63b8ff" points="189.48,-218.79 197.63,-212.02 187.04,-212.23 189.48,-218.79"/>
</a>
</g>
</g>
<!-- Node11 -->
<g id="Node000011" class="node">
<title>Node11</title>
<g id="a_Node000011"><a xlink:href="group__ConfigConvenience.html#ga113889538141fc1547ec4244b3de8002" target="_top" xlink:title="Get default temperature for thermodynamic calculations.">
<polygon fill="white" stroke="#666666" points="300,-432 178,-432 178,-402 300,-402 300,-432"/>
<text text-anchor="start" x="186" y="-420" font-family="Helvetica,sans-Serif" font-size="10.00">ConfigManager::get</text>
<text text-anchor="middle" x="239" y="-409" font-family="Helvetica,sans-Serif" font-size="10.00">_default_temperature</text>
</a>
</g>
</g>
<!-- Node1&#45;&gt;Node11 -->
<g id="edge17_Node000001_Node000011" class="edge">
<title>Node1&#45;&gt;Node11</title>
<g id="a_edge17_Node000001_Node000011"><a xlink:title=" ">
<path fill="none" stroke="#63b8ff" d="M73.44,-276.02C87.67,-303.27 121.37,-361 166,-393 168.06,-394.48 170.22,-395.87 172.45,-397.18"/>
<polygon fill="#63b8ff" stroke="#63b8ff" points="170.86,-400.3 181.34,-401.83 174.11,-394.1 170.86,-400.3"/>
</a>
</g>
</g>
<!-- Node12 -->
<g id="Node000012" class="node">
<title>Node12</title>
<g id="a_Node000012"><a xlink:href="group__ConfigConvenience.html#gac68ef6a3a6b456a87d338f9be7b6363c" target="_top" xlink:title="Get default number of processing threads.">
<polygon fill="white" stroke="#666666" points="295,-164 183,-164 183,-134 295,-134 295,-164"/>
<text text-anchor="start" x="191" y="-152" font-family="Helvetica,sans-Serif" font-size="10.00">ConfigManager::get</text>
<text text-anchor="middle" x="239" y="-141" font-family="Helvetica,sans-Serif" font-size="10.00">_default_threads</text>
</a>
</g>
</g>
<!-- Node1&#45;&gt;Node12 -->
<g id="edge19_Node000001_Node000012" class="edge">
<title>Node1&#45;&gt;Node12</title>
<g id="a_edge19_Node000001_Node000012"><a xlink:title=" ">
<path fill="none" stroke="#63b8ff" d="M79.47,-245.87C97.45,-226.5 131.11,-193.05 166,-173 169,-171.27 172.15,-169.65 175.38,-168.12"/>
<polygon fill="#63b8ff" stroke="#63b8ff" points="176.88,-171.29 184.64,-164.08 174.08,-164.87 176.88,-171.29"/>
</a>
</g>
</g>
<!-- Node14 -->
<g id="Node000014" class="node">
<title>Node14</title>
<g id="a_Node000014"><a xlink:href="group__ConfigValueGetters.html#ga7d3d6c0afb01a9f8c1dc20c35ad33314" target="_top" xlink:title="Get integer configuration value.">
<polygon fill="white" stroke="#666666" points="482,-109.5 352,-109.5 352,-90.5 482,-90.5 482,-109.5"/>
<text text-anchor="middle" x="417" y="-97.5" font-family="Helvetica,sans-Serif" font-size="10.00">ConfigManager::get_int</text>
</a>
</g>
</g>
<!-- Node1&#45;&gt;Node14 -->
<g id="edge25_Node000001_Node000014" class="edge">
<title>Node1&#45;&gt;Node14</title>
<g id="a_edge25_Node000001_Node000014"><a xlink:title=" ">
<path fill="none" stroke="#63b8ff" d="M72.06,-245.89C84.65,-216.74 116.61,-153.16 166,-125 219.2,-94.67 289.23,-90.08 341.64,-92.13"/>
<polygon fill="#63b8ff" stroke="#63b8ff" points="341.72,-95.64 351.88,-92.62 342.06,-88.65 341.72,-95.64"/>
</a>
</g>
</g>
<!-- Node15 -->
<g id="Node000015" class="node">
<title>Node15</title>
<g id="a_Node000015"><a xlink:href="group__ConfigStatus.html#gad4e7fde5f25d445064d4a20d40cc3801" target="_top" xlink:title="Check if configuration has been successfully loaded.">
<polygon fill="white" stroke="#666666" points="308.5,-78 169.5,-78 169.5,-48 308.5,-48 308.5,-78"/>
<text text-anchor="start" x="177.5" y="-66" font-family="Helvetica,sans-Serif" font-size="10.00">ConfigManager::is_config</text>
<text text-anchor="middle" x="239" y="-55" font-family="Helvetica,sans-Serif" font-size="10.00">_loaded</text>
</a>
</g>
</g>
<!-- Node1&#45;&gt;Node15 -->
<g id="edge30_Node000001_Node000015" class="edge">
<title>Node1&#45;&gt;Node15</title>
<g id="a_edge30_Node000001_Node000015"><a xlink:title=" ">
<path fill="none" stroke="#63b8ff" d="M71.19,-245.68C82.98,-213.03 114.8,-135.98 166,-92 169.92,-88.63 174.29,-85.62 178.88,-82.93"/>
<polygon fill="#63b8ff" stroke="#63b8ff" points="180.71,-85.93 187.92,-78.16 177.44,-79.73 180.71,-85.93"/>
</a>
</g>
</g>
<!-- Node16 -->
<g id="Node000016" class="node">
<title>Node16</title>
<g id="a_Node000016"><a xlink:href="group__ConfigStringUtils.html#ga2f21572e2bdf739cbd8c75720728196c" target="_top" xlink:title="Split string into vector using delimiter.">
<polygon fill="white" stroke="#666666" points="287.5,-30 190.5,-30 190.5,0 287.5,0 287.5,-30"/>
<text text-anchor="start" x="198.5" y="-18" font-family="Helvetica,sans-Serif" font-size="10.00">ConfigUtils::split</text>
<text text-anchor="middle" x="239" y="-7" font-family="Helvetica,sans-Serif" font-size="10.00">_string</text>
</a>
</g>
</g>
<!-- Node1&#45;&gt;Node16 -->
<g id="edge31_Node000001_Node000016" class="edge">
<title>Node1&#45;&gt;Node16</title>
<g id="a_edge31_Node000001_Node000016"><a xlink:title=" ">
<path fill="none" stroke="#63b8ff" d="M68.51,-245.87C75.88,-206.08 101.23,-97.51 166,-39 170.45,-34.98 175.59,-31.64 181.03,-28.85"/>
<polygon fill="#63b8ff" stroke="#63b8ff" points="182.71,-31.93 190.42,-24.66 179.86,-25.54 182.71,-31.93"/>
</a>
</g>
</g>
<!-- Node2&#45;&gt;Node2 -->
<g id="edge3_Node000002_Node000002" class="edge">
<title>Node2&#45;&gt;Node2</title>
<g id="a_edge3_Node000002_Node000002"><a xlink:title=" ">
<path fill="none" stroke="#63b8ff" d="M390.8,-502.58C378.05,-511.23 386.79,-520.5 417,-520.5 437.3,-520.5 447.9,-516.32 448.81,-510.95"/>
<polygon fill="#63b8ff" stroke="#63b8ff" points="451.68,-508.94 443.2,-502.58 445.86,-512.84 451.68,-508.94"/>
</a>
</g>
</g>
<!-- Node3 -->
<g id="Node000003" class="node">
<title>Node3</title>
<g id="a_Node000003"><a xlink:href="group__ConfigInternals.html#ga5e387d61b1f34873cd3ab047242b2aad" target="_top" xlink:title="Template method for type&#45;safe value conversion.">
<polygon fill="white" stroke="#666666" points="655,-269 522,-269 522,-239 655,-239 655,-269"/>
<text text-anchor="start" x="530" y="-257" font-family="Helvetica,sans-Serif" font-size="10.00">ConfigManager::convert</text>
<text text-anchor="middle" x="588.5" y="-246" font-family="Helvetica,sans-Serif" font-size="10.00">_value</text>
</a>
</g>
</g>
<!-- Node2&#45;&gt;Node3 -->
<g id="edge2_Node000002_Node000003" class="edge">
<title>Node2&#45;&gt;Node3</title>
<g id="a_edge2_Node000002_Node000003"><a xlink:title=" ">
<path fill="none" stroke="#63b8ff" d="M446.73,-483.49C459.96,-477.98 475.1,-469.94 486,-459 538.58,-406.22 568.6,-320.7 580.9,-278.78"/>
<polygon fill="#63b8ff" stroke="#63b8ff" points="584.28,-279.68 583.64,-269.1 577.54,-277.77 584.28,-279.68"/>
</a>
</g>
</g>
<!-- Node5 -->
<g id="Node000005" class="node">
<title>Node5</title>
<g id="a_Node000005"><a xlink:href="group__ConfigValueGetters.html#ga5c646b796256dc3d0905ce144f9758a2" target="_top" xlink:title="Get double configuration value.">
<polygon fill="white" stroke="#666666" points="473,-432 361,-432 361,-402 473,-402 473,-432"/>
<text text-anchor="start" x="369" y="-420" font-family="Helvetica,sans-Serif" font-size="10.00">ConfigManager::get</text>
<text text-anchor="middle" x="417" y="-409" font-family="Helvetica,sans-Serif" font-size="10.00">_double</text>
</a>
</g>
</g>
<!-- Node4&#45;&gt;Node5 -->
<g id="edge5_Node000004_Node000005" class="edge">
<title>Node4&#45;&gt;Node5</title>
<g id="a_edge5_Node000004_Node000005"><a xlink:title=" ">
<path fill="none" stroke="#63b8ff" d="M295.2,-449.94C312.98,-445.1 332.84,-439.68 351.23,-434.66"/>
<polygon fill="#63b8ff" stroke="#63b8ff" points="352.26,-438.01 360.99,-432 350.42,-431.26 352.26,-438.01"/>
</a>
</g>
</g>
<!-- Node5&#45;&gt;Node3 -->
<g id="edge6_Node000005_Node000003" class="edge">
<title>Node5&#45;&gt;Node3</title>
<g id="a_edge6_Node000005_Node000003"><a xlink:title=" ">
<path fill="none" stroke="#63b8ff" d="M441.63,-401.86C455.17,-392.72 472.17,-380.47 486,-368 517.86,-339.26 550.02,-301.28 569.36,-277.23"/>
<polygon fill="#63b8ff" stroke="#63b8ff" points="572.15,-279.35 575.64,-269.35 566.67,-274.99 572.15,-279.35"/>
</a>
</g>
</g>
<!-- Node5&#45;&gt;Node5 -->
<g id="edge7_Node000005_Node000005" class="edge">
<title>Node5&#45;&gt;Node5</title>
<g id="a_edge7_Node000005_Node000005"><a xlink:title=" ">
<path fill="none" stroke="#63b8ff" d="M387.12,-432.28C380.48,-441.41 390.44,-450 417,-450 432.77,-450 442.69,-446.97 446.76,-442.6"/>
<polygon fill="#63b8ff" stroke="#63b8ff" points="450.26,-442.32 446.88,-432.28 443.26,-442.23 450.26,-442.32"/>
</a>
</g>
</g>
<!-- Node6&#45;&gt;Node7 -->
<g id="edge9_Node000006_Node000007" class="edge">
<title>Node6&#45;&gt;Node7</title>
<g id="a_edge9_Node000006_Node000007"><a xlink:title=" ">
<path fill="none" stroke="#63b8ff" d="M301.56,-353.96C317.56,-350.05 334.86,-345.82 351.04,-341.87"/>
<polygon fill="#63b8ff" stroke="#63b8ff" points="352.06,-345.23 360.94,-339.45 350.4,-338.43 352.06,-345.23"/>
</a>
</g>
</g>
<!-- Node7&#45;&gt;Node3 -->
<g id="edge10_Node000007_Node000003" class="edge">
<title>Node7&#45;&gt;Node3</title>
<g id="a_edge10_Node000007_Node000003"><a xlink:title=" ">
<path fill="none" stroke="#63b8ff" d="M453.53,-310.91C479.41,-299.91 514.66,-284.94 542.5,-273.11"/>
<polygon fill="#63b8ff" stroke="#63b8ff" points="544.18,-276.2 552.01,-269.07 541.44,-269.76 544.18,-276.2"/>
</a>
</g>
</g>
<!-- Node7&#45;&gt;Node7 -->
<g id="edge11_Node000007_Node000007" class="edge">
<title>Node7&#45;&gt;Node7</title>
<g id="a_edge11_Node000007_Node000007"><a xlink:title=" ">
<path fill="none" stroke="#63b8ff" d="M387.12,-341.28C380.48,-350.41 390.44,-359 417,-359 432.77,-359 442.69,-355.97 446.76,-351.6"/>
<polygon fill="#63b8ff" stroke="#63b8ff" points="450.26,-351.32 446.88,-341.28 443.26,-351.23 450.26,-351.32"/>
</a>
</g>
</g>
<!-- Node8&#45;&gt;Node9 -->
<g id="edge13_Node000008_Node000009" class="edge">
<title>Node8&#45;&gt;Node9</title>
<g id="a_edge13_Node000008_Node000009"><a xlink:title=" ">
<path fill="none" stroke="#63b8ff" d="M312.09,-271.12C324.98,-269 338.33,-266.8 351,-264.71"/>
<polygon fill="#63b8ff" stroke="#63b8ff" points="351.7,-268.14 361,-263.06 350.56,-261.24 351.7,-268.14"/>
</a>
</g>
</g>
<!-- Node9&#45;&gt;Node3 -->
<g id="edge14_Node000009_Node000003" class="edge">
<title>Node9&#45;&gt;Node3</title>
<g id="a_edge14_Node000009_Node000003"><a xlink:title=" ">
<path fill="none" stroke="#63b8ff" d="M473.03,-254C485.31,-254 498.55,-254 511.5,-254"/>
<polygon fill="#63b8ff" stroke="#63b8ff" points="511.81,-257.5 521.81,-254 511.81,-250.5 511.81,-257.5"/>
</a>
</g>
</g>
<!-- Node10&#45;&gt;Node9 -->
<g id="edge16_Node000010_Node000009" class="edge">
<title>Node10&#45;&gt;Node9</title>
<g id="a_edge16_Node000010_Node000009"><a xlink:title=" ">
<path fill="none" stroke="#63b8ff" d="M286.7,-212.13C309.17,-219.4 336.28,-228.18 359.86,-235.82"/>
<polygon fill="#63b8ff" stroke="#63b8ff" points="358.79,-239.15 369.38,-238.9 360.95,-232.49 358.79,-239.15"/>
</a>
</g>
</g>
<!-- Node11&#45;&gt;Node5 -->
<g id="edge18_Node000011_Node000005" class="edge">
<title>Node11&#45;&gt;Node5</title>
<g id="a_edge18_Node000011_Node000005"><a xlink:title=" ">
<path fill="none" stroke="#63b8ff" d="M300.08,-417C316.41,-417 334.16,-417 350.76,-417"/>
<polygon fill="#63b8ff" stroke="#63b8ff" points="350.93,-420.5 360.93,-417 350.93,-413.5 350.93,-420.5"/>
</a>
</g>
</g>
<!-- Node12&#45;&gt;Node3 -->
<g id="edge20_Node000012_Node000003" class="edge">
<title>Node12&#45;&gt;Node3</title>
<g id="a_edge20_Node000012_Node000003"><a xlink:title=" ">
<path fill="none" stroke="#63b8ff" d="M288.37,-164.07C296.34,-166.85 304.45,-169.87 312,-173 328.53,-179.85 331.26,-184.69 348,-191 378.28,-202.41 455.77,-222.19 514.47,-236.55"/>
<polygon fill="#63b8ff" stroke="#63b8ff" points="513.91,-240.01 524.46,-238.98 515.57,-233.21 513.91,-240.01"/>
</a>
</g>
</g>
<!-- Node12&#45;&gt;Node9 -->
<g id="edge21_Node000012_Node000009" class="edge">
<title>Node12&#45;&gt;Node9</title>
<g id="a_edge21_Node000012_Node000009"><a xlink:title=" ">
<path fill="none" stroke="#63b8ff" d="M295.34,-163.27C301.25,-165.99 306.94,-169.21 312,-173 334.49,-189.87 326.22,-207.23 348,-225 352.23,-228.45 356.92,-231.55 361.82,-234.33"/>
<polygon fill="#63b8ff" stroke="#63b8ff" points="360.3,-237.48 370.79,-238.98 363.52,-231.27 360.3,-237.48"/>
</a>
</g>
</g>
<!-- Node13 -->
<g id="Node000013" class="node">
<title>Node13</title>
<g id="a_Node000013"><a xlink:href="group__ConfigValueGetters.html#gada707986c94dbf811fd5b00f7ee52911" target="_top" xlink:title="Get unsigned integer configuration value.">
<polygon fill="white" stroke="#666666" points="485,-164.5 349,-164.5 349,-145.5 485,-145.5 485,-164.5"/>
<text text-anchor="middle" x="417" y="-152.5" font-family="Helvetica,sans-Serif" font-size="10.00">ConfigManager::get_uint</text>
</a>
</g>
</g>
<!-- Node12&#45;&gt;Node13 -->
<g id="edge22_Node000012_Node000013" class="edge">
<title>Node12&#45;&gt;Node13</title>
<g id="a_edge22_Node000012_Node000013"><a xlink:title=" ">
<path fill="none" stroke="#63b8ff" d="M295.2,-150.88C309.05,-151.35 324.15,-151.87 338.85,-152.37"/>
<polygon fill="#63b8ff" stroke="#63b8ff" points="338.82,-155.87 348.94,-152.71 339.06,-148.87 338.82,-155.87"/>
</a>
</g>
</g>
<!-- Node13&#45;&gt;Node3 -->
<g id="edge23_Node000013_Node000003" class="edge">
<title>Node13&#45;&gt;Node3</title>
<g id="a_edge23_Node000013_Node000003"><a xlink:title=" ">
<path fill="none" stroke="#63b8ff" d="M434.56,-164.67C461.9,-180.64 517.03,-212.84 553.09,-233.9"/>
<polygon fill="#63b8ff" stroke="#63b8ff" points="551.42,-236.98 561.82,-239 554.95,-230.93 551.42,-236.98"/>
</a>
</g>
</g>
<!-- Node13&#45;&gt;Node13 -->
<g id="edge24_Node000013_Node000013" class="edge">
<title>Node13&#45;&gt;Node13</title>
<g id="a_edge24_Node000013_Node000013"><a xlink:title=" ">
<path fill="none" stroke="#63b8ff" d="M390.8,-164.58C378.05,-173.23 386.79,-182.5 417,-182.5 437.3,-182.5 447.9,-178.32 448.81,-172.95"/>
<polygon fill="#63b8ff" stroke="#63b8ff" points="451.68,-170.94 443.2,-164.58 445.86,-174.84 451.68,-170.94"/>
</a>
</g>
</g>
<!-- Node14&#45;&gt;Node3 -->
<g id="edge26_Node000014_Node000003" class="edge">
<title>Node14&#45;&gt;Node3</title>
<g id="a_edge26_Node000014_Node000003"><a xlink:title=" ">
<path fill="none" stroke="#63b8ff" d="M441.02,-109.56C454.84,-115.91 472.32,-125.08 486,-136 520.76,-163.75 552.78,-204.59 571.22,-230.22"/>
<polygon fill="#63b8ff" stroke="#63b8ff" points="568.52,-232.47 577.15,-238.61 574.23,-228.43 568.52,-232.47"/>
</a>
</g>
</g>
<!-- Node14&#45;&gt;Node14 -->
<g id="edge27_Node000014_Node000014" class="edge">
<title>Node14&#45;&gt;Node14</title>
<g id="a_edge27_Node000014_Node000014"><a xlink:title=" ">
<path fill="none" stroke="#63b8ff" d="M390.8,-109.58C378.05,-118.23 386.79,-127.5 417,-127.5 437.3,-127.5 447.9,-123.32 448.81,-117.95"/>
<polygon fill="#63b8ff" stroke="#63b8ff" points="451.68,-115.94 443.2,-109.58 445.86,-119.84 451.68,-115.94"/>
</a>
</g>
</g>
</g>
</svg>
