<?xml version="1.0" encoding="UTF-8" standalone="no"?>
<!DOCTYPE svg PUBLIC "-//W3C//DTD SVG 1.1//EN"
 "http://www.w3.org/Graphics/SVG/1.1/DTD/svg11.dtd">
<!-- Generated by graphviz version 2.43.0 (0)
 -->
<!-- Title: HighLevelEnergyCalculator::calculate_phase_correction Pages: 1 -->
<!--zoomable 434 -->

<svg id="main" version="1.1" xmlns="http://www.w3.org/2000/svg" xmlns:xlink="http://www.w3.org/1999/xlink" xml:space="preserve" onload="init(evt)">
<style type="text/css"><![CDATA[
.node, .edge {opacity: 0.7;}
.node.selected, .edge.selected {opacity: 1;}
.edge:hover path { stroke: red; }
.edge:hover polygon { stroke: red; fill: red; }
]]></style>

<defs>
  <circle id="rim" cx="0" cy="0" r="7"/>
  <circle id="rim2" cx="0" cy="0" r="3.5"/>
  <g id="zoomPlus">
    <use xlink:href="#rim" fill="#404040"><set attributeName="fill" to="#808080" begin="zoomplus.mouseover" end="zoomplus.mouseout"/></use>
    <path d="M-4,0h8M0,-4v8" fill="none" stroke="white" stroke-width="1.5" pointer-events="none"/>
  </g>
  <g id="zoomMin">
    <use xlink:href="#rim" fill="#404040"><set attributeName="fill" to="#808080" begin="zoomminus.mouseover" end="zoomminus.mouseout"/></use>
    <path d="M-4,0h8" fill="none" stroke="white" stroke-width="1.5" pointer-events="none"/>
  </g>
  <g id="arrowUp" transform="translate(30 24)">
    <use xlink:href="#rim"/>
    <path pointer-events="none" fill="none" stroke="white" stroke-width="1.5" d="M0,-3.0v7 M-2.5,-0.5L0,-3.0L2.5,-0.5"/>
  </g>
  <g id="arrowRight" transform="rotate(90) translate(36 -43)">
    <use xlink:href="#rim"/>
    <path pointer-events="none" fill="none" stroke="white" stroke-width="1.5" d="M0,-3.0v7 M-2.5,-0.5L0,-3.0L2.5,-0.5"/>
  </g>
  <g id="arrowDown" transform="rotate(180) translate(-30 -48)">
    <use xlink:href="#rim"/>
    <path pointer-events="none" fill="none" stroke="white" stroke-width="1.5" d="M0,-3.0v7 M-2.5,-0.5L0,-3.0L2.5,-0.5"/>
  </g>
  <g id="arrowLeft" transform="rotate(270) translate(-36 17)">
    <use xlink:href="#rim"/>
    <path pointer-events="none" fill="none" stroke="white" stroke-width="1.5" d="M0,-3.0v7 M-2.5,-0.5L0,-3.0L2.5,-0.5"/>
  </g>
  <g id="resetDef">
    <use xlink:href="#rim2" fill="#404040"><set attributeName="fill" to="#808080" begin="reset.mouseover" end="reset.mouseout"/></use>
  </g>
</defs>
<script type="application/ecmascript">
var viewWidth = 1202;
var viewHeight = 434;
var sectionId = 'dynsection-0';
</script>
<script type="application/ecmascript" xlink:href="svg.min.js"/>
<svg id="graph" class="graph">
<g id="viewport">
<title>HighLevelEnergyCalculator::calculate_phase_correction</title>
<!-- Node1 -->
<g id="Node000001" class="node">
<title>Node1</title>
<g id="a_Node000001"><a xlink:title="Calculate phase correction for concentration effects.">
<polygon fill="#999999" stroke="#666666" points="1194,-258.5 1039,-258.5 1039,-228.5 1194,-228.5 1194,-258.5"/>
<text text-anchor="start" x="1047" y="-246.5" font-family="Helvetica,sans-Serif" font-size="10.00">HighLevelEnergyCalculator</text>
<text text-anchor="middle" x="1116.5" y="-235.5" font-family="Helvetica,sans-Serif" font-size="10.00">::calculate_phase_correction</text>
</a>
</g>
</g>
<!-- Node2 -->
<g id="Node000002" class="node">
<title>Node2</title>
<g id="a_Node000002"><a xlink:href="group__MainCalculation.html#gacaba75cc61d8b3ec08efd5976ce4325f" target="_top" xlink:title="Calculate high&#45;level energy for a single file.">
<polygon fill="white" stroke="#666666" points="1003,-306.5 842,-306.5 842,-276.5 1003,-276.5 1003,-306.5"/>
<text text-anchor="start" x="850" y="-294.5" font-family="Helvetica,sans-Serif" font-size="10.00">HighLevelEnergyCalculator</text>
<text text-anchor="middle" x="922.5" y="-283.5" font-family="Helvetica,sans-Serif" font-size="10.00">::calculate_high_level_energy</text>
</a>
</g>
</g>
<!-- Node1&#45;&gt;Node2 -->
<g id="edge1_Node000001_Node000002" class="edge">
<title>Node1&#45;&gt;Node2</title>
<g id="a_edge1_Node000001_Node000002"><a xlink:title=" ">
<path fill="none" stroke="#63b8ff" d="M1045.46,-261.01C1025.14,-266.09 1003.15,-271.59 983.51,-276.5"/>
<polygon fill="#63b8ff" stroke="#63b8ff" points="1046.42,-264.38 1055.28,-258.56 1044.73,-257.59 1046.42,-264.38"/>
</a>
</g>
</g>
<!-- Node13 -->
<g id="Node000013" class="node">
<title>Node13</title>
<g id="a_Node000013"><a xlink:href="group__OutputFormatting.html#ga127aea9652788ee774b4d8d1f2602959" target="_top" xlink:title="Print summary information about calculation.">
<polygon fill="white" stroke="#666666" points="793,-185.5 644,-185.5 644,-155.5 793,-155.5 793,-185.5"/>
<text text-anchor="start" x="652" y="-173.5" font-family="Helvetica,sans-Serif" font-size="10.00">HighLevelEnergyCalculator</text>
<text text-anchor="middle" x="718.5" y="-162.5" font-family="Helvetica,sans-Serif" font-size="10.00">::print_summary_info</text>
</a>
</g>
</g>
<!-- Node1&#45;&gt;Node13 -->
<g id="edge19_Node000001_Node000013" class="edge">
<title>Node1&#45;&gt;Node13</title>
<g id="a_edge19_Node000001_Node000013"><a xlink:title=" ">
<path fill="none" stroke="#63b8ff" d="M1028.48,-227.46C957.98,-214.46 859.73,-196.35 793.1,-184.07"/>
<polygon fill="#63b8ff" stroke="#63b8ff" points="1028.21,-230.97 1038.68,-229.34 1029.48,-224.08 1028.21,-230.97"/>
</a>
</g>
</g>
<!-- Node3 -->
<g id="Node000003" class="node">
<title>Node3</title>
<g id="a_Node000003"><a xlink:href="group__MainCalculation.html#ga69523c18f35fc5a0d58d64495c230cea" target="_top" xlink:title="Process entire directory of high&#45;level calculations.">
<polygon fill="white" stroke="#666666" points="579,-233.5 430,-233.5 430,-203.5 579,-203.5 579,-233.5"/>
<text text-anchor="start" x="438" y="-221.5" font-family="Helvetica,sans-Serif" font-size="10.00">HighLevelEnergyCalculator</text>
<text text-anchor="middle" x="504.5" y="-210.5" font-family="Helvetica,sans-Serif" font-size="10.00">::process_directory</text>
</a>
</g>
</g>
<!-- Node2&#45;&gt;Node3 -->
<g id="edge2_Node000002_Node000003" class="edge">
<title>Node2&#45;&gt;Node3</title>
<g id="a_edge2_Node000002_Node000003"><a xlink:title=" ">
<path fill="none" stroke="#63b8ff" d="M883.13,-272.01C861.12,-261.75 832.65,-249.98 806,-243.5 730.08,-225.05 640.54,-219.61 579.07,-218.29"/>
<polygon fill="#63b8ff" stroke="#63b8ff" points="881.91,-275.31 892.44,-276.45 884.92,-268.99 881.91,-275.31"/>
</a>
</g>
</g>
<!-- Node8 -->
<g id="Node000008" class="node">
<title>Node8</title>
<g id="a_Node000008"><a xlink:href="group__MainCalculation.html#gab8dc66d665a45b29b6b0d1c1cc4e2208" target="_top" xlink:title="Process files with custom resource limits.">
<polygon fill="white" stroke="#666666" points="579,-425.5 430,-425.5 430,-395.5 579,-395.5 579,-425.5"/>
<text text-anchor="start" x="438" y="-413.5" font-family="Helvetica,sans-Serif" font-size="10.00">HighLevelEnergyCalculator</text>
<text text-anchor="middle" x="504.5" y="-402.5" font-family="Helvetica,sans-Serif" font-size="10.00">::process_files_with_limits</text>
</a>
</g>
</g>
<!-- Node2&#45;&gt;Node8 -->
<g id="edge10_Node000002_Node000008" class="edge">
<title>Node2&#45;&gt;Node8</title>
<g id="a_edge10_Node000002_Node000008"><a xlink:title=" ">
<path fill="none" stroke="#63b8ff" d="M902.49,-314.59C881.58,-338.11 845.65,-373.35 806,-389.5 732.98,-419.23 641.76,-421.23 579.09,-417.85"/>
<polygon fill="#63b8ff" stroke="#63b8ff" points="905.33,-316.65 909.24,-306.81 900.04,-312.07 905.33,-316.65"/>
</a>
</g>
</g>
<!-- Node9 -->
<g id="Node000009" class="node">
<title>Node9</title>
<g id="a_Node000009"><a xlink:href="group__ParallelProcessing.html#ga30ddb3084923fb944336f5c6cf7f43e8" target="_top" xlink:title="Enhanced parallel processing using thread pool.">
<polygon fill="white" stroke="#666666" points="806,-282.5 631,-282.5 631,-252.5 806,-252.5 806,-282.5"/>
<text text-anchor="start" x="639" y="-270.5" font-family="Helvetica,sans-Serif" font-size="10.00">HighLevelEnergyCalculator</text>
<text text-anchor="middle" x="718.5" y="-259.5" font-family="Helvetica,sans-Serif" font-size="10.00">::process_files_with_thread_pool</text>
</a>
</g>
</g>
<!-- Node2&#45;&gt;Node9 -->
<g id="edge11_Node000002_Node000009" class="edge">
<title>Node2&#45;&gt;Node9</title>
<g id="a_edge11_Node000002_Node000009"><a xlink:title=" ">
<path fill="none" stroke="#63b8ff" d="M832,-280.87C823.46,-279.85 814.82,-278.82 806.31,-277.81"/>
<polygon fill="#63b8ff" stroke="#63b8ff" points="831.61,-284.34 841.95,-282.05 832.44,-277.39 831.61,-284.34"/>
</a>
</g>
</g>
<!-- Node11 -->
<g id="Node000011" class="node">
<title>Node11</title>
<g id="a_Node000011"><a xlink:href="group__ParallelProcessing.html#ga2e962d5fa18800edaf087ac6b7f6caf0" target="_top" xlink:title="Worker function for parallel file processing.">
<polygon fill="white" stroke="#666666" points="793,-380.5 644,-380.5 644,-350.5 793,-350.5 793,-380.5"/>
<text text-anchor="start" x="652" y="-368.5" font-family="Helvetica,sans-Serif" font-size="10.00">HighLevelEnergyCalculator</text>
<text text-anchor="middle" x="718.5" y="-357.5" font-family="Helvetica,sans-Serif" font-size="10.00">::process_files_worker</text>
</a>
</g>
</g>
<!-- Node2&#45;&gt;Node11 -->
<g id="edge16_Node000002_Node000011" class="edge">
<title>Node2&#45;&gt;Node11</title>
<g id="a_edge16_Node000002_Node000011"><a xlink:title=" ">
<path fill="none" stroke="#63b8ff" d="M878.29,-310.69C856.77,-319.93 830.23,-330.85 806,-339.5 795.37,-343.3 783.87,-347.01 772.84,-350.4"/>
<polygon fill="#63b8ff" stroke="#63b8ff" points="879.7,-313.89 887.49,-306.71 876.92,-307.46 879.7,-313.89"/>
</a>
</g>
</g>
<!-- Node12 -->
<g id="Node000012" class="node">
<title>Node12</title>
<g id="a_Node000012"><a xlink:href="group__ParallelProcessing.html#gac2f3665873e2399cfcf6dcc6557291d6" target="_top" xlink:title="Process single file with enhanced error handling.">
<polygon fill="white" stroke="#666666" points="802,-330.5 635,-330.5 635,-300.5 802,-300.5 802,-330.5"/>
<text text-anchor="start" x="643" y="-318.5" font-family="Helvetica,sans-Serif" font-size="10.00">HighLevelEnergyCalculator</text>
<text text-anchor="middle" x="718.5" y="-307.5" font-family="Helvetica,sans-Serif" font-size="10.00">::process_single_file_enhanced</text>
</a>
</g>
</g>
<!-- Node2&#45;&gt;Node12 -->
<g id="edge18_Node000002_Node000012" class="edge">
<title>Node2&#45;&gt;Node12</title>
<g id="a_edge18_Node000002_Node000012"><a xlink:title=" ">
<path fill="none" stroke="#63b8ff" d="M831.79,-302.16C821.98,-303.32 812.02,-304.51 802.3,-305.66"/>
<polygon fill="#63b8ff" stroke="#63b8ff" points="832.44,-305.61 841.95,-300.95 831.61,-298.66 832.44,-305.61"/>
</a>
</g>
</g>
<!-- Node4 -->
<g id="Node000004" class="node">
<title>Node4</title>
<g id="a_Node000004"><a xlink:href="group__ModuleExecutors.html#gab1aa2594a8bb3d2789d37593f69cbc5e" target="_top" xlink:title=" ">
<polygon fill="white" stroke="#666666" points="358.5,-229.5 248.5,-229.5 248.5,-199.5 358.5,-199.5 358.5,-229.5"/>
<text text-anchor="start" x="256.5" y="-217.5" font-family="Helvetica,sans-Serif" font-size="10.00">execute_high_level</text>
<text text-anchor="middle" x="303.5" y="-206.5" font-family="Helvetica,sans-Serif" font-size="10.00">_au_command</text>
</a>
</g>
</g>
<!-- Node3&#45;&gt;Node4 -->
<g id="edge3_Node000003_Node000004" class="edge">
<title>Node3&#45;&gt;Node4</title>
<g id="a_edge3_Node000003_Node000004"><a xlink:title=" ">
<path fill="none" stroke="#63b8ff" d="M419.91,-216.82C399.23,-216.4 377.62,-215.97 358.76,-215.59"/>
<polygon fill="#63b8ff" stroke="#63b8ff" points="419.9,-220.32 429.97,-217.02 420.04,-213.32 419.9,-220.32"/>
</a>
</g>
</g>
<!-- Node7 -->
<g id="Node000007" class="node">
<title>Node7</title>
<g id="a_Node000007"><a xlink:href="group__ModuleExecutors.html#gaefd8d559f7f798aaf8cb5f6feb9dce47" target="_top" xlink:title=" ">
<polygon fill="white" stroke="#666666" points="358.5,-284.5 248.5,-284.5 248.5,-254.5 358.5,-254.5 358.5,-284.5"/>
<text text-anchor="start" x="256.5" y="-272.5" font-family="Helvetica,sans-Serif" font-size="10.00">execute_high_level</text>
<text text-anchor="middle" x="303.5" y="-261.5" font-family="Helvetica,sans-Serif" font-size="10.00">_kj_command</text>
</a>
</g>
</g>
<!-- Node3&#45;&gt;Node7 -->
<g id="edge7_Node000003_Node000007" class="edge">
<title>Node3&#45;&gt;Node7</title>
<g id="a_edge7_Node000003_Node000007"><a xlink:title=" ">
<path fill="none" stroke="#63b8ff" d="M435.09,-236.03C410.1,-242.44 382.2,-249.59 358.63,-255.63"/>
<polygon fill="#63b8ff" stroke="#63b8ff" points="436.05,-239.4 444.87,-233.53 434.31,-232.62 436.05,-239.4"/>
</a>
</g>
</g>
<!-- Node5 -->
<g id="Node000005" class="node">
<title>Node5</title>
<g id="a_Node000005"><a xlink:href="main_8cpp.html#a0ddf1224851353fc92bfbff6f499fa97" target="_top" xlink:title="Main entry point for the Gaussian Extractor application.">
<polygon fill="white" stroke="#666666" points="41,-255 0,-255 0,-236 41,-236 41,-255"/>
<text text-anchor="middle" x="20.5" y="-243" font-family="Helvetica,sans-Serif" font-size="10.00">main</text>
</a>
</g>
</g>
<!-- Node4&#45;&gt;Node5 -->
<g id="edge4_Node000004_Node000005" class="edge">
<title>Node4&#45;&gt;Node5</title>
<g id="a_edge4_Node000004_Node000005"><a xlink:title=" ">
<path fill="none" stroke="#63b8ff" d="M238.22,-213.23C192.79,-213.46 130.67,-216.09 77,-226.5 64.8,-228.86 51.63,-233.29 41.17,-237.28"/>
<polygon fill="#63b8ff" stroke="#63b8ff" points="238.23,-216.73 248.23,-213.21 238.22,-209.73 238.23,-216.73"/>
</a>
</g>
</g>
<!-- Node6 -->
<g id="Node000006" class="node">
<title>Node6</title>
<g id="a_Node000006"><a xlink:href="interactive__mode_8cpp.html#a6b615c34054150d837dc45ed1c17b297" target="_top" xlink:title="Enhanced interactive command loop with TAB completion for Windows.">
<polygon fill="white" stroke="#666666" points="193,-255 77,-255 77,-236 193,-236 193,-255"/>
<text text-anchor="middle" x="135" y="-243" font-family="Helvetica,sans-Serif" font-size="10.00">run_interactive_loop</text>
</a>
</g>
</g>
<!-- Node4&#45;&gt;Node6 -->
<g id="edge5_Node000004_Node000006" class="edge">
<title>Node4&#45;&gt;Node6</title>
<g id="a_edge5_Node000004_Node000006"><a xlink:title=" ">
<path fill="none" stroke="#63b8ff" d="M238.59,-226.4C221.6,-229.56 203.46,-232.94 187.24,-235.96"/>
<polygon fill="#63b8ff" stroke="#63b8ff" points="239.25,-229.84 248.44,-224.56 237.97,-222.95 239.25,-229.84"/>
</a>
</g>
</g>
<!-- Node6&#45;&gt;Node5 -->
<g id="edge6_Node000006_Node000005" class="edge">
<title>Node6&#45;&gt;Node5</title>
<g id="a_edge6_Node000006_Node000005"><a xlink:title=" ">
<path fill="none" stroke="#63b8ff" d="M66.62,-245.5C57.37,-245.5 48.55,-245.5 41.19,-245.5"/>
<polygon fill="#63b8ff" stroke="#63b8ff" points="66.76,-249 76.76,-245.5 66.76,-242 66.76,-249"/>
</a>
</g>
</g>
<!-- Node7&#45;&gt;Node5 -->
<g id="edge8_Node000007_Node000005" class="edge">
<title>Node7&#45;&gt;Node5</title>
<g id="a_edge8_Node000007_Node000005"><a xlink:title=" ">
<path fill="none" stroke="#63b8ff" d="M238.31,-272.65C192.92,-273.7 130.83,-272.75 77,-263.5 64.82,-261.41 51.64,-257.22 41.19,-253.41"/>
<polygon fill="#63b8ff" stroke="#63b8ff" points="238.41,-276.15 248.31,-272.38 238.22,-269.15 238.41,-276.15"/>
</a>
</g>
</g>
<!-- Node7&#45;&gt;Node6 -->
<g id="edge9_Node000007_Node000006" class="edge">
<title>Node7&#45;&gt;Node6</title>
<g id="a_edge9_Node000007_Node000006"><a xlink:title=" ">
<path fill="none" stroke="#63b8ff" d="M238.32,-260.25C223.47,-258.11 207.76,-255.84 193.23,-253.75"/>
<polygon fill="#63b8ff" stroke="#63b8ff" points="238.05,-263.75 248.44,-261.71 239.04,-256.82 238.05,-263.75"/>
</a>
</g>
</g>
<!-- Node9&#45;&gt;Node8 -->
<g id="edge15_Node000009_Node000008" class="edge">
<title>Node9&#45;&gt;Node8</title>
<g id="a_edge15_Node000009_Node000008"><a xlink:title=" ">
<path fill="none" stroke="#63b8ff" d="M635.07,-288.1C633.67,-289.18 632.31,-290.31 631,-291.5 597.64,-321.93 628.49,-356.21 595,-386.5 590.35,-390.71 585.03,-394.19 579.37,-397.07"/>
<polygon fill="#63b8ff" stroke="#63b8ff" points="637.15,-290.92 643.59,-282.52 633.31,-285.07 637.15,-290.92"/>
</a>
</g>
</g>
<!-- Node10 -->
<g id="Node000010" class="node">
<title>Node10</title>
<g id="a_Node000010"><a xlink:href="group__MainCalculation.html#gac76ff006f7aae2e96c804a8ca786d692" target="_top" xlink:title="Process entire directory with parallel processing.">
<polygon fill="white" stroke="#666666" points="580,-281.5 429,-281.5 429,-251.5 580,-251.5 580,-281.5"/>
<text text-anchor="start" x="437" y="-269.5" font-family="Helvetica,sans-Serif" font-size="10.00">HighLevelEnergyCalculator</text>
<text text-anchor="middle" x="504.5" y="-258.5" font-family="Helvetica,sans-Serif" font-size="10.00">::process_directory_parallel</text>
</a>
</g>
</g>
<!-- Node9&#45;&gt;Node10 -->
<g id="edge12_Node000009_Node000010" class="edge">
<title>Node9&#45;&gt;Node10</title>
<g id="a_edge12_Node000009_Node000010"><a xlink:title=" ">
<path fill="none" stroke="#63b8ff" d="M620.64,-267.04C607.07,-266.98 593.29,-266.91 580.22,-266.85"/>
<polygon fill="#63b8ff" stroke="#63b8ff" points="620.95,-270.54 630.97,-267.09 620.98,-263.54 620.95,-270.54"/>
</a>
</g>
</g>
<!-- Node10&#45;&gt;Node4 -->
<g id="edge13_Node000010_Node000004" class="edge">
<title>Node10&#45;&gt;Node4</title>
<g id="a_edge13_Node000010_Node000004"><a xlink:title=" ">
<path fill="none" stroke="#63b8ff" d="M436.06,-248.88C410.78,-242.27 382.42,-234.86 358.52,-228.61"/>
<polygon fill="#63b8ff" stroke="#63b8ff" points="435.38,-252.32 445.94,-251.46 437.15,-245.54 435.38,-252.32"/>
</a>
</g>
</g>
<!-- Node10&#45;&gt;Node7 -->
<g id="edge14_Node000010_Node000007" class="edge">
<title>Node10&#45;&gt;Node7</title>
<g id="a_edge14_Node000010_Node000007"><a xlink:title=" ">
<path fill="none" stroke="#63b8ff" d="M418.64,-267.78C398.35,-268.09 377.24,-268.4 358.76,-268.68"/>
<polygon fill="#63b8ff" stroke="#63b8ff" points="418.89,-271.28 428.83,-267.63 418.78,-264.28 418.89,-271.28"/>
</a>
</g>
</g>
<!-- Node11&#45;&gt;Node8 -->
<g id="edge17_Node000011_Node000008" class="edge">
<title>Node11&#45;&gt;Node8</title>
<g id="a_edge17_Node000011_Node000008"><a xlink:title=" ">
<path fill="none" stroke="#63b8ff" d="M636.66,-382.66C616.8,-386.88 595.68,-391.36 576.32,-395.47"/>
<polygon fill="#63b8ff" stroke="#63b8ff" points="637.56,-386.05 646.61,-380.55 636.1,-379.2 637.56,-386.05"/>
</a>
</g>
</g>
<!-- Node14 -->
<g id="Node000014" class="node">
<title>Node14</title>
<g id="a_Node000014"><a xlink:href="group__OutputFunctions.html#ga3578194a0e7fcca0bb3b023afa33bdec" target="_top" xlink:title="Print results in CSV format with detailed energy components.">
<polygon fill="white" stroke="#666666" points="589.5,-137.5 419.5,-137.5 419.5,-107.5 589.5,-107.5 589.5,-137.5"/>
<text text-anchor="start" x="427.5" y="-125.5" font-family="Helvetica,sans-Serif" font-size="10.00">HighLevelEnergyCalculator</text>
<text text-anchor="middle" x="504.5" y="-114.5" font-family="Helvetica,sans-Serif" font-size="10.00">::print_components_csv_format</text>
</a>
</g>
</g>
<!-- Node13&#45;&gt;Node14 -->
<g id="edge20_Node000013_Node000014" class="edge">
<title>Node13&#45;&gt;Node14</title>
<g id="a_edge20_Node000013_Node000014"><a xlink:title=" ">
<path fill="none" stroke="#63b8ff" d="M641.08,-153.2C618.39,-148.06 593.74,-142.48 571.76,-137.5"/>
<polygon fill="#63b8ff" stroke="#63b8ff" points="640.48,-156.65 651,-155.44 642.02,-149.82 640.48,-156.65"/>
</a>
</g>
</g>
<!-- Node15 -->
<g id="Node000015" class="node">
<title>Node15</title>
<g id="a_Node000015"><a xlink:href="group__DynamicOutputFormatting.html#ga3a4bf6a916d8b341fff654d3f1da54c9" target="_top" xlink:title="Print results in components format with dynamic column widths.">
<polygon fill="white" stroke="#666666" points="579,-41 430,-41 430,0 579,0 579,-41"/>
<text text-anchor="start" x="438" y="-29" font-family="Helvetica,sans-Serif" font-size="10.00">HighLevelEnergyCalculator</text>
<text text-anchor="start" x="438" y="-18" font-family="Helvetica,sans-Serif" font-size="10.00">::print_components_format</text>
<text text-anchor="middle" x="504.5" y="-7" font-family="Helvetica,sans-Serif" font-size="10.00">_dynamic</text>
</a>
</g>
</g>
<!-- Node13&#45;&gt;Node15 -->
<g id="edge22_Node000013_Node000015" class="edge">
<title>Node13&#45;&gt;Node15</title>
<g id="a_edge22_Node000013_Node000015"><a xlink:title=" ">
<path fill="none" stroke="#63b8ff" d="M699.44,-147.32C677.43,-120.51 637.85,-76.73 595,-50.5 589.27,-46.99 583.08,-43.84 576.72,-41.02"/>
<polygon fill="#63b8ff" stroke="#63b8ff" points="696.94,-149.8 705.95,-155.38 702.39,-145.4 696.94,-149.8"/>
</a>
</g>
</g>
<!-- Node17 -->
<g id="Node000017" class="node">
<title>Node17</title>
<g id="a_Node000017"><a xlink:href="group__DynamicOutputFormatting.html#ga932472faa109e17046c43975dfb053fb" target="_top" xlink:title="Print results in components format with static column widths.">
<polygon fill="white" stroke="#666666" points="595,-185.5 414,-185.5 414,-155.5 595,-155.5 595,-185.5"/>
<text text-anchor="start" x="422" y="-173.5" font-family="Helvetica,sans-Serif" font-size="10.00">HighLevelEnergyCalculator</text>
<text text-anchor="middle" x="504.5" y="-162.5" font-family="Helvetica,sans-Serif" font-size="10.00">::print_components_format_static</text>
</a>
</g>
</g>
<!-- Node13&#45;&gt;Node17 -->
<g id="edge25_Node000013_Node000017" class="edge">
<title>Node13&#45;&gt;Node17</title>
<g id="a_edge25_Node000013_Node000017"><a xlink:title=" ">
<path fill="none" stroke="#63b8ff" d="M633.91,-170.5C621.25,-170.5 608.15,-170.5 595.37,-170.5"/>
<polygon fill="#63b8ff" stroke="#63b8ff" points="633.95,-174 643.95,-170.5 633.95,-167 633.95,-174"/>
</a>
</g>
</g>
<!-- Node18 -->
<g id="Node000018" class="node">
<title>Node18</title>
<g id="a_Node000018"><a xlink:href="group__OutputFunctions.html#gacb8b3c91ca4914d5c3bca035e3843ac2" target="_top" xlink:title="Print results in CSV format optimized for Gibbs energies.">
<polygon fill="white" stroke="#666666" points="579,-329.5 430,-329.5 430,-299.5 579,-299.5 579,-329.5"/>
<text text-anchor="start" x="438" y="-317.5" font-family="Helvetica,sans-Serif" font-size="10.00">HighLevelEnergyCalculator</text>
<text text-anchor="middle" x="504.5" y="-306.5" font-family="Helvetica,sans-Serif" font-size="10.00">::print_gibbs_csv_format</text>
</a>
</g>
</g>
<!-- Node13&#45;&gt;Node18 -->
<g id="edge26_Node000013_Node000018" class="edge">
<title>Node13&#45;&gt;Node18</title>
<g id="a_edge26_Node000013_Node000018"><a xlink:title=" ">
<path fill="none" stroke="#63b8ff" d="M689.01,-191.97C671.46,-205.81 648.95,-224.68 631,-243.5 612.84,-262.54 616.87,-275.87 595,-290.5 589.92,-293.9 584.37,-296.82 578.62,-299.32"/>
<polygon fill="#63b8ff" stroke="#63b8ff" points="691.45,-194.51 697.19,-185.6 687.15,-188.98 691.45,-194.51"/>
</a>
</g>
</g>
<!-- Node19 -->
<g id="Node000019" class="node">
<title>Node19</title>
<g id="a_Node000019"><a xlink:href="group__DynamicOutputFormatting.html#ga1b6138e25512b7d0efdca762f53d8c00" target="_top" xlink:title="Print results in Gibbs format with dynamic column widths.">
<polygon fill="white" stroke="#666666" points="585.5,-377.5 423.5,-377.5 423.5,-347.5 585.5,-347.5 585.5,-377.5"/>
<text text-anchor="start" x="431.5" y="-365.5" font-family="Helvetica,sans-Serif" font-size="10.00">HighLevelEnergyCalculator</text>
<text text-anchor="middle" x="504.5" y="-354.5" font-family="Helvetica,sans-Serif" font-size="10.00">::print_gibbs_format_dynamic</text>
</a>
</g>
</g>
<!-- Node13&#45;&gt;Node19 -->
<g id="edge28_Node000013_Node000019" class="edge">
<title>Node13&#45;&gt;Node19</title>
<g id="a_edge28_Node000013_Node000019"><a xlink:title=" ">
<path fill="none" stroke="#63b8ff" d="M685.17,-191.59C667.17,-204.71 645.54,-222.96 631,-243.5 604.91,-280.35 628.49,-308.21 595,-338.5 591.18,-341.95 586.92,-344.92 582.39,-347.46"/>
<polygon fill="#63b8ff" stroke="#63b8ff" points="687.53,-194.21 693.66,-185.57 683.48,-188.5 687.53,-194.21"/>
</a>
</g>
</g>
<!-- Node21 -->
<g id="Node000021" class="node">
<title>Node21</title>
<g id="a_Node000021"><a xlink:href="group__DynamicOutputFormatting.html#ga3a3430c4a259752ea6a75b60cbad38cf" target="_top" xlink:title="Print results in Gibbs format with static column widths.">
<polygon fill="white" stroke="#666666" points="579,-89.5 430,-89.5 430,-59.5 579,-59.5 579,-89.5"/>
<text text-anchor="start" x="438" y="-77.5" font-family="Helvetica,sans-Serif" font-size="10.00">HighLevelEnergyCalculator</text>
<text text-anchor="middle" x="504.5" y="-66.5" font-family="Helvetica,sans-Serif" font-size="10.00">::print_gibbs_format_static</text>
</a>
</g>
</g>
<!-- Node13&#45;&gt;Node21 -->
<g id="edge31_Node000013_Node000021" class="edge">
<title>Node13&#45;&gt;Node21</title>
<g id="a_edge31_Node000013_Node000021"><a xlink:title=" ">
<path fill="none" stroke="#63b8ff" d="M687.52,-149.77C663.42,-133.9 628.23,-112.42 595,-98.5 587.14,-95.21 578.69,-92.25 570.25,-89.63"/>
<polygon fill="#63b8ff" stroke="#63b8ff" points="685.61,-152.7 695.87,-155.34 689.49,-146.88 685.61,-152.7"/>
</a>
</g>
</g>
<!-- Node14&#45;&gt;Node4 -->
<g id="edge21_Node000014_Node000004" class="edge">
<title>Node14&#45;&gt;Node4</title>
<g id="a_edge21_Node000014_Node000004"><a xlink:title=" ">
<path fill="none" stroke="#63b8ff" d="M428.55,-140.82C423.57,-142.58 418.68,-144.47 414,-146.5 380.94,-160.82 346.15,-184.03 324.89,-199.27"/>
<polygon fill="#63b8ff" stroke="#63b8ff" points="429.82,-144.08 438.2,-137.6 427.61,-137.44 429.82,-144.08"/>
</a>
</g>
</g>
<!-- Node15&#45;&gt;Node4 -->
<g id="edge23_Node000015_Node000004" class="edge">
<title>Node15&#45;&gt;Node4</title>
<g id="a_edge23_Node000015_Node000004"><a xlink:title=" ">
<path fill="none" stroke="#63b8ff" d="M420.58,-45.91C418.31,-47.36 416.11,-48.89 414,-50.5 360.15,-91.67 324.1,-167.26 310.52,-199.4"/>
<polygon fill="#63b8ff" stroke="#63b8ff" points="422.71,-48.73 429.64,-40.72 419.23,-42.65 422.71,-48.73"/>
</a>
</g>
</g>
<!-- Node16 -->
<g id="Node000016" class="node">
<title>Node16</title>
<g id="a_Node000016"><a xlink:href="group__OutputFunctions.html#ga662bddcabe4e2beb2658451fb36e109b" target="_top" xlink:title="Print results with detailed energy component breakdown.">
<polygon fill="white" stroke="#666666" points="378,-35.5 229,-35.5 229,-5.5 378,-5.5 378,-35.5"/>
<text text-anchor="start" x="237" y="-23.5" font-family="Helvetica,sans-Serif" font-size="10.00">HighLevelEnergyCalculator</text>
<text text-anchor="middle" x="303.5" y="-12.5" font-family="Helvetica,sans-Serif" font-size="10.00">::print_components_format</text>
</a>
</g>
</g>
<!-- Node15&#45;&gt;Node16 -->
<g id="edge24_Node000015_Node000016" class="edge">
<title>Node15&#45;&gt;Node16</title>
<g id="a_edge24_Node000015_Node000016"><a xlink:title=" ">
<path fill="none" stroke="#63b8ff" d="M419.93,-20.5C406.03,-20.5 391.7,-20.5 378.06,-20.5"/>
<polygon fill="#63b8ff" stroke="#63b8ff" points="419.97,-24 429.97,-20.5 419.97,-17 419.97,-24"/>
</a>
</g>
</g>
<!-- Node18&#45;&gt;Node7 -->
<g id="edge27_Node000018_Node000007" class="edge">
<title>Node18&#45;&gt;Node7</title>
<g id="a_edge27_Node000018_Node000007"><a xlink:title=" ">
<path fill="none" stroke="#63b8ff" d="M426.98,-297.2C404.22,-292.05 379.77,-286.52 358.74,-281.76"/>
<polygon fill="#63b8ff" stroke="#63b8ff" points="426.43,-300.66 436.96,-299.45 427.98,-293.83 426.43,-300.66"/>
</a>
</g>
</g>
<!-- Node19&#45;&gt;Node7 -->
<g id="edge29_Node000019_Node000007" class="edge">
<title>Node19&#45;&gt;Node7</title>
<g id="a_edge29_Node000019_Node000007"><a xlink:title=" ">
<path fill="none" stroke="#63b8ff" d="M428.53,-344.22C423.56,-342.45 418.67,-340.54 414,-338.5 380.65,-323.92 345.66,-300.16 324.46,-284.68"/>
<polygon fill="#63b8ff" stroke="#63b8ff" points="427.59,-347.59 438.18,-347.45 429.81,-340.95 427.59,-347.59"/>
</a>
</g>
</g>
<!-- Node20 -->
<g id="Node000020" class="node">
<title>Node20</title>
<g id="a_Node000020"><a xlink:href="group__OutputFunctions.html#ga8bd0bcb08333beae561c2b44df59c8a5" target="_top" xlink:title="Print results in Gibbs free energy focused format.">
<polygon fill="white" stroke="#666666" points="378,-377.5 229,-377.5 229,-347.5 378,-347.5 378,-377.5"/>
<text text-anchor="start" x="237" y="-365.5" font-family="Helvetica,sans-Serif" font-size="10.00">HighLevelEnergyCalculator</text>
<text text-anchor="middle" x="303.5" y="-354.5" font-family="Helvetica,sans-Serif" font-size="10.00">::print_gibbs_format</text>
</a>
</g>
</g>
<!-- Node19&#45;&gt;Node20 -->
<g id="edge30_Node000019_Node000020" class="edge">
<title>Node19&#45;&gt;Node20</title>
<g id="a_edge30_Node000019_Node000020"><a xlink:title=" ">
<path fill="none" stroke="#63b8ff" d="M413.21,-362.5C401.53,-362.5 389.67,-362.5 378.3,-362.5"/>
<polygon fill="#63b8ff" stroke="#63b8ff" points="413.42,-366 423.42,-362.5 413.42,-359 413.42,-366"/>
</a>
</g>
</g>
</g>
</svg>

<g id="navigator" transform="translate(0 0)" fill="#404254">
  <rect fill="#f2f5e9" fill-opacity="0.5" stroke="#606060" stroke-width=".5" x="0" y="0" width="60" height="60"/>
  <use id="zoomplus" xlink:href="#zoomPlus" x="17" y="9" onmousedown="handleZoom(evt,'in')"/>
  <use id="zoomminus" xlink:href="#zoomMin" x="42" y="9" onmousedown="handleZoom(evt,'out')"/>
  <use id="reset" xlink:href="#resetDef" x="30" y="36" onmousedown="handleReset()"/>
   <use id="arrowup" xlink:href="#arrowUp" x="0" y="0" onmousedown="handlePan(0,-1)"/>
  <use id="arrowright" xlink:href="#arrowRight" x="0" y="0" onmousedown="handlePan(1,0)"/>
  <use id="arrowdown" xlink:href="#arrowDown" x="0" y="0" onmousedown="handlePan(0,1)"/>
  <use id="arrowleft" xlink:href="#arrowLeft" x="0" y="0" onmousedown="handlePan(-1,0)"/>
</g>
<svg viewBox="0 0 15 15" width="100%" height="30px" preserveAspectRatio="xMaxYMin meet">
 <g id="arrow_out" transform="scale(0.3 0.3)">
  <a xlink:href="group__CalculationHelpers_ga77837f5437ca34aa38ba7c9518d85480_icgraph_org.svg" target="_base">
   <rect id="button" ry="5" rx="5" y="6" x="6" height="38" width="38"
        fill="#f2f5e9" fill-opacity="0.5" stroke="#606060" stroke-width="1.0"/>
   <path id="arrow"
     d="M 11.500037,31.436501 C 11.940474,20.09759 22.043105,11.32322 32.158766,21.979434 L 37.068811,17.246167 C 37.068811,17.246167 37.088388,32 37.088388,32 L 22.160133,31.978069 C 22.160133,31.978069 26.997745,27.140456 26.997745,27.140456 C 18.528582,18.264221 13.291696,25.230495 11.500037,31.436501 z"
     style="fill:#404040;"/>
  </a>
 </g>
</svg>

<style type='text/css'>
<![CDATA[
[data-mouse-over-selected='false'] { opacity: 0.7; }
[data-mouse-over-selected='true']  { opacity: 1.0; }
]]>
</style>
<script type="application/ecmascript"><![CDATA[
document.addEventListener('DOMContentLoaded', (event) => {
  highlightEdges();
  highlightAdjacentNodes();
});
]]></script>
</svg>
