<?xml version="1.0" encoding="UTF-8" standalone="no"?>
<!DOCTYPE svg PUBLIC "-//W3C//DTD SVG 1.1//EN"
 "http://www.w3.org/Graphics/SVG/1.1/DTD/svg11.dtd">
<!-- Generated by graphviz version 2.43.0 (0)
 -->
<!-- Title: HighLevelEnergyCalculator::format_filename Pages: 1 -->
<svg width="994pt" height="346pt"
 viewBox="0.00 0.00 994.00 345.50" xmlns="http://www.w3.org/2000/svg" xmlns:xlink="http://www.w3.org/1999/xlink">
<g id="graph0" class="graph" transform="scale(1 1) rotate(0) translate(4 341.5)">
<title>HighLevelEnergyCalculator::format_filename</title>
<!-- Node1 -->
<g id="Node000001" class="node">
<title>Node1</title>
<g id="a_Node000001"><a xlink:title="Format filename for display with length limit.">
<polygon fill="#999999" stroke="#666666" points="986,-185 837,-185 837,-155 986,-155 986,-185"/>
<text text-anchor="start" x="845" y="-173" font-family="Helvetica,sans-Serif" font-size="10.00">HighLevelEnergyCalculator</text>
<text text-anchor="middle" x="911.5" y="-162" font-family="Helvetica,sans-Serif" font-size="10.00">::format_filename</text>
</a>
</g>
</g>
<!-- Node2 -->
<g id="Node000002" class="node">
<title>Node2</title>
<g id="a_Node000002"><a xlink:href="group__DynamicFormatting.html#gad4102d396e74d81a81176b3e66a70142" target="_top" xlink:title="Calculate optimal column widths for components format output.">
<polygon fill="white" stroke="#666666" points="785,-337.5 636,-337.5 636,-296.5 785,-296.5 785,-337.5"/>
<text text-anchor="start" x="644" y="-325.5" font-family="Helvetica,sans-Serif" font-size="10.00">HighLevelEnergyCalculator</text>
<text text-anchor="start" x="644" y="-314.5" font-family="Helvetica,sans-Serif" font-size="10.00">::calculate_components</text>
<text text-anchor="middle" x="710.5" y="-303.5" font-family="Helvetica,sans-Serif" font-size="10.00">_column_widths</text>
</a>
</g>
</g>
<!-- Node1&#45;&gt;Node2 -->
<g id="edge1_Node000001_Node000002" class="edge">
<title>Node1&#45;&gt;Node2</title>
<g id="a_edge1_Node000001_Node000002"><a xlink:title=" ">
<path fill="none" stroke="#63b8ff" d="M892.86,-193.19C872.92,-218.06 838.32,-257.29 801,-282 792.79,-287.43 783.61,-292.22 774.35,-296.37"/>
<polygon fill="#63b8ff" stroke="#63b8ff" points="895.85,-195.06 899.29,-185.04 890.35,-190.73 895.85,-195.06"/>
</a>
</g>
</g>
<!-- Node3 -->
<g id="Node000003" class="node">
<title>Node3</title>
<g id="a_Node000003"><a xlink:href="group__DynamicOutputFormatting.html#ga3a4bf6a916d8b341fff654d3f1da54c9" target="_top" xlink:title="Print results in components format with dynamic column widths.">
<polygon fill="white" stroke="#666666" points="573.5,-296.5 424.5,-296.5 424.5,-255.5 573.5,-255.5 573.5,-296.5"/>
<text text-anchor="start" x="432.5" y="-284.5" font-family="Helvetica,sans-Serif" font-size="10.00">HighLevelEnergyCalculator</text>
<text text-anchor="start" x="432.5" y="-273.5" font-family="Helvetica,sans-Serif" font-size="10.00">::print_components_format</text>
<text text-anchor="middle" x="499" y="-262.5" font-family="Helvetica,sans-Serif" font-size="10.00">_dynamic</text>
</a>
</g>
</g>
<!-- Node1&#45;&gt;Node3 -->
<g id="edge16_Node000001_Node000003" class="edge">
<title>Node1&#45;&gt;Node3</title>
<g id="a_edge16_Node000001_Node000003"><a xlink:title=" ">
<path fill="none" stroke="#63b8ff" d="M868.05,-189.12C848.01,-197.61 823.59,-207.19 801,-214 724.75,-236.97 635.1,-254.23 573.59,-264.63"/>
<polygon fill="#63b8ff" stroke="#63b8ff" points="869.7,-192.22 877.51,-185.06 866.94,-185.79 869.7,-192.22"/>
</a>
</g>
</g>
<!-- Node8 -->
<g id="Node000008" class="node">
<title>Node8</title>
<g id="a_Node000008"><a xlink:href="group__DynamicFormatting.html#ga1498f3f22c1cac77c44e60549f78683d" target="_top" xlink:title="Calculate optimal column widths for Gibbs format output.">
<polygon fill="white" stroke="#666666" points="799,-164 622,-164 622,-134 799,-134 799,-164"/>
<text text-anchor="start" x="630" y="-152" font-family="Helvetica,sans-Serif" font-size="10.00">HighLevelEnergyCalculator</text>
<text text-anchor="middle" x="710.5" y="-141" font-family="Helvetica,sans-Serif" font-size="10.00">::calculate_gibbs_column_widths</text>
</a>
</g>
</g>
<!-- Node1&#45;&gt;Node8 -->
<g id="edge8_Node000001_Node000008" class="edge">
<title>Node1&#45;&gt;Node8</title>
<g id="a_edge8_Node000001_Node000008"><a xlink:title=" ">
<path fill="none" stroke="#63b8ff" d="M826.77,-161.16C817.66,-160.2 808.37,-159.22 799.22,-158.26"/>
<polygon fill="#63b8ff" stroke="#63b8ff" points="826.65,-164.67 836.97,-162.24 827.39,-157.71 826.65,-164.67"/>
</a>
</g>
</g>
<!-- Node9 -->
<g id="Node000009" class="node">
<title>Node9</title>
<g id="a_Node000009"><a xlink:href="group__DynamicOutputFormatting.html#ga1b6138e25512b7d0efdca762f53d8c00" target="_top" xlink:title="Print results in Gibbs format with dynamic column widths.">
<polygon fill="white" stroke="#666666" points="580,-176 418,-176 418,-146 580,-146 580,-176"/>
<text text-anchor="start" x="426" y="-164" font-family="Helvetica,sans-Serif" font-size="10.00">HighLevelEnergyCalculator</text>
<text text-anchor="middle" x="499" y="-153" font-family="Helvetica,sans-Serif" font-size="10.00">::print_gibbs_format_dynamic</text>
</a>
</g>
</g>
<!-- Node1&#45;&gt;Node9 -->
<g id="edge20_Node000001_Node000009" class="edge">
<title>Node1&#45;&gt;Node9</title>
<g id="a_edge20_Node000001_Node000009"><a xlink:title=" ">
<path fill="none" stroke="#63b8ff" d="M826.71,-172.53C818.03,-172.72 809.34,-172.89 801,-173 720.56,-174.1 700.34,-177.01 620,-173 607.14,-172.36 593.53,-171.33 580.28,-170.14"/>
<polygon fill="#63b8ff" stroke="#63b8ff" points="826.96,-176.03 836.88,-172.29 826.8,-169.03 826.96,-176.03"/>
</a>
</g>
</g>
<!-- Node12 -->
<g id="Node000012" class="node">
<title>Node12</title>
<g id="a_Node000012"><a xlink:href="group__OutputFunctions.html#ga3578194a0e7fcca0bb3b023afa33bdec" target="_top" xlink:title="Print results in CSV format with detailed energy components.">
<polygon fill="white" stroke="#666666" points="584,-237 414,-237 414,-207 584,-207 584,-237"/>
<text text-anchor="start" x="422" y="-225" font-family="Helvetica,sans-Serif" font-size="10.00">HighLevelEnergyCalculator</text>
<text text-anchor="middle" x="499" y="-214" font-family="Helvetica,sans-Serif" font-size="10.00">::print_components_csv_format</text>
</a>
</g>
</g>
<!-- Node1&#45;&gt;Node12 -->
<g id="edge14_Node000001_Node000012" class="edge">
<title>Node1&#45;&gt;Node12</title>
<g id="a_edge14_Node000001_Node000012"><a xlink:title=" ">
<path fill="none" stroke="#63b8ff" d="M827.08,-185.03C818.28,-186.45 809.47,-187.8 801,-189 728,-199.33 644.64,-208.24 584.19,-214.19"/>
<polygon fill="#63b8ff" stroke="#63b8ff" points="827.67,-188.48 836.97,-183.41 826.54,-181.57 827.67,-188.48"/>
</a>
</g>
</g>
<!-- Node13 -->
<g id="Node000013" class="node">
<title>Node13</title>
<g id="a_Node000013"><a xlink:href="group__DynamicOutputFormatting.html#ga932472faa109e17046c43975dfb053fb" target="_top" xlink:title="Print results in components format with static column widths.">
<polygon fill="white" stroke="#666666" points="801,-116 620,-116 620,-86 801,-86 801,-116"/>
<text text-anchor="start" x="628" y="-104" font-family="Helvetica,sans-Serif" font-size="10.00">HighLevelEnergyCalculator</text>
<text text-anchor="middle" x="710.5" y="-93" font-family="Helvetica,sans-Serif" font-size="10.00">::print_components_format_static</text>
</a>
</g>
</g>
<!-- Node1&#45;&gt;Node13 -->
<g id="edge17_Node000001_Node000013" class="edge">
<title>Node1&#45;&gt;Node13</title>
<g id="a_edge17_Node000001_Node000013"><a xlink:title=" ">
<path fill="none" stroke="#63b8ff" d="M867.45,-150.82C847.46,-142.3 823.25,-132.52 801,-125 791.7,-121.86 781.76,-118.85 771.99,-116.09"/>
<polygon fill="#63b8ff" stroke="#63b8ff" points="866.32,-154.14 876.89,-154.88 869.09,-147.71 866.32,-154.14"/>
</a>
</g>
</g>
<!-- Node14 -->
<g id="Node000014" class="node">
<title>Node14</title>
<g id="a_Node000014"><a xlink:href="group__OutputFunctions.html#gacb8b3c91ca4914d5c3bca035e3843ac2" target="_top" xlink:title="Print results in CSV format optimized for Gibbs energies.">
<polygon fill="white" stroke="#666666" points="573.5,-107 424.5,-107 424.5,-77 573.5,-77 573.5,-107"/>
<text text-anchor="start" x="432.5" y="-95" font-family="Helvetica,sans-Serif" font-size="10.00">HighLevelEnergyCalculator</text>
<text text-anchor="middle" x="499" y="-84" font-family="Helvetica,sans-Serif" font-size="10.00">::print_gibbs_csv_format</text>
</a>
</g>
</g>
<!-- Node1&#45;&gt;Node14 -->
<g id="edge18_Node000001_Node000014" class="edge">
<title>Node1&#45;&gt;Node14</title>
<g id="a_edge18_Node000001_Node000014"><a xlink:title=" ">
<path fill="none" stroke="#63b8ff" d="M892.1,-146.89C872.37,-124.14 838.74,-90.86 801,-77 718.86,-46.83 615.57,-62.48 553.83,-76.96"/>
<polygon fill="#63b8ff" stroke="#63b8ff" points="889.6,-149.35 898.72,-154.74 894.95,-144.84 889.6,-149.35"/>
</a>
</g>
</g>
<!-- Node15 -->
<g id="Node000015" class="node">
<title>Node15</title>
<g id="a_Node000015"><a xlink:href="group__DynamicOutputFormatting.html#ga3a3430c4a259752ea6a75b60cbad38cf" target="_top" xlink:title="Print results in Gibbs format with static column widths.">
<polygon fill="white" stroke="#666666" points="785,-30 636,-30 636,0 785,0 785,-30"/>
<text text-anchor="start" x="644" y="-18" font-family="Helvetica,sans-Serif" font-size="10.00">HighLevelEnergyCalculator</text>
<text text-anchor="middle" x="710.5" y="-7" font-family="Helvetica,sans-Serif" font-size="10.00">::print_gibbs_format_static</text>
</a>
</g>
</g>
<!-- Node1&#45;&gt;Node15 -->
<g id="edge21_Node000001_Node000015" class="edge">
<title>Node1&#45;&gt;Node15</title>
<g id="a_edge21_Node000001_Node000015"><a xlink:title=" ">
<path fill="none" stroke="#63b8ff" d="M895.82,-146.37C877.12,-118.12 842.22,-71.27 801,-44 792.55,-38.41 782.95,-33.83 773.24,-30.1"/>
<polygon fill="#63b8ff" stroke="#63b8ff" points="892.94,-148.35 901.31,-154.84 898.81,-144.54 892.94,-148.35"/>
</a>
</g>
</g>
<!-- Node2&#45;&gt;Node3 -->
<g id="edge2_Node000002_Node000003" class="edge">
<title>Node2&#45;&gt;Node3</title>
<g id="a_edge2_Node000002_Node000003"><a xlink:title=" ">
<path fill="none" stroke="#63b8ff" d="M625.89,-300.64C608.65,-297.26 590.61,-293.73 573.74,-290.43"/>
<polygon fill="#63b8ff" stroke="#63b8ff" points="625.45,-304.12 635.93,-302.6 626.79,-297.25 625.45,-304.12"/>
</a>
</g>
</g>
<!-- Node4 -->
<g id="Node000004" class="node">
<title>Node4</title>
<g id="a_Node000004"><a xlink:href="group__ModuleExecutors.html#gab1aa2594a8bb3d2789d37593f69cbc5e" target="_top" xlink:title=" ">
<polygon fill="white" stroke="#666666" points="358.5,-237 248.5,-237 248.5,-207 358.5,-207 358.5,-237"/>
<text text-anchor="start" x="256.5" y="-225" font-family="Helvetica,sans-Serif" font-size="10.00">execute_high_level</text>
<text text-anchor="middle" x="303.5" y="-214" font-family="Helvetica,sans-Serif" font-size="10.00">_au_command</text>
</a>
</g>
</g>
<!-- Node3&#45;&gt;Node4 -->
<g id="edge3_Node000003_Node000004" class="edge">
<title>Node3&#45;&gt;Node4</title>
<g id="a_edge3_Node000003_Node000004"><a xlink:title=" ">
<path fill="none" stroke="#63b8ff" d="M414.45,-252.68C395.47,-247.39 375.81,-241.9 358.44,-237.05"/>
<polygon fill="#63b8ff" stroke="#63b8ff" points="413.72,-256.11 424.29,-255.43 415.6,-249.37 413.72,-256.11"/>
</a>
</g>
</g>
<!-- Node7 -->
<g id="Node000007" class="node">
<title>Node7</title>
<g id="a_Node000007"><a xlink:href="group__OutputFunctions.html#ga662bddcabe4e2beb2658451fb36e109b" target="_top" xlink:title="Print results with detailed energy component breakdown.">
<polygon fill="white" stroke="#666666" points="378,-291 229,-291 229,-261 378,-261 378,-291"/>
<text text-anchor="start" x="237" y="-279" font-family="Helvetica,sans-Serif" font-size="10.00">HighLevelEnergyCalculator</text>
<text text-anchor="middle" x="303.5" y="-268" font-family="Helvetica,sans-Serif" font-size="10.00">::print_components_format</text>
</a>
</g>
</g>
<!-- Node3&#45;&gt;Node7 -->
<g id="edge7_Node000003_Node000007" class="edge">
<title>Node3&#45;&gt;Node7</title>
<g id="a_edge7_Node000003_Node000007"><a xlink:title=" ">
<path fill="none" stroke="#63b8ff" d="M414.24,-276C402.18,-276 389.84,-276 378,-276"/>
<polygon fill="#63b8ff" stroke="#63b8ff" points="414.29,-279.5 424.29,-276 414.29,-272.5 414.29,-279.5"/>
</a>
</g>
</g>
<!-- Node5 -->
<g id="Node000005" class="node">
<title>Node5</title>
<g id="a_Node000005"><a xlink:href="main_8cpp.html#a0ddf1224851353fc92bfbff6f499fa97" target="_top" xlink:title="Main entry point for the Gaussian Extractor application.">
<polygon fill="white" stroke="#666666" points="41,-188.5 0,-188.5 0,-169.5 41,-169.5 41,-188.5"/>
<text text-anchor="middle" x="20.5" y="-176.5" font-family="Helvetica,sans-Serif" font-size="10.00">main</text>
</a>
</g>
</g>
<!-- Node4&#45;&gt;Node5 -->
<g id="edge4_Node000004_Node000005" class="edge">
<title>Node4&#45;&gt;Node5</title>
<g id="a_edge4_Node000004_Node000005"><a xlink:title=" ">
<path fill="none" stroke="#63b8ff" d="M238.23,-218.36C192.81,-214.94 130.7,-208.56 77,-197 64.82,-194.38 51.53,-190.12 41.01,-186.4"/>
<polygon fill="#63b8ff" stroke="#63b8ff" points="238.01,-221.85 248.24,-219.09 238.52,-214.87 238.01,-221.85"/>
</a>
</g>
</g>
<!-- Node6 -->
<g id="Node000006" class="node">
<title>Node6</title>
<g id="a_Node000006"><a xlink:href="interactive__mode_8cpp.html#a6b615c34054150d837dc45ed1c17b297" target="_top" xlink:title="Enhanced interactive command loop with TAB completion for Windows.">
<polygon fill="white" stroke="#666666" points="193,-188.5 77,-188.5 77,-169.5 193,-169.5 193,-188.5"/>
<text text-anchor="middle" x="135" y="-176.5" font-family="Helvetica,sans-Serif" font-size="10.00">run_interactive_loop</text>
</a>
</g>
</g>
<!-- Node4&#45;&gt;Node6 -->
<g id="edge5_Node000004_Node000006" class="edge">
<title>Node4&#45;&gt;Node6</title>
<g id="a_edge5_Node000004_Node000006"><a xlink:title=" ">
<path fill="none" stroke="#63b8ff" d="M238.72,-205.53C216.48,-199.79 192.28,-193.54 172.96,-188.55"/>
<polygon fill="#63b8ff" stroke="#63b8ff" points="237.88,-208.93 248.44,-208.04 239.64,-202.15 237.88,-208.93"/>
</a>
</g>
</g>
<!-- Node6&#45;&gt;Node5 -->
<g id="edge6_Node000006_Node000005" class="edge">
<title>Node6&#45;&gt;Node5</title>
<g id="a_edge6_Node000006_Node000005"><a xlink:title=" ">
<path fill="none" stroke="#63b8ff" d="M66.62,-179C57.37,-179 48.55,-179 41.19,-179"/>
<polygon fill="#63b8ff" stroke="#63b8ff" points="66.76,-182.5 76.76,-179 66.76,-175.5 66.76,-182.5"/>
</a>
</g>
</g>
<!-- Node8&#45;&gt;Node9 -->
<g id="edge9_Node000008_Node000009" class="edge">
<title>Node8&#45;&gt;Node9</title>
<g id="a_edge9_Node000008_Node000009"><a xlink:title=" ">
<path fill="none" stroke="#63b8ff" d="M611.79,-154.6C601.23,-155.2 590.58,-155.81 580.26,-156.4"/>
<polygon fill="#63b8ff" stroke="#63b8ff" points="612.08,-158.09 621.87,-154.02 611.68,-151.1 612.08,-158.09"/>
</a>
</g>
</g>
<!-- Node10 -->
<g id="Node000010" class="node">
<title>Node10</title>
<g id="a_Node000010"><a xlink:href="group__ModuleExecutors.html#gaefd8d559f7f798aaf8cb5f6feb9dce47" target="_top" xlink:title=" ">
<polygon fill="white" stroke="#666666" points="358.5,-141 248.5,-141 248.5,-111 358.5,-111 358.5,-141"/>
<text text-anchor="start" x="256.5" y="-129" font-family="Helvetica,sans-Serif" font-size="10.00">execute_high_level</text>
<text text-anchor="middle" x="303.5" y="-118" font-family="Helvetica,sans-Serif" font-size="10.00">_kj_command</text>
</a>
</g>
</g>
<!-- Node9&#45;&gt;Node10 -->
<g id="edge10_Node000009_Node000010" class="edge">
<title>Node9&#45;&gt;Node10</title>
<g id="a_edge10_Node000009_Node000010"><a xlink:title=" ">
<path fill="none" stroke="#63b8ff" d="M408.01,-144.72C391.14,-141.67 373.99,-138.57 358.63,-135.79"/>
<polygon fill="#63b8ff" stroke="#63b8ff" points="407.44,-148.18 417.9,-146.51 408.68,-141.29 407.44,-148.18"/>
</a>
</g>
</g>
<!-- Node11 -->
<g id="Node000011" class="node">
<title>Node11</title>
<g id="a_Node000011"><a xlink:href="group__OutputFunctions.html#ga8bd0bcb08333beae561c2b44df59c8a5" target="_top" xlink:title="Print results in Gibbs free energy focused format.">
<polygon fill="white" stroke="#666666" points="378,-189 229,-189 229,-159 378,-159 378,-189"/>
<text text-anchor="start" x="237" y="-177" font-family="Helvetica,sans-Serif" font-size="10.00">HighLevelEnergyCalculator</text>
<text text-anchor="middle" x="303.5" y="-166" font-family="Helvetica,sans-Serif" font-size="10.00">::print_gibbs_format</text>
</a>
</g>
</g>
<!-- Node9&#45;&gt;Node11 -->
<g id="edge13_Node000009_Node000011" class="edge">
<title>Node9&#45;&gt;Node11</title>
<g id="a_edge13_Node000009_Node000011"><a xlink:title=" ">
<path fill="none" stroke="#63b8ff" d="M407.62,-167.07C397.71,-167.74 387.7,-168.41 378.03,-169.06"/>
<polygon fill="#63b8ff" stroke="#63b8ff" points="408.16,-170.54 417.9,-166.38 407.69,-163.56 408.16,-170.54"/>
</a>
</g>
</g>
<!-- Node10&#45;&gt;Node5 -->
<g id="edge11_Node000010_Node000005" class="edge">
<title>Node10&#45;&gt;Node5</title>
<g id="a_edge11_Node000010_Node000005"><a xlink:title=" ">
<path fill="none" stroke="#63b8ff" d="M238.19,-132.57C192.75,-137.97 130.63,-146.89 77,-160 64.83,-162.97 51.54,-167.48 41.02,-171.35"/>
<polygon fill="#63b8ff" stroke="#63b8ff" points="238.68,-136.04 248.2,-131.41 237.87,-129.09 238.68,-136.04"/>
</a>
</g>
</g>
<!-- Node10&#45;&gt;Node6 -->
<g id="edge12_Node000010_Node000006" class="edge">
<title>Node10&#45;&gt;Node6</title>
<g id="a_edge12_Node000010_Node000006"><a xlink:title=" ">
<path fill="none" stroke="#63b8ff" d="M245.6,-144.11C218.91,-152.61 188.18,-162.39 166.06,-169.43"/>
<polygon fill="#63b8ff" stroke="#63b8ff" points="246.77,-147.41 255.23,-141.05 244.64,-140.74 246.77,-147.41"/>
</a>
</g>
</g>
<!-- Node12&#45;&gt;Node4 -->
<g id="edge15_Node000012_Node000004" class="edge">
<title>Node12&#45;&gt;Node4</title>
<g id="a_edge15_Node000012_Node000004"><a xlink:title=" ">
<path fill="none" stroke="#63b8ff" d="M403.81,-222C388.3,-222 372.7,-222 358.61,-222"/>
<polygon fill="#63b8ff" stroke="#63b8ff" points="403.97,-225.5 413.97,-222 403.97,-218.5 403.97,-225.5"/>
</a>
</g>
</g>
<!-- Node14&#45;&gt;Node10 -->
<g id="edge19_Node000014_Node000010" class="edge">
<title>Node14&#45;&gt;Node10</title>
<g id="a_edge19_Node000014_Node000010"><a xlink:title=" ">
<path fill="none" stroke="#63b8ff" d="M414.24,-106.72C395.44,-110.02 375.97,-113.44 358.74,-116.47"/>
<polygon fill="#63b8ff" stroke="#63b8ff" points="415.05,-110.13 424.29,-104.95 413.84,-103.23 415.05,-110.13"/>
</a>
</g>
</g>
</g>
</svg>
