<?xml version="1.0" encoding="UTF-8" standalone="no"?>
<!DOCTYPE svg PUBLIC "-//W3C//DTD SVG 1.1//EN"
 "http://www.w3.org/Graphics/SVG/1.1/DTD/svg11.dtd">
<!-- Generated by graphviz version 2.43.0 (0)
 -->
<!-- Title: JobSchedulerDetector::detect_sge_resources Pages: 1 -->
<svg width="468pt" height="172pt"
 viewBox="0.00 0.00 468.00 172.00" xmlns="http://www.w3.org/2000/svg" xmlns:xlink="http://www.w3.org/1999/xlink">

<svg id="main" version="1.1" xmlns="http://www.w3.org/2000/svg" xmlns:xlink="http://www.w3.org/1999/xlink" xml:space="preserve" onload="init(evt)">
<style type="text/css"><![CDATA[
.node, .edge {opacity: 0.7;}
.node.selected, .edge.selected {opacity: 1;}
.edge:hover path { stroke: red; }
.edge:hover polygon { stroke: red; fill: red; }
]]></style>
<script type="application/ecmascript" xlink:href="svg.min.js"/>
<svg id="graph" class="graph">
<g id="graph0" class="graph" transform="scale(1 1) rotate(0) translate(4 168)">
<title>JobSchedulerDetector::detect_sge_resources</title>
<!-- Node1 -->
<g id="Node000001" class="node">
<title>Node1</title>
<g id="a_Node000001"><a xlink:title="Extract resource information from SGE/OGS environment.">
<polygon fill="#999999" stroke="#666666" points="128,-99 0,-99 0,-69 128,-69 128,-99"/>
<text text-anchor="start" x="8" y="-87" font-family="Helvetica,sans-Serif" font-size="10.00">JobSchedulerDetector</text>
<text text-anchor="middle" x="64" y="-76" font-family="Helvetica,sans-Serif" font-size="10.00">::detect_sge_resources</text>
</a>
</g>
</g>
<!-- Node2 -->
<g id="Node000002" class="node">
<title>Node2</title>
<g id="a_Node000002"><a xlink:href="group__EnvironmentHelpers.html#gade9468a3b205731f1aa25d53a32edeca" target="_top" xlink:title="Get long integer environment variable value.">
<polygon fill="white" stroke="#666666" points="294,-164 172,-164 172,-134 294,-134 294,-164"/>
<text text-anchor="start" x="180" y="-152" font-family="Helvetica,sans-Serif" font-size="10.00">JobSchedulerDetector</text>
<text text-anchor="middle" x="233" y="-141" font-family="Helvetica,sans-Serif" font-size="10.00">::get_env_long</text>
</a>
</g>
</g>
<!-- Node1&#45;&gt;Node2 -->
<g id="edge1_Node000001_Node000002" class="edge">
<title>Node1&#45;&gt;Node2</title>
<g id="a_edge1_Node000001_Node000002"><a xlink:title=" ">
<path fill="none" stroke="#63b8ff" d="M103.73,-99.08C127.57,-108.35 158.32,-120.32 183.73,-130.21"/>
<polygon fill="#63b8ff" stroke="#63b8ff" points="182.6,-133.53 193.19,-133.89 185.14,-127 182.6,-133.53"/>
</a>
</g>
</g>
<!-- Node3 -->
<g id="Node000003" class="node">
<title>Node3</title>
<g id="a_Node000003"><a xlink:href="group__EnvironmentHelpers.html#ga462d9065c82e9250768f5fe6cea9929b" target="_top" xlink:title="Get environment variable value with default fallback.">
<polygon fill="white" stroke="#666666" points="460,-99 338,-99 338,-69 460,-69 460,-99"/>
<text text-anchor="start" x="346" y="-87" font-family="Helvetica,sans-Serif" font-size="10.00">JobSchedulerDetector</text>
<text text-anchor="middle" x="399" y="-76" font-family="Helvetica,sans-Serif" font-size="10.00">::get_env_var</text>
</a>
</g>
</g>
<!-- Node1&#45;&gt;Node3 -->
<g id="edge2_Node000001_Node000003" class="edge">
<title>Node1&#45;&gt;Node3</title>
<g id="a_edge2_Node000001_Node000003"><a xlink:title=" ">
<path fill="none" stroke="#63b8ff" d="M128.1,-86.2C140.03,-86.53 152.39,-86.82 164,-87 225.33,-87.93 240.67,-87.96 302,-87 310.33,-86.87 319.06,-86.68 327.73,-86.45"/>
<polygon fill="#63b8ff" stroke="#63b8ff" points="327.94,-89.94 337.83,-86.17 327.74,-82.95 327.94,-89.94"/>
</a>
</g>
</g>
<!-- Node4 -->
<g id="Node000004" class="node">
<title>Node4</title>
<g id="a_Node000004"><a xlink:href="group__DetectionMethods.html#ga34ce79ae6eec92775d73cb4692c52566" target="_top" xlink:title="Extract job ID from scheduler environment.">
<polygon fill="white" stroke="#666666" points="294,-78 172,-78 172,-48 294,-48 294,-78"/>
<text text-anchor="start" x="180" y="-66" font-family="Helvetica,sans-Serif" font-size="10.00">JobSchedulerDetector</text>
<text text-anchor="middle" x="233" y="-55" font-family="Helvetica,sans-Serif" font-size="10.00">::get_job_id</text>
</a>
</g>
</g>
<!-- Node1&#45;&gt;Node4 -->
<g id="edge3_Node000001_Node000004" class="edge">
<title>Node1&#45;&gt;Node4</title>
<g id="a_edge3_Node000001_Node000004"><a xlink:title=" ">
<path fill="none" stroke="#63b8ff" d="M128.14,-76.06C139.1,-74.68 150.56,-73.24 161.7,-71.84"/>
<polygon fill="#63b8ff" stroke="#63b8ff" points="162.33,-75.29 171.81,-70.57 161.45,-68.34 162.33,-75.29"/>
</a>
</g>
</g>
<!-- Node5 -->
<g id="Node000005" class="node">
<title>Node5</title>
<g id="a_Node000005"><a xlink:href="group__PrivateParsers.html#gaef6c0a64fcb73d01deb070200fd84a52" target="_top" xlink:title="Parse general memory format strings.">
<polygon fill="white" stroke="#666666" points="302,-30 164,-30 164,0 302,0 302,-30"/>
<text text-anchor="start" x="172" y="-18" font-family="Helvetica,sans-Serif" font-size="10.00">JobSchedulerDetector</text>
<text text-anchor="middle" x="233" y="-7" font-family="Helvetica,sans-Serif" font-size="10.00">::parse_general_memory</text>
</a>
</g>
</g>
<!-- Node1&#45;&gt;Node5 -->
<g id="edge5_Node000001_Node000005" class="edge">
<title>Node1&#45;&gt;Node5</title>
<g id="a_edge5_Node000001_Node000005"><a xlink:title=" ">
<path fill="none" stroke="#63b8ff" d="M96.35,-68.9C115.67,-59.81 141.06,-48.24 164,-39 168.48,-37.19 173.16,-35.39 177.87,-33.62"/>
<polygon fill="#63b8ff" stroke="#63b8ff" points="179.35,-36.8 187.53,-30.07 176.94,-30.23 179.35,-36.8"/>
</a>
</g>
</g>
<!-- Node4&#45;&gt;Node3 -->
<g id="edge4_Node000004_Node000003" class="edge">
<title>Node4&#45;&gt;Node3</title>
<g id="a_edge4_Node000004_Node000003"><a xlink:title=" ">
<path fill="none" stroke="#63b8ff" d="M294.14,-70.7C305.05,-72.1 316.53,-73.57 327.71,-75"/>
<polygon fill="#63b8ff" stroke="#63b8ff" points="327.51,-78.5 337.87,-76.3 328.4,-71.56 327.51,-78.5"/>
</a>
</g>
</g>
</g>
</svg>
</svg>

<style type='text/css'>
<![CDATA[
[data-mouse-over-selected='false'] { opacity: 0.7; }
[data-mouse-over-selected='true']  { opacity: 1.0; }
]]>
</style>
<script type="application/ecmascript"><![CDATA[
document.addEventListener('DOMContentLoaded', (event) => {
  highlightEdges();
  highlightAdjacentNodes();
});
]]></script>
</svg>
