<?xml version="1.0" encoding="UTF-8" standalone="no"?>
<!DOCTYPE svg PUBLIC "-//W3C//DTD SVG 1.1//EN"
 "http://www.w3.org/Graphics/SVG/1.1/DTD/svg11.dtd">
<!-- Generated by graphviz version 2.43.0 (0)
 -->
<!-- Title: HighLevelEnergyCalculator::process_files_with_limits Pages: 1 -->
<svg width="1150pt" height="450pt"
 viewBox="0.00 0.00 1150.00 450.00" xmlns="http://www.w3.org/2000/svg" xmlns:xlink="http://www.w3.org/1999/xlink">
<g id="graph0" class="graph" transform="scale(1 1) rotate(0) translate(4 446)">
<title>HighLevelEnergyCalculator::process_files_with_limits</title>
<!-- Node1 -->
<g id="Node000001" class="node">
<title>Node1</title>
<g id="a_Node000001"><a xlink:title="Process files with custom resource limits.">
<polygon fill="#999999" stroke="#666666" points="149,-236 0,-236 0,-206 149,-206 149,-236"/>
<text text-anchor="start" x="8" y="-224" font-family="Helvetica,sans-Serif" font-size="10.00">HighLevelEnergyCalculator</text>
<text text-anchor="middle" x="74.5" y="-213" font-family="Helvetica,sans-Serif" font-size="10.00">::process_files_with_limits</text>
</a>
</g>
</g>
<!-- Node2 -->
<g id="Node000002" class="node">
<title>Node2</title>
<g id="a_Node000002"><a xlink:href="group__MainCalculation.html#gacaba75cc61d8b3ec08efd5976ce4325f" target="_top" xlink:title="Calculate high&#45;level energy for a single file.">
<polygon fill="white" stroke="#666666" points="557,-236 396,-236 396,-206 557,-206 557,-236"/>
<text text-anchor="start" x="404" y="-224" font-family="Helvetica,sans-Serif" font-size="10.00">HighLevelEnergyCalculator</text>
<text text-anchor="middle" x="476.5" y="-213" font-family="Helvetica,sans-Serif" font-size="10.00">::calculate_high_level_energy</text>
</a>
</g>
</g>
<!-- Node1&#45;&gt;Node2 -->
<g id="edge1_Node000001_Node000002" class="edge">
<title>Node1&#45;&gt;Node2</title>
<g id="a_edge1_Node000001_Node000002"><a xlink:title=" ">
<path fill="none" stroke="#63b8ff" d="M149.33,-221C216.03,-221 314.37,-221 385.62,-221"/>
<polygon fill="#63b8ff" stroke="#63b8ff" points="385.93,-224.5 395.93,-221 385.93,-217.5 385.93,-224.5"/>
</a>
</g>
</g>
<!-- Node21 -->
<g id="Node000021" class="node">
<title>Node21</title>
<g id="a_Node000021"><a xlink:href="group__ParallelProcessing.html#ga30ddb3084923fb944336f5c6cf7f43e8" target="_top" xlink:title="Enhanced parallel processing using thread pool.">
<polygon fill="white" stroke="#666666" points="360,-193 185,-193 185,-163 360,-163 360,-193"/>
<text text-anchor="start" x="193" y="-181" font-family="Helvetica,sans-Serif" font-size="10.00">HighLevelEnergyCalculator</text>
<text text-anchor="middle" x="272.5" y="-170" font-family="Helvetica,sans-Serif" font-size="10.00">::process_files_with_thread_pool</text>
</a>
</g>
</g>
<!-- Node1&#45;&gt;Node21 -->
<g id="edge24_Node000001_Node000021" class="edge">
<title>Node1&#45;&gt;Node21</title>
<g id="a_edge24_Node000001_Node000021"><a xlink:title=" ">
<path fill="none" stroke="#63b8ff" d="M144.05,-205.96C159.87,-202.49 176.81,-198.77 193.01,-195.22"/>
<polygon fill="#63b8ff" stroke="#63b8ff" points="193.97,-198.59 202.99,-193.03 192.47,-191.76 193.97,-198.59"/>
</a>
</g>
</g>
<!-- Node23 -->
<g id="Node000023" class="node">
<title>Node23</title>
<g id="a_Node000023"><a xlink:href="group__ParallelProcessing.html#ga2e962d5fa18800edaf087ac6b7f6caf0" target="_top" xlink:title="Worker function for parallel file processing.">
<polygon fill="white" stroke="#666666" points="347,-279 198,-279 198,-249 347,-249 347,-279"/>
<text text-anchor="start" x="206" y="-267" font-family="Helvetica,sans-Serif" font-size="10.00">HighLevelEnergyCalculator</text>
<text text-anchor="middle" x="272.5" y="-256" font-family="Helvetica,sans-Serif" font-size="10.00">::process_files_worker</text>
</a>
</g>
</g>
<!-- Node1&#45;&gt;Node23 -->
<g id="edge27_Node000001_Node000023" class="edge">
<title>Node1&#45;&gt;Node23</title>
<g id="a_edge27_Node000001_Node000023"><a xlink:title=" ">
<path fill="none" stroke="#63b8ff" d="M144.05,-236.04C159.87,-239.51 176.81,-243.23 193.01,-246.78"/>
<polygon fill="#63b8ff" stroke="#63b8ff" points="192.47,-250.24 202.99,-248.97 193.97,-243.41 192.47,-250.24"/>
</a>
</g>
</g>
<!-- Node3 -->
<g id="Node000003" class="node">
<title>Node3</title>
<g id="a_Node000003"><a xlink:href="group__CalculationHelpers.html#ga77837f5437ca34aa38ba7c9518d85480" target="_top" xlink:title="Calculate phase correction for concentration effects.">
<polygon fill="white" stroke="#666666" points="760,-442 605,-442 605,-412 760,-412 760,-442"/>
<text text-anchor="start" x="613" y="-430" font-family="Helvetica,sans-Serif" font-size="10.00">HighLevelEnergyCalculator</text>
<text text-anchor="middle" x="682.5" y="-419" font-family="Helvetica,sans-Serif" font-size="10.00">::calculate_phase_correction</text>
</a>
</g>
</g>
<!-- Node2&#45;&gt;Node3 -->
<g id="edge2_Node000002_Node000003" class="edge">
<title>Node2&#45;&gt;Node3</title>
<g id="a_edge2_Node000002_Node000003"><a xlink:title=" ">
<path fill="none" stroke="#63b8ff" d="M482.72,-236.15C495.6,-271.2 532.29,-358.27 593,-403 594.87,-404.38 596.82,-405.68 598.83,-406.91"/>
<polygon fill="#63b8ff" stroke="#63b8ff" points="597.51,-410.17 607.98,-411.82 600.83,-404.01 597.51,-410.17"/>
</a>
</g>
</g>
<!-- Node4 -->
<g id="Node000004" class="node">
<title>Node4</title>
<g id="a_Node000004"><a xlink:href="group__CalculationHelpers.html#ga375d0ec0aea5fde065c700c0d4ef8a62" target="_top" xlink:title="Calculate thermal correction excluding zero&#45;point energy.">
<polygon fill="white" stroke="#666666" points="757,-394 608,-394 608,-364 757,-364 757,-394"/>
<text text-anchor="start" x="616" y="-382" font-family="Helvetica,sans-Serif" font-size="10.00">HighLevelEnergyCalculator</text>
<text text-anchor="middle" x="682.5" y="-371" font-family="Helvetica,sans-Serif" font-size="10.00">::calculate_thermal_only</text>
</a>
</g>
</g>
<!-- Node2&#45;&gt;Node4 -->
<g id="edge3_Node000002_Node000004" class="edge">
<title>Node2&#45;&gt;Node4</title>
<g id="a_edge3_Node000002_Node000004"><a xlink:title=" ">
<path fill="none" stroke="#63b8ff" d="M486.19,-236.04C503.08,-263.91 543.1,-323.57 593,-355 595.61,-356.64 598.33,-358.18 601.13,-359.61"/>
<polygon fill="#63b8ff" stroke="#63b8ff" points="599.77,-362.83 610.31,-363.82 602.69,-356.47 599.77,-362.83"/>
</a>
</g>
</g>
<!-- Node5 -->
<g id="Node000005" class="node">
<title>Node5</title>
<g id="a_Node000005"><a xlink:href="group__CalculationHelpers.html#ga94758e5fb907b423285c3b2c2ba8ee97" target="_top" xlink:title="Determine job completion status from log file.">
<polygon fill="white" stroke="#666666" points="757,-346 608,-346 608,-316 757,-316 757,-346"/>
<text text-anchor="start" x="616" y="-334" font-family="Helvetica,sans-Serif" font-size="10.00">HighLevelEnergyCalculator</text>
<text text-anchor="middle" x="682.5" y="-323" font-family="Helvetica,sans-Serif" font-size="10.00">::determine_job_status</text>
</a>
</g>
</g>
<!-- Node2&#45;&gt;Node5 -->
<g id="edge4_Node000002_Node000005" class="edge">
<title>Node2&#45;&gt;Node5</title>
<g id="a_edge4_Node000002_Node000005"><a xlink:title=" ">
<path fill="none" stroke="#63b8ff" d="M495.63,-236.29C517.51,-254.11 555.99,-283.47 593,-302 600.77,-305.89 609.19,-309.43 617.62,-312.59"/>
<polygon fill="#63b8ff" stroke="#63b8ff" points="616.54,-315.91 627.13,-315.99 618.9,-309.32 616.54,-315.91"/>
</a>
</g>
</g>
<!-- Node8 -->
<g id="Node000008" class="node">
<title>Node8</title>
<g id="a_Node000008"><a xlink:href="group__EnergyExtraction.html#gaa64c4afe3577a5e147f0c3837d10a021" target="_top" xlink:title="Extract thermal correction data from low&#45;level calculation.">
<polygon fill="white" stroke="#666666" points="772,-212 593,-212 593,-182 772,-182 772,-212"/>
<text text-anchor="start" x="601" y="-200" font-family="Helvetica,sans-Serif" font-size="10.00">HighLevelEnergyCalculator</text>
<text text-anchor="middle" x="682.5" y="-189" font-family="Helvetica,sans-Serif" font-size="10.00">::extract_low_level_thermal_data</text>
</a>
</g>
</g>
<!-- Node2&#45;&gt;Node8 -->
<g id="edge7_Node000002_Node000008" class="edge">
<title>Node2&#45;&gt;Node8</title>
<g id="a_edge7_Node000002_Node000008"><a xlink:title=" ">
<path fill="none" stroke="#63b8ff" d="M557.25,-211.62C565.6,-210.64 574.16,-209.63 582.7,-208.62"/>
<polygon fill="#63b8ff" stroke="#63b8ff" points="583.16,-212.09 592.69,-207.45 582.35,-205.14 583.16,-212.09"/>
</a>
</g>
</g>
<!-- Node9 -->
<g id="Node000009" class="node">
<title>Node9</title>
<g id="a_Node000009"><a xlink:href="group__EnergyExtraction.html#ga42389d55a3f27a4e7f077a16d956b957" target="_top" xlink:title="Extract specific energy value from log file using pattern matching.">
<polygon fill="white" stroke="#666666" points="957,-116 808,-116 808,-86 957,-86 957,-116"/>
<text text-anchor="start" x="816" y="-104" font-family="Helvetica,sans-Serif" font-size="10.00">HighLevelEnergyCalculator</text>
<text text-anchor="middle" x="882.5" y="-93" font-family="Helvetica,sans-Serif" font-size="10.00">::extract_value_from_file</text>
</a>
</g>
</g>
<!-- Node2&#45;&gt;Node9 -->
<g id="edge19_Node000002_Node000009" class="edge">
<title>Node2&#45;&gt;Node9</title>
<g id="a_edge19_Node000002_Node000009"><a xlink:title=" ">
<path fill="none" stroke="#63b8ff" d="M534.73,-205.95C542.35,-203.31 549.96,-200.32 557,-197 574.39,-188.8 575.28,-180.46 593,-173 667.95,-141.43 693.3,-155.52 772,-135 789.87,-130.34 809.17,-124.59 826.52,-119.15"/>
<polygon fill="#63b8ff" stroke="#63b8ff" points="828.01,-122.36 836.48,-116 825.89,-115.68 828.01,-122.36"/>
</a>
</g>
</g>
<!-- Node14 -->
<g id="Node000014" class="node">
<title>Node14</title>
<g id="a_Node000014"><a xlink:href="group__CalculationHelpers.html#ga32a761d03cac358dbe6d17dccf3c3ec3" target="_top" xlink:title="Extract lowest vibrational frequency from parent file.">
<polygon fill="white" stroke="#666666" points="757,-260 608,-260 608,-230 757,-230 757,-260"/>
<text text-anchor="start" x="616" y="-248" font-family="Helvetica,sans-Serif" font-size="10.00">HighLevelEnergyCalculator</text>
<text text-anchor="middle" x="682.5" y="-237" font-family="Helvetica,sans-Serif" font-size="10.00">::extract_lowest_frequency</text>
</a>
</g>
</g>
<!-- Node2&#45;&gt;Node14 -->
<g id="edge14_Node000002_Node000014" class="edge">
<title>Node2&#45;&gt;Node14</title>
<g id="a_edge14_Node000002_Node000014"><a xlink:title=" ">
<path fill="none" stroke="#63b8ff" d="M557.25,-230.38C570.52,-231.94 584.31,-233.57 597.68,-235.14"/>
<polygon fill="#63b8ff" stroke="#63b8ff" points="597.46,-238.64 607.8,-236.33 598.28,-231.69 597.46,-238.64"/>
</a>
</g>
</g>
<!-- Node17 -->
<g id="Node000017" class="node">
<title>Node17</title>
<g id="a_Node000017"><a xlink:href="group__FileUtilities.html#ga6dd8fb2393bb29704be0e92003989e45" target="_top" xlink:title="Read complete file content.">
<polygon fill="white" stroke="#666666" points="957,-356 808,-356 808,-326 957,-326 957,-356"/>
<text text-anchor="start" x="816" y="-344" font-family="Helvetica,sans-Serif" font-size="10.00">HighLevelEnergyCalculator</text>
<text text-anchor="middle" x="882.5" y="-333" font-family="Helvetica,sans-Serif" font-size="10.00">::read_file_content</text>
</a>
</g>
</g>
<!-- Node2&#45;&gt;Node17 -->
<g id="edge21_Node000002_Node000017" class="edge">
<title>Node2&#45;&gt;Node17</title>
<g id="a_edge21_Node000002_Node000017"><a xlink:title=" ">
<path fill="none" stroke="#63b8ff" d="M509.27,-236.07C532.15,-246.46 563.97,-259.97 593,-269 670.66,-293.15 693.3,-286.48 772,-307 789.87,-311.66 809.17,-317.41 826.52,-322.85"/>
<polygon fill="#63b8ff" stroke="#63b8ff" points="825.89,-326.32 836.48,-326 828.01,-319.64 825.89,-326.32"/>
</a>
</g>
</g>
<!-- Node18 -->
<g id="Node000018" class="node">
<title>Node18</title>
<g id="a_Node000018"><a xlink:href="group__FileUtilities.html#ga181c65f6b55859249f23a68e2f64f4bf" target="_top" xlink:title="Get corresponding parent directory file path.">
<polygon fill="white" stroke="#666666" points="757,-126 608,-126 608,-96 757,-96 757,-126"/>
<text text-anchor="start" x="616" y="-114" font-family="Helvetica,sans-Serif" font-size="10.00">HighLevelEnergyCalculator</text>
<text text-anchor="middle" x="682.5" y="-103" font-family="Helvetica,sans-Serif" font-size="10.00">::get_parent_file</text>
</a>
</g>
</g>
<!-- Node2&#45;&gt;Node18 -->
<g id="edge20_Node000002_Node000018" class="edge">
<title>Node2&#45;&gt;Node18</title>
<g id="a_edge20_Node000002_Node000018"><a xlink:title=" ">
<path fill="none" stroke="#63b8ff" d="M542.38,-205.84C547.57,-203.33 552.52,-200.4 557,-197 580.85,-178.86 569.37,-158.42 593,-140 597.66,-136.37 602.79,-133.19 608.16,-130.39"/>
<polygon fill="#63b8ff" stroke="#63b8ff" points="609.82,-133.48 617.39,-126.06 606.85,-127.14 609.82,-133.48"/>
</a>
</g>
</g>
<!-- Node19 -->
<g id="Node000019" class="node">
<title>Node19</title>
<g id="a_Node000019"><a xlink:href="group__SafetyHelpers.html#ga1ecdc84dce43277ebe3c068b66d2836a" target="_top" xlink:title="Safe file reading with memory and handle management.">
<polygon fill="white" stroke="#666666" points="757,-78 608,-78 608,-48 757,-48 757,-78"/>
<text text-anchor="start" x="616" y="-66" font-family="Helvetica,sans-Serif" font-size="10.00">HighLevelEnergyCalculator</text>
<text text-anchor="middle" x="682.5" y="-55" font-family="Helvetica,sans-Serif" font-size="10.00">::safe_read_file</text>
</a>
</g>
</g>
<!-- Node2&#45;&gt;Node19 -->
<g id="edge22_Node000002_Node000019" class="edge">
<title>Node2&#45;&gt;Node19</title>
<g id="a_edge22_Node000002_Node000019"><a xlink:title=" ">
<path fill="none" stroke="#63b8ff" d="M545.26,-205.89C549.52,-203.37 553.49,-200.43 557,-197 593.79,-161.05 555.7,-122.43 593,-87 594.92,-85.18 596.96,-83.49 599.1,-81.93"/>
<polygon fill="#63b8ff" stroke="#63b8ff" points="601.17,-84.76 607.81,-76.51 597.47,-78.82 601.17,-84.76"/>
</a>
</g>
</g>
<!-- Node20 -->
<g id="Node000020" class="node">
<title>Node20</title>
<g id="a_Node000020"><a xlink:href="group__ValidationUtils.html#gabe3d651ced16adc942b77bd92be3116a" target="_top" xlink:title="Validate complete energy data structure for consistency.">
<polygon fill="white" stroke="#666666" points="746.5,-30 618.5,-30 618.5,0 746.5,0 746.5,-30"/>
<text text-anchor="start" x="626.5" y="-18" font-family="Helvetica,sans-Serif" font-size="10.00">HighLevelEnergyUtils</text>
<text text-anchor="middle" x="682.5" y="-7" font-family="Helvetica,sans-Serif" font-size="10.00">::validate_energy_data</text>
</a>
</g>
</g>
<!-- Node2&#45;&gt;Node20 -->
<g id="edge23_Node000002_Node000020" class="edge">
<title>Node2&#45;&gt;Node20</title>
<g id="a_edge23_Node000002_Node000020"><a xlink:title=" ">
<path fill="none" stroke="#63b8ff" d="M546.35,-205.78C550.25,-203.28 553.85,-200.37 557,-197 606.14,-144.34 543.12,-90.96 593,-39 597.56,-34.25 602.95,-30.41 608.79,-27.31"/>
<polygon fill="#63b8ff" stroke="#63b8ff" points="610.61,-30.33 618.28,-23.02 607.73,-23.95 610.61,-30.33"/>
</a>
</g>
</g>
<!-- Node6 -->
<g id="Node000006" class="node">
<title>Node6</title>
<g id="a_Node000006"><a xlink:href="group__FileUtilities.html#ga013cf7e36016b0531852c469c9bc98b7" target="_top" xlink:title="Read last N lines from file.">
<polygon fill="white" stroke="#666666" points="957,-404 808,-404 808,-374 957,-374 957,-404"/>
<text text-anchor="start" x="816" y="-392" font-family="Helvetica,sans-Serif" font-size="10.00">HighLevelEnergyCalculator</text>
<text text-anchor="middle" x="882.5" y="-381" font-family="Helvetica,sans-Serif" font-size="10.00">::read_file_tail</text>
</a>
</g>
</g>
<!-- Node5&#45;&gt;Node6 -->
<g id="edge5_Node000005_Node000006" class="edge">
<title>Node5&#45;&gt;Node6</title>
<g id="a_edge5_Node000005_Node000006"><a xlink:title=" ">
<path fill="none" stroke="#63b8ff" d="M740.24,-346.06C750.82,-348.96 761.76,-352.02 772,-355 789.18,-359.99 807.79,-365.67 824.71,-370.94"/>
<polygon fill="#63b8ff" stroke="#63b8ff" points="823.86,-374.34 834.45,-373.98 825.95,-367.66 823.86,-374.34"/>
</a>
</g>
</g>
<!-- Node7 -->
<g id="Node000007" class="node">
<title>Node7</title>
<g id="a_Node000007"><a xlink:href="classFileContentCache.html#affecb88aac28ec372fe984ab6ec0279c" target="_top" xlink:title=" ">
<polygon fill="white" stroke="#666666" points="1129.5,-356 1005.5,-356 1005.5,-326 1129.5,-326 1129.5,-356"/>
<text text-anchor="start" x="1013.5" y="-344" font-family="Helvetica,sans-Serif" font-size="10.00">FileContentCache::get</text>
<text text-anchor="middle" x="1067.5" y="-333" font-family="Helvetica,sans-Serif" font-size="10.00">_or_read</text>
</a>
</g>
</g>
<!-- Node6&#45;&gt;Node7 -->
<g id="edge6_Node000006_Node000007" class="edge">
<title>Node6&#45;&gt;Node7</title>
<g id="a_edge6_Node000006_Node000007"><a xlink:title=" ">
<path fill="none" stroke="#63b8ff" d="M940.9,-373.94C959.47,-369.07 980.22,-363.63 999.42,-358.59"/>
<polygon fill="#63b8ff" stroke="#63b8ff" points="1000.52,-361.93 1009.3,-356 998.74,-355.15 1000.52,-361.93"/>
</a>
</g>
</g>
<!-- Node8&#45;&gt;Node9 -->
<g id="edge8_Node000008_Node000009" class="edge">
<title>Node8&#45;&gt;Node9</title>
<g id="a_edge8_Node000008_Node000009"><a xlink:title=" ">
<path fill="none" stroke="#63b8ff" d="M744.64,-181.96C754.23,-178.22 763.7,-173.62 772,-168 792.64,-154.03 787.35,-138.96 808,-125 810.27,-123.47 812.64,-122.03 815.09,-120.67"/>
<polygon fill="#63b8ff" stroke="#63b8ff" points="816.81,-123.72 824.21,-116.14 813.7,-117.45 816.81,-123.72"/>
</a>
</g>
</g>
<!-- Node12 -->
<g id="Node000012" class="node">
<title>Node12</title>
<g id="a_Node000012"><a xlink:href="group__FileUtilities.html#gaa54ff385e8b08bff4fc34ec915a3ff8d" target="_top" xlink:title="Check if file exists and is accessible.">
<polygon fill="white" stroke="#666666" points="957,-164 808,-164 808,-134 957,-134 957,-164"/>
<text text-anchor="start" x="816" y="-152" font-family="Helvetica,sans-Serif" font-size="10.00">HighLevelEnergyCalculator</text>
<text text-anchor="middle" x="882.5" y="-141" font-family="Helvetica,sans-Serif" font-size="10.00">::file_exists</text>
</a>
</g>
</g>
<!-- Node8&#45;&gt;Node12 -->
<g id="edge12_Node000008_Node000012" class="edge">
<title>Node8&#45;&gt;Node12</title>
<g id="a_edge12_Node000008_Node000012"><a xlink:title=" ">
<path fill="none" stroke="#63b8ff" d="M745.61,-181.94C765.97,-177.01 788.76,-171.48 809.78,-166.39"/>
<polygon fill="#63b8ff" stroke="#63b8ff" points="810.72,-169.76 819.62,-164 809.07,-162.96 810.72,-169.76"/>
</a>
</g>
</g>
<!-- Node13 -->
<g id="Node000013" class="node">
<title>Node13</title>
<g id="a_Node000013"><a xlink:href="group__ValidationUtils.html#gad41dd357e75a3c0219b5ed3a6b964aa6" target="_top" xlink:title="Validate temperature value for physical reasonableness.">
<polygon fill="white" stroke="#666666" points="946.5,-212 818.5,-212 818.5,-182 946.5,-182 946.5,-212"/>
<text text-anchor="start" x="826.5" y="-200" font-family="Helvetica,sans-Serif" font-size="10.00">HighLevelEnergyUtils</text>
<text text-anchor="middle" x="882.5" y="-189" font-family="Helvetica,sans-Serif" font-size="10.00">::validate_temperature</text>
</a>
</g>
</g>
<!-- Node8&#45;&gt;Node13 -->
<g id="edge13_Node000008_Node000013" class="edge">
<title>Node8&#45;&gt;Node13</title>
<g id="a_edge13_Node000008_Node000013"><a xlink:title=" ">
<path fill="none" stroke="#63b8ff" d="M772.08,-197C784.18,-197 796.5,-197 808.29,-197"/>
<polygon fill="#63b8ff" stroke="#63b8ff" points="808.49,-200.5 818.49,-197 808.49,-193.5 808.49,-200.5"/>
</a>
</g>
</g>
<!-- Node9&#45;&gt;Node7 -->
<g id="edge10_Node000009_Node000007" class="edge">
<title>Node9&#45;&gt;Node7</title>
<g id="a_edge10_Node000009_Node000007"><a xlink:title=" ">
<path fill="none" stroke="#63b8ff" d="M943.83,-116.15C948.56,-118.67 953.03,-121.59 957,-125 1017.88,-177.18 1048.82,-271.49 1060.65,-316.2"/>
<polygon fill="#63b8ff" stroke="#63b8ff" points="1057.27,-317.12 1063.13,-325.95 1064.05,-315.4 1057.27,-317.12"/>
</a>
</g>
</g>
<!-- Node10 -->
<g id="Node000010" class="node">
<title>Node10</title>
<g id="a_Node000010"><a xlink:href="structRegexPatterns.html#aeb75344b6b563c17108dbfaf60f486cc" target="_top" xlink:title=" ">
<polygon fill="white" stroke="#666666" points="1122,-140 1013,-140 1013,-110 1122,-110 1122,-140"/>
<text text-anchor="start" x="1021" y="-128" font-family="Helvetica,sans-Serif" font-size="10.00">RegexPatterns::get</text>
<text text-anchor="middle" x="1067.5" y="-117" font-family="Helvetica,sans-Serif" font-size="10.00">_instance</text>
</a>
</g>
</g>
<!-- Node9&#45;&gt;Node10 -->
<g id="edge9_Node000009_Node000010" class="edge">
<title>Node9&#45;&gt;Node10</title>
<g id="a_edge9_Node000009_Node000010"><a xlink:title=" ">
<path fill="none" stroke="#63b8ff" d="M957.14,-110.66C972.31,-112.65 988.17,-114.73 1002.94,-116.66"/>
<polygon fill="#63b8ff" stroke="#63b8ff" points="1002.61,-120.15 1012.98,-117.98 1003.52,-113.21 1002.61,-120.15"/>
</a>
</g>
</g>
<!-- Node11 -->
<g id="Node000011" class="node">
<title>Node11</title>
<g id="a_Node000011"><a xlink:href="group__SafetyHelpers.html#gaf25036f89725288871b9d856ca5f76ba" target="_top" xlink:title="Safe energy value parsing with validation.">
<polygon fill="white" stroke="#666666" points="1142,-92 993,-92 993,-62 1142,-62 1142,-92"/>
<text text-anchor="start" x="1001" y="-80" font-family="Helvetica,sans-Serif" font-size="10.00">HighLevelEnergyCalculator</text>
<text text-anchor="middle" x="1067.5" y="-69" font-family="Helvetica,sans-Serif" font-size="10.00">::safe_parse_energy</text>
</a>
</g>
</g>
<!-- Node9&#45;&gt;Node11 -->
<g id="edge11_Node000009_Node000011" class="edge">
<title>Node9&#45;&gt;Node11</title>
<g id="a_edge11_Node000009_Node000011"><a xlink:title=" ">
<path fill="none" stroke="#63b8ff" d="M957.14,-91.34C965.57,-90.24 974.2,-89.11 982.74,-87.98"/>
<polygon fill="#63b8ff" stroke="#63b8ff" points="983.25,-91.45 992.71,-86.68 982.34,-84.51 983.25,-91.45"/>
</a>
</g>
</g>
<!-- Node15 -->
<g id="Node000015" class="node">
<title>Node15</title>
<g id="a_Node000015"><a xlink:href="group__EnergyParsingUtils.html#ga95f6c769f275d3b7659d6f379b106b51" target="_top" xlink:title="Extract all vibrational frequencies from log file content.">
<polygon fill="white" stroke="#666666" points="943.5,-260 821.5,-260 821.5,-230 943.5,-230 943.5,-260"/>
<text text-anchor="start" x="829.5" y="-248" font-family="Helvetica,sans-Serif" font-size="10.00">HighLevelEnergyUtils</text>
<text text-anchor="middle" x="882.5" y="-237" font-family="Helvetica,sans-Serif" font-size="10.00">::extract_frequencies</text>
</a>
</g>
</g>
<!-- Node14&#45;&gt;Node15 -->
<g id="edge15_Node000014_Node000015" class="edge">
<title>Node14&#45;&gt;Node15</title>
<g id="a_edge15_Node000014_Node000015"><a xlink:title=" ">
<path fill="none" stroke="#63b8ff" d="M757.23,-245C774.87,-245 793.67,-245 811.16,-245"/>
<polygon fill="#63b8ff" stroke="#63b8ff" points="811.29,-248.5 821.29,-245 811.29,-241.5 811.29,-248.5"/>
</a>
</g>
</g>
<!-- Node16 -->
<g id="Node000016" class="node">
<title>Node16</title>
<g id="a_Node000016"><a xlink:href="group__EnergyParsingUtils.html#gaf1573e500ba7a88a65e5ccf978c00621" target="_top" xlink:title="Find lowest frequency from frequency list.">
<polygon fill="white" stroke="#666666" points="948.5,-308 816.5,-308 816.5,-278 948.5,-278 948.5,-308"/>
<text text-anchor="start" x="824.5" y="-296" font-family="Helvetica,sans-Serif" font-size="10.00">HighLevelEnergyUtils</text>
<text text-anchor="middle" x="882.5" y="-285" font-family="Helvetica,sans-Serif" font-size="10.00">::find_lowest_frequency</text>
</a>
</g>
</g>
<!-- Node14&#45;&gt;Node16 -->
<g id="edge16_Node000014_Node000016" class="edge">
<title>Node14&#45;&gt;Node16</title>
<g id="a_edge16_Node000014_Node000016"><a xlink:title=" ">
<path fill="none" stroke="#63b8ff" d="M745.61,-260.06C765.97,-264.99 788.76,-270.52 809.78,-275.61"/>
<polygon fill="#63b8ff" stroke="#63b8ff" points="809.07,-279.04 819.62,-278 810.72,-272.24 809.07,-279.04"/>
</a>
</g>
</g>
<!-- Node14&#45;&gt;Node17 -->
<g id="edge17_Node000014_Node000017" class="edge">
<title>Node14&#45;&gt;Node17</title>
<g id="a_edge17_Node000014_Node000017"><a xlink:title=" ">
<path fill="none" stroke="#63b8ff" d="M744.64,-260.04C754.23,-263.78 763.7,-268.38 772,-274 792.64,-287.97 787.35,-303.04 808,-317 810.27,-318.53 812.64,-319.97 815.09,-321.33"/>
<polygon fill="#63b8ff" stroke="#63b8ff" points="813.7,-324.55 824.21,-325.86 816.81,-318.28 813.7,-324.55"/>
</a>
</g>
</g>
<!-- Node17&#45;&gt;Node7 -->
<g id="edge18_Node000017_Node000007" class="edge">
<title>Node17&#45;&gt;Node7</title>
<g id="a_edge18_Node000017_Node000007"><a xlink:title=" ">
<path fill="none" stroke="#63b8ff" d="M957.14,-341C969.63,-341 982.59,-341 995.02,-341"/>
<polygon fill="#63b8ff" stroke="#63b8ff" points="995.33,-344.5 1005.33,-341 995.33,-337.5 995.33,-344.5"/>
</a>
</g>
</g>
<!-- Node21&#45;&gt;Node2 -->
<g id="edge25_Node000021_Node000002" class="edge">
<title>Node21&#45;&gt;Node2</title>
<g id="a_edge25_Node000021_Node000002"><a xlink:title=" ">
<path fill="none" stroke="#63b8ff" d="M344.15,-193.04C360.6,-196.54 378.24,-200.3 395.08,-203.88"/>
<polygon fill="#63b8ff" stroke="#63b8ff" points="394.38,-207.31 404.89,-205.97 395.84,-200.46 394.38,-207.31"/>
</a>
</g>
</g>
<!-- Node22 -->
<g id="Node000022" class="node">
<title>Node22</title>
<g id="a_Node000022"><a xlink:href="classFileContentCache.html#a3d01efe01d3c3c5c2d9b04bdc0064df0" target="_top" xlink:title=" ">
<polygon fill="white" stroke="#666666" points="542.5,-187.5 410.5,-187.5 410.5,-168.5 542.5,-168.5 542.5,-187.5"/>
<text text-anchor="middle" x="476.5" y="-175.5" font-family="Helvetica,sans-Serif" font-size="10.00">FileContentCache::clear</text>
</a>
</g>
</g>
<!-- Node21&#45;&gt;Node22 -->
<g id="edge26_Node000021_Node000022" class="edge">
<title>Node21&#45;&gt;Node22</title>
<g id="a_edge26_Node000021_Node000022"><a xlink:title=" ">
<path fill="none" stroke="#63b8ff" d="M360.05,-178C373.31,-178 386.92,-178 399.92,-178"/>
<polygon fill="#63b8ff" stroke="#63b8ff" points="400.2,-181.5 410.2,-178 400.2,-174.5 400.2,-181.5"/>
</a>
</g>
</g>
<!-- Node23&#45;&gt;Node2 -->
<g id="edge28_Node000023_Node000002" class="edge">
<title>Node23&#45;&gt;Node2</title>
<g id="a_edge28_Node000023_Node000002"><a xlink:title=" ">
<path fill="none" stroke="#63b8ff" d="M344.15,-248.96C360.6,-245.46 378.24,-241.7 395.08,-238.12"/>
<polygon fill="#63b8ff" stroke="#63b8ff" points="395.84,-241.54 404.89,-236.03 394.38,-234.69 395.84,-241.54"/>
</a>
</g>
</g>
</g>
</svg>
