<?xml version="1.0" encoding="UTF-8" standalone="no"?>
<!DOCTYPE svg PUBLIC "-//W3C//DTD SVG 1.1//EN"
 "http://www.w3.org/Graphics/SVG/1.1/DTD/svg11.dtd">
<!-- Generated by graphviz version 2.43.0 (0)
 -->
<!-- Title: JobChecker::read_file_unified Pages: 1 -->
<svg width="303pt" height="220pt"
 viewBox="0.00 0.00 303.00 219.50" xmlns="http://www.w3.org/2000/svg" xmlns:xlink="http://www.w3.org/1999/xlink">

<svg id="main" version="1.1" xmlns="http://www.w3.org/2000/svg" xmlns:xlink="http://www.w3.org/1999/xlink" xml:space="preserve" onload="init(evt)">
<style type="text/css"><![CDATA[
.node, .edge {opacity: 0.7;}
.node.selected, .edge.selected {opacity: 1;}
.edge:hover path { stroke: red; }
.edge:hover polygon { stroke: red; fill: red; }
]]></style>
<script type="application/ecmascript" xlink:href="svg.min.js"/>
<svg id="graph" class="graph">
<g id="graph0" class="graph" transform="scale(1 1) rotate(0) translate(4 215.5)">
<title>JobChecker::read_file_unified</title>
<!-- Node1 -->
<g id="Node000001" class="node">
<title>Node1</title>
<g id="a_Node000001"><a xlink:title=" ">
<polygon fill="#999999" stroke="#666666" points="295,-115.5 176,-115.5 176,-85.5 295,-85.5 295,-115.5"/>
<text text-anchor="start" x="184" y="-103.5" font-family="Helvetica,sans-Serif" font-size="10.00">JobChecker::read_file</text>
<text text-anchor="middle" x="235.5" y="-92.5" font-family="Helvetica,sans-Serif" font-size="10.00">_unified</text>
</a>
</g>
</g>
<!-- Node2 -->
<g id="Node000002" class="node">
<title>Node2</title>
<g id="a_Node000002"><a xlink:href="group__IndependentChecking.html#gaa8965610d902e28ebf4946e0ba1f659d" target="_top" xlink:title="Direct error checking without other status considerations.">
<polygon fill="white" stroke="#666666" points="137,-211.5 3,-211.5 3,-181.5 137,-181.5 137,-211.5"/>
<text text-anchor="start" x="11" y="-199.5" font-family="Helvetica,sans-Serif" font-size="10.00">JobChecker::check_error</text>
<text text-anchor="middle" x="70" y="-188.5" font-family="Helvetica,sans-Serif" font-size="10.00">_directly</text>
</a>
</g>
</g>
<!-- Node1&#45;&gt;Node2 -->
<g id="edge1_Node000001_Node000002" class="edge">
<title>Node1&#45;&gt;Node2</title>
<g id="a_edge1_Node000001_Node000002"><a xlink:title=" ">
<path fill="none" stroke="#63b8ff" d="M210.41,-122.3C192.14,-137.94 165.84,-158.62 140,-172.5 133.85,-175.8 127.17,-178.79 120.45,-181.45"/>
<polygon fill="#63b8ff" stroke="#63b8ff" points="212.96,-124.72 218.2,-115.51 208.36,-119.44 212.96,-124.72"/>
</a>
</g>
</g>
<!-- Node3 -->
<g id="Node000003" class="node">
<title>Node3</title>
<g id="a_Node000003"><a xlink:href="group__IndividualChecking.html#gacaf7b75f3c058b5648c894ee21eadf5d" target="_top" xlink:title="Determine the status of a single Gaussian job.">
<polygon fill="white" stroke="#666666" points="132.5,-163.5 7.5,-163.5 7.5,-133.5 132.5,-133.5 132.5,-163.5"/>
<text text-anchor="start" x="15.5" y="-151.5" font-family="Helvetica,sans-Serif" font-size="10.00">JobChecker::check_job</text>
<text text-anchor="middle" x="70" y="-140.5" font-family="Helvetica,sans-Serif" font-size="10.00">_status</text>
</a>
</g>
</g>
<!-- Node1&#45;&gt;Node3 -->
<g id="edge2_Node000001_Node000003" class="edge">
<title>Node1&#45;&gt;Node3</title>
<g id="a_edge2_Node000001_Node000003"><a xlink:title=" ">
<path fill="none" stroke="#63b8ff" d="M173.44,-118.43C156.53,-123.39 138.37,-128.72 122.1,-133.5"/>
<polygon fill="#63b8ff" stroke="#63b8ff" points="174.61,-121.73 183.22,-115.56 172.64,-115.01 174.61,-121.73"/>
</a>
</g>
</g>
<!-- Node4 -->
<g id="Node000004" class="node">
<title>Node4</title>
<g id="a_Node000004"><a xlink:href="group__IndependentChecking.html#gacfdc4123589e37c388a139841e0860e8" target="_top" xlink:title="Direct PCM failure checking without other status considerations.">
<polygon fill="white" stroke="#666666" points="135.5,-115.5 4.5,-115.5 4.5,-85.5 135.5,-85.5 135.5,-115.5"/>
<text text-anchor="start" x="12.5" y="-103.5" font-family="Helvetica,sans-Serif" font-size="10.00">JobChecker::check_pcm</text>
<text text-anchor="middle" x="70" y="-92.5" font-family="Helvetica,sans-Serif" font-size="10.00">_directly</text>
</a>
</g>
</g>
<!-- Node1&#45;&gt;Node4 -->
<g id="edge3_Node000001_Node000004" class="edge">
<title>Node1&#45;&gt;Node4</title>
<g id="a_edge3_Node000001_Node000004"><a xlink:title=" ">
<path fill="none" stroke="#63b8ff" d="M165.65,-100.5C155.67,-100.5 145.43,-100.5 135.53,-100.5"/>
<polygon fill="#63b8ff" stroke="#63b8ff" points="165.93,-104 175.93,-100.5 165.93,-97 165.93,-104"/>
</a>
</g>
</g>
<!-- Node5 -->
<g id="Node000005" class="node">
<title>Node5</title>
<g id="a_Node000005"><a xlink:href="group__FileReading.html#ga1f3a67ae603428ed9dc24d374c598a0e" target="_top" xlink:title="Read complete file content with resource management.">
<polygon fill="white" stroke="#666666" points="129.5,-67.5 10.5,-67.5 10.5,-37.5 129.5,-37.5 129.5,-67.5"/>
<text text-anchor="start" x="18.5" y="-55.5" font-family="Helvetica,sans-Serif" font-size="10.00">JobChecker::read_file</text>
<text text-anchor="middle" x="70" y="-44.5" font-family="Helvetica,sans-Serif" font-size="10.00">_content</text>
</a>
</g>
</g>
<!-- Node1&#45;&gt;Node5 -->
<g id="edge4_Node000001_Node000005" class="edge">
<title>Node1&#45;&gt;Node5</title>
<g id="a_edge4_Node000001_Node000005"><a xlink:title=" ">
<path fill="none" stroke="#63b8ff" d="M173.44,-82.57C156.53,-77.61 138.37,-72.28 122.1,-67.5"/>
<polygon fill="#63b8ff" stroke="#63b8ff" points="172.64,-85.99 183.22,-85.44 174.61,-79.27 172.64,-85.99"/>
</a>
</g>
</g>
<!-- Node6 -->
<g id="Node000006" class="node">
<title>Node6</title>
<g id="a_Node000006"><a xlink:href="group__FileReading.html#ga0ecb7c8a87abc2e260aee1bf8557d6f6" target="_top" xlink:title="Read last N lines from a file efficiently.">
<polygon fill="white" stroke="#666666" points="140,-19 0,-19 0,0 140,0 140,-19"/>
<text text-anchor="middle" x="70" y="-7" font-family="Helvetica,sans-Serif" font-size="10.00">JobChecker::read_file_tail</text>
</a>
</g>
</g>
<!-- Node1&#45;&gt;Node6 -->
<g id="edge5_Node000001_Node000006" class="edge">
<title>Node1&#45;&gt;Node6</title>
<g id="a_edge5_Node000001_Node000006"><a xlink:title=" ">
<path fill="none" stroke="#63b8ff" d="M211,-78.48C192.85,-62.55 166.45,-41.6 140,-28.5 132.32,-24.69 123.76,-21.56 115.37,-19.01"/>
<polygon fill="#63b8ff" stroke="#63b8ff" points="208.94,-81.34 218.73,-85.4 213.61,-76.12 208.94,-81.34"/>
</a>
</g>
</g>
</g>
</svg>
</svg>

<style type='text/css'>
<![CDATA[
[data-mouse-over-selected='false'] { opacity: 0.7; }
[data-mouse-over-selected='true']  { opacity: 1.0; }
]]>
</style>
<script type="application/ecmascript"><![CDATA[
document.addEventListener('DOMContentLoaded', (event) => {
  highlightEdges();
  highlightAdjacentNodes();
});
]]></script>
</svg>
