<?xml version="1.0" encoding="UTF-8" standalone="no"?>
<!DOCTYPE svg PUBLIC "-//W3C//DTD SVG 1.1//EN"
 "http://www.w3.org/Graphics/SVG/1.1/DTD/svg11.dtd">
<!-- Generated by graphviz version 2.43.0 (0)
 -->
<!-- Title: getSafeThreadCount Pages: 1 -->
<svg width="812pt" height="458pt"
 viewBox="0.00 0.00 812.00 457.73" xmlns="http://www.w3.org/2000/svg" xmlns:xlink="http://www.w3.org/1999/xlink">
<g id="graph0" class="graph" transform="scale(1 1) rotate(0) translate(4 453.73)">
<title>getSafeThreadCount</title>
<!-- Node1 -->
<g id="Node000001" class="node">
<title>Node1</title>
<g id="a_Node000001"><a xlink:title=" ">
<polygon fill="#999999" stroke="#666666" points="116,-276.5 0,-276.5 0,-257.5 116,-257.5 116,-276.5"/>
<text text-anchor="middle" x="58" y="-264.5" font-family="Helvetica,sans-Serif" font-size="10.00">getSafeThreadCount</text>
</a>
</g>
</g>
<!-- Node2 -->
<g id="Node000002" class="node">
<title>Node2</title>
<g id="a_Node000002"><a xlink:href="group__MemoryMonitorImpl.html#gaf6946ebbf530a167fc82bb7f20b36a42" target="_top" xlink:title="Calculate safe thread count considering job scheduler limits.">
<polygon fill="white" stroke="#666666" points="297,-298.5 152,-298.5 152,-279.5 297,-279.5 297,-298.5"/>
<text text-anchor="middle" x="224.5" y="-286.5" font-family="Helvetica,sans-Serif" font-size="10.00">calculateSafeThreadCount</text>
</a>
</g>
</g>
<!-- Node1&#45;&gt;Node2 -->
<g id="edge1_Node000001_Node000002" class="edge">
<title>Node1&#45;&gt;Node2</title>
<g id="a_edge1_Node000001_Node000002"><a xlink:title=" ">
<path fill="none" stroke="#63b8ff" d="M116.07,-274.63C124.57,-275.77 133.46,-276.96 142.33,-278.15"/>
<polygon fill="#63b8ff" stroke="#63b8ff" points="141.95,-281.62 152.33,-279.48 142.88,-274.69 141.95,-281.62"/>
</a>
</g>
</g>
<!-- Node3 -->
<g id="Node000003" class="node">
<title>Node3</title>
<g id="a_Node000003"><a xlink:href="group__DetectionMethods.html#ga3e3cf834277c608e8557f70acba55430" target="_top" xlink:title="Detect current job scheduler and extract complete resource information.">
<polygon fill="white" stroke="#666666" points="287.5,-261 161.5,-261 161.5,-231 287.5,-231 287.5,-261"/>
<text text-anchor="start" x="169.5" y="-249" font-family="Helvetica,sans-Serif" font-size="10.00">JobSchedulerDetector</text>
<text text-anchor="middle" x="224.5" y="-238" font-family="Helvetica,sans-Serif" font-size="10.00">::detect_job_resources</text>
</a>
</g>
</g>
<!-- Node1&#45;&gt;Node3 -->
<g id="edge2_Node000001_Node000003" class="edge">
<title>Node1&#45;&gt;Node3</title>
<g id="a_edge2_Node000001_Node000003"><a xlink:title=" ">
<path fill="none" stroke="#63b8ff" d="M116.07,-259.71C127.41,-258.27 139.46,-256.73 151.23,-255.23"/>
<polygon fill="#63b8ff" stroke="#63b8ff" points="152,-258.66 161.48,-253.92 151.11,-251.71 152,-258.66"/>
</a>
</g>
</g>
<!-- Node4 -->
<g id="Node000004" class="node">
<title>Node4</title>
<g id="a_Node000004"><a xlink:href="group__SchedulerSpecific.html#ga3923336c54e169224a24aa725fa039a4" target="_top" xlink:title="Extract resource information from LSF environment.">
<polygon fill="white" stroke="#666666" points="464,-328 341,-328 341,-298 464,-298 464,-328"/>
<text text-anchor="start" x="349" y="-316" font-family="Helvetica,sans-Serif" font-size="10.00">JobSchedulerDetector</text>
<text text-anchor="middle" x="402.5" y="-305" font-family="Helvetica,sans-Serif" font-size="10.00">::detect_lsf_resources</text>
</a>
</g>
</g>
<!-- Node3&#45;&gt;Node4 -->
<g id="edge3_Node000003_Node000004" class="edge">
<title>Node3&#45;&gt;Node4</title>
<g id="a_edge3_Node000003_Node000004"><a xlink:title=" ">
<path fill="none" stroke="#63b8ff" d="M269.48,-261.02C278.6,-264.24 288.14,-267.67 297,-271 316.24,-278.23 337.3,-286.6 355.44,-293.96"/>
<polygon fill="#63b8ff" stroke="#63b8ff" points="354.32,-297.28 364.91,-297.81 356.96,-290.8 354.32,-297.28"/>
</a>
</g>
</g>
<!-- Node9 -->
<g id="Node000009" class="node">
<title>Node9</title>
<g id="a_Node000009"><a xlink:href="group__SchedulerSpecific.html#ga09d406f8202e5cec41ff257c23ef5031" target="_top" xlink:title="Extract resource information from PBS/Torque environment.">
<polygon fill="white" stroke="#666666" points="466.5,-261 338.5,-261 338.5,-231 466.5,-231 466.5,-261"/>
<text text-anchor="start" x="346.5" y="-249" font-family="Helvetica,sans-Serif" font-size="10.00">JobSchedulerDetector</text>
<text text-anchor="middle" x="402.5" y="-238" font-family="Helvetica,sans-Serif" font-size="10.00">::detect_pbs_resources</text>
</a>
</g>
</g>
<!-- Node3&#45;&gt;Node9 -->
<g id="edge9_Node000003_Node000009" class="edge">
<title>Node3&#45;&gt;Node9</title>
<g id="a_edge9_Node000003_Node000009"><a xlink:title=" ">
<path fill="none" stroke="#63b8ff" d="M287.55,-246C300.64,-246 314.58,-246 328.04,-246"/>
<polygon fill="#63b8ff" stroke="#63b8ff" points="328.23,-249.5 338.23,-246 328.23,-242.5 328.23,-249.5"/>
</a>
</g>
</g>
<!-- Node11 -->
<g id="Node000011" class="node">
<title>Node11</title>
<g id="a_Node000011"><a xlink:href="group__SchedulerSpecific.html#ga14bd7d5ddf535138b1fa97ce992356f5" target="_top" xlink:title="Extract resource information from SGE/OGS environment.">
<polygon fill="white" stroke="#666666" points="466.5,-376 338.5,-376 338.5,-346 466.5,-346 466.5,-376"/>
<text text-anchor="start" x="346.5" y="-364" font-family="Helvetica,sans-Serif" font-size="10.00">JobSchedulerDetector</text>
<text text-anchor="middle" x="402.5" y="-353" font-family="Helvetica,sans-Serif" font-size="10.00">::detect_sge_resources</text>
</a>
</g>
</g>
<!-- Node3&#45;&gt;Node11 -->
<g id="edge14_Node000003_Node000011" class="edge">
<title>Node3&#45;&gt;Node11</title>
<g id="a_edge14_Node000003_Node000011"><a xlink:title=" ">
<path fill="none" stroke="#63b8ff" d="M281.96,-261.15C287.35,-263.91 292.49,-267.17 297,-271 322.47,-292.63 307.54,-315.37 333,-337 334.51,-338.28 336.1,-339.5 337.74,-340.66"/>
<polygon fill="#63b8ff" stroke="#63b8ff" points="336.02,-343.7 346.38,-345.91 339.66,-337.72 336.02,-343.7"/>
</a>
</g>
</g>
<!-- Node12 -->
<g id="Node000012" class="node">
<title>Node12</title>
<g id="a_Node000012"><a xlink:href="group__SchedulerSpecific.html#ga488877fafdad543d22522f9b85bfd5ba" target="_top" xlink:title="Extract resource information from SLURM environment.">
<polygon fill="white" stroke="#666666" points="472,-121 333,-121 333,-91 472,-91 472,-121"/>
<text text-anchor="start" x="341" y="-109" font-family="Helvetica,sans-Serif" font-size="10.00">JobSchedulerDetector</text>
<text text-anchor="middle" x="402.5" y="-98" font-family="Helvetica,sans-Serif" font-size="10.00">::detect_slurm_resources</text>
</a>
</g>
</g>
<!-- Node3&#45;&gt;Node12 -->
<g id="edge19_Node000003_Node000012" class="edge">
<title>Node3&#45;&gt;Node12</title>
<g id="a_edge19_Node000003_Node000012"><a xlink:title=" ">
<path fill="none" stroke="#63b8ff" d="M244.5,-230.73C265.95,-213.51 301.93,-184.67 333,-160 346.62,-149.18 361.8,-137.21 374.41,-127.28"/>
<polygon fill="#63b8ff" stroke="#63b8ff" points="376.58,-130.03 382.28,-121.09 372.26,-124.53 376.58,-130.03"/>
</a>
</g>
</g>
<!-- Node16 -->
<g id="Node000016" class="node">
<title>Node16</title>
<g id="a_Node000016"><a xlink:href="group__DetectionMethods.html#ga4a459ab8a1188d54b0e6304d525d1173" target="_top" xlink:title="Identify the type of job scheduler currently active.">
<polygon fill="white" stroke="#666666" points="463.5,-199 341.5,-199 341.5,-169 463.5,-169 463.5,-199"/>
<text text-anchor="start" x="349.5" y="-187" font-family="Helvetica,sans-Serif" font-size="10.00">JobSchedulerDetector</text>
<text text-anchor="middle" x="402.5" y="-176" font-family="Helvetica,sans-Serif" font-size="10.00">::get_scheduler_type</text>
</a>
</g>
</g>
<!-- Node3&#45;&gt;Node16 -->
<g id="edge25_Node000003_Node000016" class="edge">
<title>Node3&#45;&gt;Node16</title>
<g id="a_edge25_Node000003_Node000016"><a xlink:title=" ">
<path fill="none" stroke="#63b8ff" d="M268.1,-230.99C292.46,-222.41 323.21,-211.58 349.04,-202.48"/>
<polygon fill="#63b8ff" stroke="#63b8ff" points="350.41,-205.71 358.68,-199.09 348.08,-199.11 350.41,-205.71"/>
</a>
</g>
</g>
<!-- Node5 -->
<g id="Node000005" class="node">
<title>Node5</title>
<g id="a_Node000005"><a xlink:href="group__EnvironmentHelpers.html#gade9468a3b205731f1aa25d53a32edeca" target="_top" xlink:title="Get long integer environment variable value.">
<polygon fill="white" stroke="#666666" points="638,-288 516,-288 516,-258 638,-258 638,-288"/>
<text text-anchor="start" x="524" y="-276" font-family="Helvetica,sans-Serif" font-size="10.00">JobSchedulerDetector</text>
<text text-anchor="middle" x="577" y="-265" font-family="Helvetica,sans-Serif" font-size="10.00">::get_env_long</text>
</a>
</g>
</g>
<!-- Node4&#45;&gt;Node5 -->
<g id="edge4_Node000004_Node000005" class="edge">
<title>Node4&#45;&gt;Node5</title>
<g id="a_edge4_Node000004_Node000005"><a xlink:title=" ">
<path fill="none" stroke="#63b8ff" d="M464.32,-298.9C477.74,-295.78 492.07,-292.46 505.83,-289.27"/>
<polygon fill="#63b8ff" stroke="#63b8ff" points="506.78,-292.64 515.73,-286.98 505.2,-285.82 506.78,-292.64"/>
</a>
</g>
</g>
<!-- Node6 -->
<g id="Node000006" class="node">
<title>Node6</title>
<g id="a_Node000006"><a xlink:href="group__EnvironmentHelpers.html#ga462d9065c82e9250768f5fe6cea9929b" target="_top" xlink:title="Get environment variable value with default fallback.">
<polygon fill="white" stroke="#666666" points="804,-288 682,-288 682,-258 804,-258 804,-288"/>
<text text-anchor="start" x="690" y="-276" font-family="Helvetica,sans-Serif" font-size="10.00">JobSchedulerDetector</text>
<text text-anchor="middle" x="743" y="-265" font-family="Helvetica,sans-Serif" font-size="10.00">::get_env_var</text>
</a>
</g>
</g>
<!-- Node4&#45;&gt;Node6 -->
<g id="edge5_Node000004_Node000006" class="edge">
<title>Node4&#45;&gt;Node6</title>
<g id="a_edge5_Node000004_Node000006"><a xlink:title=" ">
<path fill="none" stroke="#63b8ff" d="M464.12,-312.01C513.38,-310.48 584.52,-306.63 646,-297 656.79,-295.31 668.13,-292.98 679.1,-290.43"/>
<polygon fill="#63b8ff" stroke="#63b8ff" points="680.13,-293.78 689.03,-288.04 678.49,-286.98 680.13,-293.78"/>
</a>
</g>
</g>
<!-- Node7 -->
<g id="Node000007" class="node">
<title>Node7</title>
<g id="a_Node000007"><a xlink:href="group__DetectionMethods.html#ga34ce79ae6eec92775d73cb4692c52566" target="_top" xlink:title="Extract job ID from scheduler environment.">
<polygon fill="white" stroke="#666666" points="638,-374 516,-374 516,-344 638,-344 638,-374"/>
<text text-anchor="start" x="524" y="-362" font-family="Helvetica,sans-Serif" font-size="10.00">JobSchedulerDetector</text>
<text text-anchor="middle" x="577" y="-351" font-family="Helvetica,sans-Serif" font-size="10.00">::get_job_id</text>
</a>
</g>
</g>
<!-- Node4&#45;&gt;Node7 -->
<g id="edge6_Node000004_Node000007" class="edge">
<title>Node4&#45;&gt;Node7</title>
<g id="a_edge6_Node000004_Node000007"><a xlink:title=" ">
<path fill="none" stroke="#63b8ff" d="M459.98,-328.06C475.85,-332.29 493.25,-336.93 509.64,-341.3"/>
<polygon fill="#63b8ff" stroke="#63b8ff" points="509.12,-344.79 519.68,-343.98 510.92,-338.02 509.12,-344.79"/>
</a>
</g>
</g>
<!-- Node8 -->
<g id="Node000008" class="node">
<title>Node8</title>
<g id="a_Node000008"><a xlink:href="group__PrivateParsers.html#gaef6c0a64fcb73d01deb070200fd84a52" target="_top" xlink:title="Parse general memory format strings.">
<polygon fill="white" stroke="#666666" points="646,-422 508,-422 508,-392 646,-392 646,-422"/>
<text text-anchor="start" x="516" y="-410" font-family="Helvetica,sans-Serif" font-size="10.00">JobSchedulerDetector</text>
<text text-anchor="middle" x="577" y="-399" font-family="Helvetica,sans-Serif" font-size="10.00">::parse_general_memory</text>
</a>
</g>
</g>
<!-- Node4&#45;&gt;Node8 -->
<g id="edge8_Node000004_Node000008" class="edge">
<title>Node4&#45;&gt;Node8</title>
<g id="a_edge8_Node000004_Node000008"><a xlink:title=" ">
<path fill="none" stroke="#63b8ff" d="M456.65,-328.14C462.06,-330.68 467.29,-333.62 472,-337 493.1,-352.12 486.92,-367.85 508,-383 510.09,-384.5 512.28,-385.92 514.55,-387.25"/>
<polygon fill="#63b8ff" stroke="#63b8ff" points="513.11,-390.45 523.59,-391.99 516.36,-384.25 513.11,-390.45"/>
</a>
</g>
</g>
<!-- Node7&#45;&gt;Node6 -->
<g id="edge7_Node000007_Node000006" class="edge">
<title>Node7&#45;&gt;Node6</title>
<g id="a_edge7_Node000007_Node000006"><a xlink:title=" ">
<path fill="none" stroke="#63b8ff" d="M615.82,-343.92C625.76,-339.68 636.39,-334.88 646,-330 667.84,-318.92 691.5,-304.9 709.87,-293.53"/>
<polygon fill="#63b8ff" stroke="#63b8ff" points="711.8,-296.45 718.43,-288.19 708.09,-290.51 711.8,-296.45"/>
</a>
</g>
</g>
<!-- Node9&#45;&gt;Node5 -->
<g id="edge10_Node000009_Node000005" class="edge">
<title>Node9&#45;&gt;Node5</title>
<g id="a_edge10_Node000009_Node000005"><a xlink:title=" ">
<path fill="none" stroke="#63b8ff" d="M466.75,-255.9C479.42,-257.88 492.81,-259.98 505.7,-262"/>
<polygon fill="#63b8ff" stroke="#63b8ff" points="505.49,-265.51 515.91,-263.59 506.57,-258.59 505.49,-265.51"/>
</a>
</g>
</g>
<!-- Node9&#45;&gt;Node6 -->
<g id="edge11_Node000009_Node000006" class="edge">
<title>Node9&#45;&gt;Node6</title>
<g id="a_edge11_Node000009_Node000006"><a xlink:title=" ">
<path fill="none" stroke="#63b8ff" d="M466.59,-242.78C515.7,-241.24 585.45,-241.17 646,-249 657.46,-250.48 669.53,-252.85 681.1,-255.52"/>
<polygon fill="#63b8ff" stroke="#63b8ff" points="680.56,-258.99 691.11,-257.94 682.21,-252.19 680.56,-258.99"/>
</a>
</g>
</g>
<!-- Node9&#45;&gt;Node7 -->
<g id="edge12_Node000009_Node000007" class="edge">
<title>Node9&#45;&gt;Node7</title>
<g id="a_edge12_Node000009_Node000007"><a xlink:title=" ">
<path fill="none" stroke="#63b8ff" d="M428.03,-261.14C441.14,-269.29 457.52,-279.59 472,-289 496.91,-305.19 524.82,-324.02 545.45,-338.07"/>
<polygon fill="#63b8ff" stroke="#63b8ff" points="543.59,-341.03 553.82,-343.77 547.53,-335.25 543.59,-341.03"/>
</a>
</g>
</g>
<!-- Node10 -->
<g id="Node000010" class="node">
<title>Node10</title>
<g id="a_Node000010"><a xlink:href="group__PrivateParsers.html#ga9bed72466ae8b04e8fe80827e482bd59" target="_top" xlink:title="Parse PBS/Torque&#45;specific memory format strings.">
<polygon fill="white" stroke="#666666" points="638,-202 516,-202 516,-172 638,-172 638,-202"/>
<text text-anchor="start" x="524" y="-190" font-family="Helvetica,sans-Serif" font-size="10.00">JobSchedulerDetector</text>
<text text-anchor="middle" x="577" y="-179" font-family="Helvetica,sans-Serif" font-size="10.00">::parse_pbs_memory</text>
</a>
</g>
</g>
<!-- Node9&#45;&gt;Node10 -->
<g id="edge13_Node000009_Node000010" class="edge">
<title>Node9&#45;&gt;Node10</title>
<g id="a_edge13_Node000009_Node000010"><a xlink:title=" ">
<path fill="none" stroke="#63b8ff" d="M447.48,-230.96C470.29,-223.16 498.34,-213.56 522.41,-205.33"/>
<polygon fill="#63b8ff" stroke="#63b8ff" points="523.78,-208.56 532.1,-202.01 521.51,-201.94 523.78,-208.56"/>
</a>
</g>
</g>
<!-- Node11&#45;&gt;Node5 -->
<g id="edge15_Node000011_Node000005" class="edge">
<title>Node11&#45;&gt;Node5</title>
<g id="a_edge15_Node000011_Node000005"><a xlink:title=" ">
<path fill="none" stroke="#63b8ff" d="M450.84,-345.91C458.03,-343.19 465.29,-340.2 472,-337 498.01,-324.62 525.71,-307.35 545.98,-293.87"/>
<polygon fill="#63b8ff" stroke="#63b8ff" points="548.12,-296.65 554.46,-288.16 544.21,-290.84 548.12,-296.65"/>
</a>
</g>
</g>
<!-- Node11&#45;&gt;Node6 -->
<g id="edge16_Node000011_Node000006" class="edge">
<title>Node11&#45;&gt;Node6</title>
<g id="a_edge16_Node000011_Node000006"><a xlink:title=" ">
<path fill="none" stroke="#63b8ff" d="M419.27,-376.04C438.46,-393.2 472.69,-420.27 508,-431 566.68,-448.84 592.54,-461.07 646,-431 696.8,-402.43 723.83,-334.9 735.26,-298.05"/>
<polygon fill="#63b8ff" stroke="#63b8ff" points="738.72,-298.69 738.19,-288.1 732,-296.7 738.72,-298.69"/>
</a>
</g>
</g>
<!-- Node11&#45;&gt;Node7 -->
<g id="edge17_Node000011_Node000007" class="edge">
<title>Node11&#45;&gt;Node7</title>
<g id="a_edge17_Node000011_Node000007"><a xlink:title=" ">
<path fill="none" stroke="#63b8ff" d="M466.75,-360.27C479.42,-360.12 492.81,-359.96 505.7,-359.82"/>
<polygon fill="#63b8ff" stroke="#63b8ff" points="505.95,-363.31 515.91,-359.7 505.87,-356.31 505.95,-363.31"/>
</a>
</g>
</g>
<!-- Node11&#45;&gt;Node8 -->
<g id="edge18_Node000011_Node000008" class="edge">
<title>Node11&#45;&gt;Node8</title>
<g id="a_edge18_Node000011_Node000008"><a xlink:title=" ">
<path fill="none" stroke="#63b8ff" d="M459.98,-376.06C475.85,-380.29 493.25,-384.93 509.64,-389.3"/>
<polygon fill="#63b8ff" stroke="#63b8ff" points="509.12,-392.79 519.68,-391.98 510.92,-386.02 509.12,-392.79"/>
</a>
</g>
</g>
<!-- Node12&#45;&gt;Node5 -->
<g id="edge20_Node000012_Node000005" class="edge">
<title>Node12&#45;&gt;Node5</title>
<g id="a_edge20_Node000012_Node000005"><a xlink:title=" ">
<path fill="none" stroke="#63b8ff" d="M425.83,-121.07C439.92,-131.17 458.04,-145.28 472,-160 491.09,-180.13 489.64,-190.2 508,-211 520.69,-225.38 536.44,-239.91 549.58,-251.29"/>
<polygon fill="#63b8ff" stroke="#63b8ff" points="547.5,-254.11 557.38,-257.94 552.04,-248.78 547.5,-254.11"/>
</a>
</g>
</g>
<!-- Node12&#45;&gt;Node6 -->
<g id="edge21_Node000012_Node000006" class="edge">
<title>Node12&#45;&gt;Node6</title>
<g id="a_edge21_Node000012_Node000006"><a xlink:title=" ">
<path fill="none" stroke="#63b8ff" d="M472.25,-102.86C523.57,-103.59 593.59,-111.36 646,-143 687.43,-168.01 716.62,-218.34 731.25,-248.51"/>
<polygon fill="#63b8ff" stroke="#63b8ff" points="728.24,-250.34 735.65,-257.91 734.57,-247.37 728.24,-250.34"/>
</a>
</g>
</g>
<!-- Node13 -->
<g id="Node000013" class="node">
<title>Node13</title>
<g id="a_Node000013"><a xlink:href="group__PrivateParsers.html#ga37457b3648093985d27e8e01069d3162" target="_top" xlink:title="Parse CPU list specification to count.">
<polygon fill="white" stroke="#666666" points="638,-30 516,-30 516,0 638,0 638,-30"/>
<text text-anchor="start" x="524" y="-18" font-family="Helvetica,sans-Serif" font-size="10.00">JobSchedulerDetector</text>
<text text-anchor="middle" x="577" y="-7" font-family="Helvetica,sans-Serif" font-size="10.00">::parse_cpu_list</text>
</a>
</g>
</g>
<!-- Node12&#45;&gt;Node13 -->
<g id="edge22_Node000012_Node000013" class="edge">
<title>Node12&#45;&gt;Node13</title>
<g id="a_edge22_Node000012_Node000013"><a xlink:title=" ">
<path fill="none" stroke="#63b8ff" d="M423.88,-90.91C444.36,-76.25 477.22,-54.05 508,-39 511.57,-37.26 515.29,-35.58 519.09,-33.97"/>
<polygon fill="#63b8ff" stroke="#63b8ff" points="520.63,-37.12 528.6,-30.14 518.01,-30.63 520.63,-37.12"/>
</a>
</g>
</g>
<!-- Node15 -->
<g id="Node000015" class="node">
<title>Node15</title>
<g id="a_Node000015"><a xlink:href="group__PrivateParsers.html#ga5d5c5c72d1fadf00e71c24290a7780df" target="_top" xlink:title="Parse SLURM&#45;specific memory format strings.">
<polygon fill="white" stroke="#666666" points="641.5,-78 512.5,-78 512.5,-48 641.5,-48 641.5,-78"/>
<text text-anchor="start" x="520.5" y="-66" font-family="Helvetica,sans-Serif" font-size="10.00">JobSchedulerDetector</text>
<text text-anchor="middle" x="577" y="-55" font-family="Helvetica,sans-Serif" font-size="10.00">::parse_slurm_memory</text>
</a>
</g>
</g>
<!-- Node12&#45;&gt;Node15 -->
<g id="edge24_Node000012_Node000015" class="edge">
<title>Node12&#45;&gt;Node15</title>
<g id="a_edge24_Node000012_Node000015"><a xlink:title=" ">
<path fill="none" stroke="#63b8ff" d="M463.83,-90.96C477.36,-87.59 491.82,-83.98 505.71,-80.52"/>
<polygon fill="#63b8ff" stroke="#63b8ff" points="506.85,-83.85 515.7,-78.03 505.15,-77.05 506.85,-83.85"/>
</a>
</g>
</g>
<!-- Node14 -->
<g id="Node000014" class="node">
<title>Node14</title>
<g id="a_Node000014"><a xlink:href="group__PrivateParsers.html#gaa8c311f7460c6345a998c3480d995ec8" target="_top" xlink:title="Parse CPU range specification to count.">
<polygon fill="white" stroke="#666666" points="804,-30 682,-30 682,0 804,0 804,-30"/>
<text text-anchor="start" x="690" y="-18" font-family="Helvetica,sans-Serif" font-size="10.00">JobSchedulerDetector</text>
<text text-anchor="middle" x="743" y="-7" font-family="Helvetica,sans-Serif" font-size="10.00">::parse_cpu_range</text>
</a>
</g>
</g>
<!-- Node13&#45;&gt;Node14 -->
<g id="edge23_Node000013_Node000014" class="edge">
<title>Node13&#45;&gt;Node14</title>
<g id="a_edge23_Node000013_Node000014"><a xlink:title=" ">
<path fill="none" stroke="#63b8ff" d="M638.14,-15C649.05,-15 660.53,-15 671.71,-15"/>
<polygon fill="#63b8ff" stroke="#63b8ff" points="671.87,-18.5 681.87,-15 671.87,-11.5 671.87,-18.5"/>
</a>
</g>
</g>
<!-- Node16&#45;&gt;Node6 -->
<g id="edge26_Node000016_Node000006" class="edge">
<title>Node16&#45;&gt;Node6</title>
<g id="a_edge26_Node000016_Node000006"><a xlink:title=" ">
<path fill="none" stroke="#63b8ff" d="M443.32,-168.99C493.11,-152.74 579.83,-132.92 646,-163 684.6,-180.55 713.74,-222.13 729.31,-248.84"/>
<polygon fill="#63b8ff" stroke="#63b8ff" points="726.29,-250.61 734.24,-257.61 732.39,-247.18 726.29,-250.61"/>
</a>
</g>
</g>
</g>
</svg>
