<?xml version="1.0" encoding="UTF-8" standalone="no"?>
<!DOCTYPE svg PUBLIC "-//W3C//DTD SVG 1.1//EN"
 "http://www.w3.org/Graphics/SVG/1.1/DTD/svg11.dtd">
<!-- Generated by graphviz version 2.43.0 (0)
 -->
<!-- Title: GaussianExtractor::get_version_info Pages: 1 -->
<svg width="667pt" height="79pt"
 viewBox="0.00 0.00 667.00 79.34" xmlns="http://www.w3.org/2000/svg" xmlns:xlink="http://www.w3.org/1999/xlink">
<g id="graph0" class="graph" transform="scale(1 1) rotate(0) translate(4 75.34)">
<title>GaussianExtractor::get_version_info</title>
<!-- Node1 -->
<g id="Node000001" class="node">
<title>Node1</title>
<g id="a_Node000001"><a xlink:title="Get comprehensive version information.">
<polygon fill="#999999" stroke="#666666" points="659,-38.84 547,-38.84 547,-8.84 659,-8.84 659,-38.84"/>
<text text-anchor="start" x="555" y="-26.84" font-family="Helvetica,sans-Serif" font-size="10.00">GaussianExtractor::</text>
<text text-anchor="middle" x="603" y="-15.84" font-family="Helvetica,sans-Serif" font-size="10.00">get_version_info</text>
</a>
</g>
</g>
<!-- Node2 -->
<g id="Node000002" class="node">
<title>Node2</title>
<g id="a_Node000002"><a xlink:href="group__CommandExecutors.html#ga2c1ceafe241a0b4e19790bb5d878ed1a" target="_top" xlink:title="Parse command&#45;line arguments and create execution context.">
<polygon fill="white" stroke="#666666" points="359,-71.34 229,-71.34 229,-52.34 359,-52.34 359,-71.34"/>
<text text-anchor="middle" x="294" y="-59.34" font-family="Helvetica,sans-Serif" font-size="10.00">CommandParser::parse</text>
</a>
</g>
</g>
<!-- Node1&#45;&gt;Node2 -->
<g id="edge1_Node000001_Node000002" class="edge">
<title>Node1&#45;&gt;Node2</title>
<g id="a_edge1_Node000001_Node000002"><a xlink:title=" ">
<path fill="none" stroke="#63b8ff" d="M536.79,-38.43C528.14,-40.07 519.38,-41.6 511,-42.84 460.17,-50.36 402.13,-55.26 359.03,-58.2"/>
<polygon fill="#63b8ff" stroke="#63b8ff" points="537.71,-41.81 546.85,-36.45 536.36,-34.94 537.71,-41.81"/>
</a>
</g>
</g>
<!-- Node4 -->
<g id="Node000004" class="node">
<title>Node4</title>
<g id="a_Node000004"><a xlink:href="interactive__mode_8cpp.html#a6b615c34054150d837dc45ed1c17b297" target="_top" xlink:title="Enhanced interactive command loop with TAB completion for Windows.">
<polygon fill="white" stroke="#666666" points="193,-33.34 77,-33.34 77,-14.34 193,-14.34 193,-33.34"/>
<text text-anchor="middle" x="135" y="-21.34" font-family="Helvetica,sans-Serif" font-size="10.00">run_interactive_loop</text>
</a>
</g>
</g>
<!-- Node1&#45;&gt;Node4 -->
<g id="edge8_Node000001_Node000004" class="edge">
<title>Node1&#45;&gt;Node4</title>
<g id="a_edge8_Node000001_Node000004"><a xlink:title=" ">
<path fill="none" stroke="#63b8ff" d="M536.87,-8.56C528.22,-7.02 519.42,-5.71 511,-4.84 398.66,6.76 266.62,-6.04 193,-15.53"/>
<polygon fill="#63b8ff" stroke="#63b8ff" points="536.47,-12.04 546.94,-10.45 537.76,-5.16 536.47,-12.04"/>
</a>
</g>
</g>
<!-- Node5 -->
<g id="Node000005" class="node">
<title>Node5</title>
<g id="a_Node000005"><a xlink:href="namespaceHelpUtils.html#a1fceb380d0b85630363042aab2a46b25" target="_top" xlink:title="Print general help information.">
<polygon fill="white" stroke="#666666" points="511,-33.34 395,-33.34 395,-14.34 511,-14.34 511,-33.34"/>
<text text-anchor="middle" x="453" y="-21.34" font-family="Helvetica,sans-Serif" font-size="10.00">HelpUtils::print_help</text>
</a>
</g>
</g>
<!-- Node1&#45;&gt;Node5 -->
<g id="edge5_Node000001_Node000005" class="edge">
<title>Node1&#45;&gt;Node5</title>
<g id="a_edge5_Node000001_Node000005"><a xlink:title=" ">
<path fill="none" stroke="#63b8ff" d="M536.63,-23.84C528.13,-23.84 519.48,-23.84 511.13,-23.84"/>
<polygon fill="#63b8ff" stroke="#63b8ff" points="536.89,-27.34 546.89,-23.84 536.89,-20.34 536.89,-27.34"/>
</a>
</g>
</g>
<!-- Node3 -->
<g id="Node000003" class="node">
<title>Node3</title>
<g id="a_Node000003"><a xlink:href="main_8cpp.html#a0ddf1224851353fc92bfbff6f499fa97" target="_top" xlink:title="Main entry point for the Gaussian Extractor application.">
<polygon fill="white" stroke="#666666" points="41,-52.34 0,-52.34 0,-33.34 41,-33.34 41,-52.34"/>
<text text-anchor="middle" x="20.5" y="-40.34" font-family="Helvetica,sans-Serif" font-size="10.00">main</text>
</a>
</g>
</g>
<!-- Node2&#45;&gt;Node3 -->
<g id="edge2_Node000002_Node000003" class="edge">
<title>Node2&#45;&gt;Node3</title>
<g id="a_edge2_Node000002_Node000003"><a xlink:title=" ">
<path fill="none" stroke="#63b8ff" d="M218.42,-56.62C158.19,-52.41 77.65,-46.77 41.06,-44.21"/>
<polygon fill="#63b8ff" stroke="#63b8ff" points="218.44,-60.13 228.66,-57.34 218.93,-53.15 218.44,-60.13"/>
</a>
</g>
</g>
<!-- Node2&#45;&gt;Node4 -->
<g id="edge3_Node000002_Node000004" class="edge">
<title>Node2&#45;&gt;Node4</title>
<g id="a_edge3_Node000002_Node000004"><a xlink:title=" ">
<path fill="none" stroke="#63b8ff" d="M243.55,-49.87C221.55,-44.55 196.01,-38.37 175.33,-33.36"/>
<polygon fill="#63b8ff" stroke="#63b8ff" points="242.84,-53.3 253.38,-52.25 244.49,-46.5 242.84,-53.3"/>
</a>
</g>
</g>
<!-- Node4&#45;&gt;Node3 -->
<g id="edge4_Node000004_Node000003" class="edge">
<title>Node4&#45;&gt;Node3</title>
<g id="a_edge4_Node000004_Node000003"><a xlink:title=" ">
<path fill="none" stroke="#63b8ff" d="M67.4,-35.09C57.88,-36.7 48.77,-38.24 41.22,-39.51"/>
<polygon fill="#63b8ff" stroke="#63b8ff" points="68.14,-38.51 77.42,-33.4 66.98,-31.61 68.14,-38.51"/>
</a>
</g>
</g>
<!-- Node5&#45;&gt;Node2 -->
<g id="edge6_Node000005_Node000002" class="edge">
<title>Node5&#45;&gt;Node2</title>
<g id="a_edge6_Node000005_Node000002"><a xlink:title=" ">
<path fill="none" stroke="#63b8ff" d="M402.55,-35.81C380.55,-41.14 355.01,-47.32 334.33,-52.32"/>
<polygon fill="#63b8ff" stroke="#63b8ff" points="403.49,-39.19 412.38,-33.43 401.84,-32.38 403.49,-39.19"/>
</a>
</g>
</g>
<!-- Node5&#45;&gt;Node4 -->
<g id="edge7_Node000005_Node000004" class="edge">
<title>Node5&#45;&gt;Node4</title>
<g id="a_edge7_Node000005_Node000004"><a xlink:title=" ">
<path fill="none" stroke="#63b8ff" d="M384.42,-23.84C327.46,-23.84 246.84,-23.84 193.07,-23.84"/>
<polygon fill="#63b8ff" stroke="#63b8ff" points="384.77,-27.34 394.77,-23.84 384.77,-20.34 384.77,-27.34"/>
</a>
</g>
</g>
</g>
</svg>
