<?xml version="1.0" encoding="UTF-8" standalone="no"?>
<!DOCTYPE svg PUBLIC "-//W3C//DTD SVG 1.1//EN"
 "http://www.w3.org/Graphics/SVG/1.1/DTD/svg11.dtd">
<!-- Generated by graphviz version 2.43.0 (0)
 -->
<!-- Title: ConfigManager::is_valid_output_extension Pages: 1 -->
<svg width="611pt" height="167pt"
 viewBox="0.00 0.00 611.00 166.50" xmlns="http://www.w3.org/2000/svg" xmlns:xlink="http://www.w3.org/1999/xlink">
<g id="graph0" class="graph" transform="scale(1 1) rotate(0) translate(4 162.5)">
<title>ConfigManager::is_valid_output_extension</title>
<!-- Node1 -->
<g id="Node000001" class="node">
<title>Node1</title>
<g id="a_Node000001"><a xlink:title="Check if an extension is valid for output files.">
<polygon fill="#999999" stroke="#666666" points="134,-155.5 0,-155.5 0,-125.5 134,-125.5 134,-155.5"/>
<text text-anchor="start" x="8" y="-143.5" font-family="Helvetica,sans-Serif" font-size="10.00">ConfigManager::is_valid</text>
<text text-anchor="middle" x="67" y="-132.5" font-family="Helvetica,sans-Serif" font-size="10.00">_output_extension</text>
</a>
</g>
</g>
<!-- Node2 -->
<g id="Node000002" class="node">
<title>Node2</title>
<g id="a_Node000002"><a xlink:href="group__ConfigInternals.html#ga5e387d61b1f34873cd3ab047242b2aad" target="_top" xlink:title="Template method for type&#45;safe value conversion.">
<polygon fill="white" stroke="#666666" points="603,-158.5 470,-158.5 470,-128.5 603,-128.5 603,-158.5"/>
<text text-anchor="start" x="478" y="-146.5" font-family="Helvetica,sans-Serif" font-size="10.00">ConfigManager::convert</text>
<text text-anchor="middle" x="536.5" y="-135.5" font-family="Helvetica,sans-Serif" font-size="10.00">_value</text>
</a>
</g>
</g>
<!-- Node1&#45;&gt;Node2 -->
<g id="edge1_Node000001_Node000002" class="edge">
<title>Node1&#45;&gt;Node2</title>
<g id="a_edge1_Node000001_Node000002"><a xlink:title=" ">
<path fill="none" stroke="#63b8ff" d="M134.06,-141.84C184.45,-142.8 255.6,-144 318,-144.5 369.55,-144.91 382.45,-144.75 434,-144.5 442.36,-144.46 451.11,-144.4 459.81,-144.33"/>
<polygon fill="#63b8ff" stroke="#63b8ff" points="460.01,-147.83 469.98,-144.24 459.95,-140.83 460.01,-147.83"/>
</a>
</g>
</g>
<!-- Node3 -->
<g id="Node000003" class="node">
<title>Node3</title>
<g id="a_Node000003"><a xlink:href="group__ConfigExtensions.html#ga6eda0c86fa8ce71b9fa05b7a1c306597" target="_top" xlink:title="Get list of supported output file extensions.">
<polygon fill="white" stroke="#666666" points="282,-115.5 170,-115.5 170,-85.5 282,-85.5 282,-115.5"/>
<text text-anchor="start" x="178" y="-103.5" font-family="Helvetica,sans-Serif" font-size="10.00">ConfigManager::get</text>
<text text-anchor="middle" x="226" y="-92.5" font-family="Helvetica,sans-Serif" font-size="10.00">_output_extensions</text>
</a>
</g>
</g>
<!-- Node1&#45;&gt;Node3 -->
<g id="edge2_Node000001_Node000003" class="edge">
<title>Node1&#45;&gt;Node3</title>
<g id="a_edge2_Node000001_Node000003"><a xlink:title=" ">
<path fill="none" stroke="#63b8ff" d="M126.91,-125.49C137.7,-122.74 149.02,-119.86 159.98,-117.07"/>
<polygon fill="#63b8ff" stroke="#63b8ff" points="161.09,-120.4 169.91,-114.53 159.36,-113.61 161.09,-120.4"/>
</a>
</g>
</g>
<!-- Node3&#45;&gt;Node2 -->
<g id="edge3_Node000003_Node000002" class="edge">
<title>Node3&#45;&gt;Node2</title>
<g id="a_edge3_Node000003_Node000002"><a xlink:title=" ">
<path fill="none" stroke="#63b8ff" d="M277.68,-115.5C290.72,-118.91 304.8,-122.2 318,-124.5 364.74,-132.64 417.78,-137.37 459.78,-140.07"/>
<polygon fill="#63b8ff" stroke="#63b8ff" points="459.73,-143.57 469.93,-140.69 460.16,-136.58 459.73,-143.57"/>
</a>
</g>
</g>
<!-- Node4 -->
<g id="Node000004" class="node">
<title>Node4</title>
<g id="a_Node000004"><a xlink:href="group__ConfigValueGetters.html#gaa25cec73939b4d9bd7419f553faae0cb" target="_top" xlink:title="Get string configuration value.">
<polygon fill="white" stroke="#666666" points="432,-115.5 320,-115.5 320,-85.5 432,-85.5 432,-115.5"/>
<text text-anchor="start" x="328" y="-103.5" font-family="Helvetica,sans-Serif" font-size="10.00">ConfigManager::get</text>
<text text-anchor="middle" x="376" y="-92.5" font-family="Helvetica,sans-Serif" font-size="10.00">_string</text>
</a>
</g>
</g>
<!-- Node3&#45;&gt;Node4 -->
<g id="edge4_Node000003_Node000004" class="edge">
<title>Node3&#45;&gt;Node4</title>
<g id="a_edge4_Node000003_Node000004"><a xlink:title=" ">
<path fill="none" stroke="#63b8ff" d="M282.11,-100.5C291.07,-100.5 300.42,-100.5 309.59,-100.5"/>
<polygon fill="#63b8ff" stroke="#63b8ff" points="309.84,-104 319.84,-100.5 309.84,-97 309.84,-104"/>
</a>
</g>
</g>
<!-- Node5 -->
<g id="Node000005" class="node">
<title>Node5</title>
<g id="a_Node000005"><a xlink:href="group__ConfigStringUtils.html#ga2f21572e2bdf739cbd8c75720728196c" target="_top" xlink:title="Split string into vector using delimiter.">
<polygon fill="white" stroke="#666666" points="424.5,-67.5 327.5,-67.5 327.5,-37.5 424.5,-37.5 424.5,-67.5"/>
<text text-anchor="start" x="335.5" y="-55.5" font-family="Helvetica,sans-Serif" font-size="10.00">ConfigUtils::split</text>
<text text-anchor="middle" x="376" y="-44.5" font-family="Helvetica,sans-Serif" font-size="10.00">_string</text>
</a>
</g>
</g>
<!-- Node3&#45;&gt;Node5 -->
<g id="edge6_Node000003_Node000005" class="edge">
<title>Node3&#45;&gt;Node5</title>
<g id="a_edge6_Node000003_Node000005"><a xlink:title=" ">
<path fill="none" stroke="#63b8ff" d="M273.42,-85.44C287.89,-80.75 303.99,-75.53 319.04,-70.65"/>
<polygon fill="#63b8ff" stroke="#63b8ff" points="320.31,-73.92 328.74,-67.5 318.15,-67.26 320.31,-73.92"/>
</a>
</g>
</g>
<!-- Node6 -->
<g id="Node000006" class="node">
<title>Node6</title>
<g id="a_Node000006"><a xlink:href="group__ConfigInternals.html#ga24e6150f47d12f03a5864631c6d846c5" target="_top" xlink:title="Remove leading and trailing whitespace from string.">
<polygon fill="white" stroke="#666666" points="434,-19 318,-19 318,0 434,0 434,-19"/>
<text text-anchor="middle" x="376" y="-7" font-family="Helvetica,sans-Serif" font-size="10.00">ConfigManager::trim</text>
</a>
</g>
</g>
<!-- Node3&#45;&gt;Node6 -->
<g id="edge7_Node000003_Node000006" class="edge">
<title>Node3&#45;&gt;Node6</title>
<g id="a_edge7_Node000003_Node000006"><a xlink:title=" ">
<path fill="none" stroke="#63b8ff" d="M242.55,-85.37C259.76,-69.34 288.94,-44.21 318,-28.5 321.93,-26.38 326.13,-24.43 330.41,-22.67"/>
<polygon fill="#63b8ff" stroke="#63b8ff" points="331.73,-25.91 339.83,-19.09 329.24,-19.37 331.73,-25.91"/>
</a>
</g>
</g>
<!-- Node4&#45;&gt;Node2 -->
<g id="edge5_Node000004_Node000002" class="edge">
<title>Node4&#45;&gt;Node2</title>
<g id="a_edge5_Node000004_Node000002"><a xlink:title=" ">
<path fill="none" stroke="#63b8ff" d="M432.44,-115.54C444.62,-118.85 457.64,-122.38 470.17,-125.78"/>
<polygon fill="#63b8ff" stroke="#63b8ff" points="469.53,-129.23 480.1,-128.47 471.36,-122.47 469.53,-129.23"/>
</a>
</g>
</g>
</g>
</svg>
