<?xml version="1.0" encoding="UTF-8" standalone="no"?>
<!DOCTYPE svg PUBLIC "-//W3C//DTD SVG 1.1//EN"
 "http://www.w3.org/Graphics/SVG/1.1/DTD/svg11.dtd">
<!-- Generated by graphviz version 2.43.0 (0)
 -->
<!-- Title: JobSchedulerDetector::detect_job_resources Pages: 1 -->
<svg width="641pt" height="458pt"
 viewBox="0.00 0.00 641.00 457.73" xmlns="http://www.w3.org/2000/svg" xmlns:xlink="http://www.w3.org/1999/xlink">
<g id="graph0" class="graph" transform="scale(1 1) rotate(0) translate(4 453.73)">
<title>JobSchedulerDetector::detect_job_resources</title>
<!-- Node1 -->
<g id="Node000001" class="node">
<title>Node1</title>
<g id="a_Node000001"><a xlink:title="Detect current job scheduler and extract complete resource information.">
<polygon fill="#999999" stroke="#666666" points="126,-261 0,-261 0,-231 126,-231 126,-261"/>
<text text-anchor="start" x="8" y="-249" font-family="Helvetica,sans-Serif" font-size="10.00">JobSchedulerDetector</text>
<text text-anchor="middle" x="63" y="-238" font-family="Helvetica,sans-Serif" font-size="10.00">::detect_job_resources</text>
</a>
</g>
</g>
<!-- Node2 -->
<g id="Node000002" class="node">
<title>Node2</title>
<g id="a_Node000002"><a xlink:href="group__SchedulerSpecific.html#ga3923336c54e169224a24aa725fa039a4" target="_top" xlink:title="Extract resource information from LSF environment.">
<polygon fill="white" stroke="#666666" points="293,-328 170,-328 170,-298 293,-298 293,-328"/>
<text text-anchor="start" x="178" y="-316" font-family="Helvetica,sans-Serif" font-size="10.00">JobSchedulerDetector</text>
<text text-anchor="middle" x="231.5" y="-305" font-family="Helvetica,sans-Serif" font-size="10.00">::detect_lsf_resources</text>
</a>
</g>
</g>
<!-- Node1&#45;&gt;Node2 -->
<g id="edge1_Node000001_Node000002" class="edge">
<title>Node1&#45;&gt;Node2</title>
<g id="a_edge1_Node000001_Node000002"><a xlink:title=" ">
<path fill="none" stroke="#63b8ff" d="M101.37,-261.04C125.7,-270.83 157.65,-283.68 183.67,-294.16"/>
<polygon fill="#63b8ff" stroke="#63b8ff" points="182.39,-297.41 192.97,-297.9 185,-290.92 182.39,-297.41"/>
</a>
</g>
</g>
<!-- Node7 -->
<g id="Node000007" class="node">
<title>Node7</title>
<g id="a_Node000007"><a xlink:href="group__SchedulerSpecific.html#ga09d406f8202e5cec41ff257c23ef5031" target="_top" xlink:title="Extract resource information from PBS/Torque environment.">
<polygon fill="white" stroke="#666666" points="295.5,-261 167.5,-261 167.5,-231 295.5,-231 295.5,-261"/>
<text text-anchor="start" x="175.5" y="-249" font-family="Helvetica,sans-Serif" font-size="10.00">JobSchedulerDetector</text>
<text text-anchor="middle" x="231.5" y="-238" font-family="Helvetica,sans-Serif" font-size="10.00">::detect_pbs_resources</text>
</a>
</g>
</g>
<!-- Node1&#45;&gt;Node7 -->
<g id="edge7_Node000001_Node000007" class="edge">
<title>Node1&#45;&gt;Node7</title>
<g id="a_edge7_Node000001_Node000007"><a xlink:title=" ">
<path fill="none" stroke="#63b8ff" d="M126.47,-246C136.51,-246 146.97,-246 157.23,-246"/>
<polygon fill="#63b8ff" stroke="#63b8ff" points="157.4,-249.5 167.4,-246 157.4,-242.5 157.4,-249.5"/>
</a>
</g>
</g>
<!-- Node9 -->
<g id="Node000009" class="node">
<title>Node9</title>
<g id="a_Node000009"><a xlink:href="group__SchedulerSpecific.html#ga14bd7d5ddf535138b1fa97ce992356f5" target="_top" xlink:title="Extract resource information from SGE/OGS environment.">
<polygon fill="white" stroke="#666666" points="295.5,-376 167.5,-376 167.5,-346 295.5,-346 295.5,-376"/>
<text text-anchor="start" x="175.5" y="-364" font-family="Helvetica,sans-Serif" font-size="10.00">JobSchedulerDetector</text>
<text text-anchor="middle" x="231.5" y="-353" font-family="Helvetica,sans-Serif" font-size="10.00">::detect_sge_resources</text>
</a>
</g>
</g>
<!-- Node1&#45;&gt;Node9 -->
<g id="edge12_Node000001_Node000009" class="edge">
<title>Node1&#45;&gt;Node9</title>
<g id="a_edge12_Node000001_Node000009"><a xlink:title=" ">
<path fill="none" stroke="#63b8ff" d="M76.77,-261.26C94.19,-281.2 127.21,-316.02 162,-337 164.67,-338.61 167.45,-340.13 170.32,-341.56"/>
<polygon fill="#63b8ff" stroke="#63b8ff" points="169.11,-344.86 179.66,-345.86 172.04,-338.5 169.11,-344.86"/>
</a>
</g>
</g>
<!-- Node10 -->
<g id="Node000010" class="node">
<title>Node10</title>
<g id="a_Node000010"><a xlink:href="group__SchedulerSpecific.html#ga488877fafdad543d22522f9b85bfd5ba" target="_top" xlink:title="Extract resource information from SLURM environment.">
<polygon fill="white" stroke="#666666" points="301,-121 162,-121 162,-91 301,-91 301,-121"/>
<text text-anchor="start" x="170" y="-109" font-family="Helvetica,sans-Serif" font-size="10.00">JobSchedulerDetector</text>
<text text-anchor="middle" x="231.5" y="-98" font-family="Helvetica,sans-Serif" font-size="10.00">::detect_slurm_resources</text>
</a>
</g>
</g>
<!-- Node1&#45;&gt;Node10 -->
<g id="edge17_Node000001_Node000010" class="edge">
<title>Node1&#45;&gt;Node10</title>
<g id="a_edge17_Node000001_Node000010"><a xlink:title=" ">
<path fill="none" stroke="#63b8ff" d="M80.76,-230.81C100.09,-213.41 132.94,-184.18 162,-160 175.15,-149.06 190.03,-137.27 202.55,-127.5"/>
<polygon fill="#63b8ff" stroke="#63b8ff" points="205.04,-129.99 210.79,-121.09 200.75,-124.46 205.04,-129.99"/>
</a>
</g>
</g>
<!-- Node14 -->
<g id="Node000014" class="node">
<title>Node14</title>
<g id="a_Node000014"><a xlink:href="group__DetectionMethods.html#ga4a459ab8a1188d54b0e6304d525d1173" target="_top" xlink:title="Identify the type of job scheduler currently active.">
<polygon fill="white" stroke="#666666" points="292.5,-199 170.5,-199 170.5,-169 292.5,-169 292.5,-199"/>
<text text-anchor="start" x="178.5" y="-187" font-family="Helvetica,sans-Serif" font-size="10.00">JobSchedulerDetector</text>
<text text-anchor="middle" x="231.5" y="-176" font-family="Helvetica,sans-Serif" font-size="10.00">::get_scheduler_type</text>
</a>
</g>
</g>
<!-- Node1&#45;&gt;Node14 -->
<g id="edge23_Node000001_Node000014" class="edge">
<title>Node1&#45;&gt;Node14</title>
<g id="a_edge23_Node000001_Node000014"><a xlink:title=" ">
<path fill="none" stroke="#63b8ff" d="M104.31,-230.99C127.25,-222.45 156.18,-211.68 180.55,-202.6"/>
<polygon fill="#63b8ff" stroke="#63b8ff" points="181.84,-205.85 189.99,-199.09 179.4,-199.29 181.84,-205.85"/>
</a>
</g>
</g>
<!-- Node3 -->
<g id="Node000003" class="node">
<title>Node3</title>
<g id="a_Node000003"><a xlink:href="group__EnvironmentHelpers.html#gade9468a3b205731f1aa25d53a32edeca" target="_top" xlink:title="Get long integer environment variable value.">
<polygon fill="white" stroke="#666666" points="467,-288 345,-288 345,-258 467,-258 467,-288"/>
<text text-anchor="start" x="353" y="-276" font-family="Helvetica,sans-Serif" font-size="10.00">JobSchedulerDetector</text>
<text text-anchor="middle" x="406" y="-265" font-family="Helvetica,sans-Serif" font-size="10.00">::get_env_long</text>
</a>
</g>
</g>
<!-- Node2&#45;&gt;Node3 -->
<g id="edge2_Node000002_Node000003" class="edge">
<title>Node2&#45;&gt;Node3</title>
<g id="a_edge2_Node000002_Node000003"><a xlink:title=" ">
<path fill="none" stroke="#63b8ff" d="M293.32,-298.9C306.74,-295.78 321.07,-292.46 334.83,-289.27"/>
<polygon fill="#63b8ff" stroke="#63b8ff" points="335.78,-292.64 344.73,-286.98 334.2,-285.82 335.78,-292.64"/>
</a>
</g>
</g>
<!-- Node4 -->
<g id="Node000004" class="node">
<title>Node4</title>
<g id="a_Node000004"><a xlink:href="group__EnvironmentHelpers.html#ga462d9065c82e9250768f5fe6cea9929b" target="_top" xlink:title="Get environment variable value with default fallback.">
<polygon fill="white" stroke="#666666" points="633,-288 511,-288 511,-258 633,-258 633,-288"/>
<text text-anchor="start" x="519" y="-276" font-family="Helvetica,sans-Serif" font-size="10.00">JobSchedulerDetector</text>
<text text-anchor="middle" x="572" y="-265" font-family="Helvetica,sans-Serif" font-size="10.00">::get_env_var</text>
</a>
</g>
</g>
<!-- Node2&#45;&gt;Node4 -->
<g id="edge3_Node000002_Node000004" class="edge">
<title>Node2&#45;&gt;Node4</title>
<g id="a_edge3_Node000002_Node000004"><a xlink:title=" ">
<path fill="none" stroke="#63b8ff" d="M293.12,-312.01C342.38,-310.48 413.52,-306.63 475,-297 485.79,-295.31 497.13,-292.98 508.1,-290.43"/>
<polygon fill="#63b8ff" stroke="#63b8ff" points="509.13,-293.78 518.03,-288.04 507.49,-286.98 509.13,-293.78"/>
</a>
</g>
</g>
<!-- Node5 -->
<g id="Node000005" class="node">
<title>Node5</title>
<g id="a_Node000005"><a xlink:href="group__DetectionMethods.html#ga34ce79ae6eec92775d73cb4692c52566" target="_top" xlink:title="Extract job ID from scheduler environment.">
<polygon fill="white" stroke="#666666" points="467,-374 345,-374 345,-344 467,-344 467,-374"/>
<text text-anchor="start" x="353" y="-362" font-family="Helvetica,sans-Serif" font-size="10.00">JobSchedulerDetector</text>
<text text-anchor="middle" x="406" y="-351" font-family="Helvetica,sans-Serif" font-size="10.00">::get_job_id</text>
</a>
</g>
</g>
<!-- Node2&#45;&gt;Node5 -->
<g id="edge4_Node000002_Node000005" class="edge">
<title>Node2&#45;&gt;Node5</title>
<g id="a_edge4_Node000002_Node000005"><a xlink:title=" ">
<path fill="none" stroke="#63b8ff" d="M288.98,-328.06C304.85,-332.29 322.25,-336.93 338.64,-341.3"/>
<polygon fill="#63b8ff" stroke="#63b8ff" points="338.12,-344.79 348.68,-343.98 339.92,-338.02 338.12,-344.79"/>
</a>
</g>
</g>
<!-- Node6 -->
<g id="Node000006" class="node">
<title>Node6</title>
<g id="a_Node000006"><a xlink:href="group__PrivateParsers.html#gaef6c0a64fcb73d01deb070200fd84a52" target="_top" xlink:title="Parse general memory format strings.">
<polygon fill="white" stroke="#666666" points="475,-422 337,-422 337,-392 475,-392 475,-422"/>
<text text-anchor="start" x="345" y="-410" font-family="Helvetica,sans-Serif" font-size="10.00">JobSchedulerDetector</text>
<text text-anchor="middle" x="406" y="-399" font-family="Helvetica,sans-Serif" font-size="10.00">::parse_general_memory</text>
</a>
</g>
</g>
<!-- Node2&#45;&gt;Node6 -->
<g id="edge6_Node000002_Node000006" class="edge">
<title>Node2&#45;&gt;Node6</title>
<g id="a_edge6_Node000002_Node000006"><a xlink:title=" ">
<path fill="none" stroke="#63b8ff" d="M285.65,-328.14C291.06,-330.68 296.29,-333.62 301,-337 322.1,-352.12 315.92,-367.85 337,-383 339.09,-384.5 341.28,-385.92 343.55,-387.25"/>
<polygon fill="#63b8ff" stroke="#63b8ff" points="342.11,-390.45 352.59,-391.99 345.36,-384.25 342.11,-390.45"/>
</a>
</g>
</g>
<!-- Node5&#45;&gt;Node4 -->
<g id="edge5_Node000005_Node000004" class="edge">
<title>Node5&#45;&gt;Node4</title>
<g id="a_edge5_Node000005_Node000004"><a xlink:title=" ">
<path fill="none" stroke="#63b8ff" d="M444.82,-343.92C454.76,-339.68 465.39,-334.88 475,-330 496.84,-318.92 520.5,-304.9 538.87,-293.53"/>
<polygon fill="#63b8ff" stroke="#63b8ff" points="540.8,-296.45 547.43,-288.19 537.09,-290.51 540.8,-296.45"/>
</a>
</g>
</g>
<!-- Node7&#45;&gt;Node3 -->
<g id="edge8_Node000007_Node000003" class="edge">
<title>Node7&#45;&gt;Node3</title>
<g id="a_edge8_Node000007_Node000003"><a xlink:title=" ">
<path fill="none" stroke="#63b8ff" d="M295.75,-255.9C308.42,-257.88 321.81,-259.98 334.7,-262"/>
<polygon fill="#63b8ff" stroke="#63b8ff" points="334.49,-265.51 344.91,-263.59 335.57,-258.59 334.49,-265.51"/>
</a>
</g>
</g>
<!-- Node7&#45;&gt;Node4 -->
<g id="edge9_Node000007_Node000004" class="edge">
<title>Node7&#45;&gt;Node4</title>
<g id="a_edge9_Node000007_Node000004"><a xlink:title=" ">
<path fill="none" stroke="#63b8ff" d="M295.59,-242.78C344.7,-241.24 414.45,-241.17 475,-249 486.46,-250.48 498.53,-252.85 510.1,-255.52"/>
<polygon fill="#63b8ff" stroke="#63b8ff" points="509.56,-258.99 520.11,-257.94 511.21,-252.19 509.56,-258.99"/>
</a>
</g>
</g>
<!-- Node7&#45;&gt;Node5 -->
<g id="edge10_Node000007_Node000005" class="edge">
<title>Node7&#45;&gt;Node5</title>
<g id="a_edge10_Node000007_Node000005"><a xlink:title=" ">
<path fill="none" stroke="#63b8ff" d="M257.03,-261.14C270.14,-269.29 286.52,-279.59 301,-289 325.91,-305.19 353.82,-324.02 374.45,-338.07"/>
<polygon fill="#63b8ff" stroke="#63b8ff" points="372.59,-341.03 382.82,-343.77 376.53,-335.25 372.59,-341.03"/>
</a>
</g>
</g>
<!-- Node8 -->
<g id="Node000008" class="node">
<title>Node8</title>
<g id="a_Node000008"><a xlink:href="group__PrivateParsers.html#ga9bed72466ae8b04e8fe80827e482bd59" target="_top" xlink:title="Parse PBS/Torque&#45;specific memory format strings.">
<polygon fill="white" stroke="#666666" points="467,-202 345,-202 345,-172 467,-172 467,-202"/>
<text text-anchor="start" x="353" y="-190" font-family="Helvetica,sans-Serif" font-size="10.00">JobSchedulerDetector</text>
<text text-anchor="middle" x="406" y="-179" font-family="Helvetica,sans-Serif" font-size="10.00">::parse_pbs_memory</text>
</a>
</g>
</g>
<!-- Node7&#45;&gt;Node8 -->
<g id="edge11_Node000007_Node000008" class="edge">
<title>Node7&#45;&gt;Node8</title>
<g id="a_edge11_Node000007_Node000008"><a xlink:title=" ">
<path fill="none" stroke="#63b8ff" d="M276.48,-230.96C299.29,-223.16 327.34,-213.56 351.41,-205.33"/>
<polygon fill="#63b8ff" stroke="#63b8ff" points="352.78,-208.56 361.1,-202.01 350.51,-201.94 352.78,-208.56"/>
</a>
</g>
</g>
<!-- Node9&#45;&gt;Node3 -->
<g id="edge13_Node000009_Node000003" class="edge">
<title>Node9&#45;&gt;Node3</title>
<g id="a_edge13_Node000009_Node000003"><a xlink:title=" ">
<path fill="none" stroke="#63b8ff" d="M279.84,-345.91C287.03,-343.19 294.29,-340.2 301,-337 327.01,-324.62 354.71,-307.35 374.98,-293.87"/>
<polygon fill="#63b8ff" stroke="#63b8ff" points="377.12,-296.65 383.46,-288.16 373.21,-290.84 377.12,-296.65"/>
</a>
</g>
</g>
<!-- Node9&#45;&gt;Node4 -->
<g id="edge14_Node000009_Node000004" class="edge">
<title>Node9&#45;&gt;Node4</title>
<g id="a_edge14_Node000009_Node000004"><a xlink:title=" ">
<path fill="none" stroke="#63b8ff" d="M248.27,-376.04C267.46,-393.2 301.69,-420.27 337,-431 395.68,-448.84 421.54,-461.07 475,-431 525.8,-402.43 552.83,-334.9 564.26,-298.05"/>
<polygon fill="#63b8ff" stroke="#63b8ff" points="567.72,-298.69 567.19,-288.1 561,-296.7 567.72,-298.69"/>
</a>
</g>
</g>
<!-- Node9&#45;&gt;Node5 -->
<g id="edge15_Node000009_Node000005" class="edge">
<title>Node9&#45;&gt;Node5</title>
<g id="a_edge15_Node000009_Node000005"><a xlink:title=" ">
<path fill="none" stroke="#63b8ff" d="M295.75,-360.27C308.42,-360.12 321.81,-359.96 334.7,-359.82"/>
<polygon fill="#63b8ff" stroke="#63b8ff" points="334.95,-363.31 344.91,-359.7 334.87,-356.31 334.95,-363.31"/>
</a>
</g>
</g>
<!-- Node9&#45;&gt;Node6 -->
<g id="edge16_Node000009_Node000006" class="edge">
<title>Node9&#45;&gt;Node6</title>
<g id="a_edge16_Node000009_Node000006"><a xlink:title=" ">
<path fill="none" stroke="#63b8ff" d="M288.98,-376.06C304.85,-380.29 322.25,-384.93 338.64,-389.3"/>
<polygon fill="#63b8ff" stroke="#63b8ff" points="338.12,-392.79 348.68,-391.98 339.92,-386.02 338.12,-392.79"/>
</a>
</g>
</g>
<!-- Node10&#45;&gt;Node3 -->
<g id="edge18_Node000010_Node000003" class="edge">
<title>Node10&#45;&gt;Node3</title>
<g id="a_edge18_Node000010_Node000003"><a xlink:title=" ">
<path fill="none" stroke="#63b8ff" d="M254.83,-121.07C268.92,-131.17 287.04,-145.28 301,-160 320.09,-180.13 318.64,-190.2 337,-211 349.69,-225.38 365.44,-239.91 378.58,-251.29"/>
<polygon fill="#63b8ff" stroke="#63b8ff" points="376.5,-254.11 386.38,-257.94 381.04,-248.78 376.5,-254.11"/>
</a>
</g>
</g>
<!-- Node10&#45;&gt;Node4 -->
<g id="edge19_Node000010_Node000004" class="edge">
<title>Node10&#45;&gt;Node4</title>
<g id="a_edge19_Node000010_Node000004"><a xlink:title=" ">
<path fill="none" stroke="#63b8ff" d="M301.25,-102.86C352.57,-103.59 422.59,-111.36 475,-143 516.43,-168.01 545.62,-218.34 560.25,-248.51"/>
<polygon fill="#63b8ff" stroke="#63b8ff" points="557.24,-250.34 564.65,-257.91 563.57,-247.37 557.24,-250.34"/>
</a>
</g>
</g>
<!-- Node11 -->
<g id="Node000011" class="node">
<title>Node11</title>
<g id="a_Node000011"><a xlink:href="group__PrivateParsers.html#ga37457b3648093985d27e8e01069d3162" target="_top" xlink:title="Parse CPU list specification to count.">
<polygon fill="white" stroke="#666666" points="467,-30 345,-30 345,0 467,0 467,-30"/>
<text text-anchor="start" x="353" y="-18" font-family="Helvetica,sans-Serif" font-size="10.00">JobSchedulerDetector</text>
<text text-anchor="middle" x="406" y="-7" font-family="Helvetica,sans-Serif" font-size="10.00">::parse_cpu_list</text>
</a>
</g>
</g>
<!-- Node10&#45;&gt;Node11 -->
<g id="edge20_Node000010_Node000011" class="edge">
<title>Node10&#45;&gt;Node11</title>
<g id="a_edge20_Node000010_Node000011"><a xlink:title=" ">
<path fill="none" stroke="#63b8ff" d="M252.88,-90.91C273.36,-76.25 306.22,-54.05 337,-39 340.57,-37.26 344.29,-35.58 348.09,-33.97"/>
<polygon fill="#63b8ff" stroke="#63b8ff" points="349.63,-37.12 357.6,-30.14 347.01,-30.63 349.63,-37.12"/>
</a>
</g>
</g>
<!-- Node13 -->
<g id="Node000013" class="node">
<title>Node13</title>
<g id="a_Node000013"><a xlink:href="group__PrivateParsers.html#ga5d5c5c72d1fadf00e71c24290a7780df" target="_top" xlink:title="Parse SLURM&#45;specific memory format strings.">
<polygon fill="white" stroke="#666666" points="470.5,-78 341.5,-78 341.5,-48 470.5,-48 470.5,-78"/>
<text text-anchor="start" x="349.5" y="-66" font-family="Helvetica,sans-Serif" font-size="10.00">JobSchedulerDetector</text>
<text text-anchor="middle" x="406" y="-55" font-family="Helvetica,sans-Serif" font-size="10.00">::parse_slurm_memory</text>
</a>
</g>
</g>
<!-- Node10&#45;&gt;Node13 -->
<g id="edge22_Node000010_Node000013" class="edge">
<title>Node10&#45;&gt;Node13</title>
<g id="a_edge22_Node000010_Node000013"><a xlink:title=" ">
<path fill="none" stroke="#63b8ff" d="M292.83,-90.96C306.36,-87.59 320.82,-83.98 334.71,-80.52"/>
<polygon fill="#63b8ff" stroke="#63b8ff" points="335.85,-83.85 344.7,-78.03 334.15,-77.05 335.85,-83.85"/>
</a>
</g>
</g>
<!-- Node12 -->
<g id="Node000012" class="node">
<title>Node12</title>
<g id="a_Node000012"><a xlink:href="group__PrivateParsers.html#gaa8c311f7460c6345a998c3480d995ec8" target="_top" xlink:title="Parse CPU range specification to count.">
<polygon fill="white" stroke="#666666" points="633,-30 511,-30 511,0 633,0 633,-30"/>
<text text-anchor="start" x="519" y="-18" font-family="Helvetica,sans-Serif" font-size="10.00">JobSchedulerDetector</text>
<text text-anchor="middle" x="572" y="-7" font-family="Helvetica,sans-Serif" font-size="10.00">::parse_cpu_range</text>
</a>
</g>
</g>
<!-- Node11&#45;&gt;Node12 -->
<g id="edge21_Node000011_Node000012" class="edge">
<title>Node11&#45;&gt;Node12</title>
<g id="a_edge21_Node000011_Node000012"><a xlink:title=" ">
<path fill="none" stroke="#63b8ff" d="M467.14,-15C478.05,-15 489.53,-15 500.71,-15"/>
<polygon fill="#63b8ff" stroke="#63b8ff" points="500.87,-18.5 510.87,-15 500.87,-11.5 500.87,-18.5"/>
</a>
</g>
</g>
<!-- Node14&#45;&gt;Node4 -->
<g id="edge24_Node000014_Node000004" class="edge">
<title>Node14&#45;&gt;Node4</title>
<g id="a_edge24_Node000014_Node000004"><a xlink:title=" ">
<path fill="none" stroke="#63b8ff" d="M272.32,-168.99C322.11,-152.74 408.83,-132.92 475,-163 513.6,-180.55 542.74,-222.13 558.31,-248.84"/>
<polygon fill="#63b8ff" stroke="#63b8ff" points="555.29,-250.61 563.24,-257.61 561.39,-247.18 555.29,-250.61"/>
</a>
</g>
</g>
</g>
</svg>
