<?xml version="1.0" encoding="UTF-8" standalone="no"?>
<!DOCTYPE svg PUBLIC "-//W3C//DTD SVG 1.1//EN"
 "http://www.w3.org/Graphics/SVG/1.1/DTD/svg11.dtd">
<!-- Generated by graphviz version 2.43.0 (0)
 -->
<!-- Title: CommandParser::parse Pages: 1 -->
<svg width="367pt" height="46pt"
 viewBox="0.00 0.00 367.00 46.00" xmlns="http://www.w3.org/2000/svg" xmlns:xlink="http://www.w3.org/1999/xlink">
<g id="graph0" class="graph" transform="scale(1 1) rotate(0) translate(4 42)">
<title>CommandParser::parse</title>
<!-- Node1 -->
<g id="Node000001" class="node">
<title>Node1</title>
<g id="a_Node000001"><a xlink:title="Parse command&#45;line arguments and create execution context.">
<polygon fill="#999999" stroke="#666666" points="359,-38 229,-38 229,-19 359,-19 359,-38"/>
<text text-anchor="middle" x="294" y="-26" font-family="Helvetica,sans-Serif" font-size="10.00">CommandParser::parse</text>
</a>
</g>
</g>
<!-- Node2 -->
<g id="Node000002" class="node">
<title>Node2</title>
<g id="a_Node000002"><a xlink:href="main_8cpp.html#a0ddf1224851353fc92bfbff6f499fa97" target="_top" xlink:title="Main entry point for the Gaussian Extractor application.">
<polygon fill="white" stroke="#666666" points="41,-38 0,-38 0,-19 41,-19 41,-38"/>
<text text-anchor="middle" x="20.5" y="-26" font-family="Helvetica,sans-Serif" font-size="10.00">main</text>
</a>
</g>
</g>
<!-- Node1&#45;&gt;Node2 -->
<g id="edge1_Node000001_Node000002" class="edge">
<title>Node1&#45;&gt;Node2</title>
<g id="a_edge1_Node000001_Node000002"><a xlink:title=" ">
<path fill="none" stroke="#63b8ff" d="M218.42,-28.5C158.19,-28.5 77.65,-28.5 41.06,-28.5"/>
<polygon fill="#63b8ff" stroke="#63b8ff" points="218.66,-32 228.66,-28.5 218.66,-25 218.66,-32"/>
</a>
</g>
</g>
<!-- Node3 -->
<g id="Node000003" class="node">
<title>Node3</title>
<g id="a_Node000003"><a xlink:href="interactive__mode_8cpp.html#a6b615c34054150d837dc45ed1c17b297" target="_top" xlink:title="Enhanced interactive command loop with TAB completion for Windows.">
<polygon fill="white" stroke="#666666" points="193,-19 77,-19 77,0 193,0 193,-19"/>
<text text-anchor="middle" x="135" y="-7" font-family="Helvetica,sans-Serif" font-size="10.00">run_interactive_loop</text>
</a>
</g>
</g>
<!-- Node1&#45;&gt;Node3 -->
<g id="edge2_Node000001_Node000003" class="edge">
<title>Node1&#45;&gt;Node3</title>
<g id="a_edge2_Node000001_Node000003"><a xlink:title=" ">
<path fill="none" stroke="#63b8ff" d="M218.75,-19.51C210.24,-18.48 201.66,-17.45 193.41,-16.45"/>
<polygon fill="#63b8ff" stroke="#63b8ff" points="218.34,-22.99 228.69,-20.72 219.18,-16.04 218.34,-22.99"/>
</a>
</g>
</g>
<!-- Node3&#45;&gt;Node2 -->
<g id="edge3_Node000003_Node000002" class="edge">
<title>Node3&#45;&gt;Node2</title>
<g id="a_edge3_Node000003_Node000002"><a xlink:title=" ">
<path fill="none" stroke="#63b8ff" d="M67.4,-20.75C57.88,-22.36 48.77,-23.89 41.22,-25.17"/>
<polygon fill="#63b8ff" stroke="#63b8ff" points="68.14,-24.17 77.42,-19.06 66.98,-17.27 68.14,-24.17"/>
</a>
</g>
</g>
</g>
</svg>
