<?xml version="1.0" encoding="UTF-8" standalone="no"?>
<!DOCTYPE svg PUBLIC "-//W3C//DTD SVG 1.1//EN"
 "http://www.w3.org/Graphics/SVG/1.1/DTD/svg11.dtd">
<!-- Generated by graphviz version 2.43.0 (0)
 -->
<!-- Title: JobSchedulerDetector::get_scheduler_type Pages: 1 -->
<svg width="884pt" height="119pt"
 viewBox="0.00 0.00 884.00 118.50" xmlns="http://www.w3.org/2000/svg" xmlns:xlink="http://www.w3.org/1999/xlink">
<g id="graph0" class="graph" transform="scale(1 1) rotate(0) translate(4 114.5)">
<title>JobSchedulerDetector::get_scheduler_type</title>
<!-- Node1 -->
<g id="Node000001" class="node">
<title>Node1</title>
<g id="a_Node000001"><a xlink:title="Identify the type of job scheduler currently active.">
<polygon fill="#999999" stroke="#666666" points="876,-54 754,-54 754,-24 876,-24 876,-54"/>
<text text-anchor="start" x="762" y="-42" font-family="Helvetica,sans-Serif" font-size="10.00">JobSchedulerDetector</text>
<text text-anchor="middle" x="815" y="-31" font-family="Helvetica,sans-Serif" font-size="10.00">::get_scheduler_type</text>
</a>
</g>
</g>
<!-- Node2 -->
<g id="Node000002" class="node">
<title>Node2</title>
<g id="a_Node000002"><a xlink:href="group__DetectionMethods.html#ga3e3cf834277c608e8557f70acba55430" target="_top" xlink:title="Detect current job scheduler and extract complete resource information.">
<polygon fill="white" stroke="#666666" points="718,-78 592,-78 592,-48 718,-48 718,-78"/>
<text text-anchor="start" x="600" y="-66" font-family="Helvetica,sans-Serif" font-size="10.00">JobSchedulerDetector</text>
<text text-anchor="middle" x="655" y="-55" font-family="Helvetica,sans-Serif" font-size="10.00">::detect_job_resources</text>
</a>
</g>
</g>
<!-- Node1&#45;&gt;Node2 -->
<g id="edge1_Node000001_Node000002" class="edge">
<title>Node1&#45;&gt;Node2</title>
<g id="a_edge1_Node000001_Node000002"><a xlink:title=" ">
<path fill="none" stroke="#63b8ff" d="M743.84,-49.66C735.27,-50.96 726.56,-52.28 718.11,-53.56"/>
<polygon fill="#63b8ff" stroke="#63b8ff" points="744.46,-53.1 753.82,-48.14 743.4,-46.18 744.46,-53.1"/>
</a>
</g>
</g>
<!-- Node9 -->
<g id="Node000009" class="node">
<title>Node9</title>
<g id="a_Node000009"><a xlink:href="group__UtilityMethods.html#gaea66f51c8128cd96b1655c6b95c46dc3" target="_top" xlink:title="Check if currently running under a job scheduler.">
<polygon fill="white" stroke="#666666" points="716,-30 594,-30 594,0 716,0 716,-30"/>
<text text-anchor="start" x="602" y="-18" font-family="Helvetica,sans-Serif" font-size="10.00">JobSchedulerDetector</text>
<text text-anchor="middle" x="655" y="-7" font-family="Helvetica,sans-Serif" font-size="10.00">::is_running_in_job</text>
</a>
</g>
</g>
<!-- Node1&#45;&gt;Node9 -->
<g id="edge11_Node000001_Node000009" class="edge">
<title>Node1&#45;&gt;Node9</title>
<g id="a_edge11_Node000001_Node000009"><a xlink:title=" ">
<path fill="none" stroke="#63b8ff" d="M743.83,-28.34C734.55,-26.93 725.11,-25.5 716.02,-24.12"/>
<polygon fill="#63b8ff" stroke="#63b8ff" points="743.4,-31.82 753.82,-29.86 744.46,-24.9 743.4,-31.82"/>
</a>
</g>
</g>
<!-- Node3 -->
<g id="Node000003" class="node">
<title>Node3</title>
<g id="a_Node000003"><a xlink:href="group__MemoryMonitorImpl.html#gaba5928690c1d0bacdd79e7a15169d53c" target="_top" xlink:title=" ">
<polygon fill="white" stroke="#666666" points="543,-110.5 427,-110.5 427,-91.5 543,-91.5 543,-110.5"/>
<text text-anchor="middle" x="485" y="-98.5" font-family="Helvetica,sans-Serif" font-size="10.00">getSafeThreadCount</text>
</a>
</g>
</g>
<!-- Node2&#45;&gt;Node3 -->
<g id="edge2_Node000002_Node000003" class="edge">
<title>Node2&#45;&gt;Node3</title>
<g id="a_edge2_Node000002_Node000003"><a xlink:title=" ">
<path fill="none" stroke="#63b8ff" d="M582.1,-79.26C563.72,-83.42 544.54,-87.76 528.2,-91.46"/>
<polygon fill="#63b8ff" stroke="#63b8ff" points="582.94,-82.66 591.92,-77.04 581.39,-75.83 582.94,-82.66"/>
</a>
</g>
</g>
<!-- Node4 -->
<g id="Node000004" class="node">
<title>Node4</title>
<g id="a_Node000004"><a xlink:href="group__CommandExecutors.html#ga2c1ceafe241a0b4e19790bb5d878ed1a" target="_top" xlink:title="Parse command&#45;line arguments and create execution context.">
<polygon fill="white" stroke="#666666" points="368.5,-72.5 238.5,-72.5 238.5,-53.5 368.5,-53.5 368.5,-72.5"/>
<text text-anchor="middle" x="303.5" y="-60.5" font-family="Helvetica,sans-Serif" font-size="10.00">CommandParser::parse</text>
</a>
</g>
</g>
<!-- Node2&#45;&gt;Node4 -->
<g id="edge3_Node000002_Node000004" class="edge">
<title>Node2&#45;&gt;Node4</title>
<g id="a_edge3_Node000002_Node000004"><a xlink:title=" ">
<path fill="none" stroke="#63b8ff" d="M581.7,-63C518.94,-63 428.91,-63 368.66,-63"/>
<polygon fill="#63b8ff" stroke="#63b8ff" points="581.92,-66.5 591.92,-63 581.92,-59.5 581.92,-66.5"/>
</a>
</g>
</g>
<!-- Node7 -->
<g id="Node000007" class="node">
<title>Node7</title>
<g id="a_Node000007"><a xlink:href="group__MemoryMonitorImpl.html#ga2f3e6563006e068b95ebf65b9942ccee" target="_top" xlink:title="Process multiple files and output formatted results.">
<polygon fill="white" stroke="#666666" points="556,-34.5 414,-34.5 414,-15.5 556,-15.5 556,-34.5"/>
<text text-anchor="middle" x="485" y="-22.5" font-family="Helvetica,sans-Serif" font-size="10.00">processAndOutputResults</text>
</a>
</g>
</g>
<!-- Node2&#45;&gt;Node7 -->
<g id="edge7_Node000002_Node000007" class="edge">
<title>Node2&#45;&gt;Node7</title>
<g id="a_edge7_Node000002_Node000007"><a xlink:title=" ">
<path fill="none" stroke="#63b8ff" d="M582.1,-46.74C563.72,-42.58 544.54,-38.24 528.2,-34.54"/>
<polygon fill="#63b8ff" stroke="#63b8ff" points="581.39,-50.17 591.92,-48.96 582.94,-43.34 581.39,-50.17"/>
</a>
</g>
</g>
<!-- Node5 -->
<g id="Node000005" class="node">
<title>Node5</title>
<g id="a_Node000005"><a xlink:href="main_8cpp.html#a0ddf1224851353fc92bfbff6f499fa97" target="_top" xlink:title="Main entry point for the Gaussian Extractor application.">
<polygon fill="white" stroke="#666666" points="41,-53.5 0,-53.5 0,-34.5 41,-34.5 41,-53.5"/>
<text text-anchor="middle" x="20.5" y="-41.5" font-family="Helvetica,sans-Serif" font-size="10.00">main</text>
</a>
</g>
</g>
<!-- Node4&#45;&gt;Node5 -->
<g id="edge4_Node000004_Node000005" class="edge">
<title>Node4&#45;&gt;Node5</title>
<g id="a_edge4_Node000004_Node000005"><a xlink:title=" ">
<path fill="none" stroke="#63b8ff" d="M228.28,-69.1C184.06,-71.23 126.98,-71.32 77,-63 64.74,-60.96 51.56,-56.55 41.13,-52.49"/>
<polygon fill="#63b8ff" stroke="#63b8ff" points="228.57,-72.59 238.37,-68.57 228.2,-65.6 228.57,-72.59"/>
</a>
</g>
</g>
<!-- Node6 -->
<g id="Node000006" class="node">
<title>Node6</title>
<g id="a_Node000006"><a xlink:href="interactive__mode_8cpp.html#a6b615c34054150d837dc45ed1c17b297" target="_top" xlink:title="Enhanced interactive command loop with TAB completion for Windows.">
<polygon fill="white" stroke="#666666" points="193,-53.5 77,-53.5 77,-34.5 193,-34.5 193,-53.5"/>
<text text-anchor="middle" x="135" y="-41.5" font-family="Helvetica,sans-Serif" font-size="10.00">run_interactive_loop</text>
</a>
</g>
</g>
<!-- Node4&#45;&gt;Node6 -->
<g id="edge5_Node000004_Node000006" class="edge">
<title>Node4&#45;&gt;Node6</title>
<g id="a_edge5_Node000004_Node000006"><a xlink:title=" ">
<path fill="none" stroke="#63b8ff" d="M227.94,-54.49C216.26,-53.16 204.35,-51.8 193.14,-50.52"/>
<polygon fill="#63b8ff" stroke="#63b8ff" points="227.79,-58 238.13,-55.65 228.59,-51.04 227.79,-58"/>
</a>
</g>
</g>
<!-- Node6&#45;&gt;Node5 -->
<g id="edge6_Node000006_Node000005" class="edge">
<title>Node6&#45;&gt;Node5</title>
<g id="a_edge6_Node000006_Node000005"><a xlink:title=" ">
<path fill="none" stroke="#63b8ff" d="M66.62,-44C57.37,-44 48.55,-44 41.19,-44"/>
<polygon fill="#63b8ff" stroke="#63b8ff" points="66.76,-47.5 76.76,-44 66.76,-40.5 66.76,-47.5"/>
</a>
</g>
</g>
<!-- Node8 -->
<g id="Node000008" class="node">
<title>Node8</title>
<g id="a_Node000008"><a xlink:href="group__ModuleExecutors.html#gaa356f7897fc875da426df1cf3c9c5b99" target="_top" xlink:title=" ">
<polygon fill="white" stroke="#666666" points="378,-34.5 229,-34.5 229,-15.5 378,-15.5 378,-34.5"/>
<text text-anchor="middle" x="303.5" y="-22.5" font-family="Helvetica,sans-Serif" font-size="10.00">execute_extract_command</text>
</a>
</g>
</g>
<!-- Node7&#45;&gt;Node8 -->
<g id="edge8_Node000007_Node000008" class="edge">
<title>Node7&#45;&gt;Node8</title>
<g id="a_edge8_Node000007_Node000008"><a xlink:title=" ">
<path fill="none" stroke="#63b8ff" d="M403.59,-25C395.13,-25 386.55,-25 378.17,-25"/>
<polygon fill="#63b8ff" stroke="#63b8ff" points="403.83,-28.5 413.83,-25 403.83,-21.5 403.83,-28.5"/>
</a>
</g>
</g>
<!-- Node8&#45;&gt;Node5 -->
<g id="edge9_Node000008_Node000005" class="edge">
<title>Node8&#45;&gt;Node5</title>
<g id="a_edge9_Node000008_Node000005"><a xlink:title=" ">
<path fill="none" stroke="#63b8ff" d="M218.8,-18.48C176.09,-16.8 123.48,-17.26 77,-25 64.74,-27.04 51.56,-31.45 41.13,-35.51"/>
<polygon fill="#63b8ff" stroke="#63b8ff" points="218.73,-21.98 228.88,-18.93 219.04,-14.99 218.73,-21.98"/>
</a>
</g>
</g>
<!-- Node8&#45;&gt;Node6 -->
<g id="edge10_Node000008_Node000006" class="edge">
<title>Node8&#45;&gt;Node6</title>
<g id="a_edge10_Node000008_Node000006"><a xlink:title=" ">
<path fill="none" stroke="#63b8ff" d="M218.8,-34.55C210.11,-35.54 201.42,-36.53 193.12,-37.48"/>
<polygon fill="#63b8ff" stroke="#63b8ff" points="219.45,-38 228.99,-33.39 218.65,-31.05 219.45,-38"/>
</a>
</g>
</g>
</g>
</svg>
