<?xml version="1.0" encoding="UTF-8" standalone="no"?>
<!DOCTYPE svg PUBLIC "-//W3C//DTD SVG 1.1//EN"
 "http://www.w3.org/Graphics/SVG/1.1/DTD/svg11.dtd">
<!-- Generated by graphviz version 2.43.0 (0)
 -->
<!-- Title: JobSchedulerDetector::detect_slurm_resources Pages: 1 -->
<svg width="470pt" height="182pt"
 viewBox="0.00 0.00 470.00 182.00" xmlns="http://www.w3.org/2000/svg" xmlns:xlink="http://www.w3.org/1999/xlink">
<g id="graph0" class="graph" transform="scale(1 1) rotate(0) translate(4 178)">
<title>JobSchedulerDetector::detect_slurm_resources</title>
<!-- Node1 -->
<g id="Node000001" class="node">
<title>Node1</title>
<g id="a_Node000001"><a xlink:title="Extract resource information from SLURM environment.">
<polygon fill="#999999" stroke="#666666" points="139,-102 0,-102 0,-72 139,-72 139,-102"/>
<text text-anchor="start" x="8" y="-90" font-family="Helvetica,sans-Serif" font-size="10.00">JobSchedulerDetector</text>
<text text-anchor="middle" x="69.5" y="-79" font-family="Helvetica,sans-Serif" font-size="10.00">::detect_slurm_resources</text>
</a>
</g>
</g>
<!-- Node2 -->
<g id="Node000002" class="node">
<title>Node2</title>
<g id="a_Node000002"><a xlink:href="group__EnvironmentHelpers.html#gade9468a3b205731f1aa25d53a32edeca" target="_top" xlink:title="Get long integer environment variable value.">
<polygon fill="white" stroke="#666666" points="300.5,-174 178.5,-174 178.5,-144 300.5,-144 300.5,-174"/>
<text text-anchor="start" x="186.5" y="-162" font-family="Helvetica,sans-Serif" font-size="10.00">JobSchedulerDetector</text>
<text text-anchor="middle" x="239.5" y="-151" font-family="Helvetica,sans-Serif" font-size="10.00">::get_env_long</text>
</a>
</g>
</g>
<!-- Node1&#45;&gt;Node2 -->
<g id="edge1_Node000001_Node000002" class="edge">
<title>Node1&#45;&gt;Node2</title>
<g id="a_edge1_Node000001_Node000002"><a xlink:title=" ">
<path fill="none" stroke="#63b8ff" d="M101.8,-102.07C122.43,-111.82 150.13,-124.6 175,-135 179.15,-136.73 183.47,-138.49 187.82,-140.21"/>
<polygon fill="#63b8ff" stroke="#63b8ff" points="186.76,-143.55 197.35,-143.92 189.3,-137.03 186.76,-143.55"/>
</a>
</g>
</g>
<!-- Node3 -->
<g id="Node000003" class="node">
<title>Node3</title>
<g id="a_Node000003"><a xlink:href="group__EnvironmentHelpers.html#ga462d9065c82e9250768f5fe6cea9929b" target="_top" xlink:title="Get environment variable value with default fallback.">
<polygon fill="white" stroke="#666666" points="300.5,-126 178.5,-126 178.5,-96 300.5,-96 300.5,-126"/>
<text text-anchor="start" x="186.5" y="-114" font-family="Helvetica,sans-Serif" font-size="10.00">JobSchedulerDetector</text>
<text text-anchor="middle" x="239.5" y="-103" font-family="Helvetica,sans-Serif" font-size="10.00">::get_env_var</text>
</a>
</g>
</g>
<!-- Node1&#45;&gt;Node3 -->
<g id="edge2_Node000001_Node000003" class="edge">
<title>Node1&#45;&gt;Node3</title>
<g id="a_edge2_Node000001_Node000003"><a xlink:title=" ">
<path fill="none" stroke="#63b8ff" d="M139.32,-96.83C148.93,-98.2 158.83,-99.62 168.47,-101"/>
<polygon fill="#63b8ff" stroke="#63b8ff" points="168,-104.46 178.4,-102.41 168.99,-97.53 168,-104.46"/>
</a>
</g>
</g>
<!-- Node4 -->
<g id="Node000004" class="node">
<title>Node4</title>
<g id="a_Node000004"><a xlink:href="group__PrivateParsers.html#ga37457b3648093985d27e8e01069d3162" target="_top" xlink:title="Parse CPU list specification to count.">
<polygon fill="white" stroke="#666666" points="300.5,-78 178.5,-78 178.5,-48 300.5,-48 300.5,-78"/>
<text text-anchor="start" x="186.5" y="-66" font-family="Helvetica,sans-Serif" font-size="10.00">JobSchedulerDetector</text>
<text text-anchor="middle" x="239.5" y="-55" font-family="Helvetica,sans-Serif" font-size="10.00">::parse_cpu_list</text>
</a>
</g>
</g>
<!-- Node1&#45;&gt;Node4 -->
<g id="edge3_Node000001_Node000004" class="edge">
<title>Node1&#45;&gt;Node4</title>
<g id="a_edge3_Node000001_Node000004"><a xlink:title=" ">
<path fill="none" stroke="#63b8ff" d="M139.32,-77.17C148.93,-75.8 158.83,-74.38 168.47,-73"/>
<polygon fill="#63b8ff" stroke="#63b8ff" points="168.99,-76.47 178.4,-71.59 168,-69.54 168.99,-76.47"/>
</a>
</g>
</g>
<!-- Node6 -->
<g id="Node000006" class="node">
<title>Node6</title>
<g id="a_Node000006"><a xlink:href="group__PrivateParsers.html#ga5d5c5c72d1fadf00e71c24290a7780df" target="_top" xlink:title="Parse SLURM&#45;specific memory format strings.">
<polygon fill="white" stroke="#666666" points="304,-30 175,-30 175,0 304,0 304,-30"/>
<text text-anchor="start" x="183" y="-18" font-family="Helvetica,sans-Serif" font-size="10.00">JobSchedulerDetector</text>
<text text-anchor="middle" x="239.5" y="-7" font-family="Helvetica,sans-Serif" font-size="10.00">::parse_slurm_memory</text>
</a>
</g>
</g>
<!-- Node1&#45;&gt;Node6 -->
<g id="edge5_Node000001_Node000006" class="edge">
<title>Node1&#45;&gt;Node6</title>
<g id="a_edge5_Node000001_Node000006"><a xlink:title=" ">
<path fill="none" stroke="#63b8ff" d="M101.8,-71.93C122.43,-62.18 150.13,-49.4 175,-39 179.15,-37.27 183.47,-35.51 187.82,-33.79"/>
<polygon fill="#63b8ff" stroke="#63b8ff" points="189.3,-36.97 197.35,-30.08 186.76,-30.45 189.3,-36.97"/>
</a>
</g>
</g>
<!-- Node5 -->
<g id="Node000005" class="node">
<title>Node5</title>
<g id="a_Node000005"><a xlink:href="group__PrivateParsers.html#gaa8c311f7460c6345a998c3480d995ec8" target="_top" xlink:title="Parse CPU range specification to count.">
<polygon fill="white" stroke="#666666" points="462,-78 340,-78 340,-48 462,-48 462,-78"/>
<text text-anchor="start" x="348" y="-66" font-family="Helvetica,sans-Serif" font-size="10.00">JobSchedulerDetector</text>
<text text-anchor="middle" x="401" y="-55" font-family="Helvetica,sans-Serif" font-size="10.00">::parse_cpu_range</text>
</a>
</g>
</g>
<!-- Node4&#45;&gt;Node5 -->
<g id="edge4_Node000004_Node000005" class="edge">
<title>Node4&#45;&gt;Node5</title>
<g id="a_edge4_Node000004_Node000005"><a xlink:title=" ">
<path fill="none" stroke="#63b8ff" d="M300.8,-63C310.29,-63 320.18,-63 329.87,-63"/>
<polygon fill="#63b8ff" stroke="#63b8ff" points="329.88,-66.5 339.88,-63 329.88,-59.5 329.88,-66.5"/>
</a>
</g>
</g>
</g>
</svg>
