<?xml version="1.0" encoding="UTF-8" standalone="no"?>
<!DOCTYPE svg PUBLIC "-//W3C//DTD SVG 1.1//EN"
 "http://www.w3.org/Graphics/SVG/1.1/DTD/svg11.dtd">
<!-- Generated by graphviz version 2.43.0 (0)
 -->
<!-- Title: ConfigManager::get_string Pages: 1 -->
<!--zoomable 407 -->

<svg id="main" version="1.1" xmlns="http://www.w3.org/2000/svg" xmlns:xlink="http://www.w3.org/1999/xlink" xml:space="preserve" onload="init(evt)">
<style type="text/css"><![CDATA[
.node, .edge {opacity: 0.7;}
.node.selected, .edge.selected {opacity: 1;}
.edge:hover path { stroke: red; }
.edge:hover polygon { stroke: red; fill: red; }
]]></style>

<defs>
  <circle id="rim" cx="0" cy="0" r="7"/>
  <circle id="rim2" cx="0" cy="0" r="3.5"/>
  <g id="zoomPlus">
    <use xlink:href="#rim" fill="#404040"><set attributeName="fill" to="#808080" begin="zoomplus.mouseover" end="zoomplus.mouseout"/></use>
    <path d="M-4,0h8M0,-4v8" fill="none" stroke="white" stroke-width="1.5" pointer-events="none"/>
  </g>
  <g id="zoomMin">
    <use xlink:href="#rim" fill="#404040"><set attributeName="fill" to="#808080" begin="zoomminus.mouseover" end="zoomminus.mouseout"/></use>
    <path d="M-4,0h8" fill="none" stroke="white" stroke-width="1.5" pointer-events="none"/>
  </g>
  <g id="arrowUp" transform="translate(30 24)">
    <use xlink:href="#rim"/>
    <path pointer-events="none" fill="none" stroke="white" stroke-width="1.5" d="M0,-3.0v7 M-2.5,-0.5L0,-3.0L2.5,-0.5"/>
  </g>
  <g id="arrowRight" transform="rotate(90) translate(36 -43)">
    <use xlink:href="#rim"/>
    <path pointer-events="none" fill="none" stroke="white" stroke-width="1.5" d="M0,-3.0v7 M-2.5,-0.5L0,-3.0L2.5,-0.5"/>
  </g>
  <g id="arrowDown" transform="rotate(180) translate(-30 -48)">
    <use xlink:href="#rim"/>
    <path pointer-events="none" fill="none" stroke="white" stroke-width="1.5" d="M0,-3.0v7 M-2.5,-0.5L0,-3.0L2.5,-0.5"/>
  </g>
  <g id="arrowLeft" transform="rotate(270) translate(-36 17)">
    <use xlink:href="#rim"/>
    <path pointer-events="none" fill="none" stroke="white" stroke-width="1.5" d="M0,-3.0v7 M-2.5,-0.5L0,-3.0L2.5,-0.5"/>
  </g>
  <g id="resetDef">
    <use xlink:href="#rim2" fill="#404040"><set attributeName="fill" to="#808080" begin="reset.mouseover" end="reset.mouseout"/></use>
  </g>
</defs>
<script type="application/ecmascript">
var viewWidth = 1222;
var viewHeight = 407;
var sectionId = 'dynsection-9';
</script>
<script type="application/ecmascript" xlink:href="svg.min.js"/>
<svg id="graph" class="graph">
<g id="viewport">
<title>ConfigManager::get_string</title>
<!-- Node1 -->
<g id="Node000001" class="node">
<title>Node1</title>
<g id="a_Node000001"><a xlink:title="Get string configuration value.">
<polygon fill="#999999" stroke="#666666" points="1214,-243 1102,-243 1102,-213 1214,-213 1214,-243"/>
<text text-anchor="start" x="1110" y="-231" font-family="Helvetica,sans-Serif" font-size="10.00">ConfigManager::get</text>
<text text-anchor="middle" x="1158" y="-220" font-family="Helvetica,sans-Serif" font-size="10.00">_string</text>
</a>
</g>
</g>
<!-- Node2 -->
<g id="Node000002" class="node">
<title>Node2</title>
<g id="a_Node000002"><a xlink:href="group__CommandExecutors.html#ga9fcc8aa9bb1408d529764d3767029d02" target="_top" xlink:title="Apply configuration values to command context.">
<polygon fill="white" stroke="#666666" points="879,-356 749,-356 749,-326 879,-326 879,-356"/>
<text text-anchor="start" x="757" y="-344" font-family="Helvetica,sans-Serif" font-size="10.00">CommandParser::apply</text>
<text text-anchor="middle" x="814" y="-333" font-family="Helvetica,sans-Serif" font-size="10.00">_config_to_context</text>
</a>
</g>
</g>
<!-- Node1&#45;&gt;Node2 -->
<g id="edge1_Node000001_Node000002" class="edge">
<title>Node1&#45;&gt;Node2</title>
<g id="a_edge1_Node000001_Node000002"><a xlink:title=" ">
<path fill="none" stroke="#63b8ff" d="M1141.76,-251.69C1125.85,-274.15 1098.68,-306.67 1066,-322 1007.15,-349.6 931.94,-351.54 879.26,-348.33"/>
<polygon fill="#63b8ff" stroke="#63b8ff" points="1144.72,-253.57 1147.49,-243.34 1138.95,-249.61 1144.72,-253.57"/>
</a>
</g>
</g>
<!-- Node6 -->
<g id="Node000006" class="node">
<title>Node6</title>
<g id="a_Node000006"><a xlink:href="group__ConfigConvenience.html#gae28d853524e420d325492f3997fbf259" target="_top" xlink:title="Get default output file extension.">
<polygon fill="white" stroke="#666666" points="1066,-313 920,-313 920,-283 1066,-283 1066,-313"/>
<text text-anchor="start" x="928" y="-301" font-family="Helvetica,sans-Serif" font-size="10.00">ConfigManager::get</text>
<text text-anchor="middle" x="993" y="-290" font-family="Helvetica,sans-Serif" font-size="10.00">_default_output_extension</text>
</a>
</g>
</g>
<!-- Node1&#45;&gt;Node6 -->
<g id="edge6_Node000001_Node000006" class="edge">
<title>Node1&#45;&gt;Node6</title>
<g id="a_edge6_Node000001_Node000006"><a xlink:title=" ">
<path fill="none" stroke="#63b8ff" d="M1120.39,-248.05C1104.01,-256.61 1084.3,-266.37 1066,-274 1058.46,-277.14 1050.35,-280.17 1042.39,-282.96"/>
<polygon fill="#63b8ff" stroke="#63b8ff" points="1122.41,-250.94 1129.62,-243.17 1119.14,-244.75 1122.41,-250.94"/>
</a>
</g>
</g>
<!-- Node8 -->
<g id="Node000008" class="node">
<title>Node8</title>
<g id="a_Node000008"><a xlink:href="group__ConfigConvenience.html#gaa74e0721316147bd09fd46f319dc92ab" target="_top" xlink:title="Get default output format.">
<polygon fill="white" stroke="#666666" points="1058.5,-399 927.5,-399 927.5,-369 1058.5,-369 1058.5,-399"/>
<text text-anchor="start" x="935.5" y="-387" font-family="Helvetica,sans-Serif" font-size="10.00">ConfigManager::get</text>
<text text-anchor="middle" x="993" y="-376" font-family="Helvetica,sans-Serif" font-size="10.00">_default_output_format</text>
</a>
</g>
</g>
<!-- Node1&#45;&gt;Node8 -->
<g id="edge10_Node000001_Node000008" class="edge">
<title>Node1&#45;&gt;Node8</title>
<g id="a_edge10_Node000001_Node000008"><a xlink:title=" ">
<path fill="none" stroke="#63b8ff" d="M1145.12,-252.19C1130.18,-280.37 1102.06,-326.67 1066,-355 1059.01,-360.5 1050.83,-365.08 1042.55,-368.87"/>
<polygon fill="#63b8ff" stroke="#63b8ff" points="1148.37,-253.53 1149.85,-243.04 1142.15,-250.31 1148.37,-253.53"/>
</a>
</g>
</g>
<!-- Node9 -->
<g id="Node000009" class="node">
<title>Node9</title>
<g id="a_Node000009"><a xlink:href="group__ConfigConvenience.html#gac68ef6a3a6b456a87d338f9be7b6363c" target="_top" xlink:title="Get default number of processing threads.">
<polygon fill="white" stroke="#666666" points="1049,-265 937,-265 937,-235 1049,-235 1049,-265"/>
<text text-anchor="start" x="945" y="-253" font-family="Helvetica,sans-Serif" font-size="10.00">ConfigManager::get</text>
<text text-anchor="middle" x="993" y="-242" font-family="Helvetica,sans-Serif" font-size="10.00">_default_threads</text>
</a>
</g>
</g>
<!-- Node1&#45;&gt;Node9 -->
<g id="edge12_Node000001_Node000009" class="edge">
<title>Node1&#45;&gt;Node9</title>
<g id="a_edge12_Node000001_Node000009"><a xlink:title=" ">
<path fill="none" stroke="#63b8ff" d="M1091.69,-236.82C1077.58,-238.72 1062.8,-240.71 1049.13,-242.56"/>
<polygon fill="#63b8ff" stroke="#63b8ff" points="1092.37,-240.25 1101.82,-235.45 1091.44,-233.32 1092.37,-240.25"/>
</a>
</g>
</g>
<!-- Node11 -->
<g id="Node000011" class="node">
<title>Node11</title>
<g id="a_Node000011"><a xlink:href="group__ConfigExtensions.html#ga3fd3f42f724661c7ea72845729e0141f" target="_top" xlink:title="Get list of supported input file extensions.">
<polygon fill="white" stroke="#666666" points="1049,-129 937,-129 937,-99 1049,-99 1049,-129"/>
<text text-anchor="start" x="945" y="-117" font-family="Helvetica,sans-Serif" font-size="10.00">ConfigManager::get</text>
<text text-anchor="middle" x="993" y="-106" font-family="Helvetica,sans-Serif" font-size="10.00">_input_extensions</text>
</a>
</g>
</g>
<!-- Node1&#45;&gt;Node11 -->
<g id="edge17_Node000001_Node000011" class="edge">
<title>Node1&#45;&gt;Node11</title>
<g id="a_edge17_Node000001_Node000011"><a xlink:title=" ">
<path fill="none" stroke="#63b8ff" d="M1138.27,-205.08C1121.2,-185.48 1094.39,-157.71 1066,-140 1059.35,-135.85 1051.94,-132.23 1044.47,-129.12"/>
<polygon fill="#63b8ff" stroke="#63b8ff" points="1135.81,-207.59 1144.96,-212.93 1141.13,-203.05 1135.81,-207.59"/>
</a>
</g>
</g>
<!-- Node18 -->
<g id="Node000018" class="node">
<title>Node18</title>
<g id="a_Node000018"><a xlink:href="group__ConfigExtensions.html#ga6eda0c86fa8ce71b9fa05b7a1c306597" target="_top" xlink:title="Get list of supported output file extensions.">
<polygon fill="white" stroke="#666666" points="1049,-55 937,-55 937,-25 1049,-25 1049,-55"/>
<text text-anchor="start" x="945" y="-43" font-family="Helvetica,sans-Serif" font-size="10.00">ConfigManager::get</text>
<text text-anchor="middle" x="993" y="-32" font-family="Helvetica,sans-Serif" font-size="10.00">_output_extensions</text>
</a>
</g>
</g>
<!-- Node1&#45;&gt;Node18 -->
<g id="edge24_Node000001_Node000018" class="edge">
<title>Node1&#45;&gt;Node18</title>
<g id="a_edge24_Node000001_Node000018"><a xlink:title=" ">
<path fill="none" stroke="#63b8ff" d="M1144.82,-203.92C1129.27,-174.72 1100.22,-125.05 1066,-90 1052.71,-76.39 1035.23,-64.15 1020.83,-55.19"/>
<polygon fill="#63b8ff" stroke="#63b8ff" points="1141.83,-205.76 1149.57,-212.99 1148.03,-202.51 1141.83,-205.76"/>
</a>
</g>
</g>
<!-- Node20 -->
<g id="Node000020" class="node">
<title>Node20</title>
<g id="a_Node000020"><a xlink:href="group__ConfigValidation.html#ga3b0a3320c46ed448da49cea015ea4b31" target="_top" xlink:title="Validate all configuration values for correctness and consistency.">
<polygon fill="white" stroke="#666666" points="882,-222 746,-222 746,-192 882,-192 882,-222"/>
<text text-anchor="start" x="754" y="-210" font-family="Helvetica,sans-Serif" font-size="10.00">ConfigManager::validate</text>
<text text-anchor="middle" x="814" y="-199" font-family="Helvetica,sans-Serif" font-size="10.00">_config</text>
</a>
</g>
</g>
<!-- Node1&#45;&gt;Node20 -->
<g id="edge26_Node000001_Node000020" class="edge">
<title>Node1&#45;&gt;Node20</title>
<g id="a_edge26_Node000001_Node000020"><a xlink:title=" ">
<path fill="none" stroke="#63b8ff" d="M1091.55,-223.98C1031.5,-220.29 942.93,-214.86 882.3,-211.13"/>
<polygon fill="#63b8ff" stroke="#63b8ff" points="1091.48,-227.48 1101.67,-224.6 1091.91,-220.5 1091.48,-227.48"/>
</a>
</g>
</g>
<!-- Node24 -->
<g id="Node000024" class="node">
<title>Node24</title>
<g id="a_Node000024"><a xlink:href="group__ConfigValidation.html#gac6254d405c53ed8f433ab6d2785c0a90" target="_top" xlink:title="Validate file extension configuration values.">
<polygon fill="white" stroke="#666666" points="1061,-179 925,-179 925,-149 1061,-149 1061,-179"/>
<text text-anchor="start" x="933" y="-167" font-family="Helvetica,sans-Serif" font-size="10.00">ConfigManager::validate</text>
<text text-anchor="middle" x="993" y="-156" font-family="Helvetica,sans-Serif" font-size="10.00">_file_extensions</text>
</a>
</g>
</g>
<!-- Node1&#45;&gt;Node24 -->
<g id="edge32_Node000001_Node000024" class="edge">
<title>Node1&#45;&gt;Node24</title>
<g id="a_edge32_Node000001_Node000024"><a xlink:title=" ">
<path fill="none" stroke="#63b8ff" d="M1109.3,-209.27C1084.77,-199.64 1055.28,-188.06 1032.26,-179.02"/>
<polygon fill="#63b8ff" stroke="#63b8ff" points="1108.2,-212.6 1118.78,-212.99 1110.75,-206.08 1108.2,-212.6"/>
</a>
</g>
</g>
<!-- Node3 -->
<g id="Node000003" class="node">
<title>Node3</title>
<g id="a_Node000003"><a xlink:href="group__CommandExecutors.html#ga2c1ceafe241a0b4e19790bb5d878ed1a" target="_top" xlink:title="Parse command&#45;line arguments and create execution context.">
<polygon fill="white" stroke="#666666" points="359,-265.5 229,-265.5 229,-246.5 359,-246.5 359,-265.5"/>
<text text-anchor="middle" x="294" y="-253.5" font-family="Helvetica,sans-Serif" font-size="10.00">CommandParser::parse</text>
</a>
</g>
</g>
<!-- Node2&#45;&gt;Node3 -->
<g id="edge2_Node000002_Node000003" class="edge">
<title>Node2&#45;&gt;Node3</title>
<g id="a_edge2_Node000002_Node000003"><a xlink:title=" ">
<path fill="none" stroke="#63b8ff" d="M738.86,-340.76C654.32,-338.87 512.6,-330.8 395,-300 364.54,-292.02 331.54,-275.89 312.09,-265.53"/>
<polygon fill="#63b8ff" stroke="#63b8ff" points="738.81,-344.26 748.88,-340.96 738.95,-337.26 738.81,-344.26"/>
</a>
</g>
</g>
<!-- Node4 -->
<g id="Node000004" class="node">
<title>Node4</title>
<g id="a_Node000004"><a xlink:href="main_8cpp.html#a0ddf1224851353fc92bfbff6f499fa97" target="_top" xlink:title="Main entry point for the Gaussian Extractor application.">
<polygon fill="white" stroke="#666666" points="41,-227.5 0,-227.5 0,-208.5 41,-208.5 41,-227.5"/>
<text text-anchor="middle" x="20.5" y="-215.5" font-family="Helvetica,sans-Serif" font-size="10.00">main</text>
</a>
</g>
</g>
<!-- Node3&#45;&gt;Node4 -->
<g id="edge3_Node000003_Node000004" class="edge">
<title>Node3&#45;&gt;Node4</title>
<g id="a_edge3_Node000003_Node000004"><a xlink:title=" ">
<path fill="none" stroke="#63b8ff" d="M233.51,-244.67C220.2,-242.31 206.14,-239.95 193,-238 138.14,-229.87 73.01,-223.05 41.1,-219.89"/>
<polygon fill="#63b8ff" stroke="#63b8ff" points="233.05,-248.14 243.51,-246.46 234.28,-241.25 233.05,-248.14"/>
</a>
</g>
</g>
<!-- Node5 -->
<g id="Node000005" class="node">
<title>Node5</title>
<g id="a_Node000005"><a xlink:href="interactive__mode_8cpp.html#a6b615c34054150d837dc45ed1c17b297" target="_top" xlink:title="Enhanced interactive command loop with TAB completion for Windows.">
<polygon fill="white" stroke="#666666" points="193,-265.5 77,-265.5 77,-246.5 193,-246.5 193,-265.5"/>
<text text-anchor="middle" x="135" y="-253.5" font-family="Helvetica,sans-Serif" font-size="10.00">run_interactive_loop</text>
</a>
</g>
</g>
<!-- Node3&#45;&gt;Node5 -->
<g id="edge4_Node000003_Node000005" class="edge">
<title>Node3&#45;&gt;Node5</title>
<g id="a_edge4_Node000003_Node000005"><a xlink:title=" ">
<path fill="none" stroke="#63b8ff" d="M218.47,-256C210.05,-256 201.57,-256 193.41,-256"/>
<polygon fill="#63b8ff" stroke="#63b8ff" points="218.69,-259.5 228.69,-256 218.69,-252.5 218.69,-259.5"/>
</a>
</g>
</g>
<!-- Node5&#45;&gt;Node4 -->
<g id="edge5_Node000005_Node000004" class="edge">
<title>Node5&#45;&gt;Node4</title>
<g id="a_edge5_Node000005_Node000004"><a xlink:title=" ">
<path fill="none" stroke="#63b8ff" d="M96,-243.16C77.54,-236.93 56.14,-229.7 41.02,-224.59"/>
<polygon fill="#63b8ff" stroke="#63b8ff" points="95.02,-246.53 105.61,-246.41 97.26,-239.89 95.02,-246.53"/>
</a>
</g>
</g>
<!-- Node6&#45;&gt;Node2 -->
<g id="edge7_Node000006_Node000002" class="edge">
<title>Node6&#45;&gt;Node2</title>
<g id="a_edge7_Node000006_Node000002"><a xlink:title=" ">
<path fill="none" stroke="#63b8ff" d="M920.26,-315.43C905.88,-318.92 890.88,-322.57 876.87,-325.97"/>
<polygon fill="#63b8ff" stroke="#63b8ff" points="921.2,-318.8 930.09,-313.04 919.55,-312 921.2,-318.8"/>
</a>
</g>
</g>
<!-- Node7 -->
<g id="Node000007" class="node">
<title>Node7</title>
<g id="a_Node000007"><a xlink:href="group__CommandExecutors.html#ga92485652a17c4238912fcfb53dca8694" target="_top" xlink:title="Parse options common to all commands.">
<polygon fill="white" stroke="#666666" points="879,-308 749,-308 749,-278 879,-278 879,-308"/>
<text text-anchor="start" x="757" y="-296" font-family="Helvetica,sans-Serif" font-size="10.00">CommandParser::parse</text>
<text text-anchor="middle" x="814" y="-285" font-family="Helvetica,sans-Serif" font-size="10.00">_common_options</text>
</a>
</g>
</g>
<!-- Node6&#45;&gt;Node7 -->
<g id="edge8_Node000006_Node000007" class="edge">
<title>Node6&#45;&gt;Node7</title>
<g id="a_edge8_Node000006_Node000007"><a xlink:title=" ">
<path fill="none" stroke="#63b8ff" d="M909.57,-295.67C899.32,-295.38 888.97,-295.09 879.06,-294.81"/>
<polygon fill="#63b8ff" stroke="#63b8ff" points="909.66,-299.18 919.75,-295.96 909.85,-292.18 909.66,-299.18"/>
</a>
</g>
</g>
<!-- Node7&#45;&gt;Node3 -->
<g id="edge9_Node000007_Node000003" class="edge">
<title>Node7&#45;&gt;Node3</title>
<g id="a_edge9_Node000007_Node000003"><a xlink:title=" ">
<path fill="none" stroke="#63b8ff" d="M738.74,-295.25C654.87,-296.73 514.51,-296.03 395,-280 372.17,-276.94 346.96,-270.87 327.56,-265.6"/>
<polygon fill="#63b8ff" stroke="#63b8ff" points="739,-298.74 748.93,-295.05 738.87,-291.74 739,-298.74"/>
</a>
</g>
</g>
<!-- Node8&#45;&gt;Node2 -->
<g id="edge11_Node000008_Node000002" class="edge">
<title>Node8&#45;&gt;Node2</title>
<g id="a_edge11_Node000008_Node000002"><a xlink:title=" ">
<path fill="none" stroke="#63b8ff" d="M920.26,-366.57C905.88,-363.08 890.88,-359.43 876.87,-356.03"/>
<polygon fill="#63b8ff" stroke="#63b8ff" points="919.55,-370 930.09,-368.96 921.2,-363.2 919.55,-370"/>
</a>
</g>
</g>
<!-- Node9&#45;&gt;Node2 -->
<g id="edge13_Node000009_Node000002" class="edge">
<title>Node9&#45;&gt;Node2</title>
<g id="a_edge13_Node000009_Node000002"><a xlink:title=" ">
<path fill="none" stroke="#63b8ff" d="M927.95,-269.17C925.2,-270.67 922.53,-272.28 920,-274 899.4,-288.03 904.51,-302.84 884,-317 879.09,-320.39 873.66,-323.34 868.07,-325.9"/>
<polygon fill="#63b8ff" stroke="#63b8ff" points="929.56,-272.28 937,-264.74 926.48,-265.99 929.56,-272.28"/>
</a>
</g>
</g>
<!-- Node9&#45;&gt;Node7 -->
<g id="edge14_Node000009_Node000007" class="edge">
<title>Node9&#45;&gt;Node7</title>
<g id="a_edge14_Node000009_Node000007"><a xlink:title=" ">
<path fill="none" stroke="#63b8ff" d="M926.94,-265.81C910.55,-269.79 893.01,-274.05 876.79,-277.99"/>
<polygon fill="#63b8ff" stroke="#63b8ff" points="928.08,-269.13 936.97,-263.37 926.42,-262.33 928.08,-269.13"/>
</a>
</g>
</g>
<!-- Node10 -->
<g id="Node000010" class="node">
<title>Node10</title>
<g id="a_Node000010"><a xlink:href="group__CommandExecutors.html#ga505ef45f36ca4edcad3ba1e6eabca4e6" target="_top" xlink:title="Validate parsed context for consistency and correctness.">
<polygon fill="white" stroke="#666666" points="538,-271 395,-271 395,-241 538,-241 538,-271"/>
<text text-anchor="start" x="403" y="-259" font-family="Helvetica,sans-Serif" font-size="10.00">CommandParser::validate</text>
<text text-anchor="middle" x="466.5" y="-248" font-family="Helvetica,sans-Serif" font-size="10.00">_context</text>
</a>
</g>
</g>
<!-- Node9&#45;&gt;Node10 -->
<g id="edge15_Node000009_Node000010" class="edge">
<title>Node9&#45;&gt;Node10</title>
<g id="a_edge15_Node000009_Node000010"><a xlink:title=" ">
<path fill="none" stroke="#63b8ff" d="M926.68,-250.75C827.61,-251.88 640.13,-254.03 538.05,-255.19"/>
<polygon fill="#63b8ff" stroke="#63b8ff" points="926.9,-254.25 936.86,-250.63 926.82,-247.25 926.9,-254.25"/>
</a>
</g>
</g>
<!-- Node10&#45;&gt;Node3 -->
<g id="edge16_Node000010_Node000003" class="edge">
<title>Node10&#45;&gt;Node3</title>
<g id="a_edge16_Node000010_Node000003"><a xlink:title=" ">
<path fill="none" stroke="#63b8ff" d="M384.65,-256C376.06,-256 367.42,-256 359.07,-256"/>
<polygon fill="#63b8ff" stroke="#63b8ff" points="384.67,-259.5 394.67,-256 384.67,-252.5 384.67,-259.5"/>
</a>
</g>
</g>
<!-- Node12 -->
<g id="Node000012" class="node">
<title>Node12</title>
<g id="a_Node000012"><a xlink:href="group__FileOperations.html#ga087bdeb612f939d045ab914d35a6b0de" target="_top" xlink:title="Find all files related to a Gaussian calculation.">
<polygon fill="white" stroke="#666666" points="881,-174 747,-174 747,-144 881,-144 881,-174"/>
<text text-anchor="start" x="755" y="-162" font-family="Helvetica,sans-Serif" font-size="10.00">JobChecker::find_related</text>
<text text-anchor="middle" x="814" y="-151" font-family="Helvetica,sans-Serif" font-size="10.00">_files</text>
</a>
</g>
</g>
<!-- Node11&#45;&gt;Node12 -->
<g id="edge18_Node000011_Node000012" class="edge">
<title>Node11&#45;&gt;Node12</title>
<g id="a_edge18_Node000011_Node000012"><a xlink:title=" ">
<path fill="none" stroke="#63b8ff" d="M926.98,-130.53C909.74,-134.91 891.22,-139.62 874.3,-143.92"/>
<polygon fill="#63b8ff" stroke="#63b8ff" points="928.14,-133.85 936.97,-127.99 926.41,-127.06 928.14,-133.85"/>
</a>
</g>
</g>
<!-- Node16 -->
<g id="Node000016" class="node">
<title>Node16</title>
<g id="a_Node000016"><a xlink:href="group__ConfigConvenience.html#gaed7092887403aeace513f176ee36f31d" target="_top" xlink:title="Get default input file extension.">
<polygon fill="white" stroke="#666666" points="884,-126 744,-126 744,-96 884,-96 884,-126"/>
<text text-anchor="start" x="752" y="-114" font-family="Helvetica,sans-Serif" font-size="10.00">ConfigManager::get</text>
<text text-anchor="middle" x="814" y="-103" font-family="Helvetica,sans-Serif" font-size="10.00">_default_input_extension</text>
</a>
</g>
</g>
<!-- Node11&#45;&gt;Node16 -->
<g id="edge22_Node000011_Node000016" class="edge">
<title>Node11&#45;&gt;Node16</title>
<g id="a_edge22_Node000011_Node000016"><a xlink:title=" ">
<path fill="none" stroke="#63b8ff" d="M926.96,-112.9C912.99,-112.66 898.18,-112.41 884.06,-112.17"/>
<polygon fill="#63b8ff" stroke="#63b8ff" points="926.91,-116.4 936.97,-113.07 927.03,-109.4 926.91,-116.4"/>
</a>
</g>
</g>
<!-- Node17 -->
<g id="Node000017" class="node">
<title>Node17</title>
<g id="a_Node000017"><a xlink:href="group__ConfigExtensions.html#ga78a8d16a8cf807b9c75b84a19a3549a9" target="_top" xlink:title="Check if an extension is valid for input files.">
<polygon fill="white" stroke="#666666" points="881,-78 747,-78 747,-48 881,-48 881,-78"/>
<text text-anchor="start" x="755" y="-66" font-family="Helvetica,sans-Serif" font-size="10.00">ConfigManager::is_valid</text>
<text text-anchor="middle" x="814" y="-55" font-family="Helvetica,sans-Serif" font-size="10.00">_input_extension</text>
</a>
</g>
</g>
<!-- Node11&#45;&gt;Node17 -->
<g id="edge23_Node000011_Node000017" class="edge">
<title>Node11&#45;&gt;Node17</title>
<g id="a_edge23_Node000011_Node000017"><a xlink:title=" ">
<path fill="none" stroke="#63b8ff" d="M930.24,-96.2C909.63,-90.27 886.88,-83.71 867.08,-78.01"/>
<polygon fill="#63b8ff" stroke="#63b8ff" points="929.27,-99.57 939.85,-98.97 931.21,-92.84 929.27,-99.57"/>
</a>
</g>
</g>
<!-- Node13 -->
<g id="Node000013" class="node">
<title>Node13</title>
<g id="a_Node000013"><a xlink:href="group__IndependentChecking.html#gaa8965610d902e28ebf4946e0ba1f659d" target="_top" xlink:title="Direct error checking without other status considerations.">
<polygon fill="white" stroke="#666666" points="708,-174 574,-174 574,-144 708,-144 708,-174"/>
<text text-anchor="start" x="582" y="-162" font-family="Helvetica,sans-Serif" font-size="10.00">JobChecker::check_error</text>
<text text-anchor="middle" x="641" y="-151" font-family="Helvetica,sans-Serif" font-size="10.00">_directly</text>
</a>
</g>
</g>
<!-- Node12&#45;&gt;Node13 -->
<g id="edge19_Node000012_Node000013" class="edge">
<title>Node12&#45;&gt;Node13</title>
<g id="a_edge19_Node000012_Node000013"><a xlink:title=" ">
<path fill="none" stroke="#63b8ff" d="M736.67,-159C727.18,-159 717.54,-159 708.22,-159"/>
<polygon fill="#63b8ff" stroke="#63b8ff" points="736.89,-162.5 746.89,-159 736.89,-155.5 736.89,-162.5"/>
</a>
</g>
</g>
<!-- Node14 -->
<g id="Node000014" class="node">
<title>Node14</title>
<g id="a_Node000014"><a xlink:href="group__IndividualChecking.html#gacaf7b75f3c058b5648c894ee21eadf5d" target="_top" xlink:title="Determine the status of a single Gaussian job.">
<polygon fill="white" stroke="#666666" points="703.5,-126 578.5,-126 578.5,-96 703.5,-96 703.5,-126"/>
<text text-anchor="start" x="586.5" y="-114" font-family="Helvetica,sans-Serif" font-size="10.00">JobChecker::check_job</text>
<text text-anchor="middle" x="641" y="-103" font-family="Helvetica,sans-Serif" font-size="10.00">_status</text>
</a>
</g>
</g>
<!-- Node12&#45;&gt;Node14 -->
<g id="edge20_Node000012_Node000014" class="edge">
<title>Node12&#45;&gt;Node14</title>
<g id="a_edge20_Node000012_Node000014"><a xlink:title=" ">
<path fill="none" stroke="#63b8ff" d="M749.63,-141.21C731.81,-136.21 712.62,-130.82 695.45,-126"/>
<polygon fill="#63b8ff" stroke="#63b8ff" points="748.79,-144.61 759.36,-143.94 750.68,-137.87 748.79,-144.61"/>
</a>
</g>
</g>
<!-- Node15 -->
<g id="Node000015" class="node">
<title>Node15</title>
<g id="a_Node000015"><a xlink:href="group__IndependentChecking.html#gacfdc4123589e37c388a139841e0860e8" target="_top" xlink:title="Direct PCM failure checking without other status considerations.">
<polygon fill="white" stroke="#666666" points="706.5,-78 575.5,-78 575.5,-48 706.5,-48 706.5,-78"/>
<text text-anchor="start" x="583.5" y="-66" font-family="Helvetica,sans-Serif" font-size="10.00">JobChecker::check_pcm</text>
<text text-anchor="middle" x="641" y="-55" font-family="Helvetica,sans-Serif" font-size="10.00">_directly</text>
</a>
</g>
</g>
<!-- Node12&#45;&gt;Node15 -->
<g id="edge21_Node000012_Node000015" class="edge">
<title>Node12&#45;&gt;Node15</title>
<g id="a_edge21_Node000012_Node000015"><a xlink:title=" ">
<path fill="none" stroke="#63b8ff" d="M750.46,-139.26C748.22,-137.92 746.06,-136.51 744,-135 722.47,-119.27 729.42,-102.88 708,-87 703.4,-83.59 698.26,-80.62 692.94,-78.05"/>
<polygon fill="#63b8ff" stroke="#63b8ff" points="748.92,-142.4 759.39,-143.99 752.2,-136.22 748.92,-142.4"/>
</a>
</g>
</g>
<!-- Node19 -->
<g id="Node000019" class="node">
<title>Node19</title>
<g id="a_Node000019"><a xlink:href="group__ConfigExtensions.html#ga7669413b3e9cc5c696382a53a2cf9417" target="_top" xlink:title="Check if an extension is valid for output files.">
<polygon fill="white" stroke="#666666" points="881,-30 747,-30 747,0 881,0 881,-30"/>
<text text-anchor="start" x="755" y="-18" font-family="Helvetica,sans-Serif" font-size="10.00">ConfigManager::is_valid</text>
<text text-anchor="middle" x="814" y="-7" font-family="Helvetica,sans-Serif" font-size="10.00">_output_extension</text>
</a>
</g>
</g>
<!-- Node18&#45;&gt;Node19 -->
<g id="edge25_Node000018_Node000019" class="edge">
<title>Node18&#45;&gt;Node19</title>
<g id="a_edge25_Node000018_Node000019"><a xlink:title=" ">
<path fill="none" stroke="#63b8ff" d="M926.84,-30.8C911.95,-28.69 896.12,-26.46 881.2,-24.35"/>
<polygon fill="#63b8ff" stroke="#63b8ff" points="926.58,-34.29 936.97,-32.23 927.55,-27.36 926.58,-34.29"/>
</a>
</g>
</g>
<!-- Node21 -->
<g id="Node000021" class="node">
<title>Node21</title>
<g id="a_Node000021"><a xlink:href="group__ConfigLoading.html#gadb55801d91871e98b5c5da2acd289a35" target="_top" xlink:title="Load configuration from file with error handling.">
<polygon fill="white" stroke="#666666" points="699.5,-222 582.5,-222 582.5,-192 699.5,-192 699.5,-222"/>
<text text-anchor="start" x="590.5" y="-210" font-family="Helvetica,sans-Serif" font-size="10.00">ConfigManager::load</text>
<text text-anchor="middle" x="641" y="-199" font-family="Helvetica,sans-Serif" font-size="10.00">_config</text>
</a>
</g>
</g>
<!-- Node20&#45;&gt;Node21 -->
<g id="edge27_Node000020_Node000021" class="edge">
<title>Node20&#45;&gt;Node21</title>
<g id="a_edge27_Node000020_Node000021"><a xlink:title=" ">
<path fill="none" stroke="#63b8ff" d="M735.8,-207C723.68,-207 711.34,-207 699.76,-207"/>
<polygon fill="#63b8ff" stroke="#63b8ff" points="735.91,-210.5 745.91,-207 735.91,-203.5 735.91,-210.5"/>
</a>
</g>
</g>
<!-- Node21&#45;&gt;Node4 -->
<g id="edge30_Node000021_Node000004" class="edge">
<title>Node21&#45;&gt;Node4</title>
<g id="a_edge30_Node000021_Node000004"><a xlink:title=" ">
<path fill="none" stroke="#63b8ff" d="M573.89,-189.86C562.02,-187.42 549.7,-185.3 538,-184 345.09,-162.52 110.01,-201.49 41.26,-214.2"/>
<polygon fill="#63b8ff" stroke="#63b8ff" points="573.22,-193.29 583.73,-191.97 574.69,-186.45 573.22,-193.29"/>
</a>
</g>
</g>
<!-- Node22 -->
<g id="Node000022" class="node">
<title>Node22</title>
<g id="a_Node000022"><a xlink:href="group__CommandExecutors.html#ga1389de38a8f4d50be08ded6a0240627f" target="_top" xlink:title="Load and initialize configuration system.">
<polygon fill="white" stroke="#666666" points="528.5,-223 404.5,-223 404.5,-193 528.5,-193 528.5,-223"/>
<text text-anchor="start" x="412.5" y="-211" font-family="Helvetica,sans-Serif" font-size="10.00">CommandParser::load</text>
<text text-anchor="middle" x="466.5" y="-200" font-family="Helvetica,sans-Serif" font-size="10.00">_configuration</text>
</a>
</g>
</g>
<!-- Node21&#45;&gt;Node22 -->
<g id="edge28_Node000021_Node000022" class="edge">
<title>Node21&#45;&gt;Node22</title>
<g id="a_edge28_Node000021_Node000022"><a xlink:title=" ">
<path fill="none" stroke="#63b8ff" d="M571.82,-207.4C557.52,-207.48 542.53,-207.57 528.51,-207.65"/>
<polygon fill="#63b8ff" stroke="#63b8ff" points="572.1,-210.89 582.08,-207.34 572.06,-203.89 572.1,-210.89"/>
</a>
</g>
</g>
<!-- Node23 -->
<g id="Node000023" class="node">
<title>Node23</title>
<g id="a_Node000023"><a xlink:href="group__ConfigLoading.html#gad792b6c3fe11b0bd927622b2e0966bf5" target="_top" xlink:title="Reload configuration from the previously loaded file.">
<polygon fill="white" stroke="#666666" points="530,-137 403,-137 403,-107 530,-107 530,-137"/>
<text text-anchor="start" x="411" y="-125" font-family="Helvetica,sans-Serif" font-size="10.00">ConfigManager::reload</text>
<text text-anchor="middle" x="466.5" y="-114" font-family="Helvetica,sans-Serif" font-size="10.00">_config</text>
</a>
</g>
</g>
<!-- Node21&#45;&gt;Node23 -->
<g id="edge31_Node000021_Node000023" class="edge">
<title>Node21&#45;&gt;Node23</title>
<g id="a_edge31_Node000021_Node000023"><a xlink:title=" ">
<path fill="none" stroke="#63b8ff" d="M582.67,-187.71C579.68,-186.22 576.78,-184.65 574,-183 555.61,-172.04 556.16,-162.34 538,-151 529.58,-145.74 520.05,-141.07 510.77,-137.1"/>
<polygon fill="#63b8ff" stroke="#63b8ff" points="581.24,-190.9 591.79,-191.9 584.16,-184.54 581.24,-190.9"/>
</a>
</g>
</g>
<!-- Node22&#45;&gt;Node3 -->
<g id="edge29_Node000022_Node000003" class="edge">
<title>Node22&#45;&gt;Node3</title>
<g id="a_edge29_Node000022_Node000003"><a xlink:title=" ">
<path fill="none" stroke="#63b8ff" d="M402.29,-225.79C377.45,-232.79 349.92,-240.54 328.97,-246.44"/>
<polygon fill="#63b8ff" stroke="#63b8ff" points="403.34,-229.13 412.02,-223.06 401.45,-222.4 403.34,-229.13"/>
</a>
</g>
</g>
<!-- Node24&#45;&gt;Node20 -->
<g id="edge33_Node000024_Node000020" class="edge">
<title>Node24&#45;&gt;Node20</title>
<g id="a_edge33_Node000024_Node000020"><a xlink:title=" ">
<path fill="none" stroke="#63b8ff" d="M920.26,-181.43C905.88,-184.92 890.88,-188.57 876.87,-191.97"/>
<polygon fill="#63b8ff" stroke="#63b8ff" points="921.2,-184.8 930.09,-179.04 919.55,-178 921.2,-184.8"/>
</a>
</g>
</g>
</g>
</svg>

<g id="navigator" transform="translate(0 0)" fill="#404254">
  <rect fill="#f2f5e9" fill-opacity="0.5" stroke="#606060" stroke-width=".5" x="0" y="0" width="60" height="60"/>
  <use id="zoomplus" xlink:href="#zoomPlus" x="17" y="9" onmousedown="handleZoom(evt,'in')"/>
  <use id="zoomminus" xlink:href="#zoomMin" x="42" y="9" onmousedown="handleZoom(evt,'out')"/>
  <use id="reset" xlink:href="#resetDef" x="30" y="36" onmousedown="handleReset()"/>
   <use id="arrowup" xlink:href="#arrowUp" x="0" y="0" onmousedown="handlePan(0,-1)"/>
  <use id="arrowright" xlink:href="#arrowRight" x="0" y="0" onmousedown="handlePan(1,0)"/>
  <use id="arrowdown" xlink:href="#arrowDown" x="0" y="0" onmousedown="handlePan(0,1)"/>
  <use id="arrowleft" xlink:href="#arrowLeft" x="0" y="0" onmousedown="handlePan(-1,0)"/>
</g>
<svg viewBox="0 0 15 15" width="100%" height="30px" preserveAspectRatio="xMaxYMin meet">
 <g id="arrow_out" transform="scale(0.3 0.3)">
  <a xlink:href="group__ConfigValueGetters_gaa25cec73939b4d9bd7419f553faae0cb_icgraph_org.svg" target="_base">
   <rect id="button" ry="5" rx="5" y="6" x="6" height="38" width="38"
        fill="#f2f5e9" fill-opacity="0.5" stroke="#606060" stroke-width="1.0"/>
   <path id="arrow"
     d="M 11.500037,31.436501 C 11.940474,20.09759 22.043105,11.32322 32.158766,21.979434 L 37.068811,17.246167 C 37.068811,17.246167 37.088388,32 37.088388,32 L 22.160133,31.978069 C 22.160133,31.978069 26.997745,27.140456 26.997745,27.140456 C 18.528582,18.264221 13.291696,25.230495 11.500037,31.436501 z"
     style="fill:#404040;"/>
  </a>
 </g>
</svg>

<style type='text/css'>
<![CDATA[
[data-mouse-over-selected='false'] { opacity: 0.7; }
[data-mouse-over-selected='true']  { opacity: 1.0; }
]]>
</style>
<script type="application/ecmascript"><![CDATA[
document.addEventListener('DOMContentLoaded', (event) => {
  highlightEdges();
  highlightAdjacentNodes();
});
]]></script>
</svg>
