<?xml version="1.0" encoding="UTF-8" standalone="no"?>
<!DOCTYPE svg PUBLIC "-//W3C//DTD SVG 1.1//EN"
 "http://www.w3.org/Graphics/SVG/1.1/DTD/svg11.dtd">
<!-- Generated by graphviz version 2.43.0 (0)
 -->
<!-- Title: HighLevelEnergyCalculator::process_files_worker Pages: 1 -->
<svg width="939pt" height="450pt"
 viewBox="0.00 0.00 939.00 450.00" xmlns="http://www.w3.org/2000/svg" xmlns:xlink="http://www.w3.org/1999/xlink">
<g id="graph0" class="graph" transform="scale(1 1) rotate(0) translate(4 446)">
<title>HighLevelEnergyCalculator::process_files_worker</title>
<!-- Node1 -->
<g id="Node000001" class="node">
<title>Node1</title>
<g id="a_Node000001"><a xlink:title="Worker function for parallel file processing.">
<polygon fill="#999999" stroke="#666666" points="149,-236 0,-236 0,-206 149,-206 149,-236"/>
<text text-anchor="start" x="8" y="-224" font-family="Helvetica,sans-Serif" font-size="10.00">HighLevelEnergyCalculator</text>
<text text-anchor="middle" x="74.5" y="-213" font-family="Helvetica,sans-Serif" font-size="10.00">::process_files_worker</text>
</a>
</g>
</g>
<!-- Node2 -->
<g id="Node000002" class="node">
<title>Node2</title>
<g id="a_Node000002"><a xlink:href="group__MainCalculation.html#gacaba75cc61d8b3ec08efd5976ce4325f" target="_top" xlink:title="Calculate high&#45;level energy for a single file.">
<polygon fill="white" stroke="#666666" points="346,-236 185,-236 185,-206 346,-206 346,-236"/>
<text text-anchor="start" x="193" y="-224" font-family="Helvetica,sans-Serif" font-size="10.00">HighLevelEnergyCalculator</text>
<text text-anchor="middle" x="265.5" y="-213" font-family="Helvetica,sans-Serif" font-size="10.00">::calculate_high_level_energy</text>
</a>
</g>
</g>
<!-- Node1&#45;&gt;Node2 -->
<g id="edge1_Node000001_Node000002" class="edge">
<title>Node1&#45;&gt;Node2</title>
<g id="a_edge1_Node000001_Node000002"><a xlink:title=" ">
<path fill="none" stroke="#63b8ff" d="M149.11,-221C157.53,-221 166.18,-221 174.78,-221"/>
<polygon fill="#63b8ff" stroke="#63b8ff" points="174.83,-224.5 184.83,-221 174.83,-217.5 174.83,-224.5"/>
</a>
</g>
</g>
<!-- Node3 -->
<g id="Node000003" class="node">
<title>Node3</title>
<g id="a_Node000003"><a xlink:href="group__CalculationHelpers.html#ga77837f5437ca34aa38ba7c9518d85480" target="_top" xlink:title="Calculate phase correction for concentration effects.">
<polygon fill="white" stroke="#666666" points="549,-442 394,-442 394,-412 549,-412 549,-442"/>
<text text-anchor="start" x="402" y="-430" font-family="Helvetica,sans-Serif" font-size="10.00">HighLevelEnergyCalculator</text>
<text text-anchor="middle" x="471.5" y="-419" font-family="Helvetica,sans-Serif" font-size="10.00">::calculate_phase_correction</text>
</a>
</g>
</g>
<!-- Node2&#45;&gt;Node3 -->
<g id="edge2_Node000002_Node000003" class="edge">
<title>Node2&#45;&gt;Node3</title>
<g id="a_edge2_Node000002_Node000003"><a xlink:title=" ">
<path fill="none" stroke="#63b8ff" d="M271.72,-236.15C284.6,-271.2 321.29,-358.27 382,-403 383.87,-404.38 385.82,-405.68 387.83,-406.91"/>
<polygon fill="#63b8ff" stroke="#63b8ff" points="386.51,-410.17 396.98,-411.82 389.83,-404.01 386.51,-410.17"/>
</a>
</g>
</g>
<!-- Node4 -->
<g id="Node000004" class="node">
<title>Node4</title>
<g id="a_Node000004"><a xlink:href="group__CalculationHelpers.html#ga375d0ec0aea5fde065c700c0d4ef8a62" target="_top" xlink:title="Calculate thermal correction excluding zero&#45;point energy.">
<polygon fill="white" stroke="#666666" points="546,-394 397,-394 397,-364 546,-364 546,-394"/>
<text text-anchor="start" x="405" y="-382" font-family="Helvetica,sans-Serif" font-size="10.00">HighLevelEnergyCalculator</text>
<text text-anchor="middle" x="471.5" y="-371" font-family="Helvetica,sans-Serif" font-size="10.00">::calculate_thermal_only</text>
</a>
</g>
</g>
<!-- Node2&#45;&gt;Node4 -->
<g id="edge3_Node000002_Node000004" class="edge">
<title>Node2&#45;&gt;Node4</title>
<g id="a_edge3_Node000002_Node000004"><a xlink:title=" ">
<path fill="none" stroke="#63b8ff" d="M275.19,-236.04C292.08,-263.91 332.1,-323.57 382,-355 384.61,-356.64 387.33,-358.18 390.13,-359.61"/>
<polygon fill="#63b8ff" stroke="#63b8ff" points="388.77,-362.83 399.31,-363.82 391.69,-356.47 388.77,-362.83"/>
</a>
</g>
</g>
<!-- Node5 -->
<g id="Node000005" class="node">
<title>Node5</title>
<g id="a_Node000005"><a xlink:href="group__CalculationHelpers.html#ga94758e5fb907b423285c3b2c2ba8ee97" target="_top" xlink:title="Determine job completion status from log file.">
<polygon fill="white" stroke="#666666" points="546,-346 397,-346 397,-316 546,-316 546,-346"/>
<text text-anchor="start" x="405" y="-334" font-family="Helvetica,sans-Serif" font-size="10.00">HighLevelEnergyCalculator</text>
<text text-anchor="middle" x="471.5" y="-323" font-family="Helvetica,sans-Serif" font-size="10.00">::determine_job_status</text>
</a>
</g>
</g>
<!-- Node2&#45;&gt;Node5 -->
<g id="edge4_Node000002_Node000005" class="edge">
<title>Node2&#45;&gt;Node5</title>
<g id="a_edge4_Node000002_Node000005"><a xlink:title=" ">
<path fill="none" stroke="#63b8ff" d="M284.63,-236.29C306.51,-254.11 344.99,-283.47 382,-302 389.77,-305.89 398.19,-309.43 406.62,-312.59"/>
<polygon fill="#63b8ff" stroke="#63b8ff" points="405.54,-315.91 416.13,-315.99 407.9,-309.32 405.54,-315.91"/>
</a>
</g>
</g>
<!-- Node8 -->
<g id="Node000008" class="node">
<title>Node8</title>
<g id="a_Node000008"><a xlink:href="group__EnergyExtraction.html#gaa64c4afe3577a5e147f0c3837d10a021" target="_top" xlink:title="Extract thermal correction data from low&#45;level calculation.">
<polygon fill="white" stroke="#666666" points="561,-212 382,-212 382,-182 561,-182 561,-212"/>
<text text-anchor="start" x="390" y="-200" font-family="Helvetica,sans-Serif" font-size="10.00">HighLevelEnergyCalculator</text>
<text text-anchor="middle" x="471.5" y="-189" font-family="Helvetica,sans-Serif" font-size="10.00">::extract_low_level_thermal_data</text>
</a>
</g>
</g>
<!-- Node2&#45;&gt;Node8 -->
<g id="edge7_Node000002_Node000008" class="edge">
<title>Node2&#45;&gt;Node8</title>
<g id="a_edge7_Node000002_Node000008"><a xlink:title=" ">
<path fill="none" stroke="#63b8ff" d="M346.25,-211.62C354.6,-210.64 363.16,-209.63 371.7,-208.62"/>
<polygon fill="#63b8ff" stroke="#63b8ff" points="372.16,-212.09 381.69,-207.45 371.35,-205.14 372.16,-212.09"/>
</a>
</g>
</g>
<!-- Node9 -->
<g id="Node000009" class="node">
<title>Node9</title>
<g id="a_Node000009"><a xlink:href="group__EnergyExtraction.html#ga42389d55a3f27a4e7f077a16d956b957" target="_top" xlink:title="Extract specific energy value from log file using pattern matching.">
<polygon fill="white" stroke="#666666" points="746,-116 597,-116 597,-86 746,-86 746,-116"/>
<text text-anchor="start" x="605" y="-104" font-family="Helvetica,sans-Serif" font-size="10.00">HighLevelEnergyCalculator</text>
<text text-anchor="middle" x="671.5" y="-93" font-family="Helvetica,sans-Serif" font-size="10.00">::extract_value_from_file</text>
</a>
</g>
</g>
<!-- Node2&#45;&gt;Node9 -->
<g id="edge19_Node000002_Node000009" class="edge">
<title>Node2&#45;&gt;Node9</title>
<g id="a_edge19_Node000002_Node000009"><a xlink:title=" ">
<path fill="none" stroke="#63b8ff" d="M298.27,-205.93C321.15,-195.54 352.97,-182.03 382,-173 459.66,-148.85 482.3,-155.52 561,-135 578.87,-130.34 598.17,-124.59 615.52,-119.15"/>
<polygon fill="#63b8ff" stroke="#63b8ff" points="617.01,-122.36 625.48,-116 614.89,-115.68 617.01,-122.36"/>
</a>
</g>
</g>
<!-- Node14 -->
<g id="Node000014" class="node">
<title>Node14</title>
<g id="a_Node000014"><a xlink:href="group__CalculationHelpers.html#ga32a761d03cac358dbe6d17dccf3c3ec3" target="_top" xlink:title="Extract lowest vibrational frequency from parent file.">
<polygon fill="white" stroke="#666666" points="546,-260 397,-260 397,-230 546,-230 546,-260"/>
<text text-anchor="start" x="405" y="-248" font-family="Helvetica,sans-Serif" font-size="10.00">HighLevelEnergyCalculator</text>
<text text-anchor="middle" x="471.5" y="-237" font-family="Helvetica,sans-Serif" font-size="10.00">::extract_lowest_frequency</text>
</a>
</g>
</g>
<!-- Node2&#45;&gt;Node14 -->
<g id="edge14_Node000002_Node000014" class="edge">
<title>Node2&#45;&gt;Node14</title>
<g id="a_edge14_Node000002_Node000014"><a xlink:title=" ">
<path fill="none" stroke="#63b8ff" d="M346.25,-230.38C359.52,-231.94 373.31,-233.57 386.68,-235.14"/>
<polygon fill="#63b8ff" stroke="#63b8ff" points="386.46,-238.64 396.8,-236.33 387.28,-231.69 386.46,-238.64"/>
</a>
</g>
</g>
<!-- Node17 -->
<g id="Node000017" class="node">
<title>Node17</title>
<g id="a_Node000017"><a xlink:href="group__FileUtilities.html#ga6dd8fb2393bb29704be0e92003989e45" target="_top" xlink:title="Read complete file content.">
<polygon fill="white" stroke="#666666" points="746,-356 597,-356 597,-326 746,-326 746,-356"/>
<text text-anchor="start" x="605" y="-344" font-family="Helvetica,sans-Serif" font-size="10.00">HighLevelEnergyCalculator</text>
<text text-anchor="middle" x="671.5" y="-333" font-family="Helvetica,sans-Serif" font-size="10.00">::read_file_content</text>
</a>
</g>
</g>
<!-- Node2&#45;&gt;Node17 -->
<g id="edge21_Node000002_Node000017" class="edge">
<title>Node2&#45;&gt;Node17</title>
<g id="a_edge21_Node000002_Node000017"><a xlink:title=" ">
<path fill="none" stroke="#63b8ff" d="M298.27,-236.07C321.15,-246.46 352.97,-259.97 382,-269 459.66,-293.15 482.3,-286.48 561,-307 578.87,-311.66 598.17,-317.41 615.52,-322.85"/>
<polygon fill="#63b8ff" stroke="#63b8ff" points="614.89,-326.32 625.48,-326 617.01,-319.64 614.89,-326.32"/>
</a>
</g>
</g>
<!-- Node18 -->
<g id="Node000018" class="node">
<title>Node18</title>
<g id="a_Node000018"><a xlink:href="group__FileUtilities.html#ga181c65f6b55859249f23a68e2f64f4bf" target="_top" xlink:title="Get corresponding parent directory file path.">
<polygon fill="white" stroke="#666666" points="546,-126 397,-126 397,-96 546,-96 546,-126"/>
<text text-anchor="start" x="405" y="-114" font-family="Helvetica,sans-Serif" font-size="10.00">HighLevelEnergyCalculator</text>
<text text-anchor="middle" x="471.5" y="-103" font-family="Helvetica,sans-Serif" font-size="10.00">::get_parent_file</text>
</a>
</g>
</g>
<!-- Node2&#45;&gt;Node18 -->
<g id="edge20_Node000002_Node000018" class="edge">
<title>Node2&#45;&gt;Node18</title>
<g id="a_edge20_Node000002_Node000018"><a xlink:title=" ">
<path fill="none" stroke="#63b8ff" d="M284.63,-205.71C306.51,-187.89 344.99,-158.53 382,-140 389.77,-136.11 398.19,-132.57 406.62,-129.41"/>
<polygon fill="#63b8ff" stroke="#63b8ff" points="407.9,-132.68 416.13,-126.01 405.54,-126.09 407.9,-132.68"/>
</a>
</g>
</g>
<!-- Node19 -->
<g id="Node000019" class="node">
<title>Node19</title>
<g id="a_Node000019"><a xlink:href="group__SafetyHelpers.html#ga1ecdc84dce43277ebe3c068b66d2836a" target="_top" xlink:title="Safe file reading with memory and handle management.">
<polygon fill="white" stroke="#666666" points="546,-78 397,-78 397,-48 546,-48 546,-78"/>
<text text-anchor="start" x="405" y="-66" font-family="Helvetica,sans-Serif" font-size="10.00">HighLevelEnergyCalculator</text>
<text text-anchor="middle" x="471.5" y="-55" font-family="Helvetica,sans-Serif" font-size="10.00">::safe_read_file</text>
</a>
</g>
</g>
<!-- Node2&#45;&gt;Node19 -->
<g id="edge22_Node000002_Node000019" class="edge">
<title>Node2&#45;&gt;Node19</title>
<g id="a_edge22_Node000002_Node000019"><a xlink:title=" ">
<path fill="none" stroke="#63b8ff" d="M275.19,-205.96C292.08,-178.09 332.1,-118.43 382,-87 384.61,-85.36 387.33,-83.82 390.13,-82.39"/>
<polygon fill="#63b8ff" stroke="#63b8ff" points="391.69,-85.53 399.31,-78.18 388.77,-79.17 391.69,-85.53"/>
</a>
</g>
</g>
<!-- Node20 -->
<g id="Node000020" class="node">
<title>Node20</title>
<g id="a_Node000020"><a xlink:href="group__ValidationUtils.html#gabe3d651ced16adc942b77bd92be3116a" target="_top" xlink:title="Validate complete energy data structure for consistency.">
<polygon fill="white" stroke="#666666" points="535.5,-30 407.5,-30 407.5,0 535.5,0 535.5,-30"/>
<text text-anchor="start" x="415.5" y="-18" font-family="Helvetica,sans-Serif" font-size="10.00">HighLevelEnergyUtils</text>
<text text-anchor="middle" x="471.5" y="-7" font-family="Helvetica,sans-Serif" font-size="10.00">::validate_energy_data</text>
</a>
</g>
</g>
<!-- Node2&#45;&gt;Node20 -->
<g id="edge23_Node000002_Node000020" class="edge">
<title>Node2&#45;&gt;Node20</title>
<g id="a_edge23_Node000002_Node000020"><a xlink:title=" ">
<path fill="none" stroke="#63b8ff" d="M271.72,-205.85C284.6,-170.8 321.29,-83.73 382,-39 386.84,-35.43 392.19,-32.39 397.78,-29.81"/>
<polygon fill="#63b8ff" stroke="#63b8ff" points="399.45,-32.9 407.37,-25.86 396.79,-26.43 399.45,-32.9"/>
</a>
</g>
</g>
<!-- Node6 -->
<g id="Node000006" class="node">
<title>Node6</title>
<g id="a_Node000006"><a xlink:href="group__FileUtilities.html#ga013cf7e36016b0531852c469c9bc98b7" target="_top" xlink:title="Read last N lines from file.">
<polygon fill="white" stroke="#666666" points="746,-404 597,-404 597,-374 746,-374 746,-404"/>
<text text-anchor="start" x="605" y="-392" font-family="Helvetica,sans-Serif" font-size="10.00">HighLevelEnergyCalculator</text>
<text text-anchor="middle" x="671.5" y="-381" font-family="Helvetica,sans-Serif" font-size="10.00">::read_file_tail</text>
</a>
</g>
</g>
<!-- Node5&#45;&gt;Node6 -->
<g id="edge5_Node000005_Node000006" class="edge">
<title>Node5&#45;&gt;Node6</title>
<g id="a_edge5_Node000005_Node000006"><a xlink:title=" ">
<path fill="none" stroke="#63b8ff" d="M529.24,-346.06C539.82,-348.96 550.76,-352.02 561,-355 578.18,-359.99 596.79,-365.67 613.71,-370.94"/>
<polygon fill="#63b8ff" stroke="#63b8ff" points="612.86,-374.34 623.45,-373.98 614.95,-367.66 612.86,-374.34"/>
</a>
</g>
</g>
<!-- Node7 -->
<g id="Node000007" class="node">
<title>Node7</title>
<g id="a_Node000007"><a xlink:href="classFileContentCache.html#affecb88aac28ec372fe984ab6ec0279c" target="_top" xlink:title=" ">
<polygon fill="white" stroke="#666666" points="918.5,-356 794.5,-356 794.5,-326 918.5,-326 918.5,-356"/>
<text text-anchor="start" x="802.5" y="-344" font-family="Helvetica,sans-Serif" font-size="10.00">FileContentCache::get</text>
<text text-anchor="middle" x="856.5" y="-333" font-family="Helvetica,sans-Serif" font-size="10.00">_or_read</text>
</a>
</g>
</g>
<!-- Node6&#45;&gt;Node7 -->
<g id="edge6_Node000006_Node000007" class="edge">
<title>Node6&#45;&gt;Node7</title>
<g id="a_edge6_Node000006_Node000007"><a xlink:title=" ">
<path fill="none" stroke="#63b8ff" d="M729.9,-373.94C748.47,-369.07 769.22,-363.63 788.42,-358.59"/>
<polygon fill="#63b8ff" stroke="#63b8ff" points="789.52,-361.93 798.3,-356 787.74,-355.15 789.52,-361.93"/>
</a>
</g>
</g>
<!-- Node8&#45;&gt;Node9 -->
<g id="edge8_Node000008_Node000009" class="edge">
<title>Node8&#45;&gt;Node9</title>
<g id="a_edge8_Node000008_Node000009"><a xlink:title=" ">
<path fill="none" stroke="#63b8ff" d="M533.64,-181.96C543.23,-178.22 552.7,-173.62 561,-168 581.64,-154.03 576.35,-138.96 597,-125 599.27,-123.47 601.64,-122.03 604.09,-120.67"/>
<polygon fill="#63b8ff" stroke="#63b8ff" points="605.81,-123.72 613.21,-116.14 602.7,-117.45 605.81,-123.72"/>
</a>
</g>
</g>
<!-- Node12 -->
<g id="Node000012" class="node">
<title>Node12</title>
<g id="a_Node000012"><a xlink:href="group__FileUtilities.html#gaa54ff385e8b08bff4fc34ec915a3ff8d" target="_top" xlink:title="Check if file exists and is accessible.">
<polygon fill="white" stroke="#666666" points="746,-164 597,-164 597,-134 746,-134 746,-164"/>
<text text-anchor="start" x="605" y="-152" font-family="Helvetica,sans-Serif" font-size="10.00">HighLevelEnergyCalculator</text>
<text text-anchor="middle" x="671.5" y="-141" font-family="Helvetica,sans-Serif" font-size="10.00">::file_exists</text>
</a>
</g>
</g>
<!-- Node8&#45;&gt;Node12 -->
<g id="edge12_Node000008_Node000012" class="edge">
<title>Node8&#45;&gt;Node12</title>
<g id="a_edge12_Node000008_Node000012"><a xlink:title=" ">
<path fill="none" stroke="#63b8ff" d="M534.61,-181.94C554.97,-177.01 577.76,-171.48 598.78,-166.39"/>
<polygon fill="#63b8ff" stroke="#63b8ff" points="599.72,-169.76 608.62,-164 598.07,-162.96 599.72,-169.76"/>
</a>
</g>
</g>
<!-- Node13 -->
<g id="Node000013" class="node">
<title>Node13</title>
<g id="a_Node000013"><a xlink:href="group__ValidationUtils.html#gad41dd357e75a3c0219b5ed3a6b964aa6" target="_top" xlink:title="Validate temperature value for physical reasonableness.">
<polygon fill="white" stroke="#666666" points="735.5,-212 607.5,-212 607.5,-182 735.5,-182 735.5,-212"/>
<text text-anchor="start" x="615.5" y="-200" font-family="Helvetica,sans-Serif" font-size="10.00">HighLevelEnergyUtils</text>
<text text-anchor="middle" x="671.5" y="-189" font-family="Helvetica,sans-Serif" font-size="10.00">::validate_temperature</text>
</a>
</g>
</g>
<!-- Node8&#45;&gt;Node13 -->
<g id="edge13_Node000008_Node000013" class="edge">
<title>Node8&#45;&gt;Node13</title>
<g id="a_edge13_Node000008_Node000013"><a xlink:title=" ">
<path fill="none" stroke="#63b8ff" d="M561.08,-197C573.18,-197 585.5,-197 597.29,-197"/>
<polygon fill="#63b8ff" stroke="#63b8ff" points="597.49,-200.5 607.49,-197 597.49,-193.5 597.49,-200.5"/>
</a>
</g>
</g>
<!-- Node9&#45;&gt;Node7 -->
<g id="edge10_Node000009_Node000007" class="edge">
<title>Node9&#45;&gt;Node7</title>
<g id="a_edge10_Node000009_Node000007"><a xlink:title=" ">
<path fill="none" stroke="#63b8ff" d="M732.83,-116.15C737.56,-118.67 742.03,-121.59 746,-125 806.88,-177.18 837.82,-271.49 849.65,-316.2"/>
<polygon fill="#63b8ff" stroke="#63b8ff" points="846.27,-317.12 852.13,-325.95 853.05,-315.4 846.27,-317.12"/>
</a>
</g>
</g>
<!-- Node10 -->
<g id="Node000010" class="node">
<title>Node10</title>
<g id="a_Node000010"><a xlink:href="structRegexPatterns.html#aeb75344b6b563c17108dbfaf60f486cc" target="_top" xlink:title=" ">
<polygon fill="white" stroke="#666666" points="911,-140 802,-140 802,-110 911,-110 911,-140"/>
<text text-anchor="start" x="810" y="-128" font-family="Helvetica,sans-Serif" font-size="10.00">RegexPatterns::get</text>
<text text-anchor="middle" x="856.5" y="-117" font-family="Helvetica,sans-Serif" font-size="10.00">_instance</text>
</a>
</g>
</g>
<!-- Node9&#45;&gt;Node10 -->
<g id="edge9_Node000009_Node000010" class="edge">
<title>Node9&#45;&gt;Node10</title>
<g id="a_edge9_Node000009_Node000010"><a xlink:title=" ">
<path fill="none" stroke="#63b8ff" d="M746.14,-110.66C761.31,-112.65 777.17,-114.73 791.94,-116.66"/>
<polygon fill="#63b8ff" stroke="#63b8ff" points="791.61,-120.15 801.98,-117.98 792.52,-113.21 791.61,-120.15"/>
</a>
</g>
</g>
<!-- Node11 -->
<g id="Node000011" class="node">
<title>Node11</title>
<g id="a_Node000011"><a xlink:href="group__SafetyHelpers.html#gaf25036f89725288871b9d856ca5f76ba" target="_top" xlink:title="Safe energy value parsing with validation.">
<polygon fill="white" stroke="#666666" points="931,-92 782,-92 782,-62 931,-62 931,-92"/>
<text text-anchor="start" x="790" y="-80" font-family="Helvetica,sans-Serif" font-size="10.00">HighLevelEnergyCalculator</text>
<text text-anchor="middle" x="856.5" y="-69" font-family="Helvetica,sans-Serif" font-size="10.00">::safe_parse_energy</text>
</a>
</g>
</g>
<!-- Node9&#45;&gt;Node11 -->
<g id="edge11_Node000009_Node000011" class="edge">
<title>Node9&#45;&gt;Node11</title>
<g id="a_edge11_Node000009_Node000011"><a xlink:title=" ">
<path fill="none" stroke="#63b8ff" d="M746.14,-91.34C754.57,-90.24 763.2,-89.11 771.74,-87.98"/>
<polygon fill="#63b8ff" stroke="#63b8ff" points="772.25,-91.45 781.71,-86.68 771.34,-84.51 772.25,-91.45"/>
</a>
</g>
</g>
<!-- Node15 -->
<g id="Node000015" class="node">
<title>Node15</title>
<g id="a_Node000015"><a xlink:href="group__EnergyParsingUtils.html#ga95f6c769f275d3b7659d6f379b106b51" target="_top" xlink:title="Extract all vibrational frequencies from log file content.">
<polygon fill="white" stroke="#666666" points="732.5,-260 610.5,-260 610.5,-230 732.5,-230 732.5,-260"/>
<text text-anchor="start" x="618.5" y="-248" font-family="Helvetica,sans-Serif" font-size="10.00">HighLevelEnergyUtils</text>
<text text-anchor="middle" x="671.5" y="-237" font-family="Helvetica,sans-Serif" font-size="10.00">::extract_frequencies</text>
</a>
</g>
</g>
<!-- Node14&#45;&gt;Node15 -->
<g id="edge15_Node000014_Node000015" class="edge">
<title>Node14&#45;&gt;Node15</title>
<g id="a_edge15_Node000014_Node000015"><a xlink:title=" ">
<path fill="none" stroke="#63b8ff" d="M546.23,-245C563.87,-245 582.67,-245 600.16,-245"/>
<polygon fill="#63b8ff" stroke="#63b8ff" points="600.29,-248.5 610.29,-245 600.29,-241.5 600.29,-248.5"/>
</a>
</g>
</g>
<!-- Node16 -->
<g id="Node000016" class="node">
<title>Node16</title>
<g id="a_Node000016"><a xlink:href="group__EnergyParsingUtils.html#gaf1573e500ba7a88a65e5ccf978c00621" target="_top" xlink:title="Find lowest frequency from frequency list.">
<polygon fill="white" stroke="#666666" points="737.5,-308 605.5,-308 605.5,-278 737.5,-278 737.5,-308"/>
<text text-anchor="start" x="613.5" y="-296" font-family="Helvetica,sans-Serif" font-size="10.00">HighLevelEnergyUtils</text>
<text text-anchor="middle" x="671.5" y="-285" font-family="Helvetica,sans-Serif" font-size="10.00">::find_lowest_frequency</text>
</a>
</g>
</g>
<!-- Node14&#45;&gt;Node16 -->
<g id="edge16_Node000014_Node000016" class="edge">
<title>Node14&#45;&gt;Node16</title>
<g id="a_edge16_Node000014_Node000016"><a xlink:title=" ">
<path fill="none" stroke="#63b8ff" d="M534.61,-260.06C554.97,-264.99 577.76,-270.52 598.78,-275.61"/>
<polygon fill="#63b8ff" stroke="#63b8ff" points="598.07,-279.04 608.62,-278 599.72,-272.24 598.07,-279.04"/>
</a>
</g>
</g>
<!-- Node14&#45;&gt;Node17 -->
<g id="edge17_Node000014_Node000017" class="edge">
<title>Node14&#45;&gt;Node17</title>
<g id="a_edge17_Node000014_Node000017"><a xlink:title=" ">
<path fill="none" stroke="#63b8ff" d="M533.64,-260.04C543.23,-263.78 552.7,-268.38 561,-274 581.64,-287.97 576.35,-303.04 597,-317 599.27,-318.53 601.64,-319.97 604.09,-321.33"/>
<polygon fill="#63b8ff" stroke="#63b8ff" points="602.7,-324.55 613.21,-325.86 605.81,-318.28 602.7,-324.55"/>
</a>
</g>
</g>
<!-- Node17&#45;&gt;Node7 -->
<g id="edge18_Node000017_Node000007" class="edge">
<title>Node17&#45;&gt;Node7</title>
<g id="a_edge18_Node000017_Node000007"><a xlink:title=" ">
<path fill="none" stroke="#63b8ff" d="M746.14,-341C758.63,-341 771.59,-341 784.02,-341"/>
<polygon fill="#63b8ff" stroke="#63b8ff" points="784.33,-344.5 794.33,-341 784.33,-337.5 784.33,-344.5"/>
</a>
</g>
</g>
</g>
</svg>
