<?xml version="1.0" encoding="UTF-8" standalone="no"?>
<!DOCTYPE svg PUBLIC "-//W3C//DTD SVG 1.1//EN"
 "http://www.w3.org/Graphics/SVG/1.1/DTD/svg11.dtd">
<!-- Generated by graphviz version 2.43.0 (0)
 -->
<!-- Title: HighLevelEnergyCalculator::print_components_format Pages: 1 -->
<svg width="916pt" height="381pt"
 viewBox="0.00 0.00 916.00 380.50" xmlns="http://www.w3.org/2000/svg" xmlns:xlink="http://www.w3.org/1999/xlink">
<g id="graph0" class="graph" transform="scale(1 1) rotate(0) translate(4 376.5)">
<title>HighLevelEnergyCalculator::print_components_format</title>
<!-- Node1 -->
<g id="Node000001" class="node">
<title>Node1</title>
<g id="a_Node000001"><a xlink:title="Print results with detailed energy component breakdown.">
<polygon fill="#999999" stroke="#666666" points="149,-248 0,-248 0,-218 149,-218 149,-248"/>
<text text-anchor="start" x="8" y="-236" font-family="Helvetica,sans-Serif" font-size="10.00">HighLevelEnergyCalculator</text>
<text text-anchor="middle" x="74.5" y="-225" font-family="Helvetica,sans-Serif" font-size="10.00">::print_components_format</text>
</a>
</g>
</g>
<!-- Node2 -->
<g id="Node000002" class="node">
<title>Node2</title>
<g id="a_Node000002"><a xlink:href="group__DynamicOutputFormatting.html#ga3a4bf6a916d8b341fff654d3f1da54c9" target="_top" xlink:title="Print results in components format with dynamic column widths.">
<polygon fill="white" stroke="#666666" points="334,-253.5 185,-253.5 185,-212.5 334,-212.5 334,-253.5"/>
<text text-anchor="start" x="193" y="-241.5" font-family="Helvetica,sans-Serif" font-size="10.00">HighLevelEnergyCalculator</text>
<text text-anchor="start" x="193" y="-230.5" font-family="Helvetica,sans-Serif" font-size="10.00">::print_components_format</text>
<text text-anchor="middle" x="259.5" y="-219.5" font-family="Helvetica,sans-Serif" font-size="10.00">_dynamic</text>
</a>
</g>
</g>
<!-- Node1&#45;&gt;Node2 -->
<g id="edge1_Node000001_Node000002" class="edge">
<title>Node1&#45;&gt;Node2</title>
<g id="a_edge1_Node000001_Node000002"><a xlink:title=" ">
<path fill="none" stroke="#63b8ff" d="M149.14,-233C157.47,-233 166.01,-233 174.46,-233"/>
<polygon fill="#63b8ff" stroke="#63b8ff" points="174.71,-236.5 184.71,-233 174.71,-229.5 174.71,-236.5"/>
</a>
</g>
</g>
<!-- Node3 -->
<g id="Node000003" class="node">
<title>Node3</title>
<g id="a_Node000003"><a xlink:href="group__DynamicFormatting.html#gad4102d396e74d81a81176b3e66a70142" target="_top" xlink:title="Calculate optimal column widths for components format output.">
<polygon fill="white" stroke="#666666" points="519,-372.5 370,-372.5 370,-331.5 519,-331.5 519,-372.5"/>
<text text-anchor="start" x="378" y="-360.5" font-family="Helvetica,sans-Serif" font-size="10.00">HighLevelEnergyCalculator</text>
<text text-anchor="start" x="378" y="-349.5" font-family="Helvetica,sans-Serif" font-size="10.00">::calculate_components</text>
<text text-anchor="middle" x="444.5" y="-338.5" font-family="Helvetica,sans-Serif" font-size="10.00">_column_widths</text>
</a>
</g>
</g>
<!-- Node2&#45;&gt;Node3 -->
<g id="edge2_Node000002_Node000003" class="edge">
<title>Node2&#45;&gt;Node3</title>
<g id="a_edge2_Node000002_Node000003"><a xlink:title=" ">
<path fill="none" stroke="#63b8ff" d="M284.23,-253.56C305.73,-271.59 338.74,-297.86 370,-317 375.46,-320.34 381.28,-323.6 387.18,-326.69"/>
<polygon fill="#63b8ff" stroke="#63b8ff" points="385.95,-329.99 396.45,-331.41 389.13,-323.75 385.95,-329.99"/>
</a>
</g>
</g>
<!-- Node4 -->
<g id="Node000004" class="node">
<title>Node4</title>
<g id="a_Node000004"><a xlink:href="group__OutputFormatting.html#ga86781939ef5359504029394ac39e0c96" target="_top" xlink:title="Format filename for display with length limit.">
<polygon fill="white" stroke="#666666" points="707,-342 558,-342 558,-312 707,-312 707,-342"/>
<text text-anchor="start" x="566" y="-330" font-family="Helvetica,sans-Serif" font-size="10.00">HighLevelEnergyCalculator</text>
<text text-anchor="middle" x="632.5" y="-319" font-family="Helvetica,sans-Serif" font-size="10.00">::format_filename</text>
</a>
</g>
</g>
<!-- Node2&#45;&gt;Node4 -->
<g id="edge4_Node000002_Node000004" class="edge">
<title>Node2&#45;&gt;Node4</title>
<g id="a_edge4_Node000002_Node000004"><a xlink:title=" ">
<path fill="none" stroke="#63b8ff" d="M298,-253.58C318.69,-264.12 345.15,-276.33 370,-284 428.01,-301.91 495.69,-312.78 547.67,-319.11"/>
<polygon fill="#63b8ff" stroke="#63b8ff" points="547.5,-322.61 557.84,-320.32 548.33,-315.66 547.5,-322.61"/>
</a>
</g>
</g>
<!-- Node5 -->
<g id="Node000005" class="node">
<title>Node5</title>
<g id="a_Node000005"><a xlink:href="group__FileUtilities.html#ga181c65f6b55859249f23a68e2f64f4bf" target="_top" xlink:title="Get corresponding parent directory file path.">
<polygon fill="white" stroke="#666666" points="519,-275 370,-275 370,-245 519,-245 519,-275"/>
<text text-anchor="start" x="378" y="-263" font-family="Helvetica,sans-Serif" font-size="10.00">HighLevelEnergyCalculator</text>
<text text-anchor="middle" x="444.5" y="-252" font-family="Helvetica,sans-Serif" font-size="10.00">::get_parent_file</text>
</a>
</g>
</g>
<!-- Node2&#45;&gt;Node5 -->
<g id="edge5_Node000002_Node000005" class="edge">
<title>Node2&#45;&gt;Node5</title>
<g id="a_edge5_Node000002_Node000005"><a xlink:title=" ">
<path fill="none" stroke="#63b8ff" d="M334.14,-243.87C342.57,-245.11 351.2,-246.38 359.74,-247.64"/>
<polygon fill="#63b8ff" stroke="#63b8ff" points="359.31,-251.12 369.71,-249.11 360.33,-244.19 359.31,-251.12"/>
</a>
</g>
</g>
<!-- Node6 -->
<g id="Node000006" class="node">
<title>Node6</title>
<g id="a_Node000006"><a xlink:href="group__DynamicFormatting.html#ga82ffc2b25fe8b393d1c0a21a2eb5d9a0" target="_top" xlink:title="Print header for components format with dynamic column widths.">
<polygon fill="white" stroke="#666666" points="519,-226.5 370,-226.5 370,-185.5 519,-185.5 519,-226.5"/>
<text text-anchor="start" x="378" y="-214.5" font-family="Helvetica,sans-Serif" font-size="10.00">HighLevelEnergyCalculator</text>
<text text-anchor="start" x="378" y="-203.5" font-family="Helvetica,sans-Serif" font-size="10.00">::print_components_header</text>
<text text-anchor="middle" x="444.5" y="-192.5" font-family="Helvetica,sans-Serif" font-size="10.00">_dynamic</text>
</a>
</g>
</g>
<!-- Node2&#45;&gt;Node6 -->
<g id="edge6_Node000002_Node000006" class="edge">
<title>Node2&#45;&gt;Node6</title>
<g id="a_edge6_Node000002_Node000006"><a xlink:title=" ">
<path fill="none" stroke="#63b8ff" d="M334.14,-222.13C342.57,-220.89 351.2,-219.62 359.74,-218.36"/>
<polygon fill="#63b8ff" stroke="#63b8ff" points="360.33,-221.81 369.71,-216.89 359.31,-214.88 360.33,-221.81"/>
</a>
</g>
</g>
<!-- Node7 -->
<g id="Node000007" class="node">
<title>Node7</title>
<g id="a_Node000007"><a xlink:href="high__level__energy_8cpp.html#a4ef54a725bad93aecbd43800acfbf532" target="_top" xlink:title=" ">
<polygon fill="white" stroke="#666666" points="495,-167.5 394,-167.5 394,-148.5 495,-148.5 495,-167.5"/>
<text text-anchor="middle" x="444.5" y="-155.5" font-family="Helvetica,sans-Serif" font-size="10.00">print_header_box</text>
</a>
</g>
</g>
<!-- Node2&#45;&gt;Node7 -->
<g id="edge7_Node000002_Node000007" class="edge">
<title>Node2&#45;&gt;Node7</title>
<g id="a_edge7_Node000002_Node000007"><a xlink:title=" ">
<path fill="none" stroke="#63b8ff" d="M296.09,-212.28C317.07,-200.7 344.45,-186.7 370,-177 376.37,-174.58 383.17,-172.36 389.97,-170.36"/>
<polygon fill="#63b8ff" stroke="#63b8ff" points="391.18,-173.66 399.86,-167.59 389.29,-166.92 391.18,-173.66"/>
</a>
</g>
</g>
<!-- Node11 -->
<g id="Node000011" class="node">
<title>Node11</title>
<g id="a_Node000011"><a xlink:href="group__OutputFormatting.html#ga127aea9652788ee774b4d8d1f2602959" target="_top" xlink:title="Print summary information about calculation.">
<polygon fill="white" stroke="#666666" points="519,-128 370,-128 370,-98 519,-98 519,-128"/>
<text text-anchor="start" x="378" y="-116" font-family="Helvetica,sans-Serif" font-size="10.00">HighLevelEnergyCalculator</text>
<text text-anchor="middle" x="444.5" y="-105" font-family="Helvetica,sans-Serif" font-size="10.00">::print_summary_info</text>
</a>
</g>
</g>
<!-- Node2&#45;&gt;Node11 -->
<g id="edge11_Node000002_Node000011" class="edge">
<title>Node2&#45;&gt;Node11</title>
<g id="a_edge11_Node000002_Node000011"><a xlink:title=" ">
<path fill="none" stroke="#63b8ff" d="M280.22,-212.44C300.95,-191.8 335.31,-160.23 370,-140 374.96,-137.1 380.29,-134.43 385.73,-131.98"/>
<polygon fill="#63b8ff" stroke="#63b8ff" points="387.11,-135.2 394.94,-128.07 384.37,-128.75 387.11,-135.2"/>
</a>
</g>
</g>
<!-- Node3&#45;&gt;Node4 -->
<g id="edge3_Node000003_Node000004" class="edge">
<title>Node3&#45;&gt;Node4</title>
<g id="a_edge3_Node000003_Node000004"><a xlink:title=" ">
<path fill="none" stroke="#63b8ff" d="M519.01,-342.12C528.51,-340.84 538.29,-339.53 547.93,-338.23"/>
<polygon fill="#63b8ff" stroke="#63b8ff" points="548.47,-341.69 557.91,-336.89 547.54,-334.75 548.47,-341.69"/>
</a>
</g>
</g>
<!-- Node8 -->
<g id="Node000008" class="node">
<title>Node8</title>
<g id="a_Node000008"><a xlink:href="namespaceMetadata.html#a4447a0ff55fb6119acf046c55f0729d8" target="_top" xlink:title="Build the standard header banner shown at the top of outputs.">
<polygon fill="white" stroke="#666666" points="684,-168.5 581,-168.5 581,-149.5 684,-149.5 684,-168.5"/>
<text text-anchor="middle" x="632.5" y="-156.5" font-family="Helvetica,sans-Serif" font-size="10.00">Metadata::header</text>
</a>
</g>
</g>
<!-- Node7&#45;&gt;Node8 -->
<g id="edge8_Node000007_Node000008" class="edge">
<title>Node7&#45;&gt;Node8</title>
<g id="a_edge8_Node000007_Node000008"><a xlink:title=" ">
<path fill="none" stroke="#63b8ff" d="M495.34,-158.27C518.51,-158.39 546.26,-158.54 570.65,-158.67"/>
<polygon fill="#63b8ff" stroke="#63b8ff" points="570.85,-162.17 580.87,-158.73 570.89,-155.17 570.85,-162.17"/>
</a>
</g>
</g>
<!-- Node9 -->
<g id="Node000009" class="node">
<title>Node9</title>
<g id="a_Node000009"><a xlink:href="namespaceMetadata.html#ab855c758bd53604611f38268f1c58481" target="_top" xlink:title=" ">
<polygon fill="white" stroke="#666666" points="908,-211.5 746,-211.5 746,-192.5 908,-192.5 908,-211.5"/>
<text text-anchor="middle" x="827" y="-199.5" font-family="Helvetica,sans-Serif" font-size="10.00">Metadata::create_header_line</text>
</a>
</g>
</g>
<!-- Node8&#45;&gt;Node9 -->
<g id="edge9_Node000008_Node000009" class="edge">
<title>Node8&#45;&gt;Node9</title>
<g id="a_edge9_Node000008_Node000009"><a xlink:title=" ">
<path fill="none" stroke="#63b8ff" d="M676.22,-168.54C704.88,-174.95 742.83,-183.42 773.35,-190.24"/>
<polygon fill="#63b8ff" stroke="#63b8ff" points="772.87,-193.72 783.4,-192.48 774.4,-186.89 772.87,-193.72"/>
</a>
</g>
</g>
<!-- Node10 -->
<g id="Node000010" class="node">
<title>Node10</title>
<g id="a_Node000010"><a xlink:href="group__VersionFunctions.html#ga546fbcfeb96704c283dd3b0d080daf11" target="_top" xlink:title="Get header information for program output.">
<polygon fill="white" stroke="#666666" points="883,-174 771,-174 771,-144 883,-144 883,-174"/>
<text text-anchor="start" x="779" y="-162" font-family="Helvetica,sans-Serif" font-size="10.00">GaussianExtractor::</text>
<text text-anchor="middle" x="827" y="-151" font-family="Helvetica,sans-Serif" font-size="10.00">get_header_info</text>
</a>
</g>
</g>
<!-- Node8&#45;&gt;Node10 -->
<g id="edge10_Node000008_Node000010" class="edge">
<title>Node8&#45;&gt;Node10</title>
<g id="a_edge10_Node000008_Node000010"><a xlink:title=" ">
<path fill="none" stroke="#63b8ff" d="M684.08,-159C707.48,-159 735.56,-159 760.56,-159"/>
<polygon fill="#63b8ff" stroke="#63b8ff" points="760.69,-162.5 770.69,-159 760.69,-155.5 760.69,-162.5"/>
</a>
</g>
</g>
<!-- Node12 -->
<g id="Node000012" class="node">
<title>Node12</title>
<g id="a_Node000012"><a xlink:href="group__CalculationHelpers.html#ga77837f5437ca34aa38ba7c9518d85480" target="_top" xlink:title="Calculate phase correction for concentration effects.">
<polygon fill="white" stroke="#666666" points="710,-128 555,-128 555,-98 710,-98 710,-128"/>
<text text-anchor="start" x="563" y="-116" font-family="Helvetica,sans-Serif" font-size="10.00">HighLevelEnergyCalculator</text>
<text text-anchor="middle" x="632.5" y="-105" font-family="Helvetica,sans-Serif" font-size="10.00">::calculate_phase_correction</text>
</a>
</g>
</g>
<!-- Node11&#45;&gt;Node12 -->
<g id="edge12_Node000011_Node000012" class="edge">
<title>Node11&#45;&gt;Node12</title>
<g id="a_edge12_Node000011_Node000012"><a xlink:title=" ">
<path fill="none" stroke="#63b8ff" d="M519.01,-113C527.48,-113 536.17,-113 544.79,-113"/>
<polygon fill="#63b8ff" stroke="#63b8ff" points="544.86,-116.5 554.86,-113 544.86,-109.5 544.86,-116.5"/>
</a>
</g>
</g>
<!-- Node13 -->
<g id="Node000013" class="node">
<title>Node13</title>
<g id="a_Node000013"><a xlink:href="group__EnergyExtraction.html#ga42389d55a3f27a4e7f077a16d956b957" target="_top" xlink:title="Extract specific energy value from log file using pattern matching.">
<polygon fill="white" stroke="#666666" points="707,-79 558,-79 558,-49 707,-49 707,-79"/>
<text text-anchor="start" x="566" y="-67" font-family="Helvetica,sans-Serif" font-size="10.00">HighLevelEnergyCalculator</text>
<text text-anchor="middle" x="632.5" y="-56" font-family="Helvetica,sans-Serif" font-size="10.00">::extract_value_from_file</text>
</a>
</g>
</g>
<!-- Node11&#45;&gt;Node13 -->
<g id="edge13_Node000011_Node000013" class="edge">
<title>Node11&#45;&gt;Node13</title>
<g id="a_edge13_Node000011_Node000013"><a xlink:title=" ">
<path fill="none" stroke="#63b8ff" d="M502.57,-97.97C522.21,-92.79 544.37,-86.95 564.72,-81.59"/>
<polygon fill="#63b8ff" stroke="#63b8ff" points="565.76,-84.94 574.54,-79.01 563.98,-78.17 565.76,-84.94"/>
</a>
</g>
</g>
<!-- Node14 -->
<g id="Node000014" class="node">
<title>Node14</title>
<g id="a_Node000014"><a xlink:href="structRegexPatterns.html#aeb75344b6b563c17108dbfaf60f486cc" target="_top" xlink:title=" ">
<polygon fill="white" stroke="#666666" points="881.5,-126 772.5,-126 772.5,-96 881.5,-96 881.5,-126"/>
<text text-anchor="start" x="780.5" y="-114" font-family="Helvetica,sans-Serif" font-size="10.00">RegexPatterns::get</text>
<text text-anchor="middle" x="827" y="-103" font-family="Helvetica,sans-Serif" font-size="10.00">_instance</text>
</a>
</g>
</g>
<!-- Node13&#45;&gt;Node14 -->
<g id="edge14_Node000013_Node000014" class="edge">
<title>Node13&#45;&gt;Node14</title>
<g id="a_edge14_Node000013_Node000014"><a xlink:title=" ">
<path fill="none" stroke="#63b8ff" d="M694.94,-79C716.5,-84.27 740.76,-90.19 762.49,-95.49"/>
<polygon fill="#63b8ff" stroke="#63b8ff" points="761.74,-98.91 772.28,-97.88 763.4,-92.11 761.74,-98.91"/>
</a>
</g>
</g>
<!-- Node15 -->
<g id="Node000015" class="node">
<title>Node15</title>
<g id="a_Node000015"><a xlink:href="classFileContentCache.html#affecb88aac28ec372fe984ab6ec0279c" target="_top" xlink:title=" ">
<polygon fill="white" stroke="#666666" points="889,-78 765,-78 765,-48 889,-48 889,-78"/>
<text text-anchor="start" x="773" y="-66" font-family="Helvetica,sans-Serif" font-size="10.00">FileContentCache::get</text>
<text text-anchor="middle" x="827" y="-55" font-family="Helvetica,sans-Serif" font-size="10.00">_or_read</text>
</a>
</g>
</g>
<!-- Node13&#45;&gt;Node15 -->
<g id="edge15_Node000013_Node000015" class="edge">
<title>Node13&#45;&gt;Node15</title>
<g id="a_edge15_Node000013_Node000015"><a xlink:title=" ">
<path fill="none" stroke="#63b8ff" d="M707.1,-63.62C722.77,-63.54 739.29,-63.45 754.87,-63.37"/>
<polygon fill="#63b8ff" stroke="#63b8ff" points="754.97,-66.87 764.95,-63.32 754.94,-59.87 754.97,-66.87"/>
</a>
</g>
</g>
<!-- Node16 -->
<g id="Node000016" class="node">
<title>Node16</title>
<g id="a_Node000016"><a xlink:href="group__SafetyHelpers.html#gaf25036f89725288871b9d856ca5f76ba" target="_top" xlink:title="Safe energy value parsing with validation.">
<polygon fill="white" stroke="#666666" points="901.5,-30 752.5,-30 752.5,0 901.5,0 901.5,-30"/>
<text text-anchor="start" x="760.5" y="-18" font-family="Helvetica,sans-Serif" font-size="10.00">HighLevelEnergyCalculator</text>
<text text-anchor="middle" x="827" y="-7" font-family="Helvetica,sans-Serif" font-size="10.00">::safe_parse_energy</text>
</a>
</g>
</g>
<!-- Node13&#45;&gt;Node16 -->
<g id="edge16_Node000013_Node000016" class="edge">
<title>Node13&#45;&gt;Node16</title>
<g id="a_edge16_Node000013_Node000016"><a xlink:title=" ">
<path fill="none" stroke="#63b8ff" d="M692.56,-48.97C712.98,-43.77 736.04,-37.9 757.17,-32.52"/>
<polygon fill="#63b8ff" stroke="#63b8ff" points="758.22,-35.86 767.05,-30.01 756.49,-29.08 758.22,-35.86"/>
</a>
</g>
</g>
</g>
</svg>
