<?xml version="1.0" encoding="UTF-8" standalone="no"?>
<!DOCTYPE svg PUBLIC "-//W3C//DTD SVG 1.1//EN"
 "http://www.w3.org/Graphics/SVG/1.1/DTD/svg11.dtd">
<!-- Generated by graphviz version 2.43.0 (0)
 -->
<!-- Title: processAndOutputResults Pages: 1 -->
<svg width="864pt" height="579pt"
 viewBox="0.00 0.00 864.00 578.50" xmlns="http://www.w3.org/2000/svg" xmlns:xlink="http://www.w3.org/1999/xlink">
<g id="graph0" class="graph" transform="scale(1 1) rotate(0) translate(4 574.5)">
<title>processAndOutputResults</title>
<!-- Node1 -->
<g id="Node000001" class="node">
<title>Node1</title>
<g id="a_Node000001"><a xlink:title="Process multiple files and output formatted results.">
<polygon fill="#999999" stroke="#666666" points="142,-229 0,-229 0,-210 142,-210 142,-229"/>
<text text-anchor="middle" x="71" y="-217" font-family="Helvetica,sans-Serif" font-size="10.00">processAndOutputResults</text>
</a>
</g>
</g>
<!-- Node2 -->
<g id="Node000002" class="node">
<title>Node2</title>
<g id="a_Node000002"><a xlink:href="group__MemoryMonitorImpl.html#ga92cbfbad3c9f226e74f095b3703edff4" target="_top" xlink:title="Calculate safe memory limit considering job scheduler constraints.">
<polygon fill="white" stroke="#666666" points="326,-476 178,-476 178,-457 326,-457 326,-476"/>
<text text-anchor="middle" x="252" y="-464" font-family="Helvetica,sans-Serif" font-size="10.00">calculateSafeMemoryLimit</text>
</a>
</g>
</g>
<!-- Node1&#45;&gt;Node2 -->
<g id="edge1_Node000001_Node000002" class="edge">
<title>Node1&#45;&gt;Node2</title>
<g id="a_edge1_Node000001_Node000002"><a xlink:title=" ">
<path fill="none" stroke="#63b8ff" d="M77.82,-229.21C93.22,-254.7 136.66,-325.33 178,-380.5 196.57,-405.28 220.05,-432.26 235.29,-449.27"/>
<polygon fill="#63b8ff" stroke="#63b8ff" points="232.75,-451.68 242.05,-456.76 237.95,-446.99 232.75,-451.68"/>
</a>
</g>
</g>
<!-- Node5 -->
<g id="Node000005" class="node">
<title>Node5</title>
<g id="a_Node000005"><a xlink:href="group__MemoryMonitorImpl.html#gaf6946ebbf530a167fc82bb7f20b36a42" target="_top" xlink:title="Calculate safe thread count considering job scheduler limits.">
<polygon fill="white" stroke="#666666" points="324.5,-371 179.5,-371 179.5,-352 324.5,-352 324.5,-371"/>
<text text-anchor="middle" x="252" y="-359" font-family="Helvetica,sans-Serif" font-size="10.00">calculateSafeThreadCount</text>
</a>
</g>
</g>
<!-- Node1&#45;&gt;Node5 -->
<g id="edge4_Node000001_Node000005" class="edge">
<title>Node1&#45;&gt;Node5</title>
<g id="a_edge4_Node000001_Node000005"><a xlink:title=" ">
<path fill="none" stroke="#63b8ff" d="M77.5,-229.24C91.23,-252.63 129.43,-312.25 178,-342.5 181.4,-344.62 185.04,-346.51 188.8,-348.18"/>
<polygon fill="#63b8ff" stroke="#63b8ff" points="187.76,-351.53 198.35,-351.93 190.32,-345.02 187.76,-351.53"/>
</a>
</g>
</g>
<!-- Node6 -->
<g id="Node000006" class="node">
<title>Node6</title>
<g id="a_Node000006"><a xlink:href="group__DetectionMethods.html#ga3e3cf834277c608e8557f70acba55430" target="_top" xlink:title="Detect current job scheduler and extract complete resource information.">
<polygon fill="white" stroke="#666666" points="315,-333.5 189,-333.5 189,-303.5 315,-303.5 315,-333.5"/>
<text text-anchor="start" x="197" y="-321.5" font-family="Helvetica,sans-Serif" font-size="10.00">JobSchedulerDetector</text>
<text text-anchor="middle" x="252" y="-310.5" font-family="Helvetica,sans-Serif" font-size="10.00">::detect_job_resources</text>
</a>
</g>
</g>
<!-- Node1&#45;&gt;Node6 -->
<g id="edge5_Node000001_Node000006" class="edge">
<title>Node1&#45;&gt;Node6</title>
<g id="a_edge5_Node000001_Node000006"><a xlink:title=" ">
<path fill="none" stroke="#63b8ff" d="M83.04,-229.02C101.56,-244.59 140.55,-275.63 178,-294.5 181.58,-296.31 185.33,-298.02 189.16,-299.63"/>
<polygon fill="#63b8ff" stroke="#63b8ff" points="188.19,-303.02 198.78,-303.45 190.78,-296.51 188.19,-303.02"/>
</a>
</g>
</g>
<!-- Node20 -->
<g id="Node000020" class="node">
<title>Node20</title>
<g id="a_Node000020"><a xlink:href="group__MemoryMonitorImpl.html#gad17c8399509c1c8b6d29fde9d0bcfac3" target="_top" xlink:title="Extract thermodynamic data from a single Gaussian log file.">
<polygon fill="white" stroke="#666666" points="277.5,-285 226.5,-285 226.5,-266 277.5,-266 277.5,-285"/>
<text text-anchor="middle" x="252" y="-273" font-family="Helvetica,sans-Serif" font-size="10.00">extract</text>
</a>
</g>
</g>
<!-- Node1&#45;&gt;Node20 -->
<g id="edge30_Node000001_Node000020" class="edge">
<title>Node1&#45;&gt;Node20</title>
<g id="a_edge30_Node000001_Node000020"><a xlink:title=" ">
<path fill="none" stroke="#63b8ff" d="M96.61,-229.13C117.94,-237.29 149.74,-248.97 178,-257.5 190.5,-261.27 204.37,-264.84 216.64,-267.79"/>
<polygon fill="#63b8ff" stroke="#63b8ff" points="215.96,-271.23 226.5,-270.12 217.57,-264.42 215.96,-271.23"/>
</a>
</g>
</g>
<!-- Node22 -->
<g id="Node000022" class="node">
<title>Node22</title>
<g id="a_Node000022"><a xlink:href="group__MemoryMonitorImpl.html#ga92b44bc7f664ca63d4213f46ecc7714f" target="_top" xlink:title="Find all Gaussian log files in the current directory.">
<polygon fill="white" stroke="#666666" points="289,-248 215,-248 215,-229 289,-229 289,-248"/>
<text text-anchor="middle" x="252" y="-236" font-family="Helvetica,sans-Serif" font-size="10.00">findLogFiles</text>
</a>
</g>
</g>
<!-- Node1&#45;&gt;Node22 -->
<g id="edge32_Node000001_Node000022" class="edge">
<title>Node1&#45;&gt;Node22</title>
<g id="a_edge32_Node000001_Node000022"><a xlink:title=" ">
<path fill="none" stroke="#63b8ff" d="M142.23,-226.95C163.22,-229.18 185.7,-231.57 204.74,-233.59"/>
<polygon fill="#63b8ff" stroke="#63b8ff" points="204.62,-237.1 214.93,-234.67 205.36,-230.14 204.62,-237.1"/>
</a>
</g>
</g>
<!-- Node23 -->
<g id="Node000023" class="node">
<title>Node23</title>
<g id="a_Node000023"><a xlink:href="group__MemoryMonitorImpl.html#gad9472b23817cf18d4ae5c857afb94c5f" target="_top" xlink:title=" ">
<polygon fill="white" stroke="#666666" points="498,-169 388,-169 388,-150 498,-150 498,-169"/>
<text text-anchor="middle" x="443" y="-157" font-family="Helvetica,sans-Serif" font-size="10.00">formatMemorySize</text>
</a>
</g>
</g>
<!-- Node1&#45;&gt;Node23 -->
<g id="edge33_Node000001_Node000023" class="edge">
<title>Node1&#45;&gt;Node23</title>
<g id="a_edge33_Node000001_Node000023"><a xlink:title=" ">
<path fill="none" stroke="#63b8ff" d="M140.57,-209.98C191.75,-202.69 263.36,-192.12 326,-181.5 344.93,-178.29 365.53,-174.48 384.05,-170.95"/>
<polygon fill="#63b8ff" stroke="#63b8ff" points="384.94,-174.34 394.1,-169.02 383.62,-167.47 384.94,-174.34"/>
</a>
</g>
</g>
<!-- Node24 -->
<g id="Node000024" class="node">
<title>Node24</title>
<g id="a_Node000024"><a xlink:href="namespaceMetadata.html#a4447a0ff55fb6119acf046c55f0729d8" target="_top" xlink:title="Build the standard header banner shown at the top of outputs.">
<polygon fill="white" stroke="#666666" points="303.5,-59 200.5,-59 200.5,-40 303.5,-40 303.5,-59"/>
<text text-anchor="middle" x="252" y="-47" font-family="Helvetica,sans-Serif" font-size="10.00">Metadata::header</text>
</a>
</g>
</g>
<!-- Node1&#45;&gt;Node24 -->
<g id="edge34_Node000001_Node000024" class="edge">
<title>Node1&#45;&gt;Node24</title>
<g id="a_edge34_Node000001_Node000024"><a xlink:title=" ">
<path fill="none" stroke="#63b8ff" d="M76.41,-209.7C88.64,-183.59 125.62,-111.71 178,-73.5 183.93,-69.18 190.68,-65.6 197.62,-62.66"/>
<polygon fill="#63b8ff" stroke="#63b8ff" points="199.06,-65.85 207.16,-59.01 196.57,-59.31 199.06,-65.85"/>
</a>
</g>
</g>
<!-- Node27 -->
<g id="Node000027" class="node">
<title>Node27</title>
<g id="a_Node000027"><a xlink:href="group__MemoryMonitorImpl.html#gaebeb52f9def6bfd4c1ddad8a1d572ae8" target="_top" xlink:title="Print job scheduler resource information.">
<polygon fill="white" stroke="#666666" points="311,-135 193,-135 193,-116 311,-116 311,-135"/>
<text text-anchor="middle" x="252" y="-123" font-family="Helvetica,sans-Serif" font-size="10.00">printJobResourceInfo</text>
</a>
</g>
</g>
<!-- Node1&#45;&gt;Node27 -->
<g id="edge37_Node000001_Node000027" class="edge">
<title>Node1&#45;&gt;Node27</title>
<g id="a_edge37_Node000001_Node000027"><a xlink:title=" ">
<path fill="none" stroke="#63b8ff" d="M82.57,-209.78C100.71,-193.61 139.54,-161.22 178,-143.5 182.36,-141.49 186.98,-139.68 191.69,-138.07"/>
<polygon fill="#63b8ff" stroke="#63b8ff" points="192.94,-141.34 201.43,-135.01 190.84,-134.66 192.94,-141.34"/>
</a>
</g>
</g>
<!-- Node28 -->
<g id="Node000028" class="node">
<title>Node28</title>
<g id="a_Node000028"><a xlink:href="group__UtilityMethods.html#ga436c02962271ec7a790e10983b3d5ba9" target="_top" xlink:title="Convert scheduler type to human&#45;readable name.">
<polygon fill="white" stroke="#666666" points="504,-126.5 382,-126.5 382,-96.5 504,-96.5 504,-126.5"/>
<text text-anchor="start" x="390" y="-114.5" font-family="Helvetica,sans-Serif" font-size="10.00">JobSchedulerDetector</text>
<text text-anchor="middle" x="443" y="-103.5" font-family="Helvetica,sans-Serif" font-size="10.00">::scheduler_name</text>
</a>
</g>
</g>
<!-- Node1&#45;&gt;Node28 -->
<g id="edge42_Node000001_Node000028" class="edge">
<title>Node1&#45;&gt;Node28</title>
<g id="a_edge42_Node000001_Node000028"><a xlink:title=" ">
<path fill="none" stroke="#63b8ff" d="M77.31,-209.77C90.6,-186.54 127.89,-128.2 178,-106.5 239.48,-79.88 316.81,-85.28 371.85,-94.82"/>
<polygon fill="#63b8ff" stroke="#63b8ff" points="371.4,-98.3 381.86,-96.64 372.65,-91.41 371.4,-98.3"/>
</a>
</g>
</g>
<!-- Node29 -->
<g id="Node000029" class="node">
<title>Node29</title>
<g id="a_Node000029"><a xlink:href="group__MemoryMonitorImpl.html#ga9c5d14b4926584b6a71df4a0262ecb5d" target="_top" xlink:title="Print resource usage statistics from processing context.">
<polygon fill="white" stroke="#666666" points="309.5,-172 194.5,-172 194.5,-153 309.5,-153 309.5,-172"/>
<text text-anchor="middle" x="252" y="-160" font-family="Helvetica,sans-Serif" font-size="10.00">printResourceUsage</text>
</a>
</g>
</g>
<!-- Node1&#45;&gt;Node29 -->
<g id="edge40_Node000001_Node000029" class="edge">
<title>Node1&#45;&gt;Node29</title>
<g id="a_edge40_Node000001_Node000029"><a xlink:title=" ">
<path fill="none" stroke="#63b8ff" d="M101.96,-209.96C131.91,-200.42 178.12,-185.71 211.15,-175.19"/>
<polygon fill="#63b8ff" stroke="#63b8ff" points="212.48,-178.44 220.94,-172.07 210.35,-171.77 212.48,-178.44"/>
</a>
</g>
</g>
<!-- Node3 -->
<g id="Node000003" class="node">
<title>Node3</title>
<g id="a_Node000003"><a xlink:href="group__MemoryMonitorImpl.html#ga7abe435ae05ae753fbf7ef4dfa9ce3ff" target="_top" xlink:title="Calculate optimal memory limit for given thread count.">
<polygon fill="white" stroke="#666666" points="515.5,-547.5 370.5,-547.5 370.5,-517.5 515.5,-517.5 515.5,-547.5"/>
<text text-anchor="start" x="378.5" y="-535.5" font-family="Helvetica,sans-Serif" font-size="10.00">MemoryMonitor::calculate</text>
<text text-anchor="middle" x="443" y="-524.5" font-family="Helvetica,sans-Serif" font-size="10.00">_optimal_memory_limit</text>
</a>
</g>
</g>
<!-- Node2&#45;&gt;Node3 -->
<g id="edge2_Node000002_Node000003" class="edge">
<title>Node2&#45;&gt;Node3</title>
<g id="a_edge2_Node000002_Node000003"><a xlink:title=" ">
<path fill="none" stroke="#63b8ff" d="M280.48,-476.1C308.84,-486 353.78,-501.69 389.06,-514.01"/>
<polygon fill="#63b8ff" stroke="#63b8ff" points="388.14,-517.4 398.74,-517.39 390.45,-510.79 388.14,-517.4"/>
</a>
</g>
</g>
<!-- Node4 -->
<g id="Node000004" class="node">
<title>Node4</title>
<g id="a_Node000004"><a xlink:href="group__MemoryMonitorImpl.html#ga68575ceb301f1a183f19fca872a455d4" target="_top" xlink:title="Detect system memory capacity.">
<polygon fill="white" stroke="#666666" points="691.5,-570.5 566.5,-570.5 566.5,-540.5 691.5,-540.5 691.5,-570.5"/>
<text text-anchor="start" x="574.5" y="-558.5" font-family="Helvetica,sans-Serif" font-size="10.00">MemoryMonitor::get</text>
<text text-anchor="middle" x="629" y="-547.5" font-family="Helvetica,sans-Serif" font-size="10.00">_system_memory_mb</text>
</a>
</g>
</g>
<!-- Node3&#45;&gt;Node4 -->
<g id="edge3_Node000003_Node000004" class="edge">
<title>Node3&#45;&gt;Node4</title>
<g id="a_edge3_Node000003_Node000004"><a xlink:title=" ">
<path fill="none" stroke="#63b8ff" d="M515.67,-541.46C529.01,-543.13 542.96,-544.87 556.31,-546.54"/>
<polygon fill="#63b8ff" stroke="#63b8ff" points="556.03,-550.03 566.38,-547.8 556.89,-543.08 556.03,-550.03"/>
</a>
</g>
</g>
<!-- Node7 -->
<g id="Node000007" class="node">
<title>Node7</title>
<g id="a_Node000007"><a xlink:href="group__SchedulerSpecific.html#ga3923336c54e169224a24aa725fa039a4" target="_top" xlink:title="Extract resource information from LSF environment.">
<polygon fill="white" stroke="#666666" points="504.5,-398.5 381.5,-398.5 381.5,-368.5 504.5,-368.5 504.5,-398.5"/>
<text text-anchor="start" x="389.5" y="-386.5" font-family="Helvetica,sans-Serif" font-size="10.00">JobSchedulerDetector</text>
<text text-anchor="middle" x="443" y="-375.5" font-family="Helvetica,sans-Serif" font-size="10.00">::detect_lsf_resources</text>
</a>
</g>
</g>
<!-- Node6&#45;&gt;Node7 -->
<g id="edge6_Node000006_Node000007" class="edge">
<title>Node6&#45;&gt;Node7</title>
<g id="a_edge6_Node000006_Node000007"><a xlink:title=" ">
<path fill="none" stroke="#63b8ff" d="M299.18,-333.62C308.13,-336.75 317.4,-340.12 326,-343.5 342.3,-349.9 345.58,-353.42 362,-359.5 367.4,-361.5 373.05,-363.46 378.74,-365.34"/>
<polygon fill="#63b8ff" stroke="#63b8ff" points="377.74,-368.69 388.33,-368.42 379.88,-362.03 377.74,-368.69"/>
</a>
</g>
</g>
<!-- Node12 -->
<g id="Node000012" class="node">
<title>Node12</title>
<g id="a_Node000012"><a xlink:href="group__SchedulerSpecific.html#ga09d406f8202e5cec41ff257c23ef5031" target="_top" xlink:title="Extract resource information from PBS/Torque environment.">
<polygon fill="white" stroke="#666666" points="507,-302.5 379,-302.5 379,-272.5 507,-272.5 507,-302.5"/>
<text text-anchor="start" x="387" y="-290.5" font-family="Helvetica,sans-Serif" font-size="10.00">JobSchedulerDetector</text>
<text text-anchor="middle" x="443" y="-279.5" font-family="Helvetica,sans-Serif" font-size="10.00">::detect_pbs_resources</text>
</a>
</g>
</g>
<!-- Node6&#45;&gt;Node12 -->
<g id="edge12_Node000006_Node000012" class="edge">
<title>Node6&#45;&gt;Node12</title>
<g id="a_edge12_Node000006_Node000012"><a xlink:title=" ">
<path fill="none" stroke="#63b8ff" d="M315.15,-308.31C332.24,-305.5 350.93,-302.44 368.59,-299.54"/>
<polygon fill="#63b8ff" stroke="#63b8ff" points="369.54,-302.93 378.85,-297.86 368.41,-296.02 369.54,-302.93"/>
</a>
</g>
</g>
<!-- Node14 -->
<g id="Node000014" class="node">
<title>Node14</title>
<g id="a_Node000014"><a xlink:href="group__SchedulerSpecific.html#ga14bd7d5ddf535138b1fa97ce992356f5" target="_top" xlink:title="Extract resource information from SGE/OGS environment.">
<polygon fill="white" stroke="#666666" points="507,-350.5 379,-350.5 379,-320.5 507,-320.5 507,-350.5"/>
<text text-anchor="start" x="387" y="-338.5" font-family="Helvetica,sans-Serif" font-size="10.00">JobSchedulerDetector</text>
<text text-anchor="middle" x="443" y="-327.5" font-family="Helvetica,sans-Serif" font-size="10.00">::detect_sge_resources</text>
</a>
</g>
</g>
<!-- Node6&#45;&gt;Node14 -->
<g id="edge17_Node000006_Node000014" class="edge">
<title>Node6&#45;&gt;Node14</title>
<g id="a_edge17_Node000006_Node000014"><a xlink:title=" ">
<path fill="none" stroke="#63b8ff" d="M315.15,-324.09C332.24,-325.63 350.93,-327.31 368.59,-328.9"/>
<polygon fill="#63b8ff" stroke="#63b8ff" points="368.57,-332.41 378.85,-329.82 369.2,-325.44 368.57,-332.41"/>
</a>
</g>
</g>
<!-- Node15 -->
<g id="Node000015" class="node">
<title>Node15</title>
<g id="a_Node000015"><a xlink:href="group__SchedulerSpecific.html#ga488877fafdad543d22522f9b85bfd5ba" target="_top" xlink:title="Extract resource information from SLURM environment.">
<polygon fill="white" stroke="#666666" points="512.5,-254.5 373.5,-254.5 373.5,-224.5 512.5,-224.5 512.5,-254.5"/>
<text text-anchor="start" x="381.5" y="-242.5" font-family="Helvetica,sans-Serif" font-size="10.00">JobSchedulerDetector</text>
<text text-anchor="middle" x="443" y="-231.5" font-family="Helvetica,sans-Serif" font-size="10.00">::detect_slurm_resources</text>
</a>
</g>
</g>
<!-- Node6&#45;&gt;Node15 -->
<g id="edge22_Node000006_Node000015" class="edge">
<title>Node6&#45;&gt;Node15</title>
<g id="a_edge22_Node000006_Node000015"><a xlink:title=" ">
<path fill="none" stroke="#63b8ff" d="M307.07,-303.42C313.62,-300.81 320.08,-297.85 326,-294.5 344.38,-284.11 343.48,-273.64 362,-263.5 365.31,-261.69 368.77,-259.99 372.33,-258.42"/>
<polygon fill="#63b8ff" stroke="#63b8ff" points="373.96,-261.53 381.89,-254.5 371.31,-255.05 373.96,-261.53"/>
</a>
</g>
</g>
<!-- Node19 -->
<g id="Node000019" class="node">
<title>Node19</title>
<g id="a_Node000019"><a xlink:href="group__DetectionMethods.html#ga4a459ab8a1188d54b0e6304d525d1173" target="_top" xlink:title="Identify the type of job scheduler currently active.">
<polygon fill="white" stroke="#666666" points="690,-522.5 568,-522.5 568,-492.5 690,-492.5 690,-522.5"/>
<text text-anchor="start" x="576" y="-510.5" font-family="Helvetica,sans-Serif" font-size="10.00">JobSchedulerDetector</text>
<text text-anchor="middle" x="629" y="-499.5" font-family="Helvetica,sans-Serif" font-size="10.00">::get_scheduler_type</text>
</a>
</g>
</g>
<!-- Node6&#45;&gt;Node19 -->
<g id="edge28_Node000006_Node000019" class="edge">
<title>Node6&#45;&gt;Node19</title>
<g id="a_edge28_Node000006_Node000019"><a xlink:title=" ">
<path fill="none" stroke="#63b8ff" d="M310.58,-333.59C316.11,-336.37 321.37,-339.64 326,-343.5 351.08,-364.38 337.23,-386.25 362,-407.5 418.2,-455.7 499.91,-481.76 557.92,-495.06"/>
<polygon fill="#63b8ff" stroke="#63b8ff" points="557.22,-498.49 567.74,-497.25 558.74,-491.66 557.22,-498.49"/>
</a>
</g>
</g>
<!-- Node8 -->
<g id="Node000008" class="node">
<title>Node8</title>
<g id="a_Node000008"><a xlink:href="group__EnvironmentHelpers.html#gade9468a3b205731f1aa25d53a32edeca" target="_top" xlink:title="Get long integer environment variable value.">
<polygon fill="white" stroke="#666666" points="690,-302.5 568,-302.5 568,-272.5 690,-272.5 690,-302.5"/>
<text text-anchor="start" x="576" y="-290.5" font-family="Helvetica,sans-Serif" font-size="10.00">JobSchedulerDetector</text>
<text text-anchor="middle" x="629" y="-279.5" font-family="Helvetica,sans-Serif" font-size="10.00">::get_env_long</text>
</a>
</g>
</g>
<!-- Node7&#45;&gt;Node8 -->
<g id="edge7_Node000007_Node000008" class="edge">
<title>Node7&#45;&gt;Node8</title>
<g id="a_edge7_Node000007_Node000008"><a xlink:title=" ">
<path fill="none" stroke="#63b8ff" d="M504.9,-369.78C511.65,-366.96 518.17,-363.57 524,-359.5 545.87,-344.24 538.5,-327.28 560,-311.5 561.89,-310.12 563.86,-308.81 565.9,-307.57"/>
<polygon fill="#63b8ff" stroke="#63b8ff" points="568.02,-310.4 575.17,-302.57 564.7,-304.23 568.02,-310.4"/>
</a>
</g>
</g>
<!-- Node9 -->
<g id="Node000009" class="node">
<title>Node9</title>
<g id="a_Node000009"><a xlink:href="group__EnvironmentHelpers.html#ga462d9065c82e9250768f5fe6cea9929b" target="_top" xlink:title="Get environment variable value with default fallback.">
<polygon fill="white" stroke="#666666" points="856,-371.5 734,-371.5 734,-341.5 856,-341.5 856,-371.5"/>
<text text-anchor="start" x="742" y="-359.5" font-family="Helvetica,sans-Serif" font-size="10.00">JobSchedulerDetector</text>
<text text-anchor="middle" x="795" y="-348.5" font-family="Helvetica,sans-Serif" font-size="10.00">::get_env_var</text>
</a>
</g>
</g>
<!-- Node7&#45;&gt;Node9 -->
<g id="edge8_Node000007_Node000009" class="edge">
<title>Node7&#45;&gt;Node9</title>
<g id="a_edge8_Node000007_Node000009"><a xlink:title=" ">
<path fill="none" stroke="#63b8ff" d="M464.51,-398.52C486.74,-413.79 523.89,-436.46 560,-445.5 619.5,-460.4 640.9,-467.9 698,-445.5 731.43,-432.39 760.17,-401.55 777.27,-379.87"/>
<polygon fill="#63b8ff" stroke="#63b8ff" points="780.16,-381.85 783.45,-371.78 774.6,-377.6 780.16,-381.85"/>
</a>
</g>
</g>
<!-- Node10 -->
<g id="Node000010" class="node">
<title>Node10</title>
<g id="a_Node000010"><a xlink:href="group__DetectionMethods.html#ga34ce79ae6eec92775d73cb4692c52566" target="_top" xlink:title="Extract job ID from scheduler environment.">
<polygon fill="white" stroke="#666666" points="690,-350.5 568,-350.5 568,-320.5 690,-320.5 690,-350.5"/>
<text text-anchor="start" x="576" y="-338.5" font-family="Helvetica,sans-Serif" font-size="10.00">JobSchedulerDetector</text>
<text text-anchor="middle" x="629" y="-327.5" font-family="Helvetica,sans-Serif" font-size="10.00">::get_job_id</text>
</a>
</g>
</g>
<!-- Node7&#45;&gt;Node10 -->
<g id="edge9_Node000007_Node000010" class="edge">
<title>Node7&#45;&gt;Node10</title>
<g id="a_edge9_Node000007_Node000010"><a xlink:title=" ">
<path fill="none" stroke="#63b8ff" d="M501.71,-368.44C520.38,-363.57 541.25,-358.13 560.56,-353.09"/>
<polygon fill="#63b8ff" stroke="#63b8ff" points="561.7,-356.41 570.49,-350.5 559.93,-349.64 561.7,-356.41"/>
</a>
</g>
</g>
<!-- Node11 -->
<g id="Node000011" class="node">
<title>Node11</title>
<g id="a_Node000011"><a xlink:href="group__PrivateParsers.html#gaef6c0a64fcb73d01deb070200fd84a52" target="_top" xlink:title="Parse general memory format strings.">
<polygon fill="white" stroke="#666666" points="698,-436.5 560,-436.5 560,-406.5 698,-406.5 698,-436.5"/>
<text text-anchor="start" x="568" y="-424.5" font-family="Helvetica,sans-Serif" font-size="10.00">JobSchedulerDetector</text>
<text text-anchor="middle" x="629" y="-413.5" font-family="Helvetica,sans-Serif" font-size="10.00">::parse_general_memory</text>
</a>
</g>
</g>
<!-- Node7&#45;&gt;Node11 -->
<g id="edge11_Node000007_Node000011" class="edge">
<title>Node7&#45;&gt;Node11</title>
<g id="a_edge11_Node000007_Node000011"><a xlink:title=" ">
<path fill="none" stroke="#63b8ff" d="M504.5,-396C519.02,-398.99 534.74,-402.24 549.93,-405.38"/>
<polygon fill="#63b8ff" stroke="#63b8ff" points="549.32,-408.82 559.82,-407.42 550.73,-401.97 549.32,-408.82"/>
</a>
</g>
</g>
<!-- Node10&#45;&gt;Node9 -->
<g id="edge10_Node000010_Node000009" class="edge">
<title>Node10&#45;&gt;Node9</title>
<g id="a_edge10_Node000010_Node000009"><a xlink:title=" ">
<path fill="none" stroke="#63b8ff" d="M690.14,-343.2C701.05,-344.6 712.53,-346.07 723.71,-347.5"/>
<polygon fill="#63b8ff" stroke="#63b8ff" points="723.51,-351 733.87,-348.8 724.4,-344.06 723.51,-351"/>
</a>
</g>
</g>
<!-- Node12&#45;&gt;Node8 -->
<g id="edge13_Node000012_Node000008" class="edge">
<title>Node12&#45;&gt;Node8</title>
<g id="a_edge13_Node000012_Node000008"><a xlink:title=" ">
<path fill="none" stroke="#63b8ff" d="M507.06,-287.5C523.35,-287.5 540.98,-287.5 557.61,-287.5"/>
<polygon fill="#63b8ff" stroke="#63b8ff" points="557.81,-291 567.81,-287.5 557.81,-284 557.81,-291"/>
</a>
</g>
</g>
<!-- Node12&#45;&gt;Node9 -->
<g id="edge14_Node000012_Node000009" class="edge">
<title>Node12&#45;&gt;Node9</title>
<g id="a_edge14_Node000012_Node000009"><a xlink:title=" ">
<path fill="none" stroke="#63b8ff" d="M507.37,-272.72C513.23,-270.12 518.89,-267.07 524,-263.5 545.87,-248.24 536.15,-227.43 560,-215.5 614.86,-188.07 643.78,-186.82 698,-215.5 744.5,-240.09 772.69,-298.44 785.59,-331.86"/>
<polygon fill="#63b8ff" stroke="#63b8ff" points="782.35,-333.2 789.11,-341.37 788.92,-330.77 782.35,-333.2"/>
</a>
</g>
</g>
<!-- Node12&#45;&gt;Node10 -->
<g id="edge15_Node000012_Node000010" class="edge">
<title>Node12&#45;&gt;Node10</title>
<g id="a_edge15_Node000012_Node000010"><a xlink:title=" ">
<path fill="none" stroke="#63b8ff" d="M501.71,-302.56C520.38,-307.43 541.25,-312.87 560.56,-317.91"/>
<polygon fill="#63b8ff" stroke="#63b8ff" points="559.93,-321.36 570.49,-320.5 561.7,-314.59 559.93,-321.36"/>
</a>
</g>
</g>
<!-- Node13 -->
<g id="Node000013" class="node">
<title>Node13</title>
<g id="a_Node000013"><a xlink:href="group__PrivateParsers.html#ga9bed72466ae8b04e8fe80827e482bd59" target="_top" xlink:title="Parse PBS/Torque&#45;specific memory format strings.">
<polygon fill="white" stroke="#666666" points="690,-254.5 568,-254.5 568,-224.5 690,-224.5 690,-254.5"/>
<text text-anchor="start" x="576" y="-242.5" font-family="Helvetica,sans-Serif" font-size="10.00">JobSchedulerDetector</text>
<text text-anchor="middle" x="629" y="-231.5" font-family="Helvetica,sans-Serif" font-size="10.00">::parse_pbs_memory</text>
</a>
</g>
</g>
<!-- Node12&#45;&gt;Node13 -->
<g id="edge16_Node000012_Node000013" class="edge">
<title>Node12&#45;&gt;Node13</title>
<g id="a_edge16_Node000012_Node000013"><a xlink:title=" ">
<path fill="none" stroke="#63b8ff" d="M501.71,-272.44C520.38,-267.57 541.25,-262.13 560.56,-257.09"/>
<polygon fill="#63b8ff" stroke="#63b8ff" points="561.7,-260.41 570.49,-254.5 559.93,-253.64 561.7,-260.41"/>
</a>
</g>
</g>
<!-- Node14&#45;&gt;Node8 -->
<g id="edge18_Node000014_Node000008" class="edge">
<title>Node14&#45;&gt;Node8</title>
<g id="a_edge18_Node000014_Node000008"><a xlink:title=" ">
<path fill="none" stroke="#63b8ff" d="M501.71,-320.44C520.38,-315.57 541.25,-310.13 560.56,-305.09"/>
<polygon fill="#63b8ff" stroke="#63b8ff" points="561.7,-308.41 570.49,-302.5 559.93,-301.64 561.7,-308.41"/>
</a>
</g>
</g>
<!-- Node14&#45;&gt;Node9 -->
<g id="edge19_Node000014_Node000009" class="edge">
<title>Node14&#45;&gt;Node9</title>
<g id="a_edge19_Node000014_Node000009"><a xlink:title=" ">
<path fill="none" stroke="#63b8ff" d="M505.04,-350.56C522.66,-354.25 542,-357.66 560,-359.5 621.01,-365.75 636.67,-360.46 698,-359.5 706.33,-359.37 715.06,-359.18 723.73,-358.95"/>
<polygon fill="#63b8ff" stroke="#63b8ff" points="723.94,-362.44 733.83,-358.67 723.74,-355.45 723.94,-362.44"/>
</a>
</g>
</g>
<!-- Node14&#45;&gt;Node10 -->
<g id="edge20_Node000014_Node000010" class="edge">
<title>Node14&#45;&gt;Node10</title>
<g id="a_edge20_Node000014_Node000010"><a xlink:title=" ">
<path fill="none" stroke="#63b8ff" d="M507.06,-335.5C523.35,-335.5 540.98,-335.5 557.61,-335.5"/>
<polygon fill="#63b8ff" stroke="#63b8ff" points="557.81,-339 567.81,-335.5 557.81,-332 557.81,-339"/>
</a>
</g>
</g>
<!-- Node14&#45;&gt;Node11 -->
<g id="edge21_Node000014_Node000011" class="edge">
<title>Node14&#45;&gt;Node11</title>
<g id="a_edge21_Node000014_Node000011"><a xlink:title=" ">
<path fill="none" stroke="#63b8ff" d="M505.05,-350.64C511.63,-353.19 518.07,-356.13 524,-359.5 542.87,-370.22 541.76,-380.74 560,-392.5 565.38,-395.97 571.25,-399.19 577.2,-402.12"/>
<polygon fill="#63b8ff" stroke="#63b8ff" points="576.04,-405.44 586.58,-406.49 578.99,-399.09 576.04,-405.44"/>
</a>
</g>
</g>
<!-- Node15&#45;&gt;Node8 -->
<g id="edge23_Node000015_Node000008" class="edge">
<title>Node15&#45;&gt;Node8</title>
<g id="a_edge23_Node000015_Node000008"><a xlink:title=" ">
<path fill="none" stroke="#63b8ff" d="M501.71,-254.56C520.38,-259.43 541.25,-264.87 560.56,-269.91"/>
<polygon fill="#63b8ff" stroke="#63b8ff" points="559.93,-273.36 570.49,-272.5 561.7,-266.59 559.93,-273.36"/>
</a>
</g>
</g>
<!-- Node15&#45;&gt;Node9 -->
<g id="edge24_Node000015_Node000009" class="edge">
<title>Node15&#45;&gt;Node9</title>
<g id="a_edge24_Node000015_Node000009"><a xlink:title=" ">
<path fill="none" stroke="#63b8ff" d="M502.56,-224.43C509.92,-221.81 517.24,-218.84 524,-215.5 541.7,-206.77 541.22,-195.57 560,-189.5 618.36,-170.63 644.91,-158.78 698,-189.5 751.18,-220.27 777.47,-292.89 788.08,-331.44"/>
<polygon fill="#63b8ff" stroke="#63b8ff" points="784.76,-332.56 790.67,-341.35 791.53,-330.79 784.76,-332.56"/>
</a>
</g>
</g>
<!-- Node16 -->
<g id="Node000016" class="node">
<title>Node16</title>
<g id="a_Node000016"><a xlink:href="group__PrivateParsers.html#ga37457b3648093985d27e8e01069d3162" target="_top" xlink:title="Parse CPU list specification to count.">
<polygon fill="white" stroke="#666666" points="690,-82.5 568,-82.5 568,-52.5 690,-52.5 690,-82.5"/>
<text text-anchor="start" x="576" y="-70.5" font-family="Helvetica,sans-Serif" font-size="10.00">JobSchedulerDetector</text>
<text text-anchor="middle" x="629" y="-59.5" font-family="Helvetica,sans-Serif" font-size="10.00">::parse_cpu_list</text>
</a>
</g>
</g>
<!-- Node15&#45;&gt;Node16 -->
<g id="edge25_Node000015_Node000016" class="edge">
<title>Node15&#45;&gt;Node16</title>
<g id="a_edge25_Node000015_Node000016"><a xlink:title=" ">
<path fill="none" stroke="#63b8ff" d="M512.69,-224.33C516.8,-221.82 520.63,-218.9 524,-215.5 564.4,-174.74 520.59,-133.21 560,-91.5 560.92,-90.53 561.88,-89.59 562.88,-88.7"/>
<polygon fill="#63b8ff" stroke="#63b8ff" points="565.22,-91.32 571.16,-82.55 561.04,-85.7 565.22,-91.32"/>
</a>
</g>
</g>
<!-- Node18 -->
<g id="Node000018" class="node">
<title>Node18</title>
<g id="a_Node000018"><a xlink:href="group__PrivateParsers.html#ga5d5c5c72d1fadf00e71c24290a7780df" target="_top" xlink:title="Parse SLURM&#45;specific memory format strings.">
<polygon fill="white" stroke="#666666" points="693.5,-130.5 564.5,-130.5 564.5,-100.5 693.5,-100.5 693.5,-130.5"/>
<text text-anchor="start" x="572.5" y="-118.5" font-family="Helvetica,sans-Serif" font-size="10.00">JobSchedulerDetector</text>
<text text-anchor="middle" x="629" y="-107.5" font-family="Helvetica,sans-Serif" font-size="10.00">::parse_slurm_memory</text>
</a>
</g>
</g>
<!-- Node15&#45;&gt;Node18 -->
<g id="edge27_Node000015_Node000018" class="edge">
<title>Node15&#45;&gt;Node18</title>
<g id="a_edge27_Node000015_Node000018"><a xlink:title=" ">
<path fill="none" stroke="#63b8ff" d="M510.43,-224.42C515.29,-221.89 519.88,-218.94 524,-215.5 551.14,-192.8 534.17,-168.68 560,-144.5 563.51,-141.22 567.44,-138.28 571.6,-135.65"/>
<polygon fill="#63b8ff" stroke="#63b8ff" points="573.41,-138.64 580.39,-130.67 569.97,-132.55 573.41,-138.64"/>
</a>
</g>
</g>
<!-- Node17 -->
<g id="Node000017" class="node">
<title>Node17</title>
<g id="a_Node000017"><a xlink:href="group__PrivateParsers.html#gaa8c311f7460c6345a998c3480d995ec8" target="_top" xlink:title="Parse CPU range specification to count.">
<polygon fill="white" stroke="#666666" points="856,-82.5 734,-82.5 734,-52.5 856,-52.5 856,-82.5"/>
<text text-anchor="start" x="742" y="-70.5" font-family="Helvetica,sans-Serif" font-size="10.00">JobSchedulerDetector</text>
<text text-anchor="middle" x="795" y="-59.5" font-family="Helvetica,sans-Serif" font-size="10.00">::parse_cpu_range</text>
</a>
</g>
</g>
<!-- Node16&#45;&gt;Node17 -->
<g id="edge26_Node000016_Node000017" class="edge">
<title>Node16&#45;&gt;Node17</title>
<g id="a_edge26_Node000016_Node000017"><a xlink:title=" ">
<path fill="none" stroke="#63b8ff" d="M690.14,-67.5C701.05,-67.5 712.53,-67.5 723.71,-67.5"/>
<polygon fill="#63b8ff" stroke="#63b8ff" points="723.87,-71 733.87,-67.5 723.87,-64 723.87,-71"/>
</a>
</g>
</g>
<!-- Node19&#45;&gt;Node9 -->
<g id="edge29_Node000019_Node000009" class="edge">
<title>Node19&#45;&gt;Node9</title>
<g id="a_edge29_Node000019_Node000009"><a xlink:title=" ">
<path fill="none" stroke="#63b8ff" d="M674.23,-492.47C682.55,-488.61 690.87,-483.96 698,-478.5 733.79,-451.09 763.8,-407.41 780.3,-380.43"/>
<polygon fill="#63b8ff" stroke="#63b8ff" points="783.43,-382.01 785.56,-371.63 777.42,-378.42 783.43,-382.01"/>
</a>
</g>
</g>
<!-- Node21 -->
<g id="Node000021" class="node">
<title>Node21</title>
<g id="a_Node000021"><a xlink:href="group__MemoryMonitorImpl.html#ga131e6ac5862047eda88e31ac535d9229" target="_top" xlink:title="Safely convert string to double with error handling.">
<polygon fill="white" stroke="#666666" points="475,-206 411,-206 411,-187 475,-187 475,-206"/>
<text text-anchor="middle" x="443" y="-194" font-family="Helvetica,sans-Serif" font-size="10.00">safe_stod</text>
</a>
</g>
</g>
<!-- Node20&#45;&gt;Node21 -->
<g id="edge31_Node000020_Node000021" class="edge">
<title>Node20&#45;&gt;Node21</title>
<g id="a_edge31_Node000020_Node000021"><a xlink:title=" ">
<path fill="none" stroke="#63b8ff" d="M277.8,-273.23C292.67,-270.97 311.44,-266.47 326,-257.5 346.93,-244.61 341.01,-228.3 362,-215.5 373.54,-208.46 387.49,-204.03 400.48,-201.24"/>
<polygon fill="#63b8ff" stroke="#63b8ff" points="401.45,-204.62 410.64,-199.34 400.16,-197.74 401.45,-204.62"/>
</a>
</g>
</g>
<!-- Node25 -->
<g id="Node000025" class="node">
<title>Node25</title>
<g id="a_Node000025"><a xlink:href="namespaceMetadata.html#ab855c758bd53604611f38268f1c58481" target="_top" xlink:title=" ">
<polygon fill="white" stroke="#666666" points="524,-19 362,-19 362,0 524,0 524,-19"/>
<text text-anchor="middle" x="443" y="-7" font-family="Helvetica,sans-Serif" font-size="10.00">Metadata::create_header_line</text>
</a>
</g>
</g>
<!-- Node24&#45;&gt;Node25 -->
<g id="edge35_Node000024_Node000025" class="edge">
<title>Node24&#45;&gt;Node25</title>
<g id="a_edge35_Node000024_Node000025"><a xlink:title=" ">
<path fill="none" stroke="#63b8ff" d="M298.27,-39.92C324.92,-34.28 358.82,-27.1 387,-21.14"/>
<polygon fill="#63b8ff" stroke="#63b8ff" points="388.04,-24.5 397.1,-19 386.59,-17.65 388.04,-24.5"/>
</a>
</g>
</g>
<!-- Node26 -->
<g id="Node000026" class="node">
<title>Node26</title>
<g id="a_Node000026"><a xlink:href="group__VersionFunctions.html#ga546fbcfeb96704c283dd3b0d080daf11" target="_top" xlink:title="Get header information for program output.">
<polygon fill="white" stroke="#666666" points="499,-67.5 387,-67.5 387,-37.5 499,-37.5 499,-67.5"/>
<text text-anchor="start" x="395" y="-55.5" font-family="Helvetica,sans-Serif" font-size="10.00">GaussianExtractor::</text>
<text text-anchor="middle" x="443" y="-44.5" font-family="Helvetica,sans-Serif" font-size="10.00">get_header_info</text>
</a>
</g>
</g>
<!-- Node24&#45;&gt;Node26 -->
<g id="edge36_Node000024_Node000026" class="edge">
<title>Node24&#45;&gt;Node26</title>
<g id="a_edge36_Node000024_Node000026"><a xlink:title=" ">
<path fill="none" stroke="#63b8ff" d="M303.65,-50.3C326.13,-50.66 352.87,-51.09 376.82,-51.47"/>
<polygon fill="#63b8ff" stroke="#63b8ff" points="376.84,-54.97 386.89,-51.63 376.95,-47.97 376.84,-54.97"/>
</a>
</g>
</g>
<!-- Node27&#45;&gt;Node23 -->
<g id="edge38_Node000027_Node000023" class="edge">
<title>Node27&#45;&gt;Node23</title>
<g id="a_edge38_Node000027_Node000023"><a xlink:title=" ">
<path fill="none" stroke="#63b8ff" d="M305.9,-135.02C328.64,-139.11 355.4,-143.92 379.14,-148.19"/>
<polygon fill="#63b8ff" stroke="#63b8ff" points="378.65,-151.66 389.11,-149.99 379.89,-144.77 378.65,-151.66"/>
</a>
</g>
</g>
<!-- Node27&#45;&gt;Node28 -->
<g id="edge39_Node000027_Node000028" class="edge">
<title>Node27&#45;&gt;Node28</title>
<g id="a_edge39_Node000027_Node000028"><a xlink:title=" ">
<path fill="none" stroke="#63b8ff" d="M311.25,-121.19C330.46,-119.76 352.02,-118.17 372.01,-116.68"/>
<polygon fill="#63b8ff" stroke="#63b8ff" points="372.27,-120.17 381.99,-115.95 371.75,-113.19 372.27,-120.17"/>
</a>
</g>
</g>
<!-- Node29&#45;&gt;Node23 -->
<g id="edge41_Node000029_Node000023" class="edge">
<title>Node29&#45;&gt;Node23</title>
<g id="a_edge41_Node000029_Node000023"><a xlink:title=" ">
<path fill="none" stroke="#63b8ff" d="M309.71,-161.6C331.11,-161.26 355.61,-160.87 377.66,-160.52"/>
<polygon fill="#63b8ff" stroke="#63b8ff" points="377.98,-164.02 387.93,-160.36 377.87,-157.02 377.98,-164.02"/>
</a>
</g>
</g>
</g>
</svg>
