<?xml version="1.0" encoding="UTF-8" standalone="no"?>
<!DOCTYPE svg PUBLIC "-//W3C//DTD SVG 1.1//EN"
 "http://www.w3.org/Graphics/SVG/1.1/DTD/svg11.dtd">
<!-- Generated by graphviz version 2.43.0 (0)
 -->
<!-- Title: HighLevelEnergyCalculator::calculate_high_level_energy Pages: 1 -->
<svg width="754pt" height="450pt"
 viewBox="0.00 0.00 754.00 450.00" xmlns="http://www.w3.org/2000/svg" xmlns:xlink="http://www.w3.org/1999/xlink">
<g id="graph0" class="graph" transform="scale(1 1) rotate(0) translate(4 446)">
<title>HighLevelEnergyCalculator::calculate_high_level_energy</title>
<!-- Node1 -->
<g id="Node000001" class="node">
<title>Node1</title>
<g id="a_Node000001"><a xlink:title="Calculate high&#45;level energy for a single file.">
<polygon fill="#999999" stroke="#666666" points="161,-236 0,-236 0,-206 161,-206 161,-236"/>
<text text-anchor="start" x="8" y="-224" font-family="Helvetica,sans-Serif" font-size="10.00">HighLevelEnergyCalculator</text>
<text text-anchor="middle" x="80.5" y="-213" font-family="Helvetica,sans-Serif" font-size="10.00">::calculate_high_level_energy</text>
</a>
</g>
</g>
<!-- Node2 -->
<g id="Node000002" class="node">
<title>Node2</title>
<g id="a_Node000002"><a xlink:href="group__CalculationHelpers.html#ga77837f5437ca34aa38ba7c9518d85480" target="_top" xlink:title="Calculate phase correction for concentration effects.">
<polygon fill="white" stroke="#666666" points="364,-442 209,-442 209,-412 364,-412 364,-442"/>
<text text-anchor="start" x="217" y="-430" font-family="Helvetica,sans-Serif" font-size="10.00">HighLevelEnergyCalculator</text>
<text text-anchor="middle" x="286.5" y="-419" font-family="Helvetica,sans-Serif" font-size="10.00">::calculate_phase_correction</text>
</a>
</g>
</g>
<!-- Node1&#45;&gt;Node2 -->
<g id="edge1_Node000001_Node000002" class="edge">
<title>Node1&#45;&gt;Node2</title>
<g id="a_edge1_Node000001_Node000002"><a xlink:title=" ">
<path fill="none" stroke="#63b8ff" d="M86.72,-236.15C99.6,-271.2 136.29,-358.27 197,-403 198.87,-404.38 200.82,-405.68 202.83,-406.91"/>
<polygon fill="#63b8ff" stroke="#63b8ff" points="201.51,-410.17 211.98,-411.82 204.83,-404.01 201.51,-410.17"/>
</a>
</g>
</g>
<!-- Node3 -->
<g id="Node000003" class="node">
<title>Node3</title>
<g id="a_Node000003"><a xlink:href="group__CalculationHelpers.html#ga375d0ec0aea5fde065c700c0d4ef8a62" target="_top" xlink:title="Calculate thermal correction excluding zero&#45;point energy.">
<polygon fill="white" stroke="#666666" points="361,-394 212,-394 212,-364 361,-364 361,-394"/>
<text text-anchor="start" x="220" y="-382" font-family="Helvetica,sans-Serif" font-size="10.00">HighLevelEnergyCalculator</text>
<text text-anchor="middle" x="286.5" y="-371" font-family="Helvetica,sans-Serif" font-size="10.00">::calculate_thermal_only</text>
</a>
</g>
</g>
<!-- Node1&#45;&gt;Node3 -->
<g id="edge2_Node000001_Node000003" class="edge">
<title>Node1&#45;&gt;Node3</title>
<g id="a_edge2_Node000001_Node000003"><a xlink:title=" ">
<path fill="none" stroke="#63b8ff" d="M90.19,-236.04C107.08,-263.91 147.1,-323.57 197,-355 199.61,-356.64 202.33,-358.18 205.13,-359.61"/>
<polygon fill="#63b8ff" stroke="#63b8ff" points="203.77,-362.83 214.31,-363.82 206.69,-356.47 203.77,-362.83"/>
</a>
</g>
</g>
<!-- Node4 -->
<g id="Node000004" class="node">
<title>Node4</title>
<g id="a_Node000004"><a xlink:href="group__CalculationHelpers.html#ga94758e5fb907b423285c3b2c2ba8ee97" target="_top" xlink:title="Determine job completion status from log file.">
<polygon fill="white" stroke="#666666" points="361,-346 212,-346 212,-316 361,-316 361,-346"/>
<text text-anchor="start" x="220" y="-334" font-family="Helvetica,sans-Serif" font-size="10.00">HighLevelEnergyCalculator</text>
<text text-anchor="middle" x="286.5" y="-323" font-family="Helvetica,sans-Serif" font-size="10.00">::determine_job_status</text>
</a>
</g>
</g>
<!-- Node1&#45;&gt;Node4 -->
<g id="edge3_Node000001_Node000004" class="edge">
<title>Node1&#45;&gt;Node4</title>
<g id="a_edge3_Node000001_Node000004"><a xlink:title=" ">
<path fill="none" stroke="#63b8ff" d="M99.63,-236.29C121.51,-254.11 159.99,-283.47 197,-302 204.77,-305.89 213.19,-309.43 221.62,-312.59"/>
<polygon fill="#63b8ff" stroke="#63b8ff" points="220.54,-315.91 231.13,-315.99 222.9,-309.32 220.54,-315.91"/>
</a>
</g>
</g>
<!-- Node7 -->
<g id="Node000007" class="node">
<title>Node7</title>
<g id="a_Node000007"><a xlink:href="group__EnergyExtraction.html#gaa64c4afe3577a5e147f0c3837d10a021" target="_top" xlink:title="Extract thermal correction data from low&#45;level calculation.">
<polygon fill="white" stroke="#666666" points="376,-212 197,-212 197,-182 376,-182 376,-212"/>
<text text-anchor="start" x="205" y="-200" font-family="Helvetica,sans-Serif" font-size="10.00">HighLevelEnergyCalculator</text>
<text text-anchor="middle" x="286.5" y="-189" font-family="Helvetica,sans-Serif" font-size="10.00">::extract_low_level_thermal_data</text>
</a>
</g>
</g>
<!-- Node1&#45;&gt;Node7 -->
<g id="edge6_Node000001_Node000007" class="edge">
<title>Node1&#45;&gt;Node7</title>
<g id="a_edge6_Node000001_Node000007"><a xlink:title=" ">
<path fill="none" stroke="#63b8ff" d="M161.25,-211.62C169.6,-210.64 178.16,-209.63 186.7,-208.62"/>
<polygon fill="#63b8ff" stroke="#63b8ff" points="187.16,-212.09 196.69,-207.45 186.35,-205.14 187.16,-212.09"/>
</a>
</g>
</g>
<!-- Node8 -->
<g id="Node000008" class="node">
<title>Node8</title>
<g id="a_Node000008"><a xlink:href="group__EnergyExtraction.html#ga42389d55a3f27a4e7f077a16d956b957" target="_top" xlink:title="Extract specific energy value from log file using pattern matching.">
<polygon fill="white" stroke="#666666" points="561,-116 412,-116 412,-86 561,-86 561,-116"/>
<text text-anchor="start" x="420" y="-104" font-family="Helvetica,sans-Serif" font-size="10.00">HighLevelEnergyCalculator</text>
<text text-anchor="middle" x="486.5" y="-93" font-family="Helvetica,sans-Serif" font-size="10.00">::extract_value_from_file</text>
</a>
</g>
</g>
<!-- Node1&#45;&gt;Node8 -->
<g id="edge18_Node000001_Node000008" class="edge">
<title>Node1&#45;&gt;Node8</title>
<g id="a_edge18_Node000001_Node000008"><a xlink:title=" ">
<path fill="none" stroke="#63b8ff" d="M113.27,-205.93C136.15,-195.54 167.97,-182.03 197,-173 274.66,-148.85 297.3,-155.52 376,-135 393.87,-130.34 413.17,-124.59 430.52,-119.15"/>
<polygon fill="#63b8ff" stroke="#63b8ff" points="432.01,-122.36 440.48,-116 429.89,-115.68 432.01,-122.36"/>
</a>
</g>
</g>
<!-- Node13 -->
<g id="Node000013" class="node">
<title>Node13</title>
<g id="a_Node000013"><a xlink:href="group__CalculationHelpers.html#ga32a761d03cac358dbe6d17dccf3c3ec3" target="_top" xlink:title="Extract lowest vibrational frequency from parent file.">
<polygon fill="white" stroke="#666666" points="361,-260 212,-260 212,-230 361,-230 361,-260"/>
<text text-anchor="start" x="220" y="-248" font-family="Helvetica,sans-Serif" font-size="10.00">HighLevelEnergyCalculator</text>
<text text-anchor="middle" x="286.5" y="-237" font-family="Helvetica,sans-Serif" font-size="10.00">::extract_lowest_frequency</text>
</a>
</g>
</g>
<!-- Node1&#45;&gt;Node13 -->
<g id="edge13_Node000001_Node000013" class="edge">
<title>Node1&#45;&gt;Node13</title>
<g id="a_edge13_Node000001_Node000013"><a xlink:title=" ">
<path fill="none" stroke="#63b8ff" d="M161.25,-230.38C174.52,-231.94 188.31,-233.57 201.68,-235.14"/>
<polygon fill="#63b8ff" stroke="#63b8ff" points="201.46,-238.64 211.8,-236.33 202.28,-231.69 201.46,-238.64"/>
</a>
</g>
</g>
<!-- Node16 -->
<g id="Node000016" class="node">
<title>Node16</title>
<g id="a_Node000016"><a xlink:href="group__FileUtilities.html#ga6dd8fb2393bb29704be0e92003989e45" target="_top" xlink:title="Read complete file content.">
<polygon fill="white" stroke="#666666" points="561,-356 412,-356 412,-326 561,-326 561,-356"/>
<text text-anchor="start" x="420" y="-344" font-family="Helvetica,sans-Serif" font-size="10.00">HighLevelEnergyCalculator</text>
<text text-anchor="middle" x="486.5" y="-333" font-family="Helvetica,sans-Serif" font-size="10.00">::read_file_content</text>
</a>
</g>
</g>
<!-- Node1&#45;&gt;Node16 -->
<g id="edge20_Node000001_Node000016" class="edge">
<title>Node1&#45;&gt;Node16</title>
<g id="a_edge20_Node000001_Node000016"><a xlink:title=" ">
<path fill="none" stroke="#63b8ff" d="M113.27,-236.07C136.15,-246.46 167.97,-259.97 197,-269 274.66,-293.15 297.3,-286.48 376,-307 393.87,-311.66 413.17,-317.41 430.52,-322.85"/>
<polygon fill="#63b8ff" stroke="#63b8ff" points="429.89,-326.32 440.48,-326 432.01,-319.64 429.89,-326.32"/>
</a>
</g>
</g>
<!-- Node17 -->
<g id="Node000017" class="node">
<title>Node17</title>
<g id="a_Node000017"><a xlink:href="group__FileUtilities.html#ga181c65f6b55859249f23a68e2f64f4bf" target="_top" xlink:title="Get corresponding parent directory file path.">
<polygon fill="white" stroke="#666666" points="361,-126 212,-126 212,-96 361,-96 361,-126"/>
<text text-anchor="start" x="220" y="-114" font-family="Helvetica,sans-Serif" font-size="10.00">HighLevelEnergyCalculator</text>
<text text-anchor="middle" x="286.5" y="-103" font-family="Helvetica,sans-Serif" font-size="10.00">::get_parent_file</text>
</a>
</g>
</g>
<!-- Node1&#45;&gt;Node17 -->
<g id="edge19_Node000001_Node000017" class="edge">
<title>Node1&#45;&gt;Node17</title>
<g id="a_edge19_Node000001_Node000017"><a xlink:title=" ">
<path fill="none" stroke="#63b8ff" d="M99.63,-205.71C121.51,-187.89 159.99,-158.53 197,-140 204.77,-136.11 213.19,-132.57 221.62,-129.41"/>
<polygon fill="#63b8ff" stroke="#63b8ff" points="222.9,-132.68 231.13,-126.01 220.54,-126.09 222.9,-132.68"/>
</a>
</g>
</g>
<!-- Node18 -->
<g id="Node000018" class="node">
<title>Node18</title>
<g id="a_Node000018"><a xlink:href="group__SafetyHelpers.html#ga1ecdc84dce43277ebe3c068b66d2836a" target="_top" xlink:title="Safe file reading with memory and handle management.">
<polygon fill="white" stroke="#666666" points="361,-78 212,-78 212,-48 361,-48 361,-78"/>
<text text-anchor="start" x="220" y="-66" font-family="Helvetica,sans-Serif" font-size="10.00">HighLevelEnergyCalculator</text>
<text text-anchor="middle" x="286.5" y="-55" font-family="Helvetica,sans-Serif" font-size="10.00">::safe_read_file</text>
</a>
</g>
</g>
<!-- Node1&#45;&gt;Node18 -->
<g id="edge21_Node000001_Node000018" class="edge">
<title>Node1&#45;&gt;Node18</title>
<g id="a_edge21_Node000001_Node000018"><a xlink:title=" ">
<path fill="none" stroke="#63b8ff" d="M90.19,-205.96C107.08,-178.09 147.1,-118.43 197,-87 199.61,-85.36 202.33,-83.82 205.13,-82.39"/>
<polygon fill="#63b8ff" stroke="#63b8ff" points="206.69,-85.53 214.31,-78.18 203.77,-79.17 206.69,-85.53"/>
</a>
</g>
</g>
<!-- Node19 -->
<g id="Node000019" class="node">
<title>Node19</title>
<g id="a_Node000019"><a xlink:href="group__ValidationUtils.html#gabe3d651ced16adc942b77bd92be3116a" target="_top" xlink:title="Validate complete energy data structure for consistency.">
<polygon fill="white" stroke="#666666" points="350.5,-30 222.5,-30 222.5,0 350.5,0 350.5,-30"/>
<text text-anchor="start" x="230.5" y="-18" font-family="Helvetica,sans-Serif" font-size="10.00">HighLevelEnergyUtils</text>
<text text-anchor="middle" x="286.5" y="-7" font-family="Helvetica,sans-Serif" font-size="10.00">::validate_energy_data</text>
</a>
</g>
</g>
<!-- Node1&#45;&gt;Node19 -->
<g id="edge22_Node000001_Node000019" class="edge">
<title>Node1&#45;&gt;Node19</title>
<g id="a_edge22_Node000001_Node000019"><a xlink:title=" ">
<path fill="none" stroke="#63b8ff" d="M86.72,-205.85C99.6,-170.8 136.29,-83.73 197,-39 201.84,-35.43 207.19,-32.39 212.78,-29.81"/>
<polygon fill="#63b8ff" stroke="#63b8ff" points="214.45,-32.9 222.37,-25.86 211.79,-26.43 214.45,-32.9"/>
</a>
</g>
</g>
<!-- Node5 -->
<g id="Node000005" class="node">
<title>Node5</title>
<g id="a_Node000005"><a xlink:href="group__FileUtilities.html#ga013cf7e36016b0531852c469c9bc98b7" target="_top" xlink:title="Read last N lines from file.">
<polygon fill="white" stroke="#666666" points="561,-404 412,-404 412,-374 561,-374 561,-404"/>
<text text-anchor="start" x="420" y="-392" font-family="Helvetica,sans-Serif" font-size="10.00">HighLevelEnergyCalculator</text>
<text text-anchor="middle" x="486.5" y="-381" font-family="Helvetica,sans-Serif" font-size="10.00">::read_file_tail</text>
</a>
</g>
</g>
<!-- Node4&#45;&gt;Node5 -->
<g id="edge4_Node000004_Node000005" class="edge">
<title>Node4&#45;&gt;Node5</title>
<g id="a_edge4_Node000004_Node000005"><a xlink:title=" ">
<path fill="none" stroke="#63b8ff" d="M344.24,-346.06C354.82,-348.96 365.76,-352.02 376,-355 393.18,-359.99 411.79,-365.67 428.71,-370.94"/>
<polygon fill="#63b8ff" stroke="#63b8ff" points="427.86,-374.34 438.45,-373.98 429.95,-367.66 427.86,-374.34"/>
</a>
</g>
</g>
<!-- Node6 -->
<g id="Node000006" class="node">
<title>Node6</title>
<g id="a_Node000006"><a xlink:href="classFileContentCache.html#affecb88aac28ec372fe984ab6ec0279c" target="_top" xlink:title=" ">
<polygon fill="white" stroke="#666666" points="733.5,-356 609.5,-356 609.5,-326 733.5,-326 733.5,-356"/>
<text text-anchor="start" x="617.5" y="-344" font-family="Helvetica,sans-Serif" font-size="10.00">FileContentCache::get</text>
<text text-anchor="middle" x="671.5" y="-333" font-family="Helvetica,sans-Serif" font-size="10.00">_or_read</text>
</a>
</g>
</g>
<!-- Node5&#45;&gt;Node6 -->
<g id="edge5_Node000005_Node000006" class="edge">
<title>Node5&#45;&gt;Node6</title>
<g id="a_edge5_Node000005_Node000006"><a xlink:title=" ">
<path fill="none" stroke="#63b8ff" d="M544.9,-373.94C563.47,-369.07 584.22,-363.63 603.42,-358.59"/>
<polygon fill="#63b8ff" stroke="#63b8ff" points="604.52,-361.93 613.3,-356 602.74,-355.15 604.52,-361.93"/>
</a>
</g>
</g>
<!-- Node7&#45;&gt;Node8 -->
<g id="edge7_Node000007_Node000008" class="edge">
<title>Node7&#45;&gt;Node8</title>
<g id="a_edge7_Node000007_Node000008"><a xlink:title=" ">
<path fill="none" stroke="#63b8ff" d="M348.64,-181.96C358.23,-178.22 367.7,-173.62 376,-168 396.64,-154.03 391.35,-138.96 412,-125 414.27,-123.47 416.64,-122.03 419.09,-120.67"/>
<polygon fill="#63b8ff" stroke="#63b8ff" points="420.81,-123.72 428.21,-116.14 417.7,-117.45 420.81,-123.72"/>
</a>
</g>
</g>
<!-- Node11 -->
<g id="Node000011" class="node">
<title>Node11</title>
<g id="a_Node000011"><a xlink:href="group__FileUtilities.html#gaa54ff385e8b08bff4fc34ec915a3ff8d" target="_top" xlink:title="Check if file exists and is accessible.">
<polygon fill="white" stroke="#666666" points="561,-164 412,-164 412,-134 561,-134 561,-164"/>
<text text-anchor="start" x="420" y="-152" font-family="Helvetica,sans-Serif" font-size="10.00">HighLevelEnergyCalculator</text>
<text text-anchor="middle" x="486.5" y="-141" font-family="Helvetica,sans-Serif" font-size="10.00">::file_exists</text>
</a>
</g>
</g>
<!-- Node7&#45;&gt;Node11 -->
<g id="edge11_Node000007_Node000011" class="edge">
<title>Node7&#45;&gt;Node11</title>
<g id="a_edge11_Node000007_Node000011"><a xlink:title=" ">
<path fill="none" stroke="#63b8ff" d="M349.61,-181.94C369.97,-177.01 392.76,-171.48 413.78,-166.39"/>
<polygon fill="#63b8ff" stroke="#63b8ff" points="414.72,-169.76 423.62,-164 413.07,-162.96 414.72,-169.76"/>
</a>
</g>
</g>
<!-- Node12 -->
<g id="Node000012" class="node">
<title>Node12</title>
<g id="a_Node000012"><a xlink:href="group__ValidationUtils.html#gad41dd357e75a3c0219b5ed3a6b964aa6" target="_top" xlink:title="Validate temperature value for physical reasonableness.">
<polygon fill="white" stroke="#666666" points="550.5,-212 422.5,-212 422.5,-182 550.5,-182 550.5,-212"/>
<text text-anchor="start" x="430.5" y="-200" font-family="Helvetica,sans-Serif" font-size="10.00">HighLevelEnergyUtils</text>
<text text-anchor="middle" x="486.5" y="-189" font-family="Helvetica,sans-Serif" font-size="10.00">::validate_temperature</text>
</a>
</g>
</g>
<!-- Node7&#45;&gt;Node12 -->
<g id="edge12_Node000007_Node000012" class="edge">
<title>Node7&#45;&gt;Node12</title>
<g id="a_edge12_Node000007_Node000012"><a xlink:title=" ">
<path fill="none" stroke="#63b8ff" d="M376.08,-197C388.18,-197 400.5,-197 412.29,-197"/>
<polygon fill="#63b8ff" stroke="#63b8ff" points="412.49,-200.5 422.49,-197 412.49,-193.5 412.49,-200.5"/>
</a>
</g>
</g>
<!-- Node8&#45;&gt;Node6 -->
<g id="edge9_Node000008_Node000006" class="edge">
<title>Node8&#45;&gt;Node6</title>
<g id="a_edge9_Node000008_Node000006"><a xlink:title=" ">
<path fill="none" stroke="#63b8ff" d="M547.83,-116.15C552.56,-118.67 557.03,-121.59 561,-125 621.88,-177.18 652.82,-271.49 664.65,-316.2"/>
<polygon fill="#63b8ff" stroke="#63b8ff" points="661.27,-317.12 667.13,-325.95 668.05,-315.4 661.27,-317.12"/>
</a>
</g>
</g>
<!-- Node9 -->
<g id="Node000009" class="node">
<title>Node9</title>
<g id="a_Node000009"><a xlink:href="structRegexPatterns.html#aeb75344b6b563c17108dbfaf60f486cc" target="_top" xlink:title=" ">
<polygon fill="white" stroke="#666666" points="726,-140 617,-140 617,-110 726,-110 726,-140"/>
<text text-anchor="start" x="625" y="-128" font-family="Helvetica,sans-Serif" font-size="10.00">RegexPatterns::get</text>
<text text-anchor="middle" x="671.5" y="-117" font-family="Helvetica,sans-Serif" font-size="10.00">_instance</text>
</a>
</g>
</g>
<!-- Node8&#45;&gt;Node9 -->
<g id="edge8_Node000008_Node000009" class="edge">
<title>Node8&#45;&gt;Node9</title>
<g id="a_edge8_Node000008_Node000009"><a xlink:title=" ">
<path fill="none" stroke="#63b8ff" d="M561.14,-110.66C576.31,-112.65 592.17,-114.73 606.94,-116.66"/>
<polygon fill="#63b8ff" stroke="#63b8ff" points="606.61,-120.15 616.98,-117.98 607.52,-113.21 606.61,-120.15"/>
</a>
</g>
</g>
<!-- Node10 -->
<g id="Node000010" class="node">
<title>Node10</title>
<g id="a_Node000010"><a xlink:href="group__SafetyHelpers.html#gaf25036f89725288871b9d856ca5f76ba" target="_top" xlink:title="Safe energy value parsing with validation.">
<polygon fill="white" stroke="#666666" points="746,-92 597,-92 597,-62 746,-62 746,-92"/>
<text text-anchor="start" x="605" y="-80" font-family="Helvetica,sans-Serif" font-size="10.00">HighLevelEnergyCalculator</text>
<text text-anchor="middle" x="671.5" y="-69" font-family="Helvetica,sans-Serif" font-size="10.00">::safe_parse_energy</text>
</a>
</g>
</g>
<!-- Node8&#45;&gt;Node10 -->
<g id="edge10_Node000008_Node000010" class="edge">
<title>Node8&#45;&gt;Node10</title>
<g id="a_edge10_Node000008_Node000010"><a xlink:title=" ">
<path fill="none" stroke="#63b8ff" d="M561.14,-91.34C569.57,-90.24 578.2,-89.11 586.74,-87.98"/>
<polygon fill="#63b8ff" stroke="#63b8ff" points="587.25,-91.45 596.71,-86.68 586.34,-84.51 587.25,-91.45"/>
</a>
</g>
</g>
<!-- Node14 -->
<g id="Node000014" class="node">
<title>Node14</title>
<g id="a_Node000014"><a xlink:href="group__EnergyParsingUtils.html#ga95f6c769f275d3b7659d6f379b106b51" target="_top" xlink:title="Extract all vibrational frequencies from log file content.">
<polygon fill="white" stroke="#666666" points="547.5,-260 425.5,-260 425.5,-230 547.5,-230 547.5,-260"/>
<text text-anchor="start" x="433.5" y="-248" font-family="Helvetica,sans-Serif" font-size="10.00">HighLevelEnergyUtils</text>
<text text-anchor="middle" x="486.5" y="-237" font-family="Helvetica,sans-Serif" font-size="10.00">::extract_frequencies</text>
</a>
</g>
</g>
<!-- Node13&#45;&gt;Node14 -->
<g id="edge14_Node000013_Node000014" class="edge">
<title>Node13&#45;&gt;Node14</title>
<g id="a_edge14_Node000013_Node000014"><a xlink:title=" ">
<path fill="none" stroke="#63b8ff" d="M361.23,-245C378.87,-245 397.67,-245 415.16,-245"/>
<polygon fill="#63b8ff" stroke="#63b8ff" points="415.29,-248.5 425.29,-245 415.29,-241.5 415.29,-248.5"/>
</a>
</g>
</g>
<!-- Node15 -->
<g id="Node000015" class="node">
<title>Node15</title>
<g id="a_Node000015"><a xlink:href="group__EnergyParsingUtils.html#gaf1573e500ba7a88a65e5ccf978c00621" target="_top" xlink:title="Find lowest frequency from frequency list.">
<polygon fill="white" stroke="#666666" points="552.5,-308 420.5,-308 420.5,-278 552.5,-278 552.5,-308"/>
<text text-anchor="start" x="428.5" y="-296" font-family="Helvetica,sans-Serif" font-size="10.00">HighLevelEnergyUtils</text>
<text text-anchor="middle" x="486.5" y="-285" font-family="Helvetica,sans-Serif" font-size="10.00">::find_lowest_frequency</text>
</a>
</g>
</g>
<!-- Node13&#45;&gt;Node15 -->
<g id="edge15_Node000013_Node000015" class="edge">
<title>Node13&#45;&gt;Node15</title>
<g id="a_edge15_Node000013_Node000015"><a xlink:title=" ">
<path fill="none" stroke="#63b8ff" d="M349.61,-260.06C369.97,-264.99 392.76,-270.52 413.78,-275.61"/>
<polygon fill="#63b8ff" stroke="#63b8ff" points="413.07,-279.04 423.62,-278 414.72,-272.24 413.07,-279.04"/>
</a>
</g>
</g>
<!-- Node13&#45;&gt;Node16 -->
<g id="edge16_Node000013_Node000016" class="edge">
<title>Node13&#45;&gt;Node16</title>
<g id="a_edge16_Node000013_Node000016"><a xlink:title=" ">
<path fill="none" stroke="#63b8ff" d="M348.64,-260.04C358.23,-263.78 367.7,-268.38 376,-274 396.64,-287.97 391.35,-303.04 412,-317 414.27,-318.53 416.64,-319.97 419.09,-321.33"/>
<polygon fill="#63b8ff" stroke="#63b8ff" points="417.7,-324.55 428.21,-325.86 420.81,-318.28 417.7,-324.55"/>
</a>
</g>
</g>
<!-- Node16&#45;&gt;Node6 -->
<g id="edge17_Node000016_Node000006" class="edge">
<title>Node16&#45;&gt;Node6</title>
<g id="a_edge17_Node000016_Node000006"><a xlink:title=" ">
<path fill="none" stroke="#63b8ff" d="M561.14,-341C573.63,-341 586.59,-341 599.02,-341"/>
<polygon fill="#63b8ff" stroke="#63b8ff" points="599.33,-344.5 609.33,-341 599.33,-337.5 599.33,-344.5"/>
</a>
</g>
</g>
</g>
</svg>
