<?xml version="1.0" encoding="UTF-8" standalone="no"?>
<!DOCTYPE svg PUBLIC "-//W3C//DTD SVG 1.1//EN"
 "http://www.w3.org/Graphics/SVG/1.1/DTD/svg11.dtd">
<!-- Generated by graphviz version 2.43.0 (0)
 -->
<!-- Title: ConfigManager::get_size_t Pages: 1 -->
<svg width="1032pt" height="215pt"
 viewBox="0.00 0.00 1032.00 215.00" xmlns="http://www.w3.org/2000/svg" xmlns:xlink="http://www.w3.org/1999/xlink">
<g id="graph0" class="graph" transform="scale(1 1) rotate(0) translate(4 211)">
<title>ConfigManager::get_size_t</title>
<!-- Node1 -->
<g id="Node000001" class="node">
<title>Node1</title>
<g id="a_Node000001"><a xlink:title="Get size_t configuration value.">
<polygon fill="#999999" stroke="#666666" points="1024,-164 912,-164 912,-134 1024,-134 1024,-164"/>
<text text-anchor="start" x="920" y="-152" font-family="Helvetica,sans-Serif" font-size="10.00">ConfigManager::get</text>
<text text-anchor="middle" x="968" y="-141" font-family="Helvetica,sans-Serif" font-size="10.00">_size_t</text>
</a>
</g>
</g>
<!-- Node1&#45;&gt;Node1 -->
<g id="edge10_Node000001_Node000001" class="edge">
<title>Node1&#45;&gt;Node1</title>
<g id="a_edge10_Node000001_Node000001"><a xlink:title=" ">
<path fill="none" stroke="#63b8ff" d="M996.01,-174.6C992.18,-178.97 982.84,-182 968,-182 943,-182 933.62,-173.41 939.88,-164.28"/>
<polygon fill="#63b8ff" stroke="#63b8ff" points="999.51,-174.32 996.12,-164.28 992.51,-174.23 999.51,-174.32"/>
</a>
</g>
</g>
<!-- Node2 -->
<g id="Node000002" class="node">
<title>Node2</title>
<g id="a_Node000002"><a xlink:href="group__CommandExecutors.html#ga9fcc8aa9bb1408d529764d3767029d02" target="_top" xlink:title="Apply configuration values to command context.">
<polygon fill="white" stroke="#666666" points="704,-207 574,-207 574,-177 704,-177 704,-207"/>
<text text-anchor="start" x="582" y="-195" font-family="Helvetica,sans-Serif" font-size="10.00">CommandParser::apply</text>
<text text-anchor="middle" x="639" y="-184" font-family="Helvetica,sans-Serif" font-size="10.00">_config_to_context</text>
</a>
</g>
</g>
<!-- Node1&#45;&gt;Node2 -->
<g id="edge1_Node000001_Node000002" class="edge">
<title>Node1&#45;&gt;Node2</title>
<g id="a_edge1_Node000001_Node000002"><a xlink:title=" ">
<path fill="none" stroke="#63b8ff" d="M906.39,-166.58C896.3,-169.05 885.91,-171.31 876,-173 818.36,-182.84 751.91,-187.61 704.24,-189.91"/>
<polygon fill="#63b8ff" stroke="#63b8ff" points="907.5,-169.91 916.33,-164.07 905.78,-163.12 907.5,-169.91"/>
</a>
</g>
</g>
<!-- Node6 -->
<g id="Node000006" class="node">
<title>Node6</title>
<g id="a_Node000006"><a xlink:href="group__ConfigConvenience.html#ga57026ab5b8fe240a9a7269d6ba70c172" target="_top" xlink:title="Get default maximum file size limit.">
<polygon fill="white" stroke="#666666" points="872,-164 744,-164 744,-134 872,-134 872,-164"/>
<text text-anchor="start" x="752" y="-152" font-family="Helvetica,sans-Serif" font-size="10.00">ConfigManager::get</text>
<text text-anchor="middle" x="808" y="-141" font-family="Helvetica,sans-Serif" font-size="10.00">_default_max_file_size</text>
</a>
</g>
</g>
<!-- Node1&#45;&gt;Node6 -->
<g id="edge6_Node000001_Node000006" class="edge">
<title>Node1&#45;&gt;Node6</title>
<g id="a_edge6_Node000001_Node000006"><a xlink:title=" ">
<path fill="none" stroke="#63b8ff" d="M901.67,-149C891.88,-149 881.81,-149 872.07,-149"/>
<polygon fill="#63b8ff" stroke="#63b8ff" points="901.74,-152.5 911.74,-149 901.74,-145.5 901.74,-152.5"/>
</a>
</g>
</g>
<!-- Node8 -->
<g id="Node000008" class="node">
<title>Node8</title>
<g id="a_Node000008"><a xlink:href="group__ConfigValidation.html#ga3b0a3320c46ed448da49cea015ea4b31" target="_top" xlink:title="Validate all configuration values for correctness and consistency.">
<polygon fill="white" stroke="#666666" points="876,-95 740,-95 740,-65 876,-65 876,-95"/>
<text text-anchor="start" x="748" y="-83" font-family="Helvetica,sans-Serif" font-size="10.00">ConfigManager::validate</text>
<text text-anchor="middle" x="808" y="-72" font-family="Helvetica,sans-Serif" font-size="10.00">_config</text>
</a>
</g>
</g>
<!-- Node1&#45;&gt;Node8 -->
<g id="edge11_Node000001_Node000008" class="edge">
<title>Node1&#45;&gt;Node8</title>
<g id="a_edge11_Node000001_Node000008"><a xlink:title=" ">
<path fill="none" stroke="#63b8ff" d="M923.03,-129.8C897.94,-118.84 866.93,-105.3 843.59,-95.11"/>
<polygon fill="#63b8ff" stroke="#63b8ff" points="921.76,-133.06 932.33,-133.86 924.56,-126.65 921.76,-133.06"/>
</a>
</g>
</g>
<!-- Node3 -->
<g id="Node000003" class="node">
<title>Node3</title>
<g id="a_Node000003"><a xlink:href="group__CommandExecutors.html#ga2c1ceafe241a0b4e19790bb5d878ed1a" target="_top" xlink:title="Parse command&#45;line arguments and create execution context.">
<polygon fill="white" stroke="#666666" points="359,-150.5 229,-150.5 229,-131.5 359,-131.5 359,-150.5"/>
<text text-anchor="middle" x="294" y="-138.5" font-family="Helvetica,sans-Serif" font-size="10.00">CommandParser::parse</text>
</a>
</g>
</g>
<!-- Node2&#45;&gt;Node3 -->
<g id="edge2_Node000002_Node000003" class="edge">
<title>Node2&#45;&gt;Node3</title>
<g id="a_edge2_Node000002_Node000003"><a xlink:title=" ">
<path fill="none" stroke="#63b8ff" d="M563.67,-190.64C515.25,-188.66 450.92,-183.98 395,-173 368.53,-167.8 339.24,-157.92 319.24,-150.51"/>
<polygon fill="#63b8ff" stroke="#63b8ff" points="563.63,-194.14 573.75,-191.02 563.89,-187.15 563.63,-194.14"/>
</a>
</g>
</g>
<!-- Node4 -->
<g id="Node000004" class="node">
<title>Node4</title>
<g id="a_Node000004"><a xlink:href="main_8cpp.html#a0ddf1224851353fc92bfbff6f499fa97" target="_top" xlink:title="Main entry point for the Gaussian Extractor application.">
<polygon fill="white" stroke="#666666" points="41,-112.5 0,-112.5 0,-93.5 41,-93.5 41,-112.5"/>
<text text-anchor="middle" x="20.5" y="-100.5" font-family="Helvetica,sans-Serif" font-size="10.00">main</text>
</a>
</g>
</g>
<!-- Node3&#45;&gt;Node4 -->
<g id="edge3_Node000003_Node000004" class="edge">
<title>Node3&#45;&gt;Node4</title>
<g id="a_edge3_Node000003_Node000004"><a xlink:title=" ">
<path fill="none" stroke="#63b8ff" d="M218.53,-138.17C176.62,-135.57 123.52,-130.57 77,-121 64.9,-118.51 51.72,-114.3 41.25,-110.58"/>
<polygon fill="#63b8ff" stroke="#63b8ff" points="218.47,-141.67 228.66,-138.77 218.88,-134.69 218.47,-141.67"/>
</a>
</g>
</g>
<!-- Node5 -->
<g id="Node000005" class="node">
<title>Node5</title>
<g id="a_Node000005"><a xlink:href="interactive__mode_8cpp.html#a6b615c34054150d837dc45ed1c17b297" target="_top" xlink:title="Enhanced interactive command loop with TAB completion for Windows.">
<polygon fill="white" stroke="#666666" points="193,-112.5 77,-112.5 77,-93.5 193,-93.5 193,-112.5"/>
<text text-anchor="middle" x="135" y="-100.5" font-family="Helvetica,sans-Serif" font-size="10.00">run_interactive_loop</text>
</a>
</g>
</g>
<!-- Node3&#45;&gt;Node5 -->
<g id="edge4_Node000003_Node000005" class="edge">
<title>Node3&#45;&gt;Node5</title>
<g id="a_edge4_Node000003_Node000005"><a xlink:title=" ">
<path fill="none" stroke="#63b8ff" d="M243.55,-129.03C221.55,-123.71 196.01,-117.52 175.33,-112.52"/>
<polygon fill="#63b8ff" stroke="#63b8ff" points="242.84,-132.46 253.38,-131.41 244.49,-125.66 242.84,-132.46"/>
</a>
</g>
</g>
<!-- Node5&#45;&gt;Node4 -->
<g id="edge5_Node000005_Node000004" class="edge">
<title>Node5&#45;&gt;Node4</title>
<g id="a_edge5_Node000005_Node000004"><a xlink:title=" ">
<path fill="none" stroke="#63b8ff" d="M66.62,-103C57.37,-103 48.55,-103 41.19,-103"/>
<polygon fill="#63b8ff" stroke="#63b8ff" points="66.76,-106.5 76.76,-103 66.76,-99.5 66.76,-106.5"/>
</a>
</g>
</g>
<!-- Node6&#45;&gt;Node2 -->
<g id="edge7_Node000006_Node000002" class="edge">
<title>Node6&#45;&gt;Node2</title>
<g id="a_edge7_Node000006_Node000002"><a xlink:title=" ">
<path fill="none" stroke="#63b8ff" d="M738.53,-166.63C725.2,-170.06 711.34,-173.63 698.38,-176.97"/>
<polygon fill="#63b8ff" stroke="#63b8ff" points="739.78,-169.92 748.59,-164.04 738.03,-163.14 739.78,-169.92"/>
</a>
</g>
</g>
<!-- Node7 -->
<g id="Node000007" class="node">
<title>Node7</title>
<g id="a_Node000007"><a xlink:href="group__CommandExecutors.html#ga505ef45f36ca4edcad3ba1e6eabca4e6" target="_top" xlink:title="Validate parsed context for consistency and correctness.">
<polygon fill="white" stroke="#666666" points="538,-164 395,-164 395,-134 538,-134 538,-164"/>
<text text-anchor="start" x="403" y="-152" font-family="Helvetica,sans-Serif" font-size="10.00">CommandParser::validate</text>
<text text-anchor="middle" x="466.5" y="-141" font-family="Helvetica,sans-Serif" font-size="10.00">_context</text>
</a>
</g>
</g>
<!-- Node6&#45;&gt;Node7 -->
<g id="edge8_Node000006_Node000007" class="edge">
<title>Node6&#45;&gt;Node7</title>
<g id="a_edge8_Node000006_Node000007"><a xlink:title=" ">
<path fill="none" stroke="#63b8ff" d="M733.75,-149C675.81,-149 595.4,-149 538.14,-149"/>
<polygon fill="#63b8ff" stroke="#63b8ff" points="733.94,-152.5 743.94,-149 733.94,-145.5 733.94,-152.5"/>
</a>
</g>
</g>
<!-- Node7&#45;&gt;Node3 -->
<g id="edge9_Node000007_Node000003" class="edge">
<title>Node7&#45;&gt;Node3</title>
<g id="a_edge9_Node000007_Node000003"><a xlink:title=" ">
<path fill="none" stroke="#63b8ff" d="M384.65,-145.21C376.06,-144.8 367.42,-144.4 359.07,-144.01"/>
<polygon fill="#63b8ff" stroke="#63b8ff" points="384.52,-148.7 394.67,-145.68 384.85,-141.71 384.52,-148.7"/>
</a>
</g>
</g>
<!-- Node9 -->
<g id="Node000009" class="node">
<title>Node9</title>
<g id="a_Node000009"><a xlink:href="group__ConfigLoading.html#gadb55801d91871e98b5c5da2acd289a35" target="_top" xlink:title="Load configuration from file with error handling.">
<polygon fill="white" stroke="#666666" points="697.5,-84 580.5,-84 580.5,-54 697.5,-54 697.5,-84"/>
<text text-anchor="start" x="588.5" y="-72" font-family="Helvetica,sans-Serif" font-size="10.00">ConfigManager::load</text>
<text text-anchor="middle" x="639" y="-61" font-family="Helvetica,sans-Serif" font-size="10.00">_config</text>
</a>
</g>
</g>
<!-- Node8&#45;&gt;Node9 -->
<g id="edge12_Node000008_Node000009" class="edge">
<title>Node8&#45;&gt;Node9</title>
<g id="a_edge12_Node000008_Node000009"><a xlink:title=" ">
<path fill="none" stroke="#63b8ff" d="M729.34,-74.88C718.62,-74.18 707.77,-73.46 697.51,-72.79"/>
<polygon fill="#63b8ff" stroke="#63b8ff" points="729.35,-78.39 739.56,-75.56 729.81,-71.41 729.35,-78.39"/>
</a>
</g>
</g>
<!-- Node9&#45;&gt;Node4 -->
<g id="edge15_Node000009_Node000004" class="edge">
<title>Node9&#45;&gt;Node4</title>
<g id="a_edge15_Node000009_Node000004"><a xlink:title=" ">
<path fill="none" stroke="#63b8ff" d="M570.23,-64.26C464.09,-58.31 252.62,-52.35 77,-84 64.77,-86.2 51.59,-90.62 41.15,-94.64"/>
<polygon fill="#63b8ff" stroke="#63b8ff" points="570.29,-67.77 580.48,-64.86 570.7,-60.79 570.29,-67.77"/>
</a>
</g>
</g>
<!-- Node10 -->
<g id="Node000010" class="node">
<title>Node10</title>
<g id="a_Node000010"><a xlink:href="group__CommandExecutors.html#ga1389de38a8f4d50be08ded6a0240627f" target="_top" xlink:title="Load and initialize configuration system.">
<polygon fill="white" stroke="#666666" points="528.5,-116 404.5,-116 404.5,-86 528.5,-86 528.5,-116"/>
<text text-anchor="start" x="412.5" y="-104" font-family="Helvetica,sans-Serif" font-size="10.00">CommandParser::load</text>
<text text-anchor="middle" x="466.5" y="-93" font-family="Helvetica,sans-Serif" font-size="10.00">_configuration</text>
</a>
</g>
</g>
<!-- Node9&#45;&gt;Node10 -->
<g id="edge13_Node000009_Node000010" class="edge">
<title>Node9&#45;&gt;Node10</title>
<g id="a_edge13_Node000009_Node000010"><a xlink:title=" ">
<path fill="none" stroke="#63b8ff" d="M570.38,-81.69C556.61,-84.28 542.2,-86.98 528.66,-89.52"/>
<polygon fill="#63b8ff" stroke="#63b8ff" points="571.09,-85.12 580.28,-79.83 569.8,-78.24 571.09,-85.12"/>
</a>
</g>
</g>
<!-- Node11 -->
<g id="Node000011" class="node">
<title>Node11</title>
<g id="a_Node000011"><a xlink:href="group__ConfigLoading.html#gad792b6c3fe11b0bd927622b2e0966bf5" target="_top" xlink:title="Reload configuration from the previously loaded file.">
<polygon fill="white" stroke="#666666" points="530,-30 403,-30 403,0 530,0 530,-30"/>
<text text-anchor="start" x="411" y="-18" font-family="Helvetica,sans-Serif" font-size="10.00">ConfigManager::reload</text>
<text text-anchor="middle" x="466.5" y="-7" font-family="Helvetica,sans-Serif" font-size="10.00">_config</text>
</a>
</g>
</g>
<!-- Node9&#45;&gt;Node11 -->
<g id="edge16_Node000009_Node000011" class="edge">
<title>Node9&#45;&gt;Node11</title>
<g id="a_edge16_Node000009_Node000011"><a xlink:title=" ">
<path fill="none" stroke="#63b8ff" d="M580.89,-50.91C559.51,-44.14 535.46,-36.52 515.03,-30.05"/>
<polygon fill="#63b8ff" stroke="#63b8ff" points="579.92,-54.28 590.51,-53.96 582.03,-47.6 579.92,-54.28"/>
</a>
</g>
</g>
<!-- Node10&#45;&gt;Node3 -->
<g id="edge14_Node000010_Node000003" class="edge">
<title>Node10&#45;&gt;Node3</title>
<g id="a_edge14_Node000010_Node000003"><a xlink:title=" ">
<path fill="none" stroke="#63b8ff" d="M394.66,-117.62C374.55,-122.34 353.34,-127.31 335.68,-131.46"/>
<polygon fill="#63b8ff" stroke="#63b8ff" points="395.49,-121.02 404.43,-115.33 393.89,-114.2 395.49,-121.02"/>
</a>
</g>
</g>
</g>
</svg>
