<?xml version="1.0" encoding="UTF-8" standalone="no"?>
<!DOCTYPE svg PUBLIC "-//W3C//DTD SVG 1.1//EN"
 "http://www.w3.org/Graphics/SVG/1.1/DTD/svg11.dtd">
<!-- Generated by graphviz version 2.43.0 (0)
 -->
<!-- Title: MemoryMonitor::get_system_memory_mb Pages: 1 -->
<svg width="1090pt" height="138pt"
 viewBox="0.00 0.00 1090.00 138.00" xmlns="http://www.w3.org/2000/svg" xmlns:xlink="http://www.w3.org/1999/xlink">
<g id="graph0" class="graph" transform="scale(1 1) rotate(0) translate(4 134)">
<title>MemoryMonitor::get_system_memory_mb</title>
<!-- Node1 -->
<g id="Node000001" class="node">
<title>Node1</title>
<g id="a_Node000001"><a xlink:title="Detect system memory capacity.">
<polygon fill="#999999" stroke="#666666" points="1082,-30 957,-30 957,0 1082,0 1082,-30"/>
<text text-anchor="start" x="965" y="-18" font-family="Helvetica,sans-Serif" font-size="10.00">MemoryMonitor::get</text>
<text text-anchor="middle" x="1019.5" y="-7" font-family="Helvetica,sans-Serif" font-size="10.00">_system_memory_mb</text>
</a>
</g>
</g>
<!-- Node2 -->
<g id="Node000002" class="node">
<title>Node2</title>
<g id="a_Node000002"><a xlink:href="group__MemoryMonitorImpl.html#ga7abe435ae05ae753fbf7ef4dfa9ce3ff" target="_top" xlink:title="Calculate optimal memory limit for given thread count.">
<polygon fill="white" stroke="#666666" points="921,-68 776,-68 776,-38 921,-38 921,-68"/>
<text text-anchor="start" x="784" y="-56" font-family="Helvetica,sans-Serif" font-size="10.00">MemoryMonitor::calculate</text>
<text text-anchor="middle" x="848.5" y="-45" font-family="Helvetica,sans-Serif" font-size="10.00">_optimal_memory_limit</text>
</a>
</g>
</g>
<!-- Node1&#45;&gt;Node2 -->
<g id="edge1_Node000001_Node000002" class="edge">
<title>Node1&#45;&gt;Node2</title>
<g id="a_edge1_Node000001_Node000002"><a xlink:title=" ">
<path fill="none" stroke="#63b8ff" d="M946.59,-31.17C936.54,-33.43 926.25,-35.74 916.3,-37.98"/>
<polygon fill="#63b8ff" stroke="#63b8ff" points="947.54,-34.54 956.53,-28.93 946.01,-27.71 947.54,-34.54"/>
</a>
</g>
</g>
<!-- Node9 -->
<g id="Node000009" class="node">
<title>Node9</title>
<g id="a_Node000009"><a xlink:href="group__ModuleExecutors.html#gaa356f7897fc875da426df1cf3c9c5b99" target="_top" xlink:title=" ">
<polygon fill="white" stroke="#666666" points="378,-27.5 229,-27.5 229,-8.5 378,-8.5 378,-27.5"/>
<text text-anchor="middle" x="303.5" y="-15.5" font-family="Helvetica,sans-Serif" font-size="10.00">execute_extract_command</text>
</a>
</g>
</g>
<!-- Node1&#45;&gt;Node9 -->
<g id="edge14_Node000001_Node000009" class="edge">
<title>Node1&#45;&gt;Node9</title>
<g id="a_edge14_Node000001_Node000009"><a xlink:title=" ">
<path fill="none" stroke="#63b8ff" d="M946.43,-13.55C833.09,-11.53 606.3,-8.61 414,-13 402.39,-13.26 390.1,-13.69 378.11,-14.18"/>
<polygon fill="#63b8ff" stroke="#63b8ff" points="946.64,-17.05 956.7,-13.73 946.77,-10.05 946.64,-17.05"/>
</a>
</g>
</g>
<!-- Node3 -->
<g id="Node000003" class="node">
<title>Node3</title>
<g id="a_Node000003"><a xlink:href="group__MemoryMonitorImpl.html#ga92cbfbad3c9f226e74f095b3703edff4" target="_top" xlink:title="Calculate safe memory limit considering job scheduler constraints.">
<polygon fill="white" stroke="#666666" points="740,-70.5 592,-70.5 592,-51.5 740,-51.5 740,-70.5"/>
<text text-anchor="middle" x="666" y="-58.5" font-family="Helvetica,sans-Serif" font-size="10.00">calculateSafeMemoryLimit</text>
</a>
</g>
</g>
<!-- Node2&#45;&gt;Node3 -->
<g id="edge2_Node000002_Node000003" class="edge">
<title>Node2&#45;&gt;Node3</title>
<g id="a_edge2_Node000002_Node000003"><a xlink:title=" ">
<path fill="none" stroke="#63b8ff" d="M765.66,-56.63C757.2,-57 748.64,-57.38 740.29,-57.75"/>
<polygon fill="#63b8ff" stroke="#63b8ff" points="766.07,-60.11 775.9,-56.17 765.76,-53.12 766.07,-60.11"/>
</a>
</g>
</g>
<!-- Node4 -->
<g id="Node000004" class="node">
<title>Node4</title>
<g id="a_Node000004"><a xlink:href="group__ModuleExecutors.html#gab1aa2594a8bb3d2789d37593f69cbc5e" target="_top" xlink:title=" ">
<polygon fill="white" stroke="#666666" points="358.5,-82 248.5,-82 248.5,-52 358.5,-52 358.5,-82"/>
<text text-anchor="start" x="256.5" y="-70" font-family="Helvetica,sans-Serif" font-size="10.00">execute_high_level</text>
<text text-anchor="middle" x="303.5" y="-59" font-family="Helvetica,sans-Serif" font-size="10.00">_au_command</text>
</a>
</g>
</g>
<!-- Node3&#45;&gt;Node4 -->
<g id="edge3_Node000003_Node000004" class="edge">
<title>Node3&#45;&gt;Node4</title>
<g id="a_edge3_Node000003_Node000004"><a xlink:title=" ">
<path fill="none" stroke="#63b8ff" d="M581.27,-62.39C512.69,-63.53 417.68,-65.12 358.71,-66.1"/>
<polygon fill="#63b8ff" stroke="#63b8ff" points="581.67,-65.89 591.61,-62.22 581.56,-58.89 581.67,-65.89"/>
</a>
</g>
</g>
<!-- Node7 -->
<g id="Node000007" class="node">
<title>Node7</title>
<g id="a_Node000007"><a xlink:href="group__ModuleExecutors.html#gaefd8d559f7f798aaf8cb5f6feb9dce47" target="_top" xlink:title=" ">
<polygon fill="white" stroke="#666666" points="358.5,-130 248.5,-130 248.5,-100 358.5,-100 358.5,-130"/>
<text text-anchor="start" x="256.5" y="-118" font-family="Helvetica,sans-Serif" font-size="10.00">execute_high_level</text>
<text text-anchor="middle" x="303.5" y="-107" font-family="Helvetica,sans-Serif" font-size="10.00">_kj_command</text>
</a>
</g>
</g>
<!-- Node3&#45;&gt;Node7 -->
<g id="edge7_Node000003_Node000007" class="edge">
<title>Node3&#45;&gt;Node7</title>
<g id="a_edge7_Node000003_Node000007"><a xlink:title=" ">
<path fill="none" stroke="#63b8ff" d="M594.36,-72.11C581.59,-74.09 568.4,-76.12 556,-78 488.15,-88.28 409.93,-99.72 358.98,-107.12"/>
<polygon fill="#63b8ff" stroke="#63b8ff" points="595.13,-75.53 604.48,-70.53 594.06,-68.61 595.13,-75.53"/>
</a>
</g>
</g>
<!-- Node8 -->
<g id="Node000008" class="node">
<title>Node8</title>
<g id="a_Node000008"><a xlink:href="group__MemoryMonitorImpl.html#ga2f3e6563006e068b95ebf65b9942ccee" target="_top" xlink:title="Process multiple files and output formatted results.">
<polygon fill="white" stroke="#666666" points="556,-41.5 414,-41.5 414,-22.5 556,-22.5 556,-41.5"/>
<text text-anchor="middle" x="485" y="-29.5" font-family="Helvetica,sans-Serif" font-size="10.00">processAndOutputResults</text>
</a>
</g>
</g>
<!-- Node3&#45;&gt;Node8 -->
<g id="edge10_Node000003_Node000008" class="edge">
<title>Node3&#45;&gt;Node8</title>
<g id="a_edge10_Node000003_Node000008"><a xlink:title=" ">
<path fill="none" stroke="#63b8ff" d="M595.58,-49.75C578.79,-47.03 560.99,-44.15 544.74,-41.52"/>
<polygon fill="#63b8ff" stroke="#63b8ff" points="595.46,-53.28 605.89,-51.42 596.58,-46.37 595.46,-53.28"/>
</a>
</g>
</g>
<!-- Node5 -->
<g id="Node000005" class="node">
<title>Node5</title>
<g id="a_Node000005"><a xlink:href="main_8cpp.html#a0ddf1224851353fc92bfbff6f499fa97" target="_top" xlink:title="Main entry point for the Gaussian Extractor application.">
<polygon fill="white" stroke="#666666" points="41,-73.5 0,-73.5 0,-54.5 41,-54.5 41,-73.5"/>
<text text-anchor="middle" x="20.5" y="-61.5" font-family="Helvetica,sans-Serif" font-size="10.00">main</text>
</a>
</g>
</g>
<!-- Node4&#45;&gt;Node5 -->
<g id="edge4_Node000004_Node000005" class="edge">
<title>Node4&#45;&gt;Node5</title>
<g id="a_edge4_Node000004_Node000005"><a xlink:title=" ">
<path fill="none" stroke="#63b8ff" d="M238.34,-64.95C223.46,-64.55 207.68,-64.2 193,-64 137.92,-63.25 72.89,-63.58 41.05,-63.83"/>
<polygon fill="#63b8ff" stroke="#63b8ff" points="238.39,-68.45 248.48,-65.23 238.58,-61.45 238.39,-68.45"/>
</a>
</g>
</g>
<!-- Node6 -->
<g id="Node000006" class="node">
<title>Node6</title>
<g id="a_Node000006"><a xlink:href="interactive__mode_8cpp.html#a6b615c34054150d837dc45ed1c17b297" target="_top" xlink:title="Enhanced interactive command loop with TAB completion for Windows.">
<polygon fill="white" stroke="#666666" points="193,-92.5 77,-92.5 77,-73.5 193,-73.5 193,-92.5"/>
<text text-anchor="middle" x="135" y="-80.5" font-family="Helvetica,sans-Serif" font-size="10.00">run_interactive_loop</text>
</a>
</g>
</g>
<!-- Node4&#45;&gt;Node6 -->
<g id="edge5_Node000004_Node000006" class="edge">
<title>Node4&#45;&gt;Node6</title>
<g id="a_edge5_Node000004_Node000006"><a xlink:title=" ">
<path fill="none" stroke="#63b8ff" d="M238.32,-73.17C223.47,-74.59 207.76,-76.1 193.23,-77.5"/>
<polygon fill="#63b8ff" stroke="#63b8ff" points="238.82,-76.64 248.44,-72.19 238.15,-69.67 238.82,-76.64"/>
</a>
</g>
</g>
<!-- Node6&#45;&gt;Node5 -->
<g id="edge6_Node000006_Node000005" class="edge">
<title>Node6&#45;&gt;Node5</title>
<g id="a_edge6_Node000006_Node000005"><a xlink:title=" ">
<path fill="none" stroke="#63b8ff" d="M67.4,-71.75C57.88,-70.14 48.77,-68.61 41.22,-67.33"/>
<polygon fill="#63b8ff" stroke="#63b8ff" points="66.98,-75.23 77.42,-73.44 68.14,-68.33 66.98,-75.23"/>
</a>
</g>
</g>
<!-- Node7&#45;&gt;Node5 -->
<g id="edge8_Node000007_Node000005" class="edge">
<title>Node7&#45;&gt;Node5</title>
<g id="a_edge8_Node000007_Node000005"><a xlink:title=" ">
<path fill="none" stroke="#63b8ff" d="M237.99,-119.77C191.94,-121.09 129.18,-118.58 77,-101 59.66,-95.16 42.58,-82.43 32.05,-73.55"/>
<polygon fill="#63b8ff" stroke="#63b8ff" points="238.27,-123.26 248.14,-119.41 238.02,-116.27 238.27,-123.26"/>
</a>
</g>
</g>
<!-- Node7&#45;&gt;Node6 -->
<g id="edge9_Node000007_Node000006" class="edge">
<title>Node7&#45;&gt;Node6</title>
<g id="a_edge9_Node000007_Node000006"><a xlink:title=" ">
<path fill="none" stroke="#63b8ff" d="M238.3,-102.66C220.8,-99.3 202.11,-95.71 185.56,-92.53"/>
<polygon fill="#63b8ff" stroke="#63b8ff" points="237.96,-106.16 248.44,-104.61 239.28,-99.29 237.96,-106.16"/>
</a>
</g>
</g>
<!-- Node8&#45;&gt;Node9 -->
<g id="edge11_Node000008_Node000009" class="edge">
<title>Node8&#45;&gt;Node9</title>
<g id="a_edge11_Node000008_Node000009"><a xlink:title=" ">
<path fill="none" stroke="#63b8ff" d="M403.59,-25.73C395.13,-25.07 386.55,-24.4 378.17,-23.75"/>
<polygon fill="#63b8ff" stroke="#63b8ff" points="403.59,-29.24 413.83,-26.53 404.13,-22.26 403.59,-29.24"/>
</a>
</g>
</g>
<!-- Node9&#45;&gt;Node5 -->
<g id="edge12_Node000009_Node000005" class="edge">
<title>Node9&#45;&gt;Node5</title>
<g id="a_edge12_Node000009_Node000005"><a xlink:title=" ">
<path fill="none" stroke="#63b8ff" d="M234.35,-29.16C170.96,-39.53 80.55,-54.33 41.14,-60.79"/>
<polygon fill="#63b8ff" stroke="#63b8ff" points="234.97,-32.6 244.28,-27.53 233.84,-25.69 234.97,-32.6"/>
</a>
</g>
</g>
<!-- Node9&#45;&gt;Node6 -->
<g id="edge13_Node000009_Node000006" class="edge">
<title>Node9&#45;&gt;Node6</title>
<g id="a_edge13_Node000009_Node000006"><a xlink:title=" ">
<path fill="none" stroke="#63b8ff" d="M262.82,-30.86C251.81,-34.6 239.88,-38.82 229,-43 203.9,-52.65 175.58,-65.05 156.86,-73.47"/>
<polygon fill="#63b8ff" stroke="#63b8ff" points="264.26,-34.07 272.63,-27.57 262.03,-27.43 264.26,-34.07"/>
</a>
</g>
</g>
</g>
</svg>
