<?xml version="1.0" encoding="UTF-8" standalone="no"?>
<!DOCTYPE svg PUBLIC "-//W3C//DTD SVG 1.1//EN"
 "http://www.w3.org/Graphics/SVG/1.1/DTD/svg11.dtd">
<!-- Generated by graphviz version 2.43.0 (0)
 -->
<!-- Title: ConfigManager::get_user_home_directory Pages: 1 -->
<svg width="1089pt" height="294pt"
 viewBox="0.00 0.00 1089.00 294.00" xmlns="http://www.w3.org/2000/svg" xmlns:xlink="http://www.w3.org/1999/xlink">
<g id="graph0" class="graph" transform="scale(1 1) rotate(0) translate(4 290)">
<title>ConfigManager::get_user_home_directory</title>
<!-- Node1 -->
<g id="Node000001" class="node">
<title>Node1</title>
<g id="a_Node000001"><a xlink:title="Get user&#39;s home directory path.">
<polygon fill="#999999" stroke="#666666" points="1081,-135 956,-135 956,-105 1081,-105 1081,-135"/>
<text text-anchor="start" x="964" y="-123" font-family="Helvetica,sans-Serif" font-size="10.00">ConfigManager::get</text>
<text text-anchor="middle" x="1018.5" y="-112" font-family="Helvetica,sans-Serif" font-size="10.00">_user_home_directory</text>
</a>
</g>
</g>
<!-- Node2 -->
<g id="Node000002" class="node">
<title>Node2</title>
<g id="a_Node000002"><a xlink:href="group__CommandExecutors.html#ga073f786afa47506d32c7912828cd40ea" target="_top" xlink:title="Create a default configuration file.">
<polygon fill="white" stroke="#666666" points="718,-30 584,-30 584,0 718,0 718,-30"/>
<text text-anchor="start" x="592" y="-18" font-family="Helvetica,sans-Serif" font-size="10.00">CommandParser::create</text>
<text text-anchor="middle" x="651" y="-7" font-family="Helvetica,sans-Serif" font-size="10.00">_default_config</text>
</a>
</g>
</g>
<!-- Node1&#45;&gt;Node2 -->
<g id="edge1_Node000001_Node000002" class="edge">
<title>Node1&#45;&gt;Node2</title>
<g id="a_edge1_Node000001_Node000002"><a xlink:title=" ">
<path fill="none" stroke="#63b8ff" d="M1001.05,-96.61C983.76,-74.18 954.34,-41.65 920,-27 855.53,0.51 774.24,-0.18 718.18,-5.42"/>
<polygon fill="#63b8ff" stroke="#63b8ff" points="998.27,-98.74 1007.06,-104.65 1003.87,-94.54 998.27,-98.74"/>
</a>
</g>
</g>
<!-- Node5 -->
<g id="Node000005" class="node">
<title>Node5</title>
<g id="a_Node000005"><a xlink:href="namespaceHelpUtils.html#aa496c9db09fcfa776df8300da1cc2711" target="_top" xlink:title="Create default configuration file.">
<polygon fill="white" stroke="#666666" points="720,-116 582,-116 582,-86 720,-86 720,-116"/>
<text text-anchor="start" x="590" y="-104" font-family="Helvetica,sans-Serif" font-size="10.00">HelpUtils::create_default</text>
<text text-anchor="middle" x="651" y="-93" font-family="Helvetica,sans-Serif" font-size="10.00">_config</text>
</a>
</g>
</g>
<!-- Node1&#45;&gt;Node5 -->
<g id="edge4_Node000001_Node000005" class="edge">
<title>Node1&#45;&gt;Node5</title>
<g id="a_edge4_Node000001_Node000005"><a xlink:title=" ">
<path fill="none" stroke="#63b8ff" d="M945.51,-125.29C892.87,-128.07 819.82,-129.68 756,-123 741.77,-121.51 726.63,-118.91 712.43,-116"/>
<polygon fill="#63b8ff" stroke="#63b8ff" points="945.97,-128.77 955.76,-124.72 945.58,-121.78 945.97,-128.77"/>
</a>
</g>
</g>
<!-- Node7 -->
<g id="Node000007" class="node">
<title>Node7</title>
<g id="a_Node000007"><a xlink:href="group__ConfigLoading.html#ga70d81aba8b72b69f84c682808f04e043" target="_top" xlink:title="Create a default configuration file with all options.">
<polygon fill="white" stroke="#666666" points="901.5,-66 774.5,-66 774.5,-36 901.5,-36 901.5,-66"/>
<text text-anchor="start" x="782.5" y="-54" font-family="Helvetica,sans-Serif" font-size="10.00">ConfigManager::create</text>
<text text-anchor="middle" x="838" y="-43" font-family="Helvetica,sans-Serif" font-size="10.00">_default_config_file</text>
</a>
</g>
</g>
<!-- Node1&#45;&gt;Node7 -->
<g id="edge8_Node000001_Node000007" class="edge">
<title>Node1&#45;&gt;Node7</title>
<g id="a_edge8_Node000001_Node000007"><a xlink:title=" ">
<path fill="none" stroke="#63b8ff" d="M978.31,-100.34C960.73,-91.93 939.58,-82.37 920,-75 911.63,-71.85 902.65,-68.83 893.82,-66.07"/>
<polygon fill="#63b8ff" stroke="#63b8ff" points="977.15,-103.67 987.67,-104.87 980.2,-97.36 977.15,-103.67"/>
</a>
</g>
</g>
<!-- Node8 -->
<g id="Node000008" class="node">
<title>Node8</title>
<g id="a_Node000008"><a xlink:href="group__ConfigInternals.html#ga604fe8c75e45b77e7068faeafbadcb18" target="_top" xlink:title="Search for and locate configuration file.">
<polygon fill="white" stroke="#666666" points="895,-200 781,-200 781,-170 895,-170 895,-200"/>
<text text-anchor="start" x="789" y="-188" font-family="Helvetica,sans-Serif" font-size="10.00">ConfigManager::find</text>
<text text-anchor="middle" x="838" y="-177" font-family="Helvetica,sans-Serif" font-size="10.00">_config_file</text>
</a>
</g>
</g>
<!-- Node1&#45;&gt;Node8 -->
<g id="edge11_Node000001_Node000008" class="edge">
<title>Node1&#45;&gt;Node8</title>
<g id="a_edge11_Node000001_Node000008"><a xlink:title=" ">
<path fill="none" stroke="#63b8ff" d="M967.05,-138.74C951.93,-144.32 935.3,-150.44 920,-156 907.51,-160.54 893.91,-165.43 881.49,-169.88"/>
<polygon fill="#63b8ff" stroke="#63b8ff" points="968.57,-141.9 976.74,-135.15 966.14,-135.34 968.57,-141.9"/>
</a>
</g>
</g>
<!-- Node12 -->
<g id="Node000012" class="node">
<title>Node12</title>
<g id="a_Node000012"><a xlink:href="group__CommandExecutors.html#gac2af8ce80af7cf8a9918558eba909c72" target="_top" xlink:title="Find or create a default parameter file for create_input.">
<polygon fill="white" stroke="#666666" points="920,-267 756,-267 756,-237 920,-237 920,-267"/>
<text text-anchor="start" x="764" y="-255" font-family="Helvetica,sans-Serif" font-size="10.00">CommandParser::find</text>
<text text-anchor="middle" x="838" y="-244" font-family="Helvetica,sans-Serif" font-size="10.00">_or_create_default_param_file</text>
</a>
</g>
</g>
<!-- Node1&#45;&gt;Node12 -->
<g id="edge17_Node000001_Node000012" class="edge">
<title>Node1&#45;&gt;Node12</title>
<g id="a_edge17_Node000001_Node000012"><a xlink:title=" ">
<path fill="none" stroke="#63b8ff" d="M996.09,-142.51C977.19,-161.62 948.32,-189.04 920,-209 905.03,-219.55 887.17,-229.3 872.03,-236.84"/>
<polygon fill="#63b8ff" stroke="#63b8ff" points="998.82,-144.72 1003.3,-135.12 993.81,-139.83 998.82,-144.72"/>
</a>
</g>
</g>
<!-- Node14 -->
<g id="Node000014" class="node">
<title>Node14</title>
<g id="a_Node000014"><a xlink:href="group__ConfigFileUtils.html#ga09f057aaa03de2ed7c66d9a0ca26e047" target="_top" xlink:title="Get formatted string of configuration file search paths.">
<polygon fill="white" stroke="#666666" points="901,-114 775,-114 775,-84 901,-84 901,-114"/>
<text text-anchor="start" x="783" y="-102" font-family="Helvetica,sans-Serif" font-size="10.00">ConfigUtils::get_config</text>
<text text-anchor="middle" x="838" y="-91" font-family="Helvetica,sans-Serif" font-size="10.00">_search_paths</text>
</a>
</g>
</g>
<!-- Node1&#45;&gt;Node14 -->
<g id="edge20_Node000001_Node000014" class="edge">
<title>Node1&#45;&gt;Node14</title>
<g id="a_edge20_Node000001_Node000014"><a xlink:title=" ">
<path fill="none" stroke="#63b8ff" d="M945.75,-111.56C931.03,-109.83 915.64,-108.02 901.29,-106.33"/>
<polygon fill="#63b8ff" stroke="#63b8ff" points="945.48,-115.05 955.82,-112.74 946.3,-108.1 945.48,-115.05"/>
</a>
</g>
</g>
<!-- Node3 -->
<g id="Node000003" class="node">
<title>Node3</title>
<g id="a_Node000003"><a xlink:href="interactive__mode_8cpp.html#a6b615c34054150d837dc45ed1c17b297" target="_top" xlink:title="Enhanced interactive command loop with TAB completion for Windows.">
<polygon fill="white" stroke="#666666" points="193,-65.5 77,-65.5 77,-46.5 193,-46.5 193,-65.5"/>
<text text-anchor="middle" x="135" y="-53.5" font-family="Helvetica,sans-Serif" font-size="10.00">run_interactive_loop</text>
</a>
</g>
</g>
<!-- Node2&#45;&gt;Node3 -->
<g id="edge2_Node000002_Node000003" class="edge">
<title>Node2&#45;&gt;Node3</title>
<g id="a_edge2_Node000002_Node000003"><a xlink:title=" ">
<path fill="none" stroke="#63b8ff" d="M573.75,-21.08C469.84,-29.37 286.1,-44.03 193.2,-51.44"/>
<polygon fill="#63b8ff" stroke="#63b8ff" points="574.17,-24.56 583.86,-20.28 573.61,-17.58 574.17,-24.56"/>
</a>
</g>
</g>
<!-- Node4 -->
<g id="Node000004" class="node">
<title>Node4</title>
<g id="a_Node000004"><a xlink:href="main_8cpp.html#a0ddf1224851353fc92bfbff6f499fa97" target="_top" xlink:title="Main entry point for the Gaussian Extractor application.">
<polygon fill="white" stroke="#666666" points="41,-103.5 0,-103.5 0,-84.5 41,-84.5 41,-103.5"/>
<text text-anchor="middle" x="20.5" y="-91.5" font-family="Helvetica,sans-Serif" font-size="10.00">main</text>
</a>
</g>
</g>
<!-- Node3&#45;&gt;Node4 -->
<g id="edge3_Node000003_Node000004" class="edge">
<title>Node3&#45;&gt;Node4</title>
<g id="a_edge3_Node000003_Node000004"><a xlink:title=" ">
<path fill="none" stroke="#63b8ff" d="M96,-68.84C77.54,-75.07 56.14,-82.3 41.02,-87.41"/>
<polygon fill="#63b8ff" stroke="#63b8ff" points="97.26,-72.11 105.61,-65.59 95.02,-65.47 97.26,-72.11"/>
</a>
</g>
</g>
<!-- Node6 -->
<g id="Node000006" class="node">
<title>Node6</title>
<g id="a_Node000006"><a xlink:href="group__CommandExecutors.html#ga2c1ceafe241a0b4e19790bb5d878ed1a" target="_top" xlink:title="Parse command&#45;line arguments and create execution context.">
<polygon fill="white" stroke="#666666" points="359,-103.5 229,-103.5 229,-84.5 359,-84.5 359,-103.5"/>
<text text-anchor="middle" x="294" y="-91.5" font-family="Helvetica,sans-Serif" font-size="10.00">CommandParser::parse</text>
</a>
</g>
</g>
<!-- Node5&#45;&gt;Node6 -->
<g id="edge5_Node000005_Node000006" class="edge">
<title>Node5&#45;&gt;Node6</title>
<g id="a_edge5_Node000005_Node000006"><a xlink:title=" ">
<path fill="none" stroke="#63b8ff" d="M571.95,-99.46C508.12,-98.2 418.96,-96.44 359.21,-95.27"/>
<polygon fill="#63b8ff" stroke="#63b8ff" points="571.91,-102.96 581.97,-99.66 572.04,-95.96 571.91,-102.96"/>
</a>
</g>
</g>
<!-- Node6&#45;&gt;Node3 -->
<g id="edge7_Node000006_Node000003" class="edge">
<title>Node6&#45;&gt;Node3</title>
<g id="a_edge7_Node000006_Node000003"><a xlink:title=" ">
<path fill="none" stroke="#63b8ff" d="M243.55,-82.03C221.55,-76.71 196.01,-70.52 175.33,-65.52"/>
<polygon fill="#63b8ff" stroke="#63b8ff" points="242.84,-85.46 253.38,-84.41 244.49,-78.66 242.84,-85.46"/>
</a>
</g>
</g>
<!-- Node6&#45;&gt;Node4 -->
<g id="edge6_Node000006_Node000004" class="edge">
<title>Node6&#45;&gt;Node4</title>
<g id="a_edge6_Node000006_Node000004"><a xlink:title=" ">
<path fill="none" stroke="#63b8ff" d="M218.42,-94C158.19,-94 77.65,-94 41.06,-94"/>
<polygon fill="#63b8ff" stroke="#63b8ff" points="218.66,-97.5 228.66,-94 218.66,-90.5 218.66,-97.5"/>
</a>
</g>
</g>
<!-- Node7&#45;&gt;Node2 -->
<g id="edge9_Node000007_Node000002" class="edge">
<title>Node7&#45;&gt;Node2</title>
<g id="a_edge9_Node000007_Node000002"><a xlink:title=" ">
<path fill="none" stroke="#63b8ff" d="M764.44,-36.88C749.15,-33.9 733.09,-30.78 718.05,-27.85"/>
<polygon fill="#63b8ff" stroke="#63b8ff" points="763.88,-40.34 774.37,-38.81 765.22,-33.47 763.88,-40.34"/>
</a>
</g>
</g>
<!-- Node7&#45;&gt;Node5 -->
<g id="edge10_Node000007_Node000005" class="edge">
<title>Node7&#45;&gt;Node5</title>
<g id="a_edge10_Node000007_Node000005"><a xlink:title=" ">
<path fill="none" stroke="#63b8ff" d="M771.74,-68.64C750.86,-74.28 727.93,-80.48 707.79,-85.92"/>
<polygon fill="#63b8ff" stroke="#63b8ff" points="772.75,-71.99 781.49,-66 770.93,-65.23 772.75,-71.99"/>
</a>
</g>
</g>
<!-- Node9 -->
<g id="Node000009" class="node">
<title>Node9</title>
<g id="a_Node000009"><a xlink:href="group__ConfigLoading.html#gadb55801d91871e98b5c5da2acd289a35" target="_top" xlink:title="Load configuration from file with error handling.">
<polygon fill="white" stroke="#666666" points="709.5,-200 592.5,-200 592.5,-170 709.5,-170 709.5,-200"/>
<text text-anchor="start" x="600.5" y="-188" font-family="Helvetica,sans-Serif" font-size="10.00">ConfigManager::load</text>
<text text-anchor="middle" x="651" y="-177" font-family="Helvetica,sans-Serif" font-size="10.00">_config</text>
</a>
</g>
</g>
<!-- Node8&#45;&gt;Node9 -->
<g id="edge12_Node000008_Node000009" class="edge">
<title>Node8&#45;&gt;Node9</title>
<g id="a_edge12_Node000008_Node000009"><a xlink:title=" ">
<path fill="none" stroke="#63b8ff" d="M770.75,-185C750.8,-185 729.08,-185 709.74,-185"/>
<polygon fill="#63b8ff" stroke="#63b8ff" points="770.99,-188.5 780.99,-185 770.99,-181.5 770.99,-188.5"/>
</a>
</g>
</g>
<!-- Node9&#45;&gt;Node4 -->
<g id="edge15_Node000009_Node000004" class="edge">
<title>Node9&#45;&gt;Node4</title>
<g id="a_edge15_Node000009_Node000004"><a xlink:title=" ">
<path fill="none" stroke="#63b8ff" d="M585.55,-202.26C572.55,-205.06 558.91,-207.53 546,-209 479.32,-216.59 461.36,-218.99 395,-209 255.45,-188 96.1,-125.21 41.25,-102.4"/>
<polygon fill="#63b8ff" stroke="#63b8ff" points="586.36,-205.66 595.35,-200.06 584.83,-198.83 586.36,-205.66"/>
</a>
</g>
</g>
<!-- Node10 -->
<g id="Node000010" class="node">
<title>Node10</title>
<g id="a_Node000010"><a xlink:href="group__CommandExecutors.html#ga1389de38a8f4d50be08ded6a0240627f" target="_top" xlink:title="Load and initialize configuration system.">
<polygon fill="white" stroke="#666666" points="532.5,-200 408.5,-200 408.5,-170 532.5,-170 532.5,-200"/>
<text text-anchor="start" x="416.5" y="-188" font-family="Helvetica,sans-Serif" font-size="10.00">CommandParser::load</text>
<text text-anchor="middle" x="470.5" y="-177" font-family="Helvetica,sans-Serif" font-size="10.00">_configuration</text>
</a>
</g>
</g>
<!-- Node9&#45;&gt;Node10 -->
<g id="edge13_Node000009_Node000010" class="edge">
<title>Node9&#45;&gt;Node10</title>
<g id="a_edge13_Node000009_Node000010"><a xlink:title=" ">
<path fill="none" stroke="#63b8ff" d="M581.6,-185C565.45,-185 548.34,-185 532.54,-185"/>
<polygon fill="#63b8ff" stroke="#63b8ff" points="582.05,-188.5 592.05,-185 582.05,-181.5 582.05,-188.5"/>
</a>
</g>
</g>
<!-- Node11 -->
<g id="Node000011" class="node">
<title>Node11</title>
<g id="a_Node000011"><a xlink:href="group__ConfigLoading.html#gad792b6c3fe11b0bd927622b2e0966bf5" target="_top" xlink:title="Reload configuration from the previously loaded file.">
<polygon fill="white" stroke="#666666" points="534,-152 407,-152 407,-122 534,-122 534,-152"/>
<text text-anchor="start" x="415" y="-140" font-family="Helvetica,sans-Serif" font-size="10.00">ConfigManager::reload</text>
<text text-anchor="middle" x="470.5" y="-129" font-family="Helvetica,sans-Serif" font-size="10.00">_config</text>
</a>
</g>
</g>
<!-- Node9&#45;&gt;Node11 -->
<g id="edge16_Node000009_Node000011" class="edge">
<title>Node9&#45;&gt;Node11</title>
<g id="a_edge16_Node000009_Node000011"><a xlink:title=" ">
<path fill="none" stroke="#63b8ff" d="M584.11,-167.28C565.44,-162.26 545.3,-156.85 527.29,-152"/>
<polygon fill="#63b8ff" stroke="#63b8ff" points="583.45,-170.73 594.01,-169.94 585.26,-163.97 583.45,-170.73"/>
</a>
</g>
</g>
<!-- Node10&#45;&gt;Node6 -->
<g id="edge14_Node000010_Node000006" class="edge">
<title>Node10&#45;&gt;Node6</title>
<g id="a_edge14_Node000010_Node000006"><a xlink:title=" ">
<path fill="none" stroke="#63b8ff" d="M406.77,-166.22C402.74,-164.57 398.78,-162.83 395,-161 360.96,-144.51 325.06,-117.85 306.95,-103.64"/>
<polygon fill="#63b8ff" stroke="#63b8ff" points="405.69,-169.55 416.28,-169.87 408.2,-163.01 405.69,-169.55"/>
</a>
</g>
</g>
<!-- Node13 -->
<g id="Node000013" class="node">
<title>Node13</title>
<g id="a_Node000013"><a xlink:href="group__CommandExecutors.html#ga6dd4acb8cb239efc2daf9ad5c4b2afd4" target="_top" xlink:title="Parse options specific to create_input command.">
<polygon fill="white" stroke="#666666" points="535.5,-286 405.5,-286 405.5,-256 535.5,-256 535.5,-286"/>
<text text-anchor="start" x="413.5" y="-274" font-family="Helvetica,sans-Serif" font-size="10.00">CommandParser::parse</text>
<text text-anchor="middle" x="470.5" y="-263" font-family="Helvetica,sans-Serif" font-size="10.00">_create_input_options</text>
</a>
</g>
</g>
<!-- Node12&#45;&gt;Node13 -->
<g id="edge18_Node000012_Node000013" class="edge">
<title>Node12&#45;&gt;Node13</title>
<g id="a_edge18_Node000012_Node000013"><a xlink:title=" ">
<path fill="none" stroke="#63b8ff" d="M745.58,-256.75C680.21,-260.15 593.86,-264.64 535.69,-267.66"/>
<polygon fill="#63b8ff" stroke="#63b8ff" points="746.08,-260.23 755.88,-256.22 745.72,-253.24 746.08,-260.23"/>
</a>
</g>
</g>
<!-- Node13&#45;&gt;Node6 -->
<g id="edge19_Node000013_Node000006" class="edge">
<title>Node13&#45;&gt;Node6</title>
<g id="a_edge19_Node000013_Node000006"><a xlink:title=" ">
<path fill="none" stroke="#63b8ff" d="M441.41,-249.4C427.05,-237.92 409.58,-223.27 395,-209 357.75,-172.55 318.61,-124.1 302.55,-103.7"/>
<polygon fill="#63b8ff" stroke="#63b8ff" points="439.45,-252.31 449.46,-255.76 443.79,-246.82 439.45,-252.31"/>
</a>
</g>
</g>
<!-- Node15 -->
<g id="Node000015" class="node">
<title>Node15</title>
<g id="a_Node000015"><a xlink:href="namespaceHelpUtils.html#a2fb76d8b3311bed23a95981b9f07c135" target="_top" xlink:title="Print configuration help information.">
<polygon fill="white" stroke="#666666" points="546,-65.5 395,-65.5 395,-46.5 546,-46.5 546,-65.5"/>
<text text-anchor="middle" x="470.5" y="-53.5" font-family="Helvetica,sans-Serif" font-size="10.00">HelpUtils::print_config_help</text>
</a>
</g>
</g>
<!-- Node14&#45;&gt;Node15 -->
<g id="edge21_Node000014_Node000015" class="edge">
<title>Node14&#45;&gt;Node15</title>
<g id="a_edge21_Node000014_Node000015"><a xlink:title=" ">
<path fill="none" stroke="#63b8ff" d="M764.85,-84.24C750.06,-81.56 734.56,-78.98 720,-77 661.87,-69.1 595.66,-63.68 546.2,-60.33"/>
<polygon fill="#63b8ff" stroke="#63b8ff" points="764.48,-87.74 774.95,-86.12 765.76,-80.85 764.48,-87.74"/>
</a>
</g>
</g>
<!-- Node15&#45;&gt;Node3 -->
<g id="edge23_Node000015_Node000003" class="edge">
<title>Node15&#45;&gt;Node3</title>
<g id="a_edge23_Node000015_Node000003"><a xlink:title=" ">
<path fill="none" stroke="#63b8ff" d="M384.45,-56C324.49,-56 245.82,-56 193.22,-56"/>
<polygon fill="#63b8ff" stroke="#63b8ff" points="384.66,-59.5 394.66,-56 384.66,-52.5 384.66,-59.5"/>
</a>
</g>
</g>
<!-- Node15&#45;&gt;Node6 -->
<g id="edge22_Node000015_Node000006" class="edge">
<title>Node15&#45;&gt;Node6</title>
<g id="a_edge22_Node000015_Node000006"><a xlink:title=" ">
<path fill="none" stroke="#63b8ff" d="M415.53,-67.75C390.86,-73.13 362.01,-79.41 338.72,-84.48"/>
<polygon fill="#63b8ff" stroke="#63b8ff" points="416.44,-71.14 425.47,-65.59 414.95,-64.3 416.44,-71.14"/>
</a>
</g>
</g>
</g>
</svg>
