<?xml version="1.0" encoding="UTF-8" standalone="no"?>
<!DOCTYPE svg PUBLIC "-//W3C//DTD SVG 1.1//EN"
 "http://www.w3.org/Graphics/SVG/1.1/DTD/svg11.dtd">
<!-- Generated by graphviz version 2.43.0 (0)
 -->
<!-- Title: ConfigManager::trim Pages: 1 -->
<!--zoomable 340 -->

<svg id="main" version="1.1" xmlns="http://www.w3.org/2000/svg" xmlns:xlink="http://www.w3.org/1999/xlink" xml:space="preserve" onload="init(evt)">
<style type="text/css"><![CDATA[
.node, .edge {opacity: 0.7;}
.node.selected, .edge.selected {opacity: 1;}
.edge:hover path { stroke: red; }
.edge:hover polygon { stroke: red; fill: red; }
]]></style>

<defs>
  <circle id="rim" cx="0" cy="0" r="7"/>
  <circle id="rim2" cx="0" cy="0" r="3.5"/>
  <g id="zoomPlus">
    <use xlink:href="#rim" fill="#404040"><set attributeName="fill" to="#808080" begin="zoomplus.mouseover" end="zoomplus.mouseout"/></use>
    <path d="M-4,0h8M0,-4v8" fill="none" stroke="white" stroke-width="1.5" pointer-events="none"/>
  </g>
  <g id="zoomMin">
    <use xlink:href="#rim" fill="#404040"><set attributeName="fill" to="#808080" begin="zoomminus.mouseover" end="zoomminus.mouseout"/></use>
    <path d="M-4,0h8" fill="none" stroke="white" stroke-width="1.5" pointer-events="none"/>
  </g>
  <g id="arrowUp" transform="translate(30 24)">
    <use xlink:href="#rim"/>
    <path pointer-events="none" fill="none" stroke="white" stroke-width="1.5" d="M0,-3.0v7 M-2.5,-0.5L0,-3.0L2.5,-0.5"/>
  </g>
  <g id="arrowRight" transform="rotate(90) translate(36 -43)">
    <use xlink:href="#rim"/>
    <path pointer-events="none" fill="none" stroke="white" stroke-width="1.5" d="M0,-3.0v7 M-2.5,-0.5L0,-3.0L2.5,-0.5"/>
  </g>
  <g id="arrowDown" transform="rotate(180) translate(-30 -48)">
    <use xlink:href="#rim"/>
    <path pointer-events="none" fill="none" stroke="white" stroke-width="1.5" d="M0,-3.0v7 M-2.5,-0.5L0,-3.0L2.5,-0.5"/>
  </g>
  <g id="arrowLeft" transform="rotate(270) translate(-36 17)">
    <use xlink:href="#rim"/>
    <path pointer-events="none" fill="none" stroke="white" stroke-width="1.5" d="M0,-3.0v7 M-2.5,-0.5L0,-3.0L2.5,-0.5"/>
  </g>
  <g id="resetDef">
    <use xlink:href="#rim2" fill="#404040"><set attributeName="fill" to="#808080" begin="reset.mouseover" end="reset.mouseout"/></use>
  </g>
</defs>
<script type="application/ecmascript">
var viewWidth = 1200;
var viewHeight = 340;
var sectionId = 'dynsection-8';
</script>
<script type="application/ecmascript" xlink:href="svg.min.js"/>
<svg id="graph" class="graph">
<g id="viewport">
<title>ConfigManager::trim</title>
<!-- Node1 -->
<g id="Node000001" class="node">
<title>Node1</title>
<g id="a_Node000001"><a xlink:title="Remove leading and trailing whitespace from string.">
<polygon fill="#999999" stroke="#666666" points="1192,-114.5 1076,-114.5 1076,-95.5 1192,-95.5 1192,-114.5"/>
<text text-anchor="middle" x="1134" y="-102.5" font-family="Helvetica,sans-Serif" font-size="10.00">ConfigManager::trim</text>
</a>
</g>
</g>
<!-- Node2 -->
<g id="Node000002" class="node">
<title>Node2</title>
<g id="a_Node000002"><a xlink:href="group__ConfigExtensions.html#ga3fd3f42f724661c7ea72845729e0141f" target="_top" xlink:title="Get list of supported input file extensions.">
<polygon fill="white" stroke="#666666" points="1028,-211 916,-211 916,-181 1028,-181 1028,-211"/>
<text text-anchor="start" x="924" y="-199" font-family="Helvetica,sans-Serif" font-size="10.00">ConfigManager::get</text>
<text text-anchor="middle" x="972" y="-188" font-family="Helvetica,sans-Serif" font-size="10.00">_input_extensions</text>
</a>
</g>
</g>
<!-- Node1&#45;&gt;Node2 -->
<g id="edge1_Node000001_Node000002" class="edge">
<title>Node1&#45;&gt;Node2</title>
<g id="a_edge1_Node000001_Node000002"><a xlink:title=" ">
<path fill="none" stroke="#63b8ff" d="M1107.3,-119.62C1077.77,-136.41 1029.55,-163.84 999.64,-180.85"/>
<polygon fill="#63b8ff" stroke="#63b8ff" points="1109.22,-122.55 1116.18,-114.57 1105.76,-116.47 1109.22,-122.55"/>
</a>
</g>
</g>
<!-- Node9 -->
<g id="Node000009" class="node">
<title>Node9</title>
<g id="a_Node000009"><a xlink:href="group__ConfigExtensions.html#ga6eda0c86fa8ce71b9fa05b7a1c306597" target="_top" xlink:title="Get list of supported output file extensions.">
<polygon fill="white" stroke="#666666" points="1028,-144 916,-144 916,-114 1028,-114 1028,-144"/>
<text text-anchor="start" x="924" y="-132" font-family="Helvetica,sans-Serif" font-size="10.00">ConfigManager::get</text>
<text text-anchor="middle" x="972" y="-121" font-family="Helvetica,sans-Serif" font-size="10.00">_output_extensions</text>
</a>
</g>
</g>
<!-- Node1&#45;&gt;Node9 -->
<g id="edge8_Node000001_Node000009" class="edge">
<title>Node1&#45;&gt;Node9</title>
<g id="a_edge8_Node000001_Node000009"><a xlink:title=" ">
<path fill="none" stroke="#63b8ff" d="M1065.73,-115.09C1053.17,-116.97 1040.18,-118.92 1028.04,-120.74"/>
<polygon fill="#63b8ff" stroke="#63b8ff" points="1066.32,-118.54 1075.69,-113.6 1065.28,-111.62 1066.32,-118.54"/>
</a>
</g>
</g>
<!-- Node11 -->
<g id="Node000011" class="node">
<title>Node11</title>
<g id="a_Node000011"><a xlink:href="group__ConfigInternals.html#ga957a682fae0ee249a4fc255014d73f82" target="_top" xlink:title="Parse a single line from configuration file.">
<polygon fill="white" stroke="#666666" points="1033.5,-96 910.5,-96 910.5,-66 1033.5,-66 1033.5,-96"/>
<text text-anchor="start" x="918.5" y="-84" font-family="Helvetica,sans-Serif" font-size="10.00">ConfigManager::parse</text>
<text text-anchor="middle" x="972" y="-73" font-family="Helvetica,sans-Serif" font-size="10.00">_config_line</text>
</a>
</g>
</g>
<!-- Node1&#45;&gt;Node11 -->
<g id="edge10_Node000001_Node000011" class="edge">
<title>Node1&#45;&gt;Node11</title>
<g id="a_edge10_Node000001_Node000011"><a xlink:title=" ">
<path fill="none" stroke="#63b8ff" d="M1065.64,-94.9C1055.04,-93.31 1044.13,-91.67 1033.7,-90.1"/>
<polygon fill="#63b8ff" stroke="#63b8ff" points="1065.28,-98.38 1075.69,-96.4 1066.32,-91.46 1065.28,-98.38"/>
</a>
</g>
</g>
<!-- Node18 -->
<g id="Node000018" class="node">
<title>Node18</title>
<g id="a_Node000018"><a xlink:href="group__ConfigValidation.html#gac6254d405c53ed8f433ab6d2785c0a90" target="_top" xlink:title="Validate file extension configuration values.">
<polygon fill="white" stroke="#666666" points="1040,-48 904,-48 904,-18 1040,-18 1040,-48"/>
<text text-anchor="start" x="912" y="-36" font-family="Helvetica,sans-Serif" font-size="10.00">ConfigManager::validate</text>
<text text-anchor="middle" x="972" y="-25" font-family="Helvetica,sans-Serif" font-size="10.00">_file_extensions</text>
</a>
</g>
</g>
<!-- Node1&#45;&gt;Node18 -->
<g id="edge19_Node000001_Node000018" class="edge">
<title>Node1&#45;&gt;Node18</title>
<g id="a_edge19_Node000001_Node000018"><a xlink:title=" ">
<path fill="none" stroke="#63b8ff" d="M1107.25,-90.54C1088.83,-80.48 1063.27,-67.12 1040,-57 1032.86,-53.9 1025.18,-50.87 1017.65,-48.06"/>
<polygon fill="#63b8ff" stroke="#63b8ff" points="1105.74,-93.7 1116.19,-95.46 1109.12,-87.57 1105.74,-93.7"/>
</a>
</g>
</g>
<!-- Node3 -->
<g id="Node000003" class="node">
<title>Node3</title>
<g id="a_Node000003"><a xlink:href="group__FileOperations.html#ga087bdeb612f939d045ab914d35a6b0de" target="_top" xlink:title="Find all files related to a Gaussian calculation.">
<polygon fill="white" stroke="#666666" points="865,-284 731,-284 731,-254 865,-254 865,-284"/>
<text text-anchor="start" x="739" y="-272" font-family="Helvetica,sans-Serif" font-size="10.00">JobChecker::find_related</text>
<text text-anchor="middle" x="798" y="-261" font-family="Helvetica,sans-Serif" font-size="10.00">_files</text>
</a>
</g>
</g>
<!-- Node2&#45;&gt;Node3 -->
<g id="edge2_Node000002_Node000003" class="edge">
<title>Node2&#45;&gt;Node3</title>
<g id="a_edge2_Node000002_Node000003"><a xlink:title=" ">
<path fill="none" stroke="#63b8ff" d="M932.61,-215.49C913.43,-224.91 889.73,-236.08 868,-245 860.49,-248.08 852.42,-251.12 844.55,-253.95"/>
<polygon fill="#63b8ff" stroke="#63b8ff" points="934.23,-218.6 941.64,-211.02 931.12,-212.32 934.23,-218.6"/>
</a>
</g>
</g>
<!-- Node7 -->
<g id="Node000007" class="node">
<title>Node7</title>
<g id="a_Node000007"><a xlink:href="group__ConfigConvenience.html#gaed7092887403aeace513f176ee36f31d" target="_top" xlink:title="Get default input file extension.">
<polygon fill="white" stroke="#666666" points="868,-236 728,-236 728,-206 868,-206 868,-236"/>
<text text-anchor="start" x="736" y="-224" font-family="Helvetica,sans-Serif" font-size="10.00">ConfigManager::get</text>
<text text-anchor="middle" x="798" y="-213" font-family="Helvetica,sans-Serif" font-size="10.00">_default_input_extension</text>
</a>
</g>
</g>
<!-- Node2&#45;&gt;Node7 -->
<g id="edge6_Node000002_Node000007" class="edge">
<title>Node2&#45;&gt;Node7</title>
<g id="a_edge6_Node000002_Node000007"><a xlink:title=" ">
<path fill="none" stroke="#63b8ff" d="M905.52,-205.52C893.29,-207.29 880.48,-209.16 868.14,-210.95"/>
<polygon fill="#63b8ff" stroke="#63b8ff" points="906.24,-208.95 915.63,-204.05 905.23,-202.02 906.24,-208.95"/>
</a>
</g>
</g>
<!-- Node8 -->
<g id="Node000008" class="node">
<title>Node8</title>
<g id="a_Node000008"><a xlink:href="group__ConfigExtensions.html#ga78a8d16a8cf807b9c75b84a19a3549a9" target="_top" xlink:title="Check if an extension is valid for input files.">
<polygon fill="white" stroke="#666666" points="865,-188 731,-188 731,-158 865,-158 865,-188"/>
<text text-anchor="start" x="739" y="-176" font-family="Helvetica,sans-Serif" font-size="10.00">ConfigManager::is_valid</text>
<text text-anchor="middle" x="798" y="-165" font-family="Helvetica,sans-Serif" font-size="10.00">_input_extension</text>
</a>
</g>
</g>
<!-- Node2&#45;&gt;Node8 -->
<g id="edge7_Node000002_Node000008" class="edge">
<title>Node2&#45;&gt;Node8</title>
<g id="a_edge7_Node000002_Node000008"><a xlink:title=" ">
<path fill="none" stroke="#63b8ff" d="M905.64,-187.26C892.36,-185.48 878.38,-183.61 865.08,-181.84"/>
<polygon fill="#63b8ff" stroke="#63b8ff" points="905.26,-190.74 915.63,-188.6 906.18,-183.8 905.26,-190.74"/>
</a>
</g>
</g>
<!-- Node4 -->
<g id="Node000004" class="node">
<title>Node4</title>
<g id="a_Node000004"><a xlink:href="group__IndependentChecking.html#gaa8965610d902e28ebf4946e0ba1f659d" target="_top" xlink:title="Direct error checking without other status considerations.">
<polygon fill="white" stroke="#666666" points="692,-332 558,-332 558,-302 692,-302 692,-332"/>
<text text-anchor="start" x="566" y="-320" font-family="Helvetica,sans-Serif" font-size="10.00">JobChecker::check_error</text>
<text text-anchor="middle" x="625" y="-309" font-family="Helvetica,sans-Serif" font-size="10.00">_directly</text>
</a>
</g>
</g>
<!-- Node3&#45;&gt;Node4 -->
<g id="edge3_Node000003_Node000004" class="edge">
<title>Node3&#45;&gt;Node4</title>
<g id="a_edge3_Node000003_Node000004"><a xlink:title=" ">
<path fill="none" stroke="#63b8ff" d="M733.63,-286.79C715.81,-291.79 696.62,-297.18 679.45,-302"/>
<polygon fill="#63b8ff" stroke="#63b8ff" points="734.68,-290.13 743.36,-284.06 732.79,-283.39 734.68,-290.13"/>
</a>
</g>
</g>
<!-- Node5 -->
<g id="Node000005" class="node">
<title>Node5</title>
<g id="a_Node000005"><a xlink:href="group__IndividualChecking.html#gacaf7b75f3c058b5648c894ee21eadf5d" target="_top" xlink:title="Determine the status of a single Gaussian job.">
<polygon fill="white" stroke="#666666" points="687.5,-284 562.5,-284 562.5,-254 687.5,-254 687.5,-284"/>
<text text-anchor="start" x="570.5" y="-272" font-family="Helvetica,sans-Serif" font-size="10.00">JobChecker::check_job</text>
<text text-anchor="middle" x="625" y="-261" font-family="Helvetica,sans-Serif" font-size="10.00">_status</text>
</a>
</g>
</g>
<!-- Node3&#45;&gt;Node5 -->
<g id="edge4_Node000003_Node000005" class="edge">
<title>Node3&#45;&gt;Node5</title>
<g id="a_edge4_Node000003_Node000005"><a xlink:title=" ">
<path fill="none" stroke="#63b8ff" d="M720.81,-269C709.74,-269 698.47,-269 687.73,-269"/>
<polygon fill="#63b8ff" stroke="#63b8ff" points="720.89,-272.5 730.89,-269 720.89,-265.5 720.89,-272.5"/>
</a>
</g>
</g>
<!-- Node6 -->
<g id="Node000006" class="node">
<title>Node6</title>
<g id="a_Node000006"><a xlink:href="group__IndependentChecking.html#gacfdc4123589e37c388a139841e0860e8" target="_top" xlink:title="Direct PCM failure checking without other status considerations.">
<polygon fill="white" stroke="#666666" points="690.5,-236 559.5,-236 559.5,-206 690.5,-206 690.5,-236"/>
<text text-anchor="start" x="567.5" y="-224" font-family="Helvetica,sans-Serif" font-size="10.00">JobChecker::check_pcm</text>
<text text-anchor="middle" x="625" y="-213" font-family="Helvetica,sans-Serif" font-size="10.00">_directly</text>
</a>
</g>
</g>
<!-- Node3&#45;&gt;Node6 -->
<g id="edge5_Node000003_Node000006" class="edge">
<title>Node3&#45;&gt;Node6</title>
<g id="a_edge5_Node000003_Node000006"><a xlink:title=" ">
<path fill="none" stroke="#63b8ff" d="M733.63,-251.21C715.81,-246.21 696.62,-240.82 679.45,-236"/>
<polygon fill="#63b8ff" stroke="#63b8ff" points="732.79,-254.61 743.36,-253.94 734.68,-247.87 732.79,-254.61"/>
</a>
</g>
</g>
<!-- Node10 -->
<g id="Node000010" class="node">
<title>Node10</title>
<g id="a_Node000010"><a xlink:href="group__ConfigExtensions.html#ga7669413b3e9cc5c696382a53a2cf9417" target="_top" xlink:title="Check if an extension is valid for output files.">
<polygon fill="white" stroke="#666666" points="865,-140 731,-140 731,-110 865,-110 865,-140"/>
<text text-anchor="start" x="739" y="-128" font-family="Helvetica,sans-Serif" font-size="10.00">ConfigManager::is_valid</text>
<text text-anchor="middle" x="798" y="-117" font-family="Helvetica,sans-Serif" font-size="10.00">_output_extension</text>
</a>
</g>
</g>
<!-- Node9&#45;&gt;Node10 -->
<g id="edge9_Node000009_Node000010" class="edge">
<title>Node9&#45;&gt;Node10</title>
<g id="a_edge9_Node000009_Node000010"><a xlink:title=" ">
<path fill="none" stroke="#63b8ff" d="M905.24,-127.47C892.08,-127.16 878.25,-126.84 865.08,-126.54"/>
<polygon fill="#63b8ff" stroke="#63b8ff" points="905.55,-130.98 915.63,-127.71 905.72,-123.98 905.55,-130.98"/>
</a>
</g>
</g>
<!-- Node12 -->
<g id="Node000012" class="node">
<title>Node12</title>
<g id="a_Node000012"><a xlink:href="group__ConfigLoading.html#gadb55801d91871e98b5c5da2acd289a35" target="_top" xlink:title="Load configuration from file with error handling.">
<polygon fill="white" stroke="#666666" points="683.5,-73 566.5,-73 566.5,-43 683.5,-43 683.5,-73"/>
<text text-anchor="start" x="574.5" y="-61" font-family="Helvetica,sans-Serif" font-size="10.00">ConfigManager::load</text>
<text text-anchor="middle" x="625" y="-50" font-family="Helvetica,sans-Serif" font-size="10.00">_config</text>
</a>
</g>
</g>
<!-- Node11&#45;&gt;Node12 -->
<g id="edge11_Node000011_Node000012" class="edge">
<title>Node11&#45;&gt;Node12</title>
<g id="a_edge11_Node000011_Node000012"><a xlink:title=" ">
<path fill="none" stroke="#63b8ff" d="M900.11,-76.27C836.14,-72.01 743.22,-65.81 683.69,-61.85"/>
<polygon fill="#63b8ff" stroke="#63b8ff" points="899.9,-79.77 910.12,-76.94 900.37,-72.78 899.9,-79.77"/>
</a>
</g>
</g>
<!-- Node13 -->
<g id="Node000013" class="node">
<title>Node13</title>
<g id="a_Node000013"><a xlink:href="group__CommandExecutors.html#ga1389de38a8f4d50be08ded6a0240627f" target="_top" xlink:title="Load and initialize configuration system.">
<polygon fill="white" stroke="#666666" points="520.5,-116 396.5,-116 396.5,-86 520.5,-86 520.5,-116"/>
<text text-anchor="start" x="404.5" y="-104" font-family="Helvetica,sans-Serif" font-size="10.00">CommandParser::load</text>
<text text-anchor="middle" x="458.5" y="-93" font-family="Helvetica,sans-Serif" font-size="10.00">_configuration</text>
</a>
</g>
</g>
<!-- Node12&#45;&gt;Node13 -->
<g id="edge12_Node000012_Node000013" class="edge">
<title>Node12&#45;&gt;Node13</title>
<g id="a_edge12_Node000012_Node000013"><a xlink:title=" ">
<path fill="none" stroke="#63b8ff" d="M556.55,-75.63C543.42,-79.06 529.77,-82.63 517,-85.97"/>
<polygon fill="#63b8ff" stroke="#63b8ff" points="557.68,-78.95 566.47,-73.04 555.91,-72.18 557.68,-78.95"/>
</a>
</g>
</g>
<!-- Node15 -->
<g id="Node000015" class="node">
<title>Node15</title>
<g id="a_Node000015"><a xlink:href="main_8cpp.html#a0ddf1224851353fc92bfbff6f499fa97" target="_top" xlink:title="Main entry point for the Gaussian Extractor application.">
<polygon fill="white" stroke="#666666" points="41,-105.5 0,-105.5 0,-86.5 41,-86.5 41,-105.5"/>
<text text-anchor="middle" x="20.5" y="-93.5" font-family="Helvetica,sans-Serif" font-size="10.00">main</text>
</a>
</g>
</g>
<!-- Node12&#45;&gt;Node15 -->
<g id="edge17_Node000012_Node000015" class="edge">
<title>Node12&#45;&gt;Node15</title>
<g id="a_edge17_Node000012_Node000015"><a xlink:title=" ">
<path fill="none" stroke="#63b8ff" d="M556.31,-54.51C452.34,-50.48 247.48,-47.84 77,-78 64.83,-80.15 51.66,-84.34 41.2,-88.14"/>
<polygon fill="#63b8ff" stroke="#63b8ff" points="556.22,-58.01 566.36,-54.91 556.51,-51.01 556.22,-58.01"/>
</a>
</g>
</g>
<!-- Node17 -->
<g id="Node000017" class="node">
<title>Node17</title>
<g id="a_Node000017"><a xlink:href="group__ConfigLoading.html#gad792b6c3fe11b0bd927622b2e0966bf5" target="_top" xlink:title="Reload configuration from the previously loaded file.">
<polygon fill="white" stroke="#666666" points="522,-30 395,-30 395,0 522,0 522,-30"/>
<text text-anchor="start" x="403" y="-18" font-family="Helvetica,sans-Serif" font-size="10.00">ConfigManager::reload</text>
<text text-anchor="middle" x="458.5" y="-7" font-family="Helvetica,sans-Serif" font-size="10.00">_config</text>
</a>
</g>
</g>
<!-- Node12&#45;&gt;Node17 -->
<g id="edge18_Node000012_Node000017" class="edge">
<title>Node12&#45;&gt;Node17</title>
<g id="a_edge18_Node000012_Node000017"><a xlink:title=" ">
<path fill="none" stroke="#63b8ff" d="M556.55,-40.37C543.42,-36.94 529.77,-33.37 517,-30.03"/>
<polygon fill="#63b8ff" stroke="#63b8ff" points="555.91,-43.82 566.47,-42.96 557.68,-37.05 555.91,-43.82"/>
</a>
</g>
</g>
<!-- Node14 -->
<g id="Node000014" class="node">
<title>Node14</title>
<g id="a_Node000014"><a xlink:href="group__CommandExecutors.html#ga2c1ceafe241a0b4e19790bb5d878ed1a" target="_top" xlink:title="Parse command&#45;line arguments and create execution context.">
<polygon fill="white" stroke="#666666" points="359,-110.5 229,-110.5 229,-91.5 359,-91.5 359,-110.5"/>
<text text-anchor="middle" x="294" y="-98.5" font-family="Helvetica,sans-Serif" font-size="10.00">CommandParser::parse</text>
</a>
</g>
</g>
<!-- Node13&#45;&gt;Node14 -->
<g id="edge13_Node000013_Node000014" class="edge">
<title>Node13&#45;&gt;Node14</title>
<g id="a_edge13_Node000013_Node000014"><a xlink:title=" ">
<path fill="none" stroke="#63b8ff" d="M385.78,-101C376.94,-101 367.95,-101 359.23,-101"/>
<polygon fill="#63b8ff" stroke="#63b8ff" points="386.07,-104.5 396.07,-101 386.07,-97.5 386.07,-104.5"/>
</a>
</g>
</g>
<!-- Node14&#45;&gt;Node15 -->
<g id="edge14_Node000014_Node000015" class="edge">
<title>Node14&#45;&gt;Node15</title>
<g id="a_edge14_Node000014_Node000015"><a xlink:title=" ">
<path fill="none" stroke="#63b8ff" d="M233.63,-112.12C190.04,-118.52 129.51,-123.74 77,-115 64.74,-112.96 51.56,-108.55 41.13,-104.49"/>
<polygon fill="#63b8ff" stroke="#63b8ff" points="234.43,-115.54 243.78,-110.56 233.37,-108.62 234.43,-115.54"/>
</a>
</g>
</g>
<!-- Node16 -->
<g id="Node000016" class="node">
<title>Node16</title>
<g id="a_Node000016"><a xlink:href="interactive__mode_8cpp.html#a6b615c34054150d837dc45ed1c17b297" target="_top" xlink:title="Enhanced interactive command loop with TAB completion for Windows.">
<polygon fill="white" stroke="#666666" points="193,-105.5 77,-105.5 77,-86.5 193,-86.5 193,-105.5"/>
<text text-anchor="middle" x="135" y="-93.5" font-family="Helvetica,sans-Serif" font-size="10.00">run_interactive_loop</text>
</a>
</g>
</g>
<!-- Node14&#45;&gt;Node16 -->
<g id="edge15_Node000014_Node000016" class="edge">
<title>Node14&#45;&gt;Node16</title>
<g id="a_edge15_Node000014_Node000016"><a xlink:title=" ">
<path fill="none" stroke="#63b8ff" d="M218.47,-98.63C210.05,-98.36 201.57,-98.09 193.41,-97.83"/>
<polygon fill="#63b8ff" stroke="#63b8ff" points="218.58,-102.13 228.69,-98.95 218.81,-95.14 218.58,-102.13"/>
</a>
</g>
</g>
<!-- Node16&#45;&gt;Node15 -->
<g id="edge16_Node000016_Node000015" class="edge">
<title>Node16&#45;&gt;Node15</title>
<g id="a_edge16_Node000016_Node000015"><a xlink:title=" ">
<path fill="none" stroke="#63b8ff" d="M66.62,-96C57.37,-96 48.55,-96 41.19,-96"/>
<polygon fill="#63b8ff" stroke="#63b8ff" points="66.76,-99.5 76.76,-96 66.76,-92.5 66.76,-99.5"/>
</a>
</g>
</g>
<!-- Node19 -->
<g id="Node000019" class="node">
<title>Node19</title>
<g id="a_Node000019"><a xlink:href="group__ConfigValidation.html#ga3b0a3320c46ed448da49cea015ea4b31" target="_top" xlink:title="Validate all configuration values for correctness and consistency.">
<polygon fill="white" stroke="#666666" points="866,-50 730,-50 730,-20 866,-20 866,-50"/>
<text text-anchor="start" x="738" y="-38" font-family="Helvetica,sans-Serif" font-size="10.00">ConfigManager::validate</text>
<text text-anchor="middle" x="798" y="-27" font-family="Helvetica,sans-Serif" font-size="10.00">_config</text>
</a>
</g>
</g>
<!-- Node18&#45;&gt;Node19 -->
<g id="edge20_Node000018_Node000019" class="edge">
<title>Node18&#45;&gt;Node19</title>
<g id="a_edge20_Node000018_Node000019"><a xlink:title=" ">
<path fill="none" stroke="#63b8ff" d="M893.3,-33.9C884.19,-34.01 874.96,-34.12 866.01,-34.22"/>
<polygon fill="#63b8ff" stroke="#63b8ff" points="893.56,-37.4 903.51,-33.78 893.47,-30.4 893.56,-37.4"/>
</a>
</g>
</g>
<!-- Node19&#45;&gt;Node12 -->
<g id="edge21_Node000019_Node000012" class="edge">
<title>Node19&#45;&gt;Node12</title>
<g id="a_edge21_Node000019_Node000012"><a xlink:title=" ">
<path fill="none" stroke="#63b8ff" d="M719.8,-45.38C707.68,-47.01 695.34,-48.67 683.76,-50.23"/>
<polygon fill="#63b8ff" stroke="#63b8ff" points="720.46,-48.83 729.91,-44.02 719.53,-41.89 720.46,-48.83"/>
</a>
</g>
</g>
</g>
</svg>

<g id="navigator" transform="translate(0 0)" fill="#404254">
  <rect fill="#f2f5e9" fill-opacity="0.5" stroke="#606060" stroke-width=".5" x="0" y="0" width="60" height="60"/>
  <use id="zoomplus" xlink:href="#zoomPlus" x="17" y="9" onmousedown="handleZoom(evt,'in')"/>
  <use id="zoomminus" xlink:href="#zoomMin" x="42" y="9" onmousedown="handleZoom(evt,'out')"/>
  <use id="reset" xlink:href="#resetDef" x="30" y="36" onmousedown="handleReset()"/>
   <use id="arrowup" xlink:href="#arrowUp" x="0" y="0" onmousedown="handlePan(0,-1)"/>
  <use id="arrowright" xlink:href="#arrowRight" x="0" y="0" onmousedown="handlePan(1,0)"/>
  <use id="arrowdown" xlink:href="#arrowDown" x="0" y="0" onmousedown="handlePan(0,1)"/>
  <use id="arrowleft" xlink:href="#arrowLeft" x="0" y="0" onmousedown="handlePan(-1,0)"/>
</g>
<svg viewBox="0 0 15 15" width="100%" height="30px" preserveAspectRatio="xMaxYMin meet">
 <g id="arrow_out" transform="scale(0.3 0.3)">
  <a xlink:href="group__ConfigInternals_ga24e6150f47d12f03a5864631c6d846c5_icgraph_org.svg" target="_base">
   <rect id="button" ry="5" rx="5" y="6" x="6" height="38" width="38"
        fill="#f2f5e9" fill-opacity="0.5" stroke="#606060" stroke-width="1.0"/>
   <path id="arrow"
     d="M 11.500037,31.436501 C 11.940474,20.09759 22.043105,11.32322 32.158766,21.979434 L 37.068811,17.246167 C 37.068811,17.246167 37.088388,32 37.088388,32 L 22.160133,31.978069 C 22.160133,31.978069 26.997745,27.140456 26.997745,27.140456 C 18.528582,18.264221 13.291696,25.230495 11.500037,31.436501 z"
     style="fill:#404040;"/>
  </a>
 </g>
</svg>

<style type='text/css'>
<![CDATA[
[data-mouse-over-selected='false'] { opacity: 0.7; }
[data-mouse-over-selected='true']  { opacity: 1.0; }
]]>
</style>
<script type="application/ecmascript"><![CDATA[
document.addEventListener('DOMContentLoaded', (event) => {
  highlightEdges();
  highlightAdjacentNodes();
});
]]></script>
</svg>
