<?xml version="1.0" encoding="UTF-8" standalone="no"?>
<!DOCTYPE svg PUBLIC "-//W3C//DTD SVG 1.1//EN"
 "http://www.w3.org/Graphics/SVG/1.1/DTD/svg11.dtd">
<!-- Generated by graphviz version 2.43.0 (0)
 -->
<!-- Title: CommandParser::find_or_create_default_param_file Pages: 1 -->
<svg width="573pt" height="134pt"
 viewBox="0.00 0.00 573.00 134.00" xmlns="http://www.w3.org/2000/svg" xmlns:xlink="http://www.w3.org/1999/xlink">
<g id="graph0" class="graph" transform="scale(1 1) rotate(0) translate(4 130)">
<title>CommandParser::find_or_create_default_param_file</title>
<!-- Node1 -->
<g id="Node000001" class="node">
<title>Node1</title>
<g id="a_Node000001"><a xlink:title="Find or create a default parameter file for create_input.">
<polygon fill="#999999" stroke="#666666" points="164,-78 0,-78 0,-48 164,-48 164,-78"/>
<text text-anchor="start" x="8" y="-66" font-family="Helvetica,sans-Serif" font-size="10.00">CommandParser::find</text>
<text text-anchor="middle" x="82" y="-55" font-family="Helvetica,sans-Serif" font-size="10.00">_or_create_default_param_file</text>
</a>
</g>
</g>
<!-- Node2 -->
<g id="Node000002" class="node">
<title>Node2</title>
<g id="a_Node000002"><a xlink:href="classParameterParser.html#a48693f28a48ad94f4ab08d47ffe198e3" target="_top" xlink:title="Generate a template parameter file for a specific calculation type.">
<polygon fill="white" stroke="#666666" points="348,-126 202,-126 202,-96 348,-96 348,-126"/>
<text text-anchor="start" x="210" y="-114" font-family="Helvetica,sans-Serif" font-size="10.00">ParameterParser::generate</text>
<text text-anchor="middle" x="275" y="-103" font-family="Helvetica,sans-Serif" font-size="10.00">Template</text>
</a>
</g>
</g>
<!-- Node1&#45;&gt;Node2 -->
<g id="edge1_Node000001_Node000002" class="edge">
<title>Node1&#45;&gt;Node2</title>
<g id="a_edge1_Node000001_Node000002"><a xlink:title=" ">
<path fill="none" stroke="#63b8ff" d="M142.91,-78.06C162.47,-82.97 184.34,-88.47 204.54,-93.54"/>
<polygon fill="#63b8ff" stroke="#63b8ff" points="203.75,-96.95 214.3,-96 205.46,-90.17 203.75,-96.95"/>
</a>
</g>
</g>
<!-- Node4 -->
<g id="Node000004" class="node">
<title>Node4</title>
<g id="a_Node000004"><a xlink:href="group__ConfigFileUtils.html#gaf98b0febad38de1b8c8b06b5b9808d26" target="_top" xlink:title="Get the directory where the executable is located.">
<polygon fill="white" stroke="#666666" points="350,-78 200,-78 200,-48 350,-48 350,-78"/>
<text text-anchor="start" x="208" y="-66" font-family="Helvetica,sans-Serif" font-size="10.00">ConfigUtils::get_executable</text>
<text text-anchor="middle" x="275" y="-55" font-family="Helvetica,sans-Serif" font-size="10.00">_directory</text>
</a>
</g>
</g>
<!-- Node1&#45;&gt;Node4 -->
<g id="edge3_Node000001_Node000004" class="edge">
<title>Node1&#45;&gt;Node4</title>
<g id="a_edge3_Node000001_Node000004"><a xlink:title=" ">
<path fill="none" stroke="#63b8ff" d="M164,-63C172.55,-63 181.26,-63 189.85,-63"/>
<polygon fill="#63b8ff" stroke="#63b8ff" points="189.85,-66.5 199.85,-63 189.85,-59.5 189.85,-66.5"/>
</a>
</g>
</g>
<!-- Node5 -->
<g id="Node000005" class="node">
<title>Node5</title>
<g id="a_Node000005"><a xlink:href="group__ConfigUtilities.html#gac3e49e311008abed27ce54b805f5f925" target="_top" xlink:title="Get user&#39;s home directory path.">
<polygon fill="white" stroke="#666666" points="337.5,-30 212.5,-30 212.5,0 337.5,0 337.5,-30"/>
<text text-anchor="start" x="220.5" y="-18" font-family="Helvetica,sans-Serif" font-size="10.00">ConfigManager::get</text>
<text text-anchor="middle" x="275" y="-7" font-family="Helvetica,sans-Serif" font-size="10.00">_user_home_directory</text>
</a>
</g>
</g>
<!-- Node1&#45;&gt;Node5 -->
<g id="edge4_Node000001_Node000005" class="edge">
<title>Node1&#45;&gt;Node5</title>
<g id="a_edge4_Node000001_Node000005"><a xlink:title=" ">
<path fill="none" stroke="#63b8ff" d="M142.91,-47.94C162.47,-43.03 184.34,-37.53 204.54,-32.46"/>
<polygon fill="#63b8ff" stroke="#63b8ff" points="205.46,-35.83 214.3,-30 203.75,-29.05 205.46,-35.83"/>
</a>
</g>
</g>
<!-- Node3 -->
<g id="Node000003" class="node">
<title>Node3</title>
<g id="a_Node000003"><a xlink:href="classParameterParser.html#aa27eb54dd9e8db004620025757b8a759" target="_top" xlink:title="Create template content for a specific calculation type.">
<polygon fill="white" stroke="#666666" points="565,-126 386,-126 386,-96 565,-96 565,-126"/>
<text text-anchor="start" x="394" y="-114" font-family="Helvetica,sans-Serif" font-size="10.00">ParameterParser::createTemplate</text>
<text text-anchor="middle" x="475.5" y="-103" font-family="Helvetica,sans-Serif" font-size="10.00">Content</text>
</a>
</g>
</g>
<!-- Node2&#45;&gt;Node3 -->
<g id="edge2_Node000002_Node000003" class="edge">
<title>Node2&#45;&gt;Node3</title>
<g id="a_edge2_Node000002_Node000003"><a xlink:title=" ">
<path fill="none" stroke="#63b8ff" d="M348.22,-111C357.18,-111 366.45,-111 375.72,-111"/>
<polygon fill="#63b8ff" stroke="#63b8ff" points="375.76,-114.5 385.76,-111 375.76,-107.5 375.76,-114.5"/>
</a>
</g>
</g>
</g>
</svg>
