<?xml version="1.0" encoding="UTF-8" standalone="no"?>
<!DOCTYPE svg PUBLIC "-//W3C//DTD SVG 1.1//EN"
 "http://www.w3.org/Graphics/SVG/1.1/DTD/svg11.dtd">
<!-- Generated by graphviz version 2.43.0 (0)
 -->
<!-- Title: ConfigManager::get_double Pages: 1 -->
<svg width="1019pt" height="219pt"
 viewBox="0.00 0.00 1019.00 219.43" xmlns="http://www.w3.org/2000/svg" xmlns:xlink="http://www.w3.org/1999/xlink">
<g id="graph0" class="graph" transform="scale(1 1) rotate(0) translate(4 215.43)">
<title>ConfigManager::get_double</title>
<!-- Node1 -->
<g id="Node000001" class="node">
<title>Node1</title>
<g id="a_Node000001"><a xlink:title="Get double configuration value.">
<polygon fill="#999999" stroke="#666666" points="1011,-139.43 899,-139.43 899,-109.43 1011,-109.43 1011,-139.43"/>
<text text-anchor="start" x="907" y="-127.43" font-family="Helvetica,sans-Serif" font-size="10.00">ConfigManager::get</text>
<text text-anchor="middle" x="955" y="-116.43" font-family="Helvetica,sans-Serif" font-size="10.00">_double</text>
</a>
</g>
</g>
<!-- Node1&#45;&gt;Node1 -->
<g id="edge12_Node000001_Node000001" class="edge">
<title>Node1&#45;&gt;Node1</title>
<g id="a_edge12_Node000001_Node000001"><a xlink:title=" ">
<path fill="none" stroke="#63b8ff" d="M983.01,-150.03C979.18,-154.4 969.84,-157.43 955,-157.43 930,-157.43 920.62,-148.84 926.88,-139.71"/>
<polygon fill="#63b8ff" stroke="#63b8ff" points="986.51,-149.75 983.12,-139.71 979.51,-149.67 986.51,-149.75"/>
</a>
</g>
</g>
<!-- Node2 -->
<g id="Node000002" class="node">
<title>Node2</title>
<g id="a_Node000002"><a xlink:href="group__ConfigConvenience.html#ga2c7220a086fa36ee3e3c2c6042f9da05" target="_top" xlink:title="Get default concentration for phase corrections.">
<polygon fill="white" stroke="#666666" points="859,-115.43 731,-115.43 731,-85.43 859,-85.43 859,-115.43"/>
<text text-anchor="start" x="739" y="-103.43" font-family="Helvetica,sans-Serif" font-size="10.00">ConfigManager::get</text>
<text text-anchor="middle" x="795" y="-92.43" font-family="Helvetica,sans-Serif" font-size="10.00">_default_concentration</text>
</a>
</g>
</g>
<!-- Node1&#45;&gt;Node2 -->
<g id="edge1_Node000001_Node000002" class="edge">
<title>Node1&#45;&gt;Node2</title>
<g id="a_edge1_Node000001_Node000002"><a xlink:title=" ">
<path fill="none" stroke="#63b8ff" d="M888.67,-114.51C878.88,-113.02 868.81,-111.49 859.07,-110.01"/>
<polygon fill="#63b8ff" stroke="#63b8ff" points="888.33,-118 898.74,-116.04 889.38,-111.08 888.33,-118"/>
</a>
</g>
</g>
<!-- Node8 -->
<g id="Node000008" class="node">
<title>Node8</title>
<g id="a_Node000008"><a xlink:href="group__ConfigConvenience.html#ga47c9d72fd9780fc590ab84caad671b89" target="_top" xlink:title="Get default pressure for standard state calculations.">
<polygon fill="white" stroke="#666666" points="851,-163.43 739,-163.43 739,-133.43 851,-133.43 851,-163.43"/>
<text text-anchor="start" x="747" y="-151.43" font-family="Helvetica,sans-Serif" font-size="10.00">ConfigManager::get</text>
<text text-anchor="middle" x="795" y="-140.43" font-family="Helvetica,sans-Serif" font-size="10.00">_default_pressure</text>
</a>
</g>
</g>
<!-- Node1&#45;&gt;Node8 -->
<g id="edge9_Node000001_Node000008" class="edge">
<title>Node1&#45;&gt;Node8</title>
<g id="a_edge9_Node000001_Node000008"><a xlink:title=" ">
<path fill="none" stroke="#63b8ff" d="M888.84,-134.33C876.35,-136.23 863.38,-138.2 851.23,-140.04"/>
<polygon fill="#63b8ff" stroke="#63b8ff" points="889.38,-137.79 898.74,-132.83 888.33,-130.87 889.38,-137.79"/>
</a>
</g>
</g>
<!-- Node9 -->
<g id="Node000009" class="node">
<title>Node9</title>
<g id="a_Node000009"><a xlink:href="group__ConfigConvenience.html#ga113889538141fc1547ec4244b3de8002" target="_top" xlink:title="Get default temperature for thermodynamic calculations.">
<polygon fill="white" stroke="#666666" points="856,-211.43 734,-211.43 734,-181.43 856,-181.43 856,-211.43"/>
<text text-anchor="start" x="742" y="-199.43" font-family="Helvetica,sans-Serif" font-size="10.00">ConfigManager::get</text>
<text text-anchor="middle" x="795" y="-188.43" font-family="Helvetica,sans-Serif" font-size="10.00">_default_temperature</text>
</a>
</g>
</g>
<!-- Node1&#45;&gt;Node9 -->
<g id="edge10_Node000001_Node000009" class="edge">
<title>Node1&#45;&gt;Node9</title>
<g id="a_edge10_Node000001_Node000009"><a xlink:title=" ">
<path fill="none" stroke="#63b8ff" d="M918.96,-144.41C902.28,-153.52 881.9,-164.12 863,-172.43 855.88,-175.57 848.2,-178.62 840.68,-181.43"/>
<polygon fill="#63b8ff" stroke="#63b8ff" points="920.75,-147.42 927.81,-139.52 917.36,-141.29 920.75,-147.42"/>
</a>
</g>
</g>
<!-- Node10 -->
<g id="Node000010" class="node">
<title>Node10</title>
<g id="a_Node000010"><a xlink:href="group__ConfigValidation.html#ga3b0a3320c46ed448da49cea015ea4b31" target="_top" xlink:title="Validate all configuration values for correctness and consistency.">
<polygon fill="white" stroke="#666666" points="863,-55.43 727,-55.43 727,-25.43 863,-25.43 863,-55.43"/>
<text text-anchor="start" x="735" y="-43.43" font-family="Helvetica,sans-Serif" font-size="10.00">ConfigManager::validate</text>
<text text-anchor="middle" x="795" y="-32.43" font-family="Helvetica,sans-Serif" font-size="10.00">_config</text>
</a>
</g>
</g>
<!-- Node1&#45;&gt;Node10 -->
<g id="edge13_Node000001_Node000010" class="edge">
<title>Node1&#45;&gt;Node10</title>
<g id="a_edge13_Node000001_Node000010"><a xlink:title=" ">
<path fill="none" stroke="#63b8ff" d="M916.57,-104.54C888.28,-89.49 850.03,-69.16 824.27,-55.46"/>
<polygon fill="#63b8ff" stroke="#63b8ff" points="915.28,-107.81 925.75,-109.42 918.57,-101.63 915.28,-107.81"/>
</a>
</g>
</g>
<!-- Node3 -->
<g id="Node000003" class="node">
<title>Node3</title>
<g id="a_Node000003"><a xlink:href="group__CommandExecutors.html#ga9fcc8aa9bb1408d529764d3767029d02" target="_top" xlink:title="Apply configuration values to command context.">
<polygon fill="white" stroke="#666666" points="691,-185.43 561,-185.43 561,-155.43 691,-155.43 691,-185.43"/>
<text text-anchor="start" x="569" y="-173.43" font-family="Helvetica,sans-Serif" font-size="10.00">CommandParser::apply</text>
<text text-anchor="middle" x="626" y="-162.43" font-family="Helvetica,sans-Serif" font-size="10.00">_config_to_context</text>
</a>
</g>
</g>
<!-- Node2&#45;&gt;Node3 -->
<g id="edge2_Node000002_Node000003" class="edge">
<title>Node2&#45;&gt;Node3</title>
<g id="a_edge2_Node000002_Node000003"><a xlink:title=" ">
<path fill="none" stroke="#63b8ff" d="M740.66,-119.06C736.02,-120.83 731.41,-122.63 727,-124.43 703.47,-134.04 677.4,-146.08 657.78,-155.43"/>
<polygon fill="#63b8ff" stroke="#63b8ff" points="742.04,-122.29 750.18,-115.51 739.59,-115.73 742.04,-122.29"/>
</a>
</g>
</g>
<!-- Node7 -->
<g id="Node000007" class="node">
<title>Node7</title>
<g id="a_Node000007"><a xlink:href="group__CommandExecutors.html#gac169a83a7e2b8c13986757b485e9517d" target="_top" xlink:title="Parse options specific to extract command.">
<polygon fill="white" stroke="#666666" points="525,-142.43 395,-142.43 395,-112.43 525,-112.43 525,-142.43"/>
<text text-anchor="start" x="403" y="-130.43" font-family="Helvetica,sans-Serif" font-size="10.00">CommandParser::parse</text>
<text text-anchor="middle" x="460" y="-119.43" font-family="Helvetica,sans-Serif" font-size="10.00">_extract_options</text>
</a>
</g>
</g>
<!-- Node2&#45;&gt;Node7 -->
<g id="edge7_Node000002_Node000007" class="edge">
<title>Node2&#45;&gt;Node7</title>
<g id="a_edge7_Node000002_Node000007"><a xlink:title=" ">
<path fill="none" stroke="#63b8ff" d="M720.7,-106.38C662.22,-111.12 581.12,-117.69 525.19,-122.23"/>
<polygon fill="#63b8ff" stroke="#63b8ff" points="721.29,-109.84 730.97,-105.54 720.72,-102.86 721.29,-109.84"/>
</a>
</g>
</g>
<!-- Node4 -->
<g id="Node000004" class="node">
<title>Node4</title>
<g id="a_Node000004"><a xlink:href="group__CommandExecutors.html#ga2c1ceafe241a0b4e19790bb5d878ed1a" target="_top" xlink:title="Parse command&#45;line arguments and create execution context.">
<polygon fill="white" stroke="#666666" points="359,-112.93 229,-112.93 229,-93.93 359,-93.93 359,-112.93"/>
<text text-anchor="middle" x="294" y="-100.93" font-family="Helvetica,sans-Serif" font-size="10.00">CommandParser::parse</text>
</a>
</g>
</g>
<!-- Node3&#45;&gt;Node4 -->
<g id="edge3_Node000003_Node000004" class="edge">
<title>Node3&#45;&gt;Node4</title>
<g id="a_edge3_Node000003_Node000004"><a xlink:title=" ">
<path fill="none" stroke="#63b8ff" d="M550.85,-171.12C505.19,-169.87 445.87,-165.24 395,-151.43 363.22,-142.81 329.28,-124.29 310.24,-112.94"/>
<polygon fill="#63b8ff" stroke="#63b8ff" points="550.89,-174.62 560.96,-171.34 551.04,-167.62 550.89,-174.62"/>
</a>
</g>
</g>
<!-- Node5 -->
<g id="Node000005" class="node">
<title>Node5</title>
<g id="a_Node000005"><a xlink:href="main_8cpp.html#a0ddf1224851353fc92bfbff6f499fa97" target="_top" xlink:title="Main entry point for the Gaussian Extractor application.">
<polygon fill="white" stroke="#666666" points="41,-74.93 0,-74.93 0,-55.93 41,-55.93 41,-74.93"/>
<text text-anchor="middle" x="20.5" y="-62.93" font-family="Helvetica,sans-Serif" font-size="10.00">main</text>
</a>
</g>
</g>
<!-- Node4&#45;&gt;Node5 -->
<g id="edge4_Node000004_Node000005" class="edge">
<title>Node4&#45;&gt;Node5</title>
<g id="a_edge4_Node000004_Node000005"><a xlink:title=" ">
<path fill="none" stroke="#63b8ff" d="M236.69,-91.94C222.47,-89.26 207.2,-86.57 193,-84.43 138.19,-76.2 73.04,-69.95 41.11,-67.11"/>
<polygon fill="#63b8ff" stroke="#63b8ff" points="236.35,-95.44 246.83,-93.89 237.66,-88.57 236.35,-95.44"/>
</a>
</g>
</g>
<!-- Node6 -->
<g id="Node000006" class="node">
<title>Node6</title>
<g id="a_Node000006"><a xlink:href="interactive__mode_8cpp.html#a6b615c34054150d837dc45ed1c17b297" target="_top" xlink:title="Enhanced interactive command loop with TAB completion for Windows.">
<polygon fill="white" stroke="#666666" points="193,-112.93 77,-112.93 77,-93.93 193,-93.93 193,-112.93"/>
<text text-anchor="middle" x="135" y="-100.93" font-family="Helvetica,sans-Serif" font-size="10.00">run_interactive_loop</text>
</a>
</g>
</g>
<!-- Node4&#45;&gt;Node6 -->
<g id="edge5_Node000004_Node000006" class="edge">
<title>Node4&#45;&gt;Node6</title>
<g id="a_edge5_Node000004_Node000006"><a xlink:title=" ">
<path fill="none" stroke="#63b8ff" d="M218.47,-103.43C210.05,-103.43 201.57,-103.43 193.41,-103.43"/>
<polygon fill="#63b8ff" stroke="#63b8ff" points="218.69,-106.93 228.69,-103.43 218.69,-99.93 218.69,-106.93"/>
</a>
</g>
</g>
<!-- Node6&#45;&gt;Node5 -->
<g id="edge6_Node000006_Node000005" class="edge">
<title>Node6&#45;&gt;Node5</title>
<g id="a_edge6_Node000006_Node000005"><a xlink:title=" ">
<path fill="none" stroke="#63b8ff" d="M96,-90.6C77.54,-84.36 56.14,-77.13 41.02,-72.03"/>
<polygon fill="#63b8ff" stroke="#63b8ff" points="95.02,-93.96 105.61,-93.84 97.26,-87.33 95.02,-93.96"/>
</a>
</g>
</g>
<!-- Node7&#45;&gt;Node4 -->
<g id="edge8_Node000007_Node000004" class="edge">
<title>Node7&#45;&gt;Node4</title>
<g id="a_edge8_Node000007_Node000004"><a xlink:title=" ">
<path fill="none" stroke="#63b8ff" d="M384.71,-116.56C376.18,-115.31 367.54,-114.05 359.16,-112.82"/>
<polygon fill="#63b8ff" stroke="#63b8ff" points="384.25,-120.03 394.65,-118.02 385.27,-113.11 384.25,-120.03"/>
</a>
</g>
</g>
<!-- Node9&#45;&gt;Node3 -->
<g id="edge11_Node000009_Node000003" class="edge">
<title>Node9&#45;&gt;Node3</title>
<g id="a_edge11_Node000009_Node000003"><a xlink:title=" ">
<path fill="none" stroke="#63b8ff" d="M723.52,-185.46C712.78,-183.79 701.75,-182.07 691.15,-180.42"/>
<polygon fill="#63b8ff" stroke="#63b8ff" points="723.29,-188.97 733.71,-187.05 724.37,-182.05 723.29,-188.97"/>
</a>
</g>
</g>
<!-- Node11 -->
<g id="Node000011" class="node">
<title>Node11</title>
<g id="a_Node000011"><a xlink:href="group__ConfigLoading.html#gadb55801d91871e98b5c5da2acd289a35" target="_top" xlink:title="Load configuration from file with error handling.">
<polygon fill="white" stroke="#666666" points="684.5,-52.43 567.5,-52.43 567.5,-22.43 684.5,-22.43 684.5,-52.43"/>
<text text-anchor="start" x="575.5" y="-40.43" font-family="Helvetica,sans-Serif" font-size="10.00">ConfigManager::load</text>
<text text-anchor="middle" x="626" y="-29.43" font-family="Helvetica,sans-Serif" font-size="10.00">_config</text>
</a>
</g>
</g>
<!-- Node10&#45;&gt;Node11 -->
<g id="edge14_Node000010_Node000011" class="edge">
<title>Node10&#45;&gt;Node11</title>
<g id="a_edge14_Node000010_Node000011"><a xlink:title=" ">
<path fill="none" stroke="#63b8ff" d="M716.34,-39.04C705.62,-38.85 694.77,-38.65 684.51,-38.47"/>
<polygon fill="#63b8ff" stroke="#63b8ff" points="716.49,-42.54 726.56,-39.22 716.62,-35.54 716.49,-42.54"/>
</a>
</g>
</g>
<!-- Node11&#45;&gt;Node5 -->
<g id="edge17_Node000011_Node000005" class="edge">
<title>Node11&#45;&gt;Node5</title>
<g id="a_edge17_Node000011_Node000005"><a xlink:title=" ">
<path fill="none" stroke="#63b8ff" d="M574.29,-19.1C558.69,-14.32 541.33,-9.83 525,-7.43 337.39,20.1 108.85,-39.82 41.23,-59.47"/>
<polygon fill="#63b8ff" stroke="#63b8ff" points="573.67,-22.58 584.26,-22.28 575.79,-15.91 573.67,-22.58"/>
</a>
</g>
</g>
<!-- Node12 -->
<g id="Node000012" class="node">
<title>Node12</title>
<g id="a_Node000012"><a xlink:href="group__CommandExecutors.html#ga1389de38a8f4d50be08ded6a0240627f" target="_top" xlink:title="Load and initialize configuration system.">
<polygon fill="white" stroke="#666666" points="522,-94.43 398,-94.43 398,-64.43 522,-64.43 522,-94.43"/>
<text text-anchor="start" x="406" y="-82.43" font-family="Helvetica,sans-Serif" font-size="10.00">CommandParser::load</text>
<text text-anchor="middle" x="460" y="-71.43" font-family="Helvetica,sans-Serif" font-size="10.00">_configuration</text>
</a>
</g>
</g>
<!-- Node11&#45;&gt;Node12 -->
<g id="edge15_Node000011_Node000012" class="edge">
<title>Node11&#45;&gt;Node12</title>
<g id="a_edge15_Node000011_Node000012"><a xlink:title=" ">
<path fill="none" stroke="#63b8ff" d="M557.29,-54.77C544.81,-57.97 531.87,-61.28 519.68,-64.41"/>
<polygon fill="#63b8ff" stroke="#63b8ff" points="558.36,-58.11 567.18,-52.24 556.62,-51.33 558.36,-58.11"/>
</a>
</g>
</g>
<!-- Node13 -->
<g id="Node000013" class="node">
<title>Node13</title>
<g id="a_Node000013"><a xlink:href="group__ConfigLoading.html#gad792b6c3fe11b0bd927622b2e0966bf5" target="_top" xlink:title="Reload configuration from the previously loaded file.">
<polygon fill="white" stroke="#666666" points="523.5,-46.43 396.5,-46.43 396.5,-16.43 523.5,-16.43 523.5,-46.43"/>
<text text-anchor="start" x="404.5" y="-34.43" font-family="Helvetica,sans-Serif" font-size="10.00">ConfigManager::reload</text>
<text text-anchor="middle" x="460" y="-23.43" font-family="Helvetica,sans-Serif" font-size="10.00">_config</text>
</a>
</g>
</g>
<!-- Node11&#45;&gt;Node13 -->
<g id="edge18_Node000011_Node000013" class="edge">
<title>Node11&#45;&gt;Node13</title>
<g id="a_edge18_Node000011_Node000013"><a xlink:title=" ">
<path fill="none" stroke="#63b8ff" d="M557.11,-34.95C546.01,-34.54 534.56,-34.13 523.59,-33.72"/>
<polygon fill="#63b8ff" stroke="#63b8ff" points="557.06,-38.45 567.18,-35.32 557.31,-31.46 557.06,-38.45"/>
</a>
</g>
</g>
<!-- Node12&#45;&gt;Node4 -->
<g id="edge16_Node000012_Node000004" class="edge">
<title>Node12&#45;&gt;Node4</title>
<g id="a_edge16_Node000012_Node000004"><a xlink:title=" ">
<path fill="none" stroke="#63b8ff" d="M388.02,-89.82C378.42,-91.23 368.61,-92.66 359.14,-94.05"/>
<polygon fill="#63b8ff" stroke="#63b8ff" points="388.54,-93.28 397.93,-88.37 387.53,-86.36 388.54,-93.28"/>
</a>
</g>
</g>
</g>
</svg>
