<?xml version="1.0" encoding="UTF-8" standalone="no"?>
<!DOCTYPE svg PUBLIC "-//W3C//DTD SVG 1.1//EN"
 "http://www.w3.org/Graphics/SVG/1.1/DTD/svg11.dtd">
<!-- Generated by graphviz version 2.43.0 (0)
 -->
<!-- Title: ConfigManager::get_default_concentration Pages: 1 -->
<svg width="697pt" height="86pt"
 viewBox="0.00 0.00 697.00 86.00" xmlns="http://www.w3.org/2000/svg" xmlns:xlink="http://www.w3.org/1999/xlink">
<g id="graph0" class="graph" transform="scale(1 1) rotate(0) translate(4 82)">
<title>ConfigManager::get_default_concentration</title>
<!-- Node1 -->
<g id="Node000001" class="node">
<title>Node1</title>
<g id="a_Node000001"><a xlink:title="Get default concentration for phase corrections.">
<polygon fill="#999999" stroke="#666666" points="689,-54 561,-54 561,-24 689,-24 689,-54"/>
<text text-anchor="start" x="569" y="-42" font-family="Helvetica,sans-Serif" font-size="10.00">ConfigManager::get</text>
<text text-anchor="middle" x="625" y="-31" font-family="Helvetica,sans-Serif" font-size="10.00">_default_concentration</text>
</a>
</g>
</g>
<!-- Node2 -->
<g id="Node000002" class="node">
<title>Node2</title>
<g id="a_Node000002"><a xlink:href="group__CommandExecutors.html#ga9fcc8aa9bb1408d529764d3767029d02" target="_top" xlink:title="Apply configuration values to command context.">
<polygon fill="white" stroke="#666666" points="525,-78 395,-78 395,-48 525,-48 525,-78"/>
<text text-anchor="start" x="403" y="-66" font-family="Helvetica,sans-Serif" font-size="10.00">CommandParser::apply</text>
<text text-anchor="middle" x="460" y="-55" font-family="Helvetica,sans-Serif" font-size="10.00">_config_to_context</text>
</a>
</g>
</g>
<!-- Node1&#45;&gt;Node2 -->
<g id="edge1_Node000001_Node000002" class="edge">
<title>Node1&#45;&gt;Node2</title>
<g id="a_edge1_Node000001_Node000002"><a xlink:title=" ">
<path fill="none" stroke="#63b8ff" d="M550.97,-49.75C542.38,-51.02 533.66,-52.3 525.2,-53.55"/>
<polygon fill="#63b8ff" stroke="#63b8ff" points="551.6,-53.2 560.98,-48.28 550.58,-46.27 551.6,-53.2"/>
</a>
</g>
</g>
<!-- Node6 -->
<g id="Node000006" class="node">
<title>Node6</title>
<g id="a_Node000006"><a xlink:href="group__CommandExecutors.html#gac169a83a7e2b8c13986757b485e9517d" target="_top" xlink:title="Parse options specific to extract command.">
<polygon fill="white" stroke="#666666" points="525,-30 395,-30 395,0 525,0 525,-30"/>
<text text-anchor="start" x="403" y="-18" font-family="Helvetica,sans-Serif" font-size="10.00">CommandParser::parse</text>
<text text-anchor="middle" x="460" y="-7" font-family="Helvetica,sans-Serif" font-size="10.00">_extract_options</text>
</a>
</g>
</g>
<!-- Node1&#45;&gt;Node6 -->
<g id="edge6_Node000001_Node000006" class="edge">
<title>Node1&#45;&gt;Node6</title>
<g id="a_edge6_Node000001_Node000006"><a xlink:title=" ">
<path fill="none" stroke="#63b8ff" d="M550.97,-28.25C542.38,-26.98 533.66,-25.7 525.2,-24.45"/>
<polygon fill="#63b8ff" stroke="#63b8ff" points="550.58,-31.73 560.98,-29.72 551.6,-24.8 550.58,-31.73"/>
</a>
</g>
</g>
<!-- Node3 -->
<g id="Node000003" class="node">
<title>Node3</title>
<g id="a_Node000003"><a xlink:href="group__CommandExecutors.html#ga2c1ceafe241a0b4e19790bb5d878ed1a" target="_top" xlink:title="Parse command&#45;line arguments and create execution context.">
<polygon fill="white" stroke="#666666" points="359,-48.5 229,-48.5 229,-29.5 359,-29.5 359,-48.5"/>
<text text-anchor="middle" x="294" y="-36.5" font-family="Helvetica,sans-Serif" font-size="10.00">CommandParser::parse</text>
</a>
</g>
</g>
<!-- Node2&#45;&gt;Node3 -->
<g id="edge2_Node000002_Node000003" class="edge">
<title>Node2&#45;&gt;Node3</title>
<g id="a_edge2_Node000002_Node000003"><a xlink:title=" ">
<path fill="none" stroke="#63b8ff" d="M384.71,-52.13C376.18,-50.88 367.54,-49.62 359.16,-48.39"/>
<polygon fill="#63b8ff" stroke="#63b8ff" points="384.25,-55.6 394.65,-53.58 385.27,-48.67 384.25,-55.6"/>
</a>
</g>
</g>
<!-- Node4 -->
<g id="Node000004" class="node">
<title>Node4</title>
<g id="a_Node000004"><a xlink:href="main_8cpp.html#a0ddf1224851353fc92bfbff6f499fa97" target="_top" xlink:title="Main entry point for the Gaussian Extractor application.">
<polygon fill="white" stroke="#666666" points="41,-48.5 0,-48.5 0,-29.5 41,-29.5 41,-48.5"/>
<text text-anchor="middle" x="20.5" y="-36.5" font-family="Helvetica,sans-Serif" font-size="10.00">main</text>
</a>
</g>
</g>
<!-- Node3&#45;&gt;Node4 -->
<g id="edge3_Node000003_Node000004" class="edge">
<title>Node3&#45;&gt;Node4</title>
<g id="a_edge3_Node000003_Node000004"><a xlink:title=" ">
<path fill="none" stroke="#63b8ff" d="M218.42,-39C158.19,-39 77.65,-39 41.06,-39"/>
<polygon fill="#63b8ff" stroke="#63b8ff" points="218.66,-42.5 228.66,-39 218.66,-35.5 218.66,-42.5"/>
</a>
</g>
</g>
<!-- Node5 -->
<g id="Node000005" class="node">
<title>Node5</title>
<g id="a_Node000005"><a xlink:href="interactive__mode_8cpp.html#a6b615c34054150d837dc45ed1c17b297" target="_top" xlink:title="Enhanced interactive command loop with TAB completion for Windows.">
<polygon fill="white" stroke="#666666" points="193,-29.5 77,-29.5 77,-10.5 193,-10.5 193,-29.5"/>
<text text-anchor="middle" x="135" y="-17.5" font-family="Helvetica,sans-Serif" font-size="10.00">run_interactive_loop</text>
</a>
</g>
</g>
<!-- Node3&#45;&gt;Node5 -->
<g id="edge4_Node000003_Node000005" class="edge">
<title>Node3&#45;&gt;Node5</title>
<g id="a_edge4_Node000003_Node000005"><a xlink:title=" ">
<path fill="none" stroke="#63b8ff" d="M218.75,-30.01C210.24,-28.98 201.66,-27.95 193.41,-26.95"/>
<polygon fill="#63b8ff" stroke="#63b8ff" points="218.34,-33.49 228.69,-31.22 219.18,-26.54 218.34,-33.49"/>
</a>
</g>
</g>
<!-- Node5&#45;&gt;Node4 -->
<g id="edge5_Node000005_Node000004" class="edge">
<title>Node5&#45;&gt;Node4</title>
<g id="a_edge5_Node000005_Node000004"><a xlink:title=" ">
<path fill="none" stroke="#63b8ff" d="M67.4,-31.25C57.88,-32.86 48.77,-34.39 41.22,-35.67"/>
<polygon fill="#63b8ff" stroke="#63b8ff" points="68.14,-34.67 77.42,-29.56 66.98,-27.77 68.14,-34.67"/>
</a>
</g>
</g>
<!-- Node6&#45;&gt;Node3 -->
<g id="edge7_Node000006_Node000003" class="edge">
<title>Node6&#45;&gt;Node3</title>
<g id="a_edge7_Node000006_Node000003"><a xlink:title=" ">
<path fill="none" stroke="#63b8ff" d="M384.71,-25.87C376.18,-27.12 367.54,-28.38 359.16,-29.61"/>
<polygon fill="#63b8ff" stroke="#63b8ff" points="385.27,-29.33 394.65,-24.42 384.25,-22.4 385.27,-29.33"/>
</a>
</g>
</g>
</g>
</svg>
