<?xml version="1.0" encoding="UTF-8" standalone="no"?>
<!DOCTYPE svg PUBLIC "-//W3C//DTD SVG 1.1//EN"
 "http://www.w3.org/Graphics/SVG/1.1/DTD/svg11.dtd">
<!-- Generated by graphviz version 2.43.0 (0)
 -->
<!-- Title: JobChecker::create_target_directory Pages: 1 -->
<svg width="940pt" height="217pt"
 viewBox="0.00 0.00 940.00 217.00" xmlns="http://www.w3.org/2000/svg" xmlns:xlink="http://www.w3.org/1999/xlink">
<g id="graph0" class="graph" transform="scale(1 1) rotate(0) translate(4 213)">
<title>JobChecker::create_target_directory</title>
<!-- Node1 -->
<g id="Node000001" class="node">
<title>Node1</title>
<g id="a_Node000001"><a xlink:title="Create target directory for file organization.">
<polygon fill="#999999" stroke="#666666" points="932,-121 825,-121 825,-91 932,-91 932,-121"/>
<text text-anchor="start" x="833" y="-109" font-family="Helvetica,sans-Serif" font-size="10.00">JobChecker::create</text>
<text text-anchor="middle" x="878.5" y="-98" font-family="Helvetica,sans-Serif" font-size="10.00">_target_directory</text>
</a>
</g>
</g>
<!-- Node2 -->
<g id="Node000002" class="node">
<title>Node2</title>
<g id="a_Node000002"><a xlink:href="group__MainChecking.html#ga0ee48f6630ee3b5bd0f33fcf567f6fb1" target="_top" xlink:title="Optimized comprehensive job checking with single&#45;pass processing.">
<polygon fill="white" stroke="#666666" points="756.5,-208 633.5,-208 633.5,-178 756.5,-178 756.5,-208"/>
<text text-anchor="start" x="641.5" y="-196" font-family="Helvetica,sans-Serif" font-size="10.00">JobChecker::check_all</text>
<text text-anchor="middle" x="695" y="-185" font-family="Helvetica,sans-Serif" font-size="10.00">_job_types_optimized</text>
</a>
</g>
</g>
<!-- Node1&#45;&gt;Node2 -->
<g id="edge1_Node000001_Node000002" class="edge">
<title>Node1&#45;&gt;Node2</title>
<g id="a_edge1_Node000001_Node000002"><a xlink:title=" ">
<path fill="none" stroke="#63b8ff" d="M850.18,-127.29C833.3,-139.65 810.77,-154.75 789,-165 778.47,-169.96 766.87,-174.28 755.53,-177.94"/>
<polygon fill="#63b8ff" stroke="#63b8ff" points="852.54,-129.9 858.46,-121.12 848.35,-124.29 852.54,-129.9"/>
</a>
</g>
</g>
<!-- Node7 -->
<g id="Node000007" class="node">
<title>Node7</title>
<g id="a_Node000007"><a xlink:href="group__MainChecking.html#ga45e3257791a2470c3f071101d0c9cc78" target="_top" xlink:title="Check and organize completed job calculations.">
<polygon fill="white" stroke="#666666" points="789,-155.5 601,-155.5 601,-136.5 789,-136.5 789,-155.5"/>
<text text-anchor="middle" x="695" y="-143.5" font-family="Helvetica,sans-Serif" font-size="10.00">JobChecker::check_completed_jobs</text>
</a>
</g>
</g>
<!-- Node1&#45;&gt;Node7 -->
<g id="edge7_Node000001_Node000007" class="edge">
<title>Node1&#45;&gt;Node7</title>
<g id="a_edge7_Node000001_Node000007"><a xlink:title=" ">
<path fill="none" stroke="#63b8ff" d="M814.45,-119.9C789.63,-125.37 761.75,-131.51 739.28,-136.46"/>
<polygon fill="#63b8ff" stroke="#63b8ff" points="815.5,-123.25 824.51,-117.68 814,-116.41 815.5,-123.25"/>
</a>
</g>
</g>
<!-- Node9 -->
<g id="Node000009" class="node">
<title>Node9</title>
<g id="a_Node000009"><a xlink:href="group__MainChecking.html#ga991a1e3c364495c7758625bac3f5ce17" target="_top" xlink:title="Check and organize jobs that terminated with errors.">
<polygon fill="white" stroke="#666666" points="774.5,-115.5 615.5,-115.5 615.5,-96.5 774.5,-96.5 774.5,-115.5"/>
<text text-anchor="middle" x="695" y="-103.5" font-family="Helvetica,sans-Serif" font-size="10.00">JobChecker::check_error_jobs</text>
</a>
</g>
</g>
<!-- Node1&#45;&gt;Node9 -->
<g id="edge11_Node000001_Node000009" class="edge">
<title>Node1&#45;&gt;Node9</title>
<g id="a_edge11_Node000001_Node000009"><a xlink:title=" ">
<path fill="none" stroke="#63b8ff" d="M814.43,-106C801.61,-106 787.97,-106 774.69,-106"/>
<polygon fill="#63b8ff" stroke="#63b8ff" points="814.51,-109.5 824.51,-106 814.51,-102.5 814.51,-109.5"/>
</a>
</g>
</g>
<!-- Node11 -->
<g id="Node000011" class="node">
<title>Node11</title>
<g id="a_Node000011"><a xlink:href="group__MainChecking.html#gaf46bb6ecb38c0c2c1f35506d6a67b8e0" target="_top" xlink:title="Check and organize jobs with imaginary frequencies.">
<polygon fill="white" stroke="#666666" points="775,-76 615,-76 615,-46 775,-46 775,-76"/>
<text text-anchor="start" x="623" y="-64" font-family="Helvetica,sans-Serif" font-size="10.00">JobChecker::check_imaginary</text>
<text text-anchor="middle" x="695" y="-53" font-family="Helvetica,sans-Serif" font-size="10.00">_frequencies</text>
</a>
</g>
</g>
<!-- Node1&#45;&gt;Node11 -->
<g id="edge15_Node000001_Node000011" class="edge">
<title>Node1&#45;&gt;Node11</title>
<g id="a_edge15_Node000001_Node000011"><a xlink:title=" ">
<path fill="none" stroke="#63b8ff" d="M814.59,-90.4C795.84,-85.75 775.33,-80.67 756.72,-76.05"/>
<polygon fill="#63b8ff" stroke="#63b8ff" points="813.97,-93.85 824.51,-92.86 815.65,-87.06 813.97,-93.85"/>
</a>
</g>
</g>
<!-- Node13 -->
<g id="Node000013" class="node">
<title>Node13</title>
<g id="a_Node000013"><a xlink:href="group__MainChecking.html#ga10ef65a58eb29a31324f3dc6ddc092c9" target="_top" xlink:title="Check and organize jobs with PCM convergence failures.">
<polygon fill="white" stroke="#666666" points="565,-30 434,-30 434,0 565,0 565,-30"/>
<text text-anchor="start" x="442" y="-18" font-family="Helvetica,sans-Serif" font-size="10.00">JobChecker::check_pcm</text>
<text text-anchor="middle" x="499.5" y="-7" font-family="Helvetica,sans-Serif" font-size="10.00">_failures</text>
</a>
</g>
</g>
<!-- Node1&#45;&gt;Node13 -->
<g id="edge19_Node000001_Node000013" class="edge">
<title>Node1&#45;&gt;Node13</title>
<g id="a_edge19_Node000001_Node000013"><a xlink:title=" ">
<path fill="none" stroke="#63b8ff" d="M856.06,-83.3C839.43,-67.31 814.92,-47.03 789,-37 716.03,-8.77 625.07,-6.75 565.01,-9.49"/>
<polygon fill="#63b8ff" stroke="#63b8ff" points="854,-86.18 863.56,-90.74 858.93,-81.21 854,-86.18"/>
</a>
</g>
</g>
<!-- Node3 -->
<g id="Node000003" class="node">
<title>Node3</title>
<g id="a_Node000003"><a xlink:href="group__MainChecking.html#gabfbdc3f5ed66c5ad702fd8878e95f203" target="_top" xlink:title="Run comprehensive checking of all job types.">
<polygon fill="white" stroke="#666666" points="560.5,-209 438.5,-209 438.5,-179 560.5,-179 560.5,-209"/>
<text text-anchor="start" x="446.5" y="-197" font-family="Helvetica,sans-Serif" font-size="10.00">JobChecker::check_all</text>
<text text-anchor="middle" x="499.5" y="-186" font-family="Helvetica,sans-Serif" font-size="10.00">_job_types</text>
</a>
</g>
</g>
<!-- Node2&#45;&gt;Node3 -->
<g id="edge2_Node000002_Node000003" class="edge">
<title>Node2&#45;&gt;Node3</title>
<g id="a_edge2_Node000002_Node000003"><a xlink:title=" ">
<path fill="none" stroke="#63b8ff" d="M623.08,-193.37C602.58,-193.47 580.42,-193.59 560.65,-193.69"/>
<polygon fill="#63b8ff" stroke="#63b8ff" points="623.32,-196.87 633.31,-193.31 623.29,-189.87 623.32,-196.87"/>
</a>
</g>
</g>
<!-- Node4 -->
<g id="Node000004" class="node">
<title>Node4</title>
<g id="a_Node000004"><a xlink:href="group__ModuleExecutors.html#ga5f1a9bdbc166546e200c5bbb2aa5db30" target="_top" xlink:title=" ">
<polygon fill="white" stroke="#666666" points="393.5,-206.5 233.5,-206.5 233.5,-187.5 393.5,-187.5 393.5,-206.5"/>
<text text-anchor="middle" x="313.5" y="-194.5" font-family="Helvetica,sans-Serif" font-size="10.00">execute_check_all_command</text>
</a>
</g>
</g>
<!-- Node3&#45;&gt;Node4 -->
<g id="edge3_Node000003_Node000004" class="edge">
<title>Node3&#45;&gt;Node4</title>
<g id="a_edge3_Node000003_Node000004"><a xlink:title=" ">
<path fill="none" stroke="#63b8ff" d="M428.06,-195.15C416.8,-195.33 405.08,-195.52 393.63,-195.71"/>
<polygon fill="#63b8ff" stroke="#63b8ff" points="428.31,-198.64 438.25,-194.98 428.2,-191.65 428.31,-198.64"/>
</a>
</g>
</g>
<!-- Node5 -->
<g id="Node000005" class="node">
<title>Node5</title>
<g id="a_Node000005"><a xlink:href="main_8cpp.html#a0ddf1224851353fc92bfbff6f499fa97" target="_top" xlink:title="Main entry point for the Gaussian Extractor application.">
<polygon fill="white" stroke="#666666" points="41,-115.5 0,-115.5 0,-96.5 41,-96.5 41,-115.5"/>
<text text-anchor="middle" x="20.5" y="-103.5" font-family="Helvetica,sans-Serif" font-size="10.00">main</text>
</a>
</g>
</g>
<!-- Node4&#45;&gt;Node5 -->
<g id="edge4_Node000004_Node000005" class="edge">
<title>Node4&#45;&gt;Node5</title>
<g id="a_edge4_Node000004_Node000005"><a xlink:title=" ">
<path fill="none" stroke="#63b8ff" d="M223.23,-199.42C177.28,-197.25 121.69,-189.13 77,-166 54.32,-154.26 36.09,-129.37 27.27,-115.62"/>
<polygon fill="#63b8ff" stroke="#63b8ff" points="223.35,-202.93 233.48,-199.81 223.62,-195.93 223.35,-202.93"/>
</a>
</g>
</g>
<!-- Node6 -->
<g id="Node000006" class="node">
<title>Node6</title>
<g id="a_Node000006"><a xlink:href="interactive__mode_8cpp.html#a6b615c34054150d837dc45ed1c17b297" target="_top" xlink:title="Enhanced interactive command loop with TAB completion for Windows.">
<polygon fill="white" stroke="#666666" points="193,-134.5 77,-134.5 77,-115.5 193,-115.5 193,-134.5"/>
<text text-anchor="middle" x="135" y="-122.5" font-family="Helvetica,sans-Serif" font-size="10.00">run_interactive_loop</text>
</a>
</g>
</g>
<!-- Node4&#45;&gt;Node6 -->
<g id="edge5_Node000004_Node000006" class="edge">
<title>Node4&#45;&gt;Node6</title>
<g id="a_edge5_Node000004_Node000006"><a xlink:title=" ">
<path fill="none" stroke="#63b8ff" d="M249.93,-184.89C242.78,-182.88 235.67,-180.59 229,-178 199.21,-166.42 167.47,-146.47 149.85,-134.63"/>
<polygon fill="#63b8ff" stroke="#63b8ff" points="249.11,-188.29 259.68,-187.46 250.9,-181.53 249.11,-188.29"/>
</a>
</g>
</g>
<!-- Node6&#45;&gt;Node5 -->
<g id="edge6_Node000006_Node000005" class="edge">
<title>Node6&#45;&gt;Node5</title>
<g id="a_edge6_Node000006_Node000005"><a xlink:title=" ">
<path fill="none" stroke="#63b8ff" d="M67.4,-113.75C57.88,-112.14 48.77,-110.61 41.22,-109.33"/>
<polygon fill="#63b8ff" stroke="#63b8ff" points="66.98,-117.23 77.42,-115.44 68.14,-110.33 66.98,-117.23"/>
</a>
</g>
</g>
<!-- Node8 -->
<g id="Node000008" class="node">
<title>Node8</title>
<g id="a_Node000008"><a xlink:href="group__ModuleExecutors.html#ga97d4d0bad6dab32f1d5b92d4ea09c80b" target="_top" xlink:title=" ">
<polygon fill="white" stroke="#666666" points="372.5,-169 254.5,-169 254.5,-139 372.5,-139 372.5,-169"/>
<text text-anchor="start" x="262.5" y="-157" font-family="Helvetica,sans-Serif" font-size="10.00">execute_check_done</text>
<text text-anchor="middle" x="313.5" y="-146" font-family="Helvetica,sans-Serif" font-size="10.00">_command</text>
</a>
</g>
</g>
<!-- Node7&#45;&gt;Node8 -->
<g id="edge8_Node000007_Node000008" class="edge">
<title>Node7&#45;&gt;Node8</title>
<g id="a_edge8_Node000007_Node000008"><a xlink:title=" ">
<path fill="none" stroke="#63b8ff" d="M590.49,-148.18C520.42,-149.66 430.42,-151.56 372.6,-152.78"/>
<polygon fill="#63b8ff" stroke="#63b8ff" points="590.75,-151.68 600.68,-147.97 590.61,-144.68 590.75,-151.68"/>
</a>
</g>
</g>
<!-- Node8&#45;&gt;Node5 -->
<g id="edge9_Node000008_Node000005" class="edge">
<title>Node8&#45;&gt;Node5</title>
<g id="a_edge9_Node000008_Node000005"><a xlink:title=" ">
<path fill="none" stroke="#63b8ff" d="M244,-160.89C196.02,-163.38 131.08,-162.01 77,-144 59.27,-138.1 42.02,-124.73 31.58,-115.53"/>
<polygon fill="#63b8ff" stroke="#63b8ff" points="244.5,-164.36 254.28,-160.28 244.09,-157.38 244.5,-164.36"/>
</a>
</g>
</g>
<!-- Node8&#45;&gt;Node6 -->
<g id="edge10_Node000008_Node000006" class="edge">
<title>Node8&#45;&gt;Node6</title>
<g id="a_edge10_Node000008_Node000006"><a xlink:title=" ">
<path fill="none" stroke="#63b8ff" d="M243.89,-142.73C227.07,-139.96 209.23,-137.03 193.02,-134.37"/>
<polygon fill="#63b8ff" stroke="#63b8ff" points="243.78,-146.26 254.22,-144.42 244.92,-139.35 243.78,-146.26"/>
</a>
</g>
</g>
<!-- Node10 -->
<g id="Node000010" class="node">
<title>Node10</title>
<g id="a_Node000010"><a xlink:href="group__ModuleExecutors.html#ga530afea0ae66ae1aef943507742b3125" target="_top" xlink:title=" ">
<polygon fill="white" stroke="#666666" points="374.5,-121 252.5,-121 252.5,-91 374.5,-91 374.5,-121"/>
<text text-anchor="start" x="260.5" y="-109" font-family="Helvetica,sans-Serif" font-size="10.00">execute_check_errors</text>
<text text-anchor="middle" x="313.5" y="-98" font-family="Helvetica,sans-Serif" font-size="10.00">_command</text>
</a>
</g>
</g>
<!-- Node9&#45;&gt;Node10 -->
<g id="edge12_Node000009_Node000010" class="edge">
<title>Node9&#45;&gt;Node10</title>
<g id="a_edge12_Node000009_Node000010"><a xlink:title=" ">
<path fill="none" stroke="#63b8ff" d="M605.1,-106C534.16,-106 436.71,-106 374.66,-106"/>
<polygon fill="#63b8ff" stroke="#63b8ff" points="605.37,-109.5 615.37,-106 605.37,-102.5 605.37,-109.5"/>
</a>
</g>
</g>
<!-- Node10&#45;&gt;Node5 -->
<g id="edge13_Node000010_Node000005" class="edge">
<title>Node10&#45;&gt;Node5</title>
<g id="a_edge13_Node000010_Node000005"><a xlink:title=" ">
<path fill="none" stroke="#63b8ff" d="M241.87,-106C175.88,-106 81.64,-106 41.19,-106"/>
<polygon fill="#63b8ff" stroke="#63b8ff" points="242.2,-109.5 252.2,-106 242.2,-102.5 242.2,-109.5"/>
</a>
</g>
</g>
<!-- Node10&#45;&gt;Node6 -->
<g id="edge14_Node000010_Node000006" class="edge">
<title>Node10&#45;&gt;Node6</title>
<g id="a_edge14_Node000010_Node000006"><a xlink:title=" ">
<path fill="none" stroke="#63b8ff" d="M242.27,-113.56C226.02,-115.31 208.92,-117.15 193.3,-118.83"/>
<polygon fill="#63b8ff" stroke="#63b8ff" points="242.68,-117.04 252.25,-112.49 241.94,-110.08 242.68,-117.04"/>
</a>
</g>
</g>
<!-- Node12 -->
<g id="Node000012" class="node">
<title>Node12</title>
<g id="a_Node000012"><a xlink:href="group__ModuleExecutors.html#ga4f5c061099b04712ebc615b32108fdd5" target="_top" xlink:title=" ">
<polygon fill="white" stroke="#666666" points="385,-73 242,-73 242,-43 385,-43 385,-73"/>
<text text-anchor="start" x="250" y="-61" font-family="Helvetica,sans-Serif" font-size="10.00">execute_check_imaginary</text>
<text text-anchor="middle" x="313.5" y="-50" font-family="Helvetica,sans-Serif" font-size="10.00">_command</text>
</a>
</g>
</g>
<!-- Node11&#45;&gt;Node12 -->
<g id="edge16_Node000011_Node000012" class="edge">
<title>Node11&#45;&gt;Node12</title>
<g id="a_edge16_Node000011_Node000012"><a xlink:title=" ">
<path fill="none" stroke="#63b8ff" d="M604.78,-60.29C537.76,-59.76 447.22,-59.05 385.18,-58.56"/>
<polygon fill="#63b8ff" stroke="#63b8ff" points="604.88,-63.8 614.91,-60.37 604.93,-56.8 604.88,-63.8"/>
</a>
</g>
</g>
<!-- Node12&#45;&gt;Node5 -->
<g id="edge17_Node000012_Node000005" class="edge">
<title>Node12&#45;&gt;Node5</title>
<g id="a_edge17_Node000012_Node000005"><a xlink:title=" ">
<path fill="none" stroke="#63b8ff" d="M231.43,-71.37C166.32,-82.11 79.65,-96.41 41.25,-102.74"/>
<polygon fill="#63b8ff" stroke="#63b8ff" points="232.39,-74.76 241.69,-69.68 231.25,-67.85 232.39,-74.76"/>
</a>
</g>
</g>
<!-- Node12&#45;&gt;Node6 -->
<g id="edge18_Node000012_Node000006" class="edge">
<title>Node12&#45;&gt;Node6</title>
<g id="a_edge18_Node000012_Node000006"><a xlink:title=" ">
<path fill="none" stroke="#63b8ff" d="M245.85,-76.16C240.12,-78.02 234.43,-79.98 229,-82 202.5,-91.87 173.04,-106.07 154.52,-115.41"/>
<polygon fill="#63b8ff" stroke="#63b8ff" points="247.04,-79.45 255.52,-73.11 244.94,-72.78 247.04,-79.45"/>
</a>
</g>
</g>
<!-- Node14 -->
<g id="Node000014" class="node">
<title>Node14</title>
<g id="a_Node000014"><a xlink:href="group__ModuleExecutors.html#ga02765a7766f40fab78024f30a1b3f9ff" target="_top" xlink:title=" ">
<polygon fill="white" stroke="#666666" points="398,-24.5 229,-24.5 229,-5.5 398,-5.5 398,-24.5"/>
<text text-anchor="middle" x="313.5" y="-12.5" font-family="Helvetica,sans-Serif" font-size="10.00">execute_check_pcm_command</text>
</a>
</g>
</g>
<!-- Node13&#45;&gt;Node14 -->
<g id="edge20_Node000013_Node000014" class="edge">
<title>Node13&#45;&gt;Node14</title>
<g id="a_edge20_Node000013_Node000014"><a xlink:title=" ">
<path fill="none" stroke="#63b8ff" d="M423.69,-15C415.23,-15 406.57,-15 398.01,-15"/>
<polygon fill="#63b8ff" stroke="#63b8ff" points="423.89,-18.5 433.89,-15 423.89,-11.5 423.89,-18.5"/>
</a>
</g>
</g>
<!-- Node14&#45;&gt;Node5 -->
<g id="edge21_Node000014_Node000005" class="edge">
<title>Node14&#45;&gt;Node5</title>
<g id="a_edge21_Node000014_Node000005"><a xlink:title=" ">
<path fill="none" stroke="#63b8ff" d="M247.86,-26.49C199.67,-36.24 132.82,-52.29 77,-75 62.69,-80.82 47.43,-89.55 36.54,-96.26"/>
<polygon fill="#63b8ff" stroke="#63b8ff" points="248.72,-29.89 257.85,-24.51 247.36,-23.02 248.72,-29.89"/>
</a>
</g>
</g>
<!-- Node14&#45;&gt;Node6 -->
<g id="edge22_Node000014_Node000006" class="edge">
<title>Node14&#45;&gt;Node6</title>
<g id="a_edge22_Node000014_Node000006"><a xlink:title=" ">
<path fill="none" stroke="#63b8ff" d="M242.46,-27.84C237.8,-29.64 233.26,-31.68 229,-34 190.52,-54.98 156.95,-96.42 142.95,-115.26"/>
<polygon fill="#63b8ff" stroke="#63b8ff" points="243.86,-31.07 252.18,-24.51 241.59,-24.44 243.86,-31.07"/>
</a>
</g>
</g>
</g>
</svg>
