<?xml version="1.0" encoding="UTF-8" standalone="no"?>
<!DOCTYPE svg PUBLIC "-//W3C//DTD SVG 1.1//EN"
 "http://www.w3.org/Graphics/SVG/1.1/DTD/svg11.dtd">
<!-- Generated by graphviz version 2.43.0 (0)
 -->
<!-- Title: ConfigManager::set_value Pages: 1 -->
<svg width="300pt" height="230pt"
 viewBox="0.00 0.00 300.00 230.00" xmlns="http://www.w3.org/2000/svg" xmlns:xlink="http://www.w3.org/1999/xlink">

<svg id="main" version="1.1" xmlns="http://www.w3.org/2000/svg" xmlns:xlink="http://www.w3.org/1999/xlink" xml:space="preserve" onload="init(evt)">
<style type="text/css"><![CDATA[
.node, .edge {opacity: 0.7;}
.node.selected, .edge.selected {opacity: 1;}
.edge:hover path { stroke: red; }
.edge:hover polygon { stroke: red; fill: red; }
]]></style>
<script type="application/ecmascript" xlink:href="svg.min.js"/>
<svg id="graph" class="graph">
<g id="graph0" class="graph" transform="scale(1 1) rotate(0) translate(4 226)">
<title>ConfigManager::set_value</title>
<!-- Node1 -->
<g id="Node000001" class="node">
<title>Node1</title>
<g id="a_Node000001"><a xlink:title="Set string configuration value at runtime.">
<polygon fill="#999999" stroke="#666666" points="292,-126 181,-126 181,-96 292,-96 292,-126"/>
<text text-anchor="start" x="189" y="-114" font-family="Helvetica,sans-Serif" font-size="10.00">ConfigManager::set</text>
<text text-anchor="middle" x="236.5" y="-103" font-family="Helvetica,sans-Serif" font-size="10.00">_value</text>
</a>
</g>
</g>
<!-- Node2 -->
<g id="Node000002" class="node">
<title>Node2</title>
<g id="a_Node000002"><a xlink:href="group__ConfigOverrides.html#ga434bc716e1d442f5f32e1917b7aeac8d" target="_top" xlink:title="Apply command&#45;line configuration overrides.">
<polygon fill="white" stroke="#666666" points="145,-222 0,-222 0,-192 145,-192 145,-222"/>
<text text-anchor="start" x="8" y="-210" font-family="Helvetica,sans-Serif" font-size="10.00">ConfigManager::apply</text>
<text text-anchor="middle" x="72.5" y="-199" font-family="Helvetica,sans-Serif" font-size="10.00">_command_line_overrides</text>
</a>
</g>
</g>
<!-- Node1&#45;&gt;Node2 -->
<g id="edge1_Node000001_Node000002" class="edge">
<title>Node1&#45;&gt;Node2</title>
<g id="a_edge1_Node000001_Node000002"><a xlink:title=" ">
<path fill="none" stroke="#63b8ff" d="M212.63,-132.94C195.23,-148.66 170.09,-169.36 145,-183 138.9,-186.31 132.27,-189.29 125.57,-191.91"/>
<polygon fill="#63b8ff" stroke="#63b8ff" points="215.05,-135.47 220.05,-126.12 210.32,-130.31 215.05,-135.47"/>
</a>
</g>
</g>
<!-- Node3 -->
<g id="Node000003" class="node">
<title>Node3</title>
<g id="a_Node000003"><a xlink:href="group__ConfigValueSetters.html#ga148a6e4ffa5bfd0a6caebc242aae5a60" target="_top" xlink:title="Set double configuration value at runtime.">
<polygon fill="white" stroke="#666666" points="128,-174 17,-174 17,-144 128,-144 128,-174"/>
<text text-anchor="start" x="25" y="-162" font-family="Helvetica,sans-Serif" font-size="10.00">ConfigManager::set</text>
<text text-anchor="middle" x="72.5" y="-151" font-family="Helvetica,sans-Serif" font-size="10.00">_value</text>
</a>
</g>
</g>
<!-- Node1&#45;&gt;Node3 -->
<g id="edge2_Node000001_Node000003" class="edge">
<title>Node1&#45;&gt;Node3</title>
<g id="a_edge2_Node000001_Node000003"><a xlink:title=" ">
<path fill="none" stroke="#63b8ff" d="M175,-128.93C158.25,-133.89 140.25,-139.22 124.13,-144"/>
<polygon fill="#63b8ff" stroke="#63b8ff" points="176.09,-132.25 184.69,-126.06 174.1,-125.54 176.09,-132.25"/>
</a>
</g>
</g>
<!-- Node4 -->
<g id="Node000004" class="node">
<title>Node4</title>
<g id="a_Node000004"><a xlink:href="group__ConfigValueSetters.html#ga54f4c76a964504891404628ee14bca97" target="_top" xlink:title="Set integer configuration value at runtime.">
<polygon fill="white" stroke="#666666" points="128,-126 17,-126 17,-96 128,-96 128,-126"/>
<text text-anchor="start" x="25" y="-114" font-family="Helvetica,sans-Serif" font-size="10.00">ConfigManager::set</text>
<text text-anchor="middle" x="72.5" y="-103" font-family="Helvetica,sans-Serif" font-size="10.00">_value</text>
</a>
</g>
</g>
<!-- Node1&#45;&gt;Node4 -->
<g id="edge3_Node000001_Node000004" class="edge">
<title>Node1&#45;&gt;Node4</title>
<g id="a_edge3_Node000001_Node000004"><a xlink:title=" ">
<path fill="none" stroke="#63b8ff" d="M170.53,-111C156.43,-111 141.66,-111 128.01,-111"/>
<polygon fill="#63b8ff" stroke="#63b8ff" points="170.65,-114.5 180.65,-111 170.65,-107.5 170.65,-114.5"/>
</a>
</g>
</g>
<!-- Node5 -->
<g id="Node000005" class="node">
<title>Node5</title>
<g id="a_Node000005"><a xlink:href="group__ConfigValueSetters.html#gafb03962aa75329f7e785d90b0a6043c7" target="_top" xlink:title="Set size_t configuration value at runtime.">
<polygon fill="white" stroke="#666666" points="128,-78 17,-78 17,-48 128,-48 128,-78"/>
<text text-anchor="start" x="25" y="-66" font-family="Helvetica,sans-Serif" font-size="10.00">ConfigManager::set</text>
<text text-anchor="middle" x="72.5" y="-55" font-family="Helvetica,sans-Serif" font-size="10.00">_value</text>
</a>
</g>
</g>
<!-- Node1&#45;&gt;Node5 -->
<g id="edge4_Node000001_Node000005" class="edge">
<title>Node1&#45;&gt;Node5</title>
<g id="a_edge4_Node000001_Node000005"><a xlink:title=" ">
<path fill="none" stroke="#63b8ff" d="M175,-93.07C158.25,-88.11 140.25,-82.78 124.13,-78"/>
<polygon fill="#63b8ff" stroke="#63b8ff" points="174.1,-96.46 184.69,-95.94 176.09,-89.75 174.1,-96.46"/>
</a>
</g>
</g>
<!-- Node6 -->
<g id="Node000006" class="node">
<title>Node6</title>
<g id="a_Node000006"><a xlink:href="group__ConfigValueSetters.html#ga70e9510f6d0f9f354be7b5b026fee5fb" target="_top" xlink:title="Set unsigned integer configuration value at runtime.">
<polygon fill="white" stroke="#666666" points="128,-30 17,-30 17,0 128,0 128,-30"/>
<text text-anchor="start" x="25" y="-18" font-family="Helvetica,sans-Serif" font-size="10.00">ConfigManager::set</text>
<text text-anchor="middle" x="72.5" y="-7" font-family="Helvetica,sans-Serif" font-size="10.00">_value</text>
</a>
</g>
</g>
<!-- Node1&#45;&gt;Node6 -->
<g id="edge5_Node000001_Node000006" class="edge">
<title>Node1&#45;&gt;Node6</title>
<g id="a_edge5_Node000001_Node000006"><a xlink:title=" ">
<path fill="none" stroke="#63b8ff" d="M212.63,-89.06C195.23,-73.34 170.09,-52.64 145,-39 138.9,-35.69 132.27,-32.71 125.57,-30.09"/>
<polygon fill="#63b8ff" stroke="#63b8ff" points="210.32,-91.69 220.05,-95.88 215.05,-86.53 210.32,-91.69"/>
</a>
</g>
</g>
</g>
</svg>
</svg>

<style type='text/css'>
<![CDATA[
[data-mouse-over-selected='false'] { opacity: 0.7; }
[data-mouse-over-selected='true']  { opacity: 1.0; }
]]>
</style>
<script type="application/ecmascript"><![CDATA[
document.addEventListener('DOMContentLoaded', (event) => {
  highlightEdges();
  highlightAdjacentNodes();
});
]]></script>
</svg>
