<?xml version="1.0" encoding="UTF-8" standalone="no"?>
<!DOCTYPE svg PUBLIC "-//W3C//DTD SVG 1.1//EN"
 "http://www.w3.org/Graphics/SVG/1.1/DTD/svg11.dtd">
<!-- Generated by graphviz version 2.43.0 (0)
 -->
<!-- Title: ConfigManager::reload_config Pages: 1 -->
<!--zoomable 753 -->

<svg id="main" version="1.1" xmlns="http://www.w3.org/2000/svg" xmlns:xlink="http://www.w3.org/1999/xlink" xml:space="preserve" onload="init(evt)">
<style type="text/css"><![CDATA[
.node, .edge {opacity: 0.7;}
.node.selected, .edge.selected {opacity: 1;}
.edge:hover path { stroke: red; }
.edge:hover polygon { stroke: red; fill: red; }
]]></style>

<defs>
  <circle id="rim" cx="0" cy="0" r="7"/>
  <circle id="rim2" cx="0" cy="0" r="3.5"/>
  <g id="zoomPlus">
    <use xlink:href="#rim" fill="#404040"><set attributeName="fill" to="#808080" begin="zoomplus.mouseover" end="zoomplus.mouseout"/></use>
    <path d="M-4,0h8M0,-4v8" fill="none" stroke="white" stroke-width="1.5" pointer-events="none"/>
  </g>
  <g id="zoomMin">
    <use xlink:href="#rim" fill="#404040"><set attributeName="fill" to="#808080" begin="zoomminus.mouseover" end="zoomminus.mouseout"/></use>
    <path d="M-4,0h8" fill="none" stroke="white" stroke-width="1.5" pointer-events="none"/>
  </g>
  <g id="arrowUp" transform="translate(30 24)">
    <use xlink:href="#rim"/>
    <path pointer-events="none" fill="none" stroke="white" stroke-width="1.5" d="M0,-3.0v7 M-2.5,-0.5L0,-3.0L2.5,-0.5"/>
  </g>
  <g id="arrowRight" transform="rotate(90) translate(36 -43)">
    <use xlink:href="#rim"/>
    <path pointer-events="none" fill="none" stroke="white" stroke-width="1.5" d="M0,-3.0v7 M-2.5,-0.5L0,-3.0L2.5,-0.5"/>
  </g>
  <g id="arrowDown" transform="rotate(180) translate(-30 -48)">
    <use xlink:href="#rim"/>
    <path pointer-events="none" fill="none" stroke="white" stroke-width="1.5" d="M0,-3.0v7 M-2.5,-0.5L0,-3.0L2.5,-0.5"/>
  </g>
  <g id="arrowLeft" transform="rotate(270) translate(-36 17)">
    <use xlink:href="#rim"/>
    <path pointer-events="none" fill="none" stroke="white" stroke-width="1.5" d="M0,-3.0v7 M-2.5,-0.5L0,-3.0L2.5,-0.5"/>
  </g>
  <g id="resetDef">
    <use xlink:href="#rim2" fill="#404040"><set attributeName="fill" to="#808080" begin="reset.mouseover" end="reset.mouseout"/></use>
  </g>
</defs>
<script type="application/ecmascript">
var viewWidth = 1008;
var viewHeight = 753;
var sectionId = 'dynsection-4';
</script>
<script type="application/ecmascript" xlink:href="svg.min.js"/>
<svg id="graph" class="graph">
<g id="viewport">
<title>ConfigManager::reload_config</title>
<!-- Node1 -->
<g id="Node000001" class="node">
<title>Node1</title>
<g id="a_Node000001"><a xlink:title="Reload configuration from the previously loaded file.">
<polygon fill="#999999" stroke="#666666" points="127,-584 0,-584 0,-554 127,-554 127,-584"/>
<text text-anchor="start" x="8" y="-572" font-family="Helvetica,sans-Serif" font-size="10.00">ConfigManager::reload</text>
<text text-anchor="middle" x="63.5" y="-561" font-family="Helvetica,sans-Serif" font-size="10.00">_config</text>
</a>
</g>
</g>
<!-- Node2 -->
<g id="Node000002" class="node">
<title>Node2</title>
<g id="a_Node000002"><a xlink:href="group__ConfigInternals.html#gad8739f4097788ededc18774624974607" target="_top" xlink:title="Initialize all configuration values with their defaults.">
<polygon fill="white" stroke="#666666" points="301,-608 163,-608 163,-578 301,-578 301,-608"/>
<text text-anchor="start" x="171" y="-596" font-family="Helvetica,sans-Serif" font-size="10.00">ConfigManager::initialize</text>
<text text-anchor="middle" x="232" y="-585" font-family="Helvetica,sans-Serif" font-size="10.00">_default_values</text>
</a>
</g>
</g>
<!-- Node1&#45;&gt;Node2 -->
<g id="edge1_Node000001_Node000002" class="edge">
<title>Node1&#45;&gt;Node2</title>
<g id="a_edge1_Node000001_Node000002"><a xlink:title=" ">
<path fill="none" stroke="#63b8ff" d="M127.45,-578.07C135.79,-579.28 144.42,-580.52 152.97,-581.75"/>
<polygon fill="#63b8ff" stroke="#63b8ff" points="152.56,-585.23 162.96,-583.19 153.56,-578.3 152.56,-585.23"/>
</a>
</g>
</g>
<!-- Node3 -->
<g id="Node000003" class="node">
<title>Node3</title>
<g id="a_Node000003"><a xlink:href="group__ConfigLoading.html#gadb55801d91871e98b5c5da2acd289a35" target="_top" xlink:title="Load configuration from file with error handling.">
<polygon fill="white" stroke="#666666" points="290.5,-560 173.5,-560 173.5,-530 290.5,-530 290.5,-560"/>
<text text-anchor="start" x="181.5" y="-548" font-family="Helvetica,sans-Serif" font-size="10.00">ConfigManager::load</text>
<text text-anchor="middle" x="232" y="-537" font-family="Helvetica,sans-Serif" font-size="10.00">_config</text>
</a>
</g>
</g>
<!-- Node1&#45;&gt;Node3 -->
<g id="edge2_Node000001_Node000003" class="edge">
<title>Node1&#45;&gt;Node3</title>
<g id="a_edge2_Node000001_Node000003"><a xlink:title=" ">
<path fill="none" stroke="#63b8ff" d="M127.45,-559.93C139.13,-558.24 151.38,-556.48 163.2,-554.77"/>
<polygon fill="#63b8ff" stroke="#63b8ff" points="164.05,-558.19 173.45,-553.3 163.05,-551.26 164.05,-558.19"/>
</a>
</g>
</g>
<!-- Node4 -->
<g id="Node000004" class="node">
<title>Node4</title>
<g id="a_Node000004"><a xlink:href="group__ConfigInternals.html#ga604fe8c75e45b77e7068faeafbadcb18" target="_top" xlink:title="Search for and locate configuration file.">
<polygon fill="white" stroke="#666666" points="462,-659 348,-659 348,-629 462,-629 462,-659"/>
<text text-anchor="start" x="356" y="-647" font-family="Helvetica,sans-Serif" font-size="10.00">ConfigManager::find</text>
<text text-anchor="middle" x="405" y="-636" font-family="Helvetica,sans-Serif" font-size="10.00">_config_file</text>
</a>
</g>
</g>
<!-- Node3&#45;&gt;Node4 -->
<g id="edge3_Node000003_Node000004" class="edge">
<title>Node3&#45;&gt;Node4</title>
<g id="a_edge3_Node000003_Node000004"><a xlink:title=" ">
<path fill="none" stroke="#63b8ff" d="M281.3,-560.08C288.05,-562.75 294.8,-565.74 301,-569 329.39,-583.94 358.67,-606.02 378.72,-622.36"/>
<polygon fill="#63b8ff" stroke="#63b8ff" points="376.51,-625.08 386.45,-628.75 380.97,-619.68 376.51,-625.08"/>
</a>
</g>
</g>
<!-- Node9 -->
<g id="Node000009" class="node">
<title>Node9</title>
<g id="a_Node000009"><a xlink:href="group__ConfigInternals.html#ga957a682fae0ee249a4fc255014d73f82" target="_top" xlink:title="Parse a single line from configuration file.">
<polygon fill="white" stroke="#666666" points="466.5,-560 343.5,-560 343.5,-530 466.5,-530 466.5,-560"/>
<text text-anchor="start" x="351.5" y="-548" font-family="Helvetica,sans-Serif" font-size="10.00">ConfigManager::parse</text>
<text text-anchor="middle" x="405" y="-537" font-family="Helvetica,sans-Serif" font-size="10.00">_config_line</text>
</a>
</g>
</g>
<!-- Node3&#45;&gt;Node9 -->
<g id="edge8_Node000003_Node000009" class="edge">
<title>Node3&#45;&gt;Node9</title>
<g id="a_edge8_Node000003_Node000009"><a xlink:title=" ">
<path fill="none" stroke="#63b8ff" d="M290.89,-545C304.46,-545 319.06,-545 333.13,-545"/>
<polygon fill="#63b8ff" stroke="#63b8ff" points="333.25,-548.5 343.25,-545 333.25,-541.5 333.25,-548.5"/>
</a>
</g>
</g>
<!-- Node12 -->
<g id="Node000012" class="node">
<title>Node12</title>
<g id="a_Node000012"><a xlink:href="group__ConfigValidation.html#ga3b0a3320c46ed448da49cea015ea4b31" target="_top" xlink:title="Validate all configuration values for correctness and consistency.">
<polygon fill="white" stroke="#666666" points="473,-247 337,-247 337,-217 473,-217 473,-247"/>
<text text-anchor="start" x="345" y="-235" font-family="Helvetica,sans-Serif" font-size="10.00">ConfigManager::validate</text>
<text text-anchor="middle" x="405" y="-224" font-family="Helvetica,sans-Serif" font-size="10.00">_config</text>
</a>
</g>
</g>
<!-- Node3&#45;&gt;Node12 -->
<g id="edge11_Node000003_Node000012" class="edge">
<title>Node3&#45;&gt;Node12</title>
<g id="a_edge11_Node000003_Node000012"><a xlink:title=" ">
<path fill="none" stroke="#63b8ff" d="M241.25,-529.9C268.67,-479.71 356.95,-318.13 390.7,-256.34"/>
<polygon fill="#63b8ff" stroke="#63b8ff" points="393.91,-257.77 395.63,-247.31 387.77,-254.41 393.91,-257.77"/>
</a>
</g>
</g>
<!-- Node5 -->
<g id="Node000005" class="node">
<title>Node5</title>
<g id="a_Node000005"><a xlink:href="group__ConfigFileUtils.html#gabdac223165725cc113ecae62b0c10b41" target="_top" xlink:title="Check if a file exists and is accessible.">
<polygon fill="white" stroke="#666666" points="649.5,-744.5 524.5,-744.5 524.5,-725.5 649.5,-725.5 649.5,-744.5"/>
<text text-anchor="middle" x="587" y="-732.5" font-family="Helvetica,sans-Serif" font-size="10.00">ConfigUtils::file_exists</text>
</a>
</g>
</g>
<!-- Node4&#45;&gt;Node5 -->
<g id="edge4_Node000004_Node000005" class="edge">
<title>Node4&#45;&gt;Node5</title>
<g id="a_edge4_Node000004_Node000005"><a xlink:title=" ">
<path fill="none" stroke="#63b8ff" d="M423.37,-659.19C442.91,-675.51 476.22,-701.12 509,-716 514.38,-718.44 520.12,-720.6 525.95,-722.5"/>
<polygon fill="#63b8ff" stroke="#63b8ff" points="525.21,-725.93 535.8,-725.46 527.23,-719.23 525.21,-725.93"/>
</a>
</g>
</g>
<!-- Node6 -->
<g id="Node000006" class="node">
<title>Node6</title>
<g id="a_Node000006"><a xlink:href="group__ConfigFileUtils.html#gaf98b0febad38de1b8c8b06b5b9808d26" target="_top" xlink:title="Get the directory where the executable is located.">
<polygon fill="white" stroke="#666666" points="662,-707 512,-707 512,-677 662,-677 662,-707"/>
<text text-anchor="start" x="520" y="-695" font-family="Helvetica,sans-Serif" font-size="10.00">ConfigUtils::get_executable</text>
<text text-anchor="middle" x="587" y="-684" font-family="Helvetica,sans-Serif" font-size="10.00">_directory</text>
</a>
</g>
</g>
<!-- Node4&#45;&gt;Node6 -->
<g id="edge5_Node000004_Node000006" class="edge">
<title>Node4&#45;&gt;Node6</title>
<g id="a_edge5_Node000004_Node000006"><a xlink:title=" ">
<path fill="none" stroke="#63b8ff" d="M462.46,-659.06C480.72,-663.93 501.13,-669.37 520.02,-674.41"/>
<polygon fill="#63b8ff" stroke="#63b8ff" points="519.18,-677.8 529.74,-677 520.98,-671.04 519.18,-677.8"/>
</a>
</g>
</g>
<!-- Node7 -->
<g id="Node000007" class="node">
<title>Node7</title>
<g id="a_Node000007"><a xlink:href="group__ConfigUtilities.html#gac3e49e311008abed27ce54b805f5f925" target="_top" xlink:title="Get user&#39;s home directory path.">
<polygon fill="white" stroke="#666666" points="649.5,-659 524.5,-659 524.5,-629 649.5,-629 649.5,-659"/>
<text text-anchor="start" x="532.5" y="-647" font-family="Helvetica,sans-Serif" font-size="10.00">ConfigManager::get</text>
<text text-anchor="middle" x="587" y="-636" font-family="Helvetica,sans-Serif" font-size="10.00">_user_home_directory</text>
</a>
</g>
</g>
<!-- Node4&#45;&gt;Node7 -->
<g id="edge6_Node000004_Node000007" class="edge">
<title>Node4&#45;&gt;Node7</title>
<g id="a_edge6_Node000004_Node000007"><a xlink:title=" ">
<path fill="none" stroke="#63b8ff" d="M462.46,-644C478.92,-644 497.13,-644 514.39,-644"/>
<polygon fill="#63b8ff" stroke="#63b8ff" points="514.43,-647.5 524.43,-644 514.43,-640.5 514.43,-647.5"/>
</a>
</g>
</g>
<!-- Node8 -->
<g id="Node000008" class="node">
<title>Node8</title>
<g id="a_Node000008"><a xlink:href="group__ConfigFileUtils.html#ga892ca7155558aa7c9813c0c04ab55a8e" target="_top" xlink:title="Check if a file is readable.">
<polygon fill="white" stroke="#666666" points="653,-610.5 521,-610.5 521,-591.5 653,-591.5 653,-610.5"/>
<text text-anchor="middle" x="587" y="-598.5" font-family="Helvetica,sans-Serif" font-size="10.00">ConfigUtils::is_readable</text>
</a>
</g>
</g>
<!-- Node4&#45;&gt;Node8 -->
<g id="edge7_Node000004_Node000008" class="edge">
<title>Node4&#45;&gt;Node8</title>
<g id="a_edge7_Node000004_Node000008"><a xlink:title=" ">
<path fill="none" stroke="#63b8ff" d="M462.46,-630.51C486.08,-624.87 513.3,-618.37 536.16,-612.91"/>
<polygon fill="#63b8ff" stroke="#63b8ff" points="537.09,-616.28 546,-610.55 535.46,-609.47 537.09,-616.28"/>
</a>
</g>
</g>
<!-- Node10 -->
<g id="Node000010" class="node">
<title>Node10</title>
<g id="a_Node000010"><a xlink:href="group__ConfigInternals.html#ga41b6643ab4d5f045866958f39adf0890" target="_top" xlink:title="Validate that a configuration key is recognized.">
<polygon fill="white" stroke="#666666" points="665,-573.5 509,-573.5 509,-554.5 665,-554.5 665,-573.5"/>
<text text-anchor="middle" x="587" y="-561.5" font-family="Helvetica,sans-Serif" font-size="10.00">ConfigManager::is_valid_key</text>
</a>
</g>
</g>
<!-- Node9&#45;&gt;Node10 -->
<g id="edge9_Node000009_Node000010" class="edge">
<title>Node9&#45;&gt;Node10</title>
<g id="a_edge9_Node000009_Node000010"><a xlink:title=" ">
<path fill="none" stroke="#63b8ff" d="M466.69,-551.41C477.08,-552.5 488.06,-553.66 498.98,-554.81"/>
<polygon fill="#63b8ff" stroke="#63b8ff" points="498.66,-558.3 508.97,-555.87 499.4,-551.34 498.66,-558.3"/>
</a>
</g>
</g>
<!-- Node11 -->
<g id="Node000011" class="node">
<title>Node11</title>
<g id="a_Node000011"><a xlink:href="group__ConfigInternals.html#ga24e6150f47d12f03a5864631c6d846c5" target="_top" xlink:title="Remove leading and trailing whitespace from string.">
<polygon fill="white" stroke="#666666" points="824,-540.5 708,-540.5 708,-521.5 824,-521.5 824,-540.5"/>
<text text-anchor="middle" x="766" y="-528.5" font-family="Helvetica,sans-Serif" font-size="10.00">ConfigManager::trim</text>
</a>
</g>
</g>
<!-- Node9&#45;&gt;Node11 -->
<g id="edge10_Node000009_Node000011" class="edge">
<title>Node9&#45;&gt;Node11</title>
<g id="a_edge10_Node000009_Node000011"><a xlink:title=" ">
<path fill="none" stroke="#63b8ff" d="M466.9,-542.63C530.89,-540.13 631.29,-536.21 697.62,-533.63"/>
<polygon fill="#63b8ff" stroke="#63b8ff" points="698.1,-537.11 707.96,-533.22 697.83,-530.12 698.1,-537.11"/>
</a>
</g>
</g>
<!-- Node13 -->
<g id="Node000013" class="node">
<title>Node13</title>
<g id="a_Node000013"><a xlink:href="group__ConfigInternals.html#ga5e387d61b1f34873cd3ab047242b2aad" target="_top" xlink:title="Template method for type&#45;safe value conversion.">
<polygon fill="white" stroke="#666666" points="1000,-277 867,-277 867,-247 1000,-247 1000,-277"/>
<text text-anchor="start" x="875" y="-265" font-family="Helvetica,sans-Serif" font-size="10.00">ConfigManager::convert</text>
<text text-anchor="middle" x="933.5" y="-254" font-family="Helvetica,sans-Serif" font-size="10.00">_value</text>
</a>
</g>
</g>
<!-- Node12&#45;&gt;Node13 -->
<g id="edge12_Node000012_Node000013" class="edge">
<title>Node12&#45;&gt;Node13</title>
<g id="a_edge12_Node000012_Node000013"><a xlink:title=" ">
<path fill="none" stroke="#63b8ff" d="M468.67,-216.99C552.55,-199.47 705.34,-176.65 831,-208 857.03,-214.49 883.71,-229.06 903.18,-241.42"/>
<polygon fill="#63b8ff" stroke="#63b8ff" points="901.3,-244.38 911.59,-246.91 905.13,-238.52 901.3,-244.38"/>
</a>
</g>
</g>
<!-- Node14 -->
<g id="Node000014" class="node">
<title>Node14</title>
<g id="a_Node000014"><a xlink:href="group__ConfigValueGetters.html#ga5c646b796256dc3d0905ce144f9758a2" target="_top" xlink:title="Get double configuration value.">
<polygon fill="white" stroke="#666666" points="822,-143 710,-143 710,-113 822,-113 822,-143"/>
<text text-anchor="start" x="718" y="-131" font-family="Helvetica,sans-Serif" font-size="10.00">ConfigManager::get</text>
<text text-anchor="middle" x="766" y="-120" font-family="Helvetica,sans-Serif" font-size="10.00">_double</text>
</a>
</g>
</g>
<!-- Node12&#45;&gt;Node14 -->
<g id="edge13_Node000012_Node000014" class="edge">
<title>Node12&#45;&gt;Node14</title>
<g id="a_edge13_Node000012_Node000014"><a xlink:title=" ">
<path fill="none" stroke="#63b8ff" d="M430.06,-216.81C450.38,-204.63 480.62,-187.97 509,-178 571.88,-155.91 647.08,-142.69 699.65,-135.45"/>
<polygon fill="#63b8ff" stroke="#63b8ff" points="700.4,-138.88 709.85,-134.08 699.47,-131.94 700.4,-138.88"/>
</a>
</g>
</g>
<!-- Node15 -->
<g id="Node000015" class="node">
<title>Node15</title>
<g id="a_Node000015"><a xlink:href="group__ConfigValueGetters.html#ga7d3d6c0afb01a9f8c1dc20c35ad33314" target="_top" xlink:title="Get integer configuration value.">
<polygon fill="white" stroke="#666666" points="831,-302.5 701,-302.5 701,-283.5 831,-283.5 831,-302.5"/>
<text text-anchor="middle" x="766" y="-290.5" font-family="Helvetica,sans-Serif" font-size="10.00">ConfigManager::get_int</text>
</a>
</g>
</g>
<!-- Node12&#45;&gt;Node15 -->
<g id="edge16_Node000012_Node000015" class="edge">
<title>Node12&#45;&gt;Node15</title>
<g id="a_edge16_Node000012_Node000015"><a xlink:title=" ">
<path fill="none" stroke="#63b8ff" d="M473.1,-243.4C537.64,-254.37 634.6,-270.84 698.82,-281.76"/>
<polygon fill="#63b8ff" stroke="#63b8ff" points="698.4,-285.23 708.84,-283.46 699.57,-278.33 698.4,-285.23"/>
</a>
</g>
</g>
<!-- Node16 -->
<g id="Node000016" class="node">
<title>Node16</title>
<g id="a_Node000016"><a xlink:href="group__ConfigValueGetters.html#gaa29924b452368659c06cf8a0e65e5972" target="_top" xlink:title="Get size_t configuration value.">
<polygon fill="white" stroke="#666666" points="822,-247 710,-247 710,-217 822,-217 822,-247"/>
<text text-anchor="start" x="718" y="-235" font-family="Helvetica,sans-Serif" font-size="10.00">ConfigManager::get</text>
<text text-anchor="middle" x="766" y="-224" font-family="Helvetica,sans-Serif" font-size="10.00">_size_t</text>
</a>
</g>
</g>
<!-- Node12&#45;&gt;Node16 -->
<g id="edge19_Node000012_Node000016" class="edge">
<title>Node12&#45;&gt;Node16</title>
<g id="a_edge19_Node000012_Node000016"><a xlink:title=" ">
<path fill="none" stroke="#63b8ff" d="M473.1,-232C538.02,-232 635.76,-232 699.97,-232"/>
<polygon fill="#63b8ff" stroke="#63b8ff" points="699.98,-235.5 709.98,-232 699.98,-228.5 699.98,-235.5"/>
</a>
</g>
</g>
<!-- Node17 -->
<g id="Node000017" class="node">
<title>Node17</title>
<g id="a_Node000017"><a xlink:href="group__ConfigValueGetters.html#gaa25cec73939b4d9bd7419f553faae0cb" target="_top" xlink:title="Get string configuration value.">
<polygon fill="white" stroke="#666666" points="822,-503 710,-503 710,-473 822,-473 822,-503"/>
<text text-anchor="start" x="718" y="-491" font-family="Helvetica,sans-Serif" font-size="10.00">ConfigManager::get</text>
<text text-anchor="middle" x="766" y="-480" font-family="Helvetica,sans-Serif" font-size="10.00">_string</text>
</a>
</g>
</g>
<!-- Node12&#45;&gt;Node17 -->
<g id="edge22_Node000012_Node000017" class="edge">
<title>Node12&#45;&gt;Node17</title>
<g id="a_edge22_Node000012_Node000017"><a xlink:title=" ">
<path fill="none" stroke="#63b8ff" d="M409.96,-247.14C420.03,-282.56 450.12,-371.26 509,-416 565.82,-459.17 596.48,-434.05 665,-454 681.04,-458.67 698.32,-464.32 713.94,-469.66"/>
<polygon fill="#63b8ff" stroke="#63b8ff" points="712.83,-472.98 723.42,-472.94 715.11,-466.37 712.83,-472.98"/>
</a>
</g>
</g>
<!-- Node18 -->
<g id="Node000018" class="node">
<title>Node18</title>
<g id="a_Node000018"><a xlink:href="group__ConfigValidationUtils.html#gae4991b82543e777bc3a4b13fba2e2ac2" target="_top" xlink:title="Validate concentration value for chemical reasonableness.">
<polygon fill="white" stroke="#666666" points="643.5,-126 530.5,-126 530.5,-96 643.5,-96 643.5,-126"/>
<text text-anchor="start" x="538.5" y="-114" font-family="Helvetica,sans-Serif" font-size="10.00">ConfigUtils::is_valid</text>
<text text-anchor="middle" x="587" y="-103" font-family="Helvetica,sans-Serif" font-size="10.00">_concentration</text>
</a>
</g>
</g>
<!-- Node12&#45;&gt;Node18 -->
<g id="edge24_Node000012_Node000018" class="edge">
<title>Node12&#45;&gt;Node18</title>
<g id="a_edge24_Node000012_Node000018"><a xlink:title=" ">
<path fill="none" stroke="#63b8ff" d="M419.63,-216.73C438.16,-196.75 473.11,-161.74 509,-140 514.91,-136.42 521.34,-133.16 527.87,-130.22"/>
<polygon fill="#63b8ff" stroke="#63b8ff" points="529.64,-133.27 537.48,-126.15 526.91,-126.83 529.64,-133.27"/>
</a>
</g>
</g>
<!-- Node19 -->
<g id="Node000019" class="node">
<title>Node19</title>
<g id="a_Node000019"><a xlink:href="group__ConfigValidationUtils.html#gabbc0a80ccd4e422868d76a759fad7a48" target="_top" xlink:title="Validate file size limit for system appropriateness.">
<polygon fill="white" stroke="#666666" points="643.5,-78 530.5,-78 530.5,-48 643.5,-48 643.5,-78"/>
<text text-anchor="start" x="538.5" y="-66" font-family="Helvetica,sans-Serif" font-size="10.00">ConfigUtils::is_valid</text>
<text text-anchor="middle" x="587" y="-55" font-family="Helvetica,sans-Serif" font-size="10.00">_file_size</text>
</a>
</g>
</g>
<!-- Node12&#45;&gt;Node19 -->
<g id="edge25_Node000012_Node000019" class="edge">
<title>Node12&#45;&gt;Node19</title>
<g id="a_edge25_Node000012_Node000019"><a xlink:title=" ">
<path fill="none" stroke="#63b8ff" d="M412.67,-216.79C426.36,-187.31 460.51,-122.18 509,-87 512.73,-84.29 516.78,-81.88 521,-79.74"/>
<polygon fill="#63b8ff" stroke="#63b8ff" points="522.79,-82.77 530.46,-75.46 519.91,-76.39 522.79,-82.77"/>
</a>
</g>
</g>
<!-- Node20 -->
<g id="Node000020" class="node">
<title>Node20</title>
<g id="a_Node000020"><a xlink:href="group__ConfigValidationUtils.html#gaaab1339b93b3b34c3f6c53b8e6a3727e" target="_top" xlink:title="Validate pressure value for physical reasonableness.">
<polygon fill="white" stroke="#666666" points="643.5,-30 530.5,-30 530.5,0 643.5,0 643.5,-30"/>
<text text-anchor="start" x="538.5" y="-18" font-family="Helvetica,sans-Serif" font-size="10.00">ConfigUtils::is_valid</text>
<text text-anchor="middle" x="587" y="-7" font-family="Helvetica,sans-Serif" font-size="10.00">_pressure</text>
</a>
</g>
</g>
<!-- Node12&#45;&gt;Node20 -->
<g id="edge26_Node000012_Node000020" class="edge">
<title>Node12&#45;&gt;Node20</title>
<g id="a_edge26_Node000012_Node000020"><a xlink:title=" ">
<path fill="none" stroke="#63b8ff" d="M409.78,-216.93C419.64,-180.71 449.6,-88.16 509,-39 512.71,-35.93 516.82,-33.24 521.15,-30.91"/>
<polygon fill="#63b8ff" stroke="#63b8ff" points="522.76,-34.02 530.29,-26.57 519.76,-27.69 522.76,-34.02"/>
</a>
</g>
</g>
<!-- Node21 -->
<g id="Node000021" class="node">
<title>Node21</title>
<g id="a_Node000021"><a xlink:href="group__ConfigValidationUtils.html#gab7c7175516bb9e9ba06fbae9929ffdc9" target="_top" xlink:title="Validate temperature value for physical reasonableness.">
<polygon fill="white" stroke="#666666" points="643.5,-493 530.5,-493 530.5,-463 643.5,-463 643.5,-493"/>
<text text-anchor="start" x="538.5" y="-481" font-family="Helvetica,sans-Serif" font-size="10.00">ConfigUtils::is_valid</text>
<text text-anchor="middle" x="587" y="-470" font-family="Helvetica,sans-Serif" font-size="10.00">_temperature</text>
</a>
</g>
</g>
<!-- Node12&#45;&gt;Node21 -->
<g id="edge27_Node000012_Node000021" class="edge">
<title>Node12&#45;&gt;Node21</title>
<g id="a_edge27_Node000012_Node000021"><a xlink:title=" ">
<path fill="none" stroke="#63b8ff" d="M409.08,-247.23C417.75,-286.27 445.94,-390.97 509,-449 512.78,-452.48 517.02,-455.55 521.51,-458.26"/>
<polygon fill="#63b8ff" stroke="#63b8ff" points="519.94,-461.39 530.4,-463.05 523.25,-455.23 519.94,-461.39"/>
</a>
</g>
</g>
<!-- Node22 -->
<g id="Node000022" class="node">
<title>Node22</title>
<g id="a_Node000022"><a xlink:href="group__ConfigValidation.html#gac6254d405c53ed8f433ab6d2785c0a90" target="_top" xlink:title="Validate file extension configuration values.">
<polygon fill="white" stroke="#666666" points="655,-407 519,-407 519,-377 655,-377 655,-407"/>
<text text-anchor="start" x="527" y="-395" font-family="Helvetica,sans-Serif" font-size="10.00">ConfigManager::validate</text>
<text text-anchor="middle" x="587" y="-384" font-family="Helvetica,sans-Serif" font-size="10.00">_file_extensions</text>
</a>
</g>
</g>
<!-- Node12&#45;&gt;Node22 -->
<g id="edge28_Node000012_Node000022" class="edge">
<title>Node12&#45;&gt;Node22</title>
<g id="a_edge28_Node000012_Node000022"><a xlink:title=" ">
<path fill="none" stroke="#63b8ff" d="M422.93,-247.05C454.83,-275.4 523.94,-336.83 561.12,-369.88"/>
<polygon fill="#63b8ff" stroke="#63b8ff" points="559.18,-372.84 568.98,-376.87 563.83,-367.61 559.18,-372.84"/>
</a>
</g>
</g>
<!-- Node14&#45;&gt;Node13 -->
<g id="edge14_Node000014_Node000013" class="edge">
<title>Node14&#45;&gt;Node13</title>
<g id="a_edge14_Node000014_Node000013"><a xlink:title=" ">
<path fill="none" stroke="#63b8ff" d="M788.34,-143.06C800.93,-152.09 817.07,-163.94 831,-175 857.96,-196.4 887.75,-222.21 908.04,-240.13"/>
<polygon fill="#63b8ff" stroke="#63b8ff" points="905.78,-242.81 915.59,-246.82 910.43,-237.57 905.78,-242.81"/>
</a>
</g>
</g>
<!-- Node14&#45;&gt;Node14 -->
<g id="edge15_Node000014_Node000014" class="edge">
<title>Node14&#45;&gt;Node14</title>
<g id="a_edge15_Node000014_Node000014"><a xlink:title=" ">
<path fill="none" stroke="#63b8ff" d="M736.82,-143.28C730.34,-152.41 740.06,-161 766,-161 781.4,-161 791.09,-157.97 795.06,-153.6"/>
<polygon fill="#63b8ff" stroke="#63b8ff" points="798.56,-153.32 795.18,-143.28 791.56,-153.23 798.56,-153.32"/>
</a>
</g>
</g>
<!-- Node15&#45;&gt;Node13 -->
<g id="edge17_Node000015_Node000013" class="edge">
<title>Node15&#45;&gt;Node13</title>
<g id="a_edge17_Node000015_Node000013"><a xlink:title=" ">
<path fill="none" stroke="#63b8ff" d="M818.01,-283.45C830.27,-281.15 843.62,-278.65 856.74,-276.19"/>
<polygon fill="#63b8ff" stroke="#63b8ff" points="857.52,-279.6 866.71,-274.32 856.24,-272.72 857.52,-279.6"/>
</a>
</g>
</g>
<!-- Node15&#45;&gt;Node15 -->
<g id="edge18_Node000015_Node000015" class="edge">
<title>Node15&#45;&gt;Node15</title>
<g id="a_edge18_Node000015_Node000015"><a xlink:title=" ">
<path fill="none" stroke="#63b8ff" d="M740.41,-302.58C727.97,-311.23 736.5,-320.5 766,-320.5 785.36,-320.5 795.69,-316.51 796.99,-311.32"/>
<polygon fill="#63b8ff" stroke="#63b8ff" points="799.82,-309.25 791.59,-302.58 793.87,-312.93 799.82,-309.25"/>
</a>
</g>
</g>
<!-- Node16&#45;&gt;Node13 -->
<g id="edge20_Node000016_Node000013" class="edge">
<title>Node16&#45;&gt;Node13</title>
<g id="a_edge20_Node000016_Node000013"><a xlink:title=" ">
<path fill="none" stroke="#63b8ff" d="M822.11,-241.99C833.16,-243.99 844.96,-246.13 856.58,-248.24"/>
<polygon fill="#63b8ff" stroke="#63b8ff" points="856.25,-251.74 866.72,-250.08 857.5,-244.85 856.25,-251.74"/>
</a>
</g>
</g>
<!-- Node16&#45;&gt;Node16 -->
<g id="edge21_Node000016_Node000016" class="edge">
<title>Node16&#45;&gt;Node16</title>
<g id="a_edge21_Node000016_Node000016"><a xlink:title=" ">
<path fill="none" stroke="#63b8ff" d="M736.82,-247.28C730.34,-256.41 740.06,-265 766,-265 781.4,-265 791.09,-261.97 795.06,-257.6"/>
<polygon fill="#63b8ff" stroke="#63b8ff" points="798.56,-257.32 795.18,-247.28 791.56,-257.23 798.56,-257.32"/>
</a>
</g>
</g>
<!-- Node17&#45;&gt;Node13 -->
<g id="edge23_Node000017_Node000013" class="edge">
<title>Node17&#45;&gt;Node13</title>
<g id="a_edge23_Node000017_Node000013"><a xlink:title=" ">
<path fill="none" stroke="#63b8ff" d="M818.31,-472.89C822.88,-470.35 827.2,-467.41 831,-464 885.77,-414.79 914.77,-329.23 926.36,-287.02"/>
<polygon fill="#63b8ff" stroke="#63b8ff" points="929.77,-287.83 928.94,-277.27 923,-286.04 929.77,-287.83"/>
</a>
</g>
</g>
<!-- Node22&#45;&gt;Node11 -->
<g id="edge33_Node000022_Node000011" class="edge">
<title>Node22&#45;&gt;Node11</title>
<g id="a_edge33_Node000022_Node000011"><a xlink:title=" ">
<path fill="none" stroke="#63b8ff" d="M610.6,-407.07C626.93,-418.67 648.85,-435.75 665,-454 685.1,-476.73 676.88,-493.59 701,-512 703.45,-513.87 706.09,-515.56 708.85,-517.09"/>
<polygon fill="#63b8ff" stroke="#63b8ff" points="707.43,-520.29 717.96,-521.41 710.43,-513.96 707.43,-520.29"/>
</a>
</g>
</g>
<!-- Node22&#45;&gt;Node13 -->
<g id="edge29_Node000022_Node000013" class="edge">
<title>Node22&#45;&gt;Node13</title>
<g id="a_edge29_Node000022_Node000013"><a xlink:title=" ">
<path fill="none" stroke="#63b8ff" d="M655.18,-377.19C715.7,-363.38 799.79,-342.88 831,-329 858.06,-316.96 885.93,-298.01 905.61,-283.32"/>
<polygon fill="#63b8ff" stroke="#63b8ff" points="907.93,-285.96 913.77,-277.12 903.69,-280.38 907.93,-285.96"/>
</a>
</g>
</g>
<!-- Node22&#45;&gt;Node17 -->
<g id="edge30_Node000022_Node000017" class="edge">
<title>Node22&#45;&gt;Node17</title>
<g id="a_edge30_Node000022_Node000017"><a xlink:title=" ">
<path fill="none" stroke="#63b8ff" d="M639.17,-407.03C648.2,-410.84 657.19,-415.46 665,-421 685.33,-435.42 680.66,-449.59 701,-464 703.08,-465.47 705.25,-466.86 707.5,-468.18"/>
<polygon fill="#63b8ff" stroke="#63b8ff" points="705.97,-471.33 716.44,-472.89 709.23,-465.13 705.97,-471.33"/>
</a>
</g>
</g>
<!-- Node23 -->
<g id="Node000023" class="node">
<title>Node23</title>
<g id="a_Node000023"><a xlink:href="group__ConfigValidationUtils.html#ga6905a372521e35204369ffa3bb8d8b8e" target="_top" xlink:title="Validate file extension format.">
<polygon fill="white" stroke="#666666" points="822.5,-455 709.5,-455 709.5,-425 822.5,-425 822.5,-455"/>
<text text-anchor="start" x="717.5" y="-443" font-family="Helvetica,sans-Serif" font-size="10.00">ConfigUtils::is_valid</text>
<text text-anchor="middle" x="766" y="-432" font-family="Helvetica,sans-Serif" font-size="10.00">_extension</text>
</a>
</g>
</g>
<!-- Node22&#45;&gt;Node23 -->
<g id="edge31_Node000022_Node000023" class="edge">
<title>Node22&#45;&gt;Node23</title>
<g id="a_edge31_Node000022_Node000023"><a xlink:title=" ">
<path fill="none" stroke="#63b8ff" d="M643.52,-407.06C661.39,-411.9 681.36,-417.32 699.87,-422.34"/>
<polygon fill="#63b8ff" stroke="#63b8ff" points="699.11,-425.76 709.68,-425 700.94,-419 699.11,-425.76"/>
</a>
</g>
</g>
<!-- Node24 -->
<g id="Node000024" class="node">
<title>Node24</title>
<g id="a_Node000024"><a xlink:href="group__ConfigStringUtils.html#ga2f21572e2bdf739cbd8c75720728196c" target="_top" xlink:title="Split string into vector using delimiter.">
<polygon fill="white" stroke="#666666" points="814.5,-407 717.5,-407 717.5,-377 814.5,-377 814.5,-407"/>
<text text-anchor="start" x="725.5" y="-395" font-family="Helvetica,sans-Serif" font-size="10.00">ConfigUtils::split</text>
<text text-anchor="middle" x="766" y="-384" font-family="Helvetica,sans-Serif" font-size="10.00">_string</text>
</a>
</g>
</g>
<!-- Node22&#45;&gt;Node24 -->
<g id="edge32_Node000022_Node000024" class="edge">
<title>Node22&#45;&gt;Node24</title>
<g id="a_edge32_Node000022_Node000024"><a xlink:title=" ">
<path fill="none" stroke="#63b8ff" d="M655.17,-392C672.34,-392 690.65,-392 707.29,-392"/>
<polygon fill="#63b8ff" stroke="#63b8ff" points="707.42,-395.5 717.42,-392 707.42,-388.5 707.42,-395.5"/>
</a>
</g>
</g>
</g>
</svg>

<g id="navigator" transform="translate(0 0)" fill="#404254">
  <rect fill="#f2f5e9" fill-opacity="0.5" stroke="#606060" stroke-width=".5" x="0" y="0" width="60" height="60"/>
  <use id="zoomplus" xlink:href="#zoomPlus" x="17" y="9" onmousedown="handleZoom(evt,'in')"/>
  <use id="zoomminus" xlink:href="#zoomMin" x="42" y="9" onmousedown="handleZoom(evt,'out')"/>
  <use id="reset" xlink:href="#resetDef" x="30" y="36" onmousedown="handleReset()"/>
   <use id="arrowup" xlink:href="#arrowUp" x="0" y="0" onmousedown="handlePan(0,-1)"/>
  <use id="arrowright" xlink:href="#arrowRight" x="0" y="0" onmousedown="handlePan(1,0)"/>
  <use id="arrowdown" xlink:href="#arrowDown" x="0" y="0" onmousedown="handlePan(0,1)"/>
  <use id="arrowleft" xlink:href="#arrowLeft" x="0" y="0" onmousedown="handlePan(-1,0)"/>
</g>
<svg viewBox="0 0 15 15" width="100%" height="30px" preserveAspectRatio="xMaxYMin meet">
 <g id="arrow_out" transform="scale(0.3 0.3)">
  <a xlink:href="group__ConfigLoading_gad792b6c3fe11b0bd927622b2e0966bf5_cgraph_org.svg" target="_base">
   <rect id="button" ry="5" rx="5" y="6" x="6" height="38" width="38"
        fill="#f2f5e9" fill-opacity="0.5" stroke="#606060" stroke-width="1.0"/>
   <path id="arrow"
     d="M 11.500037,31.436501 C 11.940474,20.09759 22.043105,11.32322 32.158766,21.979434 L 37.068811,17.246167 C 37.068811,17.246167 37.088388,32 37.088388,32 L 22.160133,31.978069 C 22.160133,31.978069 26.997745,27.140456 26.997745,27.140456 C 18.528582,18.264221 13.291696,25.230495 11.500037,31.436501 z"
     style="fill:#404040;"/>
  </a>
 </g>
</svg>

<style type='text/css'>
<![CDATA[
[data-mouse-over-selected='false'] { opacity: 0.7; }
[data-mouse-over-selected='true']  { opacity: 1.0; }
]]>
</style>
<script type="application/ecmascript"><![CDATA[
document.addEventListener('DOMContentLoaded', (event) => {
  highlightEdges();
  highlightAdjacentNodes();
});
]]></script>
</svg>
