<?xml version="1.0" encoding="UTF-8" standalone="no"?>
<!DOCTYPE svg PUBLIC "-//W3C//DTD SVG 1.1//EN"
 "http://www.w3.org/Graphics/SVG/1.1/DTD/svg11.dtd">
<!-- Generated by graphviz version 2.43.0 (0)
 -->
<!-- Title: CommandParser::parse_create_input_options Pages: 1 -->
<!--zoomable 425 -->

<svg id="main" version="1.1" xmlns="http://www.w3.org/2000/svg" xmlns:xlink="http://www.w3.org/1999/xlink" xml:space="preserve" onload="init(evt)">
<style type="text/css"><![CDATA[
.node, .edge {opacity: 0.7;}
.node.selected, .edge.selected {opacity: 1;}
.edge:hover path { stroke: red; }
.edge:hover polygon { stroke: red; fill: red; }
]]></style>

<defs>
  <circle id="rim" cx="0" cy="0" r="7"/>
  <circle id="rim2" cx="0" cy="0" r="3.5"/>
  <g id="zoomPlus">
    <use xlink:href="#rim" fill="#404040"><set attributeName="fill" to="#808080" begin="zoomplus.mouseover" end="zoomplus.mouseout"/></use>
    <path d="M-4,0h8M0,-4v8" fill="none" stroke="white" stroke-width="1.5" pointer-events="none"/>
  </g>
  <g id="zoomMin">
    <use xlink:href="#rim" fill="#404040"><set attributeName="fill" to="#808080" begin="zoomminus.mouseover" end="zoomminus.mouseout"/></use>
    <path d="M-4,0h8" fill="none" stroke="white" stroke-width="1.5" pointer-events="none"/>
  </g>
  <g id="arrowUp" transform="translate(30 24)">
    <use xlink:href="#rim"/>
    <path pointer-events="none" fill="none" stroke="white" stroke-width="1.5" d="M0,-3.0v7 M-2.5,-0.5L0,-3.0L2.5,-0.5"/>
  </g>
  <g id="arrowRight" transform="rotate(90) translate(36 -43)">
    <use xlink:href="#rim"/>
    <path pointer-events="none" fill="none" stroke="white" stroke-width="1.5" d="M0,-3.0v7 M-2.5,-0.5L0,-3.0L2.5,-0.5"/>
  </g>
  <g id="arrowDown" transform="rotate(180) translate(-30 -48)">
    <use xlink:href="#rim"/>
    <path pointer-events="none" fill="none" stroke="white" stroke-width="1.5" d="M0,-3.0v7 M-2.5,-0.5L0,-3.0L2.5,-0.5"/>
  </g>
  <g id="arrowLeft" transform="rotate(270) translate(-36 17)">
    <use xlink:href="#rim"/>
    <path pointer-events="none" fill="none" stroke="white" stroke-width="1.5" d="M0,-3.0v7 M-2.5,-0.5L0,-3.0L2.5,-0.5"/>
  </g>
  <g id="resetDef">
    <use xlink:href="#rim2" fill="#404040"><set attributeName="fill" to="#808080" begin="reset.mouseover" end="reset.mouseout"/></use>
  </g>
</defs>
<script type="application/ecmascript">
var viewWidth = 759;
var viewHeight = 425;
var sectionId = 'dynsection-17';
</script>
<script type="application/ecmascript" xlink:href="svg.min.js"/>
<svg id="graph" class="graph">
<g id="viewport">
<title>CommandParser::parse_create_input_options</title>
<!-- Node1 -->
<g id="Node000001" class="node">
<title>Node1</title>
<g id="a_Node000001"><a xlink:title="Parse options specific to create_input command.">
<polygon fill="#999999" stroke="#666666" points="130,-250 0,-250 0,-220 130,-220 130,-250"/>
<text text-anchor="start" x="8" y="-238" font-family="Helvetica,sans-Serif" font-size="10.00">CommandParser::parse</text>
<text text-anchor="middle" x="65" y="-227" font-family="Helvetica,sans-Serif" font-size="10.00">_create_input_options</text>
</a>
</g>
</g>
<!-- Node2 -->
<g id="Node000002" class="node">
<title>Node2</title>
<g id="a_Node000002"><a xlink:href="group__CommandExecutors.html#ga23a2476517d18a8482fc2d211614f59c" target="_top" xlink:title="Add a warning message to the command context.">
<polygon fill="white" stroke="#666666" points="309.5,-417 188.5,-417 188.5,-387 309.5,-387 309.5,-417"/>
<text text-anchor="start" x="196.5" y="-405" font-family="Helvetica,sans-Serif" font-size="10.00">CommandParser::add</text>
<text text-anchor="middle" x="249" y="-394" font-family="Helvetica,sans-Serif" font-size="10.00">_warning</text>
</a>
</g>
</g>
<!-- Node1&#45;&gt;Node2 -->
<g id="edge1_Node000001_Node000002" class="edge">
<title>Node1&#45;&gt;Node2</title>
<g id="a_edge1_Node000001_Node000002"><a xlink:title=" ">
<path fill="none" stroke="#63b8ff" d="M73.09,-250.19C87,-278.37 120.5,-338.99 166,-373 170.8,-376.59 176.09,-379.76 181.6,-382.57"/>
<polygon fill="#63b8ff" stroke="#63b8ff" points="180.47,-385.9 191.02,-386.94 183.42,-379.55 180.47,-385.9"/>
</a>
</g>
</g>
<!-- Node3 -->
<g id="Node000003" class="node">
<title>Node3</title>
<g id="a_Node000003"><a xlink:href="group__CommandExecutors.html#gac2af8ce80af7cf8a9918558eba909c72" target="_top" xlink:title="Find or create a default parameter file for create_input.">
<polygon fill="white" stroke="#666666" points="331,-207 167,-207 167,-177 331,-177 331,-207"/>
<text text-anchor="start" x="175" y="-195" font-family="Helvetica,sans-Serif" font-size="10.00">CommandParser::find</text>
<text text-anchor="middle" x="249" y="-184" font-family="Helvetica,sans-Serif" font-size="10.00">_or_create_default_param_file</text>
</a>
</g>
</g>
<!-- Node1&#45;&gt;Node3 -->
<g id="edge2_Node000001_Node000003" class="edge">
<title>Node1&#45;&gt;Node3</title>
<g id="a_edge2_Node000001_Node000003"><a xlink:title=" ">
<path fill="none" stroke="#63b8ff" d="M129.65,-219.96C144.06,-216.56 159.48,-212.91 174.27,-209.42"/>
<polygon fill="#63b8ff" stroke="#63b8ff" points="175.45,-212.74 184.38,-207.03 173.84,-205.92 175.45,-212.74"/>
</a>
</g>
</g>
<!-- Node4 -->
<g id="Node000004" class="node">
<title>Node4</title>
<g id="a_Node000004"><a xlink:href="classParameterParser.html#a48693f28a48ad94f4ab08d47ffe198e3" target="_top" xlink:title="Generate a template parameter file for a specific calculation type.">
<polygon fill="white" stroke="#666666" points="525,-250 379,-250 379,-220 525,-220 525,-250"/>
<text text-anchor="start" x="387" y="-238" font-family="Helvetica,sans-Serif" font-size="10.00">ParameterParser::generate</text>
<text text-anchor="middle" x="452" y="-227" font-family="Helvetica,sans-Serif" font-size="10.00">Template</text>
</a>
</g>
</g>
<!-- Node1&#45;&gt;Node4 -->
<g id="edge15_Node000001_Node000004" class="edge">
<title>Node1&#45;&gt;Node4</title>
<g id="a_edge15_Node000001_Node000004"><a xlink:title=" ">
<path fill="none" stroke="#63b8ff" d="M130.01,-235C195.43,-235 297.28,-235 368.67,-235"/>
<polygon fill="#63b8ff" stroke="#63b8ff" points="368.97,-238.5 378.97,-235 368.97,-231.5 368.97,-238.5"/>
</a>
</g>
</g>
<!-- Node8 -->
<g id="Node000008" class="node">
<title>Node8</title>
<g id="a_Node000008"><a xlink:href="namespaceUtils.html#acba799749eeee8229550094df96d9f0d" target="_top" xlink:title="Generate a unique filename with timestamp suffix if file already exists.">
<polygon fill="white" stroke="#666666" points="515.5,-394 388.5,-394 388.5,-364 515.5,-364 515.5,-394"/>
<text text-anchor="start" x="396.5" y="-382" font-family="Helvetica,sans-Serif" font-size="10.00">Utils::generate_unique</text>
<text text-anchor="middle" x="452" y="-371" font-family="Helvetica,sans-Serif" font-size="10.00">_filename</text>
</a>
</g>
</g>
<!-- Node1&#45;&gt;Node8 -->
<g id="edge7_Node000001_Node000008" class="edge">
<title>Node1&#45;&gt;Node8</title>
<g id="a_edge7_Node000001_Node000008"><a xlink:title=" ">
<path fill="none" stroke="#63b8ff" d="M75.5,-250.24C91.14,-273.89 124.76,-318.9 166,-340 201.91,-358.37 306,-369.09 377.91,-374.49"/>
<polygon fill="#63b8ff" stroke="#63b8ff" points="378.05,-378.01 388.28,-375.25 378.56,-371.03 378.05,-378.01"/>
</a>
</g>
</g>
<!-- Node9 -->
<g id="Node000009" class="node">
<title>Node9</title>
<g id="a_Node000009"><a xlink:href="classParameterParser.html#aca59f8ca90258cef1ac78c0c671c7080" target="_top" xlink:title="Generate template files for all supported calculation types.">
<polygon fill="white" stroke="#666666" points="322,-331 176,-331 176,-301 322,-301 322,-331"/>
<text text-anchor="start" x="184" y="-319" font-family="Helvetica,sans-Serif" font-size="10.00">ParameterParser::generate</text>
<text text-anchor="middle" x="249" y="-308" font-family="Helvetica,sans-Serif" font-size="10.00">AllTemplates</text>
</a>
</g>
</g>
<!-- Node1&#45;&gt;Node9 -->
<g id="edge8_Node000001_Node000009" class="edge">
<title>Node1&#45;&gt;Node9</title>
<g id="a_edge8_Node000001_Node000009"><a xlink:title=" ">
<path fill="none" stroke="#63b8ff" d="M92.67,-250.17C112.53,-261.14 140.51,-275.93 166,-287 174.34,-290.62 183.29,-294.15 192.11,-297.41"/>
<polygon fill="#63b8ff" stroke="#63b8ff" points="191,-300.73 201.59,-300.86 193.39,-294.15 191,-300.73"/>
</a>
</g>
</g>
<!-- Node10 -->
<g id="Node000010" class="node">
<title>Node10</title>
<g id="a_Node000010"><a xlink:href="classParameterParser.html#a75a9a5704dd802cbc371e1cc2f3fda6d" target="_top" xlink:title="Generate a general parameter template with all possible parameters.">
<polygon fill="white" stroke="#666666" points="525,-298 379,-298 379,-268 525,-268 525,-298"/>
<text text-anchor="start" x="387" y="-286" font-family="Helvetica,sans-Serif" font-size="10.00">ParameterParser::generate</text>
<text text-anchor="middle" x="452" y="-275" font-family="Helvetica,sans-Serif" font-size="10.00">GeneralTemplate</text>
</a>
</g>
</g>
<!-- Node1&#45;&gt;Node10 -->
<g id="edge14_Node000001_Node000010" class="edge">
<title>Node1&#45;&gt;Node10</title>
<g id="a_edge14_Node000001_Node000010"><a xlink:title=" ">
<path fill="none" stroke="#63b8ff" d="M130.26,-244.19C142.14,-245.84 154.44,-247.5 166,-249 234.29,-257.85 311.91,-267.06 368.88,-273.65"/>
<polygon fill="#63b8ff" stroke="#63b8ff" points="368.58,-277.14 378.91,-274.81 369.38,-270.19 368.58,-277.14"/>
</a>
</g>
</g>
<!-- Node13 -->
<g id="Node000013" class="node">
<title>Node13</title>
<g id="a_Node000013"><a xlink:href="classParameterParser.html#a812dd34c065e32babf7d98cae0157ddc" target="_top" xlink:title="Get a parameter value as integer.">
<polygon fill="white" stroke="#666666" points="314.5,-158.5 183.5,-158.5 183.5,-139.5 314.5,-139.5 314.5,-158.5"/>
<text text-anchor="middle" x="249" y="-146.5" font-family="Helvetica,sans-Serif" font-size="10.00">ParameterParser::getInt</text>
</a>
</g>
</g>
<!-- Node1&#45;&gt;Node13 -->
<g id="edge16_Node000001_Node000013" class="edge">
<title>Node1&#45;&gt;Node13</title>
<g id="a_edge16_Node000001_Node000013"><a xlink:title=" ">
<path fill="none" stroke="#63b8ff" d="M83.98,-219.98C103.14,-204.72 134.94,-181.46 166,-168 171.81,-165.48 178,-163.27 184.27,-161.34"/>
<polygon fill="#63b8ff" stroke="#63b8ff" points="185.5,-164.63 194.16,-158.52 183.59,-157.9 185.5,-164.63"/>
</a>
</g>
</g>
<!-- Node14 -->
<g id="Node000014" class="node">
<title>Node14</title>
<g id="a_Node000014"><a xlink:href="classParameterParser.html#a7dcab5148f496bf123040027118a1cd8" target="_top" xlink:title="Get a parameter value as string.">
<polygon fill="white" stroke="#666666" points="322.5,-121.5 175.5,-121.5 175.5,-102.5 322.5,-102.5 322.5,-121.5"/>
<text text-anchor="middle" x="249" y="-109.5" font-family="Helvetica,sans-Serif" font-size="10.00">ParameterParser::getString</text>
</a>
</g>
</g>
<!-- Node1&#45;&gt;Node14 -->
<g id="edge17_Node000001_Node000014" class="edge">
<title>Node1&#45;&gt;Node14</title>
<g id="a_edge17_Node000001_Node000014"><a xlink:title=" ">
<path fill="none" stroke="#63b8ff" d="M75.97,-219.77C92.01,-196.55 125.86,-152.61 166,-130 169.24,-128.18 172.65,-126.54 176.15,-125.06"/>
<polygon fill="#63b8ff" stroke="#63b8ff" points="177.49,-128.3 185.64,-121.54 175.05,-121.74 177.49,-128.3"/>
</a>
</g>
</g>
<!-- Node15 -->
<g id="Node000015" class="node">
<title>Node15</title>
<g id="a_Node000015"><a xlink:href="classParameterParser.html#aaea513c087ec06939e4f34b94895bbe8" target="_top" xlink:title="Load parameters from a file.">
<polygon fill="white" stroke="#666666" points="332,-76.5 166,-76.5 166,-57.5 332,-57.5 332,-76.5"/>
<text text-anchor="middle" x="249" y="-64.5" font-family="Helvetica,sans-Serif" font-size="10.00">ParameterParser::loadFromFile</text>
</a>
</g>
</g>
<!-- Node1&#45;&gt;Node15 -->
<g id="edge18_Node000001_Node000015" class="edge">
<title>Node1&#45;&gt;Node15</title>
<g id="a_edge18_Node000001_Node000015"><a xlink:title=" ">
<path fill="none" stroke="#63b8ff" d="M72.66,-219.68C86.05,-190.63 119.05,-127.39 166,-93 173.34,-87.62 181.84,-83.33 190.52,-79.91"/>
<polygon fill="#63b8ff" stroke="#63b8ff" points="191.73,-83.2 199.97,-76.54 189.38,-76.61 191.73,-83.2"/>
</a>
</g>
</g>
<!-- Node3&#45;&gt;Node4 -->
<g id="edge3_Node000003_Node000004" class="edge">
<title>Node3&#45;&gt;Node4</title>
<g id="a_edge3_Node000003_Node000004"><a xlink:title=" ">
<path fill="none" stroke="#63b8ff" d="M320.3,-207.04C336.52,-210.51 353.89,-214.23 370.51,-217.78"/>
<polygon fill="#63b8ff" stroke="#63b8ff" points="370.23,-221.3 380.74,-219.97 371.69,-214.45 370.23,-221.3"/>
</a>
</g>
</g>
<!-- Node6 -->
<g id="Node000006" class="node">
<title>Node6</title>
<g id="a_Node000006"><a xlink:href="group__ConfigFileUtils.html#gaf98b0febad38de1b8c8b06b5b9808d26" target="_top" xlink:title="Get the directory where the executable is located.">
<polygon fill="white" stroke="#666666" points="527,-202 377,-202 377,-172 527,-172 527,-202"/>
<text text-anchor="start" x="385" y="-190" font-family="Helvetica,sans-Serif" font-size="10.00">ConfigUtils::get_executable</text>
<text text-anchor="middle" x="452" y="-179" font-family="Helvetica,sans-Serif" font-size="10.00">_directory</text>
</a>
</g>
</g>
<!-- Node3&#45;&gt;Node6 -->
<g id="edge5_Node000003_Node000006" class="edge">
<title>Node3&#45;&gt;Node6</title>
<g id="a_edge5_Node000003_Node000006"><a xlink:title=" ">
<path fill="none" stroke="#63b8ff" d="M331.18,-189.98C342.89,-189.69 354.97,-189.39 366.74,-189.1"/>
<polygon fill="#63b8ff" stroke="#63b8ff" points="367.08,-192.59 376.99,-188.84 366.9,-185.59 367.08,-192.59"/>
</a>
</g>
</g>
<!-- Node7 -->
<g id="Node000007" class="node">
<title>Node7</title>
<g id="a_Node000007"><a xlink:href="group__ConfigUtilities.html#gac3e49e311008abed27ce54b805f5f925" target="_top" xlink:title="Get user&#39;s home directory path.">
<polygon fill="white" stroke="#666666" points="514.5,-154 389.5,-154 389.5,-124 514.5,-124 514.5,-154"/>
<text text-anchor="start" x="397.5" y="-142" font-family="Helvetica,sans-Serif" font-size="10.00">ConfigManager::get</text>
<text text-anchor="middle" x="452" y="-131" font-family="Helvetica,sans-Serif" font-size="10.00">_user_home_directory</text>
</a>
</g>
</g>
<!-- Node3&#45;&gt;Node7 -->
<g id="edge6_Node000003_Node000007" class="edge">
<title>Node3&#45;&gt;Node7</title>
<g id="a_edge6_Node000003_Node000007"><a xlink:title=" ">
<path fill="none" stroke="#63b8ff" d="M307.06,-176.95C331.04,-170.63 359.1,-163.23 384.04,-156.66"/>
<polygon fill="#63b8ff" stroke="#63b8ff" points="385.02,-160.02 393.8,-154.08 383.23,-153.25 385.02,-160.02"/>
</a>
</g>
</g>
<!-- Node5 -->
<g id="Node000005" class="node">
<title>Node5</title>
<g id="a_Node000005"><a xlink:href="classParameterParser.html#aa27eb54dd9e8db004620025757b8a759" target="_top" xlink:title="Create template content for a specific calculation type.">
<polygon fill="white" stroke="#666666" points="751,-250 572,-250 572,-220 751,-220 751,-250"/>
<text text-anchor="start" x="580" y="-238" font-family="Helvetica,sans-Serif" font-size="10.00">ParameterParser::createTemplate</text>
<text text-anchor="middle" x="661.5" y="-227" font-family="Helvetica,sans-Serif" font-size="10.00">Content</text>
</a>
</g>
</g>
<!-- Node4&#45;&gt;Node5 -->
<g id="edge4_Node000004_Node000005" class="edge">
<title>Node4&#45;&gt;Node5</title>
<g id="a_edge4_Node000004_Node000005"><a xlink:title=" ">
<path fill="none" stroke="#63b8ff" d="M525.28,-235C536.98,-235 549.26,-235 561.46,-235"/>
<polygon fill="#63b8ff" stroke="#63b8ff" points="561.67,-238.5 571.67,-235 561.67,-231.5 561.67,-238.5"/>
</a>
</g>
</g>
<!-- Node9&#45;&gt;Node4 -->
<g id="edge12_Node000009_Node000004" class="edge">
<title>Node9&#45;&gt;Node4</title>
<g id="a_edge12_Node000009_Node000004"><a xlink:title=" ">
<path fill="none" stroke="#63b8ff" d="M278.02,-300.8C301.56,-288.44 336.34,-271.12 368,-259 373.38,-256.94 379.02,-254.95 384.72,-253.07"/>
<polygon fill="#63b8ff" stroke="#63b8ff" points="385.86,-256.38 394.32,-250 383.73,-249.71 385.86,-256.38"/>
</a>
</g>
</g>
<!-- Node9&#45;&gt;Node8 -->
<g id="edge9_Node000009_Node000008" class="edge">
<title>Node9&#45;&gt;Node8</title>
<g id="a_edge9_Node000009_Node000008"><a xlink:title=" ">
<path fill="none" stroke="#63b8ff" d="M294.14,-331.03C316.25,-338.44 343.47,-347.4 368,-355 374.45,-357 381.2,-359.03 387.94,-361.04"/>
<polygon fill="#63b8ff" stroke="#63b8ff" points="387.2,-364.47 397.78,-363.93 389.17,-357.75 387.2,-364.47"/>
</a>
</g>
</g>
<!-- Node9&#45;&gt;Node10 -->
<g id="edge10_Node000009_Node000010" class="edge">
<title>Node9&#45;&gt;Node10</title>
<g id="a_edge10_Node000009_Node000010"><a xlink:title=" ">
<path fill="none" stroke="#63b8ff" d="M322.28,-304.13C337.33,-301.66 353.3,-299.04 368.68,-296.52"/>
<polygon fill="#63b8ff" stroke="#63b8ff" points="369.38,-299.95 378.68,-294.87 368.25,-293.04 369.38,-299.95"/>
</a>
</g>
</g>
<!-- Node12 -->
<g id="Node000012" class="node">
<title>Node12</title>
<g id="a_Node000012"><a xlink:href="classParameterParser.html#a33ab445425c60152a9e9d272b60cc8eb" target="_top" xlink:title="Get list of supported calculation types.">
<polygon fill="white" stroke="#666666" points="536,-346 368,-346 368,-316 536,-316 536,-346"/>
<text text-anchor="start" x="376" y="-334" font-family="Helvetica,sans-Serif" font-size="10.00">ParameterParser::getSupported</text>
<text text-anchor="middle" x="452" y="-323" font-family="Helvetica,sans-Serif" font-size="10.00">CalcTypes</text>
</a>
</g>
</g>
<!-- Node9&#45;&gt;Node12 -->
<g id="edge13_Node000009_Node000012" class="edge">
<title>Node9&#45;&gt;Node12</title>
<g id="a_edge13_Node000009_Node000012"><a xlink:title=" ">
<path fill="none" stroke="#63b8ff" d="M322.28,-321.39C333.69,-322.25 345.62,-323.14 357.42,-324.02"/>
<polygon fill="#63b8ff" stroke="#63b8ff" points="357.51,-327.53 367.74,-324.79 358.03,-320.55 357.51,-327.53"/>
</a>
</g>
</g>
<!-- Node11 -->
<g id="Node000011" class="node">
<title>Node11</title>
<g id="a_Node000011"><a xlink:href="classParameterParser.html#ac140a584bc981c09de3281e5bc353f57" target="_top" xlink:title="Create general template content with all possible parameters.">
<polygon fill="white" stroke="#666666" points="747.5,-298 575.5,-298 575.5,-268 747.5,-268 747.5,-298"/>
<text text-anchor="start" x="583.5" y="-286" font-family="Helvetica,sans-Serif" font-size="10.00">ParameterParser::createGeneral</text>
<text text-anchor="middle" x="661.5" y="-275" font-family="Helvetica,sans-Serif" font-size="10.00">TemplateContent</text>
</a>
</g>
</g>
<!-- Node10&#45;&gt;Node11 -->
<g id="edge11_Node000010_Node000011" class="edge">
<title>Node10&#45;&gt;Node11</title>
<g id="a_edge11_Node000010_Node000011"><a xlink:title=" ">
<path fill="none" stroke="#63b8ff" d="M525.28,-283C538.14,-283 551.72,-283 565.11,-283"/>
<polygon fill="#63b8ff" stroke="#63b8ff" points="565.29,-286.5 575.29,-283 565.29,-279.5 565.29,-286.5"/>
</a>
</g>
</g>
<!-- Node16 -->
<g id="Node000016" class="node">
<title>Node16</title>
<g id="a_Node000016"><a xlink:href="classParameterParser.html#ac85db5fadcadc7b6edc915d15dfba8f8" target="_top" xlink:title="Parse a line from the parameter file.">
<polygon fill="white" stroke="#666666" points="527,-67.5 377,-67.5 377,-48.5 527,-48.5 527,-67.5"/>
<text text-anchor="middle" x="452" y="-55.5" font-family="Helvetica,sans-Serif" font-size="10.00">ParameterParser::parseLine</text>
</a>
</g>
</g>
<!-- Node15&#45;&gt;Node16 -->
<g id="edge19_Node000015_Node000016" class="edge">
<title>Node15&#45;&gt;Node16</title>
<g id="a_edge19_Node000015_Node000016"><a xlink:title=" ">
<path fill="none" stroke="#63b8ff" d="M332.04,-63.33C343.55,-62.81 355.38,-62.28 366.92,-61.76"/>
<polygon fill="#63b8ff" stroke="#63b8ff" points="367.14,-65.26 376.97,-61.31 366.82,-58.27 367.14,-65.26"/>
</a>
</g>
</g>
<!-- Node17 -->
<g id="Node000017" class="node">
<title>Node17</title>
<g id="a_Node000017"><a xlink:href="classParameterParser.html#a8c06b2d410e65e0dd2347fa92c99f640" target="_top" xlink:title="Trim whitespace from string.">
<polygon fill="white" stroke="#666666" points="723,-67.5 600,-67.5 600,-48.5 723,-48.5 723,-67.5"/>
<text text-anchor="middle" x="661.5" y="-55.5" font-family="Helvetica,sans-Serif" font-size="10.00">ParameterParser::trim</text>
</a>
</g>
</g>
<!-- Node15&#45;&gt;Node17 -->
<g id="edge23_Node000015_Node000017" class="edge">
<title>Node15&#45;&gt;Node17</title>
<g id="a_edge23_Node000015_Node000017"><a xlink:title=" ">
<path fill="none" stroke="#63b8ff" d="M332.16,-74.07C344.17,-74.87 356.4,-75.56 368,-76 442.61,-78.84 461.53,-81.36 536,-76 555.76,-74.58 577.14,-71.91 596.52,-69.05"/>
<polygon fill="#63b8ff" stroke="#63b8ff" points="597.09,-72.5 606.45,-67.54 596.04,-65.58 597.09,-72.5"/>
</a>
</g>
</g>
<!-- Node18 -->
<g id="Node000018" class="node">
<title>Node18</title>
<g id="a_Node000018"><a xlink:href="classParameterParser.html#aa9c4b23545a5a5e3990b88b9f38c71d3" target="_top" xlink:title="Handle multi&#45;line parameter values.">
<polygon fill="white" stroke="#666666" points="529.5,-30 374.5,-30 374.5,0 529.5,0 529.5,-30"/>
<text text-anchor="start" x="382.5" y="-18" font-family="Helvetica,sans-Serif" font-size="10.00">ParameterParser::parseMulti</text>
<text text-anchor="middle" x="452" y="-7" font-family="Helvetica,sans-Serif" font-size="10.00">LineValue</text>
</a>
</g>
</g>
<!-- Node15&#45;&gt;Node18 -->
<g id="edge21_Node000015_Node000018" class="edge">
<title>Node15&#45;&gt;Node18</title>
<g id="a_edge21_Node000015_Node000018"><a xlink:title=" ">
<path fill="none" stroke="#63b8ff" d="M286.87,-57.46C313.67,-50.53 350.74,-40.94 382.87,-32.63"/>
<polygon fill="#63b8ff" stroke="#63b8ff" points="383.86,-35.98 392.66,-30.09 382.11,-29.21 383.86,-35.98"/>
</a>
</g>
</g>
<!-- Node16&#45;&gt;Node17 -->
<g id="edge20_Node000016_Node000017" class="edge">
<title>Node16&#45;&gt;Node17</title>
<g id="a_edge20_Node000016_Node000017"><a xlink:title=" ">
<path fill="none" stroke="#63b8ff" d="M527.03,-58C547.44,-58 569.53,-58 589.75,-58"/>
<polygon fill="#63b8ff" stroke="#63b8ff" points="589.82,-61.5 599.82,-58 589.82,-54.5 589.82,-61.5"/>
</a>
</g>
</g>
<!-- Node18&#45;&gt;Node17 -->
<g id="edge22_Node000018_Node000017" class="edge">
<title>Node18&#45;&gt;Node17</title>
<g id="a_edge22_Node000018_Node000017"><a xlink:title=" ">
<path fill="none" stroke="#63b8ff" d="M525.57,-30.04C551.45,-35.4 580.17,-41.35 604.44,-46.38"/>
<polygon fill="#63b8ff" stroke="#63b8ff" points="604.05,-49.88 614.55,-48.48 605.47,-43.02 604.05,-49.88"/>
</a>
</g>
</g>
</g>
</svg>

<g id="navigator" transform="translate(0 0)" fill="#404254">
  <rect fill="#f2f5e9" fill-opacity="0.5" stroke="#606060" stroke-width=".5" x="0" y="0" width="60" height="60"/>
  <use id="zoomplus" xlink:href="#zoomPlus" x="17" y="9" onmousedown="handleZoom(evt,'in')"/>
  <use id="zoomminus" xlink:href="#zoomMin" x="42" y="9" onmousedown="handleZoom(evt,'out')"/>
  <use id="reset" xlink:href="#resetDef" x="30" y="36" onmousedown="handleReset()"/>
   <use id="arrowup" xlink:href="#arrowUp" x="0" y="0" onmousedown="handlePan(0,-1)"/>
  <use id="arrowright" xlink:href="#arrowRight" x="0" y="0" onmousedown="handlePan(1,0)"/>
  <use id="arrowdown" xlink:href="#arrowDown" x="0" y="0" onmousedown="handlePan(0,1)"/>
  <use id="arrowleft" xlink:href="#arrowLeft" x="0" y="0" onmousedown="handlePan(-1,0)"/>
</g>
<svg viewBox="0 0 15 15" width="100%" height="30px" preserveAspectRatio="xMaxYMin meet">
 <g id="arrow_out" transform="scale(0.3 0.3)">
  <a xlink:href="group__CommandExecutors_ga6dd4acb8cb239efc2daf9ad5c4b2afd4_cgraph_org.svg" target="_base">
   <rect id="button" ry="5" rx="5" y="6" x="6" height="38" width="38"
        fill="#f2f5e9" fill-opacity="0.5" stroke="#606060" stroke-width="1.0"/>
   <path id="arrow"
     d="M 11.500037,31.436501 C 11.940474,20.09759 22.043105,11.32322 32.158766,21.979434 L 37.068811,17.246167 C 37.068811,17.246167 37.088388,32 37.088388,32 L 22.160133,31.978069 C 22.160133,31.978069 26.997745,27.140456 26.997745,27.140456 C 18.528582,18.264221 13.291696,25.230495 11.500037,31.436501 z"
     style="fill:#404040;"/>
  </a>
 </g>
</svg>

<style type='text/css'>
<![CDATA[
[data-mouse-over-selected='false'] { opacity: 0.7; }
[data-mouse-over-selected='true']  { opacity: 1.0; }
]]>
</style>
<script type="application/ecmascript"><![CDATA[
document.addEventListener('DOMContentLoaded', (event) => {
  highlightEdges();
  highlightAdjacentNodes();
});
]]></script>
</svg>
