<?xml version="1.0" encoding="UTF-8" standalone="no"?>
<!DOCTYPE svg PUBLIC "-//W3C//DTD SVG 1.1//EN"
 "http://www.w3.org/Graphics/SVG/1.1/DTD/svg11.dtd">
<!-- Generated by graphviz version 2.43.0 (0)
 -->
<!-- Title: HighLevelEnergyCalculator::print_gibbs_format Pages: 1 -->
<!--zoomable 358 -->

<svg id="main" version="1.1" xmlns="http://www.w3.org/2000/svg" xmlns:xlink="http://www.w3.org/1999/xlink" xml:space="preserve" onload="init(evt)">
<style type="text/css"><![CDATA[
.node, .edge {opacity: 0.7;}
.node.selected, .edge.selected {opacity: 1;}
.edge:hover path { stroke: red; }
.edge:hover polygon { stroke: red; fill: red; }
]]></style>

<defs>
  <circle id="rim" cx="0" cy="0" r="7"/>
  <circle id="rim2" cx="0" cy="0" r="3.5"/>
  <g id="zoomPlus">
    <use xlink:href="#rim" fill="#404040"><set attributeName="fill" to="#808080" begin="zoomplus.mouseover" end="zoomplus.mouseout"/></use>
    <path d="M-4,0h8M0,-4v8" fill="none" stroke="white" stroke-width="1.5" pointer-events="none"/>
  </g>
  <g id="zoomMin">
    <use xlink:href="#rim" fill="#404040"><set attributeName="fill" to="#808080" begin="zoomminus.mouseover" end="zoomminus.mouseout"/></use>
    <path d="M-4,0h8" fill="none" stroke="white" stroke-width="1.5" pointer-events="none"/>
  </g>
  <g id="arrowUp" transform="translate(30 24)">
    <use xlink:href="#rim"/>
    <path pointer-events="none" fill="none" stroke="white" stroke-width="1.5" d="M0,-3.0v7 M-2.5,-0.5L0,-3.0L2.5,-0.5"/>
  </g>
  <g id="arrowRight" transform="rotate(90) translate(36 -43)">
    <use xlink:href="#rim"/>
    <path pointer-events="none" fill="none" stroke="white" stroke-width="1.5" d="M0,-3.0v7 M-2.5,-0.5L0,-3.0L2.5,-0.5"/>
  </g>
  <g id="arrowDown" transform="rotate(180) translate(-30 -48)">
    <use xlink:href="#rim"/>
    <path pointer-events="none" fill="none" stroke="white" stroke-width="1.5" d="M0,-3.0v7 M-2.5,-0.5L0,-3.0L2.5,-0.5"/>
  </g>
  <g id="arrowLeft" transform="rotate(270) translate(-36 17)">
    <use xlink:href="#rim"/>
    <path pointer-events="none" fill="none" stroke="white" stroke-width="1.5" d="M0,-3.0v7 M-2.5,-0.5L0,-3.0L2.5,-0.5"/>
  </g>
  <g id="resetDef">
    <use xlink:href="#rim2" fill="#404040"><set attributeName="fill" to="#808080" begin="reset.mouseover" end="reset.mouseout"/></use>
  </g>
</defs>
<script type="application/ecmascript">
var viewWidth = 957;
var viewHeight = 358;
var sectionId = 'dynsection-5';
</script>
<script type="application/ecmascript" xlink:href="svg.min.js"/>
<svg id="graph" class="graph">
<g id="viewport">
<title>HighLevelEnergyCalculator::print_gibbs_format</title>
<!-- Node1 -->
<g id="Node000001" class="node">
<title>Node1</title>
<g id="a_Node000001"><a xlink:title="Print results in Gibbs free energy focused format.">
<polygon fill="#999999" stroke="#666666" points="149,-240 0,-240 0,-210 149,-210 149,-240"/>
<text text-anchor="start" x="8" y="-228" font-family="Helvetica,sans-Serif" font-size="10.00">HighLevelEnergyCalculator</text>
<text text-anchor="middle" x="74.5" y="-217" font-family="Helvetica,sans-Serif" font-size="10.00">::print_gibbs_format</text>
</a>
</g>
</g>
<!-- Node2 -->
<g id="Node000002" class="node">
<title>Node2</title>
<g id="a_Node000002"><a xlink:href="group__DynamicOutputFormatting.html#ga1b6138e25512b7d0efdca762f53d8c00" target="_top" xlink:title="Print results in Gibbs format with dynamic column widths.">
<polygon fill="white" stroke="#666666" points="347,-240 185,-240 185,-210 347,-210 347,-240"/>
<text text-anchor="start" x="193" y="-228" font-family="Helvetica,sans-Serif" font-size="10.00">HighLevelEnergyCalculator</text>
<text text-anchor="middle" x="266" y="-217" font-family="Helvetica,sans-Serif" font-size="10.00">::print_gibbs_format_dynamic</text>
</a>
</g>
</g>
<!-- Node1&#45;&gt;Node2 -->
<g id="edge1_Node000001_Node000002" class="edge">
<title>Node1&#45;&gt;Node2</title>
<g id="a_edge1_Node000001_Node000002"><a xlink:title=" ">
<path fill="none" stroke="#63b8ff" d="M149.04,-225C157.49,-225 166.17,-225 174.81,-225"/>
<polygon fill="#63b8ff" stroke="#63b8ff" points="174.91,-228.5 184.91,-225 174.91,-221.5 174.91,-228.5"/>
</a>
</g>
</g>
<!-- Node3 -->
<g id="Node000003" class="node">
<title>Node3</title>
<g id="a_Node000003"><a xlink:href="group__DynamicFormatting.html#ga1498f3f22c1cac77c44e60549f78683d" target="_top" xlink:title="Calculate optimal column widths for Gibbs format output.">
<polygon fill="white" stroke="#666666" points="560,-350 383,-350 383,-320 560,-320 560,-350"/>
<text text-anchor="start" x="391" y="-338" font-family="Helvetica,sans-Serif" font-size="10.00">HighLevelEnergyCalculator</text>
<text text-anchor="middle" x="471.5" y="-327" font-family="Helvetica,sans-Serif" font-size="10.00">::calculate_gibbs_column_widths</text>
</a>
</g>
</g>
<!-- Node2&#45;&gt;Node3 -->
<g id="edge2_Node000002_Node000003" class="edge">
<title>Node2&#45;&gt;Node3</title>
<g id="a_edge2_Node000002_Node000003"><a xlink:title=" ">
<path fill="none" stroke="#63b8ff" d="M285.23,-240.26C307.23,-258.05 345.89,-287.39 383,-306 390.61,-309.82 398.83,-313.3 407.09,-316.42"/>
<polygon fill="#63b8ff" stroke="#63b8ff" points="406.16,-319.81 416.76,-319.92 408.55,-313.22 406.16,-319.81"/>
</a>
</g>
</g>
<!-- Node4 -->
<g id="Node000004" class="node">
<title>Node4</title>
<g id="a_Node000004"><a xlink:href="group__OutputFormatting.html#ga86781939ef5359504029394ac39e0c96" target="_top" xlink:title="Format filename for display with length limit.">
<polygon fill="white" stroke="#666666" points="748,-328 599,-328 599,-298 748,-298 748,-328"/>
<text text-anchor="start" x="607" y="-316" font-family="Helvetica,sans-Serif" font-size="10.00">HighLevelEnergyCalculator</text>
<text text-anchor="middle" x="673.5" y="-305" font-family="Helvetica,sans-Serif" font-size="10.00">::format_filename</text>
</a>
</g>
</g>
<!-- Node2&#45;&gt;Node4 -->
<g id="edge4_Node000002_Node000004" class="edge">
<title>Node2&#45;&gt;Node4</title>
<g id="a_edge4_Node000002_Node000004"><a xlink:title=" ">
<path fill="none" stroke="#63b8ff" d="M297.27,-240.03C320.25,-250.82 352.92,-264.84 383,-273 450.91,-291.42 530.19,-301.62 588.6,-307.1"/>
<polygon fill="#63b8ff" stroke="#63b8ff" points="588.62,-310.62 598.89,-308.04 589.25,-303.64 588.62,-310.62"/>
</a>
</g>
</g>
<!-- Node5 -->
<g id="Node000005" class="node">
<title>Node5</title>
<g id="a_Node000005"><a xlink:href="group__FileUtilities.html#ga181c65f6b55859249f23a68e2f64f4bf" target="_top" xlink:title="Get corresponding parent directory file path.">
<polygon fill="white" stroke="#666666" points="546,-264 397,-264 397,-234 546,-234 546,-264"/>
<text text-anchor="start" x="405" y="-252" font-family="Helvetica,sans-Serif" font-size="10.00">HighLevelEnergyCalculator</text>
<text text-anchor="middle" x="471.5" y="-241" font-family="Helvetica,sans-Serif" font-size="10.00">::get_parent_file</text>
</a>
</g>
</g>
<!-- Node2&#45;&gt;Node5 -->
<g id="edge5_Node000002_Node000005" class="edge">
<title>Node2&#45;&gt;Node5</title>
<g id="a_edge5_Node000002_Node000005"><a xlink:title=" ">
<path fill="none" stroke="#63b8ff" d="M347.14,-234.45C360.04,-235.97 373.42,-237.55 386.42,-239.08"/>
<polygon fill="#63b8ff" stroke="#63b8ff" points="386.39,-242.6 396.73,-240.3 387.21,-235.65 386.39,-242.6"/>
</a>
</g>
</g>
<!-- Node6 -->
<g id="Node000006" class="node">
<title>Node6</title>
<g id="a_Node000006"><a xlink:href="group__DynamicFormatting.html#gae622d6b74fef46b12e67bbf588abac05" target="_top" xlink:title="Print header for Gibbs format with dynamic column widths.">
<polygon fill="white" stroke="#666666" points="553,-216 390,-216 390,-186 553,-186 553,-216"/>
<text text-anchor="start" x="398" y="-204" font-family="Helvetica,sans-Serif" font-size="10.00">HighLevelEnergyCalculator</text>
<text text-anchor="middle" x="471.5" y="-193" font-family="Helvetica,sans-Serif" font-size="10.00">::print_gibbs_header_dynamic</text>
</a>
</g>
</g>
<!-- Node2&#45;&gt;Node6 -->
<g id="edge6_Node000002_Node000006" class="edge">
<title>Node2&#45;&gt;Node6</title>
<g id="a_edge6_Node000002_Node000006"><a xlink:title=" ">
<path fill="none" stroke="#63b8ff" d="M347.14,-215.55C357.87,-214.28 368.93,-212.98 379.83,-211.69"/>
<polygon fill="#63b8ff" stroke="#63b8ff" points="380.25,-215.17 389.77,-210.52 379.43,-208.22 380.25,-215.17"/>
</a>
</g>
</g>
<!-- Node7 -->
<g id="Node000007" class="node">
<title>Node7</title>
<g id="a_Node000007"><a xlink:href="high__level__energy_8cpp.html#a4ef54a725bad93aecbd43800acfbf532" target="_top" xlink:title=" ">
<polygon fill="white" stroke="#666666" points="522,-167.5 421,-167.5 421,-148.5 522,-148.5 522,-167.5"/>
<text text-anchor="middle" x="471.5" y="-155.5" font-family="Helvetica,sans-Serif" font-size="10.00">print_header_box</text>
</a>
</g>
</g>
<!-- Node2&#45;&gt;Node7 -->
<g id="edge7_Node000002_Node000007" class="edge">
<title>Node2&#45;&gt;Node7</title>
<g id="a_edge7_Node000002_Node000007"><a xlink:title=" ">
<path fill="none" stroke="#63b8ff" d="M298.93,-209.97C321.92,-199.61 353.88,-186.11 383,-177 391.83,-174.24 401.27,-171.74 410.58,-169.52"/>
<polygon fill="#63b8ff" stroke="#63b8ff" points="411.62,-172.87 420.58,-167.23 410.05,-166.05 411.62,-172.87"/>
</a>
</g>
</g>
<!-- Node11 -->
<g id="Node000011" class="node">
<title>Node11</title>
<g id="a_Node000011"><a xlink:href="group__OutputFormatting.html#ga127aea9652788ee774b4d8d1f2602959" target="_top" xlink:title="Print summary information about calculation.">
<polygon fill="white" stroke="#666666" points="546,-128 397,-128 397,-98 546,-98 546,-128"/>
<text text-anchor="start" x="405" y="-116" font-family="Helvetica,sans-Serif" font-size="10.00">HighLevelEnergyCalculator</text>
<text text-anchor="middle" x="471.5" y="-105" font-family="Helvetica,sans-Serif" font-size="10.00">::print_summary_info</text>
</a>
</g>
</g>
<!-- Node2&#45;&gt;Node11 -->
<g id="edge11_Node000002_Node000011" class="edge">
<title>Node2&#45;&gt;Node11</title>
<g id="a_edge11_Node000002_Node000011"><a xlink:title=" ">
<path fill="none" stroke="#63b8ff" d="M283.88,-209.78C305.46,-191.03 344.63,-159.29 383,-140 389.11,-136.93 395.63,-134.13 402.26,-131.59"/>
<polygon fill="#63b8ff" stroke="#63b8ff" points="403.8,-134.76 412.01,-128.07 401.42,-128.18 403.8,-134.76"/>
</a>
</g>
</g>
<!-- Node3&#45;&gt;Node4 -->
<g id="edge3_Node000003_Node000004" class="edge">
<title>Node3&#45;&gt;Node4</title>
<g id="a_edge3_Node000003_Node000004"><a xlink:title=" ">
<path fill="none" stroke="#63b8ff" d="M560.22,-325.35C569.7,-324.31 579.33,-323.25 588.76,-322.21"/>
<polygon fill="#63b8ff" stroke="#63b8ff" points="589.35,-325.67 598.9,-321.1 588.58,-318.71 589.35,-325.67"/>
</a>
</g>
</g>
<!-- Node8 -->
<g id="Node000008" class="node">
<title>Node8</title>
<g id="a_Node000008"><a xlink:href="namespaceMetadata.html#a4447a0ff55fb6119acf046c55f0729d8" target="_top" xlink:title="Build the standard header banner shown at the top of outputs.">
<polygon fill="white" stroke="#666666" points="725,-168.5 622,-168.5 622,-149.5 725,-149.5 725,-168.5"/>
<text text-anchor="middle" x="673.5" y="-156.5" font-family="Helvetica,sans-Serif" font-size="10.00">Metadata::header</text>
</a>
</g>
</g>
<!-- Node7&#45;&gt;Node8 -->
<g id="edge8_Node000007_Node000008" class="edge">
<title>Node7&#45;&gt;Node8</title>
<g id="a_edge8_Node000007_Node000008"><a xlink:title=" ">
<path fill="none" stroke="#63b8ff" d="M522.2,-158.25C549.19,-158.38 582.8,-158.55 611.39,-158.69"/>
<polygon fill="#63b8ff" stroke="#63b8ff" points="611.65,-162.2 621.67,-158.75 611.69,-155.2 611.65,-162.2"/>
</a>
</g>
</g>
<!-- Node9 -->
<g id="Node000009" class="node">
<title>Node9</title>
<g id="a_Node000009"><a xlink:href="namespaceMetadata.html#ab855c758bd53604611f38268f1c58481" target="_top" xlink:title=" ">
<polygon fill="white" stroke="#666666" points="949,-211.5 787,-211.5 787,-192.5 949,-192.5 949,-211.5"/>
<text text-anchor="middle" x="868" y="-199.5" font-family="Helvetica,sans-Serif" font-size="10.00">Metadata::create_header_line</text>
</a>
</g>
</g>
<!-- Node8&#45;&gt;Node9 -->
<g id="edge9_Node000008_Node000009" class="edge">
<title>Node8&#45;&gt;Node9</title>
<g id="a_edge9_Node000008_Node000009"><a xlink:title=" ">
<path fill="none" stroke="#63b8ff" d="M717.22,-168.54C745.88,-174.95 783.83,-183.42 814.35,-190.24"/>
<polygon fill="#63b8ff" stroke="#63b8ff" points="813.87,-193.72 824.4,-192.48 815.4,-186.89 813.87,-193.72"/>
</a>
</g>
</g>
<!-- Node10 -->
<g id="Node000010" class="node">
<title>Node10</title>
<g id="a_Node000010"><a xlink:href="group__VersionFunctions.html#ga546fbcfeb96704c283dd3b0d080daf11" target="_top" xlink:title="Get header information for program output.">
<polygon fill="white" stroke="#666666" points="924,-174 812,-174 812,-144 924,-144 924,-174"/>
<text text-anchor="start" x="820" y="-162" font-family="Helvetica,sans-Serif" font-size="10.00">GaussianExtractor::</text>
<text text-anchor="middle" x="868" y="-151" font-family="Helvetica,sans-Serif" font-size="10.00">get_header_info</text>
</a>
</g>
</g>
<!-- Node8&#45;&gt;Node10 -->
<g id="edge10_Node000008_Node000010" class="edge">
<title>Node8&#45;&gt;Node10</title>
<g id="a_edge10_Node000008_Node000010"><a xlink:title=" ">
<path fill="none" stroke="#63b8ff" d="M725.08,-159C748.48,-159 776.56,-159 801.56,-159"/>
<polygon fill="#63b8ff" stroke="#63b8ff" points="801.69,-162.5 811.69,-159 801.69,-155.5 801.69,-162.5"/>
</a>
</g>
</g>
<!-- Node12 -->
<g id="Node000012" class="node">
<title>Node12</title>
<g id="a_Node000012"><a xlink:href="group__CalculationHelpers.html#ga77837f5437ca34aa38ba7c9518d85480" target="_top" xlink:title="Calculate phase correction for concentration effects.">
<polygon fill="white" stroke="#666666" points="751,-128 596,-128 596,-98 751,-98 751,-128"/>
<text text-anchor="start" x="604" y="-116" font-family="Helvetica,sans-Serif" font-size="10.00">HighLevelEnergyCalculator</text>
<text text-anchor="middle" x="673.5" y="-105" font-family="Helvetica,sans-Serif" font-size="10.00">::calculate_phase_correction</text>
</a>
</g>
</g>
<!-- Node11&#45;&gt;Node12 -->
<g id="edge12_Node000011_Node000012" class="edge">
<title>Node11&#45;&gt;Node12</title>
<g id="a_edge12_Node000011_Node000012"><a xlink:title=" ">
<path fill="none" stroke="#63b8ff" d="M546.12,-113C558.99,-113 572.49,-113 585.67,-113"/>
<polygon fill="#63b8ff" stroke="#63b8ff" points="585.68,-116.5 595.68,-113 585.68,-109.5 585.68,-116.5"/>
</a>
</g>
</g>
<!-- Node13 -->
<g id="Node000013" class="node">
<title>Node13</title>
<g id="a_Node000013"><a xlink:href="group__EnergyExtraction.html#ga42389d55a3f27a4e7f077a16d956b957" target="_top" xlink:title="Extract specific energy value from log file using pattern matching.">
<polygon fill="white" stroke="#666666" points="748,-79 599,-79 599,-49 748,-49 748,-79"/>
<text text-anchor="start" x="607" y="-67" font-family="Helvetica,sans-Serif" font-size="10.00">HighLevelEnergyCalculator</text>
<text text-anchor="middle" x="673.5" y="-56" font-family="Helvetica,sans-Serif" font-size="10.00">::extract_value_from_file</text>
</a>
</g>
</g>
<!-- Node11&#45;&gt;Node13 -->
<g id="edge13_Node000011_Node000013" class="edge">
<title>Node11&#45;&gt;Node13</title>
<g id="a_edge13_Node000011_Node000013"><a xlink:title=" ">
<path fill="none" stroke="#63b8ff" d="M533.87,-97.97C555.17,-92.74 579.25,-86.85 601.29,-81.45"/>
<polygon fill="#63b8ff" stroke="#63b8ff" points="602.37,-84.79 611.25,-79.01 600.7,-77.99 602.37,-84.79"/>
</a>
</g>
</g>
<!-- Node14 -->
<g id="Node000014" class="node">
<title>Node14</title>
<g id="a_Node000014"><a xlink:href="structRegexPatterns.html#aeb75344b6b563c17108dbfaf60f486cc" target="_top" xlink:title=" ">
<polygon fill="white" stroke="#666666" points="922.5,-126 813.5,-126 813.5,-96 922.5,-96 922.5,-126"/>
<text text-anchor="start" x="821.5" y="-114" font-family="Helvetica,sans-Serif" font-size="10.00">RegexPatterns::get</text>
<text text-anchor="middle" x="868" y="-103" font-family="Helvetica,sans-Serif" font-size="10.00">_instance</text>
</a>
</g>
</g>
<!-- Node13&#45;&gt;Node14 -->
<g id="edge14_Node000013_Node000014" class="edge">
<title>Node13&#45;&gt;Node14</title>
<g id="a_edge14_Node000013_Node000014"><a xlink:title=" ">
<path fill="none" stroke="#63b8ff" d="M735.94,-79C757.5,-84.27 781.76,-90.19 803.49,-95.49"/>
<polygon fill="#63b8ff" stroke="#63b8ff" points="802.74,-98.91 813.28,-97.88 804.4,-92.11 802.74,-98.91"/>
</a>
</g>
</g>
<!-- Node15 -->
<g id="Node000015" class="node">
<title>Node15</title>
<g id="a_Node000015"><a xlink:href="classFileContentCache.html#affecb88aac28ec372fe984ab6ec0279c" target="_top" xlink:title=" ">
<polygon fill="white" stroke="#666666" points="930,-78 806,-78 806,-48 930,-48 930,-78"/>
<text text-anchor="start" x="814" y="-66" font-family="Helvetica,sans-Serif" font-size="10.00">FileContentCache::get</text>
<text text-anchor="middle" x="868" y="-55" font-family="Helvetica,sans-Serif" font-size="10.00">_or_read</text>
</a>
</g>
</g>
<!-- Node13&#45;&gt;Node15 -->
<g id="edge15_Node000013_Node000015" class="edge">
<title>Node13&#45;&gt;Node15</title>
<g id="a_edge15_Node000013_Node000015"><a xlink:title=" ">
<path fill="none" stroke="#63b8ff" d="M748.1,-63.62C763.77,-63.54 780.29,-63.45 795.87,-63.37"/>
<polygon fill="#63b8ff" stroke="#63b8ff" points="795.97,-66.87 805.95,-63.32 795.94,-59.87 795.97,-66.87"/>
</a>
</g>
</g>
<!-- Node16 -->
<g id="Node000016" class="node">
<title>Node16</title>
<g id="a_Node000016"><a xlink:href="group__SafetyHelpers.html#gaf25036f89725288871b9d856ca5f76ba" target="_top" xlink:title="Safe energy value parsing with validation.">
<polygon fill="white" stroke="#666666" points="942.5,-30 793.5,-30 793.5,0 942.5,0 942.5,-30"/>
<text text-anchor="start" x="801.5" y="-18" font-family="Helvetica,sans-Serif" font-size="10.00">HighLevelEnergyCalculator</text>
<text text-anchor="middle" x="868" y="-7" font-family="Helvetica,sans-Serif" font-size="10.00">::safe_parse_energy</text>
</a>
</g>
</g>
<!-- Node13&#45;&gt;Node16 -->
<g id="edge16_Node000013_Node000016" class="edge">
<title>Node13&#45;&gt;Node16</title>
<g id="a_edge16_Node000013_Node000016"><a xlink:title=" ">
<path fill="none" stroke="#63b8ff" d="M733.56,-48.97C753.98,-43.77 777.04,-37.9 798.17,-32.52"/>
<polygon fill="#63b8ff" stroke="#63b8ff" points="799.22,-35.86 808.05,-30.01 797.49,-29.08 799.22,-35.86"/>
</a>
</g>
</g>
</g>
</svg>

<g id="navigator" transform="translate(0 0)" fill="#404254">
  <rect fill="#f2f5e9" fill-opacity="0.5" stroke="#606060" stroke-width=".5" x="0" y="0" width="60" height="60"/>
  <use id="zoomplus" xlink:href="#zoomPlus" x="17" y="9" onmousedown="handleZoom(evt,'in')"/>
  <use id="zoomminus" xlink:href="#zoomMin" x="42" y="9" onmousedown="handleZoom(evt,'out')"/>
  <use id="reset" xlink:href="#resetDef" x="30" y="36" onmousedown="handleReset()"/>
   <use id="arrowup" xlink:href="#arrowUp" x="0" y="0" onmousedown="handlePan(0,-1)"/>
  <use id="arrowright" xlink:href="#arrowRight" x="0" y="0" onmousedown="handlePan(1,0)"/>
  <use id="arrowdown" xlink:href="#arrowDown" x="0" y="0" onmousedown="handlePan(0,1)"/>
  <use id="arrowleft" xlink:href="#arrowLeft" x="0" y="0" onmousedown="handlePan(-1,0)"/>
</g>
<svg viewBox="0 0 15 15" width="100%" height="30px" preserveAspectRatio="xMaxYMin meet">
 <g id="arrow_out" transform="scale(0.3 0.3)">
  <a xlink:href="group__OutputFunctions_ga8bd0bcb08333beae561c2b44df59c8a5_cgraph_org.svg" target="_base">
   <rect id="button" ry="5" rx="5" y="6" x="6" height="38" width="38"
        fill="#f2f5e9" fill-opacity="0.5" stroke="#606060" stroke-width="1.0"/>
   <path id="arrow"
     d="M 11.500037,31.436501 C 11.940474,20.09759 22.043105,11.32322 32.158766,21.979434 L 37.068811,17.246167 C 37.068811,17.246167 37.088388,32 37.088388,32 L 22.160133,31.978069 C 22.160133,31.978069 26.997745,27.140456 26.997745,27.140456 C 18.528582,18.264221 13.291696,25.230495 11.500037,31.436501 z"
     style="fill:#404040;"/>
  </a>
 </g>
</svg>

<style type='text/css'>
<![CDATA[
[data-mouse-over-selected='false'] { opacity: 0.7; }
[data-mouse-over-selected='true']  { opacity: 1.0; }
]]>
</style>
<script type="application/ecmascript"><![CDATA[
document.addEventListener('DOMContentLoaded', (event) => {
  highlightEdges();
  highlightAdjacentNodes();
});
]]></script>
</svg>
