<?xml version="1.0" encoding="UTF-8" standalone="no"?>
<!DOCTYPE svg PUBLIC "-//W3C//DTD SVG 1.1//EN"
 "http://www.w3.org/Graphics/SVG/1.1/DTD/svg11.dtd">
<!-- Generated by graphviz version 2.43.0 (0)
 -->
<!-- Title: HighLevelEnergyCalculator::extract_value_from_file Pages: 1 -->
<!--zoomable 434 -->

<svg id="main" version="1.1" xmlns="http://www.w3.org/2000/svg" xmlns:xlink="http://www.w3.org/1999/xlink" xml:space="preserve" onload="init(evt)">
<style type="text/css"><![CDATA[
.node, .edge {opacity: 0.7;}
.node.selected, .edge.selected {opacity: 1;}
.edge:hover path { stroke: red; }
.edge:hover polygon { stroke: red; fill: red; }
]]></style>

<defs>
  <circle id="rim" cx="0" cy="0" r="7"/>
  <circle id="rim2" cx="0" cy="0" r="3.5"/>
  <g id="zoomPlus">
    <use xlink:href="#rim" fill="#404040"><set attributeName="fill" to="#808080" begin="zoomplus.mouseover" end="zoomplus.mouseout"/></use>
    <path d="M-4,0h8M0,-4v8" fill="none" stroke="white" stroke-width="1.5" pointer-events="none"/>
  </g>
  <g id="zoomMin">
    <use xlink:href="#rim" fill="#404040"><set attributeName="fill" to="#808080" begin="zoomminus.mouseover" end="zoomminus.mouseout"/></use>
    <path d="M-4,0h8" fill="none" stroke="white" stroke-width="1.5" pointer-events="none"/>
  </g>
  <g id="arrowUp" transform="translate(30 24)">
    <use xlink:href="#rim"/>
    <path pointer-events="none" fill="none" stroke="white" stroke-width="1.5" d="M0,-3.0v7 M-2.5,-0.5L0,-3.0L2.5,-0.5"/>
  </g>
  <g id="arrowRight" transform="rotate(90) translate(36 -43)">
    <use xlink:href="#rim"/>
    <path pointer-events="none" fill="none" stroke="white" stroke-width="1.5" d="M0,-3.0v7 M-2.5,-0.5L0,-3.0L2.5,-0.5"/>
  </g>
  <g id="arrowDown" transform="rotate(180) translate(-30 -48)">
    <use xlink:href="#rim"/>
    <path pointer-events="none" fill="none" stroke="white" stroke-width="1.5" d="M0,-3.0v7 M-2.5,-0.5L0,-3.0L2.5,-0.5"/>
  </g>
  <g id="arrowLeft" transform="rotate(270) translate(-36 17)">
    <use xlink:href="#rim"/>
    <path pointer-events="none" fill="none" stroke="white" stroke-width="1.5" d="M0,-3.0v7 M-2.5,-0.5L0,-3.0L2.5,-0.5"/>
  </g>
  <g id="resetDef">
    <use xlink:href="#rim2" fill="#404040"><set attributeName="fill" to="#808080" begin="reset.mouseover" end="reset.mouseout"/></use>
  </g>
</defs>
<script type="application/ecmascript">
var viewWidth = 1411;
var viewHeight = 434;
var sectionId = 'dynsection-3';
</script>
<script type="application/ecmascript" xlink:href="svg.min.js"/>
<svg id="graph" class="graph">
<g id="viewport">
<title>HighLevelEnergyCalculator::extract_value_from_file</title>
<!-- Node1 -->
<g id="Node000001" class="node">
<title>Node1</title>
<g id="a_Node000001"><a xlink:title="Extract specific energy value from log file using pattern matching.">
<polygon fill="#999999" stroke="#666666" points="1403,-263.5 1254,-263.5 1254,-233.5 1403,-233.5 1403,-263.5"/>
<text text-anchor="start" x="1262" y="-251.5" font-family="Helvetica,sans-Serif" font-size="10.00">HighLevelEnergyCalculator</text>
<text text-anchor="middle" x="1328.5" y="-240.5" font-family="Helvetica,sans-Serif" font-size="10.00">::extract_value_from_file</text>
</a>
</g>
</g>
<!-- Node2 -->
<g id="Node000002" class="node">
<title>Node2</title>
<g id="a_Node000002"><a xlink:href="group__MainCalculation.html#gacaba75cc61d8b3ec08efd5976ce4325f" target="_top" xlink:title="Calculate high&#45;level energy for a single file.">
<polygon fill="white" stroke="#666666" points="1003,-306.5 842,-306.5 842,-276.5 1003,-276.5 1003,-306.5"/>
<text text-anchor="start" x="850" y="-294.5" font-family="Helvetica,sans-Serif" font-size="10.00">HighLevelEnergyCalculator</text>
<text text-anchor="middle" x="922.5" y="-283.5" font-family="Helvetica,sans-Serif" font-size="10.00">::calculate_high_level_energy</text>
</a>
</g>
</g>
<!-- Node1&#45;&gt;Node2 -->
<g id="edge1_Node000001_Node000002" class="edge">
<title>Node1&#45;&gt;Node2</title>
<g id="a_edge1_Node000001_Node000002"><a xlink:title=" ">
<path fill="none" stroke="#63b8ff" d="M1243.83,-250.93C1186.07,-253.37 1107.62,-258.16 1039,-267.5 1022.36,-269.77 1004.53,-273.04 987.98,-276.45"/>
<polygon fill="#63b8ff" stroke="#63b8ff" points="1244.15,-254.42 1254,-250.52 1243.86,-247.43 1244.15,-254.42"/>
</a>
</g>
</g>
<!-- Node13 -->
<g id="Node000013" class="node">
<title>Node13</title>
<g id="a_Node000013"><a xlink:href="group__EnergyExtraction.html#gaa64c4afe3577a5e147f0c3837d10a021" target="_top" xlink:title="Extract thermal correction data from low&#45;level calculation.">
<polygon fill="white" stroke="#666666" points="1218,-306.5 1039,-306.5 1039,-276.5 1218,-276.5 1218,-306.5"/>
<text text-anchor="start" x="1047" y="-294.5" font-family="Helvetica,sans-Serif" font-size="10.00">HighLevelEnergyCalculator</text>
<text text-anchor="middle" x="1128.5" y="-283.5" font-family="Helvetica,sans-Serif" font-size="10.00">::extract_low_level_thermal_data</text>
</a>
</g>
</g>
<!-- Node1&#45;&gt;Node13 -->
<g id="edge19_Node000001_Node000013" class="edge">
<title>Node1&#45;&gt;Node13</title>
<g id="a_edge19_Node000001_Node000013"><a xlink:title=" ">
<path fill="none" stroke="#63b8ff" d="M1248.17,-265.73C1231.8,-269.28 1214.69,-273 1198.71,-276.47"/>
<polygon fill="#63b8ff" stroke="#63b8ff" points="1249.22,-269.08 1258.25,-263.54 1247.73,-262.24 1249.22,-269.08"/>
</a>
</g>
</g>
<!-- Node14 -->
<g id="Node000014" class="node">
<title>Node14</title>
<g id="a_Node000014"><a xlink:href="group__OutputFormatting.html#ga127aea9652788ee774b4d8d1f2602959" target="_top" xlink:title="Print summary information about calculation.">
<polygon fill="white" stroke="#666666" points="793,-185.5 644,-185.5 644,-155.5 793,-155.5 793,-185.5"/>
<text text-anchor="start" x="652" y="-173.5" font-family="Helvetica,sans-Serif" font-size="10.00">HighLevelEnergyCalculator</text>
<text text-anchor="middle" x="718.5" y="-162.5" font-family="Helvetica,sans-Serif" font-size="10.00">::print_summary_info</text>
</a>
</g>
</g>
<!-- Node1&#45;&gt;Node14 -->
<g id="edge21_Node000001_Node000014" class="edge">
<title>Node1&#45;&gt;Node14</title>
<g id="a_edge21_Node000001_Node000014"><a xlink:title=" ">
<path fill="none" stroke="#63b8ff" d="M1243.66,-237.74C1124.11,-222.41 906.6,-194.5 793.02,-179.93"/>
<polygon fill="#63b8ff" stroke="#63b8ff" points="1243.49,-241.25 1253.86,-239.05 1244.38,-234.31 1243.49,-241.25"/>
</a>
</g>
</g>
<!-- Node3 -->
<g id="Node000003" class="node">
<title>Node3</title>
<g id="a_Node000003"><a xlink:href="group__MainCalculation.html#ga69523c18f35fc5a0d58d64495c230cea" target="_top" xlink:title="Process entire directory of high&#45;level calculations.">
<polygon fill="white" stroke="#666666" points="579,-233.5 430,-233.5 430,-203.5 579,-203.5 579,-233.5"/>
<text text-anchor="start" x="438" y="-221.5" font-family="Helvetica,sans-Serif" font-size="10.00">HighLevelEnergyCalculator</text>
<text text-anchor="middle" x="504.5" y="-210.5" font-family="Helvetica,sans-Serif" font-size="10.00">::process_directory</text>
</a>
</g>
</g>
<!-- Node2&#45;&gt;Node3 -->
<g id="edge2_Node000002_Node000003" class="edge">
<title>Node2&#45;&gt;Node3</title>
<g id="a_edge2_Node000002_Node000003"><a xlink:title=" ">
<path fill="none" stroke="#63b8ff" d="M883.13,-272.01C861.12,-261.75 832.65,-249.98 806,-243.5 730.08,-225.05 640.54,-219.61 579.07,-218.29"/>
<polygon fill="#63b8ff" stroke="#63b8ff" points="881.91,-275.31 892.44,-276.45 884.92,-268.99 881.91,-275.31"/>
</a>
</g>
</g>
<!-- Node8 -->
<g id="Node000008" class="node">
<title>Node8</title>
<g id="a_Node000008"><a xlink:href="group__MainCalculation.html#gab8dc66d665a45b29b6b0d1c1cc4e2208" target="_top" xlink:title="Process files with custom resource limits.">
<polygon fill="white" stroke="#666666" points="579,-425.5 430,-425.5 430,-395.5 579,-395.5 579,-425.5"/>
<text text-anchor="start" x="438" y="-413.5" font-family="Helvetica,sans-Serif" font-size="10.00">HighLevelEnergyCalculator</text>
<text text-anchor="middle" x="504.5" y="-402.5" font-family="Helvetica,sans-Serif" font-size="10.00">::process_files_with_limits</text>
</a>
</g>
</g>
<!-- Node2&#45;&gt;Node8 -->
<g id="edge10_Node000002_Node000008" class="edge">
<title>Node2&#45;&gt;Node8</title>
<g id="a_edge10_Node000002_Node000008"><a xlink:title=" ">
<path fill="none" stroke="#63b8ff" d="M902.49,-314.59C881.58,-338.11 845.65,-373.35 806,-389.5 732.98,-419.23 641.76,-421.23 579.09,-417.85"/>
<polygon fill="#63b8ff" stroke="#63b8ff" points="905.33,-316.65 909.24,-306.81 900.04,-312.07 905.33,-316.65"/>
</a>
</g>
</g>
<!-- Node9 -->
<g id="Node000009" class="node">
<title>Node9</title>
<g id="a_Node000009"><a xlink:href="group__ParallelProcessing.html#ga30ddb3084923fb944336f5c6cf7f43e8" target="_top" xlink:title="Enhanced parallel processing using thread pool.">
<polygon fill="white" stroke="#666666" points="806,-282.5 631,-282.5 631,-252.5 806,-252.5 806,-282.5"/>
<text text-anchor="start" x="639" y="-270.5" font-family="Helvetica,sans-Serif" font-size="10.00">HighLevelEnergyCalculator</text>
<text text-anchor="middle" x="718.5" y="-259.5" font-family="Helvetica,sans-Serif" font-size="10.00">::process_files_with_thread_pool</text>
</a>
</g>
</g>
<!-- Node2&#45;&gt;Node9 -->
<g id="edge11_Node000002_Node000009" class="edge">
<title>Node2&#45;&gt;Node9</title>
<g id="a_edge11_Node000002_Node000009"><a xlink:title=" ">
<path fill="none" stroke="#63b8ff" d="M832,-280.87C823.46,-279.85 814.82,-278.82 806.31,-277.81"/>
<polygon fill="#63b8ff" stroke="#63b8ff" points="831.61,-284.34 841.95,-282.05 832.44,-277.39 831.61,-284.34"/>
</a>
</g>
</g>
<!-- Node11 -->
<g id="Node000011" class="node">
<title>Node11</title>
<g id="a_Node000011"><a xlink:href="group__ParallelProcessing.html#ga2e962d5fa18800edaf087ac6b7f6caf0" target="_top" xlink:title="Worker function for parallel file processing.">
<polygon fill="white" stroke="#666666" points="793,-380.5 644,-380.5 644,-350.5 793,-350.5 793,-380.5"/>
<text text-anchor="start" x="652" y="-368.5" font-family="Helvetica,sans-Serif" font-size="10.00">HighLevelEnergyCalculator</text>
<text text-anchor="middle" x="718.5" y="-357.5" font-family="Helvetica,sans-Serif" font-size="10.00">::process_files_worker</text>
</a>
</g>
</g>
<!-- Node2&#45;&gt;Node11 -->
<g id="edge16_Node000002_Node000011" class="edge">
<title>Node2&#45;&gt;Node11</title>
<g id="a_edge16_Node000002_Node000011"><a xlink:title=" ">
<path fill="none" stroke="#63b8ff" d="M878.29,-310.69C856.77,-319.93 830.23,-330.85 806,-339.5 795.37,-343.3 783.87,-347.01 772.84,-350.4"/>
<polygon fill="#63b8ff" stroke="#63b8ff" points="879.7,-313.89 887.49,-306.71 876.92,-307.46 879.7,-313.89"/>
</a>
</g>
</g>
<!-- Node12 -->
<g id="Node000012" class="node">
<title>Node12</title>
<g id="a_Node000012"><a xlink:href="group__ParallelProcessing.html#gac2f3665873e2399cfcf6dcc6557291d6" target="_top" xlink:title="Process single file with enhanced error handling.">
<polygon fill="white" stroke="#666666" points="802,-330.5 635,-330.5 635,-300.5 802,-300.5 802,-330.5"/>
<text text-anchor="start" x="643" y="-318.5" font-family="Helvetica,sans-Serif" font-size="10.00">HighLevelEnergyCalculator</text>
<text text-anchor="middle" x="718.5" y="-307.5" font-family="Helvetica,sans-Serif" font-size="10.00">::process_single_file_enhanced</text>
</a>
</g>
</g>
<!-- Node2&#45;&gt;Node12 -->
<g id="edge18_Node000002_Node000012" class="edge">
<title>Node2&#45;&gt;Node12</title>
<g id="a_edge18_Node000002_Node000012"><a xlink:title=" ">
<path fill="none" stroke="#63b8ff" d="M831.79,-302.16C821.98,-303.32 812.02,-304.51 802.3,-305.66"/>
<polygon fill="#63b8ff" stroke="#63b8ff" points="832.44,-305.61 841.95,-300.95 831.61,-298.66 832.44,-305.61"/>
</a>
</g>
</g>
<!-- Node4 -->
<g id="Node000004" class="node">
<title>Node4</title>
<g id="a_Node000004"><a xlink:href="group__ModuleExecutors.html#gab1aa2594a8bb3d2789d37593f69cbc5e" target="_top" xlink:title=" ">
<polygon fill="white" stroke="#666666" points="358.5,-219.5 248.5,-219.5 248.5,-189.5 358.5,-189.5 358.5,-219.5"/>
<text text-anchor="start" x="256.5" y="-207.5" font-family="Helvetica,sans-Serif" font-size="10.00">execute_high_level</text>
<text text-anchor="middle" x="303.5" y="-196.5" font-family="Helvetica,sans-Serif" font-size="10.00">_au_command</text>
</a>
</g>
</g>
<!-- Node3&#45;&gt;Node4 -->
<g id="edge3_Node000003_Node000004" class="edge">
<title>Node3&#45;&gt;Node4</title>
<g id="a_edge3_Node000003_Node000004"><a xlink:title=" ">
<path fill="none" stroke="#63b8ff" d="M419.91,-212.62C399.23,-211.16 377.62,-209.64 358.76,-208.32"/>
<polygon fill="#63b8ff" stroke="#63b8ff" points="419.74,-216.12 429.97,-213.33 420.24,-209.13 419.74,-216.12"/>
</a>
</g>
</g>
<!-- Node7 -->
<g id="Node000007" class="node">
<title>Node7</title>
<g id="a_Node000007"><a xlink:href="group__ModuleExecutors.html#gaefd8d559f7f798aaf8cb5f6feb9dce47" target="_top" xlink:title=" ">
<polygon fill="white" stroke="#666666" points="358.5,-284.5 248.5,-284.5 248.5,-254.5 358.5,-254.5 358.5,-284.5"/>
<text text-anchor="start" x="256.5" y="-272.5" font-family="Helvetica,sans-Serif" font-size="10.00">execute_high_level</text>
<text text-anchor="middle" x="303.5" y="-261.5" font-family="Helvetica,sans-Serif" font-size="10.00">_kj_command</text>
</a>
</g>
</g>
<!-- Node3&#45;&gt;Node7 -->
<g id="edge7_Node000003_Node000007" class="edge">
<title>Node3&#45;&gt;Node7</title>
<g id="a_edge7_Node000003_Node000007"><a xlink:title=" ">
<path fill="none" stroke="#63b8ff" d="M435.09,-236.03C410.1,-242.44 382.2,-249.59 358.63,-255.63"/>
<polygon fill="#63b8ff" stroke="#63b8ff" points="436.05,-239.4 444.87,-233.53 434.31,-232.62 436.05,-239.4"/>
</a>
</g>
</g>
<!-- Node5 -->
<g id="Node000005" class="node">
<title>Node5</title>
<g id="a_Node000005"><a xlink:href="main_8cpp.html#a0ddf1224851353fc92bfbff6f499fa97" target="_top" xlink:title="Main entry point for the Gaussian Extractor application.">
<polygon fill="white" stroke="#666666" points="41,-248 0,-248 0,-229 41,-229 41,-248"/>
<text text-anchor="middle" x="20.5" y="-236" font-family="Helvetica,sans-Serif" font-size="10.00">main</text>
</a>
</g>
</g>
<!-- Node4&#45;&gt;Node5 -->
<g id="edge4_Node000004_Node000005" class="edge">
<title>Node4&#45;&gt;Node5</title>
<g id="a_edge4_Node000004_Node000005"><a xlink:title=" ">
<path fill="none" stroke="#63b8ff" d="M238.2,-204.3C192.76,-205.24 130.65,-208.73 77,-219.5 64.82,-221.95 51.64,-226.38 41.19,-230.34"/>
<polygon fill="#63b8ff" stroke="#63b8ff" points="238.27,-207.8 248.21,-204.13 238.15,-200.8 238.27,-207.8"/>
</a>
</g>
</g>
<!-- Node6 -->
<g id="Node000006" class="node">
<title>Node6</title>
<g id="a_Node000006"><a xlink:href="interactive__mode_8cpp.html#a6b615c34054150d837dc45ed1c17b297" target="_top" xlink:title="Enhanced interactive command loop with TAB completion for Windows.">
<polygon fill="white" stroke="#666666" points="193,-248 77,-248 77,-229 193,-229 193,-248"/>
<text text-anchor="middle" x="135" y="-236" font-family="Helvetica,sans-Serif" font-size="10.00">run_interactive_loop</text>
</a>
</g>
</g>
<!-- Node4&#45;&gt;Node6 -->
<g id="edge5_Node000004_Node000006" class="edge">
<title>Node4&#45;&gt;Node6</title>
<g id="a_edge5_Node000004_Node000006"><a xlink:title=" ">
<path fill="none" stroke="#63b8ff" d="M238.59,-217.55C220.02,-221.34 200.1,-225.41 182.79,-228.94"/>
<polygon fill="#63b8ff" stroke="#63b8ff" points="239.34,-220.97 248.44,-215.54 237.94,-214.11 239.34,-220.97"/>
</a>
</g>
</g>
<!-- Node6&#45;&gt;Node5 -->
<g id="edge6_Node000006_Node000005" class="edge">
<title>Node6&#45;&gt;Node5</title>
<g id="a_edge6_Node000006_Node000005"><a xlink:title=" ">
<path fill="none" stroke="#63b8ff" d="M66.62,-238.5C57.37,-238.5 48.55,-238.5 41.19,-238.5"/>
<polygon fill="#63b8ff" stroke="#63b8ff" points="66.76,-242 76.76,-238.5 66.76,-235 66.76,-242"/>
</a>
</g>
</g>
<!-- Node7&#45;&gt;Node5 -->
<g id="edge8_Node000007_Node000005" class="edge">
<title>Node7&#45;&gt;Node5</title>
<g id="a_edge8_Node000007_Node000005"><a xlink:title=" ">
<path fill="none" stroke="#63b8ff" d="M238.22,-270.77C192.79,-270.54 130.67,-267.91 77,-257.5 64.8,-255.14 51.63,-250.71 41.17,-246.72"/>
<polygon fill="#63b8ff" stroke="#63b8ff" points="238.22,-274.27 248.23,-270.79 238.23,-267.27 238.22,-274.27"/>
</a>
</g>
</g>
<!-- Node7&#45;&gt;Node6 -->
<g id="edge9_Node000007_Node000006" class="edge">
<title>Node7&#45;&gt;Node6</title>
<g id="a_edge9_Node000007_Node000006"><a xlink:title=" ">
<path fill="none" stroke="#63b8ff" d="M238.59,-257.6C221.6,-254.44 203.46,-251.06 187.24,-248.04"/>
<polygon fill="#63b8ff" stroke="#63b8ff" points="237.97,-261.05 248.44,-259.44 239.25,-254.16 237.97,-261.05"/>
</a>
</g>
</g>
<!-- Node9&#45;&gt;Node8 -->
<g id="edge15_Node000009_Node000008" class="edge">
<title>Node9&#45;&gt;Node8</title>
<g id="a_edge15_Node000009_Node000008"><a xlink:title=" ">
<path fill="none" stroke="#63b8ff" d="M635.07,-288.1C633.67,-289.18 632.31,-290.31 631,-291.5 597.64,-321.93 628.49,-356.21 595,-386.5 590.35,-390.71 585.03,-394.19 579.37,-397.07"/>
<polygon fill="#63b8ff" stroke="#63b8ff" points="637.15,-290.92 643.59,-282.52 633.31,-285.07 637.15,-290.92"/>
</a>
</g>
</g>
<!-- Node10 -->
<g id="Node000010" class="node">
<title>Node10</title>
<g id="a_Node000010"><a xlink:href="group__MainCalculation.html#gac76ff006f7aae2e96c804a8ca786d692" target="_top" xlink:title="Process entire directory with parallel processing.">
<polygon fill="white" stroke="#666666" points="580,-281.5 429,-281.5 429,-251.5 580,-251.5 580,-281.5"/>
<text text-anchor="start" x="437" y="-269.5" font-family="Helvetica,sans-Serif" font-size="10.00">HighLevelEnergyCalculator</text>
<text text-anchor="middle" x="504.5" y="-258.5" font-family="Helvetica,sans-Serif" font-size="10.00">::process_directory_parallel</text>
</a>
</g>
</g>
<!-- Node9&#45;&gt;Node10 -->
<g id="edge12_Node000009_Node000010" class="edge">
<title>Node9&#45;&gt;Node10</title>
<g id="a_edge12_Node000009_Node000010"><a xlink:title=" ">
<path fill="none" stroke="#63b8ff" d="M620.64,-267.04C607.07,-266.98 593.29,-266.91 580.22,-266.85"/>
<polygon fill="#63b8ff" stroke="#63b8ff" points="620.95,-270.54 630.97,-267.09 620.98,-263.54 620.95,-270.54"/>
</a>
</g>
</g>
<!-- Node10&#45;&gt;Node4 -->
<g id="edge13_Node000010_Node000004" class="edge">
<title>Node10&#45;&gt;Node4</title>
<g id="a_edge13_Node000010_Node000004"><a xlink:title=" ">
<path fill="none" stroke="#63b8ff" d="M435.28,-248.75C428.07,-246.72 420.87,-244.61 414,-242.5 391.21,-235.5 366.05,-226.84 345.61,-219.55"/>
<polygon fill="#63b8ff" stroke="#63b8ff" points="434.5,-252.17 445.07,-251.48 436.38,-245.43 434.5,-252.17"/>
</a>
</g>
</g>
<!-- Node10&#45;&gt;Node7 -->
<g id="edge14_Node000010_Node000007" class="edge">
<title>Node10&#45;&gt;Node7</title>
<g id="a_edge14_Node000010_Node000007"><a xlink:title=" ">
<path fill="none" stroke="#63b8ff" d="M418.64,-267.78C398.35,-268.09 377.24,-268.4 358.76,-268.68"/>
<polygon fill="#63b8ff" stroke="#63b8ff" points="418.89,-271.28 428.83,-267.63 418.78,-264.28 418.89,-271.28"/>
</a>
</g>
</g>
<!-- Node11&#45;&gt;Node8 -->
<g id="edge17_Node000011_Node000008" class="edge">
<title>Node11&#45;&gt;Node8</title>
<g id="a_edge17_Node000011_Node000008"><a xlink:title=" ">
<path fill="none" stroke="#63b8ff" d="M636.66,-382.66C616.8,-386.88 595.68,-391.36 576.32,-395.47"/>
<polygon fill="#63b8ff" stroke="#63b8ff" points="637.56,-386.05 646.61,-380.55 636.1,-379.2 637.56,-386.05"/>
</a>
</g>
</g>
<!-- Node13&#45;&gt;Node2 -->
<g id="edge20_Node000013_Node000002" class="edge">
<title>Node13&#45;&gt;Node2</title>
<g id="a_edge20_Node000013_Node000002"><a xlink:title=" ">
<path fill="none" stroke="#63b8ff" d="M1028.8,-291.5C1020.16,-291.5 1011.48,-291.5 1003.03,-291.5"/>
<polygon fill="#63b8ff" stroke="#63b8ff" points="1028.91,-295 1038.91,-291.5 1028.91,-288 1028.91,-295"/>
</a>
</g>
</g>
<!-- Node15 -->
<g id="Node000015" class="node">
<title>Node15</title>
<g id="a_Node000015"><a xlink:href="group__OutputFunctions.html#ga3578194a0e7fcca0bb3b023afa33bdec" target="_top" xlink:title="Print results in CSV format with detailed energy components.">
<polygon fill="white" stroke="#666666" points="589.5,-137.5 419.5,-137.5 419.5,-107.5 589.5,-107.5 589.5,-137.5"/>
<text text-anchor="start" x="427.5" y="-125.5" font-family="Helvetica,sans-Serif" font-size="10.00">HighLevelEnergyCalculator</text>
<text text-anchor="middle" x="504.5" y="-114.5" font-family="Helvetica,sans-Serif" font-size="10.00">::print_components_csv_format</text>
</a>
</g>
</g>
<!-- Node14&#45;&gt;Node15 -->
<g id="edge22_Node000014_Node000015" class="edge">
<title>Node14&#45;&gt;Node15</title>
<g id="a_edge22_Node000014_Node000015"><a xlink:title=" ">
<path fill="none" stroke="#63b8ff" d="M641.08,-153.2C618.39,-148.06 593.74,-142.48 571.76,-137.5"/>
<polygon fill="#63b8ff" stroke="#63b8ff" points="640.48,-156.65 651,-155.44 642.02,-149.82 640.48,-156.65"/>
</a>
</g>
</g>
<!-- Node16 -->
<g id="Node000016" class="node">
<title>Node16</title>
<g id="a_Node000016"><a xlink:href="group__DynamicOutputFormatting.html#ga3a4bf6a916d8b341fff654d3f1da54c9" target="_top" xlink:title="Print results in components format with dynamic column widths.">
<polygon fill="white" stroke="#666666" points="579,-41 430,-41 430,0 579,0 579,-41"/>
<text text-anchor="start" x="438" y="-29" font-family="Helvetica,sans-Serif" font-size="10.00">HighLevelEnergyCalculator</text>
<text text-anchor="start" x="438" y="-18" font-family="Helvetica,sans-Serif" font-size="10.00">::print_components_format</text>
<text text-anchor="middle" x="504.5" y="-7" font-family="Helvetica,sans-Serif" font-size="10.00">_dynamic</text>
</a>
</g>
</g>
<!-- Node14&#45;&gt;Node16 -->
<g id="edge24_Node000014_Node000016" class="edge">
<title>Node14&#45;&gt;Node16</title>
<g id="a_edge24_Node000014_Node000016"><a xlink:title=" ">
<path fill="none" stroke="#63b8ff" d="M699.44,-147.32C677.43,-120.51 637.85,-76.73 595,-50.5 589.27,-46.99 583.08,-43.84 576.72,-41.02"/>
<polygon fill="#63b8ff" stroke="#63b8ff" points="696.94,-149.8 705.95,-155.38 702.39,-145.4 696.94,-149.8"/>
</a>
</g>
</g>
<!-- Node18 -->
<g id="Node000018" class="node">
<title>Node18</title>
<g id="a_Node000018"><a xlink:href="group__DynamicOutputFormatting.html#ga932472faa109e17046c43975dfb053fb" target="_top" xlink:title="Print results in components format with static column widths.">
<polygon fill="white" stroke="#666666" points="595,-185.5 414,-185.5 414,-155.5 595,-155.5 595,-185.5"/>
<text text-anchor="start" x="422" y="-173.5" font-family="Helvetica,sans-Serif" font-size="10.00">HighLevelEnergyCalculator</text>
<text text-anchor="middle" x="504.5" y="-162.5" font-family="Helvetica,sans-Serif" font-size="10.00">::print_components_format_static</text>
</a>
</g>
</g>
<!-- Node14&#45;&gt;Node18 -->
<g id="edge27_Node000014_Node000018" class="edge">
<title>Node14&#45;&gt;Node18</title>
<g id="a_edge27_Node000014_Node000018"><a xlink:title=" ">
<path fill="none" stroke="#63b8ff" d="M633.91,-170.5C621.25,-170.5 608.15,-170.5 595.37,-170.5"/>
<polygon fill="#63b8ff" stroke="#63b8ff" points="633.95,-174 643.95,-170.5 633.95,-167 633.95,-174"/>
</a>
</g>
</g>
<!-- Node19 -->
<g id="Node000019" class="node">
<title>Node19</title>
<g id="a_Node000019"><a xlink:href="group__OutputFunctions.html#gacb8b3c91ca4914d5c3bca035e3843ac2" target="_top" xlink:title="Print results in CSV format optimized for Gibbs energies.">
<polygon fill="white" stroke="#666666" points="579,-329.5 430,-329.5 430,-299.5 579,-299.5 579,-329.5"/>
<text text-anchor="start" x="438" y="-317.5" font-family="Helvetica,sans-Serif" font-size="10.00">HighLevelEnergyCalculator</text>
<text text-anchor="middle" x="504.5" y="-306.5" font-family="Helvetica,sans-Serif" font-size="10.00">::print_gibbs_csv_format</text>
</a>
</g>
</g>
<!-- Node14&#45;&gt;Node19 -->
<g id="edge28_Node000014_Node000019" class="edge">
<title>Node14&#45;&gt;Node19</title>
<g id="a_edge28_Node000014_Node000019"><a xlink:title=" ">
<path fill="none" stroke="#63b8ff" d="M689.01,-191.97C671.46,-205.81 648.95,-224.68 631,-243.5 612.84,-262.54 616.87,-275.87 595,-290.5 589.92,-293.9 584.37,-296.82 578.62,-299.32"/>
<polygon fill="#63b8ff" stroke="#63b8ff" points="691.45,-194.51 697.19,-185.6 687.15,-188.98 691.45,-194.51"/>
</a>
</g>
</g>
<!-- Node20 -->
<g id="Node000020" class="node">
<title>Node20</title>
<g id="a_Node000020"><a xlink:href="group__DynamicOutputFormatting.html#ga1b6138e25512b7d0efdca762f53d8c00" target="_top" xlink:title="Print results in Gibbs format with dynamic column widths.">
<polygon fill="white" stroke="#666666" points="585.5,-377.5 423.5,-377.5 423.5,-347.5 585.5,-347.5 585.5,-377.5"/>
<text text-anchor="start" x="431.5" y="-365.5" font-family="Helvetica,sans-Serif" font-size="10.00">HighLevelEnergyCalculator</text>
<text text-anchor="middle" x="504.5" y="-354.5" font-family="Helvetica,sans-Serif" font-size="10.00">::print_gibbs_format_dynamic</text>
</a>
</g>
</g>
<!-- Node14&#45;&gt;Node20 -->
<g id="edge30_Node000014_Node000020" class="edge">
<title>Node14&#45;&gt;Node20</title>
<g id="a_edge30_Node000014_Node000020"><a xlink:title=" ">
<path fill="none" stroke="#63b8ff" d="M685.17,-191.59C667.17,-204.71 645.54,-222.96 631,-243.5 604.91,-280.35 628.49,-308.21 595,-338.5 591.18,-341.95 586.92,-344.92 582.39,-347.46"/>
<polygon fill="#63b8ff" stroke="#63b8ff" points="687.53,-194.21 693.66,-185.57 683.48,-188.5 687.53,-194.21"/>
</a>
</g>
</g>
<!-- Node22 -->
<g id="Node000022" class="node">
<title>Node22</title>
<g id="a_Node000022"><a xlink:href="group__DynamicOutputFormatting.html#ga3a3430c4a259752ea6a75b60cbad38cf" target="_top" xlink:title="Print results in Gibbs format with static column widths.">
<polygon fill="white" stroke="#666666" points="579,-89.5 430,-89.5 430,-59.5 579,-59.5 579,-89.5"/>
<text text-anchor="start" x="438" y="-77.5" font-family="Helvetica,sans-Serif" font-size="10.00">HighLevelEnergyCalculator</text>
<text text-anchor="middle" x="504.5" y="-66.5" font-family="Helvetica,sans-Serif" font-size="10.00">::print_gibbs_format_static</text>
</a>
</g>
</g>
<!-- Node14&#45;&gt;Node22 -->
<g id="edge33_Node000014_Node000022" class="edge">
<title>Node14&#45;&gt;Node22</title>
<g id="a_edge33_Node000014_Node000022"><a xlink:title=" ">
<path fill="none" stroke="#63b8ff" d="M687.52,-149.77C663.42,-133.9 628.23,-112.42 595,-98.5 587.14,-95.21 578.69,-92.25 570.25,-89.63"/>
<polygon fill="#63b8ff" stroke="#63b8ff" points="685.61,-152.7 695.87,-155.34 689.49,-146.88 685.61,-152.7"/>
</a>
</g>
</g>
<!-- Node15&#45;&gt;Node4 -->
<g id="edge23_Node000015_Node000004" class="edge">
<title>Node15&#45;&gt;Node4</title>
<g id="a_edge23_Node000015_Node000004"><a xlink:title=" ">
<path fill="none" stroke="#63b8ff" d="M430.69,-140.53C424.99,-142.4 419.37,-144.39 414,-146.5 383.57,-158.46 350.67,-176.67 328.96,-189.48"/>
<polygon fill="#63b8ff" stroke="#63b8ff" points="431.83,-143.85 440.33,-137.52 429.74,-137.17 431.83,-143.85"/>
</a>
</g>
</g>
<!-- Node16&#45;&gt;Node4 -->
<g id="edge25_Node000016_Node000004" class="edge">
<title>Node16&#45;&gt;Node4</title>
<g id="a_edge25_Node000016_Node000004"><a xlink:title=" ">
<path fill="none" stroke="#63b8ff" d="M420.64,-46C418.35,-47.42 416.13,-48.92 414,-50.5 362.35,-88.8 325.6,-158.72 311.21,-189.4"/>
<polygon fill="#63b8ff" stroke="#63b8ff" points="422.76,-48.82 429.76,-40.87 419.33,-42.72 422.76,-48.82"/>
</a>
</g>
</g>
<!-- Node17 -->
<g id="Node000017" class="node">
<title>Node17</title>
<g id="a_Node000017"><a xlink:href="group__OutputFunctions.html#ga662bddcabe4e2beb2658451fb36e109b" target="_top" xlink:title="Print results with detailed energy component breakdown.">
<polygon fill="white" stroke="#666666" points="378,-35.5 229,-35.5 229,-5.5 378,-5.5 378,-35.5"/>
<text text-anchor="start" x="237" y="-23.5" font-family="Helvetica,sans-Serif" font-size="10.00">HighLevelEnergyCalculator</text>
<text text-anchor="middle" x="303.5" y="-12.5" font-family="Helvetica,sans-Serif" font-size="10.00">::print_components_format</text>
</a>
</g>
</g>
<!-- Node16&#45;&gt;Node17 -->
<g id="edge26_Node000016_Node000017" class="edge">
<title>Node16&#45;&gt;Node17</title>
<g id="a_edge26_Node000016_Node000017"><a xlink:title=" ">
<path fill="none" stroke="#63b8ff" d="M419.93,-20.5C406.03,-20.5 391.7,-20.5 378.06,-20.5"/>
<polygon fill="#63b8ff" stroke="#63b8ff" points="419.97,-24 429.97,-20.5 419.97,-17 419.97,-24"/>
</a>
</g>
</g>
<!-- Node19&#45;&gt;Node7 -->
<g id="edge29_Node000019_Node000007" class="edge">
<title>Node19&#45;&gt;Node7</title>
<g id="a_edge29_Node000019_Node000007"><a xlink:title=" ">
<path fill="none" stroke="#63b8ff" d="M426.98,-297.2C404.22,-292.05 379.77,-286.52 358.74,-281.76"/>
<polygon fill="#63b8ff" stroke="#63b8ff" points="426.43,-300.66 436.96,-299.45 427.98,-293.83 426.43,-300.66"/>
</a>
</g>
</g>
<!-- Node20&#45;&gt;Node7 -->
<g id="edge31_Node000020_Node000007" class="edge">
<title>Node20&#45;&gt;Node7</title>
<g id="a_edge31_Node000020_Node000007"><a xlink:title=" ">
<path fill="none" stroke="#63b8ff" d="M428.53,-344.22C423.56,-342.45 418.67,-340.54 414,-338.5 380.65,-323.92 345.66,-300.16 324.46,-284.68"/>
<polygon fill="#63b8ff" stroke="#63b8ff" points="427.59,-347.59 438.18,-347.45 429.81,-340.95 427.59,-347.59"/>
</a>
</g>
</g>
<!-- Node21 -->
<g id="Node000021" class="node">
<title>Node21</title>
<g id="a_Node000021"><a xlink:href="group__OutputFunctions.html#ga8bd0bcb08333beae561c2b44df59c8a5" target="_top" xlink:title="Print results in Gibbs free energy focused format.">
<polygon fill="white" stroke="#666666" points="378,-377.5 229,-377.5 229,-347.5 378,-347.5 378,-377.5"/>
<text text-anchor="start" x="237" y="-365.5" font-family="Helvetica,sans-Serif" font-size="10.00">HighLevelEnergyCalculator</text>
<text text-anchor="middle" x="303.5" y="-354.5" font-family="Helvetica,sans-Serif" font-size="10.00">::print_gibbs_format</text>
</a>
</g>
</g>
<!-- Node20&#45;&gt;Node21 -->
<g id="edge32_Node000020_Node000021" class="edge">
<title>Node20&#45;&gt;Node21</title>
<g id="a_edge32_Node000020_Node000021"><a xlink:title=" ">
<path fill="none" stroke="#63b8ff" d="M413.21,-362.5C401.53,-362.5 389.67,-362.5 378.3,-362.5"/>
<polygon fill="#63b8ff" stroke="#63b8ff" points="413.42,-366 423.42,-362.5 413.42,-359 413.42,-366"/>
</a>
</g>
</g>
</g>
</svg>

<g id="navigator" transform="translate(0 0)" fill="#404254">
  <rect fill="#f2f5e9" fill-opacity="0.5" stroke="#606060" stroke-width=".5" x="0" y="0" width="60" height="60"/>
  <use id="zoomplus" xlink:href="#zoomPlus" x="17" y="9" onmousedown="handleZoom(evt,'in')"/>
  <use id="zoomminus" xlink:href="#zoomMin" x="42" y="9" onmousedown="handleZoom(evt,'out')"/>
  <use id="reset" xlink:href="#resetDef" x="30" y="36" onmousedown="handleReset()"/>
   <use id="arrowup" xlink:href="#arrowUp" x="0" y="0" onmousedown="handlePan(0,-1)"/>
  <use id="arrowright" xlink:href="#arrowRight" x="0" y="0" onmousedown="handlePan(1,0)"/>
  <use id="arrowdown" xlink:href="#arrowDown" x="0" y="0" onmousedown="handlePan(0,1)"/>
  <use id="arrowleft" xlink:href="#arrowLeft" x="0" y="0" onmousedown="handlePan(-1,0)"/>
</g>
<svg viewBox="0 0 15 15" width="100%" height="30px" preserveAspectRatio="xMaxYMin meet">
 <g id="arrow_out" transform="scale(0.3 0.3)">
  <a xlink:href="group__EnergyExtraction_ga42389d55a3f27a4e7f077a16d956b957_icgraph_org.svg" target="_base">
   <rect id="button" ry="5" rx="5" y="6" x="6" height="38" width="38"
        fill="#f2f5e9" fill-opacity="0.5" stroke="#606060" stroke-width="1.0"/>
   <path id="arrow"
     d="M 11.500037,31.436501 C 11.940474,20.09759 22.043105,11.32322 32.158766,21.979434 L 37.068811,17.246167 C 37.068811,17.246167 37.088388,32 37.088388,32 L 22.160133,31.978069 C 22.160133,31.978069 26.997745,27.140456 26.997745,27.140456 C 18.528582,18.264221 13.291696,25.230495 11.500037,31.436501 z"
     style="fill:#404040;"/>
  </a>
 </g>
</svg>

<style type='text/css'>
<![CDATA[
[data-mouse-over-selected='false'] { opacity: 0.7; }
[data-mouse-over-selected='true']  { opacity: 1.0; }
]]>
</style>
<script type="application/ecmascript"><![CDATA[
document.addEventListener('DOMContentLoaded', (event) => {
  highlightEdges();
  highlightAdjacentNodes();
});
]]></script>
</svg>
