<?xml version="1.0" encoding="UTF-8" standalone="no"?>
<!DOCTYPE svg PUBLIC "-//W3C//DTD SVG 1.1//EN"
 "http://www.w3.org/Graphics/SVG/1.1/DTD/svg11.dtd">
<!-- Generated by graphviz version 2.43.0 (0)
 -->
<!-- Title: HighLevelEnergyCalculator::process_directory Pages: 1 -->
<svg width="939pt" height="488pt"
 viewBox="0.00 0.00 939.00 487.50" xmlns="http://www.w3.org/2000/svg" xmlns:xlink="http://www.w3.org/1999/xlink">
<g id="graph0" class="graph" transform="scale(1 1) rotate(0) translate(4 483.5)">
<title>HighLevelEnergyCalculator::process_directory</title>
<!-- Node1 -->
<g id="Node000001" class="node">
<title>Node1</title>
<g id="a_Node000001"><a xlink:title="Process entire directory of high&#45;level calculations.">
<polygon fill="#999999" stroke="#666666" points="149,-136.5 0,-136.5 0,-106.5 149,-106.5 149,-136.5"/>
<text text-anchor="start" x="8" y="-124.5" font-family="Helvetica,sans-Serif" font-size="10.00">HighLevelEnergyCalculator</text>
<text text-anchor="middle" x="74.5" y="-113.5" font-family="Helvetica,sans-Serif" font-size="10.00">::process_directory</text>
</a>
</g>
</g>
<!-- Node2 -->
<g id="Node000002" class="node">
<title>Node2</title>
<g id="a_Node000002"><a xlink:href="group__MainCalculation.html#gacaba75cc61d8b3ec08efd5976ce4325f" target="_top" xlink:title="Calculate high&#45;level energy for a single file.">
<polygon fill="white" stroke="#666666" points="346,-249.5 185,-249.5 185,-219.5 346,-219.5 346,-249.5"/>
<text text-anchor="start" x="193" y="-237.5" font-family="Helvetica,sans-Serif" font-size="10.00">HighLevelEnergyCalculator</text>
<text text-anchor="middle" x="265.5" y="-226.5" font-family="Helvetica,sans-Serif" font-size="10.00">::calculate_high_level_energy</text>
</a>
</g>
</g>
<!-- Node1&#45;&gt;Node2 -->
<g id="edge1_Node000001_Node000002" class="edge">
<title>Node1&#45;&gt;Node2</title>
<g id="a_edge1_Node000001_Node000002"><a xlink:title=" ">
<path fill="none" stroke="#63b8ff" d="M100.6,-136.51C133.92,-156.43 192.91,-191.7 230.29,-214.05"/>
<polygon fill="#63b8ff" stroke="#63b8ff" points="228.92,-217.3 239.3,-219.43 232.51,-211.3 228.92,-217.3"/>
</a>
</g>
</g>
<!-- Node21 -->
<g id="Node000021" class="node">
<title>Node21</title>
<g id="a_Node000021"><a xlink:href="group__MemoryMonitorImpl.html#ga9a325bd1793b5dc5e9490383802ad169" target="_top" xlink:title=" ">
<polygon fill="white" stroke="#666666" points="302.5,-110 228.5,-110 228.5,-91 302.5,-91 302.5,-110"/>
<text text-anchor="middle" x="265.5" y="-98" font-family="Helvetica,sans-Serif" font-size="10.00">findLogFiles</text>
</a>
</g>
</g>
<!-- Node1&#45;&gt;Node21 -->
<g id="edge24_Node000001_Node000021" class="edge">
<title>Node1&#45;&gt;Node21</title>
<g id="a_edge24_Node000001_Node000021"><a xlink:title=" ">
<path fill="none" stroke="#63b8ff" d="M149.11,-113.32C172.34,-110.74 197.35,-107.96 218.12,-105.65"/>
<polygon fill="#63b8ff" stroke="#63b8ff" points="218.71,-109.11 228.26,-104.53 217.93,-102.15 218.71,-109.11"/>
</a>
</g>
</g>
<!-- Node3 -->
<g id="Node000003" class="node">
<title>Node3</title>
<g id="a_Node000003"><a xlink:href="group__CalculationHelpers.html#ga77837f5437ca34aa38ba7c9518d85480" target="_top" xlink:title="Calculate phase correction for concentration effects.">
<polygon fill="white" stroke="#666666" points="549,-431.5 394,-431.5 394,-401.5 549,-401.5 549,-431.5"/>
<text text-anchor="start" x="402" y="-419.5" font-family="Helvetica,sans-Serif" font-size="10.00">HighLevelEnergyCalculator</text>
<text text-anchor="middle" x="471.5" y="-408.5" font-family="Helvetica,sans-Serif" font-size="10.00">::calculate_phase_correction</text>
</a>
</g>
</g>
<!-- Node2&#45;&gt;Node3 -->
<g id="edge2_Node000002_Node000003" class="edge">
<title>Node2&#45;&gt;Node3</title>
<g id="a_edge2_Node000002_Node000003"><a xlink:title=" ">
<path fill="none" stroke="#63b8ff" d="M273.29,-249.77C288.18,-281.46 326.84,-354.58 382,-392.5 384.26,-394.05 386.61,-395.51 389.04,-396.86"/>
<polygon fill="#63b8ff" stroke="#63b8ff" points="387.61,-400.06 398.12,-401.38 390.73,-393.79 387.61,-400.06"/>
</a>
</g>
</g>
<!-- Node4 -->
<g id="Node000004" class="node">
<title>Node4</title>
<g id="a_Node000004"><a xlink:href="group__CalculationHelpers.html#ga375d0ec0aea5fde065c700c0d4ef8a62" target="_top" xlink:title="Calculate thermal correction excluding zero&#45;point energy.">
<polygon fill="white" stroke="#666666" points="546,-383.5 397,-383.5 397,-353.5 546,-353.5 546,-383.5"/>
<text text-anchor="start" x="405" y="-371.5" font-family="Helvetica,sans-Serif" font-size="10.00">HighLevelEnergyCalculator</text>
<text text-anchor="middle" x="471.5" y="-360.5" font-family="Helvetica,sans-Serif" font-size="10.00">::calculate_thermal_only</text>
</a>
</g>
</g>
<!-- Node2&#45;&gt;Node4 -->
<g id="edge3_Node000002_Node000004" class="edge">
<title>Node2&#45;&gt;Node4</title>
<g id="a_edge3_Node000002_Node000004"><a xlink:title=" ">
<path fill="none" stroke="#63b8ff" d="M278.23,-249.78C297.36,-273.61 337.61,-319.5 382,-344.5 385.24,-346.33 388.63,-348.02 392.11,-349.59"/>
<polygon fill="#63b8ff" stroke="#63b8ff" points="390.92,-352.88 401.5,-353.46 393.59,-346.41 390.92,-352.88"/>
</a>
</g>
</g>
<!-- Node5 -->
<g id="Node000005" class="node">
<title>Node5</title>
<g id="a_Node000005"><a xlink:href="group__CalculationHelpers.html#ga94758e5fb907b423285c3b2c2ba8ee97" target="_top" xlink:title="Determine job completion status from log file.">
<polygon fill="white" stroke="#666666" points="546,-335.5 397,-335.5 397,-305.5 546,-305.5 546,-335.5"/>
<text text-anchor="start" x="405" y="-323.5" font-family="Helvetica,sans-Serif" font-size="10.00">HighLevelEnergyCalculator</text>
<text text-anchor="middle" x="471.5" y="-312.5" font-family="Helvetica,sans-Serif" font-size="10.00">::determine_job_status</text>
</a>
</g>
</g>
<!-- Node2&#45;&gt;Node5 -->
<g id="edge4_Node000002_Node000005" class="edge">
<title>Node2&#45;&gt;Node5</title>
<g id="a_edge4_Node000002_Node000005"><a xlink:title=" ">
<path fill="none" stroke="#63b8ff" d="M294.47,-249.7C317.54,-261.9 351.36,-278.99 382,-291.5 391.21,-295.26 401.1,-298.88 410.81,-302.22"/>
<polygon fill="#63b8ff" stroke="#63b8ff" points="409.84,-305.59 420.44,-305.46 412.07,-298.96 409.84,-305.59"/>
</a>
</g>
</g>
<!-- Node8 -->
<g id="Node000008" class="node">
<title>Node8</title>
<g id="a_Node000008"><a xlink:href="group__EnergyExtraction.html#gaa64c4afe3577a5e147f0c3837d10a021" target="_top" xlink:title="Extract thermal correction data from low&#45;level calculation.">
<polygon fill="white" stroke="#666666" points="561,-201.5 382,-201.5 382,-171.5 561,-171.5 561,-201.5"/>
<text text-anchor="start" x="390" y="-189.5" font-family="Helvetica,sans-Serif" font-size="10.00">HighLevelEnergyCalculator</text>
<text text-anchor="middle" x="471.5" y="-178.5" font-family="Helvetica,sans-Serif" font-size="10.00">::extract_low_level_thermal_data</text>
</a>
</g>
</g>
<!-- Node2&#45;&gt;Node8 -->
<g id="edge7_Node000002_Node000008" class="edge">
<title>Node2&#45;&gt;Node8</title>
<g id="a_edge7_Node000002_Node000008"><a xlink:title=" ">
<path fill="none" stroke="#63b8ff" d="M330.49,-219.44C351.56,-214.49 375.17,-208.93 396.9,-203.82"/>
<polygon fill="#63b8ff" stroke="#63b8ff" points="397.81,-207.2 406.74,-201.5 396.2,-200.39 397.81,-207.2"/>
</a>
</g>
</g>
<!-- Node9 -->
<g id="Node000009" class="node">
<title>Node9</title>
<g id="a_Node000009"><a xlink:href="group__EnergyExtraction.html#ga42389d55a3f27a4e7f077a16d956b957" target="_top" xlink:title="Extract specific energy value from log file using pattern matching.">
<polygon fill="white" stroke="#666666" points="746,-105.5 597,-105.5 597,-75.5 746,-75.5 746,-105.5"/>
<text text-anchor="start" x="605" y="-93.5" font-family="Helvetica,sans-Serif" font-size="10.00">HighLevelEnergyCalculator</text>
<text text-anchor="middle" x="671.5" y="-82.5" font-family="Helvetica,sans-Serif" font-size="10.00">::extract_value_from_file</text>
</a>
</g>
</g>
<!-- Node2&#45;&gt;Node9 -->
<g id="edge19_Node000002_Node000009" class="edge">
<title>Node2&#45;&gt;Node9</title>
<g id="a_edge19_Node000002_Node000009"><a xlink:title=" ">
<path fill="none" stroke="#63b8ff" d="M285.8,-219.5C307.86,-203.09 345.62,-177.17 382,-162.5 457.43,-132.08 482.3,-145.02 561,-124.5 578.87,-119.84 598.17,-114.09 615.52,-108.65"/>
<polygon fill="#63b8ff" stroke="#63b8ff" points="617.01,-111.86 625.48,-105.5 614.89,-105.18 617.01,-111.86"/>
</a>
</g>
</g>
<!-- Node14 -->
<g id="Node000014" class="node">
<title>Node14</title>
<g id="a_Node000014"><a xlink:href="group__CalculationHelpers.html#ga32a761d03cac358dbe6d17dccf3c3ec3" target="_top" xlink:title="Extract lowest vibrational frequency from parent file.">
<polygon fill="white" stroke="#666666" points="546,-249.5 397,-249.5 397,-219.5 546,-219.5 546,-249.5"/>
<text text-anchor="start" x="405" y="-237.5" font-family="Helvetica,sans-Serif" font-size="10.00">HighLevelEnergyCalculator</text>
<text text-anchor="middle" x="471.5" y="-226.5" font-family="Helvetica,sans-Serif" font-size="10.00">::extract_lowest_frequency</text>
</a>
</g>
</g>
<!-- Node2&#45;&gt;Node14 -->
<g id="edge14_Node000002_Node000014" class="edge">
<title>Node2&#45;&gt;Node14</title>
<g id="a_edge14_Node000002_Node000014"><a xlink:title=" ">
<path fill="none" stroke="#63b8ff" d="M346.25,-234.5C359.52,-234.5 373.31,-234.5 386.68,-234.5"/>
<polygon fill="#63b8ff" stroke="#63b8ff" points="386.8,-238 396.8,-234.5 386.8,-231 386.8,-238"/>
</a>
</g>
</g>
<!-- Node17 -->
<g id="Node000017" class="node">
<title>Node17</title>
<g id="a_Node000017"><a xlink:href="group__FileUtilities.html#ga6dd8fb2393bb29704be0e92003989e45" target="_top" xlink:title="Read complete file content.">
<polygon fill="white" stroke="#666666" points="746,-345.5 597,-345.5 597,-315.5 746,-315.5 746,-345.5"/>
<text text-anchor="start" x="605" y="-333.5" font-family="Helvetica,sans-Serif" font-size="10.00">HighLevelEnergyCalculator</text>
<text text-anchor="middle" x="671.5" y="-322.5" font-family="Helvetica,sans-Serif" font-size="10.00">::read_file_content</text>
</a>
</g>
</g>
<!-- Node2&#45;&gt;Node17 -->
<g id="edge21_Node000002_Node000017" class="edge">
<title>Node2&#45;&gt;Node17</title>
<g id="a_edge21_Node000002_Node000017"><a xlink:title=" ">
<path fill="none" stroke="#63b8ff" d="M338.77,-249.54C422.42,-266.97 550.19,-293.69 561,-296.5 578.88,-301.15 598.18,-306.89 615.53,-312.33"/>
<polygon fill="#63b8ff" stroke="#63b8ff" points="614.9,-315.8 625.49,-315.48 617.01,-309.13 614.9,-315.8"/>
</a>
</g>
</g>
<!-- Node18 -->
<g id="Node000018" class="node">
<title>Node18</title>
<g id="a_Node000018"><a xlink:href="group__FileUtilities.html#ga181c65f6b55859249f23a68e2f64f4bf" target="_top" xlink:title="Get corresponding parent directory file path.">
<polygon fill="white" stroke="#666666" points="546,-115.5 397,-115.5 397,-85.5 546,-85.5 546,-115.5"/>
<text text-anchor="start" x="405" y="-103.5" font-family="Helvetica,sans-Serif" font-size="10.00">HighLevelEnergyCalculator</text>
<text text-anchor="middle" x="471.5" y="-92.5" font-family="Helvetica,sans-Serif" font-size="10.00">::get_parent_file</text>
</a>
</g>
</g>
<!-- Node2&#45;&gt;Node18 -->
<g id="edge20_Node000002_Node000018" class="edge">
<title>Node2&#45;&gt;Node18</title>
<g id="a_edge20_Node000002_Node000018"><a xlink:title=" ">
<path fill="none" stroke="#63b8ff" d="M279.19,-219.47C298.98,-196.92 339.38,-154.32 382,-129.5 388.44,-125.75 395.42,-122.42 402.55,-119.46"/>
<polygon fill="#63b8ff" stroke="#63b8ff" points="404.27,-122.55 412.32,-115.67 401.73,-116.02 404.27,-122.55"/>
</a>
</g>
</g>
<!-- Node19 -->
<g id="Node000019" class="node">
<title>Node19</title>
<g id="a_Node000019"><a xlink:href="group__SafetyHelpers.html#ga1ecdc84dce43277ebe3c068b66d2836a" target="_top" xlink:title="Safe file reading with memory and handle management.">
<polygon fill="white" stroke="#666666" points="546,-67.5 397,-67.5 397,-37.5 546,-37.5 546,-67.5"/>
<text text-anchor="start" x="405" y="-55.5" font-family="Helvetica,sans-Serif" font-size="10.00">HighLevelEnergyCalculator</text>
<text text-anchor="middle" x="471.5" y="-44.5" font-family="Helvetica,sans-Serif" font-size="10.00">::safe_read_file</text>
</a>
</g>
</g>
<!-- Node2&#45;&gt;Node19 -->
<g id="edge22_Node000002_Node000019" class="edge">
<title>Node2&#45;&gt;Node19</title>
<g id="a_edge22_Node000002_Node000019"><a xlink:title=" ">
<path fill="none" stroke="#63b8ff" d="M276.72,-219.36C302.22,-181.75 367.65,-86.36 382,-76.5 384.26,-74.95 386.61,-73.49 389.04,-72.14"/>
<polygon fill="#63b8ff" stroke="#63b8ff" points="390.73,-75.21 398.12,-67.62 387.61,-68.94 390.73,-75.21"/>
</a>
</g>
</g>
<!-- Node20 -->
<g id="Node000020" class="node">
<title>Node20</title>
<g id="a_Node000020"><a xlink:href="group__ValidationUtils.html#gabe3d651ced16adc942b77bd92be3116a" target="_top" xlink:title="Validate complete energy data structure for consistency.">
<polygon fill="white" stroke="#666666" points="535.5,-479.5 407.5,-479.5 407.5,-449.5 535.5,-449.5 535.5,-479.5"/>
<text text-anchor="start" x="415.5" y="-467.5" font-family="Helvetica,sans-Serif" font-size="10.00">HighLevelEnergyUtils</text>
<text text-anchor="middle" x="471.5" y="-456.5" font-family="Helvetica,sans-Serif" font-size="10.00">::validate_energy_data</text>
</a>
</g>
</g>
<!-- Node2&#45;&gt;Node20 -->
<g id="edge23_Node000002_Node000020" class="edge">
<title>Node2&#45;&gt;Node20</title>
<g id="a_edge23_Node000002_Node000020"><a xlink:title=" ">
<path fill="none" stroke="#63b8ff" d="M270.53,-249.62C281.53,-287.81 315.72,-388.81 382,-440.5 386.74,-444.2 392.02,-447.33 397.56,-449.98"/>
<polygon fill="#63b8ff" stroke="#63b8ff" points="396.52,-453.34 407.09,-454 399.24,-446.89 396.52,-453.34"/>
</a>
</g>
</g>
<!-- Node6 -->
<g id="Node000006" class="node">
<title>Node6</title>
<g id="a_Node000006"><a xlink:href="group__FileUtilities.html#ga013cf7e36016b0531852c469c9bc98b7" target="_top" xlink:title="Read last N lines from file.">
<polygon fill="white" stroke="#666666" points="746,-393.5 597,-393.5 597,-363.5 746,-363.5 746,-393.5"/>
<text text-anchor="start" x="605" y="-381.5" font-family="Helvetica,sans-Serif" font-size="10.00">HighLevelEnergyCalculator</text>
<text text-anchor="middle" x="671.5" y="-370.5" font-family="Helvetica,sans-Serif" font-size="10.00">::read_file_tail</text>
</a>
</g>
</g>
<!-- Node5&#45;&gt;Node6 -->
<g id="edge5_Node000005_Node000006" class="edge">
<title>Node5&#45;&gt;Node6</title>
<g id="a_edge5_Node000005_Node000006"><a xlink:title=" ">
<path fill="none" stroke="#63b8ff" d="M529.24,-335.56C539.82,-338.46 550.76,-341.52 561,-344.5 578.18,-349.49 596.79,-355.17 613.71,-360.44"/>
<polygon fill="#63b8ff" stroke="#63b8ff" points="612.86,-363.84 623.45,-363.48 614.95,-357.16 612.86,-363.84"/>
</a>
</g>
</g>
<!-- Node7 -->
<g id="Node000007" class="node">
<title>Node7</title>
<g id="a_Node000007"><a xlink:href="classFileContentCache.html#affecb88aac28ec372fe984ab6ec0279c" target="_top" xlink:title=" ">
<polygon fill="white" stroke="#666666" points="918.5,-345.5 794.5,-345.5 794.5,-315.5 918.5,-315.5 918.5,-345.5"/>
<text text-anchor="start" x="802.5" y="-333.5" font-family="Helvetica,sans-Serif" font-size="10.00">FileContentCache::get</text>
<text text-anchor="middle" x="856.5" y="-322.5" font-family="Helvetica,sans-Serif" font-size="10.00">_or_read</text>
</a>
</g>
</g>
<!-- Node6&#45;&gt;Node7 -->
<g id="edge6_Node000006_Node000007" class="edge">
<title>Node6&#45;&gt;Node7</title>
<g id="a_edge6_Node000006_Node000007"><a xlink:title=" ">
<path fill="none" stroke="#63b8ff" d="M729.9,-363.44C748.47,-358.57 769.22,-353.13 788.42,-348.09"/>
<polygon fill="#63b8ff" stroke="#63b8ff" points="789.52,-351.43 798.3,-345.5 787.74,-344.65 789.52,-351.43"/>
</a>
</g>
</g>
<!-- Node8&#45;&gt;Node9 -->
<g id="edge8_Node000008_Node000009" class="edge">
<title>Node8&#45;&gt;Node9</title>
<g id="a_edge8_Node000008_Node000009"><a xlink:title=" ">
<path fill="none" stroke="#63b8ff" d="M533.64,-171.46C543.23,-167.72 552.7,-163.12 561,-157.5 581.64,-143.53 576.35,-128.46 597,-114.5 599.27,-112.97 601.64,-111.53 604.09,-110.17"/>
<polygon fill="#63b8ff" stroke="#63b8ff" points="605.81,-113.22 613.21,-105.64 602.7,-106.95 605.81,-113.22"/>
</a>
</g>
</g>
<!-- Node12 -->
<g id="Node000012" class="node">
<title>Node12</title>
<g id="a_Node000012"><a xlink:href="group__FileUtilities.html#gaa54ff385e8b08bff4fc34ec915a3ff8d" target="_top" xlink:title="Check if file exists and is accessible.">
<polygon fill="white" stroke="#666666" points="746,-153.5 597,-153.5 597,-123.5 746,-123.5 746,-153.5"/>
<text text-anchor="start" x="605" y="-141.5" font-family="Helvetica,sans-Serif" font-size="10.00">HighLevelEnergyCalculator</text>
<text text-anchor="middle" x="671.5" y="-130.5" font-family="Helvetica,sans-Serif" font-size="10.00">::file_exists</text>
</a>
</g>
</g>
<!-- Node8&#45;&gt;Node12 -->
<g id="edge12_Node000008_Node000012" class="edge">
<title>Node8&#45;&gt;Node12</title>
<g id="a_edge12_Node000008_Node000012"><a xlink:title=" ">
<path fill="none" stroke="#63b8ff" d="M534.61,-171.44C554.97,-166.51 577.76,-160.98 598.78,-155.89"/>
<polygon fill="#63b8ff" stroke="#63b8ff" points="599.72,-159.26 608.62,-153.5 598.07,-152.46 599.72,-159.26"/>
</a>
</g>
</g>
<!-- Node13 -->
<g id="Node000013" class="node">
<title>Node13</title>
<g id="a_Node000013"><a xlink:href="group__ValidationUtils.html#gad41dd357e75a3c0219b5ed3a6b964aa6" target="_top" xlink:title="Validate temperature value for physical reasonableness.">
<polygon fill="white" stroke="#666666" points="735.5,-201.5 607.5,-201.5 607.5,-171.5 735.5,-171.5 735.5,-201.5"/>
<text text-anchor="start" x="615.5" y="-189.5" font-family="Helvetica,sans-Serif" font-size="10.00">HighLevelEnergyUtils</text>
<text text-anchor="middle" x="671.5" y="-178.5" font-family="Helvetica,sans-Serif" font-size="10.00">::validate_temperature</text>
</a>
</g>
</g>
<!-- Node8&#45;&gt;Node13 -->
<g id="edge13_Node000008_Node000013" class="edge">
<title>Node8&#45;&gt;Node13</title>
<g id="a_edge13_Node000008_Node000013"><a xlink:title=" ">
<path fill="none" stroke="#63b8ff" d="M561.08,-186.5C573.18,-186.5 585.5,-186.5 597.29,-186.5"/>
<polygon fill="#63b8ff" stroke="#63b8ff" points="597.49,-190 607.49,-186.5 597.49,-183 597.49,-190"/>
</a>
</g>
</g>
<!-- Node9&#45;&gt;Node7 -->
<g id="edge10_Node000009_Node000007" class="edge">
<title>Node9&#45;&gt;Node7</title>
<g id="a_edge10_Node000009_Node000007"><a xlink:title=" ">
<path fill="none" stroke="#63b8ff" d="M732.83,-105.65C737.56,-108.17 742.03,-111.09 746,-114.5 806.88,-166.68 837.82,-260.99 849.65,-305.7"/>
<polygon fill="#63b8ff" stroke="#63b8ff" points="846.27,-306.62 852.13,-315.45 853.05,-304.9 846.27,-306.62"/>
</a>
</g>
</g>
<!-- Node10 -->
<g id="Node000010" class="node">
<title>Node10</title>
<g id="a_Node000010"><a xlink:href="structRegexPatterns.html#aeb75344b6b563c17108dbfaf60f486cc" target="_top" xlink:title=" ">
<polygon fill="white" stroke="#666666" points="911,-129.5 802,-129.5 802,-99.5 911,-99.5 911,-129.5"/>
<text text-anchor="start" x="810" y="-117.5" font-family="Helvetica,sans-Serif" font-size="10.00">RegexPatterns::get</text>
<text text-anchor="middle" x="856.5" y="-106.5" font-family="Helvetica,sans-Serif" font-size="10.00">_instance</text>
</a>
</g>
</g>
<!-- Node9&#45;&gt;Node10 -->
<g id="edge9_Node000009_Node000010" class="edge">
<title>Node9&#45;&gt;Node10</title>
<g id="a_edge9_Node000009_Node000010"><a xlink:title=" ">
<path fill="none" stroke="#63b8ff" d="M746.14,-100.16C761.31,-102.15 777.17,-104.23 791.94,-106.16"/>
<polygon fill="#63b8ff" stroke="#63b8ff" points="791.61,-109.65 801.98,-107.48 792.52,-102.71 791.61,-109.65"/>
</a>
</g>
</g>
<!-- Node11 -->
<g id="Node000011" class="node">
<title>Node11</title>
<g id="a_Node000011"><a xlink:href="group__SafetyHelpers.html#gaf25036f89725288871b9d856ca5f76ba" target="_top" xlink:title="Safe energy value parsing with validation.">
<polygon fill="white" stroke="#666666" points="931,-81.5 782,-81.5 782,-51.5 931,-51.5 931,-81.5"/>
<text text-anchor="start" x="790" y="-69.5" font-family="Helvetica,sans-Serif" font-size="10.00">HighLevelEnergyCalculator</text>
<text text-anchor="middle" x="856.5" y="-58.5" font-family="Helvetica,sans-Serif" font-size="10.00">::safe_parse_energy</text>
</a>
</g>
</g>
<!-- Node9&#45;&gt;Node11 -->
<g id="edge11_Node000009_Node000011" class="edge">
<title>Node9&#45;&gt;Node11</title>
<g id="a_edge11_Node000009_Node000011"><a xlink:title=" ">
<path fill="none" stroke="#63b8ff" d="M746.14,-80.84C754.57,-79.74 763.2,-78.61 771.74,-77.48"/>
<polygon fill="#63b8ff" stroke="#63b8ff" points="772.25,-80.95 781.71,-76.18 771.34,-74.01 772.25,-80.95"/>
</a>
</g>
</g>
<!-- Node15 -->
<g id="Node000015" class="node">
<title>Node15</title>
<g id="a_Node000015"><a xlink:href="group__EnergyParsingUtils.html#ga95f6c769f275d3b7659d6f379b106b51" target="_top" xlink:title="Extract all vibrational frequencies from log file content.">
<polygon fill="white" stroke="#666666" points="732.5,-249.5 610.5,-249.5 610.5,-219.5 732.5,-219.5 732.5,-249.5"/>
<text text-anchor="start" x="618.5" y="-237.5" font-family="Helvetica,sans-Serif" font-size="10.00">HighLevelEnergyUtils</text>
<text text-anchor="middle" x="671.5" y="-226.5" font-family="Helvetica,sans-Serif" font-size="10.00">::extract_frequencies</text>
</a>
</g>
</g>
<!-- Node14&#45;&gt;Node15 -->
<g id="edge15_Node000014_Node000015" class="edge">
<title>Node14&#45;&gt;Node15</title>
<g id="a_edge15_Node000014_Node000015"><a xlink:title=" ">
<path fill="none" stroke="#63b8ff" d="M546.23,-234.5C563.87,-234.5 582.67,-234.5 600.16,-234.5"/>
<polygon fill="#63b8ff" stroke="#63b8ff" points="600.29,-238 610.29,-234.5 600.29,-231 600.29,-238"/>
</a>
</g>
</g>
<!-- Node16 -->
<g id="Node000016" class="node">
<title>Node16</title>
<g id="a_Node000016"><a xlink:href="group__EnergyParsingUtils.html#gaf1573e500ba7a88a65e5ccf978c00621" target="_top" xlink:title="Find lowest frequency from frequency list.">
<polygon fill="white" stroke="#666666" points="737.5,-297.5 605.5,-297.5 605.5,-267.5 737.5,-267.5 737.5,-297.5"/>
<text text-anchor="start" x="613.5" y="-285.5" font-family="Helvetica,sans-Serif" font-size="10.00">HighLevelEnergyUtils</text>
<text text-anchor="middle" x="671.5" y="-274.5" font-family="Helvetica,sans-Serif" font-size="10.00">::find_lowest_frequency</text>
</a>
</g>
</g>
<!-- Node14&#45;&gt;Node16 -->
<g id="edge16_Node000014_Node000016" class="edge">
<title>Node14&#45;&gt;Node16</title>
<g id="a_edge16_Node000014_Node000016"><a xlink:title=" ">
<path fill="none" stroke="#63b8ff" d="M534.61,-249.56C554.97,-254.49 577.76,-260.02 598.78,-265.11"/>
<polygon fill="#63b8ff" stroke="#63b8ff" points="598.07,-268.54 608.62,-267.5 599.72,-261.74 598.07,-268.54"/>
</a>
</g>
</g>
<!-- Node14&#45;&gt;Node17 -->
<g id="edge17_Node000014_Node000017" class="edge">
<title>Node14&#45;&gt;Node17</title>
<g id="a_edge17_Node000014_Node000017"><a xlink:title=" ">
<path fill="none" stroke="#63b8ff" d="M533.64,-249.54C543.23,-253.28 552.7,-257.88 561,-263.5 581.64,-277.47 576.35,-292.54 597,-306.5 599.27,-308.03 601.64,-309.47 604.09,-310.83"/>
<polygon fill="#63b8ff" stroke="#63b8ff" points="602.7,-314.05 613.21,-315.36 605.81,-307.78 602.7,-314.05"/>
</a>
</g>
</g>
<!-- Node17&#45;&gt;Node7 -->
<g id="edge18_Node000017_Node000007" class="edge">
<title>Node17&#45;&gt;Node7</title>
<g id="a_edge18_Node000017_Node000007"><a xlink:title=" ">
<path fill="none" stroke="#63b8ff" d="M746.14,-330.5C758.63,-330.5 771.59,-330.5 784.02,-330.5"/>
<polygon fill="#63b8ff" stroke="#63b8ff" points="784.33,-334 794.33,-330.5 784.33,-327 784.33,-334"/>
</a>
</g>
</g>
<!-- Node22 -->
<g id="Node000022" class="node">
<title>Node22</title>
<g id="a_Node000022"><a xlink:href="group__MemoryMonitorImpl.html#ga92b44bc7f664ca63d4213f46ecc7714f" target="_top" xlink:title="Find all Gaussian log files in the current directory.">
<polygon fill="white" stroke="#666666" points="508.5,-19 434.5,-19 434.5,0 508.5,0 508.5,-19"/>
<text text-anchor="middle" x="471.5" y="-7" font-family="Helvetica,sans-Serif" font-size="10.00">findLogFiles</text>
</a>
</g>
</g>
<!-- Node21&#45;&gt;Node22 -->
<g id="edge25_Node000021_Node000022" class="edge">
<title>Node21&#45;&gt;Node22</title>
<g id="a_edge25_Node000021_Node000022"><a xlink:title=" ">
<path fill="none" stroke="#63b8ff" d="M278.55,-90.99C298.75,-75.52 341.26,-44.98 382,-28.5 395.36,-23.09 410.51,-19.12 424.45,-16.25"/>
<polygon fill="#63b8ff" stroke="#63b8ff" points="425.19,-19.67 434.35,-14.35 423.87,-12.8 425.19,-19.67"/>
</a>
</g>
</g>
</g>
</svg>
