<?xml version="1.0" encoding="UTF-8" standalone="no"?>
<!DOCTYPE svg PUBLIC "-//W3C//DTD SVG 1.1//EN"
 "http://www.w3.org/Graphics/SVG/1.1/DTD/svg11.dtd">
<!-- Generated by graphviz version 2.43.0 (0)
 -->
<!-- Title: HighLevelEnergyUtils::get_current_directory_name Pages: 1 -->
<svg width="543pt" height="86pt"
 viewBox="0.00 0.00 543.00 86.00" xmlns="http://www.w3.org/2000/svg" xmlns:xlink="http://www.w3.org/1999/xlink">
<g id="graph0" class="graph" transform="scale(1 1) rotate(0) translate(4 82)">
<title>HighLevelEnergyUtils::get_current_directory_name</title>
<!-- Node1 -->
<g id="Node000001" class="node">
<title>Node1</title>
<g id="a_Node000001"><a xlink:title="Find all log files in specified directory.">
<polygon fill="#999999" stroke="#666666" points="535,-54 375,-54 375,-24 535,-24 535,-54"/>
<text text-anchor="start" x="383" y="-42" font-family="Helvetica,sans-Serif" font-size="10.00">HighLevelEnergyUtils</text>
<text text-anchor="middle" x="455" y="-31" font-family="Helvetica,sans-Serif" font-size="10.00">::get_current_directory_name</text>
</a>
</g>
</g>
<!-- Node2 -->
<g id="Node000002" class="node">
<title>Node2</title>
<g id="a_Node000002"><a xlink:href="group__ModuleExecutors.html#gab1aa2594a8bb3d2789d37593f69cbc5e" target="_top" xlink:title=" ">
<polygon fill="white" stroke="#666666" points="339,-78 229,-78 229,-48 339,-48 339,-78"/>
<text text-anchor="start" x="237" y="-66" font-family="Helvetica,sans-Serif" font-size="10.00">execute_high_level</text>
<text text-anchor="middle" x="284" y="-55" font-family="Helvetica,sans-Serif" font-size="10.00">_au_command</text>
</a>
</g>
</g>
<!-- Node1&#45;&gt;Node2 -->
<g id="edge1_Node000001_Node000002" class="edge">
<title>Node1&#45;&gt;Node2</title>
<g id="a_edge1_Node000001_Node000002"><a xlink:title=" ">
<path fill="none" stroke="#63b8ff" d="M364.78,-51.67C356.13,-52.9 347.55,-54.12 339.4,-55.27"/>
<polygon fill="#63b8ff" stroke="#63b8ff" points="365.53,-55.1 374.94,-50.23 364.55,-48.17 365.53,-55.1"/>
</a>
</g>
</g>
<!-- Node5 -->
<g id="Node000005" class="node">
<title>Node5</title>
<g id="a_Node000005"><a xlink:href="group__ModuleExecutors.html#gaefd8d559f7f798aaf8cb5f6feb9dce47" target="_top" xlink:title=" ">
<polygon fill="white" stroke="#666666" points="339,-30 229,-30 229,0 339,0 339,-30"/>
<text text-anchor="start" x="237" y="-18" font-family="Helvetica,sans-Serif" font-size="10.00">execute_high_level</text>
<text text-anchor="middle" x="284" y="-7" font-family="Helvetica,sans-Serif" font-size="10.00">_kj_command</text>
</a>
</g>
</g>
<!-- Node1&#45;&gt;Node5 -->
<g id="edge5_Node000001_Node000005" class="edge">
<title>Node1&#45;&gt;Node5</title>
<g id="a_edge5_Node000001_Node000005"><a xlink:title=" ">
<path fill="none" stroke="#63b8ff" d="M364.78,-26.33C356.13,-25.1 347.55,-23.88 339.4,-22.73"/>
<polygon fill="#63b8ff" stroke="#63b8ff" points="364.55,-29.83 374.94,-27.77 365.53,-22.9 364.55,-29.83"/>
</a>
</g>
</g>
<!-- Node3 -->
<g id="Node000003" class="node">
<title>Node3</title>
<g id="a_Node000003"><a xlink:href="main_8cpp.html#a0ddf1224851353fc92bfbff6f499fa97" target="_top" xlink:title="Main entry point for the Gaussian Extractor application.">
<polygon fill="white" stroke="#666666" points="41,-48.5 0,-48.5 0,-29.5 41,-29.5 41,-48.5"/>
<text text-anchor="middle" x="20.5" y="-36.5" font-family="Helvetica,sans-Serif" font-size="10.00">main</text>
</a>
</g>
</g>
<!-- Node2&#45;&gt;Node3 -->
<g id="edge2_Node000002_Node000003" class="edge">
<title>Node2&#45;&gt;Node3</title>
<g id="a_edge2_Node000002_Node000003"><a xlink:title=" ">
<path fill="none" stroke="#63b8ff" d="M218.66,-66.45C177.78,-67.41 123.91,-66.39 77,-58 64.77,-55.81 51.59,-51.39 41.15,-47.37"/>
<polygon fill="#63b8ff" stroke="#63b8ff" points="218.87,-69.94 228.77,-66.16 218.67,-62.94 218.87,-69.94"/>
</a>
</g>
</g>
<!-- Node4 -->
<g id="Node000004" class="node">
<title>Node4</title>
<g id="a_Node000004"><a xlink:href="interactive__mode_8cpp.html#a6b615c34054150d837dc45ed1c17b297" target="_top" xlink:title="Enhanced interactive command loop with TAB completion for Windows.">
<polygon fill="white" stroke="#666666" points="193,-48.5 77,-48.5 77,-29.5 193,-29.5 193,-48.5"/>
<text text-anchor="middle" x="135" y="-36.5" font-family="Helvetica,sans-Serif" font-size="10.00">run_interactive_loop</text>
</a>
</g>
</g>
<!-- Node2&#45;&gt;Node4 -->
<g id="edge3_Node000002_Node000004" class="edge">
<title>Node2&#45;&gt;Node4</title>
<g id="a_edge3_Node000002_Node000004"><a xlink:title=" ">
<path fill="none" stroke="#63b8ff" d="M218.75,-52.51C210.19,-51.11 201.47,-49.69 193.05,-48.31"/>
<polygon fill="#63b8ff" stroke="#63b8ff" points="218.25,-55.97 228.68,-54.13 219.37,-49.07 218.25,-55.97"/>
</a>
</g>
</g>
<!-- Node4&#45;&gt;Node3 -->
<g id="edge4_Node000004_Node000003" class="edge">
<title>Node4&#45;&gt;Node3</title>
<g id="a_edge4_Node000004_Node000003"><a xlink:title=" ">
<path fill="none" stroke="#63b8ff" d="M66.62,-39C57.37,-39 48.55,-39 41.19,-39"/>
<polygon fill="#63b8ff" stroke="#63b8ff" points="66.76,-42.5 76.76,-39 66.76,-35.5 66.76,-42.5"/>
</a>
</g>
</g>
<!-- Node5&#45;&gt;Node3 -->
<g id="edge6_Node000005_Node000003" class="edge">
<title>Node5&#45;&gt;Node3</title>
<g id="a_edge6_Node000005_Node000003"><a xlink:title=" ">
<path fill="none" stroke="#63b8ff" d="M218.66,-11.55C177.78,-10.59 123.91,-11.61 77,-20 64.77,-22.19 51.59,-26.61 41.15,-30.63"/>
<polygon fill="#63b8ff" stroke="#63b8ff" points="218.67,-15.06 228.77,-11.84 218.87,-8.06 218.67,-15.06"/>
</a>
</g>
</g>
<!-- Node5&#45;&gt;Node4 -->
<g id="edge7_Node000005_Node000004" class="edge">
<title>Node5&#45;&gt;Node4</title>
<g id="a_edge7_Node000005_Node000004"><a xlink:title=" ">
<path fill="none" stroke="#63b8ff" d="M218.75,-25.49C210.19,-26.89 201.47,-28.31 193.05,-29.69"/>
<polygon fill="#63b8ff" stroke="#63b8ff" points="219.37,-28.93 228.68,-23.87 218.25,-22.03 219.37,-28.93"/>
</a>
</g>
</g>
</g>
</svg>
