<?xml version="1.0" encoding="UTF-8" standalone="no"?>
<!DOCTYPE svg PUBLIC "-//W3C//DTD SVG 1.1//EN"
 "http://www.w3.org/Graphics/SVG/1.1/DTD/svg11.dtd">
<!-- Generated by graphviz version 2.43.0 (0)
 -->
<!-- Title: ConfigManager::create_default_config_file Pages: 1 -->
<svg width="708pt" height="81pt"
 viewBox="0.00 0.00 708.00 81.00" xmlns="http://www.w3.org/2000/svg" xmlns:xlink="http://www.w3.org/1999/xlink">
<g id="graph0" class="graph" transform="scale(1 1) rotate(0) translate(4 77)">
<title>ConfigManager::create_default_config_file</title>
<!-- Node1 -->
<g id="Node000001" class="node">
<title>Node1</title>
<g id="a_Node000001"><a xlink:title="Create a default configuration file with all options.">
<polygon fill="#999999" stroke="#666666" points="700,-51 573,-51 573,-21 700,-21 700,-51"/>
<text text-anchor="start" x="581" y="-39" font-family="Helvetica,sans-Serif" font-size="10.00">ConfigManager::create</text>
<text text-anchor="middle" x="636.5" y="-28" font-family="Helvetica,sans-Serif" font-size="10.00">_default_config_file</text>
</a>
</g>
</g>
<!-- Node2 -->
<g id="Node000002" class="node">
<title>Node2</title>
<g id="a_Node000002"><a xlink:href="group__CommandExecutors.html#ga073f786afa47506d32c7912828cd40ea" target="_top" xlink:title="Create a default configuration file.">
<polygon fill="white" stroke="#666666" points="363,-73 229,-73 229,-43 363,-43 363,-73"/>
<text text-anchor="start" x="237" y="-61" font-family="Helvetica,sans-Serif" font-size="10.00">CommandParser::create</text>
<text text-anchor="middle" x="296" y="-50" font-family="Helvetica,sans-Serif" font-size="10.00">_default_config</text>
</a>
</g>
</g>
<!-- Node1&#45;&gt;Node2 -->
<g id="edge1_Node000001_Node000002" class="edge">
<title>Node1&#45;&gt;Node2</title>
<g id="a_edge1_Node000001_Node000002"><a xlink:title=" ">
<path fill="none" stroke="#63b8ff" d="M562.58,-40.74C503.29,-44.59 420.35,-49.98 363.01,-53.71"/>
<polygon fill="#63b8ff" stroke="#63b8ff" points="562.87,-44.23 572.62,-40.09 562.42,-37.24 562.87,-44.23"/>
</a>
</g>
</g>
<!-- Node5 -->
<g id="Node000005" class="node">
<title>Node5</title>
<g id="a_Node000005"><a xlink:href="namespaceHelpUtils.html#aa496c9db09fcfa776df8300da1cc2711" target="_top" xlink:title="Create default configuration file.">
<polygon fill="white" stroke="#666666" points="537,-30 399,-30 399,0 537,0 537,-30"/>
<text text-anchor="start" x="407" y="-18" font-family="Helvetica,sans-Serif" font-size="10.00">HelpUtils::create_default</text>
<text text-anchor="middle" x="468" y="-7" font-family="Helvetica,sans-Serif" font-size="10.00">_config</text>
</a>
</g>
</g>
<!-- Node1&#45;&gt;Node5 -->
<g id="edge4_Node000001_Node000005" class="edge">
<title>Node1&#45;&gt;Node5</title>
<g id="a_edge4_Node000001_Node000005"><a xlink:title=" ">
<path fill="none" stroke="#63b8ff" d="M562.37,-26.78C553.95,-25.71 545.39,-24.63 537.04,-23.58"/>
<polygon fill="#63b8ff" stroke="#63b8ff" points="562.19,-30.28 572.55,-28.06 563.07,-23.34 562.19,-30.28"/>
</a>
</g>
</g>
<!-- Node3 -->
<g id="Node000003" class="node">
<title>Node3</title>
<g id="a_Node000003"><a xlink:href="interactive__mode_8cpp.html#a6b615c34054150d837dc45ed1c17b297" target="_top" xlink:title="Enhanced interactive command loop with TAB completion for Windows.">
<polygon fill="white" stroke="#666666" points="193,-62.5 77,-62.5 77,-43.5 193,-43.5 193,-62.5"/>
<text text-anchor="middle" x="135" y="-50.5" font-family="Helvetica,sans-Serif" font-size="10.00">run_interactive_loop</text>
</a>
</g>
</g>
<!-- Node2&#45;&gt;Node3 -->
<g id="edge2_Node000002_Node000003" class="edge">
<title>Node2&#45;&gt;Node3</title>
<g id="a_edge2_Node000002_Node000003"><a xlink:title=" ">
<path fill="none" stroke="#63b8ff" d="M218.87,-55.61C210.24,-55.33 201.56,-55.06 193.24,-54.8"/>
<polygon fill="#63b8ff" stroke="#63b8ff" points="218.85,-59.11 228.95,-55.92 219.07,-52.11 218.85,-59.11"/>
</a>
</g>
</g>
<!-- Node4 -->
<g id="Node000004" class="node">
<title>Node4</title>
<g id="a_Node000004"><a xlink:href="main_8cpp.html#a0ddf1224851353fc92bfbff6f499fa97" target="_top" xlink:title="Main entry point for the Gaussian Extractor application.">
<polygon fill="white" stroke="#666666" points="41,-43.5 0,-43.5 0,-24.5 41,-24.5 41,-43.5"/>
<text text-anchor="middle" x="20.5" y="-31.5" font-family="Helvetica,sans-Serif" font-size="10.00">main</text>
</a>
</g>
</g>
<!-- Node3&#45;&gt;Node4 -->
<g id="edge3_Node000003_Node000004" class="edge">
<title>Node3&#45;&gt;Node4</title>
<g id="a_edge3_Node000003_Node000004"><a xlink:title=" ">
<path fill="none" stroke="#63b8ff" d="M67.4,-41.75C57.88,-40.14 48.77,-38.61 41.22,-37.33"/>
<polygon fill="#63b8ff" stroke="#63b8ff" points="66.98,-45.23 77.42,-43.44 68.14,-38.33 66.98,-45.23"/>
</a>
</g>
</g>
<!-- Node6 -->
<g id="Node000006" class="node">
<title>Node6</title>
<g id="a_Node000006"><a xlink:href="group__CommandExecutors.html#ga2c1ceafe241a0b4e19790bb5d878ed1a" target="_top" xlink:title="Parse command&#45;line arguments and create execution context.">
<polygon fill="white" stroke="#666666" points="361,-24.5 231,-24.5 231,-5.5 361,-5.5 361,-24.5"/>
<text text-anchor="middle" x="296" y="-12.5" font-family="Helvetica,sans-Serif" font-size="10.00">CommandParser::parse</text>
</a>
</g>
</g>
<!-- Node5&#45;&gt;Node6 -->
<g id="edge5_Node000005_Node000006" class="edge">
<title>Node5&#45;&gt;Node6</title>
<g id="a_edge5_Node000005_Node000006"><a xlink:title=" ">
<path fill="none" stroke="#63b8ff" d="M388.81,-15C379.52,-15 370.11,-15 361.04,-15"/>
<polygon fill="#63b8ff" stroke="#63b8ff" points="388.83,-18.5 398.83,-15 388.83,-11.5 388.83,-18.5"/>
</a>
</g>
</g>
<!-- Node6&#45;&gt;Node3 -->
<g id="edge7_Node000006_Node000003" class="edge">
<title>Node6&#45;&gt;Node3</title>
<g id="a_edge7_Node000006_Node000003"><a xlink:title=" ">
<path fill="none" stroke="#63b8ff" d="M244.92,-26.97C222.64,-32.29 196.77,-38.48 175.83,-43.48"/>
<polygon fill="#63b8ff" stroke="#63b8ff" points="245.97,-30.32 254.88,-24.59 244.34,-23.51 245.97,-30.32"/>
</a>
</g>
</g>
<!-- Node6&#45;&gt;Node4 -->
<g id="edge6_Node000006_Node000004" class="edge">
<title>Node6&#45;&gt;Node4</title>
<g id="a_edge6_Node000006_Node000004"><a xlink:title=" ">
<path fill="none" stroke="#63b8ff" d="M220.54,-20.17C159.69,-24.4 77.91,-30.08 41.01,-32.64"/>
<polygon fill="#63b8ff" stroke="#63b8ff" points="221.14,-23.64 230.88,-19.45 220.66,-16.66 221.14,-23.64"/>
</a>
</g>
</g>
</g>
</svg>
