<?xml version="1.0" encoding="UTF-8" standalone="no"?>
<!DOCTYPE svg PUBLIC "-//W3C//DTD SVG 1.1//EN"
 "http://www.w3.org/Graphics/SVG/1.1/DTD/svg11.dtd">
<!-- Generated by graphviz version 2.43.0 (0)
 -->
<!-- Title: JobChecker::find_related_files Pages: 1 -->
<svg width="613pt" height="196pt"
 viewBox="0.00 0.00 613.00 195.50" xmlns="http://www.w3.org/2000/svg" xmlns:xlink="http://www.w3.org/1999/xlink">
<g id="graph0" class="graph" transform="scale(1 1) rotate(0) translate(4 191.5)">
<title>JobChecker::find_related_files</title>
<!-- Node1 -->
<g id="Node000001" class="node">
<title>Node1</title>
<g id="a_Node000001"><a xlink:title="Find all files related to a Gaussian calculation.">
<polygon fill="#999999" stroke="#666666" points="134,-139.5 0,-139.5 0,-109.5 134,-109.5 134,-139.5"/>
<text text-anchor="start" x="8" y="-127.5" font-family="Helvetica,sans-Serif" font-size="10.00">JobChecker::find_related</text>
<text text-anchor="middle" x="67" y="-116.5" font-family="Helvetica,sans-Serif" font-size="10.00">_files</text>
</a>
</g>
</g>
<!-- Node2 -->
<g id="Node000002" class="node">
<title>Node2</title>
<g id="a_Node000002"><a xlink:href="group__UtilityFunctions.html#ga5aea3864b0d315c8680f9611a9f8f689" target="_top" xlink:title="Extract base filename without extension from log file path.">
<polygon fill="white" stroke="#666666" points="282.5,-187.5 171.5,-187.5 171.5,-157.5 282.5,-157.5 282.5,-187.5"/>
<text text-anchor="start" x="179.5" y="-175.5" font-family="Helvetica,sans-Serif" font-size="10.00">JobChecker::extract</text>
<text text-anchor="middle" x="227" y="-164.5" font-family="Helvetica,sans-Serif" font-size="10.00">_base_name</text>
</a>
</g>
</g>
<!-- Node1&#45;&gt;Node2 -->
<g id="edge1_Node000001_Node000002" class="edge">
<title>Node1&#45;&gt;Node2</title>
<g id="a_edge1_Node000001_Node000002"><a xlink:title=" ">
<path fill="none" stroke="#63b8ff" d="M117.56,-139.56C133.15,-144.29 150.52,-149.57 166.71,-154.49"/>
<polygon fill="#63b8ff" stroke="#63b8ff" points="166.03,-157.94 176.62,-157.5 168.07,-151.24 166.03,-157.94"/>
</a>
</g>
</g>
<!-- Node3 -->
<g id="Node000003" class="node">
<title>Node3</title>
<g id="a_Node000003"><a xlink:href="group__JobFileUtils.html#ga93b2603d1ed51dcb6ad00bb6c48a434b" target="_top" xlink:title="Check if a file exists and is accessible.">
<polygon fill="white" stroke="#666666" points="284,-139.5 170,-139.5 170,-109.5 284,-109.5 284,-139.5"/>
<text text-anchor="start" x="178" y="-127.5" font-family="Helvetica,sans-Serif" font-size="10.00">JobCheckerUtils::file</text>
<text text-anchor="middle" x="227" y="-116.5" font-family="Helvetica,sans-Serif" font-size="10.00">_exists</text>
</a>
</g>
</g>
<!-- Node1&#45;&gt;Node3 -->
<g id="edge2_Node000001_Node000003" class="edge">
<title>Node1&#45;&gt;Node3</title>
<g id="a_edge2_Node000001_Node000003"><a xlink:title=" ">
<path fill="none" stroke="#63b8ff" d="M134.09,-124.5C142.51,-124.5 151.12,-124.5 159.55,-124.5"/>
<polygon fill="#63b8ff" stroke="#63b8ff" points="159.7,-128 169.7,-124.5 159.7,-121 159.7,-128"/>
</a>
</g>
</g>
<!-- Node4 -->
<g id="Node000004" class="node">
<title>Node4</title>
<g id="a_Node000004"><a xlink:href="group__ConfigExtensions.html#ga3fd3f42f724661c7ea72845729e0141f" target="_top" xlink:title="Get list of supported input file extensions.">
<polygon fill="white" stroke="#666666" points="283,-91.5 171,-91.5 171,-61.5 283,-61.5 283,-91.5"/>
<text text-anchor="start" x="179" y="-79.5" font-family="Helvetica,sans-Serif" font-size="10.00">ConfigManager::get</text>
<text text-anchor="middle" x="227" y="-68.5" font-family="Helvetica,sans-Serif" font-size="10.00">_input_extensions</text>
</a>
</g>
</g>
<!-- Node1&#45;&gt;Node4 -->
<g id="edge3_Node000001_Node000004" class="edge">
<title>Node1&#45;&gt;Node4</title>
<g id="a_edge3_Node000001_Node000004"><a xlink:title=" ">
<path fill="none" stroke="#63b8ff" d="M117.56,-109.44C133.15,-104.71 150.52,-99.43 166.71,-94.51"/>
<polygon fill="#63b8ff" stroke="#63b8ff" points="168.07,-97.76 176.62,-91.5 166.03,-91.06 168.07,-97.76"/>
</a>
</g>
</g>
<!-- Node5 -->
<g id="Node000005" class="node">
<title>Node5</title>
<g id="a_Node000005"><a xlink:href="group__ConfigInternals.html#ga5e387d61b1f34873cd3ab047242b2aad" target="_top" xlink:title="Template method for type&#45;safe value conversion.">
<polygon fill="white" stroke="#666666" points="605,-136.5 472,-136.5 472,-106.5 605,-106.5 605,-136.5"/>
<text text-anchor="start" x="480" y="-124.5" font-family="Helvetica,sans-Serif" font-size="10.00">ConfigManager::convert</text>
<text text-anchor="middle" x="538.5" y="-113.5" font-family="Helvetica,sans-Serif" font-size="10.00">_value</text>
</a>
</g>
</g>
<!-- Node4&#45;&gt;Node5 -->
<g id="edge4_Node000004_Node000005" class="edge">
<title>Node4&#45;&gt;Node5</title>
<g id="a_edge4_Node000004_Node000005"><a xlink:title=" ">
<path fill="none" stroke="#63b8ff" d="M265.8,-91.58C271.98,-94.36 278.23,-97.38 284,-100.5 300.91,-109.66 301.6,-118.93 320,-124.5 365.67,-138.33 419.25,-137.77 461.81,-133.67"/>
<polygon fill="#63b8ff" stroke="#63b8ff" points="462.24,-137.14 471.82,-132.62 461.51,-130.18 462.24,-137.14"/>
</a>
</g>
</g>
<!-- Node6 -->
<g id="Node000006" class="node">
<title>Node6</title>
<g id="a_Node000006"><a xlink:href="group__ConfigValueGetters.html#gaa25cec73939b4d9bd7419f553faae0cb" target="_top" xlink:title="Get string configuration value.">
<polygon fill="white" stroke="#666666" points="434,-115.5 322,-115.5 322,-85.5 434,-85.5 434,-115.5"/>
<text text-anchor="start" x="330" y="-103.5" font-family="Helvetica,sans-Serif" font-size="10.00">ConfigManager::get</text>
<text text-anchor="middle" x="378" y="-92.5" font-family="Helvetica,sans-Serif" font-size="10.00">_string</text>
</a>
</g>
</g>
<!-- Node4&#45;&gt;Node6 -->
<g id="edge5_Node000004_Node000006" class="edge">
<title>Node4&#45;&gt;Node6</title>
<g id="a_edge5_Node000004_Node000006"><a xlink:title=" ">
<path fill="none" stroke="#63b8ff" d="M283.06,-85.37C292.41,-86.87 302.2,-88.45 311.79,-90"/>
<polygon fill="#63b8ff" stroke="#63b8ff" points="311.24,-93.45 321.67,-91.59 312.35,-86.54 311.24,-93.45"/>
</a>
</g>
</g>
<!-- Node7 -->
<g id="Node000007" class="node">
<title>Node7</title>
<g id="a_Node000007"><a xlink:href="group__ConfigStringUtils.html#ga2f21572e2bdf739cbd8c75720728196c" target="_top" xlink:title="Split string into vector using delimiter.">
<polygon fill="white" stroke="#666666" points="426.5,-67.5 329.5,-67.5 329.5,-37.5 426.5,-37.5 426.5,-67.5"/>
<text text-anchor="start" x="337.5" y="-55.5" font-family="Helvetica,sans-Serif" font-size="10.00">ConfigUtils::split</text>
<text text-anchor="middle" x="378" y="-44.5" font-family="Helvetica,sans-Serif" font-size="10.00">_string</text>
</a>
</g>
</g>
<!-- Node4&#45;&gt;Node7 -->
<g id="edge7_Node000004_Node000007" class="edge">
<title>Node4&#45;&gt;Node7</title>
<g id="a_edge7_Node000004_Node000007"><a xlink:title=" ">
<path fill="none" stroke="#63b8ff" d="M283.06,-67.63C294.73,-65.75 307.08,-63.76 318.86,-61.86"/>
<polygon fill="#63b8ff" stroke="#63b8ff" points="319.72,-65.27 329.03,-60.23 318.6,-58.36 319.72,-65.27"/>
</a>
</g>
</g>
<!-- Node8 -->
<g id="Node000008" class="node">
<title>Node8</title>
<g id="a_Node000008"><a xlink:href="group__ConfigInternals.html#ga24e6150f47d12f03a5864631c6d846c5" target="_top" xlink:title="Remove leading and trailing whitespace from string.">
<polygon fill="white" stroke="#666666" points="436,-19 320,-19 320,0 436,0 436,-19"/>
<text text-anchor="middle" x="378" y="-7" font-family="Helvetica,sans-Serif" font-size="10.00">ConfigManager::trim</text>
</a>
</g>
</g>
<!-- Node4&#45;&gt;Node8 -->
<g id="edge8_Node000004_Node000008" class="edge">
<title>Node4&#45;&gt;Node8</title>
<g id="a_edge8_Node000004_Node000008"><a xlink:title=" ">
<path fill="none" stroke="#63b8ff" d="M254.03,-61.5C272.17,-51.4 297.11,-38.21 320,-28.5 325.04,-26.36 330.41,-24.3 335.77,-22.38"/>
<polygon fill="#63b8ff" stroke="#63b8ff" points="337,-25.65 345.31,-19.07 334.71,-19.04 337,-25.65"/>
</a>
</g>
</g>
<!-- Node6&#45;&gt;Node5 -->
<g id="edge6_Node000006_Node000005" class="edge">
<title>Node6&#45;&gt;Node5</title>
<g id="a_edge6_Node000006_Node000005"><a xlink:title=" ">
<path fill="none" stroke="#63b8ff" d="M434.44,-107.84C443.29,-109.02 452.57,-110.25 461.8,-111.47"/>
<polygon fill="#63b8ff" stroke="#63b8ff" points="461.38,-114.95 471.76,-112.79 462.3,-108.01 461.38,-114.95"/>
</a>
</g>
</g>
</g>
</svg>
