<?xml version="1.0" encoding="UTF-8" standalone="no"?>
<!DOCTYPE svg PUBLIC "-//W3C//DTD SVG 1.1//EN"
 "http://www.w3.org/Graphics/SVG/1.1/DTD/svg11.dtd">
<!-- Generated by graphviz version 2.43.0 (0)
 -->
<!-- Title: ConfigManager::get_default_threads Pages: 1 -->
<svg width="694pt" height="134pt"
 viewBox="0.00 0.00 694.00 134.00" xmlns="http://www.w3.org/2000/svg" xmlns:xlink="http://www.w3.org/1999/xlink">
<g id="graph0" class="graph" transform="scale(1 1) rotate(0) translate(4 130)">
<title>ConfigManager::get_default_threads</title>
<!-- Node1 -->
<g id="Node000001" class="node">
<title>Node1</title>
<g id="a_Node000001"><a xlink:title="Get default number of processing threads.">
<polygon fill="#999999" stroke="#666666" points="686,-78 574,-78 574,-48 686,-48 686,-78"/>
<text text-anchor="start" x="582" y="-66" font-family="Helvetica,sans-Serif" font-size="10.00">ConfigManager::get</text>
<text text-anchor="middle" x="630" y="-55" font-family="Helvetica,sans-Serif" font-size="10.00">_default_threads</text>
</a>
</g>
</g>
<!-- Node2 -->
<g id="Node000002" class="node">
<title>Node2</title>
<g id="a_Node000002"><a xlink:href="group__CommandExecutors.html#ga9fcc8aa9bb1408d529764d3767029d02" target="_top" xlink:title="Apply configuration values to command context.">
<polygon fill="white" stroke="#666666" points="531.5,-126 401.5,-126 401.5,-96 531.5,-96 531.5,-126"/>
<text text-anchor="start" x="409.5" y="-114" font-family="Helvetica,sans-Serif" font-size="10.00">CommandParser::apply</text>
<text text-anchor="middle" x="466.5" y="-103" font-family="Helvetica,sans-Serif" font-size="10.00">_config_to_context</text>
</a>
</g>
</g>
<!-- Node1&#45;&gt;Node2 -->
<g id="edge1_Node000001_Node000002" class="edge">
<title>Node1&#45;&gt;Node2</title>
<g id="a_edge1_Node000001_Node000002"><a xlink:title=" ">
<path fill="none" stroke="#63b8ff" d="M568.68,-80.93C551.99,-85.89 534.05,-91.22 517.98,-96"/>
<polygon fill="#63b8ff" stroke="#63b8ff" points="569.76,-84.26 578.34,-78.06 567.76,-77.55 569.76,-84.26"/>
</a>
</g>
</g>
<!-- Node6 -->
<g id="Node000006" class="node">
<title>Node6</title>
<g id="a_Node000006"><a xlink:href="group__CommandExecutors.html#ga92485652a17c4238912fcfb53dca8694" target="_top" xlink:title="Parse options common to all commands.">
<polygon fill="white" stroke="#666666" points="531.5,-78 401.5,-78 401.5,-48 531.5,-48 531.5,-78"/>
<text text-anchor="start" x="409.5" y="-66" font-family="Helvetica,sans-Serif" font-size="10.00">CommandParser::parse</text>
<text text-anchor="middle" x="466.5" y="-55" font-family="Helvetica,sans-Serif" font-size="10.00">_common_options</text>
</a>
</g>
</g>
<!-- Node1&#45;&gt;Node6 -->
<g id="edge6_Node000001_Node000006" class="edge">
<title>Node1&#45;&gt;Node6</title>
<g id="a_edge6_Node000001_Node000006"><a xlink:title=" ">
<path fill="none" stroke="#63b8ff" d="M563.81,-63C553.18,-63 542.17,-63 531.56,-63"/>
<polygon fill="#63b8ff" stroke="#63b8ff" points="563.87,-66.5 573.87,-63 563.87,-59.5 563.87,-66.5"/>
</a>
</g>
</g>
<!-- Node7 -->
<g id="Node000007" class="node">
<title>Node7</title>
<g id="a_Node000007"><a xlink:href="group__CommandExecutors.html#ga505ef45f36ca4edcad3ba1e6eabca4e6" target="_top" xlink:title="Validate parsed context for consistency and correctness.">
<polygon fill="white" stroke="#666666" points="538,-30 395,-30 395,0 538,0 538,-30"/>
<text text-anchor="start" x="403" y="-18" font-family="Helvetica,sans-Serif" font-size="10.00">CommandParser::validate</text>
<text text-anchor="middle" x="466.5" y="-7" font-family="Helvetica,sans-Serif" font-size="10.00">_context</text>
</a>
</g>
</g>
<!-- Node1&#45;&gt;Node7 -->
<g id="edge8_Node000001_Node000007" class="edge">
<title>Node1&#45;&gt;Node7</title>
<g id="a_edge8_Node000001_Node000007"><a xlink:title=" ">
<path fill="none" stroke="#63b8ff" d="M568.68,-45.07C551.99,-40.11 534.05,-34.78 517.98,-30"/>
<polygon fill="#63b8ff" stroke="#63b8ff" points="567.76,-48.45 578.34,-47.94 569.76,-41.74 567.76,-48.45"/>
</a>
</g>
</g>
<!-- Node3 -->
<g id="Node000003" class="node">
<title>Node3</title>
<g id="a_Node000003"><a xlink:href="group__CommandExecutors.html#ga2c1ceafe241a0b4e19790bb5d878ed1a" target="_top" xlink:title="Parse command&#45;line arguments and create execution context.">
<polygon fill="white" stroke="#666666" points="359,-72.5 229,-72.5 229,-53.5 359,-53.5 359,-72.5"/>
<text text-anchor="middle" x="294" y="-60.5" font-family="Helvetica,sans-Serif" font-size="10.00">CommandParser::parse</text>
</a>
</g>
</g>
<!-- Node2&#45;&gt;Node3 -->
<g id="edge2_Node000002_Node000003" class="edge">
<title>Node2&#45;&gt;Node3</title>
<g id="a_edge2_Node000002_Node000003"><a xlink:title=" ">
<path fill="none" stroke="#63b8ff" d="M402.29,-93.21C377.45,-86.21 349.92,-78.46 328.97,-72.56"/>
<polygon fill="#63b8ff" stroke="#63b8ff" points="401.45,-96.6 412.02,-95.94 403.34,-89.87 401.45,-96.6"/>
</a>
</g>
</g>
<!-- Node4 -->
<g id="Node000004" class="node">
<title>Node4</title>
<g id="a_Node000004"><a xlink:href="main_8cpp.html#a0ddf1224851353fc92bfbff6f499fa97" target="_top" xlink:title="Main entry point for the Gaussian Extractor application.">
<polygon fill="white" stroke="#666666" points="41,-72.5 0,-72.5 0,-53.5 41,-53.5 41,-72.5"/>
<text text-anchor="middle" x="20.5" y="-60.5" font-family="Helvetica,sans-Serif" font-size="10.00">main</text>
</a>
</g>
</g>
<!-- Node3&#45;&gt;Node4 -->
<g id="edge3_Node000003_Node000004" class="edge">
<title>Node3&#45;&gt;Node4</title>
<g id="a_edge3_Node000003_Node000004"><a xlink:title=" ">
<path fill="none" stroke="#63b8ff" d="M218.42,-63C158.19,-63 77.65,-63 41.06,-63"/>
<polygon fill="#63b8ff" stroke="#63b8ff" points="218.66,-66.5 228.66,-63 218.66,-59.5 218.66,-66.5"/>
</a>
</g>
</g>
<!-- Node5 -->
<g id="Node000005" class="node">
<title>Node5</title>
<g id="a_Node000005"><a xlink:href="interactive__mode_8cpp.html#a6b615c34054150d837dc45ed1c17b297" target="_top" xlink:title="Enhanced interactive command loop with TAB completion for Windows.">
<polygon fill="white" stroke="#666666" points="193,-53.5 77,-53.5 77,-34.5 193,-34.5 193,-53.5"/>
<text text-anchor="middle" x="135" y="-41.5" font-family="Helvetica,sans-Serif" font-size="10.00">run_interactive_loop</text>
</a>
</g>
</g>
<!-- Node3&#45;&gt;Node5 -->
<g id="edge4_Node000003_Node000005" class="edge">
<title>Node3&#45;&gt;Node5</title>
<g id="a_edge4_Node000003_Node000005"><a xlink:title=" ">
<path fill="none" stroke="#63b8ff" d="M218.75,-54.01C210.24,-52.98 201.66,-51.95 193.41,-50.95"/>
<polygon fill="#63b8ff" stroke="#63b8ff" points="218.34,-57.49 228.69,-55.22 219.18,-50.54 218.34,-57.49"/>
</a>
</g>
</g>
<!-- Node5&#45;&gt;Node4 -->
<g id="edge5_Node000005_Node000004" class="edge">
<title>Node5&#45;&gt;Node4</title>
<g id="a_edge5_Node000005_Node000004"><a xlink:title=" ">
<path fill="none" stroke="#63b8ff" d="M67.4,-55.25C57.88,-56.86 48.77,-58.39 41.22,-59.67"/>
<polygon fill="#63b8ff" stroke="#63b8ff" points="68.14,-58.67 77.42,-53.56 66.98,-51.77 68.14,-58.67"/>
</a>
</g>
</g>
<!-- Node6&#45;&gt;Node3 -->
<g id="edge7_Node000006_Node000003" class="edge">
<title>Node6&#45;&gt;Node3</title>
<g id="a_edge7_Node000006_Node000003"><a xlink:title=" ">
<path fill="none" stroke="#63b8ff" d="M390.99,-63C380.42,-63 369.62,-63 359.27,-63"/>
<polygon fill="#63b8ff" stroke="#63b8ff" points="391.04,-66.5 401.04,-63 391.04,-59.5 391.04,-66.5"/>
</a>
</g>
</g>
<!-- Node7&#45;&gt;Node3 -->
<g id="edge9_Node000007_Node000003" class="edge">
<title>Node7&#45;&gt;Node3</title>
<g id="a_edge9_Node000007_Node000003"><a xlink:title=" ">
<path fill="none" stroke="#63b8ff" d="M402.29,-32.79C377.45,-39.79 349.92,-47.54 328.97,-53.44"/>
<polygon fill="#63b8ff" stroke="#63b8ff" points="403.34,-36.13 412.02,-30.06 401.45,-29.4 403.34,-36.13"/>
</a>
</g>
</g>
</g>
</svg>
