<?xml version="1.0" encoding="UTF-8" standalone="no"?>
<!DOCTYPE svg PUBLIC "-//W3C//DTD SVG 1.1//EN"
 "http://www.w3.org/Graphics/SVG/1.1/DTD/svg11.dtd">
<!-- Generated by graphviz version 2.43.0 (0)
 -->
<!-- Title: ConfigUtils::get_executable_directory Pages: 1 -->
<svg width="1106pt" height="183pt"
 viewBox="0.00 0.00 1106.00 183.06" xmlns="http://www.w3.org/2000/svg" xmlns:xlink="http://www.w3.org/1999/xlink">
<g id="graph0" class="graph" transform="scale(1 1) rotate(0) translate(4 179.06)">
<title>ConfigUtils::get_executable_directory</title>
<!-- Node1 -->
<g id="Node000001" class="node">
<title>Node1</title>
<g id="a_Node000001"><a xlink:title="Get the directory where the executable is located.">
<polygon fill="#999999" stroke="#666666" points="1098,-78 948,-78 948,-48 1098,-48 1098,-78"/>
<text text-anchor="start" x="956" y="-66" font-family="Helvetica,sans-Serif" font-size="10.00">ConfigUtils::get_executable</text>
<text text-anchor="middle" x="1023" y="-55" font-family="Helvetica,sans-Serif" font-size="10.00">_directory</text>
</a>
</g>
</g>
<!-- Node2 -->
<g id="Node000002" class="node">
<title>Node2</title>
<g id="a_Node000002"><a xlink:href="group__ConfigInternals.html#ga604fe8c75e45b77e7068faeafbadcb18" target="_top" xlink:title="Search for and locate configuration file.">
<polygon fill="white" stroke="#666666" points="887,-142 773,-142 773,-112 887,-112 887,-142"/>
<text text-anchor="start" x="781" y="-130" font-family="Helvetica,sans-Serif" font-size="10.00">ConfigManager::find</text>
<text text-anchor="middle" x="830" y="-119" font-family="Helvetica,sans-Serif" font-size="10.00">_config_file</text>
</a>
</g>
</g>
<!-- Node1&#45;&gt;Node2 -->
<g id="edge1_Node000001_Node000002" class="edge">
<title>Node1&#45;&gt;Node2</title>
<g id="a_edge1_Node000001_Node000002"><a xlink:title=" ">
<path fill="none" stroke="#63b8ff" d="M967.63,-81.22C938.59,-90.95 903.28,-102.78 875.83,-111.98"/>
<polygon fill="#63b8ff" stroke="#63b8ff" points="968.85,-84.5 977.22,-78.01 966.63,-77.86 968.85,-84.5"/>
</a>
</g>
</g>
<!-- Node9 -->
<g id="Node000009" class="node">
<title>Node9</title>
<g id="a_Node000009"><a xlink:href="group__CommandExecutors.html#gac2af8ce80af7cf8a9918558eba909c72" target="_top" xlink:title="Find or create a default parameter file for create_input.">
<polygon fill="white" stroke="#666666" points="912,-78 748,-78 748,-48 912,-48 912,-78"/>
<text text-anchor="start" x="756" y="-66" font-family="Helvetica,sans-Serif" font-size="10.00">CommandParser::find</text>
<text text-anchor="middle" x="830" y="-55" font-family="Helvetica,sans-Serif" font-size="10.00">_or_create_default_param_file</text>
</a>
</g>
</g>
<!-- Node1&#45;&gt;Node9 -->
<g id="edge10_Node000001_Node000009" class="edge">
<title>Node1&#45;&gt;Node9</title>
<g id="a_edge10_Node000001_Node000009"><a xlink:title=" ">
<path fill="none" stroke="#63b8ff" d="M937.88,-63C929.3,-63 920.59,-63 912.04,-63"/>
<polygon fill="#63b8ff" stroke="#63b8ff" points="937.88,-66.5 947.88,-63 937.88,-59.5 937.88,-66.5"/>
</a>
</g>
</g>
<!-- Node11 -->
<g id="Node000011" class="node">
<title>Node11</title>
<g id="a_Node000011"><a xlink:href="group__ConfigFileUtils.html#ga09f057aaa03de2ed7c66d9a0ca26e047" target="_top" xlink:title="Get formatted string of configuration file search paths.">
<polygon fill="white" stroke="#666666" points="893,-30 767,-30 767,0 893,0 893,-30"/>
<text text-anchor="start" x="775" y="-18" font-family="Helvetica,sans-Serif" font-size="10.00">ConfigUtils::get_config</text>
<text text-anchor="middle" x="830" y="-7" font-family="Helvetica,sans-Serif" font-size="10.00">_search_paths</text>
</a>
</g>
</g>
<!-- Node1&#45;&gt;Node11 -->
<g id="edge13_Node000001_Node000011" class="edge">
<title>Node1&#45;&gt;Node11</title>
<g id="a_edge13_Node000001_Node000011"><a xlink:title=" ">
<path fill="none" stroke="#63b8ff" d="M952.32,-45.49C932.11,-40.41 910.24,-34.91 890.7,-30"/>
<polygon fill="#63b8ff" stroke="#63b8ff" points="951.54,-48.9 962.09,-47.94 953.25,-42.11 951.54,-48.9"/>
</a>
</g>
</g>
<!-- Node3 -->
<g id="Node000003" class="node">
<title>Node3</title>
<g id="a_Node000003"><a xlink:href="group__ConfigLoading.html#gadb55801d91871e98b5c5da2acd289a35" target="_top" xlink:title="Load configuration from file with error handling.">
<polygon fill="white" stroke="#666666" points="705.5,-150 588.5,-150 588.5,-120 705.5,-120 705.5,-150"/>
<text text-anchor="start" x="596.5" y="-138" font-family="Helvetica,sans-Serif" font-size="10.00">ConfigManager::load</text>
<text text-anchor="middle" x="647" y="-127" font-family="Helvetica,sans-Serif" font-size="10.00">_config</text>
</a>
</g>
</g>
<!-- Node2&#45;&gt;Node3 -->
<g id="edge2_Node000002_Node000003" class="edge">
<title>Node2&#45;&gt;Node3</title>
<g id="a_edge2_Node000002_Node000003"><a xlink:title=" ">
<path fill="none" stroke="#63b8ff" d="M762.56,-129.94C743.94,-130.76 723.87,-131.65 705.8,-132.45"/>
<polygon fill="#63b8ff" stroke="#63b8ff" points="762.89,-133.43 772.72,-129.49 762.58,-126.43 762.89,-133.43"/>
</a>
</g>
</g>
<!-- Node4 -->
<g id="Node000004" class="node">
<title>Node4</title>
<g id="a_Node000004"><a xlink:href="group__CommandExecutors.html#ga1389de38a8f4d50be08ded6a0240627f" target="_top" xlink:title="Load and initialize configuration system.">
<polygon fill="white" stroke="#666666" points="532.5,-111 408.5,-111 408.5,-81 532.5,-81 532.5,-111"/>
<text text-anchor="start" x="416.5" y="-99" font-family="Helvetica,sans-Serif" font-size="10.00">CommandParser::load</text>
<text text-anchor="middle" x="470.5" y="-88" font-family="Helvetica,sans-Serif" font-size="10.00">_configuration</text>
</a>
</g>
</g>
<!-- Node3&#45;&gt;Node4 -->
<g id="edge3_Node000003_Node000004" class="edge">
<title>Node3&#45;&gt;Node4</title>
<g id="a_edge3_Node000003_Node000004"><a xlink:title=" ">
<path fill="none" stroke="#63b8ff" d="M578.58,-119.93C563.46,-116.55 547.51,-112.99 532.66,-109.67"/>
<polygon fill="#63b8ff" stroke="#63b8ff" points="577.86,-123.36 588.38,-122.12 579.38,-116.52 577.86,-123.36"/>
</a>
</g>
</g>
<!-- Node6 -->
<g id="Node000006" class="node">
<title>Node6</title>
<g id="a_Node000006"><a xlink:href="main_8cpp.html#a0ddf1224851353fc92bfbff6f499fa97" target="_top" xlink:title="Main entry point for the Gaussian Extractor application.">
<polygon fill="white" stroke="#666666" points="41,-81.5 0,-81.5 0,-62.5 41,-62.5 41,-81.5"/>
<text text-anchor="middle" x="20.5" y="-69.5" font-family="Helvetica,sans-Serif" font-size="10.00">main</text>
</a>
</g>
</g>
<!-- Node3&#45;&gt;Node6 -->
<g id="edge8_Node000003_Node000006" class="edge">
<title>Node3&#45;&gt;Node6</title>
<g id="a_edge8_Node000003_Node000006"><a xlink:title=" ">
<path fill="none" stroke="#63b8ff" d="M600.12,-153.54C583.38,-159.39 564.11,-165.09 546,-168 348.58,-199.73 110.91,-109.57 41.45,-80.62"/>
<polygon fill="#63b8ff" stroke="#63b8ff" points="601.44,-156.79 609.66,-150.1 599.06,-150.2 601.44,-156.79"/>
</a>
</g>
</g>
<!-- Node8 -->
<g id="Node000008" class="node">
<title>Node8</title>
<g id="a_Node000008"><a xlink:href="group__ConfigLoading.html#gad792b6c3fe11b0bd927622b2e0966bf5" target="_top" xlink:title="Reload configuration from the previously loaded file.">
<polygon fill="white" stroke="#666666" points="534,-159 407,-159 407,-129 534,-129 534,-159"/>
<text text-anchor="start" x="415" y="-147" font-family="Helvetica,sans-Serif" font-size="10.00">ConfigManager::reload</text>
<text text-anchor="middle" x="470.5" y="-136" font-family="Helvetica,sans-Serif" font-size="10.00">_config</text>
</a>
</g>
</g>
<!-- Node3&#45;&gt;Node8 -->
<g id="edge9_Node000003_Node000008" class="edge">
<title>Node3&#45;&gt;Node8</title>
<g id="a_edge9_Node000003_Node000008"><a xlink:title=" ">
<path fill="none" stroke="#63b8ff" d="M578.02,-138.51C563.58,-139.25 548.4,-140.03 534.17,-140.77"/>
<polygon fill="#63b8ff" stroke="#63b8ff" points="578.57,-141.98 588.38,-137.97 578.21,-134.99 578.57,-141.98"/>
</a>
</g>
</g>
<!-- Node5 -->
<g id="Node000005" class="node">
<title>Node5</title>
<g id="a_Node000005"><a xlink:href="group__CommandExecutors.html#ga2c1ceafe241a0b4e19790bb5d878ed1a" target="_top" xlink:title="Parse command&#45;line arguments and create execution context.">
<polygon fill="white" stroke="#666666" points="359,-62.5 229,-62.5 229,-43.5 359,-43.5 359,-62.5"/>
<text text-anchor="middle" x="294" y="-50.5" font-family="Helvetica,sans-Serif" font-size="10.00">CommandParser::parse</text>
</a>
</g>
</g>
<!-- Node4&#45;&gt;Node5 -->
<g id="edge4_Node000004_Node000005" class="edge">
<title>Node4&#45;&gt;Node5</title>
<g id="a_edge4_Node000004_Node000005"><a xlink:title=" ">
<path fill="none" stroke="#63b8ff" d="M398.72,-78.56C376.49,-73.08 352.77,-67.24 333.64,-62.52"/>
<polygon fill="#63b8ff" stroke="#63b8ff" points="397.92,-81.97 408.47,-80.96 399.6,-75.17 397.92,-81.97"/>
</a>
</g>
</g>
<!-- Node5&#45;&gt;Node6 -->
<g id="edge5_Node000005_Node000006" class="edge">
<title>Node5&#45;&gt;Node6</title>
<g id="a_edge5_Node000005_Node000006"><a xlink:title=" ">
<path fill="none" stroke="#63b8ff" d="M218.42,-58.22C158.19,-62.43 77.65,-68.07 41.06,-70.63"/>
<polygon fill="#63b8ff" stroke="#63b8ff" points="218.93,-61.69 228.66,-57.5 218.44,-54.71 218.93,-61.69"/>
</a>
</g>
</g>
<!-- Node7 -->
<g id="Node000007" class="node">
<title>Node7</title>
<g id="a_Node000007"><a xlink:href="interactive__mode_8cpp.html#a6b615c34054150d837dc45ed1c17b297" target="_top" xlink:title="Enhanced interactive command loop with TAB completion for Windows.">
<polygon fill="white" stroke="#666666" points="193,-43.5 77,-43.5 77,-24.5 193,-24.5 193,-43.5"/>
<text text-anchor="middle" x="135" y="-31.5" font-family="Helvetica,sans-Serif" font-size="10.00">run_interactive_loop</text>
</a>
</g>
</g>
<!-- Node5&#45;&gt;Node7 -->
<g id="edge6_Node000005_Node000007" class="edge">
<title>Node5&#45;&gt;Node7</title>
<g id="a_edge6_Node000005_Node000007"><a xlink:title=" ">
<path fill="none" stroke="#63b8ff" d="M218.75,-44.01C210.24,-42.98 201.66,-41.95 193.41,-40.95"/>
<polygon fill="#63b8ff" stroke="#63b8ff" points="218.34,-47.49 228.69,-45.22 219.18,-40.54 218.34,-47.49"/>
</a>
</g>
</g>
<!-- Node7&#45;&gt;Node6 -->
<g id="edge7_Node000007_Node000006" class="edge">
<title>Node7&#45;&gt;Node6</title>
<g id="a_edge7_Node000007_Node000006"><a xlink:title=" ">
<path fill="none" stroke="#63b8ff" d="M96,-46.84C77.54,-53.07 56.14,-60.3 41.02,-65.41"/>
<polygon fill="#63b8ff" stroke="#63b8ff" points="97.26,-50.11 105.61,-43.59 95.02,-43.47 97.26,-50.11"/>
</a>
</g>
</g>
<!-- Node10 -->
<g id="Node000010" class="node">
<title>Node10</title>
<g id="a_Node000010"><a xlink:href="group__CommandExecutors.html#ga6dd4acb8cb239efc2daf9ad5c4b2afd4" target="_top" xlink:title="Parse options specific to create_input command.">
<polygon fill="white" stroke="#666666" points="712,-76 582,-76 582,-46 712,-46 712,-76"/>
<text text-anchor="start" x="590" y="-64" font-family="Helvetica,sans-Serif" font-size="10.00">CommandParser::parse</text>
<text text-anchor="middle" x="647" y="-53" font-family="Helvetica,sans-Serif" font-size="10.00">_create_input_options</text>
</a>
</g>
</g>
<!-- Node9&#45;&gt;Node10 -->
<g id="edge11_Node000009_Node000010" class="edge">
<title>Node9&#45;&gt;Node10</title>
<g id="a_edge11_Node000009_Node000010"><a xlink:title=" ">
<path fill="none" stroke="#63b8ff" d="M737.66,-61.99C729.04,-61.9 720.44,-61.8 712.15,-61.71"/>
<polygon fill="#63b8ff" stroke="#63b8ff" points="737.73,-65.49 747.77,-62.1 737.8,-58.49 737.73,-65.49"/>
</a>
</g>
</g>
<!-- Node10&#45;&gt;Node5 -->
<g id="edge12_Node000010_Node000005" class="edge">
<title>Node10&#45;&gt;Node5</title>
<g id="a_edge12_Node000010_Node000005"><a xlink:title=" ">
<path fill="none" stroke="#63b8ff" d="M571.35,-59.3C508.36,-57.86 419.13,-55.83 359.27,-54.46"/>
<polygon fill="#63b8ff" stroke="#63b8ff" points="571.54,-62.8 581.62,-59.53 571.7,-55.81 571.54,-62.8"/>
</a>
</g>
</g>
<!-- Node12 -->
<g id="Node000012" class="node">
<title>Node12</title>
<g id="a_Node000012"><a xlink:href="namespaceHelpUtils.html#a2fb76d8b3311bed23a95981b9f07c135" target="_top" xlink:title="Print configuration help information.">
<polygon fill="white" stroke="#666666" points="546,-24.5 395,-24.5 395,-5.5 546,-5.5 546,-24.5"/>
<text text-anchor="middle" x="470.5" y="-12.5" font-family="Helvetica,sans-Serif" font-size="10.00">HelpUtils::print_config_help</text>
</a>
</g>
</g>
<!-- Node11&#45;&gt;Node12 -->
<g id="edge14_Node000011_Node000012" class="edge">
<title>Node11&#45;&gt;Node12</title>
<g id="a_edge14_Node000011_Node000012"><a xlink:title=" ">
<path fill="none" stroke="#63b8ff" d="M756.37,-15C695.13,-15 607.83,-15 546.05,-15"/>
<polygon fill="#63b8ff" stroke="#63b8ff" points="756.73,-18.5 766.73,-15 756.73,-11.5 756.73,-18.5"/>
</a>
</g>
</g>
<!-- Node12&#45;&gt;Node5 -->
<g id="edge15_Node000012_Node000005" class="edge">
<title>Node12&#45;&gt;Node5</title>
<g id="a_edge15_Node000012_Node000005"><a xlink:title=" ">
<path fill="none" stroke="#63b8ff" d="M415.53,-26.75C390.86,-32.13 362.01,-38.41 338.72,-43.48"/>
<polygon fill="#63b8ff" stroke="#63b8ff" points="416.44,-30.14 425.47,-24.59 414.95,-23.3 416.44,-30.14"/>
</a>
</g>
</g>
<!-- Node12&#45;&gt;Node7 -->
<g id="edge16_Node000012_Node000007" class="edge">
<title>Node12&#45;&gt;Node7</title>
<g id="a_edge16_Node000012_Node000007"><a xlink:title=" ">
<path fill="none" stroke="#63b8ff" d="M384.45,-19.85C324.49,-23.26 245.82,-27.74 193.22,-30.74"/>
<polygon fill="#63b8ff" stroke="#63b8ff" points="384.87,-23.33 394.66,-19.26 384.47,-16.34 384.87,-23.33"/>
</a>
</g>
</g>
</g>
</svg>
