<?xml version="1.0" encoding="UTF-8" standalone="no"?>
<!DOCTYPE svg PUBLIC "-//W3C//DTD SVG 1.1//EN"
 "http://www.w3.org/Graphics/SVG/1.1/DTD/svg11.dtd">
<!-- Generated by graphviz version 2.43.0 (0)
 -->
<!-- Title: HighLevelEnergyCalculator::print_gibbs_format_dynamic Pages: 1 -->
<svg width="772pt" height="358pt"
 viewBox="0.00 0.00 772.00 358.00" xmlns="http://www.w3.org/2000/svg" xmlns:xlink="http://www.w3.org/1999/xlink">
<g id="graph0" class="graph" transform="scale(1 1) rotate(0) translate(4 354)">
<title>HighLevelEnergyCalculator::print_gibbs_format_dynamic</title>
<!-- Node1 -->
<g id="Node000001" class="node">
<title>Node1</title>
<g id="a_Node000001"><a xlink:title="Print results in Gibbs format with dynamic column widths.">
<polygon fill="#999999" stroke="#666666" points="162,-240 0,-240 0,-210 162,-210 162,-240"/>
<text text-anchor="start" x="8" y="-228" font-family="Helvetica,sans-Serif" font-size="10.00">HighLevelEnergyCalculator</text>
<text text-anchor="middle" x="81" y="-217" font-family="Helvetica,sans-Serif" font-size="10.00">::print_gibbs_format_dynamic</text>
</a>
</g>
</g>
<!-- Node2 -->
<g id="Node000002" class="node">
<title>Node2</title>
<g id="a_Node000002"><a xlink:href="group__DynamicFormatting.html#ga1498f3f22c1cac77c44e60549f78683d" target="_top" xlink:title="Calculate optimal column widths for Gibbs format output.">
<polygon fill="white" stroke="#666666" points="375,-350 198,-350 198,-320 375,-320 375,-350"/>
<text text-anchor="start" x="206" y="-338" font-family="Helvetica,sans-Serif" font-size="10.00">HighLevelEnergyCalculator</text>
<text text-anchor="middle" x="286.5" y="-327" font-family="Helvetica,sans-Serif" font-size="10.00">::calculate_gibbs_column_widths</text>
</a>
</g>
</g>
<!-- Node1&#45;&gt;Node2 -->
<g id="edge1_Node000001_Node000002" class="edge">
<title>Node1&#45;&gt;Node2</title>
<g id="a_edge1_Node000001_Node000002"><a xlink:title=" ">
<path fill="none" stroke="#63b8ff" d="M100.23,-240.26C122.23,-258.05 160.89,-287.39 198,-306 205.61,-309.82 213.83,-313.3 222.09,-316.42"/>
<polygon fill="#63b8ff" stroke="#63b8ff" points="221.16,-319.81 231.76,-319.92 223.55,-313.22 221.16,-319.81"/>
</a>
</g>
</g>
<!-- Node3 -->
<g id="Node000003" class="node">
<title>Node3</title>
<g id="a_Node000003"><a xlink:href="group__OutputFormatting.html#ga86781939ef5359504029394ac39e0c96" target="_top" xlink:title="Format filename for display with length limit.">
<polygon fill="white" stroke="#666666" points="563,-328 414,-328 414,-298 563,-298 563,-328"/>
<text text-anchor="start" x="422" y="-316" font-family="Helvetica,sans-Serif" font-size="10.00">HighLevelEnergyCalculator</text>
<text text-anchor="middle" x="488.5" y="-305" font-family="Helvetica,sans-Serif" font-size="10.00">::format_filename</text>
</a>
</g>
</g>
<!-- Node1&#45;&gt;Node3 -->
<g id="edge3_Node000001_Node000003" class="edge">
<title>Node1&#45;&gt;Node3</title>
<g id="a_edge3_Node000001_Node000003"><a xlink:title=" ">
<path fill="none" stroke="#63b8ff" d="M112.27,-240.03C135.25,-250.82 167.92,-264.84 198,-273 265.91,-291.42 345.19,-301.62 403.6,-307.1"/>
<polygon fill="#63b8ff" stroke="#63b8ff" points="403.62,-310.62 413.89,-308.04 404.25,-303.64 403.62,-310.62"/>
</a>
</g>
</g>
<!-- Node4 -->
<g id="Node000004" class="node">
<title>Node4</title>
<g id="a_Node000004"><a xlink:href="group__FileUtilities.html#ga181c65f6b55859249f23a68e2f64f4bf" target="_top" xlink:title="Get corresponding parent directory file path.">
<polygon fill="white" stroke="#666666" points="361,-264 212,-264 212,-234 361,-234 361,-264"/>
<text text-anchor="start" x="220" y="-252" font-family="Helvetica,sans-Serif" font-size="10.00">HighLevelEnergyCalculator</text>
<text text-anchor="middle" x="286.5" y="-241" font-family="Helvetica,sans-Serif" font-size="10.00">::get_parent_file</text>
</a>
</g>
</g>
<!-- Node1&#45;&gt;Node4 -->
<g id="edge4_Node000001_Node000004" class="edge">
<title>Node1&#45;&gt;Node4</title>
<g id="a_edge4_Node000001_Node000004"><a xlink:title=" ">
<path fill="none" stroke="#63b8ff" d="M162.14,-234.45C175.04,-235.97 188.42,-237.55 201.42,-239.08"/>
<polygon fill="#63b8ff" stroke="#63b8ff" points="201.39,-242.6 211.73,-240.3 202.21,-235.65 201.39,-242.6"/>
</a>
</g>
</g>
<!-- Node5 -->
<g id="Node000005" class="node">
<title>Node5</title>
<g id="a_Node000005"><a xlink:href="group__DynamicFormatting.html#gae622d6b74fef46b12e67bbf588abac05" target="_top" xlink:title="Print header for Gibbs format with dynamic column widths.">
<polygon fill="white" stroke="#666666" points="368,-216 205,-216 205,-186 368,-186 368,-216"/>
<text text-anchor="start" x="213" y="-204" font-family="Helvetica,sans-Serif" font-size="10.00">HighLevelEnergyCalculator</text>
<text text-anchor="middle" x="286.5" y="-193" font-family="Helvetica,sans-Serif" font-size="10.00">::print_gibbs_header_dynamic</text>
</a>
</g>
</g>
<!-- Node1&#45;&gt;Node5 -->
<g id="edge5_Node000001_Node000005" class="edge">
<title>Node1&#45;&gt;Node5</title>
<g id="a_edge5_Node000001_Node000005"><a xlink:title=" ">
<path fill="none" stroke="#63b8ff" d="M162.14,-215.55C172.87,-214.28 183.93,-212.98 194.83,-211.69"/>
<polygon fill="#63b8ff" stroke="#63b8ff" points="195.25,-215.17 204.77,-210.52 194.43,-208.22 195.25,-215.17"/>
</a>
</g>
</g>
<!-- Node6 -->
<g id="Node000006" class="node">
<title>Node6</title>
<g id="a_Node000006"><a xlink:href="high__level__energy_8cpp.html#a4ef54a725bad93aecbd43800acfbf532" target="_top" xlink:title=" ">
<polygon fill="white" stroke="#666666" points="337,-167.5 236,-167.5 236,-148.5 337,-148.5 337,-167.5"/>
<text text-anchor="middle" x="286.5" y="-155.5" font-family="Helvetica,sans-Serif" font-size="10.00">print_header_box</text>
</a>
</g>
</g>
<!-- Node1&#45;&gt;Node6 -->
<g id="edge6_Node000001_Node000006" class="edge">
<title>Node1&#45;&gt;Node6</title>
<g id="a_edge6_Node000001_Node000006"><a xlink:title=" ">
<path fill="none" stroke="#63b8ff" d="M113.93,-209.97C136.92,-199.61 168.88,-186.11 198,-177 206.83,-174.24 216.27,-171.74 225.58,-169.52"/>
<polygon fill="#63b8ff" stroke="#63b8ff" points="226.62,-172.87 235.58,-167.23 225.05,-166.05 226.62,-172.87"/>
</a>
</g>
</g>
<!-- Node10 -->
<g id="Node000010" class="node">
<title>Node10</title>
<g id="a_Node000010"><a xlink:href="group__OutputFormatting.html#ga127aea9652788ee774b4d8d1f2602959" target="_top" xlink:title="Print summary information about calculation.">
<polygon fill="white" stroke="#666666" points="361,-128 212,-128 212,-98 361,-98 361,-128"/>
<text text-anchor="start" x="220" y="-116" font-family="Helvetica,sans-Serif" font-size="10.00">HighLevelEnergyCalculator</text>
<text text-anchor="middle" x="286.5" y="-105" font-family="Helvetica,sans-Serif" font-size="10.00">::print_summary_info</text>
</a>
</g>
</g>
<!-- Node1&#45;&gt;Node10 -->
<g id="edge10_Node000001_Node000010" class="edge">
<title>Node1&#45;&gt;Node10</title>
<g id="a_edge10_Node000001_Node000010"><a xlink:title=" ">
<path fill="none" stroke="#63b8ff" d="M98.88,-209.78C120.46,-191.03 159.63,-159.29 198,-140 204.11,-136.93 210.63,-134.13 217.26,-131.59"/>
<polygon fill="#63b8ff" stroke="#63b8ff" points="218.8,-134.76 227.01,-128.07 216.42,-128.18 218.8,-134.76"/>
</a>
</g>
</g>
<!-- Node2&#45;&gt;Node3 -->
<g id="edge2_Node000002_Node000003" class="edge">
<title>Node2&#45;&gt;Node3</title>
<g id="a_edge2_Node000002_Node000003"><a xlink:title=" ">
<path fill="none" stroke="#63b8ff" d="M375.22,-325.35C384.7,-324.31 394.33,-323.25 403.76,-322.21"/>
<polygon fill="#63b8ff" stroke="#63b8ff" points="404.35,-325.67 413.9,-321.1 403.58,-318.71 404.35,-325.67"/>
</a>
</g>
</g>
<!-- Node7 -->
<g id="Node000007" class="node">
<title>Node7</title>
<g id="a_Node000007"><a xlink:href="namespaceMetadata.html#a4447a0ff55fb6119acf046c55f0729d8" target="_top" xlink:title="Build the standard header banner shown at the top of outputs.">
<polygon fill="white" stroke="#666666" points="540,-168.5 437,-168.5 437,-149.5 540,-149.5 540,-168.5"/>
<text text-anchor="middle" x="488.5" y="-156.5" font-family="Helvetica,sans-Serif" font-size="10.00">Metadata::header</text>
</a>
</g>
</g>
<!-- Node6&#45;&gt;Node7 -->
<g id="edge7_Node000006_Node000007" class="edge">
<title>Node6&#45;&gt;Node7</title>
<g id="a_edge7_Node000006_Node000007"><a xlink:title=" ">
<path fill="none" stroke="#63b8ff" d="M337.2,-158.25C364.19,-158.38 397.8,-158.55 426.39,-158.69"/>
<polygon fill="#63b8ff" stroke="#63b8ff" points="426.65,-162.2 436.67,-158.75 426.69,-155.2 426.65,-162.2"/>
</a>
</g>
</g>
<!-- Node8 -->
<g id="Node000008" class="node">
<title>Node8</title>
<g id="a_Node000008"><a xlink:href="namespaceMetadata.html#ab855c758bd53604611f38268f1c58481" target="_top" xlink:title=" ">
<polygon fill="white" stroke="#666666" points="764,-211.5 602,-211.5 602,-192.5 764,-192.5 764,-211.5"/>
<text text-anchor="middle" x="683" y="-199.5" font-family="Helvetica,sans-Serif" font-size="10.00">Metadata::create_header_line</text>
</a>
</g>
</g>
<!-- Node7&#45;&gt;Node8 -->
<g id="edge8_Node000007_Node000008" class="edge">
<title>Node7&#45;&gt;Node8</title>
<g id="a_edge8_Node000007_Node000008"><a xlink:title=" ">
<path fill="none" stroke="#63b8ff" d="M532.22,-168.54C560.88,-174.95 598.83,-183.42 629.35,-190.24"/>
<polygon fill="#63b8ff" stroke="#63b8ff" points="628.87,-193.72 639.4,-192.48 630.4,-186.89 628.87,-193.72"/>
</a>
</g>
</g>
<!-- Node9 -->
<g id="Node000009" class="node">
<title>Node9</title>
<g id="a_Node000009"><a xlink:href="group__VersionFunctions.html#ga546fbcfeb96704c283dd3b0d080daf11" target="_top" xlink:title="Get header information for program output.">
<polygon fill="white" stroke="#666666" points="739,-174 627,-174 627,-144 739,-144 739,-174"/>
<text text-anchor="start" x="635" y="-162" font-family="Helvetica,sans-Serif" font-size="10.00">GaussianExtractor::</text>
<text text-anchor="middle" x="683" y="-151" font-family="Helvetica,sans-Serif" font-size="10.00">get_header_info</text>
</a>
</g>
</g>
<!-- Node7&#45;&gt;Node9 -->
<g id="edge9_Node000007_Node000009" class="edge">
<title>Node7&#45;&gt;Node9</title>
<g id="a_edge9_Node000007_Node000009"><a xlink:title=" ">
<path fill="none" stroke="#63b8ff" d="M540.08,-159C563.48,-159 591.56,-159 616.56,-159"/>
<polygon fill="#63b8ff" stroke="#63b8ff" points="616.69,-162.5 626.69,-159 616.69,-155.5 616.69,-162.5"/>
</a>
</g>
</g>
<!-- Node11 -->
<g id="Node000011" class="node">
<title>Node11</title>
<g id="a_Node000011"><a xlink:href="group__CalculationHelpers.html#ga77837f5437ca34aa38ba7c9518d85480" target="_top" xlink:title="Calculate phase correction for concentration effects.">
<polygon fill="white" stroke="#666666" points="566,-128 411,-128 411,-98 566,-98 566,-128"/>
<text text-anchor="start" x="419" y="-116" font-family="Helvetica,sans-Serif" font-size="10.00">HighLevelEnergyCalculator</text>
<text text-anchor="middle" x="488.5" y="-105" font-family="Helvetica,sans-Serif" font-size="10.00">::calculate_phase_correction</text>
</a>
</g>
</g>
<!-- Node10&#45;&gt;Node11 -->
<g id="edge11_Node000010_Node000011" class="edge">
<title>Node10&#45;&gt;Node11</title>
<g id="a_edge11_Node000010_Node000011"><a xlink:title=" ">
<path fill="none" stroke="#63b8ff" d="M361.12,-113C373.99,-113 387.49,-113 400.67,-113"/>
<polygon fill="#63b8ff" stroke="#63b8ff" points="400.68,-116.5 410.68,-113 400.68,-109.5 400.68,-116.5"/>
</a>
</g>
</g>
<!-- Node12 -->
<g id="Node000012" class="node">
<title>Node12</title>
<g id="a_Node000012"><a xlink:href="group__EnergyExtraction.html#ga42389d55a3f27a4e7f077a16d956b957" target="_top" xlink:title="Extract specific energy value from log file using pattern matching.">
<polygon fill="white" stroke="#666666" points="563,-79 414,-79 414,-49 563,-49 563,-79"/>
<text text-anchor="start" x="422" y="-67" font-family="Helvetica,sans-Serif" font-size="10.00">HighLevelEnergyCalculator</text>
<text text-anchor="middle" x="488.5" y="-56" font-family="Helvetica,sans-Serif" font-size="10.00">::extract_value_from_file</text>
</a>
</g>
</g>
<!-- Node10&#45;&gt;Node12 -->
<g id="edge12_Node000010_Node000012" class="edge">
<title>Node10&#45;&gt;Node12</title>
<g id="a_edge12_Node000010_Node000012"><a xlink:title=" ">
<path fill="none" stroke="#63b8ff" d="M348.87,-97.97C370.17,-92.74 394.25,-86.85 416.29,-81.45"/>
<polygon fill="#63b8ff" stroke="#63b8ff" points="417.37,-84.79 426.25,-79.01 415.7,-77.99 417.37,-84.79"/>
</a>
</g>
</g>
<!-- Node13 -->
<g id="Node000013" class="node">
<title>Node13</title>
<g id="a_Node000013"><a xlink:href="structRegexPatterns.html#aeb75344b6b563c17108dbfaf60f486cc" target="_top" xlink:title=" ">
<polygon fill="white" stroke="#666666" points="737.5,-126 628.5,-126 628.5,-96 737.5,-96 737.5,-126"/>
<text text-anchor="start" x="636.5" y="-114" font-family="Helvetica,sans-Serif" font-size="10.00">RegexPatterns::get</text>
<text text-anchor="middle" x="683" y="-103" font-family="Helvetica,sans-Serif" font-size="10.00">_instance</text>
</a>
</g>
</g>
<!-- Node12&#45;&gt;Node13 -->
<g id="edge13_Node000012_Node000013" class="edge">
<title>Node12&#45;&gt;Node13</title>
<g id="a_edge13_Node000012_Node000013"><a xlink:title=" ">
<path fill="none" stroke="#63b8ff" d="M550.94,-79C572.5,-84.27 596.76,-90.19 618.49,-95.49"/>
<polygon fill="#63b8ff" stroke="#63b8ff" points="617.74,-98.91 628.28,-97.88 619.4,-92.11 617.74,-98.91"/>
</a>
</g>
</g>
<!-- Node14 -->
<g id="Node000014" class="node">
<title>Node14</title>
<g id="a_Node000014"><a xlink:href="classFileContentCache.html#affecb88aac28ec372fe984ab6ec0279c" target="_top" xlink:title=" ">
<polygon fill="white" stroke="#666666" points="745,-78 621,-78 621,-48 745,-48 745,-78"/>
<text text-anchor="start" x="629" y="-66" font-family="Helvetica,sans-Serif" font-size="10.00">FileContentCache::get</text>
<text text-anchor="middle" x="683" y="-55" font-family="Helvetica,sans-Serif" font-size="10.00">_or_read</text>
</a>
</g>
</g>
<!-- Node12&#45;&gt;Node14 -->
<g id="edge14_Node000012_Node000014" class="edge">
<title>Node12&#45;&gt;Node14</title>
<g id="a_edge14_Node000012_Node000014"><a xlink:title=" ">
<path fill="none" stroke="#63b8ff" d="M563.1,-63.62C578.77,-63.54 595.29,-63.45 610.87,-63.37"/>
<polygon fill="#63b8ff" stroke="#63b8ff" points="610.97,-66.87 620.95,-63.32 610.94,-59.87 610.97,-66.87"/>
</a>
</g>
</g>
<!-- Node15 -->
<g id="Node000015" class="node">
<title>Node15</title>
<g id="a_Node000015"><a xlink:href="group__SafetyHelpers.html#gaf25036f89725288871b9d856ca5f76ba" target="_top" xlink:title="Safe energy value parsing with validation.">
<polygon fill="white" stroke="#666666" points="757.5,-30 608.5,-30 608.5,0 757.5,0 757.5,-30"/>
<text text-anchor="start" x="616.5" y="-18" font-family="Helvetica,sans-Serif" font-size="10.00">HighLevelEnergyCalculator</text>
<text text-anchor="middle" x="683" y="-7" font-family="Helvetica,sans-Serif" font-size="10.00">::safe_parse_energy</text>
</a>
</g>
</g>
<!-- Node12&#45;&gt;Node15 -->
<g id="edge15_Node000012_Node000015" class="edge">
<title>Node12&#45;&gt;Node15</title>
<g id="a_edge15_Node000012_Node000015"><a xlink:title=" ">
<path fill="none" stroke="#63b8ff" d="M548.56,-48.97C568.98,-43.77 592.04,-37.9 613.17,-32.52"/>
<polygon fill="#63b8ff" stroke="#63b8ff" points="614.22,-35.86 623.05,-30.01 612.49,-29.08 614.22,-35.86"/>
</a>
</g>
</g>
</g>
</svg>
