<?xml version="1.0" encoding="UTF-8" standalone="no"?>
<!DOCTYPE svg PUBLIC "-//W3C//DTD SVG 1.1//EN"
 "http://www.w3.org/Graphics/SVG/1.1/DTD/svg11.dtd">
<!-- Generated by graphviz version 2.43.0 (0)
 -->
<!-- Title: HighLevelEnergyCalculator::print_components_format_dynamic Pages: 1 -->
<svg width="731pt" height="381pt"
 viewBox="0.00 0.00 731.00 380.50" xmlns="http://www.w3.org/2000/svg" xmlns:xlink="http://www.w3.org/1999/xlink">
<g id="graph0" class="graph" transform="scale(1 1) rotate(0) translate(4 376.5)">
<title>HighLevelEnergyCalculator::print_components_format_dynamic</title>
<!-- Node1 -->
<g id="Node000001" class="node">
<title>Node1</title>
<g id="a_Node000001"><a xlink:title="Print results in components format with dynamic column widths.">
<polygon fill="#999999" stroke="#666666" points="149,-253.5 0,-253.5 0,-212.5 149,-212.5 149,-253.5"/>
<text text-anchor="start" x="8" y="-241.5" font-family="Helvetica,sans-Serif" font-size="10.00">HighLevelEnergyCalculator</text>
<text text-anchor="start" x="8" y="-230.5" font-family="Helvetica,sans-Serif" font-size="10.00">::print_components_format</text>
<text text-anchor="middle" x="74.5" y="-219.5" font-family="Helvetica,sans-Serif" font-size="10.00">_dynamic</text>
</a>
</g>
</g>
<!-- Node2 -->
<g id="Node000002" class="node">
<title>Node2</title>
<g id="a_Node000002"><a xlink:href="group__DynamicFormatting.html#gad4102d396e74d81a81176b3e66a70142" target="_top" xlink:title="Calculate optimal column widths for components format output.">
<polygon fill="white" stroke="#666666" points="334,-372.5 185,-372.5 185,-331.5 334,-331.5 334,-372.5"/>
<text text-anchor="start" x="193" y="-360.5" font-family="Helvetica,sans-Serif" font-size="10.00">HighLevelEnergyCalculator</text>
<text text-anchor="start" x="193" y="-349.5" font-family="Helvetica,sans-Serif" font-size="10.00">::calculate_components</text>
<text text-anchor="middle" x="259.5" y="-338.5" font-family="Helvetica,sans-Serif" font-size="10.00">_column_widths</text>
</a>
</g>
</g>
<!-- Node1&#45;&gt;Node2 -->
<g id="edge1_Node000001_Node000002" class="edge">
<title>Node1&#45;&gt;Node2</title>
<g id="a_edge1_Node000001_Node000002"><a xlink:title=" ">
<path fill="none" stroke="#63b8ff" d="M99.23,-253.56C120.73,-271.59 153.74,-297.86 185,-317 190.46,-320.34 196.28,-323.6 202.18,-326.69"/>
<polygon fill="#63b8ff" stroke="#63b8ff" points="200.95,-329.99 211.45,-331.41 204.13,-323.75 200.95,-329.99"/>
</a>
</g>
</g>
<!-- Node3 -->
<g id="Node000003" class="node">
<title>Node3</title>
<g id="a_Node000003"><a xlink:href="group__OutputFormatting.html#ga86781939ef5359504029394ac39e0c96" target="_top" xlink:title="Format filename for display with length limit.">
<polygon fill="white" stroke="#666666" points="522,-342 373,-342 373,-312 522,-312 522,-342"/>
<text text-anchor="start" x="381" y="-330" font-family="Helvetica,sans-Serif" font-size="10.00">HighLevelEnergyCalculator</text>
<text text-anchor="middle" x="447.5" y="-319" font-family="Helvetica,sans-Serif" font-size="10.00">::format_filename</text>
</a>
</g>
</g>
<!-- Node1&#45;&gt;Node3 -->
<g id="edge3_Node000001_Node000003" class="edge">
<title>Node1&#45;&gt;Node3</title>
<g id="a_edge3_Node000001_Node000003"><a xlink:title=" ">
<path fill="none" stroke="#63b8ff" d="M113,-253.58C133.69,-264.12 160.15,-276.33 185,-284 243.01,-301.91 310.69,-312.78 362.67,-319.11"/>
<polygon fill="#63b8ff" stroke="#63b8ff" points="362.5,-322.61 372.84,-320.32 363.33,-315.66 362.5,-322.61"/>
</a>
</g>
</g>
<!-- Node4 -->
<g id="Node000004" class="node">
<title>Node4</title>
<g id="a_Node000004"><a xlink:href="group__FileUtilities.html#ga181c65f6b55859249f23a68e2f64f4bf" target="_top" xlink:title="Get corresponding parent directory file path.">
<polygon fill="white" stroke="#666666" points="334,-275 185,-275 185,-245 334,-245 334,-275"/>
<text text-anchor="start" x="193" y="-263" font-family="Helvetica,sans-Serif" font-size="10.00">HighLevelEnergyCalculator</text>
<text text-anchor="middle" x="259.5" y="-252" font-family="Helvetica,sans-Serif" font-size="10.00">::get_parent_file</text>
</a>
</g>
</g>
<!-- Node1&#45;&gt;Node4 -->
<g id="edge4_Node000001_Node000004" class="edge">
<title>Node1&#45;&gt;Node4</title>
<g id="a_edge4_Node000001_Node000004"><a xlink:title=" ">
<path fill="none" stroke="#63b8ff" d="M149.14,-243.87C157.57,-245.11 166.2,-246.38 174.74,-247.64"/>
<polygon fill="#63b8ff" stroke="#63b8ff" points="174.31,-251.12 184.71,-249.11 175.33,-244.19 174.31,-251.12"/>
</a>
</g>
</g>
<!-- Node5 -->
<g id="Node000005" class="node">
<title>Node5</title>
<g id="a_Node000005"><a xlink:href="group__DynamicFormatting.html#ga82ffc2b25fe8b393d1c0a21a2eb5d9a0" target="_top" xlink:title="Print header for components format with dynamic column widths.">
<polygon fill="white" stroke="#666666" points="334,-226.5 185,-226.5 185,-185.5 334,-185.5 334,-226.5"/>
<text text-anchor="start" x="193" y="-214.5" font-family="Helvetica,sans-Serif" font-size="10.00">HighLevelEnergyCalculator</text>
<text text-anchor="start" x="193" y="-203.5" font-family="Helvetica,sans-Serif" font-size="10.00">::print_components_header</text>
<text text-anchor="middle" x="259.5" y="-192.5" font-family="Helvetica,sans-Serif" font-size="10.00">_dynamic</text>
</a>
</g>
</g>
<!-- Node1&#45;&gt;Node5 -->
<g id="edge5_Node000001_Node000005" class="edge">
<title>Node1&#45;&gt;Node5</title>
<g id="a_edge5_Node000001_Node000005"><a xlink:title=" ">
<path fill="none" stroke="#63b8ff" d="M149.14,-222.13C157.57,-220.89 166.2,-219.62 174.74,-218.36"/>
<polygon fill="#63b8ff" stroke="#63b8ff" points="175.33,-221.81 184.71,-216.89 174.31,-214.88 175.33,-221.81"/>
</a>
</g>
</g>
<!-- Node6 -->
<g id="Node000006" class="node">
<title>Node6</title>
<g id="a_Node000006"><a xlink:href="high__level__energy_8cpp.html#a4ef54a725bad93aecbd43800acfbf532" target="_top" xlink:title=" ">
<polygon fill="white" stroke="#666666" points="310,-167.5 209,-167.5 209,-148.5 310,-148.5 310,-167.5"/>
<text text-anchor="middle" x="259.5" y="-155.5" font-family="Helvetica,sans-Serif" font-size="10.00">print_header_box</text>
</a>
</g>
</g>
<!-- Node1&#45;&gt;Node6 -->
<g id="edge6_Node000001_Node000006" class="edge">
<title>Node1&#45;&gt;Node6</title>
<g id="a_edge6_Node000001_Node000006"><a xlink:title=" ">
<path fill="none" stroke="#63b8ff" d="M111.09,-212.28C132.07,-200.7 159.45,-186.7 185,-177 191.37,-174.58 198.17,-172.36 204.97,-170.36"/>
<polygon fill="#63b8ff" stroke="#63b8ff" points="206.18,-173.66 214.86,-167.59 204.29,-166.92 206.18,-173.66"/>
</a>
</g>
</g>
<!-- Node10 -->
<g id="Node000010" class="node">
<title>Node10</title>
<g id="a_Node000010"><a xlink:href="group__OutputFormatting.html#ga127aea9652788ee774b4d8d1f2602959" target="_top" xlink:title="Print summary information about calculation.">
<polygon fill="white" stroke="#666666" points="334,-128 185,-128 185,-98 334,-98 334,-128"/>
<text text-anchor="start" x="193" y="-116" font-family="Helvetica,sans-Serif" font-size="10.00">HighLevelEnergyCalculator</text>
<text text-anchor="middle" x="259.5" y="-105" font-family="Helvetica,sans-Serif" font-size="10.00">::print_summary_info</text>
</a>
</g>
</g>
<!-- Node1&#45;&gt;Node10 -->
<g id="edge10_Node000001_Node000010" class="edge">
<title>Node1&#45;&gt;Node10</title>
<g id="a_edge10_Node000001_Node000010"><a xlink:title=" ">
<path fill="none" stroke="#63b8ff" d="M95.22,-212.44C115.95,-191.8 150.31,-160.23 185,-140 189.96,-137.1 195.29,-134.43 200.73,-131.98"/>
<polygon fill="#63b8ff" stroke="#63b8ff" points="202.11,-135.2 209.94,-128.07 199.37,-128.75 202.11,-135.2"/>
</a>
</g>
</g>
<!-- Node2&#45;&gt;Node3 -->
<g id="edge2_Node000002_Node000003" class="edge">
<title>Node2&#45;&gt;Node3</title>
<g id="a_edge2_Node000002_Node000003"><a xlink:title=" ">
<path fill="none" stroke="#63b8ff" d="M334.01,-342.12C343.51,-340.84 353.29,-339.53 362.93,-338.23"/>
<polygon fill="#63b8ff" stroke="#63b8ff" points="363.47,-341.69 372.91,-336.89 362.54,-334.75 363.47,-341.69"/>
</a>
</g>
</g>
<!-- Node7 -->
<g id="Node000007" class="node">
<title>Node7</title>
<g id="a_Node000007"><a xlink:href="namespaceMetadata.html#a4447a0ff55fb6119acf046c55f0729d8" target="_top" xlink:title="Build the standard header banner shown at the top of outputs.">
<polygon fill="white" stroke="#666666" points="499,-168.5 396,-168.5 396,-149.5 499,-149.5 499,-168.5"/>
<text text-anchor="middle" x="447.5" y="-156.5" font-family="Helvetica,sans-Serif" font-size="10.00">Metadata::header</text>
</a>
</g>
</g>
<!-- Node6&#45;&gt;Node7 -->
<g id="edge7_Node000006_Node000007" class="edge">
<title>Node6&#45;&gt;Node7</title>
<g id="a_edge7_Node000006_Node000007"><a xlink:title=" ">
<path fill="none" stroke="#63b8ff" d="M310.34,-158.27C333.51,-158.39 361.26,-158.54 385.65,-158.67"/>
<polygon fill="#63b8ff" stroke="#63b8ff" points="385.85,-162.17 395.87,-158.73 385.89,-155.17 385.85,-162.17"/>
</a>
</g>
</g>
<!-- Node8 -->
<g id="Node000008" class="node">
<title>Node8</title>
<g id="a_Node000008"><a xlink:href="namespaceMetadata.html#ab855c758bd53604611f38268f1c58481" target="_top" xlink:title=" ">
<polygon fill="white" stroke="#666666" points="723,-211.5 561,-211.5 561,-192.5 723,-192.5 723,-211.5"/>
<text text-anchor="middle" x="642" y="-199.5" font-family="Helvetica,sans-Serif" font-size="10.00">Metadata::create_header_line</text>
</a>
</g>
</g>
<!-- Node7&#45;&gt;Node8 -->
<g id="edge8_Node000007_Node000008" class="edge">
<title>Node7&#45;&gt;Node8</title>
<g id="a_edge8_Node000007_Node000008"><a xlink:title=" ">
<path fill="none" stroke="#63b8ff" d="M491.22,-168.54C519.88,-174.95 557.83,-183.42 588.35,-190.24"/>
<polygon fill="#63b8ff" stroke="#63b8ff" points="587.87,-193.72 598.4,-192.48 589.4,-186.89 587.87,-193.72"/>
</a>
</g>
</g>
<!-- Node9 -->
<g id="Node000009" class="node">
<title>Node9</title>
<g id="a_Node000009"><a xlink:href="group__VersionFunctions.html#ga546fbcfeb96704c283dd3b0d080daf11" target="_top" xlink:title="Get header information for program output.">
<polygon fill="white" stroke="#666666" points="698,-174 586,-174 586,-144 698,-144 698,-174"/>
<text text-anchor="start" x="594" y="-162" font-family="Helvetica,sans-Serif" font-size="10.00">GaussianExtractor::</text>
<text text-anchor="middle" x="642" y="-151" font-family="Helvetica,sans-Serif" font-size="10.00">get_header_info</text>
</a>
</g>
</g>
<!-- Node7&#45;&gt;Node9 -->
<g id="edge9_Node000007_Node000009" class="edge">
<title>Node7&#45;&gt;Node9</title>
<g id="a_edge9_Node000007_Node000009"><a xlink:title=" ">
<path fill="none" stroke="#63b8ff" d="M499.08,-159C522.48,-159 550.56,-159 575.56,-159"/>
<polygon fill="#63b8ff" stroke="#63b8ff" points="575.69,-162.5 585.69,-159 575.69,-155.5 575.69,-162.5"/>
</a>
</g>
</g>
<!-- Node11 -->
<g id="Node000011" class="node">
<title>Node11</title>
<g id="a_Node000011"><a xlink:href="group__CalculationHelpers.html#ga77837f5437ca34aa38ba7c9518d85480" target="_top" xlink:title="Calculate phase correction for concentration effects.">
<polygon fill="white" stroke="#666666" points="525,-128 370,-128 370,-98 525,-98 525,-128"/>
<text text-anchor="start" x="378" y="-116" font-family="Helvetica,sans-Serif" font-size="10.00">HighLevelEnergyCalculator</text>
<text text-anchor="middle" x="447.5" y="-105" font-family="Helvetica,sans-Serif" font-size="10.00">::calculate_phase_correction</text>
</a>
</g>
</g>
<!-- Node10&#45;&gt;Node11 -->
<g id="edge11_Node000010_Node000011" class="edge">
<title>Node10&#45;&gt;Node11</title>
<g id="a_edge11_Node000010_Node000011"><a xlink:title=" ">
<path fill="none" stroke="#63b8ff" d="M334.01,-113C342.48,-113 351.17,-113 359.79,-113"/>
<polygon fill="#63b8ff" stroke="#63b8ff" points="359.86,-116.5 369.86,-113 359.86,-109.5 359.86,-116.5"/>
</a>
</g>
</g>
<!-- Node12 -->
<g id="Node000012" class="node">
<title>Node12</title>
<g id="a_Node000012"><a xlink:href="group__EnergyExtraction.html#ga42389d55a3f27a4e7f077a16d956b957" target="_top" xlink:title="Extract specific energy value from log file using pattern matching.">
<polygon fill="white" stroke="#666666" points="522,-79 373,-79 373,-49 522,-49 522,-79"/>
<text text-anchor="start" x="381" y="-67" font-family="Helvetica,sans-Serif" font-size="10.00">HighLevelEnergyCalculator</text>
<text text-anchor="middle" x="447.5" y="-56" font-family="Helvetica,sans-Serif" font-size="10.00">::extract_value_from_file</text>
</a>
</g>
</g>
<!-- Node10&#45;&gt;Node12 -->
<g id="edge12_Node000010_Node000012" class="edge">
<title>Node10&#45;&gt;Node12</title>
<g id="a_edge12_Node000010_Node000012"><a xlink:title=" ">
<path fill="none" stroke="#63b8ff" d="M317.57,-97.97C337.21,-92.79 359.37,-86.95 379.72,-81.59"/>
<polygon fill="#63b8ff" stroke="#63b8ff" points="380.76,-84.94 389.54,-79.01 378.98,-78.17 380.76,-84.94"/>
</a>
</g>
</g>
<!-- Node13 -->
<g id="Node000013" class="node">
<title>Node13</title>
<g id="a_Node000013"><a xlink:href="structRegexPatterns.html#aeb75344b6b563c17108dbfaf60f486cc" target="_top" xlink:title=" ">
<polygon fill="white" stroke="#666666" points="696.5,-126 587.5,-126 587.5,-96 696.5,-96 696.5,-126"/>
<text text-anchor="start" x="595.5" y="-114" font-family="Helvetica,sans-Serif" font-size="10.00">RegexPatterns::get</text>
<text text-anchor="middle" x="642" y="-103" font-family="Helvetica,sans-Serif" font-size="10.00">_instance</text>
</a>
</g>
</g>
<!-- Node12&#45;&gt;Node13 -->
<g id="edge13_Node000012_Node000013" class="edge">
<title>Node12&#45;&gt;Node13</title>
<g id="a_edge13_Node000012_Node000013"><a xlink:title=" ">
<path fill="none" stroke="#63b8ff" d="M509.94,-79C531.5,-84.27 555.76,-90.19 577.49,-95.49"/>
<polygon fill="#63b8ff" stroke="#63b8ff" points="576.74,-98.91 587.28,-97.88 578.4,-92.11 576.74,-98.91"/>
</a>
</g>
</g>
<!-- Node14 -->
<g id="Node000014" class="node">
<title>Node14</title>
<g id="a_Node000014"><a xlink:href="classFileContentCache.html#affecb88aac28ec372fe984ab6ec0279c" target="_top" xlink:title=" ">
<polygon fill="white" stroke="#666666" points="704,-78 580,-78 580,-48 704,-48 704,-78"/>
<text text-anchor="start" x="588" y="-66" font-family="Helvetica,sans-Serif" font-size="10.00">FileContentCache::get</text>
<text text-anchor="middle" x="642" y="-55" font-family="Helvetica,sans-Serif" font-size="10.00">_or_read</text>
</a>
</g>
</g>
<!-- Node12&#45;&gt;Node14 -->
<g id="edge14_Node000012_Node000014" class="edge">
<title>Node12&#45;&gt;Node14</title>
<g id="a_edge14_Node000012_Node000014"><a xlink:title=" ">
<path fill="none" stroke="#63b8ff" d="M522.1,-63.62C537.77,-63.54 554.29,-63.45 569.87,-63.37"/>
<polygon fill="#63b8ff" stroke="#63b8ff" points="569.97,-66.87 579.95,-63.32 569.94,-59.87 569.97,-66.87"/>
</a>
</g>
</g>
<!-- Node15 -->
<g id="Node000015" class="node">
<title>Node15</title>
<g id="a_Node000015"><a xlink:href="group__SafetyHelpers.html#gaf25036f89725288871b9d856ca5f76ba" target="_top" xlink:title="Safe energy value parsing with validation.">
<polygon fill="white" stroke="#666666" points="716.5,-30 567.5,-30 567.5,0 716.5,0 716.5,-30"/>
<text text-anchor="start" x="575.5" y="-18" font-family="Helvetica,sans-Serif" font-size="10.00">HighLevelEnergyCalculator</text>
<text text-anchor="middle" x="642" y="-7" font-family="Helvetica,sans-Serif" font-size="10.00">::safe_parse_energy</text>
</a>
</g>
</g>
<!-- Node12&#45;&gt;Node15 -->
<g id="edge15_Node000012_Node000015" class="edge">
<title>Node12&#45;&gt;Node15</title>
<g id="a_edge15_Node000012_Node000015"><a xlink:title=" ">
<path fill="none" stroke="#63b8ff" d="M507.56,-48.97C527.98,-43.77 551.04,-37.9 572.17,-32.52"/>
<polygon fill="#63b8ff" stroke="#63b8ff" points="573.22,-35.86 582.05,-30.01 571.49,-29.08 573.22,-35.86"/>
</a>
</g>
</g>
</g>
</svg>
