<?xml version="1.0" encoding="UTF-8" standalone="no"?>
<!DOCTYPE svg PUBLIC "-//W3C//DTD SVG 1.1//EN"
 "http://www.w3.org/Graphics/SVG/1.1/DTD/svg11.dtd">
<!-- Generated by graphviz version 2.43.0 (0)
 -->
<!-- Title: ConfigManager::apply_command_line_overrides Pages: 1 -->
<svg width="494pt" height="89pt"
 viewBox="0.00 0.00 494.00 89.11" xmlns="http://www.w3.org/2000/svg" xmlns:xlink="http://www.w3.org/1999/xlink">
<g id="graph0" class="graph" transform="scale(1 1) rotate(0) translate(4 85.11)">
<title>ConfigManager::apply_command_line_overrides</title>
<!-- Node1 -->
<g id="Node000001" class="node">
<title>Node1</title>
<g id="a_Node000001"><a xlink:title="Apply command&#45;line configuration overrides.">
<polygon fill="#999999" stroke="#666666" points="145,-73 0,-73 0,-43 145,-43 145,-73"/>
<text text-anchor="start" x="8" y="-61" font-family="Helvetica,sans-Serif" font-size="10.00">ConfigManager::apply</text>
<text text-anchor="middle" x="72.5" y="-50" font-family="Helvetica,sans-Serif" font-size="10.00">_command_line_overrides</text>
</a>
</g>
</g>
<!-- Node2 -->
<g id="Node000002" class="node">
<title>Node2</title>
<g id="a_Node000002"><a xlink:href="group__ConfigInternals.html#ga5e387d61b1f34873cd3ab047242b2aad" target="_top" xlink:title="Template method for type&#45;safe value conversion.">
<polygon fill="white" stroke="#666666" points="486,-73 353,-73 353,-43 486,-43 486,-73"/>
<text text-anchor="start" x="361" y="-61" font-family="Helvetica,sans-Serif" font-size="10.00">ConfigManager::convert</text>
<text text-anchor="middle" x="419.5" y="-50" font-family="Helvetica,sans-Serif" font-size="10.00">_value</text>
</a>
</g>
</g>
<!-- Node1&#45;&gt;Node2 -->
<g id="edge1_Node000001_Node000002" class="edge">
<title>Node1&#45;&gt;Node2</title>
<g id="a_edge1_Node000001_Node000002"><a xlink:title=" ">
<path fill="none" stroke="#63b8ff" d="M145.26,-72.47C157.15,-74.36 169.39,-75.98 181,-77 241.21,-82.28 256.81,-82.58 317,-77 325.4,-76.22 334.15,-75.08 342.83,-73.75"/>
<polygon fill="#63b8ff" stroke="#63b8ff" points="343.65,-77.16 352.96,-72.1 342.53,-70.25 343.65,-77.16"/>
</a>
</g>
</g>
<!-- Node3 -->
<g id="Node000003" class="node">
<title>Node3</title>
<g id="a_Node000003"><a xlink:href="group__ConfigQueries.html#gaa862b475d38c889c610f83f764fbd847" target="_top" xlink:title="Check if a configuration key exists.">
<polygon fill="white" stroke="#666666" points="317,-67.5 181,-67.5 181,-48.5 317,-48.5 317,-67.5"/>
<text text-anchor="middle" x="249" y="-55.5" font-family="Helvetica,sans-Serif" font-size="10.00">ConfigManager::has_key</text>
</a>
</g>
</g>
<!-- Node1&#45;&gt;Node3 -->
<g id="edge2_Node000001_Node000003" class="edge">
<title>Node1&#45;&gt;Node3</title>
<g id="a_edge2_Node000001_Node000003"><a xlink:title=" ">
<path fill="none" stroke="#63b8ff" d="M145.23,-58C153.59,-58 162.13,-58 170.56,-58"/>
<polygon fill="#63b8ff" stroke="#63b8ff" points="170.76,-61.5 180.76,-58 170.76,-54.5 170.76,-61.5"/>
</a>
</g>
</g>
<!-- Node4 -->
<g id="Node000004" class="node">
<title>Node4</title>
<g id="a_Node000004"><a xlink:href="group__ConfigValueSetters.html#ga8aada98529c5d039d7bb37daa6d32859" target="_top" xlink:title="Set string configuration value at runtime.">
<polygon fill="white" stroke="#666666" points="304.5,-30 193.5,-30 193.5,0 304.5,0 304.5,-30"/>
<text text-anchor="start" x="201.5" y="-18" font-family="Helvetica,sans-Serif" font-size="10.00">ConfigManager::set</text>
<text text-anchor="middle" x="249" y="-7" font-family="Helvetica,sans-Serif" font-size="10.00">_value</text>
</a>
</g>
</g>
<!-- Node1&#45;&gt;Node4 -->
<g id="edge4_Node000001_Node000004" class="edge">
<title>Node1&#45;&gt;Node4</title>
<g id="a_edge4_Node000001_Node000004"><a xlink:title=" ">
<path fill="none" stroke="#63b8ff" d="M134.53,-42.96C150.4,-39.05 167.55,-34.82 183.59,-30.87"/>
<polygon fill="#63b8ff" stroke="#63b8ff" points="184.54,-34.24 193.41,-28.45 182.86,-27.45 184.54,-34.24"/>
</a>
</g>
</g>
<!-- Node3&#45;&gt;Node2 -->
<g id="edge3_Node000003_Node000002" class="edge">
<title>Node3&#45;&gt;Node2</title>
<g id="a_edge3_Node000003_Node000002"><a xlink:title=" ">
<path fill="none" stroke="#63b8ff" d="M317.08,-58C325.43,-58 334.02,-58 342.49,-58"/>
<polygon fill="#63b8ff" stroke="#63b8ff" points="342.75,-61.5 352.75,-58 342.75,-54.5 342.75,-61.5"/>
</a>
</g>
</g>
<!-- Node4&#45;&gt;Node2 -->
<g id="edge5_Node000004_Node000002" class="edge">
<title>Node4&#45;&gt;Node2</title>
<g id="a_edge5_Node000004_Node000002"><a xlink:title=" ">
<path fill="none" stroke="#63b8ff" d="M304.71,-28.96C319.13,-32.64 334.88,-36.66 349.94,-40.5"/>
<polygon fill="#63b8ff" stroke="#63b8ff" points="349.16,-43.92 359.71,-43 350.89,-37.13 349.16,-43.92"/>
</a>
</g>
</g>
</g>
</svg>
