<?xml version="1.0" encoding="UTF-8" standalone="no"?>
<!DOCTYPE svg PUBLIC "-//W3C//DTD SVG 1.1//EN"
 "http://www.w3.org/Graphics/SVG/1.1/DTD/svg11.dtd">
<!-- Generated by graphviz version 2.43.0 (0)
 -->
<!-- Title: ConfigUtils::get_config_search_paths Pages: 1 -->
<svg width="716pt" height="65pt"
 viewBox="0.00 0.00 716.00 65.00" xmlns="http://www.w3.org/2000/svg" xmlns:xlink="http://www.w3.org/1999/xlink">
<g id="graph0" class="graph" transform="scale(1 1) rotate(0) translate(4 61)">
<title>ConfigUtils::get_config_search_paths</title>
<!-- Node1 -->
<g id="Node000001" class="node">
<title>Node1</title>
<g id="a_Node000001"><a xlink:title="Get formatted string of configuration file search paths.">
<polygon fill="#999999" stroke="#666666" points="708,-43.5 582,-43.5 582,-13.5 708,-13.5 708,-43.5"/>
<text text-anchor="start" x="590" y="-31.5" font-family="Helvetica,sans-Serif" font-size="10.00">ConfigUtils::get_config</text>
<text text-anchor="middle" x="645" y="-20.5" font-family="Helvetica,sans-Serif" font-size="10.00">_search_paths</text>
</a>
</g>
</g>
<!-- Node2 -->
<g id="Node000002" class="node">
<title>Node2</title>
<g id="a_Node000002"><a xlink:href="namespaceHelpUtils.html#a2fb76d8b3311bed23a95981b9f07c135" target="_top" xlink:title="Print configuration help information.">
<polygon fill="white" stroke="#666666" points="546,-38 395,-38 395,-19 546,-19 546,-38"/>
<text text-anchor="middle" x="470.5" y="-26" font-family="Helvetica,sans-Serif" font-size="10.00">HelpUtils::print_config_help</text>
</a>
</g>
</g>
<!-- Node1&#45;&gt;Node2 -->
<g id="edge1_Node000001_Node000002" class="edge">
<title>Node1&#45;&gt;Node2</title>
<g id="a_edge1_Node000001_Node000002"><a xlink:title=" ">
<path fill="none" stroke="#63b8ff" d="M571.55,-28.5C563.11,-28.5 554.5,-28.5 546.03,-28.5"/>
<polygon fill="#63b8ff" stroke="#63b8ff" points="571.72,-32 581.72,-28.5 571.72,-25 571.72,-32"/>
</a>
</g>
</g>
<!-- Node3 -->
<g id="Node000003" class="node">
<title>Node3</title>
<g id="a_Node000003"><a xlink:href="group__CommandExecutors.html#ga2c1ceafe241a0b4e19790bb5d878ed1a" target="_top" xlink:title="Parse command&#45;line arguments and create execution context.">
<polygon fill="white" stroke="#666666" points="359,-57 229,-57 229,-38 359,-38 359,-57"/>
<text text-anchor="middle" x="294" y="-45" font-family="Helvetica,sans-Serif" font-size="10.00">CommandParser::parse</text>
</a>
</g>
</g>
<!-- Node2&#45;&gt;Node3 -->
<g id="edge2_Node000002_Node000003" class="edge">
<title>Node2&#45;&gt;Node3</title>
<g id="a_edge2_Node000002_Node000003"><a xlink:title=" ">
<path fill="none" stroke="#63b8ff" d="M384.85,-37.72C376.18,-38.66 367.48,-39.61 359.09,-40.52"/>
<polygon fill="#63b8ff" stroke="#63b8ff" points="385.43,-41.17 394.99,-36.61 384.67,-34.22 385.43,-41.17"/>
</a>
</g>
</g>
<!-- Node5 -->
<g id="Node000005" class="node">
<title>Node5</title>
<g id="a_Node000005"><a xlink:href="interactive__mode_8cpp.html#a6b615c34054150d837dc45ed1c17b297" target="_top" xlink:title="Enhanced interactive command loop with TAB completion for Windows.">
<polygon fill="white" stroke="#666666" points="193,-19 77,-19 77,0 193,0 193,-19"/>
<text text-anchor="middle" x="135" y="-7" font-family="Helvetica,sans-Serif" font-size="10.00">run_interactive_loop</text>
</a>
</g>
</g>
<!-- Node2&#45;&gt;Node5 -->
<g id="edge6_Node000002_Node000005" class="edge">
<title>Node2&#45;&gt;Node5</title>
<g id="a_edge6_Node000002_Node000005"><a xlink:title=" ">
<path fill="none" stroke="#63b8ff" d="M384.45,-23.65C324.49,-20.24 245.82,-15.76 193.22,-12.76"/>
<polygon fill="#63b8ff" stroke="#63b8ff" points="384.47,-27.16 394.66,-24.24 384.87,-20.17 384.47,-27.16"/>
</a>
</g>
</g>
<!-- Node4 -->
<g id="Node000004" class="node">
<title>Node4</title>
<g id="a_Node000004"><a xlink:href="main_8cpp.html#a0ddf1224851353fc92bfbff6f499fa97" target="_top" xlink:title="Main entry point for the Gaussian Extractor application.">
<polygon fill="white" stroke="#666666" points="41,-38 0,-38 0,-19 41,-19 41,-38"/>
<text text-anchor="middle" x="20.5" y="-26" font-family="Helvetica,sans-Serif" font-size="10.00">main</text>
</a>
</g>
</g>
<!-- Node3&#45;&gt;Node4 -->
<g id="edge3_Node000003_Node000004" class="edge">
<title>Node3&#45;&gt;Node4</title>
<g id="a_edge3_Node000003_Node000004"><a xlink:title=" ">
<path fill="none" stroke="#63b8ff" d="M218.42,-42.28C158.19,-38.07 77.65,-32.43 41.06,-29.87"/>
<polygon fill="#63b8ff" stroke="#63b8ff" points="218.44,-45.79 228.66,-43 218.93,-38.81 218.44,-45.79"/>
</a>
</g>
</g>
<!-- Node3&#45;&gt;Node5 -->
<g id="edge4_Node000003_Node000005" class="edge">
<title>Node3&#45;&gt;Node5</title>
<g id="a_edge4_Node000003_Node000005"><a xlink:title=" ">
<path fill="none" stroke="#63b8ff" d="M243.55,-35.53C221.55,-30.21 196.01,-24.02 175.33,-19.02"/>
<polygon fill="#63b8ff" stroke="#63b8ff" points="242.84,-38.96 253.38,-37.91 244.49,-32.16 242.84,-38.96"/>
</a>
</g>
</g>
<!-- Node5&#45;&gt;Node4 -->
<g id="edge5_Node000005_Node000004" class="edge">
<title>Node5&#45;&gt;Node4</title>
<g id="a_edge5_Node000005_Node000004"><a xlink:title=" ">
<path fill="none" stroke="#63b8ff" d="M67.4,-20.75C57.88,-22.36 48.77,-23.89 41.22,-25.17"/>
<polygon fill="#63b8ff" stroke="#63b8ff" points="68.14,-24.17 77.42,-19.06 66.98,-17.27 68.14,-24.17"/>
</a>
</g>
</g>
</g>
</svg>
