<?xml version="1.0" encoding="UTF-8" standalone="no"?>
<!DOCTYPE svg PUBLIC "-//W3C//DTD SVG 1.1//EN"
 "http://www.w3.org/Graphics/SVG/1.1/DTD/svg11.dtd">
<!-- Generated by graphviz version 2.43.0 (0)
 -->
<!-- Title: ConfigManager::print_config_summary Pages: 1 -->
<svg width="444pt" height="59pt"
 viewBox="0.00 0.00 444.00 59.00" xmlns="http://www.w3.org/2000/svg" xmlns:xlink="http://www.w3.org/1999/xlink">
<g id="graph0" class="graph" transform="scale(1 1) rotate(0) translate(4 55)">
<title>ConfigManager::print_config_summary</title>
<!-- Node1 -->
<g id="Node000001" class="node">
<title>Node1</title>
<g id="a_Node000001"><a xlink:title="Print summary of current configuration values.">
<polygon fill="#999999" stroke="#666666" points="119,-51 0,-51 0,-21 119,-21 119,-51"/>
<text text-anchor="start" x="8" y="-39" font-family="Helvetica,sans-Serif" font-size="10.00">ConfigManager::print</text>
<text text-anchor="middle" x="59.5" y="-28" font-family="Helvetica,sans-Serif" font-size="10.00">_config_summary</text>
</a>
</g>
</g>
<!-- Node2 -->
<g id="Node000002" class="node">
<title>Node2</title>
<g id="a_Node000002"><a xlink:href="group__ConfigInternals.html#ga5e387d61b1f34873cd3ab047242b2aad" target="_top" xlink:title="Template method for type&#45;safe value conversion.">
<polygon fill="white" stroke="#666666" points="436,-51 303,-51 303,-21 436,-21 436,-51"/>
<text text-anchor="start" x="311" y="-39" font-family="Helvetica,sans-Serif" font-size="10.00">ConfigManager::convert</text>
<text text-anchor="middle" x="369.5" y="-28" font-family="Helvetica,sans-Serif" font-size="10.00">_value</text>
</a>
</g>
</g>
<!-- Node1&#45;&gt;Node2 -->
<g id="edge1_Node000001_Node000002" class="edge">
<title>Node1&#45;&gt;Node2</title>
<g id="a_edge1_Node000001_Node000002"><a xlink:title=" ">
<path fill="none" stroke="#63b8ff" d="M119.22,-38.15C131.06,-38.51 143.43,-38.82 155,-39 204.77,-39.79 217.23,-39.74 267,-39 275.36,-38.88 284.11,-38.7 292.81,-38.48"/>
<polygon fill="#63b8ff" stroke="#63b8ff" points="293.08,-41.98 302.99,-38.22 292.9,-34.98 293.08,-41.98"/>
</a>
</g>
</g>
<!-- Node3 -->
<g id="Node000003" class="node">
<title>Node3</title>
<g id="a_Node000003"><a xlink:href="group__ConfigQueries.html#ga3a9a6a1e548b293dd0672222a18594eb" target="_top" xlink:title="Get all configuration keys belonging to a specific category.">
<polygon fill="white" stroke="#666666" points="267,-30 155,-30 155,0 267,0 267,-30"/>
<text text-anchor="start" x="163" y="-18" font-family="Helvetica,sans-Serif" font-size="10.00">ConfigManager::get</text>
<text text-anchor="middle" x="211" y="-7" font-family="Helvetica,sans-Serif" font-size="10.00">_keys_by_category</text>
</a>
</g>
</g>
<!-- Node1&#45;&gt;Node3 -->
<g id="edge2_Node000001_Node000003" class="edge">
<title>Node1&#45;&gt;Node3</title>
<g id="a_edge2_Node000001_Node000003"><a xlink:title=" ">
<path fill="none" stroke="#63b8ff" d="M119.16,-27.76C127.62,-26.57 136.38,-25.34 144.96,-24.14"/>
<polygon fill="#63b8ff" stroke="#63b8ff" points="145.51,-27.59 154.93,-22.74 144.54,-20.66 145.51,-27.59"/>
</a>
</g>
</g>
<!-- Node3&#45;&gt;Node2 -->
<g id="edge3_Node000003_Node000002" class="edge">
<title>Node3&#45;&gt;Node2</title>
<g id="a_edge3_Node000003_Node000002"><a xlink:title=" ">
<path fill="none" stroke="#63b8ff" d="M267.18,-22.4C275.46,-23.52 284.13,-24.68 292.75,-25.84"/>
<polygon fill="#63b8ff" stroke="#63b8ff" points="292.46,-29.33 302.83,-27.19 293.39,-22.39 292.46,-29.33"/>
</a>
</g>
</g>
</g>
</svg>
