<?xml version="1.0" encoding="UTF-8" standalone="no"?>
<!DOCTYPE svg PUBLIC "-//W3C//DTD SVG 1.1//EN"
 "http://www.w3.org/Graphics/SVG/1.1/DTD/svg11.dtd">
<!-- Generated by graphviz version 2.43.0 (0)
 -->
<!-- Title: ConfigManager::get_int Pages: 1 -->
<svg width="1034pt" height="157pt"
 viewBox="0.00 0.00 1034.00 157.00" xmlns="http://www.w3.org/2000/svg" xmlns:xlink="http://www.w3.org/1999/xlink">
<g id="graph0" class="graph" transform="scale(1 1) rotate(0) translate(4 153)">
<title>ConfigManager::get_int</title>
<!-- Node1 -->
<g id="Node000001" class="node">
<title>Node1</title>
<g id="a_Node000001"><a xlink:title="Get integer configuration value.">
<polygon fill="#999999" stroke="#666666" points="1026,-109.5 896,-109.5 896,-90.5 1026,-90.5 1026,-109.5"/>
<text text-anchor="middle" x="961" y="-97.5" font-family="Helvetica,sans-Serif" font-size="10.00">ConfigManager::get_int</text>
</a>
</g>
</g>
<!-- Node1&#45;&gt;Node1 -->
<g id="edge6_Node000001_Node000001" class="edge">
<title>Node1&#45;&gt;Node1</title>
<g id="a_edge6_Node000001_Node000001"><a xlink:title=" ">
<path fill="none" stroke="#63b8ff" d="M992.44,-117.95C991.54,-123.32 981.06,-127.5 961,-127.5 931.14,-127.5 922.51,-118.23 935.11,-109.58"/>
<polygon fill="#63b8ff" stroke="#63b8ff" points="995.34,-115.99 986.89,-109.58 989.5,-119.85 995.34,-115.99"/>
</a>
</g>
</g>
<!-- Node2 -->
<g id="Node000002" class="node">
<title>Node2</title>
<g id="a_Node000002"><a xlink:href="group__CommandExecutors.html#ga9fcc8aa9bb1408d529764d3767029d02" target="_top" xlink:title="Apply configuration values to command context.">
<polygon fill="white" stroke="#666666" points="688,-149 558,-149 558,-119 688,-119 688,-149"/>
<text text-anchor="start" x="566" y="-137" font-family="Helvetica,sans-Serif" font-size="10.00">CommandParser::apply</text>
<text text-anchor="middle" x="623" y="-126" font-family="Helvetica,sans-Serif" font-size="10.00">_config_to_context</text>
</a>
</g>
</g>
<!-- Node1&#45;&gt;Node2 -->
<g id="edge1_Node000001_Node000002" class="edge">
<title>Node1&#45;&gt;Node2</title>
<g id="a_edge1_Node000001_Node000002"><a xlink:title=" ">
<path fill="none" stroke="#63b8ff" d="M885.58,-107.53C826.41,-113.52 744.48,-121.81 688.17,-127.51"/>
<polygon fill="#63b8ff" stroke="#63b8ff" points="886.02,-111 895.61,-106.52 885.31,-104.04 886.02,-111"/>
</a>
</g>
</g>
<!-- Node6 -->
<g id="Node000006" class="node">
<title>Node6</title>
<g id="a_Node000006"><a xlink:href="group__ConfigValidation.html#ga3b0a3320c46ed448da49cea015ea4b31" target="_top" xlink:title="Validate all configuration values for correctness and consistency.">
<polygon fill="white" stroke="#666666" points="860,-94 724,-94 724,-64 860,-64 860,-94"/>
<text text-anchor="start" x="732" y="-82" font-family="Helvetica,sans-Serif" font-size="10.00">ConfigManager::validate</text>
<text text-anchor="middle" x="792" y="-71" font-family="Helvetica,sans-Serif" font-size="10.00">_config</text>
</a>
</g>
</g>
<!-- Node1&#45;&gt;Node6 -->
<g id="edge7_Node000001_Node000006" class="edge">
<title>Node1&#45;&gt;Node6</title>
<g id="a_edge7_Node000001_Node000006"><a xlink:title=" ">
<path fill="none" stroke="#63b8ff" d="M885.95,-90.69C877.39,-89.61 868.7,-88.52 860.24,-87.46"/>
<polygon fill="#63b8ff" stroke="#63b8ff" points="885.55,-94.17 895.91,-91.94 886.43,-87.22 885.55,-94.17"/>
</a>
</g>
</g>
<!-- Node3 -->
<g id="Node000003" class="node">
<title>Node3</title>
<g id="a_Node000003"><a xlink:href="group__CommandExecutors.html#ga2c1ceafe241a0b4e19790bb5d878ed1a" target="_top" xlink:title="Parse command&#45;line arguments and create execution context.">
<polygon fill="white" stroke="#666666" points="359,-126.5 229,-126.5 229,-107.5 359,-107.5 359,-126.5"/>
<text text-anchor="middle" x="294" y="-114.5" font-family="Helvetica,sans-Serif" font-size="10.00">CommandParser::parse</text>
</a>
</g>
</g>
<!-- Node2&#45;&gt;Node3 -->
<g id="edge2_Node000002_Node000003" class="edge">
<title>Node2&#45;&gt;Node3</title>
<g id="a_edge2_Node000002_Node000003"><a xlink:title=" ">
<path fill="none" stroke="#63b8ff" d="M547.76,-131.81C503.4,-130.31 445.95,-128.05 395,-125 383.44,-124.31 371.14,-123.44 359.26,-122.52"/>
<polygon fill="#63b8ff" stroke="#63b8ff" points="547.77,-135.31 557.88,-132.15 548,-128.32 547.77,-135.31"/>
</a>
</g>
</g>
<!-- Node4 -->
<g id="Node000004" class="node">
<title>Node4</title>
<g id="a_Node000004"><a xlink:href="main_8cpp.html#a0ddf1224851353fc92bfbff6f499fa97" target="_top" xlink:title="Main entry point for the Gaussian Extractor application.">
<polygon fill="white" stroke="#666666" points="41,-105.5 0,-105.5 0,-86.5 41,-86.5 41,-105.5"/>
<text text-anchor="middle" x="20.5" y="-93.5" font-family="Helvetica,sans-Serif" font-size="10.00">main</text>
</a>
</g>
</g>
<!-- Node3&#45;&gt;Node4 -->
<g id="edge3_Node000003_Node000004" class="edge">
<title>Node3&#45;&gt;Node4</title>
<g id="a_edge3_Node000003_Node000004"><a xlink:title=" ">
<path fill="none" stroke="#63b8ff" d="M218.64,-121.42C176.76,-122.55 123.66,-121.71 77,-114 64.81,-111.99 51.63,-107.8 41.18,-103.98"/>
<polygon fill="#63b8ff" stroke="#63b8ff" points="218.87,-124.92 228.76,-121.1 218.65,-117.92 218.87,-124.92"/>
</a>
</g>
</g>
<!-- Node5 -->
<g id="Node000005" class="node">
<title>Node5</title>
<g id="a_Node000005"><a xlink:href="interactive__mode_8cpp.html#a6b615c34054150d837dc45ed1c17b297" target="_top" xlink:title="Enhanced interactive command loop with TAB completion for Windows.">
<polygon fill="white" stroke="#666666" points="193,-105.5 77,-105.5 77,-86.5 193,-86.5 193,-105.5"/>
<text text-anchor="middle" x="135" y="-93.5" font-family="Helvetica,sans-Serif" font-size="10.00">run_interactive_loop</text>
</a>
</g>
</g>
<!-- Node3&#45;&gt;Node5 -->
<g id="edge4_Node000003_Node000005" class="edge">
<title>Node3&#45;&gt;Node5</title>
<g id="a_edge4_Node000003_Node000005"><a xlink:title=" ">
<path fill="none" stroke="#63b8ff" d="M218.75,-107.07C210.24,-105.93 201.66,-104.78 193.41,-103.68"/>
<polygon fill="#63b8ff" stroke="#63b8ff" points="218.31,-110.54 228.69,-108.4 219.24,-103.6 218.31,-110.54"/>
</a>
</g>
</g>
<!-- Node5&#45;&gt;Node4 -->
<g id="edge5_Node000005_Node000004" class="edge">
<title>Node5&#45;&gt;Node4</title>
<g id="a_edge5_Node000005_Node000004"><a xlink:title=" ">
<path fill="none" stroke="#63b8ff" d="M66.62,-96C57.37,-96 48.55,-96 41.19,-96"/>
<polygon fill="#63b8ff" stroke="#63b8ff" points="66.76,-99.5 76.76,-96 66.76,-92.5 66.76,-99.5"/>
</a>
</g>
</g>
<!-- Node7 -->
<g id="Node000007" class="node">
<title>Node7</title>
<g id="a_Node000007"><a xlink:href="group__ConfigLoading.html#gadb55801d91871e98b5c5da2acd289a35" target="_top" xlink:title="Load configuration from file with error handling.">
<polygon fill="white" stroke="#666666" points="681.5,-92 564.5,-92 564.5,-62 681.5,-62 681.5,-92"/>
<text text-anchor="start" x="572.5" y="-80" font-family="Helvetica,sans-Serif" font-size="10.00">ConfigManager::load</text>
<text text-anchor="middle" x="623" y="-69" font-family="Helvetica,sans-Serif" font-size="10.00">_config</text>
</a>
</g>
</g>
<!-- Node6&#45;&gt;Node7 -->
<g id="edge8_Node000006_Node000007" class="edge">
<title>Node6&#45;&gt;Node7</title>
<g id="a_edge8_Node000006_Node000007"><a xlink:title=" ">
<path fill="none" stroke="#63b8ff" d="M713.34,-78.07C702.62,-77.94 691.77,-77.81 681.51,-77.69"/>
<polygon fill="#63b8ff" stroke="#63b8ff" points="713.51,-81.57 723.56,-78.19 713.6,-74.57 713.51,-81.57"/>
</a>
</g>
</g>
<!-- Node7&#45;&gt;Node4 -->
<g id="edge11_Node000007_Node000004" class="edge">
<title>Node7&#45;&gt;Node4</title>
<g id="a_edge11_Node000007_Node000004"><a xlink:title=" ">
<path fill="none" stroke="#63b8ff" d="M554.19,-69.9C450.53,-60.65 246.81,-48.74 77,-77 64.74,-79.04 51.56,-83.45 41.13,-87.51"/>
<polygon fill="#63b8ff" stroke="#63b8ff" points="553.93,-73.4 564.21,-70.82 554.57,-66.42 553.93,-73.4"/>
</a>
</g>
</g>
<!-- Node8 -->
<g id="Node000008" class="node">
<title>Node8</title>
<g id="a_Node000008"><a xlink:href="group__CommandExecutors.html#ga1389de38a8f4d50be08ded6a0240627f" target="_top" xlink:title="Load and initialize configuration system.">
<polygon fill="white" stroke="#666666" points="520.5,-116 396.5,-116 396.5,-86 520.5,-86 520.5,-116"/>
<text text-anchor="start" x="404.5" y="-104" font-family="Helvetica,sans-Serif" font-size="10.00">CommandParser::load</text>
<text text-anchor="middle" x="458.5" y="-93" font-family="Helvetica,sans-Serif" font-size="10.00">_configuration</text>
</a>
</g>
</g>
<!-- Node7&#45;&gt;Node8 -->
<g id="edge9_Node000007_Node000008" class="edge">
<title>Node7&#45;&gt;Node8</title>
<g id="a_edge9_Node000007_Node000008"><a xlink:title=" ">
<path fill="none" stroke="#63b8ff" d="M554.16,-87.02C543.04,-88.66 531.58,-90.35 520.64,-91.97"/>
<polygon fill="#63b8ff" stroke="#63b8ff" points="554.87,-90.45 564.25,-85.53 553.85,-83.53 554.87,-90.45"/>
</a>
</g>
</g>
<!-- Node9 -->
<g id="Node000009" class="node">
<title>Node9</title>
<g id="a_Node000009"><a xlink:href="group__ConfigLoading.html#gad792b6c3fe11b0bd927622b2e0966bf5" target="_top" xlink:title="Reload configuration from the previously loaded file.">
<polygon fill="white" stroke="#666666" points="522,-30 395,-30 395,0 522,0 522,-30"/>
<text text-anchor="start" x="403" y="-18" font-family="Helvetica,sans-Serif" font-size="10.00">ConfigManager::reload</text>
<text text-anchor="middle" x="458.5" y="-7" font-family="Helvetica,sans-Serif" font-size="10.00">_config</text>
</a>
</g>
</g>
<!-- Node7&#45;&gt;Node9 -->
<g id="edge12_Node000007_Node000009" class="edge">
<title>Node7&#45;&gt;Node9</title>
<g id="a_edge12_Node000007_Node000009"><a xlink:title=" ">
<path fill="none" stroke="#63b8ff" d="M573.15,-58.36C549.45,-49.32 521.36,-38.6 499.04,-30.09"/>
<polygon fill="#63b8ff" stroke="#63b8ff" points="572.07,-61.7 582.66,-61.99 574.57,-55.16 572.07,-61.7"/>
</a>
</g>
</g>
<!-- Node8&#45;&gt;Node3 -->
<g id="edge10_Node000008_Node000003" class="edge">
<title>Node8&#45;&gt;Node3</title>
<g id="a_edge10_Node000008_Node000003"><a xlink:title=" ">
<path fill="none" stroke="#63b8ff" d="M386.07,-108.03C377.14,-108.91 368.04,-109.81 359.23,-110.68"/>
<polygon fill="#63b8ff" stroke="#63b8ff" points="386.46,-111.51 396.07,-107.05 385.77,-104.55 386.46,-111.51"/>
</a>
</g>
</g>
</g>
</svg>
