<?xml version="1.0" encoding="UTF-8" standalone="no"?>
<!DOCTYPE svg PUBLIC "-//W3C//DTD SVG 1.1//EN"
 "http://www.w3.org/Graphics/SVG/1.1/DTD/svg11.dtd">
<!-- Generated by graphviz version 2.43.0 (0)
 -->
<!-- Title: ConfigManager::get_default_input_extension Pages: 1 -->
<svg width="617pt" height="167pt"
 viewBox="0.00 0.00 617.00 166.50" xmlns="http://www.w3.org/2000/svg" xmlns:xlink="http://www.w3.org/1999/xlink">
<g id="graph0" class="graph" transform="scale(1 1) rotate(0) translate(4 162.5)">
<title>ConfigManager::get_default_input_extension</title>
<!-- Node1 -->
<g id="Node000001" class="node">
<title>Node1</title>
<g id="a_Node000001"><a xlink:title="Get default input file extension.">
<polygon fill="#999999" stroke="#666666" points="140,-155.5 0,-155.5 0,-125.5 140,-125.5 140,-155.5"/>
<text text-anchor="start" x="8" y="-143.5" font-family="Helvetica,sans-Serif" font-size="10.00">ConfigManager::get</text>
<text text-anchor="middle" x="70" y="-132.5" font-family="Helvetica,sans-Serif" font-size="10.00">_default_input_extension</text>
</a>
</g>
</g>
<!-- Node2 -->
<g id="Node000002" class="node">
<title>Node2</title>
<g id="a_Node000002"><a xlink:href="group__ConfigInternals.html#ga5e387d61b1f34873cd3ab047242b2aad" target="_top" xlink:title="Template method for type&#45;safe value conversion.">
<polygon fill="white" stroke="#666666" points="609,-158.5 476,-158.5 476,-128.5 609,-128.5 609,-158.5"/>
<text text-anchor="start" x="484" y="-146.5" font-family="Helvetica,sans-Serif" font-size="10.00">ConfigManager::convert</text>
<text text-anchor="middle" x="542.5" y="-135.5" font-family="Helvetica,sans-Serif" font-size="10.00">_value</text>
</a>
</g>
</g>
<!-- Node1&#45;&gt;Node2 -->
<g id="edge1_Node000001_Node000002" class="edge">
<title>Node1&#45;&gt;Node2</title>
<g id="a_edge1_Node000001_Node000002"><a xlink:title=" ">
<path fill="none" stroke="#63b8ff" d="M140.26,-141.89C191.1,-142.84 261.84,-144.01 324,-144.5 375.55,-144.91 388.45,-144.75 440,-144.5 448.36,-144.46 457.11,-144.4 465.81,-144.33"/>
<polygon fill="#63b8ff" stroke="#63b8ff" points="466.01,-147.83 475.98,-144.24 465.95,-140.83 466.01,-147.83"/>
</a>
</g>
</g>
<!-- Node3 -->
<g id="Node000003" class="node">
<title>Node3</title>
<g id="a_Node000003"><a xlink:href="group__ConfigExtensions.html#ga3fd3f42f724661c7ea72845729e0141f" target="_top" xlink:title="Get list of supported input file extensions.">
<polygon fill="white" stroke="#666666" points="288,-115.5 176,-115.5 176,-85.5 288,-85.5 288,-115.5"/>
<text text-anchor="start" x="184" y="-103.5" font-family="Helvetica,sans-Serif" font-size="10.00">ConfigManager::get</text>
<text text-anchor="middle" x="232" y="-92.5" font-family="Helvetica,sans-Serif" font-size="10.00">_input_extensions</text>
</a>
</g>
</g>
<!-- Node1&#45;&gt;Node3 -->
<g id="edge2_Node000001_Node000003" class="edge">
<title>Node1&#45;&gt;Node3</title>
<g id="a_edge2_Node000001_Node000003"><a xlink:title=" ">
<path fill="none" stroke="#63b8ff" d="M131.03,-125.49C142.42,-122.65 154.38,-119.66 165.91,-116.77"/>
<polygon fill="#63b8ff" stroke="#63b8ff" points="167.06,-120.09 175.91,-114.27 165.36,-113.3 167.06,-120.09"/>
</a>
</g>
</g>
<!-- Node3&#45;&gt;Node2 -->
<g id="edge3_Node000003_Node000002" class="edge">
<title>Node3&#45;&gt;Node2</title>
<g id="a_edge3_Node000003_Node000002"><a xlink:title=" ">
<path fill="none" stroke="#63b8ff" d="M283.68,-115.5C296.72,-118.91 310.8,-122.2 324,-124.5 370.74,-132.64 423.78,-137.37 465.78,-140.07"/>
<polygon fill="#63b8ff" stroke="#63b8ff" points="465.73,-143.57 475.93,-140.69 466.16,-136.58 465.73,-143.57"/>
</a>
</g>
</g>
<!-- Node4 -->
<g id="Node000004" class="node">
<title>Node4</title>
<g id="a_Node000004"><a xlink:href="group__ConfigValueGetters.html#gaa25cec73939b4d9bd7419f553faae0cb" target="_top" xlink:title="Get string configuration value.">
<polygon fill="white" stroke="#666666" points="438,-115.5 326,-115.5 326,-85.5 438,-85.5 438,-115.5"/>
<text text-anchor="start" x="334" y="-103.5" font-family="Helvetica,sans-Serif" font-size="10.00">ConfigManager::get</text>
<text text-anchor="middle" x="382" y="-92.5" font-family="Helvetica,sans-Serif" font-size="10.00">_string</text>
</a>
</g>
</g>
<!-- Node3&#45;&gt;Node4 -->
<g id="edge4_Node000003_Node000004" class="edge">
<title>Node3&#45;&gt;Node4</title>
<g id="a_edge4_Node000003_Node000004"><a xlink:title=" ">
<path fill="none" stroke="#63b8ff" d="M288.11,-100.5C297.07,-100.5 306.42,-100.5 315.59,-100.5"/>
<polygon fill="#63b8ff" stroke="#63b8ff" points="315.84,-104 325.84,-100.5 315.84,-97 315.84,-104"/>
</a>
</g>
</g>
<!-- Node5 -->
<g id="Node000005" class="node">
<title>Node5</title>
<g id="a_Node000005"><a xlink:href="group__ConfigStringUtils.html#ga2f21572e2bdf739cbd8c75720728196c" target="_top" xlink:title="Split string into vector using delimiter.">
<polygon fill="white" stroke="#666666" points="430.5,-67.5 333.5,-67.5 333.5,-37.5 430.5,-37.5 430.5,-67.5"/>
<text text-anchor="start" x="341.5" y="-55.5" font-family="Helvetica,sans-Serif" font-size="10.00">ConfigUtils::split</text>
<text text-anchor="middle" x="382" y="-44.5" font-family="Helvetica,sans-Serif" font-size="10.00">_string</text>
</a>
</g>
</g>
<!-- Node3&#45;&gt;Node5 -->
<g id="edge6_Node000003_Node000005" class="edge">
<title>Node3&#45;&gt;Node5</title>
<g id="a_edge6_Node000003_Node000005"><a xlink:title=" ">
<path fill="none" stroke="#63b8ff" d="M279.42,-85.44C293.89,-80.75 309.99,-75.53 325.04,-70.65"/>
<polygon fill="#63b8ff" stroke="#63b8ff" points="326.31,-73.92 334.74,-67.5 324.15,-67.26 326.31,-73.92"/>
</a>
</g>
</g>
<!-- Node6 -->
<g id="Node000006" class="node">
<title>Node6</title>
<g id="a_Node000006"><a xlink:href="group__ConfigInternals.html#ga24e6150f47d12f03a5864631c6d846c5" target="_top" xlink:title="Remove leading and trailing whitespace from string.">
<polygon fill="white" stroke="#666666" points="440,-19 324,-19 324,0 440,0 440,-19"/>
<text text-anchor="middle" x="382" y="-7" font-family="Helvetica,sans-Serif" font-size="10.00">ConfigManager::trim</text>
</a>
</g>
</g>
<!-- Node3&#45;&gt;Node6 -->
<g id="edge7_Node000003_Node000006" class="edge">
<title>Node3&#45;&gt;Node6</title>
<g id="a_edge7_Node000003_Node000006"><a xlink:title=" ">
<path fill="none" stroke="#63b8ff" d="M248.55,-85.37C265.76,-69.34 294.94,-44.21 324,-28.5 327.93,-26.38 332.13,-24.43 336.41,-22.67"/>
<polygon fill="#63b8ff" stroke="#63b8ff" points="337.73,-25.91 345.83,-19.09 335.24,-19.37 337.73,-25.91"/>
</a>
</g>
</g>
<!-- Node4&#45;&gt;Node2 -->
<g id="edge5_Node000004_Node000002" class="edge">
<title>Node4&#45;&gt;Node2</title>
<g id="a_edge5_Node000004_Node000002"><a xlink:title=" ">
<path fill="none" stroke="#63b8ff" d="M438.44,-115.54C450.62,-118.85 463.64,-122.38 476.17,-125.78"/>
<polygon fill="#63b8ff" stroke="#63b8ff" points="475.53,-129.23 486.1,-128.47 477.36,-122.47 475.53,-129.23"/>
</a>
</g>
</g>
</g>
</svg>
