<?xml version="1.0" encoding="UTF-8" standalone="no"?>
<!DOCTYPE svg PUBLIC "-//W3C//DTD SVG 1.1//EN"
 "http://www.w3.org/Graphics/SVG/1.1/DTD/svg11.dtd">
<!-- Generated by graphviz version 2.43.0 (0)
 -->
<!-- Title: ConfigUtils::split_string Pages: 1 -->
<!--zoomable 258 -->

<svg id="main" version="1.1" xmlns="http://www.w3.org/2000/svg" xmlns:xlink="http://www.w3.org/1999/xlink" xml:space="preserve" onload="init(evt)">
<style type="text/css"><![CDATA[
.node, .edge {opacity: 0.7;}
.node.selected, .edge.selected {opacity: 1;}
.edge:hover path { stroke: red; }
.edge:hover polygon { stroke: red; fill: red; }
]]></style>

<defs>
  <circle id="rim" cx="0" cy="0" r="7"/>
  <circle id="rim2" cx="0" cy="0" r="3.5"/>
  <g id="zoomPlus">
    <use xlink:href="#rim" fill="#404040"><set attributeName="fill" to="#808080" begin="zoomplus.mouseover" end="zoomplus.mouseout"/></use>
    <path d="M-4,0h8M0,-4v8" fill="none" stroke="white" stroke-width="1.5" pointer-events="none"/>
  </g>
  <g id="zoomMin">
    <use xlink:href="#rim" fill="#404040"><set attributeName="fill" to="#808080" begin="zoomminus.mouseover" end="zoomminus.mouseout"/></use>
    <path d="M-4,0h8" fill="none" stroke="white" stroke-width="1.5" pointer-events="none"/>
  </g>
  <g id="arrowUp" transform="translate(30 24)">
    <use xlink:href="#rim"/>
    <path pointer-events="none" fill="none" stroke="white" stroke-width="1.5" d="M0,-3.0v7 M-2.5,-0.5L0,-3.0L2.5,-0.5"/>
  </g>
  <g id="arrowRight" transform="rotate(90) translate(36 -43)">
    <use xlink:href="#rim"/>
    <path pointer-events="none" fill="none" stroke="white" stroke-width="1.5" d="M0,-3.0v7 M-2.5,-0.5L0,-3.0L2.5,-0.5"/>
  </g>
  <g id="arrowDown" transform="rotate(180) translate(-30 -48)">
    <use xlink:href="#rim"/>
    <path pointer-events="none" fill="none" stroke="white" stroke-width="1.5" d="M0,-3.0v7 M-2.5,-0.5L0,-3.0L2.5,-0.5"/>
  </g>
  <g id="arrowLeft" transform="rotate(270) translate(-36 17)">
    <use xlink:href="#rim"/>
    <path pointer-events="none" fill="none" stroke="white" stroke-width="1.5" d="M0,-3.0v7 M-2.5,-0.5L0,-3.0L2.5,-0.5"/>
  </g>
  <g id="resetDef">
    <use xlink:href="#rim2" fill="#404040"><set attributeName="fill" to="#808080" begin="reset.mouseover" end="reset.mouseout"/></use>
  </g>
</defs>
<script type="application/ecmascript">
var viewWidth = 1184;
var viewHeight = 258;
var sectionId = 'dynsection-0';
</script>
<script type="application/ecmascript" xlink:href="svg.min.js"/>
<svg id="graph" class="graph">
<g id="viewport">
<title>ConfigUtils::split_string</title>
<!-- Node1 -->
<g id="Node000001" class="node">
<title>Node1</title>
<g id="a_Node000001"><a xlink:title="Split string into vector using delimiter.">
<polygon fill="#999999" stroke="#666666" points="1176,-102 1079,-102 1079,-72 1176,-72 1176,-102"/>
<text text-anchor="start" x="1087" y="-90" font-family="Helvetica,sans-Serif" font-size="10.00">ConfigUtils::split</text>
<text text-anchor="middle" x="1127.5" y="-79" font-family="Helvetica,sans-Serif" font-size="10.00">_string</text>
</a>
</g>
</g>
<!-- Node2 -->
<g id="Node000002" class="node">
<title>Node2</title>
<g id="a_Node000002"><a xlink:href="group__CommandExecutors.html#ga9fcc8aa9bb1408d529764d3767029d02" target="_top" xlink:title="Apply configuration values to command context.">
<polygon fill="white" stroke="#666666" points="525,-212 395,-212 395,-182 525,-182 525,-212"/>
<text text-anchor="start" x="403" y="-200" font-family="Helvetica,sans-Serif" font-size="10.00">CommandParser::apply</text>
<text text-anchor="middle" x="460" y="-189" font-family="Helvetica,sans-Serif" font-size="10.00">_config_to_context</text>
</a>
</g>
</g>
<!-- Node1&#45;&gt;Node2 -->
<g id="edge1_Node000001_Node000002" class="edge">
<title>Node1&#45;&gt;Node2</title>
<g id="a_edge1_Node000001_Node000002"><a xlink:title=" ">
<path fill="none" stroke="#63b8ff" d="M1104.67,-109.24C1088.65,-124.67 1065.8,-144.89 1043,-159 972.52,-202.6 952.25,-214.68 871,-231 735.92,-258.13 696.93,-253.48 561,-231 538.75,-227.32 514.79,-219.33 495.91,-212.02"/>
<polygon fill="#63b8ff" stroke="#63b8ff" points="1107.26,-111.6 1111.95,-102.1 1102.36,-106.6 1107.26,-111.6"/>
</a>
</g>
</g>
<!-- Node6 -->
<g id="Node000006" class="node">
<title>Node6</title>
<g id="a_Node000006"><a xlink:href="group__ConfigExtensions.html#ga3fd3f42f724661c7ea72845729e0141f" target="_top" xlink:title="Get list of supported input file extensions.">
<polygon fill="white" stroke="#666666" points="1031,-150 919,-150 919,-120 1031,-120 1031,-150"/>
<text text-anchor="start" x="927" y="-138" font-family="Helvetica,sans-Serif" font-size="10.00">ConfigManager::get</text>
<text text-anchor="middle" x="975" y="-127" font-family="Helvetica,sans-Serif" font-size="10.00">_input_extensions</text>
</a>
</g>
</g>
<!-- Node1&#45;&gt;Node6 -->
<g id="edge6_Node000001_Node000006" class="edge">
<title>Node1&#45;&gt;Node6</title>
<g id="a_edge6_Node000001_Node000006"><a xlink:title=" ">
<path fill="none" stroke="#63b8ff" d="M1069.42,-105.21C1054.11,-110.09 1037.73,-115.31 1023.04,-120"/>
<polygon fill="#63b8ff" stroke="#63b8ff" points="1070.83,-108.43 1079.29,-102.06 1068.7,-101.76 1070.83,-108.43"/>
</a>
</g>
</g>
<!-- Node13 -->
<g id="Node000013" class="node">
<title>Node13</title>
<g id="a_Node000013"><a xlink:href="group__ConfigExtensions.html#ga6eda0c86fa8ce71b9fa05b7a1c306597" target="_top" xlink:title="Get list of supported output file extensions.">
<polygon fill="white" stroke="#666666" points="1031,-78 919,-78 919,-48 1031,-48 1031,-78"/>
<text text-anchor="start" x="927" y="-66" font-family="Helvetica,sans-Serif" font-size="10.00">ConfigManager::get</text>
<text text-anchor="middle" x="975" y="-55" font-family="Helvetica,sans-Serif" font-size="10.00">_output_extensions</text>
</a>
</g>
</g>
<!-- Node1&#45;&gt;Node13 -->
<g id="edge13_Node000001_Node000013" class="edge">
<title>Node1&#45;&gt;Node13</title>
<g id="a_edge13_Node000001_Node000013"><a xlink:title=" ">
<path fill="none" stroke="#63b8ff" d="M1068.72,-77.79C1056.39,-75.82 1043.41,-73.75 1031.19,-71.8"/>
<polygon fill="#63b8ff" stroke="#63b8ff" points="1068.45,-81.29 1078.88,-79.41 1069.56,-74.38 1068.45,-81.29"/>
</a>
</g>
</g>
<!-- Node15 -->
<g id="Node000015" class="node">
<title>Node15</title>
<g id="a_Node000015"><a xlink:href="group__ConfigValidation.html#gac6254d405c53ed8f433ab6d2785c0a90" target="_top" xlink:title="Validate file extension configuration values.">
<polygon fill="white" stroke="#666666" points="1043,-30 907,-30 907,0 1043,0 1043,-30"/>
<text text-anchor="start" x="915" y="-18" font-family="Helvetica,sans-Serif" font-size="10.00">ConfigManager::validate</text>
<text text-anchor="middle" x="975" y="-7" font-family="Helvetica,sans-Serif" font-size="10.00">_file_extensions</text>
</a>
</g>
</g>
<!-- Node1&#45;&gt;Node15 -->
<g id="edge15_Node000001_Node000015" class="edge">
<title>Node1&#45;&gt;Node15</title>
<g id="a_edge15_Node000001_Node000015"><a xlink:title=" ">
<path fill="none" stroke="#63b8ff" d="M1094.01,-66.53C1078.85,-57.44 1060.35,-47.02 1043,-39 1036.16,-35.84 1028.77,-32.82 1021.49,-30.06"/>
<polygon fill="#63b8ff" stroke="#63b8ff" points="1092.62,-69.78 1102.98,-71.98 1096.25,-63.79 1092.62,-69.78"/>
</a>
</g>
</g>
<!-- Node3 -->
<g id="Node000003" class="node">
<title>Node3</title>
<g id="a_Node000003"><a xlink:href="group__CommandExecutors.html#ga2c1ceafe241a0b4e19790bb5d878ed1a" target="_top" xlink:title="Parse command&#45;line arguments and create execution context.">
<polygon fill="white" stroke="#666666" points="359,-137.5 229,-137.5 229,-118.5 359,-118.5 359,-137.5"/>
<text text-anchor="middle" x="294" y="-125.5" font-family="Helvetica,sans-Serif" font-size="10.00">CommandParser::parse</text>
</a>
</g>
</g>
<!-- Node2&#45;&gt;Node3 -->
<g id="edge2_Node000002_Node000003" class="edge">
<title>Node2&#45;&gt;Node3</title>
<g id="a_edge2_Node000002_Node000003"><a xlink:title=" ">
<path fill="none" stroke="#63b8ff" d="M413.65,-177.92C382.5,-164.82 342.47,-147.97 317.78,-137.58"/>
<polygon fill="#63b8ff" stroke="#63b8ff" points="412.43,-181.21 423.01,-181.86 415.15,-174.75 412.43,-181.21"/>
</a>
</g>
</g>
<!-- Node4 -->
<g id="Node000004" class="node">
<title>Node4</title>
<g id="a_Node000004"><a xlink:href="main_8cpp.html#a0ddf1224851353fc92bfbff6f499fa97" target="_top" xlink:title="Main entry point for the Gaussian Extractor application.">
<polygon fill="white" stroke="#666666" points="41,-108.5 0,-108.5 0,-89.5 41,-89.5 41,-108.5"/>
<text text-anchor="middle" x="20.5" y="-96.5" font-family="Helvetica,sans-Serif" font-size="10.00">main</text>
</a>
</g>
</g>
<!-- Node3&#45;&gt;Node4 -->
<g id="edge3_Node000003_Node000004" class="edge">
<title>Node3&#45;&gt;Node4</title>
<g id="a_edge3_Node000003_Node000004"><a xlink:title=" ">
<path fill="none" stroke="#63b8ff" d="M218.52,-129.72C176.6,-129.41 123.5,-126.85 77,-118 64.79,-115.68 51.62,-111.25 41.17,-107.26"/>
<polygon fill="#63b8ff" stroke="#63b8ff" points="218.64,-133.22 228.65,-129.76 218.66,-126.22 218.64,-133.22"/>
</a>
</g>
</g>
<!-- Node5 -->
<g id="Node000005" class="node">
<title>Node5</title>
<g id="a_Node000005"><a xlink:href="interactive__mode_8cpp.html#a6b615c34054150d837dc45ed1c17b297" target="_top" xlink:title="Enhanced interactive command loop with TAB completion for Windows.">
<polygon fill="white" stroke="#666666" points="193,-108.5 77,-108.5 77,-89.5 193,-89.5 193,-108.5"/>
<text text-anchor="middle" x="135" y="-96.5" font-family="Helvetica,sans-Serif" font-size="10.00">run_interactive_loop</text>
</a>
</g>
</g>
<!-- Node3&#45;&gt;Node5 -->
<g id="edge4_Node000003_Node000005" class="edge">
<title>Node3&#45;&gt;Node5</title>
<g id="a_edge4_Node000003_Node000005"><a xlink:title=" ">
<path fill="none" stroke="#63b8ff" d="M231.28,-116.6C216.79,-113.92 201.51,-111.1 187.52,-108.52"/>
<polygon fill="#63b8ff" stroke="#63b8ff" points="230.69,-120.05 241.16,-118.42 231.96,-113.17 230.69,-120.05"/>
</a>
</g>
</g>
<!-- Node5&#45;&gt;Node4 -->
<g id="edge5_Node000005_Node000004" class="edge">
<title>Node5&#45;&gt;Node4</title>
<g id="a_edge5_Node000005_Node000004"><a xlink:title=" ">
<path fill="none" stroke="#63b8ff" d="M66.62,-99C57.37,-99 48.55,-99 41.19,-99"/>
<polygon fill="#63b8ff" stroke="#63b8ff" points="66.76,-102.5 76.76,-99 66.76,-95.5 66.76,-102.5"/>
</a>
</g>
</g>
<!-- Node7 -->
<g id="Node000007" class="node">
<title>Node7</title>
<g id="a_Node000007"><a xlink:href="group__FileOperations.html#ga087bdeb612f939d045ab914d35a6b0de" target="_top" xlink:title="Find all files related to a Gaussian calculation.">
<polygon fill="white" stroke="#666666" points="868,-222 734,-222 734,-192 868,-192 868,-222"/>
<text text-anchor="start" x="742" y="-210" font-family="Helvetica,sans-Serif" font-size="10.00">JobChecker::find_related</text>
<text text-anchor="middle" x="801" y="-199" font-family="Helvetica,sans-Serif" font-size="10.00">_files</text>
</a>
</g>
</g>
<!-- Node6&#45;&gt;Node7 -->
<g id="edge7_Node000006_Node000007" class="edge">
<title>Node6&#45;&gt;Node7</title>
<g id="a_edge7_Node000006_Node000007"><a xlink:title=" ">
<path fill="none" stroke="#63b8ff" d="M934.47,-154.57C915.48,-163.67 892.27,-174.37 871,-183 863.48,-186.05 855.4,-189.08 847.53,-191.9"/>
<polygon fill="#63b8ff" stroke="#63b8ff" points="936.23,-157.6 943.71,-150.1 933.18,-151.3 936.23,-157.6"/>
</a>
</g>
</g>
<!-- Node11 -->
<g id="Node000011" class="node">
<title>Node11</title>
<g id="a_Node000011"><a xlink:href="group__ConfigConvenience.html#gaed7092887403aeace513f176ee36f31d" target="_top" xlink:title="Get default input file extension.">
<polygon fill="white" stroke="#666666" points="871,-174 731,-174 731,-144 871,-144 871,-174"/>
<text text-anchor="start" x="739" y="-162" font-family="Helvetica,sans-Serif" font-size="10.00">ConfigManager::get</text>
<text text-anchor="middle" x="801" y="-151" font-family="Helvetica,sans-Serif" font-size="10.00">_default_input_extension</text>
</a>
</g>
</g>
<!-- Node6&#45;&gt;Node11 -->
<g id="edge11_Node000006_Node000011" class="edge">
<title>Node6&#45;&gt;Node11</title>
<g id="a_edge11_Node000006_Node000011"><a xlink:title=" ">
<path fill="none" stroke="#63b8ff" d="M908.52,-144.14C896.29,-145.84 883.48,-147.63 871.14,-149.35"/>
<polygon fill="#63b8ff" stroke="#63b8ff" points="909.21,-147.57 918.63,-142.73 908.24,-140.64 909.21,-147.57"/>
</a>
</g>
</g>
<!-- Node12 -->
<g id="Node000012" class="node">
<title>Node12</title>
<g id="a_Node000012"><a xlink:href="group__ConfigExtensions.html#ga78a8d16a8cf807b9c75b84a19a3549a9" target="_top" xlink:title="Check if an extension is valid for input files.">
<polygon fill="white" stroke="#666666" points="868,-126 734,-126 734,-96 868,-96 868,-126"/>
<text text-anchor="start" x="742" y="-114" font-family="Helvetica,sans-Serif" font-size="10.00">ConfigManager::is_valid</text>
<text text-anchor="middle" x="801" y="-103" font-family="Helvetica,sans-Serif" font-size="10.00">_input_extension</text>
</a>
</g>
</g>
<!-- Node6&#45;&gt;Node12 -->
<g id="edge12_Node000006_Node000012" class="edge">
<title>Node6&#45;&gt;Node12</title>
<g id="a_edge12_Node000006_Node000012"><a xlink:title=" ">
<path fill="none" stroke="#63b8ff" d="M908.64,-125.88C895.36,-124.03 881.38,-122.08 868.08,-120.22"/>
<polygon fill="#63b8ff" stroke="#63b8ff" points="908.24,-129.36 918.63,-127.27 909.21,-122.43 908.24,-129.36"/>
</a>
</g>
</g>
<!-- Node8 -->
<g id="Node000008" class="node">
<title>Node8</title>
<g id="a_Node000008"><a xlink:href="group__IndependentChecking.html#gaa8965610d902e28ebf4946e0ba1f659d" target="_top" xlink:title="Direct error checking without other status considerations.">
<polygon fill="white" stroke="#666666" points="695,-222 561,-222 561,-192 695,-192 695,-222"/>
<text text-anchor="start" x="569" y="-210" font-family="Helvetica,sans-Serif" font-size="10.00">JobChecker::check_error</text>
<text text-anchor="middle" x="628" y="-199" font-family="Helvetica,sans-Serif" font-size="10.00">_directly</text>
</a>
</g>
</g>
<!-- Node7&#45;&gt;Node8 -->
<g id="edge8_Node000007_Node000008" class="edge">
<title>Node7&#45;&gt;Node8</title>
<g id="a_edge8_Node000007_Node000008"><a xlink:title=" ">
<path fill="none" stroke="#63b8ff" d="M723.67,-207C714.18,-207 704.54,-207 695.22,-207"/>
<polygon fill="#63b8ff" stroke="#63b8ff" points="723.89,-210.5 733.89,-207 723.89,-203.5 723.89,-210.5"/>
</a>
</g>
</g>
<!-- Node9 -->
<g id="Node000009" class="node">
<title>Node9</title>
<g id="a_Node000009"><a xlink:href="group__IndividualChecking.html#gacaf7b75f3c058b5648c894ee21eadf5d" target="_top" xlink:title="Determine the status of a single Gaussian job.">
<polygon fill="white" stroke="#666666" points="690.5,-174 565.5,-174 565.5,-144 690.5,-144 690.5,-174"/>
<text text-anchor="start" x="573.5" y="-162" font-family="Helvetica,sans-Serif" font-size="10.00">JobChecker::check_job</text>
<text text-anchor="middle" x="628" y="-151" font-family="Helvetica,sans-Serif" font-size="10.00">_status</text>
</a>
</g>
</g>
<!-- Node7&#45;&gt;Node9 -->
<g id="edge9_Node000007_Node000009" class="edge">
<title>Node7&#45;&gt;Node9</title>
<g id="a_edge9_Node000007_Node000009"><a xlink:title=" ">
<path fill="none" stroke="#63b8ff" d="M736.63,-189.21C718.81,-184.21 699.62,-178.82 682.45,-174"/>
<polygon fill="#63b8ff" stroke="#63b8ff" points="735.79,-192.61 746.36,-191.94 737.68,-185.87 735.79,-192.61"/>
</a>
</g>
</g>
<!-- Node10 -->
<g id="Node000010" class="node">
<title>Node10</title>
<g id="a_Node000010"><a xlink:href="group__IndependentChecking.html#gacfdc4123589e37c388a139841e0860e8" target="_top" xlink:title="Direct PCM failure checking without other status considerations.">
<polygon fill="white" stroke="#666666" points="693.5,-126 562.5,-126 562.5,-96 693.5,-96 693.5,-126"/>
<text text-anchor="start" x="570.5" y="-114" font-family="Helvetica,sans-Serif" font-size="10.00">JobChecker::check_pcm</text>
<text text-anchor="middle" x="628" y="-103" font-family="Helvetica,sans-Serif" font-size="10.00">_directly</text>
</a>
</g>
</g>
<!-- Node7&#45;&gt;Node10 -->
<g id="edge10_Node000007_Node000010" class="edge">
<title>Node7&#45;&gt;Node10</title>
<g id="a_edge10_Node000007_Node000010"><a xlink:title=" ">
<path fill="none" stroke="#63b8ff" d="M737.46,-187.26C735.22,-185.92 733.06,-184.51 731,-183 709.47,-167.27 716.42,-150.88 695,-135 690.4,-131.59 685.26,-128.62 679.94,-126.05"/>
<polygon fill="#63b8ff" stroke="#63b8ff" points="735.92,-190.4 746.39,-191.99 739.2,-184.22 735.92,-190.4"/>
</a>
</g>
</g>
<!-- Node14 -->
<g id="Node000014" class="node">
<title>Node14</title>
<g id="a_Node000014"><a xlink:href="group__ConfigExtensions.html#ga7669413b3e9cc5c696382a53a2cf9417" target="_top" xlink:title="Check if an extension is valid for output files.">
<polygon fill="white" stroke="#666666" points="868,-78 734,-78 734,-48 868,-48 868,-78"/>
<text text-anchor="start" x="742" y="-66" font-family="Helvetica,sans-Serif" font-size="10.00">ConfigManager::is_valid</text>
<text text-anchor="middle" x="801" y="-55" font-family="Helvetica,sans-Serif" font-size="10.00">_output_extension</text>
</a>
</g>
</g>
<!-- Node13&#45;&gt;Node14 -->
<g id="edge14_Node000013_Node000014" class="edge">
<title>Node13&#45;&gt;Node14</title>
<g id="a_edge14_Node000013_Node000014"><a xlink:title=" ">
<path fill="none" stroke="#63b8ff" d="M908.24,-63C895.08,-63 881.25,-63 868.08,-63"/>
<polygon fill="#63b8ff" stroke="#63b8ff" points="908.63,-66.5 918.63,-63 908.63,-59.5 908.63,-66.5"/>
</a>
</g>
</g>
<!-- Node16 -->
<g id="Node000016" class="node">
<title>Node16</title>
<g id="a_Node000016"><a xlink:href="group__ConfigValidation.html#ga3b0a3320c46ed448da49cea015ea4b31" target="_top" xlink:title="Validate all configuration values for correctness and consistency.">
<polygon fill="white" stroke="#666666" points="869,-30 733,-30 733,0 869,0 869,-30"/>
<text text-anchor="start" x="741" y="-18" font-family="Helvetica,sans-Serif" font-size="10.00">ConfigManager::validate</text>
<text text-anchor="middle" x="801" y="-7" font-family="Helvetica,sans-Serif" font-size="10.00">_config</text>
</a>
</g>
</g>
<!-- Node15&#45;&gt;Node16 -->
<g id="edge16_Node000015_Node000016" class="edge">
<title>Node15&#45;&gt;Node16</title>
<g id="a_edge16_Node000015_Node000016"><a xlink:title=" ">
<path fill="none" stroke="#63b8ff" d="M896.3,-15C887.19,-15 877.96,-15 869.01,-15"/>
<polygon fill="#63b8ff" stroke="#63b8ff" points="896.51,-18.5 906.51,-15 896.51,-11.5 896.51,-18.5"/>
</a>
</g>
</g>
<!-- Node17 -->
<g id="Node000017" class="node">
<title>Node17</title>
<g id="a_Node000017"><a xlink:href="group__ConfigLoading.html#gadb55801d91871e98b5c5da2acd289a35" target="_top" xlink:title="Load configuration from file with error handling.">
<polygon fill="white" stroke="#666666" points="686.5,-54 569.5,-54 569.5,-24 686.5,-24 686.5,-54"/>
<text text-anchor="start" x="577.5" y="-42" font-family="Helvetica,sans-Serif" font-size="10.00">ConfigManager::load</text>
<text text-anchor="middle" x="628" y="-31" font-family="Helvetica,sans-Serif" font-size="10.00">_config</text>
</a>
</g>
</g>
<!-- Node16&#45;&gt;Node17 -->
<g id="edge17_Node000016_Node000017" class="edge">
<title>Node16&#45;&gt;Node17</title>
<g id="a_edge17_Node000016_Node000017"><a xlink:title=" ">
<path fill="none" stroke="#63b8ff" d="M722.8,-25.83C710.68,-27.54 698.34,-29.27 686.76,-30.89"/>
<polygon fill="#63b8ff" stroke="#63b8ff" points="723.49,-29.27 732.91,-24.42 722.52,-22.34 723.49,-29.27"/>
</a>
</g>
</g>
<!-- Node17&#45;&gt;Node4 -->
<g id="edge20_Node000017_Node000004" class="edge">
<title>Node17&#45;&gt;Node4</title>
<g id="a_edge20_Node000017_Node000004"><a xlink:title=" ">
<path fill="none" stroke="#63b8ff" d="M559.13,-42.17C433.09,-48.38 167.47,-63.14 77,-81 64.88,-83.39 51.7,-87.59 41.23,-91.34"/>
<polygon fill="#63b8ff" stroke="#63b8ff" points="559.6,-45.65 569.42,-41.66 559.26,-38.66 559.6,-45.65"/>
</a>
</g>
</g>
<!-- Node18 -->
<g id="Node000018" class="node">
<title>Node18</title>
<g id="a_Node000018"><a xlink:href="group__CommandExecutors.html#ga1389de38a8f4d50be08ded6a0240627f" target="_top" xlink:title="Load and initialize configuration system.">
<polygon fill="white" stroke="#666666" points="522,-135 398,-135 398,-105 522,-105 522,-135"/>
<text text-anchor="start" x="406" y="-123" font-family="Helvetica,sans-Serif" font-size="10.00">CommandParser::load</text>
<text text-anchor="middle" x="460" y="-112" font-family="Helvetica,sans-Serif" font-size="10.00">_configuration</text>
</a>
</g>
</g>
<!-- Node17&#45;&gt;Node18 -->
<g id="edge18_Node000017_Node000018" class="edge">
<title>Node17&#45;&gt;Node18</title>
<g id="a_edge18_Node000017_Node000018"><a xlink:title=" ">
<path fill="none" stroke="#63b8ff" d="M587.06,-58.49C557.85,-72.74 518.81,-91.79 491.95,-104.9"/>
<polygon fill="#63b8ff" stroke="#63b8ff" points="588.71,-61.58 596.17,-54.05 585.64,-55.29 588.71,-61.58"/>
</a>
</g>
</g>
<!-- Node19 -->
<g id="Node000019" class="node">
<title>Node19</title>
<g id="a_Node000019"><a xlink:href="group__ConfigLoading.html#gad792b6c3fe11b0bd927622b2e0966bf5" target="_top" xlink:title="Reload configuration from the previously loaded file.">
<polygon fill="white" stroke="#666666" points="523.5,-33 396.5,-33 396.5,-3 523.5,-3 523.5,-33"/>
<text text-anchor="start" x="404.5" y="-21" font-family="Helvetica,sans-Serif" font-size="10.00">ConfigManager::reload</text>
<text text-anchor="middle" x="460" y="-10" font-family="Helvetica,sans-Serif" font-size="10.00">_config</text>
</a>
</g>
</g>
<!-- Node17&#45;&gt;Node19 -->
<g id="edge21_Node000017_Node000019" class="edge">
<title>Node17&#45;&gt;Node19</title>
<g id="a_edge21_Node000017_Node000019"><a xlink:title=" ">
<path fill="none" stroke="#63b8ff" d="M559.19,-30.42C547.42,-28.93 535.22,-27.39 523.59,-25.92"/>
<polygon fill="#63b8ff" stroke="#63b8ff" points="559.05,-33.93 569.41,-31.71 559.93,-26.99 559.05,-33.93"/>
</a>
</g>
</g>
<!-- Node18&#45;&gt;Node3 -->
<g id="edge19_Node000018_Node000003" class="edge">
<title>Node18&#45;&gt;Node3</title>
<g id="a_edge19_Node000018_Node000003"><a xlink:title=" ">
<path fill="none" stroke="#63b8ff" d="M387.72,-123.48C378.21,-123.94 368.51,-124.41 359.14,-124.87"/>
<polygon fill="#63b8ff" stroke="#63b8ff" points="388.11,-126.96 397.93,-122.98 387.77,-119.97 388.11,-126.96"/>
</a>
</g>
</g>
</g>
</svg>

<g id="navigator" transform="translate(0 0)" fill="#404254">
  <rect fill="#f2f5e9" fill-opacity="0.5" stroke="#606060" stroke-width=".5" x="0" y="0" width="60" height="60"/>
  <use id="zoomplus" xlink:href="#zoomPlus" x="17" y="9" onmousedown="handleZoom(evt,'in')"/>
  <use id="zoomminus" xlink:href="#zoomMin" x="42" y="9" onmousedown="handleZoom(evt,'out')"/>
  <use id="reset" xlink:href="#resetDef" x="30" y="36" onmousedown="handleReset()"/>
   <use id="arrowup" xlink:href="#arrowUp" x="0" y="0" onmousedown="handlePan(0,-1)"/>
  <use id="arrowright" xlink:href="#arrowRight" x="0" y="0" onmousedown="handlePan(1,0)"/>
  <use id="arrowdown" xlink:href="#arrowDown" x="0" y="0" onmousedown="handlePan(0,1)"/>
  <use id="arrowleft" xlink:href="#arrowLeft" x="0" y="0" onmousedown="handlePan(-1,0)"/>
</g>
<svg viewBox="0 0 15 15" width="100%" height="30px" preserveAspectRatio="xMaxYMin meet">
 <g id="arrow_out" transform="scale(0.3 0.3)">
  <a xlink:href="group__ConfigStringUtils_ga2f21572e2bdf739cbd8c75720728196c_icgraph_org.svg" target="_base">
   <rect id="button" ry="5" rx="5" y="6" x="6" height="38" width="38"
        fill="#f2f5e9" fill-opacity="0.5" stroke="#606060" stroke-width="1.0"/>
   <path id="arrow"
     d="M 11.500037,31.436501 C 11.940474,20.09759 22.043105,11.32322 32.158766,21.979434 L 37.068811,17.246167 C 37.068811,17.246167 37.088388,32 37.088388,32 L 22.160133,31.978069 C 22.160133,31.978069 26.997745,27.140456 26.997745,27.140456 C 18.528582,18.264221 13.291696,25.230495 11.500037,31.436501 z"
     style="fill:#404040;"/>
  </a>
 </g>
</svg>

<style type='text/css'>
<![CDATA[
[data-mouse-over-selected='false'] { opacity: 0.7; }
[data-mouse-over-selected='true']  { opacity: 1.0; }
]]>
</style>
<script type="application/ecmascript"><![CDATA[
document.addEventListener('DOMContentLoaded', (event) => {
  highlightEdges();
  highlightAdjacentNodes();
});
]]></script>
</svg>
