<?xml version="1.0" encoding="UTF-8" standalone="no"?>
<!DOCTYPE svg PUBLIC "-//W3C//DTD SVG 1.1//EN"
 "http://www.w3.org/Graphics/SVG/1.1/DTD/svg11.dtd">
<!-- Generated by graphviz version 2.43.0 (0)
 -->
<!-- Title: CommandParser::load_configuration Pages: 1 -->
<!--zoomable 753 -->

<svg id="main" version="1.1" xmlns="http://www.w3.org/2000/svg" xmlns:xlink="http://www.w3.org/1999/xlink" xml:space="preserve" onload="init(evt)">
<style type="text/css"><![CDATA[
.node, .edge {opacity: 0.7;}
.node.selected, .edge.selected {opacity: 1;}
.edge:hover path { stroke: red; }
.edge:hover polygon { stroke: red; fill: red; }
]]></style>

<defs>
  <circle id="rim" cx="0" cy="0" r="7"/>
  <circle id="rim2" cx="0" cy="0" r="3.5"/>
  <g id="zoomPlus">
    <use xlink:href="#rim" fill="#404040"><set attributeName="fill" to="#808080" begin="zoomplus.mouseover" end="zoomplus.mouseout"/></use>
    <path d="M-4,0h8M0,-4v8" fill="none" stroke="white" stroke-width="1.5" pointer-events="none"/>
  </g>
  <g id="zoomMin">
    <use xlink:href="#rim" fill="#404040"><set attributeName="fill" to="#808080" begin="zoomminus.mouseover" end="zoomminus.mouseout"/></use>
    <path d="M-4,0h8" fill="none" stroke="white" stroke-width="1.5" pointer-events="none"/>
  </g>
  <g id="arrowUp" transform="translate(30 24)">
    <use xlink:href="#rim"/>
    <path pointer-events="none" fill="none" stroke="white" stroke-width="1.5" d="M0,-3.0v7 M-2.5,-0.5L0,-3.0L2.5,-0.5"/>
  </g>
  <g id="arrowRight" transform="rotate(90) translate(36 -43)">
    <use xlink:href="#rim"/>
    <path pointer-events="none" fill="none" stroke="white" stroke-width="1.5" d="M0,-3.0v7 M-2.5,-0.5L0,-3.0L2.5,-0.5"/>
  </g>
  <g id="arrowDown" transform="rotate(180) translate(-30 -48)">
    <use xlink:href="#rim"/>
    <path pointer-events="none" fill="none" stroke="white" stroke-width="1.5" d="M0,-3.0v7 M-2.5,-0.5L0,-3.0L2.5,-0.5"/>
  </g>
  <g id="arrowLeft" transform="rotate(270) translate(-36 17)">
    <use xlink:href="#rim"/>
    <path pointer-events="none" fill="none" stroke="white" stroke-width="1.5" d="M0,-3.0v7 M-2.5,-0.5L0,-3.0L2.5,-0.5"/>
  </g>
  <g id="resetDef">
    <use xlink:href="#rim2" fill="#404040"><set attributeName="fill" to="#808080" begin="reset.mouseover" end="reset.mouseout"/></use>
  </g>
</defs>
<script type="application/ecmascript">
var viewWidth = 1006;
var viewHeight = 753;
var sectionId = 'dynsection-8';
</script>
<script type="application/ecmascript" xlink:href="svg.min.js"/>
<svg id="graph" class="graph">
<g id="viewport">
<title>CommandParser::load_configuration</title>
<!-- Node1 -->
<g id="Node000001" class="node">
<title>Node1</title>
<g id="a_Node000001"><a xlink:title="Load and initialize configuration system.">
<polygon fill="#999999" stroke="#666666" points="124,-584 0,-584 0,-554 124,-554 124,-584"/>
<text text-anchor="start" x="8" y="-572" font-family="Helvetica,sans-Serif" font-size="10.00">CommandParser::load</text>
<text text-anchor="middle" x="62" y="-561" font-family="Helvetica,sans-Serif" font-size="10.00">_configuration</text>
</a>
</g>
</g>
<!-- Node2 -->
<g id="Node000002" class="node">
<title>Node2</title>
<g id="a_Node000002"><a xlink:href="group__ConfigStatus.html#gad4e7fde5f25d445064d4a20d40cc3801" target="_top" xlink:title="Check if configuration has been successfully loaded.">
<polygon fill="white" stroke="#666666" points="299,-608 160,-608 160,-578 299,-578 299,-608"/>
<text text-anchor="start" x="168" y="-596" font-family="Helvetica,sans-Serif" font-size="10.00">ConfigManager::is_config</text>
<text text-anchor="middle" x="229.5" y="-585" font-family="Helvetica,sans-Serif" font-size="10.00">_loaded</text>
</a>
</g>
</g>
<!-- Node1&#45;&gt;Node2 -->
<g id="edge1_Node000001_Node000002" class="edge">
<title>Node1&#45;&gt;Node2</title>
<g id="a_edge1_Node000001_Node000002"><a xlink:title=" ">
<path fill="none" stroke="#63b8ff" d="M124.16,-577.87C132.49,-579.08 141.15,-580.33 149.74,-581.58"/>
<polygon fill="#63b8ff" stroke="#63b8ff" points="149.39,-585.06 159.79,-583.04 150.39,-578.14 149.39,-585.06"/>
</a>
</g>
</g>
<!-- Node3 -->
<g id="Node000003" class="node">
<title>Node3</title>
<g id="a_Node000003"><a xlink:href="group__ConfigLoading.html#gadb55801d91871e98b5c5da2acd289a35" target="_top" xlink:title="Load configuration from file with error handling.">
<polygon fill="white" stroke="#666666" points="288,-560 171,-560 171,-530 288,-530 288,-560"/>
<text text-anchor="start" x="179" y="-548" font-family="Helvetica,sans-Serif" font-size="10.00">ConfigManager::load</text>
<text text-anchor="middle" x="229.5" y="-537" font-family="Helvetica,sans-Serif" font-size="10.00">_config</text>
</a>
</g>
</g>
<!-- Node1&#45;&gt;Node3 -->
<g id="edge2_Node000001_Node000003" class="edge">
<title>Node1&#45;&gt;Node3</title>
<g id="a_edge2_Node000001_Node000003"><a xlink:title=" ">
<path fill="none" stroke="#63b8ff" d="M124.16,-560.13C136.1,-558.4 148.68,-556.57 160.82,-554.81"/>
<polygon fill="#63b8ff" stroke="#63b8ff" points="161.5,-558.25 170.89,-553.35 160.49,-551.33 161.5,-558.25"/>
</a>
</g>
</g>
<!-- Node4 -->
<g id="Node000004" class="node">
<title>Node4</title>
<g id="a_Node000004"><a xlink:href="group__ConfigInternals.html#ga604fe8c75e45b77e7068faeafbadcb18" target="_top" xlink:title="Search for and locate configuration file.">
<polygon fill="white" stroke="#666666" points="460,-659 346,-659 346,-629 460,-629 460,-659"/>
<text text-anchor="start" x="354" y="-647" font-family="Helvetica,sans-Serif" font-size="10.00">ConfigManager::find</text>
<text text-anchor="middle" x="403" y="-636" font-family="Helvetica,sans-Serif" font-size="10.00">_config_file</text>
</a>
</g>
</g>
<!-- Node3&#45;&gt;Node4 -->
<g id="edge3_Node000003_Node000004" class="edge">
<title>Node3&#45;&gt;Node4</title>
<g id="a_edge3_Node000003_Node000004"><a xlink:title=" ">
<path fill="none" stroke="#63b8ff" d="M279.16,-560.05C285.96,-562.73 292.75,-565.72 299,-569 327.41,-583.9 356.68,-605.99 376.73,-622.34"/>
<polygon fill="#63b8ff" stroke="#63b8ff" points="374.52,-625.06 384.46,-628.73 378.99,-619.66 374.52,-625.06"/>
</a>
</g>
</g>
<!-- Node9 -->
<g id="Node000009" class="node">
<title>Node9</title>
<g id="a_Node000009"><a xlink:href="group__ConfigInternals.html#ga957a682fae0ee249a4fc255014d73f82" target="_top" xlink:title="Parse a single line from configuration file.">
<polygon fill="white" stroke="#666666" points="464.5,-560 341.5,-560 341.5,-530 464.5,-530 464.5,-560"/>
<text text-anchor="start" x="349.5" y="-548" font-family="Helvetica,sans-Serif" font-size="10.00">ConfigManager::parse</text>
<text text-anchor="middle" x="403" y="-537" font-family="Helvetica,sans-Serif" font-size="10.00">_config_line</text>
</a>
</g>
</g>
<!-- Node3&#45;&gt;Node9 -->
<g id="edge8_Node000003_Node000009" class="edge">
<title>Node3&#45;&gt;Node9</title>
<g id="a_edge8_Node000003_Node000009"><a xlink:title=" ">
<path fill="none" stroke="#63b8ff" d="M288.08,-545C301.87,-545 316.74,-545 331.05,-545"/>
<polygon fill="#63b8ff" stroke="#63b8ff" points="331.34,-548.5 341.34,-545 331.34,-541.5 331.34,-548.5"/>
</a>
</g>
</g>
<!-- Node12 -->
<g id="Node000012" class="node">
<title>Node12</title>
<g id="a_Node000012"><a xlink:href="group__ConfigValidation.html#ga3b0a3320c46ed448da49cea015ea4b31" target="_top" xlink:title="Validate all configuration values for correctness and consistency.">
<polygon fill="white" stroke="#666666" points="471,-247 335,-247 335,-217 471,-217 471,-247"/>
<text text-anchor="start" x="343" y="-235" font-family="Helvetica,sans-Serif" font-size="10.00">ConfigManager::validate</text>
<text text-anchor="middle" x="403" y="-224" font-family="Helvetica,sans-Serif" font-size="10.00">_config</text>
</a>
</g>
</g>
<!-- Node3&#45;&gt;Node12 -->
<g id="edge11_Node000003_Node000012" class="edge">
<title>Node3&#45;&gt;Node12</title>
<g id="a_edge11_Node000003_Node000012"><a xlink:title=" ">
<path fill="none" stroke="#63b8ff" d="M238.77,-529.9C266.27,-479.71 354.81,-318.13 388.66,-256.34"/>
<polygon fill="#63b8ff" stroke="#63b8ff" points="391.87,-257.76 393.61,-247.31 385.74,-254.4 391.87,-257.76"/>
</a>
</g>
</g>
<!-- Node5 -->
<g id="Node000005" class="node">
<title>Node5</title>
<g id="a_Node000005"><a xlink:href="group__ConfigFileUtils.html#gabdac223165725cc113ecae62b0c10b41" target="_top" xlink:title="Check if a file exists and is accessible.">
<polygon fill="white" stroke="#666666" points="647.5,-744.5 522.5,-744.5 522.5,-725.5 647.5,-725.5 647.5,-744.5"/>
<text text-anchor="middle" x="585" y="-732.5" font-family="Helvetica,sans-Serif" font-size="10.00">ConfigUtils::file_exists</text>
</a>
</g>
</g>
<!-- Node4&#45;&gt;Node5 -->
<g id="edge4_Node000004_Node000005" class="edge">
<title>Node4&#45;&gt;Node5</title>
<g id="a_edge4_Node000004_Node000005"><a xlink:title=" ">
<path fill="none" stroke="#63b8ff" d="M421.37,-659.19C440.91,-675.51 474.22,-701.12 507,-716 512.38,-718.44 518.12,-720.6 523.95,-722.5"/>
<polygon fill="#63b8ff" stroke="#63b8ff" points="523.21,-725.93 533.8,-725.46 525.23,-719.23 523.21,-725.93"/>
</a>
</g>
</g>
<!-- Node6 -->
<g id="Node000006" class="node">
<title>Node6</title>
<g id="a_Node000006"><a xlink:href="group__ConfigFileUtils.html#gaf98b0febad38de1b8c8b06b5b9808d26" target="_top" xlink:title="Get the directory where the executable is located.">
<polygon fill="white" stroke="#666666" points="660,-707 510,-707 510,-677 660,-677 660,-707"/>
<text text-anchor="start" x="518" y="-695" font-family="Helvetica,sans-Serif" font-size="10.00">ConfigUtils::get_executable</text>
<text text-anchor="middle" x="585" y="-684" font-family="Helvetica,sans-Serif" font-size="10.00">_directory</text>
</a>
</g>
</g>
<!-- Node4&#45;&gt;Node6 -->
<g id="edge5_Node000004_Node000006" class="edge">
<title>Node4&#45;&gt;Node6</title>
<g id="a_edge5_Node000004_Node000006"><a xlink:title=" ">
<path fill="none" stroke="#63b8ff" d="M460.46,-659.06C478.72,-663.93 499.13,-669.37 518.02,-674.41"/>
<polygon fill="#63b8ff" stroke="#63b8ff" points="517.18,-677.8 527.74,-677 518.98,-671.04 517.18,-677.8"/>
</a>
</g>
</g>
<!-- Node7 -->
<g id="Node000007" class="node">
<title>Node7</title>
<g id="a_Node000007"><a xlink:href="group__ConfigUtilities.html#gac3e49e311008abed27ce54b805f5f925" target="_top" xlink:title="Get user&#39;s home directory path.">
<polygon fill="white" stroke="#666666" points="647.5,-659 522.5,-659 522.5,-629 647.5,-629 647.5,-659"/>
<text text-anchor="start" x="530.5" y="-647" font-family="Helvetica,sans-Serif" font-size="10.00">ConfigManager::get</text>
<text text-anchor="middle" x="585" y="-636" font-family="Helvetica,sans-Serif" font-size="10.00">_user_home_directory</text>
</a>
</g>
</g>
<!-- Node4&#45;&gt;Node7 -->
<g id="edge6_Node000004_Node000007" class="edge">
<title>Node4&#45;&gt;Node7</title>
<g id="a_edge6_Node000004_Node000007"><a xlink:title=" ">
<path fill="none" stroke="#63b8ff" d="M460.46,-644C476.92,-644 495.13,-644 512.39,-644"/>
<polygon fill="#63b8ff" stroke="#63b8ff" points="512.43,-647.5 522.43,-644 512.43,-640.5 512.43,-647.5"/>
</a>
</g>
</g>
<!-- Node8 -->
<g id="Node000008" class="node">
<title>Node8</title>
<g id="a_Node000008"><a xlink:href="group__ConfigFileUtils.html#ga892ca7155558aa7c9813c0c04ab55a8e" target="_top" xlink:title="Check if a file is readable.">
<polygon fill="white" stroke="#666666" points="651,-610.5 519,-610.5 519,-591.5 651,-591.5 651,-610.5"/>
<text text-anchor="middle" x="585" y="-598.5" font-family="Helvetica,sans-Serif" font-size="10.00">ConfigUtils::is_readable</text>
</a>
</g>
</g>
<!-- Node4&#45;&gt;Node8 -->
<g id="edge7_Node000004_Node000008" class="edge">
<title>Node4&#45;&gt;Node8</title>
<g id="a_edge7_Node000004_Node000008"><a xlink:title=" ">
<path fill="none" stroke="#63b8ff" d="M460.46,-630.51C484.08,-624.87 511.3,-618.37 534.16,-612.91"/>
<polygon fill="#63b8ff" stroke="#63b8ff" points="535.09,-616.28 544,-610.55 533.46,-609.47 535.09,-616.28"/>
</a>
</g>
</g>
<!-- Node10 -->
<g id="Node000010" class="node">
<title>Node10</title>
<g id="a_Node000010"><a xlink:href="group__ConfigInternals.html#ga41b6643ab4d5f045866958f39adf0890" target="_top" xlink:title="Validate that a configuration key is recognized.">
<polygon fill="white" stroke="#666666" points="663,-573.5 507,-573.5 507,-554.5 663,-554.5 663,-573.5"/>
<text text-anchor="middle" x="585" y="-561.5" font-family="Helvetica,sans-Serif" font-size="10.00">ConfigManager::is_valid_key</text>
</a>
</g>
</g>
<!-- Node9&#45;&gt;Node10 -->
<g id="edge9_Node000009_Node000010" class="edge">
<title>Node9&#45;&gt;Node10</title>
<g id="a_edge9_Node000009_Node000010"><a xlink:title=" ">
<path fill="none" stroke="#63b8ff" d="M464.69,-551.41C475.08,-552.5 486.06,-553.66 496.98,-554.81"/>
<polygon fill="#63b8ff" stroke="#63b8ff" points="496.66,-558.3 506.97,-555.87 497.4,-551.34 496.66,-558.3"/>
</a>
</g>
</g>
<!-- Node11 -->
<g id="Node000011" class="node">
<title>Node11</title>
<g id="a_Node000011"><a xlink:href="group__ConfigInternals.html#ga24e6150f47d12f03a5864631c6d846c5" target="_top" xlink:title="Remove leading and trailing whitespace from string.">
<polygon fill="white" stroke="#666666" points="822,-540.5 706,-540.5 706,-521.5 822,-521.5 822,-540.5"/>
<text text-anchor="middle" x="764" y="-528.5" font-family="Helvetica,sans-Serif" font-size="10.00">ConfigManager::trim</text>
</a>
</g>
</g>
<!-- Node9&#45;&gt;Node11 -->
<g id="edge10_Node000009_Node000011" class="edge">
<title>Node9&#45;&gt;Node11</title>
<g id="a_edge10_Node000009_Node000011"><a xlink:title=" ">
<path fill="none" stroke="#63b8ff" d="M464.9,-542.63C528.89,-540.13 629.29,-536.21 695.62,-533.63"/>
<polygon fill="#63b8ff" stroke="#63b8ff" points="696.1,-537.11 705.96,-533.22 695.83,-530.12 696.1,-537.11"/>
</a>
</g>
</g>
<!-- Node13 -->
<g id="Node000013" class="node">
<title>Node13</title>
<g id="a_Node000013"><a xlink:href="group__ConfigInternals.html#ga5e387d61b1f34873cd3ab047242b2aad" target="_top" xlink:title="Template method for type&#45;safe value conversion.">
<polygon fill="white" stroke="#666666" points="998,-277 865,-277 865,-247 998,-247 998,-277"/>
<text text-anchor="start" x="873" y="-265" font-family="Helvetica,sans-Serif" font-size="10.00">ConfigManager::convert</text>
<text text-anchor="middle" x="931.5" y="-254" font-family="Helvetica,sans-Serif" font-size="10.00">_value</text>
</a>
</g>
</g>
<!-- Node12&#45;&gt;Node13 -->
<g id="edge12_Node000012_Node000013" class="edge">
<title>Node12&#45;&gt;Node13</title>
<g id="a_edge12_Node000012_Node000013"><a xlink:title=" ">
<path fill="none" stroke="#63b8ff" d="M466.67,-216.99C550.55,-199.47 703.34,-176.65 829,-208 855.03,-214.49 881.71,-229.06 901.18,-241.42"/>
<polygon fill="#63b8ff" stroke="#63b8ff" points="899.3,-244.38 909.59,-246.91 903.13,-238.52 899.3,-244.38"/>
</a>
</g>
</g>
<!-- Node14 -->
<g id="Node000014" class="node">
<title>Node14</title>
<g id="a_Node000014"><a xlink:href="group__ConfigValueGetters.html#ga5c646b796256dc3d0905ce144f9758a2" target="_top" xlink:title="Get double configuration value.">
<polygon fill="white" stroke="#666666" points="820,-143 708,-143 708,-113 820,-113 820,-143"/>
<text text-anchor="start" x="716" y="-131" font-family="Helvetica,sans-Serif" font-size="10.00">ConfigManager::get</text>
<text text-anchor="middle" x="764" y="-120" font-family="Helvetica,sans-Serif" font-size="10.00">_double</text>
</a>
</g>
</g>
<!-- Node12&#45;&gt;Node14 -->
<g id="edge13_Node000012_Node000014" class="edge">
<title>Node12&#45;&gt;Node14</title>
<g id="a_edge13_Node000012_Node000014"><a xlink:title=" ">
<path fill="none" stroke="#63b8ff" d="M428.06,-216.81C448.38,-204.63 478.62,-187.97 507,-178 569.88,-155.91 645.08,-142.69 697.65,-135.45"/>
<polygon fill="#63b8ff" stroke="#63b8ff" points="698.4,-138.88 707.85,-134.08 697.47,-131.94 698.4,-138.88"/>
</a>
</g>
</g>
<!-- Node15 -->
<g id="Node000015" class="node">
<title>Node15</title>
<g id="a_Node000015"><a xlink:href="group__ConfigValueGetters.html#ga7d3d6c0afb01a9f8c1dc20c35ad33314" target="_top" xlink:title="Get integer configuration value.">
<polygon fill="white" stroke="#666666" points="829,-302.5 699,-302.5 699,-283.5 829,-283.5 829,-302.5"/>
<text text-anchor="middle" x="764" y="-290.5" font-family="Helvetica,sans-Serif" font-size="10.00">ConfigManager::get_int</text>
</a>
</g>
</g>
<!-- Node12&#45;&gt;Node15 -->
<g id="edge16_Node000012_Node000015" class="edge">
<title>Node12&#45;&gt;Node15</title>
<g id="a_edge16_Node000012_Node000015"><a xlink:title=" ">
<path fill="none" stroke="#63b8ff" d="M471.1,-243.4C535.64,-254.37 632.6,-270.84 696.82,-281.76"/>
<polygon fill="#63b8ff" stroke="#63b8ff" points="696.4,-285.23 706.84,-283.46 697.57,-278.33 696.4,-285.23"/>
</a>
</g>
</g>
<!-- Node16 -->
<g id="Node000016" class="node">
<title>Node16</title>
<g id="a_Node000016"><a xlink:href="group__ConfigValueGetters.html#gaa29924b452368659c06cf8a0e65e5972" target="_top" xlink:title="Get size_t configuration value.">
<polygon fill="white" stroke="#666666" points="820,-247 708,-247 708,-217 820,-217 820,-247"/>
<text text-anchor="start" x="716" y="-235" font-family="Helvetica,sans-Serif" font-size="10.00">ConfigManager::get</text>
<text text-anchor="middle" x="764" y="-224" font-family="Helvetica,sans-Serif" font-size="10.00">_size_t</text>
</a>
</g>
</g>
<!-- Node12&#45;&gt;Node16 -->
<g id="edge19_Node000012_Node000016" class="edge">
<title>Node12&#45;&gt;Node16</title>
<g id="a_edge19_Node000012_Node000016"><a xlink:title=" ">
<path fill="none" stroke="#63b8ff" d="M471.1,-232C536.02,-232 633.76,-232 697.97,-232"/>
<polygon fill="#63b8ff" stroke="#63b8ff" points="697.98,-235.5 707.98,-232 697.98,-228.5 697.98,-235.5"/>
</a>
</g>
</g>
<!-- Node17 -->
<g id="Node000017" class="node">
<title>Node17</title>
<g id="a_Node000017"><a xlink:href="group__ConfigValueGetters.html#gaa25cec73939b4d9bd7419f553faae0cb" target="_top" xlink:title="Get string configuration value.">
<polygon fill="white" stroke="#666666" points="820,-503 708,-503 708,-473 820,-473 820,-503"/>
<text text-anchor="start" x="716" y="-491" font-family="Helvetica,sans-Serif" font-size="10.00">ConfigManager::get</text>
<text text-anchor="middle" x="764" y="-480" font-family="Helvetica,sans-Serif" font-size="10.00">_string</text>
</a>
</g>
</g>
<!-- Node12&#45;&gt;Node17 -->
<g id="edge22_Node000012_Node000017" class="edge">
<title>Node12&#45;&gt;Node17</title>
<g id="a_edge22_Node000012_Node000017"><a xlink:title=" ">
<path fill="none" stroke="#63b8ff" d="M407.96,-247.14C418.03,-282.56 448.12,-371.26 507,-416 563.82,-459.17 594.48,-434.05 663,-454 679.04,-458.67 696.32,-464.32 711.94,-469.66"/>
<polygon fill="#63b8ff" stroke="#63b8ff" points="710.83,-472.98 721.42,-472.94 713.11,-466.37 710.83,-472.98"/>
</a>
</g>
</g>
<!-- Node18 -->
<g id="Node000018" class="node">
<title>Node18</title>
<g id="a_Node000018"><a xlink:href="group__ConfigValidationUtils.html#gae4991b82543e777bc3a4b13fba2e2ac2" target="_top" xlink:title="Validate concentration value for chemical reasonableness.">
<polygon fill="white" stroke="#666666" points="641.5,-126 528.5,-126 528.5,-96 641.5,-96 641.5,-126"/>
<text text-anchor="start" x="536.5" y="-114" font-family="Helvetica,sans-Serif" font-size="10.00">ConfigUtils::is_valid</text>
<text text-anchor="middle" x="585" y="-103" font-family="Helvetica,sans-Serif" font-size="10.00">_concentration</text>
</a>
</g>
</g>
<!-- Node12&#45;&gt;Node18 -->
<g id="edge24_Node000012_Node000018" class="edge">
<title>Node12&#45;&gt;Node18</title>
<g id="a_edge24_Node000012_Node000018"><a xlink:title=" ">
<path fill="none" stroke="#63b8ff" d="M417.63,-216.73C436.16,-196.75 471.11,-161.74 507,-140 512.91,-136.42 519.34,-133.16 525.87,-130.22"/>
<polygon fill="#63b8ff" stroke="#63b8ff" points="527.64,-133.27 535.48,-126.15 524.91,-126.83 527.64,-133.27"/>
</a>
</g>
</g>
<!-- Node19 -->
<g id="Node000019" class="node">
<title>Node19</title>
<g id="a_Node000019"><a xlink:href="group__ConfigValidationUtils.html#gabbc0a80ccd4e422868d76a759fad7a48" target="_top" xlink:title="Validate file size limit for system appropriateness.">
<polygon fill="white" stroke="#666666" points="641.5,-78 528.5,-78 528.5,-48 641.5,-48 641.5,-78"/>
<text text-anchor="start" x="536.5" y="-66" font-family="Helvetica,sans-Serif" font-size="10.00">ConfigUtils::is_valid</text>
<text text-anchor="middle" x="585" y="-55" font-family="Helvetica,sans-Serif" font-size="10.00">_file_size</text>
</a>
</g>
</g>
<!-- Node12&#45;&gt;Node19 -->
<g id="edge25_Node000012_Node000019" class="edge">
<title>Node12&#45;&gt;Node19</title>
<g id="a_edge25_Node000012_Node000019"><a xlink:title=" ">
<path fill="none" stroke="#63b8ff" d="M410.67,-216.79C424.36,-187.31 458.51,-122.18 507,-87 510.73,-84.29 514.78,-81.88 519,-79.74"/>
<polygon fill="#63b8ff" stroke="#63b8ff" points="520.79,-82.77 528.46,-75.46 517.91,-76.39 520.79,-82.77"/>
</a>
</g>
</g>
<!-- Node20 -->
<g id="Node000020" class="node">
<title>Node20</title>
<g id="a_Node000020"><a xlink:href="group__ConfigValidationUtils.html#gaaab1339b93b3b34c3f6c53b8e6a3727e" target="_top" xlink:title="Validate pressure value for physical reasonableness.">
<polygon fill="white" stroke="#666666" points="641.5,-30 528.5,-30 528.5,0 641.5,0 641.5,-30"/>
<text text-anchor="start" x="536.5" y="-18" font-family="Helvetica,sans-Serif" font-size="10.00">ConfigUtils::is_valid</text>
<text text-anchor="middle" x="585" y="-7" font-family="Helvetica,sans-Serif" font-size="10.00">_pressure</text>
</a>
</g>
</g>
<!-- Node12&#45;&gt;Node20 -->
<g id="edge26_Node000012_Node000020" class="edge">
<title>Node12&#45;&gt;Node20</title>
<g id="a_edge26_Node000012_Node000020"><a xlink:title=" ">
<path fill="none" stroke="#63b8ff" d="M407.78,-216.93C417.64,-180.71 447.6,-88.16 507,-39 510.71,-35.93 514.82,-33.24 519.15,-30.91"/>
<polygon fill="#63b8ff" stroke="#63b8ff" points="520.76,-34.02 528.29,-26.57 517.76,-27.69 520.76,-34.02"/>
</a>
</g>
</g>
<!-- Node21 -->
<g id="Node000021" class="node">
<title>Node21</title>
<g id="a_Node000021"><a xlink:href="group__ConfigValidationUtils.html#gab7c7175516bb9e9ba06fbae9929ffdc9" target="_top" xlink:title="Validate temperature value for physical reasonableness.">
<polygon fill="white" stroke="#666666" points="641.5,-493 528.5,-493 528.5,-463 641.5,-463 641.5,-493"/>
<text text-anchor="start" x="536.5" y="-481" font-family="Helvetica,sans-Serif" font-size="10.00">ConfigUtils::is_valid</text>
<text text-anchor="middle" x="585" y="-470" font-family="Helvetica,sans-Serif" font-size="10.00">_temperature</text>
</a>
</g>
</g>
<!-- Node12&#45;&gt;Node21 -->
<g id="edge27_Node000012_Node000021" class="edge">
<title>Node12&#45;&gt;Node21</title>
<g id="a_edge27_Node000012_Node000021"><a xlink:title=" ">
<path fill="none" stroke="#63b8ff" d="M407.08,-247.23C415.75,-286.27 443.94,-390.97 507,-449 510.78,-452.48 515.02,-455.55 519.51,-458.26"/>
<polygon fill="#63b8ff" stroke="#63b8ff" points="517.94,-461.39 528.4,-463.05 521.25,-455.23 517.94,-461.39"/>
</a>
</g>
</g>
<!-- Node22 -->
<g id="Node000022" class="node">
<title>Node22</title>
<g id="a_Node000022"><a xlink:href="group__ConfigValidation.html#gac6254d405c53ed8f433ab6d2785c0a90" target="_top" xlink:title="Validate file extension configuration values.">
<polygon fill="white" stroke="#666666" points="653,-407 517,-407 517,-377 653,-377 653,-407"/>
<text text-anchor="start" x="525" y="-395" font-family="Helvetica,sans-Serif" font-size="10.00">ConfigManager::validate</text>
<text text-anchor="middle" x="585" y="-384" font-family="Helvetica,sans-Serif" font-size="10.00">_file_extensions</text>
</a>
</g>
</g>
<!-- Node12&#45;&gt;Node22 -->
<g id="edge28_Node000012_Node000022" class="edge">
<title>Node12&#45;&gt;Node22</title>
<g id="a_edge28_Node000012_Node000022"><a xlink:title=" ">
<path fill="none" stroke="#63b8ff" d="M420.93,-247.05C452.83,-275.4 521.94,-336.83 559.12,-369.88"/>
<polygon fill="#63b8ff" stroke="#63b8ff" points="557.18,-372.84 566.98,-376.87 561.83,-367.61 557.18,-372.84"/>
</a>
</g>
</g>
<!-- Node14&#45;&gt;Node13 -->
<g id="edge14_Node000014_Node000013" class="edge">
<title>Node14&#45;&gt;Node13</title>
<g id="a_edge14_Node000014_Node000013"><a xlink:title=" ">
<path fill="none" stroke="#63b8ff" d="M786.34,-143.06C798.93,-152.09 815.07,-163.94 829,-175 855.96,-196.4 885.75,-222.21 906.04,-240.13"/>
<polygon fill="#63b8ff" stroke="#63b8ff" points="903.78,-242.81 913.59,-246.82 908.43,-237.57 903.78,-242.81"/>
</a>
</g>
</g>
<!-- Node14&#45;&gt;Node14 -->
<g id="edge15_Node000014_Node000014" class="edge">
<title>Node14&#45;&gt;Node14</title>
<g id="a_edge15_Node000014_Node000014"><a xlink:title=" ">
<path fill="none" stroke="#63b8ff" d="M734.82,-143.28C728.34,-152.41 738.06,-161 764,-161 779.4,-161 789.09,-157.97 793.06,-153.6"/>
<polygon fill="#63b8ff" stroke="#63b8ff" points="796.56,-153.32 793.18,-143.28 789.56,-153.23 796.56,-153.32"/>
</a>
</g>
</g>
<!-- Node15&#45;&gt;Node13 -->
<g id="edge17_Node000015_Node000013" class="edge">
<title>Node15&#45;&gt;Node13</title>
<g id="a_edge17_Node000015_Node000013"><a xlink:title=" ">
<path fill="none" stroke="#63b8ff" d="M816.01,-283.45C828.27,-281.15 841.62,-278.65 854.74,-276.19"/>
<polygon fill="#63b8ff" stroke="#63b8ff" points="855.52,-279.6 864.71,-274.32 854.24,-272.72 855.52,-279.6"/>
</a>
</g>
</g>
<!-- Node15&#45;&gt;Node15 -->
<g id="edge18_Node000015_Node000015" class="edge">
<title>Node15&#45;&gt;Node15</title>
<g id="a_edge18_Node000015_Node000015"><a xlink:title=" ">
<path fill="none" stroke="#63b8ff" d="M738.41,-302.58C725.97,-311.23 734.5,-320.5 764,-320.5 783.36,-320.5 793.69,-316.51 794.99,-311.32"/>
<polygon fill="#63b8ff" stroke="#63b8ff" points="797.82,-309.25 789.59,-302.58 791.87,-312.93 797.82,-309.25"/>
</a>
</g>
</g>
<!-- Node16&#45;&gt;Node13 -->
<g id="edge20_Node000016_Node000013" class="edge">
<title>Node16&#45;&gt;Node13</title>
<g id="a_edge20_Node000016_Node000013"><a xlink:title=" ">
<path fill="none" stroke="#63b8ff" d="M820.11,-241.99C831.16,-243.99 842.96,-246.13 854.58,-248.24"/>
<polygon fill="#63b8ff" stroke="#63b8ff" points="854.25,-251.74 864.72,-250.08 855.5,-244.85 854.25,-251.74"/>
</a>
</g>
</g>
<!-- Node16&#45;&gt;Node16 -->
<g id="edge21_Node000016_Node000016" class="edge">
<title>Node16&#45;&gt;Node16</title>
<g id="a_edge21_Node000016_Node000016"><a xlink:title=" ">
<path fill="none" stroke="#63b8ff" d="M734.82,-247.28C728.34,-256.41 738.06,-265 764,-265 779.4,-265 789.09,-261.97 793.06,-257.6"/>
<polygon fill="#63b8ff" stroke="#63b8ff" points="796.56,-257.32 793.18,-247.28 789.56,-257.23 796.56,-257.32"/>
</a>
</g>
</g>
<!-- Node17&#45;&gt;Node13 -->
<g id="edge23_Node000017_Node000013" class="edge">
<title>Node17&#45;&gt;Node13</title>
<g id="a_edge23_Node000017_Node000013"><a xlink:title=" ">
<path fill="none" stroke="#63b8ff" d="M816.31,-472.89C820.88,-470.35 825.2,-467.41 829,-464 883.77,-414.79 912.77,-329.23 924.36,-287.02"/>
<polygon fill="#63b8ff" stroke="#63b8ff" points="927.77,-287.83 926.94,-277.27 921,-286.04 927.77,-287.83"/>
</a>
</g>
</g>
<!-- Node22&#45;&gt;Node11 -->
<g id="edge33_Node000022_Node000011" class="edge">
<title>Node22&#45;&gt;Node11</title>
<g id="a_edge33_Node000022_Node000011"><a xlink:title=" ">
<path fill="none" stroke="#63b8ff" d="M608.6,-407.07C624.93,-418.67 646.85,-435.75 663,-454 683.1,-476.73 674.88,-493.59 699,-512 701.45,-513.87 704.09,-515.56 706.85,-517.09"/>
<polygon fill="#63b8ff" stroke="#63b8ff" points="705.43,-520.29 715.96,-521.41 708.43,-513.96 705.43,-520.29"/>
</a>
</g>
</g>
<!-- Node22&#45;&gt;Node13 -->
<g id="edge29_Node000022_Node000013" class="edge">
<title>Node22&#45;&gt;Node13</title>
<g id="a_edge29_Node000022_Node000013"><a xlink:title=" ">
<path fill="none" stroke="#63b8ff" d="M653.18,-377.19C713.7,-363.38 797.79,-342.88 829,-329 856.06,-316.96 883.93,-298.01 903.61,-283.32"/>
<polygon fill="#63b8ff" stroke="#63b8ff" points="905.93,-285.96 911.77,-277.12 901.69,-280.38 905.93,-285.96"/>
</a>
</g>
</g>
<!-- Node22&#45;&gt;Node17 -->
<g id="edge30_Node000022_Node000017" class="edge">
<title>Node22&#45;&gt;Node17</title>
<g id="a_edge30_Node000022_Node000017"><a xlink:title=" ">
<path fill="none" stroke="#63b8ff" d="M637.17,-407.03C646.2,-410.84 655.19,-415.46 663,-421 683.33,-435.42 678.66,-449.59 699,-464 701.08,-465.47 703.25,-466.86 705.5,-468.18"/>
<polygon fill="#63b8ff" stroke="#63b8ff" points="703.97,-471.33 714.44,-472.89 707.23,-465.13 703.97,-471.33"/>
</a>
</g>
</g>
<!-- Node23 -->
<g id="Node000023" class="node">
<title>Node23</title>
<g id="a_Node000023"><a xlink:href="group__ConfigValidationUtils.html#ga6905a372521e35204369ffa3bb8d8b8e" target="_top" xlink:title="Validate file extension format.">
<polygon fill="white" stroke="#666666" points="820.5,-455 707.5,-455 707.5,-425 820.5,-425 820.5,-455"/>
<text text-anchor="start" x="715.5" y="-443" font-family="Helvetica,sans-Serif" font-size="10.00">ConfigUtils::is_valid</text>
<text text-anchor="middle" x="764" y="-432" font-family="Helvetica,sans-Serif" font-size="10.00">_extension</text>
</a>
</g>
</g>
<!-- Node22&#45;&gt;Node23 -->
<g id="edge31_Node000022_Node000023" class="edge">
<title>Node22&#45;&gt;Node23</title>
<g id="a_edge31_Node000022_Node000023"><a xlink:title=" ">
<path fill="none" stroke="#63b8ff" d="M641.52,-407.06C659.39,-411.9 679.36,-417.32 697.87,-422.34"/>
<polygon fill="#63b8ff" stroke="#63b8ff" points="697.11,-425.76 707.68,-425 698.94,-419 697.11,-425.76"/>
</a>
</g>
</g>
<!-- Node24 -->
<g id="Node000024" class="node">
<title>Node24</title>
<g id="a_Node000024"><a xlink:href="group__ConfigStringUtils.html#ga2f21572e2bdf739cbd8c75720728196c" target="_top" xlink:title="Split string into vector using delimiter.">
<polygon fill="white" stroke="#666666" points="812.5,-407 715.5,-407 715.5,-377 812.5,-377 812.5,-407"/>
<text text-anchor="start" x="723.5" y="-395" font-family="Helvetica,sans-Serif" font-size="10.00">ConfigUtils::split</text>
<text text-anchor="middle" x="764" y="-384" font-family="Helvetica,sans-Serif" font-size="10.00">_string</text>
</a>
</g>
</g>
<!-- Node22&#45;&gt;Node24 -->
<g id="edge32_Node000022_Node000024" class="edge">
<title>Node22&#45;&gt;Node24</title>
<g id="a_edge32_Node000022_Node000024"><a xlink:title=" ">
<path fill="none" stroke="#63b8ff" d="M653.17,-392C670.34,-392 688.65,-392 705.29,-392"/>
<polygon fill="#63b8ff" stroke="#63b8ff" points="705.42,-395.5 715.42,-392 705.42,-388.5 705.42,-395.5"/>
</a>
</g>
</g>
</g>
</svg>

<g id="navigator" transform="translate(0 0)" fill="#404254">
  <rect fill="#f2f5e9" fill-opacity="0.5" stroke="#606060" stroke-width=".5" x="0" y="0" width="60" height="60"/>
  <use id="zoomplus" xlink:href="#zoomPlus" x="17" y="9" onmousedown="handleZoom(evt,'in')"/>
  <use id="zoomminus" xlink:href="#zoomMin" x="42" y="9" onmousedown="handleZoom(evt,'out')"/>
  <use id="reset" xlink:href="#resetDef" x="30" y="36" onmousedown="handleReset()"/>
   <use id="arrowup" xlink:href="#arrowUp" x="0" y="0" onmousedown="handlePan(0,-1)"/>
  <use id="arrowright" xlink:href="#arrowRight" x="0" y="0" onmousedown="handlePan(1,0)"/>
  <use id="arrowdown" xlink:href="#arrowDown" x="0" y="0" onmousedown="handlePan(0,1)"/>
  <use id="arrowleft" xlink:href="#arrowLeft" x="0" y="0" onmousedown="handlePan(-1,0)"/>
</g>
<svg viewBox="0 0 15 15" width="100%" height="30px" preserveAspectRatio="xMaxYMin meet">
 <g id="arrow_out" transform="scale(0.3 0.3)">
  <a xlink:href="group__CommandExecutors_ga1389de38a8f4d50be08ded6a0240627f_cgraph_org.svg" target="_base">
   <rect id="button" ry="5" rx="5" y="6" x="6" height="38" width="38"
        fill="#f2f5e9" fill-opacity="0.5" stroke="#606060" stroke-width="1.0"/>
   <path id="arrow"
     d="M 11.500037,31.436501 C 11.940474,20.09759 22.043105,11.32322 32.158766,21.979434 L 37.068811,17.246167 C 37.068811,17.246167 37.088388,32 37.088388,32 L 22.160133,31.978069 C 22.160133,31.978069 26.997745,27.140456 26.997745,27.140456 C 18.528582,18.264221 13.291696,25.230495 11.500037,31.436501 z"
     style="fill:#404040;"/>
  </a>
 </g>
</svg>

<style type='text/css'>
<![CDATA[
[data-mouse-over-selected='false'] { opacity: 0.7; }
[data-mouse-over-selected='true']  { opacity: 1.0; }
]]>
</style>
<script type="application/ecmascript"><![CDATA[
document.addEventListener('DOMContentLoaded', (event) => {
  highlightEdges();
  highlightAdjacentNodes();
});
]]></script>
</svg>
