<?xml version="1.0" encoding="UTF-8" standalone="no"?>
<!DOCTYPE svg PUBLIC "-//W3C//DTD SVG 1.1//EN"
 "http://www.w3.org/Graphics/SVG/1.1/DTD/svg11.dtd">
<!-- Generated by graphviz version 2.43.0 (0)
 -->
<!-- Title: CommandParser::parse_extract_options Pages: 1 -->
<svg width="619pt" height="86pt"
 viewBox="0.00 0.00 619.00 86.00" xmlns="http://www.w3.org/2000/svg" xmlns:xlink="http://www.w3.org/1999/xlink">
<g id="graph0" class="graph" transform="scale(1 1) rotate(0) translate(4 82)">
<title>CommandParser::parse_extract_options</title>
<!-- Node1 -->
<g id="Node000001" class="node">
<title>Node1</title>
<g id="a_Node000001"><a xlink:title="Parse options specific to extract command.">
<polygon fill="#999999" stroke="#666666" points="130,-54 0,-54 0,-24 130,-24 130,-54"/>
<text text-anchor="start" x="8" y="-42" font-family="Helvetica,sans-Serif" font-size="10.00">CommandParser::parse</text>
<text text-anchor="middle" x="65" y="-31" font-family="Helvetica,sans-Serif" font-size="10.00">_extract_options</text>
</a>
</g>
</g>
<!-- Node2 -->
<g id="Node000002" class="node">
<title>Node2</title>
<g id="a_Node000002"><a xlink:href="group__CommandExecutors.html#ga23a2476517d18a8482fc2d211614f59c" target="_top" xlink:title="Add a warning message to the command context.">
<polygon fill="white" stroke="#666666" points="290.5,-78 169.5,-78 169.5,-48 290.5,-48 290.5,-78"/>
<text text-anchor="start" x="177.5" y="-66" font-family="Helvetica,sans-Serif" font-size="10.00">CommandParser::add</text>
<text text-anchor="middle" x="230" y="-55" font-family="Helvetica,sans-Serif" font-size="10.00">_warning</text>
</a>
</g>
</g>
<!-- Node1&#45;&gt;Node2 -->
<g id="edge1_Node000001_Node000002" class="edge">
<title>Node1&#45;&gt;Node2</title>
<g id="a_edge1_Node000001_Node000002"><a xlink:title=" ">
<path fill="none" stroke="#63b8ff" d="M130.42,-48.49C139.93,-49.89 149.77,-51.33 159.38,-52.75"/>
<polygon fill="#63b8ff" stroke="#63b8ff" points="158.88,-56.21 169.29,-54.21 159.9,-49.29 158.88,-56.21"/>
</a>
</g>
</g>
<!-- Node3 -->
<g id="Node000003" class="node">
<title>Node3</title>
<g id="a_Node000003"><a xlink:href="group__ConfigConvenience.html#ga2c7220a086fa36ee3e3c2c6042f9da05" target="_top" xlink:title="Get default concentration for phase corrections.">
<polygon fill="white" stroke="#666666" points="294,-30 166,-30 166,0 294,0 294,-30"/>
<text text-anchor="start" x="174" y="-18" font-family="Helvetica,sans-Serif" font-size="10.00">ConfigManager::get</text>
<text text-anchor="middle" x="230" y="-7" font-family="Helvetica,sans-Serif" font-size="10.00">_default_concentration</text>
</a>
</g>
</g>
<!-- Node1&#45;&gt;Node3 -->
<g id="edge2_Node000001_Node000003" class="edge">
<title>Node1&#45;&gt;Node3</title>
<g id="a_edge2_Node000001_Node000003"><a xlink:title=" ">
<path fill="none" stroke="#63b8ff" d="M130.42,-29.51C138.8,-28.28 147.43,-27.01 155.94,-25.76"/>
<polygon fill="#63b8ff" stroke="#63b8ff" points="156.46,-29.22 165.85,-24.3 155.44,-22.29 156.46,-29.22"/>
</a>
</g>
</g>
<!-- Node4 -->
<g id="Node000004" class="node">
<title>Node4</title>
<g id="a_Node000004"><a xlink:href="group__ConfigValueGetters.html#ga5c646b796256dc3d0905ce144f9758a2" target="_top" xlink:title="Get double configuration value.">
<polygon fill="white" stroke="#666666" points="442,-30 330,-30 330,0 442,0 442,-30"/>
<text text-anchor="start" x="338" y="-18" font-family="Helvetica,sans-Serif" font-size="10.00">ConfigManager::get</text>
<text text-anchor="middle" x="386" y="-7" font-family="Helvetica,sans-Serif" font-size="10.00">_double</text>
</a>
</g>
</g>
<!-- Node3&#45;&gt;Node4 -->
<g id="edge3_Node000003_Node000004" class="edge">
<title>Node3&#45;&gt;Node4</title>
<g id="a_edge3_Node000003_Node000004"><a xlink:title=" ">
<path fill="none" stroke="#63b8ff" d="M294.08,-15C302.47,-15 311.08,-15 319.51,-15"/>
<polygon fill="#63b8ff" stroke="#63b8ff" points="319.66,-18.5 329.66,-15 319.66,-11.5 319.66,-18.5"/>
</a>
</g>
</g>
<!-- Node4&#45;&gt;Node4 -->
<g id="edge5_Node000004_Node000004" class="edge">
<title>Node4&#45;&gt;Node4</title>
<g id="a_edge5_Node000004_Node000004"><a xlink:title=" ">
<path fill="none" stroke="#63b8ff" d="M358.58,-30.28C352.48,-39.41 361.62,-48 386,-48 400.47,-48 409.57,-44.97 413.31,-40.6"/>
<polygon fill="#63b8ff" stroke="#63b8ff" points="416.81,-40.31 413.42,-30.28 409.81,-40.24 416.81,-40.31"/>
</a>
</g>
</g>
<!-- Node5 -->
<g id="Node000005" class="node">
<title>Node5</title>
<g id="a_Node000005"><a xlink:href="group__ConfigInternals.html#ga5e387d61b1f34873cd3ab047242b2aad" target="_top" xlink:title="Template method for type&#45;safe value conversion.">
<polygon fill="white" stroke="#666666" points="611,-30 478,-30 478,0 611,0 611,-30"/>
<text text-anchor="start" x="486" y="-18" font-family="Helvetica,sans-Serif" font-size="10.00">ConfigManager::convert</text>
<text text-anchor="middle" x="544.5" y="-7" font-family="Helvetica,sans-Serif" font-size="10.00">_value</text>
</a>
</g>
</g>
<!-- Node4&#45;&gt;Node5 -->
<g id="edge4_Node000004_Node000005" class="edge">
<title>Node4&#45;&gt;Node5</title>
<g id="a_edge4_Node000004_Node000005"><a xlink:title=" ">
<path fill="none" stroke="#63b8ff" d="M442.18,-15C450.46,-15 459.13,-15 467.75,-15"/>
<polygon fill="#63b8ff" stroke="#63b8ff" points="467.83,-18.5 477.83,-15 467.83,-11.5 467.83,-18.5"/>
</a>
</g>
</g>
</g>
</svg>
