<?xml version="1.0" encoding="UTF-8" standalone="no"?>
<!DOCTYPE svg PUBLIC "-//W3C//DTD SVG 1.1//EN"
 "http://www.w3.org/Graphics/SVG/1.1/DTD/svg11.dtd">
<!-- Generated by graphviz version 2.43.0 (0)
 -->
<!-- Title: HighLevelEnergyCalculator::get_parent_file Pages: 1 -->
<!--zoomable 564 -->

<svg id="main" version="1.1" xmlns="http://www.w3.org/2000/svg" xmlns:xlink="http://www.w3.org/1999/xlink" xml:space="preserve" onload="init(evt)">
<style type="text/css"><![CDATA[
.node, .edge {opacity: 0.7;}
.node.selected, .edge.selected {opacity: 1;}
.edge:hover path { stroke: red; }
.edge:hover polygon { stroke: red; fill: red; }
]]></style>

<defs>
  <circle id="rim" cx="0" cy="0" r="7"/>
  <circle id="rim2" cx="0" cy="0" r="3.5"/>
  <g id="zoomPlus">
    <use xlink:href="#rim" fill="#404040"><set attributeName="fill" to="#808080" begin="zoomplus.mouseover" end="zoomplus.mouseout"/></use>
    <path d="M-4,0h8M0,-4v8" fill="none" stroke="white" stroke-width="1.5" pointer-events="none"/>
  </g>
  <g id="zoomMin">
    <use xlink:href="#rim" fill="#404040"><set attributeName="fill" to="#808080" begin="zoomminus.mouseover" end="zoomminus.mouseout"/></use>
    <path d="M-4,0h8" fill="none" stroke="white" stroke-width="1.5" pointer-events="none"/>
  </g>
  <g id="arrowUp" transform="translate(30 24)">
    <use xlink:href="#rim"/>
    <path pointer-events="none" fill="none" stroke="white" stroke-width="1.5" d="M0,-3.0v7 M-2.5,-0.5L0,-3.0L2.5,-0.5"/>
  </g>
  <g id="arrowRight" transform="rotate(90) translate(36 -43)">
    <use xlink:href="#rim"/>
    <path pointer-events="none" fill="none" stroke="white" stroke-width="1.5" d="M0,-3.0v7 M-2.5,-0.5L0,-3.0L2.5,-0.5"/>
  </g>
  <g id="arrowDown" transform="rotate(180) translate(-30 -48)">
    <use xlink:href="#rim"/>
    <path pointer-events="none" fill="none" stroke="white" stroke-width="1.5" d="M0,-3.0v7 M-2.5,-0.5L0,-3.0L2.5,-0.5"/>
  </g>
  <g id="arrowLeft" transform="rotate(270) translate(-36 17)">
    <use xlink:href="#rim"/>
    <path pointer-events="none" fill="none" stroke="white" stroke-width="1.5" d="M0,-3.0v7 M-2.5,-0.5L0,-3.0L2.5,-0.5"/>
  </g>
  <g id="resetDef">
    <use xlink:href="#rim2" fill="#404040"><set attributeName="fill" to="#808080" begin="reset.mouseover" end="reset.mouseout"/></use>
  </g>
</defs>
<script type="application/ecmascript">
var viewWidth = 1166;
var viewHeight = 564;
var sectionId = 'dynsection-1';
</script>
<script type="application/ecmascript" xlink:href="svg.min.js"/>
<svg id="graph" class="graph">
<g id="viewport">
<title>HighLevelEnergyCalculator::get_parent_file</title>
<!-- Node1 -->
<g id="Node000001" class="node">
<title>Node1</title>
<g id="a_Node000001"><a xlink:title="Get corresponding parent directory file path.">
<polygon fill="#999999" stroke="#666666" points="1158,-185 1009,-185 1009,-155 1158,-155 1158,-185"/>
<text text-anchor="start" x="1017" y="-173" font-family="Helvetica,sans-Serif" font-size="10.00">HighLevelEnergyCalculator</text>
<text text-anchor="middle" x="1083.5" y="-162" font-family="Helvetica,sans-Serif" font-size="10.00">::get_parent_file</text>
</a>
</g>
</g>
<!-- Node2 -->
<g id="Node000002" class="node">
<title>Node2</title>
<g id="a_Node000002"><a xlink:href="group__MainCalculation.html#gacaba75cc61d8b3ec08efd5976ce4325f" target="_top" xlink:title="Calculate high&#45;level energy for a single file.">
<polygon fill="white" stroke="#666666" points="963,-312 802,-312 802,-282 963,-282 963,-312"/>
<text text-anchor="start" x="810" y="-300" font-family="Helvetica,sans-Serif" font-size="10.00">HighLevelEnergyCalculator</text>
<text text-anchor="middle" x="882.5" y="-289" font-family="Helvetica,sans-Serif" font-size="10.00">::calculate_high_level_energy</text>
</a>
</g>
</g>
<!-- Node1&#45;&gt;Node2 -->
<g id="edge1_Node000001_Node000002" class="edge">
<title>Node1&#45;&gt;Node2</title>
<g id="a_edge1_Node000001_Node000002"><a xlink:title=" ">
<path fill="none" stroke="#63b8ff" d="M1050.29,-190.56C1010.19,-216.14 942.67,-259.24 907.08,-281.95"/>
<polygon fill="#63b8ff" stroke="#63b8ff" points="1052.34,-193.4 1058.89,-185.07 1048.58,-187.5 1052.34,-193.4"/>
</a>
</g>
</g>
<!-- Node13 -->
<g id="Node000013" class="node">
<title>Node13</title>
<g id="a_Node000013"><a xlink:href="group__OutputFunctions.html#ga3578194a0e7fcca0bb3b023afa33bdec" target="_top" xlink:title="Print results in CSV format with detailed energy components.">
<polygon fill="white" stroke="#666666" points="545,-529 375,-529 375,-499 545,-499 545,-529"/>
<text text-anchor="start" x="383" y="-517" font-family="Helvetica,sans-Serif" font-size="10.00">HighLevelEnergyCalculator</text>
<text text-anchor="middle" x="460" y="-506" font-family="Helvetica,sans-Serif" font-size="10.00">::print_components_csv_format</text>
</a>
</g>
</g>
<!-- Node1&#45;&gt;Node13 -->
<g id="edge19_Node000001_Node000013" class="edge">
<title>Node1&#45;&gt;Node13</title>
<g id="a_edge19_Node000001_Node000013"><a xlink:title=" ">
<path fill="none" stroke="#63b8ff" d="M1081.73,-195.29C1078.45,-255.05 1061.36,-405.57 973,-480 841.68,-590.63 617.85,-553.94 515.27,-529.06"/>
<polygon fill="#63b8ff" stroke="#63b8ff" points="1085.23,-195.37 1082.2,-185.22 1078.24,-195.05 1085.23,-195.37"/>
</a>
</g>
</g>
<!-- Node14 -->
<g id="Node000014" class="node">
<title>Node14</title>
<g id="a_Node000014"><a xlink:href="group__DynamicOutputFormatting.html#ga3a4bf6a916d8b341fff654d3f1da54c9" target="_top" xlink:title="Print results in components format with dynamic column widths.">
<polygon fill="white" stroke="#666666" points="957,-470.5 808,-470.5 808,-429.5 957,-429.5 957,-470.5"/>
<text text-anchor="start" x="816" y="-458.5" font-family="Helvetica,sans-Serif" font-size="10.00">HighLevelEnergyCalculator</text>
<text text-anchor="start" x="816" y="-447.5" font-family="Helvetica,sans-Serif" font-size="10.00">::print_components_format</text>
<text text-anchor="middle" x="882.5" y="-436.5" font-family="Helvetica,sans-Serif" font-size="10.00">_dynamic</text>
</a>
</g>
</g>
<!-- Node1&#45;&gt;Node14 -->
<g id="edge21_Node000001_Node000014" class="edge">
<title>Node1&#45;&gt;Node14</title>
<g id="a_edge21_Node000001_Node000014"><a xlink:title=" ">
<path fill="none" stroke="#63b8ff" d="M1065.97,-193.26C1027.87,-246.87 934.37,-378.42 898.16,-429.38"/>
<polygon fill="#63b8ff" stroke="#63b8ff" points="1068.86,-195.23 1071.8,-185.05 1063.15,-191.18 1068.86,-195.23"/>
</a>
</g>
</g>
<!-- Node16 -->
<g id="Node000016" class="node">
<title>Node16</title>
<g id="a_Node000016"><a xlink:href="group__DynamicOutputFormatting.html#ga932472faa109e17046c43975dfb053fb" target="_top" xlink:title="Print results in components format with static column widths.">
<polygon fill="white" stroke="#666666" points="973,-78 792,-78 792,-48 973,-48 973,-78"/>
<text text-anchor="start" x="800" y="-66" font-family="Helvetica,sans-Serif" font-size="10.00">HighLevelEnergyCalculator</text>
<text text-anchor="middle" x="882.5" y="-55" font-family="Helvetica,sans-Serif" font-size="10.00">::print_components_format_static</text>
</a>
</g>
</g>
<!-- Node1&#45;&gt;Node16 -->
<g id="edge24_Node000001_Node000016" class="edge">
<title>Node1&#45;&gt;Node16</title>
<g id="a_edge24_Node000001_Node000016"><a xlink:title=" ">
<path fill="none" stroke="#63b8ff" d="M1057.09,-148.46C1035.77,-131.27 1003.92,-107.56 973,-92 962.35,-86.64 950.49,-81.98 938.99,-78.06"/>
<polygon fill="#63b8ff" stroke="#63b8ff" points="1055.04,-151.31 1065,-154.93 1059.47,-145.89 1055.04,-151.31"/>
</a>
</g>
</g>
<!-- Node17 -->
<g id="Node000017" class="node">
<title>Node17</title>
<g id="a_Node000017"><a xlink:href="group__OutputFunctions.html#gacb8b3c91ca4914d5c3bca035e3843ac2" target="_top" xlink:title="Print results in CSV format optimized for Gibbs energies.">
<polygon fill="white" stroke="#666666" points="534.5,-143 385.5,-143 385.5,-113 534.5,-113 534.5,-143"/>
<text text-anchor="start" x="393.5" y="-131" font-family="Helvetica,sans-Serif" font-size="10.00">HighLevelEnergyCalculator</text>
<text text-anchor="middle" x="460" y="-120" font-family="Helvetica,sans-Serif" font-size="10.00">::print_gibbs_csv_format</text>
</a>
</g>
</g>
<!-- Node1&#45;&gt;Node17 -->
<g id="edge25_Node000001_Node000017" class="edge">
<title>Node1&#45;&gt;Node17</title>
<g id="a_edge25_Node000001_Node000017"><a xlink:title=" ">
<path fill="none" stroke="#63b8ff" d="M1010.36,-152.91C997.94,-150.34 985.14,-147.91 973,-146 800.65,-118.87 755.46,-122.82 581,-125 566,-125.19 549.94,-125.51 534.61,-125.87"/>
<polygon fill="#63b8ff" stroke="#63b8ff" points="1009.7,-156.35 1020.21,-155 1011.15,-149.5 1009.7,-156.35"/>
</a>
</g>
</g>
<!-- Node18 -->
<g id="Node000018" class="node">
<title>Node18</title>
<g id="a_Node000018"><a xlink:href="group__DynamicOutputFormatting.html#ga1b6138e25512b7d0efdca762f53d8c00" target="_top" xlink:title="Print results in Gibbs format with dynamic column widths.">
<polygon fill="white" stroke="#666666" points="963.5,-185 801.5,-185 801.5,-155 963.5,-155 963.5,-185"/>
<text text-anchor="start" x="809.5" y="-173" font-family="Helvetica,sans-Serif" font-size="10.00">HighLevelEnergyCalculator</text>
<text text-anchor="middle" x="882.5" y="-162" font-family="Helvetica,sans-Serif" font-size="10.00">::print_gibbs_format_dynamic</text>
</a>
</g>
</g>
<!-- Node1&#45;&gt;Node18 -->
<g id="edge27_Node000001_Node000018" class="edge">
<title>Node1&#45;&gt;Node18</title>
<g id="a_edge27_Node000001_Node000018"><a xlink:title=" ">
<path fill="none" stroke="#63b8ff" d="M998.85,-170C987.23,-170 975.31,-170 963.76,-170"/>
<polygon fill="#63b8ff" stroke="#63b8ff" points="998.97,-173.5 1008.97,-170 998.97,-166.5 998.97,-173.5"/>
</a>
</g>
</g>
<!-- Node20 -->
<g id="Node000020" class="node">
<title>Node20</title>
<g id="a_Node000020"><a xlink:href="group__DynamicOutputFormatting.html#ga3a3430c4a259752ea6a75b60cbad38cf" target="_top" xlink:title="Print results in Gibbs format with static column widths.">
<polygon fill="white" stroke="#666666" points="957,-30 808,-30 808,0 957,0 957,-30"/>
<text text-anchor="start" x="816" y="-18" font-family="Helvetica,sans-Serif" font-size="10.00">HighLevelEnergyCalculator</text>
<text text-anchor="middle" x="882.5" y="-7" font-family="Helvetica,sans-Serif" font-size="10.00">::print_gibbs_format_static</text>
</a>
</g>
</g>
<!-- Node1&#45;&gt;Node20 -->
<g id="edge30_Node000001_Node000020" class="edge">
<title>Node1&#45;&gt;Node20</title>
<g id="a_edge30_Node000001_Node000020"><a xlink:title=" ">
<path fill="none" stroke="#63b8ff" d="M1068.86,-145.99C1050.77,-116.34 1016.06,-66.49 973,-39 967.58,-35.54 961.66,-32.57 955.54,-30.03"/>
<polygon fill="#63b8ff" stroke="#63b8ff" points="1066.01,-148.05 1074.14,-154.85 1072.02,-144.46 1066.01,-148.05"/>
</a>
</g>
</g>
<!-- Node3 -->
<g id="Node000003" class="node">
<title>Node3</title>
<g id="a_Node000003"><a xlink:href="group__MainCalculation.html#ga69523c18f35fc5a0d58d64495c230cea" target="_top" xlink:title="Process entire directory of high&#45;level calculations.">
<polygon fill="white" stroke="#666666" points="534.5,-326 385.5,-326 385.5,-296 534.5,-296 534.5,-326"/>
<text text-anchor="start" x="393.5" y="-314" font-family="Helvetica,sans-Serif" font-size="10.00">HighLevelEnergyCalculator</text>
<text text-anchor="middle" x="460" y="-303" font-family="Helvetica,sans-Serif" font-size="10.00">::process_directory</text>
</a>
</g>
</g>
<!-- Node2&#45;&gt;Node3 -->
<g id="edge2_Node000002_Node000003" class="edge">
<title>Node2&#45;&gt;Node3</title>
<g id="a_edge2_Node000002_Node000003"><a xlink:title=" ">
<path fill="none" stroke="#63b8ff" d="M842.26,-277.73C818.04,-266.92 785.97,-254.54 756,-249 679.52,-234.87 656.58,-230.63 581,-249 543.86,-258.03 505.37,-280.69 482.3,-295.97"/>
<polygon fill="#63b8ff" stroke="#63b8ff" points="840.91,-280.96 851.46,-281.93 843.82,-274.59 840.91,-280.96"/>
</a>
</g>
</g>
<!-- Node8 -->
<g id="Node000008" class="node">
<title>Node8</title>
<g id="a_Node000008"><a xlink:href="group__MainCalculation.html#gab8dc66d665a45b29b6b0d1c1cc4e2208" target="_top" xlink:title="Process files with custom resource limits.">
<polygon fill="white" stroke="#666666" points="534.5,-374 385.5,-374 385.5,-344 534.5,-344 534.5,-374"/>
<text text-anchor="start" x="393.5" y="-362" font-family="Helvetica,sans-Serif" font-size="10.00">HighLevelEnergyCalculator</text>
<text text-anchor="middle" x="460" y="-351" font-family="Helvetica,sans-Serif" font-size="10.00">::process_files_with_limits</text>
</a>
</g>
</g>
<!-- Node2&#45;&gt;Node8 -->
<g id="edge10_Node000002_Node000008" class="edge">
<title>Node2&#45;&gt;Node8</title>
<g id="a_edge10_Node000002_Node000008"><a xlink:title=" ">
<path fill="none" stroke="#63b8ff" d="M841.17,-316.19C817.04,-326.71 785.43,-338.84 756,-345 681.73,-360.55 594.73,-362.8 534.55,-361.93"/>
<polygon fill="#63b8ff" stroke="#63b8ff" points="842.65,-319.37 850.36,-312.11 839.8,-312.97 842.65,-319.37"/>
</a>
</g>
</g>
<!-- Node9 -->
<g id="Node000009" class="node">
<title>Node9</title>
<g id="a_Node000009"><a xlink:href="group__ParallelProcessing.html#ga30ddb3084923fb944336f5c6cf7f43e8" target="_top" xlink:title="Enhanced parallel processing using thread pool.">
<polygon fill="white" stroke="#666666" points="756,-422 581,-422 581,-392 756,-392 756,-422"/>
<text text-anchor="start" x="589" y="-410" font-family="Helvetica,sans-Serif" font-size="10.00">HighLevelEnergyCalculator</text>
<text text-anchor="middle" x="668.5" y="-399" font-family="Helvetica,sans-Serif" font-size="10.00">::process_files_with_thread_pool</text>
</a>
</g>
</g>
<!-- Node2&#45;&gt;Node9 -->
<g id="edge11_Node000002_Node000009" class="edge">
<title>Node2&#45;&gt;Node9</title>
<g id="a_edge11_Node000002_Node000009"><a xlink:title=" ">
<path fill="none" stroke="#63b8ff" d="M853.38,-318.07C828.7,-335.84 791.33,-361.01 756,-378 745.15,-383.22 733.12,-387.89 721.57,-391.89"/>
<polygon fill="#63b8ff" stroke="#63b8ff" points="855.53,-320.84 861.55,-312.12 851.41,-315.18 855.53,-320.84"/>
</a>
</g>
</g>
<!-- Node11 -->
<g id="Node000011" class="node">
<title>Node11</title>
<g id="a_Node000011"><a xlink:href="group__ParallelProcessing.html#ga2e962d5fa18800edaf087ac6b7f6caf0" target="_top" xlink:title="Worker function for parallel file processing.">
<polygon fill="white" stroke="#666666" points="743,-288 594,-288 594,-258 743,-258 743,-288"/>
<text text-anchor="start" x="602" y="-276" font-family="Helvetica,sans-Serif" font-size="10.00">HighLevelEnergyCalculator</text>
<text text-anchor="middle" x="668.5" y="-265" font-family="Helvetica,sans-Serif" font-size="10.00">::process_files_worker</text>
</a>
</g>
</g>
<!-- Node2&#45;&gt;Node11 -->
<g id="edge16_Node000002_Node000011" class="edge">
<title>Node2&#45;&gt;Node11</title>
<g id="a_edge16_Node000002_Node000011"><a xlink:title=" ">
<path fill="none" stroke="#63b8ff" d="M791.92,-286.86C775.68,-285.02 758.91,-283.12 743.19,-281.34"/>
<polygon fill="#63b8ff" stroke="#63b8ff" points="791.63,-290.35 801.96,-288 792.41,-283.39 791.63,-290.35"/>
</a>
</g>
</g>
<!-- Node12 -->
<g id="Node000012" class="node">
<title>Node12</title>
<g id="a_Node000012"><a xlink:href="group__ParallelProcessing.html#gac2f3665873e2399cfcf6dcc6557291d6" target="_top" xlink:title="Process single file with enhanced error handling.">
<polygon fill="white" stroke="#666666" points="752,-336 585,-336 585,-306 752,-306 752,-336"/>
<text text-anchor="start" x="593" y="-324" font-family="Helvetica,sans-Serif" font-size="10.00">HighLevelEnergyCalculator</text>
<text text-anchor="middle" x="668.5" y="-313" font-family="Helvetica,sans-Serif" font-size="10.00">::process_single_file_enhanced</text>
</a>
</g>
</g>
<!-- Node2&#45;&gt;Node12 -->
<g id="edge18_Node000002_Node000012" class="edge">
<title>Node2&#45;&gt;Node12</title>
<g id="a_edge18_Node000002_Node000012"><a xlink:title=" ">
<path fill="none" stroke="#63b8ff" d="M791.98,-307.13C778.83,-308.62 765.33,-310.15 752.32,-311.62"/>
<polygon fill="#63b8ff" stroke="#63b8ff" points="792.41,-310.61 801.96,-306 791.63,-303.65 792.41,-310.61"/>
</a>
</g>
</g>
<!-- Node4 -->
<g id="Node000004" class="node">
<title>Node4</title>
<g id="a_Node000004"><a xlink:href="group__ModuleExecutors.html#gab1aa2594a8bb3d2789d37593f69cbc5e" target="_top" xlink:title=" ">
<polygon fill="white" stroke="#666666" points="339,-421 229,-421 229,-391 339,-391 339,-421"/>
<text text-anchor="start" x="237" y="-409" font-family="Helvetica,sans-Serif" font-size="10.00">execute_high_level</text>
<text text-anchor="middle" x="284" y="-398" font-family="Helvetica,sans-Serif" font-size="10.00">_au_command</text>
</a>
</g>
</g>
<!-- Node3&#45;&gt;Node4 -->
<g id="edge3_Node000003_Node000004" class="edge">
<title>Node3&#45;&gt;Node4</title>
<g id="a_edge3_Node000003_Node000004"><a xlink:title=" ">
<path fill="none" stroke="#63b8ff" d="M386.6,-329.68C382.61,-331.32 378.72,-333.1 375,-335 345.95,-349.87 317.18,-374.83 300.26,-390.84"/>
<polygon fill="#63b8ff" stroke="#63b8ff" points="387.95,-332.91 396.03,-326.06 385.44,-326.37 387.95,-332.91"/>
</a>
</g>
</g>
<!-- Node7 -->
<g id="Node000007" class="node">
<title>Node7</title>
<g id="a_Node000007"><a xlink:href="group__ModuleExecutors.html#gaefd8d559f7f798aaf8cb5f6feb9dce47" target="_top" xlink:title=" ">
<polygon fill="white" stroke="#666666" points="339,-336 229,-336 229,-306 339,-306 339,-336"/>
<text text-anchor="start" x="237" y="-324" font-family="Helvetica,sans-Serif" font-size="10.00">execute_high_level</text>
<text text-anchor="middle" x="284" y="-313" font-family="Helvetica,sans-Serif" font-size="10.00">_kj_command</text>
</a>
</g>
</g>
<!-- Node3&#45;&gt;Node7 -->
<g id="edge7_Node000003_Node000007" class="edge">
<title>Node3&#45;&gt;Node7</title>
<g id="a_edge7_Node000003_Node000007"><a xlink:title=" ">
<path fill="none" stroke="#63b8ff" d="M375.17,-315.82C362.87,-316.52 350.49,-317.24 339.01,-317.9"/>
<polygon fill="#63b8ff" stroke="#63b8ff" points="375.68,-319.29 385.46,-315.23 375.28,-312.31 375.68,-319.29"/>
</a>
</g>
</g>
<!-- Node5 -->
<g id="Node000005" class="node">
<title>Node5</title>
<g id="a_Node000005"><a xlink:href="main_8cpp.html#a0ddf1224851353fc92bfbff6f499fa97" target="_top" xlink:title="Main entry point for the Gaussian Extractor application.">
<polygon fill="white" stroke="#666666" points="41,-375.5 0,-375.5 0,-356.5 41,-356.5 41,-375.5"/>
<text text-anchor="middle" x="20.5" y="-363.5" font-family="Helvetica,sans-Serif" font-size="10.00">main</text>
</a>
</g>
</g>
<!-- Node4&#45;&gt;Node5 -->
<g id="edge4_Node000004_Node000005" class="edge">
<title>Node4&#45;&gt;Node5</title>
<g id="a_edge4_Node000004_Node000005"><a xlink:title=" ">
<path fill="none" stroke="#63b8ff" d="M218.63,-402.56C177.73,-399.54 123.86,-393.99 77,-384 64.81,-381.4 51.53,-377.15 41.01,-373.42"/>
<polygon fill="#63b8ff" stroke="#63b8ff" points="218.51,-406.07 228.73,-403.28 219.01,-399.08 218.51,-406.07"/>
</a>
</g>
</g>
<!-- Node6 -->
<g id="Node000006" class="node">
<title>Node6</title>
<g id="a_Node000006"><a xlink:href="interactive__mode_8cpp.html#a6b615c34054150d837dc45ed1c17b297" target="_top" xlink:title="Enhanced interactive command loop with TAB completion for Windows.">
<polygon fill="white" stroke="#666666" points="193,-375.5 77,-375.5 77,-356.5 193,-356.5 193,-375.5"/>
<text text-anchor="middle" x="135" y="-363.5" font-family="Helvetica,sans-Serif" font-size="10.00">run_interactive_loop</text>
</a>
</g>
</g>
<!-- Node4&#45;&gt;Node6 -->
<g id="edge5_Node000004_Node000006" class="edge">
<title>Node4&#45;&gt;Node6</title>
<g id="a_edge5_Node000004_Node000006"><a xlink:title=" ">
<path fill="none" stroke="#63b8ff" d="M218.59,-388.47C202.21,-384.02 185.22,-379.39 170.93,-375.51"/>
<polygon fill="#63b8ff" stroke="#63b8ff" points="218.11,-391.97 228.68,-391.22 219.95,-385.22 218.11,-391.97"/>
</a>
</g>
</g>
<!-- Node6&#45;&gt;Node5 -->
<g id="edge6_Node000006_Node000005" class="edge">
<title>Node6&#45;&gt;Node5</title>
<g id="a_edge6_Node000006_Node000005"><a xlink:title=" ">
<path fill="none" stroke="#63b8ff" d="M66.62,-366C57.37,-366 48.55,-366 41.19,-366"/>
<polygon fill="#63b8ff" stroke="#63b8ff" points="66.76,-369.5 76.76,-366 66.76,-362.5 66.76,-369.5"/>
</a>
</g>
</g>
<!-- Node7&#45;&gt;Node5 -->
<g id="edge8_Node000007_Node000005" class="edge">
<title>Node7&#45;&gt;Node5</title>
<g id="a_edge8_Node000007_Node000005"><a xlink:title=" ">
<path fill="none" stroke="#63b8ff" d="M218.57,-325.73C177.65,-329.56 123.78,-336.16 77,-347 64.9,-349.8 51.72,-354.25 41.25,-358.14"/>
<polygon fill="#63b8ff" stroke="#63b8ff" points="219.04,-329.2 228.68,-324.81 218.41,-322.23 219.04,-329.2"/>
</a>
</g>
</g>
<!-- Node7&#45;&gt;Node6 -->
<g id="edge9_Node000007_Node000006" class="edge">
<title>Node7&#45;&gt;Node6</title>
<g id="a_edge9_Node000007_Node000006"><a xlink:title=" ">
<path fill="none" stroke="#63b8ff" d="M223.92,-339.09C204.44,-345.05 183.56,-351.44 167.03,-356.5"/>
<polygon fill="#63b8ff" stroke="#63b8ff" points="225.1,-342.38 233.64,-336.11 223.06,-335.69 225.1,-342.38"/>
</a>
</g>
</g>
<!-- Node9&#45;&gt;Node8 -->
<g id="edge15_Node000009_Node000008" class="edge">
<title>Node9&#45;&gt;Node8</title>
<g id="a_edge15_Node000009_Node000008"><a xlink:title=" ">
<path fill="none" stroke="#63b8ff" d="M592.76,-389.63C570.75,-384.51 546.86,-378.96 525.54,-374"/>
<polygon fill="#63b8ff" stroke="#63b8ff" points="592.2,-393.09 602.73,-391.94 593.78,-386.27 592.2,-393.09"/>
</a>
</g>
</g>
<!-- Node10 -->
<g id="Node000010" class="node">
<title>Node10</title>
<g id="a_Node000010"><a xlink:href="group__MainCalculation.html#gac76ff006f7aae2e96c804a8ca786d692" target="_top" xlink:title="Process entire directory with parallel processing.">
<polygon fill="white" stroke="#666666" points="535.5,-422 384.5,-422 384.5,-392 535.5,-392 535.5,-422"/>
<text text-anchor="start" x="392.5" y="-410" font-family="Helvetica,sans-Serif" font-size="10.00">HighLevelEnergyCalculator</text>
<text text-anchor="middle" x="460" y="-399" font-family="Helvetica,sans-Serif" font-size="10.00">::process_directory_parallel</text>
</a>
</g>
</g>
<!-- Node9&#45;&gt;Node10 -->
<g id="edge12_Node000009_Node000010" class="edge">
<title>Node9&#45;&gt;Node10</title>
<g id="a_edge12_Node000009_Node000010"><a xlink:title=" ">
<path fill="none" stroke="#63b8ff" d="M570.56,-407C558.84,-407 547,-407 535.67,-407"/>
<polygon fill="#63b8ff" stroke="#63b8ff" points="570.82,-410.5 580.82,-407 570.82,-403.5 570.82,-410.5"/>
</a>
</g>
</g>
<!-- Node10&#45;&gt;Node4 -->
<g id="edge13_Node000010_Node000004" class="edge">
<title>Node10&#45;&gt;Node4</title>
<g id="a_edge13_Node000010_Node000004"><a xlink:title=" ">
<path fill="none" stroke="#63b8ff" d="M374.41,-406.51C362.41,-406.44 350.36,-406.38 339.15,-406.31"/>
<polygon fill="#63b8ff" stroke="#63b8ff" points="374.43,-410.01 384.45,-406.57 374.47,-403.01 374.43,-410.01"/>
</a>
</g>
</g>
<!-- Node10&#45;&gt;Node7 -->
<g id="edge14_Node000010_Node000007" class="edge">
<title>Node10&#45;&gt;Node7</title>
<g id="a_edge14_Node000010_Node000007"><a xlink:title=" ">
<path fill="none" stroke="#63b8ff" d="M387.84,-388.46C383.44,-386.76 379.12,-384.95 375,-383 348.23,-370.37 320.67,-350.11 303.22,-336.21"/>
<polygon fill="#63b8ff" stroke="#63b8ff" points="386.98,-391.87 397.58,-391.98 389.36,-385.29 386.98,-391.87"/>
</a>
</g>
</g>
<!-- Node11&#45;&gt;Node8 -->
<g id="edge17_Node000011_Node000008" class="edge">
<title>Node11&#45;&gt;Node8</title>
<g id="a_edge17_Node000011_Node000008"><a xlink:title=" ">
<path fill="none" stroke="#63b8ff" d="M590.25,-292.03C587.06,-293.57 583.96,-295.22 581,-297 561.06,-308.99 564.89,-322.93 545,-335 539.42,-338.38 533.35,-341.31 527.11,-343.83"/>
<polygon fill="#63b8ff" stroke="#63b8ff" points="591.66,-295.23 599.43,-288.02 588.86,-288.82 591.66,-295.23"/>
</a>
</g>
</g>
<!-- Node13&#45;&gt;Node4 -->
<g id="edge20_Node000013_Node000004" class="edge">
<title>Node13&#45;&gt;Node4</title>
<g id="a_edge20_Node000013_Node000004"><a xlink:title=" ">
<path fill="none" stroke="#63b8ff" d="M424.08,-493.59C408.92,-484.63 391.01,-473.92 375,-464 351.93,-449.71 325.9,-432.85 307.79,-421.01"/>
<polygon fill="#63b8ff" stroke="#63b8ff" points="422.73,-496.86 433.12,-498.92 426.28,-490.83 422.73,-496.86"/>
</a>
</g>
</g>
<!-- Node14&#45;&gt;Node4 -->
<g id="edge22_Node000014_Node000004" class="edge">
<title>Node14&#45;&gt;Node4</title>
<g id="a_edge22_Node000014_Node000004"><a xlink:title=" ">
<path fill="none" stroke="#63b8ff" d="M797.45,-452.81C696.5,-454.81 522.32,-453.9 375,-431 360.58,-428.76 345.17,-425 331.26,-421.07"/>
<polygon fill="#63b8ff" stroke="#63b8ff" points="797.67,-456.3 807.59,-452.59 797.52,-449.31 797.67,-456.3"/>
</a>
</g>
</g>
<!-- Node15 -->
<g id="Node000015" class="node">
<title>Node15</title>
<g id="a_Node000015"><a xlink:href="group__OutputFunctions.html#ga662bddcabe4e2beb2658451fb36e109b" target="_top" xlink:title="Print results with detailed energy component breakdown.">
<polygon fill="white" stroke="#666666" points="743,-508 594,-508 594,-478 743,-478 743,-508"/>
<text text-anchor="start" x="602" y="-496" font-family="Helvetica,sans-Serif" font-size="10.00">HighLevelEnergyCalculator</text>
<text text-anchor="middle" x="668.5" y="-485" font-family="Helvetica,sans-Serif" font-size="10.00">::print_components_format</text>
</a>
</g>
</g>
<!-- Node14&#45;&gt;Node15 -->
<g id="edge23_Node000014_Node000015" class="edge">
<title>Node14&#45;&gt;Node15</title>
<g id="a_edge23_Node000014_Node000015"><a xlink:title=" ">
<path fill="none" stroke="#63b8ff" d="M798.01,-466.93C779.94,-470.6 760.95,-474.45 743.28,-478.03"/>
<polygon fill="#63b8ff" stroke="#63b8ff" points="798.84,-470.34 807.95,-464.92 797.45,-463.48 798.84,-470.34"/>
</a>
</g>
</g>
<!-- Node17&#45;&gt;Node7 -->
<g id="edge26_Node000017_Node000007" class="edge">
<title>Node17&#45;&gt;Node7</title>
<g id="a_edge26_Node000017_Node000007"><a xlink:title=" ">
<path fill="none" stroke="#63b8ff" d="M416.65,-148.05C402.39,-156.08 387.06,-166.24 375,-178 334.89,-217.12 304.53,-277.47 291.7,-305.59"/>
<polygon fill="#63b8ff" stroke="#63b8ff" points="418.69,-150.92 425.82,-143.09 415.36,-144.77 418.69,-150.92"/>
</a>
</g>
</g>
<!-- Node18&#45;&gt;Node7 -->
<g id="edge28_Node000018_Node000007" class="edge">
<title>Node18&#45;&gt;Node7</title>
<g id="a_edge28_Node000018_Node000007"><a xlink:title=" ">
<path fill="none" stroke="#63b8ff" d="M791.48,-186.17C689.26,-205.6 518.12,-241.35 375,-287 357.5,-292.58 338.42,-299.65 322.35,-305.89"/>
<polygon fill="#63b8ff" stroke="#63b8ff" points="792.28,-189.58 801.46,-184.29 790.98,-182.7 792.28,-189.58"/>
</a>
</g>
</g>
<!-- Node19 -->
<g id="Node000019" class="node">
<title>Node19</title>
<g id="a_Node000019"><a xlink:href="group__OutputFunctions.html#ga8bd0bcb08333beae561c2b44df59c8a5" target="_top" xlink:title="Print results in Gibbs free energy focused format.">
<polygon fill="white" stroke="#666666" points="743,-164 594,-164 594,-134 743,-134 743,-164"/>
<text text-anchor="start" x="602" y="-152" font-family="Helvetica,sans-Serif" font-size="10.00">HighLevelEnergyCalculator</text>
<text text-anchor="middle" x="668.5" y="-141" font-family="Helvetica,sans-Serif" font-size="10.00">::print_gibbs_format</text>
</a>
</g>
</g>
<!-- Node18&#45;&gt;Node19 -->
<g id="edge29_Node000018_Node000019" class="edge">
<title>Node18&#45;&gt;Node19</title>
<g id="a_edge29_Node000018_Node000019"><a xlink:title=" ">
<path fill="none" stroke="#63b8ff" d="M790.95,-161.03C774.99,-159.45 758.55,-157.82 743.13,-156.29"/>
<polygon fill="#63b8ff" stroke="#63b8ff" points="791.06,-164.56 801.35,-162.06 791.75,-157.59 791.06,-164.56"/>
</a>
</g>
</g>
</g>
</svg>

<g id="navigator" transform="translate(0 0)" fill="#404254">
  <rect fill="#f2f5e9" fill-opacity="0.5" stroke="#606060" stroke-width=".5" x="0" y="0" width="60" height="60"/>
  <use id="zoomplus" xlink:href="#zoomPlus" x="17" y="9" onmousedown="handleZoom(evt,'in')"/>
  <use id="zoomminus" xlink:href="#zoomMin" x="42" y="9" onmousedown="handleZoom(evt,'out')"/>
  <use id="reset" xlink:href="#resetDef" x="30" y="36" onmousedown="handleReset()"/>
   <use id="arrowup" xlink:href="#arrowUp" x="0" y="0" onmousedown="handlePan(0,-1)"/>
  <use id="arrowright" xlink:href="#arrowRight" x="0" y="0" onmousedown="handlePan(1,0)"/>
  <use id="arrowdown" xlink:href="#arrowDown" x="0" y="0" onmousedown="handlePan(0,1)"/>
  <use id="arrowleft" xlink:href="#arrowLeft" x="0" y="0" onmousedown="handlePan(-1,0)"/>
</g>
<svg viewBox="0 0 15 15" width="100%" height="30px" preserveAspectRatio="xMaxYMin meet">
 <g id="arrow_out" transform="scale(0.3 0.3)">
  <a xlink:href="group__FileUtilities_ga181c65f6b55859249f23a68e2f64f4bf_icgraph_org.svg" target="_base">
   <rect id="button" ry="5" rx="5" y="6" x="6" height="38" width="38"
        fill="#f2f5e9" fill-opacity="0.5" stroke="#606060" stroke-width="1.0"/>
   <path id="arrow"
     d="M 11.500037,31.436501 C 11.940474,20.09759 22.043105,11.32322 32.158766,21.979434 L 37.068811,17.246167 C 37.068811,17.246167 37.088388,32 37.088388,32 L 22.160133,31.978069 C 22.160133,31.978069 26.997745,27.140456 26.997745,27.140456 C 18.528582,18.264221 13.291696,25.230495 11.500037,31.436501 z"
     style="fill:#404040;"/>
  </a>
 </g>
</svg>

<style type='text/css'>
<![CDATA[
[data-mouse-over-selected='false'] { opacity: 0.7; }
[data-mouse-over-selected='true']  { opacity: 1.0; }
]]>
</style>
<script type="application/ecmascript"><![CDATA[
document.addEventListener('DOMContentLoaded', (event) => {
  highlightEdges();
  highlightAdjacentNodes();
});
]]></script>
</svg>
