<?xml version="1.0" encoding="UTF-8" standalone="no"?>
<!DOCTYPE svg PUBLIC "-//W3C//DTD SVG 1.1//EN"
 "http://www.w3.org/Graphics/SVG/1.1/DTD/svg11.dtd">
<!-- Generated by graphviz version 2.43.0 (0)
 -->
<!-- Title: JobChecker::print_summary Pages: 1 -->
<!--zoomable 172 -->

<svg id="main" version="1.1" xmlns="http://www.w3.org/2000/svg" xmlns:xlink="http://www.w3.org/1999/xlink" xml:space="preserve" onload="init(evt)">
<style type="text/css"><![CDATA[
.node, .edge {opacity: 0.7;}
.node.selected, .edge.selected {opacity: 1;}
.edge:hover path { stroke: red; }
.edge:hover polygon { stroke: red; fill: red; }
]]></style>

<defs>
  <circle id="rim" cx="0" cy="0" r="7"/>
  <circle id="rim2" cx="0" cy="0" r="3.5"/>
  <g id="zoomPlus">
    <use xlink:href="#rim" fill="#404040"><set attributeName="fill" to="#808080" begin="zoomplus.mouseover" end="zoomplus.mouseout"/></use>
    <path d="M-4,0h8M0,-4v8" fill="none" stroke="white" stroke-width="1.5" pointer-events="none"/>
  </g>
  <g id="zoomMin">
    <use xlink:href="#rim" fill="#404040"><set attributeName="fill" to="#808080" begin="zoomminus.mouseover" end="zoomminus.mouseout"/></use>
    <path d="M-4,0h8" fill="none" stroke="white" stroke-width="1.5" pointer-events="none"/>
  </g>
  <g id="arrowUp" transform="translate(30 24)">
    <use xlink:href="#rim"/>
    <path pointer-events="none" fill="none" stroke="white" stroke-width="1.5" d="M0,-3.0v7 M-2.5,-0.5L0,-3.0L2.5,-0.5"/>
  </g>
  <g id="arrowRight" transform="rotate(90) translate(36 -43)">
    <use xlink:href="#rim"/>
    <path pointer-events="none" fill="none" stroke="white" stroke-width="1.5" d="M0,-3.0v7 M-2.5,-0.5L0,-3.0L2.5,-0.5"/>
  </g>
  <g id="arrowDown" transform="rotate(180) translate(-30 -48)">
    <use xlink:href="#rim"/>
    <path pointer-events="none" fill="none" stroke="white" stroke-width="1.5" d="M0,-3.0v7 M-2.5,-0.5L0,-3.0L2.5,-0.5"/>
  </g>
  <g id="arrowLeft" transform="rotate(270) translate(-36 17)">
    <use xlink:href="#rim"/>
    <path pointer-events="none" fill="none" stroke="white" stroke-width="1.5" d="M0,-3.0v7 M-2.5,-0.5L0,-3.0L2.5,-0.5"/>
  </g>
  <g id="resetDef">
    <use xlink:href="#rim2" fill="#404040"><set attributeName="fill" to="#808080" begin="reset.mouseover" end="reset.mouseout"/></use>
  </g>
</defs>
<script type="application/ecmascript">
var viewWidth = 593;
var viewHeight = 172;
var sectionId = 'dynsection-0';
</script>
<script type="application/ecmascript" xlink:href="svg.min.js"/>
<svg id="graph" class="graph">
<g id="viewport">
<title>JobChecker::print_summary</title>
<!-- Node1 -->
<g id="Node000001" class="node">
<title>Node1</title>
<g id="a_Node000001"><a xlink:title="Print comprehensive summary of checking operation.">
<polygon fill="#999999" stroke="#666666" points="585,-86 434,-86 434,-67 585,-67 585,-86"/>
<text text-anchor="middle" x="509.5" y="-74" font-family="Helvetica,sans-Serif" font-size="10.00">JobChecker::print_summary</text>
</a>
</g>
</g>
<!-- Node2 -->
<g id="Node000002" class="node">
<title>Node2</title>
<g id="a_Node000002"><a xlink:href="group__ModuleExecutors.html#ga97d4d0bad6dab32f1d5b92d4ea09c80b" target="_top" xlink:title=" ">
<polygon fill="white" stroke="#666666" points="372.5,-163.5 254.5,-163.5 254.5,-133.5 372.5,-133.5 372.5,-163.5"/>
<text text-anchor="start" x="262.5" y="-151.5" font-family="Helvetica,sans-Serif" font-size="10.00">execute_check_done</text>
<text text-anchor="middle" x="313.5" y="-140.5" font-family="Helvetica,sans-Serif" font-size="10.00">_command</text>
</a>
</g>
</g>
<!-- Node1&#45;&gt;Node2 -->
<g id="edge1_Node000001_Node000002" class="edge">
<title>Node1&#45;&gt;Node2</title>
<g id="a_edge1_Node000001_Node000002"><a xlink:title=" ">
<path fill="none" stroke="#63b8ff" d="M479.31,-90.42C457.27,-100.62 426.12,-114.4 398,-124.5 389.2,-127.66 379.76,-130.7 370.52,-133.49"/>
<polygon fill="#63b8ff" stroke="#63b8ff" points="480.87,-93.55 488.45,-86.15 477.91,-87.21 480.87,-93.55"/>
</a>
</g>
</g>
<!-- Node5 -->
<g id="Node000005" class="node">
<title>Node5</title>
<g id="a_Node000005"><a xlink:href="group__ModuleExecutors.html#ga530afea0ae66ae1aef943507742b3125" target="_top" xlink:title=" ">
<polygon fill="white" stroke="#666666" points="374.5,-115.5 252.5,-115.5 252.5,-85.5 374.5,-85.5 374.5,-115.5"/>
<text text-anchor="start" x="260.5" y="-103.5" font-family="Helvetica,sans-Serif" font-size="10.00">execute_check_errors</text>
<text text-anchor="middle" x="313.5" y="-92.5" font-family="Helvetica,sans-Serif" font-size="10.00">_command</text>
</a>
</g>
</g>
<!-- Node1&#45;&gt;Node5 -->
<g id="edge5_Node000001_Node000005" class="edge">
<title>Node1&#45;&gt;Node5</title>
<g id="a_edge5_Node000001_Node000005"><a xlink:title=" ">
<path fill="none" stroke="#63b8ff" d="M423.6,-87C407.15,-89.04 390.22,-91.13 374.76,-93.05"/>
<polygon fill="#63b8ff" stroke="#63b8ff" points="424.28,-90.45 433.77,-85.74 423.42,-83.5 424.28,-90.45"/>
</a>
</g>
</g>
<!-- Node6 -->
<g id="Node000006" class="node">
<title>Node6</title>
<g id="a_Node000006"><a xlink:href="group__ModuleExecutors.html#ga4f5c061099b04712ebc615b32108fdd5" target="_top" xlink:title=" ">
<polygon fill="white" stroke="#666666" points="385,-67.5 242,-67.5 242,-37.5 385,-37.5 385,-67.5"/>
<text text-anchor="start" x="250" y="-55.5" font-family="Helvetica,sans-Serif" font-size="10.00">execute_check_imaginary</text>
<text text-anchor="middle" x="313.5" y="-44.5" font-family="Helvetica,sans-Serif" font-size="10.00">_command</text>
</a>
</g>
</g>
<!-- Node1&#45;&gt;Node6 -->
<g id="edge8_Node000001_Node000006" class="edge">
<title>Node1&#45;&gt;Node6</title>
<g id="a_edge8_Node000001_Node000006"><a xlink:title=" ">
<path fill="none" stroke="#63b8ff" d="M423.54,-65.99C410.69,-64.4 397.55,-62.77 385.05,-61.23"/>
<polygon fill="#63b8ff" stroke="#63b8ff" points="423.42,-69.5 433.77,-67.26 424.28,-62.55 423.42,-69.5"/>
</a>
</g>
</g>
<!-- Node7 -->
<g id="Node000007" class="node">
<title>Node7</title>
<g id="a_Node000007"><a xlink:href="group__ModuleExecutors.html#ga02765a7766f40fab78024f30a1b3f9ff" target="_top" xlink:title=" ">
<polygon fill="white" stroke="#666666" points="398,-19 229,-19 229,0 398,0 398,-19"/>
<text text-anchor="middle" x="313.5" y="-7" font-family="Helvetica,sans-Serif" font-size="10.00">execute_check_pcm_command</text>
</a>
</g>
</g>
<!-- Node1&#45;&gt;Node7 -->
<g id="edge11_Node000001_Node000007" class="edge">
<title>Node1&#45;&gt;Node7</title>
<g id="a_edge11_Node000001_Node000007"><a xlink:title=" ">
<path fill="none" stroke="#63b8ff" d="M480.26,-62.49C458.27,-52.01 426.74,-37.92 398,-28.5 386.98,-24.89 374.92,-21.71 363.49,-19.04"/>
<polygon fill="#63b8ff" stroke="#63b8ff" points="478.84,-65.69 489.36,-66.88 481.88,-59.39 478.84,-65.69"/>
</a>
</g>
</g>
<!-- Node3 -->
<g id="Node000003" class="node">
<title>Node3</title>
<g id="a_Node000003"><a xlink:href="main_8cpp.html#a0ddf1224851353fc92bfbff6f499fa97" target="_top" xlink:title="Main entry point for the Gaussian Extractor application.">
<polygon fill="white" stroke="#666666" points="41,-89 0,-89 0,-70 41,-70 41,-89"/>
<text text-anchor="middle" x="20.5" y="-77" font-family="Helvetica,sans-Serif" font-size="10.00">main</text>
</a>
</g>
</g>
<!-- Node2&#45;&gt;Node3 -->
<g id="edge2_Node000002_Node000003" class="edge">
<title>Node2&#45;&gt;Node3</title>
<g id="a_edge2_Node000002_Node000003"><a xlink:title=" ">
<path fill="none" stroke="#63b8ff" d="M244.1,-147.3C196,-144.54 130.87,-136.87 77,-116.5 60.1,-110.11 43.19,-97.77 32.55,-89.1"/>
<polygon fill="#63b8ff" stroke="#63b8ff" points="243.93,-150.8 254.1,-147.82 244.29,-143.81 243.93,-150.8"/>
</a>
</g>
</g>
<!-- Node4 -->
<g id="Node000004" class="node">
<title>Node4</title>
<g id="a_Node000004"><a xlink:href="interactive__mode_8cpp.html#a6b615c34054150d837dc45ed1c17b297" target="_top" xlink:title="Enhanced interactive command loop with TAB completion for Windows.">
<polygon fill="white" stroke="#666666" points="193,-89 77,-89 77,-70 193,-70 193,-89"/>
<text text-anchor="middle" x="135" y="-77" font-family="Helvetica,sans-Serif" font-size="10.00">run_interactive_loop</text>
</a>
</g>
</g>
<!-- Node2&#45;&gt;Node4 -->
<g id="edge3_Node000002_Node000004" class="edge">
<title>Node2&#45;&gt;Node4</title>
<g id="a_edge3_Node000002_Node000004"><a xlink:title=" ">
<path fill="none" stroke="#63b8ff" d="M245.12,-130.22C239.63,-128.4 234.2,-126.49 229,-124.5 201.86,-114.12 171.83,-98.86 153.43,-89.05"/>
<polygon fill="#63b8ff" stroke="#63b8ff" points="244.44,-133.67 255.03,-133.38 246.57,-127.01 244.44,-133.67"/>
</a>
</g>
</g>
<!-- Node4&#45;&gt;Node3 -->
<g id="edge4_Node000004_Node000003" class="edge">
<title>Node4&#45;&gt;Node3</title>
<g id="a_edge4_Node000004_Node000003"><a xlink:title=" ">
<path fill="none" stroke="#63b8ff" d="M66.62,-79.5C57.37,-79.5 48.55,-79.5 41.19,-79.5"/>
<polygon fill="#63b8ff" stroke="#63b8ff" points="66.76,-83 76.76,-79.5 66.76,-76 66.76,-83"/>
</a>
</g>
</g>
<!-- Node5&#45;&gt;Node3 -->
<g id="edge6_Node000005_Node000003" class="edge">
<title>Node5&#45;&gt;Node3</title>
<g id="a_edge6_Node000005_Node000003"><a xlink:title=" ">
<path fill="none" stroke="#63b8ff" d="M241.93,-105.76C194.87,-107.84 131.82,-107.86 77,-98.5 64.75,-96.41 51.57,-91.99 41.13,-87.95"/>
<polygon fill="#63b8ff" stroke="#63b8ff" points="242.2,-109.25 252.02,-105.28 241.86,-102.26 242.2,-109.25"/>
</a>
</g>
</g>
<!-- Node5&#45;&gt;Node4 -->
<g id="edge7_Node000005_Node000004" class="edge">
<title>Node5&#45;&gt;Node4</title>
<g id="a_edge7_Node000005_Node000004"><a xlink:title=" ">
<path fill="none" stroke="#63b8ff" d="M242.27,-92.14C226.02,-90.21 208.92,-88.18 193.3,-86.32"/>
<polygon fill="#63b8ff" stroke="#63b8ff" points="241.91,-95.63 252.25,-93.33 242.74,-88.67 241.91,-95.63"/>
</a>
</g>
</g>
<!-- Node6&#45;&gt;Node3 -->
<g id="edge9_Node000006_Node000003" class="edge">
<title>Node6&#45;&gt;Node3</title>
<g id="a_edge9_Node000006_Node000003"><a xlink:title=" ">
<path fill="none" stroke="#63b8ff" d="M231.73,-50.13C186,-50.14 127.93,-52.45 77,-61.5 64.83,-63.66 51.66,-67.85 41.2,-71.65"/>
<polygon fill="#63b8ff" stroke="#63b8ff" points="231.88,-53.63 241.89,-50.16 231.9,-46.63 231.88,-53.63"/>
</a>
</g>
</g>
<!-- Node6&#45;&gt;Node4 -->
<g id="edge10_Node000006_Node000004" class="edge">
<title>Node6&#45;&gt;Node4</title>
<g id="a_edge10_Node000006_Node000004"><a xlink:title=" ">
<path fill="none" stroke="#63b8ff" d="M232.01,-64.81C218.88,-66.82 205.53,-68.86 193.12,-70.76"/>
<polygon fill="#63b8ff" stroke="#63b8ff" points="232.63,-68.26 241.98,-63.29 231.57,-61.34 232.63,-68.26"/>
</a>
</g>
</g>
<!-- Node7&#45;&gt;Node3 -->
<g id="edge12_Node000007_Node000003" class="edge">
<title>Node7&#45;&gt;Node3</title>
<g id="a_edge12_Node000007_Node000003"><a xlink:title=" ">
<path fill="none" stroke="#63b8ff" d="M218.72,-15.98C174.72,-21.09 122.15,-30.22 77,-46.5 61.39,-52.13 45.28,-62.28 34.47,-69.84"/>
<polygon fill="#63b8ff" stroke="#63b8ff" points="219.29,-19.44 228.84,-14.86 218.52,-12.49 219.29,-19.44"/>
</a>
</g>
</g>
<!-- Node7&#45;&gt;Node4 -->
<g id="edge13_Node000007_Node000004" class="edge">
<title>Node7&#45;&gt;Node4</title>
<g id="a_edge13_Node000007_Node000004"><a xlink:title=" ">
<path fill="none" stroke="#63b8ff" d="M250.28,-21.63C243.02,-23.64 235.78,-25.93 229,-28.5 199.73,-39.61 168.32,-58.45 150.53,-69.86"/>
<polygon fill="#63b8ff" stroke="#63b8ff" points="251.37,-24.97 260.17,-19.06 249.61,-18.19 251.37,-24.97"/>
</a>
</g>
</g>
</g>
</svg>

<g id="navigator" transform="translate(0 0)" fill="#404254">
  <rect fill="#f2f5e9" fill-opacity="0.5" stroke="#606060" stroke-width=".5" x="0" y="0" width="60" height="60"/>
  <use id="zoomplus" xlink:href="#zoomPlus" x="17" y="9" onmousedown="handleZoom(evt,'in')"/>
  <use id="zoomminus" xlink:href="#zoomMin" x="42" y="9" onmousedown="handleZoom(evt,'out')"/>
  <use id="reset" xlink:href="#resetDef" x="30" y="36" onmousedown="handleReset()"/>
   <use id="arrowup" xlink:href="#arrowUp" x="0" y="0" onmousedown="handlePan(0,-1)"/>
  <use id="arrowright" xlink:href="#arrowRight" x="0" y="0" onmousedown="handlePan(1,0)"/>
  <use id="arrowdown" xlink:href="#arrowDown" x="0" y="0" onmousedown="handlePan(0,1)"/>
  <use id="arrowleft" xlink:href="#arrowLeft" x="0" y="0" onmousedown="handlePan(-1,0)"/>
</g>
<svg viewBox="0 0 15 15" width="100%" height="30px" preserveAspectRatio="xMaxYMin meet">
 <g id="arrow_out" transform="scale(0.3 0.3)">
  <a xlink:href="group__ProgressReporting_ga8bbe0e03b48d0137b1a03827a6c6ffd2_icgraph_org.svg" target="_base">
   <rect id="button" ry="5" rx="5" y="6" x="6" height="38" width="38"
        fill="#f2f5e9" fill-opacity="0.5" stroke="#606060" stroke-width="1.0"/>
   <path id="arrow"
     d="M 11.500037,31.436501 C 11.940474,20.09759 22.043105,11.32322 32.158766,21.979434 L 37.068811,17.246167 C 37.068811,17.246167 37.088388,32 37.088388,32 L 22.160133,31.978069 C 22.160133,31.978069 26.997745,27.140456 26.997745,27.140456 C 18.528582,18.264221 13.291696,25.230495 11.500037,31.436501 z"
     style="fill:#404040;"/>
  </a>
 </g>
</svg>

<style type='text/css'>
<![CDATA[
[data-mouse-over-selected='false'] { opacity: 0.7; }
[data-mouse-over-selected='true']  { opacity: 1.0; }
]]>
</style>
<script type="application/ecmascript"><![CDATA[
document.addEventListener('DOMContentLoaded', (event) => {
  highlightEdges();
  highlightAdjacentNodes();
});
]]></script>
</svg>
