<?xml version="1.0" encoding="UTF-8" standalone="no"?>
<!DOCTYPE svg PUBLIC "-//W3C//DTD SVG 1.1//EN"
 "http://www.w3.org/Graphics/SVG/1.1/DTD/svg11.dtd">
<!-- Generated by graphviz version 2.43.0 (0)
 -->
<!-- Title: calculateSafeThreadCount Pages: 1 -->
<!--zoomable 452 -->

<svg id="main" version="1.1" xmlns="http://www.w3.org/2000/svg" xmlns:xlink="http://www.w3.org/1999/xlink" xml:space="preserve" onload="init(evt)">
<style type="text/css"><![CDATA[
.node, .edge {opacity: 0.7;}
.node.selected, .edge.selected {opacity: 1;}
.edge:hover path { stroke: red; }
.edge:hover polygon { stroke: red; fill: red; }
]]></style>

<defs>
  <circle id="rim" cx="0" cy="0" r="7"/>
  <circle id="rim2" cx="0" cy="0" r="3.5"/>
  <g id="zoomPlus">
    <use xlink:href="#rim" fill="#404040"><set attributeName="fill" to="#808080" begin="zoomplus.mouseover" end="zoomplus.mouseout"/></use>
    <path d="M-4,0h8M0,-4v8" fill="none" stroke="white" stroke-width="1.5" pointer-events="none"/>
  </g>
  <g id="zoomMin">
    <use xlink:href="#rim" fill="#404040"><set attributeName="fill" to="#808080" begin="zoomminus.mouseover" end="zoomminus.mouseout"/></use>
    <path d="M-4,0h8" fill="none" stroke="white" stroke-width="1.5" pointer-events="none"/>
  </g>
  <g id="arrowUp" transform="translate(30 24)">
    <use xlink:href="#rim"/>
    <path pointer-events="none" fill="none" stroke="white" stroke-width="1.5" d="M0,-3.0v7 M-2.5,-0.5L0,-3.0L2.5,-0.5"/>
  </g>
  <g id="arrowRight" transform="rotate(90) translate(36 -43)">
    <use xlink:href="#rim"/>
    <path pointer-events="none" fill="none" stroke="white" stroke-width="1.5" d="M0,-3.0v7 M-2.5,-0.5L0,-3.0L2.5,-0.5"/>
  </g>
  <g id="arrowDown" transform="rotate(180) translate(-30 -48)">
    <use xlink:href="#rim"/>
    <path pointer-events="none" fill="none" stroke="white" stroke-width="1.5" d="M0,-3.0v7 M-2.5,-0.5L0,-3.0L2.5,-0.5"/>
  </g>
  <g id="arrowLeft" transform="rotate(270) translate(-36 17)">
    <use xlink:href="#rim"/>
    <path pointer-events="none" fill="none" stroke="white" stroke-width="1.5" d="M0,-3.0v7 M-2.5,-0.5L0,-3.0L2.5,-0.5"/>
  </g>
  <g id="resetDef">
    <use xlink:href="#rim2" fill="#404040"><set attributeName="fill" to="#808080" begin="reset.mouseover" end="reset.mouseout"/></use>
  </g>
</defs>
<script type="application/ecmascript">
var viewWidth = 989;
var viewHeight = 452;
var sectionId = 'dynsection-2';
</script>
<script type="application/ecmascript" xlink:href="svg.min.js"/>
<svg id="graph" class="graph">
<g id="viewport">
<title>calculateSafeThreadCount</title>
<!-- Node1 -->
<g id="Node000001" class="node">
<title>Node1</title>
<g id="a_Node000001"><a xlink:title="Calculate safe thread count considering job scheduler limits.">
<polygon fill="#999999" stroke="#666666" points="981,-209 836,-209 836,-190 981,-190 981,-209"/>
<text text-anchor="middle" x="908.5" y="-197" font-family="Helvetica,sans-Serif" font-size="10.00">calculateSafeThreadCount</text>
</a>
</g>
</g>
<!-- Node2 -->
<g id="Node000002" class="node">
<title>Node2</title>
<g id="a_Node000002"><a xlink:href="group__MainChecking.html#ga0ee48f6630ee3b5bd0f33fcf567f6fb1" target="_top" xlink:title="Optimized comprehensive job checking with single&#45;pass processing.">
<polygon fill="white" stroke="#666666" points="767.5,-438.5 644.5,-438.5 644.5,-408.5 767.5,-408.5 767.5,-438.5"/>
<text text-anchor="start" x="652.5" y="-426.5" font-family="Helvetica,sans-Serif" font-size="10.00">JobChecker::check_all</text>
<text text-anchor="middle" x="706" y="-415.5" font-family="Helvetica,sans-Serif" font-size="10.00">_job_types_optimized</text>
</a>
</g>
</g>
<!-- Node1&#45;&gt;Node2 -->
<g id="edge1_Node000001_Node000002" class="edge">
<title>Node1&#45;&gt;Node2</title>
<g id="a_edge1_Node000001_Node000002"><a xlink:title=" ">
<path fill="none" stroke="#63b8ff" d="M902.22,-219.1C890.6,-258.52 858.99,-347.72 800,-395.5 790.7,-403.04 779.4,-408.54 767.93,-412.57"/>
<polygon fill="#63b8ff" stroke="#63b8ff" points="905.62,-219.95 904.98,-209.37 898.89,-218.04 905.62,-219.95"/>
</a>
</g>
</g>
<!-- Node7 -->
<g id="Node000007" class="node">
<title>Node7</title>
<g id="a_Node000007"><a xlink:href="group__MainChecking.html#ga45e3257791a2470c3f071101d0c9cc78" target="_top" xlink:title="Check and organize completed job calculations.">
<polygon fill="white" stroke="#666666" points="800,-386 612,-386 612,-367 800,-367 800,-386"/>
<text text-anchor="middle" x="706" y="-374" font-family="Helvetica,sans-Serif" font-size="10.00">JobChecker::check_completed_jobs</text>
</a>
</g>
</g>
<!-- Node1&#45;&gt;Node7 -->
<g id="edge7_Node000001_Node000007" class="edge">
<title>Node1&#45;&gt;Node7</title>
<g id="a_edge7_Node000001_Node000007"><a xlink:title=" ">
<path fill="none" stroke="#63b8ff" d="M899.68,-218.85C885.21,-252.06 851.03,-319.71 800,-354.5 792.19,-359.83 783.24,-363.87 774.06,-366.94"/>
<polygon fill="#63b8ff" stroke="#63b8ff" points="903.02,-219.93 903.68,-209.36 896.57,-217.21 903.02,-219.93"/>
</a>
</g>
</g>
<!-- Node9 -->
<g id="Node000009" class="node">
<title>Node9</title>
<g id="a_Node000009"><a xlink:href="group__MainChecking.html#ga991a1e3c364495c7758625bac3f5ce17" target="_top" xlink:title="Check and organize jobs that terminated with errors.">
<polygon fill="white" stroke="#666666" points="785.5,-345 626.5,-345 626.5,-326 785.5,-326 785.5,-345"/>
<text text-anchor="middle" x="706" y="-333" font-family="Helvetica,sans-Serif" font-size="10.00">JobChecker::check_error_jobs</text>
</a>
</g>
</g>
<!-- Node1&#45;&gt;Node9 -->
<g id="edge11_Node000001_Node000009" class="edge">
<title>Node1&#45;&gt;Node9</title>
<g id="a_edge11_Node000001_Node000009"><a xlink:title=" ">
<path fill="none" stroke="#63b8ff" d="M895.96,-217.46C878.45,-243.17 842.65,-290.04 800,-314.5 791.53,-319.36 782.02,-323.09 772.41,-325.96"/>
<polygon fill="#63b8ff" stroke="#63b8ff" points="898.94,-219.29 901.56,-209.03 893.11,-215.42 898.94,-219.29"/>
</a>
</g>
</g>
<!-- Node11 -->
<g id="Node000011" class="node">
<title>Node11</title>
<g id="a_Node000011"><a xlink:href="group__MainChecking.html#gaf46bb6ecb38c0c2c1f35506d6a67b8e0" target="_top" xlink:title="Check and organize jobs with imaginary frequencies.">
<polygon fill="white" stroke="#666666" points="786,-305.5 626,-305.5 626,-275.5 786,-275.5 786,-305.5"/>
<text text-anchor="start" x="634" y="-293.5" font-family="Helvetica,sans-Serif" font-size="10.00">JobChecker::check_imaginary</text>
<text text-anchor="middle" x="706" y="-282.5" font-family="Helvetica,sans-Serif" font-size="10.00">_frequencies</text>
</a>
</g>
</g>
<!-- Node1&#45;&gt;Node11 -->
<g id="edge15_Node000001_Node000011" class="edge">
<title>Node1&#45;&gt;Node11</title>
<g id="a_edge15_Node000001_Node000011"><a xlink:title=" ">
<path fill="none" stroke="#63b8ff" d="M886.84,-215.06C865.93,-230.14 832.19,-252.7 800,-266.5 792.18,-269.85 783.79,-272.82 775.36,-275.42"/>
<polygon fill="#63b8ff" stroke="#63b8ff" points="888.97,-217.84 894.97,-209.11 884.83,-212.19 888.97,-217.84"/>
</a>
</g>
</g>
<!-- Node13 -->
<g id="Node000013" class="node">
<title>Node13</title>
<g id="a_Node000013"><a xlink:href="group__MainChecking.html#ga10ef65a58eb29a31324f3dc6ddc092c9" target="_top" xlink:title="Check and organize jobs with PCM convergence failures.">
<polygon fill="white" stroke="#666666" points="771.5,-257.5 640.5,-257.5 640.5,-227.5 771.5,-227.5 771.5,-257.5"/>
<text text-anchor="start" x="648.5" y="-245.5" font-family="Helvetica,sans-Serif" font-size="10.00">JobChecker::check_pcm</text>
<text text-anchor="middle" x="706" y="-234.5" font-family="Helvetica,sans-Serif" font-size="10.00">_failures</text>
</a>
</g>
</g>
<!-- Node1&#45;&gt;Node13 -->
<g id="edge19_Node000001_Node000013" class="edge">
<title>Node1&#45;&gt;Node13</title>
<g id="a_edge19_Node000001_Node000013"><a xlink:title=" ">
<path fill="none" stroke="#63b8ff" d="M852.91,-211.21C827.78,-216.6 797.78,-223.03 771.54,-228.66"/>
<polygon fill="#63b8ff" stroke="#63b8ff" points="853.96,-214.56 863,-209.04 852.49,-207.72 853.96,-214.56"/>
</a>
</g>
</g>
<!-- Node15 -->
<g id="Node000015" class="node">
<title>Node15</title>
<g id="a_Node000015"><a xlink:href="classCreateInput.html#aa08199575835140a2122199e52cde238" target="_top" xlink:title="Main method to create input files from XYZ files.">
<polygon fill="white" stroke="#666666" points="560,-219.5 450,-219.5 450,-189.5 560,-189.5 560,-219.5"/>
<text text-anchor="start" x="458" y="-207.5" font-family="Helvetica,sans-Serif" font-size="10.00">CreateInput::create</text>
<text text-anchor="middle" x="505" y="-196.5" font-family="Helvetica,sans-Serif" font-size="10.00">_inputs</text>
</a>
</g>
</g>
<!-- Node1&#45;&gt;Node15 -->
<g id="edge23_Node000001_Node000015" class="edge">
<title>Node1&#45;&gt;Node15</title>
<g id="a_edge23_Node000001_Node000015"><a xlink:title=" ">
<path fill="none" stroke="#63b8ff" d="M825.28,-200.52C745.99,-201.51 628.27,-202.98 560.12,-203.83"/>
<polygon fill="#63b8ff" stroke="#63b8ff" points="825.76,-204.02 835.72,-200.39 825.68,-197.02 825.76,-204.02"/>
</a>
</g>
</g>
<!-- Node17 -->
<g id="Node000017" class="node">
<title>Node17</title>
<g id="a_Node000017"><a xlink:href="group__ModuleExecutors.html#gab1aa2594a8bb3d2789d37593f69cbc5e" target="_top" xlink:title=" ">
<polygon fill="white" stroke="#666666" points="368.5,-171.5 258.5,-171.5 258.5,-141.5 368.5,-141.5 368.5,-171.5"/>
<text text-anchor="start" x="266.5" y="-159.5" font-family="Helvetica,sans-Serif" font-size="10.00">execute_high_level</text>
<text text-anchor="middle" x="313.5" y="-148.5" font-family="Helvetica,sans-Serif" font-size="10.00">_au_command</text>
</a>
</g>
</g>
<!-- Node1&#45;&gt;Node17 -->
<g id="edge27_Node000001_Node000017" class="edge">
<title>Node1&#45;&gt;Node17</title>
<g id="a_edge27_Node000001_Node000017"><a xlink:title=" ">
<path fill="none" stroke="#63b8ff" d="M825.85,-193.58C702.82,-184.66 473.22,-168.01 368.75,-160.43"/>
<polygon fill="#63b8ff" stroke="#63b8ff" points="825.74,-197.08 835.97,-194.31 826.25,-190.1 825.74,-197.08"/>
</a>
</g>
</g>
<!-- Node18 -->
<g id="Node000018" class="node">
<title>Node18</title>
<g id="a_Node000018"><a xlink:href="group__ModuleExecutors.html#gaefd8d559f7f798aaf8cb5f6feb9dce47" target="_top" xlink:title=" ">
<polygon fill="white" stroke="#666666" points="368.5,-123.5 258.5,-123.5 258.5,-93.5 368.5,-93.5 368.5,-123.5"/>
<text text-anchor="start" x="266.5" y="-111.5" font-family="Helvetica,sans-Serif" font-size="10.00">execute_high_level</text>
<text text-anchor="middle" x="313.5" y="-100.5" font-family="Helvetica,sans-Serif" font-size="10.00">_kj_command</text>
</a>
</g>
</g>
<!-- Node1&#45;&gt;Node18 -->
<g id="edge30_Node000001_Node000018" class="edge">
<title>Node1&#45;&gt;Node18</title>
<g id="a_edge30_Node000001_Node000018"><a xlink:title=" ">
<path fill="none" stroke="#63b8ff" d="M860.58,-187.59C841.82,-183.09 819.97,-178.17 800,-174.5 644.39,-145.89 458.61,-124.01 368.64,-114.19"/>
<polygon fill="#63b8ff" stroke="#63b8ff" points="859.82,-191 870.37,-189.96 861.47,-184.2 859.82,-191"/>
</a>
</g>
</g>
<!-- Node19 -->
<g id="Node000019" class="node">
<title>Node19</title>
<g id="a_Node000019"><a xlink:href="classCoordExtractor.html#a94f396e2c1c6511af85c9277bb2d0680" target="_top" xlink:title="Extract coordinates from multiple log files.">
<polygon fill="white" stroke="#666666" points="570,-85.5 440,-85.5 440,-55.5 570,-55.5 570,-85.5"/>
<text text-anchor="start" x="448" y="-73.5" font-family="Helvetica,sans-Serif" font-size="10.00">CoordExtractor::extract</text>
<text text-anchor="middle" x="505" y="-62.5" font-family="Helvetica,sans-Serif" font-size="10.00">_coordinates</text>
</a>
</g>
</g>
<!-- Node1&#45;&gt;Node19 -->
<g id="edge33_Node000001_Node000019" class="edge">
<title>Node1&#45;&gt;Node19</title>
<g id="a_edge33_Node000001_Node000019"><a xlink:title=" ">
<path fill="none" stroke="#63b8ff" d="M892.8,-182.29C873.74,-161.25 838.35,-126.37 800,-109.5 725.77,-76.84 631.6,-69.61 570.11,-68.87"/>
<polygon fill="#63b8ff" stroke="#63b8ff" points="890.25,-184.69 899.5,-189.86 895.49,-180.05 890.25,-184.69"/>
</a>
</g>
</g>
<!-- Node21 -->
<g id="Node000021" class="node">
<title>Node21</title>
<g id="a_Node000021"><a xlink:href="group__MemoryMonitorImpl.html#gaba5928690c1d0bacdd79e7a15169d53c" target="_top" xlink:title=" ">
<polygon fill="white" stroke="#666666" points="764,-19 648,-19 648,0 764,0 764,-19"/>
<text text-anchor="middle" x="706" y="-7" font-family="Helvetica,sans-Serif" font-size="10.00">getSafeThreadCount</text>
</a>
</g>
</g>
<!-- Node1&#45;&gt;Node21 -->
<g id="edge37_Node000001_Node000021" class="edge">
<title>Node1&#45;&gt;Node21</title>
<g id="a_edge37_Node000001_Node000021"><a xlink:title=" ">
<path fill="none" stroke="#63b8ff" d="M900.57,-180.36C886.94,-145.54 853.27,-71.88 800,-33.5 789.45,-25.9 776.69,-20.7 764.05,-17.15"/>
<polygon fill="#63b8ff" stroke="#63b8ff" points="897.34,-181.73 904.15,-189.84 903.89,-179.25 897.34,-181.73"/>
</a>
</g>
</g>
<!-- Node22 -->
<g id="Node000022" class="node">
<title>Node22</title>
<g id="a_Node000022"><a xlink:href="group__MemoryMonitorImpl.html#ga2f3e6563006e068b95ebf65b9942ccee" target="_top" xlink:title="Process multiple files and output formatted results.">
<polygon fill="white" stroke="#666666" points="576,-37 434,-37 434,-18 576,-18 576,-37"/>
<text text-anchor="middle" x="505" y="-25" font-family="Helvetica,sans-Serif" font-size="10.00">processAndOutputResults</text>
</a>
</g>
</g>
<!-- Node1&#45;&gt;Node22 -->
<g id="edge38_Node000001_Node000022" class="edge">
<title>Node1&#45;&gt;Node22</title>
<g id="a_edge38_Node000001_Node000022"><a xlink:title=" ">
<path fill="none" stroke="#63b8ff" d="M898.35,-180.73C882.74,-150.92 847.92,-93.39 800,-66.5 762.85,-45.65 650.86,-35.46 576.32,-30.86"/>
<polygon fill="#63b8ff" stroke="#63b8ff" points="895.25,-182.36 902.9,-189.69 901.5,-179.19 895.25,-182.36"/>
</a>
</g>
</g>
<!-- Node3 -->
<g id="Node000003" class="node">
<title>Node3</title>
<g id="a_Node000003"><a xlink:href="group__MainChecking.html#gabfbdc3f5ed66c5ad702fd8878e95f203" target="_top" xlink:title="Run comprehensive checking of all job types.">
<polygon fill="white" stroke="#666666" points="566,-443.5 444,-443.5 444,-413.5 566,-413.5 566,-443.5"/>
<text text-anchor="start" x="452" y="-431.5" font-family="Helvetica,sans-Serif" font-size="10.00">JobChecker::check_all</text>
<text text-anchor="middle" x="505" y="-420.5" font-family="Helvetica,sans-Serif" font-size="10.00">_job_types</text>
</a>
</g>
</g>
<!-- Node2&#45;&gt;Node3 -->
<g id="edge2_Node000002_Node000003" class="edge">
<title>Node2&#45;&gt;Node3</title>
<g id="a_edge2_Node000002_Node000003"><a xlink:title=" ">
<path fill="none" stroke="#63b8ff" d="M634.41,-425.27C612.13,-425.83 587.72,-426.45 566.23,-426.99"/>
<polygon fill="#63b8ff" stroke="#63b8ff" points="634.57,-428.77 644.48,-425.02 634.4,-421.77 634.57,-428.77"/>
</a>
</g>
</g>
<!-- Node4 -->
<g id="Node000004" class="node">
<title>Node4</title>
<g id="a_Node000004"><a xlink:href="group__ModuleExecutors.html#ga5f1a9bdbc166546e200c5bbb2aa5db30" target="_top" xlink:title=" ">
<polygon fill="white" stroke="#666666" points="393.5,-439 233.5,-439 233.5,-420 393.5,-420 393.5,-439"/>
<text text-anchor="middle" x="313.5" y="-427" font-family="Helvetica,sans-Serif" font-size="10.00">execute_check_all_command</text>
</a>
</g>
</g>
<!-- Node3&#45;&gt;Node4 -->
<g id="edge3_Node000003_Node000004" class="edge">
<title>Node3&#45;&gt;Node4</title>
<g id="a_edge3_Node000003_Node000004"><a xlink:title=" ">
<path fill="none" stroke="#63b8ff" d="M433.52,-428.87C420.52,-428.94 406.87,-429.01 393.64,-429.08"/>
<polygon fill="#63b8ff" stroke="#63b8ff" points="433.8,-432.37 443.78,-428.82 433.76,-425.37 433.8,-432.37"/>
</a>
</g>
</g>
<!-- Node5 -->
<g id="Node000005" class="node">
<title>Node5</title>
<g id="a_Node000005"><a xlink:href="main_8cpp.html#a0ddf1224851353fc92bfbff6f499fa97" target="_top" xlink:title="Main entry point for the Gaussian Extractor application.">
<polygon fill="white" stroke="#666666" points="41,-233 0,-233 0,-214 41,-214 41,-233"/>
<text text-anchor="middle" x="20.5" y="-221" font-family="Helvetica,sans-Serif" font-size="10.00">main</text>
</a>
</g>
</g>
<!-- Node4&#45;&gt;Node5 -->
<g id="edge4_Node000004_Node000005" class="edge">
<title>Node4&#45;&gt;Node5</title>
<g id="a_edge4_Node000004_Node000005"><a xlink:title=" ">
<path fill="none" stroke="#63b8ff" d="M223.45,-421.9C174.76,-413.44 116.49,-395.67 77,-358.5 39.17,-322.89 26.34,-257.74 22.73,-233.2"/>
<polygon fill="#63b8ff" stroke="#63b8ff" points="222.94,-425.36 233.37,-423.52 224.07,-418.45 222.94,-425.36"/>
</a>
</g>
</g>
<!-- Node6 -->
<g id="Node000006" class="node">
<title>Node6</title>
<g id="a_Node000006"><a xlink:href="interactive__mode_8cpp.html#a6b615c34054150d837dc45ed1c17b297" target="_top" xlink:title="Enhanced interactive command loop with TAB completion for Windows.">
<polygon fill="white" stroke="#666666" points="193,-233 77,-233 77,-214 193,-214 193,-233"/>
<text text-anchor="middle" x="135" y="-221" font-family="Helvetica,sans-Serif" font-size="10.00">run_interactive_loop</text>
</a>
</g>
</g>
<!-- Node4&#45;&gt;Node6 -->
<g id="edge5_Node000004_Node000006" class="edge">
<title>Node4&#45;&gt;Node6</title>
<g id="a_edge5_Node000004_Node000006"><a xlink:title=" ">
<path fill="none" stroke="#63b8ff" d="M236.29,-415.45C233.74,-413.95 231.3,-412.31 229,-410.5 168.01,-362.53 144,-264.09 137.76,-233.07"/>
<polygon fill="#63b8ff" stroke="#63b8ff" points="234.79,-418.61 245.29,-419.96 237.92,-412.35 234.79,-418.61"/>
</a>
</g>
</g>
<!-- Node6&#45;&gt;Node5 -->
<g id="edge6_Node000006_Node000005" class="edge">
<title>Node6&#45;&gt;Node5</title>
<g id="a_edge6_Node000006_Node000005"><a xlink:title=" ">
<path fill="none" stroke="#63b8ff" d="M66.62,-223.5C57.37,-223.5 48.55,-223.5 41.19,-223.5"/>
<polygon fill="#63b8ff" stroke="#63b8ff" points="66.76,-227 76.76,-223.5 66.76,-220 66.76,-227"/>
</a>
</g>
</g>
<!-- Node8 -->
<g id="Node000008" class="node">
<title>Node8</title>
<g id="a_Node000008"><a xlink:href="group__ModuleExecutors.html#ga97d4d0bad6dab32f1d5b92d4ea09c80b" target="_top" xlink:title=" ">
<polygon fill="white" stroke="#666666" points="372.5,-401.5 254.5,-401.5 254.5,-371.5 372.5,-371.5 372.5,-401.5"/>
<text text-anchor="start" x="262.5" y="-389.5" font-family="Helvetica,sans-Serif" font-size="10.00">execute_check_done</text>
<text text-anchor="middle" x="313.5" y="-378.5" font-family="Helvetica,sans-Serif" font-size="10.00">_command</text>
</a>
</g>
</g>
<!-- Node7&#45;&gt;Node8 -->
<g id="edge8_Node000007_Node000008" class="edge">
<title>Node7&#45;&gt;Node8</title>
<g id="a_edge8_Node000007_Node000008"><a xlink:title=" ">
<path fill="none" stroke="#63b8ff" d="M601.78,-379.14C528.56,-381.02 432.94,-383.47 372.61,-385.01"/>
<polygon fill="#63b8ff" stroke="#63b8ff" points="602.05,-382.64 611.96,-378.88 601.88,-375.64 602.05,-382.64"/>
</a>
</g>
</g>
<!-- Node8&#45;&gt;Node5 -->
<g id="edge9_Node000008_Node000005" class="edge">
<title>Node8&#45;&gt;Node5</title>
<g id="a_edge9_Node000008_Node000005"><a xlink:title=" ">
<path fill="none" stroke="#63b8ff" d="M244.27,-380.83C193.61,-373.58 125.23,-357.08 77,-319.5 47.24,-296.31 30.51,-252.36 24.31,-233.03"/>
<polygon fill="#63b8ff" stroke="#63b8ff" points="244.1,-384.34 254.48,-382.2 245.03,-377.4 244.1,-384.34"/>
</a>
</g>
</g>
<!-- Node8&#45;&gt;Node6 -->
<g id="edge10_Node000008_Node000006" class="edge">
<title>Node8&#45;&gt;Node6</title>
<g id="a_edge10_Node000008_Node000006"><a xlink:title=" ">
<path fill="none" stroke="#63b8ff" d="M244.77,-371.62C239.19,-369.05 233.84,-366.03 229,-362.5 180.69,-327.24 149.91,-258.72 139.73,-233.3"/>
<polygon fill="#63b8ff" stroke="#63b8ff" points="243.75,-374.98 254.33,-375.54 246.41,-368.51 243.75,-374.98"/>
</a>
</g>
</g>
<!-- Node10 -->
<g id="Node000010" class="node">
<title>Node10</title>
<g id="a_Node000010"><a xlink:href="group__ModuleExecutors.html#ga530afea0ae66ae1aef943507742b3125" target="_top" xlink:title=" ">
<polygon fill="white" stroke="#666666" points="374.5,-353.5 252.5,-353.5 252.5,-323.5 374.5,-323.5 374.5,-353.5"/>
<text text-anchor="start" x="260.5" y="-341.5" font-family="Helvetica,sans-Serif" font-size="10.00">execute_check_errors</text>
<text text-anchor="middle" x="313.5" y="-330.5" font-family="Helvetica,sans-Serif" font-size="10.00">_command</text>
</a>
</g>
</g>
<!-- Node9&#45;&gt;Node10 -->
<g id="edge12_Node000009_Node000010" class="edge">
<title>Node9&#45;&gt;Node10</title>
<g id="a_edge12_Node000009_Node000010"><a xlink:title=" ">
<path fill="none" stroke="#63b8ff" d="M616.23,-336.18C542.38,-336.75 439.27,-337.54 374.73,-338.04"/>
<polygon fill="#63b8ff" stroke="#63b8ff" points="616.47,-339.68 626.45,-336.1 616.42,-332.68 616.47,-339.68"/>
</a>
</g>
</g>
<!-- Node10&#45;&gt;Node5 -->
<g id="edge13_Node000010_Node000005" class="edge">
<title>Node10&#45;&gt;Node5</title>
<g id="a_edge13_Node000010_Node000005"><a xlink:title=" ">
<path fill="none" stroke="#63b8ff" d="M242.15,-334.47C193,-329.01 127.42,-316.24 77,-286.5 54.4,-273.17 36.14,-247.44 27.29,-233.34"/>
<polygon fill="#63b8ff" stroke="#63b8ff" points="242.07,-337.98 252.38,-335.53 242.79,-331.02 242.07,-337.98"/>
</a>
</g>
</g>
<!-- Node10&#45;&gt;Node6 -->
<g id="edge14_Node000010_Node000006" class="edge">
<title>Node10&#45;&gt;Node6</title>
<g id="a_edge14_Node000010_Node000006"><a xlink:title=" ">
<path fill="none" stroke="#63b8ff" d="M242.82,-321.39C238.03,-319.33 233.37,-317.04 229,-314.5 191.13,-292.45 157.25,-251.56 143.06,-233.05"/>
<polygon fill="#63b8ff" stroke="#63b8ff" points="241.58,-324.66 252.17,-325.07 244.14,-318.15 241.58,-324.66"/>
</a>
</g>
</g>
<!-- Node12 -->
<g id="Node000012" class="node">
<title>Node12</title>
<g id="a_Node000012"><a xlink:href="group__ModuleExecutors.html#ga4f5c061099b04712ebc615b32108fdd5" target="_top" xlink:title=" ">
<polygon fill="white" stroke="#666666" points="385,-305.5 242,-305.5 242,-275.5 385,-275.5 385,-305.5"/>
<text text-anchor="start" x="250" y="-293.5" font-family="Helvetica,sans-Serif" font-size="10.00">execute_check_imaginary</text>
<text text-anchor="middle" x="313.5" y="-282.5" font-family="Helvetica,sans-Serif" font-size="10.00">_command</text>
</a>
</g>
</g>
<!-- Node11&#45;&gt;Node12 -->
<g id="edge16_Node000011_Node000012" class="edge">
<title>Node11&#45;&gt;Node12</title>
<g id="a_edge16_Node000011_Node000012"><a xlink:title=" ">
<path fill="none" stroke="#63b8ff" d="M615.85,-290.5C545.92,-290.5 449.9,-290.5 385.21,-290.5"/>
<polygon fill="#63b8ff" stroke="#63b8ff" points="615.98,-294 625.98,-290.5 615.98,-287 615.98,-294"/>
</a>
</g>
</g>
<!-- Node12&#45;&gt;Node5 -->
<g id="edge17_Node000012_Node000005" class="edge">
<title>Node12&#45;&gt;Node5</title>
<g id="a_edge17_Node000012_Node000005"><a xlink:title=" ">
<path fill="none" stroke="#63b8ff" d="M231.93,-289.35C185.39,-286.47 126.46,-278.97 77,-260.5 60.08,-254.18 43.17,-241.82 32.54,-233.13"/>
<polygon fill="#63b8ff" stroke="#63b8ff" points="231.78,-292.84 241.96,-289.91 232.17,-285.86 231.78,-292.84"/>
</a>
</g>
</g>
<!-- Node12&#45;&gt;Node6 -->
<g id="edge18_Node000012_Node000006" class="edge">
<title>Node12&#45;&gt;Node6</title>
<g id="a_edge18_Node000012_Node000006"><a xlink:title=" ">
<path fill="none" stroke="#63b8ff" d="M245.85,-272.34C240.12,-270.48 234.43,-268.52 229,-266.5 202.5,-256.63 173.04,-242.43 154.52,-233.09"/>
<polygon fill="#63b8ff" stroke="#63b8ff" points="244.94,-275.72 255.52,-275.39 247.04,-269.05 244.94,-275.72"/>
</a>
</g>
</g>
<!-- Node14 -->
<g id="Node000014" class="node">
<title>Node14</title>
<g id="a_Node000014"><a xlink:href="group__ModuleExecutors.html#ga02765a7766f40fab78024f30a1b3f9ff" target="_top" xlink:title=" ">
<polygon fill="white" stroke="#666666" points="398,-257 229,-257 229,-238 398,-238 398,-257"/>
<text text-anchor="middle" x="313.5" y="-245" font-family="Helvetica,sans-Serif" font-size="10.00">execute_check_pcm_command</text>
</a>
</g>
</g>
<!-- Node13&#45;&gt;Node14 -->
<g id="edge20_Node000013_Node000014" class="edge">
<title>Node13&#45;&gt;Node14</title>
<g id="a_edge20_Node000013_Node000014"><a xlink:title=" ">
<path fill="none" stroke="#63b8ff" d="M629.71,-243.46C563.43,-244.31 467.04,-245.55 398.33,-246.43"/>
<polygon fill="#63b8ff" stroke="#63b8ff" points="630.12,-246.96 640.08,-243.33 630.03,-239.96 630.12,-246.96"/>
</a>
</g>
</g>
<!-- Node14&#45;&gt;Node5 -->
<g id="edge21_Node000014_Node000005" class="edge">
<title>Node14&#45;&gt;Node5</title>
<g id="a_edge21_Node000014_Node000005"><a xlink:title=" ">
<path fill="none" stroke="#63b8ff" d="M218.52,-252.1C175.14,-252.54 123.13,-250.68 77,-242.5 64.77,-240.33 51.59,-235.91 41.14,-231.88"/>
<polygon fill="#63b8ff" stroke="#63b8ff" points="218.83,-255.6 228.78,-251.95 218.73,-248.6 218.83,-255.6"/>
</a>
</g>
</g>
<!-- Node14&#45;&gt;Node6 -->
<g id="edge22_Node000014_Node000006" class="edge">
<title>Node14&#45;&gt;Node6</title>
<g id="a_edge22_Node000014_Node000006"><a xlink:title=" ">
<path fill="none" stroke="#63b8ff" d="M232.43,-236.61C219.19,-234.81 205.7,-232.98 193.16,-231.27"/>
<polygon fill="#63b8ff" stroke="#63b8ff" points="232.11,-240.1 242.49,-237.98 233.05,-233.16 232.11,-240.1"/>
</a>
</g>
</g>
<!-- Node16 -->
<g id="Node000016" class="node">
<title>Node16</title>
<g id="a_Node000016"><a xlink:href="group__ModuleExecutors.html#ga6d8429398cd99549f485628a27b0623a" target="_top" xlink:title=" ">
<polygon fill="white" stroke="#666666" points="374,-219.5 253,-219.5 253,-189.5 374,-189.5 374,-219.5"/>
<text text-anchor="start" x="261" y="-207.5" font-family="Helvetica,sans-Serif" font-size="10.00">execute_create_input</text>
<text text-anchor="middle" x="313.5" y="-196.5" font-family="Helvetica,sans-Serif" font-size="10.00">_command</text>
</a>
</g>
</g>
<!-- Node15&#45;&gt;Node16 -->
<g id="edge24_Node000015_Node000016" class="edge">
<title>Node15&#45;&gt;Node16</title>
<g id="a_edge24_Node000015_Node000016"><a xlink:title=" ">
<path fill="none" stroke="#63b8ff" d="M439.76,-204.5C418.57,-204.5 395.11,-204.5 374.28,-204.5"/>
<polygon fill="#63b8ff" stroke="#63b8ff" points="439.95,-208 449.95,-204.5 439.95,-201 439.95,-208"/>
</a>
</g>
</g>
<!-- Node16&#45;&gt;Node5 -->
<g id="edge25_Node000016_Node000005" class="edge">
<title>Node16&#45;&gt;Node5</title>
<g id="a_edge25_Node000016_Node000005"><a xlink:title=" ">
<path fill="none" stroke="#63b8ff" d="M242.47,-199.18C195.39,-196.97 132.1,-196.67 77,-205.5 64.8,-207.46 51.62,-211.64 41.17,-215.48"/>
<polygon fill="#63b8ff" stroke="#63b8ff" points="242.4,-202.68 252.56,-199.69 242.75,-195.69 242.4,-202.68"/>
</a>
</g>
</g>
<!-- Node16&#45;&gt;Node6 -->
<g id="edge26_Node000016_Node000006" class="edge">
<title>Node16&#45;&gt;Node6</title>
<g id="a_edge26_Node000016_Node000006"><a xlink:title=" ">
<path fill="none" stroke="#63b8ff" d="M242.63,-212.02C226.17,-213.79 208.82,-215.66 193.01,-217.36"/>
<polygon fill="#63b8ff" stroke="#63b8ff" points="243.18,-215.48 252.75,-210.93 242.43,-208.52 243.18,-215.48"/>
</a>
</g>
</g>
<!-- Node17&#45;&gt;Node5 -->
<g id="edge28_Node000017_Node000005" class="edge">
<title>Node17&#45;&gt;Node5</title>
<g id="a_edge28_Node000017_Node000005"><a xlink:title=" ">
<path fill="none" stroke="#63b8ff" d="M248.44,-160.66C200.27,-165.2 133.19,-174.52 77,-193.5 62.26,-198.48 46.8,-207.16 35.95,-213.91"/>
<polygon fill="#63b8ff" stroke="#63b8ff" points="248.77,-164.15 258.42,-159.77 248.15,-157.18 248.77,-164.15"/>
</a>
</g>
</g>
<!-- Node17&#45;&gt;Node6 -->
<g id="edge29_Node000017_Node000006" class="edge">
<title>Node17&#45;&gt;Node6</title>
<g id="a_edge29_Node000017_Node000006"><a xlink:title=" ">
<path fill="none" stroke="#63b8ff" d="M248.5,-173.8C241.87,-175.92 235.27,-178.17 229,-180.5 202.5,-190.37 173.04,-204.57 154.52,-213.91"/>
<polygon fill="#63b8ff" stroke="#63b8ff" points="249.69,-177.1 258.21,-170.8 247.62,-170.41 249.69,-177.1"/>
</a>
</g>
</g>
<!-- Node18&#45;&gt;Node5 -->
<g id="edge31_Node000018_Node000005" class="edge">
<title>Node18&#45;&gt;Node5</title>
<g id="a_edge31_Node000018_Node000005"><a xlink:title=" ">
<path fill="none" stroke="#63b8ff" d="M248.24,-113.23C198.64,-119.22 129.8,-132.79 77,-163.5 55.17,-176.2 36.86,-200.25 27.74,-213.72"/>
<polygon fill="#63b8ff" stroke="#63b8ff" points="248.66,-116.7 258.2,-112.1 247.87,-109.75 248.66,-116.7"/>
</a>
</g>
</g>
<!-- Node18&#45;&gt;Node6 -->
<g id="edge32_Node000018_Node000006" class="edge">
<title>Node18&#45;&gt;Node6</title>
<g id="a_edge32_Node000018_Node000006"><a xlink:title=" ">
<path fill="none" stroke="#63b8ff" d="M248.85,-123.16C241.94,-125.81 235.18,-128.9 229,-132.5 191.13,-154.55 157.25,-195.44 143.06,-213.95"/>
<polygon fill="#63b8ff" stroke="#63b8ff" points="250.06,-126.45 258.33,-119.83 247.73,-119.85 250.06,-126.45"/>
</a>
</g>
</g>
<!-- Node20 -->
<g id="Node000020" class="node">
<title>Node20</title>
<g id="a_Node000020"><a xlink:href="group__ModuleExecutors.html#gab27343ef2ae55f92b21f39e17f788f4c" target="_top" xlink:title=" ">
<polygon fill="white" stroke="#666666" points="379.5,-75.5 247.5,-75.5 247.5,-45.5 379.5,-45.5 379.5,-75.5"/>
<text text-anchor="start" x="255.5" y="-63.5" font-family="Helvetica,sans-Serif" font-size="10.00">execute_extract_coords</text>
<text text-anchor="middle" x="313.5" y="-52.5" font-family="Helvetica,sans-Serif" font-size="10.00">_command</text>
</a>
</g>
</g>
<!-- Node19&#45;&gt;Node20 -->
<g id="edge34_Node000019_Node000020" class="edge">
<title>Node19&#45;&gt;Node20</title>
<g id="a_edge34_Node000019_Node000020"><a xlink:title=" ">
<path fill="none" stroke="#63b8ff" d="M429.67,-66.58C413.12,-65.7 395.7,-64.78 379.56,-63.93"/>
<polygon fill="#63b8ff" stroke="#63b8ff" points="429.67,-70.08 439.84,-67.11 430.04,-63.09 429.67,-70.08"/>
</a>
</g>
</g>
<!-- Node20&#45;&gt;Node5 -->
<g id="edge35_Node000020_Node000005" class="edge">
<title>Node20&#45;&gt;Node5</title>
<g id="a_edge35_Node000020_Node000005"><a xlink:title=" ">
<path fill="none" stroke="#63b8ff" d="M237.19,-63.37C187.21,-68.77 122.64,-82.86 77,-118.5 44.66,-143.75 29.06,-193.19 23.72,-213.96"/>
<polygon fill="#63b8ff" stroke="#63b8ff" points="237.7,-66.84 247.31,-62.37 237.01,-59.87 237.7,-66.84"/>
</a>
</g>
</g>
<!-- Node20&#45;&gt;Node6 -->
<g id="edge36_Node000020_Node000006" class="edge">
<title>Node20&#45;&gt;Node6</title>
<g id="a_edge36_Node000020_Node000006"><a xlink:title=" ">
<path fill="none" stroke="#63b8ff" d="M238.15,-78.71C234.96,-80.47 231.89,-82.39 229,-84.5 180.69,-119.76 149.91,-188.28 139.73,-213.7"/>
<polygon fill="#63b8ff" stroke="#63b8ff" points="239.97,-81.72 247.43,-74.2 236.91,-75.42 239.97,-81.72"/>
</a>
</g>
</g>
<!-- Node23 -->
<g id="Node000023" class="node">
<title>Node23</title>
<g id="a_Node000023"><a xlink:href="group__ModuleExecutors.html#gaa356f7897fc875da426df1cf3c9c5b99" target="_top" xlink:title=" ">
<polygon fill="white" stroke="#666666" points="388,-27 239,-27 239,-8 388,-8 388,-27"/>
<text text-anchor="middle" x="313.5" y="-15" font-family="Helvetica,sans-Serif" font-size="10.00">execute_extract_command</text>
</a>
</g>
</g>
<!-- Node22&#45;&gt;Node23 -->
<g id="edge39_Node000022_Node000023" class="edge">
<title>Node22&#45;&gt;Node23</title>
<g id="a_edge39_Node000022_Node000023"><a xlink:title=" ">
<path fill="none" stroke="#63b8ff" d="M423.68,-23.26C411.86,-22.64 399.73,-22 388.05,-21.38"/>
<polygon fill="#63b8ff" stroke="#63b8ff" points="423.81,-26.77 433.98,-23.8 424.17,-19.78 423.81,-26.77"/>
</a>
</g>
</g>
<!-- Node23&#45;&gt;Node5 -->
<g id="edge40_Node000023_Node000005" class="edge">
<title>Node23&#45;&gt;Node5</title>
<g id="a_edge40_Node000023_Node000005"><a xlink:title=" ">
<path fill="none" stroke="#63b8ff" d="M228.86,-15.36C179.31,-18.44 118.34,-30.38 77,-66.5 31.28,-106.44 23.22,-186.5 21.8,-213.98"/>
<polygon fill="#63b8ff" stroke="#63b8ff" points="229.12,-18.85 238.93,-14.85 228.76,-11.86 229.12,-18.85"/>
</a>
</g>
</g>
<!-- Node23&#45;&gt;Node6 -->
<g id="edge41_Node000023_Node000006" class="edge">
<title>Node23&#45;&gt;Node6</title>
<g id="a_edge41_Node000023_Node000006"><a xlink:title=" ">
<path fill="none" stroke="#63b8ff" d="M236.29,-31.55C233.74,-33.05 231.3,-34.69 229,-36.5 168.01,-84.47 144,-182.91 137.76,-213.93"/>
<polygon fill="#63b8ff" stroke="#63b8ff" points="237.92,-34.65 245.29,-27.04 234.79,-28.39 237.92,-34.65"/>
</a>
</g>
</g>
</g>
</svg>

<g id="navigator" transform="translate(0 0)" fill="#404254">
  <rect fill="#f2f5e9" fill-opacity="0.5" stroke="#606060" stroke-width=".5" x="0" y="0" width="60" height="60"/>
  <use id="zoomplus" xlink:href="#zoomPlus" x="17" y="9" onmousedown="handleZoom(evt,'in')"/>
  <use id="zoomminus" xlink:href="#zoomMin" x="42" y="9" onmousedown="handleZoom(evt,'out')"/>
  <use id="reset" xlink:href="#resetDef" x="30" y="36" onmousedown="handleReset()"/>
   <use id="arrowup" xlink:href="#arrowUp" x="0" y="0" onmousedown="handlePan(0,-1)"/>
  <use id="arrowright" xlink:href="#arrowRight" x="0" y="0" onmousedown="handlePan(1,0)"/>
  <use id="arrowdown" xlink:href="#arrowDown" x="0" y="0" onmousedown="handlePan(0,1)"/>
  <use id="arrowleft" xlink:href="#arrowLeft" x="0" y="0" onmousedown="handlePan(-1,0)"/>
</g>
<svg viewBox="0 0 15 15" width="100%" height="30px" preserveAspectRatio="xMaxYMin meet">
 <g id="arrow_out" transform="scale(0.3 0.3)">
  <a xlink:href="group__ResourceCalculation_gaf6946ebbf530a167fc82bb7f20b36a42_icgraph_org.svg" target="_base">
   <rect id="button" ry="5" rx="5" y="6" x="6" height="38" width="38"
        fill="#f2f5e9" fill-opacity="0.5" stroke="#606060" stroke-width="1.0"/>
   <path id="arrow"
     d="M 11.500037,31.436501 C 11.940474,20.09759 22.043105,11.32322 32.158766,21.979434 L 37.068811,17.246167 C 37.068811,17.246167 37.088388,32 37.088388,32 L 22.160133,31.978069 C 22.160133,31.978069 26.997745,27.140456 26.997745,27.140456 C 18.528582,18.264221 13.291696,25.230495 11.500037,31.436501 z"
     style="fill:#404040;"/>
  </a>
 </g>
</svg>

<style type='text/css'>
<![CDATA[
[data-mouse-over-selected='false'] { opacity: 0.7; }
[data-mouse-over-selected='true']  { opacity: 1.0; }
]]>
</style>
<script type="application/ecmascript"><![CDATA[
document.addEventListener('DOMContentLoaded', (event) => {
  highlightEdges();
  highlightAdjacentNodes();
});
]]></script>
</svg>
