<?xml version="1.0" encoding="UTF-8" standalone="no"?>
<!DOCTYPE svg PUBLIC "-//W3C//DTD SVG 1.1//EN"
 "http://www.w3.org/Graphics/SVG/1.1/DTD/svg11.dtd">
<!-- Generated by graphviz version 2.43.0 (0)
 -->
<!-- Title: CommandParser::validate_context Pages: 1 -->
<svg width="656pt" height="198pt"
 viewBox="0.00 0.00 656.00 197.50" xmlns="http://www.w3.org/2000/svg" xmlns:xlink="http://www.w3.org/1999/xlink">
<g id="graph0" class="graph" transform="scale(1 1) rotate(0) translate(4 193.5)">
<title>CommandParser::validate_context</title>
<!-- Node1 -->
<g id="Node000001" class="node">
<title>Node1</title>
<g id="a_Node000001"><a xlink:title="Validate parsed context for consistency and correctness.">
<polygon fill="#999999" stroke="#666666" points="143,-128.5 0,-128.5 0,-98.5 143,-98.5 143,-128.5"/>
<text text-anchor="start" x="8" y="-116.5" font-family="Helvetica,sans-Serif" font-size="10.00">CommandParser::validate</text>
<text text-anchor="middle" x="71.5" y="-105.5" font-family="Helvetica,sans-Serif" font-size="10.00">_context</text>
</a>
</g>
</g>
<!-- Node2 -->
<g id="Node000002" class="node">
<title>Node2</title>
<g id="a_Node000002"><a xlink:href="group__ConfigConvenience.html#ga57026ab5b8fe240a9a7269d6ba70c172" target="_top" xlink:title="Get default maximum file size limit.">
<polygon fill="white" stroke="#666666" points="307,-161.5 179,-161.5 179,-131.5 307,-131.5 307,-161.5"/>
<text text-anchor="start" x="187" y="-149.5" font-family="Helvetica,sans-Serif" font-size="10.00">ConfigManager::get</text>
<text text-anchor="middle" x="243" y="-138.5" font-family="Helvetica,sans-Serif" font-size="10.00">_default_max_file_size</text>
</a>
</g>
</g>
<!-- Node1&#45;&gt;Node2 -->
<g id="edge1_Node000001_Node000002" class="edge">
<title>Node1&#45;&gt;Node2</title>
<g id="a_edge1_Node000001_Node000002"><a xlink:title=" ">
<path fill="none" stroke="#63b8ff" d="M143.4,-127.3C151.88,-128.95 160.54,-130.64 169.05,-132.3"/>
<polygon fill="#63b8ff" stroke="#63b8ff" points="168.45,-135.75 178.94,-134.22 169.79,-128.88 168.45,-135.75"/>
</a>
</g>
</g>
<!-- Node5 -->
<g id="Node000005" class="node">
<title>Node5</title>
<g id="a_Node000005"><a xlink:href="group__ConfigConvenience.html#gac68ef6a3a6b456a87d338f9be7b6363c" target="_top" xlink:title="Get default number of processing threads.">
<polygon fill="white" stroke="#666666" points="299,-104.5 187,-104.5 187,-74.5 299,-74.5 299,-104.5"/>
<text text-anchor="start" x="195" y="-92.5" font-family="Helvetica,sans-Serif" font-size="10.00">ConfigManager::get</text>
<text text-anchor="middle" x="243" y="-81.5" font-family="Helvetica,sans-Serif" font-size="10.00">_default_threads</text>
</a>
</g>
</g>
<!-- Node1&#45;&gt;Node5 -->
<g id="edge5_Node000001_Node000005" class="edge">
<title>Node1&#45;&gt;Node5</title>
<g id="a_edge5_Node000001_Node000005"><a xlink:title=" ">
<path fill="none" stroke="#63b8ff" d="M143.4,-103.46C154.51,-101.89 165.95,-100.27 176.93,-98.71"/>
<polygon fill="#63b8ff" stroke="#63b8ff" points="177.44,-102.18 186.85,-97.31 176.46,-95.25 177.44,-102.18"/>
</a>
</g>
</g>
<!-- Node3 -->
<g id="Node000003" class="node">
<title>Node3</title>
<g id="a_Node000003"><a xlink:href="group__ConfigValueGetters.html#gaa29924b452368659c06cf8a0e65e5972" target="_top" xlink:title="Get size_t configuration value.">
<polygon fill="white" stroke="#666666" points="467,-171.5 355,-171.5 355,-141.5 467,-141.5 467,-171.5"/>
<text text-anchor="start" x="363" y="-159.5" font-family="Helvetica,sans-Serif" font-size="10.00">ConfigManager::get</text>
<text text-anchor="middle" x="411" y="-148.5" font-family="Helvetica,sans-Serif" font-size="10.00">_size_t</text>
</a>
</g>
</g>
<!-- Node2&#45;&gt;Node3 -->
<g id="edge2_Node000002_Node000003" class="edge">
<title>Node2&#45;&gt;Node3</title>
<g id="a_edge2_Node000002_Node000003"><a xlink:title=" ">
<path fill="none" stroke="#63b8ff" d="M307.23,-150.31C319.47,-151.05 332.32,-151.82 344.63,-152.56"/>
<polygon fill="#63b8ff" stroke="#63b8ff" points="344.62,-156.07 354.81,-153.18 345.04,-149.08 344.62,-156.07"/>
</a>
</g>
</g>
<!-- Node3&#45;&gt;Node3 -->
<g id="edge4_Node000003_Node000003" class="edge">
<title>Node3&#45;&gt;Node3</title>
<g id="a_edge4_Node000003_Node000003"><a xlink:title=" ">
<path fill="none" stroke="#63b8ff" d="M381.47,-171.78C374.91,-180.91 384.75,-189.5 411,-189.5 426.59,-189.5 436.39,-186.47 440.41,-182.1"/>
<polygon fill="#63b8ff" stroke="#63b8ff" points="443.91,-181.82 440.53,-171.78 436.91,-181.73 443.91,-181.82"/>
</a>
</g>
</g>
<!-- Node4 -->
<g id="Node000004" class="node">
<title>Node4</title>
<g id="a_Node000004"><a xlink:href="group__ConfigInternals.html#ga5e387d61b1f34873cd3ab047242b2aad" target="_top" xlink:title="Template method for type&#45;safe value conversion.">
<polygon fill="white" stroke="#666666" points="648,-106.5 515,-106.5 515,-76.5 648,-76.5 648,-106.5"/>
<text text-anchor="start" x="523" y="-94.5" font-family="Helvetica,sans-Serif" font-size="10.00">ConfigManager::convert</text>
<text text-anchor="middle" x="581.5" y="-83.5" font-family="Helvetica,sans-Serif" font-size="10.00">_value</text>
</a>
</g>
</g>
<!-- Node3&#45;&gt;Node4 -->
<g id="edge3_Node000003_Node000004" class="edge">
<title>Node3&#45;&gt;Node4</title>
<g id="a_edge3_Node000003_Node000004"><a xlink:title=" ">
<path fill="none" stroke="#63b8ff" d="M451.08,-141.42C475.13,-132.15 506.16,-120.18 531.8,-110.29"/>
<polygon fill="#63b8ff" stroke="#63b8ff" points="533.27,-113.47 541.34,-106.61 530.75,-106.94 533.27,-113.47"/>
</a>
</g>
</g>
<!-- Node5&#45;&gt;Node4 -->
<g id="edge6_Node000005_Node000004" class="edge">
<title>Node5&#45;&gt;Node4</title>
<g id="a_edge6_Node000005_Node000004"><a xlink:title=" ">
<path fill="none" stroke="#63b8ff" d="M299.22,-92.78C313.48,-93.5 328.81,-94.14 343,-94.5 403.43,-96.02 418.56,-95.39 479,-94.5 487.36,-94.38 496.11,-94.2 504.81,-93.98"/>
<polygon fill="#63b8ff" stroke="#63b8ff" points="505.08,-97.48 514.99,-93.72 504.9,-90.48 505.08,-97.48"/>
</a>
</g>
</g>
<!-- Node6 -->
<g id="Node000006" class="node">
<title>Node6</title>
<g id="a_Node000006"><a xlink:href="group__ConfigValueGetters.html#gaa25cec73939b4d9bd7419f553faae0cb" target="_top" xlink:title="Get string configuration value.">
<polygon fill="white" stroke="#666666" points="467,-85.5 355,-85.5 355,-55.5 467,-55.5 467,-85.5"/>
<text text-anchor="start" x="363" y="-73.5" font-family="Helvetica,sans-Serif" font-size="10.00">ConfigManager::get</text>
<text text-anchor="middle" x="411" y="-62.5" font-family="Helvetica,sans-Serif" font-size="10.00">_string</text>
</a>
</g>
</g>
<!-- Node5&#45;&gt;Node6 -->
<g id="edge7_Node000005_Node000006" class="edge">
<title>Node5&#45;&gt;Node6</title>
<g id="a_edge7_Node000005_Node000006"><a xlink:title=" ">
<path fill="none" stroke="#63b8ff" d="M299.28,-83.17C313.84,-81.51 329.68,-79.69 344.71,-77.97"/>
<polygon fill="#63b8ff" stroke="#63b8ff" points="345.43,-81.41 354.97,-76.8 344.63,-74.46 345.43,-81.41"/>
</a>
</g>
</g>
<!-- Node7 -->
<g id="Node000007" class="node">
<title>Node7</title>
<g id="a_Node000007"><a xlink:href="group__ConfigValueGetters.html#gada707986c94dbf811fd5b00f7ee52911" target="_top" xlink:title="Get unsigned integer configuration value.">
<polygon fill="white" stroke="#666666" points="479,-19 343,-19 343,0 479,0 479,-19"/>
<text text-anchor="middle" x="411" y="-7" font-family="Helvetica,sans-Serif" font-size="10.00">ConfigManager::get_uint</text>
</a>
</g>
</g>
<!-- Node5&#45;&gt;Node7 -->
<g id="edge9_Node000005_Node000007" class="edge">
<title>Node5&#45;&gt;Node7</title>
<g id="a_edge9_Node000005_Node000007"><a xlink:title=" ">
<path fill="none" stroke="#63b8ff" d="M275.22,-74.45C305.43,-59.89 350.87,-37.99 380.49,-23.72"/>
<polygon fill="#63b8ff" stroke="#63b8ff" points="382.39,-26.69 389.88,-19.2 379.35,-20.38 382.39,-26.69"/>
</a>
</g>
</g>
<!-- Node6&#45;&gt;Node4 -->
<g id="edge8_Node000006_Node000004" class="edge">
<title>Node6&#45;&gt;Node4</title>
<g id="a_edge8_Node000006_Node000004"><a xlink:title=" ">
<path fill="none" stroke="#63b8ff" d="M467.17,-77.38C479.21,-78.88 492.16,-80.49 504.84,-82.07"/>
<polygon fill="#63b8ff" stroke="#63b8ff" points="504.58,-85.57 514.94,-83.33 505.44,-78.62 504.58,-85.57"/>
</a>
</g>
</g>
<!-- Node7&#45;&gt;Node4 -->
<g id="edge10_Node000007_Node000004" class="edge">
<title>Node7&#45;&gt;Node4</title>
<g id="a_edge10_Node000007_Node000004"><a xlink:title=" ">
<path fill="none" stroke="#63b8ff" d="M431.66,-19.07C458.16,-31.96 505.98,-55.24 540.27,-71.92"/>
<polygon fill="#63b8ff" stroke="#63b8ff" points="539.03,-75.21 549.55,-76.44 542.09,-68.92 539.03,-75.21"/>
</a>
</g>
</g>
<!-- Node7&#45;&gt;Node7 -->
<g id="edge11_Node000007_Node000007" class="edge">
<title>Node7&#45;&gt;Node7</title>
<g id="a_edge11_Node000007_Node000007"><a xlink:title=" ">
<path fill="none" stroke="#63b8ff" d="M385.11,-19.08C372.51,-27.73 381.14,-37 411,-37 431.06,-37 441.54,-32.82 442.44,-27.45"/>
<polygon fill="#63b8ff" stroke="#63b8ff" points="445.34,-25.49 436.89,-19.08 439.5,-29.35 445.34,-25.49"/>
</a>
</g>
</g>
</g>
</svg>
