<?xml version="1.0" encoding="UTF-8" standalone="no"?>
<!DOCTYPE svg PUBLIC "-//W3C//DTD SVG 1.1//EN"
 "http://www.w3.org/Graphics/SVG/1.1/DTD/svg11.dtd">
<!-- Generated by graphviz version 2.43.0 (0)
 -->
<!-- Title: ConfigManager::print_config_file_template Pages: 1 -->
<svg width="446pt" height="59pt"
 viewBox="0.00 0.00 446.00 59.00" xmlns="http://www.w3.org/2000/svg" xmlns:xlink="http://www.w3.org/1999/xlink">
<g id="graph0" class="graph" transform="scale(1 1) rotate(0) translate(4 55)">
<title>ConfigManager::print_config_file_template</title>
<!-- Node1 -->
<g id="Node000001" class="node">
<title>Node1</title>
<g id="a_Node000001"><a xlink:title="Print complete configuration file template.">
<polygon fill="#999999" stroke="#666666" points="121,-51 0,-51 0,-21 121,-21 121,-51"/>
<text text-anchor="start" x="8" y="-39" font-family="Helvetica,sans-Serif" font-size="10.00">ConfigManager::print</text>
<text text-anchor="middle" x="60.5" y="-28" font-family="Helvetica,sans-Serif" font-size="10.00">_config_file_template</text>
</a>
</g>
</g>
<!-- Node2 -->
<g id="Node000002" class="node">
<title>Node2</title>
<g id="a_Node000002"><a xlink:href="group__ConfigInternals.html#ga5e387d61b1f34873cd3ab047242b2aad" target="_top" xlink:title="Template method for type&#45;safe value conversion.">
<polygon fill="white" stroke="#666666" points="438,-51 305,-51 305,-21 438,-21 438,-51"/>
<text text-anchor="start" x="313" y="-39" font-family="Helvetica,sans-Serif" font-size="10.00">ConfigManager::convert</text>
<text text-anchor="middle" x="371.5" y="-28" font-family="Helvetica,sans-Serif" font-size="10.00">_value</text>
</a>
</g>
</g>
<!-- Node1&#45;&gt;Node2 -->
<g id="edge1_Node000001_Node000002" class="edge">
<title>Node1&#45;&gt;Node2</title>
<g id="a_edge1_Node000001_Node000002"><a xlink:title=" ">
<path fill="none" stroke="#63b8ff" d="M121.1,-38.16C132.99,-38.51 145.39,-38.82 157,-39 206.77,-39.78 219.23,-39.74 269,-39 277.36,-38.88 286.11,-38.7 294.81,-38.48"/>
<polygon fill="#63b8ff" stroke="#63b8ff" points="295.08,-41.98 304.99,-38.22 294.9,-34.98 295.08,-41.98"/>
</a>
</g>
</g>
<!-- Node3 -->
<g id="Node000003" class="node">
<title>Node3</title>
<g id="a_Node000003"><a xlink:href="group__ConfigQueries.html#ga3a9a6a1e548b293dd0672222a18594eb" target="_top" xlink:title="Get all configuration keys belonging to a specific category.">
<polygon fill="white" stroke="#666666" points="269,-30 157,-30 157,0 269,0 269,-30"/>
<text text-anchor="start" x="165" y="-18" font-family="Helvetica,sans-Serif" font-size="10.00">ConfigManager::get</text>
<text text-anchor="middle" x="213" y="-7" font-family="Helvetica,sans-Serif" font-size="10.00">_keys_by_category</text>
</a>
</g>
</g>
<!-- Node1&#45;&gt;Node3 -->
<g id="edge2_Node000001_Node000003" class="edge">
<title>Node1&#45;&gt;Node3</title>
<g id="a_edge2_Node000001_Node000003"><a xlink:title=" ">
<path fill="none" stroke="#63b8ff" d="M121.41,-27.64C129.69,-26.49 138.22,-25.29 146.59,-24.13"/>
<polygon fill="#63b8ff" stroke="#63b8ff" points="147.27,-27.57 156.69,-22.72 146.3,-20.63 147.27,-27.57"/>
</a>
</g>
</g>
<!-- Node3&#45;&gt;Node2 -->
<g id="edge3_Node000003_Node000002" class="edge">
<title>Node3&#45;&gt;Node2</title>
<g id="a_edge3_Node000003_Node000002"><a xlink:title=" ">
<path fill="none" stroke="#63b8ff" d="M269.18,-22.4C277.46,-23.52 286.13,-24.68 294.75,-25.84"/>
<polygon fill="#63b8ff" stroke="#63b8ff" points="294.46,-29.33 304.83,-27.19 295.39,-22.39 294.46,-29.33"/>
</a>
</g>
</g>
</g>
</svg>
