<?xml version="1.0" encoding="UTF-8" standalone="no"?>
<!DOCTYPE svg PUBLIC "-//W3C//DTD SVG 1.1//EN"
 "http://www.w3.org/Graphics/SVG/1.1/DTD/svg11.dtd">
<!-- Generated by graphviz version 2.43.0 (0)
 -->
<!-- Title: ConfigManager::load_config Pages: 1 -->
<svg width="824pt" height="753pt"
 viewBox="0.00 0.00 824.00 752.50" xmlns="http://www.w3.org/2000/svg" xmlns:xlink="http://www.w3.org/1999/xlink">
<g id="graph0" class="graph" transform="scale(1 1) rotate(0) translate(4 748.5)">
<title>ConfigManager::load_config</title>
<!-- Node1 -->
<g id="Node000001" class="node">
<title>Node1</title>
<g id="a_Node000001"><a xlink:title="Load configuration from file with error handling.">
<polygon fill="#999999" stroke="#666666" points="117,-560 0,-560 0,-530 117,-530 117,-560"/>
<text text-anchor="start" x="8" y="-548" font-family="Helvetica,sans-Serif" font-size="10.00">ConfigManager::load</text>
<text text-anchor="middle" x="58.5" y="-537" font-family="Helvetica,sans-Serif" font-size="10.00">_config</text>
</a>
</g>
</g>
<!-- Node2 -->
<g id="Node000002" class="node">
<title>Node2</title>
<g id="a_Node000002"><a xlink:href="group__ConfigInternals.html#ga604fe8c75e45b77e7068faeafbadcb18" target="_top" xlink:title="Search for and locate configuration file.">
<polygon fill="white" stroke="#666666" points="278,-659 164,-659 164,-629 278,-629 278,-659"/>
<text text-anchor="start" x="172" y="-647" font-family="Helvetica,sans-Serif" font-size="10.00">ConfigManager::find</text>
<text text-anchor="middle" x="221" y="-636" font-family="Helvetica,sans-Serif" font-size="10.00">_config_file</text>
</a>
</g>
</g>
<!-- Node1&#45;&gt;Node2 -->
<g id="edge1_Node000001_Node000002" class="edge">
<title>Node1&#45;&gt;Node2</title>
<g id="a_edge1_Node000001_Node000002"><a xlink:title=" ">
<path fill="none" stroke="#63b8ff" d="M83.88,-560.04C111.41,-577.02 156.37,-604.75 187.03,-623.66"/>
<polygon fill="#63b8ff" stroke="#63b8ff" points="185.31,-626.71 195.66,-628.99 188.98,-620.76 185.31,-626.71"/>
</a>
</g>
</g>
<!-- Node7 -->
<g id="Node000007" class="node">
<title>Node7</title>
<g id="a_Node000007"><a xlink:href="group__ConfigInternals.html#ga957a682fae0ee249a4fc255014d73f82" target="_top" xlink:title="Parse a single line from configuration file.">
<polygon fill="white" stroke="#666666" points="282.5,-560 159.5,-560 159.5,-530 282.5,-530 282.5,-560"/>
<text text-anchor="start" x="167.5" y="-548" font-family="Helvetica,sans-Serif" font-size="10.00">ConfigManager::parse</text>
<text text-anchor="middle" x="221" y="-537" font-family="Helvetica,sans-Serif" font-size="10.00">_config_line</text>
</a>
</g>
</g>
<!-- Node1&#45;&gt;Node7 -->
<g id="edge6_Node000001_Node000007" class="edge">
<title>Node1&#45;&gt;Node7</title>
<g id="a_edge6_Node000001_Node000007"><a xlink:title=" ">
<path fill="none" stroke="#63b8ff" d="M117.44,-545C127.79,-545 138.67,-545 149.32,-545"/>
<polygon fill="#63b8ff" stroke="#63b8ff" points="149.44,-548.5 159.44,-545 149.44,-541.5 149.44,-548.5"/>
</a>
</g>
</g>
<!-- Node10 -->
<g id="Node000010" class="node">
<title>Node10</title>
<g id="a_Node000010"><a xlink:href="group__ConfigValidation.html#ga3b0a3320c46ed448da49cea015ea4b31" target="_top" xlink:title="Validate all configuration values for correctness and consistency.">
<polygon fill="white" stroke="#666666" points="289,-247 153,-247 153,-217 289,-217 289,-247"/>
<text text-anchor="start" x="161" y="-235" font-family="Helvetica,sans-Serif" font-size="10.00">ConfigManager::validate</text>
<text text-anchor="middle" x="221" y="-224" font-family="Helvetica,sans-Serif" font-size="10.00">_config</text>
</a>
</g>
</g>
<!-- Node1&#45;&gt;Node10 -->
<g id="edge9_Node000001_Node000010" class="edge">
<title>Node1&#45;&gt;Node10</title>
<g id="a_edge9_Node000001_Node000010"><a xlink:title=" ">
<path fill="none" stroke="#63b8ff" d="M67.24,-529.9C92.98,-479.71 175.83,-318.13 207.52,-256.34"/>
<polygon fill="#63b8ff" stroke="#63b8ff" points="210.7,-257.81 212.15,-247.31 204.47,-254.61 210.7,-257.81"/>
</a>
</g>
</g>
<!-- Node3 -->
<g id="Node000003" class="node">
<title>Node3</title>
<g id="a_Node000003"><a xlink:href="group__ConfigFileUtils.html#gabdac223165725cc113ecae62b0c10b41" target="_top" xlink:title="Check if a file exists and is accessible.">
<polygon fill="white" stroke="#666666" points="465.5,-744.5 340.5,-744.5 340.5,-725.5 465.5,-725.5 465.5,-744.5"/>
<text text-anchor="middle" x="403" y="-732.5" font-family="Helvetica,sans-Serif" font-size="10.00">ConfigUtils::file_exists</text>
</a>
</g>
</g>
<!-- Node2&#45;&gt;Node3 -->
<g id="edge2_Node000002_Node000003" class="edge">
<title>Node2&#45;&gt;Node3</title>
<g id="a_edge2_Node000002_Node000003"><a xlink:title=" ">
<path fill="none" stroke="#63b8ff" d="M239.37,-659.19C258.91,-675.51 292.22,-701.12 325,-716 330.38,-718.44 336.12,-720.6 341.95,-722.5"/>
<polygon fill="#63b8ff" stroke="#63b8ff" points="341.21,-725.93 351.8,-725.46 343.23,-719.23 341.21,-725.93"/>
</a>
</g>
</g>
<!-- Node4 -->
<g id="Node000004" class="node">
<title>Node4</title>
<g id="a_Node000004"><a xlink:href="group__ConfigFileUtils.html#gaf98b0febad38de1b8c8b06b5b9808d26" target="_top" xlink:title="Get the directory where the executable is located.">
<polygon fill="white" stroke="#666666" points="478,-707 328,-707 328,-677 478,-677 478,-707"/>
<text text-anchor="start" x="336" y="-695" font-family="Helvetica,sans-Serif" font-size="10.00">ConfigUtils::get_executable</text>
<text text-anchor="middle" x="403" y="-684" font-family="Helvetica,sans-Serif" font-size="10.00">_directory</text>
</a>
</g>
</g>
<!-- Node2&#45;&gt;Node4 -->
<g id="edge3_Node000002_Node000004" class="edge">
<title>Node2&#45;&gt;Node4</title>
<g id="a_edge3_Node000002_Node000004"><a xlink:title=" ">
<path fill="none" stroke="#63b8ff" d="M278.46,-659.06C296.72,-663.93 317.13,-669.37 336.02,-674.41"/>
<polygon fill="#63b8ff" stroke="#63b8ff" points="335.18,-677.8 345.74,-677 336.98,-671.04 335.18,-677.8"/>
</a>
</g>
</g>
<!-- Node5 -->
<g id="Node000005" class="node">
<title>Node5</title>
<g id="a_Node000005"><a xlink:href="group__ConfigUtilities.html#gac3e49e311008abed27ce54b805f5f925" target="_top" xlink:title="Get user&#39;s home directory path.">
<polygon fill="white" stroke="#666666" points="465.5,-659 340.5,-659 340.5,-629 465.5,-629 465.5,-659"/>
<text text-anchor="start" x="348.5" y="-647" font-family="Helvetica,sans-Serif" font-size="10.00">ConfigManager::get</text>
<text text-anchor="middle" x="403" y="-636" font-family="Helvetica,sans-Serif" font-size="10.00">_user_home_directory</text>
</a>
</g>
</g>
<!-- Node2&#45;&gt;Node5 -->
<g id="edge4_Node000002_Node000005" class="edge">
<title>Node2&#45;&gt;Node5</title>
<g id="a_edge4_Node000002_Node000005"><a xlink:title=" ">
<path fill="none" stroke="#63b8ff" d="M278.46,-644C294.92,-644 313.13,-644 330.39,-644"/>
<polygon fill="#63b8ff" stroke="#63b8ff" points="330.43,-647.5 340.43,-644 330.43,-640.5 330.43,-647.5"/>
</a>
</g>
</g>
<!-- Node6 -->
<g id="Node000006" class="node">
<title>Node6</title>
<g id="a_Node000006"><a xlink:href="group__ConfigFileUtils.html#ga892ca7155558aa7c9813c0c04ab55a8e" target="_top" xlink:title="Check if a file is readable.">
<polygon fill="white" stroke="#666666" points="469,-610.5 337,-610.5 337,-591.5 469,-591.5 469,-610.5"/>
<text text-anchor="middle" x="403" y="-598.5" font-family="Helvetica,sans-Serif" font-size="10.00">ConfigUtils::is_readable</text>
</a>
</g>
</g>
<!-- Node2&#45;&gt;Node6 -->
<g id="edge5_Node000002_Node000006" class="edge">
<title>Node2&#45;&gt;Node6</title>
<g id="a_edge5_Node000002_Node000006"><a xlink:title=" ">
<path fill="none" stroke="#63b8ff" d="M278.46,-630.51C302.08,-624.87 329.3,-618.37 352.16,-612.91"/>
<polygon fill="#63b8ff" stroke="#63b8ff" points="353.09,-616.28 362,-610.55 351.46,-609.47 353.09,-616.28"/>
</a>
</g>
</g>
<!-- Node8 -->
<g id="Node000008" class="node">
<title>Node8</title>
<g id="a_Node000008"><a xlink:href="group__ConfigInternals.html#ga41b6643ab4d5f045866958f39adf0890" target="_top" xlink:title="Validate that a configuration key is recognized.">
<polygon fill="white" stroke="#666666" points="481,-573.5 325,-573.5 325,-554.5 481,-554.5 481,-573.5"/>
<text text-anchor="middle" x="403" y="-561.5" font-family="Helvetica,sans-Serif" font-size="10.00">ConfigManager::is_valid_key</text>
</a>
</g>
</g>
<!-- Node7&#45;&gt;Node8 -->
<g id="edge7_Node000007_Node000008" class="edge">
<title>Node7&#45;&gt;Node8</title>
<g id="a_edge7_Node000007_Node000008"><a xlink:title=" ">
<path fill="none" stroke="#63b8ff" d="M282.69,-551.41C293.08,-552.5 304.06,-553.66 314.98,-554.81"/>
<polygon fill="#63b8ff" stroke="#63b8ff" points="314.66,-558.3 324.97,-555.87 315.4,-551.34 314.66,-558.3"/>
</a>
</g>
</g>
<!-- Node9 -->
<g id="Node000009" class="node">
<title>Node9</title>
<g id="a_Node000009"><a xlink:href="group__ConfigInternals.html#ga24e6150f47d12f03a5864631c6d846c5" target="_top" xlink:title="Remove leading and trailing whitespace from string.">
<polygon fill="white" stroke="#666666" points="640,-540.5 524,-540.5 524,-521.5 640,-521.5 640,-540.5"/>
<text text-anchor="middle" x="582" y="-528.5" font-family="Helvetica,sans-Serif" font-size="10.00">ConfigManager::trim</text>
</a>
</g>
</g>
<!-- Node7&#45;&gt;Node9 -->
<g id="edge8_Node000007_Node000009" class="edge">
<title>Node7&#45;&gt;Node9</title>
<g id="a_edge8_Node000007_Node000009"><a xlink:title=" ">
<path fill="none" stroke="#63b8ff" d="M282.9,-542.63C346.89,-540.13 447.29,-536.21 513.62,-533.63"/>
<polygon fill="#63b8ff" stroke="#63b8ff" points="514.1,-537.11 523.96,-533.22 513.83,-530.12 514.1,-537.11"/>
</a>
</g>
</g>
<!-- Node11 -->
<g id="Node000011" class="node">
<title>Node11</title>
<g id="a_Node000011"><a xlink:href="group__ConfigInternals.html#ga5e387d61b1f34873cd3ab047242b2aad" target="_top" xlink:title="Template method for type&#45;safe value conversion.">
<polygon fill="white" stroke="#666666" points="816,-277 683,-277 683,-247 816,-247 816,-277"/>
<text text-anchor="start" x="691" y="-265" font-family="Helvetica,sans-Serif" font-size="10.00">ConfigManager::convert</text>
<text text-anchor="middle" x="749.5" y="-254" font-family="Helvetica,sans-Serif" font-size="10.00">_value</text>
</a>
</g>
</g>
<!-- Node10&#45;&gt;Node11 -->
<g id="edge10_Node000010_Node000011" class="edge">
<title>Node10&#45;&gt;Node11</title>
<g id="a_edge10_Node000010_Node000011"><a xlink:title=" ">
<path fill="none" stroke="#63b8ff" d="M284.67,-216.99C368.55,-199.47 521.34,-176.65 647,-208 673.03,-214.49 699.71,-229.06 719.18,-241.42"/>
<polygon fill="#63b8ff" stroke="#63b8ff" points="717.3,-244.38 727.59,-246.91 721.13,-238.52 717.3,-244.38"/>
</a>
</g>
</g>
<!-- Node12 -->
<g id="Node000012" class="node">
<title>Node12</title>
<g id="a_Node000012"><a xlink:href="group__ConfigValueGetters.html#ga5c646b796256dc3d0905ce144f9758a2" target="_top" xlink:title="Get double configuration value.">
<polygon fill="white" stroke="#666666" points="638,-143 526,-143 526,-113 638,-113 638,-143"/>
<text text-anchor="start" x="534" y="-131" font-family="Helvetica,sans-Serif" font-size="10.00">ConfigManager::get</text>
<text text-anchor="middle" x="582" y="-120" font-family="Helvetica,sans-Serif" font-size="10.00">_double</text>
</a>
</g>
</g>
<!-- Node10&#45;&gt;Node12 -->
<g id="edge11_Node000010_Node000012" class="edge">
<title>Node10&#45;&gt;Node12</title>
<g id="a_edge11_Node000010_Node000012"><a xlink:title=" ">
<path fill="none" stroke="#63b8ff" d="M246.06,-216.81C266.38,-204.63 296.62,-187.97 325,-178 387.88,-155.91 463.08,-142.69 515.65,-135.45"/>
<polygon fill="#63b8ff" stroke="#63b8ff" points="516.4,-138.88 525.85,-134.08 515.47,-131.94 516.4,-138.88"/>
</a>
</g>
</g>
<!-- Node13 -->
<g id="Node000013" class="node">
<title>Node13</title>
<g id="a_Node000013"><a xlink:href="group__ConfigValueGetters.html#ga7d3d6c0afb01a9f8c1dc20c35ad33314" target="_top" xlink:title="Get integer configuration value.">
<polygon fill="white" stroke="#666666" points="647,-302.5 517,-302.5 517,-283.5 647,-283.5 647,-302.5"/>
<text text-anchor="middle" x="582" y="-290.5" font-family="Helvetica,sans-Serif" font-size="10.00">ConfigManager::get_int</text>
</a>
</g>
</g>
<!-- Node10&#45;&gt;Node13 -->
<g id="edge14_Node000010_Node000013" class="edge">
<title>Node10&#45;&gt;Node13</title>
<g id="a_edge14_Node000010_Node000013"><a xlink:title=" ">
<path fill="none" stroke="#63b8ff" d="M289.1,-243.4C353.64,-254.37 450.6,-270.84 514.82,-281.76"/>
<polygon fill="#63b8ff" stroke="#63b8ff" points="514.4,-285.23 524.84,-283.46 515.57,-278.33 514.4,-285.23"/>
</a>
</g>
</g>
<!-- Node14 -->
<g id="Node000014" class="node">
<title>Node14</title>
<g id="a_Node000014"><a xlink:href="group__ConfigValueGetters.html#gaa29924b452368659c06cf8a0e65e5972" target="_top" xlink:title="Get size_t configuration value.">
<polygon fill="white" stroke="#666666" points="638,-247 526,-247 526,-217 638,-217 638,-247"/>
<text text-anchor="start" x="534" y="-235" font-family="Helvetica,sans-Serif" font-size="10.00">ConfigManager::get</text>
<text text-anchor="middle" x="582" y="-224" font-family="Helvetica,sans-Serif" font-size="10.00">_size_t</text>
</a>
</g>
</g>
<!-- Node10&#45;&gt;Node14 -->
<g id="edge17_Node000010_Node000014" class="edge">
<title>Node10&#45;&gt;Node14</title>
<g id="a_edge17_Node000010_Node000014"><a xlink:title=" ">
<path fill="none" stroke="#63b8ff" d="M289.1,-232C354.02,-232 451.76,-232 515.97,-232"/>
<polygon fill="#63b8ff" stroke="#63b8ff" points="515.98,-235.5 525.98,-232 515.98,-228.5 515.98,-235.5"/>
</a>
</g>
</g>
<!-- Node15 -->
<g id="Node000015" class="node">
<title>Node15</title>
<g id="a_Node000015"><a xlink:href="group__ConfigValueGetters.html#gaa25cec73939b4d9bd7419f553faae0cb" target="_top" xlink:title="Get string configuration value.">
<polygon fill="white" stroke="#666666" points="638,-503 526,-503 526,-473 638,-473 638,-503"/>
<text text-anchor="start" x="534" y="-491" font-family="Helvetica,sans-Serif" font-size="10.00">ConfigManager::get</text>
<text text-anchor="middle" x="582" y="-480" font-family="Helvetica,sans-Serif" font-size="10.00">_string</text>
</a>
</g>
</g>
<!-- Node10&#45;&gt;Node15 -->
<g id="edge20_Node000010_Node000015" class="edge">
<title>Node10&#45;&gt;Node15</title>
<g id="a_edge20_Node000010_Node000015"><a xlink:title=" ">
<path fill="none" stroke="#63b8ff" d="M225.96,-247.14C236.03,-282.56 266.12,-371.26 325,-416 381.82,-459.17 412.48,-434.05 481,-454 497.04,-458.67 514.32,-464.32 529.94,-469.66"/>
<polygon fill="#63b8ff" stroke="#63b8ff" points="528.83,-472.98 539.42,-472.94 531.11,-466.37 528.83,-472.98"/>
</a>
</g>
</g>
<!-- Node16 -->
<g id="Node000016" class="node">
<title>Node16</title>
<g id="a_Node000016"><a xlink:href="group__ConfigValidationUtils.html#gae4991b82543e777bc3a4b13fba2e2ac2" target="_top" xlink:title="Validate concentration value for chemical reasonableness.">
<polygon fill="white" stroke="#666666" points="459.5,-126 346.5,-126 346.5,-96 459.5,-96 459.5,-126"/>
<text text-anchor="start" x="354.5" y="-114" font-family="Helvetica,sans-Serif" font-size="10.00">ConfigUtils::is_valid</text>
<text text-anchor="middle" x="403" y="-103" font-family="Helvetica,sans-Serif" font-size="10.00">_concentration</text>
</a>
</g>
</g>
<!-- Node10&#45;&gt;Node16 -->
<g id="edge22_Node000010_Node000016" class="edge">
<title>Node10&#45;&gt;Node16</title>
<g id="a_edge22_Node000010_Node000016"><a xlink:title=" ">
<path fill="none" stroke="#63b8ff" d="M235.63,-216.73C254.16,-196.75 289.11,-161.74 325,-140 330.91,-136.42 337.34,-133.16 343.87,-130.22"/>
<polygon fill="#63b8ff" stroke="#63b8ff" points="345.64,-133.27 353.48,-126.15 342.91,-126.83 345.64,-133.27"/>
</a>
</g>
</g>
<!-- Node17 -->
<g id="Node000017" class="node">
<title>Node17</title>
<g id="a_Node000017"><a xlink:href="group__ConfigValidationUtils.html#gabbc0a80ccd4e422868d76a759fad7a48" target="_top" xlink:title="Validate file size limit for system appropriateness.">
<polygon fill="white" stroke="#666666" points="459.5,-78 346.5,-78 346.5,-48 459.5,-48 459.5,-78"/>
<text text-anchor="start" x="354.5" y="-66" font-family="Helvetica,sans-Serif" font-size="10.00">ConfigUtils::is_valid</text>
<text text-anchor="middle" x="403" y="-55" font-family="Helvetica,sans-Serif" font-size="10.00">_file_size</text>
</a>
</g>
</g>
<!-- Node10&#45;&gt;Node17 -->
<g id="edge23_Node000010_Node000017" class="edge">
<title>Node10&#45;&gt;Node17</title>
<g id="a_edge23_Node000010_Node000017"><a xlink:title=" ">
<path fill="none" stroke="#63b8ff" d="M228.67,-216.79C242.36,-187.31 276.51,-122.18 325,-87 328.73,-84.29 332.78,-81.88 337,-79.74"/>
<polygon fill="#63b8ff" stroke="#63b8ff" points="338.79,-82.77 346.46,-75.46 335.91,-76.39 338.79,-82.77"/>
</a>
</g>
</g>
<!-- Node18 -->
<g id="Node000018" class="node">
<title>Node18</title>
<g id="a_Node000018"><a xlink:href="group__ConfigValidationUtils.html#gaaab1339b93b3b34c3f6c53b8e6a3727e" target="_top" xlink:title="Validate pressure value for physical reasonableness.">
<polygon fill="white" stroke="#666666" points="459.5,-30 346.5,-30 346.5,0 459.5,0 459.5,-30"/>
<text text-anchor="start" x="354.5" y="-18" font-family="Helvetica,sans-Serif" font-size="10.00">ConfigUtils::is_valid</text>
<text text-anchor="middle" x="403" y="-7" font-family="Helvetica,sans-Serif" font-size="10.00">_pressure</text>
</a>
</g>
</g>
<!-- Node10&#45;&gt;Node18 -->
<g id="edge24_Node000010_Node000018" class="edge">
<title>Node10&#45;&gt;Node18</title>
<g id="a_edge24_Node000010_Node000018"><a xlink:title=" ">
<path fill="none" stroke="#63b8ff" d="M225.78,-216.93C235.64,-180.71 265.6,-88.16 325,-39 328.71,-35.93 332.82,-33.24 337.15,-30.91"/>
<polygon fill="#63b8ff" stroke="#63b8ff" points="338.76,-34.02 346.29,-26.57 335.76,-27.69 338.76,-34.02"/>
</a>
</g>
</g>
<!-- Node19 -->
<g id="Node000019" class="node">
<title>Node19</title>
<g id="a_Node000019"><a xlink:href="group__ConfigValidationUtils.html#gab7c7175516bb9e9ba06fbae9929ffdc9" target="_top" xlink:title="Validate temperature value for physical reasonableness.">
<polygon fill="white" stroke="#666666" points="459.5,-493 346.5,-493 346.5,-463 459.5,-463 459.5,-493"/>
<text text-anchor="start" x="354.5" y="-481" font-family="Helvetica,sans-Serif" font-size="10.00">ConfigUtils::is_valid</text>
<text text-anchor="middle" x="403" y="-470" font-family="Helvetica,sans-Serif" font-size="10.00">_temperature</text>
</a>
</g>
</g>
<!-- Node10&#45;&gt;Node19 -->
<g id="edge25_Node000010_Node000019" class="edge">
<title>Node10&#45;&gt;Node19</title>
<g id="a_edge25_Node000010_Node000019"><a xlink:title=" ">
<path fill="none" stroke="#63b8ff" d="M225.08,-247.23C233.75,-286.27 261.94,-390.97 325,-449 328.78,-452.48 333.02,-455.55 337.51,-458.26"/>
<polygon fill="#63b8ff" stroke="#63b8ff" points="335.94,-461.39 346.4,-463.05 339.25,-455.23 335.94,-461.39"/>
</a>
</g>
</g>
<!-- Node20 -->
<g id="Node000020" class="node">
<title>Node20</title>
<g id="a_Node000020"><a xlink:href="group__ConfigValidation.html#gac6254d405c53ed8f433ab6d2785c0a90" target="_top" xlink:title="Validate file extension configuration values.">
<polygon fill="white" stroke="#666666" points="471,-407 335,-407 335,-377 471,-377 471,-407"/>
<text text-anchor="start" x="343" y="-395" font-family="Helvetica,sans-Serif" font-size="10.00">ConfigManager::validate</text>
<text text-anchor="middle" x="403" y="-384" font-family="Helvetica,sans-Serif" font-size="10.00">_file_extensions</text>
</a>
</g>
</g>
<!-- Node10&#45;&gt;Node20 -->
<g id="edge26_Node000010_Node000020" class="edge">
<title>Node10&#45;&gt;Node20</title>
<g id="a_edge26_Node000010_Node000020"><a xlink:title=" ">
<path fill="none" stroke="#63b8ff" d="M238.93,-247.05C270.83,-275.4 339.94,-336.83 377.12,-369.88"/>
<polygon fill="#63b8ff" stroke="#63b8ff" points="375.18,-372.84 384.98,-376.87 379.83,-367.61 375.18,-372.84"/>
</a>
</g>
</g>
<!-- Node12&#45;&gt;Node11 -->
<g id="edge12_Node000012_Node000011" class="edge">
<title>Node12&#45;&gt;Node11</title>
<g id="a_edge12_Node000012_Node000011"><a xlink:title=" ">
<path fill="none" stroke="#63b8ff" d="M604.34,-143.06C616.93,-152.09 633.07,-163.94 647,-175 673.96,-196.4 703.75,-222.21 724.04,-240.13"/>
<polygon fill="#63b8ff" stroke="#63b8ff" points="721.78,-242.81 731.59,-246.82 726.43,-237.57 721.78,-242.81"/>
</a>
</g>
</g>
<!-- Node12&#45;&gt;Node12 -->
<g id="edge13_Node000012_Node000012" class="edge">
<title>Node12&#45;&gt;Node12</title>
<g id="a_edge13_Node000012_Node000012"><a xlink:title=" ">
<path fill="none" stroke="#63b8ff" d="M552.82,-143.28C546.34,-152.41 556.06,-161 582,-161 597.4,-161 607.09,-157.97 611.06,-153.6"/>
<polygon fill="#63b8ff" stroke="#63b8ff" points="614.56,-153.32 611.18,-143.28 607.56,-153.23 614.56,-153.32"/>
</a>
</g>
</g>
<!-- Node13&#45;&gt;Node11 -->
<g id="edge15_Node000013_Node000011" class="edge">
<title>Node13&#45;&gt;Node11</title>
<g id="a_edge15_Node000013_Node000011"><a xlink:title=" ">
<path fill="none" stroke="#63b8ff" d="M634.01,-283.45C646.27,-281.15 659.62,-278.65 672.74,-276.19"/>
<polygon fill="#63b8ff" stroke="#63b8ff" points="673.52,-279.6 682.71,-274.32 672.24,-272.72 673.52,-279.6"/>
</a>
</g>
</g>
<!-- Node13&#45;&gt;Node13 -->
<g id="edge16_Node000013_Node000013" class="edge">
<title>Node13&#45;&gt;Node13</title>
<g id="a_edge16_Node000013_Node000013"><a xlink:title=" ">
<path fill="none" stroke="#63b8ff" d="M556.41,-302.58C543.97,-311.23 552.5,-320.5 582,-320.5 601.36,-320.5 611.69,-316.51 612.99,-311.32"/>
<polygon fill="#63b8ff" stroke="#63b8ff" points="615.82,-309.25 607.59,-302.58 609.87,-312.93 615.82,-309.25"/>
</a>
</g>
</g>
<!-- Node14&#45;&gt;Node11 -->
<g id="edge18_Node000014_Node000011" class="edge">
<title>Node14&#45;&gt;Node11</title>
<g id="a_edge18_Node000014_Node000011"><a xlink:title=" ">
<path fill="none" stroke="#63b8ff" d="M638.11,-241.99C649.16,-243.99 660.96,-246.13 672.58,-248.24"/>
<polygon fill="#63b8ff" stroke="#63b8ff" points="672.25,-251.74 682.72,-250.08 673.5,-244.85 672.25,-251.74"/>
</a>
</g>
</g>
<!-- Node14&#45;&gt;Node14 -->
<g id="edge19_Node000014_Node000014" class="edge">
<title>Node14&#45;&gt;Node14</title>
<g id="a_edge19_Node000014_Node000014"><a xlink:title=" ">
<path fill="none" stroke="#63b8ff" d="M552.82,-247.28C546.34,-256.41 556.06,-265 582,-265 597.4,-265 607.09,-261.97 611.06,-257.6"/>
<polygon fill="#63b8ff" stroke="#63b8ff" points="614.56,-257.32 611.18,-247.28 607.56,-257.23 614.56,-257.32"/>
</a>
</g>
</g>
<!-- Node15&#45;&gt;Node11 -->
<g id="edge21_Node000015_Node000011" class="edge">
<title>Node15&#45;&gt;Node11</title>
<g id="a_edge21_Node000015_Node000011"><a xlink:title=" ">
<path fill="none" stroke="#63b8ff" d="M634.31,-472.89C638.88,-470.35 643.2,-467.41 647,-464 701.77,-414.79 730.77,-329.23 742.36,-287.02"/>
<polygon fill="#63b8ff" stroke="#63b8ff" points="745.77,-287.83 744.94,-277.27 739,-286.04 745.77,-287.83"/>
</a>
</g>
</g>
<!-- Node20&#45;&gt;Node9 -->
<g id="edge31_Node000020_Node000009" class="edge">
<title>Node20&#45;&gt;Node9</title>
<g id="a_edge31_Node000020_Node000009"><a xlink:title=" ">
<path fill="none" stroke="#63b8ff" d="M426.6,-407.07C442.93,-418.67 464.85,-435.75 481,-454 501.1,-476.73 492.88,-493.59 517,-512 519.45,-513.87 522.09,-515.56 524.85,-517.09"/>
<polygon fill="#63b8ff" stroke="#63b8ff" points="523.43,-520.29 533.96,-521.41 526.43,-513.96 523.43,-520.29"/>
</a>
</g>
</g>
<!-- Node20&#45;&gt;Node11 -->
<g id="edge27_Node000020_Node000011" class="edge">
<title>Node20&#45;&gt;Node11</title>
<g id="a_edge27_Node000020_Node000011"><a xlink:title=" ">
<path fill="none" stroke="#63b8ff" d="M471.18,-377.19C531.7,-363.38 615.79,-342.88 647,-329 674.06,-316.96 701.93,-298.01 721.61,-283.32"/>
<polygon fill="#63b8ff" stroke="#63b8ff" points="723.93,-285.96 729.77,-277.12 719.69,-280.38 723.93,-285.96"/>
</a>
</g>
</g>
<!-- Node20&#45;&gt;Node15 -->
<g id="edge28_Node000020_Node000015" class="edge">
<title>Node20&#45;&gt;Node15</title>
<g id="a_edge28_Node000020_Node000015"><a xlink:title=" ">
<path fill="none" stroke="#63b8ff" d="M455.17,-407.03C464.2,-410.84 473.19,-415.46 481,-421 501.33,-435.42 496.66,-449.59 517,-464 519.08,-465.47 521.25,-466.86 523.5,-468.18"/>
<polygon fill="#63b8ff" stroke="#63b8ff" points="521.97,-471.33 532.44,-472.89 525.23,-465.13 521.97,-471.33"/>
</a>
</g>
</g>
<!-- Node21 -->
<g id="Node000021" class="node">
<title>Node21</title>
<g id="a_Node000021"><a xlink:href="group__ConfigValidationUtils.html#ga6905a372521e35204369ffa3bb8d8b8e" target="_top" xlink:title="Validate file extension format.">
<polygon fill="white" stroke="#666666" points="638.5,-455 525.5,-455 525.5,-425 638.5,-425 638.5,-455"/>
<text text-anchor="start" x="533.5" y="-443" font-family="Helvetica,sans-Serif" font-size="10.00">ConfigUtils::is_valid</text>
<text text-anchor="middle" x="582" y="-432" font-family="Helvetica,sans-Serif" font-size="10.00">_extension</text>
</a>
</g>
</g>
<!-- Node20&#45;&gt;Node21 -->
<g id="edge29_Node000020_Node000021" class="edge">
<title>Node20&#45;&gt;Node21</title>
<g id="a_edge29_Node000020_Node000021"><a xlink:title=" ">
<path fill="none" stroke="#63b8ff" d="M459.52,-407.06C477.39,-411.9 497.36,-417.32 515.87,-422.34"/>
<polygon fill="#63b8ff" stroke="#63b8ff" points="515.11,-425.76 525.68,-425 516.94,-419 515.11,-425.76"/>
</a>
</g>
</g>
<!-- Node22 -->
<g id="Node000022" class="node">
<title>Node22</title>
<g id="a_Node000022"><a xlink:href="group__ConfigStringUtils.html#ga2f21572e2bdf739cbd8c75720728196c" target="_top" xlink:title="Split string into vector using delimiter.">
<polygon fill="white" stroke="#666666" points="630.5,-407 533.5,-407 533.5,-377 630.5,-377 630.5,-407"/>
<text text-anchor="start" x="541.5" y="-395" font-family="Helvetica,sans-Serif" font-size="10.00">ConfigUtils::split</text>
<text text-anchor="middle" x="582" y="-384" font-family="Helvetica,sans-Serif" font-size="10.00">_string</text>
</a>
</g>
</g>
<!-- Node20&#45;&gt;Node22 -->
<g id="edge30_Node000020_Node000022" class="edge">
<title>Node20&#45;&gt;Node22</title>
<g id="a_edge30_Node000020_Node000022"><a xlink:title=" ">
<path fill="none" stroke="#63b8ff" d="M471.17,-392C488.34,-392 506.65,-392 523.29,-392"/>
<polygon fill="#63b8ff" stroke="#63b8ff" points="523.42,-395.5 533.42,-392 523.42,-388.5 523.42,-395.5"/>
</a>
</g>
</g>
</g>
</svg>
