<?xml version="1.0" encoding="UTF-8" standalone="no"?>
<!DOCTYPE svg PUBLIC "-//W3C//DTD SVG 1.1//EN"
 "http://www.w3.org/Graphics/SVG/1.1/DTD/svg11.dtd">
<!-- Generated by graphviz version 2.43.0 (0)
 -->
<!-- Title: JobSchedulerDetector::parse_general_memory Pages: 1 -->
<svg width="1065pt" height="143pt"
 viewBox="0.00 0.00 1065.00 142.50" xmlns="http://www.w3.org/2000/svg" xmlns:xlink="http://www.w3.org/1999/xlink">
<g id="graph0" class="graph" transform="scale(1 1) rotate(0) translate(4 138.5)">
<title>JobSchedulerDetector::parse_general_memory</title>
<!-- Node1 -->
<g id="Node000001" class="node">
<title>Node1</title>
<g id="a_Node000001"><a xlink:title="Parse general memory format strings.">
<polygon fill="#999999" stroke="#666666" points="1057,-78 919,-78 919,-48 1057,-48 1057,-78"/>
<text text-anchor="start" x="927" y="-66" font-family="Helvetica,sans-Serif" font-size="10.00">JobSchedulerDetector</text>
<text text-anchor="middle" x="988" y="-55" font-family="Helvetica,sans-Serif" font-size="10.00">::parse_general_memory</text>
</a>
</g>
</g>
<!-- Node2 -->
<g id="Node000002" class="node">
<title>Node2</title>
<g id="a_Node000002"><a xlink:href="group__SchedulerSpecific.html#ga3923336c54e169224a24aa725fa039a4" target="_top" xlink:title="Extract resource information from LSF environment.">
<polygon fill="white" stroke="#666666" points="880,-126 757,-126 757,-96 880,-96 880,-126"/>
<text text-anchor="start" x="765" y="-114" font-family="Helvetica,sans-Serif" font-size="10.00">JobSchedulerDetector</text>
<text text-anchor="middle" x="818.5" y="-103" font-family="Helvetica,sans-Serif" font-size="10.00">::detect_lsf_resources</text>
</a>
</g>
</g>
<!-- Node1&#45;&gt;Node2 -->
<g id="edge1_Node000001_Node000002" class="edge">
<title>Node1&#45;&gt;Node2</title>
<g id="a_edge1_Node000001_Node000002"><a xlink:title=" ">
<path fill="none" stroke="#63b8ff" d="M924.44,-80.93C907.13,-85.89 888.52,-91.22 871.85,-96"/>
<polygon fill="#63b8ff" stroke="#63b8ff" points="925.81,-84.18 934.46,-78.06 923.88,-77.45 925.81,-84.18"/>
</a>
</g>
</g>
<!-- Node10 -->
<g id="Node000010" class="node">
<title>Node10</title>
<g id="a_Node000010"><a xlink:href="group__SchedulerSpecific.html#ga14bd7d5ddf535138b1fa97ce992356f5" target="_top" xlink:title="Extract resource information from SGE/OGS environment.">
<polygon fill="white" stroke="#666666" points="882.5,-78 754.5,-78 754.5,-48 882.5,-48 882.5,-78"/>
<text text-anchor="start" x="762.5" y="-66" font-family="Helvetica,sans-Serif" font-size="10.00">JobSchedulerDetector</text>
<text text-anchor="middle" x="818.5" y="-55" font-family="Helvetica,sans-Serif" font-size="10.00">::detect_sge_resources</text>
</a>
</g>
</g>
<!-- Node1&#45;&gt;Node10 -->
<g id="edge12_Node000001_Node000010" class="edge">
<title>Node1&#45;&gt;Node10</title>
<g id="a_edge12_Node000001_Node000010"><a xlink:title=" ">
<path fill="none" stroke="#63b8ff" d="M908.7,-63C899.99,-63 891.2,-63 882.71,-63"/>
<polygon fill="#63b8ff" stroke="#63b8ff" points="908.87,-66.5 918.87,-63 908.87,-59.5 908.87,-66.5"/>
</a>
</g>
</g>
<!-- Node11 -->
<g id="Node000011" class="node">
<title>Node11</title>
<g id="a_Node000011"><a xlink:href="group__EnvironmentHelpers.html#ga3025c6cb2c50e6dba946a25f77fa017b" target="_top" xlink:title="Parse memory specification string to megabytes.">
<polygon fill="white" stroke="#666666" points="883,-30 754,-30 754,0 883,0 883,-30"/>
<text text-anchor="start" x="762" y="-18" font-family="Helvetica,sans-Serif" font-size="10.00">JobSchedulerDetector</text>
<text text-anchor="middle" x="818.5" y="-7" font-family="Helvetica,sans-Serif" font-size="10.00">::parse_memory_string</text>
</a>
</g>
</g>
<!-- Node1&#45;&gt;Node11 -->
<g id="edge14_Node000001_Node000011" class="edge">
<title>Node1&#45;&gt;Node11</title>
<g id="a_edge14_Node000001_Node000011"><a xlink:title=" ">
<path fill="none" stroke="#63b8ff" d="M924.44,-45.07C907.13,-40.11 888.52,-34.78 871.85,-30"/>
<polygon fill="#63b8ff" stroke="#63b8ff" points="923.88,-48.55 934.46,-47.94 925.81,-41.82 923.88,-48.55"/>
</a>
</g>
</g>
<!-- Node3 -->
<g id="Node000003" class="node">
<title>Node3</title>
<g id="a_Node000003"><a xlink:href="group__DetectionMethods.html#ga3e3cf834277c608e8557f70acba55430" target="_top" xlink:title="Detect current job scheduler and extract complete resource information.">
<polygon fill="white" stroke="#666666" points="718,-102 592,-102 592,-72 718,-72 718,-102"/>
<text text-anchor="start" x="600" y="-90" font-family="Helvetica,sans-Serif" font-size="10.00">JobSchedulerDetector</text>
<text text-anchor="middle" x="655" y="-79" font-family="Helvetica,sans-Serif" font-size="10.00">::detect_job_resources</text>
</a>
</g>
</g>
<!-- Node2&#45;&gt;Node3 -->
<g id="edge2_Node000002_Node000003" class="edge">
<title>Node2&#45;&gt;Node3</title>
<g id="a_edge2_Node000002_Node000003"><a xlink:title=" ">
<path fill="none" stroke="#63b8ff" d="M746.96,-100.52C737.32,-99.08 727.48,-97.62 718.01,-96.22"/>
<polygon fill="#63b8ff" stroke="#63b8ff" points="746.5,-103.99 756.9,-102 747.53,-97.06 746.5,-103.99"/>
</a>
</g>
</g>
<!-- Node4 -->
<g id="Node000004" class="node">
<title>Node4</title>
<g id="a_Node000004"><a xlink:href="group__MemoryMonitorImpl.html#gaba5928690c1d0bacdd79e7a15169d53c" target="_top" xlink:title=" ">
<polygon fill="white" stroke="#666666" points="543,-134.5 427,-134.5 427,-115.5 543,-115.5 543,-134.5"/>
<text text-anchor="middle" x="485" y="-122.5" font-family="Helvetica,sans-Serif" font-size="10.00">getSafeThreadCount</text>
</a>
</g>
</g>
<!-- Node3&#45;&gt;Node4 -->
<g id="edge3_Node000003_Node000004" class="edge">
<title>Node3&#45;&gt;Node4</title>
<g id="a_edge3_Node000003_Node000004"><a xlink:title=" ">
<path fill="none" stroke="#63b8ff" d="M582.1,-103.26C563.72,-107.42 544.54,-111.76 528.2,-115.46"/>
<polygon fill="#63b8ff" stroke="#63b8ff" points="582.94,-106.66 591.92,-101.04 581.39,-99.83 582.94,-106.66"/>
</a>
</g>
</g>
<!-- Node5 -->
<g id="Node000005" class="node">
<title>Node5</title>
<g id="a_Node000005"><a xlink:href="group__CommandExecutors.html#ga2c1ceafe241a0b4e19790bb5d878ed1a" target="_top" xlink:title="Parse command&#45;line arguments and create execution context.">
<polygon fill="white" stroke="#666666" points="368.5,-96.5 238.5,-96.5 238.5,-77.5 368.5,-77.5 368.5,-96.5"/>
<text text-anchor="middle" x="303.5" y="-84.5" font-family="Helvetica,sans-Serif" font-size="10.00">CommandParser::parse</text>
</a>
</g>
</g>
<!-- Node3&#45;&gt;Node5 -->
<g id="edge4_Node000003_Node000005" class="edge">
<title>Node3&#45;&gt;Node5</title>
<g id="a_edge4_Node000003_Node000005"><a xlink:title=" ">
<path fill="none" stroke="#63b8ff" d="M581.7,-87C518.94,-87 428.91,-87 368.66,-87"/>
<polygon fill="#63b8ff" stroke="#63b8ff" points="581.92,-90.5 591.92,-87 581.92,-83.5 581.92,-90.5"/>
</a>
</g>
</g>
<!-- Node8 -->
<g id="Node000008" class="node">
<title>Node8</title>
<g id="a_Node000008"><a xlink:href="group__MemoryMonitorImpl.html#ga2f3e6563006e068b95ebf65b9942ccee" target="_top" xlink:title="Process multiple files and output formatted results.">
<polygon fill="white" stroke="#666666" points="556,-58.5 414,-58.5 414,-39.5 556,-39.5 556,-58.5"/>
<text text-anchor="middle" x="485" y="-46.5" font-family="Helvetica,sans-Serif" font-size="10.00">processAndOutputResults</text>
</a>
</g>
</g>
<!-- Node3&#45;&gt;Node8 -->
<g id="edge8_Node000003_Node000008" class="edge">
<title>Node3&#45;&gt;Node8</title>
<g id="a_edge8_Node000003_Node000008"><a xlink:title=" ">
<path fill="none" stroke="#63b8ff" d="M582.1,-70.74C563.72,-66.58 544.54,-62.24 528.2,-58.54"/>
<polygon fill="#63b8ff" stroke="#63b8ff" points="581.39,-74.17 591.92,-72.96 582.94,-67.34 581.39,-74.17"/>
</a>
</g>
</g>
<!-- Node6 -->
<g id="Node000006" class="node">
<title>Node6</title>
<g id="a_Node000006"><a xlink:href="main_8cpp.html#a0ddf1224851353fc92bfbff6f499fa97" target="_top" xlink:title="Main entry point for the Gaussian Extractor application.">
<polygon fill="white" stroke="#666666" points="41,-77.5 0,-77.5 0,-58.5 41,-58.5 41,-77.5"/>
<text text-anchor="middle" x="20.5" y="-65.5" font-family="Helvetica,sans-Serif" font-size="10.00">main</text>
</a>
</g>
</g>
<!-- Node5&#45;&gt;Node6 -->
<g id="edge5_Node000005_Node000006" class="edge">
<title>Node5&#45;&gt;Node6</title>
<g id="a_edge5_Node000005_Node000006"><a xlink:title=" ">
<path fill="none" stroke="#63b8ff" d="M228.32,-92.39C184.11,-94.19 127.03,-94.02 77,-86 64.8,-84.04 51.62,-79.86 41.17,-76.02"/>
<polygon fill="#63b8ff" stroke="#63b8ff" points="228.57,-95.89 238.41,-91.94 228.26,-88.89 228.57,-95.89"/>
</a>
</g>
</g>
<!-- Node7 -->
<g id="Node000007" class="node">
<title>Node7</title>
<g id="a_Node000007"><a xlink:href="interactive__mode_8cpp.html#a6b615c34054150d837dc45ed1c17b297" target="_top" xlink:title="Enhanced interactive command loop with TAB completion for Windows.">
<polygon fill="white" stroke="#666666" points="193,-77.5 77,-77.5 77,-58.5 193,-58.5 193,-77.5"/>
<text text-anchor="middle" x="135" y="-65.5" font-family="Helvetica,sans-Serif" font-size="10.00">run_interactive_loop</text>
</a>
</g>
</g>
<!-- Node5&#45;&gt;Node7 -->
<g id="edge6_Node000005_Node000007" class="edge">
<title>Node5&#45;&gt;Node7</title>
<g id="a_edge6_Node000005_Node000007"><a xlink:title=" ">
<path fill="none" stroke="#63b8ff" d="M227.94,-78.49C216.26,-77.16 204.35,-75.8 193.14,-74.52"/>
<polygon fill="#63b8ff" stroke="#63b8ff" points="227.79,-82 238.13,-79.65 228.59,-75.04 227.79,-82"/>
</a>
</g>
</g>
<!-- Node7&#45;&gt;Node6 -->
<g id="edge7_Node000007_Node000006" class="edge">
<title>Node7&#45;&gt;Node6</title>
<g id="a_edge7_Node000007_Node000006"><a xlink:title=" ">
<path fill="none" stroke="#63b8ff" d="M66.62,-68C57.37,-68 48.55,-68 41.19,-68"/>
<polygon fill="#63b8ff" stroke="#63b8ff" points="66.76,-71.5 76.76,-68 66.76,-64.5 66.76,-71.5"/>
</a>
</g>
</g>
<!-- Node9 -->
<g id="Node000009" class="node">
<title>Node9</title>
<g id="a_Node000009"><a xlink:href="group__ModuleExecutors.html#gaa356f7897fc875da426df1cf3c9c5b99" target="_top" xlink:title=" ">
<polygon fill="white" stroke="#666666" points="378,-58.5 229,-58.5 229,-39.5 378,-39.5 378,-58.5"/>
<text text-anchor="middle" x="303.5" y="-46.5" font-family="Helvetica,sans-Serif" font-size="10.00">execute_extract_command</text>
</a>
</g>
</g>
<!-- Node8&#45;&gt;Node9 -->
<g id="edge9_Node000008_Node000009" class="edge">
<title>Node8&#45;&gt;Node9</title>
<g id="a_edge9_Node000008_Node000009"><a xlink:title=" ">
<path fill="none" stroke="#63b8ff" d="M403.59,-49C395.13,-49 386.55,-49 378.17,-49"/>
<polygon fill="#63b8ff" stroke="#63b8ff" points="403.83,-52.5 413.83,-49 403.83,-45.5 403.83,-52.5"/>
</a>
</g>
</g>
<!-- Node9&#45;&gt;Node6 -->
<g id="edge10_Node000009_Node000006" class="edge">
<title>Node9&#45;&gt;Node6</title>
<g id="a_edge10_Node000009_Node000006"><a xlink:title=" ">
<path fill="none" stroke="#63b8ff" d="M218.8,-42.48C176.09,-40.8 123.48,-41.26 77,-49 64.74,-51.04 51.56,-55.45 41.13,-59.51"/>
<polygon fill="#63b8ff" stroke="#63b8ff" points="218.73,-45.98 228.88,-42.93 219.04,-38.99 218.73,-45.98"/>
</a>
</g>
</g>
<!-- Node9&#45;&gt;Node7 -->
<g id="edge11_Node000009_Node000007" class="edge">
<title>Node9&#45;&gt;Node7</title>
<g id="a_edge11_Node000009_Node000007"><a xlink:title=" ">
<path fill="none" stroke="#63b8ff" d="M218.8,-58.55C210.11,-59.54 201.42,-60.53 193.12,-61.48"/>
<polygon fill="#63b8ff" stroke="#63b8ff" points="219.45,-62 228.99,-57.39 218.65,-55.05 219.45,-62"/>
</a>
</g>
</g>
<!-- Node10&#45;&gt;Node3 -->
<g id="edge13_Node000010_Node000003" class="edge">
<title>Node10&#45;&gt;Node3</title>
<g id="a_edge13_Node000010_Node000003"><a xlink:title=" ">
<path fill="none" stroke="#63b8ff" d="M744.04,-73.92C735.38,-75.2 726.61,-76.51 718.12,-77.77"/>
<polygon fill="#63b8ff" stroke="#63b8ff" points="744.76,-77.35 754.13,-72.42 743.73,-70.42 744.76,-77.35"/>
</a>
</g>
</g>
</g>
</svg>
