<?xml version="1.0" encoding="UTF-8" standalone="no"?>
<!DOCTYPE svg PUBLIC "-//W3C//DTD SVG 1.1//EN"
 "http://www.w3.org/Graphics/SVG/1.1/DTD/svg11.dtd">
<!-- Generated by graphviz version 2.43.0 (0)
 -->
<!-- Title: JobChecker::check_completed_jobs Pages: 1 -->
<svg width="533pt" height="124pt"
 viewBox="0.00 0.00 533.00 123.50" xmlns="http://www.w3.org/2000/svg" xmlns:xlink="http://www.w3.org/1999/xlink">
<g id="graph0" class="graph" transform="scale(1 1) rotate(0) translate(4 119.5)">
<title>JobChecker::check_completed_jobs</title>
<!-- Node1 -->
<g id="Node000001" class="node">
<title>Node1</title>
<g id="a_Node000001"><a xlink:title="Check and organize completed job calculations.">
<polygon fill="#999999" stroke="#666666" points="188,-72.5 0,-72.5 0,-53.5 188,-53.5 188,-72.5"/>
<text text-anchor="middle" x="94" y="-60.5" font-family="Helvetica,sans-Serif" font-size="10.00">JobChecker::check_completed_jobs</text>
</a>
</g>
</g>
<!-- Node2 -->
<g id="Node000002" class="node">
<title>Node2</title>
<g id="a_Node000002"><a xlink:href="group__MemoryMonitorImpl.html#gaf6946ebbf530a167fc82bb7f20b36a42" target="_top" xlink:title="Calculate safe thread count considering job scheduler limits.">
<polygon fill="white" stroke="#666666" points="369,-115.5 224,-115.5 224,-96.5 369,-96.5 369,-115.5"/>
<text text-anchor="middle" x="296.5" y="-103.5" font-family="Helvetica,sans-Serif" font-size="10.00">calculateSafeThreadCount</text>
</a>
</g>
</g>
<!-- Node1&#45;&gt;Node2 -->
<g id="edge1_Node000001_Node000002" class="edge">
<title>Node1&#45;&gt;Node2</title>
<g id="a_edge1_Node000001_Node000002"><a xlink:title=" ">
<path fill="none" stroke="#63b8ff" d="M139.5,-72.54C169.48,-78.97 209.22,-87.5 241.08,-94.33"/>
<polygon fill="#63b8ff" stroke="#63b8ff" points="240.62,-97.81 251.13,-96.48 242.08,-90.96 240.62,-97.81"/>
</a>
</g>
</g>
<!-- Node3 -->
<g id="Node000003" class="node">
<title>Node3</title>
<g id="a_Node000003"><a xlink:href="group__FileOperations.html#gaac546681af83004ec02d1c7d06915902" target="_top" xlink:title="Create target directory for file organization.">
<polygon fill="white" stroke="#666666" points="350,-78 243,-78 243,-48 350,-48 350,-78"/>
<text text-anchor="start" x="251" y="-66" font-family="Helvetica,sans-Serif" font-size="10.00">JobChecker::create</text>
<text text-anchor="middle" x="296.5" y="-55" font-family="Helvetica,sans-Serif" font-size="10.00">_target_directory</text>
</a>
</g>
</g>
<!-- Node1&#45;&gt;Node3 -->
<g id="edge2_Node000001_Node000003" class="edge">
<title>Node1&#45;&gt;Node3</title>
<g id="a_edge2_Node000001_Node000003"><a xlink:title=" ">
<path fill="none" stroke="#63b8ff" d="M188.21,-63C203.35,-63 218.7,-63 232.89,-63"/>
<polygon fill="#63b8ff" stroke="#63b8ff" points="232.98,-66.5 242.98,-63 232.98,-59.5 232.98,-66.5"/>
</a>
</g>
</g>
<!-- Node5 -->
<g id="Node000005" class="node">
<title>Node5</title>
<g id="a_Node000005"><a xlink:href="group__FileOperations.html#ga0b60dfe238c3c9d5fa3144ec4fc22930" target="_top" xlink:title="Get the name of the current working directory.">
<polygon fill="white" stroke="#666666" points="362.5,-30 230.5,-30 230.5,0 362.5,0 362.5,-30"/>
<text text-anchor="start" x="238.5" y="-18" font-family="Helvetica,sans-Serif" font-size="10.00">JobChecker::get_current</text>
<text text-anchor="middle" x="296.5" y="-7" font-family="Helvetica,sans-Serif" font-size="10.00">_directory_name</text>
</a>
</g>
</g>
<!-- Node1&#45;&gt;Node5 -->
<g id="edge4_Node000001_Node000005" class="edge">
<title>Node1&#45;&gt;Node5</title>
<g id="a_edge4_Node000001_Node000005"><a xlink:title=" ">
<path fill="none" stroke="#63b8ff" d="M135.09,-53.4C160.14,-47.4 193.15,-39.5 222.71,-32.43"/>
<polygon fill="#63b8ff" stroke="#63b8ff" points="223.67,-35.8 232.58,-30.06 222.04,-28.99 223.67,-35.8"/>
</a>
</g>
</g>
<!-- Node4 -->
<g id="Node000004" class="node">
<title>Node4</title>
<g id="a_Node000004"><a xlink:href="group__UtilityFunctions.html#ga882d844778896dd43317ad4c3fb5b6a3" target="_top" xlink:title="Log error message with appropriate formatting and collection.">
<polygon fill="white" stroke="#666666" points="525,-72.5 405,-72.5 405,-53.5 525,-53.5 525,-72.5"/>
<text text-anchor="middle" x="465" y="-60.5" font-family="Helvetica,sans-Serif" font-size="10.00">JobChecker::log_error</text>
</a>
</g>
</g>
<!-- Node3&#45;&gt;Node4 -->
<g id="edge3_Node000003_Node000004" class="edge">
<title>Node3&#45;&gt;Node4</title>
<g id="a_edge3_Node000003_Node000004"><a xlink:title=" ">
<path fill="none" stroke="#63b8ff" d="M350.18,-63C364.27,-63 379.71,-63 394.56,-63"/>
<polygon fill="#63b8ff" stroke="#63b8ff" points="394.71,-66.5 404.71,-63 394.71,-59.5 394.71,-66.5"/>
</a>
</g>
</g>
</g>
</svg>
