<?xml version="1.0" encoding="UTF-8" standalone="no"?>
<!DOCTYPE svg PUBLIC "-//W3C//DTD SVG 1.1//EN"
 "http://www.w3.org/Graphics/SVG/1.1/DTD/svg11.dtd">
<!-- Generated by graphviz version 2.43.0 (0)
 -->
<!-- Title: findLogFiles Pages: 1 -->
<!--zoomable 516 -->

<svg id="main" version="1.1" xmlns="http://www.w3.org/2000/svg" xmlns:xlink="http://www.w3.org/1999/xlink" xml:space="preserve" onload="init(evt)">
<style type="text/css"><![CDATA[
.node, .edge {opacity: 0.7;}
.node.selected, .edge.selected {opacity: 1;}
.edge:hover path { stroke: red; }
.edge:hover polygon { stroke: red; fill: red; }
]]></style>

<defs>
  <circle id="rim" cx="0" cy="0" r="7"/>
  <circle id="rim2" cx="0" cy="0" r="3.5"/>
  <g id="zoomPlus">
    <use xlink:href="#rim" fill="#404040"><set attributeName="fill" to="#808080" begin="zoomplus.mouseover" end="zoomplus.mouseout"/></use>
    <path d="M-4,0h8M0,-4v8" fill="none" stroke="white" stroke-width="1.5" pointer-events="none"/>
  </g>
  <g id="zoomMin">
    <use xlink:href="#rim" fill="#404040"><set attributeName="fill" to="#808080" begin="zoomminus.mouseover" end="zoomminus.mouseout"/></use>
    <path d="M-4,0h8" fill="none" stroke="white" stroke-width="1.5" pointer-events="none"/>
  </g>
  <g id="arrowUp" transform="translate(30 24)">
    <use xlink:href="#rim"/>
    <path pointer-events="none" fill="none" stroke="white" stroke-width="1.5" d="M0,-3.0v7 M-2.5,-0.5L0,-3.0L2.5,-0.5"/>
  </g>
  <g id="arrowRight" transform="rotate(90) translate(36 -43)">
    <use xlink:href="#rim"/>
    <path pointer-events="none" fill="none" stroke="white" stroke-width="1.5" d="M0,-3.0v7 M-2.5,-0.5L0,-3.0L2.5,-0.5"/>
  </g>
  <g id="arrowDown" transform="rotate(180) translate(-30 -48)">
    <use xlink:href="#rim"/>
    <path pointer-events="none" fill="none" stroke="white" stroke-width="1.5" d="M0,-3.0v7 M-2.5,-0.5L0,-3.0L2.5,-0.5"/>
  </g>
  <g id="arrowLeft" transform="rotate(270) translate(-36 17)">
    <use xlink:href="#rim"/>
    <path pointer-events="none" fill="none" stroke="white" stroke-width="1.5" d="M0,-3.0v7 M-2.5,-0.5L0,-3.0L2.5,-0.5"/>
  </g>
  <g id="resetDef">
    <use xlink:href="#rim2" fill="#404040"><set attributeName="fill" to="#808080" begin="reset.mouseover" end="reset.mouseout"/></use>
  </g>
</defs>
<script type="application/ecmascript">
var viewWidth = 881;
var viewHeight = 516;
var sectionId = 'dynsection-9';
</script>
<script type="application/ecmascript" xlink:href="svg.min.js"/>
<svg id="graph" class="graph">
<g id="viewport">
<title>findLogFiles</title>
<!-- Node1 -->
<g id="Node000001" class="node">
<title>Node1</title>
<g id="a_Node000001"><a xlink:title="Find all Gaussian log files in the current directory.">
<polygon fill="#999999" stroke="#666666" points="873,-122.68 799,-122.68 799,-103.68 873,-103.68 873,-122.68"/>
<text text-anchor="middle" x="836" y="-110.68" font-family="Helvetica,sans-Serif" font-size="10.00">findLogFiles</text>
</a>
</g>
</g>
<!-- Node2 -->
<g id="Node000002" class="node">
<title>Node2</title>
<g id="a_Node000002"><a xlink:href="group__MemoryMonitorImpl.html#ga9a325bd1793b5dc5e9490383802ad169" target="_top" xlink:title=" ">
<polygon fill="white" stroke="#666666" points="729,-276.68 655,-276.68 655,-257.68 729,-257.68 729,-276.68"/>
<text text-anchor="middle" x="692" y="-264.68" font-family="Helvetica,sans-Serif" font-size="10.00">findLogFiles</text>
</a>
</g>
</g>
<!-- Node1&#45;&gt;Node2 -->
<g id="edge1_Node000001_Node000002" class="edge">
<title>Node1&#45;&gt;Node2</title>
<g id="a_edge1_Node000001_Node000002"><a xlink:title=" ">
<path fill="none" stroke="#63b8ff" d="M819.31,-130.2C789.46,-162.57 725.38,-232.06 701.88,-257.55"/>
<polygon fill="#63b8ff" stroke="#63b8ff" points="821.91,-132.54 826.12,-122.81 816.77,-127.79 821.91,-132.54"/>
</a>
</g>
</g>
<!-- Node17 -->
<g id="Node000017" class="node">
<title>Node17</title>
<g id="a_Node000017"><a xlink:href="group__MemoryMonitorImpl.html#ga5d1bf1ec351f0a9912a810ebe82a1e0a" target="_top" xlink:title=" ">
<polygon fill="white" stroke="#666666" points="729,-85.68 655,-85.68 655,-66.68 729,-66.68 729,-85.68"/>
<text text-anchor="middle" x="692" y="-73.68" font-family="Helvetica,sans-Serif" font-size="10.00">findLogFiles</text>
</a>
</g>
</g>
<!-- Node1&#45;&gt;Node17 -->
<g id="edge37_Node000001_Node000017" class="edge">
<title>Node1&#45;&gt;Node17</title>
<g id="a_edge37_Node000001_Node000017"><a xlink:title=" ">
<path fill="none" stroke="#63b8ff" d="M788.95,-101.18C769.56,-96.13 747.32,-90.33 729.13,-85.6"/>
<polygon fill="#63b8ff" stroke="#63b8ff" points="788.24,-104.61 798.8,-103.75 790.01,-97.84 788.24,-104.61"/>
</a>
</g>
</g>
<!-- Node18 -->
<g id="Node000018" class="node">
<title>Node18</title>
<g id="a_Node000018"><a xlink:href="group__MemoryMonitorImpl.html#ga2f3e6563006e068b95ebf65b9942ccee" target="_top" xlink:title="Process multiple files and output formatted results.">
<polygon fill="white" stroke="#666666" points="763,-122.68 621,-122.68 621,-103.68 763,-103.68 763,-122.68"/>
<text text-anchor="middle" x="692" y="-110.68" font-family="Helvetica,sans-Serif" font-size="10.00">processAndOutputResults</text>
</a>
</g>
</g>
<!-- Node1&#45;&gt;Node18 -->
<g id="edge38_Node000001_Node000018" class="edge">
<title>Node1&#45;&gt;Node18</title>
<g id="a_edge38_Node000001_Node000018"><a xlink:title=" ">
<path fill="none" stroke="#63b8ff" d="M788.72,-113.18C780.52,-113.18 771.81,-113.18 763.13,-113.18"/>
<polygon fill="#63b8ff" stroke="#63b8ff" points="788.8,-116.68 798.8,-113.18 788.8,-109.68 788.8,-116.68"/>
</a>
</g>
</g>
<!-- Node3 -->
<g id="Node000003" class="node">
<title>Node3</title>
<g id="a_Node000003"><a xlink:href="group__ModuleExecutors.html#ga5f1a9bdbc166546e200c5bbb2aa5db30" target="_top" xlink:title=" ">
<polygon fill="white" stroke="#666666" points="393.5,-481.68 233.5,-481.68 233.5,-462.68 393.5,-462.68 393.5,-481.68"/>
<text text-anchor="middle" x="313.5" y="-469.68" font-family="Helvetica,sans-Serif" font-size="10.00">execute_check_all_command</text>
</a>
</g>
</g>
<!-- Node2&#45;&gt;Node3 -->
<g id="edge2_Node000002_Node000003" class="edge">
<title>Node2&#45;&gt;Node3</title>
<g id="a_edge2_Node000002_Node000003"><a xlink:title=" ">
<path fill="none" stroke="#63b8ff" d="M688.21,-286.87C680.75,-331.15 655.87,-438.11 585,-482.18 506.98,-530.7 390.37,-499.28 339.61,-481.72"/>
<polygon fill="#63b8ff" stroke="#63b8ff" points="691.69,-287.24 689.78,-276.82 684.78,-286.16 691.69,-287.24"/>
</a>
</g>
</g>
<!-- Node6 -->
<g id="Node000006" class="node">
<title>Node6</title>
<g id="a_Node000006"><a xlink:href="group__ModuleExecutors.html#ga97d4d0bad6dab32f1d5b92d4ea09c80b" target="_top" xlink:title=" ">
<polygon fill="white" stroke="#666666" points="372.5,-444.18 254.5,-444.18 254.5,-414.18 372.5,-414.18 372.5,-444.18"/>
<text text-anchor="start" x="262.5" y="-432.18" font-family="Helvetica,sans-Serif" font-size="10.00">execute_check_done</text>
<text text-anchor="middle" x="313.5" y="-421.18" font-family="Helvetica,sans-Serif" font-size="10.00">_command</text>
</a>
</g>
</g>
<!-- Node2&#45;&gt;Node6 -->
<g id="edge6_Node000002_Node000006" class="edge">
<title>Node2&#45;&gt;Node6</title>
<g id="a_edge6_Node000002_Node000006"><a xlink:title=" ">
<path fill="none" stroke="#63b8ff" d="M687.15,-286.56C677.89,-327.4 650.1,-421.67 585,-460.18 527.24,-494.36 500.57,-468.68 434,-460.18 409.55,-457.06 382.95,-450.49 361.07,-444.2"/>
<polygon fill="#63b8ff" stroke="#63b8ff" points="690.58,-287.28 689.25,-276.76 683.74,-285.81 690.58,-287.28"/>
</a>
</g>
</g>
<!-- Node7 -->
<g id="Node000007" class="node">
<title>Node7</title>
<g id="a_Node000007"><a xlink:href="group__ModuleExecutors.html#ga530afea0ae66ae1aef943507742b3125" target="_top" xlink:title=" ">
<polygon fill="white" stroke="#666666" points="374.5,-396.18 252.5,-396.18 252.5,-366.18 374.5,-366.18 374.5,-396.18"/>
<text text-anchor="start" x="260.5" y="-384.18" font-family="Helvetica,sans-Serif" font-size="10.00">execute_check_errors</text>
<text text-anchor="middle" x="313.5" y="-373.18" font-family="Helvetica,sans-Serif" font-size="10.00">_command</text>
</a>
</g>
</g>
<!-- Node2&#45;&gt;Node7 -->
<g id="edge9_Node000002_Node000007" class="edge">
<title>Node2&#45;&gt;Node7</title>
<g id="a_edge9_Node000002_Node000007"><a xlink:title=" ">
<path fill="none" stroke="#63b8ff" d="M664.92,-281.72C643.88,-292.97 613.23,-308.24 585,-318.18 514.51,-343.01 430.21,-360.87 374.67,-371.09"/>
<polygon fill="#63b8ff" stroke="#63b8ff" points="666.75,-284.72 673.87,-276.88 663.41,-278.56 666.75,-284.72"/>
</a>
</g>
</g>
<!-- Node8 -->
<g id="Node000008" class="node">
<title>Node8</title>
<g id="a_Node000008"><a xlink:href="group__ModuleExecutors.html#ga4f5c061099b04712ebc615b32108fdd5" target="_top" xlink:title=" ">
<polygon fill="white" stroke="#666666" points="385,-348.18 242,-348.18 242,-318.18 385,-318.18 385,-348.18"/>
<text text-anchor="start" x="250" y="-336.18" font-family="Helvetica,sans-Serif" font-size="10.00">execute_check_imaginary</text>
<text text-anchor="middle" x="313.5" y="-325.18" font-family="Helvetica,sans-Serif" font-size="10.00">_command</text>
</a>
</g>
</g>
<!-- Node2&#45;&gt;Node8 -->
<g id="edge12_Node000002_Node000008" class="edge">
<title>Node2&#45;&gt;Node8</title>
<g id="a_edge12_Node000002_Node000008"><a xlink:title=" ">
<path fill="none" stroke="#63b8ff" d="M644.9,-278.91C626.36,-283.41 604.74,-288.36 585,-292.18 517.5,-305.23 439.85,-316.63 385.11,-324.08"/>
<polygon fill="#63b8ff" stroke="#63b8ff" points="645.97,-282.25 654.85,-276.47 644.31,-275.46 645.97,-282.25"/>
</a>
</g>
</g>
<!-- Node9 -->
<g id="Node000009" class="node">
<title>Node9</title>
<g id="a_Node000009"><a xlink:href="group__ModuleExecutors.html#ga02765a7766f40fab78024f30a1b3f9ff" target="_top" xlink:title=" ">
<polygon fill="white" stroke="#666666" points="398,-299.68 229,-299.68 229,-280.68 398,-280.68 398,-299.68"/>
<text text-anchor="middle" x="313.5" y="-287.68" font-family="Helvetica,sans-Serif" font-size="10.00">execute_check_pcm_command</text>
</a>
</g>
</g>
<!-- Node2&#45;&gt;Node9 -->
<g id="edge15_Node000002_Node000009" class="edge">
<title>Node2&#45;&gt;Node9</title>
<g id="a_edge15_Node000002_Node000009"><a xlink:title=" ">
<path fill="none" stroke="#63b8ff" d="M644.75,-270.01C583.43,-273.75 474.1,-280.43 398.11,-285.07"/>
<polygon fill="#63b8ff" stroke="#63b8ff" points="645.13,-273.49 654.9,-269.39 644.7,-266.5 645.13,-273.49"/>
</a>
</g>
</g>
<!-- Node10 -->
<g id="Node000010" class="node">
<title>Node10</title>
<g id="a_Node000010"><a xlink:href="group__ModuleExecutors.html#gab27343ef2ae55f92b21f39e17f788f4c" target="_top" xlink:title=" ">
<polygon fill="white" stroke="#666666" points="379.5,-262.18 247.5,-262.18 247.5,-232.18 379.5,-232.18 379.5,-262.18"/>
<text text-anchor="start" x="255.5" y="-250.18" font-family="Helvetica,sans-Serif" font-size="10.00">execute_extract_coords</text>
<text text-anchor="middle" x="313.5" y="-239.18" font-family="Helvetica,sans-Serif" font-size="10.00">_command</text>
</a>
</g>
</g>
<!-- Node2&#45;&gt;Node10 -->
<g id="edge18_Node000002_Node000010" class="edge">
<title>Node2&#45;&gt;Node10</title>
<g id="a_edge18_Node000002_Node000010"><a xlink:title=" ">
<path fill="none" stroke="#63b8ff" d="M644.72,-264.72C578.2,-261.19 455.26,-254.66 379.6,-250.64"/>
<polygon fill="#63b8ff" stroke="#63b8ff" points="644.73,-268.23 654.9,-265.26 645.1,-261.24 644.73,-268.23"/>
</a>
</g>
</g>
<!-- Node11 -->
<g id="Node000011" class="node">
<title>Node11</title>
<g id="a_Node000011"><a xlink:href="group__ModuleExecutors.html#gab1aa2594a8bb3d2789d37593f69cbc5e" target="_top" xlink:title=" ">
<polygon fill="white" stroke="#666666" points="368.5,-206.18 258.5,-206.18 258.5,-176.18 368.5,-176.18 368.5,-206.18"/>
<text text-anchor="start" x="266.5" y="-194.18" font-family="Helvetica,sans-Serif" font-size="10.00">execute_high_level</text>
<text text-anchor="middle" x="313.5" y="-183.18" font-family="Helvetica,sans-Serif" font-size="10.00">_au_command</text>
</a>
</g>
</g>
<!-- Node2&#45;&gt;Node11 -->
<g id="edge21_Node000002_Node000011" class="edge">
<title>Node2&#45;&gt;Node11</title>
<g id="a_edge21_Node000002_Node000011"><a xlink:title=" ">
<path fill="none" stroke="#63b8ff" d="M645.07,-257.91C575.29,-243.82 442.83,-217.09 368.52,-202.09"/>
<polygon fill="#63b8ff" stroke="#63b8ff" points="644.4,-261.35 654.9,-259.89 645.79,-254.48 644.4,-261.35"/>
</a>
</g>
</g>
<!-- Node12 -->
<g id="Node000012" class="node">
<title>Node12</title>
<g id="a_Node000012"><a xlink:href="group__ModuleExecutors.html#gaefd8d559f7f798aaf8cb5f6feb9dce47" target="_top" xlink:title=" ">
<polygon fill="white" stroke="#666666" points="368.5,-158.18 258.5,-158.18 258.5,-128.18 368.5,-128.18 368.5,-158.18"/>
<text text-anchor="start" x="266.5" y="-146.18" font-family="Helvetica,sans-Serif" font-size="10.00">execute_high_level</text>
<text text-anchor="middle" x="313.5" y="-135.18" font-family="Helvetica,sans-Serif" font-size="10.00">_kj_command</text>
</a>
</g>
</g>
<!-- Node2&#45;&gt;Node12 -->
<g id="edge24_Node000002_Node000012" class="edge">
<title>Node2&#45;&gt;Node12</title>
<g id="a_edge24_Node000002_Node000012"><a xlink:title=" ">
<path fill="none" stroke="#63b8ff" d="M680.88,-248.34C667.02,-222.38 641.5,-174.04 621,-132.18 604.21,-97.89 617.16,-74.76 585,-54.18 528.47,-18.01 491.82,-20.11 434,-54.18 405.55,-70.95 423.83,-98.61 398,-119.18 389.5,-125.95 379.18,-130.8 368.73,-134.29"/>
<polygon fill="#63b8ff" stroke="#63b8ff" points="677.95,-250.27 685.75,-257.43 684.12,-246.97 677.95,-250.27"/>
</a>
</g>
</g>
<!-- Node13 -->
<g id="Node000013" class="node">
<title>Node13</title>
<g id="a_Node000013"><a xlink:href="group__FileDirectoryUtils.html#ga9851a9bb4e49d1d90f71249aeebc61e6" target="_top" xlink:title="Validate that current directory is suitable for high&#45;level calculations.">
<polygon fill="white" stroke="#666666" points="570.5,-200.68 448.5,-200.68 448.5,-159.68 570.5,-159.68 570.5,-200.68"/>
<text text-anchor="start" x="456.5" y="-188.68" font-family="Helvetica,sans-Serif" font-size="10.00">HighLevelEnergyUtils</text>
<text text-anchor="start" x="456.5" y="-177.68" font-family="Helvetica,sans-Serif" font-size="10.00">::is_valid_high_level</text>
<text text-anchor="middle" x="509.5" y="-166.68" font-family="Helvetica,sans-Serif" font-size="10.00">_directory</text>
</a>
</g>
</g>
<!-- Node2&#45;&gt;Node13 -->
<g id="edge27_Node000002_Node000013" class="edge">
<title>Node2&#45;&gt;Node13</title>
<g id="a_edge27_Node000002_Node000013"><a xlink:title=" ">
<path fill="none" stroke="#63b8ff" d="M662.37,-252.97C641.07,-242.45 611.28,-227.8 585,-215.18 575.21,-210.48 564.67,-205.49 554.68,-200.79"/>
<polygon fill="#63b8ff" stroke="#63b8ff" points="661,-256.2 671.51,-257.5 664.1,-249.93 661,-256.2"/>
</a>
</g>
</g>
<!-- Node14 -->
<g id="Node000014" class="node">
<title>Node14</title>
<g id="a_Node000014"><a xlink:href="group__FileDirectoryUtils.html#gac1ff563cdfa290008403d17b0d2a91cd" target="_top" xlink:title="Validate directory using a specific extension and file size limit.">
<polygon fill="white" stroke="#666666" points="570.5,-450.68 448.5,-450.68 448.5,-409.68 570.5,-409.68 570.5,-450.68"/>
<text text-anchor="start" x="456.5" y="-438.68" font-family="Helvetica,sans-Serif" font-size="10.00">HighLevelEnergyUtils</text>
<text text-anchor="start" x="456.5" y="-427.68" font-family="Helvetica,sans-Serif" font-size="10.00">::is_valid_high_level</text>
<text text-anchor="middle" x="509.5" y="-416.68" font-family="Helvetica,sans-Serif" font-size="10.00">_directory</text>
</a>
</g>
</g>
<!-- Node2&#45;&gt;Node14 -->
<g id="edge30_Node000002_Node000014" class="edge">
<title>Node2&#45;&gt;Node14</title>
<g id="a_edge30_Node000002_Node000014"><a xlink:title=" ">
<path fill="none" stroke="#63b8ff" d="M679.84,-285.2C662.41,-312.12 626.42,-363.09 585,-395.18 578.11,-400.52 570.27,-405.3 562.33,-409.49"/>
<polygon fill="#63b8ff" stroke="#63b8ff" points="682.8,-287.07 685.2,-276.76 676.89,-283.32 682.8,-287.07"/>
</a>
</g>
</g>
<!-- Node15 -->
<g id="Node000015" class="node">
<title>Node15</title>
<g id="a_Node000015"><a xlink:href="group__MainCalculation.html#ga69523c18f35fc5a0d58d64495c230cea" target="_top" xlink:title="Process entire directory of high&#45;level calculations.">
<polygon fill="white" stroke="#666666" points="584,-141.18 435,-141.18 435,-111.18 584,-111.18 584,-141.18"/>
<text text-anchor="start" x="443" y="-129.18" font-family="Helvetica,sans-Serif" font-size="10.00">HighLevelEnergyCalculator</text>
<text text-anchor="middle" x="509.5" y="-118.18" font-family="Helvetica,sans-Serif" font-size="10.00">::process_directory</text>
</a>
</g>
</g>
<!-- Node2&#45;&gt;Node15 -->
<g id="edge31_Node000002_Node000015" class="edge">
<title>Node2&#45;&gt;Node15</title>
<g id="a_edge31_Node000002_Node000015"><a xlink:title=" ">
<path fill="none" stroke="#63b8ff" d="M679.11,-249.25C661.45,-223.93 625.93,-177.83 585,-151.18 579.17,-147.38 572.7,-144.11 566.09,-141.3"/>
<polygon fill="#63b8ff" stroke="#63b8ff" points="676.26,-251.28 684.79,-257.56 682.04,-247.33 676.26,-251.28"/>
</a>
</g>
</g>
<!-- Node16 -->
<g id="Node000016" class="node">
<title>Node16</title>
<g id="a_Node000016"><a xlink:href="group__MainCalculation.html#gac76ff006f7aae2e96c804a8ca786d692" target="_top" xlink:title="Process entire directory with parallel processing.">
<polygon fill="white" stroke="#666666" points="585,-93.18 434,-93.18 434,-63.18 585,-63.18 585,-93.18"/>
<text text-anchor="start" x="442" y="-81.18" font-family="Helvetica,sans-Serif" font-size="10.00">HighLevelEnergyCalculator</text>
<text text-anchor="middle" x="509.5" y="-70.18" font-family="Helvetica,sans-Serif" font-size="10.00">::process_directory_parallel</text>
</a>
</g>
</g>
<!-- Node2&#45;&gt;Node16 -->
<g id="edge34_Node000002_Node000016" class="edge">
<title>Node2&#45;&gt;Node16</title>
<g id="a_edge34_Node000002_Node000016"><a xlink:title=" ">
<path fill="none" stroke="#63b8ff" d="M683.79,-247.97C669.94,-213.64 636.36,-141.69 585,-102.18 580.58,-98.78 575.67,-95.86 570.54,-93.34"/>
<polygon fill="#63b8ff" stroke="#63b8ff" points="680.55,-249.3 687.45,-257.34 687.07,-246.75 680.55,-249.3"/>
</a>
</g>
</g>
<!-- Node4 -->
<g id="Node000004" class="node">
<title>Node4</title>
<g id="a_Node000004"><a xlink:href="main_8cpp.html#a0ddf1224851353fc92bfbff6f499fa97" target="_top" xlink:title="Main entry point for the Gaussian Extractor application.">
<polygon fill="white" stroke="#666666" points="41,-295.68 0,-295.68 0,-276.68 41,-276.68 41,-295.68"/>
<text text-anchor="middle" x="20.5" y="-283.68" font-family="Helvetica,sans-Serif" font-size="10.00">main</text>
</a>
</g>
</g>
<!-- Node3&#45;&gt;Node4 -->
<g id="edge3_Node000003_Node000004" class="edge">
<title>Node3&#45;&gt;Node4</title>
<g id="a_edge3_Node000003_Node000004"><a xlink:title=" ">
<path fill="none" stroke="#63b8ff" d="M223.23,-468.28C175.04,-461.91 117.34,-446.83 77,-412.18 40.01,-380.41 26.73,-319.26 22.86,-295.73"/>
<polygon fill="#63b8ff" stroke="#63b8ff" points="223.01,-471.78 233.36,-469.51 223.85,-464.83 223.01,-471.78"/>
</a>
</g>
</g>
<!-- Node5 -->
<g id="Node000005" class="node">
<title>Node5</title>
<g id="a_Node000005"><a xlink:href="interactive__mode_8cpp.html#a6b615c34054150d837dc45ed1c17b297" target="_top" xlink:title="Enhanced interactive command loop with TAB completion for Windows.">
<polygon fill="white" stroke="#666666" points="193,-314.68 77,-314.68 77,-295.68 193,-295.68 193,-314.68"/>
<text text-anchor="middle" x="135" y="-302.68" font-family="Helvetica,sans-Serif" font-size="10.00">run_interactive_loop</text>
</a>
</g>
</g>
<!-- Node3&#45;&gt;Node5 -->
<g id="edge4_Node000003_Node000005" class="edge">
<title>Node3&#45;&gt;Node5</title>
<g id="a_edge4_Node000003_Node000005"><a xlink:title=" ">
<path fill="none" stroke="#63b8ff" d="M237.63,-458.42C234.62,-456.86 231.73,-455.12 229,-453.18 177.51,-416.67 148.3,-341.79 139.15,-314.99"/>
<polygon fill="#63b8ff" stroke="#63b8ff" points="236.4,-461.71 246.96,-462.62 239.27,-455.33 236.4,-461.71"/>
</a>
</g>
</g>
<!-- Node5&#45;&gt;Node4 -->
<g id="edge5_Node000005_Node000004" class="edge">
<title>Node5&#45;&gt;Node4</title>
<g id="a_edge5_Node000005_Node000004"><a xlink:title=" ">
<path fill="none" stroke="#63b8ff" d="M67.4,-293.93C57.88,-292.33 48.77,-290.79 41.22,-289.51"/>
<polygon fill="#63b8ff" stroke="#63b8ff" points="66.98,-297.41 77.42,-295.63 68.14,-290.51 66.98,-297.41"/>
</a>
</g>
</g>
<!-- Node6&#45;&gt;Node4 -->
<g id="edge7_Node000006_Node000004" class="edge">
<title>Node6&#45;&gt;Node4</title>
<g id="a_edge7_Node000006_Node000004"><a xlink:title=" ">
<path fill="none" stroke="#63b8ff" d="M244.01,-427.68C193.68,-423.47 125.83,-411.03 77,-376.18 48.01,-355.49 31.09,-314.48 24.59,-295.82"/>
<polygon fill="#63b8ff" stroke="#63b8ff" points="243.92,-431.18 254.16,-428.43 244.44,-424.2 243.92,-431.18"/>
</a>
</g>
</g>
<!-- Node6&#45;&gt;Node5 -->
<g id="edge8_Node000006_Node000005" class="edge">
<title>Node6&#45;&gt;Node5</title>
<g id="a_edge8_Node000006_Node000005"><a xlink:title=" ">
<path fill="none" stroke="#63b8ff" d="M244.79,-413.22C239.28,-410.88 233.94,-408.22 229,-405.18 189.2,-380.74 155.58,-334.7 142.2,-314.77"/>
<polygon fill="#63b8ff" stroke="#63b8ff" points="243.58,-416.5 254.17,-416.85 246.11,-409.97 243.58,-416.5"/>
</a>
</g>
</g>
<!-- Node7&#45;&gt;Node4 -->
<g id="edge10_Node000007_Node000004" class="edge">
<title>Node7&#45;&gt;Node4</title>
<g id="a_edge10_Node000007_Node000004"><a xlink:title=" ">
<path fill="none" stroke="#63b8ff" d="M241.84,-382.75C192.97,-381.04 127.84,-373.04 77,-346.18 54.42,-334.25 36.15,-309.44 27.3,-295.75"/>
<polygon fill="#63b8ff" stroke="#63b8ff" points="241.92,-386.25 252.01,-383.02 242.11,-379.26 241.92,-386.25"/>
</a>
</g>
</g>
<!-- Node7&#45;&gt;Node5 -->
<g id="edge11_Node000007_Node000005" class="edge">
<title>Node7&#45;&gt;Node5</title>
<g id="a_edge11_Node000007_Node000005"><a xlink:title=" ">
<path fill="none" stroke="#63b8ff" d="M243.76,-362.81C238.72,-361.04 233.75,-359.16 229,-357.18 199.97,-345.08 168.49,-326.12 150.61,-314.75"/>
<polygon fill="#63b8ff" stroke="#63b8ff" points="242.92,-366.22 253.52,-366.07 245.14,-359.58 242.92,-366.22"/>
</a>
</g>
</g>
<!-- Node8&#45;&gt;Node4 -->
<g id="edge13_Node000008_Node000004" class="edge">
<title>Node8&#45;&gt;Node4</title>
<g id="a_edge13_Node000008_Node000004"><a xlink:title=" ">
<path fill="none" stroke="#63b8ff" d="M231.9,-341.02C185.48,-342.87 126.67,-340.6 77,-324.18 59.26,-318.32 42.02,-304.94 31.58,-295.73"/>
<polygon fill="#63b8ff" stroke="#63b8ff" points="232.08,-344.51 241.91,-340.55 231.76,-337.52 232.08,-344.51"/>
</a>
</g>
</g>
<!-- Node8&#45;&gt;Node5 -->
<g id="edge14_Node000008_Node000005" class="edge">
<title>Node8&#45;&gt;Node5</title>
<g id="a_edge14_Node000008_Node000005"><a xlink:title=" ">
<path fill="none" stroke="#63b8ff" d="M232.01,-320.41C218.88,-318.33 205.53,-316.21 193.12,-314.24"/>
<polygon fill="#63b8ff" stroke="#63b8ff" points="231.56,-323.88 241.98,-321.99 232.65,-316.97 231.56,-323.88"/>
</a>
</g>
</g>
<!-- Node9&#45;&gt;Node4 -->
<g id="edge16_Node000009_Node000004" class="edge">
<title>Node9&#45;&gt;Node4</title>
<g id="a_edge16_Node000009_Node000004"><a xlink:title=" ">
<path fill="none" stroke="#63b8ff" d="M218.73,-287.66C210.03,-287.47 201.35,-287.31 193,-287.18 137.92,-286.33 72.89,-286.19 41.05,-286.17"/>
<polygon fill="#63b8ff" stroke="#63b8ff" points="218.86,-291.16 228.93,-287.88 219.01,-284.16 218.86,-291.16"/>
</a>
</g>
</g>
<!-- Node9&#45;&gt;Node5 -->
<g id="edge17_Node000009_Node000005" class="edge">
<title>Node9&#45;&gt;Node5</title>
<g id="a_edge17_Node000009_Node000005"><a xlink:title=" ">
<path fill="none" stroke="#63b8ff" d="M218.67,-298.16C209.97,-298.9 201.33,-299.63 193.11,-300.33"/>
<polygon fill="#63b8ff" stroke="#63b8ff" points="219.23,-301.62 228.9,-297.29 218.64,-294.65 219.23,-301.62"/>
</a>
</g>
</g>
<!-- Node10&#45;&gt;Node4 -->
<g id="edge19_Node000010_Node000004" class="edge">
<title>Node10&#45;&gt;Node4</title>
<g id="a_edge19_Node000010_Node000004"><a xlink:title=" ">
<path fill="none" stroke="#63b8ff" d="M237.28,-257.26C171.53,-266.07 80.59,-278.26 41.1,-283.55"/>
<polygon fill="#63b8ff" stroke="#63b8ff" points="237.75,-260.73 247.19,-255.93 236.82,-253.79 237.75,-260.73"/>
</a>
</g>
</g>
<!-- Node10&#45;&gt;Node5 -->
<g id="edge20_Node000010_Node000005" class="edge">
<title>Node10&#45;&gt;Node5</title>
<g id="a_edge20_Node000010_Node000005"><a xlink:title=" ">
<path fill="none" stroke="#63b8ff" d="M251,-265.21C243.57,-267.5 236.1,-269.86 229,-272.18 206.2,-279.63 180.53,-288.8 161.94,-295.59"/>
<polygon fill="#63b8ff" stroke="#63b8ff" points="252.16,-268.52 260.71,-262.25 250.12,-261.82 252.16,-268.52"/>
</a>
</g>
</g>
<!-- Node11&#45;&gt;Node4 -->
<g id="edge22_Node000011_Node000004" class="edge">
<title>Node11&#45;&gt;Node4</title>
<g id="a_edge22_Node000011_Node000004"><a xlink:title=" ">
<path fill="none" stroke="#63b8ff" d="M248.5,-207.09C200.64,-219.67 133.92,-238.65 77,-260.18 64.36,-264.96 50.6,-271.4 39.95,-276.67"/>
<polygon fill="#63b8ff" stroke="#63b8ff" points="249.62,-210.41 258.42,-204.5 247.86,-203.64 249.62,-210.41"/>
</a>
</g>
</g>
<!-- Node11&#45;&gt;Node5 -->
<g id="edge23_Node000011_Node000005" class="edge">
<title>Node11&#45;&gt;Node5</title>
<g id="a_edge23_Node000011_Node000005"><a xlink:title=" ">
<path fill="none" stroke="#63b8ff" d="M255,-210.09C246.04,-213.91 237.08,-218.29 229,-223.18 194.2,-244.25 160.09,-278.9 144.62,-295.6"/>
<polygon fill="#63b8ff" stroke="#63b8ff" points="256.36,-213.31 264.31,-206.3 253.72,-206.83 256.36,-213.31"/>
</a>
</g>
</g>
<!-- Node12&#45;&gt;Node4 -->
<g id="edge25_Node000012_Node000004" class="edge">
<title>Node12&#45;&gt;Node4</title>
<g id="a_edge25_Node000012_Node000004"><a xlink:title=" ">
<path fill="none" stroke="#63b8ff" d="M248.39,-153C198.27,-163.06 128.67,-182.45 77,-218.18 54.19,-233.96 35.76,-261.67 27.01,-276.37"/>
<polygon fill="#63b8ff" stroke="#63b8ff" points="249.3,-156.39 258.46,-151.05 247.98,-149.52 249.3,-156.39"/>
</a>
</g>
</g>
<!-- Node12&#45;&gt;Node5 -->
<g id="edge26_Node000012_Node000005" class="edge">
<title>Node12&#45;&gt;Node5</title>
<g id="a_edge26_Node000012_Node000005"><a xlink:title=" ">
<path fill="none" stroke="#63b8ff" d="M248.65,-156.39C241.67,-159.3 234.95,-162.85 229,-167.18 180.87,-202.19 149.98,-270.21 139.75,-295.45"/>
<polygon fill="#63b8ff" stroke="#63b8ff" points="250.13,-159.57 258.27,-152.8 247.68,-153.01 250.13,-159.57"/>
</a>
</g>
</g>
<!-- Node13&#45;&gt;Node11 -->
<g id="edge28_Node000013_Node000011" class="edge">
<title>Node13&#45;&gt;Node11</title>
<g id="a_edge28_Node000013_Node000011"><a xlink:title=" ">
<path fill="none" stroke="#63b8ff" d="M438.41,-184.16C415.44,-185.46 390.28,-186.88 368.67,-188.11"/>
<polygon fill="#63b8ff" stroke="#63b8ff" points="438.66,-187.65 448.45,-183.59 438.26,-180.66 438.66,-187.65"/>
</a>
</g>
</g>
<!-- Node13&#45;&gt;Node12 -->
<g id="edge29_Node000013_Node000012" class="edge">
<title>Node13&#45;&gt;Node12</title>
<g id="a_edge29_Node000013_Node000012"><a xlink:title=" ">
<path fill="none" stroke="#63b8ff" d="M438.41,-166.81C415.44,-162.43 390.28,-157.63 368.67,-153.51"/>
<polygon fill="#63b8ff" stroke="#63b8ff" points="437.97,-170.29 448.45,-168.73 439.28,-163.42 437.97,-170.29"/>
</a>
</g>
</g>
<!-- Node15&#45;&gt;Node11 -->
<g id="edge32_Node000015_Node000011" class="edge">
<title>Node15&#45;&gt;Node11</title>
<g id="a_edge32_Node000015_Node000011"><a xlink:title=" ">
<path fill="none" stroke="#63b8ff" d="M451.87,-144.56C445.81,-146.71 439.76,-148.94 434,-151.18 417.68,-157.53 414.45,-161.19 398,-167.18 388.65,-170.59 378.56,-173.83 368.75,-176.77"/>
<polygon fill="#63b8ff" stroke="#63b8ff" points="453.07,-147.85 461.36,-141.25 450.77,-141.24 453.07,-147.85"/>
</a>
</g>
</g>
<!-- Node15&#45;&gt;Node12 -->
<g id="edge33_Node000015_Node000012" class="edge">
<title>Node15&#45;&gt;Node12</title>
<g id="a_edge33_Node000015_Node000012"><a xlink:title=" ">
<path fill="none" stroke="#63b8ff" d="M424.74,-133.52C405.77,-135.18 386.11,-136.91 368.74,-138.43"/>
<polygon fill="#63b8ff" stroke="#63b8ff" points="425.22,-136.99 434.88,-132.63 424.61,-130.02 425.22,-136.99"/>
</a>
</g>
</g>
<!-- Node16&#45;&gt;Node11 -->
<g id="edge35_Node000016_Node000011" class="edge">
<title>Node16&#45;&gt;Node11</title>
<g id="a_edge35_Node000016_Node000011"><a xlink:title=" ">
<path fill="none" stroke="#63b8ff" d="M438.92,-98.5C437.22,-99.66 435.57,-100.89 434,-102.18 408.5,-123.16 423.83,-146.61 398,-167.18 389.5,-173.95 379.18,-178.8 368.73,-182.29"/>
<polygon fill="#63b8ff" stroke="#63b8ff" points="441.02,-101.33 447.85,-93.23 437.46,-95.3 441.02,-101.33"/>
</a>
</g>
</g>
<!-- Node16&#45;&gt;Node12 -->
<g id="edge36_Node000016_Node000012" class="edge">
<title>Node16&#45;&gt;Node12</title>
<g id="a_edge36_Node000016_Node000012"><a xlink:title=" ">
<path fill="none" stroke="#63b8ff" d="M448.8,-96.65C443.76,-98.44 438.77,-100.29 434,-102.18 417.54,-108.69 414.56,-112.94 398,-119.18 388.68,-122.69 378.62,-125.99 368.82,-128.95"/>
<polygon fill="#63b8ff" stroke="#63b8ff" points="450.18,-99.88 458.49,-93.3 447.9,-93.26 450.18,-99.88"/>
</a>
</g>
</g>
<!-- Node19 -->
<g id="Node000019" class="node">
<title>Node19</title>
<g id="a_Node000019"><a xlink:href="group__ModuleExecutors.html#gaa356f7897fc875da426df1cf3c9c5b99" target="_top" xlink:title=" ">
<polygon fill="white" stroke="#666666" points="388,-109.68 239,-109.68 239,-90.68 388,-90.68 388,-109.68"/>
<text text-anchor="middle" x="313.5" y="-97.68" font-family="Helvetica,sans-Serif" font-size="10.00">execute_extract_command</text>
</a>
</g>
</g>
<!-- Node18&#45;&gt;Node19 -->
<g id="edge39_Node000018_Node000019" class="edge">
<title>Node18&#45;&gt;Node19</title>
<g id="a_edge39_Node000018_Node000019"><a xlink:title=" ">
<path fill="none" stroke="#63b8ff" d="M625.93,-98.76C624.21,-97.65 622.57,-96.46 621,-95.18 592.67,-72.05 616.01,-40.58 585,-21.18 528.1,14.41 498.27,-1.86 434,-21.18 388.27,-34.93 343.92,-72.49 324.6,-90.42"/>
<polygon fill="#63b8ff" stroke="#63b8ff" points="624.48,-101.95 634.94,-103.62 627.8,-95.79 624.48,-101.95"/>
</a>
</g>
</g>
<!-- Node19&#45;&gt;Node4 -->
<g id="edge40_Node000019_Node000004" class="edge">
<title>Node19&#45;&gt;Node4</title>
<g id="a_edge40_Node000019_Node000004"><a xlink:title=" ">
<path fill="none" stroke="#63b8ff" d="M228.83,-104.19C179.56,-110.58 118.89,-125.97 77,-162.18 40.78,-193.49 27.1,-253.12 22.99,-276.46"/>
<polygon fill="#63b8ff" stroke="#63b8ff" points="229.33,-107.65 238.84,-102.99 228.5,-100.7 229.33,-107.65"/>
</a>
</g>
</g>
<!-- Node19&#45;&gt;Node5 -->
<g id="edge41_Node000019_Node000005" class="edge">
<title>Node19&#45;&gt;Node5</title>
<g id="a_edge41_Node000019_Node000005"><a xlink:title=" ">
<path fill="none" stroke="#63b8ff" d="M236.29,-114.24C233.74,-115.73 231.3,-117.37 229,-119.18 168.22,-166.88 144.07,-264.81 137.78,-295.66"/>
<polygon fill="#63b8ff" stroke="#63b8ff" points="237.93,-117.34 245.3,-109.73 234.79,-111.08 237.93,-117.34"/>
</a>
</g>
</g>
</g>
</svg>

<g id="navigator" transform="translate(0 0)" fill="#404254">
  <rect fill="#f2f5e9" fill-opacity="0.5" stroke="#606060" stroke-width=".5" x="0" y="0" width="60" height="60"/>
  <use id="zoomplus" xlink:href="#zoomPlus" x="17" y="9" onmousedown="handleZoom(evt,'in')"/>
  <use id="zoomminus" xlink:href="#zoomMin" x="42" y="9" onmousedown="handleZoom(evt,'out')"/>
  <use id="reset" xlink:href="#resetDef" x="30" y="36" onmousedown="handleReset()"/>
   <use id="arrowup" xlink:href="#arrowUp" x="0" y="0" onmousedown="handlePan(0,-1)"/>
  <use id="arrowright" xlink:href="#arrowRight" x="0" y="0" onmousedown="handlePan(1,0)"/>
  <use id="arrowdown" xlink:href="#arrowDown" x="0" y="0" onmousedown="handlePan(0,1)"/>
  <use id="arrowleft" xlink:href="#arrowLeft" x="0" y="0" onmousedown="handlePan(-1,0)"/>
</g>
<svg viewBox="0 0 15 15" width="100%" height="30px" preserveAspectRatio="xMaxYMin meet">
 <g id="arrow_out" transform="scale(0.3 0.3)">
  <a xlink:href="group__MemoryMonitorImpl_ga92b44bc7f664ca63d4213f46ecc7714f_icgraph_org.svg" target="_base">
   <rect id="button" ry="5" rx="5" y="6" x="6" height="38" width="38"
        fill="#f2f5e9" fill-opacity="0.5" stroke="#606060" stroke-width="1.0"/>
   <path id="arrow"
     d="M 11.500037,31.436501 C 11.940474,20.09759 22.043105,11.32322 32.158766,21.979434 L 37.068811,17.246167 C 37.068811,17.246167 37.088388,32 37.088388,32 L 22.160133,31.978069 C 22.160133,31.978069 26.997745,27.140456 26.997745,27.140456 C 18.528582,18.264221 13.291696,25.230495 11.500037,31.436501 z"
     style="fill:#404040;"/>
  </a>
 </g>
</svg>

<style type='text/css'>
<![CDATA[
[data-mouse-over-selected='false'] { opacity: 0.7; }
[data-mouse-over-selected='true']  { opacity: 1.0; }
]]>
</style>
<script type="application/ecmascript"><![CDATA[
document.addEventListener('DOMContentLoaded', (event) => {
  highlightEdges();
  highlightAdjacentNodes();
});
]]></script>
</svg>
