<?xml version="1.0" encoding="UTF-8" standalone="no"?>
<!DOCTYPE svg PUBLIC "-//W3C//DTD SVG 1.1//EN"
 "http://www.w3.org/Graphics/SVG/1.1/DTD/svg11.dtd">
<!-- Generated by graphviz version 2.43.0 (0)
 -->
<!-- Title: JobSchedulerDetector::detect_pbs_resources Pages: 1 -->
<svg width="452pt" height="172pt"
 viewBox="0.00 0.00 452.00 172.00" xmlns="http://www.w3.org/2000/svg" xmlns:xlink="http://www.w3.org/1999/xlink">

<svg id="main" version="1.1" xmlns="http://www.w3.org/2000/svg" xmlns:xlink="http://www.w3.org/1999/xlink" xml:space="preserve" onload="init(evt)">
<style type="text/css"><![CDATA[
.node, .edge {opacity: 0.7;}
.node.selected, .edge.selected {opacity: 1;}
.edge:hover path { stroke: red; }
.edge:hover polygon { stroke: red; fill: red; }
]]></style>
<script type="application/ecmascript" xlink:href="svg.min.js"/>
<svg id="graph" class="graph">
<g id="graph0" class="graph" transform="scale(1 1) rotate(0) translate(4 168)">
<title>JobSchedulerDetector::detect_pbs_resources</title>
<!-- Node1 -->
<g id="Node000001" class="node">
<title>Node1</title>
<g id="a_Node000001"><a xlink:title="Extract resource information from PBS/Torque environment.">
<polygon fill="#999999" stroke="#666666" points="128,-99 0,-99 0,-69 128,-69 128,-99"/>
<text text-anchor="start" x="8" y="-87" font-family="Helvetica,sans-Serif" font-size="10.00">JobSchedulerDetector</text>
<text text-anchor="middle" x="64" y="-76" font-family="Helvetica,sans-Serif" font-size="10.00">::detect_pbs_resources</text>
</a>
</g>
</g>
<!-- Node2 -->
<g id="Node000002" class="node">
<title>Node2</title>
<g id="a_Node000002"><a xlink:href="group__EnvironmentHelpers.html#gade9468a3b205731f1aa25d53a32edeca" target="_top" xlink:title="Get long integer environment variable value.">
<polygon fill="white" stroke="#666666" points="286,-164 164,-164 164,-134 286,-134 286,-164"/>
<text text-anchor="start" x="172" y="-152" font-family="Helvetica,sans-Serif" font-size="10.00">JobSchedulerDetector</text>
<text text-anchor="middle" x="225" y="-141" font-family="Helvetica,sans-Serif" font-size="10.00">::get_env_long</text>
</a>
</g>
</g>
<!-- Node1&#45;&gt;Node2 -->
<g id="edge1_Node000001_Node000002" class="edge">
<title>Node1&#45;&gt;Node2</title>
<g id="a_edge1_Node000001_Node000002"><a xlink:title=" ">
<path fill="none" stroke="#63b8ff" d="M101.88,-99.08C124.47,-108.31 153.59,-120.22 177.73,-130.08"/>
<polygon fill="#63b8ff" stroke="#63b8ff" points="176.47,-133.35 187.05,-133.89 179.12,-126.87 176.47,-133.35"/>
</a>
</g>
</g>
<!-- Node3 -->
<g id="Node000003" class="node">
<title>Node3</title>
<g id="a_Node000003"><a xlink:href="group__EnvironmentHelpers.html#ga462d9065c82e9250768f5fe6cea9929b" target="_top" xlink:title="Get environment variable value with default fallback.">
<polygon fill="white" stroke="#666666" points="444,-99 322,-99 322,-69 444,-69 444,-99"/>
<text text-anchor="start" x="330" y="-87" font-family="Helvetica,sans-Serif" font-size="10.00">JobSchedulerDetector</text>
<text text-anchor="middle" x="383" y="-76" font-family="Helvetica,sans-Serif" font-size="10.00">::get_env_var</text>
</a>
</g>
</g>
<!-- Node1&#45;&gt;Node3 -->
<g id="edge2_Node000001_Node000003" class="edge">
<title>Node1&#45;&gt;Node3</title>
<g id="a_edge2_Node000001_Node000003"><a xlink:title=" ">
<path fill="none" stroke="#63b8ff" d="M128.1,-86.2C140.03,-86.53 152.39,-86.82 164,-87 218.22,-87.82 231.78,-87.85 286,-87 294.33,-86.87 303.06,-86.68 311.73,-86.45"/>
<polygon fill="#63b8ff" stroke="#63b8ff" points="311.94,-89.94 321.83,-86.17 311.74,-82.95 311.94,-89.94"/>
</a>
</g>
</g>
<!-- Node4 -->
<g id="Node000004" class="node">
<title>Node4</title>
<g id="a_Node000004"><a xlink:href="group__DetectionMethods.html#ga34ce79ae6eec92775d73cb4692c52566" target="_top" xlink:title="Extract job ID from scheduler environment.">
<polygon fill="white" stroke="#666666" points="286,-78 164,-78 164,-48 286,-48 286,-78"/>
<text text-anchor="start" x="172" y="-66" font-family="Helvetica,sans-Serif" font-size="10.00">JobSchedulerDetector</text>
<text text-anchor="middle" x="225" y="-55" font-family="Helvetica,sans-Serif" font-size="10.00">::get_job_id</text>
</a>
</g>
</g>
<!-- Node1&#45;&gt;Node4 -->
<g id="edge3_Node000001_Node000004" class="edge">
<title>Node1&#45;&gt;Node4</title>
<g id="a_edge3_Node000001_Node000004"><a xlink:title=" ">
<path fill="none" stroke="#63b8ff" d="M128.3,-75.64C136.61,-74.54 145.17,-73.41 153.59,-72.3"/>
<polygon fill="#63b8ff" stroke="#63b8ff" points="154.31,-75.73 163.77,-70.96 153.39,-68.8 154.31,-75.73"/>
</a>
</g>
</g>
<!-- Node5 -->
<g id="Node000005" class="node">
<title>Node5</title>
<g id="a_Node000005"><a xlink:href="group__PrivateParsers.html#ga9bed72466ae8b04e8fe80827e482bd59" target="_top" xlink:title="Parse PBS/Torque&#45;specific memory format strings.">
<polygon fill="white" stroke="#666666" points="286,-30 164,-30 164,0 286,0 286,-30"/>
<text text-anchor="start" x="172" y="-18" font-family="Helvetica,sans-Serif" font-size="10.00">JobSchedulerDetector</text>
<text text-anchor="middle" x="225" y="-7" font-family="Helvetica,sans-Serif" font-size="10.00">::parse_pbs_memory</text>
</a>
</g>
</g>
<!-- Node1&#45;&gt;Node5 -->
<g id="edge5_Node000001_Node000005" class="edge">
<title>Node1&#45;&gt;Node5</title>
<g id="a_edge5_Node000001_Node000005"><a xlink:title=" ">
<path fill="none" stroke="#63b8ff" d="M97.38,-68.83C116.64,-59.92 141.6,-48.56 164,-39 167.89,-37.34 171.93,-35.65 176,-33.97"/>
<polygon fill="#63b8ff" stroke="#63b8ff" points="177.55,-37.12 185.48,-30.1 174.9,-30.64 177.55,-37.12"/>
</a>
</g>
</g>
<!-- Node4&#45;&gt;Node3 -->
<g id="edge4_Node000004_Node000003" class="edge">
<title>Node4&#45;&gt;Node3</title>
<g id="a_edge4_Node000004_Node000003"><a xlink:title=" ">
<path fill="none" stroke="#63b8ff" d="M286.31,-71.12C294.69,-72.25 303.36,-73.41 311.9,-74.56"/>
<polygon fill="#63b8ff" stroke="#63b8ff" points="311.47,-78.04 321.85,-75.9 312.4,-71.1 311.47,-78.04"/>
</a>
</g>
</g>
</g>
</svg>
</svg>

<style type='text/css'>
<![CDATA[
[data-mouse-over-selected='false'] { opacity: 0.7; }
[data-mouse-over-selected='true']  { opacity: 1.0; }
]]>
</style>
<script type="application/ecmascript"><![CDATA[
document.addEventListener('DOMContentLoaded', (event) => {
  highlightEdges();
  highlightAdjacentNodes();
});
]]></script>
</svg>
