<?xml version="1.0" encoding="UTF-8" standalone="no"?>
<!DOCTYPE svg PUBLIC "-//W3C//DTD SVG 1.1//EN"
 "http://www.w3.org/Graphics/SVG/1.1/DTD/svg11.dtd">
<!-- Generated by graphviz version 2.43.0 (0)
 -->
<!-- Title: safe_stod Pages: 1 -->
<svg width="751pt" height="46pt"
 viewBox="0.00 0.00 751.00 46.00" xmlns="http://www.w3.org/2000/svg" xmlns:xlink="http://www.w3.org/1999/xlink">
<g id="graph0" class="graph" transform="scale(1 1) rotate(0) translate(4 42)">
<title>safe_stod</title>
<!-- Node1 -->
<g id="Node000001" class="node">
<title>Node1</title>
<g id="a_Node000001"><a xlink:title="Safely convert string to double with error handling.">
<polygon fill="#999999" stroke="#666666" points="743,-38 679,-38 679,-19 743,-19 743,-38"/>
<text text-anchor="middle" x="711" y="-26" font-family="Helvetica,sans-Serif" font-size="10.00">safe_stod</text>
</a>
</g>
</g>
<!-- Node2 -->
<g id="Node000002" class="node">
<title>Node2</title>
<g id="a_Node000002"><a xlink:href="group__MemoryMonitorImpl.html#gad17c8399509c1c8b6d29fde9d0bcfac3" target="_top" xlink:title="Extract thermodynamic data from a single Gaussian log file.">
<polygon fill="white" stroke="#666666" points="643,-38 592,-38 592,-19 643,-19 643,-38"/>
<text text-anchor="middle" x="617.5" y="-26" font-family="Helvetica,sans-Serif" font-size="10.00">extract</text>
</a>
</g>
</g>
<!-- Node1&#45;&gt;Node2 -->
<g id="edge1_Node000001_Node000002" class="edge">
<title>Node1&#45;&gt;Node2</title>
<g id="a_edge1_Node000001_Node000002"><a xlink:title=" ">
<path fill="none" stroke="#63b8ff" d="M668.73,-28.5C660.03,-28.5 651.11,-28.5 643.25,-28.5"/>
<polygon fill="#63b8ff" stroke="#63b8ff" points="668.77,-32 678.77,-28.5 668.77,-25 668.77,-32"/>
</a>
</g>
</g>
<!-- Node3 -->
<g id="Node000003" class="node">
<title>Node3</title>
<g id="a_Node000003"><a xlink:href="group__MemoryMonitorImpl.html#ga2f3e6563006e068b95ebf65b9942ccee" target="_top" xlink:title="Process multiple files and output formatted results.">
<polygon fill="white" stroke="#666666" points="556,-38 414,-38 414,-19 556,-19 556,-38"/>
<text text-anchor="middle" x="485" y="-26" font-family="Helvetica,sans-Serif" font-size="10.00">processAndOutputResults</text>
</a>
</g>
</g>
<!-- Node2&#45;&gt;Node3 -->
<g id="edge2_Node000002_Node000003" class="edge">
<title>Node2&#45;&gt;Node3</title>
<g id="a_edge2_Node000002_Node000003"><a xlink:title=" ">
<path fill="none" stroke="#63b8ff" d="M581.93,-28.5C573.91,-28.5 565.09,-28.5 556.15,-28.5"/>
<polygon fill="#63b8ff" stroke="#63b8ff" points="581.95,-32 591.95,-28.5 581.95,-25 581.95,-32"/>
</a>
</g>
</g>
<!-- Node4 -->
<g id="Node000004" class="node">
<title>Node4</title>
<g id="a_Node000004"><a xlink:href="group__ModuleExecutors.html#gaa356f7897fc875da426df1cf3c9c5b99" target="_top" xlink:title=" ">
<polygon fill="white" stroke="#666666" points="378,-38 229,-38 229,-19 378,-19 378,-38"/>
<text text-anchor="middle" x="303.5" y="-26" font-family="Helvetica,sans-Serif" font-size="10.00">execute_extract_command</text>
</a>
</g>
</g>
<!-- Node3&#45;&gt;Node4 -->
<g id="edge3_Node000003_Node000004" class="edge">
<title>Node3&#45;&gt;Node4</title>
<g id="a_edge3_Node000003_Node000004"><a xlink:title=" ">
<path fill="none" stroke="#63b8ff" d="M403.59,-28.5C395.13,-28.5 386.55,-28.5 378.17,-28.5"/>
<polygon fill="#63b8ff" stroke="#63b8ff" points="403.83,-32 413.83,-28.5 403.83,-25 403.83,-32"/>
</a>
</g>
</g>
<!-- Node5 -->
<g id="Node000005" class="node">
<title>Node5</title>
<g id="a_Node000005"><a xlink:href="main_8cpp.html#a0ddf1224851353fc92bfbff6f499fa97" target="_top" xlink:title="Main entry point for the Gaussian Extractor application.">
<polygon fill="white" stroke="#666666" points="41,-38 0,-38 0,-19 41,-19 41,-38"/>
<text text-anchor="middle" x="20.5" y="-26" font-family="Helvetica,sans-Serif" font-size="10.00">main</text>
</a>
</g>
</g>
<!-- Node4&#45;&gt;Node5 -->
<g id="edge4_Node000004_Node000005" class="edge">
<title>Node4&#45;&gt;Node5</title>
<g id="a_edge4_Node000004_Node000005"><a xlink:title=" ">
<path fill="none" stroke="#63b8ff" d="M218.53,-28.5C156.79,-28.5 77.56,-28.5 41.26,-28.5"/>
<polygon fill="#63b8ff" stroke="#63b8ff" points="218.67,-32 228.67,-28.5 218.67,-25 218.67,-32"/>
</a>
</g>
</g>
<!-- Node6 -->
<g id="Node000006" class="node">
<title>Node6</title>
<g id="a_Node000006"><a xlink:href="interactive__mode_8cpp.html#a6b615c34054150d837dc45ed1c17b297" target="_top" xlink:title="Enhanced interactive command loop with TAB completion for Windows.">
<polygon fill="white" stroke="#666666" points="193,-19 77,-19 77,0 193,0 193,-19"/>
<text text-anchor="middle" x="135" y="-7" font-family="Helvetica,sans-Serif" font-size="10.00">run_interactive_loop</text>
</a>
</g>
</g>
<!-- Node4&#45;&gt;Node6 -->
<g id="edge5_Node000004_Node000006" class="edge">
<title>Node4&#45;&gt;Node6</title>
<g id="a_edge5_Node000004_Node000006"><a xlink:title=" ">
<path fill="none" stroke="#63b8ff" d="M218.8,-18.95C210.11,-17.96 201.42,-16.97 193.12,-16.02"/>
<polygon fill="#63b8ff" stroke="#63b8ff" points="218.65,-22.45 228.99,-20.11 219.45,-15.5 218.65,-22.45"/>
</a>
</g>
</g>
<!-- Node6&#45;&gt;Node5 -->
<g id="edge6_Node000006_Node000005" class="edge">
<title>Node6&#45;&gt;Node5</title>
<g id="a_edge6_Node000006_Node000005"><a xlink:title=" ">
<path fill="none" stroke="#63b8ff" d="M67.4,-20.75C57.88,-22.36 48.77,-23.89 41.22,-25.17"/>
<polygon fill="#63b8ff" stroke="#63b8ff" points="68.14,-24.17 77.42,-19.06 66.98,-17.27 68.14,-24.17"/>
</a>
</g>
</g>
</g>
</svg>
