<?xml version="1.0" encoding="UTF-8" standalone="no"?>
<!DOCTYPE svg PUBLIC "-//W3C//DTD SVG 1.1//EN"
 "http://www.w3.org/Graphics/SVG/1.1/DTD/svg11.dtd">
<!-- Generated by graphviz version 2.43.0 (0)
 -->
<!-- Title: JobSchedulerDetector::get_env_var Pages: 1 -->
<svg width="1223pt" height="258pt"
 viewBox="0.00 0.00 1223.00 258.00" xmlns="http://www.w3.org/2000/svg" xmlns:xlink="http://www.w3.org/1999/xlink">
<g id="graph0" class="graph" transform="scale(1 1) rotate(0) translate(4 254)">
<title>JobSchedulerDetector::get_env_var</title>
<!-- Node1 -->
<g id="Node000001" class="node">
<title>Node1</title>
<g id="a_Node000001"><a xlink:title="Get environment variable value with default fallback.">
<polygon fill="#999999" stroke="#666666" points="1215,-132 1093,-132 1093,-102 1215,-102 1215,-132"/>
<text text-anchor="start" x="1101" y="-120" font-family="Helvetica,sans-Serif" font-size="10.00">JobSchedulerDetector</text>
<text text-anchor="middle" x="1154" y="-109" font-family="Helvetica,sans-Serif" font-size="10.00">::get_env_var</text>
</a>
</g>
</g>
<!-- Node2 -->
<g id="Node000002" class="node">
<title>Node2</title>
<g id="a_Node000002"><a xlink:href="group__SchedulerSpecific.html#ga3923336c54e169224a24aa725fa039a4" target="_top" xlink:title="Extract resource information from LSF environment.">
<polygon fill="white" stroke="#666666" points="879.5,-126 756.5,-126 756.5,-96 879.5,-96 879.5,-126"/>
<text text-anchor="start" x="764.5" y="-114" font-family="Helvetica,sans-Serif" font-size="10.00">JobSchedulerDetector</text>
<text text-anchor="middle" x="818" y="-103" font-family="Helvetica,sans-Serif" font-size="10.00">::detect_lsf_resources</text>
</a>
</g>
</g>
<!-- Node1&#45;&gt;Node2 -->
<g id="edge1_Node000001_Node000002" class="edge">
<title>Node1&#45;&gt;Node2</title>
<g id="a_edge1_Node000001_Node000002"><a xlink:title=" ">
<path fill="none" stroke="#63b8ff" d="M1082.73,-119.45C1074.06,-119.68 1065.33,-119.87 1057,-120 995.23,-120.96 979.71,-122.8 918,-120 905.59,-119.44 892.32,-118.48 879.67,-117.39"/>
<polygon fill="#63b8ff" stroke="#63b8ff" points="1082.94,-122.94 1092.83,-119.17 1082.74,-115.95 1082.94,-122.94"/>
</a>
</g>
</g>
<!-- Node10 -->
<g id="Node000010" class="node">
<title>Node10</title>
<g id="a_Node000010"><a xlink:href="group__SchedulerSpecific.html#ga09d406f8202e5cec41ff257c23ef5031" target="_top" xlink:title="Extract resource information from PBS/Torque environment.">
<polygon fill="white" stroke="#666666" points="882,-78 754,-78 754,-48 882,-48 882,-78"/>
<text text-anchor="start" x="762" y="-66" font-family="Helvetica,sans-Serif" font-size="10.00">JobSchedulerDetector</text>
<text text-anchor="middle" x="818" y="-55" font-family="Helvetica,sans-Serif" font-size="10.00">::detect_pbs_resources</text>
</a>
</g>
</g>
<!-- Node1&#45;&gt;Node10 -->
<g id="edge12_Node000001_Node000010" class="edge">
<title>Node1&#45;&gt;Node10</title>
<g id="a_edge12_Node000001_Node000010"><a xlink:title=" ">
<path fill="none" stroke="#63b8ff" d="M1119.09,-97.02C1101.25,-87.58 1078.63,-77.25 1057,-72 998.94,-57.91 930.59,-56.86 882.07,-58.62"/>
<polygon fill="#63b8ff" stroke="#63b8ff" points="1117.5,-100.14 1127.95,-101.84 1120.84,-93.99 1117.5,-100.14"/>
</a>
</g>
</g>
<!-- Node11 -->
<g id="Node000011" class="node">
<title>Node11</title>
<g id="a_Node000011"><a xlink:href="group__SchedulerSpecific.html#ga14bd7d5ddf535138b1fa97ce992356f5" target="_top" xlink:title="Extract resource information from SGE/OGS environment.">
<polygon fill="white" stroke="#666666" points="882,-30 754,-30 754,0 882,0 882,-30"/>
<text text-anchor="start" x="762" y="-18" font-family="Helvetica,sans-Serif" font-size="10.00">JobSchedulerDetector</text>
<text text-anchor="middle" x="818" y="-7" font-family="Helvetica,sans-Serif" font-size="10.00">::detect_sge_resources</text>
</a>
</g>
</g>
<!-- Node1&#45;&gt;Node11 -->
<g id="edge14_Node000001_Node000011" class="edge">
<title>Node1&#45;&gt;Node11</title>
<g id="a_edge14_Node000001_Node000011"><a xlink:title=" ">
<path fill="none" stroke="#63b8ff" d="M1127.25,-95.78C1108.81,-81.71 1082.77,-64.04 1057,-54 1000.24,-31.88 931.12,-22.31 882.02,-18.16"/>
<polygon fill="#63b8ff" stroke="#63b8ff" points="1125.13,-98.56 1135.16,-101.95 1129.43,-93.04 1125.13,-98.56"/>
</a>
</g>
</g>
<!-- Node12 -->
<g id="Node000012" class="node">
<title>Node12</title>
<g id="a_Node000012"><a xlink:href="group__SchedulerSpecific.html#ga488877fafdad543d22522f9b85bfd5ba" target="_top" xlink:title="Extract resource information from SLURM environment.">
<polygon fill="white" stroke="#666666" points="1057,-250 918,-250 918,-220 1057,-220 1057,-250"/>
<text text-anchor="start" x="926" y="-238" font-family="Helvetica,sans-Serif" font-size="10.00">JobSchedulerDetector</text>
<text text-anchor="middle" x="987.5" y="-227" font-family="Helvetica,sans-Serif" font-size="10.00">::detect_slurm_resources</text>
</a>
</g>
</g>
<!-- Node1&#45;&gt;Node12 -->
<g id="edge16_Node000001_Node000012" class="edge">
<title>Node1&#45;&gt;Node12</title>
<g id="a_edge16_Node000001_Node000012"><a xlink:title=" ">
<path fill="none" stroke="#63b8ff" d="M1132.72,-139.82C1114.43,-159.36 1086.02,-187.23 1057,-206 1048.87,-211.26 1039.62,-215.93 1030.61,-219.9"/>
<polygon fill="#63b8ff" stroke="#63b8ff" points="1135.48,-141.99 1139.68,-132.27 1130.33,-137.25 1135.48,-141.99"/>
</a>
</g>
</g>
<!-- Node13 -->
<g id="Node000013" class="node">
<title>Node13</title>
<g id="a_Node000013"><a xlink:href="group__DetectionMethods.html#ga34ce79ae6eec92775d73cb4692c52566" target="_top" xlink:title="Extract job ID from scheduler environment.">
<polygon fill="white" stroke="#666666" points="1048.5,-111 926.5,-111 926.5,-81 1048.5,-81 1048.5,-111"/>
<text text-anchor="start" x="934.5" y="-99" font-family="Helvetica,sans-Serif" font-size="10.00">JobSchedulerDetector</text>
<text text-anchor="middle" x="987.5" y="-88" font-family="Helvetica,sans-Serif" font-size="10.00">::get_job_id</text>
</a>
</g>
</g>
<!-- Node1&#45;&gt;Node13 -->
<g id="edge18_Node000001_Node000013" class="edge">
<title>Node1&#45;&gt;Node13</title>
<g id="a_edge18_Node000001_Node000013"><a xlink:title=" ">
<path fill="none" stroke="#63b8ff" d="M1082.42,-107.99C1071.14,-106.55 1059.55,-105.07 1048.54,-103.66"/>
<polygon fill="#63b8ff" stroke="#63b8ff" points="1082.32,-111.51 1092.68,-109.3 1083.2,-104.56 1082.32,-111.51"/>
</a>
</g>
</g>
<!-- Node14 -->
<g id="Node000014" class="node">
<title>Node14</title>
<g id="a_Node000014"><a xlink:href="group__DetectionMethods.html#ga4a459ab8a1188d54b0e6304d525d1173" target="_top" xlink:title="Identify the type of job scheduler currently active.">
<polygon fill="white" stroke="#666666" points="1048.5,-197 926.5,-197 926.5,-167 1048.5,-167 1048.5,-197"/>
<text text-anchor="start" x="934.5" y="-185" font-family="Helvetica,sans-Serif" font-size="10.00">JobSchedulerDetector</text>
<text text-anchor="middle" x="987.5" y="-174" font-family="Helvetica,sans-Serif" font-size="10.00">::get_scheduler_type</text>
</a>
</g>
</g>
<!-- Node1&#45;&gt;Node14 -->
<g id="edge22_Node000001_Node000014" class="edge">
<title>Node1&#45;&gt;Node14</title>
<g id="a_edge22_Node000001_Node000014"><a xlink:title=" ">
<path fill="none" stroke="#63b8ff" d="M1105.54,-135.75C1080.52,-145.64 1050.23,-157.61 1026.73,-166.89"/>
<polygon fill="#63b8ff" stroke="#63b8ff" points="1106.83,-139.01 1114.85,-132.08 1104.26,-132.5 1106.83,-139.01"/>
</a>
</g>
</g>
<!-- Node3 -->
<g id="Node000003" class="node">
<title>Node3</title>
<g id="a_Node000003"><a xlink:href="group__DetectionMethods.html#ga3e3cf834277c608e8557f70acba55430" target="_top" xlink:title="Detect current job scheduler and extract complete resource information.">
<polygon fill="white" stroke="#666666" points="718,-126 592,-126 592,-96 718,-96 718,-126"/>
<text text-anchor="start" x="600" y="-114" font-family="Helvetica,sans-Serif" font-size="10.00">JobSchedulerDetector</text>
<text text-anchor="middle" x="655" y="-103" font-family="Helvetica,sans-Serif" font-size="10.00">::detect_job_resources</text>
</a>
</g>
</g>
<!-- Node2&#45;&gt;Node3 -->
<g id="edge2_Node000002_Node000003" class="edge">
<title>Node2&#45;&gt;Node3</title>
<g id="a_edge2_Node000002_Node000003"><a xlink:title=" ">
<path fill="none" stroke="#63b8ff" d="M746.08,-111C736.73,-111 727.21,-111 718.02,-111"/>
<polygon fill="#63b8ff" stroke="#63b8ff" points="746.13,-114.5 756.13,-111 746.13,-107.5 746.13,-114.5"/>
</a>
</g>
</g>
<!-- Node4 -->
<g id="Node000004" class="node">
<title>Node4</title>
<g id="a_Node000004"><a xlink:href="group__MemoryMonitorImpl.html#gaba5928690c1d0bacdd79e7a15169d53c" target="_top" xlink:title=" ">
<polygon fill="white" stroke="#666666" points="543,-158.5 427,-158.5 427,-139.5 543,-139.5 543,-158.5"/>
<text text-anchor="middle" x="485" y="-146.5" font-family="Helvetica,sans-Serif" font-size="10.00">getSafeThreadCount</text>
</a>
</g>
</g>
<!-- Node3&#45;&gt;Node4 -->
<g id="edge3_Node000003_Node000004" class="edge">
<title>Node3&#45;&gt;Node4</title>
<g id="a_edge3_Node000003_Node000004"><a xlink:title=" ">
<path fill="none" stroke="#63b8ff" d="M582.1,-127.26C563.72,-131.42 544.54,-135.76 528.2,-139.46"/>
<polygon fill="#63b8ff" stroke="#63b8ff" points="582.94,-130.66 591.92,-125.04 581.39,-123.83 582.94,-130.66"/>
</a>
</g>
</g>
<!-- Node5 -->
<g id="Node000005" class="node">
<title>Node5</title>
<g id="a_Node000005"><a xlink:href="group__CommandExecutors.html#ga2c1ceafe241a0b4e19790bb5d878ed1a" target="_top" xlink:title="Parse command&#45;line arguments and create execution context.">
<polygon fill="white" stroke="#666666" points="368.5,-120.5 238.5,-120.5 238.5,-101.5 368.5,-101.5 368.5,-120.5"/>
<text text-anchor="middle" x="303.5" y="-108.5" font-family="Helvetica,sans-Serif" font-size="10.00">CommandParser::parse</text>
</a>
</g>
</g>
<!-- Node3&#45;&gt;Node5 -->
<g id="edge4_Node000003_Node000005" class="edge">
<title>Node3&#45;&gt;Node5</title>
<g id="a_edge4_Node000003_Node000005"><a xlink:title=" ">
<path fill="none" stroke="#63b8ff" d="M581.7,-111C518.94,-111 428.91,-111 368.66,-111"/>
<polygon fill="#63b8ff" stroke="#63b8ff" points="581.92,-114.5 591.92,-111 581.92,-107.5 581.92,-114.5"/>
</a>
</g>
</g>
<!-- Node8 -->
<g id="Node000008" class="node">
<title>Node8</title>
<g id="a_Node000008"><a xlink:href="group__MemoryMonitorImpl.html#ga2f3e6563006e068b95ebf65b9942ccee" target="_top" xlink:title="Process multiple files and output formatted results.">
<polygon fill="white" stroke="#666666" points="556,-82.5 414,-82.5 414,-63.5 556,-63.5 556,-82.5"/>
<text text-anchor="middle" x="485" y="-70.5" font-family="Helvetica,sans-Serif" font-size="10.00">processAndOutputResults</text>
</a>
</g>
</g>
<!-- Node3&#45;&gt;Node8 -->
<g id="edge8_Node000003_Node000008" class="edge">
<title>Node3&#45;&gt;Node8</title>
<g id="a_edge8_Node000003_Node000008"><a xlink:title=" ">
<path fill="none" stroke="#63b8ff" d="M582.1,-94.74C563.72,-90.58 544.54,-86.24 528.2,-82.54"/>
<polygon fill="#63b8ff" stroke="#63b8ff" points="581.39,-98.17 591.92,-96.96 582.94,-91.34 581.39,-98.17"/>
</a>
</g>
</g>
<!-- Node6 -->
<g id="Node000006" class="node">
<title>Node6</title>
<g id="a_Node000006"><a xlink:href="main_8cpp.html#a0ddf1224851353fc92bfbff6f499fa97" target="_top" xlink:title="Main entry point for the Gaussian Extractor application.">
<polygon fill="white" stroke="#666666" points="41,-101.5 0,-101.5 0,-82.5 41,-82.5 41,-101.5"/>
<text text-anchor="middle" x="20.5" y="-89.5" font-family="Helvetica,sans-Serif" font-size="10.00">main</text>
</a>
</g>
</g>
<!-- Node5&#45;&gt;Node6 -->
<g id="edge5_Node000005_Node000006" class="edge">
<title>Node5&#45;&gt;Node6</title>
<g id="a_edge5_Node000005_Node000006"><a xlink:title=" ">
<path fill="none" stroke="#63b8ff" d="M228.32,-116.39C184.11,-118.19 127.03,-118.02 77,-110 64.8,-108.04 51.62,-103.86 41.17,-100.02"/>
<polygon fill="#63b8ff" stroke="#63b8ff" points="228.57,-119.89 238.41,-115.94 228.26,-112.89 228.57,-119.89"/>
</a>
</g>
</g>
<!-- Node7 -->
<g id="Node000007" class="node">
<title>Node7</title>
<g id="a_Node000007"><a xlink:href="interactive__mode_8cpp.html#a6b615c34054150d837dc45ed1c17b297" target="_top" xlink:title="Enhanced interactive command loop with TAB completion for Windows.">
<polygon fill="white" stroke="#666666" points="193,-101.5 77,-101.5 77,-82.5 193,-82.5 193,-101.5"/>
<text text-anchor="middle" x="135" y="-89.5" font-family="Helvetica,sans-Serif" font-size="10.00">run_interactive_loop</text>
</a>
</g>
</g>
<!-- Node5&#45;&gt;Node7 -->
<g id="edge6_Node000005_Node000007" class="edge">
<title>Node5&#45;&gt;Node7</title>
<g id="a_edge6_Node000005_Node000007"><a xlink:title=" ">
<path fill="none" stroke="#63b8ff" d="M227.94,-102.49C216.26,-101.16 204.35,-99.8 193.14,-98.52"/>
<polygon fill="#63b8ff" stroke="#63b8ff" points="227.79,-106 238.13,-103.65 228.59,-99.04 227.79,-106"/>
</a>
</g>
</g>
<!-- Node7&#45;&gt;Node6 -->
<g id="edge7_Node000007_Node000006" class="edge">
<title>Node7&#45;&gt;Node6</title>
<g id="a_edge7_Node000007_Node000006"><a xlink:title=" ">
<path fill="none" stroke="#63b8ff" d="M66.62,-92C57.37,-92 48.55,-92 41.19,-92"/>
<polygon fill="#63b8ff" stroke="#63b8ff" points="66.76,-95.5 76.76,-92 66.76,-88.5 66.76,-95.5"/>
</a>
</g>
</g>
<!-- Node9 -->
<g id="Node000009" class="node">
<title>Node9</title>
<g id="a_Node000009"><a xlink:href="group__ModuleExecutors.html#gaa356f7897fc875da426df1cf3c9c5b99" target="_top" xlink:title=" ">
<polygon fill="white" stroke="#666666" points="378,-82.5 229,-82.5 229,-63.5 378,-63.5 378,-82.5"/>
<text text-anchor="middle" x="303.5" y="-70.5" font-family="Helvetica,sans-Serif" font-size="10.00">execute_extract_command</text>
</a>
</g>
</g>
<!-- Node8&#45;&gt;Node9 -->
<g id="edge9_Node000008_Node000009" class="edge">
<title>Node8&#45;&gt;Node9</title>
<g id="a_edge9_Node000008_Node000009"><a xlink:title=" ">
<path fill="none" stroke="#63b8ff" d="M403.59,-73C395.13,-73 386.55,-73 378.17,-73"/>
<polygon fill="#63b8ff" stroke="#63b8ff" points="403.83,-76.5 413.83,-73 403.83,-69.5 403.83,-76.5"/>
</a>
</g>
</g>
<!-- Node9&#45;&gt;Node6 -->
<g id="edge10_Node000009_Node000006" class="edge">
<title>Node9&#45;&gt;Node6</title>
<g id="a_edge10_Node000009_Node000006"><a xlink:title=" ">
<path fill="none" stroke="#63b8ff" d="M218.8,-66.48C176.09,-64.8 123.48,-65.26 77,-73 64.74,-75.04 51.56,-79.45 41.13,-83.51"/>
<polygon fill="#63b8ff" stroke="#63b8ff" points="218.73,-69.98 228.88,-66.93 219.04,-62.99 218.73,-69.98"/>
</a>
</g>
</g>
<!-- Node9&#45;&gt;Node7 -->
<g id="edge11_Node000009_Node000007" class="edge">
<title>Node9&#45;&gt;Node7</title>
<g id="a_edge11_Node000009_Node000007"><a xlink:title=" ">
<path fill="none" stroke="#63b8ff" d="M218.8,-82.55C210.11,-83.54 201.42,-84.53 193.12,-85.48"/>
<polygon fill="#63b8ff" stroke="#63b8ff" points="219.45,-86 228.99,-81.39 218.65,-79.05 219.45,-86"/>
</a>
</g>
</g>
<!-- Node10&#45;&gt;Node3 -->
<g id="edge13_Node000010_Node000003" class="edge">
<title>Node10&#45;&gt;Node3</title>
<g id="a_edge13_Node000010_Node000003"><a xlink:title=" ">
<path fill="none" stroke="#63b8ff" d="M756.87,-80.93C740.23,-85.89 722.34,-91.22 706.32,-96"/>
<polygon fill="#63b8ff" stroke="#63b8ff" points="757.92,-84.27 766.5,-78.06 755.92,-77.56 757.92,-84.27"/>
</a>
</g>
</g>
<!-- Node11&#45;&gt;Node3 -->
<g id="edge15_Node000011_Node000003" class="edge">
<title>Node11&#45;&gt;Node3</title>
<g id="a_edge15_Node000011_Node000003"><a xlink:title=" ">
<path fill="none" stroke="#63b8ff" d="M763.57,-34.18C760.29,-35.71 757.07,-37.33 754,-39 723.78,-55.46 692.31,-80.15 673.44,-95.92"/>
<polygon fill="#63b8ff" stroke="#63b8ff" points="765.2,-37.28 772.93,-30.03 762.37,-30.88 765.2,-37.28"/>
</a>
</g>
</g>
<!-- Node12&#45;&gt;Node3 -->
<g id="edge17_Node000012_Node000003" class="edge">
<title>Node12&#45;&gt;Node3</title>
<g id="a_edge17_Node000012_Node000003"><a xlink:title=" ">
<path fill="none" stroke="#63b8ff" d="M907.9,-236.46C861.15,-234.49 801.83,-226.86 754,-204 716.12,-185.89 683.3,-147.64 666.98,-126.27"/>
<polygon fill="#63b8ff" stroke="#63b8ff" points="907.86,-239.96 917.98,-236.81 908.1,-232.97 907.86,-239.96"/>
</a>
</g>
</g>
<!-- Node13&#45;&gt;Node2 -->
<g id="edge19_Node000013_Node000002" class="edge">
<title>Node13&#45;&gt;Node2</title>
<g id="a_edge19_Node000013_Node000002"><a xlink:title=" ">
<path fill="none" stroke="#63b8ff" d="M915.99,-102.31C903.91,-103.4 891.46,-104.51 879.66,-105.57"/>
<polygon fill="#63b8ff" stroke="#63b8ff" points="916.38,-105.79 926.03,-101.42 915.76,-98.82 916.38,-105.79"/>
</a>
</g>
</g>
<!-- Node13&#45;&gt;Node10 -->
<g id="edge20_Node000013_Node000010" class="edge">
<title>Node13&#45;&gt;Node10</title>
<g id="a_edge20_Node000013_Node000010"><a xlink:title=" ">
<path fill="none" stroke="#63b8ff" d="M915.88,-82.09C904.7,-79.88 893.2,-77.62 882.21,-75.45"/>
<polygon fill="#63b8ff" stroke="#63b8ff" points="915.54,-85.59 926.03,-84.09 916.89,-78.72 915.54,-85.59"/>
</a>
</g>
</g>
<!-- Node13&#45;&gt;Node11 -->
<g id="edge21_Node000013_Node000011" class="edge">
<title>Node13&#45;&gt;Node11</title>
<g id="a_edge21_Node000013_Node000011"><a xlink:title=" ">
<path fill="none" stroke="#63b8ff" d="M952.43,-75.89C932.29,-64.39 906.09,-50.1 882,-39 875.3,-35.91 868.09,-32.89 861.01,-30.09"/>
<polygon fill="#63b8ff" stroke="#63b8ff" points="950.82,-79 961.23,-80.96 954.31,-72.94 950.82,-79"/>
</a>
</g>
</g>
<!-- Node14&#45;&gt;Node3 -->
<g id="edge23_Node000014_Node000003" class="edge">
<title>Node14&#45;&gt;Node3</title>
<g id="a_edge23_Node000014_Node000003"><a xlink:title=" ">
<path fill="none" stroke="#63b8ff" d="M916.02,-193.67C868.97,-198.74 806.35,-200.16 754,-183 719.9,-171.82 687.87,-143.74 670.2,-126.13"/>
<polygon fill="#63b8ff" stroke="#63b8ff" points="916.59,-197.13 926.12,-192.5 915.78,-190.18 916.59,-197.13"/>
</a>
</g>
</g>
<!-- Node15 -->
<g id="Node000015" class="node">
<title>Node15</title>
<g id="a_Node000015"><a xlink:href="group__UtilityMethods.html#gaea66f51c8128cd96b1655c6b95c46dc3" target="_top" xlink:title="Check if currently running under a job scheduler.">
<polygon fill="white" stroke="#666666" points="879,-174 757,-174 757,-144 879,-144 879,-174"/>
<text text-anchor="start" x="765" y="-162" font-family="Helvetica,sans-Serif" font-size="10.00">JobSchedulerDetector</text>
<text text-anchor="middle" x="818" y="-151" font-family="Helvetica,sans-Serif" font-size="10.00">::is_running_in_job</text>
</a>
</g>
</g>
<!-- Node14&#45;&gt;Node15 -->
<g id="edge24_Node000014_Node000015" class="edge">
<title>Node14&#45;&gt;Node15</title>
<g id="a_edge24_Node000014_Node000015"><a xlink:title=" ">
<path fill="none" stroke="#63b8ff" d="M915.87,-172.3C903.64,-170.62 891.02,-168.89 879.1,-167.25"/>
<polygon fill="#63b8ff" stroke="#63b8ff" points="915.65,-175.8 926.03,-173.7 916.6,-168.87 915.65,-175.8"/>
</a>
</g>
</g>
</g>
</svg>
