<?xml version="1.0" encoding="UTF-8" standalone="no"?>
<!DOCTYPE svg PUBLIC "-//W3C//DTD SVG 1.1//EN"
 "http://www.w3.org/Graphics/SVG/1.1/DTD/svg11.dtd">
<!-- Generated by graphviz version 2.43.0 (0)
 -->
<!-- Title: CommandParser::create_default_config Pages: 1 -->
<svg width="783pt" height="137pt"
 viewBox="0.00 0.00 783.00 137.44" xmlns="http://www.w3.org/2000/svg" xmlns:xlink="http://www.w3.org/1999/xlink">
<g id="graph0" class="graph" transform="scale(1 1) rotate(0) translate(4 133.44)">
<title>CommandParser::create_default_config</title>
<!-- Node1 -->
<g id="Node000001" class="node">
<title>Node1</title>
<g id="a_Node000001"><a xlink:title="Create a default configuration file.">
<polygon fill="#999999" stroke="#666666" points="134,-86.44 0,-86.44 0,-56.44 134,-56.44 134,-86.44"/>
<text text-anchor="start" x="8" y="-74.44" font-family="Helvetica,sans-Serif" font-size="10.00">CommandParser::create</text>
<text text-anchor="middle" x="67" y="-63.44" font-family="Helvetica,sans-Serif" font-size="10.00">_default_config</text>
</a>
</g>
</g>
<!-- Node2 -->
<g id="Node000002" class="node">
<title>Node2</title>
<g id="a_Node000002"><a xlink:href="group__ConfigLoading.html#ga70d81aba8b72b69f84c682808f04e043" target="_top" xlink:title="Create a default configuration file with all options.">
<polygon fill="white" stroke="#666666" points="297,-86.44 170,-86.44 170,-56.44 297,-56.44 297,-86.44"/>
<text text-anchor="start" x="178" y="-74.44" font-family="Helvetica,sans-Serif" font-size="10.00">ConfigManager::create</text>
<text text-anchor="middle" x="233.5" y="-63.44" font-family="Helvetica,sans-Serif" font-size="10.00">_default_config_file</text>
</a>
</g>
</g>
<!-- Node1&#45;&gt;Node2 -->
<g id="edge1_Node000001_Node000002" class="edge">
<title>Node1&#45;&gt;Node2</title>
<g id="a_edge1_Node000001_Node000002"><a xlink:title=" ">
<path fill="none" stroke="#63b8ff" d="M134.43,-71.44C142.74,-71.44 151.27,-71.44 159.66,-71.44"/>
<polygon fill="#63b8ff" stroke="#63b8ff" points="159.81,-74.94 169.81,-71.44 159.81,-67.94 159.81,-74.94"/>
</a>
</g>
</g>
<!-- Node4 -->
<g id="Node000004" class="node">
<title>Node4</title>
<g id="a_Node000004"><a xlink:href="group__ConfigUtilities.html#gac3e49e311008abed27ce54b805f5f925" target="_top" xlink:title="Get user&#39;s home directory path.">
<polygon fill="white" stroke="#666666" points="458,-129.44 333,-129.44 333,-99.44 458,-99.44 458,-129.44"/>
<text text-anchor="start" x="341" y="-117.44" font-family="Helvetica,sans-Serif" font-size="10.00">ConfigManager::get</text>
<text text-anchor="middle" x="395.5" y="-106.44" font-family="Helvetica,sans-Serif" font-size="10.00">_user_home_directory</text>
</a>
</g>
</g>
<!-- Node1&#45;&gt;Node4 -->
<g id="edge8_Node000001_Node000004" class="edge">
<title>Node1&#45;&gt;Node4</title>
<g id="a_edge8_Node000001_Node000004"><a xlink:title=" ">
<path fill="none" stroke="#63b8ff" d="M125.16,-86.44C139.7,-89.83 155.36,-93.11 170,-95.44 220.71,-103.5 278.45,-108.29 322.67,-111.05"/>
<polygon fill="#63b8ff" stroke="#63b8ff" points="322.55,-114.55 332.75,-111.65 322.97,-107.56 322.55,-114.55"/>
</a>
</g>
</g>
<!-- Node5 -->
<g id="Node000005" class="node">
<title>Node5</title>
<g id="a_Node000005"><a xlink:href="group__ConfigStatus.html#ga7c7cdb2c9c181a160a58bfe1b87284f8" target="_top" xlink:title="Print complete configuration file template.">
<polygon fill="white" stroke="#666666" points="456,-43.44 335,-43.44 335,-13.44 456,-13.44 456,-43.44"/>
<text text-anchor="start" x="343" y="-31.44" font-family="Helvetica,sans-Serif" font-size="10.00">ConfigManager::print</text>
<text text-anchor="middle" x="395.5" y="-20.44" font-family="Helvetica,sans-Serif" font-size="10.00">_config_file_template</text>
</a>
</g>
</g>
<!-- Node1&#45;&gt;Node5 -->
<g id="edge9_Node000001_Node000005" class="edge">
<title>Node1&#45;&gt;Node5</title>
<g id="a_edge9_Node000001_Node000005"><a xlink:title=" ">
<path fill="none" stroke="#63b8ff" d="M125.16,-56.43C139.7,-53.05 155.36,-49.77 170,-47.44 221.43,-39.26 280.08,-34.45 324.54,-31.71"/>
<polygon fill="#63b8ff" stroke="#63b8ff" points="324.88,-35.2 334.66,-31.11 324.46,-28.21 324.88,-35.2"/>
</a>
</g>
</g>
<!-- Node3 -->
<g id="Node000003" class="node">
<title>Node3</title>
<g id="a_Node000003"><a xlink:href="group__ConfigInternals.html#ga5e387d61b1f34873cd3ab047242b2aad" target="_top" xlink:title="Template method for type&#45;safe value conversion.">
<polygon fill="white" stroke="#666666" points="775,-43.44 642,-43.44 642,-13.44 775,-13.44 775,-43.44"/>
<text text-anchor="start" x="650" y="-31.44" font-family="Helvetica,sans-Serif" font-size="10.00">ConfigManager::convert</text>
<text text-anchor="middle" x="708.5" y="-20.44" font-family="Helvetica,sans-Serif" font-size="10.00">_value</text>
</a>
</g>
</g>
<!-- Node2&#45;&gt;Node3 -->
<g id="edge2_Node000002_Node000003" class="edge">
<title>Node2&#45;&gt;Node3</title>
<g id="a_edge2_Node000002_Node000003"><a xlink:title=" ">
<path fill="none" stroke="#63b8ff" d="M297.28,-71.68C371.41,-71.17 498.27,-67.8 606,-52.44 617.76,-50.76 630.17,-48.37 642.11,-45.73"/>
<polygon fill="#63b8ff" stroke="#63b8ff" points="643.03,-49.11 652,-43.47 641.48,-42.29 643.03,-49.11"/>
</a>
</g>
</g>
<!-- Node2&#45;&gt;Node4 -->
<g id="edge3_Node000002_Node000004" class="edge">
<title>Node2&#45;&gt;Node4</title>
<g id="a_edge3_Node000002_Node000004"><a xlink:title=" ">
<path fill="none" stroke="#63b8ff" d="M290.46,-86.48C302.76,-89.78 315.9,-93.31 328.55,-96.71"/>
<polygon fill="#63b8ff" stroke="#63b8ff" points="328.01,-100.19 338.57,-99.41 329.82,-93.43 328.01,-100.19"/>
</a>
</g>
</g>
<!-- Node2&#45;&gt;Node5 -->
<g id="edge4_Node000002_Node000005" class="edge">
<title>Node2&#45;&gt;Node5</title>
<g id="a_edge4_Node000002_Node000005"><a xlink:title=" ">
<path fill="none" stroke="#63b8ff" d="M290.46,-56.4C302.76,-53.09 315.9,-49.56 328.55,-46.16"/>
<polygon fill="#63b8ff" stroke="#63b8ff" points="329.82,-49.44 338.57,-43.47 328.01,-42.68 329.82,-49.44"/>
</a>
</g>
</g>
<!-- Node5&#45;&gt;Node3 -->
<g id="edge5_Node000005_Node000003" class="edge">
<title>Node5&#45;&gt;Node3</title>
<g id="a_edge5_Node000005_Node000003"><a xlink:title=" ">
<path fill="none" stroke="#63b8ff" d="M447.68,-13.38C462.49,-9.7 478.77,-6.28 494,-4.44 543.42,1.55 556.56,1.33 606,-4.44 618.49,-5.89 631.67,-8.33 644.25,-11.1"/>
<polygon fill="#63b8ff" stroke="#63b8ff" points="643.65,-14.55 654.18,-13.38 645.22,-7.73 643.65,-14.55"/>
</a>
</g>
</g>
<!-- Node6 -->
<g id="Node000006" class="node">
<title>Node6</title>
<g id="a_Node000006"><a xlink:href="group__ConfigQueries.html#ga3a9a6a1e548b293dd0672222a18594eb" target="_top" xlink:title="Get all configuration keys belonging to a specific category.">
<polygon fill="white" stroke="#666666" points="606,-43.44 494,-43.44 494,-13.44 606,-13.44 606,-43.44"/>
<text text-anchor="start" x="502" y="-31.44" font-family="Helvetica,sans-Serif" font-size="10.00">ConfigManager::get</text>
<text text-anchor="middle" x="550" y="-20.44" font-family="Helvetica,sans-Serif" font-size="10.00">_keys_by_category</text>
</a>
</g>
</g>
<!-- Node5&#45;&gt;Node6 -->
<g id="edge6_Node000005_Node000006" class="edge">
<title>Node5&#45;&gt;Node6</title>
<g id="a_edge6_Node000005_Node000006"><a xlink:title=" ">
<path fill="none" stroke="#63b8ff" d="M456.33,-28.44C465.31,-28.44 474.6,-28.44 483.68,-28.44"/>
<polygon fill="#63b8ff" stroke="#63b8ff" points="483.81,-31.94 493.81,-28.44 483.81,-24.94 483.81,-31.94"/>
</a>
</g>
</g>
<!-- Node6&#45;&gt;Node3 -->
<g id="edge7_Node000006_Node000003" class="edge">
<title>Node6&#45;&gt;Node3</title>
<g id="a_edge7_Node000006_Node000003"><a xlink:title=" ">
<path fill="none" stroke="#63b8ff" d="M606.18,-28.44C614.46,-28.44 623.13,-28.44 631.75,-28.44"/>
<polygon fill="#63b8ff" stroke="#63b8ff" points="631.83,-31.94 641.83,-28.44 631.83,-24.94 631.83,-31.94"/>
</a>
</g>
</g>
</g>
</svg>
