<?xml version="1.0" encoding="UTF-8" standalone="no"?>
<!DOCTYPE svg PUBLIC "-//W3C//DTD SVG 1.1//EN"
 "http://www.w3.org/Graphics/SVG/1.1/DTD/svg11.dtd">
<!-- Generated by graphviz version 2.43.0 (0)
 -->
<!-- Title: HighLevelEnergyCalculator::file_exists Pages: 1 -->
<!--zoomable 218 -->

<svg id="main" version="1.1" xmlns="http://www.w3.org/2000/svg" xmlns:xlink="http://www.w3.org/1999/xlink" xml:space="preserve" onload="init(evt)">
<style type="text/css"><![CDATA[
.node, .edge {opacity: 0.7;}
.node.selected, .edge.selected {opacity: 1;}
.edge:hover path { stroke: red; }
.edge:hover polygon { stroke: red; fill: red; }
]]></style>

<defs>
  <circle id="rim" cx="0" cy="0" r="7"/>
  <circle id="rim2" cx="0" cy="0" r="3.5"/>
  <g id="zoomPlus">
    <use xlink:href="#rim" fill="#404040"><set attributeName="fill" to="#808080" begin="zoomplus.mouseover" end="zoomplus.mouseout"/></use>
    <path d="M-4,0h8M0,-4v8" fill="none" stroke="white" stroke-width="1.5" pointer-events="none"/>
  </g>
  <g id="zoomMin">
    <use xlink:href="#rim" fill="#404040"><set attributeName="fill" to="#808080" begin="zoomminus.mouseover" end="zoomminus.mouseout"/></use>
    <path d="M-4,0h8" fill="none" stroke="white" stroke-width="1.5" pointer-events="none"/>
  </g>
  <g id="arrowUp" transform="translate(30 24)">
    <use xlink:href="#rim"/>
    <path pointer-events="none" fill="none" stroke="white" stroke-width="1.5" d="M0,-3.0v7 M-2.5,-0.5L0,-3.0L2.5,-0.5"/>
  </g>
  <g id="arrowRight" transform="rotate(90) translate(36 -43)">
    <use xlink:href="#rim"/>
    <path pointer-events="none" fill="none" stroke="white" stroke-width="1.5" d="M0,-3.0v7 M-2.5,-0.5L0,-3.0L2.5,-0.5"/>
  </g>
  <g id="arrowDown" transform="rotate(180) translate(-30 -48)">
    <use xlink:href="#rim"/>
    <path pointer-events="none" fill="none" stroke="white" stroke-width="1.5" d="M0,-3.0v7 M-2.5,-0.5L0,-3.0L2.5,-0.5"/>
  </g>
  <g id="arrowLeft" transform="rotate(270) translate(-36 17)">
    <use xlink:href="#rim"/>
    <path pointer-events="none" fill="none" stroke="white" stroke-width="1.5" d="M0,-3.0v7 M-2.5,-0.5L0,-3.0L2.5,-0.5"/>
  </g>
  <g id="resetDef">
    <use xlink:href="#rim2" fill="#404040"><set attributeName="fill" to="#808080" begin="reset.mouseover" end="reset.mouseout"/></use>
  </g>
</defs>
<script type="application/ecmascript">
var viewWidth = 1342;
var viewHeight = 218;
var sectionId = 'dynsection-0';
</script>
<script type="application/ecmascript" xlink:href="svg.min.js"/>
<svg id="graph" class="graph">
<g id="viewport">
<title>HighLevelEnergyCalculator::file_exists</title>
<!-- Node1 -->
<g id="Node000001" class="node">
<title>Node1</title>
<g id="a_Node000001"><a xlink:title="Check if file exists and is accessible.">
<polygon fill="#999999" stroke="#666666" points="1334,-141.11 1185,-141.11 1185,-111.11 1334,-111.11 1334,-141.11"/>
<text text-anchor="start" x="1193" y="-129.11" font-family="Helvetica,sans-Serif" font-size="10.00">HighLevelEnergyCalculator</text>
<text text-anchor="middle" x="1259.5" y="-118.11" font-family="Helvetica,sans-Serif" font-size="10.00">::file_exists</text>
</a>
</g>
</g>
<!-- Node2 -->
<g id="Node000002" class="node">
<title>Node2</title>
<g id="a_Node000002"><a xlink:href="group__EnergyExtraction.html#gaa64c4afe3577a5e147f0c3837d10a021" target="_top" xlink:title="Extract thermal correction data from low&#45;level calculation.">
<polygon fill="white" stroke="#666666" points="1149,-120.11 970,-120.11 970,-90.11 1149,-90.11 1149,-120.11"/>
<text text-anchor="start" x="978" y="-108.11" font-family="Helvetica,sans-Serif" font-size="10.00">HighLevelEnergyCalculator</text>
<text text-anchor="middle" x="1059.5" y="-97.11" font-family="Helvetica,sans-Serif" font-size="10.00">::extract_low_level_thermal_data</text>
</a>
</g>
</g>
<!-- Node1&#45;&gt;Node2 -->
<g id="edge1_Node000001_Node000002" class="edge">
<title>Node1&#45;&gt;Node2</title>
<g id="a_edge1_Node000001_Node000002"><a xlink:title=" ">
<path fill="none" stroke="#63b8ff" d="M1174.56,-117.21C1166.11,-116.31 1157.51,-115.4 1149.01,-114.5"/>
<polygon fill="#63b8ff" stroke="#63b8ff" points="1174.46,-120.72 1184.77,-118.29 1175.2,-113.76 1174.46,-120.72"/>
</a>
</g>
</g>
<!-- Node14 -->
<g id="Node000014" class="node">
<title>Node14</title>
<g id="a_Node000014"><a xlink:href="group__ParallelProcessing.html#gabec4688b920a6d3fc3c4046ab063c2cc" target="_top" xlink:title="Validate and prepare files for processing.">
<polygon fill="white" stroke="#666666" points="930.5,-198.11 776.5,-198.11 776.5,-168.11 930.5,-168.11 930.5,-198.11"/>
<text text-anchor="start" x="784.5" y="-186.11" font-family="Helvetica,sans-Serif" font-size="10.00">HighLevelEnergyCalculator</text>
<text text-anchor="middle" x="853.5" y="-175.11" font-family="Helvetica,sans-Serif" font-size="10.00">::validate_and_prepare_files</text>
</a>
</g>
</g>
<!-- Node1&#45;&gt;Node14 -->
<g id="edge20_Node000001_Node000014" class="edge">
<title>Node1&#45;&gt;Node14</title>
<g id="a_edge20_Node000001_Node000014"><a xlink:title=" ">
<path fill="none" stroke="#63b8ff" d="M1174.94,-137.9C1103.1,-148.04 1000.34,-162.53 930.71,-172.36"/>
<polygon fill="#63b8ff" stroke="#63b8ff" points="1175.46,-141.36 1184.87,-136.5 1174.48,-134.43 1175.46,-141.36"/>
</a>
</g>
</g>
<!-- Node3 -->
<g id="Node000003" class="node">
<title>Node3</title>
<g id="a_Node000003"><a xlink:href="group__MainCalculation.html#gacaba75cc61d8b3ec08efd5976ce4325f" target="_top" xlink:title="Calculate high&#45;level energy for a single file.">
<polygon fill="white" stroke="#666666" points="934,-118.11 773,-118.11 773,-88.11 934,-88.11 934,-118.11"/>
<text text-anchor="start" x="781" y="-106.11" font-family="Helvetica,sans-Serif" font-size="10.00">HighLevelEnergyCalculator</text>
<text text-anchor="middle" x="853.5" y="-95.11" font-family="Helvetica,sans-Serif" font-size="10.00">::calculate_high_level_energy</text>
</a>
</g>
</g>
<!-- Node2&#45;&gt;Node3 -->
<g id="edge2_Node000002_Node000003" class="edge">
<title>Node2&#45;&gt;Node3</title>
<g id="a_edge2_Node000002_Node000003"><a xlink:title=" ">
<path fill="none" stroke="#63b8ff" d="M959.8,-104.14C951.16,-104.06 942.48,-103.97 934.03,-103.89"/>
<polygon fill="#63b8ff" stroke="#63b8ff" points="959.88,-107.64 969.91,-104.24 959.95,-100.65 959.88,-107.64"/>
</a>
</g>
</g>
<!-- Node4 -->
<g id="Node000004" class="node">
<title>Node4</title>
<g id="a_Node000004"><a xlink:href="group__MainCalculation.html#ga69523c18f35fc5a0d58d64495c230cea" target="_top" xlink:title="Process entire directory of high&#45;level calculations.">
<polygon fill="white" stroke="#666666" points="525,-46.11 376,-46.11 376,-16.11 525,-16.11 525,-46.11"/>
<text text-anchor="start" x="384" y="-34.11" font-family="Helvetica,sans-Serif" font-size="10.00">HighLevelEnergyCalculator</text>
<text text-anchor="middle" x="450.5" y="-23.11" font-family="Helvetica,sans-Serif" font-size="10.00">::process_directory</text>
</a>
</g>
</g>
<!-- Node3&#45;&gt;Node4 -->
<g id="edge3_Node000003_Node000004" class="edge">
<title>Node3&#45;&gt;Node4</title>
<g id="a_edge3_Node000003_Node000004"><a xlink:title=" ">
<path fill="none" stroke="#63b8ff" d="M831.85,-80.48C810.52,-58.94 775.08,-27.96 737,-15.11 660.33,10.77 565.55,-2.8 506.8,-16.06"/>
<polygon fill="#63b8ff" stroke="#63b8ff" points="829.58,-83.17 839.04,-87.93 834.62,-78.31 829.58,-83.17"/>
</a>
</g>
</g>
<!-- Node9 -->
<g id="Node000009" class="node">
<title>Node9</title>
<g id="a_Node000009"><a xlink:href="group__MainCalculation.html#gab8dc66d665a45b29b6b0d1c1cc4e2208" target="_top" xlink:title="Process files with custom resource limits.">
<polygon fill="white" stroke="#666666" points="525,-94.11 376,-94.11 376,-64.11 525,-64.11 525,-94.11"/>
<text text-anchor="start" x="384" y="-82.11" font-family="Helvetica,sans-Serif" font-size="10.00">HighLevelEnergyCalculator</text>
<text text-anchor="middle" x="450.5" y="-71.11" font-family="Helvetica,sans-Serif" font-size="10.00">::process_files_with_limits</text>
</a>
</g>
</g>
<!-- Node3&#45;&gt;Node9 -->
<g id="edge11_Node000003_Node000009" class="edge">
<title>Node3&#45;&gt;Node9</title>
<g id="a_edge11_Node000003_Node000009"><a xlink:title=" ">
<path fill="none" stroke="#63b8ff" d="M762.45,-97.72C690.94,-93.44 592.19,-87.53 525.31,-83.53"/>
<polygon fill="#63b8ff" stroke="#63b8ff" points="762.6,-101.24 772.8,-98.34 763.02,-94.25 762.6,-101.24"/>
</a>
</g>
</g>
<!-- Node10 -->
<g id="Node000010" class="node">
<title>Node10</title>
<g id="a_Node000010"><a xlink:href="group__ParallelProcessing.html#ga30ddb3084923fb944336f5c6cf7f43e8" target="_top" xlink:title="Enhanced parallel processing using thread pool.">
<polygon fill="white" stroke="#666666" points="737,-140.11 562,-140.11 562,-110.11 737,-110.11 737,-140.11"/>
<text text-anchor="start" x="570" y="-128.11" font-family="Helvetica,sans-Serif" font-size="10.00">HighLevelEnergyCalculator</text>
<text text-anchor="middle" x="649.5" y="-117.11" font-family="Helvetica,sans-Serif" font-size="10.00">::process_files_with_thread_pool</text>
</a>
</g>
</g>
<!-- Node3&#45;&gt;Node10 -->
<g id="edge12_Node000003_Node000010" class="edge">
<title>Node3&#45;&gt;Node10</title>
<g id="a_edge12_Node000003_Node000010"><a xlink:title=" ">
<path fill="none" stroke="#63b8ff" d="M763,-112.86C754.46,-113.79 745.82,-114.73 737.31,-115.66"/>
<polygon fill="#63b8ff" stroke="#63b8ff" points="763.39,-116.34 772.95,-111.78 762.63,-109.38 763.39,-116.34"/>
</a>
</g>
</g>
<!-- Node12 -->
<g id="Node000012" class="node">
<title>Node12</title>
<g id="a_Node000012"><a xlink:href="group__ParallelProcessing.html#ga2e962d5fa18800edaf087ac6b7f6caf0" target="_top" xlink:title="Worker function for parallel file processing.">
<polygon fill="white" stroke="#666666" points="724,-54.11 575,-54.11 575,-24.11 724,-24.11 724,-54.11"/>
<text text-anchor="start" x="583" y="-42.11" font-family="Helvetica,sans-Serif" font-size="10.00">HighLevelEnergyCalculator</text>
<text text-anchor="middle" x="649.5" y="-31.11" font-family="Helvetica,sans-Serif" font-size="10.00">::process_files_worker</text>
</a>
</g>
</g>
<!-- Node3&#45;&gt;Node12 -->
<g id="edge17_Node000003_Node000012" class="edge">
<title>Node3&#45;&gt;Node12</title>
<g id="a_edge17_Node000003_Node000012"><a xlink:title=" ">
<path fill="none" stroke="#63b8ff" d="M795.4,-85.02C764.61,-75.27 727.07,-63.37 697.91,-54.13"/>
<polygon fill="#63b8ff" stroke="#63b8ff" points="794.55,-88.42 805.14,-88.11 796.66,-81.75 794.55,-88.42"/>
</a>
</g>
</g>
<!-- Node13 -->
<g id="Node000013" class="node">
<title>Node13</title>
<g id="a_Node000013"><a xlink:href="group__ParallelProcessing.html#gac2f3665873e2399cfcf6dcc6557291d6" target="_top" xlink:title="Process single file with enhanced error handling.">
<polygon fill="white" stroke="#666666" points="733,-188.11 566,-188.11 566,-158.11 733,-158.11 733,-188.11"/>
<text text-anchor="start" x="574" y="-176.11" font-family="Helvetica,sans-Serif" font-size="10.00">HighLevelEnergyCalculator</text>
<text text-anchor="middle" x="649.5" y="-165.11" font-family="Helvetica,sans-Serif" font-size="10.00">::process_single_file_enhanced</text>
</a>
</g>
</g>
<!-- Node3&#45;&gt;Node13 -->
<g id="edge19_Node000003_Node000013" class="edge">
<title>Node3&#45;&gt;Node13</title>
<g id="a_edge19_Node000003_Node000013"><a xlink:title=" ">
<path fill="none" stroke="#63b8ff" d="M808.05,-122.12C786.76,-130.89 760.77,-141.11 737,-149.11 727.7,-152.25 717.73,-155.29 708,-158.1"/>
<polygon fill="#63b8ff" stroke="#63b8ff" points="809.59,-125.27 817.48,-118.21 806.91,-118.81 809.59,-125.27"/>
</a>
</g>
</g>
<!-- Node5 -->
<g id="Node000005" class="node">
<title>Node5</title>
<g id="a_Node000005"><a xlink:href="group__ModuleExecutors.html#gab1aa2594a8bb3d2789d37593f69cbc5e" target="_top" xlink:title=" ">
<polygon fill="white" stroke="#666666" points="339,-125.11 229,-125.11 229,-95.11 339,-95.11 339,-125.11"/>
<text text-anchor="start" x="237" y="-113.11" font-family="Helvetica,sans-Serif" font-size="10.00">execute_high_level</text>
<text text-anchor="middle" x="284" y="-102.11" font-family="Helvetica,sans-Serif" font-size="10.00">_au_command</text>
</a>
</g>
</g>
<!-- Node4&#45;&gt;Node5 -->
<g id="edge4_Node000004_Node000005" class="edge">
<title>Node4&#45;&gt;Node5</title>
<g id="a_edge4_Node000004_Node000005"><a xlink:title=" ">
<path fill="none" stroke="#63b8ff" d="M386.78,-49.91C382.74,-51.55 378.79,-53.28 375,-55.11 357.68,-63.47 355.35,-68.99 339,-79.11 330.36,-84.46 320.79,-90.06 312.13,-95.01"/>
<polygon fill="#63b8ff" stroke="#63b8ff" points="388.21,-53.11 396.29,-46.25 385.7,-46.57 388.21,-53.11"/>
</a>
</g>
</g>
<!-- Node8 -->
<g id="Node000008" class="node">
<title>Node8</title>
<g id="a_Node000008"><a xlink:href="group__ModuleExecutors.html#gaefd8d559f7f798aaf8cb5f6feb9dce47" target="_top" xlink:title=" ">
<polygon fill="white" stroke="#666666" points="339,-70.11 229,-70.11 229,-40.11 339,-40.11 339,-70.11"/>
<text text-anchor="start" x="237" y="-58.11" font-family="Helvetica,sans-Serif" font-size="10.00">execute_high_level</text>
<text text-anchor="middle" x="284" y="-47.11" font-family="Helvetica,sans-Serif" font-size="10.00">_kj_command</text>
</a>
</g>
</g>
<!-- Node4&#45;&gt;Node8 -->
<g id="edge8_Node000004_Node000008" class="edge">
<title>Node4&#45;&gt;Node8</title>
<g id="a_edge8_Node000004_Node000008"><a xlink:title=" ">
<path fill="none" stroke="#63b8ff" d="M365.77,-43.33C356.78,-44.64 347.81,-45.95 339.29,-47.19"/>
<polygon fill="#63b8ff" stroke="#63b8ff" points="366.52,-46.76 375.91,-41.85 365.51,-39.83 366.52,-46.76"/>
</a>
</g>
</g>
<!-- Node6 -->
<g id="Node000006" class="node">
<title>Node6</title>
<g id="a_Node000006"><a xlink:href="main_8cpp.html#a0ddf1224851353fc92bfbff6f499fa97" target="_top" xlink:title="Main entry point for the Gaussian Extractor application.">
<polygon fill="white" stroke="#666666" points="41,-88.61 0,-88.61 0,-69.61 41,-69.61 41,-88.61"/>
<text text-anchor="middle" x="20.5" y="-76.61" font-family="Helvetica,sans-Serif" font-size="10.00">main</text>
</a>
</g>
</g>
<!-- Node5&#45;&gt;Node6 -->
<g id="edge5_Node000005_Node000006" class="edge">
<title>Node5&#45;&gt;Node6</title>
<g id="a_edge5_Node000005_Node000006"><a xlink:title=" ">
<path fill="none" stroke="#63b8ff" d="M218.65,-110.18C177.76,-109.2 123.89,-106.05 77,-97.11 64.86,-94.8 51.69,-90.6 41.22,-86.84"/>
<polygon fill="#63b8ff" stroke="#63b8ff" points="218.69,-113.68 228.75,-110.38 218.83,-106.68 218.69,-113.68"/>
</a>
</g>
</g>
<!-- Node7 -->
<g id="Node000007" class="node">
<title>Node7</title>
<g id="a_Node000007"><a xlink:href="interactive__mode_8cpp.html#a6b615c34054150d837dc45ed1c17b297" target="_top" xlink:title="Enhanced interactive command loop with TAB completion for Windows.">
<polygon fill="white" stroke="#666666" points="193,-88.61 77,-88.61 77,-69.61 193,-69.61 193,-88.61"/>
<text text-anchor="middle" x="135" y="-76.61" font-family="Helvetica,sans-Serif" font-size="10.00">run_interactive_loop</text>
</a>
</g>
</g>
<!-- Node5&#45;&gt;Node7 -->
<g id="edge6_Node000005_Node000007" class="edge">
<title>Node5&#45;&gt;Node7</title>
<g id="a_edge6_Node000005_Node000007"><a xlink:title=" ">
<path fill="none" stroke="#63b8ff" d="M218.71,-96.55C206.15,-93.9 193.22,-91.18 181.43,-88.69"/>
<polygon fill="#63b8ff" stroke="#63b8ff" points="218.17,-100.02 228.68,-98.66 219.62,-93.17 218.17,-100.02"/>
</a>
</g>
</g>
<!-- Node7&#45;&gt;Node6 -->
<g id="edge7_Node000007_Node000006" class="edge">
<title>Node7&#45;&gt;Node6</title>
<g id="a_edge7_Node000007_Node000006"><a xlink:title=" ">
<path fill="none" stroke="#63b8ff" d="M66.62,-79.11C57.37,-79.11 48.55,-79.11 41.19,-79.11"/>
<polygon fill="#63b8ff" stroke="#63b8ff" points="66.76,-82.61 76.76,-79.11 66.76,-75.61 66.76,-82.61"/>
</a>
</g>
</g>
<!-- Node8&#45;&gt;Node6 -->
<g id="edge9_Node000008_Node000006" class="edge">
<title>Node8&#45;&gt;Node6</title>
<g id="a_edge9_Node000008_Node000006"><a xlink:title=" ">
<path fill="none" stroke="#63b8ff" d="M218.66,-51.67C177.78,-50.71 123.91,-51.72 77,-60.11 64.77,-62.3 51.59,-66.72 41.15,-70.74"/>
<polygon fill="#63b8ff" stroke="#63b8ff" points="218.67,-55.17 228.77,-51.95 218.87,-48.17 218.67,-55.17"/>
</a>
</g>
</g>
<!-- Node8&#45;&gt;Node7 -->
<g id="edge10_Node000008_Node000007" class="edge">
<title>Node8&#45;&gt;Node7</title>
<g id="a_edge10_Node000008_Node000007"><a xlink:title=" ">
<path fill="none" stroke="#63b8ff" d="M218.75,-65.6C210.19,-67 201.47,-68.42 193.05,-69.8"/>
<polygon fill="#63b8ff" stroke="#63b8ff" points="219.37,-69.05 228.68,-63.98 218.25,-62.14 219.37,-69.05"/>
</a>
</g>
</g>
<!-- Node10&#45;&gt;Node9 -->
<g id="edge16_Node000010_Node000009" class="edge">
<title>Node10&#45;&gt;Node9</title>
<g id="a_edge16_Node000010_Node000009"><a xlink:title=" ">
<path fill="none" stroke="#63b8ff" d="M574.1,-107.74C554.92,-103.26 534.43,-98.48 515.81,-94.13"/>
<polygon fill="#63b8ff" stroke="#63b8ff" points="573.46,-111.18 583.99,-110.05 575.05,-104.37 573.46,-111.18"/>
</a>
</g>
</g>
<!-- Node11 -->
<g id="Node000011" class="node">
<title>Node11</title>
<g id="a_Node000011"><a xlink:href="group__MainCalculation.html#gac76ff006f7aae2e96c804a8ca786d692" target="_top" xlink:title="Process entire directory with parallel processing.">
<polygon fill="white" stroke="#666666" points="526,-142.11 375,-142.11 375,-112.11 526,-112.11 526,-142.11"/>
<text text-anchor="start" x="383" y="-130.11" font-family="Helvetica,sans-Serif" font-size="10.00">HighLevelEnergyCalculator</text>
<text text-anchor="middle" x="450.5" y="-119.11" font-family="Helvetica,sans-Serif" font-size="10.00">::process_directory_parallel</text>
</a>
</g>
</g>
<!-- Node10&#45;&gt;Node11 -->
<g id="edge13_Node000010_Node000011" class="edge">
<title>Node10&#45;&gt;Node11</title>
<g id="a_edge13_Node000010_Node000011"><a xlink:title=" ">
<path fill="none" stroke="#63b8ff" d="M551.75,-126.09C543.16,-126.18 534.56,-126.27 526.2,-126.35"/>
<polygon fill="#63b8ff" stroke="#63b8ff" points="551.84,-129.59 561.81,-125.99 551.77,-122.59 551.84,-129.59"/>
</a>
</g>
</g>
<!-- Node11&#45;&gt;Node5 -->
<g id="edge14_Node000011_Node000005" class="edge">
<title>Node11&#45;&gt;Node5</title>
<g id="a_edge14_Node000011_Node000005"><a xlink:title=" ">
<path fill="none" stroke="#63b8ff" d="M364.74,-118.35C356.03,-117.45 347.36,-116.56 339.12,-115.7"/>
<polygon fill="#63b8ff" stroke="#63b8ff" points="364.64,-121.86 374.95,-119.41 365.36,-114.9 364.64,-121.86"/>
</a>
</g>
</g>
<!-- Node11&#45;&gt;Node8 -->
<g id="edge15_Node000011_Node000008" class="edge">
<title>Node11&#45;&gt;Node8</title>
<g id="a_edge15_Node000011_Node000008"><a xlink:title=" ">
<path fill="none" stroke="#63b8ff" d="M388.84,-108.58C384.12,-106.83 379.46,-105 375,-103.11 352.5,-93.58 328.1,-80.37 310.4,-70.23"/>
<polygon fill="#63b8ff" stroke="#63b8ff" points="387.97,-111.98 398.56,-112.04 390.32,-105.39 387.97,-111.98"/>
</a>
</g>
</g>
<!-- Node12&#45;&gt;Node9 -->
<g id="edge18_Node000012_Node000009" class="edge">
<title>Node12&#45;&gt;Node9</title>
<g id="a_edge18_Node000012_Node000009"><a xlink:title=" ">
<path fill="none" stroke="#63b8ff" d="M564.84,-56.1C551.61,-58.78 538.02,-61.54 525.05,-64.18"/>
<polygon fill="#63b8ff" stroke="#63b8ff" points="565.76,-59.48 574.86,-54.06 564.37,-52.62 565.76,-59.48"/>
</a>
</g>
</g>
<!-- Node14&#45;&gt;Node11 -->
<g id="edge21_Node000014_Node000011" class="edge">
<title>Node14&#45;&gt;Node11</title>
<g id="a_edge21_Node000014_Node000011"><a xlink:title=" ">
<path fill="none" stroke="#63b8ff" d="M777.25,-199.96C717.66,-210.18 632.94,-217.69 562,-197.11 525.14,-186.42 488.79,-159.34 468.34,-142.17"/>
<polygon fill="#63b8ff" stroke="#63b8ff" points="778.1,-203.36 787.34,-198.17 776.88,-196.47 778.1,-203.36"/>
</a>
</g>
</g>
</g>
</svg>

<g id="navigator" transform="translate(0 0)" fill="#404254">
  <rect fill="#f2f5e9" fill-opacity="0.5" stroke="#606060" stroke-width=".5" x="0" y="0" width="60" height="60"/>
  <use id="zoomplus" xlink:href="#zoomPlus" x="17" y="9" onmousedown="handleZoom(evt,'in')"/>
  <use id="zoomminus" xlink:href="#zoomMin" x="42" y="9" onmousedown="handleZoom(evt,'out')"/>
  <use id="reset" xlink:href="#resetDef" x="30" y="36" onmousedown="handleReset()"/>
   <use id="arrowup" xlink:href="#arrowUp" x="0" y="0" onmousedown="handlePan(0,-1)"/>
  <use id="arrowright" xlink:href="#arrowRight" x="0" y="0" onmousedown="handlePan(1,0)"/>
  <use id="arrowdown" xlink:href="#arrowDown" x="0" y="0" onmousedown="handlePan(0,1)"/>
  <use id="arrowleft" xlink:href="#arrowLeft" x="0" y="0" onmousedown="handlePan(-1,0)"/>
</g>
<svg viewBox="0 0 15 15" width="100%" height="30px" preserveAspectRatio="xMaxYMin meet">
 <g id="arrow_out" transform="scale(0.3 0.3)">
  <a xlink:href="group__FileUtilities_gaa54ff385e8b08bff4fc34ec915a3ff8d_icgraph_org.svg" target="_base">
   <rect id="button" ry="5" rx="5" y="6" x="6" height="38" width="38"
        fill="#f2f5e9" fill-opacity="0.5" stroke="#606060" stroke-width="1.0"/>
   <path id="arrow"
     d="M 11.500037,31.436501 C 11.940474,20.09759 22.043105,11.32322 32.158766,21.979434 L 37.068811,17.246167 C 37.068811,17.246167 37.088388,32 37.088388,32 L 22.160133,31.978069 C 22.160133,31.978069 26.997745,27.140456 26.997745,27.140456 C 18.528582,18.264221 13.291696,25.230495 11.500037,31.436501 z"
     style="fill:#404040;"/>
  </a>
 </g>
</svg>

<style type='text/css'>
<![CDATA[
[data-mouse-over-selected='false'] { opacity: 0.7; }
[data-mouse-over-selected='true']  { opacity: 1.0; }
]]>
</style>
<script type="application/ecmascript"><![CDATA[
document.addEventListener('DOMContentLoaded', (event) => {
  highlightEdges();
  highlightAdjacentNodes();
});
]]></script>
</svg>
