<?xml version="1.0" encoding="UTF-8" standalone="no"?>
<!DOCTYPE svg PUBLIC "-//W3C//DTD SVG 1.1//EN"
 "http://www.w3.org/Graphics/SVG/1.1/DTD/svg11.dtd">
<!-- Generated by graphviz version 2.43.0 (0)
 -->
<!-- Title: JobChecker::check_error_directly Pages: 1 -->
<!--zoomable 244 -->

<svg id="main" version="1.1" xmlns="http://www.w3.org/2000/svg" xmlns:xlink="http://www.w3.org/1999/xlink" xml:space="preserve" onload="init(evt)">
<style type="text/css"><![CDATA[
.node, .edge {opacity: 0.7;}
.node.selected, .edge.selected {opacity: 1;}
.edge:hover path { stroke: red; }
.edge:hover polygon { stroke: red; fill: red; }
]]></style>

<defs>
  <circle id="rim" cx="0" cy="0" r="7"/>
  <circle id="rim2" cx="0" cy="0" r="3.5"/>
  <g id="zoomPlus">
    <use xlink:href="#rim" fill="#404040"><set attributeName="fill" to="#808080" begin="zoomplus.mouseover" end="zoomplus.mouseout"/></use>
    <path d="M-4,0h8M0,-4v8" fill="none" stroke="white" stroke-width="1.5" pointer-events="none"/>
  </g>
  <g id="zoomMin">
    <use xlink:href="#rim" fill="#404040"><set attributeName="fill" to="#808080" begin="zoomminus.mouseover" end="zoomminus.mouseout"/></use>
    <path d="M-4,0h8" fill="none" stroke="white" stroke-width="1.5" pointer-events="none"/>
  </g>
  <g id="arrowUp" transform="translate(30 24)">
    <use xlink:href="#rim"/>
    <path pointer-events="none" fill="none" stroke="white" stroke-width="1.5" d="M0,-3.0v7 M-2.5,-0.5L0,-3.0L2.5,-0.5"/>
  </g>
  <g id="arrowRight" transform="rotate(90) translate(36 -43)">
    <use xlink:href="#rim"/>
    <path pointer-events="none" fill="none" stroke="white" stroke-width="1.5" d="M0,-3.0v7 M-2.5,-0.5L0,-3.0L2.5,-0.5"/>
  </g>
  <g id="arrowDown" transform="rotate(180) translate(-30 -48)">
    <use xlink:href="#rim"/>
    <path pointer-events="none" fill="none" stroke="white" stroke-width="1.5" d="M0,-3.0v7 M-2.5,-0.5L0,-3.0L2.5,-0.5"/>
  </g>
  <g id="arrowLeft" transform="rotate(270) translate(-36 17)">
    <use xlink:href="#rim"/>
    <path pointer-events="none" fill="none" stroke="white" stroke-width="1.5" d="M0,-3.0v7 M-2.5,-0.5L0,-3.0L2.5,-0.5"/>
  </g>
  <g id="resetDef">
    <use xlink:href="#rim2" fill="#404040"><set attributeName="fill" to="#808080" begin="reset.mouseover" end="reset.mouseout"/></use>
  </g>
</defs>
<script type="application/ecmascript">
var viewWidth = 794;
var viewHeight = 244;
var sectionId = 'dynsection-0';
</script>
<script type="application/ecmascript" xlink:href="svg.min.js"/>
<svg id="graph" class="graph">
<g id="viewport">
<title>JobChecker::check_error_directly</title>
<!-- Node1 -->
<g id="Node000001" class="node">
<title>Node1</title>
<g id="a_Node000001"><a xlink:title="Direct error checking without other status considerations.">
<polygon fill="#999999" stroke="#666666" points="134,-163.5 0,-163.5 0,-133.5 134,-133.5 134,-163.5"/>
<text text-anchor="start" x="8" y="-151.5" font-family="Helvetica,sans-Serif" font-size="10.00">JobChecker::check_error</text>
<text text-anchor="middle" x="67" y="-140.5" font-family="Helvetica,sans-Serif" font-size="10.00">_directly</text>
</a>
</g>
</g>
<!-- Node2 -->
<g id="Node000002" class="node">
<title>Node2</title>
<g id="a_Node000002"><a xlink:href="group__ContentAnalysis.html#ga2770af34a67c2b3a25b58b7404589d7f" target="_top" xlink:title="Check if log file shows error termination.">
<polygon fill="white" stroke="#666666" points="309.5,-235.5 175.5,-235.5 175.5,-205.5 309.5,-205.5 309.5,-235.5"/>
<text text-anchor="start" x="183.5" y="-223.5" font-family="Helvetica,sans-Serif" font-size="10.00">JobChecker::check_error</text>
<text text-anchor="middle" x="242.5" y="-212.5" font-family="Helvetica,sans-Serif" font-size="10.00">_termination</text>
</a>
</g>
</g>
<!-- Node1&#45;&gt;Node2 -->
<g id="edge1_Node000001_Node000002" class="edge">
<title>Node1&#45;&gt;Node2</title>
<g id="a_edge1_Node000001_Node000002"><a xlink:title=" ">
<path fill="none" stroke="#63b8ff" d="M97.94,-163.72C118.06,-173.65 145.3,-186.58 170,-196.5 174.66,-198.37 179.54,-200.22 184.45,-202.02"/>
<polygon fill="#63b8ff" stroke="#63b8ff" points="183.32,-205.33 193.91,-205.39 185.67,-198.73 183.32,-205.33"/>
</a>
</g>
</g>
<!-- Node3 -->
<g id="Node000003" class="node">
<title>Node3</title>
<g id="a_Node000003"><a xlink:href="group__ContentAnalysis.html#gafbfb125b9689f3e3a6872dce49b1e78d" target="_top" xlink:title="Check if log file shows normal termination.">
<polygon fill="white" stroke="#666666" points="315,-187.5 170,-187.5 170,-157.5 315,-157.5 315,-187.5"/>
<text text-anchor="start" x="178" y="-175.5" font-family="Helvetica,sans-Serif" font-size="10.00">JobChecker::check_normal</text>
<text text-anchor="middle" x="242.5" y="-164.5" font-family="Helvetica,sans-Serif" font-size="10.00">_termination</text>
</a>
</g>
</g>
<!-- Node1&#45;&gt;Node3 -->
<g id="edge2_Node000001_Node000003" class="edge">
<title>Node1&#45;&gt;Node3</title>
<g id="a_edge2_Node000001_Node000003"><a xlink:title=" ">
<path fill="none" stroke="#63b8ff" d="M134.09,-157.64C142.49,-158.8 151.16,-160 159.76,-161.19"/>
<polygon fill="#63b8ff" stroke="#63b8ff" points="159.43,-164.68 169.81,-162.58 160.39,-157.75 159.43,-164.68"/>
</a>
</g>
</g>
<!-- Node4 -->
<g id="Node000004" class="node">
<title>Node4</title>
<g id="a_Node000004"><a xlink:href="group__FileOperations.html#ga087bdeb612f939d045ab914d35a6b0de" target="_top" xlink:title="Find all files related to a Gaussian calculation.">
<polygon fill="white" stroke="#666666" points="309.5,-139.5 175.5,-139.5 175.5,-109.5 309.5,-109.5 309.5,-139.5"/>
<text text-anchor="start" x="183.5" y="-127.5" font-family="Helvetica,sans-Serif" font-size="10.00">JobChecker::find_related</text>
<text text-anchor="middle" x="242.5" y="-116.5" font-family="Helvetica,sans-Serif" font-size="10.00">_files</text>
</a>
</g>
</g>
<!-- Node1&#45;&gt;Node4 -->
<g id="edge3_Node000001_Node000004" class="edge">
<title>Node1&#45;&gt;Node4</title>
<g id="a_edge3_Node000001_Node000004"><a xlink:title=" ">
<path fill="none" stroke="#63b8ff" d="M134.09,-139.36C144.32,-137.94 154.96,-136.47 165.39,-135.03"/>
<polygon fill="#63b8ff" stroke="#63b8ff" points="165.88,-138.49 175.31,-133.66 164.92,-131.56 165.88,-138.49"/>
</a>
</g>
</g>
<!-- Node12 -->
<g id="Node000012" class="node">
<title>Node12</title>
<g id="a_Node000012"><a xlink:href="group__FileReading.html#ga4698c518536430228f3ef47f9c89b552" target="_top" xlink:title=" ">
<polygon fill="white" stroke="#666666" points="302,-91.5 183,-91.5 183,-61.5 302,-61.5 302,-91.5"/>
<text text-anchor="start" x="191" y="-79.5" font-family="Helvetica,sans-Serif" font-size="10.00">JobChecker::read_file</text>
<text text-anchor="middle" x="242.5" y="-68.5" font-family="Helvetica,sans-Serif" font-size="10.00">_unified</text>
</a>
</g>
</g>
<!-- Node1&#45;&gt;Node12 -->
<g id="edge12_Node000001_Node000012" class="edge">
<title>Node1&#45;&gt;Node12</title>
<g id="a_edge12_Node000001_Node000012"><a xlink:title=" ">
<path fill="none" stroke="#63b8ff" d="M97.94,-133.28C118.06,-123.35 145.3,-110.42 170,-100.5 174.66,-98.63 179.54,-96.78 184.45,-94.98"/>
<polygon fill="#63b8ff" stroke="#63b8ff" points="185.67,-98.27 193.91,-91.61 183.32,-91.67 185.67,-98.27"/>
</a>
</g>
</g>
<!-- Node5 -->
<g id="Node000005" class="node">
<title>Node5</title>
<g id="a_Node000005"><a xlink:href="group__UtilityFunctions.html#ga5aea3864b0d315c8680f9611a9f8f689" target="_top" xlink:title="Extract base filename without extension from log file path.">
<polygon fill="white" stroke="#666666" points="463.5,-187.5 352.5,-187.5 352.5,-157.5 463.5,-157.5 463.5,-187.5"/>
<text text-anchor="start" x="360.5" y="-175.5" font-family="Helvetica,sans-Serif" font-size="10.00">JobChecker::extract</text>
<text text-anchor="middle" x="408" y="-164.5" font-family="Helvetica,sans-Serif" font-size="10.00">_base_name</text>
</a>
</g>
</g>
<!-- Node4&#45;&gt;Node5 -->
<g id="edge4_Node000004_Node000005" class="edge">
<title>Node4&#45;&gt;Node5</title>
<g id="a_edge4_Node000004_Node000005"><a xlink:title=" ">
<path fill="none" stroke="#63b8ff" d="M294.78,-139.56C311.07,-144.34 329.23,-149.67 346.12,-154.63"/>
<polygon fill="#63b8ff" stroke="#63b8ff" points="345.32,-158.04 355.9,-157.5 347.29,-151.32 345.32,-158.04"/>
</a>
</g>
</g>
<!-- Node6 -->
<g id="Node000006" class="node">
<title>Node6</title>
<g id="a_Node000006"><a xlink:href="group__JobFileUtils.html#ga93b2603d1ed51dcb6ad00bb6c48a434b" target="_top" xlink:title="Check if a file exists and is accessible.">
<polygon fill="white" stroke="#666666" points="465,-139.5 351,-139.5 351,-109.5 465,-109.5 465,-139.5"/>
<text text-anchor="start" x="359" y="-127.5" font-family="Helvetica,sans-Serif" font-size="10.00">JobCheckerUtils::file</text>
<text text-anchor="middle" x="408" y="-116.5" font-family="Helvetica,sans-Serif" font-size="10.00">_exists</text>
</a>
</g>
</g>
<!-- Node4&#45;&gt;Node6 -->
<g id="edge5_Node000004_Node000006" class="edge">
<title>Node4&#45;&gt;Node6</title>
<g id="a_edge5_Node000004_Node000006"><a xlink:title=" ">
<path fill="none" stroke="#63b8ff" d="M309.53,-124.5C319.83,-124.5 330.48,-124.5 340.79,-124.5"/>
<polygon fill="#63b8ff" stroke="#63b8ff" points="340.96,-128 350.96,-124.5 340.96,-121 340.96,-128"/>
</a>
</g>
</g>
<!-- Node7 -->
<g id="Node000007" class="node">
<title>Node7</title>
<g id="a_Node000007"><a xlink:href="group__ConfigExtensions.html#ga3fd3f42f724661c7ea72845729e0141f" target="_top" xlink:title="Get list of supported input file extensions.">
<polygon fill="white" stroke="#666666" points="464,-91.5 352,-91.5 352,-61.5 464,-61.5 464,-91.5"/>
<text text-anchor="start" x="360" y="-79.5" font-family="Helvetica,sans-Serif" font-size="10.00">ConfigManager::get</text>
<text text-anchor="middle" x="408" y="-68.5" font-family="Helvetica,sans-Serif" font-size="10.00">_input_extensions</text>
</a>
</g>
</g>
<!-- Node4&#45;&gt;Node7 -->
<g id="edge6_Node000004_Node000007" class="edge">
<title>Node4&#45;&gt;Node7</title>
<g id="a_edge6_Node000004_Node000007"><a xlink:title=" ">
<path fill="none" stroke="#63b8ff" d="M294.78,-109.44C311.07,-104.66 329.23,-99.33 346.12,-94.37"/>
<polygon fill="#63b8ff" stroke="#63b8ff" points="347.29,-97.68 355.9,-91.5 345.32,-90.96 347.29,-97.68"/>
</a>
</g>
</g>
<!-- Node8 -->
<g id="Node000008" class="node">
<title>Node8</title>
<g id="a_Node000008"><a xlink:href="group__ConfigInternals.html#ga5e387d61b1f34873cd3ab047242b2aad" target="_top" xlink:title="Template method for type&#45;safe value conversion.">
<polygon fill="white" stroke="#666666" points="786,-136.5 653,-136.5 653,-106.5 786,-106.5 786,-136.5"/>
<text text-anchor="start" x="661" y="-124.5" font-family="Helvetica,sans-Serif" font-size="10.00">ConfigManager::convert</text>
<text text-anchor="middle" x="719.5" y="-113.5" font-family="Helvetica,sans-Serif" font-size="10.00">_value</text>
</a>
</g>
</g>
<!-- Node7&#45;&gt;Node8 -->
<g id="edge7_Node000007_Node000008" class="edge">
<title>Node7&#45;&gt;Node8</title>
<g id="a_edge7_Node000007_Node000008"><a xlink:title=" ">
<path fill="none" stroke="#63b8ff" d="M446.8,-91.58C452.98,-94.36 459.23,-97.38 465,-100.5 481.91,-109.66 482.6,-118.93 501,-124.5 546.67,-138.33 600.25,-137.77 642.81,-133.67"/>
<polygon fill="#63b8ff" stroke="#63b8ff" points="643.24,-137.14 652.82,-132.62 642.51,-130.18 643.24,-137.14"/>
</a>
</g>
</g>
<!-- Node9 -->
<g id="Node000009" class="node">
<title>Node9</title>
<g id="a_Node000009"><a xlink:href="group__ConfigValueGetters.html#gaa25cec73939b4d9bd7419f553faae0cb" target="_top" xlink:title="Get string configuration value.">
<polygon fill="white" stroke="#666666" points="615,-115.5 503,-115.5 503,-85.5 615,-85.5 615,-115.5"/>
<text text-anchor="start" x="511" y="-103.5" font-family="Helvetica,sans-Serif" font-size="10.00">ConfigManager::get</text>
<text text-anchor="middle" x="559" y="-92.5" font-family="Helvetica,sans-Serif" font-size="10.00">_string</text>
</a>
</g>
</g>
<!-- Node7&#45;&gt;Node9 -->
<g id="edge8_Node000007_Node000009" class="edge">
<title>Node7&#45;&gt;Node9</title>
<g id="a_edge8_Node000007_Node000009"><a xlink:title=" ">
<path fill="none" stroke="#63b8ff" d="M464.06,-85.37C473.41,-86.87 483.2,-88.45 492.79,-90"/>
<polygon fill="#63b8ff" stroke="#63b8ff" points="492.24,-93.45 502.67,-91.59 493.35,-86.54 492.24,-93.45"/>
</a>
</g>
</g>
<!-- Node10 -->
<g id="Node000010" class="node">
<title>Node10</title>
<g id="a_Node000010"><a xlink:href="group__ConfigStringUtils.html#ga2f21572e2bdf739cbd8c75720728196c" target="_top" xlink:title="Split string into vector using delimiter.">
<polygon fill="white" stroke="#666666" points="607.5,-67.5 510.5,-67.5 510.5,-37.5 607.5,-37.5 607.5,-67.5"/>
<text text-anchor="start" x="518.5" y="-55.5" font-family="Helvetica,sans-Serif" font-size="10.00">ConfigUtils::split</text>
<text text-anchor="middle" x="559" y="-44.5" font-family="Helvetica,sans-Serif" font-size="10.00">_string</text>
</a>
</g>
</g>
<!-- Node7&#45;&gt;Node10 -->
<g id="edge10_Node000007_Node000010" class="edge">
<title>Node7&#45;&gt;Node10</title>
<g id="a_edge10_Node000007_Node000010"><a xlink:title=" ">
<path fill="none" stroke="#63b8ff" d="M464.06,-67.63C475.73,-65.75 488.08,-63.76 499.86,-61.86"/>
<polygon fill="#63b8ff" stroke="#63b8ff" points="500.72,-65.27 510.03,-60.23 499.6,-58.36 500.72,-65.27"/>
</a>
</g>
</g>
<!-- Node11 -->
<g id="Node000011" class="node">
<title>Node11</title>
<g id="a_Node000011"><a xlink:href="group__ConfigInternals.html#ga24e6150f47d12f03a5864631c6d846c5" target="_top" xlink:title="Remove leading and trailing whitespace from string.">
<polygon fill="white" stroke="#666666" points="617,-19 501,-19 501,0 617,0 617,-19"/>
<text text-anchor="middle" x="559" y="-7" font-family="Helvetica,sans-Serif" font-size="10.00">ConfigManager::trim</text>
</a>
</g>
</g>
<!-- Node7&#45;&gt;Node11 -->
<g id="edge11_Node000007_Node000011" class="edge">
<title>Node7&#45;&gt;Node11</title>
<g id="a_edge11_Node000007_Node000011"><a xlink:title=" ">
<path fill="none" stroke="#63b8ff" d="M435.03,-61.5C453.17,-51.4 478.11,-38.21 501,-28.5 506.04,-26.36 511.41,-24.3 516.77,-22.38"/>
<polygon fill="#63b8ff" stroke="#63b8ff" points="518,-25.65 526.31,-19.07 515.71,-19.04 518,-25.65"/>
</a>
</g>
</g>
<!-- Node9&#45;&gt;Node8 -->
<g id="edge9_Node000009_Node000008" class="edge">
<title>Node9&#45;&gt;Node8</title>
<g id="a_edge9_Node000009_Node000008"><a xlink:title=" ">
<path fill="none" stroke="#63b8ff" d="M615.44,-107.84C624.29,-109.02 633.57,-110.25 642.8,-111.47"/>
<polygon fill="#63b8ff" stroke="#63b8ff" points="642.38,-114.95 652.76,-112.79 643.3,-108.01 642.38,-114.95"/>
</a>
</g>
</g>
</g>
</svg>

<g id="navigator" transform="translate(0 0)" fill="#404254">
  <rect fill="#f2f5e9" fill-opacity="0.5" stroke="#606060" stroke-width=".5" x="0" y="0" width="60" height="60"/>
  <use id="zoomplus" xlink:href="#zoomPlus" x="17" y="9" onmousedown="handleZoom(evt,'in')"/>
  <use id="zoomminus" xlink:href="#zoomMin" x="42" y="9" onmousedown="handleZoom(evt,'out')"/>
  <use id="reset" xlink:href="#resetDef" x="30" y="36" onmousedown="handleReset()"/>
   <use id="arrowup" xlink:href="#arrowUp" x="0" y="0" onmousedown="handlePan(0,-1)"/>
  <use id="arrowright" xlink:href="#arrowRight" x="0" y="0" onmousedown="handlePan(1,0)"/>
  <use id="arrowdown" xlink:href="#arrowDown" x="0" y="0" onmousedown="handlePan(0,1)"/>
  <use id="arrowleft" xlink:href="#arrowLeft" x="0" y="0" onmousedown="handlePan(-1,0)"/>
</g>
<svg viewBox="0 0 15 15" width="100%" height="30px" preserveAspectRatio="xMaxYMin meet">
 <g id="arrow_out" transform="scale(0.3 0.3)">
  <a xlink:href="group__IndependentChecking_gaa8965610d902e28ebf4946e0ba1f659d_cgraph_org.svg" target="_base">
   <rect id="button" ry="5" rx="5" y="6" x="6" height="38" width="38"
        fill="#f2f5e9" fill-opacity="0.5" stroke="#606060" stroke-width="1.0"/>
   <path id="arrow"
     d="M 11.500037,31.436501 C 11.940474,20.09759 22.043105,11.32322 32.158766,21.979434 L 37.068811,17.246167 C 37.068811,17.246167 37.088388,32 37.088388,32 L 22.160133,31.978069 C 22.160133,31.978069 26.997745,27.140456 26.997745,27.140456 C 18.528582,18.264221 13.291696,25.230495 11.500037,31.436501 z"
     style="fill:#404040;"/>
  </a>
 </g>
</svg>

<style type='text/css'>
<![CDATA[
[data-mouse-over-selected='false'] { opacity: 0.7; }
[data-mouse-over-selected='true']  { opacity: 1.0; }
]]>
</style>
<script type="application/ecmascript"><![CDATA[
document.addEventListener('DOMContentLoaded', (event) => {
  highlightEdges();
  highlightAdjacentNodes();
});
]]></script>
</svg>
