<?xml version="1.0" encoding="UTF-8" standalone="no"?>
<!DOCTYPE svg PUBLIC "-//W3C//DTD SVG 1.1//EN"
 "http://www.w3.org/Graphics/SVG/1.1/DTD/svg11.dtd">
<!-- Generated by graphviz version 2.43.0 (0)
 -->
<!-- Title: JobChecker::check_job_status Pages: 1 -->
<!--zoomable 292 -->

<svg id="main" version="1.1" xmlns="http://www.w3.org/2000/svg" xmlns:xlink="http://www.w3.org/1999/xlink" xml:space="preserve" onload="init(evt)">
<style type="text/css"><![CDATA[
.node, .edge {opacity: 0.7;}
.node.selected, .edge.selected {opacity: 1;}
.edge:hover path { stroke: red; }
.edge:hover polygon { stroke: red; fill: red; }
]]></style>

<defs>
  <circle id="rim" cx="0" cy="0" r="7"/>
  <circle id="rim2" cx="0" cy="0" r="3.5"/>
  <g id="zoomPlus">
    <use xlink:href="#rim" fill="#404040"><set attributeName="fill" to="#808080" begin="zoomplus.mouseover" end="zoomplus.mouseout"/></use>
    <path d="M-4,0h8M0,-4v8" fill="none" stroke="white" stroke-width="1.5" pointer-events="none"/>
  </g>
  <g id="zoomMin">
    <use xlink:href="#rim" fill="#404040"><set attributeName="fill" to="#808080" begin="zoomminus.mouseover" end="zoomminus.mouseout"/></use>
    <path d="M-4,0h8" fill="none" stroke="white" stroke-width="1.5" pointer-events="none"/>
  </g>
  <g id="arrowUp" transform="translate(30 24)">
    <use xlink:href="#rim"/>
    <path pointer-events="none" fill="none" stroke="white" stroke-width="1.5" d="M0,-3.0v7 M-2.5,-0.5L0,-3.0L2.5,-0.5"/>
  </g>
  <g id="arrowRight" transform="rotate(90) translate(36 -43)">
    <use xlink:href="#rim"/>
    <path pointer-events="none" fill="none" stroke="white" stroke-width="1.5" d="M0,-3.0v7 M-2.5,-0.5L0,-3.0L2.5,-0.5"/>
  </g>
  <g id="arrowDown" transform="rotate(180) translate(-30 -48)">
    <use xlink:href="#rim"/>
    <path pointer-events="none" fill="none" stroke="white" stroke-width="1.5" d="M0,-3.0v7 M-2.5,-0.5L0,-3.0L2.5,-0.5"/>
  </g>
  <g id="arrowLeft" transform="rotate(270) translate(-36 17)">
    <use xlink:href="#rim"/>
    <path pointer-events="none" fill="none" stroke="white" stroke-width="1.5" d="M0,-3.0v7 M-2.5,-0.5L0,-3.0L2.5,-0.5"/>
  </g>
  <g id="resetDef">
    <use xlink:href="#rim2" fill="#404040"><set attributeName="fill" to="#808080" begin="reset.mouseover" end="reset.mouseout"/></use>
  </g>
</defs>
<script type="application/ecmascript">
var viewWidth = 785;
var viewHeight = 292;
var sectionId = 'dynsection-0';
</script>
<script type="application/ecmascript" xlink:href="svg.min.js"/>
<svg id="graph" class="graph">
<g id="viewport">
<title>JobChecker::check_job_status</title>
<!-- Node1 -->
<g id="Node000001" class="node">
<title>Node1</title>
<g id="a_Node000001"><a xlink:title="Determine the status of a single Gaussian job.">
<polygon fill="#999999" stroke="#666666" points="125,-187.5 0,-187.5 0,-157.5 125,-157.5 125,-187.5"/>
<text text-anchor="start" x="8" y="-175.5" font-family="Helvetica,sans-Serif" font-size="10.00">JobChecker::check_job</text>
<text text-anchor="middle" x="62.5" y="-164.5" font-family="Helvetica,sans-Serif" font-size="10.00">_status</text>
</a>
</g>
</g>
<!-- Node2 -->
<g id="Node000002" class="node">
<title>Node2</title>
<g id="a_Node000002"><a xlink:href="group__ContentAnalysis.html#ga2770af34a67c2b3a25b58b7404589d7f" target="_top" xlink:title="Check if log file shows error termination.">
<polygon fill="white" stroke="#666666" points="300.5,-283.5 166.5,-283.5 166.5,-253.5 300.5,-253.5 300.5,-283.5"/>
<text text-anchor="start" x="174.5" y="-271.5" font-family="Helvetica,sans-Serif" font-size="10.00">JobChecker::check_error</text>
<text text-anchor="middle" x="233.5" y="-260.5" font-family="Helvetica,sans-Serif" font-size="10.00">_termination</text>
</a>
</g>
</g>
<!-- Node1&#45;&gt;Node2 -->
<g id="edge1_Node000001_Node000002" class="edge">
<title>Node1&#45;&gt;Node2</title>
<g id="a_edge1_Node000001_Node000002"><a xlink:title=" ">
<path fill="none" stroke="#63b8ff" d="M80.37,-187.54C98.98,-203.5 130.39,-228.57 161,-244.5 164.49,-246.32 168.15,-248.04 171.89,-249.66"/>
<polygon fill="#63b8ff" stroke="#63b8ff" points="170.72,-252.97 181.3,-253.5 173.36,-246.48 170.72,-252.97"/>
</a>
</g>
</g>
<!-- Node3 -->
<g id="Node000003" class="node">
<title>Node3</title>
<g id="a_Node000003"><a xlink:href="group__ContentAnalysis.html#gafbfb125b9689f3e3a6872dce49b1e78d" target="_top" xlink:title="Check if log file shows normal termination.">
<polygon fill="white" stroke="#666666" points="306,-235.5 161,-235.5 161,-205.5 306,-205.5 306,-235.5"/>
<text text-anchor="start" x="169" y="-223.5" font-family="Helvetica,sans-Serif" font-size="10.00">JobChecker::check_normal</text>
<text text-anchor="middle" x="233.5" y="-212.5" font-family="Helvetica,sans-Serif" font-size="10.00">_termination</text>
</a>
</g>
</g>
<!-- Node1&#45;&gt;Node3 -->
<g id="edge2_Node000001_Node000003" class="edge">
<title>Node1&#45;&gt;Node3</title>
<g id="a_edge2_Node000001_Node000003"><a xlink:title=" ">
<path fill="none" stroke="#63b8ff" d="M116.51,-187.56C133.34,-192.34 152.12,-197.67 169.58,-202.63"/>
<polygon fill="#63b8ff" stroke="#63b8ff" points="169.1,-206.13 179.68,-205.5 171.02,-199.4 169.1,-206.13"/>
</a>
</g>
</g>
<!-- Node4 -->
<g id="Node000004" class="node">
<title>Node4</title>
<g id="a_Node000004"><a xlink:href="group__ContentAnalysis.html#gae0492ada0f2903cf25356808548e8696" target="_top" xlink:title="Check if log file shows PCM convergence failure.">
<polygon fill="white" stroke="#666666" points="299,-187.5 168,-187.5 168,-157.5 299,-157.5 299,-187.5"/>
<text text-anchor="start" x="176" y="-175.5" font-family="Helvetica,sans-Serif" font-size="10.00">JobChecker::check_pcm</text>
<text text-anchor="middle" x="233.5" y="-164.5" font-family="Helvetica,sans-Serif" font-size="10.00">_failure</text>
</a>
</g>
</g>
<!-- Node1&#45;&gt;Node4 -->
<g id="edge3_Node000001_Node000004" class="edge">
<title>Node1&#45;&gt;Node4</title>
<g id="a_edge3_Node000001_Node000004"><a xlink:title=" ">
<path fill="none" stroke="#63b8ff" d="M125.47,-172.5C135.96,-172.5 146.96,-172.5 157.74,-172.5"/>
<polygon fill="#63b8ff" stroke="#63b8ff" points="157.98,-176 167.98,-172.5 157.98,-169 157.98,-176"/>
</a>
</g>
</g>
<!-- Node5 -->
<g id="Node000005" class="node">
<title>Node5</title>
<g id="a_Node000005"><a xlink:href="group__FileOperations.html#ga087bdeb612f939d045ab914d35a6b0de" target="_top" xlink:title="Find all files related to a Gaussian calculation.">
<polygon fill="white" stroke="#666666" points="300.5,-139.5 166.5,-139.5 166.5,-109.5 300.5,-109.5 300.5,-139.5"/>
<text text-anchor="start" x="174.5" y="-127.5" font-family="Helvetica,sans-Serif" font-size="10.00">JobChecker::find_related</text>
<text text-anchor="middle" x="233.5" y="-116.5" font-family="Helvetica,sans-Serif" font-size="10.00">_files</text>
</a>
</g>
</g>
<!-- Node1&#45;&gt;Node5 -->
<g id="edge4_Node000001_Node000005" class="edge">
<title>Node1&#45;&gt;Node5</title>
<g id="a_edge4_Node000001_Node000005"><a xlink:title=" ">
<path fill="none" stroke="#63b8ff" d="M116.51,-157.44C133.34,-152.66 152.12,-147.33 169.58,-142.37"/>
<polygon fill="#63b8ff" stroke="#63b8ff" points="171.02,-145.6 179.68,-139.5 169.1,-138.87 171.02,-145.6"/>
</a>
</g>
</g>
<!-- Node13 -->
<g id="Node000013" class="node">
<title>Node13</title>
<g id="a_Node000013"><a xlink:href="group__FileReading.html#ga4698c518536430228f3ef47f9c89b552" target="_top" xlink:title=" ">
<polygon fill="white" stroke="#666666" points="293,-91.5 174,-91.5 174,-61.5 293,-61.5 293,-91.5"/>
<text text-anchor="start" x="182" y="-79.5" font-family="Helvetica,sans-Serif" font-size="10.00">JobChecker::read_file</text>
<text text-anchor="middle" x="233.5" y="-68.5" font-family="Helvetica,sans-Serif" font-size="10.00">_unified</text>
</a>
</g>
</g>
<!-- Node1&#45;&gt;Node13 -->
<g id="edge13_Node000001_Node000013" class="edge">
<title>Node1&#45;&gt;Node13</title>
<g id="a_edge13_Node000001_Node000013"><a xlink:title=" ">
<path fill="none" stroke="#63b8ff" d="M80.37,-157.46C98.98,-141.5 130.39,-116.43 161,-100.5 164.49,-98.68 168.15,-96.96 171.89,-95.34"/>
<polygon fill="#63b8ff" stroke="#63b8ff" points="173.36,-98.52 181.3,-91.5 170.72,-92.03 173.36,-98.52"/>
</a>
</g>
</g>
<!-- Node6 -->
<g id="Node000006" class="node">
<title>Node6</title>
<g id="a_Node000006"><a xlink:href="group__UtilityFunctions.html#ga5aea3864b0d315c8680f9611a9f8f689" target="_top" xlink:title="Extract base filename without extension from log file path.">
<polygon fill="white" stroke="#666666" points="454.5,-187.5 343.5,-187.5 343.5,-157.5 454.5,-157.5 454.5,-187.5"/>
<text text-anchor="start" x="351.5" y="-175.5" font-family="Helvetica,sans-Serif" font-size="10.00">JobChecker::extract</text>
<text text-anchor="middle" x="399" y="-164.5" font-family="Helvetica,sans-Serif" font-size="10.00">_base_name</text>
</a>
</g>
</g>
<!-- Node5&#45;&gt;Node6 -->
<g id="edge5_Node000005_Node000006" class="edge">
<title>Node5&#45;&gt;Node6</title>
<g id="a_edge5_Node000005_Node000006"><a xlink:title=" ">
<path fill="none" stroke="#63b8ff" d="M285.78,-139.56C302.07,-144.34 320.23,-149.67 337.12,-154.63"/>
<polygon fill="#63b8ff" stroke="#63b8ff" points="336.32,-158.04 346.9,-157.5 338.29,-151.32 336.32,-158.04"/>
</a>
</g>
</g>
<!-- Node7 -->
<g id="Node000007" class="node">
<title>Node7</title>
<g id="a_Node000007"><a xlink:href="group__JobFileUtils.html#ga93b2603d1ed51dcb6ad00bb6c48a434b" target="_top" xlink:title="Check if a file exists and is accessible.">
<polygon fill="white" stroke="#666666" points="456,-139.5 342,-139.5 342,-109.5 456,-109.5 456,-139.5"/>
<text text-anchor="start" x="350" y="-127.5" font-family="Helvetica,sans-Serif" font-size="10.00">JobCheckerUtils::file</text>
<text text-anchor="middle" x="399" y="-116.5" font-family="Helvetica,sans-Serif" font-size="10.00">_exists</text>
</a>
</g>
</g>
<!-- Node5&#45;&gt;Node7 -->
<g id="edge6_Node000005_Node000007" class="edge">
<title>Node5&#45;&gt;Node7</title>
<g id="a_edge6_Node000005_Node000007"><a xlink:title=" ">
<path fill="none" stroke="#63b8ff" d="M300.53,-124.5C310.83,-124.5 321.48,-124.5 331.79,-124.5"/>
<polygon fill="#63b8ff" stroke="#63b8ff" points="331.96,-128 341.96,-124.5 331.96,-121 331.96,-128"/>
</a>
</g>
</g>
<!-- Node8 -->
<g id="Node000008" class="node">
<title>Node8</title>
<g id="a_Node000008"><a xlink:href="group__ConfigExtensions.html#ga3fd3f42f724661c7ea72845729e0141f" target="_top" xlink:title="Get list of supported input file extensions.">
<polygon fill="white" stroke="#666666" points="455,-91.5 343,-91.5 343,-61.5 455,-61.5 455,-91.5"/>
<text text-anchor="start" x="351" y="-79.5" font-family="Helvetica,sans-Serif" font-size="10.00">ConfigManager::get</text>
<text text-anchor="middle" x="399" y="-68.5" font-family="Helvetica,sans-Serif" font-size="10.00">_input_extensions</text>
</a>
</g>
</g>
<!-- Node5&#45;&gt;Node8 -->
<g id="edge7_Node000005_Node000008" class="edge">
<title>Node5&#45;&gt;Node8</title>
<g id="a_edge7_Node000005_Node000008"><a xlink:title=" ">
<path fill="none" stroke="#63b8ff" d="M285.78,-109.44C302.07,-104.66 320.23,-99.33 337.12,-94.37"/>
<polygon fill="#63b8ff" stroke="#63b8ff" points="338.29,-97.68 346.9,-91.5 336.32,-90.96 338.29,-97.68"/>
</a>
</g>
</g>
<!-- Node9 -->
<g id="Node000009" class="node">
<title>Node9</title>
<g id="a_Node000009"><a xlink:href="group__ConfigInternals.html#ga5e387d61b1f34873cd3ab047242b2aad" target="_top" xlink:title="Template method for type&#45;safe value conversion.">
<polygon fill="white" stroke="#666666" points="777,-136.5 644,-136.5 644,-106.5 777,-106.5 777,-136.5"/>
<text text-anchor="start" x="652" y="-124.5" font-family="Helvetica,sans-Serif" font-size="10.00">ConfigManager::convert</text>
<text text-anchor="middle" x="710.5" y="-113.5" font-family="Helvetica,sans-Serif" font-size="10.00">_value</text>
</a>
</g>
</g>
<!-- Node8&#45;&gt;Node9 -->
<g id="edge8_Node000008_Node000009" class="edge">
<title>Node8&#45;&gt;Node9</title>
<g id="a_edge8_Node000008_Node000009"><a xlink:title=" ">
<path fill="none" stroke="#63b8ff" d="M437.8,-91.58C443.98,-94.36 450.23,-97.38 456,-100.5 472.91,-109.66 473.6,-118.93 492,-124.5 537.67,-138.33 591.25,-137.77 633.81,-133.67"/>
<polygon fill="#63b8ff" stroke="#63b8ff" points="634.24,-137.14 643.82,-132.62 633.51,-130.18 634.24,-137.14"/>
</a>
</g>
</g>
<!-- Node10 -->
<g id="Node000010" class="node">
<title>Node10</title>
<g id="a_Node000010"><a xlink:href="group__ConfigValueGetters.html#gaa25cec73939b4d9bd7419f553faae0cb" target="_top" xlink:title="Get string configuration value.">
<polygon fill="white" stroke="#666666" points="606,-115.5 494,-115.5 494,-85.5 606,-85.5 606,-115.5"/>
<text text-anchor="start" x="502" y="-103.5" font-family="Helvetica,sans-Serif" font-size="10.00">ConfigManager::get</text>
<text text-anchor="middle" x="550" y="-92.5" font-family="Helvetica,sans-Serif" font-size="10.00">_string</text>
</a>
</g>
</g>
<!-- Node8&#45;&gt;Node10 -->
<g id="edge9_Node000008_Node000010" class="edge">
<title>Node8&#45;&gt;Node10</title>
<g id="a_edge9_Node000008_Node000010"><a xlink:title=" ">
<path fill="none" stroke="#63b8ff" d="M455.06,-85.37C464.41,-86.87 474.2,-88.45 483.79,-90"/>
<polygon fill="#63b8ff" stroke="#63b8ff" points="483.24,-93.45 493.67,-91.59 484.35,-86.54 483.24,-93.45"/>
</a>
</g>
</g>
<!-- Node11 -->
<g id="Node000011" class="node">
<title>Node11</title>
<g id="a_Node000011"><a xlink:href="group__ConfigStringUtils.html#ga2f21572e2bdf739cbd8c75720728196c" target="_top" xlink:title="Split string into vector using delimiter.">
<polygon fill="white" stroke="#666666" points="598.5,-67.5 501.5,-67.5 501.5,-37.5 598.5,-37.5 598.5,-67.5"/>
<text text-anchor="start" x="509.5" y="-55.5" font-family="Helvetica,sans-Serif" font-size="10.00">ConfigUtils::split</text>
<text text-anchor="middle" x="550" y="-44.5" font-family="Helvetica,sans-Serif" font-size="10.00">_string</text>
</a>
</g>
</g>
<!-- Node8&#45;&gt;Node11 -->
<g id="edge11_Node000008_Node000011" class="edge">
<title>Node8&#45;&gt;Node11</title>
<g id="a_edge11_Node000008_Node000011"><a xlink:title=" ">
<path fill="none" stroke="#63b8ff" d="M455.06,-67.63C466.73,-65.75 479.08,-63.76 490.86,-61.86"/>
<polygon fill="#63b8ff" stroke="#63b8ff" points="491.72,-65.27 501.03,-60.23 490.6,-58.36 491.72,-65.27"/>
</a>
</g>
</g>
<!-- Node12 -->
<g id="Node000012" class="node">
<title>Node12</title>
<g id="a_Node000012"><a xlink:href="group__ConfigInternals.html#ga24e6150f47d12f03a5864631c6d846c5" target="_top" xlink:title="Remove leading and trailing whitespace from string.">
<polygon fill="white" stroke="#666666" points="608,-19 492,-19 492,0 608,0 608,-19"/>
<text text-anchor="middle" x="550" y="-7" font-family="Helvetica,sans-Serif" font-size="10.00">ConfigManager::trim</text>
</a>
</g>
</g>
<!-- Node8&#45;&gt;Node12 -->
<g id="edge12_Node000008_Node000012" class="edge">
<title>Node8&#45;&gt;Node12</title>
<g id="a_edge12_Node000008_Node000012"><a xlink:title=" ">
<path fill="none" stroke="#63b8ff" d="M426.03,-61.5C444.17,-51.4 469.11,-38.21 492,-28.5 497.04,-26.36 502.41,-24.3 507.77,-22.38"/>
<polygon fill="#63b8ff" stroke="#63b8ff" points="509,-25.65 517.31,-19.07 506.71,-19.04 509,-25.65"/>
</a>
</g>
</g>
<!-- Node10&#45;&gt;Node9 -->
<g id="edge10_Node000010_Node000009" class="edge">
<title>Node10&#45;&gt;Node9</title>
<g id="a_edge10_Node000010_Node000009"><a xlink:title=" ">
<path fill="none" stroke="#63b8ff" d="M606.44,-107.84C615.29,-109.02 624.57,-110.25 633.8,-111.47"/>
<polygon fill="#63b8ff" stroke="#63b8ff" points="633.38,-114.95 643.76,-112.79 634.3,-108.01 633.38,-114.95"/>
</a>
</g>
</g>
</g>
</svg>

<g id="navigator" transform="translate(0 0)" fill="#404254">
  <rect fill="#f2f5e9" fill-opacity="0.5" stroke="#606060" stroke-width=".5" x="0" y="0" width="60" height="60"/>
  <use id="zoomplus" xlink:href="#zoomPlus" x="17" y="9" onmousedown="handleZoom(evt,'in')"/>
  <use id="zoomminus" xlink:href="#zoomMin" x="42" y="9" onmousedown="handleZoom(evt,'out')"/>
  <use id="reset" xlink:href="#resetDef" x="30" y="36" onmousedown="handleReset()"/>
   <use id="arrowup" xlink:href="#arrowUp" x="0" y="0" onmousedown="handlePan(0,-1)"/>
  <use id="arrowright" xlink:href="#arrowRight" x="0" y="0" onmousedown="handlePan(1,0)"/>
  <use id="arrowdown" xlink:href="#arrowDown" x="0" y="0" onmousedown="handlePan(0,1)"/>
  <use id="arrowleft" xlink:href="#arrowLeft" x="0" y="0" onmousedown="handlePan(-1,0)"/>
</g>
<svg viewBox="0 0 15 15" width="100%" height="30px" preserveAspectRatio="xMaxYMin meet">
 <g id="arrow_out" transform="scale(0.3 0.3)">
  <a xlink:href="group__IndividualChecking_gacaf7b75f3c058b5648c894ee21eadf5d_cgraph_org.svg" target="_base">
   <rect id="button" ry="5" rx="5" y="6" x="6" height="38" width="38"
        fill="#f2f5e9" fill-opacity="0.5" stroke="#606060" stroke-width="1.0"/>
   <path id="arrow"
     d="M 11.500037,31.436501 C 11.940474,20.09759 22.043105,11.32322 32.158766,21.979434 L 37.068811,17.246167 C 37.068811,17.246167 37.088388,32 37.088388,32 L 22.160133,31.978069 C 22.160133,31.978069 26.997745,27.140456 26.997745,27.140456 C 18.528582,18.264221 13.291696,25.230495 11.500037,31.436501 z"
     style="fill:#404040;"/>
  </a>
 </g>
</svg>

<style type='text/css'>
<![CDATA[
[data-mouse-over-selected='false'] { opacity: 0.7; }
[data-mouse-over-selected='true']  { opacity: 1.0; }
]]>
</style>
<script type="application/ecmascript"><![CDATA[
document.addEventListener('DOMContentLoaded', (event) => {
  highlightEdges();
  highlightAdjacentNodes();
});
]]></script>
</svg>
