<?xml version="1.0" encoding="UTF-8" standalone="no"?>
<!DOCTYPE svg PUBLIC "-//W3C//DTD SVG 1.1//EN"
 "http://www.w3.org/Graphics/SVG/1.1/DTD/svg11.dtd">
<!-- Generated by graphviz version 2.43.0 (0)
 -->
<!-- Title: ConfigManager::get_default_threads Pages: 1 -->
<svg width="461pt" height="108pt"
 viewBox="0.00 0.00 461.00 108.14" xmlns="http://www.w3.org/2000/svg" xmlns:xlink="http://www.w3.org/1999/xlink">
<g id="graph0" class="graph" transform="scale(1 1) rotate(0) translate(4 104.14)">
<title>ConfigManager::get_default_threads</title>
<!-- Node1 -->
<g id="Node000001" class="node">
<title>Node1</title>
<g id="a_Node000001"><a xlink:title="Get default number of processing threads.">
<polygon fill="#999999" stroke="#666666" points="112,-85.5 0,-85.5 0,-55.5 112,-55.5 112,-85.5"/>
<text text-anchor="start" x="8" y="-73.5" font-family="Helvetica,sans-Serif" font-size="10.00">ConfigManager::get</text>
<text text-anchor="middle" x="56" y="-62.5" font-family="Helvetica,sans-Serif" font-size="10.00">_default_threads</text>
</a>
</g>
</g>
<!-- Node2 -->
<g id="Node000002" class="node">
<title>Node2</title>
<g id="a_Node000002"><a xlink:href="group__ConfigInternals.html#ga5e387d61b1f34873cd3ab047242b2aad" target="_top" xlink:title="Template method for type&#45;safe value conversion.">
<polygon fill="white" stroke="#666666" points="453,-85.5 320,-85.5 320,-55.5 453,-55.5 453,-85.5"/>
<text text-anchor="start" x="328" y="-73.5" font-family="Helvetica,sans-Serif" font-size="10.00">ConfigManager::convert</text>
<text text-anchor="middle" x="386.5" y="-62.5" font-family="Helvetica,sans-Serif" font-size="10.00">_value</text>
</a>
</g>
</g>
<!-- Node1&#45;&gt;Node2 -->
<g id="edge1_Node000001_Node000002" class="edge">
<title>Node1&#45;&gt;Node2</title>
<g id="a_edge1_Node000001_Node000002"><a xlink:title=" ">
<path fill="none" stroke="#63b8ff" d="M104.71,-85.55C118.53,-89.24 133.74,-92.65 148,-94.5 207.94,-102.27 223.96,-101.5 284,-94.5 296.49,-93.04 309.67,-90.61 322.25,-87.84"/>
<polygon fill="#63b8ff" stroke="#63b8ff" points="323.22,-91.21 332.18,-85.56 321.65,-84.39 323.22,-91.21"/>
</a>
</g>
</g>
<!-- Node3 -->
<g id="Node000003" class="node">
<title>Node3</title>
<g id="a_Node000003"><a xlink:href="group__ConfigValueGetters.html#gaa25cec73939b4d9bd7419f553faae0cb" target="_top" xlink:title="Get string configuration value.">
<polygon fill="white" stroke="#666666" points="272,-85.5 160,-85.5 160,-55.5 272,-55.5 272,-85.5"/>
<text text-anchor="start" x="168" y="-73.5" font-family="Helvetica,sans-Serif" font-size="10.00">ConfigManager::get</text>
<text text-anchor="middle" x="216" y="-62.5" font-family="Helvetica,sans-Serif" font-size="10.00">_string</text>
</a>
</g>
</g>
<!-- Node1&#45;&gt;Node3 -->
<g id="edge2_Node000001_Node000003" class="edge">
<title>Node1&#45;&gt;Node3</title>
<g id="a_edge2_Node000001_Node000003"><a xlink:title=" ">
<path fill="none" stroke="#63b8ff" d="M112.26,-70.5C124.29,-70.5 137.13,-70.5 149.51,-70.5"/>
<polygon fill="#63b8ff" stroke="#63b8ff" points="149.77,-74 159.77,-70.5 149.77,-67 149.77,-74"/>
</a>
</g>
</g>
<!-- Node4 -->
<g id="Node000004" class="node">
<title>Node4</title>
<g id="a_Node000004"><a xlink:href="group__ConfigValueGetters.html#gada707986c94dbf811fd5b00f7ee52911" target="_top" xlink:title="Get unsigned integer configuration value.">
<polygon fill="white" stroke="#666666" points="284,-19 148,-19 148,0 284,0 284,-19"/>
<text text-anchor="middle" x="216" y="-7" font-family="Helvetica,sans-Serif" font-size="10.00">ConfigManager::get_uint</text>
</a>
</g>
</g>
<!-- Node1&#45;&gt;Node4 -->
<g id="edge4_Node000001_Node000004" class="edge">
<title>Node1&#45;&gt;Node4</title>
<g id="a_edge4_Node000001_Node000004"><a xlink:title=" ">
<path fill="none" stroke="#63b8ff" d="M96.06,-55.42C122.03,-45.39 155.83,-32.34 180.76,-22.72"/>
<polygon fill="#63b8ff" stroke="#63b8ff" points="182.11,-25.95 190.17,-19.08 179.58,-19.42 182.11,-25.95"/>
</a>
</g>
</g>
<!-- Node3&#45;&gt;Node2 -->
<g id="edge3_Node000003_Node000002" class="edge">
<title>Node3&#45;&gt;Node2</title>
<g id="a_edge3_Node000003_Node000002"><a xlink:title=" ">
<path fill="none" stroke="#63b8ff" d="M272.17,-70.5C284.21,-70.5 297.16,-70.5 309.84,-70.5"/>
<polygon fill="#63b8ff" stroke="#63b8ff" points="309.94,-74 319.94,-70.5 309.94,-67 309.94,-74"/>
</a>
</g>
</g>
<!-- Node4&#45;&gt;Node2 -->
<g id="edge5_Node000004_Node000002" class="edge">
<title>Node4&#45;&gt;Node2</title>
<g id="a_edge5_Node000004_Node000002"><a xlink:title=" ">
<path fill="none" stroke="#63b8ff" d="M243.33,-19.03C267.63,-27.83 304.4,-41.14 334.46,-52.02"/>
<polygon fill="#63b8ff" stroke="#63b8ff" points="333.36,-55.35 343.96,-55.46 335.75,-48.77 333.36,-55.35"/>
</a>
</g>
</g>
<!-- Node4&#45;&gt;Node4 -->
<g id="edge6_Node000004_Node000004" class="edge">
<title>Node4&#45;&gt;Node4</title>
<g id="a_edge6_Node000004_Node000004"><a xlink:title=" ">
<path fill="none" stroke="#63b8ff" d="M191.34,-19.08C179.34,-27.73 187.56,-37 216,-37 234.66,-37 244.62,-33.01 245.87,-27.82"/>
<polygon fill="#63b8ff" stroke="#63b8ff" points="248.79,-25.88 240.66,-19.08 242.77,-29.47 248.79,-25.88"/>
</a>
</g>
</g>
</g>
</svg>
