<?xml version="1.0" encoding="UTF-8" standalone="no"?>
<!DOCTYPE svg PUBLIC "-//W3C//DTD SVG 1.1//EN"
 "http://www.w3.org/Graphics/SVG/1.1/DTD/svg11.dtd">
<!-- Generated by graphviz version 2.43.0 (0)
 -->
<!-- Title: ConfigManager::validate_file_extensions Pages: 1 -->
<svg width="465pt" height="193pt"
 viewBox="0.00 0.00 465.00 193.36" xmlns="http://www.w3.org/2000/svg" xmlns:xlink="http://www.w3.org/1999/xlink">

<svg id="main" version="1.1" xmlns="http://www.w3.org/2000/svg" xmlns:xlink="http://www.w3.org/1999/xlink" xml:space="preserve" onload="init(evt)">
<style type="text/css"><![CDATA[
.node, .edge {opacity: 0.7;}
.node.selected, .edge.selected {opacity: 1;}
.edge:hover path { stroke: red; }
.edge:hover polygon { stroke: red; fill: red; }
]]></style>
<script type="application/ecmascript" xlink:href="svg.min.js"/>
<svg id="graph" class="graph">
<g id="graph0" class="graph" transform="scale(1 1) rotate(0) translate(4 189.36)">
<title>ConfigManager::validate_file_extensions</title>
<!-- Node1 -->
<g id="Node000001" class="node">
<title>Node1</title>
<g id="a_Node000001"><a xlink:title="Validate file extension configuration values.">
<polygon fill="#999999" stroke="#666666" points="136,-115.5 0,-115.5 0,-85.5 136,-85.5 136,-115.5"/>
<text text-anchor="start" x="8" y="-103.5" font-family="Helvetica,sans-Serif" font-size="10.00">ConfigManager::validate</text>
<text text-anchor="middle" x="68" y="-92.5" font-family="Helvetica,sans-Serif" font-size="10.00">_file_extensions</text>
</a>
</g>
</g>
<!-- Node2 -->
<g id="Node000002" class="node">
<title>Node2</title>
<g id="a_Node000002"><a xlink:href="group__ConfigInternals.html#ga5e387d61b1f34873cd3ab047242b2aad" target="_top" xlink:title="Template method for type&#45;safe value conversion.">
<polygon fill="white" stroke="#666666" points="457,-184.5 324,-184.5 324,-154.5 457,-154.5 457,-184.5"/>
<text text-anchor="start" x="332" y="-172.5" font-family="Helvetica,sans-Serif" font-size="10.00">ConfigManager::convert</text>
<text text-anchor="middle" x="390.5" y="-161.5" font-family="Helvetica,sans-Serif" font-size="10.00">_value</text>
</a>
</g>
</g>
<!-- Node1&#45;&gt;Node2 -->
<g id="edge1_Node000001_Node000002" class="edge">
<title>Node1&#45;&gt;Node2</title>
<g id="a_edge1_Node000001_Node000002"><a xlink:title=" ">
<path fill="none" stroke="#63b8ff" d="M84.08,-115.65C102.81,-133.27 136.62,-161.36 172,-172.5 217.52,-186.83 271.1,-186.28 313.69,-182.05"/>
<polygon fill="#63b8ff" stroke="#63b8ff" points="314.14,-185.52 323.71,-180.97 313.39,-178.57 314.14,-185.52"/>
</a>
</g>
</g>
<!-- Node3 -->
<g id="Node000003" class="node">
<title>Node3</title>
<g id="a_Node000003"><a xlink:href="group__ConfigValueGetters.html#gaa25cec73939b4d9bd7419f553faae0cb" target="_top" xlink:title="Get string configuration value.">
<polygon fill="white" stroke="#666666" points="286,-163.5 174,-163.5 174,-133.5 286,-133.5 286,-163.5"/>
<text text-anchor="start" x="182" y="-151.5" font-family="Helvetica,sans-Serif" font-size="10.00">ConfigManager::get</text>
<text text-anchor="middle" x="230" y="-140.5" font-family="Helvetica,sans-Serif" font-size="10.00">_string</text>
</a>
</g>
</g>
<!-- Node1&#45;&gt;Node3 -->
<g id="edge2_Node000001_Node000003" class="edge">
<title>Node1&#45;&gt;Node3</title>
<g id="a_edge2_Node000001_Node000003"><a xlink:title=" ">
<path fill="none" stroke="#63b8ff" d="M119.19,-115.56C134.97,-120.29 152.57,-125.57 168.96,-130.49"/>
<polygon fill="#63b8ff" stroke="#63b8ff" points="168.41,-133.98 178.99,-133.5 170.42,-127.27 168.41,-133.98"/>
</a>
</g>
</g>
<!-- Node4 -->
<g id="Node000004" class="node">
<title>Node4</title>
<g id="a_Node000004"><a xlink:href="group__ConfigValidationUtils.html#ga6905a372521e35204369ffa3bb8d8b8e" target="_top" xlink:title="Validate file extension format.">
<polygon fill="white" stroke="#666666" points="286.5,-115.5 173.5,-115.5 173.5,-85.5 286.5,-85.5 286.5,-115.5"/>
<text text-anchor="start" x="181.5" y="-103.5" font-family="Helvetica,sans-Serif" font-size="10.00">ConfigUtils::is_valid</text>
<text text-anchor="middle" x="230" y="-92.5" font-family="Helvetica,sans-Serif" font-size="10.00">_extension</text>
</a>
</g>
</g>
<!-- Node1&#45;&gt;Node4 -->
<g id="edge4_Node000001_Node000004" class="edge">
<title>Node1&#45;&gt;Node4</title>
<g id="a_edge4_Node000001_Node000004"><a xlink:title=" ">
<path fill="none" stroke="#63b8ff" d="M136.39,-100.5C145.23,-100.5 154.28,-100.5 163.09,-100.5"/>
<polygon fill="#63b8ff" stroke="#63b8ff" points="163.31,-104 173.31,-100.5 163.31,-97 163.31,-104"/>
</a>
</g>
</g>
<!-- Node5 -->
<g id="Node000005" class="node">
<title>Node5</title>
<g id="a_Node000005"><a xlink:href="group__ConfigStringUtils.html#ga2f21572e2bdf739cbd8c75720728196c" target="_top" xlink:title="Split string into vector using delimiter.">
<polygon fill="white" stroke="#666666" points="278.5,-67.5 181.5,-67.5 181.5,-37.5 278.5,-37.5 278.5,-67.5"/>
<text text-anchor="start" x="189.5" y="-55.5" font-family="Helvetica,sans-Serif" font-size="10.00">ConfigUtils::split</text>
<text text-anchor="middle" x="230" y="-44.5" font-family="Helvetica,sans-Serif" font-size="10.00">_string</text>
</a>
</g>
</g>
<!-- Node1&#45;&gt;Node5 -->
<g id="edge5_Node000001_Node000005" class="edge">
<title>Node1&#45;&gt;Node5</title>
<g id="a_edge5_Node000001_Node000005"><a xlink:title=" ">
<path fill="none" stroke="#63b8ff" d="M119.19,-85.44C135.81,-80.46 154.44,-74.87 171.57,-69.73"/>
<polygon fill="#63b8ff" stroke="#63b8ff" points="172.88,-72.99 181.45,-66.77 170.87,-66.29 172.88,-72.99"/>
</a>
</g>
</g>
<!-- Node6 -->
<g id="Node000006" class="node">
<title>Node6</title>
<g id="a_Node000006"><a xlink:href="group__ConfigInternals.html#ga24e6150f47d12f03a5864631c6d846c5" target="_top" xlink:title="Remove leading and trailing whitespace from string.">
<polygon fill="white" stroke="#666666" points="288,-19 172,-19 172,0 288,0 288,-19"/>
<text text-anchor="middle" x="230" y="-7" font-family="Helvetica,sans-Serif" font-size="10.00">ConfigManager::trim</text>
</a>
</g>
</g>
<!-- Node1&#45;&gt;Node6 -->
<g id="edge6_Node000001_Node000006" class="edge">
<title>Node1&#45;&gt;Node6</title>
<g id="a_edge6_Node000001_Node000006"><a xlink:title=" ">
<path fill="none" stroke="#63b8ff" d="M87.32,-85.22C107.16,-69.3 140.23,-44.48 172,-28.5 176.26,-26.36 180.82,-24.37 185.43,-22.56"/>
<polygon fill="#63b8ff" stroke="#63b8ff" points="186.71,-25.82 194.89,-19.08 184.3,-19.25 186.71,-25.82"/>
</a>
</g>
</g>
<!-- Node3&#45;&gt;Node2 -->
<g id="edge3_Node000003_Node000002" class="edge">
<title>Node3&#45;&gt;Node2</title>
<g id="a_edge3_Node000003_Node000002"><a xlink:title=" ">
<path fill="none" stroke="#63b8ff" d="M286.44,-155.84C295.29,-157.02 304.57,-158.25 313.8,-159.47"/>
<polygon fill="#63b8ff" stroke="#63b8ff" points="313.38,-162.95 323.76,-160.79 314.3,-156.01 313.38,-162.95"/>
</a>
</g>
</g>
</g>
</svg>
</svg>

<style type='text/css'>
<![CDATA[
[data-mouse-over-selected='false'] { opacity: 0.7; }
[data-mouse-over-selected='true']  { opacity: 1.0; }
]]>
</style>
<script type="application/ecmascript"><![CDATA[
document.addEventListener('DOMContentLoaded', (event) => {
  highlightEdges();
  highlightAdjacentNodes();
});
]]></script>
</svg>
