<?xml version="1.0" encoding="UTF-8" standalone="no"?>
<!DOCTYPE svg PUBLIC "-//W3C//DTD SVG 1.1//EN"
 "http://www.w3.org/Graphics/SVG/1.1/DTD/svg11.dtd">
<!-- Generated by graphviz version 2.43.0 (0)
 -->
<!-- Title: CommandParser::parse_common_options Pages: 1 -->
<svg width="661pt" height="182pt"
 viewBox="0.00 0.00 661.00 181.50" xmlns="http://www.w3.org/2000/svg" xmlns:xlink="http://www.w3.org/1999/xlink">
<g id="graph0" class="graph" transform="scale(1 1) rotate(0) translate(4 177.5)">
<title>CommandParser::parse_common_options</title>
<!-- Node1 -->
<g id="Node000001" class="node">
<title>Node1</title>
<g id="a_Node000001"><a xlink:title="Parse options common to all commands.">
<polygon fill="#999999" stroke="#666666" points="130,-125.5 0,-125.5 0,-95.5 130,-95.5 130,-125.5"/>
<text text-anchor="start" x="8" y="-113.5" font-family="Helvetica,sans-Serif" font-size="10.00">CommandParser::parse</text>
<text text-anchor="middle" x="65" y="-102.5" font-family="Helvetica,sans-Serif" font-size="10.00">_common_options</text>
</a>
</g>
</g>
<!-- Node2 -->
<g id="Node000002" class="node">
<title>Node2</title>
<g id="a_Node000002"><a xlink:href="group__CommandExecutors.html#ga23a2476517d18a8482fc2d211614f59c" target="_top" xlink:title="Add a warning message to the command context.">
<polygon fill="white" stroke="#666666" points="299.5,-173.5 178.5,-173.5 178.5,-143.5 299.5,-143.5 299.5,-173.5"/>
<text text-anchor="start" x="186.5" y="-161.5" font-family="Helvetica,sans-Serif" font-size="10.00">CommandParser::add</text>
<text text-anchor="middle" x="239" y="-150.5" font-family="Helvetica,sans-Serif" font-size="10.00">_warning</text>
</a>
</g>
</g>
<!-- Node1&#45;&gt;Node2 -->
<g id="edge1_Node000001_Node000002" class="edge">
<title>Node1&#45;&gt;Node2</title>
<g id="a_edge1_Node000001_Node000002"><a xlink:title=" ">
<path fill="none" stroke="#63b8ff" d="M119.95,-125.56C137.24,-130.38 156.55,-135.77 174.46,-140.77"/>
<polygon fill="#63b8ff" stroke="#63b8ff" points="173.67,-144.18 184.24,-143.5 175.55,-137.44 173.67,-144.18"/>
</a>
</g>
</g>
<!-- Node3 -->
<g id="Node000003" class="node">
<title>Node3</title>
<g id="a_Node000003"><a xlink:href="group__ConfigConvenience.html#gae28d853524e420d325492f3997fbf259" target="_top" xlink:title="Get default output file extension.">
<polygon fill="white" stroke="#666666" points="312,-125.5 166,-125.5 166,-95.5 312,-95.5 312,-125.5"/>
<text text-anchor="start" x="174" y="-113.5" font-family="Helvetica,sans-Serif" font-size="10.00">ConfigManager::get</text>
<text text-anchor="middle" x="239" y="-102.5" font-family="Helvetica,sans-Serif" font-size="10.00">_default_output_extension</text>
</a>
</g>
</g>
<!-- Node1&#45;&gt;Node3 -->
<g id="edge2_Node000001_Node000003" class="edge">
<title>Node1&#45;&gt;Node3</title>
<g id="a_edge2_Node000001_Node000003"><a xlink:title=" ">
<path fill="none" stroke="#63b8ff" d="M130.05,-110.5C138.42,-110.5 147.09,-110.5 155.72,-110.5"/>
<polygon fill="#63b8ff" stroke="#63b8ff" points="155.8,-114 165.8,-110.5 155.8,-107 155.8,-114"/>
</a>
</g>
</g>
<!-- Node6 -->
<g id="Node000006" class="node">
<title>Node6</title>
<g id="a_Node000006"><a xlink:href="group__ConfigConvenience.html#gac68ef6a3a6b456a87d338f9be7b6363c" target="_top" xlink:title="Get default number of processing threads.">
<polygon fill="white" stroke="#666666" points="295,-77.5 183,-77.5 183,-47.5 295,-47.5 295,-77.5"/>
<text text-anchor="start" x="191" y="-65.5" font-family="Helvetica,sans-Serif" font-size="10.00">ConfigManager::get</text>
<text text-anchor="middle" x="239" y="-54.5" font-family="Helvetica,sans-Serif" font-size="10.00">_default_threads</text>
</a>
</g>
</g>
<!-- Node1&#45;&gt;Node6 -->
<g id="edge5_Node000001_Node000006" class="edge">
<title>Node1&#45;&gt;Node6</title>
<g id="a_edge5_Node000001_Node000006"><a xlink:title=" ">
<path fill="none" stroke="#63b8ff" d="M119.95,-95.44C137.24,-90.62 156.55,-85.23 174.46,-80.23"/>
<polygon fill="#63b8ff" stroke="#63b8ff" points="175.55,-83.56 184.24,-77.5 173.67,-76.82 175.55,-83.56"/>
</a>
</g>
</g>
<!-- Node4 -->
<g id="Node000004" class="node">
<title>Node4</title>
<g id="a_Node000004"><a xlink:href="group__ConfigValueGetters.html#gaa25cec73939b4d9bd7419f553faae0cb" target="_top" xlink:title="Get string configuration value.">
<polygon fill="white" stroke="#666666" points="472,-123.5 360,-123.5 360,-93.5 472,-93.5 472,-123.5"/>
<text text-anchor="start" x="368" y="-111.5" font-family="Helvetica,sans-Serif" font-size="10.00">ConfigManager::get</text>
<text text-anchor="middle" x="416" y="-100.5" font-family="Helvetica,sans-Serif" font-size="10.00">_string</text>
</a>
</g>
</g>
<!-- Node3&#45;&gt;Node4 -->
<g id="edge3_Node000003_Node000004" class="edge">
<title>Node3&#45;&gt;Node4</title>
<g id="a_edge3_Node000003_Node000004"><a xlink:title=" ">
<path fill="none" stroke="#63b8ff" d="M312.19,-109.67C324.62,-109.53 337.48,-109.39 349.71,-109.25"/>
<polygon fill="#63b8ff" stroke="#63b8ff" points="349.86,-112.74 359.82,-109.13 349.78,-105.75 349.86,-112.74"/>
</a>
</g>
</g>
<!-- Node5 -->
<g id="Node000005" class="node">
<title>Node5</title>
<g id="a_Node000005"><a xlink:href="group__ConfigInternals.html#ga5e387d61b1f34873cd3ab047242b2aad" target="_top" xlink:title="Template method for type&#45;safe value conversion.">
<polygon fill="white" stroke="#666666" points="653,-80.5 520,-80.5 520,-50.5 653,-50.5 653,-80.5"/>
<text text-anchor="start" x="528" y="-68.5" font-family="Helvetica,sans-Serif" font-size="10.00">ConfigManager::convert</text>
<text text-anchor="middle" x="586.5" y="-57.5" font-family="Helvetica,sans-Serif" font-size="10.00">_value</text>
</a>
</g>
</g>
<!-- Node4&#45;&gt;Node5 -->
<g id="edge4_Node000004_Node000005" class="edge">
<title>Node4&#45;&gt;Node5</title>
<g id="a_edge4_Node000004_Node000005"><a xlink:title=" ">
<path fill="none" stroke="#63b8ff" d="M472.17,-94.42C486.29,-90.82 501.64,-86.9 516.36,-83.14"/>
<polygon fill="#63b8ff" stroke="#63b8ff" points="517.61,-86.44 526.43,-80.57 515.88,-79.66 517.61,-86.44"/>
</a>
</g>
</g>
<!-- Node6&#45;&gt;Node4 -->
<g id="edge7_Node000006_Node000004" class="edge">
<title>Node6&#45;&gt;Node4</title>
<g id="a_edge7_Node000006_Node000004"><a xlink:title=" ">
<path fill="none" stroke="#63b8ff" d="M295.37,-77.05C312.78,-81.63 332.15,-86.72 350.15,-91.45"/>
<polygon fill="#63b8ff" stroke="#63b8ff" points="349.43,-94.88 359.99,-94.04 351.21,-88.11 349.43,-94.88"/>
</a>
</g>
</g>
<!-- Node6&#45;&gt;Node5 -->
<g id="edge6_Node000006_Node000005" class="edge">
<title>Node6&#45;&gt;Node5</title>
<g id="a_edge6_Node000006_Node000005"><a xlink:title=" ">
<path fill="none" stroke="#63b8ff" d="M295.13,-62.98C353.18,-63.48 444.97,-64.28 509.79,-64.84"/>
<polygon fill="#63b8ff" stroke="#63b8ff" points="509.92,-68.34 519.95,-64.93 509.98,-61.34 509.92,-68.34"/>
</a>
</g>
</g>
<!-- Node7 -->
<g id="Node000007" class="node">
<title>Node7</title>
<g id="a_Node000007"><a xlink:href="group__ConfigValueGetters.html#gada707986c94dbf811fd5b00f7ee52911" target="_top" xlink:title="Get unsigned integer configuration value.">
<polygon fill="white" stroke="#666666" points="484,-19 348,-19 348,0 484,0 484,-19"/>
<text text-anchor="middle" x="416" y="-7" font-family="Helvetica,sans-Serif" font-size="10.00">ConfigManager::get_uint</text>
</a>
</g>
</g>
<!-- Node6&#45;&gt;Node7 -->
<g id="edge8_Node000006_Node000007" class="edge">
<title>Node6&#45;&gt;Node7</title>
<g id="a_edge8_Node000006_Node000007"><a xlink:title=" ">
<path fill="none" stroke="#63b8ff" d="M289.68,-47.45C316.26,-39.4 348.62,-29.61 373.79,-21.98"/>
<polygon fill="#63b8ff" stroke="#63b8ff" points="374.85,-25.32 383.4,-19.07 372.82,-18.62 374.85,-25.32"/>
</a>
</g>
</g>
<!-- Node7&#45;&gt;Node5 -->
<g id="edge9_Node000007_Node000005" class="edge">
<title>Node7&#45;&gt;Node5</title>
<g id="a_edge9_Node000007_Node000005"><a xlink:title=" ">
<path fill="none" stroke="#63b8ff" d="M445.97,-19.13C469.11,-26.82 502.23,-37.83 530.39,-47.18"/>
<polygon fill="#63b8ff" stroke="#63b8ff" points="529.53,-50.59 540.12,-50.42 531.73,-43.94 529.53,-50.59"/>
</a>
</g>
</g>
<!-- Node7&#45;&gt;Node7 -->
<g id="edge10_Node000007_Node000007" class="edge">
<title>Node7&#45;&gt;Node7</title>
<g id="a_edge10_Node000007_Node000007"><a xlink:title=" ">
<path fill="none" stroke="#63b8ff" d="M389.8,-19.08C377.05,-27.73 385.79,-37 416,-37 436.3,-37 446.9,-32.82 447.81,-27.45"/>
<polygon fill="#63b8ff" stroke="#63b8ff" points="450.68,-25.44 442.2,-19.08 444.86,-29.34 450.68,-25.44"/>
</a>
</g>
</g>
</g>
</svg>
