<?xml version="1.0" encoding="UTF-8" standalone="no"?>
<!DOCTYPE svg PUBLIC "-//W3C//DTD SVG 1.1//EN"
 "http://www.w3.org/Graphics/SVG/1.1/DTD/svg11.dtd">
<!-- Generated by graphviz version 2.43.0 (0)
 -->
<!-- Title: ConfigUtils::is_valid_extension Pages: 1 -->
<svg width="1176pt" height="127pt"
 viewBox="0.00 0.00 1176.00 126.56" xmlns="http://www.w3.org/2000/svg" xmlns:xlink="http://www.w3.org/1999/xlink">
<g id="graph0" class="graph" transform="scale(1 1) rotate(0) translate(4 122.56)">
<title>ConfigUtils::is_valid_extension</title>
<!-- Node1 -->
<g id="Node000001" class="node">
<title>Node1</title>
<g id="a_Node000001"><a xlink:title="Validate file extension format.">
<polygon fill="#999999" stroke="#666666" points="1168,-73 1055,-73 1055,-43 1168,-43 1168,-73"/>
<text text-anchor="start" x="1063" y="-61" font-family="Helvetica,sans-Serif" font-size="10.00">ConfigUtils::is_valid</text>
<text text-anchor="middle" x="1111.5" y="-50" font-family="Helvetica,sans-Serif" font-size="10.00">_extension</text>
</a>
</g>
</g>
<!-- Node2 -->
<g id="Node000002" class="node">
<title>Node2</title>
<g id="a_Node000002"><a xlink:href="group__ConfigValidation.html#gac6254d405c53ed8f433ab6d2785c0a90" target="_top" xlink:title="Validate file extension configuration values.">
<polygon fill="white" stroke="#666666" points="1019,-73 883,-73 883,-43 1019,-43 1019,-73"/>
<text text-anchor="start" x="891" y="-61" font-family="Helvetica,sans-Serif" font-size="10.00">ConfigManager::validate</text>
<text text-anchor="middle" x="951" y="-50" font-family="Helvetica,sans-Serif" font-size="10.00">_file_extensions</text>
</a>
</g>
</g>
<!-- Node1&#45;&gt;Node2 -->
<g id="edge1_Node000001_Node000002" class="edge">
<title>Node1&#45;&gt;Node2</title>
<g id="a_edge1_Node000001_Node000002"><a xlink:title=" ">
<path fill="none" stroke="#63b8ff" d="M1044.49,-58C1036.09,-58 1027.48,-58 1019.06,-58"/>
<polygon fill="#63b8ff" stroke="#63b8ff" points="1044.62,-61.5 1054.62,-58 1044.62,-54.5 1044.62,-61.5"/>
</a>
</g>
</g>
<!-- Node3 -->
<g id="Node000003" class="node">
<title>Node3</title>
<g id="a_Node000003"><a xlink:href="group__ConfigValidation.html#ga3b0a3320c46ed448da49cea015ea4b31" target="_top" xlink:title="Validate all configuration values for correctness and consistency.">
<polygon fill="white" stroke="#666666" points="847,-73 711,-73 711,-43 847,-43 847,-73"/>
<text text-anchor="start" x="719" y="-61" font-family="Helvetica,sans-Serif" font-size="10.00">ConfigManager::validate</text>
<text text-anchor="middle" x="779" y="-50" font-family="Helvetica,sans-Serif" font-size="10.00">_config</text>
</a>
</g>
</g>
<!-- Node2&#45;&gt;Node3 -->
<g id="edge2_Node000002_Node000003" class="edge">
<title>Node2&#45;&gt;Node3</title>
<g id="a_edge2_Node000002_Node000003"><a xlink:title=" ">
<path fill="none" stroke="#63b8ff" d="M872.58,-58C864.12,-58 855.57,-58 847.26,-58"/>
<polygon fill="#63b8ff" stroke="#63b8ff" points="872.81,-61.5 882.81,-58 872.81,-54.5 872.81,-61.5"/>
</a>
</g>
</g>
<!-- Node4 -->
<g id="Node000004" class="node">
<title>Node4</title>
<g id="a_Node000004"><a xlink:href="group__ConfigLoading.html#gadb55801d91871e98b5c5da2acd289a35" target="_top" xlink:title="Load configuration from file with error handling.">
<polygon fill="white" stroke="#666666" points="675,-73 558,-73 558,-43 675,-43 675,-73"/>
<text text-anchor="start" x="566" y="-61" font-family="Helvetica,sans-Serif" font-size="10.00">ConfigManager::load</text>
<text text-anchor="middle" x="616.5" y="-50" font-family="Helvetica,sans-Serif" font-size="10.00">_config</text>
</a>
</g>
</g>
<!-- Node3&#45;&gt;Node4 -->
<g id="edge3_Node000003_Node000004" class="edge">
<title>Node3&#45;&gt;Node4</title>
<g id="a_edge3_Node000003_Node000004"><a xlink:title=" ">
<path fill="none" stroke="#63b8ff" d="M700.79,-58C692.17,-58 683.51,-58 675.2,-58"/>
<polygon fill="#63b8ff" stroke="#63b8ff" points="700.86,-61.5 710.86,-58 700.86,-54.5 700.86,-61.5"/>
</a>
</g>
</g>
<!-- Node5 -->
<g id="Node000005" class="node">
<title>Node5</title>
<g id="a_Node000005"><a xlink:href="group__CommandExecutors.html#ga1389de38a8f4d50be08ded6a0240627f" target="_top" xlink:title="Load and initialize configuration system.">
<polygon fill="white" stroke="#666666" points="520.5,-116 396.5,-116 396.5,-86 520.5,-86 520.5,-116"/>
<text text-anchor="start" x="404.5" y="-104" font-family="Helvetica,sans-Serif" font-size="10.00">CommandParser::load</text>
<text text-anchor="middle" x="458.5" y="-93" font-family="Helvetica,sans-Serif" font-size="10.00">_configuration</text>
</a>
</g>
</g>
<!-- Node4&#45;&gt;Node5 -->
<g id="edge4_Node000004_Node000005" class="edge">
<title>Node4&#45;&gt;Node5</title>
<g id="a_edge4_Node000004_Node000005"><a xlink:title=" ">
<path fill="none" stroke="#63b8ff" d="M551.17,-75.73C538.83,-79.13 526.02,-82.66 514.03,-85.97"/>
<polygon fill="#63b8ff" stroke="#63b8ff" points="552.23,-79.07 560.94,-73.04 550.37,-72.32 552.23,-79.07"/>
</a>
</g>
</g>
<!-- Node7 -->
<g id="Node000007" class="node">
<title>Node7</title>
<g id="a_Node000007"><a xlink:href="main_8cpp.html#a0ddf1224851353fc92bfbff6f499fa97" target="_top" xlink:title="Main entry point for the Gaussian Extractor application.">
<polygon fill="white" stroke="#666666" points="41,-105.5 0,-105.5 0,-86.5 41,-86.5 41,-105.5"/>
<text text-anchor="middle" x="20.5" y="-93.5" font-family="Helvetica,sans-Serif" font-size="10.00">main</text>
</a>
</g>
</g>
<!-- Node4&#45;&gt;Node7 -->
<g id="edge9_Node000004_Node000007" class="edge">
<title>Node4&#45;&gt;Node7</title>
<g id="a_edge9_Node000004_Node000007"><a xlink:title=" ">
<path fill="none" stroke="#63b8ff" d="M547.68,-54.06C444.9,-49.51 243.98,-46.17 77,-77 64.78,-79.26 51.6,-83.68 41.16,-87.69"/>
<polygon fill="#63b8ff" stroke="#63b8ff" points="547.76,-57.57 557.91,-54.53 548.08,-50.58 547.76,-57.57"/>
</a>
</g>
</g>
<!-- Node9 -->
<g id="Node000009" class="node">
<title>Node9</title>
<g id="a_Node000009"><a xlink:href="group__ConfigLoading.html#gad792b6c3fe11b0bd927622b2e0966bf5" target="_top" xlink:title="Reload configuration from the previously loaded file.">
<polygon fill="white" stroke="#666666" points="522,-30 395,-30 395,0 522,0 522,-30"/>
<text text-anchor="start" x="403" y="-18" font-family="Helvetica,sans-Serif" font-size="10.00">ConfigManager::reload</text>
<text text-anchor="middle" x="458.5" y="-7" font-family="Helvetica,sans-Serif" font-size="10.00">_config</text>
</a>
</g>
</g>
<!-- Node4&#45;&gt;Node9 -->
<g id="edge10_Node000004_Node000009" class="edge">
<title>Node4&#45;&gt;Node9</title>
<g id="a_edge10_Node000004_Node000009"><a xlink:title=" ">
<path fill="none" stroke="#63b8ff" d="M551.17,-40.27C538.83,-36.87 526.02,-33.34 514.03,-30.03"/>
<polygon fill="#63b8ff" stroke="#63b8ff" points="550.37,-43.68 560.94,-42.96 552.23,-36.93 550.37,-43.68"/>
</a>
</g>
</g>
<!-- Node6 -->
<g id="Node000006" class="node">
<title>Node6</title>
<g id="a_Node000006"><a xlink:href="group__CommandExecutors.html#ga2c1ceafe241a0b4e19790bb5d878ed1a" target="_top" xlink:title="Parse command&#45;line arguments and create execution context.">
<polygon fill="white" stroke="#666666" points="359,-110.5 229,-110.5 229,-91.5 359,-91.5 359,-110.5"/>
<text text-anchor="middle" x="294" y="-98.5" font-family="Helvetica,sans-Serif" font-size="10.00">CommandParser::parse</text>
</a>
</g>
</g>
<!-- Node5&#45;&gt;Node6 -->
<g id="edge5_Node000005_Node000006" class="edge">
<title>Node5&#45;&gt;Node6</title>
<g id="a_edge5_Node000005_Node000006"><a xlink:title=" ">
<path fill="none" stroke="#63b8ff" d="M385.78,-101C376.94,-101 367.95,-101 359.23,-101"/>
<polygon fill="#63b8ff" stroke="#63b8ff" points="386.07,-104.5 396.07,-101 386.07,-97.5 386.07,-104.5"/>
</a>
</g>
</g>
<!-- Node6&#45;&gt;Node7 -->
<g id="edge6_Node000006_Node000007" class="edge">
<title>Node6&#45;&gt;Node7</title>
<g id="a_edge6_Node000006_Node000007"><a xlink:title=" ">
<path fill="none" stroke="#63b8ff" d="M229.78,-111.97C186.53,-117.72 128.01,-122.07 77,-114 64.79,-112.07 51.62,-107.89 41.17,-104.05"/>
<polygon fill="#63b8ff" stroke="#63b8ff" points="230.45,-115.41 239.87,-110.56 229.49,-108.47 230.45,-115.41"/>
</a>
</g>
</g>
<!-- Node8 -->
<g id="Node000008" class="node">
<title>Node8</title>
<g id="a_Node000008"><a xlink:href="interactive__mode_8cpp.html#a6b615c34054150d837dc45ed1c17b297" target="_top" xlink:title="Enhanced interactive command loop with TAB completion for Windows.">
<polygon fill="white" stroke="#666666" points="193,-105.5 77,-105.5 77,-86.5 193,-86.5 193,-105.5"/>
<text text-anchor="middle" x="135" y="-93.5" font-family="Helvetica,sans-Serif" font-size="10.00">run_interactive_loop</text>
</a>
</g>
</g>
<!-- Node6&#45;&gt;Node8 -->
<g id="edge7_Node000006_Node000008" class="edge">
<title>Node6&#45;&gt;Node8</title>
<g id="a_edge7_Node000006_Node000008"><a xlink:title=" ">
<path fill="none" stroke="#63b8ff" d="M218.47,-98.63C210.05,-98.36 201.57,-98.09 193.41,-97.83"/>
<polygon fill="#63b8ff" stroke="#63b8ff" points="218.58,-102.13 228.69,-98.95 218.81,-95.14 218.58,-102.13"/>
</a>
</g>
</g>
<!-- Node8&#45;&gt;Node7 -->
<g id="edge8_Node000008_Node000007" class="edge">
<title>Node8&#45;&gt;Node7</title>
<g id="a_edge8_Node000008_Node000007"><a xlink:title=" ">
<path fill="none" stroke="#63b8ff" d="M66.62,-96C57.37,-96 48.55,-96 41.19,-96"/>
<polygon fill="#63b8ff" stroke="#63b8ff" points="66.76,-99.5 76.76,-96 66.76,-92.5 66.76,-99.5"/>
</a>
</g>
</g>
</g>
</svg>
