<?xml version="1.0" encoding="UTF-8" standalone="no"?>
<!DOCTYPE svg PUBLIC "-//W3C//DTD SVG 1.1//EN"
 "http://www.w3.org/Graphics/SVG/1.1/DTD/svg11.dtd">
<!-- Generated by graphviz version 2.43.0 (0)
 -->
<!-- Title: JobSchedulerDetector::detect_lsf_resources Pages: 1 -->
<svg width="463pt" height="172pt"
 viewBox="0.00 0.00 463.00 172.00" xmlns="http://www.w3.org/2000/svg" xmlns:xlink="http://www.w3.org/1999/xlink">
<g id="graph0" class="graph" transform="scale(1 1) rotate(0) translate(4 168)">
<title>JobSchedulerDetector::detect_lsf_resources</title>
<!-- Node1 -->
<g id="Node000001" class="node">
<title>Node1</title>
<g id="a_Node000001"><a xlink:title="Extract resource information from LSF environment.">
<polygon fill="#999999" stroke="#666666" points="123,-99 0,-99 0,-69 123,-69 123,-99"/>
<text text-anchor="start" x="8" y="-87" font-family="Helvetica,sans-Serif" font-size="10.00">JobSchedulerDetector</text>
<text text-anchor="middle" x="61.5" y="-76" font-family="Helvetica,sans-Serif" font-size="10.00">::detect_lsf_resources</text>
</a>
</g>
</g>
<!-- Node2 -->
<g id="Node000002" class="node">
<title>Node2</title>
<g id="a_Node000002"><a xlink:href="group__EnvironmentHelpers.html#gade9468a3b205731f1aa25d53a32edeca" target="_top" xlink:title="Get long integer environment variable value.">
<polygon fill="white" stroke="#666666" points="289,-164 167,-164 167,-134 289,-134 289,-164"/>
<text text-anchor="start" x="175" y="-152" font-family="Helvetica,sans-Serif" font-size="10.00">JobSchedulerDetector</text>
<text text-anchor="middle" x="228" y="-141" font-family="Helvetica,sans-Serif" font-size="10.00">::get_env_long</text>
</a>
</g>
</g>
<!-- Node1&#45;&gt;Node2 -->
<g id="edge1_Node000001_Node000002" class="edge">
<title>Node1&#45;&gt;Node2</title>
<g id="a_edge1_Node000001_Node000002"><a xlink:title=" ">
<path fill="none" stroke="#63b8ff" d="M100.65,-99.08C124.13,-108.35 154.42,-120.32 179.46,-130.21"/>
<polygon fill="#63b8ff" stroke="#63b8ff" points="178.18,-133.47 188.77,-133.89 180.76,-126.96 178.18,-133.47"/>
</a>
</g>
</g>
<!-- Node3 -->
<g id="Node000003" class="node">
<title>Node3</title>
<g id="a_Node000003"><a xlink:href="group__EnvironmentHelpers.html#ga462d9065c82e9250768f5fe6cea9929b" target="_top" xlink:title="Get environment variable value with default fallback.">
<polygon fill="white" stroke="#666666" points="455,-99 333,-99 333,-69 455,-69 455,-99"/>
<text text-anchor="start" x="341" y="-87" font-family="Helvetica,sans-Serif" font-size="10.00">JobSchedulerDetector</text>
<text text-anchor="middle" x="394" y="-76" font-family="Helvetica,sans-Serif" font-size="10.00">::get_env_var</text>
</a>
</g>
</g>
<!-- Node1&#45;&gt;Node3 -->
<g id="edge2_Node000001_Node000003" class="edge">
<title>Node1&#45;&gt;Node3</title>
<g id="a_edge2_Node000001_Node000003"><a xlink:title=" ">
<path fill="none" stroke="#63b8ff" d="M123.24,-86.18C135.1,-86.52 147.44,-86.82 159,-87 220.33,-87.95 235.67,-87.96 297,-87 305.33,-86.87 314.06,-86.68 322.73,-86.45"/>
<polygon fill="#63b8ff" stroke="#63b8ff" points="322.94,-89.94 332.83,-86.17 322.74,-82.95 322.94,-89.94"/>
</a>
</g>
</g>
<!-- Node4 -->
<g id="Node000004" class="node">
<title>Node4</title>
<g id="a_Node000004"><a xlink:href="group__DetectionMethods.html#ga34ce79ae6eec92775d73cb4692c52566" target="_top" xlink:title="Extract job ID from scheduler environment.">
<polygon fill="white" stroke="#666666" points="289,-78 167,-78 167,-48 289,-48 289,-78"/>
<text text-anchor="start" x="175" y="-66" font-family="Helvetica,sans-Serif" font-size="10.00">JobSchedulerDetector</text>
<text text-anchor="middle" x="228" y="-55" font-family="Helvetica,sans-Serif" font-size="10.00">::get_job_id</text>
</a>
</g>
</g>
<!-- Node1&#45;&gt;Node4 -->
<g id="edge3_Node000001_Node000004" class="edge">
<title>Node1&#45;&gt;Node4</title>
<g id="a_edge3_Node000001_Node000004"><a xlink:title=" ">
<path fill="none" stroke="#63b8ff" d="M123.29,-76.24C134.15,-74.85 145.55,-73.4 156.65,-71.98"/>
<polygon fill="#63b8ff" stroke="#63b8ff" points="157.26,-75.43 166.74,-70.69 156.37,-68.49 157.26,-75.43"/>
</a>
</g>
</g>
<!-- Node5 -->
<g id="Node000005" class="node">
<title>Node5</title>
<g id="a_Node000005"><a xlink:href="group__PrivateParsers.html#gaef6c0a64fcb73d01deb070200fd84a52" target="_top" xlink:title="Parse general memory format strings.">
<polygon fill="white" stroke="#666666" points="297,-30 159,-30 159,0 297,0 297,-30"/>
<text text-anchor="start" x="167" y="-18" font-family="Helvetica,sans-Serif" font-size="10.00">JobSchedulerDetector</text>
<text text-anchor="middle" x="228" y="-7" font-family="Helvetica,sans-Serif" font-size="10.00">::parse_general_memory</text>
</a>
</g>
</g>
<!-- Node1&#45;&gt;Node5 -->
<g id="edge5_Node000001_Node000005" class="edge">
<title>Node1&#45;&gt;Node5</title>
<g id="a_edge5_Node000001_Node000005"><a xlink:title=" ">
<path fill="none" stroke="#63b8ff" d="M93.02,-68.84C111.84,-59.73 136.58,-48.16 159,-39 163.47,-37.17 168.14,-35.35 172.85,-33.57"/>
<polygon fill="#63b8ff" stroke="#63b8ff" points="174.34,-36.75 182.51,-30 171.91,-30.19 174.34,-36.75"/>
</a>
</g>
</g>
<!-- Node4&#45;&gt;Node3 -->
<g id="edge4_Node000004_Node000003" class="edge">
<title>Node4&#45;&gt;Node3</title>
<g id="a_edge4_Node000004_Node000003"><a xlink:title=" ">
<path fill="none" stroke="#63b8ff" d="M289.14,-70.7C300.05,-72.1 311.53,-73.57 322.71,-75"/>
<polygon fill="#63b8ff" stroke="#63b8ff" points="322.51,-78.5 332.87,-76.3 323.4,-71.56 322.51,-78.5"/>
</a>
</g>
</g>
</g>
</svg>
