<?xml version="1.0" encoding="UTF-8" standalone="no"?>
<!DOCTYPE svg PUBLIC "-//W3C//DTD SVG 1.1//EN"
 "http://www.w3.org/Graphics/SVG/1.1/DTD/svg11.dtd">
<!-- Generated by graphviz version 2.43.0 (0)
 -->
<!-- Title: ConfigManager::get_keys_by_category Pages: 1 -->
<svg width="1009pt" height="136pt"
 viewBox="0.00 0.00 1009.00 135.76" xmlns="http://www.w3.org/2000/svg" xmlns:xlink="http://www.w3.org/1999/xlink">
<g id="graph0" class="graph" transform="scale(1 1) rotate(0) translate(4 131.76)">
<title>ConfigManager::get_keys_by_category</title>
<!-- Node1 -->
<g id="Node000001" class="node">
<title>Node1</title>
<g id="a_Node000001"><a xlink:title="Get all configuration keys belonging to a specific category.">
<polygon fill="#999999" stroke="#666666" points="1001,-51 889,-51 889,-21 1001,-21 1001,-51"/>
<text text-anchor="start" x="897" y="-39" font-family="Helvetica,sans-Serif" font-size="10.00">ConfigManager::get</text>
<text text-anchor="middle" x="945" y="-28" font-family="Helvetica,sans-Serif" font-size="10.00">_keys_by_category</text>
</a>
</g>
</g>
<!-- Node2 -->
<g id="Node000002" class="node">
<title>Node2</title>
<g id="a_Node000002"><a xlink:href="group__ConfigStatus.html#ga7c7cdb2c9c181a160a58bfe1b87284f8" target="_top" xlink:title="Print complete configuration file template.">
<polygon fill="white" stroke="#666666" points="853,-92 732,-92 732,-62 853,-62 853,-92"/>
<text text-anchor="start" x="740" y="-80" font-family="Helvetica,sans-Serif" font-size="10.00">ConfigManager::print</text>
<text text-anchor="middle" x="792.5" y="-69" font-family="Helvetica,sans-Serif" font-size="10.00">_config_file_template</text>
</a>
</g>
</g>
<!-- Node1&#45;&gt;Node2 -->
<g id="edge1_Node000001_Node000002" class="edge">
<title>Node1&#45;&gt;Node2</title>
<g id="a_edge1_Node000001_Node000002"><a xlink:title=" ">
<path fill="none" stroke="#63b8ff" d="M878.86,-53.75C868.8,-56.49 858.49,-59.29 848.68,-61.97"/>
<polygon fill="#63b8ff" stroke="#63b8ff" points="880.09,-57.04 888.81,-51.03 878.25,-50.29 880.09,-57.04"/>
</a>
</g>
</g>
<!-- Node9 -->
<g id="Node000009" class="node">
<title>Node9</title>
<g id="a_Node000009"><a xlink:href="group__ConfigStatus.html#gab5aad341109694222f7f1ee2665d5294" target="_top" xlink:title="Print summary of current configuration values.">
<polygon fill="white" stroke="#666666" points="523.5,-30 404.5,-30 404.5,0 523.5,0 523.5,-30"/>
<text text-anchor="start" x="412.5" y="-18" font-family="Helvetica,sans-Serif" font-size="10.00">ConfigManager::print</text>
<text text-anchor="middle" x="464" y="-7" font-family="Helvetica,sans-Serif" font-size="10.00">_config_summary</text>
</a>
</g>
</g>
<!-- Node1&#45;&gt;Node9 -->
<g id="edge12_Node000001_Node000009" class="edge">
<title>Node1&#45;&gt;Node9</title>
<g id="a_edge12_Node000001_Node000009"><a xlink:title=" ">
<path fill="none" stroke="#63b8ff" d="M878.37,-33.12C784.53,-29.01 613.47,-21.51 523.65,-17.57"/>
<polygon fill="#63b8ff" stroke="#63b8ff" points="878.44,-36.63 888.58,-33.57 878.75,-29.64 878.44,-36.63"/>
</a>
</g>
</g>
<!-- Node3 -->
<g id="Node000003" class="node">
<title>Node3</title>
<g id="a_Node000003"><a xlink:href="group__CommandExecutors.html#ga073f786afa47506d32c7912828cd40ea" target="_top" xlink:title="Create a default configuration file.">
<polygon fill="white" stroke="#666666" points="531,-78 397,-78 397,-48 531,-48 531,-78"/>
<text text-anchor="start" x="405" y="-66" font-family="Helvetica,sans-Serif" font-size="10.00">CommandParser::create</text>
<text text-anchor="middle" x="464" y="-55" font-family="Helvetica,sans-Serif" font-size="10.00">_default_config</text>
</a>
</g>
</g>
<!-- Node2&#45;&gt;Node3 -->
<g id="edge2_Node000002_Node000003" class="edge">
<title>Node2&#45;&gt;Node3</title>
<g id="a_edge2_Node000002_Node000003"><a xlink:title=" ">
<path fill="none" stroke="#63b8ff" d="M721.78,-73.24C713.1,-72.81 704.34,-72.38 696,-72 640.47,-69.46 577.41,-67.04 531.23,-65.35"/>
<polygon fill="#63b8ff" stroke="#63b8ff" points="721.74,-76.74 731.9,-73.76 722.09,-69.75 721.74,-76.74"/>
</a>
</g>
</g>
<!-- Node6 -->
<g id="Node000006" class="node">
<title>Node6</title>
<g id="a_Node000006"><a xlink:href="namespaceHelpUtils.html#aa496c9db09fcfa776df8300da1cc2711" target="_top" xlink:title="Create default configuration file.">
<polygon fill="white" stroke="#666666" points="533,-126 395,-126 395,-96 533,-96 533,-126"/>
<text text-anchor="start" x="403" y="-114" font-family="Helvetica,sans-Serif" font-size="10.00">HelpUtils::create_default</text>
<text text-anchor="middle" x="464" y="-103" font-family="Helvetica,sans-Serif" font-size="10.00">_config</text>
</a>
</g>
</g>
<!-- Node2&#45;&gt;Node6 -->
<g id="edge5_Node000002_Node000006" class="edge">
<title>Node2&#45;&gt;Node6</title>
<g id="a_edge5_Node000002_Node000006"><a xlink:title=" ">
<path fill="none" stroke="#63b8ff" d="M756.51,-97.06C738.95,-105.99 717,-115.49 696,-120 642.14,-131.57 579.64,-128.14 533.24,-122.48"/>
<polygon fill="#63b8ff" stroke="#63b8ff" points="758.55,-99.94 765.78,-92.19 755.29,-93.74 758.55,-99.94"/>
</a>
</g>
</g>
<!-- Node8 -->
<g id="Node000008" class="node">
<title>Node8</title>
<g id="a_Node000008"><a xlink:href="group__ConfigLoading.html#ga70d81aba8b72b69f84c682808f04e043" target="_top" xlink:title="Create a default configuration file with all options.">
<polygon fill="white" stroke="#666666" points="696,-111 569,-111 569,-81 696,-81 696,-111"/>
<text text-anchor="start" x="577" y="-99" font-family="Helvetica,sans-Serif" font-size="10.00">ConfigManager::create</text>
<text text-anchor="middle" x="632.5" y="-88" font-family="Helvetica,sans-Serif" font-size="10.00">_default_config_file</text>
</a>
</g>
</g>
<!-- Node2&#45;&gt;Node8 -->
<g id="edge9_Node000002_Node000008" class="edge">
<title>Node2&#45;&gt;Node8</title>
<g id="a_edge9_Node000002_Node000008"><a xlink:title=" ">
<path fill="none" stroke="#63b8ff" d="M721.57,-85.41C713.12,-86.42 704.54,-87.46 696.21,-88.46"/>
<polygon fill="#63b8ff" stroke="#63b8ff" points="722.26,-88.85 731.77,-84.18 721.42,-81.9 722.26,-88.85"/>
</a>
</g>
</g>
<!-- Node4 -->
<g id="Node000004" class="node">
<title>Node4</title>
<g id="a_Node000004"><a xlink:href="interactive__mode_8cpp.html#a6b615c34054150d837dc45ed1c17b297" target="_top" xlink:title="Enhanced interactive command loop with TAB completion for Windows.">
<polygon fill="white" stroke="#666666" points="193,-69.5 77,-69.5 77,-50.5 193,-50.5 193,-69.5"/>
<text text-anchor="middle" x="135" y="-57.5" font-family="Helvetica,sans-Serif" font-size="10.00">run_interactive_loop</text>
</a>
</g>
</g>
<!-- Node3&#45;&gt;Node4 -->
<g id="edge3_Node000003_Node000004" class="edge">
<title>Node3&#45;&gt;Node4</title>
<g id="a_edge3_Node000003_Node000004"><a xlink:title=" ">
<path fill="none" stroke="#63b8ff" d="M386.78,-62.3C327.57,-61.76 246.77,-61.02 193.07,-60.52"/>
<polygon fill="#63b8ff" stroke="#63b8ff" points="386.79,-65.8 396.83,-62.39 386.86,-58.8 386.79,-65.8"/>
</a>
</g>
</g>
<!-- Node5 -->
<g id="Node000005" class="node">
<title>Node5</title>
<g id="a_Node000005"><a xlink:href="main_8cpp.html#a0ddf1224851353fc92bfbff6f499fa97" target="_top" xlink:title="Main entry point for the Gaussian Extractor application.">
<polygon fill="white" stroke="#666666" points="41,-88.5 0,-88.5 0,-69.5 41,-69.5 41,-88.5"/>
<text text-anchor="middle" x="20.5" y="-76.5" font-family="Helvetica,sans-Serif" font-size="10.00">main</text>
</a>
</g>
</g>
<!-- Node4&#45;&gt;Node5 -->
<g id="edge4_Node000004_Node000005" class="edge">
<title>Node4&#45;&gt;Node5</title>
<g id="a_edge4_Node000004_Node000005"><a xlink:title=" ">
<path fill="none" stroke="#63b8ff" d="M67.4,-71.25C57.88,-72.86 48.77,-74.39 41.22,-75.67"/>
<polygon fill="#63b8ff" stroke="#63b8ff" points="68.14,-74.67 77.42,-69.56 66.98,-67.77 68.14,-74.67"/>
</a>
</g>
</g>
<!-- Node7 -->
<g id="Node000007" class="node">
<title>Node7</title>
<g id="a_Node000007"><a xlink:href="group__CommandExecutors.html#ga2c1ceafe241a0b4e19790bb5d878ed1a" target="_top" xlink:title="Parse command&#45;line arguments and create execution context.">
<polygon fill="white" stroke="#666666" points="359,-107.5 229,-107.5 229,-88.5 359,-88.5 359,-107.5"/>
<text text-anchor="middle" x="294" y="-95.5" font-family="Helvetica,sans-Serif" font-size="10.00">CommandParser::parse</text>
</a>
</g>
</g>
<!-- Node6&#45;&gt;Node7 -->
<g id="edge6_Node000006_Node000007" class="edge">
<title>Node6&#45;&gt;Node7</title>
<g id="a_edge6_Node000006_Node000007"><a xlink:title=" ">
<path fill="none" stroke="#63b8ff" d="M384.42,-104.92C375.98,-104.27 367.45,-103.61 359.2,-102.97"/>
<polygon fill="#63b8ff" stroke="#63b8ff" points="384.43,-108.43 394.67,-105.71 384.97,-101.45 384.43,-108.43"/>
</a>
</g>
</g>
<!-- Node7&#45;&gt;Node4 -->
<g id="edge8_Node000007_Node000004" class="edge">
<title>Node7&#45;&gt;Node4</title>
<g id="a_edge8_Node000007_Node000004"><a xlink:title=" ">
<path fill="none" stroke="#63b8ff" d="M243.55,-86.03C221.55,-80.71 196.01,-74.52 175.33,-69.52"/>
<polygon fill="#63b8ff" stroke="#63b8ff" points="242.84,-89.46 253.38,-88.41 244.49,-82.66 242.84,-89.46"/>
</a>
</g>
</g>
<!-- Node7&#45;&gt;Node5 -->
<g id="edge7_Node000007_Node000005" class="edge">
<title>Node7&#45;&gt;Node5</title>
<g id="a_edge7_Node000007_Node000005"><a xlink:title=" ">
<path fill="none" stroke="#63b8ff" d="M218.42,-92.78C158.19,-88.57 77.65,-82.93 41.06,-80.37"/>
<polygon fill="#63b8ff" stroke="#63b8ff" points="218.44,-96.29 228.66,-93.5 218.93,-89.31 218.44,-96.29"/>
</a>
</g>
</g>
<!-- Node8&#45;&gt;Node3 -->
<g id="edge10_Node000008_Node000003" class="edge">
<title>Node8&#45;&gt;Node3</title>
<g id="a_edge10_Node000008_Node000003"><a xlink:title=" ">
<path fill="none" stroke="#63b8ff" d="M558.68,-81.57C549.5,-79.75 540.15,-77.9 531.09,-76.1"/>
<polygon fill="#63b8ff" stroke="#63b8ff" points="558.06,-85.01 568.55,-83.52 559.42,-78.15 558.06,-85.01"/>
</a>
</g>
</g>
<!-- Node8&#45;&gt;Node6 -->
<g id="edge11_Node000008_Node000006" class="edge">
<title>Node8&#45;&gt;Node6</title>
<g id="a_edge11_Node000008_Node000006"><a xlink:title=" ">
<path fill="none" stroke="#63b8ff" d="M558.37,-102.59C549.95,-103.35 541.39,-104.12 533.04,-104.87"/>
<polygon fill="#63b8ff" stroke="#63b8ff" points="558.91,-106.05 568.55,-101.67 558.28,-99.08 558.91,-106.05"/>
</a>
</g>
</g>
<!-- Node9&#45;&gt;Node4 -->
<g id="edge14_Node000009_Node000004" class="edge">
<title>Node9&#45;&gt;Node4</title>
<g id="a_edge14_Node000009_Node000004"><a xlink:title=" ">
<path fill="none" stroke="#63b8ff" d="M394.08,-24.48C334.44,-32.69 249.22,-44.42 193.27,-52.12"/>
<polygon fill="#63b8ff" stroke="#63b8ff" points="394.73,-27.93 404.16,-23.1 393.78,-20.99 394.73,-27.93"/>
</a>
</g>
</g>
<!-- Node9&#45;&gt;Node7 -->
<g id="edge13_Node000009_Node000007" class="edge">
<title>Node9&#45;&gt;Node7</title>
<g id="a_edge13_Node000009_Node000007"><a xlink:title=" ">
<path fill="none" stroke="#63b8ff" d="M406.89,-33.82C402.83,-35.48 398.83,-37.21 395,-39 363.03,-53.9 328.04,-76 309.1,-88.49"/>
<polygon fill="#63b8ff" stroke="#63b8ff" points="408.4,-36.99 416.43,-30.08 405.84,-30.48 408.4,-36.99"/>
</a>
</g>
</g>
</g>
</svg>
