<?xml version="1.0" encoding="UTF-8" standalone="no"?>
<!DOCTYPE svg PUBLIC "-//W3C//DTD SVG 1.1//EN"
 "http://www.w3.org/Graphics/SVG/1.1/DTD/svg11.dtd">
<!-- Generated by graphviz version 2.43.0 (0)
 -->
<!-- Title: HighLevelEnergyCalculator::process_single_file_enhanced Pages: 1 -->
<svg width="957pt" height="450pt"
 viewBox="0.00 0.00 957.00 450.00" xmlns="http://www.w3.org/2000/svg" xmlns:xlink="http://www.w3.org/1999/xlink">
<g id="graph0" class="graph" transform="scale(1 1) rotate(0) translate(4 446)">
<title>HighLevelEnergyCalculator::process_single_file_enhanced</title>
<!-- Node1 -->
<g id="Node000001" class="node">
<title>Node1</title>
<g id="a_Node000001"><a xlink:title="Process single file with enhanced error handling.">
<polygon fill="#999999" stroke="#666666" points="167,-236 0,-236 0,-206 167,-206 167,-236"/>
<text text-anchor="start" x="8" y="-224" font-family="Helvetica,sans-Serif" font-size="10.00">HighLevelEnergyCalculator</text>
<text text-anchor="middle" x="83.5" y="-213" font-family="Helvetica,sans-Serif" font-size="10.00">::process_single_file_enhanced</text>
</a>
</g>
</g>
<!-- Node2 -->
<g id="Node000002" class="node">
<title>Node2</title>
<g id="a_Node000002"><a xlink:href="group__MainCalculation.html#gacaba75cc61d8b3ec08efd5976ce4325f" target="_top" xlink:title="Calculate high&#45;level energy for a single file.">
<polygon fill="white" stroke="#666666" points="364,-236 203,-236 203,-206 364,-206 364,-236"/>
<text text-anchor="start" x="211" y="-224" font-family="Helvetica,sans-Serif" font-size="10.00">HighLevelEnergyCalculator</text>
<text text-anchor="middle" x="283.5" y="-213" font-family="Helvetica,sans-Serif" font-size="10.00">::calculate_high_level_energy</text>
</a>
</g>
</g>
<!-- Node1&#45;&gt;Node2 -->
<g id="edge1_Node000001_Node000002" class="edge">
<title>Node1&#45;&gt;Node2</title>
<g id="a_edge1_Node000001_Node000002"><a xlink:title=" ">
<path fill="none" stroke="#63b8ff" d="M167.04,-221C175.58,-221 184.29,-221 192.9,-221"/>
<polygon fill="#63b8ff" stroke="#63b8ff" points="192.96,-224.5 202.96,-221 192.96,-217.5 192.96,-224.5"/>
</a>
</g>
</g>
<!-- Node3 -->
<g id="Node000003" class="node">
<title>Node3</title>
<g id="a_Node000003"><a xlink:href="group__CalculationHelpers.html#ga77837f5437ca34aa38ba7c9518d85480" target="_top" xlink:title="Calculate phase correction for concentration effects.">
<polygon fill="white" stroke="#666666" points="567,-442 412,-442 412,-412 567,-412 567,-442"/>
<text text-anchor="start" x="420" y="-430" font-family="Helvetica,sans-Serif" font-size="10.00">HighLevelEnergyCalculator</text>
<text text-anchor="middle" x="489.5" y="-419" font-family="Helvetica,sans-Serif" font-size="10.00">::calculate_phase_correction</text>
</a>
</g>
</g>
<!-- Node2&#45;&gt;Node3 -->
<g id="edge2_Node000002_Node000003" class="edge">
<title>Node2&#45;&gt;Node3</title>
<g id="a_edge2_Node000002_Node000003"><a xlink:title=" ">
<path fill="none" stroke="#63b8ff" d="M289.72,-236.15C302.6,-271.2 339.29,-358.27 400,-403 401.87,-404.38 403.82,-405.68 405.83,-406.91"/>
<polygon fill="#63b8ff" stroke="#63b8ff" points="404.51,-410.17 414.98,-411.82 407.83,-404.01 404.51,-410.17"/>
</a>
</g>
</g>
<!-- Node4 -->
<g id="Node000004" class="node">
<title>Node4</title>
<g id="a_Node000004"><a xlink:href="group__CalculationHelpers.html#ga375d0ec0aea5fde065c700c0d4ef8a62" target="_top" xlink:title="Calculate thermal correction excluding zero&#45;point energy.">
<polygon fill="white" stroke="#666666" points="564,-394 415,-394 415,-364 564,-364 564,-394"/>
<text text-anchor="start" x="423" y="-382" font-family="Helvetica,sans-Serif" font-size="10.00">HighLevelEnergyCalculator</text>
<text text-anchor="middle" x="489.5" y="-371" font-family="Helvetica,sans-Serif" font-size="10.00">::calculate_thermal_only</text>
</a>
</g>
</g>
<!-- Node2&#45;&gt;Node4 -->
<g id="edge3_Node000002_Node000004" class="edge">
<title>Node2&#45;&gt;Node4</title>
<g id="a_edge3_Node000002_Node000004"><a xlink:title=" ">
<path fill="none" stroke="#63b8ff" d="M293.19,-236.04C310.08,-263.91 350.1,-323.57 400,-355 402.61,-356.64 405.33,-358.18 408.13,-359.61"/>
<polygon fill="#63b8ff" stroke="#63b8ff" points="406.77,-362.83 417.31,-363.82 409.69,-356.47 406.77,-362.83"/>
</a>
</g>
</g>
<!-- Node5 -->
<g id="Node000005" class="node">
<title>Node5</title>
<g id="a_Node000005"><a xlink:href="group__CalculationHelpers.html#ga94758e5fb907b423285c3b2c2ba8ee97" target="_top" xlink:title="Determine job completion status from log file.">
<polygon fill="white" stroke="#666666" points="564,-346 415,-346 415,-316 564,-316 564,-346"/>
<text text-anchor="start" x="423" y="-334" font-family="Helvetica,sans-Serif" font-size="10.00">HighLevelEnergyCalculator</text>
<text text-anchor="middle" x="489.5" y="-323" font-family="Helvetica,sans-Serif" font-size="10.00">::determine_job_status</text>
</a>
</g>
</g>
<!-- Node2&#45;&gt;Node5 -->
<g id="edge4_Node000002_Node000005" class="edge">
<title>Node2&#45;&gt;Node5</title>
<g id="a_edge4_Node000002_Node000005"><a xlink:title=" ">
<path fill="none" stroke="#63b8ff" d="M302.63,-236.29C324.51,-254.11 362.99,-283.47 400,-302 407.77,-305.89 416.19,-309.43 424.62,-312.59"/>
<polygon fill="#63b8ff" stroke="#63b8ff" points="423.54,-315.91 434.13,-315.99 425.9,-309.32 423.54,-315.91"/>
</a>
</g>
</g>
<!-- Node8 -->
<g id="Node000008" class="node">
<title>Node8</title>
<g id="a_Node000008"><a xlink:href="group__EnergyExtraction.html#gaa64c4afe3577a5e147f0c3837d10a021" target="_top" xlink:title="Extract thermal correction data from low&#45;level calculation.">
<polygon fill="white" stroke="#666666" points="579,-212 400,-212 400,-182 579,-182 579,-212"/>
<text text-anchor="start" x="408" y="-200" font-family="Helvetica,sans-Serif" font-size="10.00">HighLevelEnergyCalculator</text>
<text text-anchor="middle" x="489.5" y="-189" font-family="Helvetica,sans-Serif" font-size="10.00">::extract_low_level_thermal_data</text>
</a>
</g>
</g>
<!-- Node2&#45;&gt;Node8 -->
<g id="edge7_Node000002_Node000008" class="edge">
<title>Node2&#45;&gt;Node8</title>
<g id="a_edge7_Node000002_Node000008"><a xlink:title=" ">
<path fill="none" stroke="#63b8ff" d="M364.25,-211.62C372.6,-210.64 381.16,-209.63 389.7,-208.62"/>
<polygon fill="#63b8ff" stroke="#63b8ff" points="390.16,-212.09 399.69,-207.45 389.35,-205.14 390.16,-212.09"/>
</a>
</g>
</g>
<!-- Node9 -->
<g id="Node000009" class="node">
<title>Node9</title>
<g id="a_Node000009"><a xlink:href="group__EnergyExtraction.html#ga42389d55a3f27a4e7f077a16d956b957" target="_top" xlink:title="Extract specific energy value from log file using pattern matching.">
<polygon fill="white" stroke="#666666" points="764,-116 615,-116 615,-86 764,-86 764,-116"/>
<text text-anchor="start" x="623" y="-104" font-family="Helvetica,sans-Serif" font-size="10.00">HighLevelEnergyCalculator</text>
<text text-anchor="middle" x="689.5" y="-93" font-family="Helvetica,sans-Serif" font-size="10.00">::extract_value_from_file</text>
</a>
</g>
</g>
<!-- Node2&#45;&gt;Node9 -->
<g id="edge19_Node000002_Node000009" class="edge">
<title>Node2&#45;&gt;Node9</title>
<g id="a_edge19_Node000002_Node000009"><a xlink:title=" ">
<path fill="none" stroke="#63b8ff" d="M316.27,-205.93C339.15,-195.54 370.97,-182.03 400,-173 477.66,-148.85 500.3,-155.52 579,-135 596.87,-130.34 616.17,-124.59 633.52,-119.15"/>
<polygon fill="#63b8ff" stroke="#63b8ff" points="635.01,-122.36 643.48,-116 632.89,-115.68 635.01,-122.36"/>
</a>
</g>
</g>
<!-- Node14 -->
<g id="Node000014" class="node">
<title>Node14</title>
<g id="a_Node000014"><a xlink:href="group__CalculationHelpers.html#ga32a761d03cac358dbe6d17dccf3c3ec3" target="_top" xlink:title="Extract lowest vibrational frequency from parent file.">
<polygon fill="white" stroke="#666666" points="564,-260 415,-260 415,-230 564,-230 564,-260"/>
<text text-anchor="start" x="423" y="-248" font-family="Helvetica,sans-Serif" font-size="10.00">HighLevelEnergyCalculator</text>
<text text-anchor="middle" x="489.5" y="-237" font-family="Helvetica,sans-Serif" font-size="10.00">::extract_lowest_frequency</text>
</a>
</g>
</g>
<!-- Node2&#45;&gt;Node14 -->
<g id="edge14_Node000002_Node000014" class="edge">
<title>Node2&#45;&gt;Node14</title>
<g id="a_edge14_Node000002_Node000014"><a xlink:title=" ">
<path fill="none" stroke="#63b8ff" d="M364.25,-230.38C377.52,-231.94 391.31,-233.57 404.68,-235.14"/>
<polygon fill="#63b8ff" stroke="#63b8ff" points="404.46,-238.64 414.8,-236.33 405.28,-231.69 404.46,-238.64"/>
</a>
</g>
</g>
<!-- Node17 -->
<g id="Node000017" class="node">
<title>Node17</title>
<g id="a_Node000017"><a xlink:href="group__FileUtilities.html#ga6dd8fb2393bb29704be0e92003989e45" target="_top" xlink:title="Read complete file content.">
<polygon fill="white" stroke="#666666" points="764,-356 615,-356 615,-326 764,-326 764,-356"/>
<text text-anchor="start" x="623" y="-344" font-family="Helvetica,sans-Serif" font-size="10.00">HighLevelEnergyCalculator</text>
<text text-anchor="middle" x="689.5" y="-333" font-family="Helvetica,sans-Serif" font-size="10.00">::read_file_content</text>
</a>
</g>
</g>
<!-- Node2&#45;&gt;Node17 -->
<g id="edge21_Node000002_Node000017" class="edge">
<title>Node2&#45;&gt;Node17</title>
<g id="a_edge21_Node000002_Node000017"><a xlink:title=" ">
<path fill="none" stroke="#63b8ff" d="M316.27,-236.07C339.15,-246.46 370.97,-259.97 400,-269 477.66,-293.15 500.3,-286.48 579,-307 596.87,-311.66 616.17,-317.41 633.52,-322.85"/>
<polygon fill="#63b8ff" stroke="#63b8ff" points="632.89,-326.32 643.48,-326 635.01,-319.64 632.89,-326.32"/>
</a>
</g>
</g>
<!-- Node18 -->
<g id="Node000018" class="node">
<title>Node18</title>
<g id="a_Node000018"><a xlink:href="group__FileUtilities.html#ga181c65f6b55859249f23a68e2f64f4bf" target="_top" xlink:title="Get corresponding parent directory file path.">
<polygon fill="white" stroke="#666666" points="564,-126 415,-126 415,-96 564,-96 564,-126"/>
<text text-anchor="start" x="423" y="-114" font-family="Helvetica,sans-Serif" font-size="10.00">HighLevelEnergyCalculator</text>
<text text-anchor="middle" x="489.5" y="-103" font-family="Helvetica,sans-Serif" font-size="10.00">::get_parent_file</text>
</a>
</g>
</g>
<!-- Node2&#45;&gt;Node18 -->
<g id="edge20_Node000002_Node000018" class="edge">
<title>Node2&#45;&gt;Node18</title>
<g id="a_edge20_Node000002_Node000018"><a xlink:title=" ">
<path fill="none" stroke="#63b8ff" d="M302.63,-205.71C324.51,-187.89 362.99,-158.53 400,-140 407.77,-136.11 416.19,-132.57 424.62,-129.41"/>
<polygon fill="#63b8ff" stroke="#63b8ff" points="425.9,-132.68 434.13,-126.01 423.54,-126.09 425.9,-132.68"/>
</a>
</g>
</g>
<!-- Node19 -->
<g id="Node000019" class="node">
<title>Node19</title>
<g id="a_Node000019"><a xlink:href="group__SafetyHelpers.html#ga1ecdc84dce43277ebe3c068b66d2836a" target="_top" xlink:title="Safe file reading with memory and handle management.">
<polygon fill="white" stroke="#666666" points="564,-78 415,-78 415,-48 564,-48 564,-78"/>
<text text-anchor="start" x="423" y="-66" font-family="Helvetica,sans-Serif" font-size="10.00">HighLevelEnergyCalculator</text>
<text text-anchor="middle" x="489.5" y="-55" font-family="Helvetica,sans-Serif" font-size="10.00">::safe_read_file</text>
</a>
</g>
</g>
<!-- Node2&#45;&gt;Node19 -->
<g id="edge22_Node000002_Node000019" class="edge">
<title>Node2&#45;&gt;Node19</title>
<g id="a_edge22_Node000002_Node000019"><a xlink:title=" ">
<path fill="none" stroke="#63b8ff" d="M293.19,-205.96C310.08,-178.09 350.1,-118.43 400,-87 402.61,-85.36 405.33,-83.82 408.13,-82.39"/>
<polygon fill="#63b8ff" stroke="#63b8ff" points="409.69,-85.53 417.31,-78.18 406.77,-79.17 409.69,-85.53"/>
</a>
</g>
</g>
<!-- Node20 -->
<g id="Node000020" class="node">
<title>Node20</title>
<g id="a_Node000020"><a xlink:href="group__ValidationUtils.html#gabe3d651ced16adc942b77bd92be3116a" target="_top" xlink:title="Validate complete energy data structure for consistency.">
<polygon fill="white" stroke="#666666" points="553.5,-30 425.5,-30 425.5,0 553.5,0 553.5,-30"/>
<text text-anchor="start" x="433.5" y="-18" font-family="Helvetica,sans-Serif" font-size="10.00">HighLevelEnergyUtils</text>
<text text-anchor="middle" x="489.5" y="-7" font-family="Helvetica,sans-Serif" font-size="10.00">::validate_energy_data</text>
</a>
</g>
</g>
<!-- Node2&#45;&gt;Node20 -->
<g id="edge23_Node000002_Node000020" class="edge">
<title>Node2&#45;&gt;Node20</title>
<g id="a_edge23_Node000002_Node000020"><a xlink:title=" ">
<path fill="none" stroke="#63b8ff" d="M289.72,-205.85C302.6,-170.8 339.29,-83.73 400,-39 404.84,-35.43 410.19,-32.39 415.78,-29.81"/>
<polygon fill="#63b8ff" stroke="#63b8ff" points="417.45,-32.9 425.37,-25.86 414.79,-26.43 417.45,-32.9"/>
</a>
</g>
</g>
<!-- Node6 -->
<g id="Node000006" class="node">
<title>Node6</title>
<g id="a_Node000006"><a xlink:href="group__FileUtilities.html#ga013cf7e36016b0531852c469c9bc98b7" target="_top" xlink:title="Read last N lines from file.">
<polygon fill="white" stroke="#666666" points="764,-404 615,-404 615,-374 764,-374 764,-404"/>
<text text-anchor="start" x="623" y="-392" font-family="Helvetica,sans-Serif" font-size="10.00">HighLevelEnergyCalculator</text>
<text text-anchor="middle" x="689.5" y="-381" font-family="Helvetica,sans-Serif" font-size="10.00">::read_file_tail</text>
</a>
</g>
</g>
<!-- Node5&#45;&gt;Node6 -->
<g id="edge5_Node000005_Node000006" class="edge">
<title>Node5&#45;&gt;Node6</title>
<g id="a_edge5_Node000005_Node000006"><a xlink:title=" ">
<path fill="none" stroke="#63b8ff" d="M547.24,-346.06C557.82,-348.96 568.76,-352.02 579,-355 596.18,-359.99 614.79,-365.67 631.71,-370.94"/>
<polygon fill="#63b8ff" stroke="#63b8ff" points="630.86,-374.34 641.45,-373.98 632.95,-367.66 630.86,-374.34"/>
</a>
</g>
</g>
<!-- Node7 -->
<g id="Node000007" class="node">
<title>Node7</title>
<g id="a_Node000007"><a xlink:href="classFileContentCache.html#affecb88aac28ec372fe984ab6ec0279c" target="_top" xlink:title=" ">
<polygon fill="white" stroke="#666666" points="936.5,-356 812.5,-356 812.5,-326 936.5,-326 936.5,-356"/>
<text text-anchor="start" x="820.5" y="-344" font-family="Helvetica,sans-Serif" font-size="10.00">FileContentCache::get</text>
<text text-anchor="middle" x="874.5" y="-333" font-family="Helvetica,sans-Serif" font-size="10.00">_or_read</text>
</a>
</g>
</g>
<!-- Node6&#45;&gt;Node7 -->
<g id="edge6_Node000006_Node000007" class="edge">
<title>Node6&#45;&gt;Node7</title>
<g id="a_edge6_Node000006_Node000007"><a xlink:title=" ">
<path fill="none" stroke="#63b8ff" d="M747.9,-373.94C766.47,-369.07 787.22,-363.63 806.42,-358.59"/>
<polygon fill="#63b8ff" stroke="#63b8ff" points="807.52,-361.93 816.3,-356 805.74,-355.15 807.52,-361.93"/>
</a>
</g>
</g>
<!-- Node8&#45;&gt;Node9 -->
<g id="edge8_Node000008_Node000009" class="edge">
<title>Node8&#45;&gt;Node9</title>
<g id="a_edge8_Node000008_Node000009"><a xlink:title=" ">
<path fill="none" stroke="#63b8ff" d="M551.64,-181.96C561.23,-178.22 570.7,-173.62 579,-168 599.64,-154.03 594.35,-138.96 615,-125 617.27,-123.47 619.64,-122.03 622.09,-120.67"/>
<polygon fill="#63b8ff" stroke="#63b8ff" points="623.81,-123.72 631.21,-116.14 620.7,-117.45 623.81,-123.72"/>
</a>
</g>
</g>
<!-- Node12 -->
<g id="Node000012" class="node">
<title>Node12</title>
<g id="a_Node000012"><a xlink:href="group__FileUtilities.html#gaa54ff385e8b08bff4fc34ec915a3ff8d" target="_top" xlink:title="Check if file exists and is accessible.">
<polygon fill="white" stroke="#666666" points="764,-164 615,-164 615,-134 764,-134 764,-164"/>
<text text-anchor="start" x="623" y="-152" font-family="Helvetica,sans-Serif" font-size="10.00">HighLevelEnergyCalculator</text>
<text text-anchor="middle" x="689.5" y="-141" font-family="Helvetica,sans-Serif" font-size="10.00">::file_exists</text>
</a>
</g>
</g>
<!-- Node8&#45;&gt;Node12 -->
<g id="edge12_Node000008_Node000012" class="edge">
<title>Node8&#45;&gt;Node12</title>
<g id="a_edge12_Node000008_Node000012"><a xlink:title=" ">
<path fill="none" stroke="#63b8ff" d="M552.61,-181.94C572.97,-177.01 595.76,-171.48 616.78,-166.39"/>
<polygon fill="#63b8ff" stroke="#63b8ff" points="617.72,-169.76 626.62,-164 616.07,-162.96 617.72,-169.76"/>
</a>
</g>
</g>
<!-- Node13 -->
<g id="Node000013" class="node">
<title>Node13</title>
<g id="a_Node000013"><a xlink:href="group__ValidationUtils.html#gad41dd357e75a3c0219b5ed3a6b964aa6" target="_top" xlink:title="Validate temperature value for physical reasonableness.">
<polygon fill="white" stroke="#666666" points="753.5,-212 625.5,-212 625.5,-182 753.5,-182 753.5,-212"/>
<text text-anchor="start" x="633.5" y="-200" font-family="Helvetica,sans-Serif" font-size="10.00">HighLevelEnergyUtils</text>
<text text-anchor="middle" x="689.5" y="-189" font-family="Helvetica,sans-Serif" font-size="10.00">::validate_temperature</text>
</a>
</g>
</g>
<!-- Node8&#45;&gt;Node13 -->
<g id="edge13_Node000008_Node000013" class="edge">
<title>Node8&#45;&gt;Node13</title>
<g id="a_edge13_Node000008_Node000013"><a xlink:title=" ">
<path fill="none" stroke="#63b8ff" d="M579.08,-197C591.18,-197 603.5,-197 615.29,-197"/>
<polygon fill="#63b8ff" stroke="#63b8ff" points="615.49,-200.5 625.49,-197 615.49,-193.5 615.49,-200.5"/>
</a>
</g>
</g>
<!-- Node9&#45;&gt;Node7 -->
<g id="edge10_Node000009_Node000007" class="edge">
<title>Node9&#45;&gt;Node7</title>
<g id="a_edge10_Node000009_Node000007"><a xlink:title=" ">
<path fill="none" stroke="#63b8ff" d="M750.83,-116.15C755.56,-118.67 760.03,-121.59 764,-125 824.88,-177.18 855.82,-271.49 867.65,-316.2"/>
<polygon fill="#63b8ff" stroke="#63b8ff" points="864.27,-317.12 870.13,-325.95 871.05,-315.4 864.27,-317.12"/>
</a>
</g>
</g>
<!-- Node10 -->
<g id="Node000010" class="node">
<title>Node10</title>
<g id="a_Node000010"><a xlink:href="structRegexPatterns.html#aeb75344b6b563c17108dbfaf60f486cc" target="_top" xlink:title=" ">
<polygon fill="white" stroke="#666666" points="929,-140 820,-140 820,-110 929,-110 929,-140"/>
<text text-anchor="start" x="828" y="-128" font-family="Helvetica,sans-Serif" font-size="10.00">RegexPatterns::get</text>
<text text-anchor="middle" x="874.5" y="-117" font-family="Helvetica,sans-Serif" font-size="10.00">_instance</text>
</a>
</g>
</g>
<!-- Node9&#45;&gt;Node10 -->
<g id="edge9_Node000009_Node000010" class="edge">
<title>Node9&#45;&gt;Node10</title>
<g id="a_edge9_Node000009_Node000010"><a xlink:title=" ">
<path fill="none" stroke="#63b8ff" d="M764.14,-110.66C779.31,-112.65 795.17,-114.73 809.94,-116.66"/>
<polygon fill="#63b8ff" stroke="#63b8ff" points="809.61,-120.15 819.98,-117.98 810.52,-113.21 809.61,-120.15"/>
</a>
</g>
</g>
<!-- Node11 -->
<g id="Node000011" class="node">
<title>Node11</title>
<g id="a_Node000011"><a xlink:href="group__SafetyHelpers.html#gaf25036f89725288871b9d856ca5f76ba" target="_top" xlink:title="Safe energy value parsing with validation.">
<polygon fill="white" stroke="#666666" points="949,-92 800,-92 800,-62 949,-62 949,-92"/>
<text text-anchor="start" x="808" y="-80" font-family="Helvetica,sans-Serif" font-size="10.00">HighLevelEnergyCalculator</text>
<text text-anchor="middle" x="874.5" y="-69" font-family="Helvetica,sans-Serif" font-size="10.00">::safe_parse_energy</text>
</a>
</g>
</g>
<!-- Node9&#45;&gt;Node11 -->
<g id="edge11_Node000009_Node000011" class="edge">
<title>Node9&#45;&gt;Node11</title>
<g id="a_edge11_Node000009_Node000011"><a xlink:title=" ">
<path fill="none" stroke="#63b8ff" d="M764.14,-91.34C772.57,-90.24 781.2,-89.11 789.74,-87.98"/>
<polygon fill="#63b8ff" stroke="#63b8ff" points="790.25,-91.45 799.71,-86.68 789.34,-84.51 790.25,-91.45"/>
</a>
</g>
</g>
<!-- Node15 -->
<g id="Node000015" class="node">
<title>Node15</title>
<g id="a_Node000015"><a xlink:href="group__EnergyParsingUtils.html#ga95f6c769f275d3b7659d6f379b106b51" target="_top" xlink:title="Extract all vibrational frequencies from log file content.">
<polygon fill="white" stroke="#666666" points="750.5,-260 628.5,-260 628.5,-230 750.5,-230 750.5,-260"/>
<text text-anchor="start" x="636.5" y="-248" font-family="Helvetica,sans-Serif" font-size="10.00">HighLevelEnergyUtils</text>
<text text-anchor="middle" x="689.5" y="-237" font-family="Helvetica,sans-Serif" font-size="10.00">::extract_frequencies</text>
</a>
</g>
</g>
<!-- Node14&#45;&gt;Node15 -->
<g id="edge15_Node000014_Node000015" class="edge">
<title>Node14&#45;&gt;Node15</title>
<g id="a_edge15_Node000014_Node000015"><a xlink:title=" ">
<path fill="none" stroke="#63b8ff" d="M564.23,-245C581.87,-245 600.67,-245 618.16,-245"/>
<polygon fill="#63b8ff" stroke="#63b8ff" points="618.29,-248.5 628.29,-245 618.29,-241.5 618.29,-248.5"/>
</a>
</g>
</g>
<!-- Node16 -->
<g id="Node000016" class="node">
<title>Node16</title>
<g id="a_Node000016"><a xlink:href="group__EnergyParsingUtils.html#gaf1573e500ba7a88a65e5ccf978c00621" target="_top" xlink:title="Find lowest frequency from frequency list.">
<polygon fill="white" stroke="#666666" points="755.5,-308 623.5,-308 623.5,-278 755.5,-278 755.5,-308"/>
<text text-anchor="start" x="631.5" y="-296" font-family="Helvetica,sans-Serif" font-size="10.00">HighLevelEnergyUtils</text>
<text text-anchor="middle" x="689.5" y="-285" font-family="Helvetica,sans-Serif" font-size="10.00">::find_lowest_frequency</text>
</a>
</g>
</g>
<!-- Node14&#45;&gt;Node16 -->
<g id="edge16_Node000014_Node000016" class="edge">
<title>Node14&#45;&gt;Node16</title>
<g id="a_edge16_Node000014_Node000016"><a xlink:title=" ">
<path fill="none" stroke="#63b8ff" d="M552.61,-260.06C572.97,-264.99 595.76,-270.52 616.78,-275.61"/>
<polygon fill="#63b8ff" stroke="#63b8ff" points="616.07,-279.04 626.62,-278 617.72,-272.24 616.07,-279.04"/>
</a>
</g>
</g>
<!-- Node14&#45;&gt;Node17 -->
<g id="edge17_Node000014_Node000017" class="edge">
<title>Node14&#45;&gt;Node17</title>
<g id="a_edge17_Node000014_Node000017"><a xlink:title=" ">
<path fill="none" stroke="#63b8ff" d="M551.64,-260.04C561.23,-263.78 570.7,-268.38 579,-274 599.64,-287.97 594.35,-303.04 615,-317 617.27,-318.53 619.64,-319.97 622.09,-321.33"/>
<polygon fill="#63b8ff" stroke="#63b8ff" points="620.7,-324.55 631.21,-325.86 623.81,-318.28 620.7,-324.55"/>
</a>
</g>
</g>
<!-- Node17&#45;&gt;Node7 -->
<g id="edge18_Node000017_Node000007" class="edge">
<title>Node17&#45;&gt;Node7</title>
<g id="a_edge18_Node000017_Node000007"><a xlink:title=" ">
<path fill="none" stroke="#63b8ff" d="M764.14,-341C776.63,-341 789.59,-341 802.02,-341"/>
<polygon fill="#63b8ff" stroke="#63b8ff" points="802.33,-344.5 812.33,-341 802.33,-337.5 802.33,-344.5"/>
</a>
</g>
</g>
</g>
</svg>
