<?xml version="1.0" encoding="UTF-8" standalone="no"?>
<!DOCTYPE svg PUBLIC "-//W3C//DTD SVG 1.1//EN"
 "http://www.w3.org/Graphics/SVG/1.1/DTD/svg11.dtd">
<!-- Generated by graphviz version 2.43.0 (0)
 -->
<!-- Title: JobCheckerUtils::file_exists Pages: 1 -->
<svg width="691pt" height="196pt"
 viewBox="0.00 0.00 691.00 195.50" xmlns="http://www.w3.org/2000/svg" xmlns:xlink="http://www.w3.org/1999/xlink">
<g id="graph0" class="graph" transform="scale(1 1) rotate(0) translate(4 191.5)">
<title>JobCheckerUtils::file_exists</title>
<!-- Node1 -->
<g id="Node000001" class="node">
<title>Node1</title>
<g id="a_Node000001"><a xlink:title="Check if a file exists and is accessible.">
<polygon fill="#999999" stroke="#666666" points="683,-91.5 569,-91.5 569,-61.5 683,-61.5 683,-91.5"/>
<text text-anchor="start" x="577" y="-79.5" font-family="Helvetica,sans-Serif" font-size="10.00">JobCheckerUtils::file</text>
<text text-anchor="middle" x="626" y="-68.5" font-family="Helvetica,sans-Serif" font-size="10.00">_exists</text>
</a>
</g>
</g>
<!-- Node2 -->
<g id="Node000002" class="node">
<title>Node2</title>
<g id="a_Node000002"><a xlink:href="group__FileOperations.html#ga087bdeb612f939d045ab914d35a6b0de" target="_top" xlink:title="Find all files related to a Gaussian calculation.">
<polygon fill="white" stroke="#666666" points="533,-127.5 399,-127.5 399,-97.5 533,-97.5 533,-127.5"/>
<text text-anchor="start" x="407" y="-115.5" font-family="Helvetica,sans-Serif" font-size="10.00">JobChecker::find_related</text>
<text text-anchor="middle" x="466" y="-104.5" font-family="Helvetica,sans-Serif" font-size="10.00">_files</text>
</a>
</g>
</g>
<!-- Node1&#45;&gt;Node2 -->
<g id="edge1_Node000001_Node000002" class="edge">
<title>Node1&#45;&gt;Node2</title>
<g id="a_edge1_Node000001_Node000002"><a xlink:title=" ">
<path fill="none" stroke="#63b8ff" d="M558.9,-91.56C550.32,-93.52 541.53,-95.52 532.96,-97.47"/>
<polygon fill="#63b8ff" stroke="#63b8ff" points="559.88,-94.93 568.85,-89.29 558.32,-88.1 559.88,-94.93"/>
</a>
</g>
</g>
<!-- Node6 -->
<g id="Node000006" class="node">
<title>Node6</title>
<g id="a_Node000006"><a xlink:href="group__JobFileUtils.html#ga2946f175c06fc2a63a822b44db814ffa" target="_top" xlink:title="Validate that a log file is suitable for processing.">
<polygon fill="white" stroke="#666666" points="519.5,-67.5 412.5,-67.5 412.5,-37.5 519.5,-37.5 519.5,-67.5"/>
<text text-anchor="start" x="420.5" y="-55.5" font-family="Helvetica,sans-Serif" font-size="10.00">JobCheckerUtils::is</text>
<text text-anchor="middle" x="466" y="-44.5" font-family="Helvetica,sans-Serif" font-size="10.00">_valid_log_file</text>
</a>
</g>
</g>
<!-- Node1&#45;&gt;Node6 -->
<g id="edge5_Node000001_Node000006" class="edge">
<title>Node1&#45;&gt;Node6</title>
<g id="a_edge5_Node000001_Node000006"><a xlink:title=" ">
<path fill="none" stroke="#63b8ff" d="M558.92,-66.46C545.78,-64.47 532.15,-62.4 519.53,-60.48"/>
<polygon fill="#63b8ff" stroke="#63b8ff" points="558.44,-69.93 568.85,-67.97 559.49,-63.01 558.44,-69.93"/>
</a>
</g>
</g>
<!-- Node3 -->
<g id="Node000003" class="node">
<title>Node3</title>
<g id="a_Node000003"><a xlink:href="group__IndependentChecking.html#gaa8965610d902e28ebf4946e0ba1f659d" target="_top" xlink:title="Direct error checking without other status considerations.">
<polygon fill="white" stroke="#666666" points="363,-187.5 229,-187.5 229,-157.5 363,-157.5 363,-187.5"/>
<text text-anchor="start" x="237" y="-175.5" font-family="Helvetica,sans-Serif" font-size="10.00">JobChecker::check_error</text>
<text text-anchor="middle" x="296" y="-164.5" font-family="Helvetica,sans-Serif" font-size="10.00">_directly</text>
</a>
</g>
</g>
<!-- Node2&#45;&gt;Node3 -->
<g id="edge2_Node000002_Node000003" class="edge">
<title>Node2&#45;&gt;Node3</title>
<g id="a_edge2_Node000002_Node000003"><a xlink:title=" ">
<path fill="none" stroke="#63b8ff" d="M413.04,-131.06C389.29,-139.54 361.51,-149.46 339.09,-157.47"/>
<polygon fill="#63b8ff" stroke="#63b8ff" points="414.37,-134.3 422.61,-127.64 412.01,-127.71 414.37,-134.3"/>
</a>
</g>
</g>
<!-- Node4 -->
<g id="Node000004" class="node">
<title>Node4</title>
<g id="a_Node000004"><a xlink:href="group__IndividualChecking.html#gacaf7b75f3c058b5648c894ee21eadf5d" target="_top" xlink:title="Determine the status of a single Gaussian job.">
<polygon fill="white" stroke="#666666" points="358.5,-139.5 233.5,-139.5 233.5,-109.5 358.5,-109.5 358.5,-139.5"/>
<text text-anchor="start" x="241.5" y="-127.5" font-family="Helvetica,sans-Serif" font-size="10.00">JobChecker::check_job</text>
<text text-anchor="middle" x="296" y="-116.5" font-family="Helvetica,sans-Serif" font-size="10.00">_status</text>
</a>
</g>
</g>
<!-- Node2&#45;&gt;Node4 -->
<g id="edge3_Node000002_Node000004" class="edge">
<title>Node2&#45;&gt;Node4</title>
<g id="a_edge3_Node000002_Node000004"><a xlink:title=" ">
<path fill="none" stroke="#63b8ff" d="M388.6,-117.96C378.54,-118.68 368.32,-119.41 358.54,-120.1"/>
<polygon fill="#63b8ff" stroke="#63b8ff" points="388.88,-121.45 398.6,-117.24 388.38,-114.46 388.88,-121.45"/>
</a>
</g>
</g>
<!-- Node5 -->
<g id="Node000005" class="node">
<title>Node5</title>
<g id="a_Node000005"><a xlink:href="group__IndependentChecking.html#gacfdc4123589e37c388a139841e0860e8" target="_top" xlink:title="Direct PCM failure checking without other status considerations.">
<polygon fill="white" stroke="#666666" points="361.5,-91.5 230.5,-91.5 230.5,-61.5 361.5,-61.5 361.5,-91.5"/>
<text text-anchor="start" x="238.5" y="-79.5" font-family="Helvetica,sans-Serif" font-size="10.00">JobChecker::check_pcm</text>
<text text-anchor="middle" x="296" y="-68.5" font-family="Helvetica,sans-Serif" font-size="10.00">_directly</text>
</a>
</g>
</g>
<!-- Node2&#45;&gt;Node5 -->
<g id="edge4_Node000002_Node000005" class="edge">
<title>Node2&#45;&gt;Node5</title>
<g id="a_edge4_Node000002_Node000005"><a xlink:title=" ">
<path fill="none" stroke="#63b8ff" d="M388.79,-96.17C379.69,-94.22 370.46,-92.24 361.54,-90.33"/>
<polygon fill="#63b8ff" stroke="#63b8ff" points="388.09,-99.6 398.6,-98.27 389.56,-92.75 388.09,-99.6"/>
</a>
</g>
</g>
<!-- Node7 -->
<g id="Node000007" class="node">
<title>Node7</title>
<g id="a_Node000007"><a xlink:href="group__ModuleExecutors.html#gab27343ef2ae55f92b21f39e17f788f4c" target="_top" xlink:title=" ">
<polygon fill="white" stroke="#666666" points="362,-43.5 230,-43.5 230,-13.5 362,-13.5 362,-43.5"/>
<text text-anchor="start" x="238" y="-31.5" font-family="Helvetica,sans-Serif" font-size="10.00">execute_extract_coords</text>
<text text-anchor="middle" x="296" y="-20.5" font-family="Helvetica,sans-Serif" font-size="10.00">_command</text>
</a>
</g>
</g>
<!-- Node6&#45;&gt;Node7 -->
<g id="edge6_Node000006_Node000007" class="edge">
<title>Node6&#45;&gt;Node7</title>
<g id="a_edge6_Node000006_Node000007"><a xlink:title=" ">
<path fill="none" stroke="#63b8ff" d="M402.05,-43.51C389.04,-41.65 375.31,-39.69 362.22,-37.82"/>
<polygon fill="#63b8ff" stroke="#63b8ff" points="401.91,-47.02 412.3,-44.97 402.9,-40.09 401.91,-47.02"/>
</a>
</g>
</g>
<!-- Node8 -->
<g id="Node000008" class="node">
<title>Node8</title>
<g id="a_Node000008"><a xlink:href="main_8cpp.html#a0ddf1224851353fc92bfbff6f499fa97" target="_top" xlink:title="Main entry point for the Gaussian Extractor application.">
<polygon fill="white" stroke="#666666" points="41,-38 0,-38 0,-19 41,-19 41,-38"/>
<text text-anchor="middle" x="20.5" y="-26" font-family="Helvetica,sans-Serif" font-size="10.00">main</text>
</a>
</g>
</g>
<!-- Node7&#45;&gt;Node8 -->
<g id="edge7_Node000007_Node000008" class="edge">
<title>Node7&#45;&gt;Node8</title>
<g id="a_edge7_Node000007_Node000008"><a xlink:title=" ">
<path fill="none" stroke="#63b8ff" d="M219.53,-28.5C158.86,-28.5 77.92,-28.5 41.15,-28.5"/>
<polygon fill="#63b8ff" stroke="#63b8ff" points="219.84,-32 229.84,-28.5 219.84,-25 219.84,-32"/>
</a>
</g>
</g>
<!-- Node9 -->
<g id="Node000009" class="node">
<title>Node9</title>
<g id="a_Node000009"><a xlink:href="interactive__mode_8cpp.html#a6b615c34054150d837dc45ed1c17b297" target="_top" xlink:title="Enhanced interactive command loop with TAB completion for Windows.">
<polygon fill="white" stroke="#666666" points="193,-19 77,-19 77,0 193,0 193,-19"/>
<text text-anchor="middle" x="135" y="-7" font-family="Helvetica,sans-Serif" font-size="10.00">run_interactive_loop</text>
</a>
</g>
</g>
<!-- Node7&#45;&gt;Node9 -->
<g id="edge8_Node000007_Node000009" class="edge">
<title>Node7&#45;&gt;Node9</title>
<g id="a_edge8_Node000007_Node000009"><a xlink:title=" ">
<path fill="none" stroke="#63b8ff" d="M219.8,-19.51C210.83,-18.44 201.79,-17.36 193.13,-16.33"/>
<polygon fill="#63b8ff" stroke="#63b8ff" points="219.53,-23.01 229.87,-20.72 220.36,-16.06 219.53,-23.01"/>
</a>
</g>
</g>
<!-- Node9&#45;&gt;Node8 -->
<g id="edge9_Node000009_Node000008" class="edge">
<title>Node9&#45;&gt;Node8</title>
<g id="a_edge9_Node000009_Node000008"><a xlink:title=" ">
<path fill="none" stroke="#63b8ff" d="M67.4,-20.75C57.88,-22.36 48.77,-23.89 41.22,-25.17"/>
<polygon fill="#63b8ff" stroke="#63b8ff" points="68.14,-24.17 77.42,-19.06 66.98,-17.27 68.14,-24.17"/>
</a>
</g>
</g>
</g>
</svg>
