<?xml version="1.0" encoding="UTF-8" standalone="no"?>
<!DOCTYPE svg PUBLIC "-//W3C//DTD SVG 1.1//EN"
 "http://www.w3.org/Graphics/SVG/1.1/DTD/svg11.dtd">
<!-- Generated by graphviz version 2.43.0 (0)
 -->
<!-- Title: JobSchedulerDetector::get_env_long Pages: 1 -->
<svg width="1059pt" height="182pt"
 viewBox="0.00 0.00 1059.00 182.00" xmlns="http://www.w3.org/2000/svg" xmlns:xlink="http://www.w3.org/1999/xlink">
<g id="graph0" class="graph" transform="scale(1 1) rotate(0) translate(4 178)">
<title>JobSchedulerDetector::get_env_long</title>
<!-- Node1 -->
<g id="Node000001" class="node">
<title>Node1</title>
<g id="a_Node000001"><a xlink:title="Get long integer environment variable value.">
<polygon fill="#999999" stroke="#666666" points="1051,-102 929,-102 929,-72 1051,-72 1051,-102"/>
<text text-anchor="start" x="937" y="-90" font-family="Helvetica,sans-Serif" font-size="10.00">JobSchedulerDetector</text>
<text text-anchor="middle" x="990" y="-79" font-family="Helvetica,sans-Serif" font-size="10.00">::get_env_long</text>
</a>
</g>
</g>
<!-- Node2 -->
<g id="Node000002" class="node">
<title>Node2</title>
<g id="a_Node000002"><a xlink:href="group__SchedulerSpecific.html#ga3923336c54e169224a24aa725fa039a4" target="_top" xlink:title="Extract resource information from LSF environment.">
<polygon fill="white" stroke="#666666" points="885,-174 762,-174 762,-144 885,-144 885,-174"/>
<text text-anchor="start" x="770" y="-162" font-family="Helvetica,sans-Serif" font-size="10.00">JobSchedulerDetector</text>
<text text-anchor="middle" x="823.5" y="-151" font-family="Helvetica,sans-Serif" font-size="10.00">::detect_lsf_resources</text>
</a>
</g>
</g>
<!-- Node1&#45;&gt;Node2 -->
<g id="edge1_Node000001_Node000002" class="edge">
<title>Node1&#45;&gt;Node2</title>
<g id="a_edge1_Node000001_Node000002"><a xlink:title=" ">
<path fill="none" stroke="#63b8ff" d="M951.94,-106.9C934.33,-116.01 912.84,-126.61 893,-135 885.69,-138.09 877.83,-141.12 870.13,-143.92"/>
<polygon fill="#63b8ff" stroke="#63b8ff" points="954.05,-109.75 961.29,-102.02 950.81,-103.55 954.05,-109.75"/>
</a>
</g>
</g>
<!-- Node10 -->
<g id="Node000010" class="node">
<title>Node10</title>
<g id="a_Node000010"><a xlink:href="group__SchedulerSpecific.html#ga09d406f8202e5cec41ff257c23ef5031" target="_top" xlink:title="Extract resource information from PBS/Torque environment.">
<polygon fill="white" stroke="#666666" points="887.5,-126 759.5,-126 759.5,-96 887.5,-96 887.5,-126"/>
<text text-anchor="start" x="767.5" y="-114" font-family="Helvetica,sans-Serif" font-size="10.00">JobSchedulerDetector</text>
<text text-anchor="middle" x="823.5" y="-103" font-family="Helvetica,sans-Serif" font-size="10.00">::detect_pbs_resources</text>
</a>
</g>
</g>
<!-- Node1&#45;&gt;Node10 -->
<g id="edge12_Node000001_Node000010" class="edge">
<title>Node1&#45;&gt;Node10</title>
<g id="a_edge12_Node000001_Node000010"><a xlink:title=" ">
<path fill="none" stroke="#63b8ff" d="M918.51,-97.28C908.23,-98.78 897.7,-100.32 887.57,-101.8"/>
<polygon fill="#63b8ff" stroke="#63b8ff" points="919.29,-100.71 928.68,-95.8 918.28,-93.78 919.29,-100.71"/>
</a>
</g>
</g>
<!-- Node11 -->
<g id="Node000011" class="node">
<title>Node11</title>
<g id="a_Node000011"><a xlink:href="group__SchedulerSpecific.html#ga14bd7d5ddf535138b1fa97ce992356f5" target="_top" xlink:title="Extract resource information from SGE/OGS environment.">
<polygon fill="white" stroke="#666666" points="887.5,-78 759.5,-78 759.5,-48 887.5,-48 887.5,-78"/>
<text text-anchor="start" x="767.5" y="-66" font-family="Helvetica,sans-Serif" font-size="10.00">JobSchedulerDetector</text>
<text text-anchor="middle" x="823.5" y="-55" font-family="Helvetica,sans-Serif" font-size="10.00">::detect_sge_resources</text>
</a>
</g>
</g>
<!-- Node1&#45;&gt;Node11 -->
<g id="edge14_Node000001_Node000011" class="edge">
<title>Node1&#45;&gt;Node11</title>
<g id="a_edge14_Node000001_Node000011"><a xlink:title=" ">
<path fill="none" stroke="#63b8ff" d="M918.51,-76.72C908.23,-75.22 897.7,-73.68 887.57,-72.2"/>
<polygon fill="#63b8ff" stroke="#63b8ff" points="918.28,-80.22 928.68,-78.2 919.29,-73.29 918.28,-80.22"/>
</a>
</g>
</g>
<!-- Node12 -->
<g id="Node000012" class="node">
<title>Node12</title>
<g id="a_Node000012"><a xlink:href="group__SchedulerSpecific.html#ga488877fafdad543d22522f9b85bfd5ba" target="_top" xlink:title="Extract resource information from SLURM environment.">
<polygon fill="white" stroke="#666666" points="893,-30 754,-30 754,0 893,0 893,-30"/>
<text text-anchor="start" x="762" y="-18" font-family="Helvetica,sans-Serif" font-size="10.00">JobSchedulerDetector</text>
<text text-anchor="middle" x="823.5" y="-7" font-family="Helvetica,sans-Serif" font-size="10.00">::detect_slurm_resources</text>
</a>
</g>
</g>
<!-- Node1&#45;&gt;Node12 -->
<g id="edge16_Node000001_Node000012" class="edge">
<title>Node1&#45;&gt;Node12</title>
<g id="a_edge16_Node000001_Node000012"><a xlink:title=" ">
<path fill="none" stroke="#63b8ff" d="M951.94,-67.1C934.33,-57.99 912.84,-47.39 893,-39 885.69,-35.91 877.83,-32.88 870.13,-30.08"/>
<polygon fill="#63b8ff" stroke="#63b8ff" points="950.81,-70.45 961.29,-71.98 954.05,-64.25 950.81,-70.45"/>
</a>
</g>
</g>
<!-- Node3 -->
<g id="Node000003" class="node">
<title>Node3</title>
<g id="a_Node000003"><a xlink:href="group__DetectionMethods.html#ga3e3cf834277c608e8557f70acba55430" target="_top" xlink:title="Detect current job scheduler and extract complete resource information.">
<polygon fill="white" stroke="#666666" points="718,-102 592,-102 592,-72 718,-72 718,-102"/>
<text text-anchor="start" x="600" y="-90" font-family="Helvetica,sans-Serif" font-size="10.00">JobSchedulerDetector</text>
<text text-anchor="middle" x="655" y="-79" font-family="Helvetica,sans-Serif" font-size="10.00">::detect_job_resources</text>
</a>
</g>
</g>
<!-- Node2&#45;&gt;Node3 -->
<g id="edge2_Node000002_Node000003" class="edge">
<title>Node2&#45;&gt;Node3</title>
<g id="a_edge2_Node000002_Node000003"><a xlink:title=" ">
<path fill="none" stroke="#63b8ff" d="M767.47,-140.37C762.89,-138.62 758.35,-136.82 754,-135 730.23,-125.06 704.06,-112.13 684.74,-102.2"/>
<polygon fill="#63b8ff" stroke="#63b8ff" points="766.3,-143.66 776.89,-143.87 768.74,-137.1 766.3,-143.66"/>
</a>
</g>
</g>
<!-- Node4 -->
<g id="Node000004" class="node">
<title>Node4</title>
<g id="a_Node000004"><a xlink:href="group__MemoryMonitorImpl.html#gaba5928690c1d0bacdd79e7a15169d53c" target="_top" xlink:title=" ">
<polygon fill="white" stroke="#666666" points="543,-134.5 427,-134.5 427,-115.5 543,-115.5 543,-134.5"/>
<text text-anchor="middle" x="485" y="-122.5" font-family="Helvetica,sans-Serif" font-size="10.00">getSafeThreadCount</text>
</a>
</g>
</g>
<!-- Node3&#45;&gt;Node4 -->
<g id="edge3_Node000003_Node000004" class="edge">
<title>Node3&#45;&gt;Node4</title>
<g id="a_edge3_Node000003_Node000004"><a xlink:title=" ">
<path fill="none" stroke="#63b8ff" d="M582.1,-103.26C563.72,-107.42 544.54,-111.76 528.2,-115.46"/>
<polygon fill="#63b8ff" stroke="#63b8ff" points="582.94,-106.66 591.92,-101.04 581.39,-99.83 582.94,-106.66"/>
</a>
</g>
</g>
<!-- Node5 -->
<g id="Node000005" class="node">
<title>Node5</title>
<g id="a_Node000005"><a xlink:href="group__CommandExecutors.html#ga2c1ceafe241a0b4e19790bb5d878ed1a" target="_top" xlink:title="Parse command&#45;line arguments and create execution context.">
<polygon fill="white" stroke="#666666" points="368.5,-96.5 238.5,-96.5 238.5,-77.5 368.5,-77.5 368.5,-96.5"/>
<text text-anchor="middle" x="303.5" y="-84.5" font-family="Helvetica,sans-Serif" font-size="10.00">CommandParser::parse</text>
</a>
</g>
</g>
<!-- Node3&#45;&gt;Node5 -->
<g id="edge4_Node000003_Node000005" class="edge">
<title>Node3&#45;&gt;Node5</title>
<g id="a_edge4_Node000003_Node000005"><a xlink:title=" ">
<path fill="none" stroke="#63b8ff" d="M581.7,-87C518.94,-87 428.91,-87 368.66,-87"/>
<polygon fill="#63b8ff" stroke="#63b8ff" points="581.92,-90.5 591.92,-87 581.92,-83.5 581.92,-90.5"/>
</a>
</g>
</g>
<!-- Node8 -->
<g id="Node000008" class="node">
<title>Node8</title>
<g id="a_Node000008"><a xlink:href="group__MemoryMonitorImpl.html#ga2f3e6563006e068b95ebf65b9942ccee" target="_top" xlink:title="Process multiple files and output formatted results.">
<polygon fill="white" stroke="#666666" points="556,-58.5 414,-58.5 414,-39.5 556,-39.5 556,-58.5"/>
<text text-anchor="middle" x="485" y="-46.5" font-family="Helvetica,sans-Serif" font-size="10.00">processAndOutputResults</text>
</a>
</g>
</g>
<!-- Node3&#45;&gt;Node8 -->
<g id="edge8_Node000003_Node000008" class="edge">
<title>Node3&#45;&gt;Node8</title>
<g id="a_edge8_Node000003_Node000008"><a xlink:title=" ">
<path fill="none" stroke="#63b8ff" d="M582.1,-70.74C563.72,-66.58 544.54,-62.24 528.2,-58.54"/>
<polygon fill="#63b8ff" stroke="#63b8ff" points="581.39,-74.17 591.92,-72.96 582.94,-67.34 581.39,-74.17"/>
</a>
</g>
</g>
<!-- Node6 -->
<g id="Node000006" class="node">
<title>Node6</title>
<g id="a_Node000006"><a xlink:href="main_8cpp.html#a0ddf1224851353fc92bfbff6f499fa97" target="_top" xlink:title="Main entry point for the Gaussian Extractor application.">
<polygon fill="white" stroke="#666666" points="41,-77.5 0,-77.5 0,-58.5 41,-58.5 41,-77.5"/>
<text text-anchor="middle" x="20.5" y="-65.5" font-family="Helvetica,sans-Serif" font-size="10.00">main</text>
</a>
</g>
</g>
<!-- Node5&#45;&gt;Node6 -->
<g id="edge5_Node000005_Node000006" class="edge">
<title>Node5&#45;&gt;Node6</title>
<g id="a_edge5_Node000005_Node000006"><a xlink:title=" ">
<path fill="none" stroke="#63b8ff" d="M228.28,-93.1C184.06,-95.23 126.98,-95.32 77,-87 64.74,-84.96 51.56,-80.55 41.13,-76.49"/>
<polygon fill="#63b8ff" stroke="#63b8ff" points="228.57,-96.59 238.37,-92.57 228.2,-89.6 228.57,-96.59"/>
</a>
</g>
</g>
<!-- Node7 -->
<g id="Node000007" class="node">
<title>Node7</title>
<g id="a_Node000007"><a xlink:href="interactive__mode_8cpp.html#a6b615c34054150d837dc45ed1c17b297" target="_top" xlink:title="Enhanced interactive command loop with TAB completion for Windows.">
<polygon fill="white" stroke="#666666" points="193,-77.5 77,-77.5 77,-58.5 193,-58.5 193,-77.5"/>
<text text-anchor="middle" x="135" y="-65.5" font-family="Helvetica,sans-Serif" font-size="10.00">run_interactive_loop</text>
</a>
</g>
</g>
<!-- Node5&#45;&gt;Node7 -->
<g id="edge6_Node000005_Node000007" class="edge">
<title>Node5&#45;&gt;Node7</title>
<g id="a_edge6_Node000005_Node000007"><a xlink:title=" ">
<path fill="none" stroke="#63b8ff" d="M227.94,-78.49C216.26,-77.16 204.35,-75.8 193.14,-74.52"/>
<polygon fill="#63b8ff" stroke="#63b8ff" points="227.79,-82 238.13,-79.65 228.59,-75.04 227.79,-82"/>
</a>
</g>
</g>
<!-- Node7&#45;&gt;Node6 -->
<g id="edge7_Node000007_Node000006" class="edge">
<title>Node7&#45;&gt;Node6</title>
<g id="a_edge7_Node000007_Node000006"><a xlink:title=" ">
<path fill="none" stroke="#63b8ff" d="M66.62,-68C57.37,-68 48.55,-68 41.19,-68"/>
<polygon fill="#63b8ff" stroke="#63b8ff" points="66.76,-71.5 76.76,-68 66.76,-64.5 66.76,-71.5"/>
</a>
</g>
</g>
<!-- Node9 -->
<g id="Node000009" class="node">
<title>Node9</title>
<g id="a_Node000009"><a xlink:href="group__ModuleExecutors.html#gaa356f7897fc875da426df1cf3c9c5b99" target="_top" xlink:title=" ">
<polygon fill="white" stroke="#666666" points="378,-58.5 229,-58.5 229,-39.5 378,-39.5 378,-58.5"/>
<text text-anchor="middle" x="303.5" y="-46.5" font-family="Helvetica,sans-Serif" font-size="10.00">execute_extract_command</text>
</a>
</g>
</g>
<!-- Node8&#45;&gt;Node9 -->
<g id="edge9_Node000008_Node000009" class="edge">
<title>Node8&#45;&gt;Node9</title>
<g id="a_edge9_Node000008_Node000009"><a xlink:title=" ">
<path fill="none" stroke="#63b8ff" d="M403.59,-49C395.13,-49 386.55,-49 378.17,-49"/>
<polygon fill="#63b8ff" stroke="#63b8ff" points="403.83,-52.5 413.83,-49 403.83,-45.5 403.83,-52.5"/>
</a>
</g>
</g>
<!-- Node9&#45;&gt;Node6 -->
<g id="edge10_Node000009_Node000006" class="edge">
<title>Node9&#45;&gt;Node6</title>
<g id="a_edge10_Node000009_Node000006"><a xlink:title=" ">
<path fill="none" stroke="#63b8ff" d="M218.8,-42.48C176.09,-40.8 123.48,-41.26 77,-49 64.74,-51.04 51.56,-55.45 41.13,-59.51"/>
<polygon fill="#63b8ff" stroke="#63b8ff" points="218.73,-45.98 228.88,-42.93 219.04,-38.99 218.73,-45.98"/>
</a>
</g>
</g>
<!-- Node9&#45;&gt;Node7 -->
<g id="edge11_Node000009_Node000007" class="edge">
<title>Node9&#45;&gt;Node7</title>
<g id="a_edge11_Node000009_Node000007"><a xlink:title=" ">
<path fill="none" stroke="#63b8ff" d="M218.8,-58.55C210.11,-59.54 201.42,-60.53 193.12,-61.48"/>
<polygon fill="#63b8ff" stroke="#63b8ff" points="219.45,-62 228.99,-57.39 218.65,-55.05 219.45,-62"/>
</a>
</g>
</g>
<!-- Node10&#45;&gt;Node3 -->
<g id="edge13_Node000010_Node000003" class="edge">
<title>Node10&#45;&gt;Node3</title>
<g id="a_edge13_Node000010_Node000003"><a xlink:title=" ">
<path fill="none" stroke="#63b8ff" d="M748.9,-100.39C738.64,-98.91 728.17,-97.4 718.14,-95.96"/>
<polygon fill="#63b8ff" stroke="#63b8ff" points="748.68,-103.9 759.08,-101.86 749.68,-96.97 748.68,-103.9"/>
</a>
</g>
</g>
<!-- Node11&#45;&gt;Node3 -->
<g id="edge15_Node000011_Node000003" class="edge">
<title>Node11&#45;&gt;Node3</title>
<g id="a_edge15_Node000011_Node000003"><a xlink:title=" ">
<path fill="none" stroke="#63b8ff" d="M748.9,-73.61C738.64,-75.09 728.17,-76.6 718.14,-78.04"/>
<polygon fill="#63b8ff" stroke="#63b8ff" points="749.68,-77.03 759.08,-72.14 748.68,-70.1 749.68,-77.03"/>
</a>
</g>
</g>
<!-- Node12&#45;&gt;Node3 -->
<g id="edge17_Node000012_Node000003" class="edge">
<title>Node12&#45;&gt;Node3</title>
<g id="a_edge17_Node000012_Node000003"><a xlink:title=" ">
<path fill="none" stroke="#63b8ff" d="M767.47,-33.63C762.89,-35.38 758.35,-37.18 754,-39 730.23,-48.94 704.06,-61.87 684.74,-71.8"/>
<polygon fill="#63b8ff" stroke="#63b8ff" points="768.74,-36.9 776.89,-30.13 766.3,-30.34 768.74,-36.9"/>
</a>
</g>
</g>
</g>
</svg>
