<?xml version="1.0" encoding="UTF-8" standalone="no"?>
<!DOCTYPE svg PUBLIC "-//W3C//DTD SVG 1.1//EN"
 "http://www.w3.org/Graphics/SVG/1.1/DTD/svg11.dtd">
<!-- Generated by graphviz version 2.43.0 (0)
 -->
<!-- Title: HighLevelEnergyCalculator::process_directory_parallel Pages: 1 -->
<!--zoomable 471 -->

<svg id="main" version="1.1" xmlns="http://www.w3.org/2000/svg" xmlns:xlink="http://www.w3.org/1999/xlink" xml:space="preserve" onload="init(evt)">
<style type="text/css"><![CDATA[
.node, .edge {opacity: 0.7;}
.node.selected, .edge.selected {opacity: 1;}
.edge:hover path { stroke: red; }
.edge:hover polygon { stroke: red; fill: red; }
]]></style>

<defs>
  <circle id="rim" cx="0" cy="0" r="7"/>
  <circle id="rim2" cx="0" cy="0" r="3.5"/>
  <g id="zoomPlus">
    <use xlink:href="#rim" fill="#404040"><set attributeName="fill" to="#808080" begin="zoomplus.mouseover" end="zoomplus.mouseout"/></use>
    <path d="M-4,0h8M0,-4v8" fill="none" stroke="white" stroke-width="1.5" pointer-events="none"/>
  </g>
  <g id="zoomMin">
    <use xlink:href="#rim" fill="#404040"><set attributeName="fill" to="#808080" begin="zoomminus.mouseover" end="zoomminus.mouseout"/></use>
    <path d="M-4,0h8" fill="none" stroke="white" stroke-width="1.5" pointer-events="none"/>
  </g>
  <g id="arrowUp" transform="translate(30 24)">
    <use xlink:href="#rim"/>
    <path pointer-events="none" fill="none" stroke="white" stroke-width="1.5" d="M0,-3.0v7 M-2.5,-0.5L0,-3.0L2.5,-0.5"/>
  </g>
  <g id="arrowRight" transform="rotate(90) translate(36 -43)">
    <use xlink:href="#rim"/>
    <path pointer-events="none" fill="none" stroke="white" stroke-width="1.5" d="M0,-3.0v7 M-2.5,-0.5L0,-3.0L2.5,-0.5"/>
  </g>
  <g id="arrowDown" transform="rotate(180) translate(-30 -48)">
    <use xlink:href="#rim"/>
    <path pointer-events="none" fill="none" stroke="white" stroke-width="1.5" d="M0,-3.0v7 M-2.5,-0.5L0,-3.0L2.5,-0.5"/>
  </g>
  <g id="arrowLeft" transform="rotate(270) translate(-36 17)">
    <use xlink:href="#rim"/>
    <path pointer-events="none" fill="none" stroke="white" stroke-width="1.5" d="M0,-3.0v7 M-2.5,-0.5L0,-3.0L2.5,-0.5"/>
  </g>
  <g id="resetDef">
    <use xlink:href="#rim2" fill="#404040"><set attributeName="fill" to="#808080" begin="reset.mouseover" end="reset.mouseout"/></use>
  </g>
</defs>
<script type="application/ecmascript">
var viewWidth = 1152;
var viewHeight = 471;
var sectionId = 'dynsection-4';
</script>
<script type="application/ecmascript" xlink:href="svg.min.js"/>
<svg id="graph" class="graph">
<g id="viewport">
<title>HighLevelEnergyCalculator::process_directory_parallel</title>
<!-- Node1 -->
<g id="Node000001" class="node">
<title>Node1</title>
<g id="a_Node000001"><a xlink:title="Process entire directory with parallel processing.">
<polygon fill="#999999" stroke="#666666" points="151,-232 0,-232 0,-202 151,-202 151,-232"/>
<text text-anchor="start" x="8" y="-220" font-family="Helvetica,sans-Serif" font-size="10.00">HighLevelEnergyCalculator</text>
<text text-anchor="middle" x="75.5" y="-209" font-family="Helvetica,sans-Serif" font-size="10.00">::process_directory_parallel</text>
</a>
</g>
</g>
<!-- Node2 -->
<g id="Node000002" class="node">
<title>Node2</title>
<g id="a_Node000002"><a xlink:href="group__ParallelProcessing.html#ga7284fff26bdeb8bf8a60cd7ead5ab0c8" target="_top" xlink:title="Calculate optimal number of threads for processing.">
<polygon fill="white" stroke="#666666" points="350.5,-297 198.5,-297 198.5,-267 350.5,-267 350.5,-297"/>
<text text-anchor="start" x="206.5" y="-285" font-family="Helvetica,sans-Serif" font-size="10.00">HighLevelEnergyCalculator</text>
<text text-anchor="middle" x="274.5" y="-274" font-family="Helvetica,sans-Serif" font-size="10.00">::calculate_optimal_threads</text>
</a>
</g>
</g>
<!-- Node1&#45;&gt;Node2 -->
<g id="edge1_Node000001_Node000002" class="edge">
<title>Node1&#45;&gt;Node2</title>
<g id="a_edge1_Node000001_Node000002"><a xlink:title=" ">
<path fill="none" stroke="#63b8ff" d="M114.58,-232.03C135.75,-240.17 162.66,-250.13 187,-258 193.38,-260.06 200.05,-262.11 206.74,-264.09"/>
<polygon fill="#63b8ff" stroke="#63b8ff" points="205.95,-267.5 216.53,-266.93 207.9,-260.78 205.95,-267.5"/>
</a>
</g>
</g>
<!-- Node3 -->
<g id="Node000003" class="node">
<title>Node3</title>
<g id="a_Node000003"><a xlink:href="group__MemoryMonitorImpl.html#ga9a325bd1793b5dc5e9490383802ad169" target="_top" xlink:title=" ">
<polygon fill="white" stroke="#666666" points="311.5,-248.5 237.5,-248.5 237.5,-229.5 311.5,-229.5 311.5,-248.5"/>
<text text-anchor="middle" x="274.5" y="-236.5" font-family="Helvetica,sans-Serif" font-size="10.00">findLogFiles</text>
</a>
</g>
</g>
<!-- Node1&#45;&gt;Node3 -->
<g id="edge2_Node000001_Node000003" class="edge">
<title>Node1&#45;&gt;Node3</title>
<g id="a_edge2_Node000001_Node000003"><a xlink:title=" ">
<path fill="none" stroke="#63b8ff" d="M151.26,-225.35C176.84,-228.21 204.69,-231.32 227.34,-233.84"/>
<polygon fill="#63b8ff" stroke="#63b8ff" points="227.02,-237.33 237.35,-234.96 227.8,-230.37 227.02,-237.33"/>
</a>
</g>
</g>
<!-- Node5 -->
<g id="Node000005" class="node">
<title>Node5</title>
<g id="a_Node000005"><a xlink:href="group__ParallelProcessing.html#ga30ddb3084923fb944336f5c6cf7f43e8" target="_top" xlink:title="Enhanced parallel processing using thread pool.">
<polygon fill="white" stroke="#666666" points="362,-211 187,-211 187,-181 362,-181 362,-211"/>
<text text-anchor="start" x="195" y="-199" font-family="Helvetica,sans-Serif" font-size="10.00">HighLevelEnergyCalculator</text>
<text text-anchor="middle" x="274.5" y="-188" font-family="Helvetica,sans-Serif" font-size="10.00">::process_files_with_thread_pool</text>
</a>
</g>
</g>
<!-- Node1&#45;&gt;Node5 -->
<g id="edge4_Node000001_Node000005" class="edge">
<title>Node1&#45;&gt;Node5</title>
<g id="a_edge4_Node000001_Node000005"><a xlink:title=" ">
<path fill="none" stroke="#63b8ff" d="M151.26,-209.03C159.63,-208.14 168.24,-207.22 176.84,-206.3"/>
<polygon fill="#63b8ff" stroke="#63b8ff" points="177.33,-209.77 186.91,-205.23 176.59,-202.81 177.33,-209.77"/>
</a>
</g>
</g>
<!-- Node26 -->
<g id="Node000026" class="node">
<title>Node26</title>
<g id="a_Node000026"><a xlink:href="group__ParallelProcessing.html#gabec4688b920a6d3fc3c4046ab063c2cc" target="_top" xlink:title="Validate and prepare files for processing.">
<polygon fill="white" stroke="#666666" points="555.5,-78 401.5,-78 401.5,-48 555.5,-48 555.5,-78"/>
<text text-anchor="start" x="409.5" y="-66" font-family="Helvetica,sans-Serif" font-size="10.00">HighLevelEnergyCalculator</text>
<text text-anchor="middle" x="478.5" y="-55" font-family="Helvetica,sans-Serif" font-size="10.00">::validate_and_prepare_files</text>
</a>
</g>
</g>
<!-- Node1&#45;&gt;Node26 -->
<g id="edge29_Node000001_Node000026" class="edge">
<title>Node1&#45;&gt;Node26</title>
<g id="a_edge29_Node000001_Node000026"><a xlink:title=" ">
<path fill="none" stroke="#63b8ff" d="M112.73,-201.95C134.25,-193.08 162.12,-181.73 187,-172 270.46,-139.35 368.14,-103.1 426.3,-81.72"/>
<polygon fill="#63b8ff" stroke="#63b8ff" points="427.81,-84.9 435.99,-78.16 425.4,-78.33 427.81,-84.9"/>
</a>
</g>
</g>
<!-- Node4 -->
<g id="Node000004" class="node">
<title>Node4</title>
<g id="a_Node000004"><a xlink:href="group__MemoryMonitorImpl.html#ga92b44bc7f664ca63d4213f46ecc7714f" target="_top" xlink:title="Find all Gaussian log files in the current directory.">
<polygon fill="white" stroke="#666666" points="515.5,-270.5 441.5,-270.5 441.5,-251.5 515.5,-251.5 515.5,-270.5"/>
<text text-anchor="middle" x="478.5" y="-258.5" font-family="Helvetica,sans-Serif" font-size="10.00">findLogFiles</text>
</a>
</g>
</g>
<!-- Node3&#45;&gt;Node4 -->
<g id="edge3_Node000003_Node000004" class="edge">
<title>Node3&#45;&gt;Node4</title>
<g id="a_edge3_Node000003_Node000004"><a xlink:title=" ">
<path fill="none" stroke="#63b8ff" d="M311.61,-242.93C344.97,-246.57 394.72,-251.98 431.03,-255.94"/>
<polygon fill="#63b8ff" stroke="#63b8ff" points="431.04,-259.46 441.36,-257.06 431.8,-252.5 431.04,-259.46"/>
</a>
</g>
</g>
<!-- Node6 -->
<g id="Node000006" class="node">
<title>Node6</title>
<g id="a_Node000006"><a xlink:href="group__MainCalculation.html#gacaba75cc61d8b3ec08efd5976ce4325f" target="_top" xlink:title="Calculate high&#45;level energy for a single file.">
<polygon fill="white" stroke="#666666" points="559,-233 398,-233 398,-203 559,-203 559,-233"/>
<text text-anchor="start" x="406" y="-221" font-family="Helvetica,sans-Serif" font-size="10.00">HighLevelEnergyCalculator</text>
<text text-anchor="middle" x="478.5" y="-210" font-family="Helvetica,sans-Serif" font-size="10.00">::calculate_high_level_energy</text>
</a>
</g>
</g>
<!-- Node5&#45;&gt;Node6 -->
<g id="edge5_Node000005_Node000006" class="edge">
<title>Node5&#45;&gt;Node6</title>
<g id="a_edge5_Node000005_Node000006"><a xlink:title=" ">
<path fill="none" stroke="#63b8ff" d="M362.05,-205.43C370.59,-206.36 379.27,-207.3 387.85,-208.24"/>
<polygon fill="#63b8ff" stroke="#63b8ff" points="387.52,-211.72 397.84,-209.32 388.28,-204.76 387.52,-211.72"/>
</a>
</g>
</g>
<!-- Node25 -->
<g id="Node000025" class="node">
<title>Node25</title>
<g id="a_Node000025"><a xlink:href="classFileContentCache.html#a3d01efe01d3c3c5c2d9b04bdc0064df0" target="_top" xlink:title=" ">
<polygon fill="white" stroke="#666666" points="544.5,-184.5 412.5,-184.5 412.5,-165.5 544.5,-165.5 544.5,-184.5"/>
<text text-anchor="middle" x="478.5" y="-172.5" font-family="Helvetica,sans-Serif" font-size="10.00">FileContentCache::clear</text>
</a>
</g>
</g>
<!-- Node5&#45;&gt;Node25 -->
<g id="edge28_Node000005_Node000025" class="edge">
<title>Node5&#45;&gt;Node25</title>
<g id="a_edge28_Node000005_Node000025"><a xlink:title=" ">
<path fill="none" stroke="#63b8ff" d="M362.05,-187C375.31,-185.62 388.92,-184.21 401.92,-182.86"/>
<polygon fill="#63b8ff" stroke="#63b8ff" points="402.62,-186.3 412.2,-181.79 401.89,-179.34 402.62,-186.3"/>
</a>
</g>
</g>
<!-- Node7 -->
<g id="Node000007" class="node">
<title>Node7</title>
<g id="a_Node000007"><a xlink:href="group__CalculationHelpers.html#ga77837f5437ca34aa38ba7c9518d85480" target="_top" xlink:title="Calculate phase correction for concentration effects.">
<polygon fill="white" stroke="#666666" points="762,-415 607,-415 607,-385 762,-385 762,-415"/>
<text text-anchor="start" x="615" y="-403" font-family="Helvetica,sans-Serif" font-size="10.00">HighLevelEnergyCalculator</text>
<text text-anchor="middle" x="684.5" y="-392" font-family="Helvetica,sans-Serif" font-size="10.00">::calculate_phase_correction</text>
</a>
</g>
</g>
<!-- Node6&#45;&gt;Node7 -->
<g id="edge6_Node000006_Node000007" class="edge">
<title>Node6&#45;&gt;Node7</title>
<g id="a_edge6_Node000006_Node000007"><a xlink:title=" ">
<path fill="none" stroke="#63b8ff" d="M546.36,-233.11C550.99,-235.87 555.29,-239.14 559,-243 601.42,-287.17 551.71,-332.69 595,-376 596.09,-377.09 597.22,-378.13 598.4,-379.13"/>
<polygon fill="#63b8ff" stroke="#63b8ff" points="596.5,-382.07 606.66,-385.06 600.58,-376.39 596.5,-382.07"/>
</a>
</g>
</g>
<!-- Node8 -->
<g id="Node000008" class="node">
<title>Node8</title>
<g id="a_Node000008"><a xlink:href="group__CalculationHelpers.html#ga375d0ec0aea5fde065c700c0d4ef8a62" target="_top" xlink:title="Calculate thermal correction excluding zero&#45;point energy.">
<polygon fill="white" stroke="#666666" points="759,-367 610,-367 610,-337 759,-337 759,-367"/>
<text text-anchor="start" x="618" y="-355" font-family="Helvetica,sans-Serif" font-size="10.00">HighLevelEnergyCalculator</text>
<text text-anchor="middle" x="684.5" y="-344" font-family="Helvetica,sans-Serif" font-size="10.00">::calculate_thermal_only</text>
</a>
</g>
</g>
<!-- Node6&#45;&gt;Node8 -->
<g id="edge7_Node000006_Node000008" class="edge">
<title>Node6&#45;&gt;Node8</title>
<g id="a_edge7_Node000006_Node000008"><a xlink:title=" ">
<path fill="none" stroke="#63b8ff" d="M544.63,-233.05C549.83,-235.82 554.72,-239.11 559,-243 589.37,-270.59 564.09,-301.03 595,-328 596.94,-329.69 598.99,-331.27 601.13,-332.74"/>
<polygon fill="#63b8ff" stroke="#63b8ff" points="599.37,-335.76 609.76,-337.86 602.95,-329.74 599.37,-335.76"/>
</a>
</g>
</g>
<!-- Node9 -->
<g id="Node000009" class="node">
<title>Node9</title>
<g id="a_Node000009"><a xlink:href="group__CalculationHelpers.html#ga94758e5fb907b423285c3b2c2ba8ee97" target="_top" xlink:title="Determine job completion status from log file.">
<polygon fill="white" stroke="#666666" points="759,-319 610,-319 610,-289 759,-289 759,-319"/>
<text text-anchor="start" x="618" y="-307" font-family="Helvetica,sans-Serif" font-size="10.00">HighLevelEnergyCalculator</text>
<text text-anchor="middle" x="684.5" y="-296" font-family="Helvetica,sans-Serif" font-size="10.00">::determine_job_status</text>
</a>
</g>
</g>
<!-- Node6&#45;&gt;Node9 -->
<g id="edge8_Node000006_Node000009" class="edge">
<title>Node6&#45;&gt;Node9</title>
<g id="a_edge8_Node000006_Node000009"><a xlink:title=" ">
<path fill="none" stroke="#63b8ff" d="M537.6,-233.1C545.01,-235.93 552.33,-239.22 559,-243 577.62,-253.56 576.44,-264.33 595,-275 601.7,-278.85 608.99,-282.28 616.41,-285.3"/>
<polygon fill="#63b8ff" stroke="#63b8ff" points="615.25,-288.6 625.84,-288.92 617.75,-282.07 615.25,-288.6"/>
</a>
</g>
</g>
<!-- Node12 -->
<g id="Node000012" class="node">
<title>Node12</title>
<g id="a_Node000012"><a xlink:href="group__EnergyExtraction.html#gaa64c4afe3577a5e147f0c3837d10a021" target="_top" xlink:title="Extract thermal correction data from low&#45;level calculation.">
<polygon fill="white" stroke="#666666" points="774,-147 595,-147 595,-117 774,-117 774,-147"/>
<text text-anchor="start" x="603" y="-135" font-family="Helvetica,sans-Serif" font-size="10.00">HighLevelEnergyCalculator</text>
<text text-anchor="middle" x="684.5" y="-124" font-family="Helvetica,sans-Serif" font-size="10.00">::extract_low_level_thermal_data</text>
</a>
</g>
</g>
<!-- Node6&#45;&gt;Node12 -->
<g id="edge11_Node000006_Node000012" class="edge">
<title>Node6&#45;&gt;Node12</title>
<g id="a_edge11_Node000006_Node000012"><a xlink:title=" ">
<path fill="none" stroke="#63b8ff" d="M539.75,-203C546.43,-200.41 552.99,-197.42 559,-194 577.86,-183.26 576.27,-171.96 595,-161 601.43,-157.24 608.41,-153.89 615.53,-150.93"/>
<polygon fill="#63b8ff" stroke="#63b8ff" points="617.25,-154.02 625.3,-147.14 614.71,-147.5 617.25,-154.02"/>
</a>
</g>
</g>
<!-- Node13 -->
<g id="Node000013" class="node">
<title>Node13</title>
<g id="a_Node000013"><a xlink:href="group__EnergyExtraction.html#ga42389d55a3f27a4e7f077a16d956b957" target="_top" xlink:title="Extract specific energy value from log file using pattern matching.">
<polygon fill="white" stroke="#666666" points="959,-142 810,-142 810,-112 959,-112 959,-142"/>
<text text-anchor="start" x="818" y="-130" font-family="Helvetica,sans-Serif" font-size="10.00">HighLevelEnergyCalculator</text>
<text text-anchor="middle" x="884.5" y="-119" font-family="Helvetica,sans-Serif" font-size="10.00">::extract_value_from_file</text>
</a>
</g>
</g>
<!-- Node6&#45;&gt;Node13 -->
<g id="edge23_Node000006_Node000013" class="edge">
<title>Node6&#45;&gt;Node13</title>
<g id="a_edge23_Node000006_Node000013"><a xlink:title=" ">
<path fill="none" stroke="#63b8ff" d="M552.05,-202.93C632.13,-186.26 752.62,-161.08 774,-156 788.61,-152.53 804.25,-148.55 819.01,-144.67"/>
<polygon fill="#63b8ff" stroke="#63b8ff" points="820.28,-147.95 829.06,-142.01 818.49,-141.19 820.28,-147.95"/>
</a>
</g>
</g>
<!-- Node18 -->
<g id="Node000018" class="node">
<title>Node18</title>
<g id="a_Node000018"><a xlink:href="group__CalculationHelpers.html#ga32a761d03cac358dbe6d17dccf3c3ec3" target="_top" xlink:title="Extract lowest vibrational frequency from parent file.">
<polygon fill="white" stroke="#666666" points="759,-233 610,-233 610,-203 759,-203 759,-233"/>
<text text-anchor="start" x="618" y="-221" font-family="Helvetica,sans-Serif" font-size="10.00">HighLevelEnergyCalculator</text>
<text text-anchor="middle" x="684.5" y="-210" font-family="Helvetica,sans-Serif" font-size="10.00">::extract_lowest_frequency</text>
</a>
</g>
</g>
<!-- Node6&#45;&gt;Node18 -->
<g id="edge18_Node000006_Node000018" class="edge">
<title>Node6&#45;&gt;Node18</title>
<g id="a_edge18_Node000006_Node000018"><a xlink:title=" ">
<path fill="none" stroke="#63b8ff" d="M559.25,-218C572.52,-218 586.31,-218 599.68,-218"/>
<polygon fill="#63b8ff" stroke="#63b8ff" points="599.8,-221.5 609.8,-218 599.8,-214.5 599.8,-221.5"/>
</a>
</g>
</g>
<!-- Node21 -->
<g id="Node000021" class="node">
<title>Node21</title>
<g id="a_Node000021"><a xlink:href="group__FileUtilities.html#ga6dd8fb2393bb29704be0e92003989e45" target="_top" xlink:title="Read complete file content.">
<polygon fill="white" stroke="#666666" points="959,-286 810,-286 810,-256 959,-256 959,-286"/>
<text text-anchor="start" x="818" y="-274" font-family="Helvetica,sans-Serif" font-size="10.00">HighLevelEnergyCalculator</text>
<text text-anchor="middle" x="884.5" y="-263" font-family="Helvetica,sans-Serif" font-size="10.00">::read_file_content</text>
</a>
</g>
</g>
<!-- Node6&#45;&gt;Node21 -->
<g id="edge25_Node000006_Node000021" class="edge">
<title>Node6&#45;&gt;Node21</title>
<g id="a_edge25_Node000006_Node000021"><a xlink:title=" ">
<path fill="none" stroke="#63b8ff" d="M545.86,-233.03C561.89,-236.32 579.01,-239.54 595,-242 663.53,-252.53 741.83,-260.13 799.55,-264.9"/>
<polygon fill="#63b8ff" stroke="#63b8ff" points="799.46,-268.4 809.71,-265.72 800.03,-261.42 799.46,-268.4"/>
</a>
</g>
</g>
<!-- Node22 -->
<g id="Node000022" class="node">
<title>Node22</title>
<g id="a_Node000022"><a xlink:href="group__FileUtilities.html#ga181c65f6b55859249f23a68e2f64f4bf" target="_top" xlink:title="Get corresponding parent directory file path.">
<polygon fill="white" stroke="#666666" points="759,-99 610,-99 610,-69 759,-69 759,-99"/>
<text text-anchor="start" x="618" y="-87" font-family="Helvetica,sans-Serif" font-size="10.00">HighLevelEnergyCalculator</text>
<text text-anchor="middle" x="684.5" y="-76" font-family="Helvetica,sans-Serif" font-size="10.00">::get_parent_file</text>
</a>
</g>
</g>
<!-- Node6&#45;&gt;Node22 -->
<g id="edge24_Node000006_Node000022" class="edge">
<title>Node6&#45;&gt;Node22</title>
<g id="a_edge24_Node000006_Node000022"><a xlink:title=" ">
<path fill="none" stroke="#63b8ff" d="M546.19,-202.99C550.8,-200.45 555.15,-197.48 559,-194 589.77,-166.25 563.84,-135.31 595,-108 596.94,-106.3 598.98,-104.72 601.12,-103.25"/>
<polygon fill="#63b8ff" stroke="#63b8ff" points="602.94,-106.24 609.74,-98.12 599.36,-100.23 602.94,-106.24"/>
</a>
</g>
</g>
<!-- Node23 -->
<g id="Node000023" class="node">
<title>Node23</title>
<g id="a_Node000023"><a xlink:href="group__SafetyHelpers.html#ga1ecdc84dce43277ebe3c068b66d2836a" target="_top" xlink:title="Safe file reading with memory and handle management.">
<polygon fill="white" stroke="#666666" points="759,-51 610,-51 610,-21 759,-21 759,-51"/>
<text text-anchor="start" x="618" y="-39" font-family="Helvetica,sans-Serif" font-size="10.00">HighLevelEnergyCalculator</text>
<text text-anchor="middle" x="684.5" y="-28" font-family="Helvetica,sans-Serif" font-size="10.00">::safe_read_file</text>
</a>
</g>
</g>
<!-- Node6&#45;&gt;Node23 -->
<g id="edge26_Node000006_Node000023" class="edge">
<title>Node6&#45;&gt;Node23</title>
<g id="a_edge26_Node000006_Node000023"><a xlink:title=" ">
<path fill="none" stroke="#63b8ff" d="M547.84,-202.87C551.91,-200.35 555.69,-197.42 559,-194 601.93,-149.73 551.45,-103.66 595,-60 596.92,-58.08 598.97,-56.3 601.14,-54.67"/>
<polygon fill="#63b8ff" stroke="#63b8ff" points="603.44,-57.35 609.99,-49.02 599.68,-51.45 603.44,-57.35"/>
</a>
</g>
</g>
<!-- Node24 -->
<g id="Node000024" class="node">
<title>Node24</title>
<g id="a_Node000024"><a xlink:href="group__ValidationUtils.html#gabe3d651ced16adc942b77bd92be3116a" target="_top" xlink:title="Validate complete energy data structure for consistency.">
<polygon fill="white" stroke="#666666" points="748.5,-463 620.5,-463 620.5,-433 748.5,-433 748.5,-463"/>
<text text-anchor="start" x="628.5" y="-451" font-family="Helvetica,sans-Serif" font-size="10.00">HighLevelEnergyUtils</text>
<text text-anchor="middle" x="684.5" y="-440" font-family="Helvetica,sans-Serif" font-size="10.00">::validate_energy_data</text>
</a>
</g>
</g>
<!-- Node6&#45;&gt;Node24 -->
<g id="edge27_Node000006_Node000024" class="edge">
<title>Node6&#45;&gt;Node24</title>
<g id="a_edge27_Node000006_Node000024"><a xlink:title=" ">
<path fill="none" stroke="#63b8ff" d="M547.02,-233.07C551.45,-235.84 555.52,-239.12 559,-243 613.77,-304.05 539.02,-364.05 595,-424 599.49,-428.81 604.84,-432.69 610.65,-435.82"/>
<polygon fill="#63b8ff" stroke="#63b8ff" points="609.56,-439.17 620.11,-440.14 612.47,-432.8 609.56,-439.17"/>
</a>
</g>
</g>
<!-- Node10 -->
<g id="Node000010" class="node">
<title>Node10</title>
<g id="a_Node000010"><a xlink:href="group__FileUtilities.html#ga013cf7e36016b0531852c469c9bc98b7" target="_top" xlink:title="Read last N lines from file.">
<polygon fill="white" stroke="#666666" points="959,-334 810,-334 810,-304 959,-304 959,-334"/>
<text text-anchor="start" x="818" y="-322" font-family="Helvetica,sans-Serif" font-size="10.00">HighLevelEnergyCalculator</text>
<text text-anchor="middle" x="884.5" y="-311" font-family="Helvetica,sans-Serif" font-size="10.00">::read_file_tail</text>
</a>
</g>
</g>
<!-- Node9&#45;&gt;Node10 -->
<g id="edge9_Node000009_Node000010" class="edge">
<title>Node9&#45;&gt;Node10</title>
<g id="a_edge9_Node000009_Node000010"><a xlink:title=" ">
<path fill="none" stroke="#63b8ff" d="M759.23,-309.59C772.37,-310.58 786.15,-311.62 799.55,-312.64"/>
<polygon fill="#63b8ff" stroke="#63b8ff" points="799.47,-316.14 809.71,-313.41 800,-309.16 799.47,-316.14"/>
</a>
</g>
</g>
<!-- Node11 -->
<g id="Node000011" class="node">
<title>Node11</title>
<g id="a_Node000011"><a xlink:href="classFileContentCache.html#affecb88aac28ec372fe984ab6ec0279c" target="_top" xlink:title=" ">
<polygon fill="white" stroke="#666666" points="1131.5,-286 1007.5,-286 1007.5,-256 1131.5,-256 1131.5,-286"/>
<text text-anchor="start" x="1015.5" y="-274" font-family="Helvetica,sans-Serif" font-size="10.00">FileContentCache::get</text>
<text text-anchor="middle" x="1069.5" y="-263" font-family="Helvetica,sans-Serif" font-size="10.00">_or_read</text>
</a>
</g>
</g>
<!-- Node10&#45;&gt;Node11 -->
<g id="edge10_Node000010_Node000011" class="edge">
<title>Node10&#45;&gt;Node11</title>
<g id="a_edge10_Node000010_Node000011"><a xlink:title=" ">
<path fill="none" stroke="#63b8ff" d="M942.9,-303.94C961.47,-299.07 982.22,-293.63 1001.42,-288.59"/>
<polygon fill="#63b8ff" stroke="#63b8ff" points="1002.52,-291.93 1011.3,-286 1000.74,-285.15 1002.52,-291.93"/>
</a>
</g>
</g>
<!-- Node12&#45;&gt;Node13 -->
<g id="edge12_Node000012_Node000013" class="edge">
<title>Node12&#45;&gt;Node13</title>
<g id="a_edge12_Node000012_Node000013"><a xlink:title=" ">
<path fill="none" stroke="#63b8ff" d="M774.08,-129.76C782.57,-129.55 791.16,-129.33 799.61,-129.12"/>
<polygon fill="#63b8ff" stroke="#63b8ff" points="799.91,-132.61 809.82,-128.86 799.73,-125.61 799.91,-132.61"/>
</a>
</g>
</g>
<!-- Node16 -->
<g id="Node000016" class="node">
<title>Node16</title>
<g id="a_Node000016"><a xlink:href="group__FileUtilities.html#gaa54ff385e8b08bff4fc34ec915a3ff8d" target="_top" xlink:title="Check if file exists and is accessible.">
<polygon fill="white" stroke="#666666" points="959,-30 810,-30 810,0 959,0 959,-30"/>
<text text-anchor="start" x="818" y="-18" font-family="Helvetica,sans-Serif" font-size="10.00">HighLevelEnergyCalculator</text>
<text text-anchor="middle" x="884.5" y="-7" font-family="Helvetica,sans-Serif" font-size="10.00">::file_exists</text>
</a>
</g>
</g>
<!-- Node12&#45;&gt;Node16 -->
<g id="edge16_Node000012_Node000016" class="edge">
<title>Node12&#45;&gt;Node16</title>
<g id="a_edge16_Node000012_Node000016"><a xlink:title=" ">
<path fill="none" stroke="#63b8ff" d="M758.46,-116.87C763.95,-114.35 769.2,-111.42 774,-108 797.18,-91.47 788.9,-74.12 810,-55 818.58,-47.23 828.93,-40.42 839.13,-34.73"/>
<polygon fill="#63b8ff" stroke="#63b8ff" points="840.81,-37.8 848,-30.02 837.53,-31.62 840.81,-37.8"/>
</a>
</g>
</g>
<!-- Node17 -->
<g id="Node000017" class="node">
<title>Node17</title>
<g id="a_Node000017"><a xlink:href="group__ValidationUtils.html#gad41dd357e75a3c0219b5ed3a6b964aa6" target="_top" xlink:title="Validate temperature value for physical reasonableness.">
<polygon fill="white" stroke="#666666" points="948.5,-94 820.5,-94 820.5,-64 948.5,-64 948.5,-94"/>
<text text-anchor="start" x="828.5" y="-82" font-family="Helvetica,sans-Serif" font-size="10.00">HighLevelEnergyUtils</text>
<text text-anchor="middle" x="884.5" y="-71" font-family="Helvetica,sans-Serif" font-size="10.00">::validate_temperature</text>
</a>
</g>
</g>
<!-- Node12&#45;&gt;Node17 -->
<g id="edge17_Node000012_Node000017" class="edge">
<title>Node12&#45;&gt;Node17</title>
<g id="a_edge17_Node000012_Node000017"><a xlink:title=" ">
<path fill="none" stroke="#63b8ff" d="M741.71,-116.95C765.22,-110.66 792.72,-103.3 817.22,-96.74"/>
<polygon fill="#63b8ff" stroke="#63b8ff" points="818.4,-100.05 827.15,-94.08 816.59,-93.29 818.4,-100.05"/>
</a>
</g>
</g>
<!-- Node13&#45;&gt;Node11 -->
<g id="edge14_Node000013_Node000011" class="edge">
<title>Node13&#45;&gt;Node11</title>
<g id="a_edge14_Node000013_Node000011"><a xlink:title=" ">
<path fill="none" stroke="#63b8ff" d="M941.88,-142.03C947.87,-144.6 953.7,-147.58 959,-151 998.81,-176.7 1033.53,-220.35 1052.69,-247.32"/>
<polygon fill="#63b8ff" stroke="#63b8ff" points="1049.99,-249.57 1058.58,-255.78 1055.74,-245.57 1049.99,-249.57"/>
</a>
</g>
</g>
<!-- Node14 -->
<g id="Node000014" class="node">
<title>Node14</title>
<g id="a_Node000014"><a xlink:href="structRegexPatterns.html#aeb75344b6b563c17108dbfaf60f486cc" target="_top" xlink:title=" ">
<polygon fill="white" stroke="#666666" points="1124,-166 1015,-166 1015,-136 1124,-136 1124,-166"/>
<text text-anchor="start" x="1023" y="-154" font-family="Helvetica,sans-Serif" font-size="10.00">RegexPatterns::get</text>
<text text-anchor="middle" x="1069.5" y="-143" font-family="Helvetica,sans-Serif" font-size="10.00">_instance</text>
</a>
</g>
</g>
<!-- Node13&#45;&gt;Node14 -->
<g id="edge13_Node000013_Node000014" class="edge">
<title>Node13&#45;&gt;Node14</title>
<g id="a_edge13_Node000013_Node000014"><a xlink:title=" ">
<path fill="none" stroke="#63b8ff" d="M959.14,-136.66C974.31,-138.65 990.17,-140.73 1004.94,-142.66"/>
<polygon fill="#63b8ff" stroke="#63b8ff" points="1004.61,-146.15 1014.98,-143.98 1005.52,-139.21 1004.61,-146.15"/>
</a>
</g>
</g>
<!-- Node15 -->
<g id="Node000015" class="node">
<title>Node15</title>
<g id="a_Node000015"><a xlink:href="group__SafetyHelpers.html#gaf25036f89725288871b9d856ca5f76ba" target="_top" xlink:title="Safe energy value parsing with validation.">
<polygon fill="white" stroke="#666666" points="1144,-118 995,-118 995,-88 1144,-88 1144,-118"/>
<text text-anchor="start" x="1003" y="-106" font-family="Helvetica,sans-Serif" font-size="10.00">HighLevelEnergyCalculator</text>
<text text-anchor="middle" x="1069.5" y="-95" font-family="Helvetica,sans-Serif" font-size="10.00">::safe_parse_energy</text>
</a>
</g>
</g>
<!-- Node13&#45;&gt;Node15 -->
<g id="edge15_Node000013_Node000015" class="edge">
<title>Node13&#45;&gt;Node15</title>
<g id="a_edge15_Node000013_Node000015"><a xlink:title=" ">
<path fill="none" stroke="#63b8ff" d="M959.14,-117.34C967.57,-116.24 976.2,-115.11 984.74,-113.98"/>
<polygon fill="#63b8ff" stroke="#63b8ff" points="985.25,-117.45 994.71,-112.68 984.34,-110.51 985.25,-117.45"/>
</a>
</g>
</g>
<!-- Node19 -->
<g id="Node000019" class="node">
<title>Node19</title>
<g id="a_Node000019"><a xlink:href="group__EnergyParsingUtils.html#ga95f6c769f275d3b7659d6f379b106b51" target="_top" xlink:title="Extract all vibrational frequencies from log file content.">
<polygon fill="white" stroke="#666666" points="945.5,-190 823.5,-190 823.5,-160 945.5,-160 945.5,-190"/>
<text text-anchor="start" x="831.5" y="-178" font-family="Helvetica,sans-Serif" font-size="10.00">HighLevelEnergyUtils</text>
<text text-anchor="middle" x="884.5" y="-167" font-family="Helvetica,sans-Serif" font-size="10.00">::extract_frequencies</text>
</a>
</g>
</g>
<!-- Node18&#45;&gt;Node19 -->
<g id="edge19_Node000018_Node000019" class="edge">
<title>Node18&#45;&gt;Node19</title>
<g id="a_edge19_Node000018_Node000019"><a xlink:title=" ">
<path fill="none" stroke="#63b8ff" d="M754.75,-202.96C773.74,-198.84 794.35,-194.36 813.39,-190.23"/>
<polygon fill="#63b8ff" stroke="#63b8ff" points="814.16,-193.64 823.19,-188.1 812.67,-186.8 814.16,-193.64"/>
</a>
</g>
</g>
<!-- Node20 -->
<g id="Node000020" class="node">
<title>Node20</title>
<g id="a_Node000020"><a xlink:href="group__EnergyParsingUtils.html#gaf1573e500ba7a88a65e5ccf978c00621" target="_top" xlink:title="Find lowest frequency from frequency list.">
<polygon fill="white" stroke="#666666" points="950.5,-238 818.5,-238 818.5,-208 950.5,-208 950.5,-238"/>
<text text-anchor="start" x="826.5" y="-226" font-family="Helvetica,sans-Serif" font-size="10.00">HighLevelEnergyUtils</text>
<text text-anchor="middle" x="884.5" y="-215" font-family="Helvetica,sans-Serif" font-size="10.00">::find_lowest_frequency</text>
</a>
</g>
</g>
<!-- Node18&#45;&gt;Node20 -->
<g id="edge20_Node000018_Node000020" class="edge">
<title>Node18&#45;&gt;Node20</title>
<g id="a_edge20_Node000018_Node000020"><a xlink:title=" ">
<path fill="none" stroke="#63b8ff" d="M759.23,-219.86C775.1,-220.26 791.9,-220.69 807.85,-221.09"/>
<polygon fill="#63b8ff" stroke="#63b8ff" points="808.1,-224.6 818.19,-221.35 808.28,-217.6 808.1,-224.6"/>
</a>
</g>
</g>
<!-- Node18&#45;&gt;Node21 -->
<g id="edge21_Node000018_Node000021" class="edge">
<title>Node18&#45;&gt;Node21</title>
<g id="a_edge21_Node000018_Node000021"><a xlink:title=" ">
<path fill="none" stroke="#63b8ff" d="M741.71,-233.05C765.22,-239.34 792.72,-246.7 817.22,-253.26"/>
<polygon fill="#63b8ff" stroke="#63b8ff" points="816.59,-256.71 827.15,-255.92 818.4,-249.95 816.59,-256.71"/>
</a>
</g>
</g>
<!-- Node21&#45;&gt;Node11 -->
<g id="edge22_Node000021_Node000011" class="edge">
<title>Node21&#45;&gt;Node11</title>
<g id="a_edge22_Node000021_Node000011"><a xlink:title=" ">
<path fill="none" stroke="#63b8ff" d="M959.14,-271C971.63,-271 984.59,-271 997.02,-271"/>
<polygon fill="#63b8ff" stroke="#63b8ff" points="997.33,-274.5 1007.33,-271 997.33,-267.5 997.33,-274.5"/>
</a>
</g>
</g>
<!-- Node26&#45;&gt;Node16 -->
<g id="edge30_Node000026_Node000016" class="edge">
<title>Node26&#45;&gt;Node16</title>
<g id="a_edge30_Node000026_Node000016"><a xlink:title=" ">
<path fill="none" stroke="#63b8ff" d="M505.06,-47.99C527.79,-35.57 562.4,-18.88 595,-12 662.73,2.29 741.42,0.28 799.48,-4.6"/>
<polygon fill="#63b8ff" stroke="#63b8ff" points="799.44,-8.11 809.71,-5.51 800.06,-1.14 799.44,-8.11"/>
</a>
</g>
</g>
</g>
</svg>

<g id="navigator" transform="translate(0 0)" fill="#404254">
  <rect fill="#f2f5e9" fill-opacity="0.5" stroke="#606060" stroke-width=".5" x="0" y="0" width="60" height="60"/>
  <use id="zoomplus" xlink:href="#zoomPlus" x="17" y="9" onmousedown="handleZoom(evt,'in')"/>
  <use id="zoomminus" xlink:href="#zoomMin" x="42" y="9" onmousedown="handleZoom(evt,'out')"/>
  <use id="reset" xlink:href="#resetDef" x="30" y="36" onmousedown="handleReset()"/>
   <use id="arrowup" xlink:href="#arrowUp" x="0" y="0" onmousedown="handlePan(0,-1)"/>
  <use id="arrowright" xlink:href="#arrowRight" x="0" y="0" onmousedown="handlePan(1,0)"/>
  <use id="arrowdown" xlink:href="#arrowDown" x="0" y="0" onmousedown="handlePan(0,1)"/>
  <use id="arrowleft" xlink:href="#arrowLeft" x="0" y="0" onmousedown="handlePan(-1,0)"/>
</g>
<svg viewBox="0 0 15 15" width="100%" height="30px" preserveAspectRatio="xMaxYMin meet">
 <g id="arrow_out" transform="scale(0.3 0.3)">
  <a xlink:href="group__MainCalculation_gac76ff006f7aae2e96c804a8ca786d692_cgraph_org.svg" target="_base">
   <rect id="button" ry="5" rx="5" y="6" x="6" height="38" width="38"
        fill="#f2f5e9" fill-opacity="0.5" stroke="#606060" stroke-width="1.0"/>
   <path id="arrow"
     d="M 11.500037,31.436501 C 11.940474,20.09759 22.043105,11.32322 32.158766,21.979434 L 37.068811,17.246167 C 37.068811,17.246167 37.088388,32 37.088388,32 L 22.160133,31.978069 C 22.160133,31.978069 26.997745,27.140456 26.997745,27.140456 C 18.528582,18.264221 13.291696,25.230495 11.500037,31.436501 z"
     style="fill:#404040;"/>
  </a>
 </g>
</svg>

<style type='text/css'>
<![CDATA[
[data-mouse-over-selected='false'] { opacity: 0.7; }
[data-mouse-over-selected='true']  { opacity: 1.0; }
]]>
</style>
<script type="application/ecmascript"><![CDATA[
document.addEventListener('DOMContentLoaded', (event) => {
  highlightEdges();
  highlightAdjacentNodes();
});
]]></script>
</svg>
