<?xml version="1.0" encoding="UTF-8" standalone="no"?>
<!DOCTYPE svg PUBLIC "-//W3C//DTD SVG 1.1//EN"
 "http://www.w3.org/Graphics/SVG/1.1/DTD/svg11.dtd">
<!-- Generated by graphviz version 2.43.0 (0)
 -->
<!-- Title: ConfigManager::set_value Pages: 1 -->
<svg width="435pt" height="59pt"
 viewBox="0.00 0.00 435.00 59.00" xmlns="http://www.w3.org/2000/svg" xmlns:xlink="http://www.w3.org/1999/xlink">
<g id="graph0" class="graph" transform="scale(1 1) rotate(0) translate(4 55)">
<title>ConfigManager::set_value</title>
<!-- Node1 -->
<g id="Node000001" class="node">
<title>Node1</title>
<g id="a_Node000001"><a xlink:title="Set double configuration value at runtime.">
<polygon fill="#999999" stroke="#666666" points="111,-51 0,-51 0,-21 111,-21 111,-51"/>
<text text-anchor="start" x="8" y="-39" font-family="Helvetica,sans-Serif" font-size="10.00">ConfigManager::set</text>
<text text-anchor="middle" x="55.5" y="-28" font-family="Helvetica,sans-Serif" font-size="10.00">_value</text>
</a>
</g>
</g>
<!-- Node2 -->
<g id="Node000002" class="node">
<title>Node2</title>
<g id="a_Node000002"><a xlink:href="group__ConfigInternals.html#ga5e387d61b1f34873cd3ab047242b2aad" target="_top" xlink:title="Template method for type&#45;safe value conversion.">
<polygon fill="white" stroke="#666666" points="427,-51 294,-51 294,-21 427,-21 427,-51"/>
<text text-anchor="start" x="302" y="-39" font-family="Helvetica,sans-Serif" font-size="10.00">ConfigManager::convert</text>
<text text-anchor="middle" x="360.5" y="-28" font-family="Helvetica,sans-Serif" font-size="10.00">_value</text>
</a>
</g>
</g>
<!-- Node1&#45;&gt;Node2 -->
<g id="edge1_Node000001_Node000002" class="edge">
<title>Node1&#45;&gt;Node2</title>
<g id="a_edge1_Node000001_Node000002"><a xlink:title=" ">
<path fill="none" stroke="#63b8ff" d="M111.05,-38.1C122.9,-38.48 135.37,-38.81 147,-39 196.33,-39.82 208.67,-39.73 258,-39 266.36,-38.88 275.11,-38.7 283.81,-38.48"/>
<polygon fill="#63b8ff" stroke="#63b8ff" points="284.08,-41.98 293.99,-38.22 283.9,-34.98 284.08,-41.98"/>
</a>
</g>
</g>
<!-- Node3 -->
<g id="Node000003" class="node">
<title>Node3</title>
<g id="a_Node000003"><a xlink:href="group__ConfigValueSetters.html#ga8aada98529c5d039d7bb37daa6d32859" target="_top" xlink:title="Set string configuration value at runtime.">
<polygon fill="white" stroke="#666666" points="258,-30 147,-30 147,0 258,0 258,-30"/>
<text text-anchor="start" x="155" y="-18" font-family="Helvetica,sans-Serif" font-size="10.00">ConfigManager::set</text>
<text text-anchor="middle" x="202.5" y="-7" font-family="Helvetica,sans-Serif" font-size="10.00">_value</text>
</a>
</g>
</g>
<!-- Node1&#45;&gt;Node3 -->
<g id="edge2_Node000001_Node000003" class="edge">
<title>Node1&#45;&gt;Node3</title>
<g id="a_edge2_Node000001_Node000003"><a xlink:title=" ">
<path fill="none" stroke="#63b8ff" d="M111.32,-28.06C119.53,-26.87 128.06,-25.64 136.46,-24.42"/>
<polygon fill="#63b8ff" stroke="#63b8ff" points="137.21,-27.85 146.6,-22.95 136.21,-20.92 137.21,-27.85"/>
</a>
</g>
</g>
<!-- Node3&#45;&gt;Node2 -->
<g id="edge3_Node000003_Node000002" class="edge">
<title>Node3&#45;&gt;Node2</title>
<g id="a_edge3_Node000003_Node000002"><a xlink:title=" ">
<path fill="none" stroke="#63b8ff" d="M258.06,-22.34C266.4,-23.47 275.13,-24.64 283.82,-25.81"/>
<polygon fill="#63b8ff" stroke="#63b8ff" points="283.6,-29.31 293.98,-27.18 284.53,-22.38 283.6,-29.31"/>
</a>
</g>
</g>
</g>
</svg>
