<?xml version="1.0" encoding="UTF-8" standalone="no"?>
<!DOCTYPE svg PUBLIC "-//W3C//DTD SVG 1.1//EN"
 "http://www.w3.org/Graphics/SVG/1.1/DTD/svg11.dtd">
<!-- Generated by graphviz version 2.43.0 (0)
 -->
<!-- Title: JobSchedulerDetector::detect_lsf_resources Pages: 1 -->
<svg width="885pt" height="103pt"
 viewBox="0.00 0.00 885.00 103.00" xmlns="http://www.w3.org/2000/svg" xmlns:xlink="http://www.w3.org/1999/xlink">
<g id="graph0" class="graph" transform="scale(1 1) rotate(0) translate(4 99)">
<title>JobSchedulerDetector::detect_lsf_resources</title>
<!-- Node1 -->
<g id="Node000001" class="node">
<title>Node1</title>
<g id="a_Node000001"><a xlink:title="Extract resource information from LSF environment.">
<polygon fill="#999999" stroke="#666666" points="877,-62.5 754,-62.5 754,-32.5 877,-32.5 877,-62.5"/>
<text text-anchor="start" x="762" y="-50.5" font-family="Helvetica,sans-Serif" font-size="10.00">JobSchedulerDetector</text>
<text text-anchor="middle" x="815.5" y="-39.5" font-family="Helvetica,sans-Serif" font-size="10.00">::detect_lsf_resources</text>
</a>
</g>
</g>
<!-- Node2 -->
<g id="Node000002" class="node">
<title>Node2</title>
<g id="a_Node000002"><a xlink:href="group__DetectionMethods.html#ga3e3cf834277c608e8557f70acba55430" target="_top" xlink:title="Detect current job scheduler and extract complete resource information.">
<polygon fill="white" stroke="#666666" points="718,-62.5 592,-62.5 592,-32.5 718,-32.5 718,-62.5"/>
<text text-anchor="start" x="600" y="-50.5" font-family="Helvetica,sans-Serif" font-size="10.00">JobSchedulerDetector</text>
<text text-anchor="middle" x="655" y="-39.5" font-family="Helvetica,sans-Serif" font-size="10.00">::detect_job_resources</text>
</a>
</g>
</g>
<!-- Node1&#45;&gt;Node2 -->
<g id="edge1_Node000001_Node000002" class="edge">
<title>Node1&#45;&gt;Node2</title>
<g id="a_edge1_Node000001_Node000002"><a xlink:title=" ">
<path fill="none" stroke="#63b8ff" d="M743.49,-47.5C735.07,-47.5 726.52,-47.5 718.24,-47.5"/>
<polygon fill="#63b8ff" stroke="#63b8ff" points="743.67,-51 753.67,-47.5 743.67,-44 743.67,-51"/>
</a>
</g>
</g>
<!-- Node3 -->
<g id="Node000003" class="node">
<title>Node3</title>
<g id="a_Node000003"><a xlink:href="group__MemoryMonitorImpl.html#gaba5928690c1d0bacdd79e7a15169d53c" target="_top" xlink:title=" ">
<polygon fill="white" stroke="#666666" points="543,-95 427,-95 427,-76 543,-76 543,-95"/>
<text text-anchor="middle" x="485" y="-83" font-family="Helvetica,sans-Serif" font-size="10.00">getSafeThreadCount</text>
</a>
</g>
</g>
<!-- Node2&#45;&gt;Node3 -->
<g id="edge2_Node000002_Node000003" class="edge">
<title>Node2&#45;&gt;Node3</title>
<g id="a_edge2_Node000002_Node000003"><a xlink:title=" ">
<path fill="none" stroke="#63b8ff" d="M582.1,-63.76C563.72,-67.92 544.54,-72.26 528.2,-75.96"/>
<polygon fill="#63b8ff" stroke="#63b8ff" points="582.94,-67.16 591.92,-61.54 581.39,-60.33 582.94,-67.16"/>
</a>
</g>
</g>
<!-- Node4 -->
<g id="Node000004" class="node">
<title>Node4</title>
<g id="a_Node000004"><a xlink:href="group__CommandExecutors.html#ga2c1ceafe241a0b4e19790bb5d878ed1a" target="_top" xlink:title="Parse command&#45;line arguments and create execution context.">
<polygon fill="white" stroke="#666666" points="368.5,-57 238.5,-57 238.5,-38 368.5,-38 368.5,-57"/>
<text text-anchor="middle" x="303.5" y="-45" font-family="Helvetica,sans-Serif" font-size="10.00">CommandParser::parse</text>
</a>
</g>
</g>
<!-- Node2&#45;&gt;Node4 -->
<g id="edge3_Node000002_Node000004" class="edge">
<title>Node2&#45;&gt;Node4</title>
<g id="a_edge3_Node000002_Node000004"><a xlink:title=" ">
<path fill="none" stroke="#63b8ff" d="M581.7,-47.5C518.94,-47.5 428.91,-47.5 368.66,-47.5"/>
<polygon fill="#63b8ff" stroke="#63b8ff" points="581.92,-51 591.92,-47.5 581.92,-44 581.92,-51"/>
</a>
</g>
</g>
<!-- Node7 -->
<g id="Node000007" class="node">
<title>Node7</title>
<g id="a_Node000007"><a xlink:href="group__MemoryMonitorImpl.html#ga2f3e6563006e068b95ebf65b9942ccee" target="_top" xlink:title="Process multiple files and output formatted results.">
<polygon fill="white" stroke="#666666" points="556,-19 414,-19 414,0 556,0 556,-19"/>
<text text-anchor="middle" x="485" y="-7" font-family="Helvetica,sans-Serif" font-size="10.00">processAndOutputResults</text>
</a>
</g>
</g>
<!-- Node2&#45;&gt;Node7 -->
<g id="edge7_Node000002_Node000007" class="edge">
<title>Node2&#45;&gt;Node7</title>
<g id="a_edge7_Node000002_Node000007"><a xlink:title=" ">
<path fill="none" stroke="#63b8ff" d="M582.1,-31.24C563.72,-27.08 544.54,-22.74 528.2,-19.04"/>
<polygon fill="#63b8ff" stroke="#63b8ff" points="581.39,-34.67 591.92,-33.46 582.94,-27.84 581.39,-34.67"/>
</a>
</g>
</g>
<!-- Node5 -->
<g id="Node000005" class="node">
<title>Node5</title>
<g id="a_Node000005"><a xlink:href="main_8cpp.html#a0ddf1224851353fc92bfbff6f499fa97" target="_top" xlink:title="Main entry point for the Gaussian Extractor application.">
<polygon fill="white" stroke="#666666" points="41,-38 0,-38 0,-19 41,-19 41,-38"/>
<text text-anchor="middle" x="20.5" y="-26" font-family="Helvetica,sans-Serif" font-size="10.00">main</text>
</a>
</g>
</g>
<!-- Node4&#45;&gt;Node5 -->
<g id="edge4_Node000004_Node000005" class="edge">
<title>Node4&#45;&gt;Node5</title>
<g id="a_edge4_Node000004_Node000005"><a xlink:title=" ">
<path fill="none" stroke="#63b8ff" d="M228.28,-53.6C184.06,-55.73 126.98,-55.82 77,-47.5 64.74,-45.46 51.56,-41.05 41.13,-36.99"/>
<polygon fill="#63b8ff" stroke="#63b8ff" points="228.57,-57.09 238.37,-53.07 228.2,-50.1 228.57,-57.09"/>
</a>
</g>
</g>
<!-- Node6 -->
<g id="Node000006" class="node">
<title>Node6</title>
<g id="a_Node000006"><a xlink:href="interactive__mode_8cpp.html#a6b615c34054150d837dc45ed1c17b297" target="_top" xlink:title="Enhanced interactive command loop with TAB completion for Windows.">
<polygon fill="white" stroke="#666666" points="193,-38 77,-38 77,-19 193,-19 193,-38"/>
<text text-anchor="middle" x="135" y="-26" font-family="Helvetica,sans-Serif" font-size="10.00">run_interactive_loop</text>
</a>
</g>
</g>
<!-- Node4&#45;&gt;Node6 -->
<g id="edge5_Node000004_Node000006" class="edge">
<title>Node4&#45;&gt;Node6</title>
<g id="a_edge5_Node000004_Node000006"><a xlink:title=" ">
<path fill="none" stroke="#63b8ff" d="M227.94,-38.99C216.26,-37.66 204.35,-36.3 193.14,-35.02"/>
<polygon fill="#63b8ff" stroke="#63b8ff" points="227.79,-42.5 238.13,-40.15 228.59,-35.54 227.79,-42.5"/>
</a>
</g>
</g>
<!-- Node6&#45;&gt;Node5 -->
<g id="edge6_Node000006_Node000005" class="edge">
<title>Node6&#45;&gt;Node5</title>
<g id="a_edge6_Node000006_Node000005"><a xlink:title=" ">
<path fill="none" stroke="#63b8ff" d="M66.62,-28.5C57.37,-28.5 48.55,-28.5 41.19,-28.5"/>
<polygon fill="#63b8ff" stroke="#63b8ff" points="66.76,-32 76.76,-28.5 66.76,-25 66.76,-32"/>
</a>
</g>
</g>
<!-- Node8 -->
<g id="Node000008" class="node">
<title>Node8</title>
<g id="a_Node000008"><a xlink:href="group__ModuleExecutors.html#gaa356f7897fc875da426df1cf3c9c5b99" target="_top" xlink:title=" ">
<polygon fill="white" stroke="#666666" points="378,-19 229,-19 229,0 378,0 378,-19"/>
<text text-anchor="middle" x="303.5" y="-7" font-family="Helvetica,sans-Serif" font-size="10.00">execute_extract_command</text>
</a>
</g>
</g>
<!-- Node7&#45;&gt;Node8 -->
<g id="edge8_Node000007_Node000008" class="edge">
<title>Node7&#45;&gt;Node8</title>
<g id="a_edge8_Node000007_Node000008"><a xlink:title=" ">
<path fill="none" stroke="#63b8ff" d="M403.59,-9.5C395.13,-9.5 386.55,-9.5 378.17,-9.5"/>
<polygon fill="#63b8ff" stroke="#63b8ff" points="403.83,-13 413.83,-9.5 403.83,-6 403.83,-13"/>
</a>
</g>
</g>
<!-- Node8&#45;&gt;Node5 -->
<g id="edge9_Node000008_Node000005" class="edge">
<title>Node8&#45;&gt;Node5</title>
<g id="a_edge9_Node000008_Node000005"><a xlink:title=" ">
<path fill="none" stroke="#63b8ff" d="M218.8,-2.98C176.09,-1.3 123.48,-1.76 77,-9.5 64.74,-11.54 51.56,-15.95 41.13,-20.01"/>
<polygon fill="#63b8ff" stroke="#63b8ff" points="218.73,-6.48 228.88,-3.43 219.04,0.51 218.73,-6.48"/>
</a>
</g>
</g>
<!-- Node8&#45;&gt;Node6 -->
<g id="edge10_Node000008_Node000006" class="edge">
<title>Node8&#45;&gt;Node6</title>
<g id="a_edge10_Node000008_Node000006"><a xlink:title=" ">
<path fill="none" stroke="#63b8ff" d="M218.8,-19.05C210.11,-20.04 201.42,-21.03 193.12,-21.98"/>
<polygon fill="#63b8ff" stroke="#63b8ff" points="219.45,-22.5 228.99,-17.89 218.65,-15.55 219.45,-22.5"/>
</a>
</g>
</g>
</g>
</svg>
