<?xml version="1.0" encoding="UTF-8" standalone="no"?>
<!DOCTYPE svg PUBLIC "-//W3C//DTD SVG 1.1//EN"
 "http://www.w3.org/Graphics/SVG/1.1/DTD/svg11.dtd">
<!-- Generated by graphviz version 2.43.0 (0)
 -->
<!-- Title: CommandParser::add_warning Pages: 1 -->
<svg width="690pt" height="230pt"
 viewBox="0.00 0.00 690.00 230.00" xmlns="http://www.w3.org/2000/svg" xmlns:xlink="http://www.w3.org/1999/xlink">
<g id="graph0" class="graph" transform="scale(1 1) rotate(0) translate(4 226)">
<title>CommandParser::add_warning</title>
<!-- Node1 -->
<g id="Node000001" class="node">
<title>Node1</title>
<g id="a_Node000001"><a xlink:title="Add a warning message to the command context.">
<polygon fill="#999999" stroke="#666666" points="682,-126 561,-126 561,-96 682,-96 682,-126"/>
<text text-anchor="start" x="569" y="-114" font-family="Helvetica,sans-Serif" font-size="10.00">CommandParser::add</text>
<text text-anchor="middle" x="621.5" y="-103" font-family="Helvetica,sans-Serif" font-size="10.00">_warning</text>
</a>
</g>
</g>
<!-- Node2 -->
<g id="Node000002" class="node">
<title>Node2</title>
<g id="a_Node000002"><a xlink:href="group__CommandExecutors.html#ga660f29e1e6faa51112912f5e4de6efd7" target="_top" xlink:title="Parse options specific to job checker commands.">
<polygon fill="white" stroke="#666666" points="525,-222 395,-222 395,-192 525,-192 525,-222"/>
<text text-anchor="start" x="403" y="-210" font-family="Helvetica,sans-Serif" font-size="10.00">CommandParser::parse</text>
<text text-anchor="middle" x="460" y="-199" font-family="Helvetica,sans-Serif" font-size="10.00">_checker_options</text>
</a>
</g>
</g>
<!-- Node1&#45;&gt;Node2 -->
<g id="edge1_Node000001_Node000002" class="edge">
<title>Node1&#45;&gt;Node2</title>
<g id="a_edge1_Node000001_Node000002"><a xlink:title=" ">
<path fill="none" stroke="#63b8ff" d="M595.92,-132.67C577.39,-148.21 550.84,-168.8 525,-183 519.07,-186.26 512.61,-189.25 506.15,-191.94"/>
<polygon fill="#63b8ff" stroke="#63b8ff" points="598.24,-135.3 603.59,-126.15 593.71,-129.96 598.24,-135.3"/>
</a>
</g>
</g>
<!-- Node6 -->
<g id="Node000006" class="node">
<title>Node6</title>
<g id="a_Node000006"><a xlink:href="group__CommandExecutors.html#ga92485652a17c4238912fcfb53dca8694" target="_top" xlink:title="Parse options common to all commands.">
<polygon fill="white" stroke="#666666" points="525,-174 395,-174 395,-144 525,-144 525,-174"/>
<text text-anchor="start" x="403" y="-162" font-family="Helvetica,sans-Serif" font-size="10.00">CommandParser::parse</text>
<text text-anchor="middle" x="460" y="-151" font-family="Helvetica,sans-Serif" font-size="10.00">_common_options</text>
</a>
</g>
</g>
<!-- Node1&#45;&gt;Node6 -->
<g id="edge6_Node000001_Node000006" class="edge">
<title>Node1&#45;&gt;Node6</title>
<g id="a_edge6_Node000001_Node000006"><a xlink:title=" ">
<path fill="none" stroke="#63b8ff" d="M560.47,-129.07C544.11,-133.99 526.57,-139.27 510.85,-144"/>
<polygon fill="#63b8ff" stroke="#63b8ff" points="561.9,-132.29 570.47,-126.06 559.89,-125.59 561.9,-132.29"/>
</a>
</g>
</g>
<!-- Node7 -->
<g id="Node000007" class="node">
<title>Node7</title>
<g id="a_Node000007"><a xlink:href="group__CommandExecutors.html#ga6dd4acb8cb239efc2daf9ad5c4b2afd4" target="_top" xlink:title="Parse options specific to create_input command.">
<polygon fill="white" stroke="#666666" points="525,-126 395,-126 395,-96 525,-96 525,-126"/>
<text text-anchor="start" x="403" y="-114" font-family="Helvetica,sans-Serif" font-size="10.00">CommandParser::parse</text>
<text text-anchor="middle" x="460" y="-103" font-family="Helvetica,sans-Serif" font-size="10.00">_create_input_options</text>
</a>
</g>
</g>
<!-- Node1&#45;&gt;Node7 -->
<g id="edge8_Node000001_Node000007" class="edge">
<title>Node1&#45;&gt;Node7</title>
<g id="a_edge8_Node000001_Node000007"><a xlink:title=" ">
<path fill="none" stroke="#63b8ff" d="M550.49,-111C542.07,-111 533.51,-111 525.18,-111"/>
<polygon fill="#63b8ff" stroke="#63b8ff" points="550.65,-114.5 560.65,-111 550.65,-107.5 550.65,-114.5"/>
</a>
</g>
</g>
<!-- Node8 -->
<g id="Node000008" class="node">
<title>Node8</title>
<g id="a_Node000008"><a xlink:href="group__CommandExecutors.html#gac169a83a7e2b8c13986757b485e9517d" target="_top" xlink:title="Parse options specific to extract command.">
<polygon fill="white" stroke="#666666" points="525,-78 395,-78 395,-48 525,-48 525,-78"/>
<text text-anchor="start" x="403" y="-66" font-family="Helvetica,sans-Serif" font-size="10.00">CommandParser::parse</text>
<text text-anchor="middle" x="460" y="-55" font-family="Helvetica,sans-Serif" font-size="10.00">_extract_options</text>
</a>
</g>
</g>
<!-- Node1&#45;&gt;Node8 -->
<g id="edge10_Node000001_Node000008" class="edge">
<title>Node1&#45;&gt;Node8</title>
<g id="a_edge10_Node000001_Node000008"><a xlink:title=" ">
<path fill="none" stroke="#63b8ff" d="M560.47,-92.93C544.11,-88.01 526.57,-82.73 510.85,-78"/>
<polygon fill="#63b8ff" stroke="#63b8ff" points="559.89,-96.41 570.47,-95.94 561.9,-89.71 559.89,-96.41"/>
</a>
</g>
</g>
<!-- Node9 -->
<g id="Node000009" class="node">
<title>Node9</title>
<g id="a_Node000009"><a xlink:href="group__CommandExecutors.html#gae6ba0fc92b264e701f365161802a93bb" target="_top" xlink:title="Parse options specific to coordinate extraction command.">
<polygon fill="white" stroke="#666666" points="525,-30 395,-30 395,0 525,0 525,-30"/>
<text text-anchor="start" x="403" y="-18" font-family="Helvetica,sans-Serif" font-size="10.00">CommandParser::parse</text>
<text text-anchor="middle" x="460" y="-7" font-family="Helvetica,sans-Serif" font-size="10.00">_xyz_options</text>
</a>
</g>
</g>
<!-- Node1&#45;&gt;Node9 -->
<g id="edge12_Node000001_Node000009" class="edge">
<title>Node1&#45;&gt;Node9</title>
<g id="a_edge12_Node000001_Node000009"><a xlink:title=" ">
<path fill="none" stroke="#63b8ff" d="M595.92,-89.33C577.39,-73.79 550.84,-53.2 525,-39 519.07,-35.74 512.61,-32.75 506.15,-30.06"/>
<polygon fill="#63b8ff" stroke="#63b8ff" points="593.71,-92.04 603.59,-95.85 598.24,-86.7 593.71,-92.04"/>
</a>
</g>
</g>
<!-- Node3 -->
<g id="Node000003" class="node">
<title>Node3</title>
<g id="a_Node000003"><a xlink:href="group__CommandExecutors.html#ga2c1ceafe241a0b4e19790bb5d878ed1a" target="_top" xlink:title="Parse command&#45;line arguments and create execution context.">
<polygon fill="white" stroke="#666666" points="359,-120.5 229,-120.5 229,-101.5 359,-101.5 359,-120.5"/>
<text text-anchor="middle" x="294" y="-108.5" font-family="Helvetica,sans-Serif" font-size="10.00">CommandParser::parse</text>
</a>
</g>
</g>
<!-- Node2&#45;&gt;Node3 -->
<g id="edge2_Node000002_Node000003" class="edge">
<title>Node2&#45;&gt;Node3</title>
<g id="a_edge2_Node000002_Node000003"><a xlink:title=" ">
<path fill="none" stroke="#63b8ff" d="M405.04,-187.96C401.6,-186.38 398.22,-184.73 395,-183 360.48,-164.53 324.21,-135.67 306.34,-120.72"/>
<polygon fill="#63b8ff" stroke="#63b8ff" points="403.69,-191.19 414.26,-191.97 406.48,-184.77 403.69,-191.19"/>
</a>
</g>
</g>
<!-- Node4 -->
<g id="Node000004" class="node">
<title>Node4</title>
<g id="a_Node000004"><a xlink:href="main_8cpp.html#a0ddf1224851353fc92bfbff6f499fa97" target="_top" xlink:title="Main entry point for the Gaussian Extractor application.">
<polygon fill="white" stroke="#666666" points="41,-120.5 0,-120.5 0,-101.5 41,-101.5 41,-120.5"/>
<text text-anchor="middle" x="20.5" y="-108.5" font-family="Helvetica,sans-Serif" font-size="10.00">main</text>
</a>
</g>
</g>
<!-- Node3&#45;&gt;Node4 -->
<g id="edge3_Node000003_Node000004" class="edge">
<title>Node3&#45;&gt;Node4</title>
<g id="a_edge3_Node000003_Node000004"><a xlink:title=" ">
<path fill="none" stroke="#63b8ff" d="M218.42,-111C158.19,-111 77.65,-111 41.06,-111"/>
<polygon fill="#63b8ff" stroke="#63b8ff" points="218.66,-114.5 228.66,-111 218.66,-107.5 218.66,-114.5"/>
</a>
</g>
</g>
<!-- Node5 -->
<g id="Node000005" class="node">
<title>Node5</title>
<g id="a_Node000005"><a xlink:href="interactive__mode_8cpp.html#a6b615c34054150d837dc45ed1c17b297" target="_top" xlink:title="Enhanced interactive command loop with TAB completion for Windows.">
<polygon fill="white" stroke="#666666" points="193,-101.5 77,-101.5 77,-82.5 193,-82.5 193,-101.5"/>
<text text-anchor="middle" x="135" y="-89.5" font-family="Helvetica,sans-Serif" font-size="10.00">run_interactive_loop</text>
</a>
</g>
</g>
<!-- Node3&#45;&gt;Node5 -->
<g id="edge4_Node000003_Node000005" class="edge">
<title>Node3&#45;&gt;Node5</title>
<g id="a_edge4_Node000003_Node000005"><a xlink:title=" ">
<path fill="none" stroke="#63b8ff" d="M218.75,-102.01C210.24,-100.98 201.66,-99.95 193.41,-98.95"/>
<polygon fill="#63b8ff" stroke="#63b8ff" points="218.34,-105.49 228.69,-103.22 219.18,-98.54 218.34,-105.49"/>
</a>
</g>
</g>
<!-- Node5&#45;&gt;Node4 -->
<g id="edge5_Node000005_Node000004" class="edge">
<title>Node5&#45;&gt;Node4</title>
<g id="a_edge5_Node000005_Node000004"><a xlink:title=" ">
<path fill="none" stroke="#63b8ff" d="M67.4,-103.25C57.88,-104.86 48.77,-106.39 41.22,-107.67"/>
<polygon fill="#63b8ff" stroke="#63b8ff" points="68.14,-106.67 77.42,-101.56 66.98,-99.77 68.14,-106.67"/>
</a>
</g>
</g>
<!-- Node6&#45;&gt;Node3 -->
<g id="edge7_Node000006_Node000003" class="edge">
<title>Node6&#45;&gt;Node3</title>
<g id="a_edge7_Node000006_Node000003"><a xlink:title=" ">
<path fill="none" stroke="#63b8ff" d="M397.88,-141.11C374.07,-134.14 347.74,-126.44 327.68,-120.56"/>
<polygon fill="#63b8ff" stroke="#63b8ff" points="396.98,-144.49 407.56,-143.94 398.95,-137.78 396.98,-144.49"/>
</a>
</g>
</g>
<!-- Node7&#45;&gt;Node3 -->
<g id="edge9_Node000007_Node000003" class="edge">
<title>Node7&#45;&gt;Node3</title>
<g id="a_edge9_Node000007_Node000003"><a xlink:title=" ">
<path fill="none" stroke="#63b8ff" d="M384.44,-111C376,-111 367.45,-111 359.16,-111"/>
<polygon fill="#63b8ff" stroke="#63b8ff" points="384.65,-114.5 394.65,-111 384.65,-107.5 384.65,-114.5"/>
</a>
</g>
</g>
<!-- Node8&#45;&gt;Node3 -->
<g id="edge11_Node000008_Node000003" class="edge">
<title>Node8&#45;&gt;Node3</title>
<g id="a_edge11_Node000008_Node000003"><a xlink:title=" ">
<path fill="none" stroke="#63b8ff" d="M397.88,-80.89C374.07,-87.86 347.74,-95.56 327.68,-101.44"/>
<polygon fill="#63b8ff" stroke="#63b8ff" points="398.95,-84.22 407.56,-78.06 396.98,-77.51 398.95,-84.22"/>
</a>
</g>
</g>
<!-- Node9&#45;&gt;Node3 -->
<g id="edge13_Node000009_Node000003" class="edge">
<title>Node9&#45;&gt;Node3</title>
<g id="a_edge13_Node000009_Node000003"><a xlink:title=" ">
<path fill="none" stroke="#63b8ff" d="M405.04,-34.04C401.6,-35.62 398.22,-37.27 395,-39 360.48,-57.47 324.21,-86.33 306.34,-101.28"/>
<polygon fill="#63b8ff" stroke="#63b8ff" points="406.48,-37.23 414.26,-30.03 403.69,-30.81 406.48,-37.23"/>
</a>
</g>
</g>
</g>
</svg>
