<?xml version="1.0" encoding="UTF-8" standalone="no"?>
<!DOCTYPE svg PUBLIC "-//W3C//DTD SVG 1.1//EN"
 "http://www.w3.org/Graphics/SVG/1.1/DTD/svg11.dtd">
<!-- Generated by graphviz version 2.43.0 (0)
 -->
<!-- Title: JobChecker::check_all_job_types_optimized Pages: 1 -->
<svg width="714pt" height="52pt"
 viewBox="0.00 0.00 714.00 51.50" xmlns="http://www.w3.org/2000/svg" xmlns:xlink="http://www.w3.org/1999/xlink">
<g id="graph0" class="graph" transform="scale(1 1) rotate(0) translate(4 47.5)">
<title>JobChecker::check_all_job_types_optimized</title>
<!-- Node1 -->
<g id="Node000001" class="node">
<title>Node1</title>
<g id="a_Node000001"><a xlink:title="Optimized comprehensive job checking with single&#45;pass processing.">
<polygon fill="#999999" stroke="#666666" points="706,-43.5 583,-43.5 583,-13.5 706,-13.5 706,-43.5"/>
<text text-anchor="start" x="591" y="-31.5" font-family="Helvetica,sans-Serif" font-size="10.00">JobChecker::check_all</text>
<text text-anchor="middle" x="644.5" y="-20.5" font-family="Helvetica,sans-Serif" font-size="10.00">_job_types_optimized</text>
</a>
</g>
</g>
<!-- Node2 -->
<g id="Node000002" class="node">
<title>Node2</title>
<g id="a_Node000002"><a xlink:href="group__MainChecking.html#gabfbdc3f5ed66c5ad702fd8878e95f203" target="_top" xlink:title="Run comprehensive checking of all job types.">
<polygon fill="white" stroke="#666666" points="547,-43.5 425,-43.5 425,-13.5 547,-13.5 547,-43.5"/>
<text text-anchor="start" x="433" y="-31.5" font-family="Helvetica,sans-Serif" font-size="10.00">JobChecker::check_all</text>
<text text-anchor="middle" x="486" y="-20.5" font-family="Helvetica,sans-Serif" font-size="10.00">_job_types</text>
</a>
</g>
</g>
<!-- Node1&#45;&gt;Node2 -->
<g id="edge1_Node000001_Node000002" class="edge">
<title>Node1&#45;&gt;Node2</title>
<g id="a_edge1_Node000001_Node000002"><a xlink:title=" ">
<path fill="none" stroke="#63b8ff" d="M572.94,-28.5C564.31,-28.5 555.55,-28.5 547.09,-28.5"/>
<polygon fill="#63b8ff" stroke="#63b8ff" points="572.99,-32 582.99,-28.5 572.99,-25 572.99,-32"/>
</a>
</g>
</g>
<!-- Node3 -->
<g id="Node000003" class="node">
<title>Node3</title>
<g id="a_Node000003"><a xlink:href="group__ModuleExecutors.html#ga5f1a9bdbc166546e200c5bbb2aa5db30" target="_top" xlink:title=" ">
<polygon fill="white" stroke="#666666" points="389,-38 229,-38 229,-19 389,-19 389,-38"/>
<text text-anchor="middle" x="309" y="-26" font-family="Helvetica,sans-Serif" font-size="10.00">execute_check_all_command</text>
</a>
</g>
</g>
<!-- Node2&#45;&gt;Node3 -->
<g id="edge2_Node000002_Node000003" class="edge">
<title>Node2&#45;&gt;Node3</title>
<g id="a_edge2_Node000002_Node000003"><a xlink:title=" ">
<path fill="none" stroke="#63b8ff" d="M414.68,-28.5C406.29,-28.5 397.69,-28.5 389.19,-28.5"/>
<polygon fill="#63b8ff" stroke="#63b8ff" points="414.77,-32 424.77,-28.5 414.77,-25 414.77,-32"/>
</a>
</g>
</g>
<!-- Node4 -->
<g id="Node000004" class="node">
<title>Node4</title>
<g id="a_Node000004"><a xlink:href="main_8cpp.html#a0ddf1224851353fc92bfbff6f499fa97" target="_top" xlink:title="Main entry point for the Gaussian Extractor application.">
<polygon fill="white" stroke="#666666" points="41,-38 0,-38 0,-19 41,-19 41,-38"/>
<text text-anchor="middle" x="20.5" y="-26" font-family="Helvetica,sans-Serif" font-size="10.00">main</text>
</a>
</g>
</g>
<!-- Node3&#45;&gt;Node4 -->
<g id="edge3_Node000003_Node000004" class="edge">
<title>Node3&#45;&gt;Node4</title>
<g id="a_edge3_Node000003_Node000004"><a xlink:title=" ">
<path fill="none" stroke="#63b8ff" d="M218.64,-28.5C155.95,-28.5 77.13,-28.5 41.1,-28.5"/>
<polygon fill="#63b8ff" stroke="#63b8ff" points="218.95,-32 228.95,-28.5 218.95,-25 218.95,-32"/>
</a>
</g>
</g>
<!-- Node5 -->
<g id="Node000005" class="node">
<title>Node5</title>
<g id="a_Node000005"><a xlink:href="interactive__mode_8cpp.html#a6b615c34054150d837dc45ed1c17b297" target="_top" xlink:title="Enhanced interactive command loop with TAB completion for Windows.">
<polygon fill="white" stroke="#666666" points="193,-19 77,-19 77,0 193,0 193,-19"/>
<text text-anchor="middle" x="135" y="-7" font-family="Helvetica,sans-Serif" font-size="10.00">run_interactive_loop</text>
</a>
</g>
</g>
<!-- Node3&#45;&gt;Node5 -->
<g id="edge4_Node000003_Node000005" class="edge">
<title>Node3&#45;&gt;Node5</title>
<g id="a_edge4_Node000003_Node000005"><a xlink:title=" ">
<path fill="none" stroke="#63b8ff" d="M218.66,-18.63C210.02,-17.68 201.43,-16.73 193.23,-15.82"/>
<polygon fill="#63b8ff" stroke="#63b8ff" points="218.47,-22.13 228.8,-19.75 219.24,-15.17 218.47,-22.13"/>
</a>
</g>
</g>
<!-- Node5&#45;&gt;Node4 -->
<g id="edge5_Node000005_Node000004" class="edge">
<title>Node5&#45;&gt;Node4</title>
<g id="a_edge5_Node000005_Node000004"><a xlink:title=" ">
<path fill="none" stroke="#63b8ff" d="M67.4,-20.75C57.88,-22.36 48.77,-23.89 41.22,-25.17"/>
<polygon fill="#63b8ff" stroke="#63b8ff" points="68.14,-24.17 77.42,-19.06 66.98,-17.27 68.14,-24.17"/>
</a>
</g>
</g>
</g>
</svg>
