<?xml version="1.0" encoding="UTF-8" standalone="no"?>
<!DOCTYPE svg PUBLIC "-//W3C//DTD SVG 1.1//EN"
 "http://www.w3.org/Graphics/SVG/1.1/DTD/svg11.dtd">
<!-- Generated by graphviz version 2.43.0 (0)
 -->
<!-- Title: ConfigManager::find_config_file Pages: 1 -->
<svg width="308pt" height="161pt"
 viewBox="0.00 0.00 308.00 161.00" xmlns="http://www.w3.org/2000/svg" xmlns:xlink="http://www.w3.org/1999/xlink">

<svg id="main" version="1.1" xmlns="http://www.w3.org/2000/svg" xmlns:xlink="http://www.w3.org/1999/xlink" xml:space="preserve" onload="init(evt)">
<style type="text/css"><![CDATA[
.node, .edge {opacity: 0.7;}
.node.selected, .edge.selected {opacity: 1;}
.edge:hover path { stroke: red; }
.edge:hover polygon { stroke: red; fill: red; }
]]></style>
<script type="application/ecmascript" xlink:href="svg.min.js"/>
<svg id="graph" class="graph">
<g id="graph0" class="graph" transform="scale(1 1) rotate(0) translate(4 157)">
<title>ConfigManager::find_config_file</title>
<!-- Node1 -->
<g id="Node000001" class="node">
<title>Node1</title>
<g id="a_Node000001"><a xlink:title="Search for and locate configuration file.">
<polygon fill="#999999" stroke="#666666" points="114,-91.5 0,-91.5 0,-61.5 114,-61.5 114,-91.5"/>
<text text-anchor="start" x="8" y="-79.5" font-family="Helvetica,sans-Serif" font-size="10.00">ConfigManager::find</text>
<text text-anchor="middle" x="57" y="-68.5" font-family="Helvetica,sans-Serif" font-size="10.00">_config_file</text>
</a>
</g>
</g>
<!-- Node2 -->
<g id="Node000002" class="node">
<title>Node2</title>
<g id="a_Node000002"><a xlink:href="group__ConfigFileUtils.html#gabdac223165725cc113ecae62b0c10b41" target="_top" xlink:title="Check if a file exists and is accessible.">
<polygon fill="white" stroke="#666666" points="287.5,-153 162.5,-153 162.5,-134 287.5,-134 287.5,-153"/>
<text text-anchor="middle" x="225" y="-141" font-family="Helvetica,sans-Serif" font-size="10.00">ConfigUtils::file_exists</text>
</a>
</g>
</g>
<!-- Node1&#45;&gt;Node2 -->
<g id="edge1_Node000001_Node000002" class="edge">
<title>Node1&#45;&gt;Node2</title>
<g id="a_edge1_Node000001_Node000002"><a xlink:title=" ">
<path fill="none" stroke="#63b8ff" d="M83.04,-91.57C101.14,-101.96 126.45,-115.47 150,-124.5 156.41,-126.96 163.25,-129.2 170.08,-131.21"/>
<polygon fill="#63b8ff" stroke="#63b8ff" points="169.47,-134.67 180.04,-133.99 171.35,-127.93 169.47,-134.67"/>
</a>
</g>
</g>
<!-- Node3 -->
<g id="Node000003" class="node">
<title>Node3</title>
<g id="a_Node000003"><a xlink:href="group__ConfigFileUtils.html#gaf98b0febad38de1b8c8b06b5b9808d26" target="_top" xlink:title="Get the directory where the executable is located.">
<polygon fill="white" stroke="#666666" points="300,-115.5 150,-115.5 150,-85.5 300,-85.5 300,-115.5"/>
<text text-anchor="start" x="158" y="-103.5" font-family="Helvetica,sans-Serif" font-size="10.00">ConfigUtils::get_executable</text>
<text text-anchor="middle" x="225" y="-92.5" font-family="Helvetica,sans-Serif" font-size="10.00">_directory</text>
</a>
</g>
</g>
<!-- Node1&#45;&gt;Node3 -->
<g id="edge2_Node000001_Node000003" class="edge">
<title>Node1&#45;&gt;Node3</title>
<g id="a_edge2_Node000001_Node000003"><a xlink:title=" ">
<path fill="none" stroke="#63b8ff" d="M114.2,-84.63C122.45,-85.82 131.09,-87.07 139.75,-88.32"/>
<polygon fill="#63b8ff" stroke="#63b8ff" points="139.51,-91.82 149.91,-89.79 140.51,-84.89 139.51,-91.82"/>
</a>
</g>
</g>
<!-- Node4 -->
<g id="Node000004" class="node">
<title>Node4</title>
<g id="a_Node000004"><a xlink:href="group__ConfigUtilities.html#gac3e49e311008abed27ce54b805f5f925" target="_top" xlink:title="Get user&#39;s home directory path.">
<polygon fill="white" stroke="#666666" points="287.5,-67.5 162.5,-67.5 162.5,-37.5 287.5,-37.5 287.5,-67.5"/>
<text text-anchor="start" x="170.5" y="-55.5" font-family="Helvetica,sans-Serif" font-size="10.00">ConfigManager::get</text>
<text text-anchor="middle" x="225" y="-44.5" font-family="Helvetica,sans-Serif" font-size="10.00">_user_home_directory</text>
</a>
</g>
</g>
<!-- Node1&#45;&gt;Node4 -->
<g id="edge3_Node000001_Node000004" class="edge">
<title>Node1&#45;&gt;Node4</title>
<g id="a_edge3_Node000001_Node000004"><a xlink:title=" ">
<path fill="none" stroke="#63b8ff" d="M114.2,-68.37C126.45,-66.6 139.56,-64.71 152.32,-62.86"/>
<polygon fill="#63b8ff" stroke="#63b8ff" points="153.05,-66.29 162.45,-61.4 152.05,-59.37 153.05,-66.29"/>
</a>
</g>
</g>
<!-- Node5 -->
<g id="Node000005" class="node">
<title>Node5</title>
<g id="a_Node000005"><a xlink:href="group__ConfigFileUtils.html#ga892ca7155558aa7c9813c0c04ab55a8e" target="_top" xlink:title="Check if a file is readable.">
<polygon fill="white" stroke="#666666" points="291,-19 159,-19 159,0 291,0 291,-19"/>
<text text-anchor="middle" x="225" y="-7" font-family="Helvetica,sans-Serif" font-size="10.00">ConfigUtils::is_readable</text>
</a>
</g>
</g>
<!-- Node1&#45;&gt;Node5 -->
<g id="edge4_Node000001_Node000005" class="edge">
<title>Node1&#45;&gt;Node5</title>
<g id="a_edge4_Node000001_Node000005"><a xlink:title=" ">
<path fill="none" stroke="#63b8ff" d="M83.04,-61.43C101.14,-51.04 126.45,-37.53 150,-28.5 156.41,-26.04 163.25,-23.8 170.08,-21.79"/>
<polygon fill="#63b8ff" stroke="#63b8ff" points="171.35,-25.07 180.04,-19.01 169.47,-18.33 171.35,-25.07"/>
</a>
</g>
</g>
</g>
</svg>
</svg>

<style type='text/css'>
<![CDATA[
[data-mouse-over-selected='false'] { opacity: 0.7; }
[data-mouse-over-selected='true']  { opacity: 1.0; }
]]>
</style>
<script type="application/ecmascript"><![CDATA[
document.addEventListener('DOMContentLoaded', (event) => {
  highlightEdges();
  highlightAdjacentNodes();
});
]]></script>
</svg>
