<?xml version="1.0" encoding="UTF-8" standalone="no"?>
<!DOCTYPE svg PUBLIC "-//W3C//DTD SVG 1.1//EN"
 "http://www.w3.org/Graphics/SVG/1.1/DTD/svg11.dtd">
<!-- Generated by graphviz version 2.43.0 (0)
 -->
<!-- Title: ConfigManager::validate_config Pages: 1 -->
<!--zoomable 493 -->

<svg id="main" version="1.1" xmlns="http://www.w3.org/2000/svg" xmlns:xlink="http://www.w3.org/1999/xlink" xml:space="preserve" onload="init(evt)">
<style type="text/css"><![CDATA[
.node, .edge {opacity: 0.7;}
.node.selected, .edge.selected {opacity: 1;}
.edge:hover path { stroke: red; }
.edge:hover polygon { stroke: red; fill: red; }
]]></style>

<defs>
  <circle id="rim" cx="0" cy="0" r="7"/>
  <circle id="rim2" cx="0" cy="0" r="3.5"/>
  <g id="zoomPlus">
    <use xlink:href="#rim" fill="#404040"><set attributeName="fill" to="#808080" begin="zoomplus.mouseover" end="zoomplus.mouseout"/></use>
    <path d="M-4,0h8M0,-4v8" fill="none" stroke="white" stroke-width="1.5" pointer-events="none"/>
  </g>
  <g id="zoomMin">
    <use xlink:href="#rim" fill="#404040"><set attributeName="fill" to="#808080" begin="zoomminus.mouseover" end="zoomminus.mouseout"/></use>
    <path d="M-4,0h8" fill="none" stroke="white" stroke-width="1.5" pointer-events="none"/>
  </g>
  <g id="arrowUp" transform="translate(30 24)">
    <use xlink:href="#rim"/>
    <path pointer-events="none" fill="none" stroke="white" stroke-width="1.5" d="M0,-3.0v7 M-2.5,-0.5L0,-3.0L2.5,-0.5"/>
  </g>
  <g id="arrowRight" transform="rotate(90) translate(36 -43)">
    <use xlink:href="#rim"/>
    <path pointer-events="none" fill="none" stroke="white" stroke-width="1.5" d="M0,-3.0v7 M-2.5,-0.5L0,-3.0L2.5,-0.5"/>
  </g>
  <g id="arrowDown" transform="rotate(180) translate(-30 -48)">
    <use xlink:href="#rim"/>
    <path pointer-events="none" fill="none" stroke="white" stroke-width="1.5" d="M0,-3.0v7 M-2.5,-0.5L0,-3.0L2.5,-0.5"/>
  </g>
  <g id="arrowLeft" transform="rotate(270) translate(-36 17)">
    <use xlink:href="#rim"/>
    <path pointer-events="none" fill="none" stroke="white" stroke-width="1.5" d="M0,-3.0v7 M-2.5,-0.5L0,-3.0L2.5,-0.5"/>
  </g>
  <g id="resetDef">
    <use xlink:href="#rim2" fill="#404040"><set attributeName="fill" to="#808080" begin="reset.mouseover" end="reset.mouseout"/></use>
  </g>
</defs>
<script type="application/ecmascript">
var viewWidth = 651;
var viewHeight = 493;
var sectionId = 'dynsection-0';
</script>
<script type="application/ecmascript" xlink:href="svg.min.js"/>
<svg id="graph" class="graph">
<g id="viewport">
<title>ConfigManager::validate_config</title>
<!-- Node1 -->
<g id="Node000001" class="node">
<title>Node1</title>
<g id="a_Node000001"><a xlink:title="Validate all configuration values for correctness and consistency.">
<polygon fill="#999999" stroke="#666666" points="136,-280.5 0,-280.5 0,-250.5 136,-250.5 136,-280.5"/>
<text text-anchor="start" x="8" y="-268.5" font-family="Helvetica,sans-Serif" font-size="10.00">ConfigManager::validate</text>
<text text-anchor="middle" x="68" y="-257.5" font-family="Helvetica,sans-Serif" font-size="10.00">_config</text>
</a>
</g>
</g>
<!-- Node2 -->
<g id="Node000002" class="node">
<title>Node2</title>
<g id="a_Node000002"><a xlink:href="group__ConfigInternals.html#ga5e387d61b1f34873cd3ab047242b2aad" target="_top" xlink:title="Template method for type&#45;safe value conversion.">
<polygon fill="white" stroke="#666666" points="643,-364.5 510,-364.5 510,-334.5 643,-334.5 643,-364.5"/>
<text text-anchor="start" x="518" y="-352.5" font-family="Helvetica,sans-Serif" font-size="10.00">ConfigManager::convert</text>
<text text-anchor="middle" x="576.5" y="-341.5" font-family="Helvetica,sans-Serif" font-size="10.00">_value</text>
</a>
</g>
</g>
<!-- Node1&#45;&gt;Node2 -->
<g id="edge1_Node000001_Node000002" class="edge">
<title>Node1&#45;&gt;Node2</title>
<g id="a_edge1_Node000001_Node000002"><a xlink:title=" ">
<path fill="none" stroke="#63b8ff" d="M74.28,-280.6C86.31,-312.68 118.86,-387.86 172,-426.5 235.91,-472.97 265.63,-461.42 344,-471.5 401.31,-478.87 421.69,-496.03 474,-471.5 516.81,-451.43 547.83,-403.45 563.64,-373.99"/>
<polygon fill="#63b8ff" stroke="#63b8ff" points="566.92,-375.27 568.41,-364.78 560.7,-372.05 566.92,-375.27"/>
</a>
</g>
</g>
<!-- Node3 -->
<g id="Node000003" class="node">
<title>Node3</title>
<g id="a_Node000003"><a xlink:href="group__ConfigValueGetters.html#ga5c646b796256dc3d0905ce144f9758a2" target="_top" xlink:title="Get double configuration value.">
<polygon fill="white" stroke="#666666" points="465,-444.5 353,-444.5 353,-414.5 465,-414.5 465,-444.5"/>
<text text-anchor="start" x="361" y="-432.5" font-family="Helvetica,sans-Serif" font-size="10.00">ConfigManager::get</text>
<text text-anchor="middle" x="409" y="-421.5" font-family="Helvetica,sans-Serif" font-size="10.00">_double</text>
</a>
</g>
</g>
<!-- Node1&#45;&gt;Node3 -->
<g id="edge2_Node000001_Node000003" class="edge">
<title>Node1&#45;&gt;Node3</title>
<g id="a_edge2_Node000001_Node000003"><a xlink:title=" ">
<path fill="none" stroke="#63b8ff" d="M76.15,-280.51C90.22,-308.22 124.31,-367.06 172,-394.5 224.06,-424.45 292.87,-431.7 342.74,-432.36"/>
<polygon fill="#63b8ff" stroke="#63b8ff" points="342.75,-435.86 352.77,-432.41 342.78,-428.86 342.75,-435.86"/>
</a>
</g>
</g>
<!-- Node4 -->
<g id="Node000004" class="node">
<title>Node4</title>
<g id="a_Node000004"><a xlink:href="group__ConfigValueGetters.html#ga7d3d6c0afb01a9f8c1dc20c35ad33314" target="_top" xlink:title="Get integer configuration value.">
<polygon fill="white" stroke="#666666" points="474,-378 344,-378 344,-359 474,-359 474,-378"/>
<text text-anchor="middle" x="409" y="-366" font-family="Helvetica,sans-Serif" font-size="10.00">ConfigManager::get_int</text>
</a>
</g>
</g>
<!-- Node1&#45;&gt;Node4 -->
<g id="edge5_Node000001_Node000004" class="edge">
<title>Node1&#45;&gt;Node4</title>
<g id="a_edge5_Node000001_Node000004"><a xlink:title=" ">
<path fill="none" stroke="#63b8ff" d="M77.74,-280.52C93.12,-305.23 127.63,-353.62 172,-372.5 233.25,-398.56 311.8,-389.94 361.02,-380.15"/>
<polygon fill="#63b8ff" stroke="#63b8ff" points="361.99,-383.53 371.07,-378.06 360.56,-376.67 361.99,-383.53"/>
</a>
</g>
</g>
<!-- Node5 -->
<g id="Node000005" class="node">
<title>Node5</title>
<g id="a_Node000005"><a xlink:href="group__ConfigValueGetters.html#gaa29924b452368659c06cf8a0e65e5972" target="_top" xlink:title="Get size_t configuration value.">
<polygon fill="white" stroke="#666666" points="296,-345.5 184,-345.5 184,-315.5 296,-315.5 296,-345.5"/>
<text text-anchor="start" x="192" y="-333.5" font-family="Helvetica,sans-Serif" font-size="10.00">ConfigManager::get</text>
<text text-anchor="middle" x="240" y="-322.5" font-family="Helvetica,sans-Serif" font-size="10.00">_size_t</text>
</a>
</g>
</g>
<!-- Node1&#45;&gt;Node5 -->
<g id="edge8_Node000001_Node000005" class="edge">
<title>Node1&#45;&gt;Node5</title>
<g id="a_edge8_Node000001_Node000005"><a xlink:title=" ">
<path fill="none" stroke="#63b8ff" d="M108.43,-280.58C132.69,-289.85 164,-301.82 189.87,-311.71"/>
<polygon fill="#63b8ff" stroke="#63b8ff" points="188.9,-315.09 199.49,-315.39 191.4,-308.55 188.9,-315.09"/>
</a>
</g>
</g>
<!-- Node6 -->
<g id="Node000006" class="node">
<title>Node6</title>
<g id="a_Node000006"><a xlink:href="group__ConfigValueGetters.html#gaa25cec73939b4d9bd7419f553faae0cb" target="_top" xlink:title="Get string configuration value.">
<polygon fill="white" stroke="#666666" points="465,-302.5 353,-302.5 353,-272.5 465,-272.5 465,-302.5"/>
<text text-anchor="start" x="361" y="-290.5" font-family="Helvetica,sans-Serif" font-size="10.00">ConfigManager::get</text>
<text text-anchor="middle" x="409" y="-279.5" font-family="Helvetica,sans-Serif" font-size="10.00">_string</text>
</a>
</g>
</g>
<!-- Node1&#45;&gt;Node6 -->
<g id="edge11_Node000001_Node000006" class="edge">
<title>Node1&#45;&gt;Node6</title>
<g id="a_edge11_Node000001_Node000006"><a xlink:title=" ">
<path fill="none" stroke="#63b8ff" d="M136.38,-269.87C196.34,-273.76 283.49,-279.42 342.78,-283.27"/>
<polygon fill="#63b8ff" stroke="#63b8ff" points="342.58,-286.76 352.78,-283.92 343.03,-279.78 342.58,-286.76"/>
</a>
</g>
</g>
<!-- Node7 -->
<g id="Node000007" class="node">
<title>Node7</title>
<g id="a_Node000007"><a xlink:href="group__ConfigValidationUtils.html#gae4991b82543e777bc3a4b13fba2e2ac2" target="_top" xlink:title="Validate concentration value for chemical reasonableness.">
<polygon fill="white" stroke="#666666" points="296.5,-259.5 183.5,-259.5 183.5,-229.5 296.5,-229.5 296.5,-259.5"/>
<text text-anchor="start" x="191.5" y="-247.5" font-family="Helvetica,sans-Serif" font-size="10.00">ConfigUtils::is_valid</text>
<text text-anchor="middle" x="240" y="-236.5" font-family="Helvetica,sans-Serif" font-size="10.00">_concentration</text>
</a>
</g>
</g>
<!-- Node1&#45;&gt;Node7 -->
<g id="edge13_Node000001_Node000007" class="edge">
<title>Node1&#45;&gt;Node7</title>
<g id="a_edge13_Node000001_Node000007"><a xlink:title=" ">
<path fill="none" stroke="#63b8ff" d="M136.19,-257.2C148.37,-255.7 161.06,-254.13 173.2,-252.63"/>
<polygon fill="#63b8ff" stroke="#63b8ff" points="173.75,-256.09 183.25,-251.39 172.89,-249.14 173.75,-256.09"/>
</a>
</g>
</g>
<!-- Node8 -->
<g id="Node000008" class="node">
<title>Node8</title>
<g id="a_Node000008"><a xlink:href="group__ConfigValidationUtils.html#gabbc0a80ccd4e422868d76a759fad7a48" target="_top" xlink:title="Validate file size limit for system appropriateness.">
<polygon fill="white" stroke="#666666" points="296.5,-211.5 183.5,-211.5 183.5,-181.5 296.5,-181.5 296.5,-211.5"/>
<text text-anchor="start" x="191.5" y="-199.5" font-family="Helvetica,sans-Serif" font-size="10.00">ConfigUtils::is_valid</text>
<text text-anchor="middle" x="240" y="-188.5" font-family="Helvetica,sans-Serif" font-size="10.00">_file_size</text>
</a>
</g>
</g>
<!-- Node1&#45;&gt;Node8 -->
<g id="edge14_Node000001_Node000008" class="edge">
<title>Node1&#45;&gt;Node8</title>
<g id="a_edge14_Node000001_Node000008"><a xlink:title=" ">
<path fill="none" stroke="#63b8ff" d="M102.16,-250.33C122.23,-241.32 148.42,-229.86 172,-220.5 176.5,-218.71 181.19,-216.91 185.91,-215.14"/>
<polygon fill="#63b8ff" stroke="#63b8ff" points="187.42,-218.31 195.59,-211.56 185,-211.75 187.42,-218.31"/>
</a>
</g>
</g>
<!-- Node9 -->
<g id="Node000009" class="node">
<title>Node9</title>
<g id="a_Node000009"><a xlink:href="group__ConfigValidationUtils.html#gaaab1339b93b3b34c3f6c53b8e6a3727e" target="_top" xlink:title="Validate pressure value for physical reasonableness.">
<polygon fill="white" stroke="#666666" points="296.5,-163.5 183.5,-163.5 183.5,-133.5 296.5,-133.5 296.5,-163.5"/>
<text text-anchor="start" x="191.5" y="-151.5" font-family="Helvetica,sans-Serif" font-size="10.00">ConfigUtils::is_valid</text>
<text text-anchor="middle" x="240" y="-140.5" font-family="Helvetica,sans-Serif" font-size="10.00">_pressure</text>
</a>
</g>
</g>
<!-- Node1&#45;&gt;Node9 -->
<g id="edge15_Node000001_Node000009" class="edge">
<title>Node1&#45;&gt;Node9</title>
<g id="a_edge15_Node000001_Node000009"><a xlink:title=" ">
<path fill="none" stroke="#63b8ff" d="M82.23,-250.31C100.57,-230.06 135.61,-194.27 172,-172.5 174.67,-170.9 177.46,-169.39 180.33,-167.95"/>
<polygon fill="#63b8ff" stroke="#63b8ff" points="182.06,-171.01 189.67,-163.65 179.13,-164.65 182.06,-171.01"/>
</a>
</g>
</g>
<!-- Node10 -->
<g id="Node000010" class="node">
<title>Node10</title>
<g id="a_Node000010"><a xlink:href="group__ConfigValidationUtils.html#gab7c7175516bb9e9ba06fbae9929ffdc9" target="_top" xlink:title="Validate temperature value for physical reasonableness.">
<polygon fill="white" stroke="#666666" points="296.5,-115.5 183.5,-115.5 183.5,-85.5 296.5,-85.5 296.5,-115.5"/>
<text text-anchor="start" x="191.5" y="-103.5" font-family="Helvetica,sans-Serif" font-size="10.00">ConfigUtils::is_valid</text>
<text text-anchor="middle" x="240" y="-92.5" font-family="Helvetica,sans-Serif" font-size="10.00">_temperature</text>
</a>
</g>
</g>
<!-- Node1&#45;&gt;Node10 -->
<g id="edge16_Node000001_Node000010" class="edge">
<title>Node1&#45;&gt;Node10</title>
<g id="a_edge16_Node000001_Node000010"><a xlink:title=" ">
<path fill="none" stroke="#63b8ff" d="M76.13,-250.45C90.39,-221.88 125.14,-159.53 172,-124.5 173.85,-123.12 175.79,-121.81 177.79,-120.57"/>
<polygon fill="#63b8ff" stroke="#63b8ff" points="179.81,-123.45 186.9,-115.58 176.45,-117.31 179.81,-123.45"/>
</a>
</g>
</g>
<!-- Node11 -->
<g id="Node000011" class="node">
<title>Node11</title>
<g id="a_Node000011"><a xlink:href="group__ConfigValidation.html#gac6254d405c53ed8f433ab6d2785c0a90" target="_top" xlink:title="Validate file extension configuration values.">
<polygon fill="white" stroke="#666666" points="308,-67.5 172,-67.5 172,-37.5 308,-37.5 308,-67.5"/>
<text text-anchor="start" x="180" y="-55.5" font-family="Helvetica,sans-Serif" font-size="10.00">ConfigManager::validate</text>
<text text-anchor="middle" x="240" y="-44.5" font-family="Helvetica,sans-Serif" font-size="10.00">_file_extensions</text>
</a>
</g>
</g>
<!-- Node1&#45;&gt;Node11 -->
<g id="edge17_Node000001_Node000011" class="edge">
<title>Node1&#45;&gt;Node11</title>
<g id="a_edge17_Node000001_Node000011"><a xlink:title=" ">
<path fill="none" stroke="#63b8ff" d="M73.16,-250.37C83.68,-214.88 114.65,-125.58 172,-76.5 173.51,-75.2 175.1,-73.98 176.75,-72.81"/>
<polygon fill="#63b8ff" stroke="#63b8ff" points="178.71,-75.72 185.42,-67.52 175.06,-69.75 178.71,-75.72"/>
</a>
</g>
</g>
<!-- Node3&#45;&gt;Node2 -->
<g id="edge3_Node000003_Node000002" class="edge">
<title>Node3&#45;&gt;Node2</title>
<g id="a_edge3_Node000003_Node000002"><a xlink:title=" ">
<path fill="none" stroke="#63b8ff" d="M452.7,-414.48C459.88,-411.67 467.21,-408.63 474,-405.5 497.2,-394.82 522.34,-380.97 541.8,-369.71"/>
<polygon fill="#63b8ff" stroke="#63b8ff" points="543.71,-372.65 550.58,-364.58 540.18,-366.6 543.71,-372.65"/>
</a>
</g>
</g>
<!-- Node3&#45;&gt;Node3 -->
<g id="edge4_Node000003_Node000003" class="edge">
<title>Node3&#45;&gt;Node3</title>
<g id="a_edge4_Node000003_Node000003"><a xlink:title=" ">
<path fill="none" stroke="#63b8ff" d="M379.82,-444.78C373.34,-453.91 383.06,-462.5 409,-462.5 424.4,-462.5 434.09,-459.47 438.06,-455.1"/>
<polygon fill="#63b8ff" stroke="#63b8ff" points="441.56,-454.82 438.18,-444.78 434.56,-454.73 441.56,-454.82"/>
</a>
</g>
</g>
<!-- Node4&#45;&gt;Node2 -->
<g id="edge6_Node000004_Node000002" class="edge">
<title>Node4&#45;&gt;Node2</title>
<g id="a_edge6_Node000004_Node000002"><a xlink:title=" ">
<path fill="none" stroke="#63b8ff" d="M474.46,-361.1C482.72,-360.15 491.23,-359.17 499.65,-358.21"/>
<polygon fill="#63b8ff" stroke="#63b8ff" points="500.32,-361.65 509.85,-357.04 499.52,-354.7 500.32,-361.65"/>
</a>
</g>
</g>
<!-- Node4&#45;&gt;Node4 -->
<g id="edge7_Node000004_Node000004" class="edge">
<title>Node4&#45;&gt;Node4</title>
<g id="a_edge7_Node000004_Node000004"><a xlink:title=" ">
<path fill="none" stroke="#63b8ff" d="M383.41,-378.08C370.97,-386.73 379.5,-396 409,-396 428.36,-396 438.69,-392.01 439.99,-386.82"/>
<polygon fill="#63b8ff" stroke="#63b8ff" points="442.82,-384.75 434.59,-378.08 436.87,-388.43 442.82,-384.75"/>
</a>
</g>
</g>
<!-- Node5&#45;&gt;Node2 -->
<g id="edge9_Node000005_Node000002" class="edge">
<title>Node5&#45;&gt;Node2</title>
<g id="a_edge9_Node000005_Node000002"><a xlink:title=" ">
<path fill="none" stroke="#63b8ff" d="M296.24,-333.64C351.78,-336.79 437.83,-341.68 499.73,-345.2"/>
<polygon fill="#63b8ff" stroke="#63b8ff" points="499.66,-348.7 509.84,-345.77 500.05,-341.71 499.66,-348.7"/>
</a>
</g>
</g>
<!-- Node5&#45;&gt;Node5 -->
<g id="edge10_Node000005_Node000005" class="edge">
<title>Node5&#45;&gt;Node5</title>
<g id="a_edge10_Node000005_Node000005"><a xlink:title=" ">
<path fill="none" stroke="#63b8ff" d="M210.47,-345.78C203.91,-354.91 213.75,-363.5 240,-363.5 255.59,-363.5 265.39,-360.47 269.41,-356.1"/>
<polygon fill="#63b8ff" stroke="#63b8ff" points="272.91,-355.82 269.53,-345.78 265.91,-355.73 272.91,-355.82"/>
</a>
</g>
</g>
<!-- Node6&#45;&gt;Node2 -->
<g id="edge12_Node000006_Node000002" class="edge">
<title>Node6&#45;&gt;Node2</title>
<g id="a_edge12_Node000006_Node000002"><a xlink:title=" ">
<path fill="none" stroke="#63b8ff" d="M450.06,-302.51C472.87,-311.05 501.62,-321.82 525.85,-330.9"/>
<polygon fill="#63b8ff" stroke="#63b8ff" points="524.64,-334.18 535.23,-334.41 527.1,-327.63 524.64,-334.18"/>
</a>
</g>
</g>
<!-- Node11&#45;&gt;Node2 -->
<g id="edge18_Node000011_Node000002" class="edge">
<title>Node11&#45;&gt;Node2</title>
<g id="a_edge18_Node000011_Node000002"><a xlink:title=" ">
<path fill="none" stroke="#63b8ff" d="M293.05,-67.64C298.33,-70.19 303.43,-73.13 308,-76.5 329.46,-92.33 326.38,-104.48 344,-124.5 413.88,-203.92 506.56,-288.54 550.43,-327.52"/>
<polygon fill="#63b8ff" stroke="#63b8ff" points="548.23,-330.25 558.04,-334.26 552.88,-325.01 548.23,-330.25"/>
</a>
</g>
</g>
<!-- Node11&#45;&gt;Node6 -->
<g id="edge19_Node000011_Node000006" class="edge">
<title>Node11&#45;&gt;Node6</title>
<g id="a_edge19_Node000011_Node000006"><a xlink:title=" ">
<path fill="none" stroke="#63b8ff" d="M297.07,-67.57C301.09,-70.1 304.81,-73.05 308,-76.5 349.3,-121.14 316.27,-154.38 344,-208.5 354.66,-229.31 371.43,-249.74 385.12,-264.6"/>
<polygon fill="#63b8ff" stroke="#63b8ff" points="382.95,-267.4 392.36,-272.26 388.03,-262.59 382.95,-267.4"/>
</a>
</g>
</g>
<!-- Node12 -->
<g id="Node000012" class="node">
<title>Node12</title>
<g id="a_Node000012"><a xlink:href="group__ConfigValidationUtils.html#ga6905a372521e35204369ffa3bb8d8b8e" target="_top" xlink:title="Validate file extension format.">
<polygon fill="white" stroke="#666666" points="465.5,-115.5 352.5,-115.5 352.5,-85.5 465.5,-85.5 465.5,-115.5"/>
<text text-anchor="start" x="360.5" y="-103.5" font-family="Helvetica,sans-Serif" font-size="10.00">ConfigUtils::is_valid</text>
<text text-anchor="middle" x="409" y="-92.5" font-family="Helvetica,sans-Serif" font-size="10.00">_extension</text>
</a>
</g>
</g>
<!-- Node11&#45;&gt;Node12 -->
<g id="edge20_Node000011_Node000012" class="edge">
<title>Node11&#45;&gt;Node12</title>
<g id="a_edge20_Node000011_Node000012"><a xlink:title=" ">
<path fill="none" stroke="#63b8ff" d="M293.38,-67.56C310.01,-72.34 328.57,-77.67 345.82,-82.63"/>
<polygon fill="#63b8ff" stroke="#63b8ff" points="345.23,-86.1 355.8,-85.5 347.16,-79.37 345.23,-86.1"/>
</a>
</g>
</g>
<!-- Node13 -->
<g id="Node000013" class="node">
<title>Node13</title>
<g id="a_Node000013"><a xlink:href="group__ConfigStringUtils.html#ga2f21572e2bdf739cbd8c75720728196c" target="_top" xlink:title="Split string into vector using delimiter.">
<polygon fill="white" stroke="#666666" points="457.5,-67.5 360.5,-67.5 360.5,-37.5 457.5,-37.5 457.5,-67.5"/>
<text text-anchor="start" x="368.5" y="-55.5" font-family="Helvetica,sans-Serif" font-size="10.00">ConfigUtils::split</text>
<text text-anchor="middle" x="409" y="-44.5" font-family="Helvetica,sans-Serif" font-size="10.00">_string</text>
</a>
</g>
</g>
<!-- Node11&#45;&gt;Node13 -->
<g id="edge21_Node000011_Node000013" class="edge">
<title>Node11&#45;&gt;Node13</title>
<g id="a_edge21_Node000011_Node000013"><a xlink:title=" ">
<path fill="none" stroke="#63b8ff" d="M308.44,-52.5C322.29,-52.5 336.76,-52.5 350.23,-52.5"/>
<polygon fill="#63b8ff" stroke="#63b8ff" points="350.31,-56 360.31,-52.5 350.31,-49 350.31,-56"/>
</a>
</g>
</g>
<!-- Node14 -->
<g id="Node000014" class="node">
<title>Node14</title>
<g id="a_Node000014"><a xlink:href="group__ConfigInternals.html#ga24e6150f47d12f03a5864631c6d846c5" target="_top" xlink:title="Remove leading and trailing whitespace from string.">
<polygon fill="white" stroke="#666666" points="467,-19 351,-19 351,0 467,0 467,-19"/>
<text text-anchor="middle" x="409" y="-7" font-family="Helvetica,sans-Serif" font-size="10.00">ConfigManager::trim</text>
</a>
</g>
</g>
<!-- Node11&#45;&gt;Node14 -->
<g id="edge22_Node000011_Node000014" class="edge">
<title>Node11&#45;&gt;Node14</title>
<g id="a_edge22_Node000011_Node000014"><a xlink:title=" ">
<path fill="none" stroke="#63b8ff" d="M299.41,-37.46C319.59,-32.26 341.93,-26.51 361.08,-21.58"/>
<polygon fill="#63b8ff" stroke="#63b8ff" points="361.96,-24.97 370.77,-19.09 360.21,-18.19 361.96,-24.97"/>
</a>
</g>
</g>
</g>
</svg>

<g id="navigator" transform="translate(0 0)" fill="#404254">
  <rect fill="#f2f5e9" fill-opacity="0.5" stroke="#606060" stroke-width=".5" x="0" y="0" width="60" height="60"/>
  <use id="zoomplus" xlink:href="#zoomPlus" x="17" y="9" onmousedown="handleZoom(evt,'in')"/>
  <use id="zoomminus" xlink:href="#zoomMin" x="42" y="9" onmousedown="handleZoom(evt,'out')"/>
  <use id="reset" xlink:href="#resetDef" x="30" y="36" onmousedown="handleReset()"/>
   <use id="arrowup" xlink:href="#arrowUp" x="0" y="0" onmousedown="handlePan(0,-1)"/>
  <use id="arrowright" xlink:href="#arrowRight" x="0" y="0" onmousedown="handlePan(1,0)"/>
  <use id="arrowdown" xlink:href="#arrowDown" x="0" y="0" onmousedown="handlePan(0,1)"/>
  <use id="arrowleft" xlink:href="#arrowLeft" x="0" y="0" onmousedown="handlePan(-1,0)"/>
</g>
<svg viewBox="0 0 15 15" width="100%" height="30px" preserveAspectRatio="xMaxYMin meet">
 <g id="arrow_out" transform="scale(0.3 0.3)">
  <a xlink:href="group__ConfigValidation_ga3b0a3320c46ed448da49cea015ea4b31_cgraph_org.svg" target="_base">
   <rect id="button" ry="5" rx="5" y="6" x="6" height="38" width="38"
        fill="#f2f5e9" fill-opacity="0.5" stroke="#606060" stroke-width="1.0"/>
   <path id="arrow"
     d="M 11.500037,31.436501 C 11.940474,20.09759 22.043105,11.32322 32.158766,21.979434 L 37.068811,17.246167 C 37.068811,17.246167 37.088388,32 37.088388,32 L 22.160133,31.978069 C 22.160133,31.978069 26.997745,27.140456 26.997745,27.140456 C 18.528582,18.264221 13.291696,25.230495 11.500037,31.436501 z"
     style="fill:#404040;"/>
  </a>
 </g>
</svg>

<style type='text/css'>
<![CDATA[
[data-mouse-over-selected='false'] { opacity: 0.7; }
[data-mouse-over-selected='true']  { opacity: 1.0; }
]]>
</style>
<script type="application/ecmascript"><![CDATA[
document.addEventListener('DOMContentLoaded', (event) => {
  highlightEdges();
  highlightAdjacentNodes();
});
]]></script>
</svg>
