<?xml version="1.0" encoding="UTF-8" standalone="no"?>
<!DOCTYPE svg PUBLIC "-//W3C//DTD SVG 1.1//EN"
 "http://www.w3.org/Graphics/SVG/1.1/DTD/svg11.dtd">
<!-- Generated by graphviz version 2.43.0 (0)
 -->
<!-- Title: core/help_utils.cpp Pages: 1 -->
<svg width="1066pt" height="247pt"
 viewBox="0.00 0.00 1066.18 247.00" xmlns="http://www.w3.org/2000/svg" xmlns:xlink="http://www.w3.org/1999/xlink">
<g id="graph0" class="graph" transform="scale(1 1) rotate(0) translate(4 243)">
<title>core/help_utils.cpp</title>
<!-- Node1 -->
<g id="Node000001" class="node">
<title>Node1</title>
<g id="a_Node000001"><a xlink:title="Implementation of help utility functions.">
<polygon fill="#999999" stroke="#666666" points="386,-239 278,-239 278,-220 386,-220 386,-239"/>
<text text-anchor="middle" x="332" y="-227" font-family="Helvetica,sans-Serif" font-size="10.00">core/help_utils.cpp</text>
</a>
</g>
</g>
<!-- Node2 -->
<g id="Node000002" class="node">
<title>Node2</title>
<g id="a_Node000002"><a xlink:href="help__utils_8h.html" target="_top" xlink:title="Help utility functions for all commands.">
<polygon fill="white" stroke="#666666" points="401.5,-184 328.5,-184 328.5,-165 401.5,-165 401.5,-184"/>
<text text-anchor="middle" x="365" y="-172" font-family="Helvetica,sans-Serif" font-size="10.00">help_utils.h</text>
</a>
</g>
</g>
<!-- Node1&#45;&gt;Node2 -->
<g id="edge1_Node000001_Node000002" class="edge">
<title>Node1&#45;&gt;Node2</title>
<g id="a_edge1_Node000001_Node000002"><a xlink:title=" ">
<path fill="none" stroke="#63b8ff" d="M337.45,-219.75C342.01,-212.42 348.67,-201.73 354.29,-192.7"/>
<polygon fill="#63b8ff" stroke="#63b8ff" points="357.34,-194.43 359.65,-184.09 351.4,-190.73 357.34,-194.43"/>
</a>
</g>
</g>
<!-- Node3 -->
<g id="Node000003" class="node">
<title>Node3</title>
<g id="a_Node000003"><a xlink:href="command__system_8h.html" target="_top" xlink:title="Command parsing and execution system for Gaussian Extractor.">
<polygon fill="white" stroke="#666666" points="358,-129 242,-129 242,-110 358,-110 358,-129"/>
<text text-anchor="middle" x="300" y="-117" font-family="Helvetica,sans-Serif" font-size="10.00">command_system.h</text>
</a>
</g>
</g>
<!-- Node1&#45;&gt;Node3 -->
<g id="edge21_Node000001_Node000003" class="edge">
<title>Node1&#45;&gt;Node3</title>
<g id="a_edge21_Node000001_Node000003"><a xlink:title=" ">
<path fill="none" stroke="#63b8ff" d="M329.38,-219.66C324.18,-202.09 312.43,-162.45 305.47,-138.95"/>
<polygon fill="#63b8ff" stroke="#63b8ff" points="308.76,-137.75 302.57,-129.16 302.05,-139.74 308.76,-137.75"/>
</a>
</g>
</g>
<!-- Node4 -->
<g id="Node000004" class="node">
<title>Node4</title>
<g id="a_Node000004"><a xlink:href="config__manager_8h.html" target="_top" xlink:title="Configuration management system for Gaussian Extractor.">
<polygon fill="white" stroke="#666666" points="243.5,-74 140.5,-74 140.5,-55 243.5,-55 243.5,-74"/>
<text text-anchor="middle" x="192" y="-62" font-family="Helvetica,sans-Serif" font-size="10.00">config_manager.h</text>
</a>
</g>
</g>
<!-- Node1&#45;&gt;Node4 -->
<g id="edge22_Node000001_Node000004" class="edge">
<title>Node1&#45;&gt;Node4</title>
<g id="a_edge22_Node000001_Node000004"><a xlink:title=" ">
<path fill="none" stroke="#63b8ff" d="M322.03,-219.78C303.36,-203.19 262.35,-165.44 233,-129 221.19,-114.34 209.74,-96.17 201.96,-83.03"/>
<polygon fill="#63b8ff" stroke="#63b8ff" points="204.82,-80.99 196.78,-74.1 198.77,-84.51 204.82,-80.99"/>
</a>
</g>
</g>
<!-- Node7 -->
<g id="Node000007" class="node">
<title>Node7</title>
<g id="a_Node000007"><a xlink:title=" ">
<polygon fill="#e0e0e0" stroke="#999999" points="60,-19 0,-19 0,0 60,0 60,-19"/>
<text text-anchor="middle" x="30" y="-7" font-family="Helvetica,sans-Serif" font-size="10.00">iostream</text>
</a>
</g>
</g>
<!-- Node1&#45;&gt;Node7 -->
<g id="edge37_Node000001_Node000007" class="edge">
<title>Node1&#45;&gt;Node7</title>
<g id="a_edge37_Node000001_Node000007"><a xlink:title=" ">
<path fill="none" stroke="#63b8ff" d="M317.63,-219.98C303.12,-211.27 280.18,-197.18 261,-184 179.91,-128.28 87.46,-56.08 48.67,-25.37"/>
<polygon fill="#63b8ff" stroke="#63b8ff" points="50.83,-22.62 40.82,-19.14 46.48,-28.1 50.83,-22.62"/>
</a>
</g>
</g>
<!-- Node17 -->
<g id="Node000017" class="node">
<title>Node17</title>
<g id="a_Node000017"><a xlink:href="gaussian__extractor_8h.html" target="_top" xlink:title="Core extraction engine and data structures for Gaussian log file processing.">
<polygon fill="white" stroke="#666666" points="798,-129 680,-129 680,-110 798,-110 798,-129"/>
<text text-anchor="middle" x="739" y="-117" font-family="Helvetica,sans-Serif" font-size="10.00">gaussian_extractor.h</text>
</a>
</g>
</g>
<!-- Node1&#45;&gt;Node17 -->
<g id="edge23_Node000001_Node000017" class="edge">
<title>Node1&#45;&gt;Node17</title>
<g id="a_edge23_Node000001_Node000017"><a xlink:title=" ">
<path fill="none" stroke="#63b8ff" d="M386.45,-221.79C436.76,-214.85 513.3,-202.42 578,-184 625.98,-170.34 679.45,-147.69 711.1,-133.46"/>
<polygon fill="#63b8ff" stroke="#63b8ff" points="712.92,-136.47 720.58,-129.15 710.02,-130.1 712.92,-136.47"/>
</a>
</g>
</g>
<!-- Node22 -->
<g id="Node000022" class="node">
<title>Node22</title>
<g id="a_Node000022"><a xlink:href="version_8h.html" target="_top" xlink:title="Version information and build metadata for Gaussian Extractor.">
<polygon fill="white" stroke="#666666" points="569,-184 507,-184 507,-165 569,-165 569,-184"/>
<text text-anchor="middle" x="538" y="-172" font-family="Helvetica,sans-Serif" font-size="10.00">version.h</text>
</a>
</g>
</g>
<!-- Node1&#45;&gt;Node22 -->
<g id="edge34_Node000001_Node000022" class="edge">
<title>Node1&#45;&gt;Node22</title>
<g id="a_edge34_Node000001_Node000022"><a xlink:title=" ">
<path fill="none" stroke="#63b8ff" d="M365.1,-219.98C400.91,-210.77 458.06,-196.07 496.77,-186.11"/>
<polygon fill="#63b8ff" stroke="#63b8ff" points="497.86,-189.44 506.67,-183.56 496.12,-182.66 497.86,-189.44"/>
</a>
</g>
</g>
<!-- Node2&#45;&gt;Node3 -->
<g id="edge2_Node000002_Node000003" class="edge">
<title>Node2&#45;&gt;Node3</title>
<g id="a_edge2_Node000002_Node000003"><a xlink:title=" ">
<path fill="none" stroke="#63b8ff" d="M354.56,-164.98C344.85,-157.07 330.18,-145.11 318.5,-135.58"/>
<polygon fill="#63b8ff" stroke="#63b8ff" points="320.6,-132.78 310.63,-129.17 316.17,-138.2 320.6,-132.78"/>
</a>
</g>
</g>
<!-- Node8 -->
<g id="Node000008" class="node">
<title>Node8</title>
<g id="a_Node000008"><a xlink:title=" ">
<polygon fill="#e0e0e0" stroke="#999999" points="504,-19 460,-19 460,0 504,0 504,-19"/>
<text text-anchor="middle" x="482" y="-7" font-family="Helvetica,sans-Serif" font-size="10.00">string</text>
</a>
</g>
</g>
<!-- Node2&#45;&gt;Node8 -->
<g id="edge20_Node000002_Node000008" class="edge">
<title>Node2&#45;&gt;Node8</title>
<g id="a_edge20_Node000002_Node000008"><a xlink:title=" ">
<path fill="none" stroke="#63b8ff" d="M365.84,-164.75C368.28,-143.63 377.07,-89.1 405,-55 416.91,-40.46 434.9,-29.68 450.5,-22.38"/>
<polygon fill="#63b8ff" stroke="#63b8ff" points="452.08,-25.51 459.83,-18.28 449.27,-19.1 452.08,-25.51"/>
</a>
</g>
</g>
<!-- Node3&#45;&gt;Node4 -->
<g id="edge3_Node000003_Node000004" class="edge">
<title>Node3&#45;&gt;Node4</title>
<g id="a_edge3_Node000003_Node000004"><a xlink:title=" ">
<path fill="none" stroke="#63b8ff" d="M282.65,-109.98C265.43,-101.54 238.8,-88.47 218.85,-78.68"/>
<polygon fill="#63b8ff" stroke="#63b8ff" points="220.19,-75.43 209.67,-74.17 217.1,-81.72 220.19,-75.43"/>
</a>
</g>
</g>
<!-- Node3&#45;&gt;Node8 -->
<g id="edge17_Node000003_Node000008" class="edge">
<title>Node3&#45;&gt;Node8</title>
<g id="a_edge17_Node000003_Node000008"><a xlink:title=" ">
<path fill="none" stroke="#63b8ff" d="M308.1,-109.65C320.69,-96.31 346.2,-70.95 372,-55 396.73,-39.72 427.62,-27.76 450.37,-20.11"/>
<polygon fill="#63b8ff" stroke="#63b8ff" points="451.46,-23.43 459.88,-17 449.29,-16.78 451.46,-23.43"/>
</a>
</g>
</g>
<!-- Node9 -->
<g id="Node000009" class="node">
<title>Node9</title>
<g id="a_Node000009"><a xlink:title=" ">
<polygon fill="#e0e0e0" stroke="#999999" points="330.5,-19 237.5,-19 237.5,0 330.5,0 330.5,-19"/>
<text text-anchor="middle" x="284" y="-7" font-family="Helvetica,sans-Serif" font-size="10.00">unordered_map</text>
</a>
</g>
</g>
<!-- Node3&#45;&gt;Node9 -->
<g id="edge18_Node000003_Node000009" class="edge">
<title>Node3&#45;&gt;Node9</title>
<g id="a_edge18_Node000003_Node000009"><a xlink:title=" ">
<path fill="none" stroke="#63b8ff" d="M298.69,-109.66C296.1,-92.17 290.27,-52.8 286.78,-29.27"/>
<polygon fill="#63b8ff" stroke="#63b8ff" points="290.21,-28.54 285.28,-19.16 283.29,-29.56 290.21,-28.54"/>
</a>
</g>
</g>
<!-- Node10 -->
<g id="Node000010" class="node">
<title>Node10</title>
<g id="a_Node000010"><a xlink:title=" ">
<polygon fill="#e0e0e0" stroke="#999999" points="395.5,-19 348.5,-19 348.5,0 395.5,0 395.5,-19"/>
<text text-anchor="middle" x="372" y="-7" font-family="Helvetica,sans-Serif" font-size="10.00">vector</text>
</a>
</g>
</g>
<!-- Node3&#45;&gt;Node10 -->
<g id="edge19_Node000003_Node000010" class="edge">
<title>Node3&#45;&gt;Node10</title>
<g id="a_edge19_Node000003_Node000010"><a xlink:title=" ">
<path fill="none" stroke="#63b8ff" d="M303.85,-109.95C309.65,-97.43 321.31,-73.59 334,-55 340.79,-45.06 349.44,-34.79 356.76,-26.62"/>
<polygon fill="#63b8ff" stroke="#63b8ff" points="359.35,-28.98 363.54,-19.24 354.2,-24.24 359.35,-28.98"/>
</a>
</g>
</g>
<!-- Node11 -->
<g id="Node000011" class="node">
<title>Node11</title>
<g id="a_Node000011"><a xlink:href="job__scheduler_8h.html" target="_top" xlink:title="Job scheduler detection and resource management for HPC environments.">
<polygon fill="white" stroke="#666666" points="696,-74 604,-74 604,-55 696,-55 696,-74"/>
<text text-anchor="middle" x="650" y="-62" font-family="Helvetica,sans-Serif" font-size="10.00">job_scheduler.h</text>
</a>
</g>
</g>
<!-- Node3&#45;&gt;Node11 -->
<g id="edge10_Node000003_Node000011" class="edge">
<title>Node3&#45;&gt;Node11</title>
<g id="a_edge10_Node000003_Node000011"><a xlink:title=" ">
<path fill="none" stroke="#63b8ff" d="M356.23,-109.98C421.53,-100.1 528.6,-83.88 593.86,-74"/>
<polygon fill="#63b8ff" stroke="#63b8ff" points="594.6,-77.43 603.96,-72.47 593.55,-70.51 594.6,-77.43"/>
</a>
</g>
</g>
<!-- Node16 -->
<g id="Node000016" class="node">
<title>Node16</title>
<g id="a_Node000016"><a xlink:title=" ">
<polygon fill="#e0e0e0" stroke="#999999" points="472,-74 414,-74 414,-55 472,-55 472,-74"/>
<text text-anchor="middle" x="443" y="-62" font-family="Helvetica,sans-Serif" font-size="10.00">memory</text>
</a>
</g>
</g>
<!-- Node3&#45;&gt;Node16 -->
<g id="edge16_Node000003_Node000016" class="edge">
<title>Node3&#45;&gt;Node16</title>
<g id="a_edge16_Node000003_Node000016"><a xlink:title=" ">
<path fill="none" stroke="#63b8ff" d="M322.98,-109.98C346.5,-101.27 383.29,-87.63 409.94,-77.75"/>
<polygon fill="#63b8ff" stroke="#63b8ff" points="411.45,-80.93 419.61,-74.17 409.01,-74.36 411.45,-80.93"/>
</a>
</g>
</g>
<!-- Node5 -->
<g id="Node000005" class="node">
<title>Node5</title>
<g id="a_Node000005"><a xlink:title=" ">
<polygon fill="#e0e0e0" stroke="#999999" points="146,-19 78,-19 78,0 146,0 146,-19"/>
<text text-anchor="middle" x="112" y="-7" font-family="Helvetica,sans-Serif" font-size="10.00">filesystem</text>
</a>
</g>
</g>
<!-- Node4&#45;&gt;Node5 -->
<g id="edge4_Node000004_Node000005" class="edge">
<title>Node4&#45;&gt;Node5</title>
<g id="a_edge4_Node000004_Node000005"><a xlink:title=" ">
<path fill="none" stroke="#63b8ff" d="M179.15,-54.98C166.86,-46.84 148.09,-34.41 133.52,-24.76"/>
<polygon fill="#63b8ff" stroke="#63b8ff" points="135.36,-21.78 125.09,-19.17 131.49,-27.61 135.36,-21.78"/>
</a>
</g>
</g>
<!-- Node6 -->
<g id="Node000006" class="node">
<title>Node6</title>
<g id="a_Node000006"><a xlink:title=" ">
<polygon fill="#e0e0e0" stroke="#999999" points="219.5,-19 164.5,-19 164.5,0 219.5,0 219.5,-19"/>
<text text-anchor="middle" x="192" y="-7" font-family="Helvetica,sans-Serif" font-size="10.00">fstream</text>
</a>
</g>
</g>
<!-- Node4&#45;&gt;Node6 -->
<g id="edge5_Node000004_Node000006" class="edge">
<title>Node4&#45;&gt;Node6</title>
<g id="a_edge5_Node000004_Node000006"><a xlink:title=" ">
<path fill="none" stroke="#63b8ff" d="M192,-54.75C192,-47.8 192,-37.85 192,-29.13"/>
<polygon fill="#63b8ff" stroke="#63b8ff" points="195.5,-29.09 192,-19.09 188.5,-29.09 195.5,-29.09"/>
</a>
</g>
</g>
<!-- Node4&#45;&gt;Node7 -->
<g id="edge6_Node000004_Node000007" class="edge">
<title>Node4&#45;&gt;Node7</title>
<g id="a_edge6_Node000004_Node000007"><a xlink:title=" ">
<path fill="none" stroke="#63b8ff" d="M165.97,-54.98C138.89,-46.13 96.29,-32.19 65.99,-22.28"/>
<polygon fill="#63b8ff" stroke="#63b8ff" points="66.82,-18.87 56.23,-19.08 64.65,-25.52 66.82,-18.87"/>
</a>
</g>
</g>
<!-- Node4&#45;&gt;Node8 -->
<g id="edge7_Node000004_Node000008" class="edge">
<title>Node4&#45;&gt;Node8</title>
<g id="a_edge7_Node000004_Node000008"><a xlink:title=" ">
<path fill="none" stroke="#63b8ff" d="M238.59,-54.98C297.91,-44.14 398.83,-25.7 450.09,-16.33"/>
<polygon fill="#63b8ff" stroke="#63b8ff" points="450.73,-19.77 459.94,-14.53 449.48,-12.89 450.73,-19.77"/>
</a>
</g>
</g>
<!-- Node4&#45;&gt;Node9 -->
<g id="edge8_Node000004_Node000009" class="edge">
<title>Node4&#45;&gt;Node9</title>
<g id="a_edge8_Node000004_Node000009"><a xlink:title=" ">
<path fill="none" stroke="#63b8ff" d="M206.78,-54.98C221.18,-46.69 243.31,-33.94 260.19,-24.22"/>
<polygon fill="#63b8ff" stroke="#63b8ff" points="262.03,-27.19 268.95,-19.17 258.54,-21.13 262.03,-27.19"/>
</a>
</g>
</g>
<!-- Node4&#45;&gt;Node10 -->
<g id="edge9_Node000004_Node000010" class="edge">
<title>Node4&#45;&gt;Node10</title>
<g id="a_edge9_Node000004_Node000010"><a xlink:title=" ">
<path fill="none" stroke="#63b8ff" d="M220.92,-54.98C252.98,-45.54 304.63,-30.34 338.44,-20.38"/>
<polygon fill="#63b8ff" stroke="#63b8ff" points="339.72,-23.65 348.32,-17.47 337.74,-16.94 339.72,-23.65"/>
</a>
</g>
</g>
<!-- Node11&#45;&gt;Node8 -->
<g id="edge15_Node000011_Node000008" class="edge">
<title>Node11&#45;&gt;Node8</title>
<g id="a_edge15_Node000011_Node000008"><a xlink:title=" ">
<path fill="none" stroke="#63b8ff" d="M623.01,-54.98C593.21,-45.58 545.3,-30.47 513.73,-20.51"/>
<polygon fill="#63b8ff" stroke="#63b8ff" points="514.69,-17.14 504.1,-17.47 512.58,-23.82 514.69,-17.14"/>
</a>
</g>
</g>
<!-- Node12 -->
<g id="Node000012" class="node">
<title>Node12</title>
<g id="a_Node000012"><a xlink:title=" ">
<polygon fill="#e0e0e0" stroke="#999999" points="904,-19 840,-19 840,0 904,0 904,-19"/>
<text text-anchor="middle" x="872" y="-7" font-family="Helvetica,sans-Serif" font-size="10.00">algorithm</text>
</a>
</g>
</g>
<!-- Node11&#45;&gt;Node12 -->
<g id="edge11_Node000011_Node000012" class="edge">
<title>Node11&#45;&gt;Node12</title>
<g id="a_edge11_Node000011_Node000012"><a xlink:title=" ">
<path fill="none" stroke="#63b8ff" d="M685.67,-54.98C724.96,-45.6 788.09,-30.53 829.81,-20.57"/>
<polygon fill="#63b8ff" stroke="#63b8ff" points="830.76,-23.95 839.67,-18.22 829.13,-17.14 830.76,-23.95"/>
</a>
</g>
</g>
<!-- Node13 -->
<g id="Node000013" class="node">
<title>Node13</title>
<g id="a_Node000013"><a xlink:title=" ">
<polygon fill="#e0e0e0" stroke="#999999" points="684.5,-19 635.5,-19 635.5,0 684.5,0 684.5,-19"/>
<text text-anchor="middle" x="660" y="-7" font-family="Helvetica,sans-Serif" font-size="10.00">cctype</text>
</a>
</g>
</g>
<!-- Node11&#45;&gt;Node13 -->
<g id="edge12_Node000011_Node000013" class="edge">
<title>Node11&#45;&gt;Node13</title>
<g id="a_edge12_Node000011_Node000013"><a xlink:title=" ">
<path fill="none" stroke="#63b8ff" d="M651.65,-54.75C652.96,-47.8 654.84,-37.85 656.48,-29.13"/>
<polygon fill="#63b8ff" stroke="#63b8ff" points="659.96,-29.56 658.38,-19.09 653.09,-28.27 659.96,-29.56"/>
</a>
</g>
</g>
<!-- Node14 -->
<g id="Node000014" class="node">
<title>Node14</title>
<g id="a_Node000014"><a xlink:title=" ">
<polygon fill="#e0e0e0" stroke="#999999" points="617.5,-19 568.5,-19 568.5,0 617.5,0 617.5,-19"/>
<text text-anchor="middle" x="593" y="-7" font-family="Helvetica,sans-Serif" font-size="10.00">cstdlib</text>
</a>
</g>
</g>
<!-- Node11&#45;&gt;Node14 -->
<g id="edge13_Node000011_Node000014" class="edge">
<title>Node11&#45;&gt;Node14</title>
<g id="a_edge13_Node000011_Node000014"><a xlink:title=" ">
<path fill="none" stroke="#63b8ff" d="M640.84,-54.98C632.5,-47.23 619.97,-35.58 609.82,-26.14"/>
<polygon fill="#63b8ff" stroke="#63b8ff" points="612.03,-23.42 602.32,-19.17 607.26,-28.54 612.03,-23.42"/>
</a>
</g>
</g>
<!-- Node15 -->
<g id="Node000015" class="node">
<title>Node15</title>
<g id="a_Node000015"><a xlink:title=" ">
<polygon fill="#e0e0e0" stroke="#999999" points="1056.5,-19 991.5,-19 991.5,0 1056.5,0 1056.5,-19"/>
<text text-anchor="middle" x="1024" y="-7" font-family="Helvetica,sans-Serif" font-size="10.00">functional</text>
</a>
</g>
</g>
<!-- Node11&#45;&gt;Node15 -->
<g id="edge14_Node000011_Node000015" class="edge">
<title>Node11&#45;&gt;Node15</title>
<g id="a_edge14_Node000011_Node000015"><a xlink:title=" ">
<path fill="none" stroke="#63b8ff" d="M696.21,-56.31C699.18,-55.86 702.13,-55.42 705,-55 803.84,-40.47 920.1,-24.55 981.31,-16.25"/>
<polygon fill="#63b8ff" stroke="#63b8ff" points="981.93,-19.7 991.37,-14.89 980.99,-12.76 981.93,-19.7"/>
</a>
</g>
</g>
<!-- Node17&#45;&gt;Node8 -->
<g id="edge31_Node000017_Node000008" class="edge">
<title>Node17&#45;&gt;Node8</title>
<g id="a_edge31_Node000017_Node000008"><a xlink:title=" ">
<path fill="none" stroke="#63b8ff" d="M704.22,-109.98C674.59,-102.19 631.18,-89.55 595,-74 561.89,-59.77 525.99,-38.5 503.75,-24.56"/>
<polygon fill="#63b8ff" stroke="#63b8ff" points="505.42,-21.48 495.1,-19.08 501.67,-27.39 505.42,-21.48"/>
</a>
</g>
</g>
<!-- Node17&#45;&gt;Node10 -->
<g id="edge32_Node000017_Node000010" class="edge">
<title>Node17&#45;&gt;Node10</title>
<g id="a_edge32_Node000017_Node000010"><a xlink:title=" ">
<path fill="none" stroke="#63b8ff" d="M697.45,-109.93C659.33,-101.76 601.46,-88.56 552,-74 499.12,-58.43 438.95,-36.28 403.3,-22.68"/>
<polygon fill="#63b8ff" stroke="#63b8ff" points="404.51,-19.39 393.92,-19.08 402.01,-25.93 404.51,-19.39"/>
</a>
</g>
</g>
<!-- Node17&#45;&gt;Node11 -->
<g id="edge33_Node000017_Node000011" class="edge">
<title>Node17&#45;&gt;Node11</title>
<g id="a_edge33_Node000017_Node000011"><a xlink:title=" ">
<path fill="none" stroke="#63b8ff" d="M724.7,-109.98C710.9,-101.77 689.76,-89.18 673.49,-79.49"/>
<polygon fill="#63b8ff" stroke="#63b8ff" points="674.94,-76.28 664.56,-74.17 671.36,-82.29 674.94,-76.28"/>
</a>
</g>
</g>
<!-- Node17&#45;&gt;Node12 -->
<g id="edge24_Node000017_Node000012" class="edge">
<title>Node17&#45;&gt;Node12</title>
<g id="a_edge24_Node000017_Node000012"><a xlink:title=" ">
<path fill="none" stroke="#63b8ff" d="M798.12,-118.38C875.8,-116.83 1005.93,-108.91 1036,-74 1072.18,-31.99 974.51,-17.63 914.68,-12.83"/>
<polygon fill="#63b8ff" stroke="#63b8ff" points="914.58,-9.31 904.35,-12.06 914.06,-16.29 914.58,-9.31"/>
</a>
</g>
</g>
<!-- Node17&#45;&gt;Node15 -->
<g id="edge28_Node000017_Node000015" class="edge">
<title>Node17&#45;&gt;Node15</title>
<g id="a_edge28_Node000017_Node000015"><a xlink:title=" ">
<path fill="none" stroke="#63b8ff" d="M798.02,-118.95C879.66,-118.16 1020.65,-111.26 1053,-74 1065.09,-60.08 1052.57,-40.28 1040.42,-26.5"/>
<polygon fill="#63b8ff" stroke="#63b8ff" points="1042.91,-24.04 1033.49,-19.18 1037.82,-28.85 1042.91,-24.04"/>
</a>
</g>
</g>
<!-- Node17&#45;&gt;Node16 -->
<g id="edge29_Node000017_Node000016" class="edge">
<title>Node17&#45;&gt;Node16</title>
<g id="a_edge29_Node000017_Node000016"><a xlink:title=" ">
<path fill="none" stroke="#63b8ff" d="M688.54,-109.95C637.44,-101.21 556.14,-87.1 486,-74 484.74,-73.76 483.45,-73.52 482.16,-73.28"/>
<polygon fill="#63b8ff" stroke="#63b8ff" points="482.61,-69.8 472.13,-71.34 481.29,-76.67 482.61,-69.8"/>
</a>
</g>
</g>
<!-- Node18 -->
<g id="Node000018" class="node">
<title>Node18</title>
<g id="a_Node000018"><a xlink:title=" ">
<polygon fill="#e0e0e0" stroke="#999999" points="764,-74 714,-74 714,-55 764,-55 764,-74"/>
<text text-anchor="middle" x="739" y="-62" font-family="Helvetica,sans-Serif" font-size="10.00">atomic</text>
</a>
</g>
</g>
<!-- Node17&#45;&gt;Node18 -->
<g id="edge25_Node000017_Node000018" class="edge">
<title>Node17&#45;&gt;Node18</title>
<g id="a_edge25_Node000017_Node000018"><a xlink:title=" ">
<path fill="none" stroke="#63b8ff" d="M739,-109.75C739,-102.8 739,-92.85 739,-84.13"/>
<polygon fill="#63b8ff" stroke="#63b8ff" points="742.5,-84.09 739,-74.09 735.5,-84.09 742.5,-84.09"/>
</a>
</g>
</g>
<!-- Node19 -->
<g id="Node000019" class="node">
<title>Node19</title>
<g id="a_Node000019"><a xlink:title=" ">
<polygon fill="#e0e0e0" stroke="#999999" points="889.5,-74 782.5,-74 782.5,-55 889.5,-55 889.5,-74"/>
<text text-anchor="middle" x="836" y="-62" font-family="Helvetica,sans-Serif" font-size="10.00">condition_variable</text>
</a>
</g>
</g>
<!-- Node17&#45;&gt;Node19 -->
<g id="edge26_Node000017_Node000019" class="edge">
<title>Node17&#45;&gt;Node19</title>
<g id="a_edge26_Node000017_Node000019"><a xlink:title=" ">
<path fill="none" stroke="#63b8ff" d="M754.58,-109.98C769.77,-101.69 793.1,-88.94 810.9,-79.22"/>
<polygon fill="#63b8ff" stroke="#63b8ff" points="813.03,-82.04 820.13,-74.17 809.68,-75.89 813.03,-82.04"/>
</a>
</g>
</g>
<!-- Node20 -->
<g id="Node000020" class="node">
<title>Node20</title>
<g id="a_Node000020"><a xlink:title=" ">
<polygon fill="#e0e0e0" stroke="#999999" points="960.5,-74 907.5,-74 907.5,-55 960.5,-55 960.5,-74"/>
<text text-anchor="middle" x="934" y="-62" font-family="Helvetica,sans-Serif" font-size="10.00">cstddef</text>
</a>
</g>
</g>
<!-- Node17&#45;&gt;Node20 -->
<g id="edge27_Node000017_Node000020" class="edge">
<title>Node17&#45;&gt;Node20</title>
<g id="a_edge27_Node000017_Node000020"><a xlink:title=" ">
<path fill="none" stroke="#63b8ff" d="M770.33,-109.98C805.07,-100.54 861.02,-85.33 897.66,-75.38"/>
<polygon fill="#63b8ff" stroke="#63b8ff" points="898.71,-78.72 907.45,-72.72 896.88,-71.96 898.71,-78.72"/>
</a>
</g>
</g>
<!-- Node21 -->
<g id="Node000021" class="node">
<title>Node21</title>
<g id="a_Node000021"><a xlink:title=" ">
<polygon fill="#e0e0e0" stroke="#999999" points="1027,-74 979,-74 979,-55 1027,-55 1027,-74"/>
<text text-anchor="middle" x="1003" y="-62" font-family="Helvetica,sans-Serif" font-size="10.00">mutex</text>
</a>
</g>
</g>
<!-- Node17&#45;&gt;Node21 -->
<g id="edge30_Node000017_Node000021" class="edge">
<title>Node17&#45;&gt;Node21</title>
<g id="a_edge30_Node000017_Node000021"><a xlink:title=" ">
<path fill="none" stroke="#63b8ff" d="M787.85,-109.99C832.53,-102.01 900.68,-89.33 968.84,-74.15"/>
<polygon fill="#63b8ff" stroke="#63b8ff" points="969.9,-77.5 978.89,-71.89 968.37,-70.67 969.9,-77.5"/>
</a>
</g>
</g>
<!-- Node22&#45;&gt;Node8 -->
<g id="edge35_Node000022_Node000008" class="edge">
<title>Node22&#45;&gt;Node8</title>
<g id="a_edge35_Node000022_Node000008"><a xlink:title=" ">
<path fill="none" stroke="#63b8ff" d="M534.99,-164.74C526.18,-139.09 500.31,-63.78 488.28,-28.78"/>
<polygon fill="#63b8ff" stroke="#63b8ff" points="491.59,-27.63 485.03,-19.31 484.96,-29.9 491.59,-27.63"/>
</a>
</g>
</g>
<!-- Node23 -->
<g id="Node000023" class="node">
<title>Node23</title>
<g id="a_Node000023"><a xlink:title=" ">
<polygon fill="#e0e0e0" stroke="#999999" points="616,-129 566,-129 566,-110 616,-110 616,-129"/>
<text text-anchor="middle" x="591" y="-117" font-family="Helvetica,sans-Serif" font-size="10.00">cstring</text>
</a>
</g>
</g>
<!-- Node22&#45;&gt;Node23 -->
<g id="edge36_Node000022_Node000023" class="edge">
<title>Node22&#45;&gt;Node23</title>
<g id="a_edge36_Node000022_Node000023"><a xlink:title=" ">
<path fill="none" stroke="#63b8ff" d="M546.75,-164.75C554.47,-157.03 565.9,-145.6 575.22,-136.28"/>
<polygon fill="#63b8ff" stroke="#63b8ff" points="577.81,-138.64 582.41,-129.09 572.86,-133.69 577.81,-138.64"/>
</a>
</g>
</g>
</g>
</svg>
