<?xml version="1.0" encoding="UTF-8" standalone="no"?>
<!DOCTYPE svg PUBLIC "-//W3C//DTD SVG 1.1//EN"
 "http://www.w3.org/Graphics/SVG/1.1/DTD/svg11.dtd">
<!-- Generated by graphviz version 2.43.0 (0)
 -->
<!-- Title: core/help_utils.h Pages: 1 -->
<svg width="767pt" height="192pt"
 viewBox="0.00 0.00 767.00 192.00" xmlns="http://www.w3.org/2000/svg" xmlns:xlink="http://www.w3.org/1999/xlink">
<g id="graph0" class="graph" transform="scale(1 1) rotate(0) translate(4 188)">
<title>core/help_utils.h</title>
<!-- Node1 -->
<g id="Node000001" class="node">
<title>Node1</title>
<g id="a_Node000001"><a xlink:title="Help utility functions for all commands.">
<polygon fill="#999999" stroke="#666666" points="441,-184 344,-184 344,-165 441,-165 441,-184"/>
<text text-anchor="middle" x="392.5" y="-172" font-family="Helvetica,sans-Serif" font-size="10.00">core/help_utils.h</text>
</a>
</g>
</g>
<!-- Node2 -->
<g id="Node000002" class="node">
<title>Node2</title>
<g id="a_Node000002"><a xlink:href="command__system_8h.html" target="_top" xlink:title="Command parsing and execution system for Gaussian Extractor.">
<polygon fill="white" stroke="#666666" points="407.5,-129 291.5,-129 291.5,-110 407.5,-110 407.5,-129"/>
<text text-anchor="middle" x="349.5" y="-117" font-family="Helvetica,sans-Serif" font-size="10.00">command_system.h</text>
</a>
</g>
</g>
<!-- Node1&#45;&gt;Node2 -->
<g id="edge1_Node000001_Node000002" class="edge">
<title>Node1&#45;&gt;Node2</title>
<g id="a_edge1_Node000001_Node000002"><a xlink:title=" ">
<path fill="none" stroke="#63b8ff" d="M385.4,-164.75C379.33,-157.26 370.41,-146.28 362.99,-137.13"/>
<polygon fill="#63b8ff" stroke="#63b8ff" points="365.49,-134.65 356.47,-129.09 360.05,-139.06 365.49,-134.65"/>
</a>
</g>
</g>
<!-- Node7 -->
<g id="Node000007" class="node">
<title>Node7</title>
<g id="a_Node000007"><a xlink:title=" ">
<polygon fill="#e0e0e0" stroke="#999999" points="458.5,-19 414.5,-19 414.5,0 458.5,0 458.5,-19"/>
<text text-anchor="middle" x="436.5" y="-7" font-family="Helvetica,sans-Serif" font-size="10.00">string</text>
</a>
</g>
</g>
<!-- Node1&#45;&gt;Node7 -->
<g id="edge19_Node000001_Node000007" class="edge">
<title>Node1&#45;&gt;Node7</title>
<g id="a_edge19_Node000001_Node000007"><a xlink:title=" ">
<path fill="none" stroke="#63b8ff" d="M398.38,-164.7C403.91,-155.99 411.99,-142.12 416.5,-129 428.21,-94.92 433.22,-52.88 435.25,-29.14"/>
<polygon fill="#63b8ff" stroke="#63b8ff" points="438.74,-29.3 436.01,-19.07 431.76,-28.77 438.74,-29.3"/>
</a>
</g>
</g>
<!-- Node3 -->
<g id="Node000003" class="node">
<title>Node3</title>
<g id="a_Node000003"><a xlink:href="config__manager_8h.html" target="_top" xlink:title="Configuration management system for Gaussian Extractor.">
<polygon fill="white" stroke="#666666" points="311,-74 208,-74 208,-55 311,-55 311,-74"/>
<text text-anchor="middle" x="259.5" y="-62" font-family="Helvetica,sans-Serif" font-size="10.00">config_manager.h</text>
</a>
</g>
</g>
<!-- Node2&#45;&gt;Node3 -->
<g id="edge2_Node000002_Node000003" class="edge">
<title>Node2&#45;&gt;Node3</title>
<g id="a_edge2_Node000002_Node000003"><a xlink:title=" ">
<path fill="none" stroke="#63b8ff" d="M335.04,-109.98C321.08,-101.77 299.71,-89.18 283.25,-79.49"/>
<polygon fill="#63b8ff" stroke="#63b8ff" points="284.62,-76.23 274.22,-74.17 281.06,-82.26 284.62,-76.23"/>
</a>
</g>
</g>
<!-- Node2&#45;&gt;Node7 -->
<g id="edge16_Node000002_Node000007" class="edge">
<title>Node2&#45;&gt;Node7</title>
<g id="a_edge16_Node000002_Node000007"><a xlink:title=" ">
<path fill="none" stroke="#63b8ff" d="M356.62,-109.66C371.16,-91.61 404.46,-50.28 423.15,-27.08"/>
<polygon fill="#63b8ff" stroke="#63b8ff" points="425.98,-29.14 429.53,-19.16 420.53,-24.75 425.98,-29.14"/>
</a>
</g>
</g>
<!-- Node8 -->
<g id="Node000008" class="node">
<title>Node8</title>
<g id="a_Node000008"><a xlink:title=" ">
<polygon fill="#e0e0e0" stroke="#999999" points="396,-19 303,-19 303,0 396,0 396,-19"/>
<text text-anchor="middle" x="349.5" y="-7" font-family="Helvetica,sans-Serif" font-size="10.00">unordered_map</text>
</a>
</g>
</g>
<!-- Node2&#45;&gt;Node8 -->
<g id="edge17_Node000002_Node000008" class="edge">
<title>Node2&#45;&gt;Node8</title>
<g id="a_edge17_Node000002_Node000008"><a xlink:title=" ">
<path fill="none" stroke="#63b8ff" d="M349.5,-109.66C349.5,-92.17 349.5,-52.8 349.5,-29.27"/>
<polygon fill="#63b8ff" stroke="#63b8ff" points="353,-29.16 349.5,-19.16 346,-29.16 353,-29.16"/>
</a>
</g>
</g>
<!-- Node9 -->
<g id="Node000009" class="node">
<title>Node9</title>
<g id="a_Node000009"><a xlink:title=" ">
<polygon fill="#e0e0e0" stroke="#999999" points="47,-19 0,-19 0,0 47,0 47,-19"/>
<text text-anchor="middle" x="23.5" y="-7" font-family="Helvetica,sans-Serif" font-size="10.00">vector</text>
</a>
</g>
</g>
<!-- Node2&#45;&gt;Node9 -->
<g id="edge18_Node000002_Node000009" class="edge">
<title>Node2&#45;&gt;Node9</title>
<g id="a_edge18_Node000002_Node000009"><a xlink:title=" ">
<path fill="none" stroke="#63b8ff" d="M291.36,-113.19C244.45,-107.49 177.47,-96.08 122.5,-74 92.24,-61.84 61.2,-40.14 42.14,-25.53"/>
<polygon fill="#63b8ff" stroke="#63b8ff" points="44.07,-22.6 34.03,-19.19 39.75,-28.11 44.07,-22.6"/>
</a>
</g>
</g>
<!-- Node10 -->
<g id="Node000010" class="node">
<title>Node10</title>
<g id="a_Node000010"><a xlink:href="job__scheduler_8h.html" target="_top" xlink:title="Job scheduler detection and resource management for HPC environments.">
<polygon fill="white" stroke="#666666" points="588.5,-74 496.5,-74 496.5,-55 588.5,-55 588.5,-74"/>
<text text-anchor="middle" x="542.5" y="-62" font-family="Helvetica,sans-Serif" font-size="10.00">job_scheduler.h</text>
</a>
</g>
</g>
<!-- Node2&#45;&gt;Node10 -->
<g id="edge9_Node000002_Node000010" class="edge">
<title>Node2&#45;&gt;Node10</title>
<g id="a_edge9_Node000002_Node000010"><a xlink:title=" ">
<path fill="none" stroke="#63b8ff" d="M380.51,-109.98C413.33,-100.97 465.3,-86.7 501.49,-76.76"/>
<polygon fill="#63b8ff" stroke="#63b8ff" points="502.53,-80.11 511.25,-74.08 500.68,-73.36 502.53,-80.11"/>
</a>
</g>
</g>
<!-- Node15 -->
<g id="Node000015" class="node">
<title>Node15</title>
<g id="a_Node000015"><a xlink:title=" ">
<polygon fill="#e0e0e0" stroke="#999999" points="189.5,-74 131.5,-74 131.5,-55 189.5,-55 189.5,-74"/>
<text text-anchor="middle" x="160.5" y="-62" font-family="Helvetica,sans-Serif" font-size="10.00">memory</text>
</a>
</g>
</g>
<!-- Node2&#45;&gt;Node15 -->
<g id="edge15_Node000002_Node000015" class="edge">
<title>Node2&#45;&gt;Node15</title>
<g id="a_edge15_Node000002_Node000015"><a xlink:title=" ">
<path fill="none" stroke="#63b8ff" d="M319.13,-109.98C286.65,-100.88 235.03,-86.4 199.55,-76.45"/>
<polygon fill="#63b8ff" stroke="#63b8ff" points="200.12,-72.98 189.55,-73.65 198.23,-79.72 200.12,-72.98"/>
</a>
</g>
</g>
<!-- Node4 -->
<g id="Node000004" class="node">
<title>Node4</title>
<g id="a_Node000004"><a xlink:title=" ">
<polygon fill="#e0e0e0" stroke="#999999" points="284.5,-19 216.5,-19 216.5,0 284.5,0 284.5,-19"/>
<text text-anchor="middle" x="250.5" y="-7" font-family="Helvetica,sans-Serif" font-size="10.00">filesystem</text>
</a>
</g>
</g>
<!-- Node3&#45;&gt;Node4 -->
<g id="edge3_Node000003_Node000004" class="edge">
<title>Node3&#45;&gt;Node4</title>
<g id="a_edge3_Node000003_Node000004"><a xlink:title=" ">
<path fill="none" stroke="#63b8ff" d="M258.01,-54.75C256.83,-47.8 255.14,-37.85 253.66,-29.13"/>
<polygon fill="#63b8ff" stroke="#63b8ff" points="257.08,-28.36 251.96,-19.09 250.18,-29.53 257.08,-28.36"/>
</a>
</g>
</g>
<!-- Node5 -->
<g id="Node000005" class="node">
<title>Node5</title>
<g id="a_Node000005"><a xlink:title=" ">
<polygon fill="#e0e0e0" stroke="#999999" points="120,-19 65,-19 65,0 120,0 120,-19"/>
<text text-anchor="middle" x="92.5" y="-7" font-family="Helvetica,sans-Serif" font-size="10.00">fstream</text>
</a>
</g>
</g>
<!-- Node3&#45;&gt;Node5 -->
<g id="edge4_Node000003_Node000005" class="edge">
<title>Node3&#45;&gt;Node5</title>
<g id="a_edge4_Node000003_Node000005"><a xlink:title=" ">
<path fill="none" stroke="#63b8ff" d="M232.67,-54.98C204.63,-46.09 160.45,-32.07 129.2,-22.15"/>
<polygon fill="#63b8ff" stroke="#63b8ff" points="130.13,-18.77 119.54,-19.08 128.01,-25.44 130.13,-18.77"/>
</a>
</g>
</g>
<!-- Node6 -->
<g id="Node000006" class="node">
<title>Node6</title>
<g id="a_Node000006"><a xlink:title=" ">
<polygon fill="#e0e0e0" stroke="#999999" points="198.5,-19 138.5,-19 138.5,0 198.5,0 198.5,-19"/>
<text text-anchor="middle" x="168.5" y="-7" font-family="Helvetica,sans-Serif" font-size="10.00">iostream</text>
</a>
</g>
</g>
<!-- Node3&#45;&gt;Node6 -->
<g id="edge5_Node000003_Node000006" class="edge">
<title>Node3&#45;&gt;Node6</title>
<g id="a_edge5_Node000003_Node000006"><a xlink:title=" ">
<path fill="none" stroke="#63b8ff" d="M244.88,-54.98C230.64,-46.69 208.75,-33.94 192.05,-24.22"/>
<polygon fill="#63b8ff" stroke="#63b8ff" points="193.79,-21.18 183.39,-19.17 190.27,-27.23 193.79,-21.18"/>
</a>
</g>
</g>
<!-- Node3&#45;&gt;Node7 -->
<g id="edge6_Node000003_Node000007" class="edge">
<title>Node3&#45;&gt;Node7</title>
<g id="a_edge6_Node000003_Node000007"><a xlink:title=" ">
<path fill="none" stroke="#63b8ff" d="M287.94,-54.98C319.82,-45.44 371.39,-30 404.62,-20.05"/>
<polygon fill="#63b8ff" stroke="#63b8ff" points="405.72,-23.37 414.3,-17.15 403.71,-16.66 405.72,-23.37"/>
</a>
</g>
</g>
<!-- Node3&#45;&gt;Node8 -->
<g id="edge7_Node000003_Node000008" class="edge">
<title>Node3&#45;&gt;Node8</title>
<g id="a_edge7_Node000003_Node000008"><a xlink:title=" ">
<path fill="none" stroke="#63b8ff" d="M273.96,-54.98C287.92,-46.77 309.29,-34.18 325.75,-24.49"/>
<polygon fill="#63b8ff" stroke="#63b8ff" points="327.94,-27.26 334.78,-19.17 324.38,-21.23 327.94,-27.26"/>
</a>
</g>
</g>
<!-- Node3&#45;&gt;Node9 -->
<g id="edge8_Node000003_Node000009" class="edge">
<title>Node3&#45;&gt;Node9</title>
<g id="a_edge8_Node000003_Node000009"><a xlink:title=" ">
<path fill="none" stroke="#63b8ff" d="M217.57,-54.93C178.34,-46.78 117.88,-33.89 57.01,-19.29"/>
<polygon fill="#63b8ff" stroke="#63b8ff" points="57.78,-15.88 47.24,-16.93 56.14,-22.68 57.78,-15.88"/>
</a>
</g>
</g>
<!-- Node10&#45;&gt;Node7 -->
<g id="edge14_Node000010_Node000007" class="edge">
<title>Node10&#45;&gt;Node7</title>
<g id="a_edge14_Node000010_Node000007"><a xlink:title=" ">
<path fill="none" stroke="#63b8ff" d="M525.47,-54.98C508.57,-46.54 482.44,-33.47 462.86,-23.68"/>
<polygon fill="#63b8ff" stroke="#63b8ff" points="464.35,-20.51 453.84,-19.17 461.22,-26.77 464.35,-20.51"/>
</a>
</g>
</g>
<!-- Node11 -->
<g id="Node000011" class="node">
<title>Node11</title>
<g id="a_Node000011"><a xlink:title=" ">
<polygon fill="#e0e0e0" stroke="#999999" points="691.5,-19 627.5,-19 627.5,0 691.5,0 691.5,-19"/>
<text text-anchor="middle" x="659.5" y="-7" font-family="Helvetica,sans-Serif" font-size="10.00">algorithm</text>
</a>
</g>
</g>
<!-- Node10&#45;&gt;Node11 -->
<g id="edge10_Node000010_Node000011" class="edge">
<title>Node10&#45;&gt;Node11</title>
<g id="a_edge10_Node000010_Node000011"><a xlink:title=" ">
<path fill="none" stroke="#63b8ff" d="M561.3,-54.98C580.12,-46.46 609.32,-33.23 631,-23.41"/>
<polygon fill="#63b8ff" stroke="#63b8ff" points="632.7,-26.48 640.36,-19.17 629.81,-20.11 632.7,-26.48"/>
</a>
</g>
</g>
<!-- Node12 -->
<g id="Node000012" class="node">
<title>Node12</title>
<g id="a_Node000012"><a xlink:title=" ">
<polygon fill="#e0e0e0" stroke="#999999" points="759,-19 710,-19 710,0 759,0 759,-19"/>
<text text-anchor="middle" x="734.5" y="-7" font-family="Helvetica,sans-Serif" font-size="10.00">cctype</text>
</a>
</g>
</g>
<!-- Node10&#45;&gt;Node12 -->
<g id="edge11_Node000010_Node000012" class="edge">
<title>Node10&#45;&gt;Node12</title>
<g id="a_edge11_Node000010_Node000012"><a xlink:title=" ">
<path fill="none" stroke="#63b8ff" d="M573.35,-54.98C607.89,-45.45 663.73,-30.03 699.78,-20.09"/>
<polygon fill="#63b8ff" stroke="#63b8ff" points="701.12,-23.34 709.83,-17.31 699.26,-16.6 701.12,-23.34"/>
</a>
</g>
</g>
<!-- Node13 -->
<g id="Node000013" class="node">
<title>Node13</title>
<g id="a_Node000013"><a xlink:title=" ">
<polygon fill="#e0e0e0" stroke="#999999" points="526,-19 477,-19 477,0 526,0 526,-19"/>
<text text-anchor="middle" x="501.5" y="-7" font-family="Helvetica,sans-Serif" font-size="10.00">cstdlib</text>
</a>
</g>
</g>
<!-- Node10&#45;&gt;Node13 -->
<g id="edge12_Node000010_Node000013" class="edge">
<title>Node10&#45;&gt;Node13</title>
<g id="a_edge12_Node000010_Node000013"><a xlink:title=" ">
<path fill="none" stroke="#63b8ff" d="M535.73,-54.75C529.94,-47.26 521.44,-36.28 514.36,-27.13"/>
<polygon fill="#63b8ff" stroke="#63b8ff" points="517.03,-24.86 508.14,-19.09 511.49,-29.14 517.03,-24.86"/>
</a>
</g>
</g>
<!-- Node14 -->
<g id="Node000014" class="node">
<title>Node14</title>
<g id="a_Node000014"><a xlink:title=" ">
<polygon fill="#e0e0e0" stroke="#999999" points="609,-19 544,-19 544,0 609,0 609,-19"/>
<text text-anchor="middle" x="576.5" y="-7" font-family="Helvetica,sans-Serif" font-size="10.00">functional</text>
</a>
</g>
</g>
<!-- Node10&#45;&gt;Node14 -->
<g id="edge13_Node000010_Node000014" class="edge">
<title>Node10&#45;&gt;Node14</title>
<g id="a_edge13_Node000010_Node000014"><a xlink:title=" ">
<path fill="none" stroke="#63b8ff" d="M548.11,-54.75C552.82,-47.42 559.67,-36.73 565.47,-27.7"/>
<polygon fill="#63b8ff" stroke="#63b8ff" points="568.54,-29.4 570.99,-19.09 562.64,-25.62 568.54,-29.4"/>
</a>
</g>
</g>
</g>
</svg>
