<?xml version="1.0" encoding="UTF-8" standalone="no"?>
<!DOCTYPE svg PUBLIC "-//W3C//DTD SVG 1.1//EN"
 "http://www.w3.org/Graphics/SVG/1.1/DTD/svg11.dtd">
<!-- Generated by graphviz version 2.43.0 (0)
 -->
<!-- Title: core/high_level_energy.cpp Pages: 1 -->
<svg width="1851pt" height="247pt"
 viewBox="0.00 0.00 1850.50 247.00" xmlns="http://www.w3.org/2000/svg" xmlns:xlink="http://www.w3.org/1999/xlink">
<g id="graph0" class="graph" transform="scale(1 1) rotate(0) translate(4 243)">
<title>core/high_level_energy.cpp</title>
<!-- Node1 -->
<g id="Node000001" class="node">
<title>Node1</title>
<g id="a_Node000001"><a xlink:title=" ">
<polygon fill="#999999" stroke="#666666" points="1164,-239 1015,-239 1015,-220 1164,-220 1164,-239"/>
<text text-anchor="middle" x="1089.5" y="-227" font-family="Helvetica,sans-Serif" font-size="10.00">core/high_level_energy.cpp</text>
</a>
</g>
</g>
<!-- Node2 -->
<g id="Node000002" class="node">
<title>Node2</title>
<g id="a_Node000002"><a xlink:href="high__level__energy_8h.html" target="_top" xlink:title="High&#45;level energy calculations with thermal corrections for Gaussian calculations.">
<polygon fill="white" stroke="#666666" points="620,-184 507,-184 507,-165 620,-165 620,-184"/>
<text text-anchor="middle" x="563.5" y="-172" font-family="Helvetica,sans-Serif" font-size="10.00">high_level_energy.h</text>
</a>
</g>
</g>
<!-- Node1&#45;&gt;Node2 -->
<g id="edge1_Node000001_Node000002" class="edge">
<title>Node1&#45;&gt;Node2</title>
<g id="a_edge1_Node000001_Node000002"><a xlink:title=" ">
<path fill="none" stroke="#63b8ff" d="M1014.97,-220.99C912.33,-210.65 728.99,-192.17 630.48,-182.25"/>
<polygon fill="#63b8ff" stroke="#63b8ff" points="630.65,-178.75 620.35,-181.23 629.95,-185.71 630.65,-178.75"/>
</a>
</g>
</g>
<!-- Node4 -->
<g id="Node000004" class="node">
<title>Node4</title>
<g id="a_Node000004"><a xlink:title=" ">
<polygon fill="#e0e0e0" stroke="#999999" points="47,-74 0,-74 0,-55 47,-55 47,-74"/>
<text text-anchor="middle" x="23.5" y="-62" font-family="Helvetica,sans-Serif" font-size="10.00">vector</text>
</a>
</g>
</g>
<!-- Node1&#45;&gt;Node4 -->
<g id="edge47_Node000001_Node000004" class="edge">
<title>Node1&#45;&gt;Node4</title>
<g id="a_edge47_Node000001_Node000004"><a xlink:title=" ">
<path fill="none" stroke="#63b8ff" d="M1014.96,-225.4C891.37,-219.84 636.36,-206.59 421.5,-184 250.91,-166.06 166.92,-243.83 39.5,-129 27.24,-117.95 23.74,-99.01 23.01,-84.68"/>
<polygon fill="#63b8ff" stroke="#63b8ff" points="26.5,-84.38 22.9,-74.42 19.5,-84.46 26.5,-84.38"/>
</a>
</g>
</g>
<!-- Node6 -->
<g id="Node000006" class="node">
<title>Node6</title>
<g id="a_Node000006"><a xlink:title=" ">
<polygon fill="#e0e0e0" stroke="#999999" points="741.5,-129 693.5,-129 693.5,-110 741.5,-110 741.5,-129"/>
<text text-anchor="middle" x="717.5" y="-117" font-family="Helvetica,sans-Serif" font-size="10.00">thread</text>
</a>
</g>
</g>
<!-- Node1&#45;&gt;Node6 -->
<g id="edge45_Node000001_Node000006" class="edge">
<title>Node1&#45;&gt;Node6</title>
<g id="a_edge45_Node000001_Node000006"><a xlink:title=" ">
<path fill="none" stroke="#63b8ff" d="M1025.65,-219.93C979.41,-212.79 915.76,-201.02 861.5,-184 818.59,-170.54 771.33,-148.14 743.05,-133.86"/>
<polygon fill="#63b8ff" stroke="#63b8ff" points="744.38,-130.6 733.88,-129.17 741.2,-136.84 744.38,-130.6"/>
</a>
</g>
</g>
<!-- Node8 -->
<g id="Node000008" class="node">
<title>Node8</title>
<g id="a_Node000008"><a xlink:title=" ">
<polygon fill="#e0e0e0" stroke="#999999" points="651.5,-74 601.5,-74 601.5,-55 651.5,-55 651.5,-74"/>
<text text-anchor="middle" x="626.5" y="-62" font-family="Helvetica,sans-Serif" font-size="10.00">atomic</text>
</a>
</g>
</g>
<!-- Node1&#45;&gt;Node8 -->
<g id="edge34_Node000001_Node000008" class="edge">
<title>Node1&#45;&gt;Node8</title>
<g id="a_edge34_Node000001_Node000008"><a xlink:title=" ">
<path fill="none" stroke="#63b8ff" d="M1062.65,-219.85C1042.14,-212.41 1013.86,-200.3 992.5,-184 958.39,-157.97 968.09,-130.68 930.5,-110 827.23,-53.18 781.83,-94.41 661.61,-73.93"/>
<polygon fill="#63b8ff" stroke="#63b8ff" points="662.15,-70.47 651.68,-72.13 660.9,-77.36 662.15,-70.47"/>
</a>
</g>
</g>
<!-- Node9 -->
<g id="Node000009" class="node">
<title>Node9</title>
<g id="a_Node000009"><a xlink:title=" ">
<polygon fill="#e0e0e0" stroke="#999999" points="717.5,-74 669.5,-74 669.5,-55 717.5,-55 717.5,-74"/>
<text text-anchor="middle" x="693.5" y="-62" font-family="Helvetica,sans-Serif" font-size="10.00">mutex</text>
</a>
</g>
</g>
<!-- Node1&#45;&gt;Node9 -->
<g id="edge42_Node000001_Node000009" class="edge">
<title>Node1&#45;&gt;Node9</title>
<g id="a_edge42_Node000001_Node000009"><a xlink:title=" ">
<path fill="none" stroke="#63b8ff" d="M1068.52,-219.88C1051.72,-212.24 1028.27,-199.84 1011.5,-184 983,-157.08 996.41,-131.31 963.5,-110 875.91,-53.28 834.03,-93.4 731.5,-74 730.23,-73.76 728.94,-73.51 727.63,-73.25"/>
<polygon fill="#63b8ff" stroke="#63b8ff" points="728.08,-69.76 717.57,-71.14 726.64,-76.62 728.08,-69.76"/>
</a>
</g>
</g>
<!-- Node13 -->
<g id="Node000013" class="node">
<title>Node13</title>
<g id="a_Node000013"><a xlink:title=" ">
<polygon fill="#e0e0e0" stroke="#999999" points="809.5,-129 759.5,-129 759.5,-110 809.5,-110 809.5,-129"/>
<text text-anchor="middle" x="784.5" y="-117" font-family="Helvetica,sans-Serif" font-size="10.00">chrono</text>
</a>
</g>
</g>
<!-- Node1&#45;&gt;Node13 -->
<g id="edge35_Node000001_Node000013" class="edge">
<title>Node1&#45;&gt;Node13</title>
<g id="a_edge35_Node000001_Node000013"><a xlink:title=" ">
<path fill="none" stroke="#63b8ff" d="M1042.1,-219.99C1005.05,-212.59 952.61,-200.46 908.5,-184 871.69,-170.26 831.67,-148.39 807.33,-134.24"/>
<polygon fill="#63b8ff" stroke="#63b8ff" points="808.91,-131.11 798.51,-129.05 805.36,-137.14 808.91,-131.11"/>
</a>
</g>
</g>
<!-- Node14 -->
<g id="Node000014" class="node">
<title>Node14</title>
<g id="a_Node000014"><a xlink:title=" ">
<polygon fill="#e0e0e0" stroke="#999999" points="921,-129 828,-129 828,-110 921,-110 921,-129"/>
<text text-anchor="middle" x="874.5" y="-117" font-family="Helvetica,sans-Serif" font-size="10.00">unordered_map</text>
</a>
</g>
</g>
<!-- Node1&#45;&gt;Node14 -->
<g id="edge46_Node000001_Node000014" class="edge">
<title>Node1&#45;&gt;Node14</title>
<g id="a_edge46_Node000001_Node000014"><a xlink:title=" ">
<path fill="none" stroke="#63b8ff" d="M1035.01,-219.99C1004.19,-213.46 965.87,-202.35 935.5,-184 915.56,-171.96 897.75,-151.75 886.59,-137.37"/>
<polygon fill="#63b8ff" stroke="#63b8ff" points="889.34,-135.2 880.55,-129.29 883.74,-139.4 889.34,-135.2"/>
</a>
</g>
</g>
<!-- Node15 -->
<g id="Node000015" class="node">
<title>Node15</title>
<g id="a_Node000015"><a xlink:href="gaussian__extractor_8h.html" target="_top" xlink:title="Core extraction engine and data structures for Gaussian log file processing.">
<polygon fill="white" stroke="#666666" points="355.5,-129 237.5,-129 237.5,-110 355.5,-110 355.5,-129"/>
<text text-anchor="middle" x="296.5" y="-117" font-family="Helvetica,sans-Serif" font-size="10.00">gaussian_extractor.h</text>
</a>
</g>
</g>
<!-- Node1&#45;&gt;Node15 -->
<g id="edge30_Node000001_Node000015" class="edge">
<title>Node1&#45;&gt;Node15</title>
<g id="a_edge30_Node000001_Node000015"><a xlink:title=" ">
<path fill="none" stroke="#63b8ff" d="M1014.94,-228.39C901.98,-226.99 681.18,-219.42 497.5,-184 435.82,-172.1 366.48,-147.61 327.49,-132.76"/>
<polygon fill="#63b8ff" stroke="#63b8ff" points="328.38,-129.35 317.79,-129.03 325.86,-135.89 328.38,-129.35"/>
</a>
</g>
</g>
<!-- Node16 -->
<g id="Node000016" class="node">
<title>Node16</title>
<g id="a_Node000016"><a xlink:title=" ">
<polygon fill="#e0e0e0" stroke="#999999" points="366.5,-19 302.5,-19 302.5,0 366.5,0 366.5,-19"/>
<text text-anchor="middle" x="334.5" y="-7" font-family="Helvetica,sans-Serif" font-size="10.00">algorithm</text>
</a>
</g>
</g>
<!-- Node1&#45;&gt;Node16 -->
<g id="edge33_Node000001_Node000016" class="edge">
<title>Node1&#45;&gt;Node16</title>
<g id="a_edge33_Node000001_Node000016"><a xlink:title=" ">
<path fill="none" stroke="#63b8ff" d="M1084.8,-219.94C1072.14,-197.78 1035.01,-138.29 986.5,-110 917.15,-69.56 887.97,-90.96 809.5,-74 772.51,-66.01 763.8,-61.37 726.5,-55 600.05,-33.42 448.81,-19.6 376.73,-13.73"/>
<polygon fill="#63b8ff" stroke="#63b8ff" points="376.93,-10.24 366.68,-12.92 376.37,-17.21 376.93,-10.24"/>
</a>
</g>
</g>
<!-- Node21 -->
<g id="Node000021" class="node">
<title>Node21</title>
<g id="a_Node000021"><a xlink:href="metadata_8h.html" target="_top" xlink:title="Metadata utilities for standardized header and (future) summary blocks.">
<polygon fill="white" stroke="#666666" points="1127,-129 1054,-129 1054,-110 1127,-110 1127,-129"/>
<text text-anchor="middle" x="1090.5" y="-117" font-family="Helvetica,sans-Serif" font-size="10.00">metadata.h</text>
</a>
</g>
</g>
<!-- Node1&#45;&gt;Node21 -->
<g id="edge31_Node000001_Node000021" class="edge">
<title>Node1&#45;&gt;Node21</title>
<g id="a_edge31_Node000001_Node000021"><a xlink:title=" ">
<path fill="none" stroke="#63b8ff" d="M1087.74,-219.88C1085.46,-207.67 1081.96,-184.65 1083.5,-165 1084.16,-156.52 1085.53,-147.22 1086.87,-139.32"/>
<polygon fill="#63b8ff" stroke="#63b8ff" points="1090.35,-139.78 1088.7,-129.32 1083.46,-138.53 1090.35,-139.78"/>
</a>
</g>
</g>
<!-- Node22 -->
<g id="Node000022" class="node">
<title>Node22</title>
<g id="a_Node000022"><a xlink:title=" ">
<polygon fill="#e0e0e0" stroke="#999999" points="1139,-184 1092,-184 1092,-165 1139,-165 1139,-184"/>
<text text-anchor="middle" x="1115.5" y="-172" font-family="Helvetica,sans-Serif" font-size="10.00">cmath</text>
</a>
</g>
</g>
<!-- Node1&#45;&gt;Node22 -->
<g id="edge36_Node000001_Node000022" class="edge">
<title>Node1&#45;&gt;Node22</title>
<g id="a_edge36_Node000001_Node000022"><a xlink:title=" ">
<path fill="none" stroke="#63b8ff" d="M1093.79,-219.75C1097.31,-212.57 1102.41,-202.18 1106.78,-193.27"/>
<polygon fill="#63b8ff" stroke="#63b8ff" points="1110.02,-194.61 1111.29,-184.09 1103.74,-191.53 1110.02,-194.61"/>
</a>
</g>
</g>
<!-- Node23 -->
<g id="Node000023" class="node">
<title>Node23</title>
<g id="a_Node000023"><a xlink:title=" ">
<polygon fill="#e0e0e0" stroke="#999999" points="1222,-184 1157,-184 1157,-165 1222,-165 1222,-184"/>
<text text-anchor="middle" x="1189.5" y="-172" font-family="Helvetica,sans-Serif" font-size="10.00">exception</text>
</a>
</g>
</g>
<!-- Node1&#45;&gt;Node23 -->
<g id="edge37_Node000001_Node000023" class="edge">
<title>Node1&#45;&gt;Node23</title>
<g id="a_edge37_Node000001_Node000023"><a xlink:title=" ">
<path fill="none" stroke="#63b8ff" d="M1105.57,-219.98C1121.36,-211.61 1145.72,-198.7 1164.13,-188.95"/>
<polygon fill="#63b8ff" stroke="#63b8ff" points="1165.94,-191.95 1173.14,-184.17 1162.67,-185.76 1165.94,-191.95"/>
</a>
</g>
</g>
<!-- Node24 -->
<g id="Node000024" class="node">
<title>Node24</title>
<g id="a_Node000024"><a xlink:title=" ">
<polygon fill="#e0e0e0" stroke="#999999" points="1308.5,-184 1240.5,-184 1240.5,-165 1308.5,-165 1308.5,-184"/>
<text text-anchor="middle" x="1274.5" y="-172" font-family="Helvetica,sans-Serif" font-size="10.00">filesystem</text>
</a>
</g>
</g>
<!-- Node1&#45;&gt;Node24 -->
<g id="edge38_Node000001_Node000024" class="edge">
<title>Node1&#45;&gt;Node24</title>
<g id="a_edge38_Node000001_Node000024"><a xlink:title=" ">
<path fill="none" stroke="#63b8ff" d="M1119.22,-219.98C1150.55,-211.01 1200.07,-196.82 1234.74,-186.89"/>
<polygon fill="#63b8ff" stroke="#63b8ff" points="1235.89,-190.2 1244.54,-184.08 1233.97,-183.47 1235.89,-190.2"/>
</a>
</g>
</g>
<!-- Node25 -->
<g id="Node000025" class="node">
<title>Node25</title>
<g id="a_Node000025"><a xlink:title=" ">
<polygon fill="#e0e0e0" stroke="#999999" points="1382,-184 1327,-184 1327,-165 1382,-165 1382,-184"/>
<text text-anchor="middle" x="1354.5" y="-172" font-family="Helvetica,sans-Serif" font-size="10.00">fstream</text>
</a>
</g>
</g>
<!-- Node1&#45;&gt;Node25 -->
<g id="edge39_Node000001_Node000025" class="edge">
<title>Node1&#45;&gt;Node25</title>
<g id="a_edge39_Node000001_Node000025"><a xlink:title=" ">
<path fill="none" stroke="#63b8ff" d="M1135.44,-219.99C1179.39,-211.76 1247.79,-198.66 1316.5,-184.15"/>
<polygon fill="#63b8ff" stroke="#63b8ff" points="1317.59,-187.5 1326.64,-182 1316.13,-180.66 1317.59,-187.5"/>
</a>
</g>
</g>
<!-- Node26 -->
<g id="Node000026" class="node">
<title>Node26</title>
<g id="a_Node000026"><a xlink:title=" ">
<polygon fill="#e0e0e0" stroke="#999999" points="1456.5,-184 1400.5,-184 1400.5,-165 1456.5,-165 1456.5,-184"/>
<text text-anchor="middle" x="1428.5" y="-172" font-family="Helvetica,sans-Serif" font-size="10.00">iomanip</text>
</a>
</g>
</g>
<!-- Node1&#45;&gt;Node26 -->
<g id="edge40_Node000001_Node000026" class="edge">
<title>Node1&#45;&gt;Node26</title>
<g id="a_edge40_Node000001_Node000026"><a xlink:title=" ">
<path fill="none" stroke="#63b8ff" d="M1158.13,-219.97C1217.23,-212.26 1305.01,-199.95 1390.41,-184.08"/>
<polygon fill="#63b8ff" stroke="#63b8ff" points="1391.08,-187.51 1400.27,-182.23 1389.79,-180.63 1391.08,-187.51"/>
</a>
</g>
</g>
<!-- Node27 -->
<g id="Node000027" class="node">
<title>Node27</title>
<g id="a_Node000027"><a xlink:title=" ">
<polygon fill="#e0e0e0" stroke="#999999" points="1534.5,-184 1474.5,-184 1474.5,-165 1534.5,-165 1534.5,-184"/>
<text text-anchor="middle" x="1504.5" y="-172" font-family="Helvetica,sans-Serif" font-size="10.00">iostream</text>
</a>
</g>
</g>
<!-- Node1&#45;&gt;Node27 -->
<g id="edge41_Node000001_Node000027" class="edge">
<title>Node1&#45;&gt;Node27</title>
<g id="a_edge41_Node000001_Node000027"><a xlink:title=" ">
<path fill="none" stroke="#63b8ff" d="M1164.35,-221.79C1238.22,-214.69 1354.55,-202.19 1464.4,-184.04"/>
<polygon fill="#63b8ff" stroke="#63b8ff" points="1465.04,-187.48 1474.32,-182.38 1463.88,-180.58 1465.04,-187.48"/>
</a>
</g>
</g>
<!-- Node28 -->
<g id="Node000028" class="node">
<title>Node28</title>
<g id="a_Node000028"><a xlink:title=" ">
<polygon fill="#e0e0e0" stroke="#999999" points="1596.5,-184 1552.5,-184 1552.5,-165 1596.5,-165 1596.5,-184"/>
<text text-anchor="middle" x="1574.5" y="-172" font-family="Helvetica,sans-Serif" font-size="10.00">regex</text>
</a>
</g>
</g>
<!-- Node1&#45;&gt;Node28 -->
<g id="edge43_Node000001_Node000028" class="edge">
<title>Node1&#45;&gt;Node28</title>
<g id="a_edge43_Node000001_Node000028"><a xlink:title=" ">
<path fill="none" stroke="#63b8ff" d="M1164.36,-225.07C1252.68,-220.14 1404,-208.96 1542.32,-183.91"/>
<polygon fill="#63b8ff" stroke="#63b8ff" points="1543.05,-187.34 1552.25,-182.09 1541.79,-180.45 1543.05,-187.34"/>
</a>
</g>
</g>
<!-- Node29 -->
<g id="Node000029" class="node">
<title>Node29</title>
<g id="a_Node000029"><a xlink:title=" ">
<polygon fill="#e0e0e0" stroke="#999999" points="1670.5,-184 1614.5,-184 1614.5,-165 1670.5,-165 1670.5,-184"/>
<text text-anchor="middle" x="1642.5" y="-172" font-family="Helvetica,sans-Serif" font-size="10.00">sstream</text>
</a>
</g>
</g>
<!-- Node1&#45;&gt;Node29 -->
<g id="edge44_Node000001_Node000029" class="edge">
<title>Node1&#45;&gt;Node29</title>
<g id="a_edge44_Node000001_Node000029"><a xlink:title=" ">
<path fill="none" stroke="#63b8ff" d="M1164.24,-225.34C1262.89,-220.43 1442.07,-208.99 1604.14,-183.99"/>
<polygon fill="#63b8ff" stroke="#63b8ff" points="1604.96,-187.41 1614.3,-182.41 1603.88,-180.49 1604.96,-187.41"/>
</a>
</g>
</g>
<!-- Node30 -->
<g id="Node000030" class="node">
<title>Node30</title>
<g id="a_Node000030"><a xlink:title=" ">
<polygon fill="#e0e0e0" stroke="#999999" points="1768.5,-184 1688.5,-184 1688.5,-165 1768.5,-165 1768.5,-184"/>
<text text-anchor="middle" x="1728.5" y="-172" font-family="Helvetica,sans-Serif" font-size="10.00">sys/sysinfo.h</text>
</a>
</g>
</g>
<!-- Node1&#45;&gt;Node30 -->
<g id="edge48_Node000001_Node000030" class="edge">
<title>Node1&#45;&gt;Node30</title>
<g id="a_edge48_Node000001_Node000030"><a xlink:title=" ">
<path fill="none" stroke="#63b8ff" d="M1164.24,-225.18C1274.53,-219.76 1487.55,-207.34 1678.5,-184"/>
<polygon fill="#63b8ff" stroke="#63b8ff" points="1678.94,-187.47 1688.44,-182.77 1678.08,-180.53 1678.94,-187.47"/>
</a>
</g>
</g>
<!-- Node31 -->
<g id="Node000031" class="node">
<title>Node31</title>
<g id="a_Node000031"><a xlink:title=" ">
<polygon fill="#e0e0e0" stroke="#999999" points="1842.5,-184 1786.5,-184 1786.5,-165 1842.5,-165 1842.5,-184"/>
<text text-anchor="middle" x="1814.5" y="-172" font-family="Helvetica,sans-Serif" font-size="10.00">unistd.h</text>
</a>
</g>
</g>
<!-- Node1&#45;&gt;Node31 -->
<g id="edge49_Node000001_Node000031" class="edge">
<title>Node1&#45;&gt;Node31</title>
<g id="a_edge49_Node000001_Node000031"><a xlink:title=" ">
<path fill="none" stroke="#63b8ff" d="M1164.23,-227.6C1289.15,-225.24 1548.29,-216.64 1776.17,-183.94"/>
<polygon fill="#63b8ff" stroke="#63b8ff" points="1776.91,-187.37 1786.31,-182.47 1775.91,-180.44 1776.91,-187.37"/>
</a>
</g>
</g>
<!-- Node3 -->
<g id="Node000003" class="node">
<title>Node3</title>
<g id="a_Node000003"><a xlink:title=" ">
<polygon fill="#e0e0e0" stroke="#999999" points="616.5,-19 572.5,-19 572.5,0 616.5,0 616.5,-19"/>
<text text-anchor="middle" x="594.5" y="-7" font-family="Helvetica,sans-Serif" font-size="10.00">string</text>
</a>
</g>
</g>
<!-- Node2&#45;&gt;Node3 -->
<g id="edge2_Node000002_Node000003" class="edge">
<title>Node2&#45;&gt;Node3</title>
<g id="a_edge2_Node000002_Node000003"><a xlink:title=" ">
<path fill="none" stroke="#63b8ff" d="M579.66,-164.85C619.24,-143.49 718.44,-88.91 726.5,-74 748.49,-33.32 672.64,-18.39 626.85,-13.16"/>
<polygon fill="#63b8ff" stroke="#63b8ff" points="627.07,-9.66 616.76,-12.1 626.34,-16.62 627.07,-9.66"/>
</a>
</g>
</g>
<!-- Node2&#45;&gt;Node4 -->
<g id="edge3_Node000002_Node000004" class="edge">
<title>Node2&#45;&gt;Node4</title>
<g id="a_edge3_Node000002_Node000004"><a xlink:title=" ">
<path fill="none" stroke="#63b8ff" d="M506.8,-171.36C383.4,-166.29 98.52,-152.21 61.5,-129 45.21,-118.79 34.98,-98.81 29.29,-83.98"/>
<polygon fill="#63b8ff" stroke="#63b8ff" points="32.52,-82.6 25.93,-74.3 25.9,-84.89 32.52,-82.6"/>
</a>
</g>
</g>
<!-- Node5 -->
<g id="Node000005" class="node">
<title>Node5</title>
<g id="a_Node000005"><a xlink:title=" ">
<polygon fill="#e0e0e0" stroke="#999999" points="457.5,-74 399.5,-74 399.5,-55 457.5,-55 457.5,-74"/>
<text text-anchor="middle" x="428.5" y="-62" font-family="Helvetica,sans-Serif" font-size="10.00">memory</text>
</a>
</g>
</g>
<!-- Node2&#45;&gt;Node5 -->
<g id="edge4_Node000002_Node000005" class="edge">
<title>Node2&#45;&gt;Node5</title>
<g id="a_edge4_Node000002_Node000005"><a xlink:title=" ">
<path fill="none" stroke="#63b8ff" d="M506.97,-165.24C465.88,-157.95 415.32,-145.85 402.5,-129 391.63,-114.71 402.57,-95.24 413.41,-81.64"/>
<polygon fill="#63b8ff" stroke="#63b8ff" points="416.08,-83.89 419.95,-74.03 410.78,-79.33 416.08,-83.89"/>
</a>
</g>
</g>
<!-- Node2&#45;&gt;Node6 -->
<g id="edge5_Node000002_Node000006" class="edge">
<title>Node2&#45;&gt;Node6</title>
<g id="a_edge5_Node000002_Node000006"><a xlink:title=" ">
<path fill="none" stroke="#63b8ff" d="M588.24,-164.98C614.1,-156.09 654.85,-142.06 683.67,-132.14"/>
<polygon fill="#63b8ff" stroke="#63b8ff" points="685.01,-135.38 693.33,-128.82 682.73,-128.76 685.01,-135.38"/>
</a>
</g>
</g>
<!-- Node7 -->
<g id="Node000007" class="node">
<title>Node7</title>
<g id="a_Node000007"><a xlink:title=" ">
<polygon fill="#e0e0e0" stroke="#999999" points="457.5,-129 411.5,-129 411.5,-110 457.5,-110 457.5,-129"/>
<text text-anchor="middle" x="434.5" y="-117" font-family="Helvetica,sans-Serif" font-size="10.00">future</text>
</a>
</g>
</g>
<!-- Node2&#45;&gt;Node7 -->
<g id="edge6_Node000002_Node000007" class="edge">
<title>Node2&#45;&gt;Node7</title>
<g id="a_edge6_Node000002_Node000007"><a xlink:title=" ">
<path fill="none" stroke="#63b8ff" d="M542.77,-164.98C521.74,-156.34 488.95,-142.87 464.96,-133.02"/>
<polygon fill="#63b8ff" stroke="#63b8ff" points="466.18,-129.73 455.6,-129.17 463.52,-136.21 466.18,-129.73"/>
</a>
</g>
</g>
<!-- Node2&#45;&gt;Node8 -->
<g id="edge7_Node000002_Node000008" class="edge">
<title>Node2&#45;&gt;Node8</title>
<g id="a_edge7_Node000002_Node000008"><a xlink:title=" ">
<path fill="none" stroke="#63b8ff" d="M568.66,-164.66C579.04,-146.85 602.66,-106.37 616.29,-83.01"/>
<polygon fill="#63b8ff" stroke="#63b8ff" points="619.43,-84.56 621.45,-74.16 613.39,-81.03 619.43,-84.56"/>
</a>
</g>
</g>
<!-- Node2&#45;&gt;Node9 -->
<g id="edge8_Node000002_Node000009" class="edge">
<title>Node2&#45;&gt;Node9</title>
<g id="a_edge8_Node000002_Node000009"><a xlink:title=" ">
<path fill="none" stroke="#63b8ff" d="M574.14,-164.66C596.34,-146.22 647.83,-103.45 675.36,-80.57"/>
<polygon fill="#63b8ff" stroke="#63b8ff" points="677.62,-83.24 683.08,-74.16 673.15,-77.86 677.62,-83.24"/>
</a>
</g>
</g>
<!-- Node10 -->
<g id="Node000010" class="node">
<title>Node10</title>
<g id="a_Node000010"><a xlink:title=" ">
<polygon fill="#e0e0e0" stroke="#999999" points="583,-74 476,-74 476,-55 583,-55 583,-74"/>
<text text-anchor="middle" x="529.5" y="-62" font-family="Helvetica,sans-Serif" font-size="10.00">condition_variable</text>
</a>
</g>
</g>
<!-- Node2&#45;&gt;Node10 -->
<g id="edge9_Node000002_Node000010" class="edge">
<title>Node2&#45;&gt;Node10</title>
<g id="a_edge9_Node000002_Node000010"><a xlink:title=" ">
<path fill="none" stroke="#63b8ff" d="M544.23,-164.9C530.38,-157.55 512.74,-145.54 504.5,-129 496.86,-113.66 505.83,-95.39 515.08,-82.39"/>
<polygon fill="#63b8ff" stroke="#63b8ff" points="517.97,-84.38 521.33,-74.34 512.44,-80.09 517.97,-84.38"/>
</a>
</g>
</g>
<!-- Node11 -->
<g id="Node000011" class="node">
<title>Node11</title>
<g id="a_Node000011"><a xlink:title=" ">
<polygon fill="#e0e0e0" stroke="#999999" points="561,-129 514,-129 514,-110 561,-110 561,-129"/>
<text text-anchor="middle" x="537.5" y="-117" font-family="Helvetica,sans-Serif" font-size="10.00">queue</text>
</a>
</g>
</g>
<!-- Node2&#45;&gt;Node11 -->
<g id="edge10_Node000002_Node000011" class="edge">
<title>Node2&#45;&gt;Node11</title>
<g id="a_edge10_Node000002_Node000011"><a xlink:title=" ">
<path fill="none" stroke="#63b8ff" d="M559.21,-164.75C555.69,-157.57 550.59,-147.18 546.22,-138.27"/>
<polygon fill="#63b8ff" stroke="#63b8ff" points="549.26,-136.53 541.71,-129.09 542.98,-139.61 549.26,-136.53"/>
</a>
</g>
</g>
<!-- Node12 -->
<g id="Node000012" class="node">
<title>Node12</title>
<g id="a_Node000012"><a xlink:title=" ">
<polygon fill="#e0e0e0" stroke="#999999" points="146,-19 81,-19 81,0 146,0 146,-19"/>
<text text-anchor="middle" x="113.5" y="-7" font-family="Helvetica,sans-Serif" font-size="10.00">functional</text>
</a>
</g>
</g>
<!-- Node2&#45;&gt;Node12 -->
<g id="edge11_Node000002_Node000012" class="edge">
<title>Node2&#45;&gt;Node12</title>
<g id="a_edge11_Node000002_Node000012"><a xlink:title=" ">
<path fill="none" stroke="#63b8ff" d="M506.89,-171.61C439.3,-168.08 323.48,-157.97 228.5,-129 175.84,-112.94 147.99,-119.85 117.5,-74 108.8,-60.92 108.53,-42.78 110.01,-29.24"/>
<polygon fill="#63b8ff" stroke="#63b8ff" points="113.5,-29.56 111.52,-19.15 106.58,-28.53 113.5,-29.56"/>
</a>
</g>
</g>
<!-- Node2&#45;&gt;Node13 -->
<g id="edge12_Node000002_Node000013" class="edge">
<title>Node2&#45;&gt;Node13</title>
<g id="a_edge12_Node000002_Node000013"><a xlink:title=" ">
<path fill="none" stroke="#63b8ff" d="M600.08,-164.93C635.73,-156.54 691.75,-143.28 749.26,-129.28"/>
<polygon fill="#63b8ff" stroke="#63b8ff" points="750.37,-132.61 759.26,-126.84 748.71,-125.81 750.37,-132.61"/>
</a>
</g>
</g>
<!-- Node2&#45;&gt;Node14 -->
<g id="edge13_Node000002_Node000014" class="edge">
<title>Node2&#45;&gt;Node14</title>
<g id="a_edge13_Node000002_Node000014"><a xlink:title=" ">
<path fill="none" stroke="#63b8ff" d="M613.47,-164.98C669.19,-155.49 759.14,-140.16 817.54,-130.21"/>
<polygon fill="#63b8ff" stroke="#63b8ff" points="818.44,-133.6 827.71,-128.47 817.26,-126.7 818.44,-133.6"/>
</a>
</g>
</g>
<!-- Node2&#45;&gt;Node15 -->
<g id="edge14_Node000002_Node000015" class="edge">
<title>Node2&#45;&gt;Node15</title>
<g id="a_edge14_Node000002_Node000015"><a xlink:title=" ">
<path fill="none" stroke="#63b8ff" d="M520.6,-164.98C474.13,-155.76 399.91,-141.03 349.74,-131.07"/>
<polygon fill="#63b8ff" stroke="#63b8ff" points="350.22,-127.6 339.73,-129.08 348.86,-134.46 350.22,-127.6"/>
</a>
</g>
</g>
<!-- Node15&#45;&gt;Node3 -->
<g id="edge22_Node000015_Node000003" class="edge">
<title>Node15&#45;&gt;Node3</title>
<g id="a_edge22_Node000015_Node000003"><a xlink:title=" ">
<path fill="none" stroke="#63b8ff" d="M306.45,-109.86C322.83,-96.11 357.01,-69.34 390.5,-55 448.13,-30.33 521,-18.68 562.21,-13.72"/>
<polygon fill="#63b8ff" stroke="#63b8ff" points="562.69,-17.19 572.23,-12.57 561.89,-10.24 562.69,-17.19"/>
</a>
</g>
</g>
<!-- Node15&#45;&gt;Node4 -->
<g id="edge23_Node000015_Node000004" class="edge">
<title>Node15&#45;&gt;Node4</title>
<g id="a_edge23_Node000015_Node000004"><a xlink:title=" ">
<path fill="none" stroke="#63b8ff" d="M252.64,-109.98C198.15,-99.41 106.39,-81.59 57.14,-72.03"/>
<polygon fill="#63b8ff" stroke="#63b8ff" points="57.5,-68.54 47.02,-70.07 56.17,-75.41 57.5,-68.54"/>
</a>
</g>
</g>
<!-- Node15&#45;&gt;Node5 -->
<g id="edge20_Node000015_Node000005" class="edge">
<title>Node15&#45;&gt;Node5</title>
<g id="a_edge20_Node000015_Node000005"><a xlink:title=" ">
<path fill="none" stroke="#63b8ff" d="M317.71,-109.98C339.23,-101.34 372.78,-87.87 397.33,-78.02"/>
<polygon fill="#63b8ff" stroke="#63b8ff" points="398.93,-81.14 406.91,-74.17 396.32,-74.65 398.93,-81.14"/>
</a>
</g>
</g>
<!-- Node15&#45;&gt;Node8 -->
<g id="edge16_Node000015_Node000008" class="edge">
<title>Node15&#45;&gt;Node8</title>
<g id="a_edge16_Node000015_Node000008"><a xlink:title=" ">
<path fill="none" stroke="#63b8ff" d="M355.53,-111.16C415.28,-103.36 510.18,-89.97 591.5,-74 591.6,-73.98 591.7,-73.96 591.8,-73.94"/>
<polygon fill="#63b8ff" stroke="#63b8ff" points="592.28,-77.42 601.32,-71.9 590.81,-70.57 592.28,-77.42"/>
</a>
</g>
</g>
<!-- Node15&#45;&gt;Node9 -->
<g id="edge21_Node000015_Node000009" class="edge">
<title>Node15&#45;&gt;Node9</title>
<g id="a_edge21_Node000015_Node000009"><a xlink:title=" ">
<path fill="none" stroke="#63b8ff" d="M355.81,-113.64C426.11,-107.36 546.91,-94.87 659.6,-73.94"/>
<polygon fill="#63b8ff" stroke="#63b8ff" points="660.25,-77.38 669.43,-72.09 658.96,-70.5 660.25,-77.38"/>
</a>
</g>
</g>
<!-- Node15&#45;&gt;Node10 -->
<g id="edge17_Node000015_Node000010" class="edge">
<title>Node15&#45;&gt;Node10</title>
<g id="a_edge17_Node000015_Node000010"><a xlink:title=" ">
<path fill="none" stroke="#63b8ff" d="M333.94,-109.98C374.15,-100.84 438.18,-86.27 481.94,-76.32"/>
<polygon fill="#63b8ff" stroke="#63b8ff" points="482.8,-79.71 491.77,-74.08 481.24,-72.89 482.8,-79.71"/>
</a>
</g>
</g>
<!-- Node15&#45;&gt;Node12 -->
<g id="edge19_Node000015_Node000012" class="edge">
<title>Node15&#45;&gt;Node12</title>
<g id="a_edge19_Node000015_Node000012"><a xlink:title=" ">
<path fill="none" stroke="#63b8ff" d="M237.18,-116.32C202.47,-111.99 160.18,-100.97 132.5,-74 120.54,-62.34 116.03,-43.48 114.37,-29.34"/>
<polygon fill="#63b8ff" stroke="#63b8ff" points="117.85,-28.93 113.57,-19.24 110.87,-29.48 117.85,-28.93"/>
</a>
</g>
</g>
<!-- Node15&#45;&gt;Node16 -->
<g id="edge15_Node000015_Node000016" class="edge">
<title>Node15&#45;&gt;Node16</title>
<g id="a_edge15_Node000015_Node000016"><a xlink:title=" ">
<path fill="none" stroke="#63b8ff" d="M300.29,-109.71C304.09,-100.79 309.99,-86.55 314.5,-74 319.88,-59.02 325.26,-41.79 329.08,-29.06"/>
<polygon fill="#63b8ff" stroke="#63b8ff" points="332.51,-29.78 332,-19.2 325.8,-27.79 332.51,-29.78"/>
</a>
</g>
</g>
<!-- Node17 -->
<g id="Node000017" class="node">
<title>Node17</title>
<g id="a_Node000017"><a xlink:title=" ">
<polygon fill="#e0e0e0" stroke="#999999" points="195,-74 142,-74 142,-55 195,-55 195,-74"/>
<text text-anchor="middle" x="168.5" y="-62" font-family="Helvetica,sans-Serif" font-size="10.00">cstddef</text>
</a>
</g>
</g>
<!-- Node15&#45;&gt;Node17 -->
<g id="edge18_Node000015_Node000017" class="edge">
<title>Node15&#45;&gt;Node17</title>
<g id="a_edge18_Node000015_Node000017"><a xlink:title=" ">
<path fill="none" stroke="#63b8ff" d="M275.93,-109.98C255.07,-101.34 222.53,-87.87 198.73,-78.02"/>
<polygon fill="#63b8ff" stroke="#63b8ff" points="200.02,-74.76 189.44,-74.17 197.34,-81.23 200.02,-74.76"/>
</a>
</g>
</g>
<!-- Node18 -->
<g id="Node000018" class="node">
<title>Node18</title>
<g id="a_Node000018"><a xlink:href="job__scheduler_8h.html" target="_top" xlink:title="Job scheduler detection and resource management for HPC environments.">
<polygon fill="white" stroke="#666666" points="305.5,-74 213.5,-74 213.5,-55 305.5,-55 305.5,-74"/>
<text text-anchor="middle" x="259.5" y="-62" font-family="Helvetica,sans-Serif" font-size="10.00">job_scheduler.h</text>
</a>
</g>
</g>
<!-- Node15&#45;&gt;Node18 -->
<g id="edge24_Node000015_Node000018" class="edge">
<title>Node15&#45;&gt;Node18</title>
<g id="a_edge24_Node000015_Node000018"><a xlink:title=" ">
<path fill="none" stroke="#63b8ff" d="M290.39,-109.75C285.22,-102.34 277.65,-91.5 271.31,-82.41"/>
<polygon fill="#63b8ff" stroke="#63b8ff" points="274.09,-80.29 265.5,-74.09 268.35,-84.29 274.09,-80.29"/>
</a>
</g>
</g>
<!-- Node18&#45;&gt;Node3 -->
<g id="edge29_Node000018_Node000003" class="edge">
<title>Node18&#45;&gt;Node3</title>
<g id="a_edge29_Node000018_Node000003"><a xlink:title=" ">
<path fill="none" stroke="#63b8ff" d="M305.73,-56.19C374.64,-45.28 502.59,-25.04 562.28,-15.6"/>
<polygon fill="#63b8ff" stroke="#63b8ff" points="562.93,-19.04 572.26,-14.02 561.84,-12.12 562.93,-19.04"/>
</a>
</g>
</g>
<!-- Node18&#45;&gt;Node12 -->
<g id="edge28_Node000018_Node000012" class="edge">
<title>Node18&#45;&gt;Node12</title>
<g id="a_edge28_Node000018_Node000012"><a xlink:title=" ">
<path fill="none" stroke="#63b8ff" d="M236.04,-54.98C211.92,-46.23 174.13,-32.51 146.9,-22.62"/>
<polygon fill="#63b8ff" stroke="#63b8ff" points="147.98,-19.29 137.38,-19.17 145.59,-25.87 147.98,-19.29"/>
</a>
</g>
</g>
<!-- Node18&#45;&gt;Node16 -->
<g id="edge25_Node000018_Node000016" class="edge">
<title>Node18&#45;&gt;Node16</title>
<g id="a_edge25_Node000018_Node000016"><a xlink:title=" ">
<path fill="none" stroke="#63b8ff" d="M271.55,-54.98C282.96,-46.92 300.33,-34.65 313.93,-25.03"/>
<polygon fill="#63b8ff" stroke="#63b8ff" points="316.08,-27.8 322.23,-19.17 312.04,-22.08 316.08,-27.8"/>
</a>
</g>
</g>
<!-- Node19 -->
<g id="Node000019" class="node">
<title>Node19</title>
<g id="a_Node000019"><a xlink:title=" ">
<polygon fill="#e0e0e0" stroke="#999999" points="217,-19 168,-19 168,0 217,0 217,-19"/>
<text text-anchor="middle" x="192.5" y="-7" font-family="Helvetica,sans-Serif" font-size="10.00">cctype</text>
</a>
</g>
</g>
<!-- Node18&#45;&gt;Node19 -->
<g id="edge26_Node000018_Node000019" class="edge">
<title>Node18&#45;&gt;Node19</title>
<g id="a_edge26_Node000018_Node000019"><a xlink:title=" ">
<path fill="none" stroke="#63b8ff" d="M248.74,-54.98C238.73,-47.07 223.61,-35.11 211.57,-25.58"/>
<polygon fill="#63b8ff" stroke="#63b8ff" points="213.47,-22.63 203.46,-19.17 209.13,-28.12 213.47,-22.63"/>
</a>
</g>
</g>
<!-- Node20 -->
<g id="Node000020" class="node">
<title>Node20</title>
<g id="a_Node000020"><a xlink:title=" ">
<polygon fill="#e0e0e0" stroke="#999999" points="284,-19 235,-19 235,0 284,0 284,-19"/>
<text text-anchor="middle" x="259.5" y="-7" font-family="Helvetica,sans-Serif" font-size="10.00">cstdlib</text>
</a>
</g>
</g>
<!-- Node18&#45;&gt;Node20 -->
<g id="edge27_Node000018_Node000020" class="edge">
<title>Node18&#45;&gt;Node20</title>
<g id="a_edge27_Node000018_Node000020"><a xlink:title=" ">
<path fill="none" stroke="#63b8ff" d="M259.5,-54.75C259.5,-47.8 259.5,-37.85 259.5,-29.13"/>
<polygon fill="#63b8ff" stroke="#63b8ff" points="263,-29.09 259.5,-19.09 256,-29.09 263,-29.09"/>
</a>
</g>
</g>
<!-- Node21&#45;&gt;Node3 -->
<g id="edge32_Node000021_Node000003" class="edge">
<title>Node21&#45;&gt;Node3</title>
<g id="a_edge32_Node000021_Node000003"><a xlink:title=" ">
<path fill="none" stroke="#63b8ff" d="M1053.62,-110.47C960.1,-90.11 714.84,-36.7 626.66,-17.5"/>
<polygon fill="#63b8ff" stroke="#63b8ff" points="627.22,-14.04 616.71,-15.33 625.73,-20.88 627.22,-14.04"/>
</a>
</g>
</g>
</g>
</svg>
