<?xml version="1.0" encoding="UTF-8" standalone="no"?>
<!DOCTYPE svg PUBLIC "-//W3C//DTD SVG 1.1//EN"
 "http://www.w3.org/Graphics/SVG/1.1/DTD/svg11.dtd">
<!-- Generated by graphviz version 2.43.0 (0)
 -->
<!-- Title: core/high_level_energy.h Pages: 1 -->
<svg width="1012pt" height="192pt"
 viewBox="0.00 0.00 1012.33 192.00" xmlns="http://www.w3.org/2000/svg" xmlns:xlink="http://www.w3.org/1999/xlink">
<g id="graph0" class="graph" transform="scale(1 1) rotate(0) translate(4 188)">
<title>core/high_level_energy.h</title>
<!-- Node1 -->
<g id="Node000001" class="node">
<title>Node1</title>
<g id="a_Node000001"><a xlink:title="High&#45;level energy calculations with thermal corrections for Gaussian calculations.">
<polygon fill="#999999" stroke="#666666" points="649.33,-184 512.33,-184 512.33,-165 649.33,-165 649.33,-184"/>
<text text-anchor="middle" x="580.83" y="-172" font-family="Helvetica,sans-Serif" font-size="10.00">core/high_level_energy.h</text>
</a>
</g>
</g>
<!-- Node2 -->
<g id="Node000002" class="node">
<title>Node2</title>
<g id="a_Node000002"><a xlink:title=" ">
<polygon fill="#e0e0e0" stroke="#999999" points="254.83,-19 210.83,-19 210.83,0 254.83,0 254.83,-19"/>
<text text-anchor="middle" x="232.83" y="-7" font-family="Helvetica,sans-Serif" font-size="10.00">string</text>
</a>
</g>
</g>
<!-- Node1&#45;&gt;Node2 -->
<g id="edge1_Node000001_Node000002" class="edge">
<title>Node1&#45;&gt;Node2</title>
<g id="a_edge1_Node000001_Node000002"><a xlink:title=" ">
<path fill="none" stroke="#63b8ff" d="M512.21,-173.49C371.36,-171.72 58.24,-158.21 3.83,-74 -0.75,-66.91 -1.54,-61.52 3.83,-55 28.4,-25.2 143.45,-15.1 200.54,-11.89"/>
<polygon fill="#63b8ff" stroke="#63b8ff" points="201.01,-15.37 210.81,-11.35 200.64,-8.38 201.01,-15.37"/>
</a>
</g>
</g>
<!-- Node3 -->
<g id="Node000003" class="node">
<title>Node3</title>
<g id="a_Node000003"><a xlink:title=" ">
<polygon fill="#e0e0e0" stroke="#999999" points="60.33,-74 13.33,-74 13.33,-55 60.33,-55 60.33,-74"/>
<text text-anchor="middle" x="36.83" y="-62" font-family="Helvetica,sans-Serif" font-size="10.00">vector</text>
</a>
</g>
</g>
<!-- Node1&#45;&gt;Node3 -->
<g id="edge2_Node000001_Node000003" class="edge">
<title>Node1&#45;&gt;Node3</title>
<g id="a_edge2_Node000001_Node000003"><a xlink:title=" ">
<path fill="none" stroke="#63b8ff" d="M512.27,-171.95C432.22,-168.73 296.44,-158.92 183.83,-129 138.93,-117.07 90.01,-93.66 61.45,-78.84"/>
<polygon fill="#63b8ff" stroke="#63b8ff" points="63.06,-75.73 52.58,-74.17 59.8,-81.92 63.06,-75.73"/>
</a>
</g>
</g>
<!-- Node4 -->
<g id="Node000004" class="node">
<title>Node4</title>
<g id="a_Node000004"><a xlink:title=" ">
<polygon fill="#e0e0e0" stroke="#999999" points="136.83,-74 78.83,-74 78.83,-55 136.83,-55 136.83,-74"/>
<text text-anchor="middle" x="107.83" y="-62" font-family="Helvetica,sans-Serif" font-size="10.00">memory</text>
</a>
</g>
</g>
<!-- Node1&#45;&gt;Node4 -->
<g id="edge3_Node000001_Node000004" class="edge">
<title>Node1&#45;&gt;Node4</title>
<g id="a_edge3_Node000001_Node000004"><a xlink:title=" ">
<path fill="none" stroke="#63b8ff" d="M512.12,-171.42C441.26,-167.73 328.25,-157.47 234.83,-129 195.94,-117.15 154.45,-94.21 129.85,-79.39"/>
<polygon fill="#63b8ff" stroke="#63b8ff" points="131.64,-76.39 121.29,-74.15 127.99,-82.36 131.64,-76.39"/>
</a>
</g>
</g>
<!-- Node5 -->
<g id="Node000005" class="node">
<title>Node5</title>
<g id="a_Node000005"><a xlink:title=" ">
<polygon fill="#e0e0e0" stroke="#999999" points="694.83,-129 646.83,-129 646.83,-110 694.83,-110 694.83,-129"/>
<text text-anchor="middle" x="670.83" y="-117" font-family="Helvetica,sans-Serif" font-size="10.00">thread</text>
</a>
</g>
</g>
<!-- Node1&#45;&gt;Node5 -->
<g id="edge4_Node000001_Node000005" class="edge">
<title>Node1&#45;&gt;Node5</title>
<g id="a_edge4_Node000001_Node000005"><a xlink:title=" ">
<path fill="none" stroke="#63b8ff" d="M595.29,-164.98C609.25,-156.77 630.63,-144.18 647.08,-134.49"/>
<polygon fill="#63b8ff" stroke="#63b8ff" points="649.27,-137.26 656.11,-129.17 645.72,-131.23 649.27,-137.26"/>
</a>
</g>
</g>
<!-- Node6 -->
<g id="Node000006" class="node">
<title>Node6</title>
<g id="a_Node000006"><a xlink:title=" ">
<polygon fill="#e0e0e0" stroke="#999999" points="758.83,-129 712.83,-129 712.83,-110 758.83,-110 758.83,-129"/>
<text text-anchor="middle" x="735.83" y="-117" font-family="Helvetica,sans-Serif" font-size="10.00">future</text>
</a>
</g>
</g>
<!-- Node1&#45;&gt;Node6 -->
<g id="edge5_Node000001_Node000006" class="edge">
<title>Node1&#45;&gt;Node6</title>
<g id="a_edge5_Node000001_Node000006"><a xlink:title=" ">
<path fill="none" stroke="#63b8ff" d="M605.73,-164.98C632.07,-155.98 673.74,-141.73 702.8,-131.79"/>
<polygon fill="#63b8ff" stroke="#63b8ff" points="704.18,-135.02 712.51,-128.47 701.92,-128.4 704.18,-135.02"/>
</a>
</g>
</g>
<!-- Node7 -->
<g id="Node000007" class="node">
<title>Node7</title>
<g id="a_Node000007"><a xlink:title=" ">
<polygon fill="#e0e0e0" stroke="#999999" points="204.83,-74 154.83,-74 154.83,-55 204.83,-55 204.83,-74"/>
<text text-anchor="middle" x="179.83" y="-62" font-family="Helvetica,sans-Serif" font-size="10.00">atomic</text>
</a>
</g>
</g>
<!-- Node1&#45;&gt;Node7 -->
<g id="edge6_Node000001_Node000007" class="edge">
<title>Node1&#45;&gt;Node7</title>
<g id="a_edge6_Node000001_Node000007"><a xlink:title=" ">
<path fill="none" stroke="#63b8ff" d="M512.1,-172.14C448.61,-168.89 352.63,-158.89 274.83,-129 245.23,-117.63 215.56,-95.7 197.44,-80.83"/>
<polygon fill="#63b8ff" stroke="#63b8ff" points="199.44,-77.94 189.53,-74.18 194.93,-83.29 199.44,-77.94"/>
</a>
</g>
</g>
<!-- Node8 -->
<g id="Node000008" class="node">
<title>Node8</title>
<g id="a_Node000008"><a xlink:title=" ">
<polygon fill="#e0e0e0" stroke="#999999" points="566.83,-74 518.83,-74 518.83,-55 566.83,-55 566.83,-74"/>
<text text-anchor="middle" x="542.83" y="-62" font-family="Helvetica,sans-Serif" font-size="10.00">mutex</text>
</a>
</g>
</g>
<!-- Node1&#45;&gt;Node8 -->
<g id="edge7_Node000001_Node000008" class="edge">
<title>Node1&#45;&gt;Node8</title>
<g id="a_edge7_Node000001_Node000008"><a xlink:title=" ">
<path fill="none" stroke="#63b8ff" d="M577.72,-164.66C571.51,-147.01 557.46,-107.09 549.21,-83.64"/>
<polygon fill="#63b8ff" stroke="#63b8ff" points="552.5,-82.43 545.88,-74.16 545.9,-84.75 552.5,-82.43"/>
</a>
</g>
</g>
<!-- Node9 -->
<g id="Node000009" class="node">
<title>Node9</title>
<g id="a_Node000009"><a xlink:title=" ">
<polygon fill="#e0e0e0" stroke="#999999" points="692.33,-74 585.33,-74 585.33,-55 692.33,-55 692.33,-74"/>
<text text-anchor="middle" x="638.83" y="-62" font-family="Helvetica,sans-Serif" font-size="10.00">condition_variable</text>
</a>
</g>
</g>
<!-- Node1&#45;&gt;Node9 -->
<g id="edge8_Node000001_Node000009" class="edge">
<title>Node1&#45;&gt;Node9</title>
<g id="a_edge8_Node000001_Node000009"><a xlink:title=" ">
<path fill="none" stroke="#63b8ff" d="M583.2,-164.94C586.85,-152.41 594.53,-128.55 604.83,-110 610.31,-100.14 617.8,-90.07 624.37,-82.02"/>
<polygon fill="#63b8ff" stroke="#63b8ff" points="627.21,-84.07 630.98,-74.17 621.86,-79.56 627.21,-84.07"/>
</a>
</g>
</g>
<!-- Node10 -->
<g id="Node000010" class="node">
<title>Node10</title>
<g id="a_Node000010"><a xlink:title=" ">
<polygon fill="#e0e0e0" stroke="#999999" points="824.33,-129 777.33,-129 777.33,-110 824.33,-110 824.33,-129"/>
<text text-anchor="middle" x="800.83" y="-117" font-family="Helvetica,sans-Serif" font-size="10.00">queue</text>
</a>
</g>
</g>
<!-- Node1&#45;&gt;Node10 -->
<g id="edge9_Node000001_Node000010" class="edge">
<title>Node1&#45;&gt;Node10</title>
<g id="a_edge9_Node000001_Node000010"><a xlink:title=" ">
<path fill="none" stroke="#63b8ff" d="M617.78,-164.92C653.47,-156.58 709.31,-143.42 767.02,-129.17"/>
<polygon fill="#63b8ff" stroke="#63b8ff" points="768.19,-132.48 777.05,-126.68 766.5,-125.69 768.19,-132.48"/>
</a>
</g>
</g>
<!-- Node11 -->
<g id="Node000011" class="node">
<title>Node11</title>
<g id="a_Node000011"><a xlink:title=" ">
<polygon fill="#e0e0e0" stroke="#999999" points="591.33,-19 526.33,-19 526.33,0 591.33,0 591.33,-19"/>
<text text-anchor="middle" x="558.83" y="-7" font-family="Helvetica,sans-Serif" font-size="10.00">functional</text>
</a>
</g>
</g>
<!-- Node1&#45;&gt;Node11 -->
<g id="edge10_Node000001_Node000011" class="edge">
<title>Node1&#45;&gt;Node11</title>
<g id="a_edge10_Node000001_Node000011"><a xlink:title=" ">
<path fill="none" stroke="#63b8ff" d="M587.09,-164.88C596.86,-151.85 616.8,-126.87 637.83,-110 667.09,-86.54 724.06,-85.2 701.83,-55 679.09,-24.11 635.07,-14.04 601.84,-11.06"/>
<polygon fill="#63b8ff" stroke="#63b8ff" points="601.7,-7.54 591.48,-10.32 601.2,-14.52 601.7,-7.54"/>
</a>
</g>
</g>
<!-- Node12 -->
<g id="Node000012" class="node">
<title>Node12</title>
<g id="a_Node000012"><a xlink:title=" ">
<polygon fill="#e0e0e0" stroke="#999999" points="892.83,-129 842.83,-129 842.83,-110 892.83,-110 892.83,-129"/>
<text text-anchor="middle" x="867.83" y="-117" font-family="Helvetica,sans-Serif" font-size="10.00">chrono</text>
</a>
</g>
</g>
<!-- Node1&#45;&gt;Node12 -->
<g id="edge11_Node000001_Node000012" class="edge">
<title>Node1&#45;&gt;Node12</title>
<g id="a_edge11_Node000001_Node000012"><a xlink:title=" ">
<path fill="none" stroke="#63b8ff" d="M635.83,-164.98C685.02,-157.1 759.28,-144.56 832.74,-129.11"/>
<polygon fill="#63b8ff" stroke="#63b8ff" points="833.57,-132.51 842.63,-127.01 832.12,-125.66 833.57,-132.51"/>
</a>
</g>
</g>
<!-- Node13 -->
<g id="Node000013" class="node">
<title>Node13</title>
<g id="a_Node000013"><a xlink:title=" ">
<polygon fill="#e0e0e0" stroke="#999999" points="1004.33,-129 911.33,-129 911.33,-110 1004.33,-110 1004.33,-129"/>
<text text-anchor="middle" x="957.83" y="-117" font-family="Helvetica,sans-Serif" font-size="10.00">unordered_map</text>
</a>
</g>
</g>
<!-- Node1&#45;&gt;Node13 -->
<g id="edge12_Node000001_Node000013" class="edge">
<title>Node1&#45;&gt;Node13</title>
<g id="a_edge12_Node000001_Node000013"><a xlink:title=" ">
<path fill="none" stroke="#63b8ff" d="M644.21,-164.96C706.77,-156.47 805.44,-142.94 900.96,-129.11"/>
<polygon fill="#63b8ff" stroke="#63b8ff" points="901.69,-132.54 911.09,-127.64 900.69,-125.61 901.69,-132.54"/>
</a>
</g>
</g>
<!-- Node14 -->
<g id="Node000014" class="node">
<title>Node14</title>
<g id="a_Node000014"><a xlink:href="gaussian__extractor_8h.html" target="_top" xlink:title="Core extraction engine and data structures for Gaussian log file processing.">
<polygon fill="white" stroke="#666666" points="401.83,-129 283.83,-129 283.83,-110 401.83,-110 401.83,-129"/>
<text text-anchor="middle" x="342.83" y="-117" font-family="Helvetica,sans-Serif" font-size="10.00">gaussian_extractor.h</text>
</a>
</g>
</g>
<!-- Node1&#45;&gt;Node14 -->
<g id="edge13_Node000001_Node000014" class="edge">
<title>Node1&#45;&gt;Node14</title>
<g id="a_edge13_Node000001_Node000014"><a xlink:title=" ">
<path fill="none" stroke="#63b8ff" d="M542.59,-164.98C501.42,-155.82 435.84,-141.21 391.13,-131.26"/>
<polygon fill="#63b8ff" stroke="#63b8ff" points="391.89,-127.84 381.37,-129.08 390.37,-134.67 391.89,-127.84"/>
</a>
</g>
</g>
<!-- Node14&#45;&gt;Node2 -->
<g id="edge21_Node000014_Node000002" class="edge">
<title>Node14&#45;&gt;Node2</title>
<g id="a_edge21_Node000014_Node000002"><a xlink:title=" ">
<path fill="none" stroke="#63b8ff" d="M310.47,-109.91C290.93,-103.15 266.96,-91.84 251.83,-74 241.25,-61.52 236.56,-43.32 234.48,-29.59"/>
<polygon fill="#63b8ff" stroke="#63b8ff" points="237.92,-28.87 233.28,-19.35 230.97,-29.69 237.92,-28.87"/>
</a>
</g>
</g>
<!-- Node14&#45;&gt;Node3 -->
<g id="edge22_Node000014_Node000003" class="edge">
<title>Node14&#45;&gt;Node3</title>
<g id="a_edge22_Node000014_Node000003"><a xlink:title=" ">
<path fill="none" stroke="#63b8ff" d="M283.7,-110.44C230.49,-102.83 149.97,-90.43 70.72,-74.01"/>
<polygon fill="#63b8ff" stroke="#63b8ff" points="71.07,-70.51 60.56,-71.89 69.63,-77.36 71.07,-70.51"/>
</a>
</g>
</g>
<!-- Node14&#45;&gt;Node4 -->
<g id="edge19_Node000014_Node000004" class="edge">
<title>Node14&#45;&gt;Node4</title>
<g id="a_edge19_Node000014_Node000004"><a xlink:title=" ">
<path fill="none" stroke="#63b8ff" d="M305.07,-109.98C261.71,-100.21 190.92,-84.24 146.98,-74.33"/>
<polygon fill="#63b8ff" stroke="#63b8ff" points="147.48,-70.85 136.96,-72.07 145.94,-77.68 147.48,-70.85"/>
</a>
</g>
</g>
<!-- Node14&#45;&gt;Node7 -->
<g id="edge15_Node000014_Node000007" class="edge">
<title>Node14&#45;&gt;Node7</title>
<g id="a_edge15_Node000014_Node000007"><a xlink:title=" ">
<path fill="none" stroke="#63b8ff" d="M316.64,-109.98C288.99,-100.99 245.26,-86.77 214.7,-76.84"/>
<polygon fill="#63b8ff" stroke="#63b8ff" points="215.48,-73.41 204.88,-73.65 213.31,-80.07 215.48,-73.41"/>
</a>
</g>
</g>
<!-- Node14&#45;&gt;Node8 -->
<g id="edge20_Node000014_Node000008" class="edge">
<title>Node14&#45;&gt;Node8</title>
<g id="a_edge20_Node000014_Node000008"><a xlink:title=" ">
<path fill="none" stroke="#63b8ff" d="M374.96,-109.98C411.6,-100.28 471.25,-84.47 508.7,-74.54"/>
<polygon fill="#63b8ff" stroke="#63b8ff" points="509.87,-77.86 518.64,-71.91 508.08,-71.09 509.87,-77.86"/>
</a>
</g>
</g>
<!-- Node14&#45;&gt;Node9 -->
<g id="edge16_Node000014_Node000009" class="edge">
<title>Node14&#45;&gt;Node9</title>
<g id="a_edge16_Node000014_Node000009"><a xlink:title=" ">
<path fill="none" stroke="#63b8ff" d="M390.39,-109.98C442.24,-100.7 525.22,-85.84 580.85,-75.88"/>
<polygon fill="#63b8ff" stroke="#63b8ff" points="581.67,-79.29 590.9,-74.08 580.44,-72.4 581.67,-79.29"/>
</a>
</g>
</g>
<!-- Node14&#45;&gt;Node11 -->
<g id="edge18_Node000014_Node000011" class="edge">
<title>Node14&#45;&gt;Node11</title>
<g id="a_edge18_Node000014_Node000011"><a xlink:title=" ">
<path fill="none" stroke="#63b8ff" d="M376.29,-109.94C403.01,-102.4 440.96,-90.12 471.83,-74 497.66,-60.51 524.28,-39.91 541.16,-25.86"/>
<polygon fill="#63b8ff" stroke="#63b8ff" points="543.68,-28.32 549.04,-19.18 539.15,-22.98 543.68,-28.32"/>
</a>
</g>
</g>
<!-- Node15 -->
<g id="Node000015" class="node">
<title>Node15</title>
<g id="a_Node000015"><a xlink:title=" ">
<polygon fill="#e0e0e0" stroke="#999999" points="373.83,-19 309.83,-19 309.83,0 373.83,0 373.83,-19"/>
<text text-anchor="middle" x="341.83" y="-7" font-family="Helvetica,sans-Serif" font-size="10.00">algorithm</text>
</a>
</g>
</g>
<!-- Node14&#45;&gt;Node15 -->
<g id="edge14_Node000014_Node000015" class="edge">
<title>Node14&#45;&gt;Node15</title>
<g id="a_edge14_Node000014_Node000015"><a xlink:title=" ">
<path fill="none" stroke="#63b8ff" d="M342.75,-109.66C342.59,-92.17 342.22,-52.8 342.01,-29.27"/>
<polygon fill="#63b8ff" stroke="#63b8ff" points="345.5,-29.13 341.91,-19.16 338.5,-29.19 345.5,-29.13"/>
</a>
</g>
</g>
<!-- Node16 -->
<g id="Node000016" class="node">
<title>Node16</title>
<g id="a_Node000016"><a xlink:title=" ">
<polygon fill="#e0e0e0" stroke="#999999" points="314.33,-74 261.33,-74 261.33,-55 314.33,-55 314.33,-74"/>
<text text-anchor="middle" x="287.83" y="-62" font-family="Helvetica,sans-Serif" font-size="10.00">cstddef</text>
</a>
</g>
</g>
<!-- Node14&#45;&gt;Node16 -->
<g id="edge17_Node000014_Node000016" class="edge">
<title>Node14&#45;&gt;Node16</title>
<g id="a_edge17_Node000014_Node000016"><a xlink:title=" ">
<path fill="none" stroke="#63b8ff" d="M333.75,-109.75C325.74,-102.03 313.87,-90.6 304.21,-81.28"/>
<polygon fill="#63b8ff" stroke="#63b8ff" points="306.37,-78.51 296.74,-74.09 301.52,-83.55 306.37,-78.51"/>
</a>
</g>
</g>
<!-- Node17 -->
<g id="Node000017" class="node">
<title>Node17</title>
<g id="a_Node000017"><a xlink:href="job__scheduler_8h.html" target="_top" xlink:title="Job scheduler detection and resource management for HPC environments.">
<polygon fill="white" stroke="#666666" points="462.83,-74 370.83,-74 370.83,-55 462.83,-55 462.83,-74"/>
<text text-anchor="middle" x="416.83" y="-62" font-family="Helvetica,sans-Serif" font-size="10.00">job_scheduler.h</text>
</a>
</g>
</g>
<!-- Node14&#45;&gt;Node17 -->
<g id="edge23_Node000014_Node000017" class="edge">
<title>Node14&#45;&gt;Node17</title>
<g id="a_edge23_Node000014_Node000017"><a xlink:title=" ">
<path fill="none" stroke="#63b8ff" d="M354.72,-109.98C365.98,-101.92 383.12,-89.65 396.54,-80.03"/>
<polygon fill="#63b8ff" stroke="#63b8ff" points="398.63,-82.84 404.73,-74.17 394.56,-77.15 398.63,-82.84"/>
</a>
</g>
</g>
<!-- Node17&#45;&gt;Node2 -->
<g id="edge28_Node000017_Node000002" class="edge">
<title>Node17&#45;&gt;Node2</title>
<g id="a_edge28_Node000017_Node000002"><a xlink:title=" ">
<path fill="none" stroke="#63b8ff" d="M387.27,-54.98C353.85,-45.36 299.62,-29.74 265.12,-19.8"/>
<polygon fill="#63b8ff" stroke="#63b8ff" points="265.67,-16.32 255.09,-16.91 263.73,-23.04 265.67,-16.32"/>
</a>
</g>
</g>
<!-- Node17&#45;&gt;Node11 -->
<g id="edge27_Node000017_Node000011" class="edge">
<title>Node17&#45;&gt;Node11</title>
<g id="a_edge27_Node000017_Node000011"><a xlink:title=" ">
<path fill="none" stroke="#63b8ff" d="M439.65,-54.98C463,-46.27 499.54,-32.63 526,-22.75"/>
<polygon fill="#63b8ff" stroke="#63b8ff" points="527.46,-25.95 535.6,-19.17 525.01,-19.39 527.46,-25.95"/>
</a>
</g>
</g>
<!-- Node17&#45;&gt;Node15 -->
<g id="edge24_Node000017_Node000015" class="edge">
<title>Node17&#45;&gt;Node15</title>
<g id="a_edge24_Node000017_Node000015"><a xlink:title=" ">
<path fill="none" stroke="#63b8ff" d="M404.78,-54.98C393.37,-46.92 376,-34.65 362.4,-25.03"/>
<polygon fill="#63b8ff" stroke="#63b8ff" points="364.29,-22.08 354.1,-19.17 360.25,-27.8 364.29,-22.08"/>
</a>
</g>
</g>
<!-- Node18 -->
<g id="Node000018" class="node">
<title>Node18</title>
<g id="a_Node000018"><a xlink:title=" ">
<polygon fill="#e0e0e0" stroke="#999999" points="441.33,-19 392.33,-19 392.33,0 441.33,0 441.33,-19"/>
<text text-anchor="middle" x="416.83" y="-7" font-family="Helvetica,sans-Serif" font-size="10.00">cctype</text>
</a>
</g>
</g>
<!-- Node17&#45;&gt;Node18 -->
<g id="edge25_Node000017_Node000018" class="edge">
<title>Node17&#45;&gt;Node18</title>
<g id="a_edge25_Node000017_Node000018"><a xlink:title=" ">
<path fill="none" stroke="#63b8ff" d="M416.83,-54.75C416.83,-47.8 416.83,-37.85 416.83,-29.13"/>
<polygon fill="#63b8ff" stroke="#63b8ff" points="420.33,-29.09 416.83,-19.09 413.33,-29.09 420.33,-29.09"/>
</a>
</g>
</g>
<!-- Node19 -->
<g id="Node000019" class="node">
<title>Node19</title>
<g id="a_Node000019"><a xlink:title=" ">
<polygon fill="#e0e0e0" stroke="#999999" points="508.33,-19 459.33,-19 459.33,0 508.33,0 508.33,-19"/>
<text text-anchor="middle" x="483.83" y="-7" font-family="Helvetica,sans-Serif" font-size="10.00">cstdlib</text>
</a>
</g>
</g>
<!-- Node17&#45;&gt;Node19 -->
<g id="edge26_Node000017_Node000019" class="edge">
<title>Node17&#45;&gt;Node19</title>
<g id="a_edge26_Node000017_Node000019"><a xlink:title=" ">
<path fill="none" stroke="#63b8ff" d="M427.6,-54.98C437.6,-47.07 452.72,-35.11 464.76,-25.58"/>
<polygon fill="#63b8ff" stroke="#63b8ff" points="467.2,-28.12 472.87,-19.17 462.86,-22.63 467.2,-28.12"/>
</a>
</g>
</g>
</g>
</svg>
