<?xml version="1.0" encoding="UTF-8" standalone="no"?>
<!DOCTYPE svg PUBLIC "-//W3C//DTD SVG 1.1//EN"
 "http://www.w3.org/Graphics/SVG/1.1/DTD/svg11.dtd">
<!-- Generated by graphviz version 2.43.0 (0)
 -->
<!-- Title: print_header_box Pages: 1 -->
<svg width="740pt" height="290pt"
 viewBox="0.00 0.00 740.00 290.00" xmlns="http://www.w3.org/2000/svg" xmlns:xlink="http://www.w3.org/1999/xlink">
<g id="graph0" class="graph" transform="scale(1 1) rotate(0) translate(4 286)">
<title>print_header_box</title>
<!-- Node1 -->
<g id="Node000001" class="node">
<title>Node1</title>
<g id="a_Node000001"><a xlink:title=" ">
<polygon fill="#999999" stroke="#666666" points="732,-144.5 631,-144.5 631,-125.5 732,-125.5 732,-144.5"/>
<text text-anchor="middle" x="681.5" y="-132.5" font-family="Helvetica,sans-Serif" font-size="10.00">print_header_box</text>
</a>
</g>
</g>
<!-- Node2 -->
<g id="Node000002" class="node">
<title>Node2</title>
<g id="a_Node000002"><a xlink:href="group__OutputFunctions.html#ga3578194a0e7fcca0bb3b023afa33bdec" target="_top" xlink:title="Print results in CSV format with detailed energy components.">
<polygon fill="white" stroke="#666666" points="589.5,-282 419.5,-282 419.5,-252 589.5,-252 589.5,-282"/>
<text text-anchor="start" x="427.5" y="-270" font-family="Helvetica,sans-Serif" font-size="10.00">HighLevelEnergyCalculator</text>
<text text-anchor="middle" x="504.5" y="-259" font-family="Helvetica,sans-Serif" font-size="10.00">::print_components_csv_format</text>
</a>
</g>
</g>
<!-- Node1&#45;&gt;Node2 -->
<g id="edge1_Node000001_Node000002" class="edge">
<title>Node1&#45;&gt;Node2</title>
<g id="a_edge1_Node000001_Node000002"><a xlink:title=" ">
<path fill="none" stroke="#63b8ff" d="M670.72,-153.73C657.05,-178.03 629.95,-220.02 595,-243 589.76,-246.45 584.04,-249.4 578.1,-251.93"/>
<polygon fill="#63b8ff" stroke="#63b8ff" points="673.88,-155.25 675.59,-144.79 667.73,-151.9 673.88,-155.25"/>
</a>
</g>
</g>
<!-- Node6 -->
<g id="Node000006" class="node">
<title>Node6</title>
<g id="a_Node000006"><a xlink:href="group__DynamicOutputFormatting.html#ga3a4bf6a916d8b341fff654d3f1da54c9" target="_top" xlink:title="Print results in components format with dynamic column widths.">
<polygon fill="white" stroke="#666666" points="579,-233.5 430,-233.5 430,-192.5 579,-192.5 579,-233.5"/>
<text text-anchor="start" x="438" y="-221.5" font-family="Helvetica,sans-Serif" font-size="10.00">HighLevelEnergyCalculator</text>
<text text-anchor="start" x="438" y="-210.5" font-family="Helvetica,sans-Serif" font-size="10.00">::print_components_format</text>
<text text-anchor="middle" x="504.5" y="-199.5" font-family="Helvetica,sans-Serif" font-size="10.00">_dynamic</text>
</a>
</g>
</g>
<!-- Node1&#45;&gt;Node6 -->
<g id="edge6_Node000001_Node000006" class="edge">
<title>Node1&#45;&gt;Node6</title>
<g id="a_edge6_Node000001_Node000006"><a xlink:title=" ">
<path fill="none" stroke="#63b8ff" d="M656.88,-149.85C640.05,-160.04 616.66,-173.39 595,-183 587.51,-186.32 579.53,-189.49 571.54,-192.44"/>
<polygon fill="#63b8ff" stroke="#63b8ff" points="658.81,-152.78 665.5,-144.57 655.15,-146.81 658.81,-152.78"/>
</a>
</g>
</g>
<!-- Node8 -->
<g id="Node000008" class="node">
<title>Node8</title>
<g id="a_Node000008"><a xlink:href="group__DynamicOutputFormatting.html#ga932472faa109e17046c43975dfb053fb" target="_top" xlink:title="Print results in components format with static column widths.">
<polygon fill="white" stroke="#666666" points="595,-174 414,-174 414,-144 595,-144 595,-174"/>
<text text-anchor="start" x="422" y="-162" font-family="Helvetica,sans-Serif" font-size="10.00">HighLevelEnergyCalculator</text>
<text text-anchor="middle" x="504.5" y="-151" font-family="Helvetica,sans-Serif" font-size="10.00">::print_components_format_static</text>
</a>
</g>
</g>
<!-- Node1&#45;&gt;Node8 -->
<g id="edge9_Node000001_Node000008" class="edge">
<title>Node1&#45;&gt;Node8</title>
<g id="a_edge9_Node000001_Node000008"><a xlink:title=" ">
<path fill="none" stroke="#63b8ff" d="M620.86,-143.18C612.52,-144.32 603.81,-145.52 595.06,-146.72"/>
<polygon fill="#63b8ff" stroke="#63b8ff" points="621.39,-146.64 630.82,-141.81 620.44,-139.7 621.39,-146.64"/>
</a>
</g>
</g>
<!-- Node9 -->
<g id="Node000009" class="node">
<title>Node9</title>
<g id="a_Node000009"><a xlink:href="group__OutputFunctions.html#gacb8b3c91ca4914d5c3bca035e3843ac2" target="_top" xlink:title="Print results in CSV format optimized for Gibbs energies.">
<polygon fill="white" stroke="#666666" points="579,-126 430,-126 430,-96 579,-96 579,-126"/>
<text text-anchor="start" x="438" y="-114" font-family="Helvetica,sans-Serif" font-size="10.00">HighLevelEnergyCalculator</text>
<text text-anchor="middle" x="504.5" y="-103" font-family="Helvetica,sans-Serif" font-size="10.00">::print_gibbs_csv_format</text>
</a>
</g>
</g>
<!-- Node1&#45;&gt;Node9 -->
<g id="edge10_Node000001_Node000009" class="edge">
<title>Node1&#45;&gt;Node9</title>
<g id="a_edge10_Node000001_Node000009"><a xlink:title=" ">
<path fill="none" stroke="#63b8ff" d="M620.79,-126.81C607.4,-124.98 593.04,-123.01 579.16,-121.1"/>
<polygon fill="#63b8ff" stroke="#63b8ff" points="620.44,-130.3 630.82,-128.19 621.39,-123.36 620.44,-130.3"/>
</a>
</g>
</g>
<!-- Node11 -->
<g id="Node000011" class="node">
<title>Node11</title>
<g id="a_Node000011"><a xlink:href="group__DynamicOutputFormatting.html#ga1b6138e25512b7d0efdca762f53d8c00" target="_top" xlink:title="Print results in Gibbs format with dynamic column widths.">
<polygon fill="white" stroke="#666666" points="585.5,-78 423.5,-78 423.5,-48 585.5,-48 585.5,-78"/>
<text text-anchor="start" x="431.5" y="-66" font-family="Helvetica,sans-Serif" font-size="10.00">HighLevelEnergyCalculator</text>
<text text-anchor="middle" x="504.5" y="-55" font-family="Helvetica,sans-Serif" font-size="10.00">::print_gibbs_format_dynamic</text>
</a>
</g>
</g>
<!-- Node1&#45;&gt;Node11 -->
<g id="edge14_Node000001_Node000011" class="edge">
<title>Node1&#45;&gt;Node11</title>
<g id="a_edge14_Node000001_Node000011"><a xlink:title=" ">
<path fill="none" stroke="#63b8ff" d="M657.36,-119.92C640.59,-109.51 617.08,-95.99 595,-87 586.95,-83.72 578.32,-80.76 569.71,-78.13"/>
<polygon fill="#63b8ff" stroke="#63b8ff" points="655.61,-122.95 665.93,-125.33 659.34,-117.03 655.61,-122.95"/>
</a>
</g>
</g>
<!-- Node13 -->
<g id="Node000013" class="node">
<title>Node13</title>
<g id="a_Node000013"><a xlink:href="group__DynamicOutputFormatting.html#ga3a3430c4a259752ea6a75b60cbad38cf" target="_top" xlink:title="Print results in Gibbs format with static column widths.">
<polygon fill="white" stroke="#666666" points="579,-30 430,-30 430,0 579,0 579,-30"/>
<text text-anchor="start" x="438" y="-18" font-family="Helvetica,sans-Serif" font-size="10.00">HighLevelEnergyCalculator</text>
<text text-anchor="middle" x="504.5" y="-7" font-family="Helvetica,sans-Serif" font-size="10.00">::print_gibbs_format_static</text>
</a>
</g>
</g>
<!-- Node1&#45;&gt;Node13 -->
<g id="edge17_Node000001_Node000013" class="edge">
<title>Node1&#45;&gt;Node13</title>
<g id="a_edge17_Node000001_Node000013"><a xlink:title=" ">
<path fill="none" stroke="#63b8ff" d="M669.16,-116.8C654.64,-95.02 627.43,-59 595,-39 589.39,-35.54 583.27,-32.57 576.97,-30.02"/>
<polygon fill="#63b8ff" stroke="#63b8ff" points="666.37,-118.94 674.75,-125.44 672.25,-115.14 666.37,-118.94"/>
</a>
</g>
</g>
<!-- Node3 -->
<g id="Node000003" class="node">
<title>Node3</title>
<g id="a_Node000003"><a xlink:href="group__ModuleExecutors.html#gab1aa2594a8bb3d2789d37593f69cbc5e" target="_top" xlink:title=" ">
<polygon fill="white" stroke="#666666" points="358.5,-228 248.5,-228 248.5,-198 358.5,-198 358.5,-228"/>
<text text-anchor="start" x="256.5" y="-216" font-family="Helvetica,sans-Serif" font-size="10.00">execute_high_level</text>
<text text-anchor="middle" x="303.5" y="-205" font-family="Helvetica,sans-Serif" font-size="10.00">_au_command</text>
</a>
</g>
</g>
<!-- Node2&#45;&gt;Node3 -->
<g id="edge2_Node000002_Node000003" class="edge">
<title>Node2&#45;&gt;Node3</title>
<g id="a_edge2_Node000002_Node000003"><a xlink:title=" ">
<path fill="none" stroke="#63b8ff" d="M437.27,-249.28C429.43,-247.17 421.53,-245.04 414,-243 395.93,-238.1 376.19,-232.71 358.51,-227.86"/>
<polygon fill="#63b8ff" stroke="#63b8ff" points="436.58,-252.72 447.15,-251.94 438.4,-245.96 436.58,-252.72"/>
</a>
</g>
</g>
<!-- Node4 -->
<g id="Node000004" class="node">
<title>Node4</title>
<g id="a_Node000004"><a xlink:href="main_8cpp.html#a0ddf1224851353fc92bfbff6f499fa97" target="_top" xlink:title="Main entry point for the Gaussian Extractor application.">
<polygon fill="white" stroke="#666666" points="41,-178.5 0,-178.5 0,-159.5 41,-159.5 41,-178.5"/>
<text text-anchor="middle" x="20.5" y="-166.5" font-family="Helvetica,sans-Serif" font-size="10.00">main</text>
</a>
</g>
</g>
<!-- Node3&#45;&gt;Node4 -->
<g id="edge3_Node000003_Node000004" class="edge">
<title>Node3&#45;&gt;Node4</title>
<g id="a_edge3_Node000003_Node000004"><a xlink:title=" ">
<path fill="none" stroke="#63b8ff" d="M238.23,-209C192.81,-205.35 130.7,-198.68 77,-187 64.83,-184.35 51.54,-180.09 41.02,-176.38"/>
<polygon fill="#63b8ff" stroke="#63b8ff" points="238,-212.5 248.24,-209.78 238.54,-205.52 238,-212.5"/>
</a>
</g>
</g>
<!-- Node5 -->
<g id="Node000005" class="node">
<title>Node5</title>
<g id="a_Node000005"><a xlink:href="interactive__mode_8cpp.html#a6b615c34054150d837dc45ed1c17b297" target="_top" xlink:title="Enhanced interactive command loop with TAB completion for Windows.">
<polygon fill="white" stroke="#666666" points="193,-178.5 77,-178.5 77,-159.5 193,-159.5 193,-178.5"/>
<text text-anchor="middle" x="135" y="-166.5" font-family="Helvetica,sans-Serif" font-size="10.00">run_interactive_loop</text>
</a>
</g>
</g>
<!-- Node3&#45;&gt;Node5 -->
<g id="edge4_Node000003_Node000005" class="edge">
<title>Node3&#45;&gt;Node5</title>
<g id="a_edge4_Node000003_Node000005"><a xlink:title=" ">
<path fill="none" stroke="#63b8ff" d="M238.61,-196.12C216.11,-190.17 191.61,-183.7 172.2,-178.57"/>
<polygon fill="#63b8ff" stroke="#63b8ff" points="237.88,-199.54 248.44,-198.71 239.67,-192.78 237.88,-199.54"/>
</a>
</g>
</g>
<!-- Node5&#45;&gt;Node4 -->
<g id="edge5_Node000005_Node000004" class="edge">
<title>Node5&#45;&gt;Node4</title>
<g id="a_edge5_Node000005_Node000004"><a xlink:title=" ">
<path fill="none" stroke="#63b8ff" d="M66.62,-169C57.37,-169 48.55,-169 41.19,-169"/>
<polygon fill="#63b8ff" stroke="#63b8ff" points="66.76,-172.5 76.76,-169 66.76,-165.5 66.76,-172.5"/>
</a>
</g>
</g>
<!-- Node6&#45;&gt;Node3 -->
<g id="edge7_Node000006_Node000003" class="edge">
<title>Node6&#45;&gt;Node3</title>
<g id="a_edge7_Node000006_Node000003"><a xlink:title=" ">
<path fill="none" stroke="#63b8ff" d="M419.91,-213C399.23,-213 377.62,-213 358.76,-213"/>
<polygon fill="#63b8ff" stroke="#63b8ff" points="419.97,-216.5 429.97,-213 419.97,-209.5 419.97,-216.5"/>
</a>
</g>
</g>
<!-- Node7 -->
<g id="Node000007" class="node">
<title>Node7</title>
<g id="a_Node000007"><a xlink:href="group__OutputFunctions.html#ga662bddcabe4e2beb2658451fb36e109b" target="_top" xlink:title="Print results with detailed energy component breakdown.">
<polygon fill="white" stroke="#666666" points="378,-180 229,-180 229,-150 378,-150 378,-180"/>
<text text-anchor="start" x="237" y="-168" font-family="Helvetica,sans-Serif" font-size="10.00">HighLevelEnergyCalculator</text>
<text text-anchor="middle" x="303.5" y="-157" font-family="Helvetica,sans-Serif" font-size="10.00">::print_components_format</text>
</a>
</g>
</g>
<!-- Node6&#45;&gt;Node7 -->
<g id="edge8_Node000006_Node000007" class="edge">
<title>Node6&#45;&gt;Node7</title>
<g id="a_edge8_Node000006_Node000007"><a xlink:title=" ">
<path fill="none" stroke="#63b8ff" d="M420.16,-192.9C402.34,-188.6 383.82,-184.13 366.95,-180.06"/>
<polygon fill="#63b8ff" stroke="#63b8ff" points="419.42,-196.32 429.97,-195.26 421.06,-189.52 419.42,-196.32"/>
</a>
</g>
</g>
<!-- Node10 -->
<g id="Node000010" class="node">
<title>Node10</title>
<g id="a_Node000010"><a xlink:href="group__ModuleExecutors.html#gaefd8d559f7f798aaf8cb5f6feb9dce47" target="_top" xlink:title=" ">
<polygon fill="white" stroke="#666666" points="358.5,-129 248.5,-129 248.5,-99 358.5,-99 358.5,-129"/>
<text text-anchor="start" x="256.5" y="-117" font-family="Helvetica,sans-Serif" font-size="10.00">execute_high_level</text>
<text text-anchor="middle" x="303.5" y="-106" font-family="Helvetica,sans-Serif" font-size="10.00">_kj_command</text>
</a>
</g>
</g>
<!-- Node9&#45;&gt;Node10 -->
<g id="edge11_Node000009_Node000010" class="edge">
<title>Node9&#45;&gt;Node10</title>
<g id="a_edge11_Node000009_Node000010"><a xlink:title=" ">
<path fill="none" stroke="#63b8ff" d="M419.91,-112.26C399.23,-112.57 377.62,-112.9 358.76,-113.18"/>
<polygon fill="#63b8ff" stroke="#63b8ff" points="420.02,-115.76 429.97,-112.11 419.91,-108.76 420.02,-115.76"/>
</a>
</g>
</g>
<!-- Node10&#45;&gt;Node4 -->
<g id="edge12_Node000010_Node000004" class="edge">
<title>Node10&#45;&gt;Node4</title>
<g id="a_edge12_Node000010_Node000004"><a xlink:title=" ">
<path fill="none" stroke="#63b8ff" d="M238.2,-121.28C192.76,-127.15 130.65,-136.64 77,-150 64.84,-153.03 51.56,-157.53 41.03,-161.39"/>
<polygon fill="#63b8ff" stroke="#63b8ff" points="238.73,-124.74 248.21,-120.01 237.85,-117.8 238.73,-124.74"/>
</a>
</g>
</g>
<!-- Node10&#45;&gt;Node5 -->
<g id="edge13_Node000010_Node000005" class="edge">
<title>Node10&#45;&gt;Node5</title>
<g id="a_edge13_Node000010_Node000005"><a xlink:title=" ">
<path fill="none" stroke="#63b8ff" d="M247.5,-132.17C220.02,-141.24 187.89,-151.86 165.19,-159.36"/>
<polygon fill="#63b8ff" stroke="#63b8ff" points="248.61,-135.49 257,-129.03 246.41,-128.84 248.61,-135.49"/>
</a>
</g>
</g>
<!-- Node11&#45;&gt;Node10 -->
<g id="edge15_Node000011_Node000010" class="edge">
<title>Node11&#45;&gt;Node10</title>
<g id="a_edge15_Node000011_Node000010"><a xlink:title=" ">
<path fill="none" stroke="#63b8ff" d="M435.09,-80.53C410.1,-86.94 382.2,-94.09 358.63,-100.13"/>
<polygon fill="#63b8ff" stroke="#63b8ff" points="436.05,-83.9 444.87,-78.03 434.31,-77.12 436.05,-83.9"/>
</a>
</g>
</g>
<!-- Node12 -->
<g id="Node000012" class="node">
<title>Node12</title>
<g id="a_Node000012"><a xlink:href="group__OutputFunctions.html#ga8bd0bcb08333beae561c2b44df59c8a5" target="_top" xlink:title="Print results in Gibbs free energy focused format.">
<polygon fill="white" stroke="#666666" points="378,-78 229,-78 229,-48 378,-48 378,-78"/>
<text text-anchor="start" x="237" y="-66" font-family="Helvetica,sans-Serif" font-size="10.00">HighLevelEnergyCalculator</text>
<text text-anchor="middle" x="303.5" y="-55" font-family="Helvetica,sans-Serif" font-size="10.00">::print_gibbs_format</text>
</a>
</g>
</g>
<!-- Node11&#45;&gt;Node12 -->
<g id="edge16_Node000011_Node000012" class="edge">
<title>Node11&#45;&gt;Node12</title>
<g id="a_edge16_Node000011_Node000012"><a xlink:title=" ">
<path fill="none" stroke="#63b8ff" d="M413.21,-63C401.53,-63 389.67,-63 378.3,-63"/>
<polygon fill="#63b8ff" stroke="#63b8ff" points="413.42,-66.5 423.42,-63 413.42,-59.5 413.42,-66.5"/>
</a>
</g>
</g>
</g>
</svg>
