<?xml version="1.0" encoding="UTF-8" standalone="no"?>
<!DOCTYPE svg PUBLIC "-//W3C//DTD SVG 1.1//EN"
 "http://www.w3.org/Graphics/SVG/1.1/DTD/svg11.dtd">
<!-- Generated by graphviz version 2.43.0 (0)
 -->
<!-- Title: execute_check_pcm_command Pages: 1 -->
<svg width="701pt" height="224pt"
 viewBox="0.00 0.00 701.00 224.00" xmlns="http://www.w3.org/2000/svg" xmlns:xlink="http://www.w3.org/1999/xlink">
<g id="graph0" class="graph" transform="scale(1 1) rotate(0) translate(4 220)">
<title>execute_check_pcm_command</title>
<!-- Node1 -->
<g id="Node000001" class="node">
<title>Node1</title>
<g id="a_Node000001"><a xlink:title=" ">
<polygon fill="#999999" stroke="#666666" points="169,-93 0,-93 0,-74 169,-74 169,-93"/>
<text text-anchor="middle" x="84.5" y="-81" font-family="Helvetica,sans-Serif" font-size="10.00">execute_check_pcm_command</text>
</a>
</g>
</g>
<!-- Node2 -->
<g id="Node000002" class="node">
<title>Node2</title>
<g id="a_Node000002"><a xlink:href="group__MainChecking.html#ga10ef65a58eb29a31324f3dc6ddc092c9" target="_top" xlink:title="Check and organize jobs with PCM convergence failures.">
<polygon fill="white" stroke="#666666" points="346,-178.5 215,-178.5 215,-148.5 346,-148.5 346,-178.5"/>
<text text-anchor="start" x="223" y="-166.5" font-family="Helvetica,sans-Serif" font-size="10.00">JobChecker::check_pcm</text>
<text text-anchor="middle" x="280.5" y="-155.5" font-family="Helvetica,sans-Serif" font-size="10.00">_failures</text>
</a>
</g>
</g>
<!-- Node1&#45;&gt;Node2 -->
<g id="edge1_Node000001_Node000002" class="edge">
<title>Node1&#45;&gt;Node2</title>
<g id="a_edge1_Node000001_Node000002"><a xlink:title=" ">
<path fill="none" stroke="#63b8ff" d="M104.22,-93.18C127.47,-104.99 168.54,-125.15 205,-139.5 209.98,-141.46 215.19,-143.38 220.44,-145.24"/>
<polygon fill="#63b8ff" stroke="#63b8ff" points="219.3,-148.55 229.9,-148.49 221.58,-141.93 219.3,-148.55"/>
</a>
</g>
</g>
<!-- Node6 -->
<g id="Node000006" class="node">
<title>Node6</title>
<g id="a_Node000006"><a xlink:href="group__MemoryMonitorImpl.html#ga9a325bd1793b5dc5e9490383802ad169" target="_top" xlink:title=" ">
<polygon fill="white" stroke="#666666" points="317.5,-130 243.5,-130 243.5,-111 317.5,-111 317.5,-130"/>
<text text-anchor="middle" x="280.5" y="-118" font-family="Helvetica,sans-Serif" font-size="10.00">findLogFiles</text>
</a>
</g>
</g>
<!-- Node1&#45;&gt;Node6 -->
<g id="edge5_Node000001_Node000006" class="edge">
<title>Node1&#45;&gt;Node6</title>
<g id="a_edge5_Node000001_Node000006"><a xlink:title=" ">
<path fill="none" stroke="#63b8ff" d="M135.46,-93.03C165.69,-98.79 203.96,-106.09 233.45,-111.72"/>
<polygon fill="#63b8ff" stroke="#63b8ff" points="233.01,-115.2 243.49,-113.63 234.32,-108.32 233.01,-115.2"/>
</a>
</g>
</g>
<!-- Node8 -->
<g id="Node000008" class="node">
<title>Node8</title>
<g id="a_Node000008"><a xlink:href="group__ProgressReporting.html#ga8bbe0e03b48d0137b1a03827a6c6ffd2" target="_top" xlink:title="Print comprehensive summary of checking operation.">
<polygon fill="white" stroke="#666666" points="356,-93 205,-93 205,-74 356,-74 356,-93"/>
<text text-anchor="middle" x="280.5" y="-81" font-family="Helvetica,sans-Serif" font-size="10.00">JobChecker::print_summary</text>
</a>
</g>
</g>
<!-- Node1&#45;&gt;Node8 -->
<g id="edge7_Node000001_Node000008" class="edge">
<title>Node1&#45;&gt;Node8</title>
<g id="a_edge7_Node000001_Node000008"><a xlink:title=" ">
<path fill="none" stroke="#63b8ff" d="M169.18,-83.5C177.64,-83.5 186.23,-83.5 194.7,-83.5"/>
<polygon fill="#63b8ff" stroke="#63b8ff" points="194.95,-87 204.95,-83.5 194.95,-80 194.95,-87"/>
</a>
</g>
</g>
<!-- Node9 -->
<g id="Node000009" class="node">
<title>Node9</title>
<g id="a_Node000009"><a xlink:href="group__MemoryMonitorImpl.html#ga9c5d14b4926584b6a71df4a0262ecb5d" target="_top" xlink:title="Print resource usage statistics from processing context.">
<polygon fill="white" stroke="#666666" points="338,-56 223,-56 223,-37 338,-37 338,-56"/>
<text text-anchor="middle" x="280.5" y="-44" font-family="Helvetica,sans-Serif" font-size="10.00">printResourceUsage</text>
</a>
</g>
</g>
<!-- Node1&#45;&gt;Node9 -->
<g id="edge8_Node000001_Node000009" class="edge">
<title>Node1&#45;&gt;Node9</title>
<g id="a_edge8_Node000001_Node000009"><a xlink:title=" ">
<path fill="none" stroke="#63b8ff" d="M135.46,-73.97C161.04,-69.09 192.39,-63.11 219.3,-57.98"/>
<polygon fill="#63b8ff" stroke="#63b8ff" points="220.21,-61.37 229.37,-56.06 218.89,-54.5 220.21,-61.37"/>
</a>
</g>
</g>
<!-- Node11 -->
<g id="Node000011" class="node">
<title>Node11</title>
<g id="a_Node000011"><a xlink:href="module__executor_8cpp.html#a7df47e37fd55c553b8fd39cf996d786c" target="_top" xlink:title=" ">
<polygon fill="white" stroke="#666666" points="343,-19 218,-19 218,0 343,0 343,-19"/>
<text text-anchor="middle" x="280.5" y="-7" font-family="Helvetica,sans-Serif" font-size="10.00">setup_signal_handlers</text>
</a>
</g>
</g>
<!-- Node1&#45;&gt;Node11 -->
<g id="edge10_Node000001_Node000011" class="edge">
<title>Node1&#45;&gt;Node11</title>
<g id="a_edge10_Node000001_Node000011"><a xlink:title=" ">
<path fill="none" stroke="#63b8ff" d="M103.25,-73.8C126.18,-61.59 167.6,-40.63 205,-27.5 211.01,-25.39 217.39,-23.44 223.77,-21.66"/>
<polygon fill="#63b8ff" stroke="#63b8ff" points="225,-24.96 233.77,-19.01 223.21,-18.19 225,-24.96"/>
</a>
</g>
</g>
<!-- Node3 -->
<g id="Node000003" class="node">
<title>Node3</title>
<g id="a_Node000003"><a xlink:href="group__MemoryMonitorImpl.html#gaf6946ebbf530a167fc82bb7f20b36a42" target="_top" xlink:title="Calculate safe thread count considering job scheduler limits.">
<polygon fill="white" stroke="#666666" points="537,-216 392,-216 392,-197 537,-197 537,-216"/>
<text text-anchor="middle" x="464.5" y="-204" font-family="Helvetica,sans-Serif" font-size="10.00">calculateSafeThreadCount</text>
</a>
</g>
</g>
<!-- Node2&#45;&gt;Node3 -->
<g id="edge2_Node000002_Node000003" class="edge">
<title>Node2&#45;&gt;Node3</title>
<g id="a_edge2_Node000002_Node000003"><a xlink:title=" ">
<path fill="none" stroke="#63b8ff" d="M345.15,-178.54C367.44,-183.8 392.14,-189.64 413.19,-194.61"/>
<polygon fill="#63b8ff" stroke="#63b8ff" points="412.66,-198.08 423.2,-196.98 414.27,-191.27 412.66,-198.08"/>
</a>
</g>
</g>
<!-- Node4 -->
<g id="Node000004" class="node">
<title>Node4</title>
<g id="a_Node000004"><a xlink:href="group__FileOperations.html#gaac546681af83004ec02d1c7d06915902" target="_top" xlink:title="Create target directory for file organization.">
<polygon fill="white" stroke="#666666" points="518,-178.5 411,-178.5 411,-148.5 518,-148.5 518,-178.5"/>
<text text-anchor="start" x="419" y="-166.5" font-family="Helvetica,sans-Serif" font-size="10.00">JobChecker::create</text>
<text text-anchor="middle" x="464.5" y="-155.5" font-family="Helvetica,sans-Serif" font-size="10.00">_target_directory</text>
</a>
</g>
</g>
<!-- Node2&#45;&gt;Node4 -->
<g id="edge3_Node000002_Node000004" class="edge">
<title>Node2&#45;&gt;Node4</title>
<g id="a_edge3_Node000002_Node000004"><a xlink:title=" ">
<path fill="none" stroke="#63b8ff" d="M346.18,-163.5C363.86,-163.5 382.99,-163.5 400.57,-163.5"/>
<polygon fill="#63b8ff" stroke="#63b8ff" points="400.72,-167 410.72,-163.5 400.72,-160 400.72,-167"/>
</a>
</g>
</g>
<!-- Node5 -->
<g id="Node000005" class="node">
<title>Node5</title>
<g id="a_Node000005"><a xlink:href="group__UtilityFunctions.html#ga882d844778896dd43317ad4c3fb5b6a3" target="_top" xlink:title="Log error message with appropriate formatting and collection.">
<polygon fill="white" stroke="#666666" points="693,-173 573,-173 573,-154 693,-154 693,-173"/>
<text text-anchor="middle" x="633" y="-161" font-family="Helvetica,sans-Serif" font-size="10.00">JobChecker::log_error</text>
</a>
</g>
</g>
<!-- Node4&#45;&gt;Node5 -->
<g id="edge4_Node000004_Node000005" class="edge">
<title>Node4&#45;&gt;Node5</title>
<g id="a_edge4_Node000004_Node000005"><a xlink:title=" ">
<path fill="none" stroke="#63b8ff" d="M518.18,-163.5C532.27,-163.5 547.71,-163.5 562.56,-163.5"/>
<polygon fill="#63b8ff" stroke="#63b8ff" points="562.71,-167 572.71,-163.5 562.71,-160 562.71,-167"/>
</a>
</g>
</g>
<!-- Node7 -->
<g id="Node000007" class="node">
<title>Node7</title>
<g id="a_Node000007"><a xlink:href="group__MemoryMonitorImpl.html#ga92b44bc7f664ca63d4213f46ecc7714f" target="_top" xlink:title="Find all Gaussian log files in the current directory.">
<polygon fill="white" stroke="#666666" points="501.5,-130 427.5,-130 427.5,-111 501.5,-111 501.5,-130"/>
<text text-anchor="middle" x="464.5" y="-118" font-family="Helvetica,sans-Serif" font-size="10.00">findLogFiles</text>
</a>
</g>
</g>
<!-- Node6&#45;&gt;Node7 -->
<g id="edge6_Node000006_Node000007" class="edge">
<title>Node6&#45;&gt;Node7</title>
<g id="a_edge6_Node000006_Node000007"><a xlink:title=" ">
<path fill="none" stroke="#63b8ff" d="M317.89,-120.5C346.51,-120.5 386.55,-120.5 417.4,-120.5"/>
<polygon fill="#63b8ff" stroke="#63b8ff" points="417.48,-124 427.48,-120.5 417.48,-117 417.48,-124"/>
</a>
</g>
</g>
<!-- Node10 -->
<g id="Node000010" class="node">
<title>Node10</title>
<g id="a_Node000010"><a xlink:href="group__MemoryMonitorImpl.html#gad9472b23817cf18d4ae5c857afb94c5f" target="_top" xlink:title=" ">
<polygon fill="white" stroke="#666666" points="519.5,-56 409.5,-56 409.5,-37 519.5,-37 519.5,-56"/>
<text text-anchor="middle" x="464.5" y="-44" font-family="Helvetica,sans-Serif" font-size="10.00">formatMemorySize</text>
</a>
</g>
</g>
<!-- Node9&#45;&gt;Node10 -->
<g id="edge9_Node000009_Node000010" class="edge">
<title>Node9&#45;&gt;Node10</title>
<g id="a_edge9_Node000009_Node000010"><a xlink:title=" ">
<path fill="none" stroke="#63b8ff" d="M338.09,-46.5C357.46,-46.5 379.27,-46.5 399.21,-46.5"/>
<polygon fill="#63b8ff" stroke="#63b8ff" points="399.44,-50 409.44,-46.5 399.44,-43 399.44,-50"/>
</a>
</g>
</g>
<!-- Node12 -->
<g id="Node000012" class="node">
<title>Node12</title>
<g id="a_Node000012"><a xlink:href="module__executor_8cpp.html#a8e7c4c59b8dda0ef232dc7f9160a8bea" target="_top" xlink:title=" ">
<polygon fill="white" stroke="#666666" points="521.5,-19 407.5,-19 407.5,0 521.5,0 521.5,-19"/>
<text text-anchor="middle" x="464.5" y="-7" font-family="Helvetica,sans-Serif" font-size="10.00">signal_handler_func</text>
</a>
</g>
</g>
<!-- Node11&#45;&gt;Node12 -->
<g id="edge11_Node000011_Node000012" class="edge">
<title>Node11&#45;&gt;Node12</title>
<g id="a_edge11_Node000011_Node000012"><a xlink:title=" ">
<path fill="none" stroke="#63b8ff" d="M343.12,-9.5C360.53,-9.5 379.55,-9.5 397.23,-9.5"/>
<polygon fill="#63b8ff" stroke="#63b8ff" points="397.46,-13 407.46,-9.5 397.46,-6 397.46,-13"/>
</a>
</g>
</g>
</g>
</svg>
