<?xml version="1.0" encoding="UTF-8" standalone="no"?>
<!DOCTYPE svg PUBLIC "-//W3C//DTD SVG 1.1//EN"
 "http://www.w3.org/Graphics/SVG/1.1/DTD/svg11.dtd">
<!-- Generated by graphviz version 2.43.0 (0)
 -->
<!-- Title: execute_extract_command Pages: 1 -->
<svg width="1049pt" height="612pt"
 viewBox="0.00 0.00 1049.00 611.50" xmlns="http://www.w3.org/2000/svg" xmlns:xlink="http://www.w3.org/1999/xlink">
<g id="graph0" class="graph" transform="scale(1 1) rotate(0) translate(4 607.5)">
<title>execute_extract_command</title>
<!-- Node1 -->
<g id="Node000001" class="node">
<title>Node1</title>
<g id="a_Node000001"><a xlink:title=" ">
<polygon fill="#999999" stroke="#666666" points="149,-151 0,-151 0,-132 149,-132 149,-151"/>
<text text-anchor="middle" x="74.5" y="-139" font-family="Helvetica,sans-Serif" font-size="10.00">execute_extract_command</text>
</a>
</g>
</g>
<!-- Node2 -->
<g id="Node000002" class="node">
<title>Node2</title>
<g id="a_Node000002"><a xlink:href="group__MemoryMonitorImpl.html#ga68575ceb301f1a183f19fca872a455d4" target="_top" xlink:title="Detect system memory capacity.">
<polygon fill="white" stroke="#666666" points="876.5,-603.5 751.5,-603.5 751.5,-573.5 876.5,-573.5 876.5,-603.5"/>
<text text-anchor="start" x="759.5" y="-591.5" font-family="Helvetica,sans-Serif" font-size="10.00">MemoryMonitor::get</text>
<text text-anchor="middle" x="814" y="-580.5" font-family="Helvetica,sans-Serif" font-size="10.00">_system_memory_mb</text>
</a>
</g>
</g>
<!-- Node1&#45;&gt;Node2 -->
<g id="edge1_Node000001_Node000002" class="edge">
<title>Node1&#45;&gt;Node2</title>
<g id="a_edge1_Node000001_Node000002"><a xlink:title=" ">
<path fill="none" stroke="#63b8ff" d="M80.97,-151.23C106.56,-195.94 219.41,-383.57 363,-480.5 479.45,-559.11 646.8,-580.72 741.16,-586.52"/>
<polygon fill="#63b8ff" stroke="#63b8ff" points="740.99,-590.02 751.18,-587.09 741.39,-583.03 740.99,-590.02"/>
</a>
</g>
</g>
<!-- Node3 -->
<g id="Node000003" class="node">
<title>Node3</title>
<g id="a_Node000003"><a xlink:href="group__MemoryMonitorImpl.html#ga2f3e6563006e068b95ebf65b9942ccee" target="_top" xlink:title="Process multiple files and output formatted results.">
<polygon fill="white" stroke="#666666" points="327,-245 185,-245 185,-226 327,-226 327,-245"/>
<text text-anchor="middle" x="256" y="-233" font-family="Helvetica,sans-Serif" font-size="10.00">processAndOutputResults</text>
</a>
</g>
</g>
<!-- Node1&#45;&gt;Node3 -->
<g id="edge2_Node000001_Node000003" class="edge">
<title>Node1&#45;&gt;Node3</title>
<g id="a_edge2_Node000001_Node000003"><a xlink:title=" ">
<path fill="none" stroke="#63b8ff" d="M93.7,-151.03C125.28,-167.57 190.4,-201.67 227.52,-221.11"/>
<polygon fill="#63b8ff" stroke="#63b8ff" points="226.27,-224.41 236.75,-225.94 229.52,-218.2 226.27,-224.41"/>
</a>
</g>
</g>
<!-- Node29 -->
<g id="Node000029" class="node">
<title>Node29</title>
<g id="a_Node000029"><a xlink:href="group__UtilityMethods.html#ga436c02962271ec7a790e10983b3d5ba9" target="_top" xlink:title="Convert scheduler type to human&#45;readable name.">
<polygon fill="white" stroke="#666666" points="689,-84.5 567,-84.5 567,-54.5 689,-54.5 689,-84.5"/>
<text text-anchor="start" x="575" y="-72.5" font-family="Helvetica,sans-Serif" font-size="10.00">JobSchedulerDetector</text>
<text text-anchor="middle" x="628" y="-61.5" font-family="Helvetica,sans-Serif" font-size="10.00">::scheduler_name</text>
</a>
</g>
</g>
<!-- Node1&#45;&gt;Node29 -->
<g id="edge45_Node000001_Node000029" class="edge">
<title>Node1&#45;&gt;Node29</title>
<g id="a_edge45_Node000001_Node000029"><a xlink:title=" ">
<path fill="none" stroke="#63b8ff" d="M101.58,-131.91C151.48,-114.13 264.32,-76.65 363,-63.5 428.2,-54.81 445.24,-61.8 511,-63.5 525.74,-63.88 541.53,-64.53 556.55,-65.27"/>
<polygon fill="#63b8ff" stroke="#63b8ff" points="556.65,-68.78 566.82,-65.79 557.01,-61.79 556.65,-68.78"/>
</a>
</g>
</g>
<!-- Node31 -->
<g id="Node000031" class="node">
<title>Node31</title>
<g id="a_Node000031"><a xlink:href="module__executor_8cpp.html#a7df47e37fd55c553b8fd39cf996d786c" target="_top" xlink:title=" ">
<polygon fill="white" stroke="#666666" points="318.5,-19 193.5,-19 193.5,0 318.5,0 318.5,-19"/>
<text text-anchor="middle" x="256" y="-7" font-family="Helvetica,sans-Serif" font-size="10.00">setup_signal_handlers</text>
</a>
</g>
</g>
<!-- Node1&#45;&gt;Node31 -->
<g id="edge46_Node000001_Node000031" class="edge">
<title>Node1&#45;&gt;Node31</title>
<g id="a_edge46_Node000001_Node000031"><a xlink:title=" ">
<path fill="none" stroke="#63b8ff" d="M82.65,-131.98C98.72,-111.22 139.82,-61.47 185,-33.5 191.99,-29.17 199.86,-25.51 207.73,-22.45"/>
<polygon fill="#63b8ff" stroke="#63b8ff" points="209.05,-25.69 217.27,-19.01 206.68,-19.11 209.05,-25.69"/>
</a>
</g>
</g>
<!-- Node4 -->
<g id="Node000004" class="node">
<title>Node4</title>
<g id="a_Node000004"><a xlink:href="group__MemoryMonitorImpl.html#ga92cbfbad3c9f226e74f095b3703edff4" target="_top" xlink:title="Calculate safe memory limit considering job scheduler constraints.">
<polygon fill="white" stroke="#666666" points="511,-471 363,-471 363,-452 511,-452 511,-471"/>
<text text-anchor="middle" x="437" y="-459" font-family="Helvetica,sans-Serif" font-size="10.00">calculateSafeMemoryLimit</text>
</a>
</g>
</g>
<!-- Node3&#45;&gt;Node4 -->
<g id="edge3_Node000003_Node000004" class="edge">
<title>Node3&#45;&gt;Node4</title>
<g id="a_edge3_Node000003_Node000004"><a xlink:title=" ">
<path fill="none" stroke="#63b8ff" d="M260.73,-245.14C272.26,-273.91 309.71,-360.58 363,-415.5 375.41,-428.29 392.05,-439.12 406.3,-447.06"/>
<polygon fill="#63b8ff" stroke="#63b8ff" points="404.79,-450.22 415.26,-451.85 408.09,-444.05 404.79,-450.22"/>
</a>
</g>
</g>
<!-- Node6 -->
<g id="Node000006" class="node">
<title>Node6</title>
<g id="a_Node000006"><a xlink:href="group__MemoryMonitorImpl.html#gaf6946ebbf530a167fc82bb7f20b36a42" target="_top" xlink:title="Calculate safe thread count considering job scheduler limits.">
<polygon fill="white" stroke="#666666" points="509.5,-406 364.5,-406 364.5,-387 509.5,-387 509.5,-406"/>
<text text-anchor="middle" x="437" y="-394" font-family="Helvetica,sans-Serif" font-size="10.00">calculateSafeThreadCount</text>
</a>
</g>
</g>
<!-- Node3&#45;&gt;Node6 -->
<g id="edge6_Node000003_Node000006" class="edge">
<title>Node3&#45;&gt;Node6</title>
<g id="a_edge6_Node000003_Node000006"><a xlink:title=" ">
<path fill="none" stroke="#63b8ff" d="M261.36,-245.21C273.47,-271.05 310.16,-341.96 363,-377.5 366.06,-379.56 369.33,-381.39 372.73,-383.03"/>
<polygon fill="#63b8ff" stroke="#63b8ff" points="371.38,-386.26 381.96,-386.91 374.1,-379.81 371.38,-386.26"/>
</a>
</g>
</g>
<!-- Node7 -->
<g id="Node000007" class="node">
<title>Node7</title>
<g id="a_Node000007"><a xlink:href="group__DetectionMethods.html#ga3e3cf834277c608e8557f70acba55430" target="_top" xlink:title="Detect current job scheduler and extract complete resource information.">
<polygon fill="white" stroke="#666666" points="500,-368.5 374,-368.5 374,-338.5 500,-338.5 500,-368.5"/>
<text text-anchor="start" x="382" y="-356.5" font-family="Helvetica,sans-Serif" font-size="10.00">JobSchedulerDetector</text>
<text text-anchor="middle" x="437" y="-345.5" font-family="Helvetica,sans-Serif" font-size="10.00">::detect_job_resources</text>
</a>
</g>
</g>
<!-- Node3&#45;&gt;Node7 -->
<g id="edge7_Node000003_Node000007" class="edge">
<title>Node3&#45;&gt;Node7</title>
<g id="a_edge7_Node000003_Node000007"><a xlink:title=" ">
<path fill="none" stroke="#63b8ff" d="M265.36,-245.19C282.09,-264 321.63,-305.73 363,-329.5 366.04,-331.25 369.23,-332.89 372.5,-334.43"/>
<polygon fill="#63b8ff" stroke="#63b8ff" points="371.32,-337.73 381.89,-338.5 374.1,-331.31 371.32,-337.73"/>
</a>
</g>
</g>
<!-- Node21 -->
<g id="Node000021" class="node">
<title>Node21</title>
<g id="a_Node000021"><a xlink:href="group__MemoryMonitorImpl.html#gad17c8399509c1c8b6d29fde9d0bcfac3" target="_top" xlink:title="Extract thermodynamic data from a single Gaussian log file.">
<polygon fill="white" stroke="#666666" points="462.5,-320 411.5,-320 411.5,-301 462.5,-301 462.5,-320"/>
<text text-anchor="middle" x="437" y="-308" font-family="Helvetica,sans-Serif" font-size="10.00">extract</text>
</a>
</g>
</g>
<!-- Node3&#45;&gt;Node21 -->
<g id="edge32_Node000003_Node000021" class="edge">
<title>Node3&#45;&gt;Node21</title>
<g id="a_edge32_Node000003_Node000021"><a xlink:title=" ">
<path fill="none" stroke="#63b8ff" d="M271.87,-245.06C291.87,-257.55 328.88,-279.36 363,-292.5 375.18,-297.19 388.98,-300.96 401.28,-303.82"/>
<polygon fill="#63b8ff" stroke="#63b8ff" points="400.68,-307.27 411.19,-306 402.18,-300.43 400.68,-307.27"/>
</a>
</g>
</g>
<!-- Node23 -->
<g id="Node000023" class="node">
<title>Node23</title>
<g id="a_Node000023"><a xlink:href="group__MemoryMonitorImpl.html#ga92b44bc7f664ca63d4213f46ecc7714f" target="_top" xlink:title="Find all Gaussian log files in the current directory.">
<polygon fill="white" stroke="#666666" points="474,-283 400,-283 400,-264 474,-264 474,-283"/>
<text text-anchor="middle" x="437" y="-271" font-family="Helvetica,sans-Serif" font-size="10.00">findLogFiles</text>
</a>
</g>
</g>
<!-- Node3&#45;&gt;Node23 -->
<g id="edge34_Node000003_Node000023" class="edge">
<title>Node3&#45;&gt;Node23</title>
<g id="a_edge34_Node000003_Node000023"><a xlink:title=" ">
<path fill="none" stroke="#63b8ff" d="M302.17,-245.09C328.99,-250.78 362.91,-257.98 389.89,-263.71"/>
<polygon fill="#63b8ff" stroke="#63b8ff" points="389.35,-267.17 399.86,-265.83 390.8,-260.33 389.35,-267.17"/>
</a>
</g>
</g>
<!-- Node24 -->
<g id="Node000024" class="node">
<title>Node24</title>
<g id="a_Node000024"><a xlink:href="group__MemoryMonitorImpl.html#gad9472b23817cf18d4ae5c857afb94c5f" target="_top" xlink:title=" ">
<polygon fill="white" stroke="#666666" points="683,-207 573,-207 573,-188 683,-188 683,-207"/>
<text text-anchor="middle" x="628" y="-195" font-family="Helvetica,sans-Serif" font-size="10.00">formatMemorySize</text>
</a>
</g>
</g>
<!-- Node3&#45;&gt;Node24 -->
<g id="edge35_Node000003_Node000024" class="edge">
<title>Node3&#45;&gt;Node24</title>
<g id="a_edge35_Node000003_Node000024"><a xlink:title=" ">
<path fill="none" stroke="#63b8ff" d="M327.24,-231.91C378.32,-228.89 449.09,-223.87 511,-216.5 528.53,-214.41 547.46,-211.57 564.85,-208.71"/>
<polygon fill="#63b8ff" stroke="#63b8ff" points="565.59,-212.14 574.88,-207.04 564.44,-205.23 565.59,-212.14"/>
</a>
</g>
</g>
<!-- Node25 -->
<g id="Node000025" class="node">
<title>Node25</title>
<g id="a_Node000025"><a xlink:href="namespaceMetadata.html#a4447a0ff55fb6119acf046c55f0729d8" target="_top" xlink:title="Build the standard header banner shown at the top of outputs.">
<polygon fill="white" stroke="#666666" points="488.5,-170 385.5,-170 385.5,-151 488.5,-151 488.5,-170"/>
<text text-anchor="middle" x="437" y="-158" font-family="Helvetica,sans-Serif" font-size="10.00">Metadata::header</text>
</a>
</g>
</g>
<!-- Node3&#45;&gt;Node25 -->
<g id="edge36_Node000003_Node000025" class="edge">
<title>Node3&#45;&gt;Node25</title>
<g id="a_edge36_Node000003_Node000025"><a xlink:title=" ">
<path fill="none" stroke="#63b8ff" d="M272.27,-225.98C292.4,-213.77 329.24,-192.61 363,-179.5 369.32,-177.05 376.06,-174.81 382.8,-172.8"/>
<polygon fill="#63b8ff" stroke="#63b8ff" points="383.96,-176.11 392.63,-170.02 382.05,-169.38 383.96,-176.11"/>
</a>
</g>
</g>
<!-- Node28 -->
<g id="Node000028" class="node">
<title>Node28</title>
<g id="a_Node000028"><a xlink:href="group__MemoryMonitorImpl.html#gaebeb52f9def6bfd4c1ddad8a1d572ae8" target="_top" xlink:title="Print job scheduler resource information.">
<polygon fill="white" stroke="#666666" points="496,-133 378,-133 378,-114 496,-114 496,-133"/>
<text text-anchor="middle" x="437" y="-121" font-family="Helvetica,sans-Serif" font-size="10.00">printJobResourceInfo</text>
</a>
</g>
</g>
<!-- Node3&#45;&gt;Node28 -->
<g id="edge39_Node000003_Node000028" class="edge">
<title>Node3&#45;&gt;Node28</title>
<g id="a_edge39_Node000003_Node000028"><a xlink:title=" ">
<path fill="none" stroke="#63b8ff" d="M265,-225.98C281.4,-207.11 320.82,-164.86 363,-142.5 367.33,-140.21 371.95,-138.18 376.69,-136.38"/>
<polygon fill="#63b8ff" stroke="#63b8ff" points="378.19,-139.57 386.52,-133.03 375.92,-132.95 378.19,-139.57"/>
</a>
</g>
</g>
<!-- Node3&#45;&gt;Node29 -->
<g id="edge44_Node000003_Node000029" class="edge">
<title>Node3&#45;&gt;Node29</title>
<g id="a_edge44_Node000003_Node000029"><a xlink:title=" ">
<path fill="none" stroke="#63b8ff" d="M261.56,-225.92C273.92,-201.14 310.68,-134.85 363,-105.5 422.44,-72.16 500.9,-65.27 556.81,-65.43"/>
<polygon fill="#63b8ff" stroke="#63b8ff" points="556.94,-68.93 566.97,-65.54 557.01,-61.93 556.94,-68.93"/>
</a>
</g>
</g>
<!-- Node30 -->
<g id="Node000030" class="node">
<title>Node30</title>
<g id="a_Node000030"><a xlink:href="group__MemoryMonitorImpl.html#ga9c5d14b4926584b6a71df4a0262ecb5d" target="_top" xlink:title="Print resource usage statistics from processing context.">
<polygon fill="white" stroke="#666666" points="494.5,-207 379.5,-207 379.5,-188 494.5,-188 494.5,-207"/>
<text text-anchor="middle" x="437" y="-195" font-family="Helvetica,sans-Serif" font-size="10.00">printResourceUsage</text>
</a>
</g>
</g>
<!-- Node3&#45;&gt;Node30 -->
<g id="edge42_Node000003_Node000030" class="edge">
<title>Node3&#45;&gt;Node30</title>
<g id="a_edge42_Node000003_Node000030"><a xlink:title=" ">
<path fill="none" stroke="#63b8ff" d="M302.17,-225.91C326.22,-220.81 355.97,-214.49 381.32,-209.11"/>
<polygon fill="#63b8ff" stroke="#63b8ff" points="382.1,-212.52 391.16,-207.02 380.65,-205.67 382.1,-212.52"/>
</a>
</g>
</g>
<!-- Node5 -->
<g id="Node000005" class="node">
<title>Node5</title>
<g id="a_Node000005"><a xlink:href="group__MemoryMonitorImpl.html#ga7abe435ae05ae753fbf7ef4dfa9ce3ff" target="_top" xlink:title="Calculate optimal memory limit for given thread count.">
<polygon fill="white" stroke="#666666" points="700.5,-532.5 555.5,-532.5 555.5,-502.5 700.5,-502.5 700.5,-532.5"/>
<text text-anchor="start" x="563.5" y="-520.5" font-family="Helvetica,sans-Serif" font-size="10.00">MemoryMonitor::calculate</text>
<text text-anchor="middle" x="628" y="-509.5" font-family="Helvetica,sans-Serif" font-size="10.00">_optimal_memory_limit</text>
</a>
</g>
</g>
<!-- Node4&#45;&gt;Node5 -->
<g id="edge4_Node000004_Node000005" class="edge">
<title>Node4&#45;&gt;Node5</title>
<g id="a_edge4_Node000004_Node000005"><a xlink:title=" ">
<path fill="none" stroke="#63b8ff" d="M470.49,-471.13C496.79,-478.92 534.57,-490.11 566.42,-499.55"/>
<polygon fill="#63b8ff" stroke="#63b8ff" points="565.52,-502.93 576.1,-502.42 567.5,-496.22 565.52,-502.93"/>
</a>
</g>
</g>
<!-- Node5&#45;&gt;Node2 -->
<g id="edge5_Node000005_Node000002" class="edge">
<title>Node5&#45;&gt;Node2</title>
<g id="a_edge5_Node000005_Node000002"><a xlink:title=" ">
<path fill="none" stroke="#63b8ff" d="M668.02,-532.56C696.2,-543.43 734.43,-558.18 764.56,-569.81"/>
<polygon fill="#63b8ff" stroke="#63b8ff" points="763.45,-573.13 774.03,-573.46 765.97,-566.6 763.45,-573.13"/>
</a>
</g>
</g>
<!-- Node8 -->
<g id="Node000008" class="node">
<title>Node8</title>
<g id="a_Node000008"><a xlink:href="group__SchedulerSpecific.html#ga3923336c54e169224a24aa725fa039a4" target="_top" xlink:title="Extract resource information from LSF environment.">
<polygon fill="white" stroke="#666666" points="689.5,-474.5 566.5,-474.5 566.5,-444.5 689.5,-444.5 689.5,-474.5"/>
<text text-anchor="start" x="574.5" y="-462.5" font-family="Helvetica,sans-Serif" font-size="10.00">JobSchedulerDetector</text>
<text text-anchor="middle" x="628" y="-451.5" font-family="Helvetica,sans-Serif" font-size="10.00">::detect_lsf_resources</text>
</a>
</g>
</g>
<!-- Node7&#45;&gt;Node8 -->
<g id="edge8_Node000007_Node000008" class="edge">
<title>Node7&#45;&gt;Node8</title>
<g id="a_edge8_Node000007_Node000008"><a xlink:title=" ">
<path fill="none" stroke="#63b8ff" d="M495.02,-368.66C500.71,-371.42 506.16,-374.68 511,-378.5 534.51,-397.08 523.14,-417.38 547,-435.5 550.16,-437.9 553.55,-440.06 557.1,-442"/>
<polygon fill="#63b8ff" stroke="#63b8ff" points="555.65,-445.19 566.18,-446.41 558.71,-438.89 555.65,-445.19"/>
</a>
</g>
</g>
<!-- Node13 -->
<g id="Node000013" class="node">
<title>Node13</title>
<g id="a_Node000013"><a xlink:href="group__SchedulerSpecific.html#ga09d406f8202e5cec41ff257c23ef5031" target="_top" xlink:title="Extract resource information from PBS/Torque environment.">
<polygon fill="white" stroke="#666666" points="692,-378.5 564,-378.5 564,-348.5 692,-348.5 692,-378.5"/>
<text text-anchor="start" x="572" y="-366.5" font-family="Helvetica,sans-Serif" font-size="10.00">JobSchedulerDetector</text>
<text text-anchor="middle" x="628" y="-355.5" font-family="Helvetica,sans-Serif" font-size="10.00">::detect_pbs_resources</text>
</a>
</g>
</g>
<!-- Node7&#45;&gt;Node13 -->
<g id="edge14_Node000007_Node000013" class="edge">
<title>Node7&#45;&gt;Node13</title>
<g id="a_edge14_Node000007_Node000013"><a xlink:title=" ">
<path fill="none" stroke="#63b8ff" d="M500.15,-356.79C517.24,-357.69 535.93,-358.68 553.59,-359.62"/>
<polygon fill="#63b8ff" stroke="#63b8ff" points="553.67,-363.13 563.85,-360.16 554.04,-356.13 553.67,-363.13"/>
</a>
</g>
</g>
<!-- Node15 -->
<g id="Node000015" class="node">
<title>Node15</title>
<g id="a_Node000015"><a xlink:href="group__SchedulerSpecific.html#ga14bd7d5ddf535138b1fa97ce992356f5" target="_top" xlink:title="Extract resource information from SGE/OGS environment.">
<polygon fill="white" stroke="#666666" points="692,-426.5 564,-426.5 564,-396.5 692,-396.5 692,-426.5"/>
<text text-anchor="start" x="572" y="-414.5" font-family="Helvetica,sans-Serif" font-size="10.00">JobSchedulerDetector</text>
<text text-anchor="middle" x="628" y="-403.5" font-family="Helvetica,sans-Serif" font-size="10.00">::detect_sge_resources</text>
</a>
</g>
</g>
<!-- Node7&#45;&gt;Node15 -->
<g id="edge19_Node000007_Node000015" class="edge">
<title>Node7&#45;&gt;Node15</title>
<g id="a_edge19_Node000007_Node000015"><a xlink:title=" ">
<path fill="none" stroke="#63b8ff" d="M485.72,-368.51C504.77,-374.47 526.91,-381.35 547,-387.5 553.43,-389.47 560.15,-391.51 566.85,-393.53"/>
<polygon fill="#63b8ff" stroke="#63b8ff" points="566.03,-396.94 576.62,-396.48 568.05,-390.24 566.03,-396.94"/>
</a>
</g>
</g>
<!-- Node16 -->
<g id="Node000016" class="node">
<title>Node16</title>
<g id="a_Node000016"><a xlink:href="group__SchedulerSpecific.html#ga488877fafdad543d22522f9b85bfd5ba" target="_top" xlink:title="Extract resource information from SLURM environment.">
<polygon fill="white" stroke="#666666" points="697.5,-330.5 558.5,-330.5 558.5,-300.5 697.5,-300.5 697.5,-330.5"/>
<text text-anchor="start" x="566.5" y="-318.5" font-family="Helvetica,sans-Serif" font-size="10.00">JobSchedulerDetector</text>
<text text-anchor="middle" x="628" y="-307.5" font-family="Helvetica,sans-Serif" font-size="10.00">::detect_slurm_resources</text>
</a>
</g>
</g>
<!-- Node7&#45;&gt;Node16 -->
<g id="edge24_Node000007_Node000016" class="edge">
<title>Node7&#45;&gt;Node16</title>
<g id="a_edge24_Node000007_Node000016"><a xlink:title=" ">
<path fill="none" stroke="#63b8ff" d="M500.15,-341C515.56,-337.91 532.28,-334.54 548.37,-331.31"/>
<polygon fill="#63b8ff" stroke="#63b8ff" points="549.17,-334.72 558.29,-329.32 547.79,-327.86 549.17,-334.72"/>
</a>
</g>
</g>
<!-- Node20 -->
<g id="Node000020" class="node">
<title>Node20</title>
<g id="a_Node000020"><a xlink:href="group__DetectionMethods.html#ga4a459ab8a1188d54b0e6304d525d1173" target="_top" xlink:title="Identify the type of job scheduler currently active.">
<polygon fill="white" stroke="#666666" points="875,-115.5 753,-115.5 753,-85.5 875,-85.5 875,-115.5"/>
<text text-anchor="start" x="761" y="-103.5" font-family="Helvetica,sans-Serif" font-size="10.00">JobSchedulerDetector</text>
<text text-anchor="middle" x="814" y="-92.5" font-family="Helvetica,sans-Serif" font-size="10.00">::get_scheduler_type</text>
</a>
</g>
</g>
<!-- Node7&#45;&gt;Node20 -->
<g id="edge30_Node000007_Node000020" class="edge">
<title>Node7&#45;&gt;Node20</title>
<g id="a_edge30_Node000007_Node000020"><a xlink:title=" ">
<path fill="none" stroke="#63b8ff" d="M493.93,-338.34C499.89,-335.79 505.7,-332.86 511,-329.5 530.65,-317.04 526.83,-303.09 547,-291.5 611.13,-254.66 655.63,-304.69 709,-253.5 751.96,-212.3 704.35,-167.98 745,-124.5 745.91,-123.52 746.87,-122.59 747.86,-121.69"/>
<polygon fill="#63b8ff" stroke="#63b8ff" points="750.21,-124.3 756.12,-115.51 746.01,-118.7 750.21,-124.3"/>
</a>
</g>
</g>
<!-- Node9 -->
<g id="Node000009" class="node">
<title>Node9</title>
<g id="a_Node000009"><a xlink:href="group__EnvironmentHelpers.html#gade9468a3b205731f1aa25d53a32edeca" target="_top" xlink:title="Get long integer environment variable value.">
<polygon fill="white" stroke="#666666" points="875,-383.5 753,-383.5 753,-353.5 875,-353.5 875,-383.5"/>
<text text-anchor="start" x="761" y="-371.5" font-family="Helvetica,sans-Serif" font-size="10.00">JobSchedulerDetector</text>
<text text-anchor="middle" x="814" y="-360.5" font-family="Helvetica,sans-Serif" font-size="10.00">::get_env_long</text>
</a>
</g>
</g>
<!-- Node8&#45;&gt;Node9 -->
<g id="edge9_Node000008_Node000009" class="edge">
<title>Node8&#45;&gt;Node9</title>
<g id="a_edge9_Node000008_Node000009"><a xlink:title=" ">
<path fill="none" stroke="#63b8ff" d="M686.54,-444.38C694.22,-441.74 701.89,-438.78 709,-435.5 736.31,-422.91 764.85,-404.06 785.11,-389.55"/>
<polygon fill="#63b8ff" stroke="#63b8ff" points="787.23,-392.34 793.26,-383.63 783.11,-386.68 787.23,-392.34"/>
</a>
</g>
</g>
<!-- Node10 -->
<g id="Node000010" class="node">
<title>Node10</title>
<g id="a_Node000010"><a xlink:href="group__EnvironmentHelpers.html#ga462d9065c82e9250768f5fe6cea9929b" target="_top" xlink:title="Get environment variable value with default fallback.">
<polygon fill="white" stroke="#666666" points="1041,-383.5 919,-383.5 919,-353.5 1041,-353.5 1041,-383.5"/>
<text text-anchor="start" x="927" y="-371.5" font-family="Helvetica,sans-Serif" font-size="10.00">JobSchedulerDetector</text>
<text text-anchor="middle" x="980" y="-360.5" font-family="Helvetica,sans-Serif" font-size="10.00">::get_env_var</text>
</a>
</g>
</g>
<!-- Node8&#45;&gt;Node10 -->
<g id="edge10_Node000008_Node000010" class="edge">
<title>Node8&#45;&gt;Node10</title>
<g id="a_edge10_Node000008_Node000010"><a xlink:title=" ">
<path fill="none" stroke="#63b8ff" d="M671.88,-474.58C684.3,-479.76 697.58,-486.15 709,-493.5 727.25,-505.25 724.77,-518.63 745,-526.5 802.16,-548.73 829.54,-556.57 883,-526.5 933.8,-497.93 960.83,-430.4 972.26,-393.55"/>
<polygon fill="#63b8ff" stroke="#63b8ff" points="975.72,-394.19 975.19,-383.6 969,-392.2 975.72,-394.19"/>
</a>
</g>
</g>
<!-- Node11 -->
<g id="Node000011" class="node">
<title>Node11</title>
<g id="a_Node000011"><a xlink:href="group__DetectionMethods.html#ga34ce79ae6eec92775d73cb4692c52566" target="_top" xlink:title="Extract job ID from scheduler environment.">
<polygon fill="white" stroke="#666666" points="875,-469.5 753,-469.5 753,-439.5 875,-439.5 875,-469.5"/>
<text text-anchor="start" x="761" y="-457.5" font-family="Helvetica,sans-Serif" font-size="10.00">JobSchedulerDetector</text>
<text text-anchor="middle" x="814" y="-446.5" font-family="Helvetica,sans-Serif" font-size="10.00">::get_job_id</text>
</a>
</g>
</g>
<!-- Node8&#45;&gt;Node11 -->
<g id="edge11_Node000008_Node000011" class="edge">
<title>Node8&#45;&gt;Node11</title>
<g id="a_edge11_Node000008_Node000011"><a xlink:title=" ">
<path fill="none" stroke="#63b8ff" d="M689.5,-457.86C706.49,-457.39 725.11,-456.89 742.61,-456.41"/>
<polygon fill="#63b8ff" stroke="#63b8ff" points="742.87,-459.91 752.77,-456.14 742.68,-452.91 742.87,-459.91"/>
</a>
</g>
</g>
<!-- Node12 -->
<g id="Node000012" class="node">
<title>Node12</title>
<g id="a_Node000012"><a xlink:href="group__PrivateParsers.html#gaef6c0a64fcb73d01deb070200fd84a52" target="_top" xlink:title="Parse general memory format strings.">
<polygon fill="white" stroke="#666666" points="883,-517.5 745,-517.5 745,-487.5 883,-487.5 883,-517.5"/>
<text text-anchor="start" x="753" y="-505.5" font-family="Helvetica,sans-Serif" font-size="10.00">JobSchedulerDetector</text>
<text text-anchor="middle" x="814" y="-494.5" font-family="Helvetica,sans-Serif" font-size="10.00">::parse_general_memory</text>
</a>
</g>
</g>
<!-- Node8&#45;&gt;Node12 -->
<g id="edge13_Node000008_Node000012" class="edge">
<title>Node8&#45;&gt;Node12</title>
<g id="a_edge13_Node000008_Node000012"><a xlink:title=" ">
<path fill="none" stroke="#63b8ff" d="M689.5,-473.64C705.2,-477.31 722.3,-481.3 738.62,-485.12"/>
<polygon fill="#63b8ff" stroke="#63b8ff" points="738.13,-488.6 748.66,-487.46 739.72,-481.78 738.13,-488.6"/>
</a>
</g>
</g>
<!-- Node11&#45;&gt;Node10 -->
<g id="edge12_Node000011_Node000010" class="edge">
<title>Node11&#45;&gt;Node10</title>
<g id="a_edge12_Node000011_Node000010"><a xlink:title=" ">
<path fill="none" stroke="#63b8ff" d="M852.82,-439.42C862.76,-435.18 873.39,-430.38 883,-425.5 904.84,-414.42 928.5,-400.4 946.87,-389.03"/>
<polygon fill="#63b8ff" stroke="#63b8ff" points="948.8,-391.95 955.43,-383.69 945.09,-386.01 948.8,-391.95"/>
</a>
</g>
</g>
<!-- Node13&#45;&gt;Node9 -->
<g id="edge15_Node000013_Node000009" class="edge">
<title>Node13&#45;&gt;Node9</title>
<g id="a_edge15_Node000013_Node000009"><a xlink:title=" ">
<path fill="none" stroke="#63b8ff" d="M692.06,-365.21C708.35,-365.66 725.98,-366.14 742.61,-366.59"/>
<polygon fill="#63b8ff" stroke="#63b8ff" points="742.72,-370.09 752.81,-366.86 742.91,-363.09 742.72,-370.09"/>
</a>
</g>
</g>
<!-- Node13&#45;&gt;Node10 -->
<g id="edge16_Node000013_Node000010" class="edge">
<title>Node13&#45;&gt;Node10</title>
<g id="a_edge16_Node000013_Node000010"><a xlink:title=" ">
<path fill="none" stroke="#63b8ff" d="M692.29,-351.23C709.33,-348.44 727.81,-345.9 745,-344.5 806.13,-339.53 822.13,-337.01 883,-344.5 894.72,-345.94 907.07,-348.34 918.87,-351.08"/>
<polygon fill="#63b8ff" stroke="#63b8ff" points="918.08,-354.49 928.62,-353.44 919.73,-347.69 918.08,-354.49"/>
</a>
</g>
</g>
<!-- Node13&#45;&gt;Node11 -->
<g id="edge17_Node000013_Node000011" class="edge">
<title>Node13&#45;&gt;Node11</title>
<g id="a_edge17_Node000013_Node000011"><a xlink:title=" ">
<path fill="none" stroke="#63b8ff" d="M686.54,-378.62C694.22,-381.26 701.89,-384.22 709,-387.5 736.31,-400.09 764.85,-418.94 785.11,-433.45"/>
<polygon fill="#63b8ff" stroke="#63b8ff" points="783.11,-436.32 793.26,-439.37 787.23,-430.66 783.11,-436.32"/>
</a>
</g>
</g>
<!-- Node14 -->
<g id="Node000014" class="node">
<title>Node14</title>
<g id="a_Node000014"><a xlink:href="group__PrivateParsers.html#ga9bed72466ae8b04e8fe80827e482bd59" target="_top" xlink:title="Parse PBS/Torque&#45;specific memory format strings.">
<polygon fill="white" stroke="#666666" points="875,-297.5 753,-297.5 753,-267.5 875,-267.5 875,-297.5"/>
<text text-anchor="start" x="761" y="-285.5" font-family="Helvetica,sans-Serif" font-size="10.00">JobSchedulerDetector</text>
<text text-anchor="middle" x="814" y="-274.5" font-family="Helvetica,sans-Serif" font-size="10.00">::parse_pbs_memory</text>
</a>
</g>
</g>
<!-- Node13&#45;&gt;Node14 -->
<g id="edge18_Node000013_Node000014" class="edge">
<title>Node13&#45;&gt;Node14</title>
<g id="a_edge18_Node000013_Node000014"><a xlink:title=" ">
<path fill="none" stroke="#63b8ff" d="M688.52,-348.35C695.58,-345.76 702.56,-342.82 709,-339.5 727.01,-330.21 727.53,-321.78 745,-311.5 750.87,-308.04 757.23,-304.77 763.62,-301.76"/>
<polygon fill="#63b8ff" stroke="#63b8ff" points="765.29,-304.85 772.96,-297.54 762.41,-298.47 765.29,-304.85"/>
</a>
</g>
</g>
<!-- Node15&#45;&gt;Node9 -->
<g id="edge20_Node000015_Node000009" class="edge">
<title>Node15&#45;&gt;Node9</title>
<g id="a_edge20_Node000015_Node000009"><a xlink:title=" ">
<path fill="none" stroke="#63b8ff" d="M692.06,-396.76C708.35,-392.96 725.98,-388.84 742.61,-384.95"/>
<polygon fill="#63b8ff" stroke="#63b8ff" points="743.87,-388.25 752.81,-382.57 742.28,-381.43 743.87,-388.25"/>
</a>
</g>
</g>
<!-- Node15&#45;&gt;Node10 -->
<g id="edge21_Node000015_Node000010" class="edge">
<title>Node15&#45;&gt;Node10</title>
<g id="a_edge21_Node000015_Node000010"><a xlink:title=" ">
<path fill="none" stroke="#63b8ff" d="M692.24,-409.76C743.84,-407.62 818.5,-402.9 883,-392.5 893.71,-390.77 904.98,-388.44 915.88,-385.9"/>
<polygon fill="#63b8ff" stroke="#63b8ff" points="916.86,-389.26 925.77,-383.52 915.22,-382.46 916.86,-389.26"/>
</a>
</g>
</g>
<!-- Node15&#45;&gt;Node11 -->
<g id="edge22_Node000015_Node000011" class="edge">
<title>Node15&#45;&gt;Node11</title>
<g id="a_edge22_Node000015_Node000011"><a xlink:title=" ">
<path fill="none" stroke="#63b8ff" d="M692.06,-426.24C708.35,-430.04 725.98,-434.16 742.61,-438.05"/>
<polygon fill="#63b8ff" stroke="#63b8ff" points="742.28,-441.57 752.81,-440.43 743.87,-434.75 742.28,-441.57"/>
</a>
</g>
</g>
<!-- Node15&#45;&gt;Node12 -->
<g id="edge23_Node000015_Node000012" class="edge">
<title>Node15&#45;&gt;Node12</title>
<g id="a_edge23_Node000015_Node000012"><a xlink:title=" ">
<path fill="none" stroke="#63b8ff" d="M692.17,-426.57C698.08,-429.11 703.79,-432.07 709,-435.5 729.81,-449.21 724.52,-464.29 745,-478.5 747.24,-480.05 749.59,-481.51 752.01,-482.89"/>
<polygon fill="#63b8ff" stroke="#63b8ff" points="750.55,-486.08 761.05,-487.5 753.73,-479.84 750.55,-486.08"/>
</a>
</g>
</g>
<!-- Node16&#45;&gt;Node9 -->
<g id="edge25_Node000016_Node000009" class="edge">
<title>Node16&#45;&gt;Node9</title>
<g id="a_edge25_Node000016_Node000009"><a xlink:title=" ">
<path fill="none" stroke="#63b8ff" d="M681.23,-330.55C702.89,-336.78 728.19,-344.07 750.8,-350.58"/>
<polygon fill="#63b8ff" stroke="#63b8ff" points="750.06,-354.01 760.63,-353.42 751.99,-347.29 750.06,-354.01"/>
</a>
</g>
</g>
<!-- Node16&#45;&gt;Node10 -->
<g id="edge26_Node000016_Node000010" class="edge">
<title>Node16&#45;&gt;Node10</title>
<g id="a_edge26_Node000016_Node000010"><a xlink:title=" ">
<path fill="none" stroke="#63b8ff" d="M678.3,-300.38C688.71,-296.44 699.43,-291.78 709,-286.5 726.75,-276.7 725.83,-265.08 745,-258.5 803.01,-238.6 827.16,-233.12 883,-258.5 921.6,-276.05 950.74,-317.63 966.31,-344.34"/>
<polygon fill="#63b8ff" stroke="#63b8ff" points="963.29,-346.11 971.24,-353.11 969.39,-342.68 963.29,-346.11"/>
</a>
</g>
</g>
<!-- Node17 -->
<g id="Node000017" class="node">
<title>Node17</title>
<g id="a_Node000017"><a xlink:href="group__PrivateParsers.html#ga37457b3648093985d27e8e01069d3162" target="_top" xlink:title="Parse CPU list specification to count.">
<polygon fill="white" stroke="#666666" points="875,-211.5 753,-211.5 753,-181.5 875,-181.5 875,-211.5"/>
<text text-anchor="start" x="761" y="-199.5" font-family="Helvetica,sans-Serif" font-size="10.00">JobSchedulerDetector</text>
<text text-anchor="middle" x="814" y="-188.5" font-family="Helvetica,sans-Serif" font-size="10.00">::parse_cpu_list</text>
</a>
</g>
</g>
<!-- Node16&#45;&gt;Node17 -->
<g id="edge27_Node000016_Node000017" class="edge">
<title>Node16&#45;&gt;Node17</title>
<g id="a_edge27_Node000016_Node000017"><a xlink:title=" ">
<path fill="none" stroke="#63b8ff" d="M685.88,-300.49C694.16,-296.76 702.18,-292.16 709,-286.5 733.22,-266.4 721.34,-246.27 745,-225.5 748.82,-222.15 753.09,-219.14 757.57,-216.44"/>
<polygon fill="#63b8ff" stroke="#63b8ff" points="759.28,-219.5 766.4,-211.65 755.94,-213.35 759.28,-219.5"/>
</a>
</g>
</g>
<!-- Node19 -->
<g id="Node000019" class="node">
<title>Node19</title>
<g id="a_Node000019"><a xlink:href="group__PrivateParsers.html#ga5d5c5c72d1fadf00e71c24290a7780df" target="_top" xlink:title="Parse SLURM&#45;specific memory format strings.">
<polygon fill="white" stroke="#666666" points="878.5,-163.5 749.5,-163.5 749.5,-133.5 878.5,-133.5 878.5,-163.5"/>
<text text-anchor="start" x="757.5" y="-151.5" font-family="Helvetica,sans-Serif" font-size="10.00">JobSchedulerDetector</text>
<text text-anchor="middle" x="814" y="-140.5" font-family="Helvetica,sans-Serif" font-size="10.00">::parse_slurm_memory</text>
</a>
</g>
</g>
<!-- Node16&#45;&gt;Node19 -->
<g id="edge29_Node000016_Node000019" class="edge">
<title>Node16&#45;&gt;Node19</title>
<g id="a_edge29_Node000016_Node000019"><a xlink:title=" ">
<path fill="none" stroke="#63b8ff" d="M689.91,-300.37C696.98,-296.71 703.58,-292.15 709,-286.5 745.78,-248.15 708.06,-210.69 745,-172.5 745.93,-171.54 746.9,-170.61 747.91,-169.73"/>
<polygon fill="#63b8ff" stroke="#63b8ff" points="750.24,-172.36 756.24,-163.63 746.11,-166.71 750.24,-172.36"/>
</a>
</g>
</g>
<!-- Node18 -->
<g id="Node000018" class="node">
<title>Node18</title>
<g id="a_Node000018"><a xlink:href="group__PrivateParsers.html#gaa8c311f7460c6345a998c3480d995ec8" target="_top" xlink:title="Parse CPU range specification to count.">
<polygon fill="white" stroke="#666666" points="1041,-211.5 919,-211.5 919,-181.5 1041,-181.5 1041,-211.5"/>
<text text-anchor="start" x="927" y="-199.5" font-family="Helvetica,sans-Serif" font-size="10.00">JobSchedulerDetector</text>
<text text-anchor="middle" x="980" y="-188.5" font-family="Helvetica,sans-Serif" font-size="10.00">::parse_cpu_range</text>
</a>
</g>
</g>
<!-- Node17&#45;&gt;Node18 -->
<g id="edge28_Node000017_Node000018" class="edge">
<title>Node17&#45;&gt;Node18</title>
<g id="a_edge28_Node000017_Node000018"><a xlink:title=" ">
<path fill="none" stroke="#63b8ff" d="M875.14,-196.5C886.05,-196.5 897.53,-196.5 908.71,-196.5"/>
<polygon fill="#63b8ff" stroke="#63b8ff" points="908.87,-200 918.87,-196.5 908.87,-193 908.87,-200"/>
</a>
</g>
</g>
<!-- Node20&#45;&gt;Node10 -->
<g id="edge31_Node000020_Node000010" class="edge">
<title>Node20&#45;&gt;Node10</title>
<g id="a_edge31_Node000020_Node000010"><a xlink:title=" ">
<path fill="none" stroke="#63b8ff" d="M871.23,-115.63C875.51,-118.15 879.51,-121.08 883,-124.5 915.53,-156.41 902.44,-178.05 919,-220.5 936.04,-264.17 956.74,-314.71 968.84,-344"/>
<polygon fill="#63b8ff" stroke="#63b8ff" points="965.68,-345.52 972.74,-353.43 972.15,-342.85 965.68,-345.52"/>
</a>
</g>
</g>
<!-- Node22 -->
<g id="Node000022" class="node">
<title>Node22</title>
<g id="a_Node000022"><a xlink:href="group__MemoryMonitorImpl.html#ga131e6ac5862047eda88e31ac535d9229" target="_top" xlink:title="Safely convert string to double with error handling.">
<polygon fill="white" stroke="#666666" points="660,-244 596,-244 596,-225 660,-225 660,-244"/>
<text text-anchor="middle" x="628" y="-232" font-family="Helvetica,sans-Serif" font-size="10.00">safe_stod</text>
</a>
</g>
</g>
<!-- Node21&#45;&gt;Node22 -->
<g id="edge33_Node000021_Node000022" class="edge">
<title>Node21&#45;&gt;Node22</title>
<g id="a_edge33_Node000021_Node000022"><a xlink:title=" ">
<path fill="none" stroke="#63b8ff" d="M462.82,-307.62C477.51,-305.14 496.1,-300.62 511,-292.5 530.32,-281.96 527.95,-269.51 547,-258.5 558.79,-251.69 572.69,-246.64 585.57,-242.99"/>
<polygon fill="#63b8ff" stroke="#63b8ff" points="586.84,-246.27 595.62,-240.34 585.06,-239.5 586.84,-246.27"/>
</a>
</g>
</g>
<!-- Node26 -->
<g id="Node000026" class="node">
<title>Node26</title>
<g id="a_Node000026"><a xlink:href="namespaceMetadata.html#ab855c758bd53604611f38268f1c58481" target="_top" xlink:title=" ">
<polygon fill="white" stroke="#666666" points="709,-170 547,-170 547,-151 709,-151 709,-170"/>
<text text-anchor="middle" x="628" y="-158" font-family="Helvetica,sans-Serif" font-size="10.00">Metadata::create_header_line</text>
</a>
</g>
</g>
<!-- Node25&#45;&gt;Node26 -->
<g id="edge37_Node000025_Node000026" class="edge">
<title>Node25&#45;&gt;Node26</title>
<g id="a_edge37_Node000025_Node000026"><a xlink:title=" ">
<path fill="none" stroke="#63b8ff" d="M488.65,-160.5C503.5,-160.5 520.21,-160.5 536.74,-160.5"/>
<polygon fill="#63b8ff" stroke="#63b8ff" points="536.99,-164 546.99,-160.5 536.99,-157 536.99,-164"/>
</a>
</g>
</g>
<!-- Node27 -->
<g id="Node000027" class="node">
<title>Node27</title>
<g id="a_Node000027"><a xlink:href="group__VersionFunctions.html#ga546fbcfeb96704c283dd3b0d080daf11" target="_top" xlink:title="Get header information for program output.">
<polygon fill="white" stroke="#666666" points="684,-132.5 572,-132.5 572,-102.5 684,-102.5 684,-132.5"/>
<text text-anchor="start" x="580" y="-120.5" font-family="Helvetica,sans-Serif" font-size="10.00">GaussianExtractor::</text>
<text text-anchor="middle" x="628" y="-109.5" font-family="Helvetica,sans-Serif" font-size="10.00">get_header_info</text>
</a>
</g>
</g>
<!-- Node25&#45;&gt;Node27 -->
<g id="edge38_Node000025_Node000027" class="edge">
<title>Node25&#45;&gt;Node27</title>
<g id="a_edge38_Node000025_Node000027"><a xlink:title=" ">
<path fill="none" stroke="#63b8ff" d="M479.95,-150.96C504.06,-145.47 534.88,-138.46 562.06,-132.27"/>
<polygon fill="#63b8ff" stroke="#63b8ff" points="562.92,-135.67 571.89,-130.04 561.37,-128.84 562.92,-135.67"/>
</a>
</g>
</g>
<!-- Node28&#45;&gt;Node24 -->
<g id="edge40_Node000028_Node000024" class="edge">
<title>Node28&#45;&gt;Node24</title>
<g id="a_edge40_Node000028_Node000024"><a xlink:title=" ">
<path fill="none" stroke="#63b8ff" d="M489.29,-133.04C496.84,-135.51 504.32,-138.61 511,-142.5 530.83,-154.04 526.98,-168.3 547,-179.5 552.09,-182.35 557.61,-184.75 563.28,-186.77"/>
<polygon fill="#63b8ff" stroke="#63b8ff" points="562.33,-190.14 572.92,-189.82 564.44,-183.47 562.33,-190.14"/>
</a>
</g>
</g>
<!-- Node28&#45;&gt;Node29 -->
<g id="edge41_Node000028_Node000029" class="edge">
<title>Node28&#45;&gt;Node29</title>
<g id="a_edge41_Node000028_Node000029"><a xlink:title=" ">
<path fill="none" stroke="#63b8ff" d="M471.35,-113.97C497.08,-106.62 533.39,-96.24 564.48,-87.36"/>
<polygon fill="#63b8ff" stroke="#63b8ff" points="565.71,-90.65 574.36,-84.54 563.79,-83.92 565.71,-90.65"/>
</a>
</g>
</g>
<!-- Node30&#45;&gt;Node24 -->
<g id="edge43_Node000030_Node000024" class="edge">
<title>Node30&#45;&gt;Node24</title>
<g id="a_edge43_Node000030_Node000024"><a xlink:title=" ">
<path fill="none" stroke="#63b8ff" d="M494.71,-197.5C516.11,-197.5 540.61,-197.5 562.66,-197.5"/>
<polygon fill="#63b8ff" stroke="#63b8ff" points="562.93,-201 572.93,-197.5 562.93,-194 562.93,-201"/>
</a>
</g>
</g>
<!-- Node32 -->
<g id="Node000032" class="node">
<title>Node32</title>
<g id="a_Node000032"><a xlink:href="module__executor_8cpp.html#a8e7c4c59b8dda0ef232dc7f9160a8bea" target="_top" xlink:title=" ">
<polygon fill="white" stroke="#666666" points="494,-19 380,-19 380,0 494,0 494,-19"/>
<text text-anchor="middle" x="437" y="-7" font-family="Helvetica,sans-Serif" font-size="10.00">signal_handler_func</text>
</a>
</g>
</g>
<!-- Node31&#45;&gt;Node32 -->
<g id="edge47_Node000031_Node000032" class="edge">
<title>Node31&#45;&gt;Node32</title>
<g id="a_edge47_Node000031_Node000032"><a xlink:title=" ">
<path fill="none" stroke="#63b8ff" d="M318.6,-9.5C335.1,-9.5 353,-9.5 369.74,-9.5"/>
<polygon fill="#63b8ff" stroke="#63b8ff" points="369.99,-13 379.99,-9.5 369.99,-6 369.99,-13"/>
</a>
</g>
</g>
</g>
</svg>
