<?xml version="1.0" encoding="UTF-8" standalone="no"?>
<!DOCTYPE svg PUBLIC "-//W3C//DTD SVG 1.1//EN"
 "http://www.w3.org/Graphics/SVG/1.1/DTD/svg11.dtd">
<!-- Generated by graphviz version 2.43.0 (0)
 -->
<!-- Title: execute_extract_coords_command Pages: 1 -->
<!--zoomable 381 -->

<svg id="main" version="1.1" xmlns="http://www.w3.org/2000/svg" xmlns:xlink="http://www.w3.org/1999/xlink" xml:space="preserve" onload="init(evt)">
<style type="text/css"><![CDATA[
.node, .edge {opacity: 0.7;}
.node.selected, .edge.selected {opacity: 1;}
.edge:hover path { stroke: red; }
.edge:hover polygon { stroke: red; fill: red; }
]]></style>

<defs>
  <circle id="rim" cx="0" cy="0" r="7"/>
  <circle id="rim2" cx="0" cy="0" r="3.5"/>
  <g id="zoomPlus">
    <use xlink:href="#rim" fill="#404040"><set attributeName="fill" to="#808080" begin="zoomplus.mouseover" end="zoomplus.mouseout"/></use>
    <path d="M-4,0h8M0,-4v8" fill="none" stroke="white" stroke-width="1.5" pointer-events="none"/>
  </g>
  <g id="zoomMin">
    <use xlink:href="#rim" fill="#404040"><set attributeName="fill" to="#808080" begin="zoomminus.mouseover" end="zoomminus.mouseout"/></use>
    <path d="M-4,0h8" fill="none" stroke="white" stroke-width="1.5" pointer-events="none"/>
  </g>
  <g id="arrowUp" transform="translate(30 24)">
    <use xlink:href="#rim"/>
    <path pointer-events="none" fill="none" stroke="white" stroke-width="1.5" d="M0,-3.0v7 M-2.5,-0.5L0,-3.0L2.5,-0.5"/>
  </g>
  <g id="arrowRight" transform="rotate(90) translate(36 -43)">
    <use xlink:href="#rim"/>
    <path pointer-events="none" fill="none" stroke="white" stroke-width="1.5" d="M0,-3.0v7 M-2.5,-0.5L0,-3.0L2.5,-0.5"/>
  </g>
  <g id="arrowDown" transform="rotate(180) translate(-30 -48)">
    <use xlink:href="#rim"/>
    <path pointer-events="none" fill="none" stroke="white" stroke-width="1.5" d="M0,-3.0v7 M-2.5,-0.5L0,-3.0L2.5,-0.5"/>
  </g>
  <g id="arrowLeft" transform="rotate(270) translate(-36 17)">
    <use xlink:href="#rim"/>
    <path pointer-events="none" fill="none" stroke="white" stroke-width="1.5" d="M0,-3.0v7 M-2.5,-0.5L0,-3.0L2.5,-0.5"/>
  </g>
  <g id="resetDef">
    <use xlink:href="#rim2" fill="#404040"><set attributeName="fill" to="#808080" begin="reset.mouseover" end="reset.mouseout"/></use>
  </g>
</defs>
<script type="application/ecmascript">
var viewWidth = 808;
var viewHeight = 381;
var sectionId = 'dynsection-17';
</script>
<script type="application/ecmascript" xlink:href="svg.min.js"/>
<svg id="graph" class="graph">
<g id="viewport">
<title>execute_extract_coords_command</title>
<!-- Node1 -->
<g id="Node000001" class="node">
<title>Node1</title>
<g id="a_Node000001"><a xlink:title=" ">
<polygon fill="#999999" stroke="#666666" points="132,-115.5 0,-115.5 0,-85.5 132,-85.5 132,-115.5"/>
<text text-anchor="start" x="8" y="-103.5" font-family="Helvetica,sans-Serif" font-size="10.00">execute_extract_coords</text>
<text text-anchor="middle" x="66" y="-92.5" font-family="Helvetica,sans-Serif" font-size="10.00">_command</text>
</a>
</g>
</g>
<!-- Node2 -->
<g id="Node000002" class="node">
<title>Node2</title>
<g id="a_Node000002"><a xlink:href="classCoordExtractor.html#a94f396e2c1c6511af85c9277bb2d0680" target="_top" xlink:title="Extract coordinates from multiple log files.">
<polygon fill="white" stroke="#666666" points="298,-273.5 168,-273.5 168,-243.5 298,-243.5 298,-273.5"/>
<text text-anchor="start" x="176" y="-261.5" font-family="Helvetica,sans-Serif" font-size="10.00">CoordExtractor::extract</text>
<text text-anchor="middle" x="233" y="-250.5" font-family="Helvetica,sans-Serif" font-size="10.00">_coordinates</text>
</a>
</g>
</g>
<!-- Node1&#45;&gt;Node2 -->
<g id="edge1_Node000001_Node000002" class="edge">
<title>Node1&#45;&gt;Node2</title>
<g id="a_edge1_Node000001_Node000002"><a xlink:title=" ">
<path fill="none" stroke="#63b8ff" d="M82.82,-115.65C111.94,-143.54 174.18,-203.13 208.34,-235.84"/>
<polygon fill="#63b8ff" stroke="#63b8ff" points="206.34,-238.78 215.98,-243.16 211.18,-233.72 206.34,-238.78"/>
</a>
</g>
</g>
<!-- Node13 -->
<g id="Node000013" class="node">
<title>Node13</title>
<g id="a_Node000013"><a xlink:href="group__MemoryMonitorImpl.html#ga9a325bd1793b5dc5e9490383802ad169" target="_top" xlink:title=" ">
<polygon fill="white" stroke="#666666" points="270,-153 196,-153 196,-134 270,-134 270,-153"/>
<text text-anchor="middle" x="233" y="-141" font-family="Helvetica,sans-Serif" font-size="10.00">findLogFiles</text>
</a>
</g>
</g>
<!-- Node1&#45;&gt;Node13 -->
<g id="edge13_Node000001_Node000013" class="edge">
<title>Node1&#45;&gt;Node13</title>
<g id="a_edge13_Node000001_Node000013"><a xlink:title=" ">
<path fill="none" stroke="#63b8ff" d="M124.71,-115.54C144.72,-120.75 166.87,-126.53 185.83,-131.47"/>
<polygon fill="#63b8ff" stroke="#63b8ff" points="185.15,-134.91 195.71,-134.04 186.91,-128.13 185.15,-134.91"/>
</a>
</g>
</g>
<!-- Node15 -->
<g id="Node000015" class="node">
<title>Node15</title>
<g id="a_Node000015"><a xlink:href="group__JobFileUtils.html#ga2946f175c06fc2a63a822b44db814ffa" target="_top" xlink:title="Validate that a log file is suitable for processing.">
<polygon fill="white" stroke="#666666" points="286.5,-115.5 179.5,-115.5 179.5,-85.5 286.5,-85.5 286.5,-115.5"/>
<text text-anchor="start" x="187.5" y="-103.5" font-family="Helvetica,sans-Serif" font-size="10.00">JobCheckerUtils::is</text>
<text text-anchor="middle" x="233" y="-92.5" font-family="Helvetica,sans-Serif" font-size="10.00">_valid_log_file</text>
</a>
</g>
</g>
<!-- Node1&#45;&gt;Node15 -->
<g id="edge15_Node000001_Node000015" class="edge">
<title>Node1&#45;&gt;Node15</title>
<g id="a_edge15_Node000001_Node000015"><a xlink:title=" ">
<path fill="none" stroke="#63b8ff" d="M132.21,-100.5C144.46,-100.5 157.23,-100.5 169.4,-100.5"/>
<polygon fill="#63b8ff" stroke="#63b8ff" points="169.45,-104 179.45,-100.5 169.45,-97 169.45,-104"/>
</a>
</g>
</g>
<!-- Node18 -->
<g id="Node000018" class="node">
<title>Node18</title>
<g id="a_Node000018"><a xlink:href="classCoordExtractor.html#a9902c84eefb59359952dc09c16027109" target="_top" xlink:title="Print extraction summary.">
<polygon fill="white" stroke="#666666" points="292,-67.5 174,-67.5 174,-37.5 292,-37.5 292,-67.5"/>
<text text-anchor="start" x="182" y="-55.5" font-family="Helvetica,sans-Serif" font-size="10.00">CoordExtractor::print</text>
<text text-anchor="middle" x="233" y="-44.5" font-family="Helvetica,sans-Serif" font-size="10.00">_summary</text>
</a>
</g>
</g>
<!-- Node1&#45;&gt;Node18 -->
<g id="edge18_Node000001_Node000018" class="edge">
<title>Node1&#45;&gt;Node18</title>
<g id="a_edge18_Node000001_Node000018"><a xlink:title=" ">
<path fill="none" stroke="#63b8ff" d="M118.75,-85.44C135.19,-80.66 153.52,-75.33 170.57,-70.37"/>
<polygon fill="#63b8ff" stroke="#63b8ff" points="171.81,-73.66 180.43,-67.5 169.85,-66.94 171.81,-73.66"/>
</a>
</g>
</g>
<!-- Node19 -->
<g id="Node000019" class="node">
<title>Node19</title>
<g id="a_Node000019"><a xlink:href="module__executor_8cpp.html#a7df47e37fd55c553b8fd39cf996d786c" target="_top" xlink:title=" ">
<polygon fill="white" stroke="#666666" points="295.5,-19 170.5,-19 170.5,0 295.5,0 295.5,-19"/>
<text text-anchor="middle" x="233" y="-7" font-family="Helvetica,sans-Serif" font-size="10.00">setup_signal_handlers</text>
</a>
</g>
</g>
<!-- Node1&#45;&gt;Node19 -->
<g id="edge19_Node000001_Node000019" class="edge">
<title>Node1&#45;&gt;Node19</title>
<g id="a_edge19_Node000001_Node000019"><a xlink:title=" ">
<path fill="none" stroke="#63b8ff" d="M84.46,-85.29C103.74,-69.18 136.26,-43.99 168,-28.5 172.63,-26.24 177.59,-24.19 182.62,-22.35"/>
<polygon fill="#63b8ff" stroke="#63b8ff" points="183.96,-25.59 192.3,-19.06 181.71,-18.96 183.96,-25.59"/>
</a>
</g>
</g>
<!-- Node3 -->
<g id="Node000003" class="node">
<title>Node3</title>
<g id="a_Node000003"><a xlink:href="group__MemoryMonitorImpl.html#gaf6946ebbf530a167fc82bb7f20b36a42" target="_top" xlink:title="Calculate safe thread count considering job scheduler limits.">
<polygon fill="white" stroke="#666666" points="479,-373 334,-373 334,-354 479,-354 479,-373"/>
<text text-anchor="middle" x="406.5" y="-361" font-family="Helvetica,sans-Serif" font-size="10.00">calculateSafeThreadCount</text>
</a>
</g>
</g>
<!-- Node2&#45;&gt;Node3 -->
<g id="edge2_Node000002_Node000003" class="edge">
<title>Node2&#45;&gt;Node3</title>
<g id="a_edge2_Node000002_Node000003"><a xlink:title=" ">
<path fill="none" stroke="#63b8ff" d="M249,-273.59C267.54,-291.49 300.71,-321.21 334,-339.5 341.84,-343.81 350.58,-347.52 359.19,-350.66"/>
<polygon fill="#63b8ff" stroke="#63b8ff" points="358.21,-354.02 368.8,-353.95 360.48,-347.4 358.21,-354.02"/>
</a>
</g>
</g>
<!-- Node4 -->
<g id="Node000004" class="node">
<title>Node4</title>
<g id="a_Node000004"><a xlink:href="classCoordExtractor.html#a24758c2d26fd73e7f861a33fd726b5a0" target="_top" xlink:title="Extract coordinates from a single log file.">
<polygon fill="white" stroke="#666666" points="471.5,-297.5 341.5,-297.5 341.5,-267.5 471.5,-267.5 471.5,-297.5"/>
<text text-anchor="start" x="349.5" y="-285.5" font-family="Helvetica,sans-Serif" font-size="10.00">CoordExtractor::extract</text>
<text text-anchor="middle" x="406.5" y="-274.5" font-family="Helvetica,sans-Serif" font-size="10.00">_from_file</text>
</a>
</g>
</g>
<!-- Node2&#45;&gt;Node4 -->
<g id="edge3_Node000002_Node000004" class="edge">
<title>Node2&#45;&gt;Node4</title>
<g id="a_edge3_Node000002_Node000004"><a xlink:title=" ">
<path fill="none" stroke="#63b8ff" d="M298.35,-267.5C309.12,-269.01 320.37,-270.59 331.36,-272.12"/>
<polygon fill="#63b8ff" stroke="#63b8ff" points="330.97,-275.6 341.36,-273.52 331.94,-268.67 330.97,-275.6"/>
</a>
</g>
</g>
<!-- Node5 -->
<g id="Node000005" class="node">
<title>Node5</title>
<g id="a_Node000005"><a xlink:href="classCoordExtractor.html#a7f6b5926c0427bb91796d70a7041f4cb" target="_top" xlink:title="Generate output XYZ filename from log file.">
<polygon fill="white" stroke="#666666" points="654,-364.5 515,-364.5 515,-334.5 654,-334.5 654,-364.5"/>
<text text-anchor="start" x="523" y="-352.5" font-family="Helvetica,sans-Serif" font-size="10.00">CoordExtractor::generate</text>
<text text-anchor="middle" x="584.5" y="-341.5" font-family="Helvetica,sans-Serif" font-size="10.00">_xyz_filename</text>
</a>
</g>
</g>
<!-- Node2&#45;&gt;Node5 -->
<g id="edge7_Node000002_Node000005" class="edge">
<title>Node2&#45;&gt;Node5</title>
<g id="a_edge7_Node000002_Node000005"><a xlink:title=" ">
<path fill="none" stroke="#63b8ff" d="M260.33,-273.63C280.03,-284.32 307.95,-298.18 334,-306.5 389.72,-324.29 454.94,-335.21 504.71,-341.59"/>
<polygon fill="#63b8ff" stroke="#63b8ff" points="504.42,-345.08 514.78,-342.84 505.29,-338.13 504.42,-345.08"/>
</a>
</g>
</g>
<!-- Node8 -->
<g id="Node000008" class="node">
<title>Node8</title>
<g id="a_Node000008"><a xlink:href="classCoordExtractor.html#aefc7d1a1fe3d6e5e2510abda5be3ac0f" target="_top" xlink:title="Move XYZ file to appropriate directory based on job status.">
<polygon fill="white" stroke="#666666" points="468,-249.5 345,-249.5 345,-219.5 468,-219.5 468,-249.5"/>
<text text-anchor="start" x="353" y="-237.5" font-family="Helvetica,sans-Serif" font-size="10.00">CoordExtractor::move</text>
<text text-anchor="middle" x="406.5" y="-226.5" font-family="Helvetica,sans-Serif" font-size="10.00">_xyz_file</text>
</a>
</g>
</g>
<!-- Node2&#45;&gt;Node8 -->
<g id="edge8_Node000002_Node000008" class="edge">
<title>Node2&#45;&gt;Node8</title>
<g id="a_edge8_Node000002_Node000008"><a xlink:title=" ">
<path fill="none" stroke="#63b8ff" d="M298.35,-249.5C310.23,-247.83 322.7,-246.09 334.75,-244.4"/>
<polygon fill="#63b8ff" stroke="#63b8ff" points="335.35,-247.85 344.76,-243 334.38,-240.92 335.35,-247.85"/>
</a>
</g>
</g>
<!-- Node12 -->
<g id="Node000012" class="node">
<title>Node12</title>
<g id="a_Node000012"><a xlink:href="classCoordExtractor.html#a4b817f57c98bda0307716960d491eacf" target="_top" xlink:title="Report progress of extraction.">
<polygon fill="white" stroke="#666666" points="469,-201.5 344,-201.5 344,-171.5 469,-171.5 469,-201.5"/>
<text text-anchor="start" x="352" y="-189.5" font-family="Helvetica,sans-Serif" font-size="10.00">CoordExtractor::report</text>
<text text-anchor="middle" x="406.5" y="-178.5" font-family="Helvetica,sans-Serif" font-size="10.00">_progress</text>
</a>
</g>
</g>
<!-- Node2&#45;&gt;Node12 -->
<g id="edge12_Node000002_Node000012" class="edge">
<title>Node2&#45;&gt;Node12</title>
<g id="a_edge12_Node000002_Node000012"><a xlink:title=" ">
<path fill="none" stroke="#63b8ff" d="M262.89,-243.46C282.63,-233.47 309.56,-220.43 334,-210.5 338.66,-208.61 343.53,-206.75 348.44,-204.94"/>
<polygon fill="#63b8ff" stroke="#63b8ff" points="349.65,-208.23 357.89,-201.56 347.3,-201.63 349.65,-208.23"/>
</a>
</g>
</g>
<!-- Node4&#45;&gt;Node5 -->
<g id="edge4_Node000004_Node000005" class="edge">
<title>Node4&#45;&gt;Node5</title>
<g id="a_edge4_Node000004_Node000005"><a xlink:title=" ">
<path fill="none" stroke="#63b8ff" d="M444.52,-297.51C470.02,-307.81 501.64,-320.49 515,-325.5 519.82,-327.31 524.84,-329.15 529.88,-330.97"/>
<polygon fill="#63b8ff" stroke="#63b8ff" points="528.95,-334.35 539.55,-334.42 531.31,-327.76 528.95,-334.35"/>
</a>
</g>
</g>
<!-- Node6 -->
<g id="Node000006" class="node">
<title>Node6</title>
<g id="a_Node000006"><a xlink:href="classCoordExtractor.html#af4a72802846e9550e673b88a22c8c7a9" target="_top" xlink:title="Get element symbol from atomic number.">
<polygon fill="white" stroke="#666666" points="640,-316.5 529,-316.5 529,-286.5 640,-286.5 640,-316.5"/>
<text text-anchor="start" x="537" y="-304.5" font-family="Helvetica,sans-Serif" font-size="10.00">CoordExtractor::get</text>
<text text-anchor="middle" x="584.5" y="-293.5" font-family="Helvetica,sans-Serif" font-size="10.00">_atomic_symbol</text>
</a>
</g>
</g>
<!-- Node4&#45;&gt;Node6 -->
<g id="edge5_Node000004_Node000006" class="edge">
<title>Node4&#45;&gt;Node6</title>
<g id="a_edge5_Node000004_Node000006"><a xlink:title=" ">
<path fill="none" stroke="#63b8ff" d="M471.54,-289.41C486.94,-291.08 503.4,-292.85 518.83,-294.52"/>
<polygon fill="#63b8ff" stroke="#63b8ff" points="518.48,-298 528.79,-295.59 519.23,-291.04 518.48,-298"/>
</a>
</g>
</g>
<!-- Node7 -->
<g id="Node000007" class="node">
<title>Node7</title>
<g id="a_Node000007"><a xlink:href="namespaceUtils.html#a438037dac8d7b9a6f17c9cdbe4bfd27f" target="_top" xlink:title="Read file content with specified mode.">
<polygon fill="white" stroke="#666666" points="647,-268 522,-268 522,-249 647,-249 647,-268"/>
<text text-anchor="middle" x="584.5" y="-256" font-family="Helvetica,sans-Serif" font-size="10.00">Utils::read_file_unified</text>
</a>
</g>
</g>
<!-- Node4&#45;&gt;Node7 -->
<g id="edge6_Node000004_Node000007" class="edge">
<title>Node4&#45;&gt;Node7</title>
<g id="a_edge6_Node000004_Node000007"><a xlink:title=" ">
<path fill="none" stroke="#63b8ff" d="M471.54,-273.77C484.62,-271.98 498.46,-270.1 511.79,-268.28"/>
<polygon fill="#63b8ff" stroke="#63b8ff" points="512.42,-271.72 521.86,-266.91 511.48,-264.79 512.42,-271.72"/>
</a>
</g>
</g>
<!-- Node9 -->
<g id="Node000009" class="node">
<title>Node9</title>
<g id="a_Node000009"><a xlink:href="classCoordExtractor.html#ab4d64ab27004dddc29d0fde595ce447a" target="_top" xlink:title="Create target directory if it doesn&#39;t exist.">
<polygon fill="white" stroke="#666666" points="647.5,-230.5 521.5,-230.5 521.5,-200.5 647.5,-200.5 647.5,-230.5"/>
<text text-anchor="start" x="529.5" y="-218.5" font-family="Helvetica,sans-Serif" font-size="10.00">CoordExtractor::create</text>
<text text-anchor="middle" x="584.5" y="-207.5" font-family="Helvetica,sans-Serif" font-size="10.00">_target_directory</text>
</a>
</g>
</g>
<!-- Node8&#45;&gt;Node9 -->
<g id="edge9_Node000008_Node000009" class="edge">
<title>Node8&#45;&gt;Node9</title>
<g id="a_edge9_Node000008_Node000009"><a xlink:title=" ">
<path fill="none" stroke="#63b8ff" d="M468.07,-227.96C481.91,-226.47 496.76,-224.86 511.04,-223.32"/>
<polygon fill="#63b8ff" stroke="#63b8ff" points="511.76,-226.77 521.32,-222.21 511.01,-219.81 511.76,-226.77"/>
</a>
</g>
</g>
<!-- Node11 -->
<g id="Node000011" class="node">
<title>Node11</title>
<g id="a_Node000011"><a xlink:href="classCoordExtractor.html#a11e54ea7feb0e8f5dc04f7e788567498" target="_top" xlink:title="Get current directory name.">
<polygon fill="white" stroke="#666666" points="653.5,-182.5 515.5,-182.5 515.5,-152.5 653.5,-152.5 653.5,-182.5"/>
<text text-anchor="start" x="523.5" y="-170.5" font-family="Helvetica,sans-Serif" font-size="10.00">CoordExtractor::get</text>
<text text-anchor="middle" x="584.5" y="-159.5" font-family="Helvetica,sans-Serif" font-size="10.00">_current_directory_name</text>
</a>
</g>
</g>
<!-- Node8&#45;&gt;Node11 -->
<g id="edge11_Node000008_Node000011" class="edge">
<title>Node8&#45;&gt;Node11</title>
<g id="a_edge11_Node000008_Node000011"><a xlink:title=" ">
<path fill="none" stroke="#63b8ff" d="M455.98,-219.41C463.76,-216.65 471.66,-213.65 479,-210.5 495.63,-203.38 498.42,-198.73 515,-191.5 519.14,-189.69 523.46,-187.92 527.84,-186.21"/>
<polygon fill="#63b8ff" stroke="#63b8ff" points="529.33,-189.39 537.44,-182.58 526.85,-182.84 529.33,-189.39"/>
</a>
</g>
</g>
<!-- Node10 -->
<g id="Node000010" class="node">
<title>Node10</title>
<g id="a_Node000010"><a xlink:href="classCoordExtractor.html#a98cdffad3ade0a6d38eff7006df69edd" target="_top" xlink:title="Log error message.">
<polygon fill="white" stroke="#666666" points="800,-230.5 690,-230.5 690,-200.5 800,-200.5 800,-230.5"/>
<text text-anchor="start" x="698" y="-218.5" font-family="Helvetica,sans-Serif" font-size="10.00">CoordExtractor::log</text>
<text text-anchor="middle" x="745" y="-207.5" font-family="Helvetica,sans-Serif" font-size="10.00">_error</text>
</a>
</g>
</g>
<!-- Node9&#45;&gt;Node10 -->
<g id="edge10_Node000009_Node000010" class="edge">
<title>Node9&#45;&gt;Node10</title>
<g id="a_edge10_Node000009_Node000010"><a xlink:title=" ">
<path fill="none" stroke="#63b8ff" d="M647.69,-215.5C658.27,-215.5 669.28,-215.5 679.91,-215.5"/>
<polygon fill="#63b8ff" stroke="#63b8ff" points="679.96,-219 689.96,-215.5 679.96,-212 679.96,-219"/>
</a>
</g>
</g>
<!-- Node14 -->
<g id="Node000014" class="node">
<title>Node14</title>
<g id="a_Node000014"><a xlink:href="group__MemoryMonitorImpl.html#ga92b44bc7f664ca63d4213f46ecc7714f" target="_top" xlink:title="Find all Gaussian log files in the current directory.">
<polygon fill="white" stroke="#666666" points="443.5,-153 369.5,-153 369.5,-134 443.5,-134 443.5,-153"/>
<text text-anchor="middle" x="406.5" y="-141" font-family="Helvetica,sans-Serif" font-size="10.00">findLogFiles</text>
</a>
</g>
</g>
<!-- Node13&#45;&gt;Node14 -->
<g id="edge14_Node000013_Node000014" class="edge">
<title>Node13&#45;&gt;Node14</title>
<g id="a_edge14_Node000013_Node000014"><a xlink:title=" ">
<path fill="none" stroke="#63b8ff" d="M270.37,-143.5C296.27,-143.5 331.27,-143.5 359.17,-143.5"/>
<polygon fill="#63b8ff" stroke="#63b8ff" points="359.48,-147 369.48,-143.5 359.48,-140 359.48,-147"/>
</a>
</g>
</g>
<!-- Node16 -->
<g id="Node000016" class="node">
<title>Node16</title>
<g id="a_Node000016"><a xlink:href="group__JobFileUtils.html#ga93b2603d1ed51dcb6ad00bb6c48a434b" target="_top" xlink:title="Check if a file exists and is accessible.">
<polygon fill="white" stroke="#666666" points="463.5,-115.5 349.5,-115.5 349.5,-85.5 463.5,-85.5 463.5,-115.5"/>
<text text-anchor="start" x="357.5" y="-103.5" font-family="Helvetica,sans-Serif" font-size="10.00">JobCheckerUtils::file</text>
<text text-anchor="middle" x="406.5" y="-92.5" font-family="Helvetica,sans-Serif" font-size="10.00">_exists</text>
</a>
</g>
</g>
<!-- Node15&#45;&gt;Node16 -->
<g id="edge16_Node000015_Node000016" class="edge">
<title>Node15&#45;&gt;Node16</title>
<g id="a_edge16_Node000015_Node000016"><a xlink:title=" ">
<path fill="none" stroke="#63b8ff" d="M286.86,-100.5C303.39,-100.5 321.85,-100.5 339.19,-100.5"/>
<polygon fill="#63b8ff" stroke="#63b8ff" points="339.25,-104 349.25,-100.5 339.25,-97 339.25,-104"/>
</a>
</g>
</g>
<!-- Node17 -->
<g id="Node000017" class="node">
<title>Node17</title>
<g id="a_Node000017"><a xlink:href="group__JobFileUtils.html#ga0022919f724153d514357c39b4658063" target="_top" xlink:title="Extract file extension from path.">
<polygon fill="white" stroke="#666666" points="464,-67.5 349,-67.5 349,-37.5 464,-37.5 464,-67.5"/>
<text text-anchor="start" x="357" y="-55.5" font-family="Helvetica,sans-Serif" font-size="10.00">JobCheckerUtils::get</text>
<text text-anchor="middle" x="406.5" y="-44.5" font-family="Helvetica,sans-Serif" font-size="10.00">_file_extension</text>
</a>
</g>
</g>
<!-- Node15&#45;&gt;Node17 -->
<g id="edge17_Node000015_Node000017" class="edge">
<title>Node15&#45;&gt;Node17</title>
<g id="a_edge17_Node000015_Node000017"><a xlink:title=" ">
<path fill="none" stroke="#63b8ff" d="M286.86,-85.71C304.21,-80.85 323.69,-75.4 341.76,-70.34"/>
<polygon fill="#63b8ff" stroke="#63b8ff" points="342.95,-73.64 351.64,-67.58 341.06,-66.9 342.95,-73.64"/>
</a>
</g>
</g>
<!-- Node20 -->
<g id="Node000020" class="node">
<title>Node20</title>
<g id="a_Node000020"><a xlink:href="module__executor_8cpp.html#a8e7c4c59b8dda0ef232dc7f9160a8bea" target="_top" xlink:title=" ">
<polygon fill="white" stroke="#666666" points="463.5,-19 349.5,-19 349.5,0 463.5,0 463.5,-19"/>
<text text-anchor="middle" x="406.5" y="-7" font-family="Helvetica,sans-Serif" font-size="10.00">signal_handler_func</text>
</a>
</g>
</g>
<!-- Node19&#45;&gt;Node20 -->
<g id="edge20_Node000019_Node000020" class="edge">
<title>Node19&#45;&gt;Node20</title>
<g id="a_edge20_Node000019_Node000020"><a xlink:title=" ">
<path fill="none" stroke="#63b8ff" d="M295.92,-9.5C309.97,-9.5 324.95,-9.5 339.17,-9.5"/>
<polygon fill="#63b8ff" stroke="#63b8ff" points="339.37,-13 349.37,-9.5 339.37,-6 339.37,-13"/>
</a>
</g>
</g>
</g>
</svg>

<g id="navigator" transform="translate(0 0)" fill="#404254">
  <rect fill="#f2f5e9" fill-opacity="0.5" stroke="#606060" stroke-width=".5" x="0" y="0" width="60" height="60"/>
  <use id="zoomplus" xlink:href="#zoomPlus" x="17" y="9" onmousedown="handleZoom(evt,'in')"/>
  <use id="zoomminus" xlink:href="#zoomMin" x="42" y="9" onmousedown="handleZoom(evt,'out')"/>
  <use id="reset" xlink:href="#resetDef" x="30" y="36" onmousedown="handleReset()"/>
   <use id="arrowup" xlink:href="#arrowUp" x="0" y="0" onmousedown="handlePan(0,-1)"/>
  <use id="arrowright" xlink:href="#arrowRight" x="0" y="0" onmousedown="handlePan(1,0)"/>
  <use id="arrowdown" xlink:href="#arrowDown" x="0" y="0" onmousedown="handlePan(0,1)"/>
  <use id="arrowleft" xlink:href="#arrowLeft" x="0" y="0" onmousedown="handlePan(-1,0)"/>
</g>
<svg viewBox="0 0 15 15" width="100%" height="30px" preserveAspectRatio="xMaxYMin meet">
 <g id="arrow_out" transform="scale(0.3 0.3)">
  <a xlink:href="interactive__mode_8h_ab27343ef2ae55f92b21f39e17f788f4c_cgraph_org.svg" target="_base">
   <rect id="button" ry="5" rx="5" y="6" x="6" height="38" width="38"
        fill="#f2f5e9" fill-opacity="0.5" stroke="#606060" stroke-width="1.0"/>
   <path id="arrow"
     d="M 11.500037,31.436501 C 11.940474,20.09759 22.043105,11.32322 32.158766,21.979434 L 37.068811,17.246167 C 37.068811,17.246167 37.088388,32 37.088388,32 L 22.160133,31.978069 C 22.160133,31.978069 26.997745,27.140456 26.997745,27.140456 C 18.528582,18.264221 13.291696,25.230495 11.500037,31.436501 z"
     style="fill:#404040;"/>
  </a>
 </g>
</svg>

<style type='text/css'>
<![CDATA[
[data-mouse-over-selected='false'] { opacity: 0.7; }
[data-mouse-over-selected='true']  { opacity: 1.0; }
]]>
</style>
<script type="application/ecmascript"><![CDATA[
document.addEventListener('DOMContentLoaded', (event) => {
  highlightEdges();
  highlightAdjacentNodes();
});
]]></script>
</svg>
