<?xml version="1.0" encoding="UTF-8" standalone="no"?>
<!DOCTYPE svg PUBLIC "-//W3C//DTD SVG 1.1//EN"
 "http://www.w3.org/Graphics/SVG/1.1/DTD/svg11.dtd">
<!-- Generated by graphviz version 2.43.0 (0)
 -->
<!-- Title: execute_create_input_command Pages: 1 -->
<svg width="1024pt" height="1030pt"
 viewBox="0.00 0.00 1024.00 1029.50" xmlns="http://www.w3.org/2000/svg" xmlns:xlink="http://www.w3.org/1999/xlink">
<g id="graph0" class="graph" transform="scale(1 1) rotate(0) translate(4 1025.5)">
<title>execute_create_input_command</title>
<!-- Node1 -->
<g id="Node000001" class="node">
<title>Node1</title>
<g id="a_Node000001"><a xlink:title=" ">
<polygon fill="#999999" stroke="#666666" points="121,-466.5 0,-466.5 0,-436.5 121,-436.5 121,-466.5"/>
<text text-anchor="start" x="8" y="-454.5" font-family="Helvetica,sans-Serif" font-size="10.00">execute_create_input</text>
<text text-anchor="middle" x="60.5" y="-443.5" font-family="Helvetica,sans-Serif" font-size="10.00">_command</text>
</a>
</g>
</g>
<!-- Node2 -->
<g id="Node000002" class="node">
<title>Node2</title>
<g id="a_Node000002"><a xlink:href="classCreateInput.html#aa08199575835140a2122199e52cde238" target="_top" xlink:title="Main method to create input files from XYZ files.">
<polygon fill="white" stroke="#666666" points="302,-904.5 192,-904.5 192,-874.5 302,-874.5 302,-904.5"/>
<text text-anchor="start" x="200" y="-892.5" font-family="Helvetica,sans-Serif" font-size="10.00">CreateInput::create</text>
<text text-anchor="middle" x="247" y="-881.5" font-family="Helvetica,sans-Serif" font-size="10.00">_inputs</text>
</a>
</g>
</g>
<!-- Node1&#45;&gt;Node2 -->
<g id="edge1_Node000001_Node000002" class="edge">
<title>Node1&#45;&gt;Node2</title>
<g id="a_edge1_Node000001_Node000002"><a xlink:title=" ">
<path fill="none" stroke="#63b8ff" d="M62.92,-466.5C69.55,-533.66 99.66,-806.02 157,-865.5 163.91,-872.67 172.73,-877.78 182.11,-881.39"/>
<polygon fill="#63b8ff" stroke="#63b8ff" points="181.04,-884.72 191.63,-884.53 183.23,-878.08 181.04,-884.72"/>
</a>
</g>
</g>
<!-- Node17 -->
<g id="Node000017" class="node">
<title>Node17</title>
<g id="a_Node000017"><a xlink:href="classCreateInput.html#a8fdec05545089618e862b276ed23bbcf" target="_top" xlink:title="Print summary of creation operation.">
<polygon fill="white" stroke="#666666" points="298,-856.5 196,-856.5 196,-826.5 298,-826.5 298,-856.5"/>
<text text-anchor="start" x="204" y="-844.5" font-family="Helvetica,sans-Serif" font-size="10.00">CreateInput::print</text>
<text text-anchor="middle" x="247" y="-833.5" font-family="Helvetica,sans-Serif" font-size="10.00">_summary</text>
</a>
</g>
</g>
<!-- Node1&#45;&gt;Node17 -->
<g id="edge20_Node000001_Node000017" class="edge">
<title>Node1&#45;&gt;Node17</title>
<g id="a_edge20_Node000001_Node000017"><a xlink:title=" ">
<path fill="none" stroke="#63b8ff" d="M63.45,-466.84C71.7,-529.58 105.78,-765.86 157,-817.5 165.02,-825.58 175.46,-831.03 186.35,-834.68"/>
<polygon fill="#63b8ff" stroke="#63b8ff" points="185.41,-838.05 195.99,-837.44 187.34,-831.32 185.41,-838.05"/>
</a>
</g>
</g>
<!-- Node18 -->
<g id="Node000018" class="node">
<title>Node18</title>
<g id="a_Node000018"><a xlink:href="classCreateInput.html#a711b47cc7894d6c5f223ebc0f4187024" target="_top" xlink:title="Set basis set.">
<polygon fill="white" stroke="#666666" points="309.5,-808 184.5,-808 184.5,-789 309.5,-789 309.5,-808"/>
<text text-anchor="middle" x="247" y="-796" font-family="Helvetica,sans-Serif" font-size="10.00">CreateInput::set_basis</text>
</a>
</g>
</g>
<!-- Node1&#45;&gt;Node18 -->
<g id="edge21_Node000001_Node000018" class="edge">
<title>Node1&#45;&gt;Node18</title>
<g id="a_edge21_Node000001_Node000018"><a xlink:title=" ">
<path fill="none" stroke="#63b8ff" d="M60.84,-466.71C59.47,-519.09 62.47,-693.5 157,-780.5 162.14,-785.23 168.18,-788.87 174.63,-791.64"/>
<polygon fill="#63b8ff" stroke="#63b8ff" points="173.75,-795.04 184.35,-795.12 176.11,-788.45 173.75,-795.04"/>
</a>
</g>
</g>
<!-- Node19 -->
<g id="Node000019" class="node">
<title>Node19</title>
<g id="a_Node000019"><a xlink:href="classCreateInput.html#aace28de2ac8b36fb13f3fbd00d0fa5bc" target="_top" xlink:title="Set calculation type.">
<polygon fill="white" stroke="#666666" points="337,-771 157,-771 157,-752 337,-752 337,-771"/>
<text text-anchor="middle" x="247" y="-759" font-family="Helvetica,sans-Serif" font-size="10.00">CreateInput::set_calculation_type</text>
</a>
</g>
</g>
<!-- Node1&#45;&gt;Node19 -->
<g id="edge22_Node000001_Node000019" class="edge">
<title>Node1&#45;&gt;Node19</title>
<g id="a_edge22_Node000001_Node000019"><a xlink:title=" ">
<path fill="none" stroke="#63b8ff" d="M61.49,-466.71C62.33,-515.27 71.93,-667.8 157,-743.5 158.18,-744.55 159.4,-745.54 160.66,-746.48"/>
<polygon fill="#63b8ff" stroke="#63b8ff" points="159.14,-749.66 169.48,-751.98 162.84,-743.72 159.14,-749.66"/>
</a>
</g>
</g>
<!-- Node20 -->
<g id="Node000020" class="node">
<title>Node20</title>
<g id="a_Node000020"><a xlink:href="classCreateInput.html#adad439f1d1de22a5b643089b0c4d2dc5" target="_top" xlink:title="Set file extension for output.">
<polygon fill="white" stroke="#666666" points="321,-734 173,-734 173,-715 321,-715 321,-734"/>
<text text-anchor="middle" x="247" y="-722" font-family="Helvetica,sans-Serif" font-size="10.00">CreateInput::set_extension</text>
</a>
</g>
</g>
<!-- Node1&#45;&gt;Node20 -->
<g id="edge23_Node000001_Node000020" class="edge">
<title>Node1&#45;&gt;Node20</title>
<g id="a_edge23_Node000001_Node000020"><a xlink:title=" ">
<path fill="none" stroke="#63b8ff" d="M62.36,-466.59C65.71,-510.77 81.84,-640.8 157,-705.5 159.04,-707.26 161.21,-708.87 163.47,-710.34"/>
<polygon fill="#63b8ff" stroke="#63b8ff" points="162.18,-713.62 172.63,-715.35 165.54,-707.48 162.18,-713.62"/>
</a>
</g>
</g>
<!-- Node21 -->
<g id="Node000021" class="node">
<title>Node21</title>
<g id="a_Node000021"><a xlink:href="classCreateInput.html#a938de5a2a4a0b83aa3974f613d4fc121" target="_top" xlink:title="Set extra keywords for route section.">
<polygon fill="white" stroke="#666666" points="309.5,-696.5 184.5,-696.5 184.5,-666.5 309.5,-666.5 309.5,-696.5"/>
<text text-anchor="start" x="192.5" y="-684.5" font-family="Helvetica,sans-Serif" font-size="10.00">CreateInput::set_extra</text>
<text text-anchor="middle" x="247" y="-673.5" font-family="Helvetica,sans-Serif" font-size="10.00">_keywords</text>
</a>
</g>
</g>
<!-- Node1&#45;&gt;Node21 -->
<g id="edge24_Node000001_Node000021" class="edge">
<title>Node1&#45;&gt;Node21</title>
<g id="a_edge24_Node000001_Node000021"><a xlink:title=" ">
<path fill="none" stroke="#63b8ff" d="M64,-466.57C71.13,-504.66 95.19,-605.44 157,-657.5 162.26,-661.93 168.27,-665.55 174.62,-668.51"/>
<polygon fill="#63b8ff" stroke="#63b8ff" points="173.54,-671.85 184.12,-672.39 176.19,-665.37 173.54,-671.85"/>
</a>
</g>
</g>
<!-- Node22 -->
<g id="Node000022" class="node">
<title>Node22</title>
<g id="a_Node000022"><a xlink:href="classCreateInput.html#a356d9f6309aa63e4302608e04e5f92e2" target="_top" xlink:title="Set atoms to freeze for OSS TS calculations.">
<polygon fill="white" stroke="#666666" points="312.5,-648.5 181.5,-648.5 181.5,-618.5 312.5,-618.5 312.5,-648.5"/>
<text text-anchor="start" x="189.5" y="-636.5" font-family="Helvetica,sans-Serif" font-size="10.00">CreateInput::set_freeze</text>
<text text-anchor="middle" x="247" y="-625.5" font-family="Helvetica,sans-Serif" font-size="10.00">_atoms</text>
</a>
</g>
</g>
<!-- Node1&#45;&gt;Node22 -->
<g id="edge25_Node000001_Node000022" class="edge">
<title>Node1&#45;&gt;Node22</title>
<g id="a_edge25_Node000001_Node000022"><a xlink:title=" ">
<path fill="none" stroke="#63b8ff" d="M66.34,-466.76C77.19,-498.43 106.55,-571.53 157,-609.5 161.67,-613.01 166.82,-616.01 172.21,-618.58"/>
<polygon fill="#63b8ff" stroke="#63b8ff" points="170.91,-621.82 181.48,-622.48 173.63,-615.37 170.91,-621.82"/>
</a>
</g>
</g>
<!-- Node23 -->
<g id="Node000023" class="node">
<title>Node23</title>
<g id="a_Node000023"><a xlink:href="classCreateInput.html#a0f4e33ce167dcdc477b5049c7a05a3f0" target="_top" xlink:title="Set DFT functional.">
<polygon fill="white" stroke="#666666" points="321.5,-600 172.5,-600 172.5,-581 321.5,-581 321.5,-600"/>
<text text-anchor="middle" x="247" y="-588" font-family="Helvetica,sans-Serif" font-size="10.00">CreateInput::set_functional</text>
</a>
</g>
</g>
<!-- Node1&#45;&gt;Node23 -->
<g id="edge26_Node000001_Node000023" class="edge">
<title>Node1&#45;&gt;Node23</title>
<g id="a_edge26_Node000001_Node000023"><a xlink:title=" ">
<path fill="none" stroke="#63b8ff" d="M69.13,-466.82C82.89,-492.78 114.44,-545.15 157,-571.5 160.38,-573.59 163.95,-575.46 167.65,-577.12"/>
<polygon fill="#63b8ff" stroke="#63b8ff" points="166.48,-580.42 177.06,-580.84 169.05,-573.91 166.48,-580.42"/>
</a>
</g>
</g>
<!-- Node24 -->
<g id="Node000024" class="node">
<title>Node24</title>
<g id="a_Node000024"><a xlink:href="classCreateInput.html#a94c9539437ddc76caaa7ffe9e3bb73cf" target="_top" xlink:title="Set IRC maxcycle override.">
<polygon fill="white" stroke="#666666" points="303,-562.5 191,-562.5 191,-532.5 303,-532.5 303,-562.5"/>
<text text-anchor="start" x="199" y="-550.5" font-family="Helvetica,sans-Serif" font-size="10.00">CreateInput::set_irc</text>
<text text-anchor="middle" x="247" y="-539.5" font-family="Helvetica,sans-Serif" font-size="10.00">_maxcycle</text>
</a>
</g>
</g>
<!-- Node1&#45;&gt;Node24 -->
<g id="edge27_Node000001_Node000024" class="edge">
<title>Node1&#45;&gt;Node24</title>
<g id="a_edge27_Node000001_Node000024"><a xlink:title=" ">
<path fill="none" stroke="#63b8ff" d="M77.45,-466.62C95.45,-482.89 126.22,-508.45 157,-523.5 164.54,-527.19 172.73,-530.37 180.99,-533.1"/>
<polygon fill="#63b8ff" stroke="#63b8ff" points="180.09,-536.49 190.67,-536.11 182.16,-529.8 180.09,-536.49"/>
</a>
</g>
</g>
<!-- Node25 -->
<g id="Node000025" class="node">
<title>Node25</title>
<g id="a_Node000025"><a xlink:href="classCreateInput.html#a8d6cbbe7240f323b45c0e36bf64fdac8" target="_top" xlink:title="Set IRC maxpoints override.">
<polygon fill="white" stroke="#666666" points="303,-514.5 191,-514.5 191,-484.5 303,-484.5 303,-514.5"/>
<text text-anchor="start" x="199" y="-502.5" font-family="Helvetica,sans-Serif" font-size="10.00">CreateInput::set_irc</text>
<text text-anchor="middle" x="247" y="-491.5" font-family="Helvetica,sans-Serif" font-size="10.00">_maxpoints</text>
</a>
</g>
</g>
<!-- Node1&#45;&gt;Node25 -->
<g id="edge28_Node000001_Node000025" class="edge">
<title>Node1&#45;&gt;Node25</title>
<g id="a_edge28_Node000001_Node000025"><a xlink:title=" ">
<path fill="none" stroke="#63b8ff" d="M119.37,-466.56C138.99,-471.66 161.02,-477.39 181.15,-482.63"/>
<polygon fill="#63b8ff" stroke="#63b8ff" points="180.3,-486.02 190.85,-485.15 182.06,-479.25 180.3,-486.02"/>
</a>
</g>
</g>
<!-- Node26 -->
<g id="Node000026" class="node">
<title>Node26</title>
<g id="a_Node000026"><a xlink:href="classCreateInput.html#a182ae500cfd5e9606f791f19d974113a" target="_top" xlink:title="Set IRC recalc override.">
<polygon fill="white" stroke="#666666" points="303,-466.5 191,-466.5 191,-436.5 303,-436.5 303,-466.5"/>
<text text-anchor="start" x="199" y="-454.5" font-family="Helvetica,sans-Serif" font-size="10.00">CreateInput::set_irc</text>
<text text-anchor="middle" x="247" y="-443.5" font-family="Helvetica,sans-Serif" font-size="10.00">_recalc</text>
</a>
</g>
</g>
<!-- Node1&#45;&gt;Node26 -->
<g id="edge29_Node000001_Node000026" class="edge">
<title>Node1&#45;&gt;Node26</title>
<g id="a_edge29_Node000001_Node000026"><a xlink:title=" ">
<path fill="none" stroke="#63b8ff" d="M121.15,-451.5C140.16,-451.5 161.28,-451.5 180.67,-451.5"/>
<polygon fill="#63b8ff" stroke="#63b8ff" points="180.94,-455 190.94,-451.5 180.94,-448 180.94,-455"/>
</a>
</g>
</g>
<!-- Node27 -->
<g id="Node000027" class="node">
<title>Node27</title>
<g id="a_Node000027"><a xlink:href="classCreateInput.html#a8afee13f35dfab8cced84c9b4b199a08" target="_top" xlink:title="Set IRC stepsize override.">
<polygon fill="white" stroke="#666666" points="303,-418.5 191,-418.5 191,-388.5 303,-388.5 303,-418.5"/>
<text text-anchor="start" x="199" y="-406.5" font-family="Helvetica,sans-Serif" font-size="10.00">CreateInput::set_irc</text>
<text text-anchor="middle" x="247" y="-395.5" font-family="Helvetica,sans-Serif" font-size="10.00">_stepsize</text>
</a>
</g>
</g>
<!-- Node1&#45;&gt;Node27 -->
<g id="edge30_Node000001_Node000027" class="edge">
<title>Node1&#45;&gt;Node27</title>
<g id="a_edge30_Node000001_Node000027"><a xlink:title=" ">
<path fill="none" stroke="#63b8ff" d="M119.37,-436.44C138.99,-431.34 161.02,-425.61 181.15,-420.37"/>
<polygon fill="#63b8ff" stroke="#63b8ff" points="182.06,-423.75 190.85,-417.85 180.3,-416.98 182.06,-423.75"/>
</a>
</g>
</g>
<!-- Node28 -->
<g id="Node000028" class="node">
<title>Node28</title>
<g id="a_Node000028"><a xlink:href="classCreateInput.html#af9d5277a43ba3361cc7e2b70a7e7c54f" target="_top" xlink:title="Set large basis set for high&#45;level calculations.">
<polygon fill="white" stroke="#666666" points="309.5,-370.5 184.5,-370.5 184.5,-340.5 309.5,-340.5 309.5,-370.5"/>
<text text-anchor="start" x="192.5" y="-358.5" font-family="Helvetica,sans-Serif" font-size="10.00">CreateInput::set_large</text>
<text text-anchor="middle" x="247" y="-347.5" font-family="Helvetica,sans-Serif" font-size="10.00">_basis</text>
</a>
</g>
</g>
<!-- Node1&#45;&gt;Node28 -->
<g id="edge31_Node000001_Node000028" class="edge">
<title>Node1&#45;&gt;Node28</title>
<g id="a_edge31_Node000001_Node000028"><a xlink:title=" ">
<path fill="none" stroke="#63b8ff" d="M77.45,-436.38C95.45,-420.11 126.22,-394.55 157,-379.5 162.57,-376.78 168.49,-374.33 174.52,-372.14"/>
<polygon fill="#63b8ff" stroke="#63b8ff" points="175.73,-375.42 184.07,-368.9 173.48,-368.8 175.73,-375.42"/>
</a>
</g>
</g>
<!-- Node29 -->
<g id="Node000029" class="node">
<title>Node29</title>
<g id="a_Node000029"><a xlink:href="classCreateInput.html#a277cf5edced7d9b487a192110ca441fc" target="_top" xlink:title="Set molecular charge and multiplicity.">
<polygon fill="white" stroke="#666666" points="321.5,-322.5 172.5,-322.5 172.5,-292.5 321.5,-292.5 321.5,-322.5"/>
<text text-anchor="start" x="180.5" y="-310.5" font-family="Helvetica,sans-Serif" font-size="10.00">CreateInput::set_molecular</text>
<text text-anchor="middle" x="247" y="-299.5" font-family="Helvetica,sans-Serif" font-size="10.00">_specs</text>
</a>
</g>
</g>
<!-- Node1&#45;&gt;Node29 -->
<g id="edge32_Node000001_Node000029" class="edge">
<title>Node1&#45;&gt;Node29</title>
<g id="a_edge32_Node000001_Node000029"><a xlink:title=" ">
<path fill="none" stroke="#63b8ff" d="M69.28,-436.41C83.27,-410.81 115.16,-358.97 157,-331.5 159.45,-329.89 162,-328.4 164.62,-327"/>
<polygon fill="#63b8ff" stroke="#63b8ff" points="166.29,-330.08 173.81,-322.61 163.28,-323.76 166.29,-330.08"/>
</a>
</g>
</g>
<!-- Node30 -->
<g id="Node000030" class="node">
<title>Node30</title>
<g id="a_Node000030"><a xlink:href="classCreateInput.html#a0abd4e7c141ae7cbc826d10a85e53d63" target="_top" xlink:title="Set OPT maxcycles override.">
<polygon fill="white" stroke="#666666" points="305,-274.5 189,-274.5 189,-244.5 305,-244.5 305,-274.5"/>
<text text-anchor="start" x="197" y="-262.5" font-family="Helvetica,sans-Serif" font-size="10.00">CreateInput::set_opt</text>
<text text-anchor="middle" x="247" y="-251.5" font-family="Helvetica,sans-Serif" font-size="10.00">_maxcycles</text>
</a>
</g>
</g>
<!-- Node1&#45;&gt;Node30 -->
<g id="edge33_Node000001_Node000030" class="edge">
<title>Node1&#45;&gt;Node30</title>
<g id="a_edge33_Node000001_Node000030"><a xlink:title=" ">
<path fill="none" stroke="#63b8ff" d="M65.74,-436.3C75.78,-403.21 104.2,-324.36 157,-283.5 163.64,-278.36 171.3,-274.32 179.28,-271.14"/>
<polygon fill="#63b8ff" stroke="#63b8ff" points="180.48,-274.43 188.75,-267.8 178.15,-267.83 180.48,-274.43"/>
</a>
</g>
</g>
<!-- Node31 -->
<g id="Node000031" class="node">
<title>Node31</title>
<g id="a_Node000031"><a xlink:href="classCreateInput.html#aa76f34bae9e3090f123829a755591639" target="_top" xlink:title="Set pound sign for route section.">
<polygon fill="white" stroke="#666666" points="308,-226.5 186,-226.5 186,-196.5 308,-196.5 308,-226.5"/>
<text text-anchor="start" x="194" y="-214.5" font-family="Helvetica,sans-Serif" font-size="10.00">CreateInput::set_print</text>
<text text-anchor="middle" x="247" y="-203.5" font-family="Helvetica,sans-Serif" font-size="10.00">_level</text>
</a>
</g>
</g>
<!-- Node1&#45;&gt;Node31 -->
<g id="edge34_Node000001_Node000031" class="edge">
<title>Node1&#45;&gt;Node31</title>
<g id="a_edge34_Node000001_Node000031"><a xlink:title=" ">
<path fill="none" stroke="#63b8ff" d="M63.67,-436.29C70.12,-396.84 92.89,-290.49 157,-235.5 162.68,-230.63 169.25,-226.74 176.2,-223.63"/>
<polygon fill="#63b8ff" stroke="#63b8ff" points="177.82,-226.75 185.87,-219.86 175.28,-220.23 177.82,-226.75"/>
</a>
</g>
</g>
<!-- Node32 -->
<g id="Node000032" class="node">
<title>Node32</title>
<g id="a_Node000032"><a xlink:href="classCreateInput.html#a2ff1716e7e1609c9c659de5f5777b04a" target="_top" xlink:title="Set SCF maxcycle override.">
<polygon fill="white" stroke="#666666" points="304,-178.5 190,-178.5 190,-148.5 304,-148.5 304,-178.5"/>
<text text-anchor="start" x="198" y="-166.5" font-family="Helvetica,sans-Serif" font-size="10.00">CreateInput::set_scf</text>
<text text-anchor="middle" x="247" y="-155.5" font-family="Helvetica,sans-Serif" font-size="10.00">_maxcycle</text>
</a>
</g>
</g>
<!-- Node1&#45;&gt;Node32 -->
<g id="edge35_Node000001_Node000032" class="edge">
<title>Node1&#45;&gt;Node32</title>
<g id="a_edge35_Node000001_Node000032"><a xlink:title=" ">
<path fill="none" stroke="#63b8ff" d="M62.3,-436.35C65.51,-391.32 81.3,-257.11 157,-187.5 163.59,-181.44 171.55,-176.88 179.97,-173.46"/>
<polygon fill="#63b8ff" stroke="#63b8ff" points="181.35,-176.68 189.62,-170.06 179.02,-170.08 181.35,-176.68"/>
</a>
</g>
</g>
<!-- Node33 -->
<g id="Node000033" class="node">
<title>Node33</title>
<g id="a_Node000033"><a xlink:href="classCreateInput.html#a1f625d84c27857a727ce195120df342a" target="_top" xlink:title="Set solvent parameters.">
<polygon fill="white" stroke="#666666" points="315,-130 179,-130 179,-111 315,-111 315,-130"/>
<text text-anchor="middle" x="247" y="-118" font-family="Helvetica,sans-Serif" font-size="10.00">CreateInput::set_solvent</text>
</a>
</g>
</g>
<!-- Node1&#45;&gt;Node33 -->
<g id="edge36_Node000001_Node000033" class="edge">
<title>Node1&#45;&gt;Node33</title>
<g id="a_edge36_Node000001_Node000033"><a xlink:title=" ">
<path fill="none" stroke="#63b8ff" d="M61.16,-436.39C60.89,-385.93 67.23,-221.81 157,-139.5 160.83,-135.99 165.15,-133.06 169.76,-130.63"/>
<polygon fill="#63b8ff" stroke="#63b8ff" points="171.24,-133.81 178.96,-126.55 168.4,-127.41 171.24,-133.81"/>
</a>
</g>
</g>
<!-- Node34 -->
<g id="Node000034" class="node">
<title>Node34</title>
<g id="a_Node000034"><a xlink:href="classCreateInput.html#af8d9f27d0b9b07735936888caa1c8cdb" target="_top" xlink:title="Set tail text for input file.">
<polygon fill="white" stroke="#666666" points="305,-93 189,-93 189,-74 305,-74 305,-93"/>
<text text-anchor="middle" x="247" y="-81" font-family="Helvetica,sans-Serif" font-size="10.00">CreateInput::set_tail</text>
</a>
</g>
</g>
<!-- Node1&#45;&gt;Node34 -->
<g id="edge37_Node000001_Node000034" class="edge">
<title>Node1&#45;&gt;Node34</title>
<g id="a_edge37_Node000001_Node000034"><a xlink:title=" ">
<path fill="none" stroke="#63b8ff" d="M63.52,-436.33C71.93,-375.34 106.17,-149.04 157,-101.5 163.29,-95.62 170.95,-91.43 179.1,-88.47"/>
<polygon fill="#63b8ff" stroke="#63b8ff" points="180.28,-91.77 188.85,-85.54 178.27,-85.07 180.28,-91.77"/>
</a>
</g>
</g>
<!-- Node35 -->
<g id="Node000035" class="node">
<title>Node35</title>
<g id="a_Node000035"><a xlink:href="classCreateInput.html#a6142d4492d08a16d861432447fa06a7b" target="_top" xlink:title="Set TS checkpoint path for high&#45;level calculations.">
<polygon fill="white" stroke="#666666" points="323.5,-56 170.5,-56 170.5,-37 323.5,-37 323.5,-56"/>
<text text-anchor="middle" x="247" y="-44" font-family="Helvetica,sans-Serif" font-size="10.00">CreateInput::set_tschk_path</text>
</a>
</g>
</g>
<!-- Node1&#45;&gt;Node35 -->
<g id="edge38_Node000001_Node000035" class="edge">
<title>Node1&#45;&gt;Node35</title>
<g id="a_edge38_Node000001_Node000035"><a xlink:title=" ">
<path fill="none" stroke="#63b8ff" d="M63.12,-436.09C70.31,-370.78 101.42,-117.77 157,-64.5 158.49,-63.07 160.07,-61.74 161.71,-60.5"/>
<polygon fill="#63b8ff" stroke="#63b8ff" points="163.81,-63.31 170.44,-55.05 160.11,-57.37 163.81,-63.31"/>
</a>
</g>
</g>
<!-- Node36 -->
<g id="Node000036" class="node">
<title>Node36</title>
<g id="a_Node000036"><a xlink:href="module__executor_8cpp.html#a7df47e37fd55c553b8fd39cf996d786c" target="_top" xlink:title=" ">
<polygon fill="white" stroke="#666666" points="309.5,-19 184.5,-19 184.5,0 309.5,0 309.5,-19"/>
<text text-anchor="middle" x="247" y="-7" font-family="Helvetica,sans-Serif" font-size="10.00">setup_signal_handlers</text>
</a>
</g>
</g>
<!-- Node1&#45;&gt;Node36 -->
<g id="edge39_Node000001_Node000036" class="edge">
<title>Node1&#45;&gt;Node36</title>
<g id="a_edge39_Node000001_Node000036"><a xlink:title=" ">
<path fill="none" stroke="#63b8ff" d="M62.77,-436.05C68.78,-366.9 96.59,-86.6 157,-27.5 162.07,-22.54 168.11,-18.76 174.62,-15.91"/>
<polygon fill="#63b8ff" stroke="#63b8ff" points="176.23,-19.06 184.44,-12.37 173.85,-12.47 176.23,-19.06"/>
</a>
</g>
</g>
<!-- Node3 -->
<g id="Node000003" class="node">
<title>Node3</title>
<g id="a_Node000003"><a xlink:href="group__MemoryMonitorImpl.html#gaf6946ebbf530a167fc82bb7f20b36a42" target="_top" xlink:title="Calculate safe thread count considering job scheduler limits.">
<polygon fill="white" stroke="#666666" points="518,-958 373,-958 373,-939 518,-939 518,-958"/>
<text text-anchor="middle" x="445.5" y="-946" font-family="Helvetica,sans-Serif" font-size="10.00">calculateSafeThreadCount</text>
</a>
</g>
</g>
<!-- Node2&#45;&gt;Node3 -->
<g id="edge2_Node000002_Node000003" class="edge">
<title>Node2&#45;&gt;Node3</title>
<g id="a_edge2_Node000002_Node000003"><a xlink:title=" ">
<path fill="none" stroke="#63b8ff" d="M298.09,-904.54C330.48,-914.26 372.14,-926.77 402.73,-935.96"/>
<polygon fill="#63b8ff" stroke="#63b8ff" points="402.07,-939.41 412.65,-938.94 404.08,-932.71 402.07,-939.41"/>
</a>
</g>
</g>
<!-- Node4 -->
<g id="Node000004" class="node">
<title>Node4</title>
<g id="a_Node000004"><a xlink:href="classCreateInput.html#a3663dd0959586c29b28748b3134acb77" target="_top" xlink:title="Create input file from single XYZ file.">
<polygon fill="white" stroke="#666666" points="500.5,-882.5 390.5,-882.5 390.5,-852.5 500.5,-852.5 500.5,-882.5"/>
<text text-anchor="start" x="398.5" y="-870.5" font-family="Helvetica,sans-Serif" font-size="10.00">CreateInput::create</text>
<text text-anchor="middle" x="445.5" y="-859.5" font-family="Helvetica,sans-Serif" font-size="10.00">_from_file</text>
</a>
</g>
</g>
<!-- Node2&#45;&gt;Node4 -->
<g id="edge3_Node000002_Node000004" class="edge">
<title>Node2&#45;&gt;Node4</title>
<g id="a_edge3_Node000002_Node000004"><a xlink:title=" ">
<path fill="none" stroke="#63b8ff" d="M302.21,-883.43C326.38,-880.73 355.02,-877.52 380.25,-874.69"/>
<polygon fill="#63b8ff" stroke="#63b8ff" points="380.91,-878.14 390.46,-873.55 380.13,-871.18 380.91,-878.14"/>
</a>
</g>
</g>
<!-- Node13 -->
<g id="Node000013" class="node">
<title>Node13</title>
<g id="a_Node000013"><a xlink:href="classCreateInput.html#af67178cacafef48a0129a1707c4d5089" target="_top" xlink:title="Generate output filename(s) from XYZ filename.">
<polygon fill="white" stroke="#666666" points="677.5,-930.5 554.5,-930.5 554.5,-900.5 677.5,-900.5 677.5,-930.5"/>
<text text-anchor="start" x="562.5" y="-918.5" font-family="Helvetica,sans-Serif" font-size="10.00">CreateInput::generate</text>
<text text-anchor="middle" x="616" y="-907.5" font-family="Helvetica,sans-Serif" font-size="10.00">_input_filename</text>
</a>
</g>
</g>
<!-- Node2&#45;&gt;Node13 -->
<g id="edge18_Node000002_Node000013" class="edge">
<title>Node2&#45;&gt;Node13</title>
<g id="a_edge18_Node000002_Node000013"><a xlink:title=" ">
<path fill="none" stroke="#63b8ff" d="M302.15,-893.34C366.29,-897.88 473.33,-905.46 544.04,-910.47"/>
<polygon fill="#63b8ff" stroke="#63b8ff" points="543.98,-913.98 554.2,-911.19 544.47,-906.99 543.98,-913.98"/>
</a>
</g>
</g>
<!-- Node16 -->
<g id="Node000016" class="node">
<title>Node16</title>
<g id="a_Node000016"><a xlink:href="classCreateInput.html#a1715a785d36a5b9102d36085dc675603" target="_top" xlink:title="Report progress during processing.">
<polygon fill="white" stroke="#666666" points="500,-834.5 391,-834.5 391,-804.5 500,-804.5 500,-834.5"/>
<text text-anchor="start" x="399" y="-822.5" font-family="Helvetica,sans-Serif" font-size="10.00">CreateInput::report</text>
<text text-anchor="middle" x="445.5" y="-811.5" font-family="Helvetica,sans-Serif" font-size="10.00">_progress</text>
</a>
</g>
</g>
<!-- Node2&#45;&gt;Node16 -->
<g id="edge19_Node000002_Node000016" class="edge">
<title>Node2&#45;&gt;Node16</title>
<g id="a_edge19_Node000002_Node000016"><a xlink:title=" ">
<path fill="none" stroke="#63b8ff" d="M302.02,-877.58C313.77,-874.26 325.97,-870.24 337,-865.5 354.23,-858.09 356,-851.42 373,-843.5 376.87,-841.7 380.92,-839.96 385.03,-838.31"/>
<polygon fill="#63b8ff" stroke="#63b8ff" points="386.61,-841.45 394.7,-834.6 384.11,-834.91 386.61,-841.45"/>
</a>
</g>
</g>
<!-- Node5 -->
<g id="Node000005" class="node">
<title>Node5</title>
<g id="a_Node000005"><a xlink:href="classCreateInput.html#ac3c82149b54ad69fd871f6f51c667131" target="_top" xlink:title="Generate Gaussian input content.">
<polygon fill="white" stroke="#666666" points="677.5,-882.5 554.5,-882.5 554.5,-852.5 677.5,-852.5 677.5,-882.5"/>
<text text-anchor="start" x="562.5" y="-870.5" font-family="Helvetica,sans-Serif" font-size="10.00">CreateInput::generate</text>
<text text-anchor="middle" x="616" y="-859.5" font-family="Helvetica,sans-Serif" font-size="10.00">_input_content</text>
</a>
</g>
</g>
<!-- Node4&#45;&gt;Node5 -->
<g id="edge4_Node000004_Node000005" class="edge">
<title>Node4&#45;&gt;Node5</title>
<g id="a_edge4_Node000004_Node000005"><a xlink:title=" ">
<path fill="none" stroke="#63b8ff" d="M500.74,-867.5C514.52,-867.5 529.53,-867.5 544.01,-867.5"/>
<polygon fill="#63b8ff" stroke="#63b8ff" points="544.43,-871 554.43,-867.5 544.43,-864 544.43,-871"/>
</a>
</g>
</g>
<!-- Node4&#45;&gt;Node13 -->
<g id="edge15_Node000004_Node000013" class="edge">
<title>Node4&#45;&gt;Node13</title>
<g id="a_edge15_Node000004_Node000013"><a xlink:title=" ">
<path fill="none" stroke="#63b8ff" d="M499.35,-882.56C516.13,-887.34 534.85,-892.67 552.26,-897.63"/>
<polygon fill="#63b8ff" stroke="#63b8ff" points="551.76,-901.12 562.34,-900.5 553.68,-894.39 551.76,-901.12"/>
</a>
</g>
</g>
<!-- Node14 -->
<g id="Node000014" class="node">
<title>Node14</title>
<g id="a_Node000014"><a xlink:href="classCreateInput.html#ad8cb721c27a8c3432c61780cbca4cefc" target="_top" xlink:title="Read coordinates from XYZ file.">
<polygon fill="white" stroke="#666666" points="678,-834.5 554,-834.5 554,-804.5 678,-804.5 678,-834.5"/>
<text text-anchor="start" x="562" y="-822.5" font-family="Helvetica,sans-Serif" font-size="10.00">CreateInput::read_xyz</text>
<text text-anchor="middle" x="616" y="-811.5" font-family="Helvetica,sans-Serif" font-size="10.00">_coordinates</text>
</a>
</g>
</g>
<!-- Node4&#45;&gt;Node14 -->
<g id="edge16_Node000004_Node000014" class="edge">
<title>Node4&#45;&gt;Node14</title>
<g id="a_edge16_Node000004_Node000014"><a xlink:title=" ">
<path fill="none" stroke="#63b8ff" d="M499.35,-852.44C516.13,-847.66 534.85,-842.33 552.26,-837.37"/>
<polygon fill="#63b8ff" stroke="#63b8ff" points="553.68,-840.61 562.34,-834.5 551.76,-833.88 553.68,-840.61"/>
</a>
</g>
</g>
<!-- Node15 -->
<g id="Node000015" class="node">
<title>Node15</title>
<g id="a_Node000015"><a xlink:href="classCreateInput.html#a62eb07832c8632969688c1b2c647eb02" target="_top" xlink:title="Write input file to disk.">
<polygon fill="white" stroke="#666666" points="668,-786.5 564,-786.5 564,-756.5 668,-756.5 668,-786.5"/>
<text text-anchor="start" x="572" y="-774.5" font-family="Helvetica,sans-Serif" font-size="10.00">CreateInput::write</text>
<text text-anchor="middle" x="616" y="-763.5" font-family="Helvetica,sans-Serif" font-size="10.00">_input_file</text>
</a>
</g>
</g>
<!-- Node4&#45;&gt;Node15 -->
<g id="edge17_Node000004_Node000015" class="edge">
<title>Node4&#45;&gt;Node15</title>
<g id="a_edge17_Node000004_Node000015"><a xlink:title=" ">
<path fill="none" stroke="#63b8ff" d="M500.57,-853.34C506.73,-850.59 512.69,-847.33 518,-843.5 539.62,-827.89 532.79,-811.66 554,-795.5 555.8,-794.13 557.69,-792.82 559.65,-791.58"/>
<polygon fill="#63b8ff" stroke="#63b8ff" points="561.55,-794.53 568.55,-786.57 558.12,-788.43 561.55,-794.53"/>
</a>
</g>
</g>
<!-- Node6 -->
<g id="Node000006" class="node">
<title>Node6</title>
<g id="a_Node000006"><a xlink:href="classCreateInput.html#af97b8545c619c854283b22b791f453ab" target="_top" xlink:title="Generate checkpoint section for input file.">
<polygon fill="white" stroke="#666666" points="846,-1021.5 723,-1021.5 723,-991.5 846,-991.5 846,-1021.5"/>
<text text-anchor="start" x="731" y="-1009.5" font-family="Helvetica,sans-Serif" font-size="10.00">CreateInput::generate</text>
<text text-anchor="middle" x="784.5" y="-998.5" font-family="Helvetica,sans-Serif" font-size="10.00">_checkpoint_section</text>
</a>
</g>
</g>
<!-- Node5&#45;&gt;Node6 -->
<g id="edge5_Node000005_Node000006" class="edge">
<title>Node5&#45;&gt;Node6</title>
<g id="a_edge5_Node000005_Node000006"><a xlink:title=" ">
<path fill="none" stroke="#63b8ff" d="M666.22,-882.52C670.52,-885.07 674.54,-888.04 678,-891.5 708.78,-922.23 682.57,-952.43 714,-982.5 715.12,-983.58 716.3,-984.6 717.52,-985.58"/>
<polygon fill="#63b8ff" stroke="#63b8ff" points="715.86,-988.69 726.1,-991.42 719.8,-982.9 715.86,-988.69"/>
</a>
</g>
</g>
<!-- Node7 -->
<g id="Node000007" class="node">
<title>Node7</title>
<g id="a_Node000007"><a xlink:href="classCreateInput.html#acd3d8c7d766ba09d5c3700889d2c04cf" target="_top" xlink:title="Generate molecule section with coordinates.">
<polygon fill="white" stroke="#666666" points="846,-973.5 723,-973.5 723,-943.5 846,-943.5 846,-973.5"/>
<text text-anchor="start" x="731" y="-961.5" font-family="Helvetica,sans-Serif" font-size="10.00">CreateInput::generate</text>
<text text-anchor="middle" x="784.5" y="-950.5" font-family="Helvetica,sans-Serif" font-size="10.00">_molecule_section</text>
</a>
</g>
</g>
<!-- Node5&#45;&gt;Node7 -->
<g id="edge6_Node000005_Node000007" class="edge">
<title>Node5&#45;&gt;Node7</title>
<g id="a_edge6_Node000005_Node000007"><a xlink:title=" ">
<path fill="none" stroke="#63b8ff" d="M662.96,-882.65C668.24,-885.23 673.38,-888.17 678,-891.5 698.22,-906.07 693.47,-920.36 714,-934.5 716.24,-936.04 718.59,-937.49 721.01,-938.86"/>
<polygon fill="#63b8ff" stroke="#63b8ff" points="719.54,-942.04 730.05,-943.43 722.71,-935.8 719.54,-942.04"/>
</a>
</g>
</g>
<!-- Node8 -->
<g id="Node000008" class="node">
<title>Node8</title>
<g id="a_Node000008"><a xlink:href="classCreateInput.html#af324c20a23853c65cdaf487497bb84a9" target="_top" xlink:title="Generate route section for different calculation types.">
<polygon fill="white" stroke="#666666" points="846,-925.5 723,-925.5 723,-895.5 846,-895.5 846,-925.5"/>
<text text-anchor="start" x="731" y="-913.5" font-family="Helvetica,sans-Serif" font-size="10.00">CreateInput::generate</text>
<text text-anchor="middle" x="784.5" y="-902.5" font-family="Helvetica,sans-Serif" font-size="10.00">_route_section</text>
</a>
</g>
</g>
<!-- Node5&#45;&gt;Node8 -->
<g id="edge7_Node000005_Node000008" class="edge">
<title>Node5&#45;&gt;Node8</title>
<g id="a_edge7_Node000005_Node000008"><a xlink:title=" ">
<path fill="none" stroke="#63b8ff" d="M675.23,-882.54C688.16,-885.88 701.98,-889.45 715.26,-892.88"/>
<polygon fill="#63b8ff" stroke="#63b8ff" points="714.74,-896.36 725.3,-895.47 716.49,-889.58 714.74,-896.36"/>
</a>
</g>
</g>
<!-- Node9 -->
<g id="Node000009" class="node">
<title>Node9</title>
<g id="a_Node000009"><a xlink:href="classCreateInput.html#aaa26966f65695608137d998b5659e4fe" target="_top" xlink:title="Smartly select the appropriate basis set based on calculation type.">
<polygon fill="white" stroke="#666666" points="1016,-882.5 891,-882.5 891,-852.5 1016,-852.5 1016,-882.5"/>
<text text-anchor="start" x="899" y="-870.5" font-family="Helvetica,sans-Serif" font-size="10.00">CreateInput::select</text>
<text text-anchor="middle" x="953.5" y="-859.5" font-family="Helvetica,sans-Serif" font-size="10.00">_basis_for_calculation</text>
</a>
</g>
</g>
<!-- Node5&#45;&gt;Node9 -->
<g id="edge11_Node000005_Node000009" class="edge">
<title>Node5&#45;&gt;Node9</title>
<g id="a_edge11_Node000005_Node000009"><a xlink:title=" ">
<path fill="none" stroke="#63b8ff" d="M677.76,-867.5C734.79,-867.5 820.14,-867.5 880.55,-867.5"/>
<polygon fill="#63b8ff" stroke="#63b8ff" points="880.78,-871 890.78,-867.5 880.78,-864 880.78,-871"/>
</a>
</g>
</g>
<!-- Node10 -->
<g id="Node000010" class="node">
<title>Node10</title>
<g id="a_Node000010"><a xlink:href="classCreateInput.html#aed0a3cb3385f77c8f2f61d44f1c4efa1" target="_top" xlink:title="Generate title for current calculation type.">
<polygon fill="white" stroke="#666666" points="846,-839.5 723,-839.5 723,-809.5 846,-809.5 846,-839.5"/>
<text text-anchor="start" x="731" y="-827.5" font-family="Helvetica,sans-Serif" font-size="10.00">CreateInput::generate</text>
<text text-anchor="middle" x="784.5" y="-816.5" font-family="Helvetica,sans-Serif" font-size="10.00">_title</text>
</a>
</g>
</g>
<!-- Node5&#45;&gt;Node10 -->
<g id="edge9_Node000005_Node000010" class="edge">
<title>Node5&#45;&gt;Node10</title>
<g id="a_edge9_Node000005_Node000010"><a xlink:title=" ">
<path fill="none" stroke="#63b8ff" d="M675.23,-852.46C688.16,-849.12 701.98,-845.55 715.26,-842.12"/>
<polygon fill="#63b8ff" stroke="#63b8ff" points="716.49,-845.42 725.3,-839.53 714.74,-838.64 716.49,-845.42"/>
</a>
</g>
</g>
<!-- Node11 -->
<g id="Node000011" class="node">
<title>Node11</title>
<g id="a_Node000011"><a xlink:href="classCreateInput.html#a781b25e4d5f838ad1a106649a487f5e0" target="_top" xlink:title="Check if the given basis string is GEN or GENECP (case insensitive)">
<polygon fill="white" stroke="#666666" points="1009,-770.5 898,-770.5 898,-740.5 1009,-740.5 1009,-770.5"/>
<text text-anchor="start" x="906" y="-758.5" font-family="Helvetica,sans-Serif" font-size="10.00">CreateInput::is_gen</text>
<text text-anchor="middle" x="953.5" y="-747.5" font-family="Helvetica,sans-Serif" font-size="10.00">_basis</text>
</a>
</g>
</g>
<!-- Node5&#45;&gt;Node11 -->
<g id="edge10_Node000005_Node000011" class="edge">
<title>Node5&#45;&gt;Node11</title>
<g id="a_edge10_Node000005_Node000011"><a xlink:title=" ">
<path fill="none" stroke="#63b8ff" d="M666.22,-852.48C670.52,-849.93 674.54,-846.96 678,-843.5 708.78,-812.77 678.03,-776.95 714,-752.5 767.57,-716.09 844.71,-725.29 896.63,-737.96"/>
<polygon fill="#63b8ff" stroke="#63b8ff" points="895.78,-741.36 906.34,-740.44 897.52,-734.58 895.78,-741.36"/>
</a>
</g>
</g>
<!-- Node12 -->
<g id="Node000012" class="node">
<title>Node12</title>
<g id="a_Node000012"><a xlink:href="classCreateInput.html#af1835325332d8cda3bc6566040afc4cc" target="_top" xlink:title="Validates requirements for calculations with GEN/GENECP basis.">
<polygon fill="white" stroke="#666666" points="855,-791.5 714,-791.5 714,-761.5 855,-761.5 855,-791.5"/>
<text text-anchor="start" x="722" y="-779.5" font-family="Helvetica,sans-Serif" font-size="10.00">CreateInput::validate</text>
<text text-anchor="middle" x="784.5" y="-768.5" font-family="Helvetica,sans-Serif" font-size="10.00">_gen_basis_requirements</text>
</a>
</g>
</g>
<!-- Node5&#45;&gt;Node12 -->
<g id="edge12_Node000005_Node000012" class="edge">
<title>Node5&#45;&gt;Node12</title>
<g id="a_edge12_Node000005_Node000012"><a xlink:title=" ">
<path fill="none" stroke="#63b8ff" d="M662.96,-852.35C668.24,-849.77 673.38,-846.83 678,-843.5 698.22,-828.93 693.47,-814.64 714,-800.5 716.24,-798.96 718.59,-797.51 721.01,-796.14"/>
<polygon fill="#63b8ff" stroke="#63b8ff" points="722.71,-799.2 730.05,-791.57 719.54,-792.96 722.71,-799.2"/>
</a>
</g>
</g>
<!-- Node8&#45;&gt;Node9 -->
<g id="edge8_Node000008_Node000009" class="edge">
<title>Node8&#45;&gt;Node9</title>
<g id="a_edge8_Node000008_Node000009"><a xlink:title=" ">
<path fill="none" stroke="#63b8ff" d="M843.91,-895.46C856.88,-892.12 870.73,-888.55 884.06,-885.12"/>
<polygon fill="#63b8ff" stroke="#63b8ff" points="885.31,-888.41 894.12,-882.53 883.57,-881.63 885.31,-888.41"/>
</a>
</g>
</g>
<!-- Node12&#45;&gt;Node9 -->
<g id="edge14_Node000012_Node000009" class="edge">
<title>Node12&#45;&gt;Node9</title>
<g id="a_edge14_Node000012_Node000009"><a xlink:title=" ">
<path fill="none" stroke="#63b8ff" d="M834.42,-791.52C841.46,-794.21 848.5,-797.22 855,-800.5 880.28,-813.26 906.62,-831.71 925.53,-846.02"/>
<polygon fill="#63b8ff" stroke="#63b8ff" points="923.61,-848.95 933.67,-852.27 927.87,-843.4 923.61,-848.95"/>
</a>
</g>
</g>
<!-- Node12&#45;&gt;Node11 -->
<g id="edge13_Node000012_Node000011" class="edge">
<title>Node12&#45;&gt;Node11</title>
<g id="a_edge13_Node000012_Node000011"><a xlink:title=" ">
<path fill="none" stroke="#63b8ff" d="M855.36,-767.72C866.12,-766.36 877.21,-764.97 887.85,-763.63"/>
<polygon fill="#63b8ff" stroke="#63b8ff" points="888.42,-767.09 897.91,-762.36 887.55,-760.14 888.42,-767.09"/>
</a>
</g>
</g>
<!-- Node37 -->
<g id="Node000037" class="node">
<title>Node37</title>
<g id="a_Node000037"><a xlink:href="module__executor_8cpp.html#a8e7c4c59b8dda0ef232dc7f9160a8bea" target="_top" xlink:title=" ">
<polygon fill="white" stroke="#666666" points="502.5,-19 388.5,-19 388.5,0 502.5,0 502.5,-19"/>
<text text-anchor="middle" x="445.5" y="-7" font-family="Helvetica,sans-Serif" font-size="10.00">signal_handler_func</text>
</a>
</g>
</g>
<!-- Node36&#45;&gt;Node37 -->
<g id="edge40_Node000036_Node000037" class="edge">
<title>Node36&#45;&gt;Node37</title>
<g id="a_edge40_Node000036_Node000037"><a xlink:title=" ">
<path fill="none" stroke="#63b8ff" d="M309.63,-9.5C331.5,-9.5 356.18,-9.5 378.4,-9.5"/>
<polygon fill="#63b8ff" stroke="#63b8ff" points="378.42,-13 388.42,-9.5 378.42,-6 378.42,-13"/>
</a>
</g>
</g>
</g>
</svg>
