<?xml version="1.0" encoding="UTF-8" standalone="no"?>
<!DOCTYPE svg PUBLIC "-//W3C//DTD SVG 1.1//EN"
 "http://www.w3.org/Graphics/SVG/1.1/DTD/svg11.dtd">
<!-- Generated by graphviz version 2.43.0 (0)
 -->
<!-- Title: execute_check_imaginary_command Pages: 1 -->
<!--zoomable 253 -->

<svg id="main" version="1.1" xmlns="http://www.w3.org/2000/svg" xmlns:xlink="http://www.w3.org/1999/xlink" xml:space="preserve" onload="init(evt)">
<style type="text/css"><![CDATA[
.node, .edge {opacity: 0.7;}
.node.selected, .edge.selected {opacity: 1;}
.edge:hover path { stroke: red; }
.edge:hover polygon { stroke: red; fill: red; }
]]></style>

<defs>
  <circle id="rim" cx="0" cy="0" r="7"/>
  <circle id="rim2" cx="0" cy="0" r="3.5"/>
  <g id="zoomPlus">
    <use xlink:href="#rim" fill="#404040"><set attributeName="fill" to="#808080" begin="zoomplus.mouseover" end="zoomplus.mouseout"/></use>
    <path d="M-4,0h8M0,-4v8" fill="none" stroke="white" stroke-width="1.5" pointer-events="none"/>
  </g>
  <g id="zoomMin">
    <use xlink:href="#rim" fill="#404040"><set attributeName="fill" to="#808080" begin="zoomminus.mouseover" end="zoomminus.mouseout"/></use>
    <path d="M-4,0h8" fill="none" stroke="white" stroke-width="1.5" pointer-events="none"/>
  </g>
  <g id="arrowUp" transform="translate(30 24)">
    <use xlink:href="#rim"/>
    <path pointer-events="none" fill="none" stroke="white" stroke-width="1.5" d="M0,-3.0v7 M-2.5,-0.5L0,-3.0L2.5,-0.5"/>
  </g>
  <g id="arrowRight" transform="rotate(90) translate(36 -43)">
    <use xlink:href="#rim"/>
    <path pointer-events="none" fill="none" stroke="white" stroke-width="1.5" d="M0,-3.0v7 M-2.5,-0.5L0,-3.0L2.5,-0.5"/>
  </g>
  <g id="arrowDown" transform="rotate(180) translate(-30 -48)">
    <use xlink:href="#rim"/>
    <path pointer-events="none" fill="none" stroke="white" stroke-width="1.5" d="M0,-3.0v7 M-2.5,-0.5L0,-3.0L2.5,-0.5"/>
  </g>
  <g id="arrowLeft" transform="rotate(270) translate(-36 17)">
    <use xlink:href="#rim"/>
    <path pointer-events="none" fill="none" stroke="white" stroke-width="1.5" d="M0,-3.0v7 M-2.5,-0.5L0,-3.0L2.5,-0.5"/>
  </g>
  <g id="resetDef">
    <use xlink:href="#rim2" fill="#404040"><set attributeName="fill" to="#808080" begin="reset.mouseover" end="reset.mouseout"/></use>
  </g>
</defs>
<script type="application/ecmascript">
var viewWidth = 684;
var viewHeight = 253;
var sectionId = 'dynsection-8';
</script>
<script type="application/ecmascript" xlink:href="svg.min.js"/>
<svg id="graph" class="graph">
<g id="viewport">
<title>execute_check_imaginary_command</title>
<!-- Node1 -->
<g id="Node000001" class="node">
<title>Node1</title>
<g id="a_Node000001"><a xlink:title=" ">
<polygon fill="#999999" stroke="#666666" points="143,-98.5 0,-98.5 0,-68.5 143,-68.5 143,-98.5"/>
<text text-anchor="start" x="8" y="-86.5" font-family="Helvetica,sans-Serif" font-size="10.00">execute_check_imaginary</text>
<text text-anchor="middle" x="71.5" y="-75.5" font-family="Helvetica,sans-Serif" font-size="10.00">_command</text>
</a>
</g>
</g>
<!-- Node2 -->
<g id="Node000002" class="node">
<title>Node2</title>
<g id="a_Node000002"><a xlink:href="group__MainChecking.html#gaf46bb6ecb38c0c2c1f35506d6a67b8e0" target="_top" xlink:title="Check and organize jobs with imaginary frequencies.">
<polygon fill="white" stroke="#666666" points="339,-183.5 179,-183.5 179,-153.5 339,-153.5 339,-183.5"/>
<text text-anchor="start" x="187" y="-171.5" font-family="Helvetica,sans-Serif" font-size="10.00">JobChecker::check_imaginary</text>
<text text-anchor="middle" x="259" y="-160.5" font-family="Helvetica,sans-Serif" font-size="10.00">_frequencies</text>
</a>
</g>
</g>
<!-- Node1&#45;&gt;Node2 -->
<g id="edge1_Node000001_Node000002" class="edge">
<title>Node1&#45;&gt;Node2</title>
<g id="a_edge1_Node000001_Node000002"><a xlink:title=" ">
<path fill="none" stroke="#63b8ff" d="M98.72,-98.53C119.99,-110.42 150.94,-127.04 179,-139.5 187.05,-143.08 195.69,-146.58 204.2,-149.84"/>
<polygon fill="#63b8ff" stroke="#63b8ff" points="203.12,-153.17 213.71,-153.41 205.58,-146.62 203.12,-153.17"/>
</a>
</g>
</g>
<!-- Node7 -->
<g id="Node000007" class="node">
<title>Node7</title>
<g id="a_Node000007"><a xlink:href="group__MemoryMonitorImpl.html#ga9a325bd1793b5dc5e9490383802ad169" target="_top" xlink:title=" ">
<polygon fill="white" stroke="#666666" points="296,-130 222,-130 222,-111 296,-111 296,-130"/>
<text text-anchor="middle" x="259" y="-118" font-family="Helvetica,sans-Serif" font-size="10.00">findLogFiles</text>
</a>
</g>
</g>
<!-- Node1&#45;&gt;Node7 -->
<g id="edge6_Node000001_Node000007" class="edge">
<title>Node1&#45;&gt;Node7</title>
<g id="a_edge6_Node000001_Node000007"><a xlink:title=" ">
<path fill="none" stroke="#63b8ff" d="M143.16,-97.59C166.21,-102.19 191.2,-107.18 211.96,-111.32"/>
<polygon fill="#63b8ff" stroke="#63b8ff" points="211.29,-114.75 221.78,-113.28 212.66,-107.89 211.29,-114.75"/>
</a>
</g>
</g>
<!-- Node9 -->
<g id="Node000009" class="node">
<title>Node9</title>
<g id="a_Node000009"><a xlink:href="group__ProgressReporting.html#ga8bbe0e03b48d0137b1a03827a6c6ffd2" target="_top" xlink:title="Print comprehensive summary of checking operation.">
<polygon fill="white" stroke="#666666" points="334.5,-93 183.5,-93 183.5,-74 334.5,-74 334.5,-93"/>
<text text-anchor="middle" x="259" y="-81" font-family="Helvetica,sans-Serif" font-size="10.00">JobChecker::print_summary</text>
</a>
</g>
</g>
<!-- Node1&#45;&gt;Node9 -->
<g id="edge8_Node000001_Node000009" class="edge">
<title>Node1&#45;&gt;Node9</title>
<g id="a_edge8_Node000001_Node000009"><a xlink:title=" ">
<path fill="none" stroke="#63b8ff" d="M143.16,-83.5C152.89,-83.5 162.96,-83.5 172.91,-83.5"/>
<polygon fill="#63b8ff" stroke="#63b8ff" points="173.22,-87 183.22,-83.5 173.22,-80 173.22,-87"/>
</a>
</g>
</g>
<!-- Node10 -->
<g id="Node000010" class="node">
<title>Node10</title>
<g id="a_Node000010"><a xlink:href="group__MemoryMonitorImpl.html#ga9c5d14b4926584b6a71df4a0262ecb5d" target="_top" xlink:title="Print resource usage statistics from processing context.">
<polygon fill="white" stroke="#666666" points="316.5,-56 201.5,-56 201.5,-37 316.5,-37 316.5,-56"/>
<text text-anchor="middle" x="259" y="-44" font-family="Helvetica,sans-Serif" font-size="10.00">printResourceUsage</text>
</a>
</g>
</g>
<!-- Node1&#45;&gt;Node10 -->
<g id="edge9_Node000001_Node000010" class="edge">
<title>Node1&#45;&gt;Node10</title>
<g id="a_edge9_Node000001_Node000010"><a xlink:title=" ">
<path fill="none" stroke="#63b8ff" d="M143.16,-69.41C162.08,-65.63 182.3,-61.6 200.42,-57.99"/>
<polygon fill="#63b8ff" stroke="#63b8ff" points="201.12,-61.41 210.25,-56.02 199.76,-54.55 201.12,-61.41"/>
</a>
</g>
</g>
<!-- Node12 -->
<g id="Node000012" class="node">
<title>Node12</title>
<g id="a_Node000012"><a xlink:href="module__executor_8cpp.html#a7df47e37fd55c553b8fd39cf996d786c" target="_top" xlink:title=" ">
<polygon fill="white" stroke="#666666" points="321.5,-19 196.5,-19 196.5,0 321.5,0 321.5,-19"/>
<text text-anchor="middle" x="259" y="-7" font-family="Helvetica,sans-Serif" font-size="10.00">setup_signal_handlers</text>
</a>
</g>
</g>
<!-- Node1&#45;&gt;Node12 -->
<g id="edge11_Node000001_Node000012" class="edge">
<title>Node1&#45;&gt;Node12</title>
<g id="a_edge11_Node000001_Node000012"><a xlink:title=" ">
<path fill="none" stroke="#63b8ff" d="M96.62,-68.49C117.68,-55.95 149.41,-38.44 179,-27.5 184.8,-25.36 190.94,-23.42 197.13,-21.68"/>
<polygon fill="#63b8ff" stroke="#63b8ff" points="198.08,-25.04 206.86,-19.1 196.29,-18.28 198.08,-25.04"/>
</a>
</g>
</g>
<!-- Node3 -->
<g id="Node000003" class="node">
<title>Node3</title>
<g id="a_Node000003"><a xlink:href="group__MemoryMonitorImpl.html#gaf6946ebbf530a167fc82bb7f20b36a42" target="_top" xlink:title="Calculate safe thread count considering job scheduler limits.">
<polygon fill="white" stroke="#666666" points="520,-245 375,-245 375,-226 520,-226 520,-245"/>
<text text-anchor="middle" x="447.5" y="-233" font-family="Helvetica,sans-Serif" font-size="10.00">calculateSafeThreadCount</text>
</a>
</g>
</g>
<!-- Node2&#45;&gt;Node3 -->
<g id="edge2_Node000002_Node000003" class="edge">
<title>Node2&#45;&gt;Node3</title>
<g id="a_edge2_Node000002_Node000003"><a xlink:title=" ">
<path fill="none" stroke="#63b8ff" d="M292.76,-183.57C315.52,-193.7 346.73,-206.89 375,-216.5 382.1,-218.91 389.69,-221.21 397.16,-223.33"/>
<polygon fill="#63b8ff" stroke="#63b8ff" points="396.31,-226.72 406.88,-226 398.16,-219.97 396.31,-226.72"/>
</a>
</g>
</g>
<!-- Node4 -->
<g id="Node000004" class="node">
<title>Node4</title>
<g id="a_Node000004"><a xlink:href="group__FileOperations.html#gaac546681af83004ec02d1c7d06915902" target="_top" xlink:title="Create target directory for file organization.">
<polygon fill="white" stroke="#666666" points="501,-207.5 394,-207.5 394,-177.5 501,-177.5 501,-207.5"/>
<text text-anchor="start" x="402" y="-195.5" font-family="Helvetica,sans-Serif" font-size="10.00">JobChecker::create</text>
<text text-anchor="middle" x="447.5" y="-184.5" font-family="Helvetica,sans-Serif" font-size="10.00">_target_directory</text>
</a>
</g>
</g>
<!-- Node2&#45;&gt;Node4 -->
<g id="edge3_Node000002_Node000004" class="edge">
<title>Node2&#45;&gt;Node4</title>
<g id="a_edge3_Node000002_Node000004"><a xlink:title=" ">
<path fill="none" stroke="#63b8ff" d="M339.09,-178.68C353.95,-180.59 369.3,-182.57 383.59,-184.4"/>
<polygon fill="#63b8ff" stroke="#63b8ff" points="383.41,-187.91 393.78,-185.72 384.31,-180.97 383.41,-187.91"/>
</a>
</g>
</g>
<!-- Node6 -->
<g id="Node000006" class="node">
<title>Node6</title>
<g id="a_Node000006"><a xlink:href="group__FileOperations.html#ga0b60dfe238c3c9d5fa3144ec4fc22930" target="_top" xlink:title="Get the name of the current working directory.">
<polygon fill="white" stroke="#666666" points="513.5,-159.5 381.5,-159.5 381.5,-129.5 513.5,-129.5 513.5,-159.5"/>
<text text-anchor="start" x="389.5" y="-147.5" font-family="Helvetica,sans-Serif" font-size="10.00">JobChecker::get_current</text>
<text text-anchor="middle" x="447.5" y="-136.5" font-family="Helvetica,sans-Serif" font-size="10.00">_directory_name</text>
</a>
</g>
</g>
<!-- Node2&#45;&gt;Node6 -->
<g id="edge5_Node000002_Node000006" class="edge">
<title>Node2&#45;&gt;Node6</title>
<g id="a_edge5_Node000002_Node000006"><a xlink:title=" ">
<path fill="none" stroke="#63b8ff" d="M339.09,-158.32C349.78,-156.95 360.71,-155.54 371.33,-154.17"/>
<polygon fill="#63b8ff" stroke="#63b8ff" points="371.91,-157.63 381.38,-152.88 371.02,-150.68 371.91,-157.63"/>
</a>
</g>
</g>
<!-- Node5 -->
<g id="Node000005" class="node">
<title>Node5</title>
<g id="a_Node000005"><a xlink:href="group__UtilityFunctions.html#ga882d844778896dd43317ad4c3fb5b6a3" target="_top" xlink:title="Log error message with appropriate formatting and collection.">
<polygon fill="white" stroke="#666666" points="676,-202 556,-202 556,-183 676,-183 676,-202"/>
<text text-anchor="middle" x="616" y="-190" font-family="Helvetica,sans-Serif" font-size="10.00">JobChecker::log_error</text>
</a>
</g>
</g>
<!-- Node4&#45;&gt;Node5 -->
<g id="edge4_Node000004_Node000005" class="edge">
<title>Node4&#45;&gt;Node5</title>
<g id="a_edge4_Node000004_Node000005"><a xlink:title=" ">
<path fill="none" stroke="#63b8ff" d="M501.18,-192.5C515.27,-192.5 530.71,-192.5 545.56,-192.5"/>
<polygon fill="#63b8ff" stroke="#63b8ff" points="545.71,-196 555.71,-192.5 545.71,-189 545.71,-196"/>
</a>
</g>
</g>
<!-- Node8 -->
<g id="Node000008" class="node">
<title>Node8</title>
<g id="a_Node000008"><a xlink:href="group__MemoryMonitorImpl.html#ga92b44bc7f664ca63d4213f46ecc7714f" target="_top" xlink:title="Find all Gaussian log files in the current directory.">
<polygon fill="white" stroke="#666666" points="484.5,-111 410.5,-111 410.5,-92 484.5,-92 484.5,-111"/>
<text text-anchor="middle" x="447.5" y="-99" font-family="Helvetica,sans-Serif" font-size="10.00">findLogFiles</text>
</a>
</g>
</g>
<!-- Node7&#45;&gt;Node8 -->
<g id="edge7_Node000007_Node000008" class="edge">
<title>Node7&#45;&gt;Node8</title>
<g id="a_edge7_Node000007_Node000008"><a xlink:title=" ">
<path fill="none" stroke="#63b8ff" d="M296.4,-116.79C326.05,-113.77 368.11,-109.49 400.16,-106.22"/>
<polygon fill="#63b8ff" stroke="#63b8ff" points="400.6,-109.69 410.19,-105.2 399.89,-102.73 400.6,-109.69"/>
</a>
</g>
</g>
<!-- Node11 -->
<g id="Node000011" class="node">
<title>Node11</title>
<g id="a_Node000011"><a xlink:href="group__MemoryMonitorImpl.html#gad9472b23817cf18d4ae5c857afb94c5f" target="_top" xlink:title=" ">
<polygon fill="white" stroke="#666666" points="502.5,-56 392.5,-56 392.5,-37 502.5,-37 502.5,-56"/>
<text text-anchor="middle" x="447.5" y="-44" font-family="Helvetica,sans-Serif" font-size="10.00">formatMemorySize</text>
</a>
</g>
</g>
<!-- Node10&#45;&gt;Node11 -->
<g id="edge10_Node000010_Node000011" class="edge">
<title>Node10&#45;&gt;Node11</title>
<g id="a_edge10_Node000010_Node000011"><a xlink:title=" ">
<path fill="none" stroke="#63b8ff" d="M316.72,-46.5C337.35,-46.5 360.81,-46.5 382.06,-46.5"/>
<polygon fill="#63b8ff" stroke="#63b8ff" points="382.29,-50 392.29,-46.5 382.29,-43 382.29,-50"/>
</a>
</g>
</g>
<!-- Node13 -->
<g id="Node000013" class="node">
<title>Node13</title>
<g id="a_Node000013"><a xlink:href="module__executor_8cpp.html#a8e7c4c59b8dda0ef232dc7f9160a8bea" target="_top" xlink:title=" ">
<polygon fill="white" stroke="#666666" points="504.5,-19 390.5,-19 390.5,0 504.5,0 504.5,-19"/>
<text text-anchor="middle" x="447.5" y="-7" font-family="Helvetica,sans-Serif" font-size="10.00">signal_handler_func</text>
</a>
</g>
</g>
<!-- Node12&#45;&gt;Node13 -->
<g id="edge12_Node000012_Node000013" class="edge">
<title>Node12&#45;&gt;Node13</title>
<g id="a_edge12_Node000012_Node000013"><a xlink:title=" ">
<path fill="none" stroke="#63b8ff" d="M321.58,-9.5C340.38,-9.5 361.13,-9.5 380.22,-9.5"/>
<polygon fill="#63b8ff" stroke="#63b8ff" points="380.33,-13 390.33,-9.5 380.33,-6 380.33,-13"/>
</a>
</g>
</g>
</g>
</svg>

<g id="navigator" transform="translate(0 0)" fill="#404254">
  <rect fill="#f2f5e9" fill-opacity="0.5" stroke="#606060" stroke-width=".5" x="0" y="0" width="60" height="60"/>
  <use id="zoomplus" xlink:href="#zoomPlus" x="17" y="9" onmousedown="handleZoom(evt,'in')"/>
  <use id="zoomminus" xlink:href="#zoomMin" x="42" y="9" onmousedown="handleZoom(evt,'out')"/>
  <use id="reset" xlink:href="#resetDef" x="30" y="36" onmousedown="handleReset()"/>
   <use id="arrowup" xlink:href="#arrowUp" x="0" y="0" onmousedown="handlePan(0,-1)"/>
  <use id="arrowright" xlink:href="#arrowRight" x="0" y="0" onmousedown="handlePan(1,0)"/>
  <use id="arrowdown" xlink:href="#arrowDown" x="0" y="0" onmousedown="handlePan(0,1)"/>
  <use id="arrowleft" xlink:href="#arrowLeft" x="0" y="0" onmousedown="handlePan(-1,0)"/>
</g>
<svg viewBox="0 0 15 15" width="100%" height="30px" preserveAspectRatio="xMaxYMin meet">
 <g id="arrow_out" transform="scale(0.3 0.3)">
  <a xlink:href="interactive__mode_8h_a4f5c061099b04712ebc615b32108fdd5_cgraph_org.svg" target="_base">
   <rect id="button" ry="5" rx="5" y="6" x="6" height="38" width="38"
        fill="#f2f5e9" fill-opacity="0.5" stroke="#606060" stroke-width="1.0"/>
   <path id="arrow"
     d="M 11.500037,31.436501 C 11.940474,20.09759 22.043105,11.32322 32.158766,21.979434 L 37.068811,17.246167 C 37.068811,17.246167 37.088388,32 37.088388,32 L 22.160133,31.978069 C 22.160133,31.978069 26.997745,27.140456 26.997745,27.140456 C 18.528582,18.264221 13.291696,25.230495 11.500037,31.436501 z"
     style="fill:#404040;"/>
  </a>
 </g>
</svg>

<style type='text/css'>
<![CDATA[
[data-mouse-over-selected='false'] { opacity: 0.7; }
[data-mouse-over-selected='true']  { opacity: 1.0; }
]]>
</style>
<script type="application/ecmascript"><![CDATA[
document.addEventListener('DOMContentLoaded', (event) => {
  highlightEdges();
  highlightAdjacentNodes();
});
]]></script>
</svg>
