<?xml version="1.0" encoding="UTF-8" standalone="no"?>
<!DOCTYPE svg PUBLIC "-//W3C//DTD SVG 1.1//EN"
 "http://www.w3.org/Graphics/SVG/1.1/DTD/svg11.dtd">
<!-- Generated by graphviz version 2.43.0 (0)
 -->
<!-- Title: execute_check_done_command Pages: 1 -->
<svg width="687pt" height="253pt"
 viewBox="0.00 0.00 687.00 253.00" xmlns="http://www.w3.org/2000/svg" xmlns:xlink="http://www.w3.org/1999/xlink">
<g id="graph0" class="graph" transform="scale(1 1) rotate(0) translate(4 249)">
<title>execute_check_done_command</title>
<!-- Node1 -->
<g id="Node000001" class="node">
<title>Node1</title>
<g id="a_Node000001"><a xlink:title=" ">
<polygon fill="#999999" stroke="#666666" points="118,-98.5 0,-98.5 0,-68.5 118,-68.5 118,-98.5"/>
<text text-anchor="start" x="8" y="-86.5" font-family="Helvetica,sans-Serif" font-size="10.00">execute_check_done</text>
<text text-anchor="middle" x="59" y="-75.5" font-family="Helvetica,sans-Serif" font-size="10.00">_command</text>
</a>
</g>
</g>
<!-- Node2 -->
<g id="Node000002" class="node">
<title>Node2</title>
<g id="a_Node000002"><a xlink:href="group__MainChecking.html#ga45e3257791a2470c3f071101d0c9cc78" target="_top" xlink:title="Check and organize completed job calculations.">
<polygon fill="white" stroke="#666666" points="342,-175 154,-175 154,-156 342,-156 342,-175"/>
<text text-anchor="middle" x="248" y="-163" font-family="Helvetica,sans-Serif" font-size="10.00">JobChecker::check_completed_jobs</text>
</a>
</g>
</g>
<!-- Node1&#45;&gt;Node2 -->
<g id="edge1_Node000001_Node000002" class="edge">
<title>Node1&#45;&gt;Node2</title>
<g id="a_edge1_Node000001_Node000002"><a xlink:title=" ">
<path fill="none" stroke="#63b8ff" d="M81.53,-98.58C100.04,-110.98 127.81,-128.27 154,-139.5 166.52,-144.87 180.47,-149.45 193.67,-153.2"/>
<polygon fill="#63b8ff" stroke="#63b8ff" points="193.02,-156.65 203.59,-155.91 194.86,-149.9 193.02,-156.65"/>
</a>
</g>
</g>
<!-- Node7 -->
<g id="Node000007" class="node">
<title>Node7</title>
<g id="a_Node000007"><a xlink:href="group__MemoryMonitorImpl.html#ga9a325bd1793b5dc5e9490383802ad169" target="_top" xlink:title=" ">
<polygon fill="white" stroke="#666666" points="285,-130 211,-130 211,-111 285,-111 285,-130"/>
<text text-anchor="middle" x="248" y="-118" font-family="Helvetica,sans-Serif" font-size="10.00">findLogFiles</text>
</a>
</g>
</g>
<!-- Node1&#45;&gt;Node7 -->
<g id="edge6_Node000001_Node000007" class="edge">
<title>Node1&#45;&gt;Node7</title>
<g id="a_edge6_Node000001_Node000007"><a xlink:title=" ">
<path fill="none" stroke="#63b8ff" d="M118.14,-95C144.81,-100.28 175.98,-106.45 200.98,-111.39"/>
<polygon fill="#63b8ff" stroke="#63b8ff" points="200.45,-114.86 210.94,-113.36 201.81,-107.99 200.45,-114.86"/>
</a>
</g>
</g>
<!-- Node9 -->
<g id="Node000009" class="node">
<title>Node9</title>
<g id="a_Node000009"><a xlink:href="group__ProgressReporting.html#ga8bbe0e03b48d0137b1a03827a6c6ffd2" target="_top" xlink:title="Print comprehensive summary of checking operation.">
<polygon fill="white" stroke="#666666" points="323.5,-93 172.5,-93 172.5,-74 323.5,-74 323.5,-93"/>
<text text-anchor="middle" x="248" y="-81" font-family="Helvetica,sans-Serif" font-size="10.00">JobChecker::print_summary</text>
</a>
</g>
</g>
<!-- Node1&#45;&gt;Node9 -->
<g id="edge8_Node000001_Node000009" class="edge">
<title>Node1&#45;&gt;Node9</title>
<g id="a_edge8_Node000001_Node000009"><a xlink:title=" ">
<path fill="none" stroke="#63b8ff" d="M118.14,-83.5C132.08,-83.5 147.25,-83.5 162.12,-83.5"/>
<polygon fill="#63b8ff" stroke="#63b8ff" points="162.35,-87 172.35,-83.5 162.35,-80 162.35,-87"/>
</a>
</g>
</g>
<!-- Node10 -->
<g id="Node000010" class="node">
<title>Node10</title>
<g id="a_Node000010"><a xlink:href="group__MemoryMonitorImpl.html#ga9c5d14b4926584b6a71df4a0262ecb5d" target="_top" xlink:title="Print resource usage statistics from processing context.">
<polygon fill="white" stroke="#666666" points="305.5,-56 190.5,-56 190.5,-37 305.5,-37 305.5,-56"/>
<text text-anchor="middle" x="248" y="-44" font-family="Helvetica,sans-Serif" font-size="10.00">printResourceUsage</text>
</a>
</g>
</g>
<!-- Node1&#45;&gt;Node10 -->
<g id="edge9_Node000001_Node000010" class="edge">
<title>Node1&#45;&gt;Node10</title>
<g id="a_edge9_Node000001_Node000010"><a xlink:title=" ">
<path fill="none" stroke="#63b8ff" d="M118.15,-71.67C130.01,-69.28 142.4,-66.79 154,-64.5 164.75,-62.37 176.2,-60.14 187.26,-57.99"/>
<polygon fill="#63b8ff" stroke="#63b8ff" points="188.12,-61.39 197.27,-56.05 186.79,-54.51 188.12,-61.39"/>
</a>
</g>
</g>
<!-- Node12 -->
<g id="Node000012" class="node">
<title>Node12</title>
<g id="a_Node000012"><a xlink:href="module__executor_8cpp.html#a7df47e37fd55c553b8fd39cf996d786c" target="_top" xlink:title=" ">
<polygon fill="white" stroke="#666666" points="310.5,-19 185.5,-19 185.5,0 310.5,0 310.5,-19"/>
<text text-anchor="middle" x="248" y="-7" font-family="Helvetica,sans-Serif" font-size="10.00">setup_signal_handlers</text>
</a>
</g>
</g>
<!-- Node1&#45;&gt;Node12 -->
<g id="edge11_Node000001_Node000012" class="edge">
<title>Node1&#45;&gt;Node12</title>
<g id="a_edge11_Node000001_Node000012"><a xlink:title=" ">
<path fill="none" stroke="#63b8ff" d="M80.58,-68.38C98.94,-55.6 127.02,-37.79 154,-27.5 160.76,-24.92 167.95,-22.7 175.21,-20.78"/>
<polygon fill="#63b8ff" stroke="#63b8ff" points="176.24,-24.13 185.13,-18.36 174.58,-17.33 176.24,-24.13"/>
</a>
</g>
</g>
<!-- Node3 -->
<g id="Node000003" class="node">
<title>Node3</title>
<g id="a_Node000003"><a xlink:href="group__MemoryMonitorImpl.html#gaf6946ebbf530a167fc82bb7f20b36a42" target="_top" xlink:title="Calculate safe thread count considering job scheduler limits.">
<polygon fill="white" stroke="#666666" points="523,-245 378,-245 378,-226 523,-226 523,-245"/>
<text text-anchor="middle" x="450.5" y="-233" font-family="Helvetica,sans-Serif" font-size="10.00">calculateSafeThreadCount</text>
</a>
</g>
</g>
<!-- Node2&#45;&gt;Node3 -->
<g id="edge2_Node000002_Node000003" class="edge">
<title>Node2&#45;&gt;Node3</title>
<g id="a_edge2_Node000002_Node000003"><a xlink:title=" ">
<path fill="none" stroke="#63b8ff" d="M271.08,-175.15C296.54,-186.05 339.8,-203.92 378,-216.5 385.21,-218.87 392.9,-221.16 400.47,-223.28"/>
<polygon fill="#63b8ff" stroke="#63b8ff" points="399.72,-226.71 410.29,-225.96 401.57,-219.96 399.72,-226.71"/>
</a>
</g>
</g>
<!-- Node4 -->
<g id="Node000004" class="node">
<title>Node4</title>
<g id="a_Node000004"><a xlink:href="group__FileOperations.html#gaac546681af83004ec02d1c7d06915902" target="_top" xlink:title="Create target directory for file organization.">
<polygon fill="white" stroke="#666666" points="504,-207.5 397,-207.5 397,-177.5 504,-177.5 504,-207.5"/>
<text text-anchor="start" x="405" y="-195.5" font-family="Helvetica,sans-Serif" font-size="10.00">JobChecker::create</text>
<text text-anchor="middle" x="450.5" y="-184.5" font-family="Helvetica,sans-Serif" font-size="10.00">_target_directory</text>
</a>
</g>
</g>
<!-- Node2&#45;&gt;Node4 -->
<g id="edge3_Node000002_Node000004" class="edge">
<title>Node2&#45;&gt;Node4</title>
<g id="a_edge3_Node000002_Node000004"><a xlink:title=" ">
<path fill="none" stroke="#63b8ff" d="M319.69,-175.02C341.49,-177.95 365.34,-181.17 386.58,-184.03"/>
<polygon fill="#63b8ff" stroke="#63b8ff" points="386.4,-187.53 396.77,-185.4 387.33,-180.6 386.4,-187.53"/>
</a>
</g>
</g>
<!-- Node6 -->
<g id="Node000006" class="node">
<title>Node6</title>
<g id="a_Node000006"><a xlink:href="group__FileOperations.html#ga0b60dfe238c3c9d5fa3144ec4fc22930" target="_top" xlink:title="Get the name of the current working directory.">
<polygon fill="white" stroke="#666666" points="516.5,-159.5 384.5,-159.5 384.5,-129.5 516.5,-129.5 516.5,-159.5"/>
<text text-anchor="start" x="392.5" y="-147.5" font-family="Helvetica,sans-Serif" font-size="10.00">JobChecker::get_current</text>
<text text-anchor="middle" x="450.5" y="-136.5" font-family="Helvetica,sans-Serif" font-size="10.00">_directory_name</text>
</a>
</g>
</g>
<!-- Node2&#45;&gt;Node6 -->
<g id="edge5_Node000002_Node000006" class="edge">
<title>Node2&#45;&gt;Node6</title>
<g id="a_edge5_Node000002_Node000006"><a xlink:title=" ">
<path fill="none" stroke="#63b8ff" d="M339.86,-155.98C351.37,-154.78 363.04,-153.56 374.26,-152.38"/>
<polygon fill="#63b8ff" stroke="#63b8ff" points="374.84,-155.84 384.42,-151.32 374.11,-148.88 374.84,-155.84"/>
</a>
</g>
</g>
<!-- Node5 -->
<g id="Node000005" class="node">
<title>Node5</title>
<g id="a_Node000005"><a xlink:href="group__UtilityFunctions.html#ga882d844778896dd43317ad4c3fb5b6a3" target="_top" xlink:title="Log error message with appropriate formatting and collection.">
<polygon fill="white" stroke="#666666" points="679,-202 559,-202 559,-183 679,-183 679,-202"/>
<text text-anchor="middle" x="619" y="-190" font-family="Helvetica,sans-Serif" font-size="10.00">JobChecker::log_error</text>
</a>
</g>
</g>
<!-- Node4&#45;&gt;Node5 -->
<g id="edge4_Node000004_Node000005" class="edge">
<title>Node4&#45;&gt;Node5</title>
<g id="a_edge4_Node000004_Node000005"><a xlink:title=" ">
<path fill="none" stroke="#63b8ff" d="M504.18,-192.5C518.27,-192.5 533.71,-192.5 548.56,-192.5"/>
<polygon fill="#63b8ff" stroke="#63b8ff" points="548.71,-196 558.71,-192.5 548.71,-189 548.71,-196"/>
</a>
</g>
</g>
<!-- Node8 -->
<g id="Node000008" class="node">
<title>Node8</title>
<g id="a_Node000008"><a xlink:href="group__MemoryMonitorImpl.html#ga92b44bc7f664ca63d4213f46ecc7714f" target="_top" xlink:title="Find all Gaussian log files in the current directory.">
<polygon fill="white" stroke="#666666" points="487.5,-111 413.5,-111 413.5,-92 487.5,-92 487.5,-111"/>
<text text-anchor="middle" x="450.5" y="-99" font-family="Helvetica,sans-Serif" font-size="10.00">findLogFiles</text>
</a>
</g>
</g>
<!-- Node7&#45;&gt;Node8 -->
<g id="edge7_Node000007_Node000008" class="edge">
<title>Node7&#45;&gt;Node8</title>
<g id="a_edge7_Node000007_Node000008"><a xlink:title=" ">
<path fill="none" stroke="#63b8ff" d="M285.31,-117.06C318.38,-113.93 367.39,-109.28 403.25,-105.88"/>
<polygon fill="#63b8ff" stroke="#63b8ff" points="403.84,-109.34 413.46,-104.92 403.18,-102.37 403.84,-109.34"/>
</a>
</g>
</g>
<!-- Node11 -->
<g id="Node000011" class="node">
<title>Node11</title>
<g id="a_Node000011"><a xlink:href="group__MemoryMonitorImpl.html#gad9472b23817cf18d4ae5c857afb94c5f" target="_top" xlink:title=" ">
<polygon fill="white" stroke="#666666" points="505.5,-56 395.5,-56 395.5,-37 505.5,-37 505.5,-56"/>
<text text-anchor="middle" x="450.5" y="-44" font-family="Helvetica,sans-Serif" font-size="10.00">formatMemorySize</text>
</a>
</g>
</g>
<!-- Node10&#45;&gt;Node11 -->
<g id="edge10_Node000010_Node000011" class="edge">
<title>Node10&#45;&gt;Node11</title>
<g id="a_edge10_Node000010_Node000011"><a xlink:title=" ">
<path fill="none" stroke="#63b8ff" d="M305.65,-46.5C330.38,-46.5 359.51,-46.5 385.07,-46.5"/>
<polygon fill="#63b8ff" stroke="#63b8ff" points="385.4,-50 395.4,-46.5 385.4,-43 385.4,-50"/>
</a>
</g>
</g>
<!-- Node13 -->
<g id="Node000013" class="node">
<title>Node13</title>
<g id="a_Node000013"><a xlink:href="module__executor_8cpp.html#a8e7c4c59b8dda0ef232dc7f9160a8bea" target="_top" xlink:title=" ">
<polygon fill="white" stroke="#666666" points="507.5,-19 393.5,-19 393.5,0 507.5,0 507.5,-19"/>
<text text-anchor="middle" x="450.5" y="-7" font-family="Helvetica,sans-Serif" font-size="10.00">signal_handler_func</text>
</a>
</g>
</g>
<!-- Node12&#45;&gt;Node13 -->
<g id="edge12_Node000012_Node000013" class="edge">
<title>Node12&#45;&gt;Node13</title>
<g id="a_edge12_Node000012_Node000013"><a xlink:title=" ">
<path fill="none" stroke="#63b8ff" d="M310.52,-9.5C333.48,-9.5 359.65,-9.5 383.04,-9.5"/>
<polygon fill="#63b8ff" stroke="#63b8ff" points="383.22,-13 393.22,-9.5 383.22,-6 383.22,-13"/>
</a>
</g>
</g>
</g>
</svg>
