<?xml version="1.0" encoding="UTF-8" standalone="no"?>
<!DOCTYPE svg PUBLIC "-//W3C//DTD SVG 1.1//EN"
 "http://www.w3.org/Graphics/SVG/1.1/DTD/svg11.dtd">
<!-- Generated by graphviz version 2.43.0 (0)
 -->
<!-- Title: core/interactive_mode.cpp Pages: 1 -->
<svg width="1369pt" height="247pt"
 viewBox="0.00 0.00 1369.04 247.00" xmlns="http://www.w3.org/2000/svg" xmlns:xlink="http://www.w3.org/1999/xlink">
<g id="graph0" class="graph" transform="scale(1 1) rotate(0) translate(4 243)">
<title>core/interactive_mode.cpp</title>
<!-- Node1 -->
<g id="Node000001" class="node">
<title>Node1</title>
<g id="a_Node000001"><a xlink:title="Implementation of interactive mode functionality.">
<polygon fill="#999999" stroke="#666666" points="716,-239 570,-239 570,-220 716,-220 716,-239"/>
<text text-anchor="middle" x="643" y="-227" font-family="Helvetica,sans-Serif" font-size="10.00">core/interactive_mode.cpp</text>
</a>
</g>
</g>
<!-- Node2 -->
<g id="Node000002" class="node">
<title>Node2</title>
<g id="a_Node000002"><a xlink:href="interactive__mode_8h.html" target="_top" xlink:title="Interactive mode functionality on Windows.">
<polygon fill="white" stroke="#666666" points="698.5,-129 587.5,-129 587.5,-110 698.5,-110 698.5,-129"/>
<text text-anchor="middle" x="643" y="-117" font-family="Helvetica,sans-Serif" font-size="10.00">interactive_mode.h</text>
</a>
</g>
</g>
<!-- Node1&#45;&gt;Node2 -->
<g id="edge1_Node000001_Node000002" class="edge">
<title>Node1&#45;&gt;Node2</title>
<g id="a_edge1_Node000001_Node000002"><a xlink:title=" ">
<path fill="none" stroke="#63b8ff" d="M643,-219.66C643,-202.17 643,-162.8 643,-139.27"/>
<polygon fill="#63b8ff" stroke="#63b8ff" points="646.5,-139.16 643,-129.16 639.5,-139.16 646.5,-139.16"/>
</a>
</g>
</g>
<!-- Node3 -->
<g id="Node000003" class="node">
<title>Node3</title>
<g id="a_Node000003"><a xlink:title=" ">
<polygon fill="#e0e0e0" stroke="#999999" points="616,-19 572,-19 572,0 616,0 616,-19"/>
<text text-anchor="middle" x="594" y="-7" font-family="Helvetica,sans-Serif" font-size="10.00">string</text>
</a>
</g>
</g>
<!-- Node1&#45;&gt;Node3 -->
<g id="edge54_Node000001_Node000003" class="edge">
<title>Node1&#45;&gt;Node3</title>
<g id="a_edge54_Node000001_Node000003"><a xlink:title=" ">
<path fill="none" stroke="#63b8ff" d="M653.96,-219.8C676.86,-200.49 726.16,-152.4 707,-110 704.44,-104.34 643.36,-52.21 612.09,-25.75"/>
<polygon fill="#63b8ff" stroke="#63b8ff" points="614.03,-22.81 604.13,-19.03 609.51,-28.16 614.03,-22.81"/>
</a>
</g>
</g>
<!-- Node4 -->
<g id="Node000004" class="node">
<title>Node4</title>
<g id="a_Node000004"><a xlink:href="command__system_8h.html" target="_top" xlink:title="Command parsing and execution system for Gaussian Extractor.">
<polygon fill="white" stroke="#666666" points="531,-129 415,-129 415,-110 531,-110 531,-129"/>
<text text-anchor="middle" x="473" y="-117" font-family="Helvetica,sans-Serif" font-size="10.00">command_system.h</text>
</a>
</g>
</g>
<!-- Node1&#45;&gt;Node4 -->
<g id="edge3_Node000001_Node000004" class="edge">
<title>Node1&#45;&gt;Node4</title>
<g id="a_edge3_Node000001_Node000004"><a xlink:title=" ">
<path fill="none" stroke="#63b8ff" d="M593.77,-219.92C567.68,-213.45 536.29,-202.43 513,-184 497.87,-172.03 486.86,-152.67 480.27,-138.46"/>
<polygon fill="#63b8ff" stroke="#63b8ff" points="483.44,-136.99 476.25,-129.21 477.02,-139.78 483.44,-136.99"/>
</a>
</g>
</g>
<!-- Node5 -->
<g id="Node000005" class="node">
<title>Node5</title>
<g id="a_Node000005"><a xlink:href="config__manager_8h.html" target="_top" xlink:title="Configuration management system for Gaussian Extractor.">
<polygon fill="white" stroke="#666666" points="199.5,-74 96.5,-74 96.5,-55 199.5,-55 199.5,-74"/>
<text text-anchor="middle" x="148" y="-62" font-family="Helvetica,sans-Serif" font-size="10.00">config_manager.h</text>
</a>
</g>
</g>
<!-- Node1&#45;&gt;Node5 -->
<g id="edge21_Node000001_Node000005" class="edge">
<title>Node1&#45;&gt;Node5</title>
<g id="a_edge21_Node000001_Node000005"><a xlink:title=" ">
<path fill="none" stroke="#63b8ff" d="M569.7,-227.11C504.59,-223.79 407.83,-213.69 329,-184 262.82,-159.07 196.07,-106.7 165.4,-80.75"/>
<polygon fill="#63b8ff" stroke="#63b8ff" points="167.6,-78.03 157.73,-74.17 163.04,-83.34 167.6,-78.03"/>
</a>
</g>
</g>
<!-- Node6 -->
<g id="Node000006" class="node">
<title>Node6</title>
<g id="a_Node000006"><a xlink:title=" ">
<polygon fill="#e0e0e0" stroke="#999999" points="220,-19 152,-19 152,0 220,0 220,-19"/>
<text text-anchor="middle" x="186" y="-7" font-family="Helvetica,sans-Serif" font-size="10.00">filesystem</text>
</a>
</g>
</g>
<!-- Node1&#45;&gt;Node6 -->
<g id="edge49_Node000001_Node000006" class="edge">
<title>Node1&#45;&gt;Node6</title>
<g id="a_edge49_Node000001_Node000006"><a xlink:title=" ">
<path fill="none" stroke="#63b8ff" d="M569.66,-227.36C496.44,-224.38 381.5,-214.65 287,-184 190.5,-152.71 138.63,-161.32 87,-74 71.25,-47.36 108.84,-30.01 142.14,-20.29"/>
<polygon fill="#63b8ff" stroke="#63b8ff" points="143.1,-23.65 151.81,-17.63 141.24,-16.9 143.1,-23.65"/>
</a>
</g>
</g>
<!-- Node8 -->
<g id="Node000008" class="node">
<title>Node8</title>
<g id="a_Node000008"><a xlink:title=" ">
<polygon fill="#e0e0e0" stroke="#999999" points="60,-19 0,-19 0,0 60,0 60,-19"/>
<text text-anchor="middle" x="30" y="-7" font-family="Helvetica,sans-Serif" font-size="10.00">iostream</text>
</a>
</g>
</g>
<!-- Node1&#45;&gt;Node8 -->
<g id="edge50_Node000001_Node000008" class="edge">
<title>Node1&#45;&gt;Node8</title>
<g id="a_edge50_Node000001_Node000008"><a xlink:title=" ">
<path fill="none" stroke="#63b8ff" d="M569.62,-228.88C483.63,-227.5 337.69,-219.41 218,-184 166.35,-168.72 150.35,-164.68 110,-129 76.66,-99.52 50.78,-53.21 38.26,-28.1"/>
<polygon fill="#63b8ff" stroke="#63b8ff" points="41.38,-26.5 33.87,-19.03 35.08,-29.56 41.38,-26.5"/>
</a>
</g>
</g>
<!-- Node10 -->
<g id="Node000010" class="node">
<title>Node10</title>
<g id="a_Node000010"><a xlink:title=" ">
<polygon fill="#e0e0e0" stroke="#999999" points="501.5,-19 454.5,-19 454.5,0 501.5,0 501.5,-19"/>
<text text-anchor="middle" x="478" y="-7" font-family="Helvetica,sans-Serif" font-size="10.00">vector</text>
</a>
</g>
</g>
<!-- Node1&#45;&gt;Node10 -->
<g id="edge55_Node000001_Node000010" class="edge">
<title>Node1&#45;&gt;Node10</title>
<g id="a_edge55_Node000001_Node000010"><a xlink:title=" ">
<path fill="none" stroke="#63b8ff" d="M569.93,-221.36C512.85,-211.31 438.03,-187.14 406,-129 401.93,-121.6 402.77,-117.8 406,-110 414.66,-89.09 428.3,-92.01 442,-74 452.9,-59.68 462.79,-41.7 469.43,-28.53"/>
<polygon fill="#63b8ff" stroke="#63b8ff" points="472.76,-29.69 474.02,-19.17 466.48,-26.61 472.76,-29.69"/>
</a>
</g>
</g>
<!-- Node14 -->
<g id="Node000014" class="node">
<title>Node14</title>
<g id="a_Node000014"><a xlink:title=" ">
<polygon fill="#e0e0e0" stroke="#999999" points="887.5,-19 838.5,-19 838.5,0 887.5,0 887.5,-19"/>
<text text-anchor="middle" x="863" y="-7" font-family="Helvetica,sans-Serif" font-size="10.00">cstdlib</text>
</a>
</g>
</g>
<!-- Node1&#45;&gt;Node14 -->
<g id="edge47_Node000001_Node000014" class="edge">
<title>Node1&#45;&gt;Node14</title>
<g id="a_edge47_Node000001_Node000014"><a xlink:title=" ">
<path fill="none" stroke="#63b8ff" d="M716.31,-224.94C752.34,-219.86 794.45,-208.56 825,-184 871.62,-146.52 869.41,-66.2 865.6,-29.5"/>
<polygon fill="#63b8ff" stroke="#63b8ff" points="869.03,-28.74 864.36,-19.23 862.08,-29.57 869.03,-28.74"/>
</a>
</g>
</g>
<!-- Node17 -->
<g id="Node000017" class="node">
<title>Node17</title>
<g id="a_Node000017"><a xlink:href="gaussian__extractor_8h.html" target="_top" xlink:title="Core extraction engine and data structures for Gaussian log file processing.">
<polygon fill="white" stroke="#666666" points="1101,-129 983,-129 983,-110 1101,-110 1101,-129"/>
<text text-anchor="middle" x="1042" y="-117" font-family="Helvetica,sans-Serif" font-size="10.00">gaussian_extractor.h</text>
</a>
</g>
</g>
<!-- Node1&#45;&gt;Node17 -->
<g id="edge22_Node000001_Node000017" class="edge">
<title>Node1&#45;&gt;Node17</title>
<g id="a_edge22_Node000001_Node000017"><a xlink:title=" ">
<path fill="none" stroke="#63b8ff" d="M712.01,-219.98C760.31,-212.97 825.95,-201.34 882,-184 901.96,-177.82 905.67,-172.94 925,-165 953.14,-153.44 985.5,-141.21 1009.04,-132.51"/>
<polygon fill="#63b8ff" stroke="#63b8ff" points="1010.38,-135.75 1018.55,-129.01 1007.96,-129.18 1010.38,-135.75"/>
</a>
</g>
</g>
<!-- Node22 -->
<g id="Node000022" class="node">
<title>Node22</title>
<g id="a_Node000022"><a xlink:href="help__utils_8h.html" target="_top" xlink:title="Help utility functions for all commands.">
<polygon fill="white" stroke="#666666" points="595.5,-184 522.5,-184 522.5,-165 595.5,-165 595.5,-184"/>
<text text-anchor="middle" x="559" y="-172" font-family="Helvetica,sans-Serif" font-size="10.00">help_utils.h</text>
</a>
</g>
</g>
<!-- Node1&#45;&gt;Node22 -->
<g id="edge33_Node000001_Node000022" class="edge">
<title>Node1&#45;&gt;Node22</title>
<g id="a_edge33_Node000001_Node000022"><a xlink:title=" ">
<path fill="none" stroke="#63b8ff" d="M629.5,-219.98C616.6,-211.84 596.9,-199.41 581.6,-189.76"/>
<polygon fill="#63b8ff" stroke="#63b8ff" points="583.07,-186.55 572.74,-184.17 579.33,-192.47 583.07,-186.55"/>
</a>
</g>
</g>
<!-- Node23 -->
<g id="Node000023" class="node">
<title>Node23</title>
<g id="a_Node000023"><a xlink:href="parameter__parser_8h.html" target="_top" xlink:title="Header file for parameter file parsing functionality.">
<polygon fill="white" stroke="#666666" points="433,-74 321,-74 321,-55 433,-55 433,-74"/>
<text text-anchor="middle" x="377" y="-62" font-family="Helvetica,sans-Serif" font-size="10.00">parameter_parser.h</text>
</a>
</g>
</g>
<!-- Node1&#45;&gt;Node23 -->
<g id="edge36_Node000001_Node000023" class="edge">
<title>Node1&#45;&gt;Node23</title>
<g id="a_edge36_Node000001_Node000023"><a xlink:title=" ">
<path fill="none" stroke="#63b8ff" d="M569.94,-226.74C498.78,-223.3 397.82,-213.25 373,-184 349.22,-155.99 360.55,-109.43 369.59,-83.8"/>
<polygon fill="#63b8ff" stroke="#63b8ff" points="372.95,-84.81 373.21,-74.22 366.4,-82.33 372.95,-84.81"/>
</a>
</g>
</g>
<!-- Node25 -->
<g id="Node000025" class="node">
<title>Node25</title>
<g id="a_Node000025"><a xlink:href="utils_8h.html" target="_top" xlink:title="Universial functions and classes for all modules.">
<polygon fill="white" stroke="#666666" points="264.5,-74 217.5,-74 217.5,-55 264.5,-55 264.5,-74"/>
<text text-anchor="middle" x="241" y="-62" font-family="Helvetica,sans-Serif" font-size="10.00">utils.h</text>
</a>
</g>
</g>
<!-- Node1&#45;&gt;Node25 -->
<g id="edge41_Node000001_Node000025" class="edge">
<title>Node1&#45;&gt;Node25</title>
<g id="a_edge41_Node000001_Node000025"><a xlink:title=" ">
<path fill="none" stroke="#63b8ff" d="M569.76,-222.15C498.43,-215.05 395.7,-202.12 360,-184 312.09,-159.69 271.49,-108.98 252.51,-82.47"/>
<polygon fill="#63b8ff" stroke="#63b8ff" points="255.31,-80.38 246.72,-74.18 249.58,-84.39 255.31,-80.38"/>
</a>
</g>
</g>
<!-- Node26 -->
<g id="Node000026" class="node">
<title>Node26</title>
<g id="a_Node000026"><a xlink:href="version_8h.html" target="_top" xlink:title="Version information and build metadata for Gaussian Extractor.">
<polygon fill="white" stroke="#666666" points="798,-184 736,-184 736,-165 798,-165 798,-184"/>
<text text-anchor="middle" x="767" y="-172" font-family="Helvetica,sans-Serif" font-size="10.00">version.h</text>
</a>
</g>
</g>
<!-- Node1&#45;&gt;Node26 -->
<g id="edge44_Node000001_Node000026" class="edge">
<title>Node1&#45;&gt;Node26</title>
<g id="a_edge44_Node000001_Node000026"><a xlink:title=" ">
<path fill="none" stroke="#63b8ff" d="M662.92,-219.98C683.05,-211.38 714.38,-197.99 737.41,-188.15"/>
<polygon fill="#63b8ff" stroke="#63b8ff" points="738.9,-191.32 746.71,-184.17 736.14,-184.88 738.9,-191.32"/>
</a>
</g>
</g>
<!-- Node27 -->
<g id="Node000027" class="node">
<title>Node27</title>
<g id="a_Node000027"><a xlink:title=" ">
<polygon fill="#e0e0e0" stroke="#999999" points="843,-129 793,-129 793,-110 843,-110 843,-129"/>
<text text-anchor="middle" x="818" y="-117" font-family="Helvetica,sans-Serif" font-size="10.00">cstring</text>
</a>
</g>
</g>
<!-- Node1&#45;&gt;Node27 -->
<g id="edge48_Node000001_Node000027" class="edge">
<title>Node1&#45;&gt;Node27</title>
<g id="a_edge48_Node000001_Node000027"><a xlink:title=" ">
<path fill="none" stroke="#63b8ff" d="M716.24,-225.77C748.43,-220.71 784.06,-209.19 807,-184 817.94,-171.99 820.01,-153.18 819.75,-139.14"/>
<polygon fill="#63b8ff" stroke="#63b8ff" points="823.24,-138.91 819.17,-129.13 816.25,-139.32 823.24,-138.91"/>
</a>
</g>
</g>
<!-- Node28 -->
<g id="Node000028" class="node">
<title>Node28</title>
<g id="a_Node000028"><a xlink:title=" ">
<polygon fill="#e0e0e0" stroke="#999999" points="978,-184 934,-184 934,-165 978,-165 978,-184"/>
<text text-anchor="middle" x="956" y="-172" font-family="Helvetica,sans-Serif" font-size="10.00">limits</text>
</a>
</g>
</g>
<!-- Node1&#45;&gt;Node28 -->
<g id="edge51_Node000001_Node000028" class="edge">
<title>Node1&#45;&gt;Node28</title>
<g id="a_edge51_Node000001_Node000028"><a xlink:title=" ">
<path fill="none" stroke="#63b8ff" d="M704.02,-220C760.3,-211.85 846.06,-198.65 920,-184 921.28,-183.75 922.57,-183.48 923.89,-183.21"/>
<polygon fill="#63b8ff" stroke="#63b8ff" points="924.97,-186.55 933.97,-180.97 923.45,-179.72 924.97,-186.55"/>
</a>
</g>
</g>
<!-- Node29 -->
<g id="Node000029" class="node">
<title>Node29</title>
<g id="a_Node000029"><a xlink:title=" ">
<polygon fill="#e0e0e0" stroke="#999999" points="1034,-184 996,-184 996,-165 1034,-165 1034,-184"/>
<text text-anchor="middle" x="1015" y="-172" font-family="Helvetica,sans-Serif" font-size="10.00">map</text>
</a>
</g>
</g>
<!-- Node1&#45;&gt;Node29 -->
<g id="edge52_Node000001_Node000029" class="edge">
<title>Node1&#45;&gt;Node29</title>
<g id="a_edge52_Node000001_Node000029"><a xlink:title=" ">
<path fill="none" stroke="#63b8ff" d="M716.08,-222.59C783.87,-216.31 887.62,-204.65 986.02,-183.88"/>
<polygon fill="#63b8ff" stroke="#63b8ff" points="986.79,-187.3 995.83,-181.78 985.32,-180.45 986.79,-187.3"/>
</a>
</g>
</g>
<!-- Node30 -->
<g id="Node000030" class="node">
<title>Node30</title>
<g id="a_Node000030"><a xlink:title=" ">
<polygon fill="#e0e0e0" stroke="#999999" points="1108,-184 1052,-184 1052,-165 1108,-165 1108,-184"/>
<text text-anchor="middle" x="1080" y="-172" font-family="Helvetica,sans-Serif" font-size="10.00">sstream</text>
</a>
</g>
</g>
<!-- Node1&#45;&gt;Node30 -->
<g id="edge53_Node000001_Node000030" class="edge">
<title>Node1&#45;&gt;Node30</title>
<g id="a_edge53_Node000001_Node000030"><a xlink:title=" ">
<path fill="none" stroke="#63b8ff" d="M716.34,-222.89C794.63,-216.32 922.46,-203.95 1041.75,-184.03"/>
<polygon fill="#63b8ff" stroke="#63b8ff" points="1042.51,-187.45 1051.79,-182.33 1041.34,-180.55 1042.51,-187.45"/>
</a>
</g>
</g>
<!-- Node2&#45;&gt;Node3 -->
<g id="edge2_Node000002_Node000003" class="edge">
<title>Node2&#45;&gt;Node3</title>
<g id="a_edge2_Node000002_Node000003"><a xlink:title=" ">
<path fill="none" stroke="#63b8ff" d="M638.99,-109.66C630.95,-91.93 612.7,-51.73 602.08,-28.32"/>
<polygon fill="#63b8ff" stroke="#63b8ff" points="605.25,-26.82 597.93,-19.16 598.87,-29.71 605.25,-26.82"/>
</a>
</g>
</g>
<!-- Node4&#45;&gt;Node3 -->
<g id="edge18_Node000004_Node000003" class="edge">
<title>Node4&#45;&gt;Node3</title>
<g id="a_edge18_Node000004_Node000003"><a xlink:title=" ">
<path fill="none" stroke="#63b8ff" d="M482.9,-109.66C503.48,-91.3 551.07,-48.81 576.78,-25.87"/>
<polygon fill="#63b8ff" stroke="#63b8ff" points="579.17,-28.43 584.3,-19.16 574.51,-23.21 579.17,-28.43"/>
</a>
</g>
</g>
<!-- Node4&#45;&gt;Node5 -->
<g id="edge4_Node000004_Node000005" class="edge">
<title>Node4&#45;&gt;Node5</title>
<g id="a_edge4_Node000004_Node000005"><a xlink:title=" ">
<path fill="none" stroke="#63b8ff" d="M420.78,-109.98C363.16,-100.59 270.52,-85.48 209.44,-75.52"/>
<polygon fill="#63b8ff" stroke="#63b8ff" points="209.98,-72.06 199.55,-73.91 208.86,-78.97 209.98,-72.06"/>
</a>
</g>
</g>
<!-- Node9 -->
<g id="Node000009" class="node">
<title>Node9</title>
<g id="a_Node000009"><a xlink:title=" ">
<polygon fill="#e0e0e0" stroke="#999999" points="331.5,-19 238.5,-19 238.5,0 331.5,0 331.5,-19"/>
<text text-anchor="middle" x="285" y="-7" font-family="Helvetica,sans-Serif" font-size="10.00">unordered_map</text>
</a>
</g>
</g>
<!-- Node4&#45;&gt;Node9 -->
<g id="edge19_Node000004_Node000009" class="edge">
<title>Node4&#45;&gt;Node9</title>
<g id="a_edge19_Node000004_Node000009"><a xlink:title=" ">
<path fill="none" stroke="#63b8ff" d="M415,-114.82C381.44,-109.92 340.36,-98.84 312,-74 298.92,-62.54 291.99,-43.66 288.44,-29.45"/>
<polygon fill="#63b8ff" stroke="#63b8ff" points="291.78,-28.34 286.27,-19.3 284.94,-29.81 291.78,-28.34"/>
</a>
</g>
</g>
<!-- Node4&#45;&gt;Node10 -->
<g id="edge20_Node000004_Node000010" class="edge">
<title>Node4&#45;&gt;Node10</title>
<g id="a_edge20_Node000004_Node000010"><a xlink:title=" ">
<path fill="none" stroke="#63b8ff" d="M473.41,-109.66C474.22,-92.17 476.04,-52.8 477.13,-29.27"/>
<polygon fill="#63b8ff" stroke="#63b8ff" points="480.63,-29.31 477.6,-19.16 473.64,-28.99 480.63,-29.31"/>
</a>
</g>
</g>
<!-- Node11 -->
<g id="Node000011" class="node">
<title>Node11</title>
<g id="a_Node000011"><a xlink:href="job__scheduler_8h.html" target="_top" xlink:title="Job scheduler detection and resource management for HPC environments.">
<polygon fill="white" stroke="#666666" points="999,-74 907,-74 907,-55 999,-55 999,-74"/>
<text text-anchor="middle" x="953" y="-62" font-family="Helvetica,sans-Serif" font-size="10.00">job_scheduler.h</text>
</a>
</g>
</g>
<!-- Node4&#45;&gt;Node11 -->
<g id="edge11_Node000004_Node000011" class="edge">
<title>Node4&#45;&gt;Node11</title>
<g id="a_edge11_Node000004_Node000011"><a xlink:title=" ">
<path fill="none" stroke="#63b8ff" d="M531.38,-112.05C624.36,-101.79 804.93,-81.85 896.63,-71.72"/>
<polygon fill="#63b8ff" stroke="#63b8ff" points="897.27,-75.17 906.83,-70.6 896.5,-68.22 897.27,-75.17"/>
</a>
</g>
</g>
<!-- Node16 -->
<g id="Node000016" class="node">
<title>Node16</title>
<g id="a_Node000016"><a xlink:title=" ">
<polygon fill="#e0e0e0" stroke="#999999" points="737,-74 679,-74 679,-55 737,-55 737,-74"/>
<text text-anchor="middle" x="708" y="-62" font-family="Helvetica,sans-Serif" font-size="10.00">memory</text>
</a>
</g>
</g>
<!-- Node4&#45;&gt;Node16 -->
<g id="edge17_Node000004_Node000016" class="edge">
<title>Node4&#45;&gt;Node16</title>
<g id="a_edge17_Node000004_Node000016"><a xlink:title=" ">
<path fill="none" stroke="#63b8ff" d="M510.76,-109.98C554.12,-100.21 624.91,-84.24 668.85,-74.33"/>
<polygon fill="#63b8ff" stroke="#63b8ff" points="669.89,-77.68 678.87,-72.07 668.35,-70.85 669.89,-77.68"/>
</a>
</g>
</g>
<!-- Node5&#45;&gt;Node3 -->
<g id="edge8_Node000005_Node000003" class="edge">
<title>Node5&#45;&gt;Node3</title>
<g id="a_edge8_Node000005_Node000003"><a xlink:title=" ">
<path fill="none" stroke="#63b8ff" d="M199.7,-56.09C202.51,-55.71 205.29,-55.35 208,-55 338.88,-38.19 495.12,-21.09 561.54,-13.95"/>
<polygon fill="#63b8ff" stroke="#63b8ff" points="562.21,-17.4 571.78,-12.86 561.47,-10.44 562.21,-17.4"/>
</a>
</g>
</g>
<!-- Node5&#45;&gt;Node6 -->
<g id="edge5_Node000005_Node000006" class="edge">
<title>Node5&#45;&gt;Node6</title>
<g id="a_edge5_Node000005_Node000006"><a xlink:title=" ">
<path fill="none" stroke="#63b8ff" d="M154.27,-54.75C159.59,-47.34 167.36,-36.5 173.88,-27.41"/>
<polygon fill="#63b8ff" stroke="#63b8ff" points="176.86,-29.26 179.84,-19.09 171.17,-25.18 176.86,-29.26"/>
</a>
</g>
</g>
<!-- Node7 -->
<g id="Node000007" class="node">
<title>Node7</title>
<g id="a_Node000007"><a xlink:title=" ">
<polygon fill="#e0e0e0" stroke="#999999" points="133.5,-19 78.5,-19 78.5,0 133.5,0 133.5,-19"/>
<text text-anchor="middle" x="106" y="-7" font-family="Helvetica,sans-Serif" font-size="10.00">fstream</text>
</a>
</g>
</g>
<!-- Node5&#45;&gt;Node7 -->
<g id="edge6_Node000005_Node000007" class="edge">
<title>Node5&#45;&gt;Node7</title>
<g id="a_edge6_Node000005_Node000007"><a xlink:title=" ">
<path fill="none" stroke="#63b8ff" d="M141.06,-54.75C135.13,-47.26 126.43,-36.28 119.18,-27.13"/>
<polygon fill="#63b8ff" stroke="#63b8ff" points="121.76,-24.75 112.81,-19.09 116.27,-29.1 121.76,-24.75"/>
</a>
</g>
</g>
<!-- Node5&#45;&gt;Node8 -->
<g id="edge7_Node000005_Node000008" class="edge">
<title>Node5&#45;&gt;Node8</title>
<g id="a_edge7_Node000005_Node000008"><a xlink:title=" ">
<path fill="none" stroke="#63b8ff" d="M129.04,-54.98C109.97,-46.42 80.34,-33.11 58.45,-23.28"/>
<polygon fill="#63b8ff" stroke="#63b8ff" points="59.86,-20.07 49.3,-19.17 56.99,-26.46 59.86,-20.07"/>
</a>
</g>
</g>
<!-- Node5&#45;&gt;Node9 -->
<g id="edge9_Node000005_Node000009" class="edge">
<title>Node5&#45;&gt;Node9</title>
<g id="a_edge9_Node000005_Node000009"><a xlink:title=" ">
<path fill="none" stroke="#63b8ff" d="M170.01,-54.98C192.45,-46.3 227.48,-32.75 252.99,-22.88"/>
<polygon fill="#63b8ff" stroke="#63b8ff" points="254.52,-26.04 262.59,-19.17 252,-19.51 254.52,-26.04"/>
</a>
</g>
</g>
<!-- Node5&#45;&gt;Node10 -->
<g id="edge10_Node000005_Node000010" class="edge">
<title>Node5&#45;&gt;Node10</title>
<g id="a_edge10_Node000005_Node000010"><a xlink:title=" ">
<path fill="none" stroke="#63b8ff" d="M199.69,-56.05C272.05,-45.59 398.98,-27.06 444.37,-18.83"/>
<polygon fill="#63b8ff" stroke="#63b8ff" points="445.12,-22.25 454.27,-16.92 443.79,-15.37 445.12,-22.25"/>
</a>
</g>
</g>
<!-- Node11&#45;&gt;Node3 -->
<g id="edge16_Node000011_Node000003" class="edge">
<title>Node11&#45;&gt;Node3</title>
<g id="a_edge16_Node000011_Node000003"><a xlink:title=" ">
<path fill="none" stroke="#63b8ff" d="M906.8,-56.68C832.89,-45.77 689.91,-24.66 626.1,-15.24"/>
<polygon fill="#63b8ff" stroke="#63b8ff" points="626.61,-11.78 616.21,-13.78 625.59,-18.7 626.61,-11.78"/>
</a>
</g>
</g>
<!-- Node12 -->
<g id="Node000012" class="node">
<title>Node12</title>
<g id="a_Node000012"><a xlink:title=" ">
<polygon fill="#e0e0e0" stroke="#999999" points="1202,-19 1138,-19 1138,0 1202,0 1202,-19"/>
<text text-anchor="middle" x="1170" y="-7" font-family="Helvetica,sans-Serif" font-size="10.00">algorithm</text>
</a>
</g>
</g>
<!-- Node11&#45;&gt;Node12 -->
<g id="edge12_Node000011_Node000012" class="edge">
<title>Node11&#45;&gt;Node12</title>
<g id="a_edge12_Node000011_Node000012"><a xlink:title=" ">
<path fill="none" stroke="#63b8ff" d="M987.86,-54.98C1025.97,-45.68 1087.01,-30.77 1127.8,-20.81"/>
<polygon fill="#63b8ff" stroke="#63b8ff" points="1128.82,-24.16 1137.7,-18.39 1127.16,-17.36 1128.82,-24.16"/>
</a>
</g>
</g>
<!-- Node13 -->
<g id="Node000013" class="node">
<title>Node13</title>
<g id="a_Node000013"><a xlink:title=" ">
<polygon fill="#e0e0e0" stroke="#999999" points="977.5,-19 928.5,-19 928.5,0 977.5,0 977.5,-19"/>
<text text-anchor="middle" x="953" y="-7" font-family="Helvetica,sans-Serif" font-size="10.00">cctype</text>
</a>
</g>
</g>
<!-- Node11&#45;&gt;Node13 -->
<g id="edge13_Node000011_Node000013" class="edge">
<title>Node11&#45;&gt;Node13</title>
<g id="a_edge13_Node000011_Node000013"><a xlink:title=" ">
<path fill="none" stroke="#63b8ff" d="M953,-54.75C953,-47.8 953,-37.85 953,-29.13"/>
<polygon fill="#63b8ff" stroke="#63b8ff" points="956.5,-29.09 953,-19.09 949.5,-29.09 956.5,-29.09"/>
</a>
</g>
</g>
<!-- Node11&#45;&gt;Node14 -->
<g id="edge14_Node000011_Node000014" class="edge">
<title>Node11&#45;&gt;Node14</title>
<g id="a_edge14_Node000011_Node000014"><a xlink:title=" ">
<path fill="none" stroke="#63b8ff" d="M938.54,-54.98C924.58,-46.77 903.21,-34.18 886.75,-24.49"/>
<polygon fill="#63b8ff" stroke="#63b8ff" points="888.12,-21.23 877.72,-19.17 884.56,-27.26 888.12,-21.23"/>
</a>
</g>
</g>
<!-- Node15 -->
<g id="Node000015" class="node">
<title>Node15</title>
<g id="a_Node000015"><a xlink:title=" ">
<polygon fill="#e0e0e0" stroke="#999999" points="1356.5,-19 1291.5,-19 1291.5,0 1356.5,0 1356.5,-19"/>
<text text-anchor="middle" x="1324" y="-7" font-family="Helvetica,sans-Serif" font-size="10.00">functional</text>
</a>
</g>
</g>
<!-- Node11&#45;&gt;Node15 -->
<g id="edge15_Node000011_Node000015" class="edge">
<title>Node11&#45;&gt;Node15</title>
<g id="a_edge15_Node000011_Node000015"><a xlink:title=" ">
<path fill="none" stroke="#63b8ff" d="M999.21,-56.31C1002.18,-55.86 1005.13,-55.42 1008,-55 1105.66,-40.58 1220.47,-24.67 1281.24,-16.34"/>
<polygon fill="#63b8ff" stroke="#63b8ff" points="1281.79,-19.79 1291.23,-14.97 1280.84,-12.86 1281.79,-19.79"/>
</a>
</g>
</g>
<!-- Node17&#45;&gt;Node3 -->
<g id="edge30_Node000017_Node000003" class="edge">
<title>Node17&#45;&gt;Node3</title>
<g id="a_edge30_Node000017_Node000003"><a xlink:title=" ">
<path fill="none" stroke="#63b8ff" d="M1014.47,-109.98C972.24,-97.08 888.82,-72.27 817,-55 749.63,-38.8 669.81,-23.89 626.28,-16.12"/>
<polygon fill="#63b8ff" stroke="#63b8ff" points="626.74,-12.65 616.28,-14.35 625.52,-19.54 626.74,-12.65"/>
</a>
</g>
</g>
<!-- Node17&#45;&gt;Node10 -->
<g id="edge31_Node000017_Node000010" class="edge">
<title>Node17&#45;&gt;Node10</title>
<g id="a_edge31_Node000017_Node000010"><a xlink:title=" ">
<path fill="none" stroke="#63b8ff" d="M993.96,-109.95C948.27,-101.6 877.7,-88.11 817,-74 785.18,-66.6 777.93,-61.91 746,-55 662.51,-36.94 563.01,-22.16 511.95,-15.06"/>
<polygon fill="#63b8ff" stroke="#63b8ff" points="512.19,-11.56 501.81,-13.66 511.24,-18.49 512.19,-11.56"/>
</a>
</g>
</g>
<!-- Node17&#45;&gt;Node11 -->
<g id="edge32_Node000017_Node000011" class="edge">
<title>Node17&#45;&gt;Node11</title>
<g id="a_edge32_Node000017_Node000011"><a xlink:title=" ">
<path fill="none" stroke="#63b8ff" d="M1027.7,-109.98C1013.9,-101.77 992.76,-89.18 976.49,-79.49"/>
<polygon fill="#63b8ff" stroke="#63b8ff" points="977.94,-76.28 967.56,-74.17 974.36,-82.29 977.94,-76.28"/>
</a>
</g>
</g>
<!-- Node17&#45;&gt;Node12 -->
<g id="edge23_Node000017_Node000012" class="edge">
<title>Node17&#45;&gt;Node12</title>
<g id="a_edge23_Node000017_Node000012"><a xlink:title=" ">
<path fill="none" stroke="#63b8ff" d="M1101.12,-118.38C1178.8,-116.83 1308.93,-108.91 1339,-74 1376.42,-30.56 1274.08,-16.78 1212.6,-12.45"/>
<polygon fill="#63b8ff" stroke="#63b8ff" points="1212.58,-8.94 1202.38,-11.79 1212.13,-15.93 1212.58,-8.94"/>
</a>
</g>
</g>
<!-- Node17&#45;&gt;Node15 -->
<g id="edge27_Node000017_Node000015" class="edge">
<title>Node17&#45;&gt;Node15</title>
<g id="a_edge27_Node000017_Node000015"><a xlink:title=" ">
<path fill="none" stroke="#63b8ff" d="M1101.02,-118.95C1182.66,-118.16 1323.65,-111.26 1356,-74 1368.31,-59.82 1354.69,-40.07 1341.61,-26.37"/>
<polygon fill="#63b8ff" stroke="#63b8ff" points="1343.77,-23.59 1334.17,-19.1 1338.87,-28.59 1343.77,-23.59"/>
</a>
</g>
</g>
<!-- Node17&#45;&gt;Node16 -->
<g id="edge28_Node000017_Node000016" class="edge">
<title>Node17&#45;&gt;Node16</title>
<g id="a_edge28_Node000017_Node000016"><a xlink:title=" ">
<path fill="none" stroke="#63b8ff" d="M988.34,-109.98C921.02,-99.3 807.17,-81.24 747.37,-71.75"/>
<polygon fill="#63b8ff" stroke="#63b8ff" points="747.63,-68.25 737.21,-70.13 746.54,-75.16 747.63,-68.25"/>
</a>
</g>
</g>
<!-- Node18 -->
<g id="Node000018" class="node">
<title>Node18</title>
<g id="a_Node000018"><a xlink:title=" ">
<polygon fill="#e0e0e0" stroke="#999999" points="1067,-74 1017,-74 1017,-55 1067,-55 1067,-74"/>
<text text-anchor="middle" x="1042" y="-62" font-family="Helvetica,sans-Serif" font-size="10.00">atomic</text>
</a>
</g>
</g>
<!-- Node17&#45;&gt;Node18 -->
<g id="edge24_Node000017_Node000018" class="edge">
<title>Node17&#45;&gt;Node18</title>
<g id="a_edge24_Node000017_Node000018"><a xlink:title=" ">
<path fill="none" stroke="#63b8ff" d="M1042,-109.75C1042,-102.8 1042,-92.85 1042,-84.13"/>
<polygon fill="#63b8ff" stroke="#63b8ff" points="1045.5,-84.09 1042,-74.09 1038.5,-84.09 1045.5,-84.09"/>
</a>
</g>
</g>
<!-- Node19 -->
<g id="Node000019" class="node">
<title>Node19</title>
<g id="a_Node000019"><a xlink:title=" ">
<polygon fill="#e0e0e0" stroke="#999999" points="1192.5,-74 1085.5,-74 1085.5,-55 1192.5,-55 1192.5,-74"/>
<text text-anchor="middle" x="1139" y="-62" font-family="Helvetica,sans-Serif" font-size="10.00">condition_variable</text>
</a>
</g>
</g>
<!-- Node17&#45;&gt;Node19 -->
<g id="edge25_Node000017_Node000019" class="edge">
<title>Node17&#45;&gt;Node19</title>
<g id="a_edge25_Node000017_Node000019"><a xlink:title=" ">
<path fill="none" stroke="#63b8ff" d="M1057.58,-109.98C1072.77,-101.69 1096.1,-88.94 1113.9,-79.22"/>
<polygon fill="#63b8ff" stroke="#63b8ff" points="1116.03,-82.04 1123.13,-74.17 1112.68,-75.89 1116.03,-82.04"/>
</a>
</g>
</g>
<!-- Node20 -->
<g id="Node000020" class="node">
<title>Node20</title>
<g id="a_Node000020"><a xlink:title=" ">
<polygon fill="#e0e0e0" stroke="#999999" points="1263.5,-74 1210.5,-74 1210.5,-55 1263.5,-55 1263.5,-74"/>
<text text-anchor="middle" x="1237" y="-62" font-family="Helvetica,sans-Serif" font-size="10.00">cstddef</text>
</a>
</g>
</g>
<!-- Node17&#45;&gt;Node20 -->
<g id="edge26_Node000017_Node000020" class="edge">
<title>Node17&#45;&gt;Node20</title>
<g id="a_edge26_Node000017_Node000020"><a xlink:title=" ">
<path fill="none" stroke="#63b8ff" d="M1073.33,-109.98C1108.07,-100.54 1164.02,-85.33 1200.66,-75.38"/>
<polygon fill="#63b8ff" stroke="#63b8ff" points="1201.71,-78.72 1210.45,-72.72 1199.88,-71.96 1201.71,-78.72"/>
</a>
</g>
</g>
<!-- Node21 -->
<g id="Node000021" class="node">
<title>Node21</title>
<g id="a_Node000021"><a xlink:title=" ">
<polygon fill="#e0e0e0" stroke="#999999" points="1330,-74 1282,-74 1282,-55 1330,-55 1330,-74"/>
<text text-anchor="middle" x="1306" y="-62" font-family="Helvetica,sans-Serif" font-size="10.00">mutex</text>
</a>
</g>
</g>
<!-- Node17&#45;&gt;Node21 -->
<g id="edge29_Node000017_Node000021" class="edge">
<title>Node17&#45;&gt;Node21</title>
<g id="a_edge29_Node000017_Node000021"><a xlink:title=" ">
<path fill="none" stroke="#63b8ff" d="M1090.85,-109.99C1135.53,-102.01 1203.68,-89.33 1271.84,-74.15"/>
<polygon fill="#63b8ff" stroke="#63b8ff" points="1272.9,-77.5 1281.89,-71.89 1271.37,-70.67 1272.9,-77.5"/>
</a>
</g>
</g>
<!-- Node22&#45;&gt;Node3 -->
<g id="edge35_Node000022_Node000003" class="edge">
<title>Node22&#45;&gt;Node3</title>
<g id="a_edge35_Node000022_Node000003"><a xlink:title=" ">
<path fill="none" stroke="#63b8ff" d="M560.88,-164.74C566.37,-139.2 582.42,-64.43 589.98,-29.23"/>
<polygon fill="#63b8ff" stroke="#63b8ff" points="593.43,-29.82 592.11,-19.31 586.59,-28.35 593.43,-29.82"/>
</a>
</g>
</g>
<!-- Node22&#45;&gt;Node4 -->
<g id="edge34_Node000022_Node000004" class="edge">
<title>Node22&#45;&gt;Node4</title>
<g id="a_edge34_Node000022_Node000004"><a xlink:title=" ">
<path fill="none" stroke="#63b8ff" d="M545.18,-164.98C531.85,-156.77 511.42,-144.18 495.69,-134.49"/>
<polygon fill="#63b8ff" stroke="#63b8ff" points="497.42,-131.44 487.07,-129.17 493.75,-137.4 497.42,-131.44"/>
</a>
</g>
</g>
<!-- Node23&#45;&gt;Node3 -->
<g id="edge37_Node000023_Node000003" class="edge">
<title>Node23&#45;&gt;Node3</title>
<g id="a_edge37_Node000023_Node000003"><a xlink:title=" ">
<path fill="none" stroke="#63b8ff" d="M411.86,-54.98C453.3,-44.86 521.88,-28.11 562.01,-18.31"/>
<polygon fill="#63b8ff" stroke="#63b8ff" points="562.93,-21.69 571.81,-15.92 561.26,-14.89 562.93,-21.69"/>
</a>
</g>
</g>
<!-- Node23&#45;&gt;Node9 -->
<g id="edge38_Node000023_Node000009" class="edge">
<title>Node23&#45;&gt;Node9</title>
<g id="a_edge38_Node000023_Node000009"><a xlink:title=" ">
<path fill="none" stroke="#63b8ff" d="M362.22,-54.98C347.82,-46.69 325.69,-33.94 308.81,-24.22"/>
<polygon fill="#63b8ff" stroke="#63b8ff" points="310.46,-21.13 300.05,-19.17 306.97,-27.19 310.46,-21.13"/>
</a>
</g>
</g>
<!-- Node23&#45;&gt;Node10 -->
<g id="edge40_Node000023_Node000010" class="edge">
<title>Node23&#45;&gt;Node10</title>
<g id="a_edge40_Node000023_Node000010"><a xlink:title=" ">
<path fill="none" stroke="#63b8ff" d="M393.23,-54.98C409.18,-46.61 433.78,-33.7 452.38,-23.95"/>
<polygon fill="#63b8ff" stroke="#63b8ff" points="454.25,-26.92 461.48,-19.17 451,-20.72 454.25,-26.92"/>
</a>
</g>
</g>
<!-- Node24 -->
<g id="Node000024" class="node">
<title>Node24</title>
<g id="a_Node000024"><a xlink:title=" ">
<polygon fill="#e0e0e0" stroke="#999999" points="436,-19 350,-19 350,0 436,0 436,-19"/>
<text text-anchor="middle" x="393" y="-7" font-family="Helvetica,sans-Serif" font-size="10.00">unordered_set</text>
</a>
</g>
</g>
<!-- Node23&#45;&gt;Node24 -->
<g id="edge39_Node000023_Node000024" class="edge">
<title>Node23&#45;&gt;Node24</title>
<g id="a_edge39_Node000023_Node000024"><a xlink:title=" ">
<path fill="none" stroke="#63b8ff" d="M379.64,-54.75C381.76,-47.72 384.81,-37.62 387.46,-28.84"/>
<polygon fill="#63b8ff" stroke="#63b8ff" points="390.87,-29.67 390.41,-19.09 384.17,-27.65 390.87,-29.67"/>
</a>
</g>
</g>
<!-- Node25&#45;&gt;Node3 -->
<g id="edge43_Node000025_Node000003" class="edge">
<title>Node25&#45;&gt;Node3</title>
<g id="a_edge43_Node000025_Node000003"><a xlink:title=" ">
<path fill="none" stroke="#63b8ff" d="M264.71,-59.94C326.32,-50.69 491.53,-25.88 561.73,-15.34"/>
<polygon fill="#63b8ff" stroke="#63b8ff" points="562.4,-18.78 571.76,-13.84 561.36,-11.86 562.4,-18.78"/>
</a>
</g>
</g>
<!-- Node25&#45;&gt;Node6 -->
<g id="edge42_Node000025_Node000006" class="edge">
<title>Node25&#45;&gt;Node6</title>
<g id="a_edge42_Node000025_Node000006"><a xlink:title=" ">
<path fill="none" stroke="#63b8ff" d="M231.92,-54.75C223.91,-47.03 212.04,-35.6 202.38,-26.28"/>
<polygon fill="#63b8ff" stroke="#63b8ff" points="204.54,-23.51 194.91,-19.09 199.69,-28.55 204.54,-23.51"/>
</a>
</g>
</g>
<!-- Node26&#45;&gt;Node3 -->
<g id="edge45_Node000026_Node000003" class="edge">
<title>Node26&#45;&gt;Node3</title>
<g id="a_edge45_Node000026_Node000003"><a xlink:title=" ">
<path fill="none" stroke="#63b8ff" d="M768.27,-164.75C770.89,-143.14 774.45,-86.74 746,-55 715.65,-21.13 661.07,-12.45 626.24,-10.55"/>
<polygon fill="#63b8ff" stroke="#63b8ff" points="626.24,-7.05 616.11,-10.16 625.97,-14.04 626.24,-7.05"/>
</a>
</g>
</g>
<!-- Node26&#45;&gt;Node27 -->
<g id="edge46_Node000026_Node000027" class="edge">
<title>Node26&#45;&gt;Node27</title>
<g id="a_edge46_Node000026_Node000027"><a xlink:title=" ">
<path fill="none" stroke="#63b8ff" d="M775.42,-164.75C782.77,-157.11 793.63,-145.82 802.54,-136.56"/>
<polygon fill="#63b8ff" stroke="#63b8ff" points="805.32,-138.72 809.74,-129.09 800.28,-133.87 805.32,-138.72"/>
</a>
</g>
</g>
</g>
</svg>
