<?xml version="1.0" encoding="UTF-8" standalone="no"?>
<!DOCTYPE svg PUBLIC "-//W3C//DTD SVG 1.1//EN"
 "http://www.w3.org/Graphics/SVG/1.1/DTD/svg11.dtd">
<!-- Generated by graphviz version 2.43.0 (0)
 -->
<!-- Title: core/job_checker.h Pages: 1 -->
<svg width="394pt" height="137pt"
 viewBox="0.00 0.00 393.50 137.00" xmlns="http://www.w3.org/2000/svg" xmlns:xlink="http://www.w3.org/1999/xlink">
<g id="graph0" class="graph" transform="scale(1 1) rotate(0) translate(4 133)">
<title>core/job_checker.h</title>
<!-- Node1 -->
<g id="Node000001" class="node">
<title>Node1</title>
<g id="a_Node000001"><a xlink:title="Job status checking and file organization system for Gaussian calculations.">
<polygon fill="#999999" stroke="#666666" points="247,-129 140,-129 140,-110 247,-110 247,-129"/>
<text text-anchor="middle" x="193.5" y="-117" font-family="Helvetica,sans-Serif" font-size="10.00">core/job_checker.h</text>
</a>
</g>
</g>
<!-- Node2 -->
<g id="Node000002" class="node">
<title>Node2</title>
<g id="a_Node000002"><a xlink:href="coord__extractor_8cpp.html" target="_top" xlink:title=" ">
<polygon fill="white" stroke="#666666" points="137,-19 0,-19 0,0 137,0 137,-19"/>
<text text-anchor="middle" x="68.5" y="-7" font-family="Helvetica,sans-Serif" font-size="10.00">core/coord_extractor.cpp</text>
</a>
</g>
</g>
<!-- Node1&#45;&gt;Node2 -->
<g id="edge1_Node000001_Node000002" class="edge">
<title>Node1&#45;&gt;Node2</title>
<g id="a_edge1_Node000001_Node000002"><a xlink:title=" ">
<path fill="none" stroke="#63b8ff" d="M130.1,-107.78C110.06,-101.27 89.72,-90.81 76.5,-74 64,-58.1 65.23,-32.71 66.99,-19.37"/>
<polygon fill="#63b8ff" stroke="#63b8ff" points="129.29,-111.19 139.88,-110.67 131.28,-104.48 129.29,-111.19"/>
</a>
</g>
</g>
<!-- Node3 -->
<g id="Node000003" class="node">
<title>Node3</title>
<g id="a_Node000003"><a xlink:href="coord__extractor_8h.html" target="_top" xlink:title="Header file for coordinate extraction command xyz to extract coordinates from Gaussian outputs.">
<polygon fill="white" stroke="#666666" points="211,-74 86,-74 86,-55 211,-55 211,-74"/>
<text text-anchor="middle" x="148.5" y="-62" font-family="Helvetica,sans-Serif" font-size="10.00">core/coord_extractor.h</text>
</a>
</g>
</g>
<!-- Node1&#45;&gt;Node3 -->
<g id="edge2_Node000001_Node000003" class="edge">
<title>Node1&#45;&gt;Node3</title>
<g id="a_edge2_Node000001_Node000003"><a xlink:title=" ">
<path fill="none" stroke="#63b8ff" d="M179.45,-101.96C171.61,-92.72 162.17,-81.6 155.79,-74.09"/>
<polygon fill="#63b8ff" stroke="#63b8ff" points="176.93,-104.39 186.07,-109.75 182.26,-99.86 176.93,-104.39"/>
</a>
</g>
</g>
<!-- Node4 -->
<g id="Node000004" class="node">
<title>Node4</title>
<g id="a_Node000004"><a xlink:href="module__executor_8cpp.html" target="_top" xlink:title=" ">
<polygon fill="white" stroke="#666666" points="305.5,-19 161.5,-19 161.5,0 305.5,0 305.5,-19"/>
<text text-anchor="middle" x="233.5" y="-7" font-family="Helvetica,sans-Serif" font-size="10.00">core/module_executor.cpp</text>
</a>
</g>
</g>
<!-- Node1&#45;&gt;Node4 -->
<g id="edge6_Node000001_Node000004" class="edge">
<title>Node1&#45;&gt;Node4</title>
<g id="a_edge6_Node000001_Node000004"><a xlink:title=" ">
<path fill="none" stroke="#63b8ff" d="M205.25,-101.29C210.26,-93.29 215.8,-83.46 219.5,-74 226.82,-55.29 230.73,-31.9 232.43,-19.38"/>
<polygon fill="#63b8ff" stroke="#63b8ff" points="202.29,-99.43 199.75,-109.72 208.15,-103.26 202.29,-99.43"/>
</a>
</g>
</g>
<!-- Node5 -->
<g id="Node000005" class="node">
<title>Node5</title>
<g id="a_Node000005"><a xlink:href="job__checker_8cpp.html" target="_top" xlink:title=" ">
<polygon fill="white" stroke="#666666" points="385.5,-74 267.5,-74 267.5,-55 385.5,-55 385.5,-74"/>
<text text-anchor="middle" x="326.5" y="-62" font-family="Helvetica,sans-Serif" font-size="10.00">core/job_checker.cpp</text>
</a>
</g>
</g>
<!-- Node1&#45;&gt;Node5 -->
<g id="edge5_Node000001_Node000005" class="edge">
<title>Node1&#45;&gt;Node5</title>
<g id="a_edge5_Node000001_Node000005"><a xlink:title=" ">
<path fill="none" stroke="#63b8ff" d="M224.47,-106.16C249.09,-96.35 282.91,-82.87 304.74,-74.17"/>
<polygon fill="#63b8ff" stroke="#63b8ff" points="222.86,-103.03 214.87,-109.98 225.45,-109.53 222.86,-103.03"/>
</a>
</g>
</g>
<!-- Node3&#45;&gt;Node2 -->
<g id="edge3_Node000003_Node000002" class="edge">
<title>Node3&#45;&gt;Node2</title>
<g id="a_edge3_Node000003_Node000002"><a xlink:title=" ">
<path fill="none" stroke="#63b8ff" d="M127.25,-49.42C112.74,-39.81 93.96,-27.37 81.59,-19.17"/>
<polygon fill="#63b8ff" stroke="#63b8ff" points="125.38,-52.38 135.65,-54.98 129.24,-46.54 125.38,-52.38"/>
</a>
</g>
</g>
<!-- Node3&#45;&gt;Node4 -->
<g id="edge4_Node000003_Node000004" class="edge">
<title>Node3&#45;&gt;Node4</title>
<g id="a_edge4_Node000003_Node000004"><a xlink:title=" ">
<path fill="none" stroke="#63b8ff" d="M171.07,-49.42C186.5,-39.81 206.45,-27.37 219.59,-19.17"/>
<polygon fill="#63b8ff" stroke="#63b8ff" points="168.79,-46.72 162.16,-54.98 172.49,-52.66 168.79,-46.72"/>
</a>
</g>
</g>
</g>
</svg>
