<?xml version="1.0" encoding="UTF-8" standalone="no"?>
<!DOCTYPE svg PUBLIC "-//W3C//DTD SVG 1.1//EN"
 "http://www.w3.org/Graphics/SVG/1.1/DTD/svg11.dtd">
<!-- Generated by graphviz version 2.43.0 (0)
 -->
<!-- Title: core/job_scheduler.h Pages: 1 -->
<svg width="1344pt" height="247pt"
 viewBox="0.00 0.00 1344.00 247.00" xmlns="http://www.w3.org/2000/svg" xmlns:xlink="http://www.w3.org/1999/xlink">
<g id="graph0" class="graph" transform="scale(1 1) rotate(0) translate(4 243)">
<title>core/job_scheduler.h</title>
<!-- Node1 -->
<g id="Node000001" class="node">
<title>Node1</title>
<g id="a_Node000001"><a xlink:title="Job scheduler detection and resource management for HPC environments.">
<polygon fill="#999999" stroke="#666666" points="824,-239 708,-239 708,-220 824,-220 824,-239"/>
<text text-anchor="middle" x="766" y="-227" font-family="Helvetica,sans-Serif" font-size="10.00">core/job_scheduler.h</text>
</a>
</g>
</g>
<!-- Node2 -->
<g id="Node000002" class="node">
<title>Node2</title>
<g id="a_Node000002"><a xlink:href="command__system_8h.html" target="_top" xlink:title="Command parsing and execution system for Gaussian Extractor.">
<polygon fill="white" stroke="#666666" points="338,-184 198,-184 198,-165 338,-165 338,-184"/>
<text text-anchor="middle" x="268" y="-172" font-family="Helvetica,sans-Serif" font-size="10.00">core/command_system.h</text>
</a>
</g>
</g>
<!-- Node1&#45;&gt;Node2 -->
<g id="edge1_Node000001_Node000002" class="edge">
<title>Node1&#45;&gt;Node2</title>
<g id="a_edge1_Node000001_Node000002"><a xlink:title=" ">
<path fill="none" stroke="#63b8ff" d="M697.88,-221.25C603.44,-211.2 433.59,-193.12 338.11,-182.96"/>
<polygon fill="#63b8ff" stroke="#63b8ff" points="697.58,-224.74 707.9,-222.32 698.33,-217.78 697.58,-224.74"/>
</a>
</g>
</g>
<!-- Node9 -->
<g id="Node000009" class="node">
<title>Node9</title>
<g id="a_Node000009"><a xlink:href="main_8cpp.html" target="_top" xlink:title="Main entry point for the Gaussian Extractor application.">
<polygon fill="white" stroke="#666666" points="62,-74 0,-74 0,-55 62,-55 62,-74"/>
<text text-anchor="middle" x="31" y="-62" font-family="Helvetica,sans-Serif" font-size="10.00">main.cpp</text>
</a>
</g>
</g>
<!-- Node1&#45;&gt;Node9 -->
<g id="edge36_Node000001_Node000009" class="edge">
<title>Node1&#45;&gt;Node9</title>
<g id="a_edge36_Node000001_Node000009"><a xlink:title=" ">
<path fill="none" stroke="#63b8ff" d="M697.71,-229.34C588.79,-229.32 369.62,-223.71 189,-184 120.46,-168.93 85.43,-183.32 41,-129 28.14,-113.28 28.51,-87.82 29.8,-74.41"/>
<polygon fill="#63b8ff" stroke="#63b8ff" points="697.9,-232.84 707.9,-229.32 697.89,-225.84 697.9,-232.84"/>
</a>
</g>
</g>
<!-- Node10 -->
<g id="Node000010" class="node">
<title>Node10</title>
<g id="a_Node000010"><a xlink:href="gaussian__extractor_8cpp.html" target="_top" xlink:title="Implementation of core Gaussian log file processing and data extraction.">
<polygon fill="white" stroke="#666666" points="1304.5,-129 1151.5,-129 1151.5,-110 1304.5,-110 1304.5,-129"/>
<text text-anchor="middle" x="1228" y="-117" font-family="Helvetica,sans-Serif" font-size="10.00">core/gaussian_extractor.cpp</text>
</a>
</g>
</g>
<!-- Node1&#45;&gt;Node10 -->
<g id="edge13_Node000001_Node000010" class="edge">
<title>Node1&#45;&gt;Node10</title>
<g id="a_edge13_Node000001_Node000010"><a xlink:title=" ">
<path fill="none" stroke="#63b8ff" d="M790.13,-214.91C821.71,-197.21 874.22,-168.15 884,-165 908.83,-157.01 1057.6,-139.46 1151.19,-128.94"/>
<polygon fill="#63b8ff" stroke="#63b8ff" points="788.07,-212.05 781.07,-219.99 791.5,-218.15 788.07,-212.05"/>
</a>
</g>
</g>
<!-- Node11 -->
<g id="Node000011" class="node">
<title>Node11</title>
<g id="a_Node000011"><a xlink:href="gaussian__extractor_8h.html" target="_top" xlink:title="Core extraction engine and data structures for Gaussian log file processing.">
<polygon fill="white" stroke="#666666" points="837,-184 695,-184 695,-165 837,-165 837,-184"/>
<text text-anchor="middle" x="766" y="-172" font-family="Helvetica,sans-Serif" font-size="10.00">core/gaussian_extractor.h</text>
</a>
</g>
</g>
<!-- Node1&#45;&gt;Node11 -->
<g id="edge14_Node000001_Node000011" class="edge">
<title>Node1&#45;&gt;Node11</title>
<g id="a_edge14_Node000001_Node000011"><a xlink:title=" ">
<path fill="none" stroke="#63b8ff" d="M766,-209.66C766,-200.93 766,-190.99 766,-184.09"/>
<polygon fill="#63b8ff" stroke="#63b8ff" points="762.5,-209.75 766,-219.75 769.5,-209.75 762.5,-209.75"/>
</a>
</g>
</g>
<!-- Node20 -->
<g id="Node000020" class="node">
<title>Node20</title>
<g id="a_Node000020"><a xlink:href="job__scheduler_8cpp.html" target="_top" xlink:title=" ">
<polygon fill="white" stroke="#666666" points="1021,-184 893,-184 893,-165 1021,-165 1021,-184"/>
<text text-anchor="middle" x="957" y="-172" font-family="Helvetica,sans-Serif" font-size="10.00">core/job_scheduler.cpp</text>
</a>
</g>
</g>
<!-- Node1&#45;&gt;Node20 -->
<g id="edge35_Node000001_Node000020" class="edge">
<title>Node1&#45;&gt;Node20</title>
<g id="a_edge35_Node000001_Node000020"><a xlink:title=" ">
<path fill="none" stroke="#63b8ff" d="M806.78,-217.18C842.5,-207.27 893.63,-193.08 926.07,-184.08"/>
<polygon fill="#63b8ff" stroke="#63b8ff" points="805.39,-213.94 796.69,-219.98 807.26,-220.68 805.39,-213.94"/>
</a>
</g>
</g>
<!-- Node3 -->
<g id="Node000003" class="node">
<title>Node3</title>
<g id="a_Node000003"><a xlink:href="command__system_8cpp.html" target="_top" xlink:title=" ">
<polygon fill="white" stroke="#666666" points="269.5,-74 118.5,-74 118.5,-55 269.5,-55 269.5,-74"/>
<text text-anchor="middle" x="194" y="-62" font-family="Helvetica,sans-Serif" font-size="10.00">core/command_system.cpp</text>
</a>
</g>
</g>
<!-- Node2&#45;&gt;Node3 -->
<g id="edge2_Node000002_Node000003" class="edge">
<title>Node2&#45;&gt;Node3</title>
<g id="a_edge2_Node000002_Node000003"><a xlink:title=" ">
<path fill="none" stroke="#63b8ff" d="M256.27,-156.38C240.25,-133.01 212.14,-91.97 199.93,-74.16"/>
<polygon fill="#63b8ff" stroke="#63b8ff" points="253.4,-158.39 261.94,-164.66 259.18,-154.43 253.4,-158.39"/>
</a>
</g>
</g>
<!-- Node4 -->
<g id="Node000004" class="node">
<title>Node4</title>
<g id="a_Node000004"><a xlink:href="help__utils_8cpp.html" target="_top" xlink:title="Implementation of help utility functions.">
<polygon fill="white" stroke="#666666" points="396,-74 288,-74 288,-55 396,-55 396,-74"/>
<text text-anchor="middle" x="342" y="-62" font-family="Helvetica,sans-Serif" font-size="10.00">core/help_utils.cpp</text>
</a>
</g>
</g>
<!-- Node2&#45;&gt;Node4 -->
<g id="edge3_Node000002_Node000004" class="edge">
<title>Node2&#45;&gt;Node4</title>
<g id="a_edge3_Node000002_Node000004"><a xlink:title=" ">
<path fill="none" stroke="#63b8ff" d="M279.73,-156.38C295.75,-133.01 323.86,-91.97 336.07,-74.16"/>
<polygon fill="#63b8ff" stroke="#63b8ff" points="276.82,-154.43 274.06,-164.66 282.6,-158.39 276.82,-154.43"/>
</a>
</g>
</g>
<!-- Node5 -->
<g id="Node000005" class="node">
<title>Node5</title>
<g id="a_Node000005"><a xlink:href="help__utils_8h.html" target="_top" xlink:title="Help utility functions for all commands.">
<polygon fill="white" stroke="#666666" points="431.5,-129 334.5,-129 334.5,-110 431.5,-110 431.5,-129"/>
<text text-anchor="middle" x="383" y="-117" font-family="Helvetica,sans-Serif" font-size="10.00">core/help_utils.h</text>
</a>
</g>
</g>
<!-- Node2&#45;&gt;Node5 -->
<g id="edge4_Node000002_Node000005" class="edge">
<title>Node2&#45;&gt;Node5</title>
<g id="a_edge4_Node000002_Node000005"><a xlink:title=" ">
<path fill="none" stroke="#63b8ff" d="M295.63,-160.77C316.84,-150.99 345.56,-137.75 364.19,-129.17"/>
<polygon fill="#63b8ff" stroke="#63b8ff" points="294.09,-157.62 286.48,-164.98 297.02,-163.98 294.09,-157.62"/>
</a>
</g>
</g>
<!-- Node6 -->
<g id="Node000006" class="node">
<title>Node6</title>
<g id="a_Node000006"><a xlink:href="interactive__mode_8cpp.html" target="_top" xlink:title="Implementation of interactive mode functionality.">
<polygon fill="white" stroke="#666666" points="560,-74 414,-74 414,-55 560,-55 560,-74"/>
<text text-anchor="middle" x="487" y="-62" font-family="Helvetica,sans-Serif" font-size="10.00">core/interactive_mode.cpp</text>
</a>
</g>
</g>
<!-- Node2&#45;&gt;Node6 -->
<g id="edge8_Node000002_Node000006" class="edge">
<title>Node2&#45;&gt;Node6</title>
<g id="a_edge8_Node000002_Node000006"><a xlink:title=" ">
<path fill="none" stroke="#63b8ff" d="M348.01,-164.41C378.73,-158.06 412.89,-147.29 440,-129 460.92,-114.89 476.05,-88.26 482.9,-74.39"/>
<polygon fill="#63b8ff" stroke="#63b8ff" points="347.33,-160.97 338.17,-166.31 348.66,-167.85 347.33,-160.97"/>
</a>
</g>
</g>
<!-- Node7 -->
<g id="Node000007" class="node">
<title>Node7</title>
<g id="a_Node000007"><a xlink:href="module__executor_8h.html" target="_top" xlink:title="Command execution functions for Gaussian Extractor.">
<polygon fill="white" stroke="#666666" points="201.5,-129 68.5,-129 68.5,-110 201.5,-110 201.5,-129"/>
<text text-anchor="middle" x="135" y="-117" font-family="Helvetica,sans-Serif" font-size="10.00">core/module_executor.h</text>
</a>
</g>
</g>
<!-- Node2&#45;&gt;Node7 -->
<g id="edge9_Node000002_Node000007" class="edge">
<title>Node2&#45;&gt;Node7</title>
<g id="a_edge9_Node000002_Node000007"><a xlink:title=" ">
<path fill="none" stroke="#63b8ff" d="M237.03,-161.16C212.41,-151.35 178.59,-137.87 156.76,-129.17"/>
<polygon fill="#63b8ff" stroke="#63b8ff" points="236.05,-164.53 246.63,-164.98 238.64,-158.03 236.05,-164.53"/>
</a>
</g>
</g>
<!-- Node2&#45;&gt;Node9 -->
<g id="edge12_Node000002_Node000009" class="edge">
<title>Node2&#45;&gt;Node9</title>
<g id="a_edge12_Node000002_Node000009"><a xlink:title=" ">
<path fill="none" stroke="#63b8ff" d="M187.92,-164.08C137.68,-156.75 78.8,-145.1 59,-129 41.8,-115.01 34.86,-88.33 32.32,-74.42"/>
<polygon fill="#63b8ff" stroke="#63b8ff" points="187.44,-167.55 197.84,-165.49 188.43,-160.61 187.44,-167.55"/>
</a>
</g>
</g>
<!-- Node5&#45;&gt;Node3 -->
<g id="edge5_Node000005_Node000003" class="edge">
<title>Node5&#45;&gt;Node3</title>
<g id="a_edge5_Node000005_Node000003"><a xlink:title=" ">
<path fill="none" stroke="#63b8ff" d="M342.65,-107.18C307.3,-97.27 256.7,-83.08 224.6,-74.08"/>
<polygon fill="#63b8ff" stroke="#63b8ff" points="342.06,-110.65 352.63,-109.98 343.95,-103.91 342.06,-110.65"/>
</a>
</g>
</g>
<!-- Node5&#45;&gt;Node4 -->
<g id="edge6_Node000005_Node000004" class="edge">
<title>Node5&#45;&gt;Node4</title>
<g id="a_edge6_Node000005_Node000004"><a xlink:title=" ">
<path fill="none" stroke="#63b8ff" d="M369.98,-101.67C362.88,-92.5 354.4,-81.52 348.64,-74.09"/>
<polygon fill="#63b8ff" stroke="#63b8ff" points="367.34,-103.98 376.23,-109.75 372.88,-99.7 367.34,-103.98"/>
</a>
</g>
</g>
<!-- Node5&#45;&gt;Node6 -->
<g id="edge7_Node000005_Node000006" class="edge">
<title>Node5&#45;&gt;Node6</title>
<g id="a_edge7_Node000005_Node000006"><a xlink:title=" ">
<path fill="none" stroke="#63b8ff" d="M408.77,-105.37C427.87,-95.63 453.37,-82.64 469.99,-74.17"/>
<polygon fill="#63b8ff" stroke="#63b8ff" points="407.03,-102.33 399.71,-109.98 410.21,-108.56 407.03,-102.33"/>
</a>
</g>
</g>
<!-- Node8 -->
<g id="Node000008" class="node">
<title>Node8</title>
<g id="a_Node000008"><a xlink:href="module__executor_8cpp.html" target="_top" xlink:title=" ">
<polygon fill="white" stroke="#666666" points="970,-19 826,-19 826,0 970,0 970,-19"/>
<text text-anchor="middle" x="898" y="-7" font-family="Helvetica,sans-Serif" font-size="10.00">core/module_executor.cpp</text>
</a>
</g>
</g>
<!-- Node7&#45;&gt;Node8 -->
<g id="edge10_Node000007_Node000008" class="edge">
<title>Node7&#45;&gt;Node8</title>
<g id="a_edge10_Node000007_Node000008"><a xlink:title=" ">
<path fill="none" stroke="#63b8ff" d="M119.17,-101.73C107.87,-87.74 96.67,-68.05 109,-55 133.41,-29.17 635.41,-16 825.72,-11.92"/>
<polygon fill="#63b8ff" stroke="#63b8ff" points="116.8,-104.35 126.01,-109.6 122.08,-99.76 116.8,-104.35"/>
</a>
</g>
</g>
<!-- Node7&#45;&gt;Node9 -->
<g id="edge11_Node000007_Node000009" class="edge">
<title>Node7&#45;&gt;Node9</title>
<g id="a_edge11_Node000007_Node000009"><a xlink:title=" ">
<path fill="none" stroke="#63b8ff" d="M109.23,-105.37C90.13,-95.63 64.63,-82.64 48.01,-74.17"/>
<polygon fill="#63b8ff" stroke="#63b8ff" points="107.79,-108.56 118.29,-109.98 110.97,-102.33 107.79,-108.56"/>
</a>
</g>
</g>
<!-- Node11&#45;&gt;Node4 -->
<g id="edge22_Node000011_Node000004" class="edge">
<title>Node11&#45;&gt;Node4</title>
<g id="a_edge22_Node000011_Node000004"><a xlink:title=" ">
<path fill="none" stroke="#63b8ff" d="M714.82,-162.87C674.52,-154.3 616.99,-141.63 567,-129 495.77,-111 412.79,-86.71 370.28,-74.02"/>
<polygon fill="#63b8ff" stroke="#63b8ff" points="714.17,-166.31 724.68,-164.95 715.62,-159.46 714.17,-166.31"/>
</a>
</g>
</g>
<!-- Node11&#45;&gt;Node6 -->
<g id="edge27_Node000011_Node000006" class="edge">
<title>Node11&#45;&gt;Node6</title>
<g id="a_edge27_Node000011_Node000006"><a xlink:title=" ">
<path fill="none" stroke="#63b8ff" d="M719.82,-162.43C689.07,-154.49 648.04,-142.79 613,-129 571.29,-112.58 524.82,-87.19 501.72,-74.04"/>
<polygon fill="#63b8ff" stroke="#63b8ff" points="719.27,-165.91 729.83,-164.98 721,-159.12 719.27,-165.91"/>
</a>
</g>
</g>
<!-- Node11&#45;&gt;Node8 -->
<g id="edge33_Node000011_Node000008" class="edge">
<title>Node11&#45;&gt;Node8</title>
<g id="a_edge33_Node000011_Node000008"><a xlink:title=" ">
<path fill="none" stroke="#63b8ff" d="M763.51,-154.79C761.2,-129.35 761.01,-83.75 784,-55 799.06,-36.17 823.18,-25.29 845.36,-19.01"/>
<polygon fill="#63b8ff" stroke="#63b8ff" points="760.05,-155.37 764.64,-164.92 767.01,-154.59 760.05,-155.37"/>
</a>
</g>
</g>
<!-- Node11&#45;&gt;Node9 -->
<g id="edge34_Node000011_Node000009" class="edge">
<title>Node11&#45;&gt;Node9</title>
<g id="a_edge34_Node000011_Node000009"><a xlink:title=" ">
<path fill="none" stroke="#63b8ff" d="M684.65,-168.04C595.89,-161.44 449.79,-148.71 325,-129 228.29,-113.73 115.53,-86.76 62.11,-73.43"/>
<polygon fill="#63b8ff" stroke="#63b8ff" points="684.42,-171.53 694.65,-168.77 684.93,-164.55 684.42,-171.53"/>
</a>
</g>
</g>
<!-- Node11&#45;&gt;Node10 -->
<g id="edge21_Node000011_Node000010" class="edge">
<title>Node11&#45;&gt;Node10</title>
<g id="a_edge21_Node000011_Node000010"><a xlink:title=" ">
<path fill="none" stroke="#63b8ff" d="M847.22,-164.18C933.83,-154.25 1069.81,-138.65 1153.68,-129.03"/>
<polygon fill="#63b8ff" stroke="#63b8ff" points="846.71,-160.72 837.18,-165.33 847.51,-167.67 846.71,-160.72"/>
</a>
</g>
</g>
<!-- Node12 -->
<g id="Node000012" class="node">
<title>Node12</title>
<g id="a_Node000012"><a xlink:href="coord__extractor_8h.html" target="_top" xlink:title="Header file for coordinate extraction command xyz to extract coordinates from Gaussian outputs.">
<polygon fill="white" stroke="#666666" points="1123.5,-74 998.5,-74 998.5,-55 1123.5,-55 1123.5,-74"/>
<text text-anchor="middle" x="1061" y="-62" font-family="Helvetica,sans-Serif" font-size="10.00">core/coord_extractor.h</text>
</a>
</g>
</g>
<!-- Node11&#45;&gt;Node12 -->
<g id="edge15_Node000011_Node000012" class="edge">
<title>Node11&#45;&gt;Node12</title>
<g id="a_edge15_Node000011_Node000012"><a xlink:title=" ">
<path fill="none" stroke="#63b8ff" d="M847.35,-165.07C887.96,-158.74 937.03,-147.79 978,-129 1008.34,-115.08 1037.95,-88.37 1052.2,-74.44"/>
<polygon fill="#63b8ff" stroke="#63b8ff" points="846.59,-161.64 837.22,-166.58 847.63,-168.57 846.59,-161.64"/>
</a>
</g>
</g>
<!-- Node14 -->
<g id="Node000014" class="node">
<title>Node14</title>
<g id="a_Node000014"><a xlink:href="create__input_8h.html" target="_top" xlink:title="Header file for Gaussian input file creation from XYZ files.">
<polygon fill="white" stroke="#666666" points="732,-129 622,-129 622,-110 732,-110 732,-129"/>
<text text-anchor="middle" x="677" y="-117" font-family="Helvetica,sans-Serif" font-size="10.00">core/create_input.h</text>
</a>
</g>
</g>
<!-- Node11&#45;&gt;Node14 -->
<g id="edge18_Node000011_Node000014" class="edge">
<title>Node11&#45;&gt;Node14</title>
<g id="a_edge18_Node000011_Node000014"><a xlink:title=" ">
<path fill="none" stroke="#63b8ff" d="M742.82,-159.7C726.61,-150.04 705.45,-137.44 691.56,-129.17"/>
<polygon fill="#63b8ff" stroke="#63b8ff" points="741.32,-162.88 751.7,-164.98 744.9,-156.86 741.32,-162.88"/>
</a>
</g>
</g>
<!-- Node16 -->
<g id="Node000016" class="node">
<title>Node16</title>
<g id="a_Node000016"><a xlink:href="high__level__energy_8cpp.html" target="_top" xlink:title=" ">
<polygon fill="white" stroke="#666666" points="942.5,-74 793.5,-74 793.5,-55 942.5,-55 942.5,-74"/>
<text text-anchor="middle" x="868" y="-62" font-family="Helvetica,sans-Serif" font-size="10.00">core/high_level_energy.cpp</text>
</a>
</g>
</g>
<!-- Node11&#45;&gt;Node16 -->
<g id="edge23_Node000011_Node000016" class="edge">
<title>Node11&#45;&gt;Node16</title>
<g id="a_edge23_Node000011_Node000016"><a xlink:title=" ">
<path fill="none" stroke="#63b8ff" d="M780.26,-157.08C791.63,-144.11 808.08,-125.66 823,-110 835.13,-97.27 849.67,-83.07 858.88,-74.21"/>
<polygon fill="#63b8ff" stroke="#63b8ff" points="777.53,-154.89 773.58,-164.72 782.8,-159.49 777.53,-154.89"/>
</a>
</g>
</g>
<!-- Node17 -->
<g id="Node000017" class="node">
<title>Node17</title>
<g id="a_Node000017"><a xlink:href="high__level__energy_8h.html" target="_top" xlink:title="High&#45;level energy calculations with thermal corrections for Gaussian calculations.">
<polygon fill="white" stroke="#666666" points="969.5,-129 832.5,-129 832.5,-110 969.5,-110 969.5,-129"/>
<text text-anchor="middle" x="901" y="-117" font-family="Helvetica,sans-Serif" font-size="10.00">core/high_level_energy.h</text>
</a>
</g>
</g>
<!-- Node11&#45;&gt;Node17 -->
<g id="edge24_Node000011_Node000017" class="edge">
<title>Node11&#45;&gt;Node17</title>
<g id="a_edge24_Node000011_Node000017"><a xlink:title=" ">
<path fill="none" stroke="#63b8ff" d="M797.1,-161.29C822.12,-151.47 856.66,-137.91 878.92,-129.17"/>
<polygon fill="#63b8ff" stroke="#63b8ff" points="795.72,-158.07 787.69,-164.98 798.28,-164.59 795.72,-158.07"/>
</a>
</g>
</g>
<!-- Node18 -->
<g id="Node000018" class="node">
<title>Node18</title>
<g id="a_Node000018"><a xlink:href="job__checker_8h.html" target="_top" xlink:title="Job status checking and file organization system for Gaussian calculations.">
<polygon fill="white" stroke="#666666" points="1133.5,-129 1026.5,-129 1026.5,-110 1133.5,-110 1133.5,-129"/>
<text text-anchor="middle" x="1080" y="-117" font-family="Helvetica,sans-Serif" font-size="10.00">core/job_checker.h</text>
</a>
</g>
</g>
<!-- Node11&#45;&gt;Node18 -->
<g id="edge28_Node000011_Node000018" class="edge">
<title>Node11&#45;&gt;Node18</title>
<g id="a_edge28_Node000011_Node000018"><a xlink:title=" ">
<path fill="none" stroke="#63b8ff" d="M826.37,-163.31C885.34,-153.36 974.05,-138.38 1029.42,-129.04"/>
<polygon fill="#63b8ff" stroke="#63b8ff" points="825.73,-159.87 816.45,-164.98 826.89,-166.77 825.73,-159.87"/>
</a>
</g>
</g>
<!-- Node12&#45;&gt;Node8 -->
<g id="edge17_Node000012_Node000008" class="edge">
<title>Node12&#45;&gt;Node8</title>
<g id="a_edge17_Node000012_Node000008"><a xlink:title=" ">
<path fill="none" stroke="#63b8ff" d="M1025.01,-51.8C994.59,-41.91 951.72,-27.97 924.39,-19.08"/>
<polygon fill="#63b8ff" stroke="#63b8ff" points="1024.22,-55.22 1034.81,-54.98 1026.38,-48.56 1024.22,-55.22"/>
</a>
</g>
</g>
<!-- Node13 -->
<g id="Node000013" class="node">
<title>Node13</title>
<g id="a_Node000013"><a xlink:href="coord__extractor_8cpp.html" target="_top" xlink:title=" ">
<polygon fill="white" stroke="#666666" points="1193.5,-19 1056.5,-19 1056.5,0 1193.5,0 1193.5,-19"/>
<text text-anchor="middle" x="1125" y="-7" font-family="Helvetica,sans-Serif" font-size="10.00">core/coord_extractor.cpp</text>
</a>
</g>
</g>
<!-- Node12&#45;&gt;Node13 -->
<g id="edge16_Node000012_Node000013" class="edge">
<title>Node12&#45;&gt;Node13</title>
<g id="a_edge16_Node000012_Node000013"><a xlink:title=" ">
<path fill="none" stroke="#63b8ff" d="M1078.99,-48.6C1090.46,-39.11 1104.91,-27.13 1114.53,-19.17"/>
<polygon fill="#63b8ff" stroke="#63b8ff" points="1076.75,-45.91 1071.28,-54.98 1081.22,-51.3 1076.75,-45.91"/>
</a>
</g>
</g>
<!-- Node14&#45;&gt;Node8 -->
<g id="edge20_Node000014_Node000008" class="edge">
<title>Node14&#45;&gt;Node8</title>
<g id="a_edge20_Node000014_Node000008"><a xlink:title=" ">
<path fill="none" stroke="#63b8ff" d="M645.6,-105.86C619.91,-93.72 590.34,-74.4 607,-55 634.68,-22.77 749.13,-13.63 825.98,-11.19"/>
<polygon fill="#63b8ff" stroke="#63b8ff" points="644.24,-109.08 654.79,-109.99 647.11,-102.7 644.24,-109.08"/>
</a>
</g>
</g>
<!-- Node15 -->
<g id="Node000015" class="node">
<title>Node15</title>
<g id="a_Node000015"><a xlink:href="create__input_8cpp.html" target="_top" xlink:title="Implementation of Gaussian input file creation from XYZ files.">
<polygon fill="white" stroke="#666666" points="738,-74 616,-74 616,-55 738,-55 738,-74"/>
<text text-anchor="middle" x="677" y="-62" font-family="Helvetica,sans-Serif" font-size="10.00">core/create_input.cpp</text>
</a>
</g>
</g>
<!-- Node14&#45;&gt;Node15 -->
<g id="edge19_Node000014_Node000015" class="edge">
<title>Node14&#45;&gt;Node15</title>
<g id="a_edge19_Node000014_Node000015"><a xlink:title=" ">
<path fill="none" stroke="#63b8ff" d="M677,-99.66C677,-90.93 677,-80.99 677,-74.09"/>
<polygon fill="#63b8ff" stroke="#63b8ff" points="673.5,-99.75 677,-109.75 680.5,-99.75 673.5,-99.75"/>
</a>
</g>
</g>
<!-- Node17&#45;&gt;Node8 -->
<g id="edge26_Node000017_Node000008" class="edge">
<title>Node17&#45;&gt;Node8</title>
<g id="a_edge26_Node000017_Node000008"><a xlink:title=" ">
<path fill="none" stroke="#63b8ff" d="M924.81,-104.22C941.65,-92.15 959.78,-73.84 951,-55 943.54,-38.99 927.17,-26.7 914.58,-19.13"/>
<polygon fill="#63b8ff" stroke="#63b8ff" points="922.64,-101.47 916.28,-109.94 926.53,-107.28 922.64,-101.47"/>
</a>
</g>
</g>
<!-- Node17&#45;&gt;Node16 -->
<g id="edge25_Node000017_Node000016" class="edge">
<title>Node17&#45;&gt;Node16</title>
<g id="a_edge25_Node000017_Node000016"><a xlink:title=" ">
<path fill="none" stroke="#63b8ff" d="M890.17,-101.1C884.53,-92.04 877.88,-81.37 873.35,-74.09"/>
<polygon fill="#63b8ff" stroke="#63b8ff" points="887.29,-103.11 895.55,-109.75 893.24,-99.41 887.29,-103.11"/>
</a>
</g>
</g>
<!-- Node18&#45;&gt;Node8 -->
<g id="edge32_Node000018_Node000008" class="edge">
<title>Node18&#45;&gt;Node8</title>
<g id="a_edge32_Node000018_Node000008"><a xlink:title=" ">
<path fill="none" stroke="#63b8ff" d="M1104.71,-104.43C1124.23,-91.54 1146.02,-71.94 1132,-55 1111.7,-30.47 1031.14,-19.35 970.17,-14.38"/>
<polygon fill="#63b8ff" stroke="#63b8ff" points="1102.67,-101.58 1096.04,-109.85 1106.38,-107.52 1102.67,-101.58"/>
</a>
</g>
</g>
<!-- Node18&#45;&gt;Node12 -->
<g id="edge30_Node000018_Node000012" class="edge">
<title>Node18&#45;&gt;Node12</title>
<g id="a_edge30_Node000018_Node000012"><a xlink:title=" ">
<path fill="none" stroke="#63b8ff" d="M1073.45,-100.24C1070.28,-91.37 1066.61,-81.14 1064.08,-74.09"/>
<polygon fill="#63b8ff" stroke="#63b8ff" points="1070.19,-101.52 1076.86,-109.75 1076.78,-99.15 1070.19,-101.52"/>
</a>
</g>
</g>
<!-- Node18&#45;&gt;Node13 -->
<g id="edge29_Node000018_Node000013" class="edge">
<title>Node18&#45;&gt;Node13</title>
<g id="a_edge29_Node000018_Node000013"><a xlink:title=" ">
<path fill="none" stroke="#63b8ff" d="M1124.81,-106.09C1140.66,-99.31 1156.81,-89.1 1166,-74 1178.14,-54.05 1153.58,-31.14 1137.48,-19.04"/>
<polygon fill="#63b8ff" stroke="#63b8ff" points="1123.1,-103 1115.05,-109.88 1125.64,-109.52 1123.1,-103"/>
</a>
</g>
</g>
<!-- Node19 -->
<g id="Node000019" class="node">
<title>Node19</title>
<g id="a_Node000019"><a xlink:href="job__checker_8cpp.html" target="_top" xlink:title=" ">
<polygon fill="white" stroke="#666666" points="1336,-74 1218,-74 1218,-55 1336,-55 1336,-74"/>
<text text-anchor="middle" x="1277" y="-62" font-family="Helvetica,sans-Serif" font-size="10.00">core/job_checker.cpp</text>
</a>
</g>
</g>
<!-- Node18&#45;&gt;Node19 -->
<g id="edge31_Node000018_Node000019" class="edge">
<title>Node18&#45;&gt;Node19</title>
<g id="a_edge31_Node000018_Node000019"><a xlink:title=" ">
<path fill="none" stroke="#63b8ff" d="M1121.59,-107.31C1158.45,-97.39 1211.5,-83.12 1245.1,-74.08"/>
<polygon fill="#63b8ff" stroke="#63b8ff" points="1120.4,-104.01 1111.65,-109.98 1122.22,-110.77 1120.4,-104.01"/>
</a>
</g>
</g>
</g>
</svg>
