<?xml version="1.0" encoding="UTF-8" standalone="no"?>
<!DOCTYPE svg PUBLIC "-//W3C//DTD SVG 1.1//EN"
 "http://www.w3.org/Graphics/SVG/1.1/DTD/svg11.dtd">
<!-- Generated by graphviz version 2.43.0 (0)
 -->
<!-- Title: core/job_checker.cpp Pages: 1 -->
<svg width="1329pt" height="247pt"
 viewBox="0.00 0.00 1328.94 247.00" xmlns="http://www.w3.org/2000/svg" xmlns:xlink="http://www.w3.org/1999/xlink">
<g id="graph0" class="graph" transform="scale(1 1) rotate(0) translate(4 243)">
<title>core/job_checker.cpp</title>
<!-- Node1 -->
<g id="Node000001" class="node">
<title>Node1</title>
<g id="a_Node000001"><a xlink:title=" ">
<polygon fill="#999999" stroke="#666666" points="942.94,-239 824.94,-239 824.94,-220 942.94,-220 942.94,-239"/>
<text text-anchor="middle" x="883.94" y="-227" font-family="Helvetica,sans-Serif" font-size="10.00">core/job_checker.cpp</text>
</a>
</g>
</g>
<!-- Node2 -->
<g id="Node000002" class="node">
<title>Node2</title>
<g id="a_Node000002"><a xlink:href="job__checker_8h.html" target="_top" xlink:title="Job status checking and file organization system for Gaussian calculations.">
<polygon fill="white" stroke="#666666" points="469.44,-184 386.44,-184 386.44,-165 469.44,-165 469.44,-184"/>
<text text-anchor="middle" x="427.94" y="-172" font-family="Helvetica,sans-Serif" font-size="10.00">job_checker.h</text>
</a>
</g>
</g>
<!-- Node1&#45;&gt;Node2 -->
<g id="edge1_Node000001_Node000002" class="edge">
<title>Node1&#45;&gt;Node2</title>
<g id="a_edge1_Node000001_Node000002"><a xlink:title=" ">
<path fill="none" stroke="#63b8ff" d="M824.79,-221.63C734.83,-211.17 565.07,-191.44 479.71,-181.52"/>
<polygon fill="#63b8ff" stroke="#63b8ff" points="480.07,-178.04 469.73,-180.36 479.26,-184.99 480.07,-178.04"/>
</a>
</g>
</g>
<!-- Node4 -->
<g id="Node000004" class="node">
<title>Node4</title>
<g id="a_Node000004"><a xlink:title=" ">
<polygon fill="#e0e0e0" stroke="#999999" points="131.94,-19 67.94,-19 67.94,0 131.94,0 131.94,-19"/>
<text text-anchor="middle" x="99.94" y="-7" font-family="Helvetica,sans-Serif" font-size="10.00">algorithm</text>
</a>
</g>
</g>
<!-- Node1&#45;&gt;Node4 -->
<g id="edge34_Node000001_Node000004" class="edge">
<title>Node1&#45;&gt;Node4</title>
<g id="a_edge34_Node000001_Node000004"><a xlink:title=" ">
<path fill="none" stroke="#63b8ff" d="M824.92,-228.09C643.92,-225.4 102.98,-206.25 4.94,-74 -13.28,-49.41 24.96,-31.4 58.23,-20.97"/>
<polygon fill="#63b8ff" stroke="#63b8ff" points="59.29,-24.3 67.87,-18.1 57.29,-17.59 59.29,-24.3"/>
</a>
</g>
</g>
<!-- Node5 -->
<g id="Node000005" class="node">
<title>Node5</title>
<g id="a_Node000005"><a xlink:title=" ">
<polygon fill="#e0e0e0" stroke="#999999" points="560.94,-74 510.94,-74 510.94,-55 560.94,-55 560.94,-74"/>
<text text-anchor="middle" x="535.94" y="-62" font-family="Helvetica,sans-Serif" font-size="10.00">atomic</text>
</a>
</g>
</g>
<!-- Node1&#45;&gt;Node5 -->
<g id="edge38_Node000001_Node000005" class="edge">
<title>Node1&#45;&gt;Node5</title>
<g id="a_edge38_Node000001_Node000005"><a xlink:title=" ">
<path fill="none" stroke="#63b8ff" d="M824.69,-221.77C784.22,-215.62 730.13,-204.27 685.94,-184 629.87,-158.28 576.14,-107.43 550.92,-81.51"/>
<polygon fill="#63b8ff" stroke="#63b8ff" points="553.2,-78.84 543.76,-74.03 548.15,-83.68 553.2,-78.84"/>
</a>
</g>
</g>
<!-- Node10 -->
<g id="Node000010" class="node">
<title>Node10</title>
<g id="a_Node000010"><a xlink:title=" ">
<polygon fill="#e0e0e0" stroke="#999999" points="692.94,-74 644.94,-74 644.94,-55 692.94,-55 692.94,-74"/>
<text text-anchor="middle" x="668.94" y="-62" font-family="Helvetica,sans-Serif" font-size="10.00">mutex</text>
</a>
</g>
</g>
<!-- Node1&#45;&gt;Node10 -->
<g id="edge37_Node000001_Node000010" class="edge">
<title>Node1&#45;&gt;Node10</title>
<g id="a_edge37_Node000001_Node000010"><a xlink:title=" ">
<path fill="none" stroke="#63b8ff" d="M889.53,-219.77C904.74,-195.45 944.81,-127.62 929.94,-110 901.3,-76.06 767.18,-68 703.14,-66.09"/>
<polygon fill="#63b8ff" stroke="#63b8ff" points="703.22,-62.59 693.13,-65.83 703.03,-69.59 703.22,-62.59"/>
</a>
</g>
</g>
<!-- Node16 -->
<g id="Node000016" class="node">
<title>Node16</title>
<g id="a_Node000016"><a xlink:title=" ">
<polygon fill="#e0e0e0" stroke="#999999" points="542.94,-129 474.94,-129 474.94,-110 542.94,-110 542.94,-129"/>
<text text-anchor="middle" x="508.94" y="-117" font-family="Helvetica,sans-Serif" font-size="10.00">filesystem</text>
</a>
</g>
</g>
<!-- Node1&#45;&gt;Node16 -->
<g id="edge40_Node000001_Node000016" class="edge">
<title>Node1&#45;&gt;Node16</title>
<g id="a_edge40_Node000001_Node000016"><a xlink:title=" ">
<path fill="none" stroke="#63b8ff" d="M824.66,-225.85C743.04,-221.3 601.14,-209.86 556.94,-184 538.92,-173.45 525.44,-153.23 517.43,-138.43"/>
<polygon fill="#63b8ff" stroke="#63b8ff" points="520.41,-136.57 512.77,-129.24 514.17,-139.74 520.41,-136.57"/>
</a>
</g>
</g>
<!-- Node17 -->
<g id="Node000017" class="node">
<title>Node17</title>
<g id="a_Node000017"><a xlink:href="config__manager_8h.html" target="_top" xlink:title="Configuration management system for Gaussian Extractor.">
<polygon fill="white" stroke="#666666" points="798.44,-184 695.44,-184 695.44,-165 798.44,-165 798.44,-184"/>
<text text-anchor="middle" x="746.94" y="-172" font-family="Helvetica,sans-Serif" font-size="10.00">config_manager.h</text>
</a>
</g>
</g>
<!-- Node1&#45;&gt;Node17 -->
<g id="edge22_Node000001_Node000017" class="edge">
<title>Node1&#45;&gt;Node17</title>
<g id="a_edge22_Node000001_Node000017"><a xlink:title=" ">
<path fill="none" stroke="#63b8ff" d="M861.93,-219.98C839.49,-211.3 804.46,-197.75 778.95,-187.88"/>
<polygon fill="#63b8ff" stroke="#63b8ff" points="779.94,-184.51 769.35,-184.17 777.42,-191.04 779.94,-184.51"/>
</a>
</g>
</g>
<!-- Node18 -->
<g id="Node000018" class="node">
<title>Node18</title>
<g id="a_Node000018"><a xlink:title=" ">
<polygon fill="#e0e0e0" stroke="#999999" points="842.44,-129 787.44,-129 787.44,-110 842.44,-110 842.44,-129"/>
<text text-anchor="middle" x="814.94" y="-117" font-family="Helvetica,sans-Serif" font-size="10.00">fstream</text>
</a>
</g>
</g>
<!-- Node1&#45;&gt;Node18 -->
<g id="edge31_Node000001_Node000018" class="edge">
<title>Node1&#45;&gt;Node18</title>
<g id="a_edge31_Node000001_Node000018"><a xlink:title=" ">
<path fill="none" stroke="#63b8ff" d="M878.29,-219.66C866.87,-201.77 840.82,-161 825.93,-137.69"/>
<polygon fill="#63b8ff" stroke="#63b8ff" points="828.81,-135.7 820.47,-129.16 822.91,-139.47 828.81,-135.7"/>
</a>
</g>
</g>
<!-- Node19 -->
<g id="Node000019" class="node">
<title>Node19</title>
<g id="a_Node000019"><a xlink:title=" ">
<polygon fill="#e0e0e0" stroke="#999999" points="920.94,-129 860.94,-129 860.94,-110 920.94,-110 920.94,-129"/>
<text text-anchor="middle" x="890.94" y="-117" font-family="Helvetica,sans-Serif" font-size="10.00">iostream</text>
</a>
</g>
</g>
<!-- Node1&#45;&gt;Node19 -->
<g id="edge29_Node000001_Node000019" class="edge">
<title>Node1&#45;&gt;Node19</title>
<g id="a_edge29_Node000001_Node000019"><a xlink:title=" ">
<path fill="none" stroke="#63b8ff" d="M884.51,-219.66C885.65,-202.17 888.2,-162.8 889.72,-139.27"/>
<polygon fill="#63b8ff" stroke="#63b8ff" points="893.23,-139.36 890.38,-129.16 886.24,-138.91 893.23,-139.36"/>
</a>
</g>
</g>
<!-- Node21 -->
<g id="Node000021" class="node">
<title>Node21</title>
<g id="a_Node000021"><a xlink:title=" ">
<polygon fill="#e0e0e0" stroke="#999999" points="986.94,-184 930.94,-184 930.94,-165 986.94,-165 986.94,-184"/>
<text text-anchor="middle" x="958.94" y="-172" font-family="Helvetica,sans-Serif" font-size="10.00">iomanip</text>
</a>
</g>
</g>
<!-- Node1&#45;&gt;Node21 -->
<g id="edge30_Node000001_Node000021" class="edge">
<title>Node1&#45;&gt;Node21</title>
<g id="a_edge30_Node000001_Node000021"><a xlink:title=" ">
<path fill="none" stroke="#63b8ff" d="M895.99,-219.98C907.4,-211.92 924.77,-199.65 938.38,-190.03"/>
<polygon fill="#63b8ff" stroke="#63b8ff" points="940.53,-192.8 946.67,-184.17 936.49,-187.08 940.53,-192.8"/>
</a>
</g>
</g>
<!-- Node22 -->
<g id="Node000022" class="node">
<title>Node22</title>
<g id="a_Node000022"><a xlink:title=" ">
<polygon fill="#e0e0e0" stroke="#999999" points="1060.94,-184 1004.94,-184 1004.94,-165 1060.94,-165 1060.94,-184"/>
<text text-anchor="middle" x="1032.94" y="-172" font-family="Helvetica,sans-Serif" font-size="10.00">sstream</text>
</a>
</g>
</g>
<!-- Node1&#45;&gt;Node22 -->
<g id="edge32_Node000001_Node000022" class="edge">
<title>Node1&#45;&gt;Node22</title>
<g id="a_edge32_Node000001_Node000022"><a xlink:title=" ">
<path fill="none" stroke="#63b8ff" d="M907.88,-219.98C932.5,-211.23 971.06,-197.51 998.86,-187.62"/>
<polygon fill="#63b8ff" stroke="#63b8ff" points="1000.32,-190.82 1008.57,-184.17 997.97,-184.22 1000.32,-190.82"/>
</a>
</g>
</g>
<!-- Node23 -->
<g id="Node000023" class="node">
<title>Node23</title>
<g id="a_Node000023"><a xlink:title=" ">
<polygon fill="#e0e0e0" stroke="#999999" points="1122.94,-184 1078.94,-184 1078.94,-165 1122.94,-165 1122.94,-184"/>
<text text-anchor="middle" x="1100.94" y="-172" font-family="Helvetica,sans-Serif" font-size="10.00">regex</text>
</a>
</g>
</g>
<!-- Node1&#45;&gt;Node23 -->
<g id="edge33_Node000001_Node000023" class="edge">
<title>Node1&#45;&gt;Node23</title>
<g id="a_edge33_Node000001_Node000023"><a xlink:title=" ">
<path fill="none" stroke="#63b8ff" d="M921.08,-219.99C956.64,-211.76 1012.01,-198.73 1068.76,-184.24"/>
<polygon fill="#63b8ff" stroke="#63b8ff" points="1069.8,-187.59 1078.61,-181.72 1068.06,-180.81 1069.8,-187.59"/>
</a>
</g>
</g>
<!-- Node24 -->
<g id="Node000024" class="node">
<title>Node24</title>
<g id="a_Node000024"><a xlink:title=" ">
<polygon fill="#e0e0e0" stroke="#999999" points="1190.94,-184 1140.94,-184 1140.94,-165 1190.94,-165 1190.94,-184"/>
<text text-anchor="middle" x="1165.94" y="-172" font-family="Helvetica,sans-Serif" font-size="10.00">chrono</text>
</a>
</g>
</g>
<!-- Node1&#45;&gt;Node24 -->
<g id="edge35_Node000001_Node000024" class="edge">
<title>Node1&#45;&gt;Node24</title>
<g id="a_edge35_Node000001_Node000024"><a xlink:title=" ">
<path fill="none" stroke="#63b8ff" d="M937.36,-219.98C985.46,-212.08 1058.31,-199.5 1130.55,-184.18"/>
<polygon fill="#63b8ff" stroke="#63b8ff" points="1131.69,-187.52 1140.73,-182 1130.22,-180.67 1131.69,-187.52"/>
</a>
</g>
</g>
<!-- Node25 -->
<g id="Node000025" class="node">
<title>Node25</title>
<g id="a_Node000025"><a xlink:title=" ">
<polygon fill="#e0e0e0" stroke="#999999" points="1256.94,-184 1208.94,-184 1208.94,-165 1256.94,-165 1256.94,-184"/>
<text text-anchor="middle" x="1232.94" y="-172" font-family="Helvetica,sans-Serif" font-size="10.00">thread</text>
</a>
</g>
</g>
<!-- Node1&#45;&gt;Node25 -->
<g id="edge36_Node000001_Node000025" class="edge">
<title>Node1&#45;&gt;Node25</title>
<g id="a_edge36_Node000001_Node000025"><a xlink:title=" ">
<path fill="none" stroke="#63b8ff" d="M943.1,-222.18C1004.66,-215.15 1104.01,-202.54 1198.82,-184.02"/>
<polygon fill="#63b8ff" stroke="#63b8ff" points="1199.73,-187.41 1208.86,-182.03 1198.37,-180.54 1199.73,-187.41"/>
</a>
</g>
</g>
<!-- Node26 -->
<g id="Node000026" class="node">
<title>Node26</title>
<g id="a_Node000026"><a xlink:title=" ">
<polygon fill="#e0e0e0" stroke="#999999" points="1320.94,-184 1274.94,-184 1274.94,-165 1320.94,-165 1320.94,-184"/>
<text text-anchor="middle" x="1297.94" y="-172" font-family="Helvetica,sans-Serif" font-size="10.00">future</text>
</a>
</g>
</g>
<!-- Node1&#45;&gt;Node26 -->
<g id="edge39_Node000001_Node000026" class="edge">
<title>Node1&#45;&gt;Node26</title>
<g id="a_edge39_Node000001_Node000026"><a xlink:title=" ">
<path fill="none" stroke="#63b8ff" d="M943.24,-224.25C1016.62,-218.4 1145.5,-206.19 1264.59,-184.01"/>
<polygon fill="#63b8ff" stroke="#63b8ff" points="1265.44,-187.41 1274.61,-182.11 1264.14,-180.53 1265.44,-187.41"/>
</a>
</g>
</g>
<!-- Node3 -->
<g id="Node000003" class="node">
<title>Node3</title>
<g id="a_Node000003"><a xlink:href="gaussian__extractor_8h.html" target="_top" xlink:title="Core extraction engine and data structures for Gaussian log file processing.">
<polygon fill="white" stroke="#666666" points="380.94,-129 262.94,-129 262.94,-110 380.94,-110 380.94,-129"/>
<text text-anchor="middle" x="321.94" y="-117" font-family="Helvetica,sans-Serif" font-size="10.00">gaussian_extractor.h</text>
</a>
</g>
</g>
<!-- Node2&#45;&gt;Node3 -->
<g id="edge2_Node000002_Node000003" class="edge">
<title>Node2&#45;&gt;Node3</title>
<g id="a_edge2_Node000002_Node000003"><a xlink:title=" ">
<path fill="none" stroke="#63b8ff" d="M410.91,-164.98C394.01,-156.54 367.88,-143.47 348.3,-133.68"/>
<polygon fill="#63b8ff" stroke="#63b8ff" points="349.79,-130.51 339.28,-129.17 346.66,-136.77 349.79,-130.51"/>
</a>
</g>
</g>
<!-- Node9 -->
<g id="Node000009" class="node">
<title>Node9</title>
<g id="a_Node000009"><a xlink:title=" ">
<polygon fill="#e0e0e0" stroke="#999999" points="71.94,-74 13.94,-74 13.94,-55 71.94,-55 71.94,-74"/>
<text text-anchor="middle" x="42.94" y="-62" font-family="Helvetica,sans-Serif" font-size="10.00">memory</text>
</a>
</g>
</g>
<!-- Node2&#45;&gt;Node9 -->
<g id="edge19_Node000002_Node000009" class="edge">
<title>Node2&#45;&gt;Node9</title>
<g id="a_edge19_Node000002_Node000009"><a xlink:title=" ">
<path fill="none" stroke="#63b8ff" d="M392.83,-164.98C357.61,-156.32 301.85,-142.33 253.94,-129 192.66,-111.95 121.96,-90.26 79.94,-77.15"/>
<polygon fill="#63b8ff" stroke="#63b8ff" points="80.74,-73.73 70.15,-74.09 78.65,-80.41 80.74,-73.73"/>
</a>
</g>
</g>
<!-- Node11 -->
<g id="Node000011" class="node">
<title>Node11</title>
<g id="a_Node000011"><a xlink:title=" ">
<polygon fill="#e0e0e0" stroke="#999999" points="623.94,-19 579.94,-19 579.94,0 623.94,0 623.94,-19"/>
<text text-anchor="middle" x="601.94" y="-7" font-family="Helvetica,sans-Serif" font-size="10.00">string</text>
</a>
</g>
</g>
<!-- Node2&#45;&gt;Node11 -->
<g id="edge20_Node000002_Node000011" class="edge">
<title>Node2&#45;&gt;Node11</title>
<g id="a_edge20_Node000002_Node000011"><a xlink:title=" ">
<path fill="none" stroke="#63b8ff" d="M430.46,-164.84C435.03,-150.81 446.1,-123.32 465.94,-110 554.02,-50.84 632.8,-154.48 701.94,-74 725.09,-47.05 671.46,-27.56 634.13,-17.73"/>
<polygon fill="#63b8ff" stroke="#63b8ff" points="634.66,-14.25 624.11,-15.21 632.96,-21.04 634.66,-14.25"/>
</a>
</g>
</g>
<!-- Node12 -->
<g id="Node000012" class="node">
<title>Node12</title>
<g id="a_Node000012"><a xlink:title=" ">
<polygon fill="#e0e0e0" stroke="#999999" points="626.44,-74 579.44,-74 579.44,-55 626.44,-55 626.44,-74"/>
<text text-anchor="middle" x="602.94" y="-62" font-family="Helvetica,sans-Serif" font-size="10.00">vector</text>
</a>
</g>
</g>
<!-- Node2&#45;&gt;Node12 -->
<g id="edge21_Node000002_Node000012" class="edge">
<title>Node2&#45;&gt;Node12</title>
<g id="a_edge21_Node000002_Node000012"><a xlink:title=" ">
<path fill="none" stroke="#63b8ff" d="M425.81,-164.96C423.01,-151.58 419.88,-125.61 432.94,-110 433.5,-109.33 520.12,-86.88 569.48,-74.13"/>
<polygon fill="#63b8ff" stroke="#63b8ff" points="570.59,-77.46 579.4,-71.57 568.84,-70.68 570.59,-77.46"/>
</a>
</g>
</g>
<!-- Node2&#45;&gt;Node16 -->
<g id="edge18_Node000002_Node000016" class="edge">
<title>Node2&#45;&gt;Node16</title>
<g id="a_edge18_Node000002_Node000016"><a xlink:title=" ">
<path fill="none" stroke="#63b8ff" d="M440.96,-164.98C453.4,-156.84 472.4,-144.41 487.15,-134.76"/>
<polygon fill="#63b8ff" stroke="#63b8ff" points="489.24,-137.57 495.69,-129.17 485.41,-131.72 489.24,-137.57"/>
</a>
</g>
</g>
<!-- Node3&#45;&gt;Node4 -->
<g id="edge3_Node000003_Node000004" class="edge">
<title>Node3&#45;&gt;Node4</title>
<g id="a_edge3_Node000003_Node000004"><a xlink:title=" ">
<path fill="none" stroke="#63b8ff" d="M262.75,-113.02C227.37,-107.48 182.86,-96.35 148.94,-74 131.56,-62.54 117.77,-42.81 109.3,-28.38"/>
<polygon fill="#63b8ff" stroke="#63b8ff" points="112.23,-26.44 104.31,-19.4 106.11,-29.84 112.23,-26.44"/>
</a>
</g>
</g>
<!-- Node3&#45;&gt;Node5 -->
<g id="edge4_Node000003_Node000005" class="edge">
<title>Node3&#45;&gt;Node5</title>
<g id="a_edge4_Node000003_Node000005"><a xlink:title=" ">
<path fill="none" stroke="#63b8ff" d="M356.32,-109.98C396,-100.16 460.88,-84.09 500.85,-74.19"/>
<polygon fill="#63b8ff" stroke="#63b8ff" points="501.82,-77.56 510.69,-71.75 500.14,-70.76 501.82,-77.56"/>
</a>
</g>
</g>
<!-- Node6 -->
<g id="Node000006" class="node">
<title>Node6</title>
<g id="a_Node000006"><a xlink:title=" ">
<polygon fill="#e0e0e0" stroke="#999999" points="273.44,-74 166.44,-74 166.44,-55 273.44,-55 273.44,-74"/>
<text text-anchor="middle" x="219.94" y="-62" font-family="Helvetica,sans-Serif" font-size="10.00">condition_variable</text>
</a>
</g>
</g>
<!-- Node3&#45;&gt;Node6 -->
<g id="edge5_Node000003_Node000006" class="edge">
<title>Node3&#45;&gt;Node6</title>
<g id="a_edge5_Node000003_Node000006"><a xlink:title=" ">
<path fill="none" stroke="#63b8ff" d="M305.55,-109.98C289.37,-101.57 264.37,-88.59 245.56,-78.81"/>
<polygon fill="#63b8ff" stroke="#63b8ff" points="247.11,-75.68 236.63,-74.17 243.89,-81.89 247.11,-75.68"/>
</a>
</g>
</g>
<!-- Node7 -->
<g id="Node000007" class="node">
<title>Node7</title>
<g id="a_Node000007"><a xlink:title=" ">
<polygon fill="#e0e0e0" stroke="#999999" points="344.44,-74 291.44,-74 291.44,-55 344.44,-55 344.44,-74"/>
<text text-anchor="middle" x="317.94" y="-62" font-family="Helvetica,sans-Serif" font-size="10.00">cstddef</text>
</a>
</g>
</g>
<!-- Node3&#45;&gt;Node7 -->
<g id="edge6_Node000003_Node000007" class="edge">
<title>Node3&#45;&gt;Node7</title>
<g id="a_edge6_Node000003_Node000007"><a xlink:title=" ">
<path fill="none" stroke="#63b8ff" d="M321.28,-109.75C320.76,-102.8 320.01,-92.85 319.35,-84.13"/>
<polygon fill="#63b8ff" stroke="#63b8ff" points="322.83,-83.8 318.59,-74.09 315.85,-84.32 322.83,-83.8"/>
</a>
</g>
</g>
<!-- Node8 -->
<g id="Node000008" class="node">
<title>Node8</title>
<g id="a_Node000008"><a xlink:title=" ">
<polygon fill="#e0e0e0" stroke="#999999" points="261.44,-19 196.44,-19 196.44,0 261.44,0 261.44,-19"/>
<text text-anchor="middle" x="228.94" y="-7" font-family="Helvetica,sans-Serif" font-size="10.00">functional</text>
</a>
</g>
</g>
<!-- Node3&#45;&gt;Node8 -->
<g id="edge7_Node000003_Node000008" class="edge">
<title>Node3&#45;&gt;Node8</title>
<g id="a_edge7_Node000003_Node000008"><a xlink:title=" ">
<path fill="none" stroke="#63b8ff" d="M262.72,-110.21C220.87,-103 169.98,-91.02 156.94,-74 141.42,-53.73 170.25,-34.98 195.92,-23.19"/>
<polygon fill="#63b8ff" stroke="#63b8ff" points="197.37,-26.38 205.14,-19.17 194.58,-19.96 197.37,-26.38"/>
</a>
</g>
</g>
<!-- Node3&#45;&gt;Node9 -->
<g id="edge8_Node000003_Node000009" class="edge">
<title>Node3&#45;&gt;Node9</title>
<g id="a_edge8_Node000003_Node000009"><a xlink:title=" ">
<path fill="none" stroke="#63b8ff" d="M275.79,-109.92C228.2,-101.05 151.85,-86.73 85.94,-74 84.68,-73.76 83.4,-73.51 82.11,-73.26"/>
<polygon fill="#63b8ff" stroke="#63b8ff" points="82.56,-69.78 72.08,-71.3 81.22,-76.65 82.56,-69.78"/>
</a>
</g>
</g>
<!-- Node3&#45;&gt;Node10 -->
<g id="edge9_Node000003_Node000010" class="edge">
<title>Node3&#45;&gt;Node10</title>
<g id="a_edge9_Node000003_Node000010"><a xlink:title=" ">
<path fill="none" stroke="#63b8ff" d="M381.09,-111.95C444.25,-104.51 547.14,-91.17 634.94,-74 635.04,-73.98 635.14,-73.96 635.24,-73.94"/>
<polygon fill="#63b8ff" stroke="#63b8ff" points="635.84,-77.39 644.86,-71.85 634.35,-70.55 635.84,-77.39"/>
</a>
</g>
</g>
<!-- Node3&#45;&gt;Node11 -->
<g id="edge10_Node000003_Node000011" class="edge">
<title>Node3&#45;&gt;Node11</title>
<g id="a_edge10_Node000003_Node000011"><a xlink:title=" ">
<path fill="none" stroke="#63b8ff" d="M354.32,-109.95C383.44,-101.89 427.17,-88.84 463.94,-74 481.45,-66.93 484.87,-63.06 501.94,-55 525.57,-43.84 552.66,-31.83 572.68,-23.11"/>
<polygon fill="#63b8ff" stroke="#63b8ff" points="574.12,-26.3 581.9,-19.1 571.33,-19.88 574.12,-26.3"/>
</a>
</g>
</g>
<!-- Node3&#45;&gt;Node12 -->
<g id="edge11_Node000003_Node000012" class="edge">
<title>Node3&#45;&gt;Node12</title>
<g id="a_edge11_Node000003_Node000012"><a xlink:title=" ">
<path fill="none" stroke="#63b8ff" d="M376.36,-109.93C424.49,-102.09 496.84,-89.64 569.02,-74.06"/>
<polygon fill="#63b8ff" stroke="#63b8ff" points="570.17,-77.39 579.2,-71.84 568.68,-70.55 570.17,-77.39"/>
</a>
</g>
</g>
<!-- Node13 -->
<g id="Node000013" class="node">
<title>Node13</title>
<g id="a_Node000013"><a xlink:href="job__scheduler_8h.html" target="_top" xlink:title="Job scheduler detection and resource management for HPC environments.">
<polygon fill="white" stroke="#666666" points="454.94,-74 362.94,-74 362.94,-55 454.94,-55 454.94,-74"/>
<text text-anchor="middle" x="408.94" y="-62" font-family="Helvetica,sans-Serif" font-size="10.00">job_scheduler.h</text>
</a>
</g>
</g>
<!-- Node3&#45;&gt;Node13 -->
<g id="edge12_Node000003_Node000013" class="edge">
<title>Node3&#45;&gt;Node13</title>
<g id="a_edge12_Node000003_Node000013"><a xlink:title=" ">
<path fill="none" stroke="#63b8ff" d="M335.92,-109.98C349.41,-101.77 370.08,-89.18 385.98,-79.49"/>
<polygon fill="#63b8ff" stroke="#63b8ff" points="387.99,-82.36 394.71,-74.17 384.35,-76.38 387.99,-82.36"/>
</a>
</g>
</g>
<!-- Node13&#45;&gt;Node4 -->
<g id="edge13_Node000013_Node000004" class="edge">
<title>Node13&#45;&gt;Node4</title>
<g id="a_edge13_Node000013_Node000004"><a xlink:title=" ">
<path fill="none" stroke="#63b8ff" d="M362.68,-55.57C302.96,-45.32 199.89,-27.64 142.19,-17.75"/>
<polygon fill="#63b8ff" stroke="#63b8ff" points="142.76,-14.29 132.31,-16.05 141.57,-21.19 142.76,-14.29"/>
</a>
</g>
</g>
<!-- Node13&#45;&gt;Node8 -->
<g id="edge16_Node000013_Node000008" class="edge">
<title>Node13&#45;&gt;Node8</title>
<g id="a_edge16_Node000013_Node000008"><a xlink:title=" ">
<path fill="none" stroke="#63b8ff" d="M380.02,-54.98C349.67,-46.05 301.77,-31.94 268.06,-22.02"/>
<polygon fill="#63b8ff" stroke="#63b8ff" points="268.67,-18.55 258.09,-19.08 266.69,-25.26 268.67,-18.55"/>
</a>
</g>
</g>
<!-- Node13&#45;&gt;Node11 -->
<g id="edge17_Node000013_Node000011" class="edge">
<title>Node13&#45;&gt;Node11</title>
<g id="a_edge17_Node000013_Node000011"><a xlink:title=" ">
<path fill="none" stroke="#63b8ff" d="M439.95,-54.98C475.54,-45.21 533.64,-29.26 569.73,-19.35"/>
<polygon fill="#63b8ff" stroke="#63b8ff" points="571.02,-22.62 579.73,-16.6 569.16,-15.87 571.02,-22.62"/>
</a>
</g>
</g>
<!-- Node14 -->
<g id="Node000014" class="node">
<title>Node14</title>
<g id="a_Node000014"><a xlink:title=" ">
<polygon fill="#e0e0e0" stroke="#999999" points="370.44,-19 321.44,-19 321.44,0 370.44,0 370.44,-19"/>
<text text-anchor="middle" x="345.94" y="-7" font-family="Helvetica,sans-Serif" font-size="10.00">cctype</text>
</a>
</g>
</g>
<!-- Node13&#45;&gt;Node14 -->
<g id="edge14_Node000013_Node000014" class="edge">
<title>Node13&#45;&gt;Node14</title>
<g id="a_edge14_Node000013_Node000014"><a xlink:title=" ">
<path fill="none" stroke="#63b8ff" d="M398.82,-54.98C389.51,-47.15 375.47,-35.34 364.2,-25.86"/>
<polygon fill="#63b8ff" stroke="#63b8ff" points="366.15,-22.93 356.25,-19.17 361.65,-28.29 366.15,-22.93"/>
</a>
</g>
</g>
<!-- Node15 -->
<g id="Node000015" class="node">
<title>Node15</title>
<g id="a_Node000015"><a xlink:title=" ">
<polygon fill="#e0e0e0" stroke="#999999" points="437.44,-19 388.44,-19 388.44,0 437.44,0 437.44,-19"/>
<text text-anchor="middle" x="412.94" y="-7" font-family="Helvetica,sans-Serif" font-size="10.00">cstdlib</text>
</a>
</g>
</g>
<!-- Node13&#45;&gt;Node15 -->
<g id="edge15_Node000013_Node000015" class="edge">
<title>Node13&#45;&gt;Node15</title>
<g id="a_edge15_Node000013_Node000015"><a xlink:title=" ">
<path fill="none" stroke="#63b8ff" d="M409.6,-54.75C410.13,-47.8 410.88,-37.85 411.53,-29.13"/>
<polygon fill="#63b8ff" stroke="#63b8ff" points="415.03,-29.32 412.29,-19.09 408.05,-28.8 415.03,-29.32"/>
</a>
</g>
</g>
<!-- Node17&#45;&gt;Node11 -->
<g id="edge26_Node000017_Node000011" class="edge">
<title>Node17&#45;&gt;Node11</title>
<g id="a_edge26_Node000017_Node000011"><a xlink:title=" ">
<path fill="none" stroke="#63b8ff" d="M748.92,-164.9C753.26,-143.63 761.28,-87.95 734.94,-55 710.8,-24.8 665.44,-14.95 634.47,-11.81"/>
<polygon fill="#63b8ff" stroke="#63b8ff" points="634.43,-8.3 624.18,-10.96 633.85,-15.28 634.43,-8.3"/>
</a>
</g>
</g>
<!-- Node17&#45;&gt;Node12 -->
<g id="edge28_Node000017_Node000012" class="edge">
<title>Node17&#45;&gt;Node12</title>
<g id="a_edge28_Node000017_Node000012"><a xlink:title=" ">
<path fill="none" stroke="#63b8ff" d="M698.15,-164.96C674.37,-158.58 646.9,-147.63 627.94,-129 615.67,-116.94 609.28,-98.14 606.04,-84.12"/>
<polygon fill="#63b8ff" stroke="#63b8ff" points="609.44,-83.25 604.07,-74.12 602.57,-84.61 609.44,-83.25"/>
</a>
</g>
</g>
<!-- Node17&#45;&gt;Node16 -->
<g id="edge23_Node000017_Node000016" class="edge">
<title>Node17&#45;&gt;Node16</title>
<g id="a_edge23_Node000017_Node000016"><a xlink:title=" ">
<path fill="none" stroke="#63b8ff" d="M708.7,-164.98C666.28,-155.54 597.93,-140.32 553.22,-130.36"/>
<polygon fill="#63b8ff" stroke="#63b8ff" points="553.74,-126.89 543.22,-128.13 552.22,-133.72 553.74,-126.89"/>
</a>
</g>
</g>
<!-- Node17&#45;&gt;Node18 -->
<g id="edge24_Node000017_Node000018" class="edge">
<title>Node17&#45;&gt;Node18</title>
<g id="a_edge24_Node000017_Node000018"><a xlink:title=" ">
<path fill="none" stroke="#63b8ff" d="M757.87,-164.98C768.02,-157.07 783.36,-145.11 795.59,-135.58"/>
<polygon fill="#63b8ff" stroke="#63b8ff" points="798.08,-138.08 803.82,-129.17 793.78,-132.56 798.08,-138.08"/>
</a>
</g>
</g>
<!-- Node17&#45;&gt;Node19 -->
<g id="edge25_Node000017_Node000019" class="edge">
<title>Node17&#45;&gt;Node19</title>
<g id="a_edge25_Node000017_Node000019"><a xlink:title=" ">
<path fill="none" stroke="#63b8ff" d="M770.08,-164.98C793.76,-156.27 830.81,-142.63 857.65,-132.75"/>
<polygon fill="#63b8ff" stroke="#63b8ff" points="859.21,-135.91 867.38,-129.17 856.79,-129.34 859.21,-135.91"/>
</a>
</g>
</g>
<!-- Node20 -->
<g id="Node000020" class="node">
<title>Node20</title>
<g id="a_Node000020"><a xlink:title=" ">
<polygon fill="#e0e0e0" stroke="#999999" points="730.44,-129 637.44,-129 637.44,-110 730.44,-110 730.44,-129"/>
<text text-anchor="middle" x="683.94" y="-117" font-family="Helvetica,sans-Serif" font-size="10.00">unordered_map</text>
</a>
</g>
</g>
<!-- Node17&#45;&gt;Node20 -->
<g id="edge27_Node000017_Node000020" class="edge">
<title>Node17&#45;&gt;Node20</title>
<g id="a_edge27_Node000017_Node000020"><a xlink:title=" ">
<path fill="none" stroke="#63b8ff" d="M736.82,-164.98C727.51,-157.15 713.47,-145.34 702.2,-135.86"/>
<polygon fill="#63b8ff" stroke="#63b8ff" points="704.15,-132.93 694.25,-129.17 699.65,-138.29 704.15,-132.93"/>
</a>
</g>
</g>
</g>
</svg>
