<?xml version="1.0" encoding="UTF-8" standalone="no"?>
<!DOCTYPE svg PUBLIC "-//W3C//DTD SVG 1.1//EN"
 "http://www.w3.org/Graphics/SVG/1.1/DTD/svg11.dtd">
<!-- Generated by graphviz version 2.43.0 (0)
 -->
<!-- Title: core/job_checker.h Pages: 1 -->
<svg width="738pt" height="192pt"
 viewBox="0.00 0.00 737.50 192.00" xmlns="http://www.w3.org/2000/svg" xmlns:xlink="http://www.w3.org/1999/xlink">
<g id="graph0" class="graph" transform="scale(1 1) rotate(0) translate(4 188)">
<title>core/job_checker.h</title>
<!-- Node1 -->
<g id="Node000001" class="node">
<title>Node1</title>
<g id="a_Node000001"><a xlink:title="Job status checking and file organization system for Gaussian calculations.">
<polygon fill="#999999" stroke="#666666" points="634.5,-184 527.5,-184 527.5,-165 634.5,-165 634.5,-184"/>
<text text-anchor="middle" x="581" y="-172" font-family="Helvetica,sans-Serif" font-size="10.00">core/job_checker.h</text>
</a>
</g>
</g>
<!-- Node2 -->
<g id="Node000002" class="node">
<title>Node2</title>
<g id="a_Node000002"><a xlink:href="gaussian__extractor_8h.html" target="_top" xlink:title="Core extraction engine and data structures for Gaussian log file processing.">
<polygon fill="white" stroke="#666666" points="499,-129 381,-129 381,-110 499,-110 499,-129"/>
<text text-anchor="middle" x="440" y="-117" font-family="Helvetica,sans-Serif" font-size="10.00">gaussian_extractor.h</text>
</a>
</g>
</g>
<!-- Node1&#45;&gt;Node2 -->
<g id="edge1_Node000001_Node000002" class="edge">
<title>Node1&#45;&gt;Node2</title>
<g id="a_edge1_Node000001_Node000002"><a xlink:title=" ">
<path fill="none" stroke="#63b8ff" d="M558.35,-164.98C535.15,-156.27 498.88,-142.63 472.6,-132.75"/>
<polygon fill="#63b8ff" stroke="#63b8ff" points="473.66,-129.41 463.07,-129.17 471.2,-135.97 473.66,-129.41"/>
</a>
</g>
</g>
<!-- Node8 -->
<g id="Node000008" class="node">
<title>Node8</title>
<g id="a_Node000008"><a xlink:title=" ">
<polygon fill="#e0e0e0" stroke="#999999" points="664,-74 606,-74 606,-55 664,-55 664,-74"/>
<text text-anchor="middle" x="635" y="-62" font-family="Helvetica,sans-Serif" font-size="10.00">memory</text>
</a>
</g>
</g>
<!-- Node1&#45;&gt;Node8 -->
<g id="edge18_Node000001_Node000008" class="edge">
<title>Node1&#45;&gt;Node8</title>
<g id="a_edge18_Node000001_Node000008"><a xlink:title=" ">
<path fill="none" stroke="#63b8ff" d="M583.64,-164.6C587.52,-152.05 595.36,-128.63 605,-110 609.91,-100.5 616.45,-90.57 622.17,-82.51"/>
<polygon fill="#63b8ff" stroke="#63b8ff" points="625.08,-84.46 628.15,-74.32 619.43,-80.33 625.08,-84.46"/>
</a>
</g>
</g>
<!-- Node10 -->
<g id="Node000010" class="node">
<title>Node10</title>
<g id="a_Node000010"><a xlink:title=" ">
<polygon fill="#e0e0e0" stroke="#999999" points="44,-19 0,-19 0,0 44,0 44,-19"/>
<text text-anchor="middle" x="22" y="-7" font-family="Helvetica,sans-Serif" font-size="10.00">string</text>
</a>
</g>
</g>
<!-- Node1&#45;&gt;Node10 -->
<g id="edge19_Node000001_Node000010" class="edge">
<title>Node1&#45;&gt;Node10</title>
<g id="a_edge19_Node000001_Node000010"><a xlink:title=" ">
<path fill="none" stroke="#63b8ff" d="M527.2,-169.54C407.94,-159.79 126.05,-131.2 52,-74 37.7,-62.95 29.9,-43.41 25.87,-28.92"/>
<polygon fill="#63b8ff" stroke="#63b8ff" points="29.23,-27.93 23.48,-19.04 22.43,-29.58 29.23,-27.93"/>
</a>
</g>
</g>
<!-- Node11 -->
<g id="Node000011" class="node">
<title>Node11</title>
<g id="a_Node000011"><a xlink:title=" ">
<polygon fill="#e0e0e0" stroke="#999999" points="729.5,-74 682.5,-74 682.5,-55 729.5,-55 729.5,-74"/>
<text text-anchor="middle" x="706" y="-62" font-family="Helvetica,sans-Serif" font-size="10.00">vector</text>
</a>
</g>
</g>
<!-- Node1&#45;&gt;Node11 -->
<g id="edge20_Node000001_Node000011" class="edge">
<title>Node1&#45;&gt;Node11</title>
<g id="a_edge20_Node000001_Node000011"><a xlink:title=" ">
<path fill="none" stroke="#63b8ff" d="M587.74,-164.63C597.81,-151.71 617.77,-127.37 638,-110 651.57,-98.35 668.37,-87.33 681.88,-79.17"/>
<polygon fill="#63b8ff" stroke="#63b8ff" points="683.79,-82.1 690.62,-74 680.23,-76.08 683.79,-82.1"/>
</a>
</g>
</g>
<!-- Node15 -->
<g id="Node000015" class="node">
<title>Node15</title>
<g id="a_Node000015"><a xlink:title=" ">
<polygon fill="#e0e0e0" stroke="#999999" points="715,-129 647,-129 647,-110 715,-110 715,-129"/>
<text text-anchor="middle" x="681" y="-117" font-family="Helvetica,sans-Serif" font-size="10.00">filesystem</text>
</a>
</g>
</g>
<!-- Node1&#45;&gt;Node15 -->
<g id="edge17_Node000001_Node000015" class="edge">
<title>Node1&#45;&gt;Node15</title>
<g id="a_edge17_Node000001_Node000015"><a xlink:title=" ">
<path fill="none" stroke="#63b8ff" d="M597.07,-164.98C612.86,-156.61 637.22,-143.7 655.63,-133.95"/>
<polygon fill="#63b8ff" stroke="#63b8ff" points="657.44,-136.95 664.64,-129.17 654.17,-130.76 657.44,-136.95"/>
</a>
</g>
</g>
<!-- Node3 -->
<g id="Node000003" class="node">
<title>Node3</title>
<g id="a_Node000003"><a xlink:title=" ">
<polygon fill="#e0e0e0" stroke="#999999" points="408,-19 344,-19 344,0 408,0 408,-19"/>
<text text-anchor="middle" x="376" y="-7" font-family="Helvetica,sans-Serif" font-size="10.00">algorithm</text>
</a>
</g>
</g>
<!-- Node2&#45;&gt;Node3 -->
<g id="edge2_Node000002_Node000003" class="edge">
<title>Node2&#45;&gt;Node3</title>
<g id="a_edge2_Node000002_Node000003"><a xlink:title=" ">
<path fill="none" stroke="#63b8ff" d="M438.6,-109.74C436.26,-96.97 430.74,-72.82 420,-55 413.39,-44.03 403.53,-33.72 394.82,-25.8"/>
<polygon fill="#63b8ff" stroke="#63b8ff" points="397.12,-23.16 387.28,-19.24 392.53,-28.44 397.12,-23.16"/>
</a>
</g>
</g>
<!-- Node4 -->
<g id="Node000004" class="node">
<title>Node4</title>
<g id="a_Node000004"><a xlink:title=" ">
<polygon fill="#e0e0e0" stroke="#999999" points="286,-74 236,-74 236,-55 286,-55 286,-74"/>
<text text-anchor="middle" x="261" y="-62" font-family="Helvetica,sans-Serif" font-size="10.00">atomic</text>
</a>
</g>
</g>
<!-- Node2&#45;&gt;Node4 -->
<g id="edge3_Node000002_Node000004" class="edge">
<title>Node2&#45;&gt;Node4</title>
<g id="a_edge3_Node000002_Node000004"><a xlink:title=" ">
<path fill="none" stroke="#63b8ff" d="M411.24,-109.98C379.89,-100.7 329.73,-85.85 296.09,-75.89"/>
<polygon fill="#63b8ff" stroke="#63b8ff" points="296.8,-72.45 286.22,-72.97 294.81,-79.16 296.8,-72.45"/>
</a>
</g>
</g>
<!-- Node5 -->
<g id="Node000005" class="node">
<title>Node5</title>
<g id="a_Node000005"><a xlink:title=" ">
<polygon fill="#e0e0e0" stroke="#999999" points="411.5,-74 304.5,-74 304.5,-55 411.5,-55 411.5,-74"/>
<text text-anchor="middle" x="358" y="-62" font-family="Helvetica,sans-Serif" font-size="10.00">condition_variable</text>
</a>
</g>
</g>
<!-- Node2&#45;&gt;Node5 -->
<g id="edge4_Node000002_Node000005" class="edge">
<title>Node2&#45;&gt;Node5</title>
<g id="a_edge4_Node000002_Node000005"><a xlink:title=" ">
<path fill="none" stroke="#63b8ff" d="M426.83,-109.98C414.23,-101.84 395,-89.41 380.06,-79.76"/>
<polygon fill="#63b8ff" stroke="#63b8ff" points="381.71,-76.66 371.41,-74.17 377.91,-82.54 381.71,-76.66"/>
</a>
</g>
</g>
<!-- Node6 -->
<g id="Node000006" class="node">
<title>Node6</title>
<g id="a_Node000006"><a xlink:title=" ">
<polygon fill="#e0e0e0" stroke="#999999" points="521.5,-74 468.5,-74 468.5,-55 521.5,-55 521.5,-74"/>
<text text-anchor="middle" x="495" y="-62" font-family="Helvetica,sans-Serif" font-size="10.00">cstddef</text>
</a>
</g>
</g>
<!-- Node2&#45;&gt;Node6 -->
<g id="edge5_Node000002_Node000006" class="edge">
<title>Node2&#45;&gt;Node6</title>
<g id="a_edge5_Node000002_Node000006"><a xlink:title=" ">
<path fill="none" stroke="#63b8ff" d="M449.08,-109.75C457.09,-102.03 468.96,-90.6 478.62,-81.28"/>
<polygon fill="#63b8ff" stroke="#63b8ff" points="481.31,-83.55 486.09,-74.09 476.46,-78.51 481.31,-83.55"/>
</a>
</g>
</g>
<!-- Node7 -->
<g id="Node000007" class="node">
<title>Node7</title>
<g id="a_Node000007"><a xlink:title=" ">
<polygon fill="#e0e0e0" stroke="#999999" points="261.5,-19 196.5,-19 196.5,0 261.5,0 261.5,-19"/>
<text text-anchor="middle" x="229" y="-7" font-family="Helvetica,sans-Serif" font-size="10.00">functional</text>
</a>
</g>
</g>
<!-- Node2&#45;&gt;Node7 -->
<g id="edge6_Node000002_Node000007" class="edge">
<title>Node2&#45;&gt;Node7</title>
<g id="a_edge6_Node000002_Node000007"><a xlink:title=" ">
<path fill="none" stroke="#63b8ff" d="M380.91,-114.34C324.74,-109.01 246.09,-97.49 227,-74 216.9,-61.57 218.9,-42.82 222.52,-28.91"/>
<polygon fill="#63b8ff" stroke="#63b8ff" points="225.97,-29.59 225.58,-19.01 219.29,-27.53 225.97,-29.59"/>
</a>
</g>
</g>
<!-- Node2&#45;&gt;Node8 -->
<g id="edge7_Node000002_Node000008" class="edge">
<title>Node2&#45;&gt;Node8</title>
<g id="a_edge7_Node000002_Node000008"><a xlink:title=" ">
<path fill="none" stroke="#63b8ff" d="M471.33,-109.98C505.28,-100.76 559.5,-86.02 596.14,-76.06"/>
<polygon fill="#63b8ff" stroke="#63b8ff" points="597.24,-79.39 605.98,-73.39 595.41,-72.63 597.24,-79.39"/>
</a>
</g>
</g>
<!-- Node9 -->
<g id="Node000009" class="node">
<title>Node9</title>
<g id="a_Node000009"><a xlink:title=" ">
<polygon fill="#e0e0e0" stroke="#999999" points="588,-74 540,-74 540,-55 588,-55 588,-74"/>
<text text-anchor="middle" x="564" y="-62" font-family="Helvetica,sans-Serif" font-size="10.00">mutex</text>
</a>
</g>
</g>
<!-- Node2&#45;&gt;Node9 -->
<g id="edge8_Node000002_Node000009" class="edge">
<title>Node2&#45;&gt;Node9</title>
<g id="a_edge8_Node000002_Node000009"><a xlink:title=" ">
<path fill="none" stroke="#63b8ff" d="M459.92,-109.98C480.05,-101.38 511.38,-87.99 534.41,-78.15"/>
<polygon fill="#63b8ff" stroke="#63b8ff" points="535.9,-81.32 543.71,-74.17 533.14,-74.88 535.9,-81.32"/>
</a>
</g>
</g>
<!-- Node2&#45;&gt;Node10 -->
<g id="edge9_Node000002_Node000010" class="edge">
<title>Node2&#45;&gt;Node10</title>
<g id="a_edge9_Node000002_Node000010"><a xlink:title=" ">
<path fill="none" stroke="#63b8ff" d="M380.81,-116.21C292.24,-111.95 130.16,-100.69 79,-74 58.96,-63.54 42.56,-42.99 32.58,-28.1"/>
<polygon fill="#63b8ff" stroke="#63b8ff" points="35.3,-25.85 26.98,-19.29 29.39,-29.6 35.3,-25.85"/>
</a>
</g>
</g>
<!-- Node2&#45;&gt;Node11 -->
<g id="edge10_Node000002_Node000011" class="edge">
<title>Node2&#45;&gt;Node11</title>
<g id="a_edge10_Node000002_Node000011"><a xlink:title=" ">
<path fill="none" stroke="#63b8ff" d="M489.73,-109.94C534.82,-101.98 603.31,-89.34 672.1,-74.08"/>
<polygon fill="#63b8ff" stroke="#63b8ff" points="673.26,-77.41 682.25,-71.81 671.73,-70.58 673.26,-77.41"/>
</a>
</g>
</g>
<!-- Node12 -->
<g id="Node000012" class="node">
<title>Node12</title>
<g id="a_Node000012"><a xlink:href="job__scheduler_8h.html" target="_top" xlink:title="Job scheduler detection and resource management for HPC environments.">
<polygon fill="white" stroke="#666666" points="180,-74 88,-74 88,-55 180,-55 180,-74"/>
<text text-anchor="middle" x="134" y="-62" font-family="Helvetica,sans-Serif" font-size="10.00">job_scheduler.h</text>
</a>
</g>
</g>
<!-- Node2&#45;&gt;Node12 -->
<g id="edge11_Node000002_Node000012" class="edge">
<title>Node2&#45;&gt;Node12</title>
<g id="a_edge11_Node000002_Node000012"><a xlink:title=" ">
<path fill="none" stroke="#63b8ff" d="M390.84,-109.98C336.01,-100.49 247.51,-85.16 190.04,-75.21"/>
<polygon fill="#63b8ff" stroke="#63b8ff" points="190.49,-71.73 180.04,-73.47 189.29,-78.63 190.49,-71.73"/>
</a>
</g>
</g>
<!-- Node12&#45;&gt;Node3 -->
<g id="edge12_Node000012_Node000003" class="edge">
<title>Node12&#45;&gt;Node3</title>
<g id="a_edge12_Node000012_Node000003"><a xlink:title=" ">
<path fill="none" stroke="#63b8ff" d="M172.88,-54.98C216.98,-45.33 288.62,-29.64 333.98,-19.7"/>
<polygon fill="#63b8ff" stroke="#63b8ff" points="334.78,-23.11 343.8,-17.55 333.28,-16.27 334.78,-23.11"/>
</a>
</g>
</g>
<!-- Node12&#45;&gt;Node7 -->
<g id="edge15_Node000012_Node000007" class="edge">
<title>Node12&#45;&gt;Node7</title>
<g id="a_edge15_Node000012_Node000007"><a xlink:title=" ">
<path fill="none" stroke="#63b8ff" d="M149.26,-54.98C164.13,-46.69 186.98,-33.94 204.42,-24.22"/>
<polygon fill="#63b8ff" stroke="#63b8ff" points="206.43,-27.1 213.46,-19.17 203.02,-20.99 206.43,-27.1"/>
</a>
</g>
</g>
<!-- Node12&#45;&gt;Node10 -->
<g id="edge16_Node000012_Node000010" class="edge">
<title>Node12&#45;&gt;Node10</title>
<g id="a_edge16_Node000012_Node000010"><a xlink:title=" ">
<path fill="none" stroke="#63b8ff" d="M116.01,-54.98C98.07,-46.5 70.28,-33.35 49.57,-23.54"/>
<polygon fill="#63b8ff" stroke="#63b8ff" points="50.86,-20.28 40.32,-19.17 47.86,-26.61 50.86,-20.28"/>
</a>
</g>
</g>
<!-- Node13 -->
<g id="Node000013" class="node">
<title>Node13</title>
<g id="a_Node000013"><a xlink:title=" ">
<polygon fill="#e0e0e0" stroke="#999999" points="111.5,-19 62.5,-19 62.5,0 111.5,0 111.5,-19"/>
<text text-anchor="middle" x="87" y="-7" font-family="Helvetica,sans-Serif" font-size="10.00">cctype</text>
</a>
</g>
</g>
<!-- Node12&#45;&gt;Node13 -->
<g id="edge13_Node000012_Node000013" class="edge">
<title>Node12&#45;&gt;Node13</title>
<g id="a_edge13_Node000012_Node000013"><a xlink:title=" ">
<path fill="none" stroke="#63b8ff" d="M126.24,-54.75C119.53,-47.18 109.66,-36.05 101.49,-26.84"/>
<polygon fill="#63b8ff" stroke="#63b8ff" points="103.87,-24.25 94.62,-19.09 98.63,-28.89 103.87,-24.25"/>
</a>
</g>
</g>
<!-- Node14 -->
<g id="Node000014" class="node">
<title>Node14</title>
<g id="a_Node000014"><a xlink:title=" ">
<polygon fill="#e0e0e0" stroke="#999999" points="178.5,-19 129.5,-19 129.5,0 178.5,0 178.5,-19"/>
<text text-anchor="middle" x="154" y="-7" font-family="Helvetica,sans-Serif" font-size="10.00">cstdlib</text>
</a>
</g>
</g>
<!-- Node12&#45;&gt;Node14 -->
<g id="edge14_Node000012_Node000014" class="edge">
<title>Node12&#45;&gt;Node14</title>
<g id="a_edge14_Node000012_Node000014"><a xlink:title=" ">
<path fill="none" stroke="#63b8ff" d="M137.3,-54.75C139.98,-47.65 143.85,-37.4 147.19,-28.56"/>
<polygon fill="#63b8ff" stroke="#63b8ff" points="150.5,-29.68 150.76,-19.09 143.95,-27.21 150.5,-29.68"/>
</a>
</g>
</g>
</g>
</svg>
