<?xml version="1.0" encoding="UTF-8" standalone="no"?>
<!DOCTYPE svg PUBLIC "-//W3C//DTD SVG 1.1//EN"
 "http://www.w3.org/Graphics/SVG/1.1/DTD/svg11.dtd">
<!-- Generated by graphviz version 2.43.0 (0)
 -->
<!-- Title: core/job_scheduler.cpp Pages: 1 -->
<svg width="550pt" height="137pt"
 viewBox="0.00 0.00 550.00 137.00" xmlns="http://www.w3.org/2000/svg" xmlns:xlink="http://www.w3.org/1999/xlink">
<g id="graph0" class="graph" transform="scale(1 1) rotate(0) translate(4 133)">
<title>core/job_scheduler.cpp</title>
<!-- Node1 -->
<g id="Node000001" class="node">
<title>Node1</title>
<g id="a_Node000001"><a xlink:title=" ">
<polygon fill="#999999" stroke="#666666" points="343,-129 215,-129 215,-110 343,-110 343,-129"/>
<text text-anchor="middle" x="279" y="-117" font-family="Helvetica,sans-Serif" font-size="10.00">core/job_scheduler.cpp</text>
</a>
</g>
</g>
<!-- Node2 -->
<g id="Node000002" class="node">
<title>Node2</title>
<g id="a_Node000002"><a xlink:href="job__scheduler_8h.html" target="_top" xlink:title="Job scheduler detection and resource management for HPC environments.">
<polygon fill="white" stroke="#666666" points="222,-74 130,-74 130,-55 222,-55 222,-74"/>
<text text-anchor="middle" x="176" y="-62" font-family="Helvetica,sans-Serif" font-size="10.00">job_scheduler.h</text>
</a>
</g>
</g>
<!-- Node1&#45;&gt;Node2 -->
<g id="edge1_Node000001_Node000002" class="edge">
<title>Node1&#45;&gt;Node2</title>
<g id="a_edge1_Node000001_Node000002"><a xlink:title=" ">
<path fill="none" stroke="#63b8ff" d="M262.45,-109.98C246.11,-101.57 220.87,-88.59 201.87,-78.81"/>
<polygon fill="#63b8ff" stroke="#63b8ff" points="203.34,-75.63 192.85,-74.17 200.14,-81.86 203.34,-75.63"/>
</a>
</g>
</g>
<!-- Node3 -->
<g id="Node000003" class="node">
<title>Node3</title>
<g id="a_Node000003"><a xlink:title=" ">
<polygon fill="#e0e0e0" stroke="#999999" points="64,-19 0,-19 0,0 64,0 64,-19"/>
<text text-anchor="middle" x="32" y="-7" font-family="Helvetica,sans-Serif" font-size="10.00">algorithm</text>
</a>
</g>
</g>
<!-- Node1&#45;&gt;Node3 -->
<g id="edge12_Node000001_Node000003" class="edge">
<title>Node1&#45;&gt;Node3</title>
<g id="a_edge12_Node000001_Node000003"><a xlink:title=" ">
<path fill="none" stroke="#63b8ff" d="M218.5,-109.93C184.11,-103.39 141.06,-92.28 106,-74 82.91,-61.96 60.85,-41.47 46.92,-27.02"/>
<polygon fill="#63b8ff" stroke="#63b8ff" points="49.1,-24.23 39.71,-19.33 43.99,-29.02 49.1,-24.23"/>
</a>
</g>
</g>
<!-- Node4 -->
<g id="Node000004" class="node">
<title>Node4</title>
<g id="a_Node000004"><a xlink:title=" ">
<polygon fill="#e0e0e0" stroke="#999999" points="131.5,-19 82.5,-19 82.5,0 131.5,0 131.5,-19"/>
<text text-anchor="middle" x="107" y="-7" font-family="Helvetica,sans-Serif" font-size="10.00">cctype</text>
</a>
</g>
</g>
<!-- Node1&#45;&gt;Node4 -->
<g id="edge10_Node000001_Node000004" class="edge">
<title>Node1&#45;&gt;Node4</title>
<g id="a_edge10_Node000001_Node000004"><a xlink:title=" ">
<path fill="none" stroke="#63b8ff" d="M214.86,-115.59C182.48,-110.76 145.06,-99.49 121,-74 109.75,-62.08 106.76,-43.26 106.27,-29.19"/>
<polygon fill="#63b8ff" stroke="#63b8ff" points="109.77,-29.17 106.32,-19.16 102.77,-29.14 109.77,-29.17"/>
</a>
</g>
</g>
<!-- Node6 -->
<g id="Node000006" class="node">
<title>Node6</title>
<g id="a_Node000006"><a xlink:title=" ">
<polygon fill="#e0e0e0" stroke="#999999" points="344.5,-19 279.5,-19 279.5,0 344.5,0 344.5,-19"/>
<text text-anchor="middle" x="312" y="-7" font-family="Helvetica,sans-Serif" font-size="10.00">functional</text>
</a>
</g>
</g>
<!-- Node1&#45;&gt;Node6 -->
<g id="edge13_Node000001_Node000006" class="edge">
<title>Node1&#45;&gt;Node6</title>
<g id="a_edge13_Node000001_Node000006"><a xlink:title=" ">
<path fill="none" stroke="#63b8ff" d="M274.89,-109.96C269.47,-97.45 261.47,-73.62 269,-55 273.69,-43.41 283,-33.16 291.76,-25.43"/>
<polygon fill="#63b8ff" stroke="#63b8ff" points="294,-28.12 299.51,-19.07 289.56,-22.71 294,-28.12"/>
</a>
</g>
</g>
<!-- Node8 -->
<g id="Node000008" class="node">
<title>Node8</title>
<g id="a_Node000008"><a xlink:title=" ">
<polygon fill="#e0e0e0" stroke="#999999" points="338,-74 278,-74 278,-55 338,-55 338,-74"/>
<text text-anchor="middle" x="308" y="-62" font-family="Helvetica,sans-Serif" font-size="10.00">iostream</text>
</a>
</g>
</g>
<!-- Node1&#45;&gt;Node8 -->
<g id="edge7_Node000001_Node000008" class="edge">
<title>Node1&#45;&gt;Node8</title>
<g id="a_edge7_Node000001_Node000008"><a xlink:title=" ">
<path fill="none" stroke="#63b8ff" d="M283.79,-109.75C287.76,-102.49 293.53,-91.95 298.43,-82.98"/>
<polygon fill="#63b8ff" stroke="#63b8ff" points="301.57,-84.54 303.3,-74.09 295.43,-81.18 301.57,-84.54"/>
</a>
</g>
</g>
<!-- Node9 -->
<g id="Node000009" class="node">
<title>Node9</title>
<g id="a_Node000009"><a xlink:title=" ">
<polygon fill="#e0e0e0" stroke="#999999" points="412,-74 356,-74 356,-55 412,-55 412,-74"/>
<text text-anchor="middle" x="384" y="-62" font-family="Helvetica,sans-Serif" font-size="10.00">sstream</text>
</a>
</g>
</g>
<!-- Node1&#45;&gt;Node9 -->
<g id="edge8_Node000001_Node000009" class="edge">
<title>Node1&#45;&gt;Node9</title>
<g id="a_edge8_Node000001_Node000009"><a xlink:title=" ">
<path fill="none" stroke="#63b8ff" d="M295.87,-109.98C312.61,-101.54 338.5,-88.47 357.89,-78.68"/>
<polygon fill="#63b8ff" stroke="#63b8ff" points="359.47,-81.8 366.82,-74.17 356.32,-75.55 359.47,-81.8"/>
</a>
</g>
</g>
<!-- Node10 -->
<g id="Node000010" class="node">
<title>Node10</title>
<g id="a_Node000010"><a xlink:title=" ">
<polygon fill="#e0e0e0" stroke="#999999" points="474,-74 430,-74 430,-55 474,-55 474,-74"/>
<text text-anchor="middle" x="452" y="-62" font-family="Helvetica,sans-Serif" font-size="10.00">regex</text>
</a>
</g>
</g>
<!-- Node1&#45;&gt;Node10 -->
<g id="edge9_Node000001_Node000010" class="edge">
<title>Node1&#45;&gt;Node10</title>
<g id="a_edge9_Node000001_Node000010"><a xlink:title=" ">
<path fill="none" stroke="#63b8ff" d="M306.8,-109.98C337.65,-100.53 387.37,-85.3 419.87,-75.34"/>
<polygon fill="#63b8ff" stroke="#63b8ff" points="421.24,-78.59 429.77,-72.31 419.19,-71.89 421.24,-78.59"/>
</a>
</g>
</g>
<!-- Node11 -->
<g id="Node000011" class="node">
<title>Node11</title>
<g id="a_Node000011"><a xlink:title=" ">
<polygon fill="#e0e0e0" stroke="#999999" points="542,-74 492,-74 492,-55 542,-55 542,-74"/>
<text text-anchor="middle" x="517" y="-62" font-family="Helvetica,sans-Serif" font-size="10.00">climits</text>
</a>
</g>
</g>
<!-- Node1&#45;&gt;Node11 -->
<g id="edge11_Node000001_Node000011" class="edge">
<title>Node1&#45;&gt;Node11</title>
<g id="a_edge11_Node000001_Node000011"><a xlink:title=" ">
<path fill="none" stroke="#63b8ff" d="M319.72,-110C358.86,-101.74 419.93,-88.63 481.83,-74.22"/>
<polygon fill="#63b8ff" stroke="#63b8ff" points="482.83,-77.58 491.77,-71.9 481.24,-70.77 482.83,-77.58"/>
</a>
</g>
</g>
<!-- Node2&#45;&gt;Node3 -->
<g id="edge2_Node000002_Node000003" class="edge">
<title>Node2&#45;&gt;Node3</title>
<g id="a_edge2_Node000002_Node000003"><a xlink:title=" ">
<path fill="none" stroke="#63b8ff" d="M152.86,-54.98C129.18,-46.27 92.13,-32.63 65.29,-22.75"/>
<polygon fill="#63b8ff" stroke="#63b8ff" points="66.15,-19.34 55.56,-19.17 63.73,-25.91 66.15,-19.34"/>
</a>
</g>
</g>
<!-- Node2&#45;&gt;Node4 -->
<g id="edge3_Node000002_Node000004" class="edge">
<title>Node2&#45;&gt;Node4</title>
<g id="a_edge3_Node000002_Node000004"><a xlink:title=" ">
<path fill="none" stroke="#63b8ff" d="M164.91,-54.98C154.51,-47 138.74,-34.88 126.28,-25.31"/>
<polygon fill="#63b8ff" stroke="#63b8ff" points="128.35,-22.49 118.29,-19.17 124.09,-28.04 128.35,-22.49"/>
</a>
</g>
</g>
<!-- Node5 -->
<g id="Node000005" class="node">
<title>Node5</title>
<g id="a_Node000005"><a xlink:title=" ">
<polygon fill="#e0e0e0" stroke="#999999" points="261.5,-19 212.5,-19 212.5,0 261.5,0 261.5,-19"/>
<text text-anchor="middle" x="237" y="-7" font-family="Helvetica,sans-Serif" font-size="10.00">cstdlib</text>
</a>
</g>
</g>
<!-- Node2&#45;&gt;Node5 -->
<g id="edge4_Node000002_Node000005" class="edge">
<title>Node2&#45;&gt;Node5</title>
<g id="a_edge4_Node000002_Node000005"><a xlink:title=" ">
<path fill="none" stroke="#63b8ff" d="M185.8,-54.98C194.82,-47.15 208.41,-35.34 219.32,-25.86"/>
<polygon fill="#63b8ff" stroke="#63b8ff" points="221.77,-28.37 227.02,-19.17 217.18,-23.09 221.77,-28.37"/>
</a>
</g>
</g>
<!-- Node2&#45;&gt;Node6 -->
<g id="edge5_Node000002_Node000006" class="edge">
<title>Node2&#45;&gt;Node6</title>
<g id="a_edge5_Node000002_Node000006"><a xlink:title=" ">
<path fill="none" stroke="#63b8ff" d="M197.85,-54.98C220.12,-46.3 254.9,-32.75 280.22,-22.88"/>
<polygon fill="#63b8ff" stroke="#63b8ff" points="281.71,-26.06 289.75,-19.17 279.16,-19.54 281.71,-26.06"/>
</a>
</g>
</g>
<!-- Node7 -->
<g id="Node000007" class="node">
<title>Node7</title>
<g id="a_Node000007"><a xlink:title=" ">
<polygon fill="#e0e0e0" stroke="#999999" points="194,-19 150,-19 150,0 194,0 194,-19"/>
<text text-anchor="middle" x="172" y="-7" font-family="Helvetica,sans-Serif" font-size="10.00">string</text>
</a>
</g>
</g>
<!-- Node2&#45;&gt;Node7 -->
<g id="edge6_Node000002_Node000007" class="edge">
<title>Node2&#45;&gt;Node7</title>
<g id="a_edge6_Node000002_Node000007"><a xlink:title=" ">
<path fill="none" stroke="#63b8ff" d="M175.34,-54.75C174.82,-47.8 174.06,-37.85 173.41,-29.13"/>
<polygon fill="#63b8ff" stroke="#63b8ff" points="176.89,-28.8 172.65,-19.09 169.91,-29.32 176.89,-28.8"/>
</a>
</g>
</g>
</g>
</svg>
