<?xml version="1.0" encoding="UTF-8" standalone="no"?>
<!DOCTYPE svg PUBLIC "-//W3C//DTD SVG 1.1//EN"
 "http://www.w3.org/Graphics/SVG/1.1/DTD/svg11.dtd">
<!-- Generated by graphviz version 2.43.0 (0)
 -->
<!-- Title: main.cpp Pages: 1 -->
<!--zoomable 247 -->

<svg id="main" version="1.1" xmlns="http://www.w3.org/2000/svg" xmlns:xlink="http://www.w3.org/1999/xlink" xml:space="preserve" onload="init(evt)">
<style type="text/css"><![CDATA[
.node, .edge {opacity: 0.7;}
.node.selected, .edge.selected {opacity: 1;}
.edge:hover path { stroke: red; }
.edge:hover polygon { stroke: red; fill: red; }
]]></style>

<defs>
  <circle id="rim" cx="0" cy="0" r="7"/>
  <circle id="rim2" cx="0" cy="0" r="3.5"/>
  <g id="zoomPlus">
    <use xlink:href="#rim" fill="#404040"><set attributeName="fill" to="#808080" begin="zoomplus.mouseover" end="zoomplus.mouseout"/></use>
    <path d="M-4,0h8M0,-4v8" fill="none" stroke="white" stroke-width="1.5" pointer-events="none"/>
  </g>
  <g id="zoomMin">
    <use xlink:href="#rim" fill="#404040"><set attributeName="fill" to="#808080" begin="zoomminus.mouseover" end="zoomminus.mouseout"/></use>
    <path d="M-4,0h8" fill="none" stroke="white" stroke-width="1.5" pointer-events="none"/>
  </g>
  <g id="arrowUp" transform="translate(30 24)">
    <use xlink:href="#rim"/>
    <path pointer-events="none" fill="none" stroke="white" stroke-width="1.5" d="M0,-3.0v7 M-2.5,-0.5L0,-3.0L2.5,-0.5"/>
  </g>
  <g id="arrowRight" transform="rotate(90) translate(36 -43)">
    <use xlink:href="#rim"/>
    <path pointer-events="none" fill="none" stroke="white" stroke-width="1.5" d="M0,-3.0v7 M-2.5,-0.5L0,-3.0L2.5,-0.5"/>
  </g>
  <g id="arrowDown" transform="rotate(180) translate(-30 -48)">
    <use xlink:href="#rim"/>
    <path pointer-events="none" fill="none" stroke="white" stroke-width="1.5" d="M0,-3.0v7 M-2.5,-0.5L0,-3.0L2.5,-0.5"/>
  </g>
  <g id="arrowLeft" transform="rotate(270) translate(-36 17)">
    <use xlink:href="#rim"/>
    <path pointer-events="none" fill="none" stroke="white" stroke-width="1.5" d="M0,-3.0v7 M-2.5,-0.5L0,-3.0L2.5,-0.5"/>
  </g>
  <g id="resetDef">
    <use xlink:href="#rim2" fill="#404040"><set attributeName="fill" to="#808080" begin="reset.mouseover" end="reset.mouseout"/></use>
  </g>
</defs>
<script type="application/ecmascript">
var viewWidth = 1230;
var viewHeight = 247;
var sectionId = 'dynsection-0';
</script>
<script type="application/ecmascript" xlink:href="svg.min.js"/>
<svg id="graph" class="graph">
<g id="viewport">
<title>main.cpp</title>
<!-- Node1 -->
<g id="Node000001" class="node">
<title>Node1</title>
<g id="a_Node000001"><a xlink:title="Main entry point for the Gaussian Extractor application.">
<polygon fill="#999999" stroke="#666666" points="720,-239 658,-239 658,-220 720,-220 720,-239"/>
<text text-anchor="middle" x="689" y="-227" font-family="Helvetica,sans-Serif" font-size="10.00">main.cpp</text>
</a>
</g>
</g>
<!-- Node2 -->
<g id="Node000002" class="node">
<title>Node2</title>
<g id="a_Node000002"><a xlink:href="command__system_8h.html" target="_top" xlink:title="Command parsing and execution system for Gaussian Extractor.">
<polygon fill="white" stroke="#666666" points="401,-129 261,-129 261,-110 401,-110 401,-129"/>
<text text-anchor="middle" x="331" y="-117" font-family="Helvetica,sans-Serif" font-size="10.00">core/command_system.h</text>
</a>
</g>
</g>
<!-- Node1&#45;&gt;Node2 -->
<g id="edge1_Node000001_Node000002" class="edge">
<title>Node1&#45;&gt;Node2</title>
<g id="a_edge1_Node000001_Node000002"><a xlink:title=" ">
<path fill="none" stroke="#63b8ff" d="M657.74,-227.35C568.17,-223.75 315.36,-211.24 291,-184 277.61,-169.03 294.85,-149.07 310.68,-135.55"/>
<polygon fill="#63b8ff" stroke="#63b8ff" points="313.06,-138.13 318.66,-129.13 308.68,-132.67 313.06,-138.13"/>
</a>
</g>
</g>
<!-- Node3 -->
<g id="Node000003" class="node">
<title>Node3</title>
<g id="a_Node000003"><a xlink:href="config__manager_8h.html" target="_top" xlink:title="Configuration management system for Gaussian Extractor.">
<polygon fill="white" stroke="#666666" points="247.5,-74 144.5,-74 144.5,-55 247.5,-55 247.5,-74"/>
<text text-anchor="middle" x="196" y="-62" font-family="Helvetica,sans-Serif" font-size="10.00">config_manager.h</text>
</a>
</g>
</g>
<!-- Node1&#45;&gt;Node3 -->
<g id="edge19_Node000001_Node000003" class="edge">
<title>Node1&#45;&gt;Node3</title>
<g id="a_edge19_Node000001_Node000003"><a xlink:title=" ">
<path fill="none" stroke="#63b8ff" d="M657.82,-227.68C558.09,-224.76 251.48,-213.46 219,-184 191.28,-158.86 191.04,-111.13 193.43,-84.56"/>
<polygon fill="#63b8ff" stroke="#63b8ff" points="196.95,-84.63 194.59,-74.3 189.99,-83.84 196.95,-84.63"/>
</a>
</g>
</g>
<!-- Node4 -->
<g id="Node000004" class="node">
<title>Node4</title>
<g id="a_Node000004"><a xlink:title=" ">
<polygon fill="#e0e0e0" stroke="#999999" points="68,-19 0,-19 0,0 68,0 68,-19"/>
<text text-anchor="middle" x="34" y="-7" font-family="Helvetica,sans-Serif" font-size="10.00">filesystem</text>
</a>
</g>
</g>
<!-- Node1&#45;&gt;Node4 -->
<g id="edge43_Node000001_Node000004" class="edge">
<title>Node1&#45;&gt;Node4</title>
<g id="a_edge43_Node000001_Node000004"><a xlink:title=" ">
<path fill="none" stroke="#63b8ff" d="M657.85,-228.93C559.85,-229.82 259.38,-228.72 175,-184 107.58,-148.27 60.56,-65.1 42.36,-28.42"/>
<polygon fill="#63b8ff" stroke="#63b8ff" points="45.32,-26.5 37.83,-19.01 39.02,-29.54 45.32,-26.5"/>
</a>
</g>
</g>
<!-- Node6 -->
<g id="Node000006" class="node">
<title>Node6</title>
<g id="a_Node000006"><a xlink:title=" ">
<polygon fill="#e0e0e0" stroke="#999999" points="146,-19 86,-19 86,0 146,0 146,-19"/>
<text text-anchor="middle" x="116" y="-7" font-family="Helvetica,sans-Serif" font-size="10.00">iostream</text>
</a>
</g>
</g>
<!-- Node1&#45;&gt;Node6 -->
<g id="edge44_Node000001_Node000006" class="edge">
<title>Node1&#45;&gt;Node6</title>
<g id="a_edge44_Node000001_Node000006"><a xlink:title=" ">
<path fill="none" stroke="#63b8ff" d="M657.73,-227.28C556.13,-223.11 239.64,-208.26 201,-184 145.39,-149.09 125.13,-66.12 118.67,-29.01"/>
<polygon fill="#63b8ff" stroke="#63b8ff" points="122.11,-28.39 117.08,-19.06 115.2,-29.49 122.11,-28.39"/>
</a>
</g>
</g>
<!-- Node7 -->
<g id="Node000007" class="node">
<title>Node7</title>
<g id="a_Node000007"><a xlink:title=" ">
<polygon fill="#e0e0e0" stroke="#999999" points="565,-19 521,-19 521,0 565,0 565,-19"/>
<text text-anchor="middle" x="543" y="-7" font-family="Helvetica,sans-Serif" font-size="10.00">string</text>
</a>
</g>
</g>
<!-- Node1&#45;&gt;Node7 -->
<g id="edge48_Node000001_Node000007" class="edge">
<title>Node1&#45;&gt;Node7</title>
<g id="a_edge48_Node000001_Node000007"><a xlink:title=" ">
<path fill="none" stroke="#63b8ff" d="M657.64,-226.74C603.12,-221.74 492.53,-202.56 449,-129 432.25,-100.69 430.35,-82.76 448,-55 461.75,-33.37 489.09,-22.08 510.92,-16.29"/>
<polygon fill="#63b8ff" stroke="#63b8ff" points="511.89,-19.66 520.8,-13.93 510.26,-12.85 511.89,-19.66"/>
</a>
</g>
</g>
<!-- Node9 -->
<g id="Node000009" class="node">
<title>Node9</title>
<g id="a_Node000009"><a xlink:title=" ">
<polygon fill="#e0e0e0" stroke="#999999" points="395.5,-19 348.5,-19 348.5,0 395.5,0 395.5,-19"/>
<text text-anchor="middle" x="372" y="-7" font-family="Helvetica,sans-Serif" font-size="10.00">vector</text>
</a>
</g>
</g>
<!-- Node1&#45;&gt;Node9 -->
<g id="edge50_Node000001_Node000009" class="edge">
<title>Node1&#45;&gt;Node9</title>
<g id="a_edge50_Node000001_Node000009"><a xlink:title=" ">
<path fill="none" stroke="#63b8ff" d="M657.92,-228.73C573.72,-228.8 343.42,-225.14 282,-184 252.51,-164.25 236.91,-142.12 252,-110 271.01,-69.55 315.42,-39.89 344.56,-23.92"/>
<polygon fill="#63b8ff" stroke="#63b8ff" points="346.23,-27 353.43,-19.22 342.95,-20.81 346.23,-27"/>
</a>
</g>
</g>
<!-- Node10 -->
<g id="Node000010" class="node">
<title>Node10</title>
<g id="a_Node000010"><a xlink:href="job__scheduler_8h.html" target="_top" xlink:title="Job scheduler detection and resource management for HPC environments.">
<polygon fill="white" stroke="#666666" points="815,-74 723,-74 723,-55 815,-55 815,-74"/>
<text text-anchor="middle" x="769" y="-62" font-family="Helvetica,sans-Serif" font-size="10.00">job_scheduler.h</text>
</a>
</g>
</g>
<!-- Node1&#45;&gt;Node10 -->
<g id="edge33_Node000001_Node000010" class="edge">
<title>Node1&#45;&gt;Node10</title>
<g id="a_edge33_Node000001_Node000010"><a xlink:title=" ">
<path fill="none" stroke="#63b8ff" d="M703.59,-219.76C715.46,-211.88 731.72,-199.22 741,-184 760.19,-152.52 766.23,-108.95 768.13,-84.36"/>
<polygon fill="#63b8ff" stroke="#63b8ff" points="771.63,-84.42 768.76,-74.23 764.64,-83.99 771.63,-84.42"/>
</a>
</g>
</g>
<!-- Node13 -->
<g id="Node000013" class="node">
<title>Node13</title>
<g id="a_Node000013"><a xlink:title=" ">
<polygon fill="#e0e0e0" stroke="#999999" points="684.5,-19 635.5,-19 635.5,0 684.5,0 684.5,-19"/>
<text text-anchor="middle" x="660" y="-7" font-family="Helvetica,sans-Serif" font-size="10.00">cstdlib</text>
</a>
</g>
</g>
<!-- Node1&#45;&gt;Node13 -->
<g id="edge41_Node000001_Node000013" class="edge">
<title>Node1&#45;&gt;Node13</title>
<g id="a_edge41_Node000001_Node000013"><a xlink:title=" ">
<path fill="none" stroke="#63b8ff" d="M692.66,-219.8C700.47,-200.1 717.29,-150.62 708,-110 700.94,-79.13 683.02,-46.69 671.19,-27.55"/>
<polygon fill="#63b8ff" stroke="#63b8ff" points="674.11,-25.62 665.79,-19.06 668.2,-29.37 674.11,-25.62"/>
</a>
</g>
</g>
<!-- Node16 -->
<g id="Node000016" class="node">
<title>Node16</title>
<g id="a_Node000016"><a xlink:href="gaussian__extractor_8h.html" target="_top" xlink:title="Core extraction engine and data structures for Gaussian log file processing.">
<polygon fill="white" stroke="#666666" points="935,-129 793,-129 793,-110 935,-110 935,-129"/>
<text text-anchor="middle" x="864" y="-117" font-family="Helvetica,sans-Serif" font-size="10.00">core/gaussian_extractor.h</text>
</a>
</g>
</g>
<!-- Node1&#45;&gt;Node16 -->
<g id="edge20_Node000001_Node000016" class="edge">
<title>Node1&#45;&gt;Node16</title>
<g id="a_edge20_Node000001_Node000016"><a xlink:title=" ">
<path fill="none" stroke="#63b8ff" d="M708.86,-219.94C727.47,-211.64 755.82,-198.22 779,-184 803.2,-169.15 829.07,-149.16 845.83,-135.61"/>
<polygon fill="#63b8ff" stroke="#63b8ff" points="848.18,-138.21 853.7,-129.17 843.75,-132.79 848.18,-138.21"/>
</a>
</g>
</g>
<!-- Node17 -->
<g id="Node000017" class="node">
<title>Node17</title>
<g id="a_Node000017"><a xlink:title=" ">
<polygon fill="#e0e0e0" stroke="#999999" points="1222,-74 1172,-74 1172,-55 1222,-55 1222,-74"/>
<text text-anchor="middle" x="1197" y="-62" font-family="Helvetica,sans-Serif" font-size="10.00">atomic</text>
</a>
</g>
</g>
<!-- Node1&#45;&gt;Node17 -->
<g id="edge39_Node000001_Node000017" class="edge">
<title>Node1&#45;&gt;Node17</title>
<g id="a_edge39_Node000001_Node000017"><a xlink:title=" ">
<path fill="none" stroke="#63b8ff" d="M710.83,-219.92C743.33,-207.25 806.48,-183.12 861,-165 969.88,-128.82 1100.69,-91.95 1162.03,-75.04"/>
<polygon fill="#63b8ff" stroke="#63b8ff" points="1163.24,-78.33 1171.96,-72.31 1161.39,-71.58 1163.24,-78.33"/>
</a>
</g>
</g>
<!-- Node21 -->
<g id="Node000021" class="node">
<title>Node21</title>
<g id="a_Node000021"><a xlink:href="interactive__mode_8h.html" target="_top" xlink:title="Interactive mode functionality on Windows.">
<polygon fill="white" stroke="#666666" points="592.5,-129 457.5,-129 457.5,-110 592.5,-110 592.5,-129"/>
<text text-anchor="middle" x="525" y="-117" font-family="Helvetica,sans-Serif" font-size="10.00">core/interactive_mode.h</text>
</a>
</g>
</g>
<!-- Node1&#45;&gt;Node21 -->
<g id="edge31_Node000001_Node000021" class="edge">
<title>Node1&#45;&gt;Node21</title>
<g id="a_edge31_Node000001_Node000021"><a xlink:title=" ">
<path fill="none" stroke="#63b8ff" d="M657.97,-223.08C631.3,-217.15 593.01,-205.5 566,-184 550.8,-171.9 539.47,-152.55 532.61,-138.39"/>
<polygon fill="#63b8ff" stroke="#63b8ff" points="535.75,-136.83 528.42,-129.17 529.37,-139.73 535.75,-136.83"/>
</a>
</g>
</g>
<!-- Node22 -->
<g id="Node000022" class="node">
<title>Node22</title>
<g id="a_Node000022"><a xlink:href="module__executor_8h.html" target="_top" xlink:title="Command execution functions for Gaussian Extractor.">
<polygon fill="white" stroke="#666666" points="432.5,-184 299.5,-184 299.5,-165 432.5,-165 432.5,-184"/>
<text text-anchor="middle" x="366" y="-172" font-family="Helvetica,sans-Serif" font-size="10.00">core/module_executor.h</text>
</a>
</g>
</g>
<!-- Node1&#45;&gt;Node22 -->
<g id="edge34_Node000001_Node000022" class="edge">
<title>Node1&#45;&gt;Node22</title>
<g id="a_edge34_Node000001_Node000022"><a xlink:title=" ">
<path fill="none" stroke="#63b8ff" d="M657.74,-223.37C604.88,-214.7 496.91,-196.98 428.18,-185.7"/>
<polygon fill="#63b8ff" stroke="#63b8ff" points="428.35,-182.18 417.91,-184.02 427.22,-189.09 428.35,-182.18"/>
</a>
</g>
</g>
<!-- Node23 -->
<g id="Node000023" class="node">
<title>Node23</title>
<g id="a_Node000023"><a xlink:href="version_8h.html" target="_top" xlink:title="Version information and build metadata for Gaussian Extractor.">
<polygon fill="white" stroke="#666666" points="661,-184 575,-184 575,-165 661,-165 661,-184"/>
<text text-anchor="middle" x="618" y="-172" font-family="Helvetica,sans-Serif" font-size="10.00">core/version.h</text>
</a>
</g>
</g>
<!-- Node1&#45;&gt;Node23 -->
<g id="edge36_Node000001_Node000023" class="edge">
<title>Node1&#45;&gt;Node23</title>
<g id="a_edge36_Node000001_Node000023"><a xlink:title=" ">
<path fill="none" stroke="#63b8ff" d="M677.59,-219.98C666.89,-212 650.66,-199.88 637.84,-190.31"/>
<polygon fill="#63b8ff" stroke="#63b8ff" points="639.72,-187.35 629.61,-184.17 635.53,-192.96 639.72,-187.35"/>
</a>
</g>
</g>
<!-- Node24 -->
<g id="Node000024" class="node">
<title>Node24</title>
<g id="a_Node000024"><a xlink:title=" ">
<polygon fill="#e0e0e0" stroke="#999999" points="699,-129 649,-129 649,-110 699,-110 699,-129"/>
<text text-anchor="middle" x="674" y="-117" font-family="Helvetica,sans-Serif" font-size="10.00">cstring</text>
</a>
</g>
</g>
<!-- Node1&#45;&gt;Node24 -->
<g id="edge42_Node000001_Node000024" class="edge">
<title>Node1&#45;&gt;Node24</title>
<g id="a_edge42_Node000001_Node000024"><a xlink:title=" ">
<path fill="none" stroke="#63b8ff" d="M687.77,-219.66C685.34,-202.17 679.88,-162.8 676.61,-139.27"/>
<polygon fill="#63b8ff" stroke="#63b8ff" points="680.05,-138.58 675.2,-129.16 673.11,-139.54 680.05,-138.58"/>
</a>
</g>
</g>
<!-- Node25 -->
<g id="Node000025" class="node">
<title>Node25</title>
<g id="a_Node000025"><a xlink:title=" ">
<polygon fill="#e0e0e0" stroke="#999999" points="920.5,-184 869.5,-184 869.5,-165 920.5,-165 920.5,-184"/>
<text text-anchor="middle" x="895" y="-172" font-family="Helvetica,sans-Serif" font-size="10.00">csignal</text>
</a>
</g>
</g>
<!-- Node1&#45;&gt;Node25 -->
<g id="edge40_Node000001_Node000025" class="edge">
<title>Node1&#45;&gt;Node25</title>
<g id="a_edge40_Node000001_Node000025"><a xlink:title=" ">
<path fill="none" stroke="#63b8ff" d="M720.29,-220.45C757.69,-210.83 820.14,-194.76 859.37,-184.67"/>
<polygon fill="#63b8ff" stroke="#63b8ff" points="860.48,-188 869.29,-182.11 858.73,-181.22 860.48,-188"/>
</a>
</g>
</g>
<!-- Node26 -->
<g id="Node000026" class="node">
<title>Node26</title>
<g id="a_Node000026"><a xlink:title=" ">
<polygon fill="#e0e0e0" stroke="#999999" points="983,-184 939,-184 939,-165 983,-165 983,-184"/>
<text text-anchor="middle" x="961" y="-172" font-family="Helvetica,sans-Serif" font-size="10.00">limits</text>
</a>
</g>
</g>
<!-- Node1&#45;&gt;Node26 -->
<g id="edge45_Node000001_Node000026" class="edge">
<title>Node1&#45;&gt;Node26</title>
<g id="a_edge45_Node000001_Node000026"><a xlink:title=" ">
<path fill="none" stroke="#63b8ff" d="M720.37,-223.58C764.72,-216.44 848.47,-202.26 928.92,-184.09"/>
<polygon fill="#63b8ff" stroke="#63b8ff" points="929.74,-187.49 938.71,-181.86 928.18,-180.67 929.74,-187.49"/>
</a>
</g>
</g>
<!-- Node27 -->
<g id="Node000027" class="node">
<title>Node27</title>
<g id="a_Node000027"><a xlink:title=" ">
<polygon fill="#e0e0e0" stroke="#999999" points="1039,-184 1001,-184 1001,-165 1039,-165 1039,-184"/>
<text text-anchor="middle" x="1020" y="-172" font-family="Helvetica,sans-Serif" font-size="10.00">map</text>
</a>
</g>
</g>
<!-- Node1&#45;&gt;Node27 -->
<g id="edge46_Node000001_Node000027" class="edge">
<title>Node1&#45;&gt;Node27</title>
<g id="a_edge46_Node000001_Node000027"><a xlink:title=" ">
<path fill="none" stroke="#63b8ff" d="M720.25,-225.46C773.79,-219.93 886.6,-206.81 990.77,-183.97"/>
<polygon fill="#63b8ff" stroke="#63b8ff" points="991.82,-187.33 1000.82,-181.73 990.3,-180.49 991.82,-187.33"/>
</a>
</g>
</g>
<!-- Node28 -->
<g id="Node000028" class="node">
<title>Node28</title>
<g id="a_Node000028"><a xlink:title=" ">
<polygon fill="#e0e0e0" stroke="#999999" points="1113,-184 1057,-184 1057,-165 1113,-165 1113,-184"/>
<text text-anchor="middle" x="1085" y="-172" font-family="Helvetica,sans-Serif" font-size="10.00">sstream</text>
</a>
</g>
</g>
<!-- Node1&#45;&gt;Node28 -->
<g id="edge47_Node000001_Node000028" class="edge">
<title>Node1&#45;&gt;Node28</title>
<g id="a_edge47_Node000001_Node000028"><a xlink:title=" ">
<path fill="none" stroke="#63b8ff" d="M720.37,-225.7C781.38,-220.03 920.41,-205.95 1046.92,-184.03"/>
<polygon fill="#63b8ff" stroke="#63b8ff" points="1047.53,-187.47 1056.78,-182.3 1046.32,-180.58 1047.53,-187.47"/>
</a>
</g>
</g>
<!-- Node29 -->
<g id="Node000029" class="node">
<title>Node29</title>
<g id="a_Node000029"><a xlink:title=" ">
<polygon fill="#e0e0e0" stroke="#999999" points="1179,-184 1131,-184 1131,-165 1179,-165 1179,-184"/>
<text text-anchor="middle" x="1155" y="-172" font-family="Helvetica,sans-Serif" font-size="10.00">thread</text>
</a>
</g>
</g>
<!-- Node1&#45;&gt;Node29 -->
<g id="edge49_Node000001_Node000029" class="edge">
<title>Node1&#45;&gt;Node29</title>
<g id="a_edge49_Node000001_Node000029"><a xlink:title=" ">
<path fill="none" stroke="#63b8ff" d="M720.2,-226.9C790.19,-222.97 965.12,-211.24 1120.72,-183.96"/>
<polygon fill="#63b8ff" stroke="#63b8ff" points="1121.71,-187.34 1130.94,-182.14 1120.48,-180.45 1121.71,-187.34"/>
</a>
</g>
</g>
<!-- Node2&#45;&gt;Node3 -->
<g id="edge2_Node000002_Node000003" class="edge">
<title>Node2&#45;&gt;Node3</title>
<g id="a_edge2_Node000002_Node000003"><a xlink:title=" ">
<path fill="none" stroke="#63b8ff" d="M309.31,-109.98C287.2,-101.3 252.68,-87.75 227.55,-77.88"/>
<polygon fill="#63b8ff" stroke="#63b8ff" points="228.67,-74.57 218.08,-74.17 226.11,-81.08 228.67,-74.57"/>
</a>
</g>
</g>
<!-- Node2&#45;&gt;Node7 -->
<g id="edge16_Node000002_Node000007" class="edge">
<title>Node2&#45;&gt;Node7</title>
<g id="a_edge16_Node000002_Node000007"><a xlink:title=" ">
<path fill="none" stroke="#63b8ff" d="M340.64,-109.58C355.58,-96.16 385.66,-70.69 415,-55 445.96,-38.45 484.3,-26.08 510.92,-18.63"/>
<polygon fill="#63b8ff" stroke="#63b8ff" points="512.12,-21.93 520.85,-15.93 510.28,-15.18 512.12,-21.93"/>
</a>
</g>
</g>
<!-- Node8 -->
<g id="Node000008" class="node">
<title>Node8</title>
<g id="a_Node000008"><a xlink:title=" ">
<polygon fill="#e0e0e0" stroke="#999999" points="330.5,-19 237.5,-19 237.5,0 330.5,0 330.5,-19"/>
<text text-anchor="middle" x="284" y="-7" font-family="Helvetica,sans-Serif" font-size="10.00">unordered_map</text>
</a>
</g>
</g>
<!-- Node2&#45;&gt;Node8 -->
<g id="edge17_Node000002_Node000008" class="edge">
<title>Node2&#45;&gt;Node8</title>
<g id="a_edge17_Node000002_Node000008"><a xlink:title=" ">
<path fill="none" stroke="#63b8ff" d="M327.15,-109.66C319.47,-92.01 302.1,-52.09 291.89,-28.64"/>
<polygon fill="#63b8ff" stroke="#63b8ff" points="294.97,-26.93 287.77,-19.16 288.55,-29.72 294.97,-26.93"/>
</a>
</g>
</g>
<!-- Node2&#45;&gt;Node9 -->
<g id="edge18_Node000002_Node000009" class="edge">
<title>Node2&#45;&gt;Node9</title>
<g id="a_edge18_Node000002_Node000009"><a xlink:title=" ">
<path fill="none" stroke="#63b8ff" d="M334.36,-109.66C341.06,-92.01 356.21,-52.09 365.12,-28.64"/>
<polygon fill="#63b8ff" stroke="#63b8ff" points="368.44,-29.75 368.71,-19.16 361.89,-27.27 368.44,-29.75"/>
</a>
</g>
</g>
<!-- Node2&#45;&gt;Node10 -->
<g id="edge9_Node000002_Node000010" class="edge">
<title>Node2&#45;&gt;Node10</title>
<g id="a_edge9_Node000002_Node000010"><a xlink:title=" ">
<path fill="none" stroke="#63b8ff" d="M401.37,-109.98C487.93,-99.51 633.13,-81.94 712.68,-72.32"/>
<polygon fill="#63b8ff" stroke="#63b8ff" points="713.48,-75.74 722.99,-71.07 712.64,-68.79 713.48,-75.74"/>
</a>
</g>
</g>
<!-- Node15 -->
<g id="Node000015" class="node">
<title>Node15</title>
<g id="a_Node000015"><a xlink:title=" ">
<polygon fill="#e0e0e0" stroke="#999999" points="515,-74 457,-74 457,-55 515,-55 515,-74"/>
<text text-anchor="middle" x="486" y="-62" font-family="Helvetica,sans-Serif" font-size="10.00">memory</text>
</a>
</g>
</g>
<!-- Node2&#45;&gt;Node15 -->
<g id="edge15_Node000002_Node000015" class="edge">
<title>Node2&#45;&gt;Node15</title>
<g id="a_edge15_Node000002_Node000015"><a xlink:title=" ">
<path fill="none" stroke="#63b8ff" d="M355.9,-109.98C381.7,-101.16 422.22,-87.31 451.18,-77.41"/>
<polygon fill="#63b8ff" stroke="#63b8ff" points="452.57,-80.63 460.9,-74.08 450.31,-74.01 452.57,-80.63"/>
</a>
</g>
</g>
<!-- Node3&#45;&gt;Node4 -->
<g id="edge3_Node000003_Node000004" class="edge">
<title>Node3&#45;&gt;Node4</title>
<g id="a_edge3_Node000003_Node000004"><a xlink:title=" ">
<path fill="none" stroke="#63b8ff" d="M169.97,-54.98C142.89,-46.13 100.29,-32.19 69.99,-22.28"/>
<polygon fill="#63b8ff" stroke="#63b8ff" points="70.82,-18.87 60.23,-19.08 68.65,-25.52 70.82,-18.87"/>
</a>
</g>
</g>
<!-- Node5 -->
<g id="Node000005" class="node">
<title>Node5</title>
<g id="a_Node000005"><a xlink:title=" ">
<polygon fill="#e0e0e0" stroke="#999999" points="219.5,-19 164.5,-19 164.5,0 219.5,0 219.5,-19"/>
<text text-anchor="middle" x="192" y="-7" font-family="Helvetica,sans-Serif" font-size="10.00">fstream</text>
</a>
</g>
</g>
<!-- Node3&#45;&gt;Node5 -->
<g id="edge4_Node000003_Node000005" class="edge">
<title>Node3&#45;&gt;Node5</title>
<g id="a_edge4_Node000003_Node000005"><a xlink:title=" ">
<path fill="none" stroke="#63b8ff" d="M195.34,-54.75C194.82,-47.8 194.06,-37.85 193.41,-29.13"/>
<polygon fill="#63b8ff" stroke="#63b8ff" points="196.89,-28.8 192.65,-19.09 189.91,-29.32 196.89,-28.8"/>
</a>
</g>
</g>
<!-- Node3&#45;&gt;Node6 -->
<g id="edge5_Node000003_Node000006" class="edge">
<title>Node3&#45;&gt;Node6</title>
<g id="a_edge5_Node000003_Node000006"><a xlink:title=" ">
<path fill="none" stroke="#63b8ff" d="M183.15,-54.98C170.86,-46.84 152.09,-34.41 137.52,-24.76"/>
<polygon fill="#63b8ff" stroke="#63b8ff" points="139.36,-21.78 129.09,-19.17 135.49,-27.61 139.36,-21.78"/>
</a>
</g>
</g>
<!-- Node3&#45;&gt;Node7 -->
<g id="edge6_Node000003_Node000007" class="edge">
<title>Node3&#45;&gt;Node7</title>
<g id="a_edge6_Node000003_Node000007"><a xlink:title=" ">
<path fill="none" stroke="#63b8ff" d="M247.57,-55.62C320.24,-44.52 450.6,-24.61 510.85,-15.41"/>
<polygon fill="#63b8ff" stroke="#63b8ff" points="511.56,-18.84 520.92,-13.87 510.51,-11.92 511.56,-18.84"/>
</a>
</g>
</g>
<!-- Node3&#45;&gt;Node8 -->
<g id="edge7_Node000003_Node000008" class="edge">
<title>Node3&#45;&gt;Node8</title>
<g id="a_edge7_Node000003_Node000008"><a xlink:title=" ">
<path fill="none" stroke="#63b8ff" d="M210.14,-54.98C223.79,-46.77 244.69,-34.18 260.78,-24.49"/>
<polygon fill="#63b8ff" stroke="#63b8ff" points="262.84,-27.33 269.6,-19.17 259.23,-21.33 262.84,-27.33"/>
</a>
</g>
</g>
<!-- Node3&#45;&gt;Node9 -->
<g id="edge8_Node000003_Node000009" class="edge">
<title>Node3&#45;&gt;Node9</title>
<g id="a_edge8_Node000003_Node000009"><a xlink:title=" ">
<path fill="none" stroke="#63b8ff" d="M224.28,-54.98C255.45,-45.6 305.56,-30.51 338.63,-20.55"/>
<polygon fill="#63b8ff" stroke="#63b8ff" points="339.74,-23.87 348.31,-17.63 337.72,-17.17 339.74,-23.87"/>
</a>
</g>
</g>
<!-- Node10&#45;&gt;Node7 -->
<g id="edge14_Node000010_Node000007" class="edge">
<title>Node10&#45;&gt;Node7</title>
<g id="a_edge14_Node000010_Node000007"><a xlink:title=" ">
<path fill="none" stroke="#63b8ff" d="M732.69,-54.98C689.09,-44.76 616.66,-27.78 575.05,-18.02"/>
<polygon fill="#63b8ff" stroke="#63b8ff" points="575.71,-14.58 565.18,-15.7 574.11,-21.39 575.71,-14.58"/>
</a>
</g>
</g>
<!-- Node11 -->
<g id="Node000011" class="node">
<title>Node11</title>
<g id="a_Node000011"><a xlink:title=" ">
<polygon fill="#e0e0e0" stroke="#999999" points="984,-19 920,-19 920,0 984,0 984,-19"/>
<text text-anchor="middle" x="952" y="-7" font-family="Helvetica,sans-Serif" font-size="10.00">algorithm</text>
</a>
</g>
</g>
<!-- Node10&#45;&gt;Node11 -->
<g id="edge10_Node000010_Node000011" class="edge">
<title>Node10&#45;&gt;Node11</title>
<g id="a_edge10_Node000010_Node000011"><a xlink:title=" ">
<path fill="none" stroke="#63b8ff" d="M798.4,-54.98C829.39,-46.01 878.38,-31.82 912.67,-21.89"/>
<polygon fill="#63b8ff" stroke="#63b8ff" points="913.74,-25.23 922.37,-19.08 911.79,-18.5 913.74,-25.23"/>
</a>
</g>
</g>
<!-- Node12 -->
<g id="Node000012" class="node">
<title>Node12</title>
<g id="a_Node000012"><a xlink:title=" ">
<polygon fill="#e0e0e0" stroke="#999999" points="793.5,-19 744.5,-19 744.5,0 793.5,0 793.5,-19"/>
<text text-anchor="middle" x="769" y="-7" font-family="Helvetica,sans-Serif" font-size="10.00">cctype</text>
</a>
</g>
</g>
<!-- Node10&#45;&gt;Node12 -->
<g id="edge11_Node000010_Node000012" class="edge">
<title>Node10&#45;&gt;Node12</title>
<g id="a_edge11_Node000010_Node000012"><a xlink:title=" ">
<path fill="none" stroke="#63b8ff" d="M769,-54.75C769,-47.8 769,-37.85 769,-29.13"/>
<polygon fill="#63b8ff" stroke="#63b8ff" points="772.5,-29.09 769,-19.09 765.5,-29.09 772.5,-29.09"/>
</a>
</g>
</g>
<!-- Node10&#45;&gt;Node13 -->
<g id="edge12_Node000010_Node000013" class="edge">
<title>Node10&#45;&gt;Node13</title>
<g id="a_edge12_Node000010_Node000013"><a xlink:title=" ">
<path fill="none" stroke="#63b8ff" d="M751.49,-54.98C734.03,-46.5 706.99,-33.35 686.83,-23.54"/>
<polygon fill="#63b8ff" stroke="#63b8ff" points="688.36,-20.4 677.83,-19.17 685.29,-26.69 688.36,-20.4"/>
</a>
</g>
</g>
<!-- Node14 -->
<g id="Node000014" class="node">
<title>Node14</title>
<g id="a_Node000014"><a xlink:title=" ">
<polygon fill="#e0e0e0" stroke="#999999" points="1121.5,-19 1056.5,-19 1056.5,0 1121.5,0 1121.5,-19"/>
<text text-anchor="middle" x="1089" y="-7" font-family="Helvetica,sans-Serif" font-size="10.00">functional</text>
</a>
</g>
</g>
<!-- Node10&#45;&gt;Node14 -->
<g id="edge13_Node000010_Node000014" class="edge">
<title>Node10&#45;&gt;Node14</title>
<g id="a_edge13_Node000010_Node000014"><a xlink:title=" ">
<path fill="none" stroke="#63b8ff" d="M815.19,-55.85C877.2,-45.58 986.5,-27.48 1046.54,-17.53"/>
<polygon fill="#63b8ff" stroke="#63b8ff" points="1047.16,-20.98 1056.45,-15.89 1046.01,-14.07 1047.16,-20.98"/>
</a>
</g>
</g>
<!-- Node16&#45;&gt;Node7 -->
<g id="edge28_Node000016_Node000007" class="edge">
<title>Node16&#45;&gt;Node7</title>
<g id="a_edge28_Node000016_Node000007"><a xlink:title=" ">
<path fill="none" stroke="#63b8ff" d="M830.83,-109.97C800.17,-101.77 753.52,-88.53 714,-74 694.39,-66.79 690.44,-62.66 671,-55 638.73,-42.29 601.18,-29.46 575.13,-20.86"/>
<polygon fill="#63b8ff" stroke="#63b8ff" points="575.99,-17.46 565.4,-17.67 573.81,-24.11 575.99,-17.46"/>
</a>
</g>
</g>
<!-- Node16&#45;&gt;Node9 -->
<g id="edge29_Node000016_Node000009" class="edge">
<title>Node16&#45;&gt;Node9</title>
<g id="a_edge29_Node000016_Node000009"><a xlink:title=" ">
<path fill="none" stroke="#63b8ff" d="M824.98,-109.94C731.07,-89.32 493.71,-37.22 405.6,-17.88"/>
<polygon fill="#63b8ff" stroke="#63b8ff" points="406.13,-14.41 395.61,-15.68 404.63,-21.25 406.13,-14.41"/>
</a>
</g>
</g>
<!-- Node16&#45;&gt;Node10 -->
<g id="edge30_Node000016_Node000010" class="edge">
<title>Node16&#45;&gt;Node10</title>
<g id="a_edge30_Node000016_Node000010"><a xlink:title=" ">
<path fill="none" stroke="#63b8ff" d="M848.74,-109.98C833.87,-101.69 811.02,-88.94 793.58,-79.22"/>
<polygon fill="#63b8ff" stroke="#63b8ff" points="794.98,-75.99 784.54,-74.17 791.57,-82.1 794.98,-75.99"/>
</a>
</g>
</g>
<!-- Node16&#45;&gt;Node11 -->
<g id="edge21_Node000016_Node000011" class="edge">
<title>Node16&#45;&gt;Node11</title>
<g id="a_edge21_Node000016_Node000011"><a xlink:title=" ">
<path fill="none" stroke="#63b8ff" d="M927.44,-109.99C989.72,-100.99 1076.83,-86.4 1087,-74 1115.45,-39.32 1043.62,-22.5 994.18,-15.25"/>
<polygon fill="#63b8ff" stroke="#63b8ff" points="994.39,-11.74 984.01,-13.84 993.43,-18.68 994.39,-11.74"/>
</a>
</g>
</g>
<!-- Node16&#45;&gt;Node14 -->
<g id="edge25_Node000016_Node000014" class="edge">
<title>Node16&#45;&gt;Node14</title>
<g id="a_edge25_Node000016_Node000014"><a xlink:title=" ">
<path fill="none" stroke="#63b8ff" d="M935.05,-109.96C1001.84,-101.2 1093.14,-87.05 1104,-74 1114.71,-61.12 1108.04,-41.93 1100.5,-28.02"/>
<polygon fill="#63b8ff" stroke="#63b8ff" points="1103.47,-26.17 1095.34,-19.38 1097.46,-29.76 1103.47,-26.17"/>
</a>
</g>
</g>
<!-- Node16&#45;&gt;Node15 -->
<g id="edge26_Node000016_Node000015" class="edge">
<title>Node16&#45;&gt;Node15</title>
<g id="a_edge26_Node000016_Node000015"><a xlink:title=" ">
<path fill="none" stroke="#63b8ff" d="M803.27,-109.98C725.02,-99.01 591.23,-80.25 525.21,-71"/>
<polygon fill="#63b8ff" stroke="#63b8ff" points="525.61,-67.52 515.22,-69.6 524.63,-74.45 525.61,-67.52"/>
</a>
</g>
</g>
<!-- Node16&#45;&gt;Node17 -->
<g id="edge22_Node000016_Node000017" class="edge">
<title>Node16&#45;&gt;Node17</title>
<g id="a_edge22_Node000016_Node000017"><a xlink:title=" ">
<path fill="none" stroke="#63b8ff" d="M928.43,-109.96C988.13,-101.77 1079.31,-88.51 1158,-74 1159.27,-73.77 1160.55,-73.52 1161.85,-73.27"/>
<polygon fill="#63b8ff" stroke="#63b8ff" points="1162.77,-76.65 1171.87,-71.23 1161.37,-69.8 1162.77,-76.65"/>
</a>
</g>
</g>
<!-- Node18 -->
<g id="Node000018" class="node">
<title>Node18</title>
<g id="a_Node000018"><a xlink:title=" ">
<polygon fill="#e0e0e0" stroke="#999999" points="940.5,-74 833.5,-74 833.5,-55 940.5,-55 940.5,-74"/>
<text text-anchor="middle" x="887" y="-62" font-family="Helvetica,sans-Serif" font-size="10.00">condition_variable</text>
</a>
</g>
</g>
<!-- Node16&#45;&gt;Node18 -->
<g id="edge23_Node000016_Node000018" class="edge">
<title>Node16&#45;&gt;Node18</title>
<g id="a_edge23_Node000016_Node000018"><a xlink:title=" ">
<path fill="none" stroke="#63b8ff" d="M867.8,-109.75C870.91,-102.57 875.42,-92.18 879.29,-83.27"/>
<polygon fill="#63b8ff" stroke="#63b8ff" points="882.5,-84.66 883.27,-74.09 876.08,-81.87 882.5,-84.66"/>
</a>
</g>
</g>
<!-- Node19 -->
<g id="Node000019" class="node">
<title>Node19</title>
<g id="a_Node000019"><a xlink:title=" ">
<polygon fill="#e0e0e0" stroke="#999999" points="1011.5,-74 958.5,-74 958.5,-55 1011.5,-55 1011.5,-74"/>
<text text-anchor="middle" x="985" y="-62" font-family="Helvetica,sans-Serif" font-size="10.00">cstddef</text>
</a>
</g>
</g>
<!-- Node16&#45;&gt;Node19 -->
<g id="edge24_Node000016_Node000019" class="edge">
<title>Node16&#45;&gt;Node19</title>
<g id="a_edge24_Node000016_Node000019"><a xlink:title=" ">
<path fill="none" stroke="#63b8ff" d="M883.44,-109.98C902.99,-101.42 933.38,-88.11 955.82,-78.28"/>
<polygon fill="#63b8ff" stroke="#63b8ff" points="957.45,-81.39 965.21,-74.17 954.64,-74.98 957.45,-81.39"/>
</a>
</g>
</g>
<!-- Node20 -->
<g id="Node000020" class="node">
<title>Node20</title>
<g id="a_Node000020"><a xlink:title=" ">
<polygon fill="#e0e0e0" stroke="#999999" points="1078,-74 1030,-74 1030,-55 1078,-55 1078,-74"/>
<text text-anchor="middle" x="1054" y="-62" font-family="Helvetica,sans-Serif" font-size="10.00">mutex</text>
</a>
</g>
</g>
<!-- Node16&#45;&gt;Node20 -->
<g id="edge27_Node000016_Node000020" class="edge">
<title>Node16&#45;&gt;Node20</title>
<g id="a_edge27_Node000016_Node000020"><a xlink:title=" ">
<path fill="none" stroke="#63b8ff" d="M894.53,-109.98C928.8,-100.42 984.28,-84.95 1019.94,-75"/>
<polygon fill="#63b8ff" stroke="#63b8ff" points="1021.19,-78.29 1029.88,-72.23 1019.3,-71.54 1021.19,-78.29"/>
</a>
</g>
</g>
<!-- Node21&#45;&gt;Node7 -->
<g id="edge32_Node000021_Node000007" class="edge">
<title>Node21&#45;&gt;Node7</title>
<g id="a_edge32_Node000021_Node000007"><a xlink:title=" ">
<path fill="none" stroke="#63b8ff" d="M526.47,-109.66C529.39,-92.17 535.95,-52.8 539.87,-29.27"/>
<polygon fill="#63b8ff" stroke="#63b8ff" points="543.37,-29.6 541.56,-19.16 536.46,-28.45 543.37,-29.6"/>
</a>
</g>
</g>
<!-- Node22&#45;&gt;Node2 -->
<g id="edge35_Node000022_Node000002" class="edge">
<title>Node22&#45;&gt;Node2</title>
<g id="a_edge35_Node000022_Node000002"><a xlink:title=" ">
<path fill="none" stroke="#63b8ff" d="M360.22,-164.75C355.38,-157.42 348.32,-146.73 342.36,-137.7"/>
<polygon fill="#63b8ff" stroke="#63b8ff" points="345.1,-135.5 336.67,-129.09 339.26,-139.36 345.1,-135.5"/>
</a>
</g>
</g>
<!-- Node23&#45;&gt;Node7 -->
<g id="edge37_Node000023_Node000007" class="edge">
<title>Node23&#45;&gt;Node7</title>
<g id="a_edge37_Node000023_Node000007"><a xlink:title=" ">
<path fill="none" stroke="#63b8ff" d="M616.6,-164.62C614.44,-152.1 609.71,-128.71 602,-110 589.3,-79.2 568.29,-46.55 555.07,-27.37"/>
<polygon fill="#63b8ff" stroke="#63b8ff" points="557.88,-25.28 549.28,-19.1 552.15,-29.3 557.88,-25.28"/>
</a>
</g>
</g>
<!-- Node23&#45;&gt;Node24 -->
<g id="edge38_Node000023_Node000024" class="edge">
<title>Node23&#45;&gt;Node24</title>
<g id="a_edge38_Node000023_Node000024"><a xlink:title=" ">
<path fill="none" stroke="#63b8ff" d="M627,-164.98C635.19,-157.23 647.51,-145.58 657.47,-136.14"/>
<polygon fill="#63b8ff" stroke="#63b8ff" points="659.98,-138.59 664.84,-129.17 655.17,-133.5 659.98,-138.59"/>
</a>
</g>
</g>
</g>
</svg>

<g id="navigator" transform="translate(0 0)" fill="#404254">
  <rect fill="#f2f5e9" fill-opacity="0.5" stroke="#606060" stroke-width=".5" x="0" y="0" width="60" height="60"/>
  <use id="zoomplus" xlink:href="#zoomPlus" x="17" y="9" onmousedown="handleZoom(evt,'in')"/>
  <use id="zoomminus" xlink:href="#zoomMin" x="42" y="9" onmousedown="handleZoom(evt,'out')"/>
  <use id="reset" xlink:href="#resetDef" x="30" y="36" onmousedown="handleReset()"/>
   <use id="arrowup" xlink:href="#arrowUp" x="0" y="0" onmousedown="handlePan(0,-1)"/>
  <use id="arrowright" xlink:href="#arrowRight" x="0" y="0" onmousedown="handlePan(1,0)"/>
  <use id="arrowdown" xlink:href="#arrowDown" x="0" y="0" onmousedown="handlePan(0,1)"/>
  <use id="arrowleft" xlink:href="#arrowLeft" x="0" y="0" onmousedown="handlePan(-1,0)"/>
</g>
<svg viewBox="0 0 15 15" width="100%" height="30px" preserveAspectRatio="xMaxYMin meet">
 <g id="arrow_out" transform="scale(0.3 0.3)">
  <a xlink:href="main_8cpp__incl_org.svg" target="_base">
   <rect id="button" ry="5" rx="5" y="6" x="6" height="38" width="38"
        fill="#f2f5e9" fill-opacity="0.5" stroke="#606060" stroke-width="1.0"/>
   <path id="arrow"
     d="M 11.500037,31.436501 C 11.940474,20.09759 22.043105,11.32322 32.158766,21.979434 L 37.068811,17.246167 C 37.068811,17.246167 37.088388,32 37.088388,32 L 22.160133,31.978069 C 22.160133,31.978069 26.997745,27.140456 26.997745,27.140456 C 18.528582,18.264221 13.291696,25.230495 11.500037,31.436501 z"
     style="fill:#404040;"/>
  </a>
 </g>
</svg>

<style type='text/css'>
<![CDATA[
[data-mouse-over-selected='false'] { opacity: 0.7; }
[data-mouse-over-selected='true']  { opacity: 1.0; }
]]>
</style>
<script type="application/ecmascript"><![CDATA[
document.addEventListener('DOMContentLoaded', (event) => {
  highlightEdges();
  highlightAdjacentNodes();
});
]]></script>
</svg>
