<?xml version="1.0" encoding="UTF-8" standalone="no"?>
<!DOCTYPE svg PUBLIC "-//W3C//DTD SVG 1.1//EN"
 "http://www.w3.org/Graphics/SVG/1.1/DTD/svg11.dtd">
<!-- Generated by graphviz version 2.43.0 (0)
 -->
<!-- Title: core/metadata.h Pages: 1 -->
<svg width="455pt" height="82pt"
 viewBox="0.00 0.00 454.50 82.00" xmlns="http://www.w3.org/2000/svg" xmlns:xlink="http://www.w3.org/1999/xlink">
<g id="graph0" class="graph" transform="scale(1 1) rotate(0) translate(4 78)">
<title>core/metadata.h</title>
<!-- Node1 -->
<g id="Node000001" class="node">
<title>Node1</title>
<g id="a_Node000001"><a xlink:title="Metadata utilities for standardized header and (future) summary blocks.">
<polygon fill="#999999" stroke="#666666" points="294,-74 197,-74 197,-55 294,-55 294,-74"/>
<text text-anchor="middle" x="245.5" y="-62" font-family="Helvetica,sans-Serif" font-size="10.00">core/metadata.h</text>
</a>
</g>
</g>
<!-- Node2 -->
<g id="Node000002" class="node">
<title>Node2</title>
<g id="a_Node000002"><a xlink:href="gaussian__extractor_8cpp.html" target="_top" xlink:title="Implementation of core Gaussian log file processing and data extraction.">
<polygon fill="white" stroke="#666666" points="153,-19 0,-19 0,0 153,0 153,-19"/>
<text text-anchor="middle" x="76.5" y="-7" font-family="Helvetica,sans-Serif" font-size="10.00">core/gaussian_extractor.cpp</text>
</a>
</g>
</g>
<!-- Node1&#45;&gt;Node2 -->
<g id="edge1_Node000001_Node000002" class="edge">
<title>Node1&#45;&gt;Node2</title>
<g id="a_edge1_Node000001_Node000002"><a xlink:title=" ">
<path fill="none" stroke="#63b8ff" d="M208.6,-51.93C177.03,-42.03 132.32,-28.01 103.87,-19.08"/>
<polygon fill="#63b8ff" stroke="#63b8ff" points="207.76,-55.33 218.35,-54.98 209.85,-48.65 207.76,-55.33"/>
</a>
</g>
</g>
<!-- Node3 -->
<g id="Node000003" class="node">
<title>Node3</title>
<g id="a_Node000003"><a xlink:href="high__level__energy_8cpp.html" target="_top" xlink:title=" ">
<polygon fill="white" stroke="#666666" points="320,-19 171,-19 171,0 320,0 320,-19"/>
<text text-anchor="middle" x="245.5" y="-7" font-family="Helvetica,sans-Serif" font-size="10.00">core/high_level_energy.cpp</text>
</a>
</g>
</g>
<!-- Node1&#45;&gt;Node3 -->
<g id="edge2_Node000001_Node000003" class="edge">
<title>Node1&#45;&gt;Node3</title>
<g id="a_edge2_Node000001_Node000003"><a xlink:title=" ">
<path fill="none" stroke="#63b8ff" d="M245.5,-44.66C245.5,-35.93 245.5,-25.99 245.5,-19.09"/>
<polygon fill="#63b8ff" stroke="#63b8ff" points="242,-44.75 245.5,-54.75 249,-44.75 242,-44.75"/>
</a>
</g>
</g>
<!-- Node4 -->
<g id="Node000004" class="node">
<title>Node4</title>
<g id="a_Node000004"><a xlink:href="metadata_8cpp.html" target="_top" xlink:title="Implementation of metadata utilities.">
<polygon fill="white" stroke="#666666" points="446.5,-19 338.5,-19 338.5,0 446.5,0 446.5,-19"/>
<text text-anchor="middle" x="392.5" y="-7" font-family="Helvetica,sans-Serif" font-size="10.00">core/metadata.cpp</text>
</a>
</g>
</g>
<!-- Node1&#45;&gt;Node4 -->
<g id="edge3_Node000001_Node000004" class="edge">
<title>Node1&#45;&gt;Node4</title>
<g id="a_edge3_Node000001_Node000004"><a xlink:title=" ">
<path fill="none" stroke="#63b8ff" d="M278.64,-51.55C305.94,-41.71 344,-27.98 368.45,-19.17"/>
<polygon fill="#63b8ff" stroke="#63b8ff" points="277.34,-48.3 269.12,-54.98 279.71,-54.89 277.34,-48.3"/>
</a>
</g>
</g>
</g>
</svg>
