<?xml version="1.0" encoding="UTF-8" standalone="no"?>
<!DOCTYPE svg PUBLIC "-//W3C//DTD SVG 1.1//EN"
 "http://www.w3.org/Graphics/SVG/1.1/DTD/svg11.dtd">
<!-- Generated by graphviz version 2.43.0 (0)
 -->
<!-- Title: setup_signal_handlers Pages: 1 -->
<!--zoomable 440 -->

<svg id="main" version="1.1" xmlns="http://www.w3.org/2000/svg" xmlns:xlink="http://www.w3.org/1999/xlink" xml:space="preserve" onload="init(evt)">
<style type="text/css"><![CDATA[
.node, .edge {opacity: 0.7;}
.node.selected, .edge.selected {opacity: 1;}
.edge:hover path { stroke: red; }
.edge:hover polygon { stroke: red; fill: red; }
]]></style>

<defs>
  <circle id="rim" cx="0" cy="0" r="7"/>
  <circle id="rim2" cx="0" cy="0" r="3.5"/>
  <g id="zoomPlus">
    <use xlink:href="#rim" fill="#404040"><set attributeName="fill" to="#808080" begin="zoomplus.mouseover" end="zoomplus.mouseout"/></use>
    <path d="M-4,0h8M0,-4v8" fill="none" stroke="white" stroke-width="1.5" pointer-events="none"/>
  </g>
  <g id="zoomMin">
    <use xlink:href="#rim" fill="#404040"><set attributeName="fill" to="#808080" begin="zoomminus.mouseover" end="zoomminus.mouseout"/></use>
    <path d="M-4,0h8" fill="none" stroke="white" stroke-width="1.5" pointer-events="none"/>
  </g>
  <g id="arrowUp" transform="translate(30 24)">
    <use xlink:href="#rim"/>
    <path pointer-events="none" fill="none" stroke="white" stroke-width="1.5" d="M0,-3.0v7 M-2.5,-0.5L0,-3.0L2.5,-0.5"/>
  </g>
  <g id="arrowRight" transform="rotate(90) translate(36 -43)">
    <use xlink:href="#rim"/>
    <path pointer-events="none" fill="none" stroke="white" stroke-width="1.5" d="M0,-3.0v7 M-2.5,-0.5L0,-3.0L2.5,-0.5"/>
  </g>
  <g id="arrowDown" transform="rotate(180) translate(-30 -48)">
    <use xlink:href="#rim"/>
    <path pointer-events="none" fill="none" stroke="white" stroke-width="1.5" d="M0,-3.0v7 M-2.5,-0.5L0,-3.0L2.5,-0.5"/>
  </g>
  <g id="arrowLeft" transform="rotate(270) translate(-36 17)">
    <use xlink:href="#rim"/>
    <path pointer-events="none" fill="none" stroke="white" stroke-width="1.5" d="M0,-3.0v7 M-2.5,-0.5L0,-3.0L2.5,-0.5"/>
  </g>
  <g id="resetDef">
    <use xlink:href="#rim2" fill="#404040"><set attributeName="fill" to="#808080" begin="reset.mouseover" end="reset.mouseout"/></use>
  </g>
</defs>
<script type="application/ecmascript">
var viewWidth = 567;
var viewHeight = 440;
var sectionId = 'dynsection-2';
</script>
<script type="application/ecmascript" xlink:href="svg.min.js"/>
<svg id="graph" class="graph">
<g id="viewport">
<title>setup_signal_handlers</title>
<!-- Node1 -->
<g id="Node000001" class="node">
<title>Node1</title>
<g id="a_Node000001"><a xlink:title=" ">
<polygon fill="#999999" stroke="#666666" points="559,-227.5 434,-227.5 434,-208.5 559,-208.5 559,-227.5"/>
<text text-anchor="middle" x="496.5" y="-215.5" font-family="Helvetica,sans-Serif" font-size="10.00">setup_signal_handlers</text>
</a>
</g>
</g>
<!-- Node2 -->
<g id="Node000002" class="node">
<title>Node2</title>
<g id="a_Node000002"><a xlink:href="group__ModuleExecutors.html#ga5f1a9bdbc166546e200c5bbb2aa5db30" target="_top" xlink:title=" ">
<polygon fill="white" stroke="#666666" points="393.5,-431.5 233.5,-431.5 233.5,-412.5 393.5,-412.5 393.5,-431.5"/>
<text text-anchor="middle" x="313.5" y="-419.5" font-family="Helvetica,sans-Serif" font-size="10.00">execute_check_all_command</text>
</a>
</g>
</g>
<!-- Node1&#45;&gt;Node2 -->
<g id="edge1_Node000001_Node000002" class="edge">
<title>Node1&#45;&gt;Node2</title>
<g id="a_edge1_Node000001_Node000002"><a xlink:title=" ">
<path fill="none" stroke="#63b8ff" d="M490.92,-237.83C481.01,-276.1 453.83,-360.14 398,-403 393.05,-406.8 387.47,-409.87 381.61,-412.34"/>
<polygon fill="#63b8ff" stroke="#63b8ff" points="494.37,-238.47 493.36,-227.92 487.57,-236.79 494.37,-238.47"/>
</a>
</g>
</g>
<!-- Node5 -->
<g id="Node000005" class="node">
<title>Node5</title>
<g id="a_Node000005"><a xlink:href="group__ModuleExecutors.html#ga97d4d0bad6dab32f1d5b92d4ea09c80b" target="_top" xlink:title=" ">
<polygon fill="white" stroke="#666666" points="372.5,-394 254.5,-394 254.5,-364 372.5,-364 372.5,-394"/>
<text text-anchor="start" x="262.5" y="-382" font-family="Helvetica,sans-Serif" font-size="10.00">execute_check_done</text>
<text text-anchor="middle" x="313.5" y="-371" font-family="Helvetica,sans-Serif" font-size="10.00">_command</text>
</a>
</g>
</g>
<!-- Node1&#45;&gt;Node5 -->
<g id="edge5_Node000001_Node000005" class="edge">
<title>Node1&#45;&gt;Node5</title>
<g id="a_edge5_Node000001_Node000005"><a xlink:title=" ">
<path fill="none" stroke="#63b8ff" d="M487.17,-236.92C473.12,-266.6 441.91,-323.92 398,-355 390.37,-360.4 381.53,-364.6 372.53,-367.85"/>
<polygon fill="#63b8ff" stroke="#63b8ff" points="490.43,-238.21 491.41,-227.66 484.06,-235.29 490.43,-238.21"/>
</a>
</g>
</g>
<!-- Node6 -->
<g id="Node000006" class="node">
<title>Node6</title>
<g id="a_Node000006"><a xlink:href="group__ModuleExecutors.html#ga530afea0ae66ae1aef943507742b3125" target="_top" xlink:title=" ">
<polygon fill="white" stroke="#666666" points="374.5,-346 252.5,-346 252.5,-316 374.5,-316 374.5,-346"/>
<text text-anchor="start" x="260.5" y="-334" font-family="Helvetica,sans-Serif" font-size="10.00">execute_check_errors</text>
<text text-anchor="middle" x="313.5" y="-323" font-family="Helvetica,sans-Serif" font-size="10.00">_command</text>
</a>
</g>
</g>
<!-- Node1&#45;&gt;Node6 -->
<g id="edge8_Node000001_Node000006" class="edge">
<title>Node1&#45;&gt;Node6</title>
<g id="a_edge8_Node000001_Node000006"><a xlink:title=" ">
<path fill="none" stroke="#63b8ff" d="M481.05,-235.35C463.42,-255.41 431.78,-288.11 398,-307 390.76,-311.05 382.78,-314.47 374.7,-317.34"/>
<polygon fill="#63b8ff" stroke="#63b8ff" points="483.84,-237.46 487.71,-227.59 478.53,-232.9 483.84,-237.46"/>
</a>
</g>
</g>
<!-- Node7 -->
<g id="Node000007" class="node">
<title>Node7</title>
<g id="a_Node000007"><a xlink:href="group__ModuleExecutors.html#ga4f5c061099b04712ebc615b32108fdd5" target="_top" xlink:title=" ">
<polygon fill="white" stroke="#666666" points="385,-298 242,-298 242,-268 385,-268 385,-298"/>
<text text-anchor="start" x="250" y="-286" font-family="Helvetica,sans-Serif" font-size="10.00">execute_check_imaginary</text>
<text text-anchor="middle" x="313.5" y="-275" font-family="Helvetica,sans-Serif" font-size="10.00">_command</text>
</a>
</g>
</g>
<!-- Node1&#45;&gt;Node7 -->
<g id="edge11_Node000001_Node000007" class="edge">
<title>Node1&#45;&gt;Node7</title>
<g id="a_edge11_Node000001_Node000007"><a xlink:title=" ">
<path fill="none" stroke="#63b8ff" d="M465.49,-231.71C446.39,-240.16 421.01,-250.89 398,-259 389.18,-262.11 379.74,-265.12 370.48,-267.9"/>
<polygon fill="#63b8ff" stroke="#63b8ff" points="467.15,-234.79 474.86,-227.52 464.3,-228.4 467.15,-234.79"/>
</a>
</g>
</g>
<!-- Node8 -->
<g id="Node000008" class="node">
<title>Node8</title>
<g id="a_Node000008"><a xlink:href="group__ModuleExecutors.html#ga02765a7766f40fab78024f30a1b3f9ff" target="_top" xlink:title=" ">
<polygon fill="white" stroke="#666666" points="398,-249.5 229,-249.5 229,-230.5 398,-230.5 398,-249.5"/>
<text text-anchor="middle" x="313.5" y="-237.5" font-family="Helvetica,sans-Serif" font-size="10.00">execute_check_pcm_command</text>
</a>
</g>
</g>
<!-- Node1&#45;&gt;Node8 -->
<g id="edge14_Node000001_Node000008" class="edge">
<title>Node1&#45;&gt;Node8</title>
<g id="a_edge14_Node000001_Node000008"><a xlink:title=" ">
<path fill="none" stroke="#63b8ff" d="M423.9,-226.7C413.7,-227.94 403.17,-229.22 392.85,-230.48"/>
<polygon fill="#63b8ff" stroke="#63b8ff" points="424.46,-230.16 433.97,-225.48 423.62,-223.21 424.46,-230.16"/>
</a>
</g>
</g>
<!-- Node9 -->
<g id="Node000009" class="node">
<title>Node9</title>
<g id="a_Node000009"><a xlink:href="group__ModuleExecutors.html#ga6d8429398cd99549f485628a27b0623a" target="_top" xlink:title=" ">
<polygon fill="white" stroke="#666666" points="374,-212 253,-212 253,-182 374,-182 374,-212"/>
<text text-anchor="start" x="261" y="-200" font-family="Helvetica,sans-Serif" font-size="10.00">execute_create_input</text>
<text text-anchor="middle" x="313.5" y="-189" font-family="Helvetica,sans-Serif" font-size="10.00">_command</text>
</a>
</g>
</g>
<!-- Node1&#45;&gt;Node9 -->
<g id="edge17_Node000001_Node000009" class="edge">
<title>Node1&#45;&gt;Node9</title>
<g id="a_edge17_Node000001_Node000009"><a xlink:title=" ">
<path fill="none" stroke="#63b8ff" d="M423.83,-209.68C407.32,-207.77 389.95,-205.75 374.02,-203.91"/>
<polygon fill="#63b8ff" stroke="#63b8ff" points="423.63,-213.19 433.97,-210.86 424.44,-206.23 423.63,-213.19"/>
</a>
</g>
</g>
<!-- Node10 -->
<g id="Node000010" class="node">
<title>Node10</title>
<g id="a_Node000010"><a xlink:href="group__ModuleExecutors.html#gaa356f7897fc875da426df1cf3c9c5b99" target="_top" xlink:title=" ">
<polygon fill="white" stroke="#666666" points="388,-163.5 239,-163.5 239,-144.5 388,-144.5 388,-163.5"/>
<text text-anchor="middle" x="313.5" y="-151.5" font-family="Helvetica,sans-Serif" font-size="10.00">execute_extract_command</text>
</a>
</g>
</g>
<!-- Node1&#45;&gt;Node10 -->
<g id="edge20_Node000001_Node000010" class="edge">
<title>Node1&#45;&gt;Node10</title>
<g id="a_edge20_Node000001_Node000010"><a xlink:title=" ">
<path fill="none" stroke="#63b8ff" d="M468.57,-203.72C449.34,-193.98 422.61,-181.38 398,-173 387.3,-169.36 375.6,-166.21 364.43,-163.57"/>
<polygon fill="#63b8ff" stroke="#63b8ff" points="467.14,-206.92 477.64,-208.38 470.34,-200.69 467.14,-206.92"/>
</a>
</g>
</g>
<!-- Node11 -->
<g id="Node000011" class="node">
<title>Node11</title>
<g id="a_Node000011"><a xlink:href="group__ModuleExecutors.html#gab27343ef2ae55f92b21f39e17f788f4c" target="_top" xlink:title=" ">
<polygon fill="white" stroke="#666666" points="379.5,-126 247.5,-126 247.5,-96 379.5,-96 379.5,-126"/>
<text text-anchor="start" x="255.5" y="-114" font-family="Helvetica,sans-Serif" font-size="10.00">execute_extract_coords</text>
<text text-anchor="middle" x="313.5" y="-103" font-family="Helvetica,sans-Serif" font-size="10.00">_command</text>
</a>
</g>
</g>
<!-- Node1&#45;&gt;Node11 -->
<g id="edge23_Node000001_Node000011" class="edge">
<title>Node1&#45;&gt;Node11</title>
<g id="a_edge23_Node000001_Node000011"><a xlink:title=" ">
<path fill="none" stroke="#63b8ff" d="M479.64,-201.02C461.53,-182.57 430.21,-153.39 398,-136 390.94,-132.19 383.23,-128.89 375.43,-126.04"/>
<polygon fill="#63b8ff" stroke="#63b8ff" points="477.32,-203.66 486.77,-208.44 482.36,-198.81 477.32,-203.66"/>
</a>
</g>
</g>
<!-- Node12 -->
<g id="Node000012" class="node">
<title>Node12</title>
<g id="a_Node000012"><a xlink:href="group__ModuleExecutors.html#gab1aa2594a8bb3d2789d37593f69cbc5e" target="_top" xlink:title=" ">
<polygon fill="white" stroke="#666666" points="368.5,-78 258.5,-78 258.5,-48 368.5,-48 368.5,-78"/>
<text text-anchor="start" x="266.5" y="-66" font-family="Helvetica,sans-Serif" font-size="10.00">execute_high_level</text>
<text text-anchor="middle" x="313.5" y="-55" font-family="Helvetica,sans-Serif" font-size="10.00">_au_command</text>
</a>
</g>
</g>
<!-- Node1&#45;&gt;Node12 -->
<g id="edge26_Node000001_Node000012" class="edge">
<title>Node1&#45;&gt;Node12</title>
<g id="a_edge26_Node000001_Node000012"><a xlink:title=" ">
<path fill="none" stroke="#63b8ff" d="M486.54,-199.12C472.01,-170.53 440.56,-116.46 398,-87 389.32,-80.99 379.14,-76.47 368.94,-73.08"/>
<polygon fill="#63b8ff" stroke="#63b8ff" points="483.56,-200.99 491.12,-208.41 489.84,-197.9 483.56,-200.99"/>
</a>
</g>
</g>
<!-- Node13 -->
<g id="Node000013" class="node">
<title>Node13</title>
<g id="a_Node000013"><a xlink:href="group__ModuleExecutors.html#gaefd8d559f7f798aaf8cb5f6feb9dce47" target="_top" xlink:title=" ">
<polygon fill="white" stroke="#666666" points="368.5,-30 258.5,-30 258.5,0 368.5,0 368.5,-30"/>
<text text-anchor="start" x="266.5" y="-18" font-family="Helvetica,sans-Serif" font-size="10.00">execute_high_level</text>
<text text-anchor="middle" x="313.5" y="-7" font-family="Helvetica,sans-Serif" font-size="10.00">_kj_command</text>
</a>
</g>
</g>
<!-- Node1&#45;&gt;Node13 -->
<g id="edge29_Node000001_Node000013" class="edge">
<title>Node1&#45;&gt;Node13</title>
<g id="a_edge29_Node000001_Node000013"><a xlink:title=" ">
<path fill="none" stroke="#63b8ff" d="M490.22,-198.07C479.38,-161.05 451.04,-81.54 398,-39 389.53,-32.21 379.22,-27.33 368.77,-23.84"/>
<polygon fill="#63b8ff" stroke="#63b8ff" points="486.97,-199.43 493.04,-208.11 493.71,-197.54 486.97,-199.43"/>
</a>
</g>
</g>
<!-- Node3 -->
<g id="Node000003" class="node">
<title>Node3</title>
<g id="a_Node000003"><a xlink:href="main_8cpp.html#a0ddf1224851353fc92bfbff6f499fa97" target="_top" xlink:title="Main entry point for the Gaussian Extractor application.">
<polygon fill="white" stroke="#666666" points="41,-228.5 0,-228.5 0,-209.5 41,-209.5 41,-228.5"/>
<text text-anchor="middle" x="20.5" y="-216.5" font-family="Helvetica,sans-Serif" font-size="10.00">main</text>
</a>
</g>
</g>
<!-- Node2&#45;&gt;Node3 -->
<g id="edge2_Node000002_Node000003" class="edge">
<title>Node2&#45;&gt;Node3</title>
<g id="a_edge2_Node000002_Node000003"><a xlink:title=" ">
<path fill="none" stroke="#63b8ff" d="M223.59,-415.13C174.93,-407.07 116.66,-389.8 77,-353 39.16,-317.89 26.33,-253.08 22.72,-228.66"/>
<polygon fill="#63b8ff" stroke="#63b8ff" points="223.08,-418.59 233.5,-416.67 224.15,-411.68 223.08,-418.59"/>
</a>
</g>
</g>
<!-- Node4 -->
<g id="Node000004" class="node">
<title>Node4</title>
<g id="a_Node000004"><a xlink:href="interactive__mode_8cpp.html#a6b615c34054150d837dc45ed1c17b297" target="_top" xlink:title="Enhanced interactive command loop with TAB completion for Windows.">
<polygon fill="white" stroke="#666666" points="193,-228.5 77,-228.5 77,-209.5 193,-209.5 193,-228.5"/>
<text text-anchor="middle" x="135" y="-216.5" font-family="Helvetica,sans-Serif" font-size="10.00">run_interactive_loop</text>
</a>
</g>
</g>
<!-- Node2&#45;&gt;Node4 -->
<g id="edge3_Node000002_Node000004" class="edge">
<title>Node2&#45;&gt;Node4</title>
<g id="a_edge3_Node000002_Node000004"><a xlink:title=" ">
<path fill="none" stroke="#63b8ff" d="M236.3,-407.93C233.75,-406.44 231.31,-404.8 229,-403 168.93,-356.06 144.44,-259.85 137.91,-228.86"/>
<polygon fill="#63b8ff" stroke="#63b8ff" points="234.81,-411.09 245.32,-412.43 237.93,-404.83 234.81,-411.09"/>
</a>
</g>
</g>
<!-- Node4&#45;&gt;Node3 -->
<g id="edge4_Node000004_Node000003" class="edge">
<title>Node4&#45;&gt;Node3</title>
<g id="a_edge4_Node000004_Node000003"><a xlink:title=" ">
<path fill="none" stroke="#63b8ff" d="M66.62,-219C57.37,-219 48.55,-219 41.19,-219"/>
<polygon fill="#63b8ff" stroke="#63b8ff" points="66.76,-222.5 76.76,-219 66.76,-215.5 66.76,-222.5"/>
</a>
</g>
</g>
<!-- Node5&#45;&gt;Node3 -->
<g id="edge6_Node000005_Node000003" class="edge">
<title>Node5&#45;&gt;Node3</title>
<g id="a_edge6_Node000005_Node000003"><a xlink:title=" ">
<path fill="none" stroke="#63b8ff" d="M244.06,-374.28C193.44,-367.73 125.22,-352.11 77,-315 47.1,-291.99 30.45,-247.94 24.29,-228.56"/>
<polygon fill="#63b8ff" stroke="#63b8ff" points="243.91,-377.79 254.26,-375.51 244.75,-370.84 243.91,-377.79"/>
</a>
</g>
</g>
<!-- Node5&#45;&gt;Node4 -->
<g id="edge7_Node000005_Node000004" class="edge">
<title>Node5&#45;&gt;Node4</title>
<g id="a_edge7_Node000005_Node000004"><a xlink:title=" ">
<path fill="none" stroke="#63b8ff" d="M244.81,-364.06C239.22,-361.5 233.86,-358.51 229,-355 181.23,-320.5 150.12,-253.46 139.79,-228.59"/>
<polygon fill="#63b8ff" stroke="#63b8ff" points="243.8,-367.43 254.38,-367.97 246.45,-360.95 243.8,-367.43"/>
</a>
</g>
</g>
<!-- Node6&#45;&gt;Node3 -->
<g id="edge9_Node000006_Node000003" class="edge">
<title>Node6&#45;&gt;Node3</title>
<g id="a_edge9_Node000006_Node000003"><a xlink:title=" ">
<path fill="none" stroke="#63b8ff" d="M242.18,-328.02C193.05,-323.26 127.47,-311.36 77,-282 54.32,-268.81 36.1,-243.02 27.27,-228.87"/>
<polygon fill="#63b8ff" stroke="#63b8ff" points="242.14,-331.53 252.41,-328.93 242.76,-324.56 242.14,-331.53"/>
</a>
</g>
</g>
<!-- Node6&#45;&gt;Node4 -->
<g id="edge10_Node000006_Node000004" class="edge">
<title>Node6&#45;&gt;Node4</title>
<g id="a_edge10_Node000006_Node000004"><a xlink:title=" ">
<path fill="none" stroke="#63b8ff" d="M242.87,-313.81C238.06,-311.77 233.39,-309.51 229,-307 191.75,-285.73 157.8,-246.51 143.36,-228.5"/>
<polygon fill="#63b8ff" stroke="#63b8ff" points="241.64,-317.09 252.23,-317.46 244.18,-310.56 241.64,-317.09"/>
</a>
</g>
</g>
<!-- Node7&#45;&gt;Node3 -->
<g id="edge12_Node000007_Node000003" class="edge">
<title>Node7&#45;&gt;Node3</title>
<g id="a_edge12_Node000007_Node000003"><a xlink:title=" ">
<path fill="none" stroke="#63b8ff" d="M231.96,-283.09C185.43,-280.88 126.5,-274.13 77,-256 60.04,-249.79 43.14,-237.41 32.52,-228.68"/>
<polygon fill="#63b8ff" stroke="#63b8ff" points="231.85,-286.59 241.99,-283.51 232.14,-279.6 231.85,-286.59"/>
</a>
</g>
</g>
<!-- Node7&#45;&gt;Node4 -->
<g id="edge13_Node000007_Node000004" class="edge">
<title>Node7&#45;&gt;Node4</title>
<g id="a_edge13_Node000007_Node000004"><a xlink:title=" ">
<path fill="none" stroke="#63b8ff" d="M246.92,-265.01C240.83,-263.08 234.78,-261.06 229,-259 203.51,-249.9 175.03,-237.27 156.39,-228.65"/>
<polygon fill="#63b8ff" stroke="#63b8ff" points="245.91,-268.36 256.49,-267.96 247.97,-261.67 245.91,-268.36"/>
</a>
</g>
</g>
<!-- Node8&#45;&gt;Node3 -->
<g id="edge15_Node000008_Node000003" class="edge">
<title>Node8&#45;&gt;Node3</title>
<g id="a_edge15_Node000008_Node000003"><a xlink:title=" ">
<path fill="none" stroke="#63b8ff" d="M218.56,-246.06C175.18,-247.11 123.17,-245.89 77,-238 64.75,-235.91 51.57,-231.49 41.13,-227.45"/>
<polygon fill="#63b8ff" stroke="#63b8ff" points="218.92,-249.56 228.82,-245.77 218.72,-242.56 218.92,-249.56"/>
</a>
</g>
</g>
<!-- Node8&#45;&gt;Node4 -->
<g id="edge16_Node000008_Node000004" class="edge">
<title>Node8&#45;&gt;Node4</title>
<g id="a_edge16_Node000008_Node000004"><a xlink:title=" ">
<path fill="none" stroke="#63b8ff" d="M222.5,-229.29C212.47,-228.1 202.48,-226.91 193.03,-225.79"/>
<polygon fill="#63b8ff" stroke="#63b8ff" points="222.17,-232.78 232.51,-230.48 223,-225.83 222.17,-232.78"/>
</a>
</g>
</g>
<!-- Node9&#45;&gt;Node3 -->
<g id="edge18_Node000009_Node000003" class="edge">
<title>Node9&#45;&gt;Node3</title>
<g id="a_edge18_Node000009_Node000003"><a xlink:title=" ">
<path fill="none" stroke="#63b8ff" d="M242.44,-192.8C195.34,-191.29 132.05,-191.82 77,-201 64.81,-203.03 51.63,-207.22 41.18,-211.04"/>
<polygon fill="#63b8ff" stroke="#63b8ff" points="242.41,-196.3 252.53,-193.16 242.66,-189.3 242.41,-196.3"/>
</a>
</g>
</g>
<!-- Node9&#45;&gt;Node4 -->
<g id="edge19_Node000009_Node000004" class="edge">
<title>Node9&#45;&gt;Node4</title>
<g id="a_edge19_Node000009_Node000004"><a xlink:title=" ">
<path fill="none" stroke="#63b8ff" d="M242.63,-205.71C226.17,-207.76 208.82,-209.92 193.01,-211.89"/>
<polygon fill="#63b8ff" stroke="#63b8ff" points="243.25,-209.16 252.75,-204.45 242.39,-202.21 243.25,-209.16"/>
</a>
</g>
</g>
<!-- Node10&#45;&gt;Node3 -->
<g id="edge21_Node000010_Node000003" class="edge">
<title>Node10&#45;&gt;Node3</title>
<g id="a_edge21_Node000010_Node000003"><a xlink:title=" ">
<path fill="none" stroke="#63b8ff" d="M228.57,-158.64C182.82,-163.01 125.75,-171.5 77,-188 61.95,-193.1 46.27,-202.27 35.43,-209.32"/>
<polygon fill="#63b8ff" stroke="#63b8ff" points="229.1,-162.1 238.75,-157.71 228.47,-155.13 229.1,-162.1"/>
</a>
</g>
</g>
<!-- Node10&#45;&gt;Node4 -->
<g id="edge22_Node000010_Node000004" class="edge">
<title>Node10&#45;&gt;Node4</title>
<g id="a_edge22_Node000010_Node000004"><a xlink:title=" ">
<path fill="none" stroke="#63b8ff" d="M251.83,-166.03C244.06,-168.09 236.29,-170.41 229,-173 201,-182.95 170.46,-199.19 152.28,-209.47"/>
<polygon fill="#63b8ff" stroke="#63b8ff" points="252.77,-169.4 261.62,-163.57 251.06,-162.61 252.77,-169.4"/>
</a>
</g>
</g>
<!-- Node11&#45;&gt;Node3 -->
<g id="edge24_Node000011_Node000003" class="edge">
<title>Node11&#45;&gt;Node3</title>
<g id="a_edge24_Node000011_Node000003"><a xlink:title=" ">
<path fill="none" stroke="#63b8ff" d="M237.38,-113.99C188.93,-118.71 126.04,-130.26 77,-158 54.57,-170.69 36.24,-195.69 27.34,-209.42"/>
<polygon fill="#63b8ff" stroke="#63b8ff" points="237.84,-117.46 247.49,-113.08 237.22,-110.49 237.84,-117.46"/>
</a>
</g>
</g>
<!-- Node11&#45;&gt;Node4 -->
<g id="edge25_Node000011_Node000004" class="edge">
<title>Node11&#45;&gt;Node4</title>
<g id="a_edge25_Node000011_Node000004"><a xlink:title=" ">
<path fill="none" stroke="#63b8ff" d="M241.46,-129.86C237.16,-131.74 232.97,-133.78 229,-136 193.11,-156.06 159.27,-192.07 144.2,-209.3"/>
<polygon fill="#63b8ff" stroke="#63b8ff" points="243.05,-132.99 251.02,-126.01 240.44,-126.5 243.05,-132.99"/>
</a>
</g>
</g>
<!-- Node12&#45;&gt;Node3 -->
<g id="edge27_Node000012_Node000003" class="edge">
<title>Node12&#45;&gt;Node3</title>
<g id="a_edge27_Node000012_Node000003"><a xlink:title=" ">
<path fill="none" stroke="#63b8ff" d="M247.83,-63.37C196.78,-66.76 126.2,-78.68 77,-116 44.96,-140.31 29.28,-188.63 23.82,-209.28"/>
<polygon fill="#63b8ff" stroke="#63b8ff" points="248.31,-66.85 258.09,-62.78 247.91,-59.86 248.31,-66.85"/>
</a>
</g>
</g>
<!-- Node12&#45;&gt;Node4 -->
<g id="edge28_Node000012_Node000004" class="edge">
<title>Node12&#45;&gt;Node4</title>
<g id="a_edge28_Node000012_Node000004"><a xlink:title=" ">
<path fill="none" stroke="#63b8ff" d="M248.74,-76.33C241.75,-79.22 235,-82.73 229,-87 182.18,-120.32 150.71,-184.92 140.03,-209.34"/>
<polygon fill="#63b8ff" stroke="#63b8ff" points="250.21,-79.51 258.38,-72.76 247.78,-72.95 250.21,-79.51"/>
</a>
</g>
</g>
<!-- Node13&#45;&gt;Node3 -->
<g id="edge30_Node000013_Node000003" class="edge">
<title>Node13&#45;&gt;Node3</title>
<g id="a_edge30_Node000013_Node000003"><a xlink:title=" ">
<path fill="none" stroke="#63b8ff" d="M248.13,-12.79C196.08,-14.43 123.96,-24.97 77,-66 32.53,-104.85 23.68,-182.24 21.93,-209.35"/>
<polygon fill="#63b8ff" stroke="#63b8ff" points="248.34,-16.28 258.27,-12.57 248.19,-9.28 248.34,-16.28"/>
</a>
</g>
</g>
<!-- Node13&#45;&gt;Node4 -->
<g id="edge31_Node000013_Node000004" class="edge">
<title>Node13&#45;&gt;Node4</title>
<g id="a_edge31_Node000013_Node000004"><a xlink:title=" ">
<path fill="none" stroke="#63b8ff" d="M248.43,-27.41C241.44,-30.46 234.77,-34.27 229,-39 171.07,-86.51 145.16,-179.57 138.09,-209.49"/>
<polygon fill="#63b8ff" stroke="#63b8ff" points="250.03,-30.55 258.11,-23.7 247.52,-24.01 250.03,-30.55"/>
</a>
</g>
</g>
</g>
</svg>

<g id="navigator" transform="translate(0 0)" fill="#404254">
  <rect fill="#f2f5e9" fill-opacity="0.5" stroke="#606060" stroke-width=".5" x="0" y="0" width="60" height="60"/>
  <use id="zoomplus" xlink:href="#zoomPlus" x="17" y="9" onmousedown="handleZoom(evt,'in')"/>
  <use id="zoomminus" xlink:href="#zoomMin" x="42" y="9" onmousedown="handleZoom(evt,'out')"/>
  <use id="reset" xlink:href="#resetDef" x="30" y="36" onmousedown="handleReset()"/>
   <use id="arrowup" xlink:href="#arrowUp" x="0" y="0" onmousedown="handlePan(0,-1)"/>
  <use id="arrowright" xlink:href="#arrowRight" x="0" y="0" onmousedown="handlePan(1,0)"/>
  <use id="arrowdown" xlink:href="#arrowDown" x="0" y="0" onmousedown="handlePan(0,1)"/>
  <use id="arrowleft" xlink:href="#arrowLeft" x="0" y="0" onmousedown="handlePan(-1,0)"/>
</g>
<svg viewBox="0 0 15 15" width="100%" height="30px" preserveAspectRatio="xMaxYMin meet">
 <g id="arrow_out" transform="scale(0.3 0.3)">
  <a xlink:href="module__executor_8cpp_a7df47e37fd55c553b8fd39cf996d786c_icgraph_org.svg" target="_base">
   <rect id="button" ry="5" rx="5" y="6" x="6" height="38" width="38"
        fill="#f2f5e9" fill-opacity="0.5" stroke="#606060" stroke-width="1.0"/>
   <path id="arrow"
     d="M 11.500037,31.436501 C 11.940474,20.09759 22.043105,11.32322 32.158766,21.979434 L 37.068811,17.246167 C 37.068811,17.246167 37.088388,32 37.088388,32 L 22.160133,31.978069 C 22.160133,31.978069 26.997745,27.140456 26.997745,27.140456 C 18.528582,18.264221 13.291696,25.230495 11.500037,31.436501 z"
     style="fill:#404040;"/>
  </a>
 </g>
</svg>

<style type='text/css'>
<![CDATA[
[data-mouse-over-selected='false'] { opacity: 0.7; }
[data-mouse-over-selected='true']  { opacity: 1.0; }
]]>
</style>
<script type="application/ecmascript"><![CDATA[
document.addEventListener('DOMContentLoaded', (event) => {
  highlightEdges();
  highlightAdjacentNodes();
});
]]></script>
</svg>
