<?xml version="1.0" encoding="UTF-8" standalone="no"?>
<!DOCTYPE svg PUBLIC "-//W3C//DTD SVG 1.1//EN"
 "http://www.w3.org/Graphics/SVG/1.1/DTD/svg11.dtd">
<!-- Generated by graphviz version 2.43.0 (0)
 -->
<!-- Title: core/module_executor.h Pages: 1 -->
<svg width="767pt" height="192pt"
 viewBox="0.00 0.00 766.50 192.00" xmlns="http://www.w3.org/2000/svg" xmlns:xlink="http://www.w3.org/1999/xlink">
<g id="graph0" class="graph" transform="scale(1 1) rotate(0) translate(4 188)">
<title>core/module_executor.h</title>
<!-- Node1 -->
<g id="Node000001" class="node">
<title>Node1</title>
<g id="a_Node000001"><a xlink:title="Command execution functions for Gaussian Extractor.">
<polygon fill="#999999" stroke="#666666" points="483.5,-184 350.5,-184 350.5,-165 483.5,-165 483.5,-184"/>
<text text-anchor="middle" x="417" y="-172" font-family="Helvetica,sans-Serif" font-size="10.00">core/module_executor.h</text>
</a>
</g>
</g>
<!-- Node2 -->
<g id="Node000002" class="node">
<title>Node2</title>
<g id="a_Node000002"><a xlink:href="command__system_8h.html" target="_top" xlink:title="Command parsing and execution system for Gaussian Extractor.">
<polygon fill="white" stroke="#666666" points="475,-129 359,-129 359,-110 475,-110 475,-129"/>
<text text-anchor="middle" x="417" y="-117" font-family="Helvetica,sans-Serif" font-size="10.00">command_system.h</text>
</a>
</g>
</g>
<!-- Node1&#45;&gt;Node2 -->
<g id="edge1_Node000001_Node000002" class="edge">
<title>Node1&#45;&gt;Node2</title>
<g id="a_edge1_Node000001_Node000002"><a xlink:title=" ">
<path fill="none" stroke="#63b8ff" d="M417,-164.75C417,-157.8 417,-147.85 417,-139.13"/>
<polygon fill="#63b8ff" stroke="#63b8ff" points="420.5,-139.09 417,-129.09 413.5,-139.09 420.5,-139.09"/>
</a>
</g>
</g>
<!-- Node3 -->
<g id="Node000003" class="node">
<title>Node3</title>
<g id="a_Node000003"><a xlink:href="config__manager_8h.html" target="_top" xlink:title="Configuration management system for Gaussian Extractor.">
<polygon fill="white" stroke="#666666" points="331.5,-74 228.5,-74 228.5,-55 331.5,-55 331.5,-74"/>
<text text-anchor="middle" x="280" y="-62" font-family="Helvetica,sans-Serif" font-size="10.00">config_manager.h</text>
</a>
</g>
</g>
<!-- Node2&#45;&gt;Node3 -->
<g id="edge2_Node000002_Node000003" class="edge">
<title>Node2&#45;&gt;Node3</title>
<g id="a_edge2_Node000002_Node000003"><a xlink:title=" ">
<path fill="none" stroke="#63b8ff" d="M394.99,-109.98C372.55,-101.3 337.52,-87.75 312.01,-77.88"/>
<polygon fill="#63b8ff" stroke="#63b8ff" points="313,-74.51 302.41,-74.17 310.48,-81.04 313,-74.51"/>
</a>
</g>
</g>
<!-- Node7 -->
<g id="Node000007" class="node">
<title>Node7</title>
<g id="a_Node000007"><a xlink:title=" ">
<polygon fill="#e0e0e0" stroke="#999999" points="459,-19 415,-19 415,0 459,0 459,-19"/>
<text text-anchor="middle" x="437" y="-7" font-family="Helvetica,sans-Serif" font-size="10.00">string</text>
</a>
</g>
</g>
<!-- Node2&#45;&gt;Node7 -->
<g id="edge16_Node000002_Node000007" class="edge">
<title>Node2&#45;&gt;Node7</title>
<g id="a_edge16_Node000002_Node000007"><a xlink:title=" ">
<path fill="none" stroke="#63b8ff" d="M418.64,-109.66C421.88,-92.17 429.17,-52.8 433.52,-29.27"/>
<polygon fill="#63b8ff" stroke="#63b8ff" points="437.02,-29.63 435.4,-19.16 430.13,-28.35 437.02,-29.63"/>
</a>
</g>
</g>
<!-- Node8 -->
<g id="Node000008" class="node">
<title>Node8</title>
<g id="a_Node000008"><a xlink:title=" ">
<polygon fill="#e0e0e0" stroke="#999999" points="331.5,-19 238.5,-19 238.5,0 331.5,0 331.5,-19"/>
<text text-anchor="middle" x="285" y="-7" font-family="Helvetica,sans-Serif" font-size="10.00">unordered_map</text>
</a>
</g>
</g>
<!-- Node2&#45;&gt;Node8 -->
<g id="edge17_Node000002_Node000008" class="edge">
<title>Node2&#45;&gt;Node8</title>
<g id="a_edge17_Node000002_Node000008"><a xlink:title=" ">
<path fill="none" stroke="#63b8ff" d="M406.74,-109.79C392.2,-97.48 364.73,-74.33 341,-55 328.85,-45.1 315.06,-34.14 304.21,-25.57"/>
<polygon fill="#63b8ff" stroke="#63b8ff" points="306.24,-22.72 296.22,-19.29 301.91,-28.22 306.24,-22.72"/>
</a>
</g>
</g>
<!-- Node9 -->
<g id="Node000009" class="node">
<title>Node9</title>
<g id="a_Node000009"><a xlink:title=" ">
<polygon fill="#e0e0e0" stroke="#999999" points="396.5,-19 349.5,-19 349.5,0 396.5,0 396.5,-19"/>
<text text-anchor="middle" x="373" y="-7" font-family="Helvetica,sans-Serif" font-size="10.00">vector</text>
</a>
</g>
</g>
<!-- Node2&#45;&gt;Node9 -->
<g id="edge18_Node000002_Node000009" class="edge">
<title>Node2&#45;&gt;Node9</title>
<g id="a_edge18_Node000002_Node000009"><a xlink:title=" ">
<path fill="none" stroke="#63b8ff" d="M413.4,-109.66C406.21,-92.01 389.94,-52.09 380.39,-28.64"/>
<polygon fill="#63b8ff" stroke="#63b8ff" points="383.54,-27.1 376.53,-19.16 377.06,-29.74 383.54,-27.1"/>
</a>
</g>
</g>
<!-- Node10 -->
<g id="Node000010" class="node">
<title>Node10</title>
<g id="a_Node000010"><a xlink:href="job__scheduler_8h.html" target="_top" xlink:title="Job scheduler detection and resource management for HPC environments.">
<polygon fill="white" stroke="#666666" points="556,-74 464,-74 464,-55 556,-55 556,-74"/>
<text text-anchor="middle" x="510" y="-62" font-family="Helvetica,sans-Serif" font-size="10.00">job_scheduler.h</text>
</a>
</g>
</g>
<!-- Node2&#45;&gt;Node10 -->
<g id="edge9_Node000002_Node000010" class="edge">
<title>Node2&#45;&gt;Node10</title>
<g id="a_edge9_Node000002_Node000010"><a xlink:title=" ">
<path fill="none" stroke="#63b8ff" d="M431.94,-109.98C446.5,-101.69 468.87,-88.94 485.93,-79.22"/>
<polygon fill="#63b8ff" stroke="#63b8ff" points="487.83,-82.16 494.79,-74.17 484.36,-76.08 487.83,-82.16"/>
</a>
</g>
</g>
<!-- Node15 -->
<g id="Node000015" class="node">
<title>Node15</title>
<g id="a_Node000015"><a xlink:title=" ">
<polygon fill="#e0e0e0" stroke="#999999" points="632,-74 574,-74 574,-55 632,-55 632,-74"/>
<text text-anchor="middle" x="603" y="-62" font-family="Helvetica,sans-Serif" font-size="10.00">memory</text>
</a>
</g>
</g>
<!-- Node2&#45;&gt;Node15 -->
<g id="edge15_Node000002_Node000015" class="edge">
<title>Node2&#45;&gt;Node15</title>
<g id="a_edge15_Node000002_Node000015"><a xlink:title=" ">
<path fill="none" stroke="#63b8ff" d="M446.88,-109.98C478.66,-100.93 529.06,-86.57 563.95,-76.63"/>
<polygon fill="#63b8ff" stroke="#63b8ff" points="565.15,-79.93 573.8,-73.82 563.23,-73.19 565.15,-79.93"/>
</a>
</g>
</g>
<!-- Node4 -->
<g id="Node000004" class="node">
<title>Node4</title>
<g id="a_Node000004"><a xlink:title=" ">
<polygon fill="#e0e0e0" stroke="#999999" points="68,-19 0,-19 0,0 68,0 68,-19"/>
<text text-anchor="middle" x="34" y="-7" font-family="Helvetica,sans-Serif" font-size="10.00">filesystem</text>
</a>
</g>
</g>
<!-- Node3&#45;&gt;Node4 -->
<g id="edge3_Node000003_Node000004" class="edge">
<title>Node3&#45;&gt;Node4</title>
<g id="a_edge3_Node000003_Node000004"><a xlink:title=" ">
<path fill="none" stroke="#63b8ff" d="M240.48,-54.98C196.16,-45.44 124.46,-29.99 78.28,-20.04"/>
<polygon fill="#63b8ff" stroke="#63b8ff" points="78.78,-16.57 68.27,-17.88 77.31,-23.41 78.78,-16.57"/>
</a>
</g>
</g>
<!-- Node5 -->
<g id="Node000005" class="node">
<title>Node5</title>
<g id="a_Node000005"><a xlink:title=" ">
<polygon fill="#e0e0e0" stroke="#999999" points="141.5,-19 86.5,-19 86.5,0 141.5,0 141.5,-19"/>
<text text-anchor="middle" x="114" y="-7" font-family="Helvetica,sans-Serif" font-size="10.00">fstream</text>
</a>
</g>
</g>
<!-- Node3&#45;&gt;Node5 -->
<g id="edge4_Node000003_Node000005" class="edge">
<title>Node3&#45;&gt;Node5</title>
<g id="a_edge4_Node000003_Node000005"><a xlink:title=" ">
<path fill="none" stroke="#63b8ff" d="M253.33,-54.98C225.46,-46.09 181.55,-32.07 150.48,-22.15"/>
<polygon fill="#63b8ff" stroke="#63b8ff" points="151.47,-18.79 140.88,-19.08 149.34,-25.46 151.47,-18.79"/>
</a>
</g>
</g>
<!-- Node6 -->
<g id="Node000006" class="node">
<title>Node6</title>
<g id="a_Node000006"><a xlink:title=" ">
<polygon fill="#e0e0e0" stroke="#999999" points="220,-19 160,-19 160,0 220,0 220,-19"/>
<text text-anchor="middle" x="190" y="-7" font-family="Helvetica,sans-Serif" font-size="10.00">iostream</text>
</a>
</g>
</g>
<!-- Node3&#45;&gt;Node6 -->
<g id="edge5_Node000003_Node000006" class="edge">
<title>Node3&#45;&gt;Node6</title>
<g id="a_edge5_Node000003_Node000006"><a xlink:title=" ">
<path fill="none" stroke="#63b8ff" d="M265.54,-54.98C251.58,-46.77 230.21,-34.18 213.75,-24.49"/>
<polygon fill="#63b8ff" stroke="#63b8ff" points="215.12,-21.23 204.72,-19.17 211.56,-27.26 215.12,-21.23"/>
</a>
</g>
</g>
<!-- Node3&#45;&gt;Node7 -->
<g id="edge6_Node000003_Node000007" class="edge">
<title>Node3&#45;&gt;Node7</title>
<g id="a_edge6_Node000003_Node000007"><a xlink:title=" ">
<path fill="none" stroke="#63b8ff" d="M305.22,-54.98C332.36,-45.82 375.59,-31.23 405.07,-21.28"/>
<polygon fill="#63b8ff" stroke="#63b8ff" points="406.53,-24.48 414.88,-17.97 404.29,-17.85 406.53,-24.48"/>
</a>
</g>
</g>
<!-- Node3&#45;&gt;Node8 -->
<g id="edge7_Node000003_Node000008" class="edge">
<title>Node3&#45;&gt;Node8</title>
<g id="a_edge7_Node000003_Node000008"><a xlink:title=" ">
<path fill="none" stroke="#63b8ff" d="M280.83,-54.75C281.48,-47.8 282.42,-37.85 283.24,-29.13"/>
<polygon fill="#63b8ff" stroke="#63b8ff" points="286.73,-29.37 284.19,-19.09 279.77,-28.72 286.73,-29.37"/>
</a>
</g>
</g>
<!-- Node3&#45;&gt;Node9 -->
<g id="edge8_Node000003_Node000009" class="edge">
<title>Node3&#45;&gt;Node9</title>
<g id="a_edge8_Node000003_Node000009"><a xlink:title=" ">
<path fill="none" stroke="#63b8ff" d="M294.94,-54.98C309.5,-46.69 331.87,-33.94 348.93,-24.22"/>
<polygon fill="#63b8ff" stroke="#63b8ff" points="350.83,-27.16 357.79,-19.17 347.36,-21.08 350.83,-27.16"/>
</a>
</g>
</g>
<!-- Node10&#45;&gt;Node7 -->
<g id="edge14_Node000010_Node000007" class="edge">
<title>Node10&#45;&gt;Node7</title>
<g id="a_edge14_Node000010_Node000007"><a xlink:title=" ">
<path fill="none" stroke="#63b8ff" d="M498.27,-54.98C487.27,-47 470.58,-34.88 457.4,-25.31"/>
<polygon fill="#63b8ff" stroke="#63b8ff" points="459.09,-22.21 448.94,-19.17 454.98,-27.88 459.09,-22.21"/>
</a>
</g>
</g>
<!-- Node11 -->
<g id="Node000011" class="node">
<title>Node11</title>
<g id="a_Node000011"><a xlink:title=" ">
<polygon fill="#e0e0e0" stroke="#999999" points="541,-19 477,-19 477,0 541,0 541,-19"/>
<text text-anchor="middle" x="509" y="-7" font-family="Helvetica,sans-Serif" font-size="10.00">algorithm</text>
</a>
</g>
</g>
<!-- Node10&#45;&gt;Node11 -->
<g id="edge10_Node000010_Node000011" class="edge">
<title>Node10&#45;&gt;Node11</title>
<g id="a_edge10_Node000010_Node000011"><a xlink:title=" ">
<path fill="none" stroke="#63b8ff" d="M509.83,-54.75C509.7,-47.8 509.52,-37.85 509.35,-29.13"/>
<polygon fill="#63b8ff" stroke="#63b8ff" points="512.85,-29.02 509.16,-19.09 505.85,-29.15 512.85,-29.02"/>
</a>
</g>
</g>
<!-- Node12 -->
<g id="Node000012" class="node">
<title>Node12</title>
<g id="a_Node000012"><a xlink:title=" ">
<polygon fill="#e0e0e0" stroke="#999999" points="608.5,-19 559.5,-19 559.5,0 608.5,0 608.5,-19"/>
<text text-anchor="middle" x="584" y="-7" font-family="Helvetica,sans-Serif" font-size="10.00">cctype</text>
</a>
</g>
</g>
<!-- Node10&#45;&gt;Node12 -->
<g id="edge11_Node000010_Node000012" class="edge">
<title>Node10&#45;&gt;Node12</title>
<g id="a_edge11_Node000010_Node000012"><a xlink:title=" ">
<path fill="none" stroke="#63b8ff" d="M521.89,-54.98C533.15,-46.92 550.29,-34.65 563.71,-25.03"/>
<polygon fill="#63b8ff" stroke="#63b8ff" points="565.8,-27.84 571.89,-19.17 561.73,-22.15 565.8,-27.84"/>
</a>
</g>
</g>
<!-- Node13 -->
<g id="Node000013" class="node">
<title>Node13</title>
<g id="a_Node000013"><a xlink:title=" ">
<polygon fill="#e0e0e0" stroke="#999999" points="675.5,-19 626.5,-19 626.5,0 675.5,0 675.5,-19"/>
<text text-anchor="middle" x="651" y="-7" font-family="Helvetica,sans-Serif" font-size="10.00">cstdlib</text>
</a>
</g>
</g>
<!-- Node10&#45;&gt;Node13 -->
<g id="edge12_Node000010_Node000013" class="edge">
<title>Node10&#45;&gt;Node13</title>
<g id="a_edge12_Node000010_Node000013"><a xlink:title=" ">
<path fill="none" stroke="#63b8ff" d="M532.65,-54.98C555.85,-46.27 592.12,-32.63 618.4,-22.75"/>
<polygon fill="#63b8ff" stroke="#63b8ff" points="619.8,-25.97 627.93,-19.17 617.34,-19.41 619.8,-25.97"/>
</a>
</g>
</g>
<!-- Node14 -->
<g id="Node000014" class="node">
<title>Node14</title>
<g id="a_Node000014"><a xlink:title=" ">
<polygon fill="#e0e0e0" stroke="#999999" points="758.5,-19 693.5,-19 693.5,0 758.5,0 758.5,-19"/>
<text text-anchor="middle" x="726" y="-7" font-family="Helvetica,sans-Serif" font-size="10.00">functional</text>
</a>
</g>
</g>
<!-- Node10&#45;&gt;Node14 -->
<g id="edge13_Node000010_Node000014" class="edge">
<title>Node10&#45;&gt;Node14</title>
<g id="a_edge13_Node000010_Node000014"><a xlink:title=" ">
<path fill="none" stroke="#63b8ff" d="M544.7,-54.98C582.41,-45.73 642.69,-30.94 683.28,-20.98"/>
<polygon fill="#63b8ff" stroke="#63b8ff" points="684.27,-24.34 693.15,-18.56 682.61,-17.54 684.27,-24.34"/>
</a>
</g>
</g>
</g>
</svg>
