<?xml version="1.0" encoding="UTF-8" standalone="no"?>
<!DOCTYPE svg PUBLIC "-//W3C//DTD SVG 1.1//EN"
 "http://www.w3.org/Graphics/SVG/1.1/DTD/svg11.dtd">
<!-- Generated by graphviz version 2.43.0 (0)
 -->
<!-- Title: core/module_executor.cpp Pages: 1 -->
<svg width="2026pt" height="302pt"
 viewBox="0.00 0.00 2025.80 302.00" xmlns="http://www.w3.org/2000/svg" xmlns:xlink="http://www.w3.org/1999/xlink">
<g id="graph0" class="graph" transform="scale(1 1) rotate(0) translate(4 298)">
<title>core/module_executor.cpp</title>
<!-- Node1 -->
<g id="Node000001" class="node">
<title>Node1</title>
<g id="a_Node000001"><a xlink:title=" ">
<polygon fill="#999999" stroke="#666666" points="1301.8,-294 1157.8,-294 1157.8,-275 1301.8,-275 1301.8,-294"/>
<text text-anchor="middle" x="1229.8" y="-282" font-family="Helvetica,sans-Serif" font-size="10.00">core/module_executor.cpp</text>
</a>
</g>
</g>
<!-- Node2 -->
<g id="Node000002" class="node">
<title>Node2</title>
<g id="a_Node000002"><a xlink:href="module__executor_8h.html" target="_top" xlink:title="Command execution functions for Gaussian Extractor.">
<polygon fill="white" stroke="#666666" points="495.3,-239 386.3,-239 386.3,-220 495.3,-220 495.3,-239"/>
<text text-anchor="middle" x="440.8" y="-227" font-family="Helvetica,sans-Serif" font-size="10.00">module_executor.h</text>
</a>
</g>
</g>
<!-- Node1&#45;&gt;Node2 -->
<g id="edge1_Node000001_Node000002" class="edge">
<title>Node1&#45;&gt;Node2</title>
<g id="a_edge1_Node000001_Node000002"><a xlink:title=" ">
<path fill="none" stroke="#63b8ff" d="M1157.68,-278.66C1005.09,-268.41 651.58,-244.66 505.62,-234.85"/>
<polygon fill="#63b8ff" stroke="#63b8ff" points="505.69,-231.35 495.48,-234.17 505.22,-238.34 505.69,-231.35"/>
</a>
</g>
</g>
<!-- Node6 -->
<g id="Node000006" class="node">
<title>Node6</title>
<g id="a_Node000006"><a xlink:title=" ">
<polygon fill="#e0e0e0" stroke="#999999" points="84.3,-74 29.3,-74 29.3,-55 84.3,-55 84.3,-74"/>
<text text-anchor="middle" x="56.8" y="-62" font-family="Helvetica,sans-Serif" font-size="10.00">fstream</text>
</a>
</g>
</g>
<!-- Node1&#45;&gt;Node6 -->
<g id="edge76_Node000001_Node000006" class="edge">
<title>Node1&#45;&gt;Node6</title>
<g id="a_edge76_Node000001_Node000006"><a xlink:title=" ">
<path fill="none" stroke="#63b8ff" d="M1157.76,-283.83C964.22,-284.15 436.2,-281.01 267.8,-239 212.43,-225.19 196.56,-219.38 151.8,-184 114.54,-154.55 82.69,-107.89 67.07,-82.81"/>
<polygon fill="#63b8ff" stroke="#63b8ff" points="69.93,-80.77 61.74,-74.05 63.95,-84.41 69.93,-80.77"/>
</a>
</g>
</g>
<!-- Node7 -->
<g id="Node000007" class="node">
<title>Node7</title>
<g id="a_Node000007"><a xlink:title=" ">
<polygon fill="#e0e0e0" stroke="#999999" points="162.8,-74 102.8,-74 102.8,-55 162.8,-55 162.8,-74"/>
<text text-anchor="middle" x="132.8" y="-62" font-family="Helvetica,sans-Serif" font-size="10.00">iostream</text>
</a>
</g>
</g>
<!-- Node1&#45;&gt;Node7 -->
<g id="edge78_Node000001_Node000007" class="edge">
<title>Node1&#45;&gt;Node7</title>
<g id="a_edge78_Node000001_Node000007"><a xlink:title=" ">
<path fill="none" stroke="#63b8ff" d="M1157.79,-283.07C980.21,-281.48 525.05,-274 377.8,-239 259.69,-210.93 194.13,-230.66 127.8,-129 119.12,-115.7 121.75,-97.34 125.73,-83.78"/>
<polygon fill="#63b8ff" stroke="#63b8ff" points="129.11,-84.72 129.03,-74.13 122.48,-82.46 129.11,-84.72"/>
</a>
</g>
</g>
<!-- Node8 -->
<g id="Node000008" class="node">
<title>Node8</title>
<g id="a_Node000008"><a xlink:title=" ">
<polygon fill="#e0e0e0" stroke="#999999" points="915.8,-19 871.8,-19 871.8,0 915.8,0 915.8,-19"/>
<text text-anchor="middle" x="893.8" y="-7" font-family="Helvetica,sans-Serif" font-size="10.00">string</text>
</a>
</g>
</g>
<!-- Node1&#45;&gt;Node8 -->
<g id="edge80_Node000001_Node000008" class="edge">
<title>Node1&#45;&gt;Node8</title>
<g id="a_edge80_Node000001_Node000008"><a xlink:title=" ">
<path fill="none" stroke="#63b8ff" d="M1301.86,-275.03C1463.08,-253.47 1829.2,-188.54 1702.8,-55 1675.64,-26.32 1073.27,-13.71 926.04,-11.05"/>
<polygon fill="#63b8ff" stroke="#63b8ff" points="925.92,-7.55 915.86,-10.87 925.8,-14.54 925.92,-7.55"/>
</a>
</g>
</g>
<!-- Node12 -->
<g id="Node000012" class="node">
<title>Node12</title>
<g id="a_Node000012"><a xlink:title=" ">
<polygon fill="#e0e0e0" stroke="#999999" points="333.8,-19 269.8,-19 269.8,0 333.8,0 333.8,-19"/>
<text text-anchor="middle" x="301.8" y="-7" font-family="Helvetica,sans-Serif" font-size="10.00">algorithm</text>
</a>
</g>
</g>
<!-- Node1&#45;&gt;Node12 -->
<g id="edge73_Node000001_Node000012" class="edge">
<title>Node1&#45;&gt;Node12</title>
<g id="a_edge73_Node000001_Node000012"><a xlink:title=" ">
<path fill="none" stroke="#63b8ff" d="M1157.59,-282.82C955.44,-280.52 386.59,-271.3 202.8,-239 110.11,-222.71 0.8,-269.61 0.8,-175.5 0.8,-175.5 0.8,-175.5 0.8,-118.5 0.8,-89.04 -2.39,-74.39 19.8,-55 54.76,-24.44 189.62,-14.78 259.41,-11.79"/>
<polygon fill="#63b8ff" stroke="#63b8ff" points="259.77,-15.28 269.62,-11.38 259.49,-8.28 259.77,-15.28"/>
</a>
</g>
</g>
<!-- Node16 -->
<g id="Node000016" class="node">
<title>Node16</title>
<g id="a_Node000016"><a xlink:title=" ">
<polygon fill="#e0e0e0" stroke="#999999" points="1070.8,-74 1012.8,-74 1012.8,-55 1070.8,-55 1070.8,-74"/>
<text text-anchor="middle" x="1041.8" y="-62" font-family="Helvetica,sans-Serif" font-size="10.00">memory</text>
</a>
</g>
</g>
<!-- Node1&#45;&gt;Node16 -->
<g id="edge79_Node000001_Node000016" class="edge">
<title>Node1&#45;&gt;Node16</title>
<g id="a_edge79_Node000001_Node000016"><a xlink:title=" ">
<path fill="none" stroke="#63b8ff" d="M1205.65,-274.99C1170.63,-261.39 1106.19,-231.34 1071.8,-184 1049.93,-153.91 1043.94,-109.49 1042.34,-84.45"/>
<polygon fill="#63b8ff" stroke="#63b8ff" points="1045.82,-83.98 1041.86,-74.15 1038.83,-84.3 1045.82,-83.98"/>
</a>
</g>
</g>
<!-- Node17 -->
<g id="Node000017" class="node">
<title>Node17</title>
<g id="a_Node000017"><a xlink:href="coord__extractor_8h.html" target="_top" xlink:title="Header file for coordinate extraction command xyz to extract coordinates from Gaussian outputs.">
<polygon fill="white" stroke="#666666" points="944.3,-239 843.3,-239 843.3,-220 944.3,-220 944.3,-239"/>
<text text-anchor="middle" x="893.8" y="-227" font-family="Helvetica,sans-Serif" font-size="10.00">coord_extractor.h</text>
</a>
</g>
</g>
<!-- Node1&#45;&gt;Node17 -->
<g id="edge20_Node000001_Node000017" class="edge">
<title>Node1&#45;&gt;Node17</title>
<g id="a_edge20_Node000001_Node000017"><a xlink:title=" ">
<path fill="none" stroke="#63b8ff" d="M1175.81,-274.98C1115.36,-265.45 1017.62,-250.03 954.55,-240.08"/>
<polygon fill="#63b8ff" stroke="#63b8ff" points="954.77,-236.58 944.35,-238.47 953.68,-243.49 954.77,-236.58"/>
</a>
</g>
</g>
<!-- Node18 -->
<g id="Node000018" class="node">
<title>Node18</title>
<g id="a_Node000018"><a xlink:href="gaussian__extractor_8h.html" target="_top" xlink:title="Core extraction engine and data structures for Gaussian log file processing.">
<polygon fill="white" stroke="#666666" points="1343.8,-129 1225.8,-129 1225.8,-110 1343.8,-110 1343.8,-129"/>
<text text-anchor="middle" x="1284.8" y="-117" font-family="Helvetica,sans-Serif" font-size="10.00">gaussian_extractor.h</text>
</a>
</g>
</g>
<!-- Node1&#45;&gt;Node18 -->
<g id="edge54_Node000001_Node000018" class="edge">
<title>Node1&#45;&gt;Node18</title>
<g id="a_edge54_Node000001_Node000018"><a xlink:title=" ">
<path fill="none" stroke="#63b8ff" d="M1232.75,-274.74C1241.37,-249.2 1266.6,-174.43 1278.47,-139.23"/>
<polygon fill="#63b8ff" stroke="#63b8ff" points="1281.94,-139.9 1281.82,-129.31 1275.31,-137.66 1281.94,-139.9"/>
</a>
</g>
</g>
<!-- Node19 -->
<g id="Node000019" class="node">
<title>Node19</title>
<g id="a_Node000019"><a xlink:title=" ">
<polygon fill="#e0e0e0" stroke="#999999" points="1693.8,-74 1643.8,-74 1643.8,-55 1693.8,-55 1693.8,-74"/>
<text text-anchor="middle" x="1668.8" y="-62" font-family="Helvetica,sans-Serif" font-size="10.00">atomic</text>
</a>
</g>
</g>
<!-- Node1&#45;&gt;Node19 -->
<g id="edge74_Node000001_Node000019" class="edge">
<title>Node1&#45;&gt;Node19</title>
<g id="a_edge74_Node000001_Node000019"><a xlink:title=" ">
<path fill="none" stroke="#63b8ff" d="M1301.83,-282.06C1446.73,-278.57 1763.08,-267.72 1802.8,-239 1851.65,-203.67 1881.84,-157.57 1844.8,-110 1827.68,-88.03 1750.32,-75.18 1704.05,-69.34"/>
<polygon fill="#63b8ff" stroke="#63b8ff" points="1704.19,-65.83 1693.84,-68.1 1703.35,-72.78 1704.19,-65.83"/>
</a>
</g>
</g>
<!-- Node23 -->
<g id="Node000023" class="node">
<title>Node23</title>
<g id="a_Node000023"><a xlink:href="job__checker_8h.html" target="_top" xlink:title="Job status checking and file organization system for Gaussian calculations.">
<polygon fill="white" stroke="#666666" points="1163.3,-184 1080.3,-184 1080.3,-165 1163.3,-165 1163.3,-184"/>
<text text-anchor="middle" x="1121.8" y="-172" font-family="Helvetica,sans-Serif" font-size="10.00">job_checker.h</text>
</a>
</g>
</g>
<!-- Node1&#45;&gt;Node23 -->
<g id="edge69_Node000001_Node000023" class="edge">
<title>Node1&#45;&gt;Node23</title>
<g id="a_edge69_Node000001_Node000023"><a xlink:title=" ">
<path fill="none" stroke="#63b8ff" d="M1220.96,-274.66C1202.75,-256.46 1160.84,-214.55 1137.76,-191.47"/>
<polygon fill="#63b8ff" stroke="#63b8ff" points="1140,-188.75 1130.45,-184.16 1135.05,-193.7 1140,-188.75"/>
</a>
</g>
</g>
<!-- Node26 -->
<g id="Node000026" class="node">
<title>Node26</title>
<g id="a_Node000026"><a xlink:href="create__input_8h.html" target="_top" xlink:title="Header file for Gaussian input file creation from XYZ files.">
<polygon fill="white" stroke="#666666" points="661.8,-184 575.8,-184 575.8,-165 661.8,-165 661.8,-184"/>
<text text-anchor="middle" x="618.8" y="-172" font-family="Helvetica,sans-Serif" font-size="10.00">create_input.h</text>
</a>
</g>
</g>
<!-- Node1&#45;&gt;Node26 -->
<g id="edge46_Node000001_Node000026" class="edge">
<title>Node1&#45;&gt;Node26</title>
<g id="a_edge46_Node000001_Node000026"><a xlink:title=" ">
<path fill="none" stroke="#63b8ff" d="M1157.49,-279.14C1077.84,-273.46 946.24,-261.48 834.8,-239 769,-225.73 694.27,-201.69 652.21,-187.3"/>
<polygon fill="#63b8ff" stroke="#63b8ff" points="653.34,-183.98 642.75,-184.03 651.06,-190.6 653.34,-183.98"/>
</a>
</g>
</g>
<!-- Node27 -->
<g id="Node000027" class="node">
<title>Node27</title>
<g id="a_Node000027"><a xlink:href="high__level__energy_8h.html" target="_top" xlink:title="High&#45;level energy calculations with thermal corrections for Gaussian calculations.">
<polygon fill="white" stroke="#666666" points="1511.3,-184 1398.3,-184 1398.3,-165 1511.3,-165 1511.3,-184"/>
<text text-anchor="middle" x="1454.8" y="-172" font-family="Helvetica,sans-Serif" font-size="10.00">high_level_energy.h</text>
</a>
</g>
</g>
<!-- Node1&#45;&gt;Node27 -->
<g id="edge55_Node000001_Node000027" class="edge">
<title>Node1&#45;&gt;Node27</title>
<g id="a_edge55_Node000001_Node000027"><a xlink:title=" ">
<path fill="none" stroke="#63b8ff" d="M1247.83,-274.84C1287.26,-255.92 1381.32,-210.77 1427.82,-188.45"/>
<polygon fill="#63b8ff" stroke="#63b8ff" points="1429.49,-191.53 1436.99,-184.05 1426.46,-185.22 1429.49,-191.53"/>
</a>
</g>
</g>
<!-- Node28 -->
<g id="Node000028" class="node">
<title>Node28</title>
<g id="a_Node000028"><a xlink:title=" ">
<polygon fill="#e0e0e0" stroke="#999999" points="1835.8,-129 1787.8,-129 1787.8,-110 1835.8,-110 1835.8,-129"/>
<text text-anchor="middle" x="1811.8" y="-117" font-family="Helvetica,sans-Serif" font-size="10.00">thread</text>
</a>
</g>
</g>
<!-- Node1&#45;&gt;Node28 -->
<g id="edge81_Node000001_Node000028" class="edge">
<title>Node1&#45;&gt;Node28</title>
<g id="a_edge81_Node000001_Node000028"><a xlink:title=" ">
<path fill="none" stroke="#63b8ff" d="M1301.91,-281.66C1442.37,-277.51 1742.29,-265.62 1780.8,-239 1812.48,-217.1 1814.85,-166.87 1813.52,-139.36"/>
<polygon fill="#63b8ff" stroke="#63b8ff" points="1816.99,-138.84 1812.8,-129.11 1810.01,-139.33 1816.99,-138.84"/>
</a>
</g>
</g>
<!-- Node32 -->
<g id="Node000032" class="node">
<title>Node32</title>
<g id="a_Node000032"><a xlink:href="version_8h.html" target="_top" xlink:title="Version information and build metadata for Gaussian Extractor.">
<polygon fill="white" stroke="#666666" points="1771.8,-239 1709.8,-239 1709.8,-220 1771.8,-220 1771.8,-239"/>
<text text-anchor="middle" x="1740.8" y="-227" font-family="Helvetica,sans-Serif" font-size="10.00">version.h</text>
</a>
</g>
</g>
<!-- Node1&#45;&gt;Node32 -->
<g id="edge70_Node000001_Node000032" class="edge">
<title>Node1&#45;&gt;Node32</title>
<g id="a_edge70_Node000001_Node000032"><a xlink:title=" ">
<path fill="none" stroke="#63b8ff" d="M1301.88,-278.67C1393.66,-272.05 1556.99,-258.69 1695.8,-239 1696.9,-238.84 1698.01,-238.68 1699.14,-238.51"/>
<polygon fill="#63b8ff" stroke="#63b8ff" points="1700.09,-241.9 1709.38,-236.81 1698.95,-234.99 1700.09,-241.9"/>
</a>
</g>
</g>
<!-- Node34 -->
<g id="Node000034" class="node">
<title>Node34</title>
<g id="a_Node000034"><a xlink:title=" ">
<polygon fill="#e0e0e0" stroke="#999999" points="1943.3,-239 1892.3,-239 1892.3,-220 1943.3,-220 1943.3,-239"/>
<text text-anchor="middle" x="1917.8" y="-227" font-family="Helvetica,sans-Serif" font-size="10.00">csignal</text>
</a>
</g>
</g>
<!-- Node1&#45;&gt;Node34 -->
<g id="edge75_Node000001_Node000034" class="edge">
<title>Node1&#45;&gt;Node34</title>
<g id="a_edge75_Node000001_Node000034"><a xlink:title=" ">
<path fill="none" stroke="#63b8ff" d="M1302.06,-281.86C1422.12,-278.38 1670.07,-268.06 1877.8,-239 1879.25,-238.8 1880.72,-238.57 1882.21,-238.33"/>
<polygon fill="#63b8ff" stroke="#63b8ff" points="1882.86,-241.77 1892.07,-236.52 1881.6,-234.88 1882.86,-241.77"/>
</a>
</g>
</g>
<!-- Node35 -->
<g id="Node000035" class="node">
<title>Node35</title>
<g id="a_Node000035"><a xlink:title=" ">
<polygon fill="#e0e0e0" stroke="#999999" points="2017.8,-239 1961.8,-239 1961.8,-220 2017.8,-220 2017.8,-239"/>
<text text-anchor="middle" x="1989.8" y="-227" font-family="Helvetica,sans-Serif" font-size="10.00">iomanip</text>
</a>
</g>
</g>
<!-- Node1&#45;&gt;Node35 -->
<g id="edge77_Node000001_Node000035" class="edge">
<title>Node1&#45;&gt;Node35</title>
<g id="a_edge77_Node000001_Node000035"><a xlink:title=" ">
<path fill="none" stroke="#63b8ff" d="M1302.03,-282.97C1430.82,-281.17 1708.59,-273.42 1951.52,-238.93"/>
<polygon fill="#63b8ff" stroke="#63b8ff" points="1952.2,-242.37 1961.6,-237.48 1951.21,-235.44 1952.2,-242.37"/>
</a>
</g>
</g>
<!-- Node3 -->
<g id="Node000003" class="node">
<title>Node3</title>
<g id="a_Node000003"><a xlink:href="command__system_8h.html" target="_top" xlink:title="Command parsing and execution system for Gaussian Extractor.">
<polygon fill="white" stroke="#666666" points="401.8,-184 285.8,-184 285.8,-165 401.8,-165 401.8,-184"/>
<text text-anchor="middle" x="343.8" y="-172" font-family="Helvetica,sans-Serif" font-size="10.00">command_system.h</text>
</a>
</g>
</g>
<!-- Node2&#45;&gt;Node3 -->
<g id="edge2_Node000002_Node000003" class="edge">
<title>Node2&#45;&gt;Node3</title>
<g id="a_edge2_Node000002_Node000003"><a xlink:title=" ">
<path fill="none" stroke="#63b8ff" d="M425.21,-219.98C410.03,-211.69 386.7,-198.94 368.9,-189.22"/>
<polygon fill="#63b8ff" stroke="#63b8ff" points="370.12,-185.89 359.66,-184.17 366.76,-192.04 370.12,-185.89"/>
</a>
</g>
</g>
<!-- Node4 -->
<g id="Node000004" class="node">
<title>Node4</title>
<g id="a_Node000004"><a xlink:href="config__manager_8h.html" target="_top" xlink:title="Configuration management system for Gaussian Extractor.">
<polygon fill="white" stroke="#666666" points="239.3,-129 136.3,-129 136.3,-110 239.3,-110 239.3,-129"/>
<text text-anchor="middle" x="187.8" y="-117" font-family="Helvetica,sans-Serif" font-size="10.00">config_manager.h</text>
</a>
</g>
</g>
<!-- Node3&#45;&gt;Node4 -->
<g id="edge3_Node000003_Node000004" class="edge">
<title>Node3&#45;&gt;Node4</title>
<g id="a_edge3_Node000003_Node000004"><a xlink:title=" ">
<path fill="none" stroke="#63b8ff" d="M318.73,-164.98C292.77,-156.16 251.99,-142.31 222.84,-132.41"/>
<polygon fill="#63b8ff" stroke="#63b8ff" points="223.65,-128.99 213.06,-129.08 221.4,-135.61 223.65,-128.99"/>
</a>
</g>
</g>
<!-- Node3&#45;&gt;Node8 -->
<g id="edge17_Node000003_Node000008" class="edge">
<title>Node3&#45;&gt;Node8</title>
<g id="a_edge17_Node000003_Node000008"><a xlink:title=" ">
<path fill="none" stroke="#63b8ff" d="M349.66,-164.74C358.43,-151.96 375.87,-127.79 393.8,-110 407.96,-95.94 446.27,-62.43 464.8,-55 537.02,-26.05 774.72,-14.78 861.62,-11.56"/>
<polygon fill="#63b8ff" stroke="#63b8ff" points="861.81,-15.05 871.68,-11.2 861.56,-8.06 861.81,-15.05"/>
</a>
</g>
</g>
<!-- Node9 -->
<g id="Node000009" class="node">
<title>Node9</title>
<g id="a_Node000009"><a xlink:title=" ">
<polygon fill="#e0e0e0" stroke="#999999" points="312.3,-74 219.3,-74 219.3,-55 312.3,-55 312.3,-74"/>
<text text-anchor="middle" x="265.8" y="-62" font-family="Helvetica,sans-Serif" font-size="10.00">unordered_map</text>
</a>
</g>
</g>
<!-- Node3&#45;&gt;Node9 -->
<g id="edge18_Node000003_Node000009" class="edge">
<title>Node3&#45;&gt;Node9</title>
<g id="a_edge18_Node000003_Node000009"><a xlink:title=" ">
<path fill="none" stroke="#63b8ff" d="M337.41,-164.66C324.44,-146.69 294.79,-105.64 277.99,-82.38"/>
<polygon fill="#63b8ff" stroke="#63b8ff" points="280.74,-80.22 272.05,-74.16 275.07,-84.31 280.74,-80.22"/>
</a>
</g>
</g>
<!-- Node10 -->
<g id="Node000010" class="node">
<title>Node10</title>
<g id="a_Node000010"><a xlink:title=" ">
<polygon fill="#e0e0e0" stroke="#999999" points="865.3,-74 818.3,-74 818.3,-55 865.3,-55 865.3,-74"/>
<text text-anchor="middle" x="841.8" y="-62" font-family="Helvetica,sans-Serif" font-size="10.00">vector</text>
</a>
</g>
</g>
<!-- Node3&#45;&gt;Node10 -->
<g id="edge19_Node000003_Node000010" class="edge">
<title>Node3&#45;&gt;Node10</title>
<g id="a_edge19_Node000003_Node000010"><a xlink:title=" ">
<path fill="none" stroke="#63b8ff" d="M367.04,-165C404.58,-151.55 481.1,-125.33 547.8,-110 640.71,-88.64 752.58,-74.94 807.69,-68.96"/>
<polygon fill="#63b8ff" stroke="#63b8ff" points="808.37,-72.41 817.94,-67.87 807.62,-65.45 808.37,-72.41"/>
</a>
</g>
</g>
<!-- Node11 -->
<g id="Node000011" class="node">
<title>Node11</title>
<g id="a_Node000011"><a xlink:href="job__scheduler_8h.html" target="_top" xlink:title="Job scheduler detection and resource management for HPC environments.">
<polygon fill="white" stroke="#666666" points="422.8,-74 330.8,-74 330.8,-55 422.8,-55 422.8,-74"/>
<text text-anchor="middle" x="376.8" y="-62" font-family="Helvetica,sans-Serif" font-size="10.00">job_scheduler.h</text>
</a>
</g>
</g>
<!-- Node3&#45;&gt;Node11 -->
<g id="edge10_Node000003_Node000011" class="edge">
<title>Node3&#45;&gt;Node11</title>
<g id="a_edge10_Node000003_Node000011"><a xlink:title=" ">
<path fill="none" stroke="#63b8ff" d="M338.7,-164.97C331.95,-152.48 321.76,-128.67 329.8,-110 334.95,-98.03 345.08,-87.76 354.63,-80.12"/>
<polygon fill="#63b8ff" stroke="#63b8ff" points="356.78,-82.88 362.72,-74.11 352.61,-77.26 356.78,-82.88"/>
</a>
</g>
</g>
<!-- Node3&#45;&gt;Node16 -->
<g id="edge16_Node000003_Node000016" class="edge">
<title>Node3&#45;&gt;Node16</title>
<g id="a_edge16_Node000003_Node000016"><a xlink:title=" ">
<path fill="none" stroke="#63b8ff" d="M377.06,-165C430.74,-151.56 539.95,-125.35 633.8,-110 768.34,-88 929.69,-74.03 1002.61,-68.37"/>
<polygon fill="#63b8ff" stroke="#63b8ff" points="1003.01,-71.85 1012.71,-67.6 1002.47,-64.87 1003.01,-71.85"/>
</a>
</g>
</g>
<!-- Node5 -->
<g id="Node000005" class="node">
<title>Node5</title>
<g id="a_Node000005"><a xlink:title=" ">
<polygon fill="#e0e0e0" stroke="#999999" points="622.8,-74 554.8,-74 554.8,-55 622.8,-55 622.8,-74"/>
<text text-anchor="middle" x="588.8" y="-62" font-family="Helvetica,sans-Serif" font-size="10.00">filesystem</text>
</a>
</g>
</g>
<!-- Node4&#45;&gt;Node5 -->
<g id="edge4_Node000004_Node000005" class="edge">
<title>Node4&#45;&gt;Node5</title>
<g id="a_edge4_Node000004_Node000005"><a xlink:title=" ">
<path fill="none" stroke="#63b8ff" d="M239.4,-111.68C318.9,-101.17 469.94,-81.21 544.66,-71.33"/>
<polygon fill="#63b8ff" stroke="#63b8ff" points="545.23,-74.79 554.69,-70.01 544.31,-67.85 545.23,-74.79"/>
</a>
</g>
</g>
<!-- Node4&#45;&gt;Node6 -->
<g id="edge5_Node000004_Node000006" class="edge">
<title>Node4&#45;&gt;Node6</title>
<g id="a_edge5_Node000004_Node000006"><a xlink:title=" ">
<path fill="none" stroke="#63b8ff" d="M166.75,-109.98C145.39,-101.34 112.09,-87.87 87.73,-78.02"/>
<polygon fill="#63b8ff" stroke="#63b8ff" points="88.81,-74.68 78.23,-74.17 86.18,-81.17 88.81,-74.68"/>
</a>
</g>
</g>
<!-- Node4&#45;&gt;Node7 -->
<g id="edge6_Node000004_Node000007" class="edge">
<title>Node4&#45;&gt;Node7</title>
<g id="a_edge6_Node000004_Node000007"><a xlink:title=" ">
<path fill="none" stroke="#63b8ff" d="M178.71,-109.75C170.7,-102.03 158.84,-90.6 149.17,-81.28"/>
<polygon fill="#63b8ff" stroke="#63b8ff" points="151.34,-78.51 141.71,-74.09 146.48,-83.55 151.34,-78.51"/>
</a>
</g>
</g>
<!-- Node4&#45;&gt;Node8 -->
<g id="edge7_Node000004_Node000008" class="edge">
<title>Node4&#45;&gt;Node8</title>
<g id="a_edge7_Node000004_Node000008"><a xlink:title=" ">
<path fill="none" stroke="#63b8ff" d="M188.1,-109.79C189.12,-95.68 193.36,-68.1 210.8,-55 263.19,-15.65 732.33,-11.07 861.18,-10.56"/>
<polygon fill="#63b8ff" stroke="#63b8ff" points="861.57,-14.06 871.56,-10.52 861.55,-7.06 861.57,-14.06"/>
</a>
</g>
</g>
<!-- Node4&#45;&gt;Node9 -->
<g id="edge8_Node000004_Node000009" class="edge">
<title>Node4&#45;&gt;Node9</title>
<g id="a_edge8_Node000004_Node000009"><a xlink:title=" ">
<path fill="none" stroke="#63b8ff" d="M200.33,-109.98C212.2,-101.92 230.26,-89.65 244.41,-80.03"/>
<polygon fill="#63b8ff" stroke="#63b8ff" points="246.73,-82.69 253.04,-74.17 242.8,-76.9 246.73,-82.69"/>
</a>
</g>
</g>
<!-- Node4&#45;&gt;Node10 -->
<g id="edge9_Node000004_Node000010" class="edge">
<title>Node4&#45;&gt;Node10</title>
<g id="a_edge9_Node000004_Node000010"><a xlink:title=" ">
<path fill="none" stroke="#63b8ff" d="M239.39,-114.32C368.13,-103.89 700.89,-76.92 808.03,-68.24"/>
<polygon fill="#63b8ff" stroke="#63b8ff" points="808.57,-71.7 818.25,-67.41 808,-64.73 808.57,-71.7"/>
</a>
</g>
</g>
<!-- Node11&#45;&gt;Node8 -->
<g id="edge15_Node000011_Node000008" class="edge">
<title>Node11&#45;&gt;Node8</title>
<g id="a_edge15_Node000011_Node000008"><a xlink:title=" ">
<path fill="none" stroke="#63b8ff" d="M422.96,-56.75C427.63,-56.13 432.3,-55.54 436.8,-55 595.6,-36.03 786.19,-19.46 861.2,-13.18"/>
<polygon fill="#63b8ff" stroke="#63b8ff" points="861.73,-16.65 871.41,-12.33 861.15,-9.67 861.73,-16.65"/>
</a>
</g>
</g>
<!-- Node11&#45;&gt;Node12 -->
<g id="edge11_Node000011_Node000012" class="edge">
<title>Node11&#45;&gt;Node12</title>
<g id="a_edge11_Node000011_Node000012"><a xlink:title=" ">
<path fill="none" stroke="#63b8ff" d="M364.75,-54.98C353.33,-46.92 335.96,-34.65 322.36,-25.03"/>
<polygon fill="#63b8ff" stroke="#63b8ff" points="324.25,-22.08 314.06,-19.17 320.21,-27.8 324.25,-22.08"/>
</a>
</g>
</g>
<!-- Node13 -->
<g id="Node000013" class="node">
<title>Node13</title>
<g id="a_Node000013"><a xlink:title=" ">
<polygon fill="#e0e0e0" stroke="#999999" points="401.3,-19 352.3,-19 352.3,0 401.3,0 401.3,-19"/>
<text text-anchor="middle" x="376.8" y="-7" font-family="Helvetica,sans-Serif" font-size="10.00">cctype</text>
</a>
</g>
</g>
<!-- Node11&#45;&gt;Node13 -->
<g id="edge12_Node000011_Node000013" class="edge">
<title>Node11&#45;&gt;Node13</title>
<g id="a_edge12_Node000011_Node000013"><a xlink:title=" ">
<path fill="none" stroke="#63b8ff" d="M376.8,-54.75C376.8,-47.8 376.8,-37.85 376.8,-29.13"/>
<polygon fill="#63b8ff" stroke="#63b8ff" points="380.3,-29.09 376.8,-19.09 373.3,-29.09 380.3,-29.09"/>
</a>
</g>
</g>
<!-- Node14 -->
<g id="Node000014" class="node">
<title>Node14</title>
<g id="a_Node000014"><a xlink:title=" ">
<polygon fill="#e0e0e0" stroke="#999999" points="468.3,-19 419.3,-19 419.3,0 468.3,0 468.3,-19"/>
<text text-anchor="middle" x="443.8" y="-7" font-family="Helvetica,sans-Serif" font-size="10.00">cstdlib</text>
</a>
</g>
</g>
<!-- Node11&#45;&gt;Node14 -->
<g id="edge13_Node000011_Node000014" class="edge">
<title>Node11&#45;&gt;Node14</title>
<g id="a_edge13_Node000011_Node000014"><a xlink:title=" ">
<path fill="none" stroke="#63b8ff" d="M387.56,-54.98C397.56,-47.07 412.68,-35.11 424.73,-25.58"/>
<polygon fill="#63b8ff" stroke="#63b8ff" points="427.16,-28.12 432.83,-19.17 422.82,-22.63 427.16,-28.12"/>
</a>
</g>
</g>
<!-- Node15 -->
<g id="Node000015" class="node">
<title>Node15</title>
<g id="a_Node000015"><a xlink:title=" ">
<polygon fill="#e0e0e0" stroke="#999999" points="1317.3,-19 1252.3,-19 1252.3,0 1317.3,0 1317.3,-19"/>
<text text-anchor="middle" x="1284.8" y="-7" font-family="Helvetica,sans-Serif" font-size="10.00">functional</text>
</a>
</g>
</g>
<!-- Node11&#45;&gt;Node15 -->
<g id="edge14_Node000011_Node000015" class="edge">
<title>Node11&#45;&gt;Node15</title>
<g id="a_edge14_Node000011_Node000015"><a xlink:title=" ">
<path fill="none" stroke="#63b8ff" d="M423.07,-60.8C579.95,-51.64 1090.22,-21.86 1241.9,-13"/>
<polygon fill="#63b8ff" stroke="#63b8ff" points="1242.41,-16.48 1252.19,-12.4 1242,-9.49 1242.41,-16.48"/>
</a>
</g>
</g>
<!-- Node17&#45;&gt;Node5 -->
<g id="edge41_Node000017_Node000005" class="edge">
<title>Node17&#45;&gt;Node5</title>
<g id="a_edge41_Node000017_Node000005"><a xlink:title=" ">
<path fill="none" stroke="#63b8ff" d="M886.72,-219.82C868.36,-197.89 816.72,-139.86 760.8,-110 720.43,-88.44 669.09,-76.93 633.04,-71.05"/>
<polygon fill="#63b8ff" stroke="#63b8ff" points="633.26,-67.55 622.84,-69.47 632.19,-74.46 633.26,-67.55"/>
</a>
</g>
</g>
<!-- Node17&#45;&gt;Node8 -->
<g id="edge43_Node000017_Node000008" class="edge">
<title>Node17&#45;&gt;Node8</title>
<g id="a_edge43_Node000017_Node000008"><a xlink:title=" ">
<path fill="none" stroke="#63b8ff" d="M893.8,-219.95C893.8,-187.95 893.8,-74.68 893.8,-29.4"/>
<polygon fill="#63b8ff" stroke="#63b8ff" points="897.3,-29.22 893.8,-19.22 890.3,-29.22 897.3,-29.22"/>
</a>
</g>
</g>
<!-- Node17&#45;&gt;Node10 -->
<g id="edge45_Node000017_Node000010" class="edge">
<title>Node17&#45;&gt;Node10</title>
<g id="a_edge45_Node000017_Node000010"><a xlink:title=" ">
<path fill="none" stroke="#63b8ff" d="M891,-219.74C882.85,-194.2 859,-119.43 847.77,-84.23"/>
<polygon fill="#63b8ff" stroke="#63b8ff" points="850.98,-82.77 844.6,-74.31 844.31,-84.9 850.98,-82.77"/>
</a>
</g>
</g>
<!-- Node17&#45;&gt;Node16 -->
<g id="edge42_Node000017_Node000016" class="edge">
<title>Node17&#45;&gt;Node16</title>
<g id="a_edge42_Node000017_Node000016"><a xlink:title=" ">
<path fill="none" stroke="#63b8ff" d="M901.75,-219.74C925.44,-193.65 995.79,-116.17 1026.81,-82"/>
<polygon fill="#63b8ff" stroke="#63b8ff" points="1029.67,-84.06 1033.8,-74.31 1024.49,-79.36 1029.67,-84.06"/>
</a>
</g>
</g>
<!-- Node17&#45;&gt;Node18 -->
<g id="edge21_Node000017_Node000018" class="edge">
<title>Node17&#45;&gt;Node18</title>
<g id="a_edge21_Node000017_Node000018"><a xlink:title=" ">
<path fill="none" stroke="#63b8ff" d="M944.51,-225.85C1001.45,-221.64 1095.95,-210.92 1172.8,-184 1207.13,-171.97 1243.07,-149.57 1264.71,-134.85"/>
<polygon fill="#63b8ff" stroke="#63b8ff" points="1266.83,-137.64 1273.05,-129.06 1262.84,-131.88 1266.83,-137.64"/>
</a>
</g>
</g>
<!-- Node17&#45;&gt;Node23 -->
<g id="edge32_Node000017_Node000023" class="edge">
<title>Node17&#45;&gt;Node23</title>
<g id="a_edge32_Node000017_Node000023"><a xlink:title=" ">
<path fill="none" stroke="#63b8ff" d="M930.43,-219.98C969.7,-210.86 1032.17,-196.33 1074.98,-186.38"/>
<polygon fill="#63b8ff" stroke="#63b8ff" points="1075.93,-189.76 1084.88,-184.08 1074.34,-182.94 1075.93,-189.76"/>
</a>
</g>
</g>
<!-- Node24 -->
<g id="Node000024" class="node">
<title>Node24</title>
<g id="a_Node000024"><a xlink:href="utils_8h.html" target="_top" xlink:title="Universial functions and classes for all modules.">
<polygon fill="white" stroke="#666666" points="457.3,-129 410.3,-129 410.3,-110 457.3,-110 457.3,-129"/>
<text text-anchor="middle" x="433.8" y="-117" font-family="Helvetica,sans-Serif" font-size="10.00">utils.h</text>
</a>
</g>
</g>
<!-- Node17&#45;&gt;Node24 -->
<g id="edge38_Node000017_Node000024" class="edge">
<title>Node17&#45;&gt;Node24</title>
<g id="a_edge38_Node000017_Node000024"><a xlink:title=" ">
<path fill="none" stroke="#63b8ff" d="M843.2,-226.46C778.05,-222.75 661.9,-212.42 566.8,-184 526.18,-171.87 482.44,-148.85 456.62,-134.11"/>
<polygon fill="#63b8ff" stroke="#63b8ff" points="458.37,-131.08 447.96,-129.09 454.86,-137.13 458.37,-131.08"/>
</a>
</g>
</g>
<!-- Node25 -->
<g id="Node000025" class="node">
<title>Node25</title>
<g id="a_Node000025"><a xlink:title=" ">
<polygon fill="#e0e0e0" stroke="#999999" points="751.8,-129 665.8,-129 665.8,-110 751.8,-110 751.8,-129"/>
<text text-anchor="middle" x="708.8" y="-117" font-family="Helvetica,sans-Serif" font-size="10.00">unordered_set</text>
</a>
</g>
</g>
<!-- Node17&#45;&gt;Node25 -->
<g id="edge44_Node000017_Node000025" class="edge">
<title>Node17&#45;&gt;Node25</title>
<g id="a_edge44_Node000017_Node000025"><a xlink:title=" ">
<path fill="none" stroke="#63b8ff" d="M853.06,-219.94C826.64,-213.09 792.34,-201.65 765.8,-184 747.18,-171.62 730.7,-151.76 720.31,-137.55"/>
<polygon fill="#63b8ff" stroke="#63b8ff" points="723.02,-135.32 714.4,-129.16 717.3,-139.35 723.02,-135.32"/>
</a>
</g>
</g>
<!-- Node18&#45;&gt;Node8 -->
<g id="edge29_Node000018_Node000008" class="edge">
<title>Node18&#45;&gt;Node8</title>
<g id="a_edge29_Node000018_Node000008"><a xlink:title=" ">
<path fill="none" stroke="#63b8ff" d="M1267.38,-109.92C1233.88,-93.47 1162.73,-58.78 1150.8,-55 1072.18,-30.08 975.34,-18.09 926,-13.25"/>
<polygon fill="#63b8ff" stroke="#63b8ff" points="926.22,-9.76 915.93,-12.3 925.56,-16.73 926.22,-9.76"/>
</a>
</g>
</g>
<!-- Node18&#45;&gt;Node10 -->
<g id="edge30_Node000018_Node000010" class="edge">
<title>Node18&#45;&gt;Node10</title>
<g id="a_edge30_Node000018_Node000010"><a xlink:title=" ">
<path fill="none" stroke="#63b8ff" d="M1225.51,-111.41C1131.35,-100.14 950.63,-78.52 875.67,-69.55"/>
<polygon fill="#63b8ff" stroke="#63b8ff" points="875.74,-66.04 865.4,-68.32 874.91,-72.99 875.74,-66.04"/>
</a>
</g>
</g>
<!-- Node18&#45;&gt;Node11 -->
<g id="edge31_Node000018_Node000011" class="edge">
<title>Node18&#45;&gt;Node11</title>
<g id="a_edge31_Node000018_Node000011"><a xlink:title=" ">
<path fill="none" stroke="#63b8ff" d="M1225.57,-115.04C1060.18,-105.39 594.92,-78.23 433.11,-68.79"/>
<polygon fill="#63b8ff" stroke="#63b8ff" points="433.08,-65.28 422.9,-68.19 432.68,-72.27 433.08,-65.28"/>
</a>
</g>
</g>
<!-- Node18&#45;&gt;Node12 -->
<g id="edge22_Node000018_Node000012" class="edge">
<title>Node18&#45;&gt;Node12</title>
<g id="a_edge22_Node000018_Node000012"><a xlink:title=" ">
<path fill="none" stroke="#63b8ff" d="M1260.09,-109.99C1213.74,-94.17 1115.2,-61.25 1079.8,-55 757.27,1.9 668.77,-59.6 343.8,-19 343.69,-18.99 343.59,-18.97 343.49,-18.96"/>
<polygon fill="#63b8ff" stroke="#63b8ff" points="344.23,-15.53 333.82,-17.5 343.18,-22.45 344.23,-15.53"/>
</a>
</g>
</g>
<!-- Node18&#45;&gt;Node15 -->
<g id="edge26_Node000018_Node000015" class="edge">
<title>Node18&#45;&gt;Node15</title>
<g id="a_edge26_Node000018_Node000015"><a xlink:title=" ">
<path fill="none" stroke="#63b8ff" d="M1284.8,-109.66C1284.8,-92.17 1284.8,-52.8 1284.8,-29.27"/>
<polygon fill="#63b8ff" stroke="#63b8ff" points="1288.3,-29.16 1284.8,-19.16 1281.3,-29.16 1288.3,-29.16"/>
</a>
</g>
</g>
<!-- Node18&#45;&gt;Node16 -->
<g id="edge27_Node000018_Node000016" class="edge">
<title>Node18&#45;&gt;Node16</title>
<g id="a_edge27_Node000018_Node000016"><a xlink:title=" ">
<path fill="none" stroke="#63b8ff" d="M1245.75,-109.98C1200.45,-100.1 1126.18,-83.9 1080.86,-74.02"/>
<polygon fill="#63b8ff" stroke="#63b8ff" points="1081.34,-70.54 1070.83,-71.83 1079.85,-77.38 1081.34,-70.54"/>
</a>
</g>
</g>
<!-- Node18&#45;&gt;Node19 -->
<g id="edge23_Node000018_Node000019" class="edge">
<title>Node18&#45;&gt;Node19</title>
<g id="a_edge23_Node000018_Node000019"><a xlink:title=" ">
<path fill="none" stroke="#63b8ff" d="M1343.95,-110.33C1424.86,-99.17 1567.51,-79.48 1633.49,-70.37"/>
<polygon fill="#63b8ff" stroke="#63b8ff" points="1634.35,-73.79 1643.77,-68.95 1633.39,-66.85 1634.35,-73.79"/>
</a>
</g>
</g>
<!-- Node20 -->
<g id="Node000020" class="node">
<title>Node20</title>
<g id="a_Node000020"><a xlink:title=" ">
<polygon fill="#e0e0e0" stroke="#999999" points="1420.3,-74 1313.3,-74 1313.3,-55 1420.3,-55 1420.3,-74"/>
<text text-anchor="middle" x="1366.8" y="-62" font-family="Helvetica,sans-Serif" font-size="10.00">condition_variable</text>
</a>
</g>
</g>
<!-- Node18&#45;&gt;Node20 -->
<g id="edge24_Node000018_Node000020" class="edge">
<title>Node18&#45;&gt;Node20</title>
<g id="a_edge24_Node000018_Node000020"><a xlink:title=" ">
<path fill="none" stroke="#63b8ff" d="M1297.97,-109.98C1310.57,-101.84 1329.8,-89.41 1344.73,-79.76"/>
<polygon fill="#63b8ff" stroke="#63b8ff" points="1346.88,-82.54 1353.38,-74.17 1343.08,-76.66 1346.88,-82.54"/>
</a>
</g>
</g>
<!-- Node21 -->
<g id="Node000021" class="node">
<title>Node21</title>
<g id="a_Node000021"><a xlink:title=" ">
<polygon fill="#e0e0e0" stroke="#999999" points="1256.3,-74 1203.3,-74 1203.3,-55 1256.3,-55 1256.3,-74"/>
<text text-anchor="middle" x="1229.8" y="-62" font-family="Helvetica,sans-Serif" font-size="10.00">cstddef</text>
</a>
</g>
</g>
<!-- Node18&#45;&gt;Node21 -->
<g id="edge25_Node000018_Node000021" class="edge">
<title>Node18&#45;&gt;Node21</title>
<g id="a_edge25_Node000018_Node000021"><a xlink:title=" ">
<path fill="none" stroke="#63b8ff" d="M1275.71,-109.75C1267.7,-102.03 1255.84,-90.6 1246.17,-81.28"/>
<polygon fill="#63b8ff" stroke="#63b8ff" points="1248.34,-78.51 1238.71,-74.09 1243.48,-83.55 1248.34,-78.51"/>
</a>
</g>
</g>
<!-- Node22 -->
<g id="Node000022" class="node">
<title>Node22</title>
<g id="a_Node000022"><a xlink:title=" ">
<polygon fill="#e0e0e0" stroke="#999999" points="1486.8,-74 1438.8,-74 1438.8,-55 1486.8,-55 1486.8,-74"/>
<text text-anchor="middle" x="1462.8" y="-62" font-family="Helvetica,sans-Serif" font-size="10.00">mutex</text>
</a>
</g>
</g>
<!-- Node18&#45;&gt;Node22 -->
<g id="edge28_Node000018_Node000022" class="edge">
<title>Node18&#45;&gt;Node22</title>
<g id="a_edge28_Node000018_Node000022"><a xlink:title=" ">
<path fill="none" stroke="#63b8ff" d="M1313.39,-109.98C1344.83,-100.62 1395.31,-85.59 1428.76,-75.63"/>
<polygon fill="#63b8ff" stroke="#63b8ff" points="1429.97,-78.93 1438.56,-72.72 1427.97,-72.22 1429.97,-78.93"/>
</a>
</g>
</g>
<!-- Node23&#45;&gt;Node5 -->
<g id="edge34_Node000023_Node000005" class="edge">
<title>Node23&#45;&gt;Node5</title>
<g id="a_edge34_Node000023_Node000005"><a xlink:title=" ">
<path fill="none" stroke="#63b8ff" d="M1079.97,-165.03C981.15,-145 733.96,-94.91 632.9,-74.44"/>
<polygon fill="#63b8ff" stroke="#63b8ff" points="633.51,-70.99 623.02,-72.43 632.12,-77.85 633.51,-70.99"/>
</a>
</g>
</g>
<!-- Node23&#45;&gt;Node8 -->
<g id="edge36_Node000023_Node000008" class="edge">
<title>Node23&#45;&gt;Node8</title>
<g id="a_edge36_Node000023_Node000008"><a xlink:title=" ">
<path fill="none" stroke="#63b8ff" d="M1121.42,-164.83C1119.98,-142.91 1113.06,-84.92 1079.8,-55 1057.36,-34.82 973.03,-20.86 925.99,-14.47"/>
<polygon fill="#63b8ff" stroke="#63b8ff" points="926.38,-10.99 916.01,-13.14 925.46,-17.93 926.38,-10.99"/>
</a>
</g>
</g>
<!-- Node23&#45;&gt;Node10 -->
<g id="edge37_Node000023_Node000010" class="edge">
<title>Node23&#45;&gt;Node10</title>
<g id="a_edge37_Node000023_Node000010"><a xlink:title=" ">
<path fill="none" stroke="#63b8ff" d="M1099.35,-164.84C1049.77,-145.72 930.77,-99.82 873.56,-77.75"/>
<polygon fill="#63b8ff" stroke="#63b8ff" points="874.54,-74.38 863.95,-74.05 872.02,-80.91 874.54,-74.38"/>
</a>
</g>
</g>
<!-- Node23&#45;&gt;Node16 -->
<g id="edge35_Node000023_Node000016" class="edge">
<title>Node23&#45;&gt;Node16</title>
<g id="a_edge35_Node000023_Node000016"><a xlink:title=" ">
<path fill="none" stroke="#63b8ff" d="M1115.25,-164.66C1101.94,-146.69 1071.53,-105.64 1054.3,-82.38"/>
<polygon fill="#63b8ff" stroke="#63b8ff" points="1056.97,-80.11 1048.21,-74.16 1051.35,-84.28 1056.97,-80.11"/>
</a>
</g>
</g>
<!-- Node23&#45;&gt;Node18 -->
<g id="edge33_Node000023_Node000018" class="edge">
<title>Node23&#45;&gt;Node18</title>
<g id="a_edge33_Node000023_Node000018"><a xlink:title=" ">
<path fill="none" stroke="#63b8ff" d="M1147.98,-164.98C1175.23,-156.13 1218.1,-142.19 1248.58,-132.28"/>
<polygon fill="#63b8ff" stroke="#63b8ff" points="1249.97,-135.5 1258.4,-129.08 1247.81,-128.85 1249.97,-135.5"/>
</a>
</g>
</g>
<!-- Node24&#45;&gt;Node5 -->
<g id="edge39_Node000024_Node000005" class="edge">
<title>Node24&#45;&gt;Node5</title>
<g id="a_edge39_Node000024_Node000005"><a xlink:title=" ">
<path fill="none" stroke="#63b8ff" d="M457.34,-110.45C483.13,-101.63 524.75,-87.4 554.25,-77.31"/>
<polygon fill="#63b8ff" stroke="#63b8ff" points="555.42,-80.61 563.74,-74.07 553.15,-73.99 555.42,-80.61"/>
</a>
</g>
</g>
<!-- Node24&#45;&gt;Node8 -->
<g id="edge40_Node000024_Node000008" class="edge">
<title>Node24&#45;&gt;Node8</title>
<g id="a_edge40_Node000024_Node000008"><a xlink:title=" ">
<path fill="none" stroke="#63b8ff" d="M447.48,-109.85C472.62,-94.11 525.44,-61.78 545.8,-55 657.51,-17.8 798.95,-11.4 861.51,-10.51"/>
<polygon fill="#63b8ff" stroke="#63b8ff" points="861.6,-14.01 871.56,-10.4 861.52,-7.01 861.6,-14.01"/>
</a>
</g>
</g>
<!-- Node26&#45;&gt;Node5 -->
<g id="edge49_Node000026_Node000005" class="edge">
<title>Node26&#45;&gt;Node5</title>
<g id="a_edge49_Node000026_Node000005"><a xlink:title=" ">
<path fill="none" stroke="#63b8ff" d="M609.78,-164.96C601.73,-156.66 590.5,-143.25 585.8,-129 581.03,-114.57 582.26,-97.3 584.41,-84.41"/>
<polygon fill="#63b8ff" stroke="#63b8ff" points="587.88,-84.89 586.41,-74.4 581.02,-83.52 587.88,-84.89"/>
</a>
</g>
</g>
<!-- Node26&#45;&gt;Node8 -->
<g id="edge51_Node000026_Node000008" class="edge">
<title>Node26&#45;&gt;Node8</title>
<g id="a_edge51_Node000026_Node000008"><a xlink:title=" ">
<path fill="none" stroke="#63b8ff" d="M575.7,-170.94C518.81,-166.55 423.31,-155.37 401.8,-129 396.46,-122.46 397.45,-117.24 401.8,-110 405.13,-104.44 498.6,-56.93 504.8,-55 632.61,-15.16 794.02,-10.28 861.67,-10.15"/>
<polygon fill="#63b8ff" stroke="#63b8ff" points="861.69,-13.65 871.7,-10.17 861.7,-6.65 861.69,-13.65"/>
</a>
</g>
</g>
<!-- Node26&#45;&gt;Node10 -->
<g id="edge53_Node000026_Node000010" class="edge">
<title>Node26&#45;&gt;Node10</title>
<g id="a_edge53_Node000026_Node000010"><a xlink:title=" ">
<path fill="none" stroke="#63b8ff" d="M616.56,-164.87C613.63,-151.38 610.32,-125.24 623.8,-110 647.71,-82.95 752.96,-71.68 807.99,-67.56"/>
<polygon fill="#63b8ff" stroke="#63b8ff" points="808.24,-71.05 817.97,-66.85 807.75,-64.07 808.24,-71.05"/>
</a>
</g>
</g>
<!-- Node26&#45;&gt;Node16 -->
<g id="edge50_Node000026_Node000016" class="edge">
<title>Node26&#45;&gt;Node16</title>
<g id="a_edge50_Node000026_Node000016"><a xlink:title=" ">
<path fill="none" stroke="#63b8ff" d="M621.26,-164.76C625.76,-150.61 636.72,-122.96 656.8,-110 685.47,-91.48 910.6,-74.36 1002.71,-68.06"/>
<polygon fill="#63b8ff" stroke="#63b8ff" points="1003.01,-71.55 1012.75,-67.38 1002.54,-64.56 1003.01,-71.55"/>
</a>
</g>
</g>
<!-- Node26&#45;&gt;Node18 -->
<g id="edge47_Node000026_Node000018" class="edge">
<title>Node26&#45;&gt;Node18</title>
<g id="a_edge47_Node000026_Node000018"><a xlink:title=" ">
<path fill="none" stroke="#63b8ff" d="M661.98,-170.06C774.6,-161.1 1078.04,-136.95 1215.47,-126.02"/>
<polygon fill="#63b8ff" stroke="#63b8ff" points="1215.78,-129.5 1225.47,-125.22 1215.23,-122.53 1215.78,-129.5"/>
</a>
</g>
</g>
<!-- Node26&#45;&gt;Node24 -->
<g id="edge48_Node000026_Node000024" class="edge">
<title>Node26&#45;&gt;Node24</title>
<g id="a_edge48_Node000026_Node000024"><a xlink:title=" ">
<path fill="none" stroke="#63b8ff" d="M589.07,-164.98C555.79,-155.45 501.98,-140.03 467.25,-130.09"/>
<polygon fill="#63b8ff" stroke="#63b8ff" points="468.14,-126.7 457.56,-127.31 466.21,-133.43 468.14,-126.7"/>
</a>
</g>
</g>
<!-- Node26&#45;&gt;Node25 -->
<g id="edge52_Node000026_Node000025" class="edge">
<title>Node26&#45;&gt;Node25</title>
<g id="a_edge52_Node000026_Node000025"><a xlink:title=" ">
<path fill="none" stroke="#63b8ff" d="M633.26,-164.98C647.21,-156.77 668.59,-144.18 685.04,-134.49"/>
<polygon fill="#63b8ff" stroke="#63b8ff" points="687.23,-137.26 694.07,-129.17 683.68,-131.23 687.23,-137.26"/>
</a>
</g>
</g>
<!-- Node27&#45;&gt;Node8 -->
<g id="edge56_Node000027_Node000008" class="edge">
<title>Node27&#45;&gt;Node8</title>
<g id="a_edge56_Node000027_Node000008"><a xlink:title=" ">
<path fill="none" stroke="#63b8ff" d="M1434.43,-164.95C1410.22,-153.53 1374.97,-132.16 1390.8,-110 1421.42,-67.13 1531.65,-93.6 1495.8,-55 1476.24,-33.94 1048.11,-16.3 926.03,-11.68"/>
<polygon fill="#63b8ff" stroke="#63b8ff" points="925.95,-8.17 915.83,-11.3 925.69,-15.17 925.95,-8.17"/>
</a>
</g>
</g>
<!-- Node27&#45;&gt;Node9 -->
<g id="edge67_Node000027_Node000009" class="edge">
<title>Node27&#45;&gt;Node9</title>
<g id="a_edge67_Node000027_Node000009"><a xlink:title=" ">
<path fill="none" stroke="#63b8ff" d="M1398.14,-168.13C1279.78,-156.96 997.65,-130.55 760.8,-110 569,-93.36 517.92,-96.59 322.53,-74"/>
<polygon fill="#63b8ff" stroke="#63b8ff" points="322.85,-70.52 312.51,-72.84 322.04,-77.47 322.85,-70.52"/>
</a>
</g>
</g>
<!-- Node27&#45;&gt;Node10 -->
<g id="edge57_Node000027_Node000010" class="edge">
<title>Node27&#45;&gt;Node10</title>
<g id="a_edge57_Node000027_Node000010"><a xlink:title=" ">
<path fill="none" stroke="#63b8ff" d="M1398.06,-166.04C1337.44,-157.86 1238.6,-143.89 1153.8,-129 1052.05,-111.14 932.6,-85.52 875.51,-72.98"/>
<polygon fill="#63b8ff" stroke="#63b8ff" points="876.11,-69.53 865.59,-70.8 874.6,-76.37 876.11,-69.53"/>
</a>
</g>
</g>
<!-- Node27&#45;&gt;Node15 -->
<g id="edge65_Node000027_Node000015" class="edge">
<title>Node27&#45;&gt;Node15</title>
<g id="a_edge65_Node000027_Node000015"><a xlink:title=" ">
<path fill="none" stroke="#63b8ff" d="M1511.41,-166.88C1601.77,-154.17 1762.62,-121.53 1702.8,-55 1678.02,-27.45 1429.55,-15.61 1327.85,-11.89"/>
<polygon fill="#63b8ff" stroke="#63b8ff" points="1327.73,-8.38 1317.62,-11.52 1327.48,-15.38 1327.73,-8.38"/>
</a>
</g>
</g>
<!-- Node27&#45;&gt;Node16 -->
<g id="edge58_Node000027_Node000016" class="edge">
<title>Node27&#45;&gt;Node16</title>
<g id="a_edge58_Node000027_Node000016"><a xlink:title=" ">
<path fill="none" stroke="#63b8ff" d="M1397.94,-165.54C1349.35,-158.11 1277.83,-145.66 1216.8,-129 1164.58,-114.75 1105.79,-91.97 1071.37,-77.92"/>
<polygon fill="#63b8ff" stroke="#63b8ff" points="1072.5,-74.6 1061.92,-74.03 1069.84,-81.07 1072.5,-74.6"/>
</a>
</g>
</g>
<!-- Node27&#45;&gt;Node18 -->
<g id="edge68_Node000027_Node000018" class="edge">
<title>Node27&#45;&gt;Node18</title>
<g id="a_edge68_Node000027_Node000018"><a xlink:title=" ">
<path fill="none" stroke="#63b8ff" d="M1427.48,-164.98C1398.94,-156.09 1353.97,-142.07 1322.15,-132.15"/>
<polygon fill="#63b8ff" stroke="#63b8ff" points="1322.91,-128.72 1312.32,-129.08 1320.83,-135.4 1322.91,-128.72"/>
</a>
</g>
</g>
<!-- Node27&#45;&gt;Node19 -->
<g id="edge61_Node000027_Node000019" class="edge">
<title>Node27&#45;&gt;Node19</title>
<g id="a_edge61_Node000027_Node000019"><a xlink:title=" ">
<path fill="none" stroke="#63b8ff" d="M1511.5,-172.3C1551.06,-168.71 1602.99,-158.16 1638.8,-129 1652.66,-117.71 1660.48,-98.52 1664.64,-84.19"/>
<polygon fill="#63b8ff" stroke="#63b8ff" points="1668.06,-84.94 1667.14,-74.38 1661.28,-83.21 1668.06,-84.94"/>
</a>
</g>
</g>
<!-- Node27&#45;&gt;Node20 -->
<g id="edge63_Node000027_Node000020" class="edge">
<title>Node27&#45;&gt;Node20</title>
<g id="a_edge63_Node000027_Node000020"><a xlink:title=" ">
<path fill="none" stroke="#63b8ff" d="M1511.36,-166.3C1558.57,-157.96 1614.33,-141.16 1588.8,-110 1578.71,-97.69 1492.5,-83.14 1430.55,-74.12"/>
<polygon fill="#63b8ff" stroke="#63b8ff" points="1430.84,-70.62 1420.44,-72.66 1429.84,-77.55 1430.84,-70.62"/>
</a>
</g>
</g>
<!-- Node27&#45;&gt;Node22 -->
<g id="edge62_Node000027_Node000022" class="edge">
<title>Node27&#45;&gt;Node22</title>
<g id="a_edge62_Node000027_Node000022"><a xlink:title=" ">
<path fill="none" stroke="#63b8ff" d="M1511.66,-165.82C1554.56,-158.73 1608.27,-146.61 1621.8,-129 1655.91,-84.6 1553.74,-71.16 1497.37,-67.16"/>
<polygon fill="#63b8ff" stroke="#63b8ff" points="1497.3,-63.65 1487.09,-66.5 1496.85,-70.63 1497.3,-63.65"/>
</a>
</g>
</g>
<!-- Node27&#45;&gt;Node28 -->
<g id="edge59_Node000027_Node000028" class="edge">
<title>Node27&#45;&gt;Node28</title>
<g id="a_edge59_Node000027_Node000028"><a xlink:title=" ">
<path fill="none" stroke="#63b8ff" d="M1511.36,-165.1C1586.26,-153.98 1716.03,-134.72 1777.55,-125.58"/>
<polygon fill="#63b8ff" stroke="#63b8ff" points="1778.14,-129.03 1787.52,-124.1 1777.11,-122.11 1778.14,-129.03"/>
</a>
</g>
</g>
<!-- Node29 -->
<g id="Node000029" class="node">
<title>Node29</title>
<g id="a_Node000029"><a xlink:title=" ">
<polygon fill="#e0e0e0" stroke="#999999" points="1445.8,-129 1399.8,-129 1399.8,-110 1445.8,-110 1445.8,-129"/>
<text text-anchor="middle" x="1422.8" y="-117" font-family="Helvetica,sans-Serif" font-size="10.00">future</text>
</a>
</g>
</g>
<!-- Node27&#45;&gt;Node29 -->
<g id="edge60_Node000027_Node000029" class="edge">
<title>Node27&#45;&gt;Node29</title>
<g id="a_edge60_Node000027_Node000029"><a xlink:title=" ">
<path fill="none" stroke="#63b8ff" d="M1449.51,-164.75C1445.08,-157.42 1438.63,-146.73 1433.18,-137.7"/>
<polygon fill="#63b8ff" stroke="#63b8ff" points="1436.15,-135.84 1427.98,-129.09 1430.15,-139.46 1436.15,-135.84"/>
</a>
</g>
</g>
<!-- Node30 -->
<g id="Node000030" class="node">
<title>Node30</title>
<g id="a_Node000030"><a xlink:title=" ">
<polygon fill="#e0e0e0" stroke="#999999" points="1511.3,-129 1464.3,-129 1464.3,-110 1511.3,-110 1511.3,-129"/>
<text text-anchor="middle" x="1487.8" y="-117" font-family="Helvetica,sans-Serif" font-size="10.00">queue</text>
</a>
</g>
</g>
<!-- Node27&#45;&gt;Node30 -->
<g id="edge64_Node000027_Node000030" class="edge">
<title>Node27&#45;&gt;Node30</title>
<g id="a_edge64_Node000027_Node000030"><a xlink:title=" ">
<path fill="none" stroke="#63b8ff" d="M1460.24,-164.75C1464.81,-157.42 1471.46,-146.73 1477.09,-137.7"/>
<polygon fill="#63b8ff" stroke="#63b8ff" points="1480.13,-139.43 1482.45,-129.09 1474.19,-135.73 1480.13,-139.43"/>
</a>
</g>
</g>
<!-- Node31 -->
<g id="Node000031" class="node">
<title>Node31</title>
<g id="a_Node000031"><a xlink:title=" ">
<polygon fill="#e0e0e0" stroke="#999999" points="1579.8,-129 1529.8,-129 1529.8,-110 1579.8,-110 1579.8,-129"/>
<text text-anchor="middle" x="1554.8" y="-117" font-family="Helvetica,sans-Serif" font-size="10.00">chrono</text>
</a>
</g>
</g>
<!-- Node27&#45;&gt;Node31 -->
<g id="edge66_Node000027_Node000031" class="edge">
<title>Node27&#45;&gt;Node31</title>
<g id="a_edge66_Node000027_Node000031"><a xlink:title=" ">
<path fill="none" stroke="#63b8ff" d="M1470.86,-164.98C1486.66,-156.61 1511.01,-143.7 1529.43,-133.95"/>
<polygon fill="#63b8ff" stroke="#63b8ff" points="1531.24,-136.95 1538.44,-129.17 1527.96,-130.76 1531.24,-136.95"/>
</a>
</g>
</g>
<!-- Node32&#45;&gt;Node8 -->
<g id="edge71_Node000032_Node000008" class="edge">
<title>Node32&#45;&gt;Node8</title>
<g id="a_edge71_Node000032_Node000008"><a xlink:title=" ">
<path fill="none" stroke="#63b8ff" d="M1737.46,-219.74C1733.05,-206.53 1727.1,-181.32 1738.8,-165 1767.77,-124.56 1815.82,-169.44 1844.8,-129 1876.83,-84.29 1823.89,-73.56 1773.8,-55 1733.35,-40.01 1080.86,-16.88 926.39,-11.6"/>
<polygon fill="#63b8ff" stroke="#63b8ff" points="926.26,-8.09 916.15,-11.25 926.02,-15.09 926.26,-8.09"/>
</a>
</g>
</g>
<!-- Node33 -->
<g id="Node000033" class="node">
<title>Node33</title>
<g id="a_Node000033"><a xlink:title=" ">
<polygon fill="#e0e0e0" stroke="#999999" points="1797.8,-184 1747.8,-184 1747.8,-165 1797.8,-165 1797.8,-184"/>
<text text-anchor="middle" x="1772.8" y="-172" font-family="Helvetica,sans-Serif" font-size="10.00">cstring</text>
</a>
</g>
</g>
<!-- Node32&#45;&gt;Node33 -->
<g id="edge72_Node000032_Node000033" class="edge">
<title>Node32&#45;&gt;Node33</title>
<g id="a_edge72_Node000032_Node000033"><a xlink:title=" ">
<path fill="none" stroke="#63b8ff" d="M1746.08,-219.75C1750.51,-212.42 1756.96,-201.73 1762.41,-192.7"/>
<polygon fill="#63b8ff" stroke="#63b8ff" points="1765.44,-194.46 1767.61,-184.09 1759.44,-190.84 1765.44,-194.46"/>
</a>
</g>
</g>
</g>
</svg>
