<?xml version="1.0" encoding="UTF-8" standalone="no"?>
<!DOCTYPE svg PUBLIC "-//W3C//DTD SVG 1.1//EN"
 "http://www.w3.org/Graphics/SVG/1.1/DTD/svg11.dtd">
<!-- Generated by graphviz version 2.43.0 (0)
 -->
<!-- Title: Utils::generate_unique_filename Pages: 1 -->
<svg width="878pt" height="145pt"
 viewBox="0.00 0.00 878.00 145.18" xmlns="http://www.w3.org/2000/svg" xmlns:xlink="http://www.w3.org/1999/xlink">
<g id="graph0" class="graph" transform="scale(1 1) rotate(0) translate(4 141.18)">
<title>Utils::generate_unique_filename</title>
<!-- Node1 -->
<g id="Node000001" class="node">
<title>Node1</title>
<g id="a_Node000001"><a xlink:title="Generate a unique filename with timestamp suffix if file already exists.">
<polygon fill="#999999" stroke="#666666" points="870,-90.13 743,-90.13 743,-60.13 870,-60.13 870,-90.13"/>
<text text-anchor="start" x="751" y="-78.13" font-family="Helvetica,sans-Serif" font-size="10.00">Utils::generate_unique</text>
<text text-anchor="middle" x="806.5" y="-67.13" font-family="Helvetica,sans-Serif" font-size="10.00">_filename</text>
</a>
</g>
</g>
<!-- Node2 -->
<g id="Node000002" class="node">
<title>Node2</title>
<g id="a_Node000002"><a xlink:href="classParameterParser.html#aca59f8ca90258cef1ac78c0c671c7080" target="_top" xlink:title="Generate template files for all supported calculation types.">
<polygon fill="white" stroke="#666666" points="707,-69.13 561,-69.13 561,-39.13 707,-39.13 707,-69.13"/>
<text text-anchor="start" x="569" y="-57.13" font-family="Helvetica,sans-Serif" font-size="10.00">ParameterParser::generate</text>
<text text-anchor="middle" x="634" y="-46.13" font-family="Helvetica,sans-Serif" font-size="10.00">AllTemplates</text>
</a>
</g>
</g>
<!-- Node1&#45;&gt;Node2 -->
<g id="edge1_Node000001_Node000002" class="edge">
<title>Node1&#45;&gt;Node2</title>
<g id="a_edge1_Node000001_Node000002"><a xlink:title=" ">
<path fill="none" stroke="#63b8ff" d="M732.99,-66.2C724.4,-65.15 715.62,-64.07 707.04,-63.01"/>
<polygon fill="#63b8ff" stroke="#63b8ff" points="732.63,-69.69 742.98,-67.43 733.48,-62.74 732.63,-69.69"/>
</a>
</g>
</g>
<!-- Node3 -->
<g id="Node000003" class="node">
<title>Node3</title>
<g id="a_Node000003"><a xlink:href="group__CommandExecutors.html#ga2c1ceafe241a0b4e19790bb5d878ed1a" target="_top" xlink:title="Parse command&#45;line arguments and create execution context.">
<polygon fill="white" stroke="#666666" points="359,-63.63 229,-63.63 229,-44.63 359,-44.63 359,-63.63"/>
<text text-anchor="middle" x="294" y="-51.63" font-family="Helvetica,sans-Serif" font-size="10.00">CommandParser::parse</text>
</a>
</g>
</g>
<!-- Node1&#45;&gt;Node3 -->
<g id="edge9_Node000001_Node000003" class="edge">
<title>Node1&#45;&gt;Node3</title>
<g id="a_edge9_Node000001_Node000003"><a xlink:title=" ">
<path fill="none" stroke="#63b8ff" d="M755.24,-93.46C676.66,-119.33 520.67,-159.34 395,-121.13 357.61,-109.77 321.49,-79.26 304.73,-63.64"/>
<polygon fill="#63b8ff" stroke="#63b8ff" points="756.52,-96.73 764.89,-90.23 754.3,-90.09 756.52,-96.73"/>
</a>
</g>
</g>
<!-- Node5 -->
<g id="Node000005" class="node">
<title>Node5</title>
<g id="a_Node000005"><a xlink:href="interactive__mode_8cpp.html#a6b615c34054150d837dc45ed1c17b297" target="_top" xlink:title="Enhanced interactive command loop with TAB completion for Windows.">
<polygon fill="white" stroke="#666666" points="193,-25.63 77,-25.63 77,-6.63 193,-6.63 193,-25.63"/>
<text text-anchor="middle" x="135" y="-13.63" font-family="Helvetica,sans-Serif" font-size="10.00">run_interactive_loop</text>
</a>
</g>
</g>
<!-- Node1&#45;&gt;Node5 -->
<g id="edge11_Node000001_Node000005" class="edge">
<title>Node1&#45;&gt;Node5</title>
<g id="a_edge11_Node000001_Node000005"><a xlink:title=" ">
<path fill="none" stroke="#63b8ff" d="M771.3,-55.4C752.89,-45.85 729.4,-35.35 707,-30.13 523.25,12.62 297.26,-0.44 193.29,-9.97"/>
<polygon fill="#63b8ff" stroke="#63b8ff" points="769.7,-58.52 780.17,-60.13 773,-52.34 769.7,-58.52"/>
</a>
</g>
</g>
<!-- Node6 -->
<g id="Node000006" class="node">
<title>Node6</title>
<g id="a_Node000006"><a xlink:href="group__CommandExecutors.html#ga6dd4acb8cb239efc2daf9ad5c4b2afd4" target="_top" xlink:title="Parse options specific to create_input command.">
<polygon fill="white" stroke="#666666" points="525,-112.13 395,-112.13 395,-82.13 525,-82.13 525,-112.13"/>
<text text-anchor="start" x="403" y="-100.13" font-family="Helvetica,sans-Serif" font-size="10.00">CommandParser::parse</text>
<text text-anchor="middle" x="460" y="-89.13" font-family="Helvetica,sans-Serif" font-size="10.00">_create_input_options</text>
</a>
</g>
</g>
<!-- Node1&#45;&gt;Node6 -->
<g id="edge10_Node000001_Node000006" class="edge">
<title>Node1&#45;&gt;Node6</title>
<g id="a_edge10_Node000001_Node000006"><a xlink:title=" ">
<path fill="none" stroke="#63b8ff" d="M732.69,-79.78C671.2,-83.71 583.99,-89.28 525.11,-93.04"/>
<polygon fill="#63b8ff" stroke="#63b8ff" points="732.96,-83.27 742.71,-79.14 732.51,-76.29 732.96,-83.27"/>
</a>
</g>
</g>
<!-- Node2&#45;&gt;Node3 -->
<g id="edge2_Node000002_Node000003" class="edge">
<title>Node2&#45;&gt;Node3</title>
<g id="a_edge2_Node000002_Node000003"><a xlink:title=" ">
<path fill="none" stroke="#63b8ff" d="M550.86,-54.13C491.84,-54.13 413.4,-54.13 359,-54.13"/>
<polygon fill="#63b8ff" stroke="#63b8ff" points="550.91,-57.63 560.91,-54.13 550.91,-50.63 550.91,-57.63"/>
</a>
</g>
</g>
<!-- Node2&#45;&gt;Node5 -->
<g id="edge8_Node000002_Node000005" class="edge">
<title>Node2&#45;&gt;Node5</title>
<g id="a_edge8_Node000002_Node000005"><a xlink:title=" ">
<path fill="none" stroke="#63b8ff" d="M550.84,-47.85C449.92,-40.14 281.3,-27.24 193.34,-20.52"/>
<polygon fill="#63b8ff" stroke="#63b8ff" points="550.76,-51.36 561,-48.63 551.29,-44.38 550.76,-51.36"/>
</a>
</g>
</g>
<!-- Node2&#45;&gt;Node6 -->
<g id="edge6_Node000002_Node000006" class="edge">
<title>Node2&#45;&gt;Node6</title>
<g id="a_edge6_Node000002_Node000006"><a xlink:title=" ">
<path fill="none" stroke="#63b8ff" d="M562.88,-71.66C549.03,-75.13 534.61,-78.73 521.12,-82.1"/>
<polygon fill="#63b8ff" stroke="#63b8ff" points="563.99,-74.99 572.84,-69.17 562.29,-68.2 563.99,-74.99"/>
</a>
</g>
</g>
<!-- Node4 -->
<g id="Node000004" class="node">
<title>Node4</title>
<g id="a_Node000004"><a xlink:href="main_8cpp.html#a0ddf1224851353fc92bfbff6f499fa97" target="_top" xlink:title="Main entry point for the Gaussian Extractor application.">
<polygon fill="white" stroke="#666666" points="41,-44.63 0,-44.63 0,-25.63 41,-25.63 41,-44.63"/>
<text text-anchor="middle" x="20.5" y="-32.63" font-family="Helvetica,sans-Serif" font-size="10.00">main</text>
</a>
</g>
</g>
<!-- Node3&#45;&gt;Node4 -->
<g id="edge3_Node000003_Node000004" class="edge">
<title>Node3&#45;&gt;Node4</title>
<g id="a_edge3_Node000003_Node000004"><a xlink:title=" ">
<path fill="none" stroke="#63b8ff" d="M218.42,-48.92C158.19,-44.7 77.65,-39.06 41.06,-36.5"/>
<polygon fill="#63b8ff" stroke="#63b8ff" points="218.44,-52.43 228.66,-49.63 218.93,-45.44 218.44,-52.43"/>
</a>
</g>
</g>
<!-- Node3&#45;&gt;Node5 -->
<g id="edge4_Node000003_Node000005" class="edge">
<title>Node3&#45;&gt;Node5</title>
<g id="a_edge4_Node000003_Node000005"><a xlink:title=" ">
<path fill="none" stroke="#63b8ff" d="M243.55,-42.17C221.55,-36.84 196.01,-30.66 175.33,-25.65"/>
<polygon fill="#63b8ff" stroke="#63b8ff" points="242.84,-45.59 253.38,-44.55 244.49,-38.79 242.84,-45.59"/>
</a>
</g>
</g>
<!-- Node5&#45;&gt;Node4 -->
<g id="edge5_Node000005_Node000004" class="edge">
<title>Node5&#45;&gt;Node4</title>
<g id="a_edge5_Node000005_Node000004"><a xlink:title=" ">
<path fill="none" stroke="#63b8ff" d="M67.4,-27.38C57.88,-28.99 48.77,-30.53 41.22,-31.8"/>
<polygon fill="#63b8ff" stroke="#63b8ff" points="68.14,-30.81 77.42,-25.69 66.98,-23.9 68.14,-30.81"/>
</a>
</g>
</g>
<!-- Node6&#45;&gt;Node3 -->
<g id="edge7_Node000006_Node000003" class="edge">
<title>Node6&#45;&gt;Node3</title>
<g id="a_edge7_Node000006_Node000003"><a xlink:title=" ">
<path fill="none" stroke="#63b8ff" d="M391.95,-79.55C371.31,-74.14 349.35,-68.38 331.56,-63.72"/>
<polygon fill="#63b8ff" stroke="#63b8ff" points="391.08,-82.94 401.64,-82.1 392.86,-76.17 391.08,-82.94"/>
</a>
</g>
</g>
</g>
</svg>
