<?xml version="1.0" encoding="UTF-8" standalone="no"?>
<!DOCTYPE svg PUBLIC "-//W3C//DTD SVG 1.1//EN"
 "http://www.w3.org/Graphics/SVG/1.1/DTD/svg11.dtd">
<!-- Generated by graphviz version 2.43.0 (0)
 -->
<!-- Title: HelpUtils::print_config_help Pages: 1 -->
<svg width="507pt" height="86pt"
 viewBox="0.00 0.00 507.00 86.00" xmlns="http://www.w3.org/2000/svg" xmlns:xlink="http://www.w3.org/1999/xlink">
<g id="graph0" class="graph" transform="scale(1 1) rotate(0) translate(4 82)">
<title>HelpUtils::print_config_help</title>
<!-- Node1 -->
<g id="Node000001" class="node">
<title>Node1</title>
<g id="a_Node000001"><a xlink:title="Print configuration help information.">
<polygon fill="#999999" stroke="#666666" points="151,-48.5 0,-48.5 0,-29.5 151,-29.5 151,-48.5"/>
<text text-anchor="middle" x="75.5" y="-36.5" font-family="Helvetica,sans-Serif" font-size="10.00">HelpUtils::print_config_help</text>
</a>
</g>
</g>
<!-- Node2 -->
<g id="Node000002" class="node">
<title>Node2</title>
<g id="a_Node000002"><a xlink:href="group__ConfigFileUtils.html#ga09f057aaa03de2ed7c66d9a0ca26e047" target="_top" xlink:title="Get formatted string of configuration file search paths.">
<polygon fill="white" stroke="#666666" points="313,-54 187,-54 187,-24 313,-24 313,-54"/>
<text text-anchor="start" x="195" y="-42" font-family="Helvetica,sans-Serif" font-size="10.00">ConfigUtils::get_config</text>
<text text-anchor="middle" x="250" y="-31" font-family="Helvetica,sans-Serif" font-size="10.00">_search_paths</text>
</a>
</g>
</g>
<!-- Node1&#45;&gt;Node2 -->
<g id="edge1_Node000001_Node000002" class="edge">
<title>Node1&#45;&gt;Node2</title>
<g id="a_edge1_Node000001_Node000002"><a xlink:title=" ">
<path fill="none" stroke="#63b8ff" d="M151.16,-39C159.64,-39 168.27,-39 176.72,-39"/>
<polygon fill="#63b8ff" stroke="#63b8ff" points="176.91,-42.5 186.91,-39 176.91,-35.5 176.91,-42.5"/>
</a>
</g>
</g>
<!-- Node3 -->
<g id="Node000003" class="node">
<title>Node3</title>
<g id="a_Node000003"><a xlink:href="group__ConfigFileUtils.html#gaf98b0febad38de1b8c8b06b5b9808d26" target="_top" xlink:title="Get the directory where the executable is located.">
<polygon fill="white" stroke="#666666" points="499,-78 349,-78 349,-48 499,-48 499,-78"/>
<text text-anchor="start" x="357" y="-66" font-family="Helvetica,sans-Serif" font-size="10.00">ConfigUtils::get_executable</text>
<text text-anchor="middle" x="424" y="-55" font-family="Helvetica,sans-Serif" font-size="10.00">_directory</text>
</a>
</g>
</g>
<!-- Node2&#45;&gt;Node3 -->
<g id="edge2_Node000002_Node000003" class="edge">
<title>Node2&#45;&gt;Node3</title>
<g id="a_edge2_Node000002_Node000003"><a xlink:title=" ">
<path fill="none" stroke="#63b8ff" d="M313.1,-47.66C321.46,-48.83 330.16,-50.05 338.83,-51.26"/>
<polygon fill="#63b8ff" stroke="#63b8ff" points="338.59,-54.76 348.98,-52.67 339.56,-47.82 338.59,-54.76"/>
</a>
</g>
</g>
<!-- Node4 -->
<g id="Node000004" class="node">
<title>Node4</title>
<g id="a_Node000004"><a xlink:href="group__ConfigUtilities.html#gac3e49e311008abed27ce54b805f5f925" target="_top" xlink:title="Get user&#39;s home directory path.">
<polygon fill="white" stroke="#666666" points="486.5,-30 361.5,-30 361.5,0 486.5,0 486.5,-30"/>
<text text-anchor="start" x="369.5" y="-18" font-family="Helvetica,sans-Serif" font-size="10.00">ConfigManager::get</text>
<text text-anchor="middle" x="424" y="-7" font-family="Helvetica,sans-Serif" font-size="10.00">_user_home_directory</text>
</a>
</g>
</g>
<!-- Node2&#45;&gt;Node4 -->
<g id="edge3_Node000002_Node000004" class="edge">
<title>Node2&#45;&gt;Node4</title>
<g id="a_edge3_Node000002_Node000004"><a xlink:title=" ">
<path fill="none" stroke="#63b8ff" d="M313.1,-30.34C325.47,-28.61 338.57,-26.78 351.24,-25.01"/>
<polygon fill="#63b8ff" stroke="#63b8ff" points="351.86,-28.46 361.28,-23.61 350.9,-21.53 351.86,-28.46"/>
</a>
</g>
</g>
</g>
</svg>
