<?xml version="1.0" encoding="UTF-8" standalone="no"?>
<!DOCTYPE svg PUBLIC "-//W3C//DTD SVG 1.1//EN"
 "http://www.w3.org/Graphics/SVG/1.1/DTD/svg11.dtd">
<!-- Generated by graphviz version 2.43.0 (0)
 -->
<!-- Title: HelpUtils::create_default_config Pages: 1 -->
<svg width="787pt" height="137pt"
 viewBox="0.00 0.00 787.00 137.44" xmlns="http://www.w3.org/2000/svg" xmlns:xlink="http://www.w3.org/1999/xlink">
<g id="graph0" class="graph" transform="scale(1 1) rotate(0) translate(4 133.44)">
<title>HelpUtils::create_default_config</title>
<!-- Node1 -->
<g id="Node000001" class="node">
<title>Node1</title>
<g id="a_Node000001"><a xlink:title="Create default configuration file.">
<polygon fill="#999999" stroke="#666666" points="138,-86.44 0,-86.44 0,-56.44 138,-56.44 138,-86.44"/>
<text text-anchor="start" x="8" y="-74.44" font-family="Helvetica,sans-Serif" font-size="10.00">HelpUtils::create_default</text>
<text text-anchor="middle" x="69" y="-63.44" font-family="Helvetica,sans-Serif" font-size="10.00">_config</text>
</a>
</g>
</g>
<!-- Node2 -->
<g id="Node000002" class="node">
<title>Node2</title>
<g id="a_Node000002"><a xlink:href="group__ConfigLoading.html#ga70d81aba8b72b69f84c682808f04e043" target="_top" xlink:title="Create a default configuration file with all options.">
<polygon fill="white" stroke="#666666" points="301,-86.44 174,-86.44 174,-56.44 301,-56.44 301,-86.44"/>
<text text-anchor="start" x="182" y="-74.44" font-family="Helvetica,sans-Serif" font-size="10.00">ConfigManager::create</text>
<text text-anchor="middle" x="237.5" y="-63.44" font-family="Helvetica,sans-Serif" font-size="10.00">_default_config_file</text>
</a>
</g>
</g>
<!-- Node1&#45;&gt;Node2 -->
<g id="edge1_Node000001_Node000002" class="edge">
<title>Node1&#45;&gt;Node2</title>
<g id="a_edge1_Node000001_Node000002"><a xlink:title=" ">
<path fill="none" stroke="#63b8ff" d="M138.2,-71.44C146.57,-71.44 155.14,-71.44 163.57,-71.44"/>
<polygon fill="#63b8ff" stroke="#63b8ff" points="163.76,-74.94 173.76,-71.44 163.76,-67.94 163.76,-74.94"/>
</a>
</g>
</g>
<!-- Node4 -->
<g id="Node000004" class="node">
<title>Node4</title>
<g id="a_Node000004"><a xlink:href="group__ConfigUtilities.html#gac3e49e311008abed27ce54b805f5f925" target="_top" xlink:title="Get user&#39;s home directory path.">
<polygon fill="white" stroke="#666666" points="462,-129.44 337,-129.44 337,-99.44 462,-99.44 462,-129.44"/>
<text text-anchor="start" x="345" y="-117.44" font-family="Helvetica,sans-Serif" font-size="10.00">ConfigManager::get</text>
<text text-anchor="middle" x="399.5" y="-106.44" font-family="Helvetica,sans-Serif" font-size="10.00">_user_home_directory</text>
</a>
</g>
</g>
<!-- Node1&#45;&gt;Node4 -->
<g id="edge8_Node000001_Node000004" class="edge">
<title>Node1&#45;&gt;Node4</title>
<g id="a_edge8_Node000001_Node000004"><a xlink:title=" ">
<path fill="none" stroke="#63b8ff" d="M128.57,-86.49C143.32,-89.85 159.17,-93.11 174,-95.44 224.73,-103.4 282.46,-108.19 326.68,-110.97"/>
<polygon fill="#63b8ff" stroke="#63b8ff" points="326.56,-114.47 336.76,-111.58 326.99,-107.48 326.56,-114.47"/>
</a>
</g>
</g>
<!-- Node5 -->
<g id="Node000005" class="node">
<title>Node5</title>
<g id="a_Node000005"><a xlink:href="group__ConfigStatus.html#ga7c7cdb2c9c181a160a58bfe1b87284f8" target="_top" xlink:title="Print complete configuration file template.">
<polygon fill="white" stroke="#666666" points="460,-43.44 339,-43.44 339,-13.44 460,-13.44 460,-43.44"/>
<text text-anchor="start" x="347" y="-31.44" font-family="Helvetica,sans-Serif" font-size="10.00">ConfigManager::print</text>
<text text-anchor="middle" x="399.5" y="-20.44" font-family="Helvetica,sans-Serif" font-size="10.00">_config_file_template</text>
</a>
</g>
</g>
<!-- Node1&#45;&gt;Node5 -->
<g id="edge9_Node000001_Node000005" class="edge">
<title>Node1&#45;&gt;Node5</title>
<g id="a_edge9_Node000001_Node000005"><a xlink:title=" ">
<path fill="none" stroke="#63b8ff" d="M128.57,-56.39C143.32,-53.02 159.17,-49.76 174,-47.44 225.44,-39.37 284.1,-34.55 328.55,-31.79"/>
<polygon fill="#63b8ff" stroke="#63b8ff" points="328.89,-35.27 338.67,-31.18 328.47,-28.29 328.89,-35.27"/>
</a>
</g>
</g>
<!-- Node3 -->
<g id="Node000003" class="node">
<title>Node3</title>
<g id="a_Node000003"><a xlink:href="group__ConfigInternals.html#ga5e387d61b1f34873cd3ab047242b2aad" target="_top" xlink:title="Template method for type&#45;safe value conversion.">
<polygon fill="white" stroke="#666666" points="779,-43.44 646,-43.44 646,-13.44 779,-13.44 779,-43.44"/>
<text text-anchor="start" x="654" y="-31.44" font-family="Helvetica,sans-Serif" font-size="10.00">ConfigManager::convert</text>
<text text-anchor="middle" x="712.5" y="-20.44" font-family="Helvetica,sans-Serif" font-size="10.00">_value</text>
</a>
</g>
</g>
<!-- Node2&#45;&gt;Node3 -->
<g id="edge2_Node000002_Node000003" class="edge">
<title>Node2&#45;&gt;Node3</title>
<g id="a_edge2_Node000002_Node000003"><a xlink:title=" ">
<path fill="none" stroke="#63b8ff" d="M301.28,-71.68C375.41,-71.17 502.27,-67.8 610,-52.44 621.76,-50.76 634.17,-48.37 646.11,-45.73"/>
<polygon fill="#63b8ff" stroke="#63b8ff" points="647.03,-49.11 656,-43.47 645.48,-42.29 647.03,-49.11"/>
</a>
</g>
</g>
<!-- Node2&#45;&gt;Node4 -->
<g id="edge3_Node000002_Node000004" class="edge">
<title>Node2&#45;&gt;Node4</title>
<g id="a_edge3_Node000002_Node000004"><a xlink:title=" ">
<path fill="none" stroke="#63b8ff" d="M294.46,-86.48C306.76,-89.78 319.9,-93.31 332.55,-96.71"/>
<polygon fill="#63b8ff" stroke="#63b8ff" points="332.01,-100.19 342.57,-99.41 333.82,-93.43 332.01,-100.19"/>
</a>
</g>
</g>
<!-- Node2&#45;&gt;Node5 -->
<g id="edge4_Node000002_Node000005" class="edge">
<title>Node2&#45;&gt;Node5</title>
<g id="a_edge4_Node000002_Node000005"><a xlink:title=" ">
<path fill="none" stroke="#63b8ff" d="M294.46,-56.4C306.76,-53.09 319.9,-49.56 332.55,-46.16"/>
<polygon fill="#63b8ff" stroke="#63b8ff" points="333.82,-49.44 342.57,-43.47 332.01,-42.68 333.82,-49.44"/>
</a>
</g>
</g>
<!-- Node5&#45;&gt;Node3 -->
<g id="edge5_Node000005_Node000003" class="edge">
<title>Node5&#45;&gt;Node3</title>
<g id="a_edge5_Node000005_Node000003"><a xlink:title=" ">
<path fill="none" stroke="#63b8ff" d="M451.68,-13.38C466.49,-9.7 482.77,-6.28 498,-4.44 547.42,1.55 560.56,1.33 610,-4.44 622.49,-5.89 635.67,-8.33 648.25,-11.1"/>
<polygon fill="#63b8ff" stroke="#63b8ff" points="647.65,-14.55 658.18,-13.38 649.22,-7.73 647.65,-14.55"/>
</a>
</g>
</g>
<!-- Node6 -->
<g id="Node000006" class="node">
<title>Node6</title>
<g id="a_Node000006"><a xlink:href="group__ConfigQueries.html#ga3a9a6a1e548b293dd0672222a18594eb" target="_top" xlink:title="Get all configuration keys belonging to a specific category.">
<polygon fill="white" stroke="#666666" points="610,-43.44 498,-43.44 498,-13.44 610,-13.44 610,-43.44"/>
<text text-anchor="start" x="506" y="-31.44" font-family="Helvetica,sans-Serif" font-size="10.00">ConfigManager::get</text>
<text text-anchor="middle" x="554" y="-20.44" font-family="Helvetica,sans-Serif" font-size="10.00">_keys_by_category</text>
</a>
</g>
</g>
<!-- Node5&#45;&gt;Node6 -->
<g id="edge6_Node000005_Node000006" class="edge">
<title>Node5&#45;&gt;Node6</title>
<g id="a_edge6_Node000005_Node000006"><a xlink:title=" ">
<path fill="none" stroke="#63b8ff" d="M460.33,-28.44C469.31,-28.44 478.6,-28.44 487.68,-28.44"/>
<polygon fill="#63b8ff" stroke="#63b8ff" points="487.81,-31.94 497.81,-28.44 487.81,-24.94 487.81,-31.94"/>
</a>
</g>
</g>
<!-- Node6&#45;&gt;Node3 -->
<g id="edge7_Node000006_Node000003" class="edge">
<title>Node6&#45;&gt;Node3</title>
<g id="a_edge7_Node000006_Node000003"><a xlink:title=" ">
<path fill="none" stroke="#63b8ff" d="M610.18,-28.44C618.46,-28.44 627.13,-28.44 635.75,-28.44"/>
<polygon fill="#63b8ff" stroke="#63b8ff" points="635.83,-31.94 645.83,-28.44 635.83,-24.94 635.83,-31.94"/>
</a>
</g>
</g>
</g>
</svg>
