<?xml version="1.0" encoding="UTF-8" standalone="no"?>
<!DOCTYPE svg PUBLIC "-//W3C//DTD SVG 1.1//EN"
 "http://www.w3.org/Graphics/SVG/1.1/DTD/svg11.dtd">
<!-- Generated by graphviz version 2.43.0 (0)
 -->
<!-- Title: Metadata::create_header_line Pages: 1 -->
<svg width="1118pt" height="321pt"
 viewBox="0.00 0.00 1118.00 320.50" xmlns="http://www.w3.org/2000/svg" xmlns:xlink="http://www.w3.org/1999/xlink">
<g id="graph0" class="graph" transform="scale(1 1) rotate(0) translate(4 316.5)">
<title>Metadata::create_header_line</title>
<!-- Node1 -->
<g id="Node000001" class="node">
<title>Node1</title>
<g id="a_Node000001"><a xlink:title=" ">
<polygon fill="#999999" stroke="#666666" points="1110,-87 948,-87 948,-68 1110,-68 1110,-87"/>
<text text-anchor="middle" x="1029" y="-75" font-family="Helvetica,sans-Serif" font-size="10.00">Metadata::create_header_line</text>
</a>
</g>
</g>
<!-- Node2 -->
<g id="Node000002" class="node">
<title>Node2</title>
<g id="a_Node000002"><a xlink:href="namespaceMetadata.html#a4447a0ff55fb6119acf046c55f0729d8" target="_top" xlink:title="Build the standard header banner shown at the top of outputs.">
<polygon fill="white" stroke="#666666" points="912,-87 809,-87 809,-68 912,-68 912,-87"/>
<text text-anchor="middle" x="860.5" y="-75" font-family="Helvetica,sans-Serif" font-size="10.00">Metadata::header</text>
</a>
</g>
</g>
<!-- Node1&#45;&gt;Node2 -->
<g id="edge1_Node000001_Node000002" class="edge">
<title>Node1&#45;&gt;Node2</title>
<g id="a_edge1_Node000001_Node000002"><a xlink:title=" ">
<path fill="none" stroke="#63b8ff" d="M937.44,-77.5C928.73,-77.5 920.14,-77.5 912.04,-77.5"/>
<polygon fill="#63b8ff" stroke="#63b8ff" points="937.68,-81 947.68,-77.5 937.68,-74 937.68,-81"/>
</a>
</g>
</g>
<!-- Node3 -->
<g id="Node000003" class="node">
<title>Node3</title>
<g id="a_Node000003"><a xlink:href="high__level__energy_8cpp.html#a4ef54a725bad93aecbd43800acfbf532" target="_top" xlink:title=" ">
<polygon fill="white" stroke="#666666" points="752.5,-163 651.5,-163 651.5,-144 752.5,-144 752.5,-163"/>
<text text-anchor="middle" x="702" y="-151" font-family="Helvetica,sans-Serif" font-size="10.00">print_header_box</text>
</a>
</g>
</g>
<!-- Node2&#45;&gt;Node3 -->
<g id="edge2_Node000002_Node000003" class="edge">
<title>Node2&#45;&gt;Node3</title>
<g id="a_edge2_Node000002_Node000003"><a xlink:title=" ">
<path fill="none" stroke="#63b8ff" d="M830.55,-91.56C799.14,-106.81 749.85,-130.75 722.66,-143.95"/>
<polygon fill="#63b8ff" stroke="#63b8ff" points="832.21,-94.64 839.68,-87.13 829.15,-88.35 832.21,-94.64"/>
</a>
</g>
</g>
<!-- Node16 -->
<g id="Node000016" class="node">
<title>Node16</title>
<g id="a_Node000016"><a xlink:href="group__MemoryMonitorImpl.html#ga2f3e6563006e068b95ebf65b9942ccee" target="_top" xlink:title="Process multiple files and output formatted results.">
<polygon fill="white" stroke="#666666" points="773,-69 631,-69 631,-50 773,-50 773,-69"/>
<text text-anchor="middle" x="702" y="-57" font-family="Helvetica,sans-Serif" font-size="10.00">processAndOutputResults</text>
</a>
</g>
</g>
<!-- Node2&#45;&gt;Node16 -->
<g id="edge20_Node000002_Node000016" class="edge">
<title>Node2&#45;&gt;Node16</title>
<g id="a_edge20_Node000002_Node000016"><a xlink:title=" ">
<path fill="none" stroke="#63b8ff" d="M798.67,-70.5C790.31,-69.54 781.68,-68.55 773.18,-67.57"/>
<polygon fill="#63b8ff" stroke="#63b8ff" points="798.35,-73.99 808.69,-71.66 799.15,-67.04 798.35,-73.99"/>
</a>
</g>
</g>
<!-- Node4 -->
<g id="Node000004" class="node">
<title>Node4</title>
<g id="a_Node000004"><a xlink:href="group__OutputFunctions.html#ga3578194a0e7fcca0bb3b023afa33bdec" target="_top" xlink:title="Print results in CSV format with detailed energy components.">
<polygon fill="white" stroke="#666666" points="589.5,-120.5 419.5,-120.5 419.5,-90.5 589.5,-90.5 589.5,-120.5"/>
<text text-anchor="start" x="427.5" y="-108.5" font-family="Helvetica,sans-Serif" font-size="10.00">HighLevelEnergyCalculator</text>
<text text-anchor="middle" x="504.5" y="-97.5" font-family="Helvetica,sans-Serif" font-size="10.00">::print_components_csv_format</text>
</a>
</g>
</g>
<!-- Node3&#45;&gt;Node4 -->
<g id="edge3_Node000003_Node000004" class="edge">
<title>Node3&#45;&gt;Node4</title>
<g id="a_edge3_Node000003_Node000004"><a xlink:title=" ">
<path fill="none" stroke="#63b8ff" d="M651.98,-141.46C626.17,-135.13 594.28,-127.3 566.85,-120.56"/>
<polygon fill="#63b8ff" stroke="#63b8ff" points="651.36,-144.92 661.91,-143.9 653.03,-138.12 651.36,-144.92"/>
</a>
</g>
</g>
<!-- Node8 -->
<g id="Node000008" class="node">
<title>Node8</title>
<g id="a_Node000008"><a xlink:href="group__DynamicOutputFormatting.html#ga3a4bf6a916d8b341fff654d3f1da54c9" target="_top" xlink:title="Print results in components format with dynamic column widths.">
<polygon fill="white" stroke="#666666" points="579,-72 430,-72 430,-31 579,-31 579,-72"/>
<text text-anchor="start" x="438" y="-60" font-family="Helvetica,sans-Serif" font-size="10.00">HighLevelEnergyCalculator</text>
<text text-anchor="start" x="438" y="-49" font-family="Helvetica,sans-Serif" font-size="10.00">::print_components_format</text>
<text text-anchor="middle" x="504.5" y="-38" font-family="Helvetica,sans-Serif" font-size="10.00">_dynamic</text>
</a>
</g>
</g>
<!-- Node3&#45;&gt;Node8 -->
<g id="edge8_Node000003_Node000008" class="edge">
<title>Node3&#45;&gt;Node8</title>
<g id="a_edge8_Node000003_Node000008"><a xlink:title=" ">
<path fill="none" stroke="#63b8ff" d="M681.3,-137.68C660.74,-121.78 627.09,-97.4 595,-81.5 588.25,-78.15 581.03,-75.04 573.73,-72.19"/>
<polygon fill="#63b8ff" stroke="#63b8ff" points="679.24,-140.51 689.27,-143.93 683.56,-135.01 679.24,-140.51"/>
</a>
</g>
</g>
<!-- Node10 -->
<g id="Node000010" class="node">
<title>Node10</title>
<g id="a_Node000010"><a xlink:href="group__DynamicOutputFormatting.html#ga932472faa109e17046c43975dfb053fb" target="_top" xlink:title="Print results in components format with static column widths.">
<polygon fill="white" stroke="#666666" points="595,-264.5 414,-264.5 414,-234.5 595,-234.5 595,-264.5"/>
<text text-anchor="start" x="422" y="-252.5" font-family="Helvetica,sans-Serif" font-size="10.00">HighLevelEnergyCalculator</text>
<text text-anchor="middle" x="504.5" y="-241.5" font-family="Helvetica,sans-Serif" font-size="10.00">::print_components_format_static</text>
</a>
</g>
</g>
<!-- Node3&#45;&gt;Node10 -->
<g id="edge11_Node000003_Node000010" class="edge">
<title>Node3&#45;&gt;Node10</title>
<g id="a_edge11_Node000003_Node000010"><a xlink:title=" ">
<path fill="none" stroke="#63b8ff" d="M681.83,-169.46C661.46,-185.69 627.74,-210.51 595,-225.5 587.69,-228.85 579.82,-231.8 571.88,-234.39"/>
<polygon fill="#63b8ff" stroke="#63b8ff" points="684.13,-172.1 689.7,-163.09 679.72,-166.66 684.13,-172.1"/>
</a>
</g>
</g>
<!-- Node11 -->
<g id="Node000011" class="node">
<title>Node11</title>
<g id="a_Node000011"><a xlink:href="group__OutputFunctions.html#gacb8b3c91ca4914d5c3bca035e3843ac2" target="_top" xlink:title="Print results in CSV format optimized for Gibbs energies.">
<polygon fill="white" stroke="#666666" points="579,-168.5 430,-168.5 430,-138.5 579,-138.5 579,-168.5"/>
<text text-anchor="start" x="438" y="-156.5" font-family="Helvetica,sans-Serif" font-size="10.00">HighLevelEnergyCalculator</text>
<text text-anchor="middle" x="504.5" y="-145.5" font-family="Helvetica,sans-Serif" font-size="10.00">::print_gibbs_csv_format</text>
</a>
</g>
</g>
<!-- Node3&#45;&gt;Node11 -->
<g id="edge12_Node000003_Node000011" class="edge">
<title>Node3&#45;&gt;Node11</title>
<g id="a_edge12_Node000003_Node000011"><a xlink:title=" ">
<path fill="none" stroke="#63b8ff" d="M641.38,-153.5C621.72,-153.5 599.62,-153.5 579.05,-153.5"/>
<polygon fill="#63b8ff" stroke="#63b8ff" points="641.41,-157 651.41,-153.5 641.41,-150 641.41,-157"/>
</a>
</g>
</g>
<!-- Node13 -->
<g id="Node000013" class="node">
<title>Node13</title>
<g id="a_Node000013"><a xlink:href="group__DynamicOutputFormatting.html#ga1b6138e25512b7d0efdca762f53d8c00" target="_top" xlink:title="Print results in Gibbs format with dynamic column widths.">
<polygon fill="white" stroke="#666666" points="585.5,-312.5 423.5,-312.5 423.5,-282.5 585.5,-282.5 585.5,-312.5"/>
<text text-anchor="start" x="431.5" y="-300.5" font-family="Helvetica,sans-Serif" font-size="10.00">HighLevelEnergyCalculator</text>
<text text-anchor="middle" x="504.5" y="-289.5" font-family="Helvetica,sans-Serif" font-size="10.00">::print_gibbs_format_dynamic</text>
</a>
</g>
</g>
<!-- Node3&#45;&gt;Node13 -->
<g id="edge16_Node000003_Node000013" class="edge">
<title>Node3&#45;&gt;Node13</title>
<g id="a_edge16_Node000003_Node000013"><a xlink:title=" ">
<path fill="none" stroke="#63b8ff" d="M689.74,-172.02C672.62,-198.58 637.51,-247.16 595,-273.5 589.39,-276.97 583.29,-279.95 576.98,-282.5"/>
<polygon fill="#63b8ff" stroke="#63b8ff" points="692.85,-173.65 695.21,-163.32 686.93,-169.92 692.85,-173.65"/>
</a>
</g>
</g>
<!-- Node15 -->
<g id="Node000015" class="node">
<title>Node15</title>
<g id="a_Node000015"><a xlink:href="group__DynamicOutputFormatting.html#ga3a3430c4a259752ea6a75b60cbad38cf" target="_top" xlink:title="Print results in Gibbs format with static column widths.">
<polygon fill="white" stroke="#666666" points="579,-216.5 430,-216.5 430,-186.5 579,-186.5 579,-216.5"/>
<text text-anchor="start" x="438" y="-204.5" font-family="Helvetica,sans-Serif" font-size="10.00">HighLevelEnergyCalculator</text>
<text text-anchor="middle" x="504.5" y="-193.5" font-family="Helvetica,sans-Serif" font-size="10.00">::print_gibbs_format_static</text>
</a>
</g>
</g>
<!-- Node3&#45;&gt;Node15 -->
<g id="edge19_Node000003_Node000015" class="edge">
<title>Node3&#45;&gt;Node15</title>
<g id="a_edge19_Node000003_Node000015"><a xlink:title=" ">
<path fill="none" stroke="#63b8ff" d="M651.98,-165.54C626.17,-171.87 594.28,-179.7 566.85,-186.44"/>
<polygon fill="#63b8ff" stroke="#63b8ff" points="653.03,-168.88 661.91,-163.1 651.36,-162.08 653.03,-168.88"/>
</a>
</g>
</g>
<!-- Node5 -->
<g id="Node000005" class="node">
<title>Node5</title>
<g id="a_Node000005"><a xlink:href="group__ModuleExecutors.html#gab1aa2594a8bb3d2789d37593f69cbc5e" target="_top" xlink:title=" ">
<polygon fill="white" stroke="#666666" points="358.5,-116.5 248.5,-116.5 248.5,-86.5 358.5,-86.5 358.5,-116.5"/>
<text text-anchor="start" x="256.5" y="-104.5" font-family="Helvetica,sans-Serif" font-size="10.00">execute_high_level</text>
<text text-anchor="middle" x="303.5" y="-93.5" font-family="Helvetica,sans-Serif" font-size="10.00">_au_command</text>
</a>
</g>
</g>
<!-- Node4&#45;&gt;Node5 -->
<g id="edge4_Node000004_Node000005" class="edge">
<title>Node4&#45;&gt;Node5</title>
<g id="a_edge4_Node000004_Node000005"><a xlink:title=" ">
<path fill="none" stroke="#63b8ff" d="M409.21,-103.6C391.84,-103.26 374.26,-102.9 358.59,-102.59"/>
<polygon fill="#63b8ff" stroke="#63b8ff" points="409.33,-107.11 419.39,-103.81 409.47,-100.11 409.33,-107.11"/>
</a>
</g>
</g>
<!-- Node6 -->
<g id="Node000006" class="node">
<title>Node6</title>
<g id="a_Node000006"><a xlink:href="main_8cpp.html#a0ddf1224851353fc92bfbff6f499fa97" target="_top" xlink:title="Main entry point for the Gaussian Extractor application.">
<polygon fill="white" stroke="#666666" points="41,-95 0,-95 0,-76 41,-76 41,-95"/>
<text text-anchor="middle" x="20.5" y="-83" font-family="Helvetica,sans-Serif" font-size="10.00">main</text>
</a>
</g>
</g>
<!-- Node5&#45;&gt;Node6 -->
<g id="edge5_Node000005_Node000006" class="edge">
<title>Node5&#45;&gt;Node6</title>
<g id="a_edge5_Node000005_Node000006"><a xlink:title=" ">
<path fill="none" stroke="#63b8ff" d="M238.25,-91.27C223.43,-89.31 207.7,-87.54 193,-86.5 138.06,-82.59 72.96,-83.81 41.08,-84.79"/>
<polygon fill="#63b8ff" stroke="#63b8ff" points="237.96,-94.77 248.34,-92.66 238.91,-87.83 237.96,-94.77"/>
</a>
</g>
</g>
<!-- Node7 -->
<g id="Node000007" class="node">
<title>Node7</title>
<g id="a_Node000007"><a xlink:href="interactive__mode_8cpp.html#a6b615c34054150d837dc45ed1c17b297" target="_top" xlink:title="Enhanced interactive command loop with TAB completion for Windows.">
<polygon fill="white" stroke="#666666" points="193,-114 77,-114 77,-95 193,-95 193,-114"/>
<text text-anchor="middle" x="135" y="-102" font-family="Helvetica,sans-Serif" font-size="10.00">run_interactive_loop</text>
</a>
</g>
</g>
<!-- Node5&#45;&gt;Node7 -->
<g id="edge6_Node000005_Node000007" class="edge">
<title>Node5&#45;&gt;Node7</title>
<g id="a_edge6_Node000005_Node000007"><a xlink:title=" ">
<path fill="none" stroke="#63b8ff" d="M238.32,-102.66C223.47,-102.92 207.76,-103.21 193.23,-103.47"/>
<polygon fill="#63b8ff" stroke="#63b8ff" points="238.51,-106.15 248.44,-102.47 238.38,-99.15 238.51,-106.15"/>
</a>
</g>
</g>
<!-- Node7&#45;&gt;Node6 -->
<g id="edge7_Node000007_Node000006" class="edge">
<title>Node7&#45;&gt;Node6</title>
<g id="a_edge7_Node000007_Node000006"><a xlink:title=" ">
<path fill="none" stroke="#63b8ff" d="M67.4,-93.25C57.88,-91.64 48.77,-90.11 41.22,-88.83"/>
<polygon fill="#63b8ff" stroke="#63b8ff" points="66.98,-96.73 77.42,-94.94 68.14,-89.83 66.98,-96.73"/>
</a>
</g>
</g>
<!-- Node8&#45;&gt;Node5 -->
<g id="edge9_Node000008_Node000005" class="edge">
<title>Node8&#45;&gt;Node5</title>
<g id="a_edge9_Node000008_Node000005"><a xlink:title=" ">
<path fill="none" stroke="#63b8ff" d="M420.19,-72.43C399.43,-77.65 377.71,-83.11 358.76,-87.87"/>
<polygon fill="#63b8ff" stroke="#63b8ff" points="421.12,-75.81 429.97,-69.98 419.41,-69.02 421.12,-75.81"/>
</a>
</g>
</g>
<!-- Node9 -->
<g id="Node000009" class="node">
<title>Node9</title>
<g id="a_Node000009"><a xlink:href="group__OutputFunctions.html#ga662bddcabe4e2beb2658451fb36e109b" target="_top" xlink:title="Print results with detailed energy component breakdown.">
<polygon fill="white" stroke="#666666" points="378,-67.5 229,-67.5 229,-37.5 378,-37.5 378,-67.5"/>
<text text-anchor="start" x="237" y="-55.5" font-family="Helvetica,sans-Serif" font-size="10.00">HighLevelEnergyCalculator</text>
<text text-anchor="middle" x="303.5" y="-44.5" font-family="Helvetica,sans-Serif" font-size="10.00">::print_components_format</text>
</a>
</g>
</g>
<!-- Node8&#45;&gt;Node9 -->
<g id="edge10_Node000008_Node000009" class="edge">
<title>Node8&#45;&gt;Node9</title>
<g id="a_edge10_Node000008_Node000009"><a xlink:title=" ">
<path fill="none" stroke="#63b8ff" d="M419.93,-51.92C406.03,-51.99 391.7,-52.06 378.06,-52.13"/>
<polygon fill="#63b8ff" stroke="#63b8ff" points="419.98,-55.42 429.97,-51.87 419.95,-48.42 419.98,-55.42"/>
</a>
</g>
</g>
<!-- Node12 -->
<g id="Node000012" class="node">
<title>Node12</title>
<g id="a_Node000012"><a xlink:href="group__ModuleExecutors.html#gaefd8d559f7f798aaf8cb5f6feb9dce47" target="_top" xlink:title=" ">
<polygon fill="white" stroke="#666666" points="358.5,-165.5 248.5,-165.5 248.5,-135.5 358.5,-135.5 358.5,-165.5"/>
<text text-anchor="start" x="256.5" y="-153.5" font-family="Helvetica,sans-Serif" font-size="10.00">execute_high_level</text>
<text text-anchor="middle" x="303.5" y="-142.5" font-family="Helvetica,sans-Serif" font-size="10.00">_kj_command</text>
</a>
</g>
</g>
<!-- Node11&#45;&gt;Node12 -->
<g id="edge13_Node000011_Node000012" class="edge">
<title>Node11&#45;&gt;Node12</title>
<g id="a_edge13_Node000011_Node000012"><a xlink:title=" ">
<path fill="none" stroke="#63b8ff" d="M419.91,-152.24C399.23,-151.93 377.62,-151.6 358.76,-151.32"/>
<polygon fill="#63b8ff" stroke="#63b8ff" points="419.91,-155.74 429.97,-152.39 420.02,-148.74 419.91,-155.74"/>
</a>
</g>
</g>
<!-- Node12&#45;&gt;Node6 -->
<g id="edge14_Node000012_Node000006" class="edge">
<title>Node12&#45;&gt;Node6</title>
<g id="a_edge14_Node000012_Node000006"><a xlink:title=" ">
<path fill="none" stroke="#63b8ff" d="M238.22,-150.89C192.02,-149.26 128.98,-143.05 77,-123.5 59.73,-117 42.64,-104.05 32.08,-95.09"/>
<polygon fill="#63b8ff" stroke="#63b8ff" points="238.3,-154.4 248.4,-151.19 238.51,-147.4 238.3,-154.4"/>
</a>
</g>
</g>
<!-- Node12&#45;&gt;Node7 -->
<g id="edge15_Node000012_Node000007" class="edge">
<title>Node12&#45;&gt;Node7</title>
<g id="a_edge15_Node000012_Node000007"><a xlink:title=" ">
<path fill="none" stroke="#63b8ff" d="M238.65,-132.86C215.45,-126.45 190.12,-119.45 170.43,-114.01"/>
<polygon fill="#63b8ff" stroke="#63b8ff" points="237.87,-136.28 248.44,-135.57 239.74,-129.53 237.87,-136.28"/>
</a>
</g>
</g>
<!-- Node13&#45;&gt;Node12 -->
<g id="edge17_Node000013_Node000012" class="edge">
<title>Node13&#45;&gt;Node12</title>
<g id="a_edge17_Node000013_Node000012"><a xlink:title=" ">
<path fill="none" stroke="#63b8ff" d="M422.76,-278.33C419.74,-276.84 416.81,-275.23 414,-273.5 368.01,-245.13 330.24,-191.61 313.62,-165.54"/>
<polygon fill="#63b8ff" stroke="#63b8ff" points="421.47,-281.59 432.03,-282.48 424.33,-275.2 421.47,-281.59"/>
</a>
</g>
</g>
<!-- Node14 -->
<g id="Node000014" class="node">
<title>Node14</title>
<g id="a_Node000014"><a xlink:href="group__OutputFunctions.html#ga8bd0bcb08333beae561c2b44df59c8a5" target="_top" xlink:title="Print results in Gibbs free energy focused format.">
<polygon fill="white" stroke="#666666" points="378,-312.5 229,-312.5 229,-282.5 378,-282.5 378,-312.5"/>
<text text-anchor="start" x="237" y="-300.5" font-family="Helvetica,sans-Serif" font-size="10.00">HighLevelEnergyCalculator</text>
<text text-anchor="middle" x="303.5" y="-289.5" font-family="Helvetica,sans-Serif" font-size="10.00">::print_gibbs_format</text>
</a>
</g>
</g>
<!-- Node13&#45;&gt;Node14 -->
<g id="edge18_Node000013_Node000014" class="edge">
<title>Node13&#45;&gt;Node14</title>
<g id="a_edge18_Node000013_Node000014"><a xlink:title=" ">
<path fill="none" stroke="#63b8ff" d="M413.21,-297.5C401.53,-297.5 389.67,-297.5 378.3,-297.5"/>
<polygon fill="#63b8ff" stroke="#63b8ff" points="413.42,-301 423.42,-297.5 413.42,-294 413.42,-301"/>
</a>
</g>
</g>
<!-- Node17 -->
<g id="Node000017" class="node">
<title>Node17</title>
<g id="a_Node000017"><a xlink:href="group__ModuleExecutors.html#gaa356f7897fc875da426df1cf3c9c5b99" target="_top" xlink:title=" ">
<polygon fill="white" stroke="#666666" points="378,-19 229,-19 229,0 378,0 378,-19"/>
<text text-anchor="middle" x="303.5" y="-7" font-family="Helvetica,sans-Serif" font-size="10.00">execute_extract_command</text>
</a>
</g>
</g>
<!-- Node16&#45;&gt;Node17 -->
<g id="edge21_Node000016_Node000017" class="edge">
<title>Node16&#45;&gt;Node17</title>
<g id="a_edge21_Node000016_Node000017"><a xlink:title=" ">
<path fill="none" stroke="#63b8ff" d="M670.74,-45.88C649.91,-37.19 621.34,-26.64 595,-21.5 522.17,-7.29 437.2,-5.44 378.04,-6.44"/>
<polygon fill="#63b8ff" stroke="#63b8ff" points="669.45,-49.13 680.02,-49.83 672.19,-42.69 669.45,-49.13"/>
</a>
</g>
</g>
<!-- Node17&#45;&gt;Node6 -->
<g id="edge22_Node000017_Node000006" class="edge">
<title>Node17&#45;&gt;Node6</title>
<g id="a_edge22_Node000017_Node000006"><a xlink:title=" ">
<path fill="none" stroke="#63b8ff" d="M255.36,-21.57C246.59,-23.85 237.51,-26.23 229,-28.5 159.87,-46.93 78.05,-69.68 41.21,-79.98"/>
<polygon fill="#63b8ff" stroke="#63b8ff" points="256.28,-24.95 265.08,-19.06 254.52,-18.17 256.28,-24.95"/>
</a>
</g>
</g>
<!-- Node17&#45;&gt;Node7 -->
<g id="edge23_Node000017_Node000007" class="edge">
<title>Node17&#45;&gt;Node7</title>
<g id="a_edge23_Node000017_Node000007"><a xlink:title=" ">
<path fill="none" stroke="#63b8ff" d="M243.48,-22.3C238.48,-24.12 233.58,-26.18 229,-28.5 194.22,-46.13 160.63,-78.55 145.05,-94.75"/>
<polygon fill="#63b8ff" stroke="#63b8ff" points="244.78,-25.56 253.18,-19.1 242.59,-18.91 244.78,-25.56"/>
</a>
</g>
</g>
</g>
</svg>
