<?xml version="1.0" encoding="UTF-8" standalone="no"?>
<!DOCTYPE svg PUBLIC "-//W3C//DTD SVG 1.1//EN"
 "http://www.w3.org/Graphics/SVG/1.1/DTD/svg11.dtd">
<!-- Generated by graphviz version 2.43.0 (0)
 -->
<!-- Title: core/parameter_parser.h Pages: 1 -->
<svg width="629pt" height="82pt"
 viewBox="0.00 0.00 629.00 82.00" xmlns="http://www.w3.org/2000/svg" xmlns:xlink="http://www.w3.org/1999/xlink">
<g id="graph0" class="graph" transform="scale(1 1) rotate(0) translate(4 78)">
<title>core/parameter_parser.h</title>
<!-- Node1 -->
<g id="Node000001" class="node">
<title>Node1</title>
<g id="a_Node000001"><a xlink:title="Header file for parameter file parsing functionality.">
<polygon fill="#999999" stroke="#666666" points="374.5,-74 238.5,-74 238.5,-55 374.5,-55 374.5,-74"/>
<text text-anchor="middle" x="306.5" y="-62" font-family="Helvetica,sans-Serif" font-size="10.00">core/parameter_parser.h</text>
</a>
</g>
</g>
<!-- Node2 -->
<g id="Node000002" class="node">
<title>Node2</title>
<g id="a_Node000002"><a xlink:href="command__system_8cpp.html" target="_top" xlink:title=" ">
<polygon fill="white" stroke="#666666" points="151,-19 0,-19 0,0 151,0 151,-19"/>
<text text-anchor="middle" x="75.5" y="-7" font-family="Helvetica,sans-Serif" font-size="10.00">core/command_system.cpp</text>
</a>
</g>
</g>
<!-- Node1&#45;&gt;Node2 -->
<g id="edge1_Node000001_Node000002" class="edge">
<title>Node1&#45;&gt;Node2</title>
<g id="a_edge1_Node000001_Node000002"><a xlink:title=" ">
<path fill="none" stroke="#63b8ff" d="M259.39,-52.69C216.11,-42.76 152.81,-28.24 112.91,-19.08"/>
<polygon fill="#63b8ff" stroke="#63b8ff" points="258.86,-56.16 269.39,-54.98 260.42,-49.34 258.86,-56.16"/>
</a>
</g>
</g>
<!-- Node3 -->
<g id="Node000003" class="node">
<title>Node3</title>
<g id="a_Node000003"><a xlink:href="create__input_8cpp.html" target="_top" xlink:title="Implementation of Gaussian input file creation from XYZ files.">
<polygon fill="white" stroke="#666666" points="291.5,-19 169.5,-19 169.5,0 291.5,0 291.5,-19"/>
<text text-anchor="middle" x="230.5" y="-7" font-family="Helvetica,sans-Serif" font-size="10.00">core/create_input.cpp</text>
</a>
</g>
</g>
<!-- Node1&#45;&gt;Node3 -->
<g id="edge2_Node000001_Node000003" class="edge">
<title>Node1&#45;&gt;Node3</title>
<g id="a_edge2_Node000001_Node000003"><a xlink:title=" ">
<path fill="none" stroke="#63b8ff" d="M285.92,-49.15C272.19,-39.57 254.57,-27.29 242.93,-19.17"/>
<polygon fill="#63b8ff" stroke="#63b8ff" points="284.08,-52.14 294.29,-54.98 288.09,-46.39 284.08,-52.14"/>
</a>
</g>
</g>
<!-- Node4 -->
<g id="Node000004" class="node">
<title>Node4</title>
<g id="a_Node000004"><a xlink:href="interactive__mode_8cpp.html" target="_top" xlink:title="Implementation of interactive mode functionality.">
<polygon fill="white" stroke="#666666" points="455.5,-19 309.5,-19 309.5,0 455.5,0 455.5,-19"/>
<text text-anchor="middle" x="382.5" y="-7" font-family="Helvetica,sans-Serif" font-size="10.00">core/interactive_mode.cpp</text>
</a>
</g>
</g>
<!-- Node1&#45;&gt;Node4 -->
<g id="edge3_Node000001_Node000004" class="edge">
<title>Node1&#45;&gt;Node4</title>
<g id="a_edge3_Node000001_Node000004"><a xlink:title=" ">
<path fill="none" stroke="#63b8ff" d="M327.08,-49.15C340.81,-39.57 358.43,-27.29 370.07,-19.17"/>
<polygon fill="#63b8ff" stroke="#63b8ff" points="324.91,-46.39 318.71,-54.98 328.92,-52.14 324.91,-46.39"/>
</a>
</g>
</g>
<!-- Node5 -->
<g id="Node000005" class="node">
<title>Node5</title>
<g id="a_Node000005"><a xlink:href="parameter__parser_8cpp.html" target="_top" xlink:title="Implementation of parameter file parsing functionality.">
<polygon fill="white" stroke="#666666" points="621,-19 474,-19 474,0 621,0 621,-19"/>
<text text-anchor="middle" x="547.5" y="-7" font-family="Helvetica,sans-Serif" font-size="10.00">core/parameter_parser.cpp</text>
</a>
</g>
</g>
<!-- Node1&#45;&gt;Node5 -->
<g id="edge4_Node000001_Node000005" class="edge">
<title>Node1&#45;&gt;Node5</title>
<g id="a_edge4_Node000001_Node000005"><a xlink:title=" ">
<path fill="none" stroke="#63b8ff" d="M355.08,-52.82C400.25,-42.88 466.67,-28.28 508.48,-19.08"/>
<polygon fill="#63b8ff" stroke="#63b8ff" points="354.24,-49.42 345.22,-54.98 355.74,-56.26 354.24,-49.42"/>
</a>
</g>
</g>
</g>
</svg>
