<?xml version="1.0" encoding="UTF-8" standalone="no"?>
<!DOCTYPE svg PUBLIC "-//W3C//DTD SVG 1.1//EN"
 "http://www.w3.org/Graphics/SVG/1.1/DTD/svg11.dtd">
<!-- Generated by graphviz version 2.43.0 (0)
 -->
<!-- Title: core/parameter_parser.h Pages: 1 -->
<svg width="334pt" height="82pt"
 viewBox="0.00 0.00 333.50 82.00" xmlns="http://www.w3.org/2000/svg" xmlns:xlink="http://www.w3.org/1999/xlink">
<g id="graph0" class="graph" transform="scale(1 1) rotate(0) translate(4 78)">
<title>core/parameter_parser.h</title>
<!-- Node1 -->
<g id="Node000001" class="node">
<title>Node1</title>
<g id="a_Node000001"><a xlink:title="Header file for parameter file parsing functionality.">
<polygon fill="#999999" stroke="#666666" points="231,-74 95,-74 95,-55 231,-55 231,-74"/>
<text text-anchor="middle" x="163" y="-62" font-family="Helvetica,sans-Serif" font-size="10.00">core/parameter_parser.h</text>
</a>
</g>
</g>
<!-- Node2 -->
<g id="Node000002" class="node">
<title>Node2</title>
<g id="a_Node000002"><a xlink:title=" ">
<polygon fill="#e0e0e0" stroke="#999999" points="44,-19 0,-19 0,0 44,0 44,-19"/>
<text text-anchor="middle" x="22" y="-7" font-family="Helvetica,sans-Serif" font-size="10.00">string</text>
</a>
</g>
</g>
<!-- Node1&#45;&gt;Node2 -->
<g id="edge1_Node000001_Node000002" class="edge">
<title>Node1&#45;&gt;Node2</title>
<g id="a_edge1_Node000001_Node000002"><a xlink:title=" ">
<path fill="none" stroke="#63b8ff" d="M140.35,-54.98C116.88,-46.16 80.01,-32.31 53.67,-22.4"/>
<polygon fill="#63b8ff" stroke="#63b8ff" points="54.73,-19.06 44.13,-18.82 52.26,-25.61 54.73,-19.06"/>
</a>
</g>
</g>
<!-- Node3 -->
<g id="Node000003" class="node">
<title>Node3</title>
<g id="a_Node000003"><a xlink:title=" ">
<polygon fill="#e0e0e0" stroke="#999999" points="155.5,-19 62.5,-19 62.5,0 155.5,0 155.5,-19"/>
<text text-anchor="middle" x="109" y="-7" font-family="Helvetica,sans-Serif" font-size="10.00">unordered_map</text>
</a>
</g>
</g>
<!-- Node1&#45;&gt;Node3 -->
<g id="edge2_Node000001_Node000003" class="edge">
<title>Node1&#45;&gt;Node3</title>
<g id="a_edge2_Node000001_Node000003"><a xlink:title=" ">
<path fill="none" stroke="#63b8ff" d="M154.08,-54.75C146.22,-47.03 134.57,-35.6 125.08,-26.28"/>
<polygon fill="#63b8ff" stroke="#63b8ff" points="127.34,-23.6 117.75,-19.09 122.44,-28.59 127.34,-23.6"/>
</a>
</g>
</g>
<!-- Node4 -->
<g id="Node000004" class="node">
<title>Node4</title>
<g id="a_Node000004"><a xlink:title=" ">
<polygon fill="#e0e0e0" stroke="#999999" points="260,-19 174,-19 174,0 260,0 260,-19"/>
<text text-anchor="middle" x="217" y="-7" font-family="Helvetica,sans-Serif" font-size="10.00">unordered_set</text>
</a>
</g>
</g>
<!-- Node1&#45;&gt;Node4 -->
<g id="edge3_Node000001_Node000004" class="edge">
<title>Node1&#45;&gt;Node4</title>
<g id="a_edge3_Node000001_Node000004"><a xlink:title=" ">
<path fill="none" stroke="#63b8ff" d="M171.92,-54.75C179.78,-47.03 191.43,-35.6 200.92,-26.28"/>
<polygon fill="#63b8ff" stroke="#63b8ff" points="203.56,-28.59 208.25,-19.09 198.66,-23.6 203.56,-28.59"/>
</a>
</g>
</g>
<!-- Node5 -->
<g id="Node000005" class="node">
<title>Node5</title>
<g id="a_Node000005"><a xlink:title=" ">
<polygon fill="#e0e0e0" stroke="#999999" points="325.5,-19 278.5,-19 278.5,0 325.5,0 325.5,-19"/>
<text text-anchor="middle" x="302" y="-7" font-family="Helvetica,sans-Serif" font-size="10.00">vector</text>
</a>
</g>
</g>
<!-- Node1&#45;&gt;Node5 -->
<g id="edge4_Node000001_Node000005" class="edge">
<title>Node1&#45;&gt;Node5</title>
<g id="a_edge4_Node000001_Node000005"><a xlink:title=" ">
<path fill="none" stroke="#63b8ff" d="M185.33,-54.98C208.2,-46.27 243.96,-32.63 269.86,-22.75"/>
<polygon fill="#63b8ff" stroke="#63b8ff" points="271.16,-26 279.26,-19.17 268.67,-19.46 271.16,-26"/>
</a>
</g>
</g>
</g>
</svg>
