<?xml version="1.0" encoding="UTF-8" standalone="no"?>
<!DOCTYPE svg PUBLIC "-//W3C//DTD SVG 1.1//EN"
 "http://www.w3.org/Graphics/SVG/1.1/DTD/svg11.dtd">
<!-- Generated by graphviz version 2.43.0 (0)
 -->
<!-- Title: CommandContext Pages: 1 -->
<svg width="155pt" height="453pt"
 viewBox="0.00 0.00 155.00 453.00" xmlns="http://www.w3.org/2000/svg" xmlns:xlink="http://www.w3.org/1999/xlink">
<g id="graph0" class="graph" transform="scale(1 1) rotate(0) translate(4 449)">
<title>CommandContext</title>
<!-- Node1 -->
<g id="Node000001" class="node">
<title>Node1</title>
<g id="a_Node000001"><a xlink:title="Complete context and parameters for command execution.">
<polygon fill="#999999" stroke="transparent" points="136,-214 0,-214 0,0 136,0 136,-214"/>
<text text-anchor="start" x="23.5" y="-202" font-family="Helvetica,sans-Serif" font-size="10.00">CommandContext</text>
<text text-anchor="start" x="4" y="-187" font-family="Helvetica,sans-Serif" font-size="10.00">+</text>
<text text-anchor="start" x="17" y="-187" font-family="Helvetica,sans-Serif" font-size="10.00">command</text>
<text text-anchor="start" x="4" y="-172" font-family="Helvetica,sans-Serif" font-size="10.00">+</text>
<text text-anchor="start" x="17" y="-172" font-family="Helvetica,sans-Serif" font-size="10.00">quiet</text>
<text text-anchor="start" x="4" y="-157" font-family="Helvetica,sans-Serif" font-size="10.00">+</text>
<text text-anchor="start" x="17" y="-157" font-family="Helvetica,sans-Serif" font-size="10.00">requested_threads</text>
<text text-anchor="start" x="4" y="-142" font-family="Helvetica,sans-Serif" font-size="10.00">+</text>
<text text-anchor="start" x="17" y="-142" font-family="Helvetica,sans-Serif" font-size="10.00">max_file_size_mb</text>
<text text-anchor="start" x="4" y="-127" font-family="Helvetica,sans-Serif" font-size="10.00">+</text>
<text text-anchor="start" x="17" y="-127" font-family="Helvetica,sans-Serif" font-size="10.00">batch_size</text>
<text text-anchor="start" x="4" y="-112" font-family="Helvetica,sans-Serif" font-size="10.00">+</text>
<text text-anchor="start" x="17" y="-112" font-family="Helvetica,sans-Serif" font-size="10.00">extension</text>
<text text-anchor="start" x="4" y="-97" font-family="Helvetica,sans-Serif" font-size="10.00">+</text>
<text text-anchor="start" x="17" y="-97" font-family="Helvetica,sans-Serif" font-size="10.00">valid_extensions</text>
<text text-anchor="start" x="4" y="-82" font-family="Helvetica,sans-Serif" font-size="10.00">+</text>
<text text-anchor="start" x="17" y="-82" font-family="Helvetica,sans-Serif" font-size="10.00">warnings</text>
<text text-anchor="start" x="4" y="-67" font-family="Helvetica,sans-Serif" font-size="10.00">+</text>
<text text-anchor="start" x="17" y="-67" font-family="Helvetica,sans-Serif" font-size="10.00">temp</text>
<text text-anchor="start" x="4" y="-52" font-family="Helvetica,sans-Serif" font-size="10.00">+</text>
<text text-anchor="start" x="17" y="-52" font-family="Helvetica,sans-Serif" font-size="10.00">concentration</text>
<text text-anchor="start" x="17" y="-37" font-family="Helvetica,sans-Serif" font-size="10.00">and 30 more...</text>
<text text-anchor="start" x="4" y="-22" font-family="Helvetica,sans-Serif" font-size="10.00">+</text>
<text text-anchor="start" x="17" y="-22" font-family="Helvetica,sans-Serif" font-size="10.00">CommandContext()</text>
<text text-anchor="start" x="4" y="-7" font-family="Helvetica,sans-Serif" font-size="10.00">+</text>
<text text-anchor="start" x="17" y="-7" font-family="Helvetica,sans-Serif" font-size="10.00">apply_config_defaults()</text>
<polygon fill="#666666" stroke="#666666" points="0,-197 0,-197 136,-197 136,-197 0,-197"/>
<polygon fill="#666666" stroke="#666666" points="0,-32 0,-32 15,-32 15,-32 0,-32"/>
<polygon fill="#666666" stroke="#666666" points="15,-32 15,-32 136,-32 136,-32 15,-32"/>
<polygon fill="none" stroke="#666666" points="0,0 0,-214 136,-214 136,0 0,0"/>
</a>
</g>
</g>
<!-- Node2 -->
<g id="Node000002" class="node">
<title>Node2</title>
<g id="a_Node000002"><a xlink:href="structJobResources.html" target="_top" xlink:title="Complete resource allocation information from job scheduler.">
<polygon fill="white" stroke="transparent" points="135,-445 1,-445 1,-261 135,-261 135,-445"/>
<text text-anchor="start" x="35" y="-433" font-family="Helvetica,sans-Serif" font-size="10.00">JobResources</text>
<text text-anchor="start" x="5" y="-418" font-family="Helvetica,sans-Serif" font-size="10.00">+</text>
<text text-anchor="start" x="18" y="-418" font-family="Helvetica,sans-Serif" font-size="10.00">scheduler_type</text>
<text text-anchor="start" x="5" y="-403" font-family="Helvetica,sans-Serif" font-size="10.00">+</text>
<text text-anchor="start" x="18" y="-403" font-family="Helvetica,sans-Serif" font-size="10.00">job_id</text>
<text text-anchor="start" x="5" y="-388" font-family="Helvetica,sans-Serif" font-size="10.00">+</text>
<text text-anchor="start" x="18" y="-388" font-family="Helvetica,sans-Serif" font-size="10.00">allocated_cpus</text>
<text text-anchor="start" x="5" y="-373" font-family="Helvetica,sans-Serif" font-size="10.00">+</text>
<text text-anchor="start" x="18" y="-373" font-family="Helvetica,sans-Serif" font-size="10.00">allocated_memory_mb</text>
<text text-anchor="start" x="5" y="-358" font-family="Helvetica,sans-Serif" font-size="10.00">+</text>
<text text-anchor="start" x="18" y="-358" font-family="Helvetica,sans-Serif" font-size="10.00">nodes</text>
<text text-anchor="start" x="5" y="-343" font-family="Helvetica,sans-Serif" font-size="10.00">+</text>
<text text-anchor="start" x="18" y="-343" font-family="Helvetica,sans-Serif" font-size="10.00">tasks_per_node</text>
<text text-anchor="start" x="5" y="-328" font-family="Helvetica,sans-Serif" font-size="10.00">+</text>
<text text-anchor="start" x="18" y="-328" font-family="Helvetica,sans-Serif" font-size="10.00">has_cpu_limit</text>
<text text-anchor="start" x="5" y="-313" font-family="Helvetica,sans-Serif" font-size="10.00">+</text>
<text text-anchor="start" x="18" y="-313" font-family="Helvetica,sans-Serif" font-size="10.00">has_memory_limit</text>
<text text-anchor="start" x="5" y="-298" font-family="Helvetica,sans-Serif" font-size="10.00">+</text>
<text text-anchor="start" x="18" y="-298" font-family="Helvetica,sans-Serif" font-size="10.00">partition</text>
<text text-anchor="start" x="5" y="-283" font-family="Helvetica,sans-Serif" font-size="10.00">+</text>
<text text-anchor="start" x="18" y="-283" font-family="Helvetica,sans-Serif" font-size="10.00">account</text>
<text text-anchor="start" x="66" y="-268" font-family="Helvetica,sans-Serif" font-size="10.00"> </text>
<polygon fill="#666666" stroke="#666666" points="1,-428 1,-428 135,-428 135,-428 1,-428"/>
<polygon fill="#666666" stroke="#666666" points="1,-278 1,-278 16,-278 16,-278 1,-278"/>
<polygon fill="#666666" stroke="#666666" points="16,-278 16,-278 135,-278 135,-278 16,-278"/>
<polygon fill="none" stroke="#666666" points="1,-261 1,-445 135,-445 135,-261 1,-261"/>
</a>
</g>
</g>
<!-- Node2&#45;&gt;Node1 -->
<g id="edge1_Node000001_Node000002" class="edge">
<title>Node2&#45;&gt;Node1</title>
<g id="a_edge1_Node000001_Node000002"><a xlink:title=" ">
<path fill="none" stroke="#63b8ff" d="M68,-260.8C68,-249.54 68,-237.92 68,-226.34"/>
<polygon fill="none" stroke="#63b8ff" points="68,-226.3 64,-220.3 68,-214.3 72,-220.3 68,-226.3"/>
</a>
</g>
<text text-anchor="middle" x="107.5" y="-235" font-family="Helvetica,sans-Serif" font-size="10.00" fill="grey"> +job_resources</text>
</g>
</g>
</svg>
