<?xml version="1.0" encoding="UTF-8" standalone="no"?>
<!DOCTYPE svg PUBLIC "-//W3C//DTD SVG 1.1//EN"
 "http://www.w3.org/Graphics/SVG/1.1/DTD/svg11.dtd">
<!-- Generated by graphviz version 2.43.0 (0)
 -->
<!-- Title: ProcessingContext Pages: 1 -->
<svg width="154pt" height="408pt"
 viewBox="0.00 0.00 154.00 408.00" xmlns="http://www.w3.org/2000/svg" xmlns:xlink="http://www.w3.org/1999/xlink">
<g id="graph0" class="graph" transform="scale(1 1) rotate(0) translate(4 404)">
<title>ProcessingContext</title>
<!-- Node1 -->
<g id="Node000001" class="node">
<title>Node1</title>
<g id="a_Node000001"><a xlink:title="Complete context for thread&#45;safe file processing operations.">
<polygon fill="#999999" stroke="transparent" points="127,-169 7,-169 7,0 127,0 127,-169"/>
<text text-anchor="start" x="21.5" y="-156.5" font-family="Helvetica,sans-Serif" font-size="10.00">ProcessingContext</text>
<text text-anchor="start" x="11" y="-141.5" font-family="Helvetica,sans-Serif" font-size="10.00">+</text>
<text text-anchor="start" x="24" y="-141.5" font-family="Helvetica,sans-Serif" font-size="10.00">memory_monitor</text>
<text text-anchor="start" x="11" y="-126.5" font-family="Helvetica,sans-Serif" font-size="10.00">+</text>
<text text-anchor="start" x="24" y="-126.5" font-family="Helvetica,sans-Serif" font-size="10.00">file_manager</text>
<text text-anchor="start" x="11" y="-111.5" font-family="Helvetica,sans-Serif" font-size="10.00">+</text>
<text text-anchor="start" x="24" y="-111.5" font-family="Helvetica,sans-Serif" font-size="10.00">error_collector</text>
<text text-anchor="start" x="11" y="-96.5" font-family="Helvetica,sans-Serif" font-size="10.00">+</text>
<text text-anchor="start" x="24" y="-96.5" font-family="Helvetica,sans-Serif" font-size="10.00">base_temp</text>
<text text-anchor="start" x="11" y="-81.5" font-family="Helvetica,sans-Serif" font-size="10.00">+</text>
<text text-anchor="start" x="24" y="-81.5" font-family="Helvetica,sans-Serif" font-size="10.00">concentration</text>
<text text-anchor="start" x="11" y="-66.5" font-family="Helvetica,sans-Serif" font-size="10.00">+</text>
<text text-anchor="start" x="24" y="-66.5" font-family="Helvetica,sans-Serif" font-size="10.00">use_input_temp</text>
<text text-anchor="start" x="11" y="-51.5" font-family="Helvetica,sans-Serif" font-size="10.00">+</text>
<text text-anchor="start" x="24" y="-51.5" font-family="Helvetica,sans-Serif" font-size="10.00">extension</text>
<text text-anchor="start" x="11" y="-36.5" font-family="Helvetica,sans-Serif" font-size="10.00">+</text>
<text text-anchor="start" x="24" y="-36.5" font-family="Helvetica,sans-Serif" font-size="10.00">requested_threads</text>
<text text-anchor="start" x="11" y="-21.5" font-family="Helvetica,sans-Serif" font-size="10.00">+</text>
<text text-anchor="start" x="24" y="-21.5" font-family="Helvetica,sans-Serif" font-size="10.00">max_file_size_mb</text>
<text text-anchor="start" x="11" y="-6.5" font-family="Helvetica,sans-Serif" font-size="10.00">+</text>
<text text-anchor="start" x="24" y="-6.5" font-family="Helvetica,sans-Serif" font-size="10.00">ProcessingContext()</text>
<polygon fill="#666666" stroke="#666666" points="7,-151.5 7,-151.5 127,-151.5 127,-151.5 7,-151.5"/>
<polygon fill="#666666" stroke="#666666" points="7,-16.5 7,-16.5 22,-16.5 22,-16.5 7,-16.5"/>
<polygon fill="#666666" stroke="#666666" points="22,-16.5 22,-16.5 127,-16.5 127,-16.5 22,-16.5"/>
<polygon fill="none" stroke="#666666" points="7,0 7,-169 127,-169 127,0 7,0"/>
</a>
</g>
</g>
<!-- Node2 -->
<g id="Node000002" class="node">
<title>Node2</title>
<g id="a_Node000002"><a xlink:href="structJobResources.html" target="_top" xlink:title="Complete resource allocation information from job scheduler.">
<polygon fill="white" stroke="transparent" points="134,-400 0,-400 0,-216 134,-216 134,-400"/>
<text text-anchor="start" x="34" y="-388" font-family="Helvetica,sans-Serif" font-size="10.00">JobResources</text>
<text text-anchor="start" x="4" y="-373" font-family="Helvetica,sans-Serif" font-size="10.00">+</text>
<text text-anchor="start" x="17" y="-373" font-family="Helvetica,sans-Serif" font-size="10.00">scheduler_type</text>
<text text-anchor="start" x="4" y="-358" font-family="Helvetica,sans-Serif" font-size="10.00">+</text>
<text text-anchor="start" x="17" y="-358" font-family="Helvetica,sans-Serif" font-size="10.00">job_id</text>
<text text-anchor="start" x="4" y="-343" font-family="Helvetica,sans-Serif" font-size="10.00">+</text>
<text text-anchor="start" x="17" y="-343" font-family="Helvetica,sans-Serif" font-size="10.00">allocated_cpus</text>
<text text-anchor="start" x="4" y="-328" font-family="Helvetica,sans-Serif" font-size="10.00">+</text>
<text text-anchor="start" x="17" y="-328" font-family="Helvetica,sans-Serif" font-size="10.00">allocated_memory_mb</text>
<text text-anchor="start" x="4" y="-313" font-family="Helvetica,sans-Serif" font-size="10.00">+</text>
<text text-anchor="start" x="17" y="-313" font-family="Helvetica,sans-Serif" font-size="10.00">nodes</text>
<text text-anchor="start" x="4" y="-298" font-family="Helvetica,sans-Serif" font-size="10.00">+</text>
<text text-anchor="start" x="17" y="-298" font-family="Helvetica,sans-Serif" font-size="10.00">tasks_per_node</text>
<text text-anchor="start" x="4" y="-283" font-family="Helvetica,sans-Serif" font-size="10.00">+</text>
<text text-anchor="start" x="17" y="-283" font-family="Helvetica,sans-Serif" font-size="10.00">has_cpu_limit</text>
<text text-anchor="start" x="4" y="-268" font-family="Helvetica,sans-Serif" font-size="10.00">+</text>
<text text-anchor="start" x="17" y="-268" font-family="Helvetica,sans-Serif" font-size="10.00">has_memory_limit</text>
<text text-anchor="start" x="4" y="-253" font-family="Helvetica,sans-Serif" font-size="10.00">+</text>
<text text-anchor="start" x="17" y="-253" font-family="Helvetica,sans-Serif" font-size="10.00">partition</text>
<text text-anchor="start" x="4" y="-238" font-family="Helvetica,sans-Serif" font-size="10.00">+</text>
<text text-anchor="start" x="17" y="-238" font-family="Helvetica,sans-Serif" font-size="10.00">account</text>
<text text-anchor="start" x="65" y="-223" font-family="Helvetica,sans-Serif" font-size="10.00"> </text>
<polygon fill="#666666" stroke="#666666" points="0,-383 0,-383 134,-383 134,-383 0,-383"/>
<polygon fill="#666666" stroke="#666666" points="0,-233 0,-233 15,-233 15,-233 0,-233"/>
<polygon fill="#666666" stroke="#666666" points="15,-233 15,-233 134,-233 134,-233 15,-233"/>
<polygon fill="none" stroke="#666666" points="0,-216 0,-400 134,-400 134,-216 0,-216"/>
</a>
</g>
</g>
<!-- Node2&#45;&gt;Node1 -->
<g id="edge1_Node000001_Node000002" class="edge">
<title>Node2&#45;&gt;Node1</title>
<g id="a_edge1_Node000001_Node000002"><a xlink:title=" ">
<path fill="none" stroke="#63b8ff" d="M67,-215.95C67,-204.56 67,-192.88 67,-181.42"/>
<polygon fill="none" stroke="#63b8ff" points="67,-181.09 63,-175.09 67,-169.09 71,-175.09 67,-181.09"/>
</a>
</g>
<text text-anchor="middle" x="106.5" y="-190" font-family="Helvetica,sans-Serif" font-size="10.00" fill="grey"> +job_resources</text>
</g>
</g>
</svg>
