<?xml version="1.0" encoding="UTF-8" standalone="no"?>
<!DOCTYPE svg PUBLIC "-//W3C//DTD SVG 1.1//EN"
 "http://www.w3.org/Graphics/SVG/1.1/DTD/svg11.dtd">
<!-- Generated by graphviz version 2.43.0 (0)
 -->
<!-- Title: core/utils.cpp Pages: 1 -->
<svg width="557pt" height="137pt"
 viewBox="0.00 0.00 556.50 137.00" xmlns="http://www.w3.org/2000/svg" xmlns:xlink="http://www.w3.org/1999/xlink">
<g id="graph0" class="graph" transform="scale(1 1) rotate(0) translate(4 133)">
<title>core/utils.cpp</title>
<!-- Node1 -->
<g id="Node000001" class="node">
<title>Node1</title>
<g id="a_Node000001"><a xlink:title=" ">
<polygon fill="#999999" stroke="#666666" points="302,-129 220,-129 220,-110 302,-110 302,-129"/>
<text text-anchor="middle" x="261" y="-117" font-family="Helvetica,sans-Serif" font-size="10.00">core/utils.cpp</text>
</a>
</g>
</g>
<!-- Node2 -->
<g id="Node000002" class="node">
<title>Node2</title>
<g id="a_Node000002"><a xlink:href="utils_8h.html" target="_top" xlink:title="Universial functions and classes for all modules.">
<polygon fill="white" stroke="#666666" points="109.5,-74 62.5,-74 62.5,-55 109.5,-55 109.5,-74"/>
<text text-anchor="middle" x="86" y="-62" font-family="Helvetica,sans-Serif" font-size="10.00">utils.h</text>
</a>
</g>
</g>
<!-- Node1&#45;&gt;Node2 -->
<g id="edge1_Node000001_Node000002" class="edge">
<title>Node1&#45;&gt;Node2</title>
<g id="a_edge1_Node000001_Node000002"><a xlink:title=" ">
<path fill="none" stroke="#63b8ff" d="M232.88,-109.98C201.89,-100.6 152.07,-85.51 119.18,-75.55"/>
<polygon fill="#63b8ff" stroke="#63b8ff" points="120.14,-72.18 109.56,-72.63 118.11,-78.88 120.14,-72.18"/>
</a>
</g>
</g>
<!-- Node3 -->
<g id="Node000003" class="node">
<title>Node3</title>
<g id="a_Node000003"><a xlink:title=" ">
<polygon fill="#e0e0e0" stroke="#999999" points="68,-19 0,-19 0,0 68,0 68,-19"/>
<text text-anchor="middle" x="34" y="-7" font-family="Helvetica,sans-Serif" font-size="10.00">filesystem</text>
</a>
</g>
</g>
<!-- Node1&#45;&gt;Node3 -->
<g id="edge5_Node000001_Node000003" class="edge">
<title>Node1&#45;&gt;Node3</title>
<g id="a_edge5_Node000001_Node000003"><a xlink:title=" ">
<path fill="none" stroke="#63b8ff" d="M219.75,-114.64C166.24,-108.81 76.88,-96.04 53,-74 40.72,-62.67 36.26,-43.77 34.7,-29.52"/>
<polygon fill="#63b8ff" stroke="#63b8ff" points="38.17,-29.06 33.97,-19.34 31.19,-29.56 38.17,-29.06"/>
</a>
</g>
</g>
<!-- Node5 -->
<g id="Node000005" class="node">
<title>Node5</title>
<g id="a_Node000005"><a xlink:title=" ">
<polygon fill="#e0e0e0" stroke="#999999" points="178,-74 128,-74 128,-55 178,-55 178,-74"/>
<text text-anchor="middle" x="153" y="-62" font-family="Helvetica,sans-Serif" font-size="10.00">chrono</text>
</a>
</g>
</g>
<!-- Node1&#45;&gt;Node5 -->
<g id="edge4_Node000001_Node000005" class="edge">
<title>Node1&#45;&gt;Node5</title>
<g id="a_edge4_Node000001_Node000005"><a xlink:title=" ">
<path fill="none" stroke="#63b8ff" d="M243.65,-109.98C226.43,-101.54 199.8,-88.47 179.85,-78.68"/>
<polygon fill="#63b8ff" stroke="#63b8ff" points="181.19,-75.43 170.67,-74.17 178.1,-81.72 181.19,-75.43"/>
</a>
</g>
</g>
<!-- Node6 -->
<g id="Node000006" class="node">
<title>Node6</title>
<g id="a_Node000006"><a xlink:title=" ">
<polygon fill="#e0e0e0" stroke="#999999" points="251.5,-74 196.5,-74 196.5,-55 251.5,-55 251.5,-74"/>
<text text-anchor="middle" x="224" y="-62" font-family="Helvetica,sans-Serif" font-size="10.00">fstream</text>
</a>
</g>
</g>
<!-- Node1&#45;&gt;Node6 -->
<g id="edge6_Node000001_Node000006" class="edge">
<title>Node1&#45;&gt;Node6</title>
<g id="a_edge6_Node000001_Node000006"><a xlink:title=" ">
<path fill="none" stroke="#63b8ff" d="M254.89,-109.75C249.72,-102.34 242.15,-91.5 235.81,-82.41"/>
<polygon fill="#63b8ff" stroke="#63b8ff" points="238.59,-80.29 230,-74.09 232.85,-84.29 238.59,-80.29"/>
</a>
</g>
</g>
<!-- Node7 -->
<g id="Node000007" class="node">
<title>Node7</title>
<g id="a_Node000007"><a xlink:title=" ">
<polygon fill="#e0e0e0" stroke="#999999" points="326,-74 270,-74 270,-55 326,-55 326,-74"/>
<text text-anchor="middle" x="298" y="-62" font-family="Helvetica,sans-Serif" font-size="10.00">iomanip</text>
</a>
</g>
</g>
<!-- Node1&#45;&gt;Node7 -->
<g id="edge7_Node000001_Node000007" class="edge">
<title>Node1&#45;&gt;Node7</title>
<g id="a_edge7_Node000001_Node000007"><a xlink:title=" ">
<path fill="none" stroke="#63b8ff" d="M267.11,-109.75C272.28,-102.34 279.85,-91.5 286.19,-82.41"/>
<polygon fill="#63b8ff" stroke="#63b8ff" points="289.15,-84.29 292,-74.09 283.41,-80.29 289.15,-84.29"/>
</a>
</g>
</g>
<!-- Node8 -->
<g id="Node000008" class="node">
<title>Node8</title>
<g id="a_Node000008"><a xlink:title=" ">
<polygon fill="#e0e0e0" stroke="#999999" points="400,-74 344,-74 344,-55 400,-55 400,-74"/>
<text text-anchor="middle" x="372" y="-62" font-family="Helvetica,sans-Serif" font-size="10.00">sstream</text>
</a>
</g>
</g>
<!-- Node1&#45;&gt;Node8 -->
<g id="edge8_Node000001_Node000008" class="edge">
<title>Node1&#45;&gt;Node8</title>
<g id="a_edge8_Node000001_Node000008"><a xlink:title=" ">
<path fill="none" stroke="#63b8ff" d="M278.83,-109.98C296.61,-101.5 324.15,-88.35 344.68,-78.54"/>
<polygon fill="#63b8ff" stroke="#63b8ff" points="346.33,-81.64 353.84,-74.17 343.31,-75.32 346.33,-81.64"/>
</a>
</g>
</g>
<!-- Node9 -->
<g id="Node000009" class="node">
<title>Node9</title>
<g id="a_Node000009"><a xlink:title=" ">
<polygon fill="#e0e0e0" stroke="#999999" points="483.5,-74 418.5,-74 418.5,-55 483.5,-55 483.5,-74"/>
<text text-anchor="middle" x="451" y="-62" font-family="Helvetica,sans-Serif" font-size="10.00">stdexcept</text>
</a>
</g>
</g>
<!-- Node1&#45;&gt;Node9 -->
<g id="edge9_Node000001_Node000009" class="edge">
<title>Node1&#45;&gt;Node9</title>
<g id="a_edge9_Node000001_Node000009"><a xlink:title=" ">
<path fill="none" stroke="#63b8ff" d="M291.53,-109.98C323.7,-101.01 374.56,-86.82 410.17,-76.89"/>
<polygon fill="#63b8ff" stroke="#63b8ff" points="411.54,-80.14 420.23,-74.08 409.66,-73.4 411.54,-80.14"/>
</a>
</g>
</g>
<!-- Node10 -->
<g id="Node000010" class="node">
<title>Node10</title>
<g id="a_Node000010"><a xlink:title=" ">
<polygon fill="#e0e0e0" stroke="#999999" points="548.5,-74 501.5,-74 501.5,-55 548.5,-55 548.5,-74"/>
<text text-anchor="middle" x="525" y="-62" font-family="Helvetica,sans-Serif" font-size="10.00">vector</text>
</a>
</g>
</g>
<!-- Node1&#45;&gt;Node10 -->
<g id="edge10_Node000001_Node000010" class="edge">
<title>Node1&#45;&gt;Node10</title>
<g id="a_edge10_Node000001_Node000010"><a xlink:title=" ">
<path fill="none" stroke="#63b8ff" d="M302.25,-111.49C346.69,-103.74 419.7,-90.42 491.2,-74.29"/>
<polygon fill="#63b8ff" stroke="#63b8ff" points="492.31,-77.63 501.28,-72 490.75,-70.81 492.31,-77.63"/>
</a>
</g>
</g>
<!-- Node2&#45;&gt;Node3 -->
<g id="edge2_Node000002_Node000003" class="edge">
<title>Node2&#45;&gt;Node3</title>
<g id="a_edge2_Node000002_Node000003"><a xlink:title=" ">
<path fill="none" stroke="#63b8ff" d="M77.41,-54.75C69.84,-47.03 58.62,-35.6 49.49,-26.28"/>
<polygon fill="#63b8ff" stroke="#63b8ff" points="51.93,-23.78 42.43,-19.09 46.93,-28.68 51.93,-23.78"/>
</a>
</g>
</g>
<!-- Node4 -->
<g id="Node000004" class="node">
<title>Node4</title>
<g id="a_Node000004"><a xlink:title=" ">
<polygon fill="#e0e0e0" stroke="#999999" points="130,-19 86,-19 86,0 130,0 130,-19"/>
<text text-anchor="middle" x="108" y="-7" font-family="Helvetica,sans-Serif" font-size="10.00">string</text>
</a>
</g>
</g>
<!-- Node2&#45;&gt;Node4 -->
<g id="edge3_Node000002_Node000004" class="edge">
<title>Node2&#45;&gt;Node4</title>
<g id="a_edge3_Node000002_Node000004"><a xlink:title=" ">
<path fill="none" stroke="#63b8ff" d="M89.63,-54.75C92.58,-47.65 96.83,-37.4 100.51,-28.56"/>
<polygon fill="#63b8ff" stroke="#63b8ff" points="103.83,-29.67 104.43,-19.09 97.37,-26.98 103.83,-29.67"/>
</a>
</g>
</g>
</g>
</svg>
