<?xml version="1.0" encoding="UTF-8" standalone="no"?>
<!DOCTYPE svg PUBLIC "-//W3C//DTD SVG 1.1//EN"
 "http://www.w3.org/Graphics/SVG/1.1/DTD/svg11.dtd">
<!-- Generated by graphviz version 2.43.0 (0)
 -->
<!-- Title: core/utils.h Pages: 1 -->
<svg width="900pt" height="137pt"
 viewBox="0.00 0.00 899.50 137.00" xmlns="http://www.w3.org/2000/svg" xmlns:xlink="http://www.w3.org/1999/xlink">
<g id="graph0" class="graph" transform="scale(1 1) rotate(0) translate(4 133)">
<title>core/utils.h</title>
<!-- Node1 -->
<g id="Node000001" class="node">
<title>Node1</title>
<g id="a_Node000001"><a xlink:title="Universial functions and classes for all modules.">
<polygon fill="#999999" stroke="#666666" points="442,-129 371,-129 371,-110 442,-110 442,-129"/>
<text text-anchor="middle" x="406.5" y="-117" font-family="Helvetica,sans-Serif" font-size="10.00">core/utils.h</text>
</a>
</g>
</g>
<!-- Node2 -->
<g id="Node000002" class="node">
<title>Node2</title>
<g id="a_Node000002"><a xlink:href="command__system_8cpp.html" target="_top" xlink:title=" ">
<polygon fill="white" stroke="#666666" points="151,-74 0,-74 0,-55 151,-55 151,-74"/>
<text text-anchor="middle" x="75.5" y="-62" font-family="Helvetica,sans-Serif" font-size="10.00">core/command_system.cpp</text>
</a>
</g>
</g>
<!-- Node1&#45;&gt;Node2 -->
<g id="edge1_Node000001_Node000002" class="edge">
<title>Node1&#45;&gt;Node2</title>
<g id="a_edge1_Node000001_Node000002"><a xlink:title=" ">
<path fill="none" stroke="#63b8ff" d="M360.71,-111.17C299.99,-101.45 193.04,-84.32 128.78,-74.03"/>
<polygon fill="#63b8ff" stroke="#63b8ff" points="360.34,-114.65 370.76,-112.78 361.44,-107.74 360.34,-114.65"/>
</a>
</g>
</g>
<!-- Node3 -->
<g id="Node000003" class="node">
<title>Node3</title>
<g id="a_Node000003"><a xlink:href="coord__extractor_8cpp.html" target="_top" xlink:title=" ">
<polygon fill="white" stroke="#666666" points="248,-19 111,-19 111,0 248,0 248,-19"/>
<text text-anchor="middle" x="179.5" y="-7" font-family="Helvetica,sans-Serif" font-size="10.00">core/coord_extractor.cpp</text>
</a>
</g>
</g>
<!-- Node1&#45;&gt;Node3 -->
<g id="edge2_Node000001_Node000003" class="edge">
<title>Node1&#45;&gt;Node3</title>
<g id="a_edge2_Node000001_Node000003"><a xlink:title=" ">
<path fill="none" stroke="#63b8ff" d="M360.86,-114.04C307.27,-107.91 222.73,-95.16 199.5,-74 183.78,-59.68 180.32,-33.14 179.62,-19.35"/>
<polygon fill="#63b8ff" stroke="#63b8ff" points="360.48,-117.52 370.81,-115.14 361.26,-110.56 360.48,-117.52"/>
</a>
</g>
</g>
<!-- Node4 -->
<g id="Node000004" class="node">
<title>Node4</title>
<g id="a_Node000004"><a xlink:href="coord__extractor_8h.html" target="_top" xlink:title="Header file for coordinate extraction command xyz to extract coordinates from Gaussian outputs.">
<polygon fill="white" stroke="#666666" points="333,-74 208,-74 208,-55 333,-55 333,-74"/>
<text text-anchor="middle" x="270.5" y="-62" font-family="Helvetica,sans-Serif" font-size="10.00">core/coord_extractor.h</text>
</a>
</g>
</g>
<!-- Node1&#45;&gt;Node4 -->
<g id="edge3_Node000001_Node000004" class="edge">
<title>Node1&#45;&gt;Node4</title>
<g id="a_edge3_Node000001_Node000004"><a xlink:title=" ">
<path fill="none" stroke="#63b8ff" d="M375.17,-106.29C349.96,-96.47 315.17,-82.91 292.75,-74.17"/>
<polygon fill="#63b8ff" stroke="#63b8ff" points="374.06,-109.61 384.65,-109.98 376.6,-103.09 374.06,-109.61"/>
</a>
</g>
</g>
<!-- Node6 -->
<g id="Node000006" class="node">
<title>Node6</title>
<g id="a_Node000006"><a xlink:href="create__input_8h.html" target="_top" xlink:title="Header file for Gaussian input file creation from XYZ files.">
<polygon fill="white" stroke="#666666" points="461.5,-74 351.5,-74 351.5,-55 461.5,-55 461.5,-74"/>
<text text-anchor="middle" x="406.5" y="-62" font-family="Helvetica,sans-Serif" font-size="10.00">core/create_input.h</text>
</a>
</g>
</g>
<!-- Node1&#45;&gt;Node6 -->
<g id="edge6_Node000001_Node000006" class="edge">
<title>Node1&#45;&gt;Node6</title>
<g id="a_edge6_Node000001_Node000006"><a xlink:title=" ">
<path fill="none" stroke="#63b8ff" d="M406.5,-99.66C406.5,-90.93 406.5,-80.99 406.5,-74.09"/>
<polygon fill="#63b8ff" stroke="#63b8ff" points="403,-99.75 406.5,-109.75 410,-99.75 403,-99.75"/>
</a>
</g>
</g>
<!-- Node8 -->
<g id="Node000008" class="node">
<title>Node8</title>
<g id="a_Node000008"><a xlink:href="interactive__mode_8cpp.html" target="_top" xlink:title="Implementation of interactive mode functionality.">
<polygon fill="white" stroke="#666666" points="625.5,-74 479.5,-74 479.5,-55 625.5,-55 625.5,-74"/>
<text text-anchor="middle" x="552.5" y="-62" font-family="Helvetica,sans-Serif" font-size="10.00">core/interactive_mode.cpp</text>
</a>
</g>
</g>
<!-- Node1&#45;&gt;Node8 -->
<g id="edge9_Node000001_Node000008" class="edge">
<title>Node1&#45;&gt;Node8</title>
<g id="a_edge9_Node000001_Node000008"><a xlink:title=" ">
<path fill="none" stroke="#63b8ff" d="M439.42,-106.55C466.53,-96.71 504.33,-82.98 528.62,-74.17"/>
<polygon fill="#63b8ff" stroke="#63b8ff" points="438.16,-103.28 429.96,-109.98 440.55,-109.86 438.16,-103.28"/>
</a>
</g>
</g>
<!-- Node9 -->
<g id="Node000009" class="node">
<title>Node9</title>
<g id="a_Node000009"><a xlink:href="parameter__parser_8cpp.html" target="_top" xlink:title="Implementation of parameter file parsing functionality.">
<polygon fill="white" stroke="#666666" points="791,-74 644,-74 644,-55 791,-55 791,-74"/>
<text text-anchor="middle" x="717.5" y="-62" font-family="Helvetica,sans-Serif" font-size="10.00">core/parameter_parser.cpp</text>
</a>
</g>
</g>
<!-- Node1&#45;&gt;Node9 -->
<g id="edge10_Node000001_Node000009" class="edge">
<title>Node1&#45;&gt;Node9</title>
<g id="a_edge10_Node000001_Node000009"><a xlink:title=" ">
<path fill="none" stroke="#63b8ff" d="M452.06,-110.74C509.5,-100.95 607.9,-84.18 667.4,-74.04"/>
<polygon fill="#63b8ff" stroke="#63b8ff" points="451.45,-107.29 442.18,-112.42 452.62,-114.19 451.45,-107.29"/>
</a>
</g>
</g>
<!-- Node10 -->
<g id="Node000010" class="node">
<title>Node10</title>
<g id="a_Node000010"><a xlink:href="utils_8cpp.html" target="_top" xlink:title=" ">
<polygon fill="white" stroke="#666666" points="891.5,-74 809.5,-74 809.5,-55 891.5,-55 891.5,-74"/>
<text text-anchor="middle" x="850.5" y="-62" font-family="Helvetica,sans-Serif" font-size="10.00">core/utils.cpp</text>
</a>
</g>
</g>
<!-- Node1&#45;&gt;Node10 -->
<g id="edge11_Node000001_Node000010" class="edge">
<title>Node1&#45;&gt;Node10</title>
<g id="a_edge11_Node000001_Node000010"><a xlink:title=" ">
<path fill="none" stroke="#63b8ff" d="M452.48,-114.15C526.1,-106.99 674.96,-91.75 800.5,-74 803.38,-73.59 806.34,-73.15 809.33,-72.69"/>
<polygon fill="#63b8ff" stroke="#63b8ff" points="451.79,-110.7 442.17,-115.15 452.46,-117.67 451.79,-110.7"/>
</a>
</g>
</g>
<!-- Node4&#45;&gt;Node3 -->
<g id="edge4_Node000004_Node000003" class="edge">
<title>Node4&#45;&gt;Node3</title>
<g id="a_edge4_Node000004_Node000003"><a xlink:title=" ">
<path fill="none" stroke="#63b8ff" d="M246.8,-49.7C230.22,-40.04 208.59,-27.44 194.39,-19.17"/>
<polygon fill="#63b8ff" stroke="#63b8ff" points="245.48,-52.98 255.88,-54.98 249,-46.93 245.48,-52.98"/>
</a>
</g>
</g>
<!-- Node5 -->
<g id="Node000005" class="node">
<title>Node5</title>
<g id="a_Node000005"><a xlink:href="module__executor_8cpp.html" target="_top" xlink:title=" ">
<polygon fill="white" stroke="#666666" points="410.5,-19 266.5,-19 266.5,0 410.5,0 410.5,-19"/>
<text text-anchor="middle" x="338.5" y="-7" font-family="Helvetica,sans-Serif" font-size="10.00">core/module_executor.cpp</text>
</a>
</g>
</g>
<!-- Node4&#45;&gt;Node5 -->
<g id="edge5_Node000004_Node000005" class="edge">
<title>Node4&#45;&gt;Node5</title>
<g id="a_edge5_Node000004_Node000005"><a xlink:title=" ">
<path fill="none" stroke="#63b8ff" d="M289.62,-48.6C301.8,-39.11 317.16,-27.13 327.38,-19.17"/>
<polygon fill="#63b8ff" stroke="#63b8ff" points="287.16,-46.08 281.43,-54.98 291.46,-51.6 287.16,-46.08"/>
</a>
</g>
</g>
<!-- Node6&#45;&gt;Node5 -->
<g id="edge8_Node000006_Node000005" class="edge">
<title>Node6&#45;&gt;Node5</title>
<g id="a_edge8_Node000006_Node000005"><a xlink:title=" ">
<path fill="none" stroke="#63b8ff" d="M387.38,-48.6C375.2,-39.11 359.84,-27.13 349.62,-19.17"/>
<polygon fill="#63b8ff" stroke="#63b8ff" points="385.54,-51.6 395.57,-54.98 389.84,-46.08 385.54,-51.6"/>
</a>
</g>
</g>
<!-- Node7 -->
<g id="Node000007" class="node">
<title>Node7</title>
<g id="a_Node000007"><a xlink:href="create__input_8cpp.html" target="_top" xlink:title="Implementation of Gaussian input file creation from XYZ files.">
<polygon fill="white" stroke="#666666" points="550.5,-19 428.5,-19 428.5,0 550.5,0 550.5,-19"/>
<text text-anchor="middle" x="489.5" y="-7" font-family="Helvetica,sans-Serif" font-size="10.00">core/create_input.cpp</text>
</a>
</g>
</g>
<!-- Node6&#45;&gt;Node7 -->
<g id="edge7_Node000006_Node000007" class="edge">
<title>Node6&#45;&gt;Node7</title>
<g id="a_edge7_Node000006_Node000007"><a xlink:title=" ">
<path fill="none" stroke="#63b8ff" d="M428.54,-49.42C443.61,-39.81 463.09,-27.37 475.92,-19.17"/>
<polygon fill="#63b8ff" stroke="#63b8ff" points="426.38,-46.65 419.84,-54.98 430.15,-52.55 426.38,-46.65"/>
</a>
</g>
</g>
</g>
</svg>
