<?xml version="1.0" encoding="UTF-8" standalone="no"?>
<!DOCTYPE svg PUBLIC "-//W3C//DTD SVG 1.1//EN"
 "http://www.w3.org/Graphics/SVG/1.1/DTD/svg11.dtd">
<!-- Generated by graphviz version 2.43.0 (0)
 -->
<!-- Title: core/version.h Pages: 1 -->
<svg width="818pt" height="82pt"
 viewBox="0.00 0.00 817.50 82.00" xmlns="http://www.w3.org/2000/svg" xmlns:xlink="http://www.w3.org/1999/xlink">
<g id="graph0" class="graph" transform="scale(1 1) rotate(0) translate(4 78)">
<title>core/version.h</title>
<!-- Node1 -->
<g id="Node000001" class="node">
<title>Node1</title>
<g id="a_Node000001"><a xlink:title="Version information and build metadata for Gaussian Extractor.">
<polygon fill="#999999" stroke="#666666" points="483.5,-74 397.5,-74 397.5,-55 483.5,-55 483.5,-74"/>
<text text-anchor="middle" x="440.5" y="-62" font-family="Helvetica,sans-Serif" font-size="10.00">core/version.h</text>
</a>
</g>
</g>
<!-- Node2 -->
<g id="Node000002" class="node">
<title>Node2</title>
<g id="a_Node000002"><a xlink:href="command__system_8cpp.html" target="_top" xlink:title=" ">
<polygon fill="white" stroke="#666666" points="151,-19 0,-19 0,0 151,0 151,-19"/>
<text text-anchor="middle" x="75.5" y="-7" font-family="Helvetica,sans-Serif" font-size="10.00">core/command_system.cpp</text>
</a>
</g>
</g>
<!-- Node1&#45;&gt;Node2 -->
<g id="edge1_Node000001_Node000002" class="edge">
<title>Node1&#45;&gt;Node2</title>
<g id="a_edge1_Node000001_Node000002"><a xlink:title=" ">
<path fill="none" stroke="#63b8ff" d="M387.2,-55.76C319.76,-45.97 203.97,-29.15 134.1,-19.01"/>
<polygon fill="#63b8ff" stroke="#63b8ff" points="386.8,-59.24 397.2,-57.21 387.8,-52.31 386.8,-59.24"/>
</a>
</g>
</g>
<!-- Node3 -->
<g id="Node000003" class="node">
<title>Node3</title>
<g id="a_Node000003"><a xlink:href="help__utils_8cpp.html" target="_top" xlink:title="Implementation of help utility functions.">
<polygon fill="white" stroke="#666666" points="277.5,-19 169.5,-19 169.5,0 277.5,0 277.5,-19"/>
<text text-anchor="middle" x="223.5" y="-7" font-family="Helvetica,sans-Serif" font-size="10.00">core/help_utils.cpp</text>
</a>
</g>
</g>
<!-- Node1&#45;&gt;Node3 -->
<g id="edge2_Node000001_Node000003" class="edge">
<title>Node1&#45;&gt;Node3</title>
<g id="a_edge2_Node000001_Node000003"><a xlink:title=" ">
<path fill="none" stroke="#63b8ff" d="M395.73,-52.56C355.08,-42.64 295.97,-28.2 258.64,-19.08"/>
<polygon fill="#63b8ff" stroke="#63b8ff" points="395.09,-56.01 405.64,-54.98 396.75,-49.21 395.09,-56.01"/>
</a>
</g>
</g>
<!-- Node4 -->
<g id="Node000004" class="node">
<title>Node4</title>
<g id="a_Node000004"><a xlink:href="interactive__mode_8cpp.html" target="_top" xlink:title="Implementation of interactive mode functionality.">
<polygon fill="white" stroke="#666666" points="441.5,-19 295.5,-19 295.5,0 441.5,0 441.5,-19"/>
<text text-anchor="middle" x="368.5" y="-7" font-family="Helvetica,sans-Serif" font-size="10.00">core/interactive_mode.cpp</text>
</a>
</g>
</g>
<!-- Node1&#45;&gt;Node4 -->
<g id="edge3_Node000001_Node000004" class="edge">
<title>Node1&#45;&gt;Node4</title>
<g id="a_edge3_Node000001_Node000004"><a xlink:title=" ">
<path fill="none" stroke="#63b8ff" d="M420.63,-48.88C407.68,-39.34 391.2,-27.21 380.28,-19.17"/>
<polygon fill="#63b8ff" stroke="#63b8ff" points="418.8,-51.88 428.93,-54.98 422.95,-46.24 418.8,-51.88"/>
</a>
</g>
</g>
<!-- Node5 -->
<g id="Node000005" class="node">
<title>Node5</title>
<g id="a_Node000005"><a xlink:href="metadata_8cpp.html" target="_top" xlink:title="Implementation of metadata utilities.">
<polygon fill="white" stroke="#666666" points="567.5,-19 459.5,-19 459.5,0 567.5,0 567.5,-19"/>
<text text-anchor="middle" x="513.5" y="-7" font-family="Helvetica,sans-Serif" font-size="10.00">core/metadata.cpp</text>
</a>
</g>
</g>
<!-- Node1&#45;&gt;Node5 -->
<g id="edge4_Node000001_Node000005" class="edge">
<title>Node1&#45;&gt;Node5</title>
<g id="a_edge4_Node000001_Node000005"><a xlink:title=" ">
<path fill="none" stroke="#63b8ff" d="M460.64,-48.88C473.78,-39.34 490.48,-27.21 501.56,-19.17"/>
<polygon fill="#63b8ff" stroke="#63b8ff" points="458.26,-46.28 452.23,-54.98 462.38,-51.94 458.26,-46.28"/>
</a>
</g>
</g>
<!-- Node6 -->
<g id="Node000006" class="node">
<title>Node6</title>
<g id="a_Node000006"><a xlink:href="module__executor_8cpp.html" target="_top" xlink:title=" ">
<polygon fill="white" stroke="#666666" points="729.5,-19 585.5,-19 585.5,0 729.5,0 729.5,-19"/>
<text text-anchor="middle" x="657.5" y="-7" font-family="Helvetica,sans-Serif" font-size="10.00">core/module_executor.cpp</text>
</a>
</g>
</g>
<!-- Node1&#45;&gt;Node6 -->
<g id="edge5_Node000001_Node000006" class="edge">
<title>Node1&#45;&gt;Node6</title>
<g id="a_edge5_Node000001_Node000006"><a xlink:title=" ">
<path fill="none" stroke="#63b8ff" d="M485.27,-52.56C525.92,-42.64 585.03,-28.2 622.36,-19.08"/>
<polygon fill="#63b8ff" stroke="#63b8ff" points="484.25,-49.21 475.36,-54.98 485.91,-56.01 484.25,-49.21"/>
</a>
</g>
</g>
<!-- Node7 -->
<g id="Node000007" class="node">
<title>Node7</title>
<g id="a_Node000007"><a xlink:href="main_8cpp.html" target="_top" xlink:title="Main entry point for the Gaussian Extractor application.">
<polygon fill="white" stroke="#666666" points="809.5,-19 747.5,-19 747.5,0 809.5,0 809.5,-19"/>
<text text-anchor="middle" x="778.5" y="-7" font-family="Helvetica,sans-Serif" font-size="10.00">main.cpp</text>
</a>
</g>
</g>
<!-- Node1&#45;&gt;Node7 -->
<g id="edge6_Node000001_Node000007" class="edge">
<title>Node1&#45;&gt;Node7</title>
<g id="a_edge6_Node000001_Node000007"><a xlink:title=" ">
<path fill="none" stroke="#63b8ff" d="M493.52,-56.58C553.24,-48.55 653.1,-34.44 738.5,-19 741.29,-18.49 744.19,-17.94 747.09,-17.36"/>
<polygon fill="#63b8ff" stroke="#63b8ff" points="493.02,-53.12 483.57,-57.91 493.94,-60.05 493.02,-53.12"/>
</a>
</g>
</g>
</g>
</svg>
